<?xml version="1.0" encoding="UTF-8" standalone="no"?>
<!DOCTYPE svg PUBLIC "-//W3C//DTD SVG 1.1//EN"
 "http://www.w3.org/Graphics/SVG/1.1/DTD/svg11.dtd">
<!-- Generated by graphviz version 2.38.0 (20140413.2041)
 -->
<!-- Title: Framework/src/AdvancedWorkflow.cxx Pages: 1 -->
<svg width="761pt" height="151pt"
 viewBox="0.00 0.00 760.50 151.00" xmlns="http://www.w3.org/2000/svg" xmlns:xlink="http://www.w3.org/1999/xlink">
<g id="graph0" class="graph" transform="scale(1 1) rotate(0) translate(4 147)">
<title>Framework/src/AdvancedWorkflow.cxx</title>
<!-- Node1 -->
<g id="node1" class="node"><title>Node1</title>
<polygon fill="#bfbfbf" stroke="black" points="332.5,-123.5 332.5,-142.5 520.5,-142.5 520.5,-123.5 332.5,-123.5"/>
<text text-anchor="middle" x="426.5" y="-130.5" font-family="Helvetica,sans-Serif" font-size="10.00">Framework/src/AdvancedWorkflow.cxx</text>
</g>
<!-- Node2 -->
<g id="node2" class="node"><title>Node2</title>
<g id="a_node2"><a xlink:href="AdvancedWorkflow_8h.html" target="_top" xlink:title="QualityControl/AdvancedWorkflow.h">
<polygon fill="none" stroke="black" points="0,-62 0,-81 175,-81 175,-62 0,-62"/>
<text text-anchor="middle" x="87.5" y="-69" font-family="Helvetica,sans-Serif" font-size="10.00">QualityControl/AdvancedWorkflow.h</text>
</a>
</g>
</g>
<!-- Node1&#45;&gt;Node2 -->
<g id="edge1" class="edge"><title>Node1&#45;&gt;Node2</title>
<path fill="none" stroke="midnightblue" d="M377.93,-123.475C316.758,-112.739 211.741,-94.3063 146.155,-82.7949"/>
<polygon fill="midnightblue" stroke="midnightblue" points="146.435,-79.2906 135.98,-81.0091 145.225,-86.1852 146.435,-79.2906"/>
</g>
<!-- Node4 -->
<g id="node4" class="node"><title>Node4</title>
<polygon fill="none" stroke="#bfbfbf" points="193,-56.5 193,-86.5 338,-86.5 338,-56.5 193,-56.5"/>
<text text-anchor="start" x="201" y="-74.5" font-family="Helvetica,sans-Serif" font-size="10.00">Framework/CompletionPolicy</text>
<text text-anchor="middle" x="265.5" y="-63.5" font-family="Helvetica,sans-Serif" font-size="10.00">Helpers.h</text>
</g>
<!-- Node1&#45;&gt;Node4 -->
<g id="edge3" class="edge"><title>Node1&#45;&gt;Node4</title>
<path fill="none" stroke="midnightblue" d="M403.433,-123.475C379.895,-114.776 342.689,-101.026 312.848,-89.9981"/>
<polygon fill="midnightblue" stroke="midnightblue" points="314.038,-86.7066 303.445,-86.523 311.611,-93.2725 314.038,-86.7066"/>
</g>
<!-- Node5 -->
<g id="node5" class="node"><title>Node5</title>
<polygon fill="none" stroke="#bfbfbf" points="356.5,-62 356.5,-81 496.5,-81 496.5,-62 356.5,-62"/>
<text text-anchor="middle" x="426.5" y="-69" font-family="Helvetica,sans-Serif" font-size="10.00">Framework/DataSpecUtils.h</text>
</g>
<!-- Node1&#45;&gt;Node5 -->
<g id="edge4" class="edge"><title>Node1&#45;&gt;Node5</title>
<path fill="none" stroke="midnightblue" d="M426.5,-123.475C426.5,-115.08 426.5,-101.981 426.5,-91.1631"/>
<polygon fill="midnightblue" stroke="midnightblue" points="430,-91.0091 426.5,-81.0091 423,-91.0091 430,-91.0091"/>
</g>
<!-- Node6 -->
<g id="node6" class="node"><title>Node6</title>
<g id="a_node6"><a xlink:href="QcInfoLogger_8h.html" target="_top" xlink:title="QualityControl/QcInfoLogger.h">
<polygon fill="none" stroke="black" points="515,-62 515,-81 664,-81 664,-62 515,-62"/>
<text text-anchor="middle" x="589.5" y="-69" font-family="Helvetica,sans-Serif" font-size="10.00">QualityControl/QcInfoLogger.h</text>
</a>
</g>
</g>
<!-- Node1&#45;&gt;Node6 -->
<g id="edge5" class="edge"><title>Node1&#45;&gt;Node6</title>
<path fill="none" stroke="midnightblue" d="M449.854,-123.475C477.814,-113.269 524.826,-96.108 556.491,-84.5492"/>
<polygon fill="midnightblue" stroke="midnightblue" points="557.996,-87.7259 566.189,-81.0091 555.595,-81.1503 557.996,-87.7259"/>
</g>
<!-- Node9 -->
<g id="node9" class="node"><title>Node9</title>
<polygon fill="none" stroke="#bfbfbf" points="682,-62 682,-81 731,-81 731,-62 682,-62"/>
<text text-anchor="middle" x="706.5" y="-69" font-family="Helvetica,sans-Serif" font-size="10.00">random</text>
</g>
<!-- Node1&#45;&gt;Node9 -->
<g id="edge8" class="edge"><title>Node1&#45;&gt;Node9</title>
<path fill="none" stroke="midnightblue" d="M496.132,-123.472C545.932,-116.359 614.186,-104.53 672.5,-87 674.647,-86.3546 676.841,-85.6152 679.03,-84.8196"/>
<polygon fill="midnightblue" stroke="midnightblue" points="680.423,-88.0324 688.425,-81.0884 677.839,-81.5267 680.423,-88.0324"/>
</g>
<!-- Node3 -->
<g id="node3" class="node"><title>Node3</title>
<polygon fill="none" stroke="#bfbfbf" points="17.5,-0.5 17.5,-19.5 157.5,-19.5 157.5,-0.5 17.5,-0.5"/>
<text text-anchor="middle" x="87.5" y="-7.5" font-family="Helvetica,sans-Serif" font-size="10.00">Framework/WorkflowSpec.h</text>
</g>
<!-- Node2&#45;&gt;Node3 -->
<g id="edge2" class="edge"><title>Node2&#45;&gt;Node3</title>
<path fill="none" stroke="midnightblue" d="M87.5,-61.9751C87.5,-53.5803 87.5,-40.4806 87.5,-29.6631"/>
<polygon fill="midnightblue" stroke="midnightblue" points="91.0001,-29.5091 87.5,-19.5091 84.0001,-29.5091 91.0001,-29.5091"/>
</g>
<!-- Node7 -->
<g id="node7" class="node"><title>Node7</title>
<polygon fill="none" stroke="#bfbfbf" points="442.5,-0.5 442.5,-19.5 572.5,-19.5 572.5,-0.5 442.5,-0.5"/>
<text text-anchor="middle" x="507.5" y="-7.5" font-family="Helvetica,sans-Serif" font-size="10.00">InfoLogger/InfoLogger.hxx</text>
</g>
<!-- Node6&#45;&gt;Node7 -->
<g id="edge6" class="edge"><title>Node6&#45;&gt;Node7</title>
<path fill="none" stroke="midnightblue" d="M577.751,-61.9751C564.721,-52.5199 543.464,-37.0961 527.741,-25.6871"/>
<polygon fill="midnightblue" stroke="midnightblue" points="529.376,-22.5492 519.227,-19.5091 525.265,-28.2149 529.376,-22.5492"/>
</g>
<!-- Node8 -->
<g id="node8" class="node"><title>Node8</title>
<polygon fill="none" stroke="#bfbfbf" points="590.5,-0.5 590.5,-19.5 752.5,-19.5 752.5,-0.5 590.5,-0.5"/>
<text text-anchor="middle" x="671.5" y="-7.5" font-family="Helvetica,sans-Serif" font-size="10.00">InfoLogger/InfoLoggerMacros.hxx</text>
</g>
<!-- Node6&#45;&gt;Node8 -->
<g id="edge7" class="edge"><title>Node6&#45;&gt;Node8</title>
<path fill="none" stroke="midnightblue" d="M601.249,-61.9751C614.279,-52.5199 635.536,-37.0961 651.259,-25.6871"/>
<polygon fill="midnightblue" stroke="midnightblue" points="653.735,-28.2149 659.773,-19.5091 649.624,-22.5492 653.735,-28.2149"/>
</g>
</g>
</svg>
