<?xml version="1.0" encoding="UTF-8" standalone="no"?>
<!DOCTYPE svg PUBLIC "-//W3C//DTD SVG 1.1//EN"
 "http://www.w3.org/Graphics/SVG/1.1/DTD/svg11.dtd">
<!-- Generated by graphviz version 2.38.0 (20140413.2041)
 -->
<!-- Title: Framework/include/QualityControl/AggregatorInterface.h Pages: 1 -->
<svg width="519pt" height="207pt"
 viewBox="0.00 0.00 519.00 207.00" xmlns="http://www.w3.org/2000/svg" xmlns:xlink="http://www.w3.org/1999/xlink">
<g id="graph0" class="graph" transform="scale(1 1) rotate(0) translate(4 203)">
<title>Framework/include/QualityControl/AggregatorInterface.h</title>
<!-- Node1 -->
<g id="node1" class="node"><title>Node1</title>
<polygon fill="#bfbfbf" stroke="black" points="90,-168.5 90,-198.5 235,-198.5 235,-168.5 90,-168.5"/>
<text text-anchor="start" x="98" y="-186.5" font-family="Helvetica,sans-Serif" font-size="10.00">Framework/include/Quality</text>
<text text-anchor="middle" x="162.5" y="-175.5" font-family="Helvetica,sans-Serif" font-size="10.00">Control/AggregatorInterface.h</text>
</g>
<!-- Node2 -->
<g id="node2" class="node"><title>Node2</title>
<polygon fill="none" stroke="#bfbfbf" points="0,-112.5 0,-131.5 83,-131.5 83,-112.5 0,-112.5"/>
<text text-anchor="middle" x="41.5" y="-119.5" font-family="Helvetica,sans-Serif" font-size="10.00">unordered_map</text>
</g>
<!-- Node1&#45;&gt;Node2 -->
<g id="edge1" class="edge"><title>Node1&#45;&gt;Node2</title>
<path fill="none" stroke="midnightblue" d="M133.825,-168.399C113.976,-158.639 87.7389,-145.737 68.3084,-136.183"/>
<polygon fill="midnightblue" stroke="midnightblue" points="69.6248,-132.93 59.1066,-131.658 66.5359,-139.211 69.6248,-132.93"/>
</g>
<!-- Node3 -->
<g id="node3" class="node"><title>Node3</title>
<polygon fill="none" stroke="#bfbfbf" points="132,-0.5 132,-19.5 167,-19.5 167,-0.5 132,-0.5"/>
<text text-anchor="middle" x="149.5" y="-7.5" font-family="Helvetica,sans-Serif" font-size="10.00">map</text>
</g>
<!-- Node1&#45;&gt;Node3 -->
<g id="edge2" class="edge"><title>Node1&#45;&gt;Node3</title>
<path fill="none" stroke="midnightblue" d="M150.265,-168.125C142.962,-158.568 134.376,-145.357 130.5,-132 120.171,-96.4034 132.716,-53.1858 141.775,-29.2274"/>
<polygon fill="midnightblue" stroke="midnightblue" points="145.133,-30.256 145.597,-19.6713 138.633,-27.6565 145.133,-30.256"/>
</g>
<!-- Node4 -->
<g id="node4" class="node"><title>Node4</title>
<g id="a_node4"><a xlink:href="QualityObject_8h_source.html" target="_top" xlink:title="QualityControl/QualityObject.h">
<polygon fill="none" stroke="black" points="139,-112.5 139,-131.5 288,-131.5 288,-112.5 139,-112.5"/>
<text text-anchor="middle" x="213.5" y="-119.5" font-family="Helvetica,sans-Serif" font-size="10.00">QualityControl/QualityObject.h</text>
</a>
</g>
</g>
<!-- Node1&#45;&gt;Node4 -->
<g id="edge3" class="edge"><title>Node1&#45;&gt;Node4</title>
<path fill="none" stroke="midnightblue" d="M174.586,-168.399C182.074,-159.664 191.718,-148.413 199.532,-139.296"/>
<polygon fill="midnightblue" stroke="midnightblue" points="202.229,-141.528 206.079,-131.658 196.914,-136.973 202.229,-141.528"/>
</g>
<!-- Node7 -->
<g id="node7" class="node"><title>Node7</title>
<g id="a_node7"><a xlink:href="Quality_8h.html" target="_top" xlink:title="QualityControl/Quality.h">
<polygon fill="none" stroke="black" points="390,-56.5 390,-75.5 511,-75.5 511,-56.5 390,-56.5"/>
<text text-anchor="middle" x="450.5" y="-63.5" font-family="Helvetica,sans-Serif" font-size="10.00">QualityControl/Quality.h</text>
</a>
</g>
</g>
<!-- Node1&#45;&gt;Node7 -->
<g id="edge11" class="edge"><title>Node1&#45;&gt;Node7</title>
<path fill="none" stroke="midnightblue" d="M201.064,-168.42C227.924,-158.502 264.522,-144.769 296.5,-132 340.274,-114.521 390.494,-93.0564 421.359,-79.6996"/>
<polygon fill="midnightblue" stroke="midnightblue" points="422.885,-82.8527 430.667,-75.6632 420.1,-76.4305 422.885,-82.8527"/>
</g>
<!-- Node4&#45;&gt;Node3 -->
<g id="edge4" class="edge"><title>Node4&#45;&gt;Node3</title>
<path fill="none" stroke="midnightblue" d="M201.892,-112.233C191.696,-103.949 177.173,-90.6382 168.5,-76 159.979,-61.618 155.062,-43.1602 152.374,-29.5908"/>
<polygon fill="midnightblue" stroke="midnightblue" points="155.786,-28.7839 150.611,-19.5391 148.891,-29.9935 155.786,-28.7839"/>
</g>
<!-- Node5 -->
<g id="node5" class="node"><title>Node5</title>
<polygon fill="none" stroke="#bfbfbf" points="178,-56.5 178,-75.5 237,-75.5 237,-56.5 178,-56.5"/>
<text text-anchor="middle" x="207.5" y="-63.5" font-family="Helvetica,sans-Serif" font-size="10.00">TObject.h</text>
</g>
<!-- Node4&#45;&gt;Node5 -->
<g id="edge5" class="edge"><title>Node4&#45;&gt;Node5</title>
<path fill="none" stroke="midnightblue" d="M212.509,-112.083C211.714,-104.927 210.571,-94.6353 209.577,-85.6911"/>
<polygon fill="midnightblue" stroke="midnightblue" points="213.055,-85.3034 208.472,-75.7511 206.098,-86.0765 213.055,-85.3034"/>
</g>
<!-- Node6 -->
<g id="node6" class="node"><title>Node6</title>
<polygon fill="none" stroke="#bfbfbf" points="255.5,-56.5 255.5,-75.5 371.5,-75.5 371.5,-56.5 255.5,-56.5"/>
<text text-anchor="middle" x="313.5" y="-63.5" font-family="Helvetica,sans-Serif" font-size="10.00">Common/Exceptions.h</text>
</g>
<!-- Node4&#45;&gt;Node6 -->
<g id="edge6" class="edge"><title>Node4&#45;&gt;Node6</title>
<path fill="none" stroke="midnightblue" d="M229.567,-112.324C245.458,-103.743 270.007,-90.486 288.458,-80.5224"/>
<polygon fill="midnightblue" stroke="midnightblue" points="290.337,-83.4857 297.473,-75.6545 287.011,-77.3264 290.337,-83.4857"/>
</g>
<!-- Node4&#45;&gt;Node7 -->
<g id="edge7" class="edge"><title>Node4&#45;&gt;Node7</title>
<path fill="none" stroke="midnightblue" d="M251.053,-112.444C292.311,-103.043 358.644,-87.9291 403.366,-77.7393"/>
<polygon fill="midnightblue" stroke="midnightblue" points="404.15,-81.1506 413.122,-75.5164 402.595,-74.3255 404.15,-81.1506"/>
</g>
<!-- Node7&#45;&gt;Node3 -->
<g id="edge10" class="edge"><title>Node7&#45;&gt;Node3</title>
<path fill="none" stroke="midnightblue" d="M402.806,-56.4435C339.199,-45.0323 228.662,-25.2019 177.261,-15.9804"/>
<polygon fill="midnightblue" stroke="midnightblue" points="177.689,-12.5014 167.229,-14.1805 176.453,-19.3915 177.689,-12.5014"/>
</g>
<!-- Node8 -->
<g id="node8" class="node"><title>Node8</title>
<polygon fill="none" stroke="#bfbfbf" points="388.5,-0.5 388.5,-19.5 444.5,-19.5 444.5,-0.5 388.5,-0.5"/>
<text text-anchor="middle" x="416.5" y="-7.5" font-family="Helvetica,sans-Serif" font-size="10.00">Rtypes.h</text>
</g>
<!-- Node7&#45;&gt;Node8 -->
<g id="edge8" class="edge"><title>Node7&#45;&gt;Node8</title>
<path fill="none" stroke="midnightblue" d="M444.886,-56.083C440.133,-48.5341 433.182,-37.4948 427.348,-28.2298"/>
<polygon fill="midnightblue" stroke="midnightblue" points="430.3,-26.3486 422.01,-19.7511 424.376,-30.0783 430.3,-26.3486"/>
</g>
<!-- Node9 -->
<g id="node9" class="node"><title>Node9</title>
<polygon fill="none" stroke="#bfbfbf" points="463,-0.5 463,-19.5 504,-19.5 504,-0.5 463,-0.5"/>
<text text-anchor="middle" x="483.5" y="-7.5" font-family="Helvetica,sans-Serif" font-size="10.00">string</text>
</g>
<!-- Node7&#45;&gt;Node9 -->
<g id="edge9" class="edge"><title>Node7&#45;&gt;Node9</title>
<path fill="none" stroke="midnightblue" d="M455.949,-56.083C460.514,-48.6127 467.168,-37.7244 472.793,-28.5199"/>
<polygon fill="midnightblue" stroke="midnightblue" points="475.924,-30.109 478.152,-19.7511 469.951,-26.4588 475.924,-30.109"/>
</g>
</g>
</svg>
