<?xml version="1.0" encoding="UTF-8" standalone="no"?>
<!DOCTYPE svg PUBLIC "-//W3C//DTD SVG 1.1//EN"
 "http://www.w3.org/Graphics/SVG/1.1/DTD/svg11.dtd">
<!-- Generated by graphviz version 2.38.0 (20140413.2041)
 -->
<!-- Title: Framework/include/QualityControl/AggregatorRunner.h Pages: 1 -->
<svg width="765pt" height="218pt"
 viewBox="0.00 0.00 764.50 218.00" xmlns="http://www.w3.org/2000/svg" xmlns:xlink="http://www.w3.org/1999/xlink">
<g id="graph0" class="graph" transform="scale(1 1) rotate(0) translate(4 214)">
<title>Framework/include/QualityControl/AggregatorRunner.h</title>
<!-- Node1 -->
<g id="node1" class="node"><title>Node1</title>
<polygon fill="#bfbfbf" stroke="black" points="275,-179.5 275,-209.5 413,-209.5 413,-179.5 275,-179.5"/>
<text text-anchor="start" x="283" y="-197.5" font-family="Helvetica,sans-Serif" font-size="10.00">Framework/include/Quality</text>
<text text-anchor="middle" x="344" y="-186.5" font-family="Helvetica,sans-Serif" font-size="10.00">Control/AggregatorRunner.h</text>
</g>
<!-- Node2 -->
<g id="node2" class="node"><title>Node2</title>
<polygon fill="none" stroke="#bfbfbf" points="0,-123.5 0,-142.5 98,-142.5 98,-123.5 0,-123.5"/>
<text text-anchor="middle" x="49" y="-130.5" font-family="Helvetica,sans-Serif" font-size="10.00">Framework/Task.h</text>
</g>
<!-- Node1&#45;&gt;Node2 -->
<g id="edge1" class="edge"><title>Node1&#45;&gt;Node2</title>
<path fill="none" stroke="midnightblue" d="M274.836,-179.55C221.733,-168.839 149.547,-154.28 101.219,-144.532"/>
<polygon fill="midnightblue" stroke="midnightblue" points="101.778,-141.075 91.2835,-142.528 100.394,-147.936 101.778,-141.075"/>
</g>
<!-- Node3 -->
<g id="node3" class="node"><title>Node3</title>
<polygon fill="none" stroke="#bfbfbf" points="116,-123.5 116,-142.5 280,-142.5 280,-123.5 116,-123.5"/>
<text text-anchor="middle" x="198" y="-130.5" font-family="Helvetica,sans-Serif" font-size="10.00">Framework/DataProcessorSpec.h</text>
</g>
<!-- Node1&#45;&gt;Node3 -->
<g id="edge2" class="edge"><title>Node1&#45;&gt;Node3</title>
<path fill="none" stroke="midnightblue" d="M309.4,-179.399C284.904,-169.416 252.343,-156.147 228.755,-146.534"/>
<polygon fill="midnightblue" stroke="midnightblue" points="229.826,-143.191 219.244,-142.658 227.184,-149.673 229.826,-143.191"/>
</g>
<!-- Node4 -->
<g id="node4" class="node"><title>Node4</title>
<polygon fill="none" stroke="#bfbfbf" points="298,-123.5 298,-142.5 390,-142.5 390,-123.5 298,-123.5"/>
<text text-anchor="middle" x="344" y="-130.5" font-family="Helvetica,sans-Serif" font-size="10.00">Common/Timer.h</text>
</g>
<!-- Node1&#45;&gt;Node4 -->
<g id="edge3" class="edge"><title>Node1&#45;&gt;Node4</title>
<path fill="none" stroke="midnightblue" d="M344,-179.399C344,-171.466 344,-161.458 344,-152.858"/>
<polygon fill="midnightblue" stroke="midnightblue" points="347.5,-152.658 344,-142.658 340.5,-152.658 347.5,-152.658"/>
</g>
<!-- Node5 -->
<g id="node5" class="node"><title>Node5</title>
<g id="a_node5"><a xlink:href="QualityObject_8h_source.html" target="_top" xlink:title="QualityControl/QualityObject.h">
<polygon fill="none" stroke="black" points="408.5,-123.5 408.5,-142.5 557.5,-142.5 557.5,-123.5 408.5,-123.5"/>
<text text-anchor="middle" x="483" y="-130.5" font-family="Helvetica,sans-Serif" font-size="10.00">QualityControl/QualityObject.h</text>
</a>
</g>
</g>
<!-- Node1&#45;&gt;Node5 -->
<g id="edge4" class="edge"><title>Node1&#45;&gt;Node5</title>
<path fill="none" stroke="midnightblue" d="M376.941,-179.399C400.159,-169.461 430.986,-156.265 453.419,-146.662"/>
<polygon fill="midnightblue" stroke="midnightblue" points="454.958,-149.811 462.774,-142.658 452.204,-143.375 454.958,-149.811"/>
</g>
<!-- Node12 -->
<g id="node12" class="node"><title>Node12</title>
<g id="a_node12"><a xlink:href="UpdatePolicyManager_8h.html" target="_top" xlink:title="QualityControl/UpdatePolicy\lManager.h">
<polygon fill="none" stroke="black" points="589,-56.5 589,-86.5 729,-86.5 729,-56.5 589,-56.5"/>
<text text-anchor="start" x="597" y="-74.5" font-family="Helvetica,sans-Serif" font-size="10.00">QualityControl/UpdatePolicy</text>
<text text-anchor="middle" x="659" y="-63.5" font-family="Helvetica,sans-Serif" font-size="10.00">Manager.h</text>
</a>
</g>
</g>
<!-- Node1&#45;&gt;Node12 -->
<g id="edge12" class="edge"><title>Node1&#45;&gt;Node12</title>
<path fill="none" stroke="midnightblue" d="M413.088,-185.678C458.455,-178.684 518.206,-165.868 567,-143 593.545,-130.559 619.673,-109.445 637.261,-93.5597"/>
<polygon fill="midnightblue" stroke="midnightblue" points="639.74,-96.0345 644.712,-86.6787 634.991,-90.892 639.74,-96.0345"/>
</g>
<!-- Node6 -->
<g id="node6" class="node"><title>Node6</title>
<polygon fill="none" stroke="#bfbfbf" points="459.5,-0.5 459.5,-19.5 494.5,-19.5 494.5,-0.5 459.5,-0.5"/>
<text text-anchor="middle" x="477" y="-7.5" font-family="Helvetica,sans-Serif" font-size="10.00">map</text>
</g>
<!-- Node5&#45;&gt;Node6 -->
<g id="edge5" class="edge"><title>Node5&#45;&gt;Node6</title>
<path fill="none" stroke="midnightblue" d="M482.568,-123.298C481.604,-103.85 479.256,-56.49 477.937,-29.9036"/>
<polygon fill="midnightblue" stroke="midnightblue" points="481.419,-29.4375 477.428,-19.6232 474.427,-29.7843 481.419,-29.4375"/>
</g>
<!-- Node7 -->
<g id="node7" class="node"><title>Node7</title>
<polygon fill="none" stroke="#bfbfbf" points="511.5,-62 511.5,-81 570.5,-81 570.5,-62 511.5,-62"/>
<text text-anchor="middle" x="541" y="-69" font-family="Helvetica,sans-Serif" font-size="10.00">TObject.h</text>
</g>
<!-- Node5&#45;&gt;Node7 -->
<g id="edge6" class="edge"><title>Node5&#45;&gt;Node7</title>
<path fill="none" stroke="midnightblue" d="M491.31,-123.475C500.182,-114.373 514.446,-99.741 525.42,-88.483"/>
<polygon fill="midnightblue" stroke="midnightblue" points="528.231,-90.613 532.705,-81.0091 523.219,-85.7268 528.231,-90.613"/>
</g>
<!-- Node8 -->
<g id="node8" class="node"><title>Node8</title>
<polygon fill="none" stroke="#bfbfbf" points="199,-62 199,-81 315,-81 315,-62 199,-62"/>
<text text-anchor="middle" x="257" y="-69" font-family="Helvetica,sans-Serif" font-size="10.00">Common/Exceptions.h</text>
</g>
<!-- Node5&#45;&gt;Node8 -->
<g id="edge7" class="edge"><title>Node5&#45;&gt;Node8</title>
<path fill="none" stroke="midnightblue" d="M450.62,-123.475C410.762,-112.982 342.981,-95.1367 299.112,-83.587"/>
<polygon fill="midnightblue" stroke="midnightblue" points="299.882,-80.1705 289.32,-81.0091 298.1,-86.9398 299.882,-80.1705"/>
</g>
<!-- Node9 -->
<g id="node9" class="node"><title>Node9</title>
<g id="a_node9"><a xlink:href="Quality_8h.html" target="_top" xlink:title="QualityControl/Quality.h">
<polygon fill="none" stroke="black" points="333.5,-62 333.5,-81 454.5,-81 454.5,-62 333.5,-62"/>
<text text-anchor="middle" x="394" y="-69" font-family="Helvetica,sans-Serif" font-size="10.00">QualityControl/Quality.h</text>
</a>
</g>
</g>
<!-- Node5&#45;&gt;Node9 -->
<g id="edge8" class="edge"><title>Node5&#45;&gt;Node9</title>
<path fill="none" stroke="midnightblue" d="M470.248,-123.475C455.973,-113.931 432.603,-98.3073 415.492,-86.8683"/>
<polygon fill="midnightblue" stroke="midnightblue" points="416.986,-83.6572 406.728,-81.0091 413.096,-89.4766 416.986,-83.6572"/>
</g>
<!-- Node9&#45;&gt;Node6 -->
<g id="edge11" class="edge"><title>Node9&#45;&gt;Node6</title>
<path fill="none" stroke="midnightblue" d="M405.892,-61.9751C419.205,-52.4315 441,-36.8073 456.957,-25.3683"/>
<polygon fill="midnightblue" stroke="midnightblue" points="459.042,-28.18 465.13,-19.5091 454.964,-22.4908 459.042,-28.18"/>
</g>
<!-- Node10 -->
<g id="node10" class="node"><title>Node10</title>
<polygon fill="none" stroke="#bfbfbf" points="366,-0.5 366,-19.5 422,-19.5 422,-0.5 366,-0.5"/>
<text text-anchor="middle" x="394" y="-7.5" font-family="Helvetica,sans-Serif" font-size="10.00">Rtypes.h</text>
</g>
<!-- Node9&#45;&gt;Node10 -->
<g id="edge9" class="edge"><title>Node9&#45;&gt;Node10</title>
<path fill="none" stroke="midnightblue" d="M394,-61.9751C394,-53.5803 394,-40.4806 394,-29.6631"/>
<polygon fill="midnightblue" stroke="midnightblue" points="397.5,-29.5091 394,-19.5091 390.5,-29.5091 397.5,-29.5091"/>
</g>
<!-- Node11 -->
<g id="node11" class="node"><title>Node11</title>
<polygon fill="none" stroke="#bfbfbf" points="512.5,-0.5 512.5,-19.5 553.5,-19.5 553.5,-0.5 512.5,-0.5"/>
<text text-anchor="middle" x="533" y="-7.5" font-family="Helvetica,sans-Serif" font-size="10.00">string</text>
</g>
<!-- Node9&#45;&gt;Node11 -->
<g id="edge10" class="edge"><title>Node9&#45;&gt;Node11</title>
<path fill="none" stroke="midnightblue" d="M413.915,-61.9751C437.449,-51.9013 476.81,-35.0525 503.793,-23.5023"/>
<polygon fill="midnightblue" stroke="midnightblue" points="505.306,-26.662 513.122,-19.5091 502.551,-20.2267 505.306,-26.662"/>
</g>
<!-- Node12&#45;&gt;Node6 -->
<g id="edge14" class="edge"><title>Node12&#45;&gt;Node6</title>
<path fill="none" stroke="midnightblue" d="M615.546,-56.4297C586.585,-47.0321 547.432,-34.29 504.275,-20.0755"/>
<polygon fill="midnightblue" stroke="midnightblue" points="505.306,-16.7301 494.713,-16.9234 503.115,-23.3782 505.306,-16.7301"/>
</g>
<!-- Node12&#45;&gt;Node11 -->
<g id="edge13" class="edge"><title>Node12&#45;&gt;Node11</title>
<path fill="none" stroke="midnightblue" d="M629.14,-56.3993C608.377,-46.5945 580.9,-33.6194 560.639,-24.052"/>
<polygon fill="midnightblue" stroke="midnightblue" points="561.871,-20.763 551.334,-19.6578 558.882,-27.0928 561.871,-20.763"/>
</g>
<!-- Node13 -->
<g id="node13" class="node"><title>Node13</title>
<polygon fill="none" stroke="#bfbfbf" points="572,-0.5 572,-19.5 616,-19.5 616,-0.5 572,-0.5"/>
<text text-anchor="middle" x="594" y="-7.5" font-family="Helvetica,sans-Serif" font-size="10.00">vector</text>
</g>
<!-- Node12&#45;&gt;Node13 -->
<g id="edge15" class="edge"><title>Node12&#45;&gt;Node13</title>
<path fill="none" stroke="midnightblue" d="M643.596,-56.3993C633.761,-47.3967 621.007,-35.7214 610.895,-26.4652"/>
<polygon fill="midnightblue" stroke="midnightblue" points="613.198,-23.8282 603.458,-19.6578 608.471,-28.9916 613.198,-23.8282"/>
</g>
<!-- Node14 -->
<g id="node14" class="node"><title>Node14</title>
<polygon fill="none" stroke="#bfbfbf" points="634.5,-0.5 634.5,-19.5 693.5,-19.5 693.5,-0.5 634.5,-0.5"/>
<text text-anchor="middle" x="664" y="-7.5" font-family="Helvetica,sans-Serif" font-size="10.00">functional</text>
</g>
<!-- Node12&#45;&gt;Node14 -->
<g id="edge16" class="edge"><title>Node12&#45;&gt;Node14</title>
<path fill="none" stroke="midnightblue" d="M660.185,-56.3993C660.852,-48.4664 661.693,-38.458 662.415,-29.8583"/>
<polygon fill="midnightblue" stroke="midnightblue" points="665.923,-29.9158 663.272,-19.6578 658.947,-29.3295 665.923,-29.9158"/>
</g>
<!-- Node15 -->
<g id="node15" class="node"><title>Node15</title>
<polygon fill="none" stroke="#bfbfbf" points="711.5,-0.5 711.5,-19.5 756.5,-19.5 756.5,-0.5 711.5,-0.5"/>
<text text-anchor="middle" x="734" y="-7.5" font-family="Helvetica,sans-Serif" font-size="10.00">iosfwd</text>
</g>
<!-- Node12&#45;&gt;Node15 -->
<g id="edge17" class="edge"><title>Node12&#45;&gt;Node15</title>
<path fill="none" stroke="midnightblue" d="M676.774,-56.3993C688.346,-47.2185 703.423,-35.2579 715.196,-25.9182"/>
<polygon fill="midnightblue" stroke="midnightblue" points="717.428,-28.6148 723.087,-19.6578 713.077,-23.1309 717.428,-28.6148"/>
</g>
</g>
</svg>
