<?xml version="1.0" encoding="UTF-8" standalone="no"?>
<!DOCTYPE svg PUBLIC "-//W3C//DTD SVG 1.1//EN"
 "http://www.w3.org/Graphics/SVG/1.1/DTD/svg11.dtd">
<!-- Generated by graphviz version 2.38.0 (20140413.2041)
 -->
<!-- Title: Framework/src/AggregatorRunner.cxx Pages: 1 -->
<svg width="2334pt" height="352pt"
 viewBox="0.00 0.00 2334.00 352.00" xmlns="http://www.w3.org/2000/svg" xmlns:xlink="http://www.w3.org/1999/xlink">
<g id="graph0" class="graph" transform="scale(1 1) rotate(0) translate(4 348)">
<title>Framework/src/AggregatorRunner.cxx</title>
<!-- Node1 -->
<g id="node1" class="node"><title>Node1</title>
<polygon fill="#bfbfbf" stroke="black" points="1293,-313.5 1293,-343.5 1425,-343.5 1425,-313.5 1293,-313.5"/>
<text text-anchor="start" x="1301" y="-331.5" font-family="Helvetica,sans-Serif" font-size="10.00">Framework/src/Aggregator</text>
<text text-anchor="middle" x="1359" y="-320.5" font-family="Helvetica,sans-Serif" font-size="10.00">Runner.cxx</text>
</g>
<!-- Node2 -->
<g id="node2" class="node"><title>Node2</title>
<g id="a_node2"><a xlink:href="AggregatorRunner_8h.html" target="_top" xlink:title="QualityControl/Aggregator\lRunner.h">
<polygon fill="none" stroke="black" points="366.5,-179.5 366.5,-209.5 495.5,-209.5 495.5,-179.5 366.5,-179.5"/>
<text text-anchor="start" x="374.5" y="-197.5" font-family="Helvetica,sans-Serif" font-size="10.00">QualityControl/Aggregator</text>
<text text-anchor="middle" x="431" y="-186.5" font-family="Helvetica,sans-Serif" font-size="10.00">Runner.h</text>
</a>
</g>
</g>
<!-- Node1&#45;&gt;Node2 -->
<g id="edge1" class="edge"><title>Node1&#45;&gt;Node2</title>
<path fill="none" stroke="midnightblue" d="M1292.78,-325.182C1182.77,-320.59 955.673,-307.96 766,-277 667.246,-260.881 554.618,-231.061 488.344,-212.307"/>
<polygon fill="midnightblue" stroke="midnightblue" points="489.089,-208.88 478.512,-209.509 487.173,-215.612 489.089,-208.88"/>
</g>
<!-- Node9 -->
<g id="node9" class="node"><title>Node9</title>
<polygon fill="none" stroke="#bfbfbf" points="809,-56.5 809,-75.5 925,-75.5 925,-56.5 809,-56.5"/>
<text text-anchor="middle" x="867" y="-63.5" font-family="Helvetica,sans-Serif" font-size="10.00">Common/Exceptions.h</text>
</g>
<!-- Node1&#45;&gt;Node9 -->
<g id="edge19" class="edge"><title>Node1&#45;&gt;Node9</title>
<path fill="none" stroke="midnightblue" d="M1292.86,-325.2C1223.53,-321.056 1112.33,-309.455 1022,-277 913.182,-237.905 855.937,-243.638 799,-143 792.216,-131.008 792.478,-124.136 799,-112 806.622,-97.8153 820.897,-87.3516 834.406,-80.1027"/>
<polygon fill="midnightblue" stroke="midnightblue" points="836.128,-83.1562 843.546,-75.5916 833.03,-76.8791 836.128,-83.1562"/>
</g>
<!-- Node17 -->
<g id="node17" class="node"><title>Node17</title>
<polygon fill="none" stroke="#bfbfbf" points="1291.5,-246.5 1291.5,-276.5 1426.5,-276.5 1426.5,-246.5 1291.5,-246.5"/>
<text text-anchor="start" x="1299.5" y="-264.5" font-family="Helvetica,sans-Serif" font-size="10.00">Configuration/Configuration</text>
<text text-anchor="middle" x="1359" y="-253.5" font-family="Helvetica,sans-Serif" font-size="10.00">Factory.h</text>
</g>
<!-- Node1&#45;&gt;Node17 -->
<g id="edge20" class="edge"><title>Node1&#45;&gt;Node17</title>
<path fill="none" stroke="midnightblue" d="M1359,-313.396C1359,-305.645 1359,-295.812 1359,-286.86"/>
<polygon fill="midnightblue" stroke="midnightblue" points="1362.5,-286.576 1359,-276.577 1355.5,-286.577 1362.5,-286.576"/>
</g>
<!-- Node18 -->
<g id="node18" class="node"><title>Node18</title>
<polygon fill="none" stroke="#bfbfbf" points="1445,-252 1445,-271 1585,-271 1585,-252 1445,-252"/>
<text text-anchor="middle" x="1515" y="-259" font-family="Helvetica,sans-Serif" font-size="10.00">Framework/DataSpecUtils.h</text>
</g>
<!-- Node1&#45;&gt;Node18 -->
<g id="edge21" class="edge"><title>Node1&#45;&gt;Node18</title>
<path fill="none" stroke="midnightblue" d="M1392.85,-313.396C1420.34,-301.941 1458.75,-285.938 1485.11,-274.952"/>
<polygon fill="midnightblue" stroke="midnightblue" points="1486.7,-278.084 1494.58,-271.007 1484.01,-271.622 1486.7,-278.084"/>
</g>
<!-- Node19 -->
<g id="node19" class="node"><title>Node19</title>
<polygon fill="none" stroke="#bfbfbf" points="1603.5,-252 1603.5,-271 1754.5,-271 1754.5,-252 1603.5,-252"/>
<text text-anchor="middle" x="1679" y="-259" font-family="Helvetica,sans-Serif" font-size="10.00">Monitoring/MonitoringFactory.h</text>
</g>
<!-- Node1&#45;&gt;Node19 -->
<g id="edge22" class="edge"><title>Node1&#45;&gt;Node19</title>
<path fill="none" stroke="midnightblue" d="M1425.3,-314.032C1485.11,-301.885 1571.87,-284.261 1626.85,-273.093"/>
<polygon fill="midnightblue" stroke="midnightblue" points="1627.63,-276.507 1636.73,-271.086 1626.23,-269.647 1627.63,-276.507"/>
</g>
<!-- Node20 -->
<g id="node20" class="node"><title>Node20</title>
<polygon fill="none" stroke="#bfbfbf" points="1773,-252 1773,-271 1891,-271 1891,-252 1773,-252"/>
<text text-anchor="middle" x="1832" y="-259" font-family="Helvetica,sans-Serif" font-size="10.00">Monitoring/Monitoring.h</text>
</g>
<!-- Node1&#45;&gt;Node20 -->
<g id="edge23" class="edge"><title>Node1&#45;&gt;Node20</title>
<path fill="none" stroke="midnightblue" d="M1425.02,-320.944C1505.22,-312.59 1644.48,-296.825 1763,-277 1769.81,-275.86 1776.98,-274.518 1784,-273.119"/>
<polygon fill="midnightblue" stroke="midnightblue" points="1785.05,-276.477 1794.15,-271.044 1783.65,-269.619 1785.05,-276.477"/>
</g>
<!-- Node21 -->
<g id="node21" class="node"><title>Node21</title>
<polygon fill="none" stroke="#bfbfbf" points="1909.5,-252 1909.5,-271 2070.5,-271 2070.5,-252 1909.5,-252"/>
<text text-anchor="middle" x="1990" y="-259" font-family="Helvetica,sans-Serif" font-size="10.00">Framework/InputRecordWalker.h</text>
</g>
<!-- Node1&#45;&gt;Node21 -->
<g id="edge24" class="edge"><title>Node1&#45;&gt;Node21</title>
<path fill="none" stroke="midnightblue" d="M1425.37,-322.738C1527.54,-315.082 1729.45,-298.674 1900,-277 1909.89,-275.743 1920.36,-274.227 1930.53,-272.654"/>
<polygon fill="midnightblue" stroke="midnightblue" points="1931.24,-276.087 1940.57,-271.071 1930.15,-269.172 1931.24,-276.087"/>
</g>
<!-- Node22 -->
<g id="node22" class="node"><title>Node22</title>
<g id="a_node22"><a xlink:href="DatabaseFactory_8h.html" target="_top" xlink:title="QualityControl/DatabaseFactory.h">
<polygon fill="none" stroke="black" points="1031.5,-252 1031.5,-271 1196.5,-271 1196.5,-252 1031.5,-252"/>
<text text-anchor="middle" x="1114" y="-259" font-family="Helvetica,sans-Serif" font-size="10.00">QualityControl/DatabaseFactory.h</text>
</a>
</g>
</g>
<!-- Node1&#45;&gt;Node22 -->
<g id="edge25" class="edge"><title>Node1&#45;&gt;Node22</title>
<path fill="none" stroke="midnightblue" d="M1306.14,-313.476C1261.18,-301.547 1197.47,-284.644 1155.94,-273.628"/>
<polygon fill="midnightblue" stroke="midnightblue" points="1156.71,-270.21 1146.15,-271.029 1154.91,-276.976 1156.71,-270.21"/>
</g>
<!-- Node28 -->
<g id="node28" class="node"><title>Node28</title>
<g id="a_node28"><a xlink:href="QcInfoLogger_8h.html" target="_top" xlink:title="QualityControl/QcInfoLogger.h">
<polygon fill="none" stroke="black" points="2088.5,-252 2088.5,-271 2237.5,-271 2237.5,-252 2088.5,-252"/>
<text text-anchor="middle" x="2163" y="-259" font-family="Helvetica,sans-Serif" font-size="10.00">QualityControl/QcInfoLogger.h</text>
</a>
</g>
</g>
<!-- Node1&#45;&gt;Node28 -->
<g id="edge40" class="edge"><title>Node1&#45;&gt;Node28</title>
<path fill="none" stroke="midnightblue" d="M1425.23,-325.091C1552.35,-319.973 1839.22,-306.029 2079,-277 2088.6,-275.838 2098.76,-274.326 2108.58,-272.717"/>
<polygon fill="midnightblue" stroke="midnightblue" points="2109.38,-276.132 2118.66,-271.016 2108.21,-269.23 2109.38,-276.132"/>
</g>
<!-- Node31 -->
<g id="node31" class="node"><title>Node31</title>
<g id="a_node31"><a xlink:href="ServiceDiscovery_8h_source.html" target="_top" xlink:title="QualityControl/ServiceDiscovery.h">
<polygon fill="none" stroke="black" points="1588.5,-185 1588.5,-204 1755.5,-204 1755.5,-185 1588.5,-185"/>
<text text-anchor="middle" x="1672" y="-192" font-family="Helvetica,sans-Serif" font-size="10.00">QualityControl/ServiceDiscovery.h</text>
</a>
</g>
</g>
<!-- Node1&#45;&gt;Node31 -->
<g id="edge43" class="edge"><title>Node1&#45;&gt;Node31</title>
<path fill="none" stroke="midnightblue" d="M1329.23,-313.363C1299.38,-297.334 1260.67,-270.271 1282,-246 1301.29,-224.056 1469.11,-208.881 1578.24,-201.233"/>
<polygon fill="midnightblue" stroke="midnightblue" points="1578.55,-204.72 1588.28,-200.539 1578.06,-197.737 1578.55,-204.72"/>
</g>
<!-- Node36 -->
<g id="node36" class="node"><title>Node36</title>
<g id="a_node36"><a xlink:href="Aggregator_8h.html" target="_top" xlink:title="QualityControl/Aggregator.h">
<polygon fill="none" stroke="black" points="1270.5,-185 1270.5,-204 1407.5,-204 1407.5,-185 1270.5,-185"/>
<text text-anchor="middle" x="1339" y="-192" font-family="Helvetica,sans-Serif" font-size="10.00">QualityControl/Aggregator.h</text>
</a>
</g>
</g>
<!-- Node1&#45;&gt;Node36 -->
<g id="edge50" class="edge"><title>Node1&#45;&gt;Node36</title>
<path fill="none" stroke="midnightblue" d="M1298.01,-313.461C1279.03,-305.916 1260.17,-294.424 1249,-277 1241.56,-265.402 1242.04,-257.889 1249,-246 1259.72,-227.699 1279.76,-215.526 1298.22,-207.726"/>
<polygon fill="midnightblue" stroke="midnightblue" points="1299.63,-210.933 1307.67,-204.036 1297.08,-204.413 1299.63,-210.933"/>
</g>
<!-- Node3 -->
<g id="node3" class="node"><title>Node3</title>
<polygon fill="none" stroke="#bfbfbf" points="450,-118 450,-137 548,-137 548,-118 450,-118"/>
<text text-anchor="middle" x="499" y="-125" font-family="Helvetica,sans-Serif" font-size="10.00">Framework/Task.h</text>
</g>
<!-- Node2&#45;&gt;Node3 -->
<g id="edge2" class="edge"><title>Node2&#45;&gt;Node3</title>
<path fill="none" stroke="midnightblue" d="M445.755,-179.396C456.568,-169.06 471.252,-155.024 482.461,-144.309"/>
<polygon fill="midnightblue" stroke="midnightblue" points="485.094,-146.634 489.904,-137.195 480.257,-141.574 485.094,-146.634"/>
</g>
<!-- Node4 -->
<g id="node4" class="node"><title>Node4</title>
<polygon fill="none" stroke="#bfbfbf" points="0,-118 0,-137 164,-137 164,-118 0,-118"/>
<text text-anchor="middle" x="82" y="-125" font-family="Helvetica,sans-Serif" font-size="10.00">Framework/DataProcessorSpec.h</text>
</g>
<!-- Node2&#45;&gt;Node4 -->
<g id="edge3" class="edge"><title>Node2&#45;&gt;Node4</title>
<path fill="none" stroke="midnightblue" d="M366.174,-181.426C300.538,-169.202 200.089,-150.494 137.865,-138.905"/>
<polygon fill="midnightblue" stroke="midnightblue" points="138.313,-135.428 127.841,-137.038 137.031,-142.31 138.313,-135.428"/>
</g>
<!-- Node5 -->
<g id="node5" class="node"><title>Node5</title>
<polygon fill="none" stroke="#bfbfbf" points="182,-118 182,-137 274,-137 274,-118 182,-118"/>
<text text-anchor="middle" x="228" y="-125" font-family="Helvetica,sans-Serif" font-size="10.00">Common/Timer.h</text>
</g>
<!-- Node2&#45;&gt;Node5 -->
<g id="edge4" class="edge"><title>Node2&#45;&gt;Node5</title>
<path fill="none" stroke="midnightblue" d="M386.952,-179.396C350.23,-167.638 298.548,-151.089 264.202,-140.092"/>
<polygon fill="midnightblue" stroke="midnightblue" points="265.159,-136.723 254.568,-137.007 263.024,-143.39 265.159,-136.723"/>
</g>
<!-- Node6 -->
<g id="node6" class="node"><title>Node6</title>
<g id="a_node6"><a xlink:href="QualityObject_8h_source.html" target="_top" xlink:title="QualityControl/QualityObject.h">
<polygon fill="none" stroke="black" points="603.5,-118 603.5,-137 752.5,-137 752.5,-118 603.5,-118"/>
<text text-anchor="middle" x="678" y="-125" font-family="Helvetica,sans-Serif" font-size="10.00">QualityControl/QualityObject.h</text>
</a>
</g>
</g>
<!-- Node2&#45;&gt;Node6 -->
<g id="edge5" class="edge"><title>Node2&#45;&gt;Node6</title>
<path fill="none" stroke="midnightblue" d="M484.291,-179.476C529.623,-167.547 593.852,-150.644 635.715,-139.628"/>
<polygon fill="midnightblue" stroke="midnightblue" points="636.811,-142.958 645.591,-137.029 635.03,-136.189 636.811,-142.958"/>
</g>
<!-- Node13 -->
<g id="node13" class="node"><title>Node13</title>
<g id="a_node13"><a xlink:href="UpdatePolicyManager_8h.html" target="_top" xlink:title="QualityControl/UpdatePolicy\lManager.h">
<polygon fill="none" stroke="black" points="292,-112.5 292,-142.5 432,-142.5 432,-112.5 292,-112.5"/>
<text text-anchor="start" x="300" y="-130.5" font-family="Helvetica,sans-Serif" font-size="10.00">QualityControl/UpdatePolicy</text>
<text text-anchor="middle" x="362" y="-119.5" font-family="Helvetica,sans-Serif" font-size="10.00">Manager.h</text>
</a>
</g>
</g>
<!-- Node2&#45;&gt;Node13 -->
<g id="edge13" class="edge"><title>Node2&#45;&gt;Node13</title>
<path fill="none" stroke="midnightblue" d="M416.028,-179.396C406.805,-170.708 394.806,-159.405 384.46,-149.658"/>
<polygon fill="midnightblue" stroke="midnightblue" points="386.622,-146.886 376.943,-142.577 381.822,-151.981 386.622,-146.886"/>
</g>
<!-- Node7 -->
<g id="node7" class="node"><title>Node7</title>
<polygon fill="none" stroke="#bfbfbf" points="590.5,-0.5 590.5,-19.5 625.5,-19.5 625.5,-0.5 590.5,-0.5"/>
<text text-anchor="middle" x="608" y="-7.5" font-family="Helvetica,sans-Serif" font-size="10.00">map</text>
</g>
<!-- Node6&#45;&gt;Node7 -->
<g id="edge6" class="edge"><title>Node6&#45;&gt;Node7</title>
<path fill="none" stroke="midnightblue" d="M643.572,-117.967C622.078,-110.665 596.085,-97.7738 583,-76 573.804,-60.6978 583.534,-41.4237 593.416,-27.8501"/>
<polygon fill="midnightblue" stroke="midnightblue" points="596.281,-29.869 599.734,-19.8526 590.789,-25.5294 596.281,-29.869"/>
</g>
<!-- Node8 -->
<g id="node8" class="node"><title>Node8</title>
<polygon fill="none" stroke="#bfbfbf" points="731.5,-56.5 731.5,-75.5 790.5,-75.5 790.5,-56.5 731.5,-56.5"/>
<text text-anchor="middle" x="761" y="-63.5" font-family="Helvetica,sans-Serif" font-size="10.00">TObject.h</text>
</g>
<!-- Node6&#45;&gt;Node8 -->
<g id="edge7" class="edge"><title>Node6&#45;&gt;Node8</title>
<path fill="none" stroke="midnightblue" d="M689.892,-117.975C703.205,-108.431 725,-92.8073 740.957,-81.3683"/>
<polygon fill="midnightblue" stroke="midnightblue" points="743.042,-84.18 749.13,-75.5091 738.964,-78.4908 743.042,-84.18"/>
</g>
<!-- Node6&#45;&gt;Node9 -->
<g id="edge8" class="edge"><title>Node6&#45;&gt;Node9</title>
<path fill="none" stroke="midnightblue" d="M705.079,-117.975C737.92,-107.636 793.43,-90.1611 830.148,-78.6017"/>
<polygon fill="midnightblue" stroke="midnightblue" points="831.484,-81.8505 839.971,-75.5091 829.382,-75.1735 831.484,-81.8505"/>
</g>
<!-- Node10 -->
<g id="node10" class="node"><title>Node10</title>
<g id="a_node10"><a xlink:href="Quality_8h.html" target="_top" xlink:title="QualityControl/Quality.h">
<polygon fill="none" stroke="black" points="592.5,-56.5 592.5,-75.5 713.5,-75.5 713.5,-56.5 592.5,-56.5"/>
<text text-anchor="middle" x="653" y="-63.5" font-family="Helvetica,sans-Serif" font-size="10.00">QualityControl/Quality.h</text>
</a>
</g>
</g>
<!-- Node6&#45;&gt;Node10 -->
<g id="edge9" class="edge"><title>Node6&#45;&gt;Node10</title>
<path fill="none" stroke="midnightblue" d="M674.418,-117.975C670.817,-109.404 665.154,-95.9269 660.556,-84.983"/>
<polygon fill="midnightblue" stroke="midnightblue" points="663.676,-83.3726 656.575,-75.5091 657.222,-86.0842 663.676,-83.3726"/>
</g>
<!-- Node10&#45;&gt;Node7 -->
<g id="edge12" class="edge"><title>Node10&#45;&gt;Node7</title>
<path fill="none" stroke="midnightblue" d="M645.569,-56.083C639.147,-48.3768 629.694,-37.0333 621.878,-27.6531"/>
<polygon fill="midnightblue" stroke="midnightblue" points="624.383,-25.1927 615.293,-19.7511 619.006,-29.674 624.383,-25.1927"/>
</g>
<!-- Node11 -->
<g id="node11" class="node"><title>Node11</title>
<polygon fill="none" stroke="#bfbfbf" points="794,-0.5 794,-19.5 850,-19.5 850,-0.5 794,-0.5"/>
<text text-anchor="middle" x="822" y="-7.5" font-family="Helvetica,sans-Serif" font-size="10.00">Rtypes.h</text>
</g>
<!-- Node10&#45;&gt;Node11 -->
<g id="edge10" class="edge"><title>Node10&#45;&gt;Node11</title>
<path fill="none" stroke="midnightblue" d="M679.779,-56.4435C708.333,-47.3196 753.733,-32.8133 785.537,-22.6509"/>
<polygon fill="midnightblue" stroke="midnightblue" points="786.886,-25.8941 795.347,-19.5164 784.756,-19.2262 786.886,-25.8941"/>
</g>
<!-- Node12 -->
<g id="node12" class="node"><title>Node12</title>
<polygon fill="none" stroke="#bfbfbf" points="1169.5,-0.5 1169.5,-19.5 1210.5,-19.5 1210.5,-0.5 1169.5,-0.5"/>
<text text-anchor="middle" x="1190" y="-7.5" font-family="Helvetica,sans-Serif" font-size="10.00">string</text>
</g>
<!-- Node10&#45;&gt;Node12 -->
<g id="edge11" class="edge"><title>Node10&#45;&gt;Node12</title>
<path fill="none" stroke="midnightblue" d="M713.568,-56.982C716.417,-56.6419 719.239,-56.3127 722,-56 886.658,-37.3506 1084.48,-19.9799 1159.32,-13.5884"/>
<polygon fill="midnightblue" stroke="midnightblue" points="1159.78,-17.0617 1169.45,-12.7262 1159.19,-10.0869 1159.78,-17.0617"/>
</g>
<!-- Node13&#45;&gt;Node7 -->
<g id="edge15" class="edge"><title>Node13&#45;&gt;Node7</title>
<path fill="none" stroke="midnightblue" d="M361.676,-112.39C362.121,-96.3591 365.441,-70.5416 381,-56 409.559,-29.3079 525.861,-17.1938 580.013,-12.918"/>
<polygon fill="midnightblue" stroke="midnightblue" points="580.563,-16.3866 590.271,-12.1437 580.036,-9.40642 580.563,-16.3866"/>
</g>
<!-- Node13&#45;&gt;Node12 -->
<g id="edge14" class="edge"><title>Node13&#45;&gt;Node12</title>
<path fill="none" stroke="midnightblue" d="M384.894,-112.391C416.965,-92.7463 472.534,-59.1868 483,-56 548.237,-36.1365 1031.09,-16.9151 1158.99,-12.1321"/>
<polygon fill="midnightblue" stroke="midnightblue" points="1159.38,-15.6199 1169.25,-11.751 1159.12,-8.62473 1159.38,-15.6199"/>
</g>
<!-- Node14 -->
<g id="node14" class="node"><title>Node14</title>
<polygon fill="none" stroke="#bfbfbf" points="492,-56.5 492,-75.5 536,-75.5 536,-56.5 492,-56.5"/>
<text text-anchor="middle" x="514" y="-63.5" font-family="Helvetica,sans-Serif" font-size="10.00">vector</text>
</g>
<!-- Node13&#45;&gt;Node14 -->
<g id="edge16" class="edge"><title>Node13&#45;&gt;Node14</title>
<path fill="none" stroke="midnightblue" d="M398.022,-112.399C423.639,-102.372 457.727,-89.028 482.31,-79.405"/>
<polygon fill="midnightblue" stroke="midnightblue" points="483.846,-82.5622 491.883,-75.6578 481.295,-76.0438 483.846,-82.5622"/>
</g>
<!-- Node15 -->
<g id="node15" class="node"><title>Node15</title>
<polygon fill="none" stroke="#bfbfbf" points="274.5,-56.5 274.5,-75.5 333.5,-75.5 333.5,-56.5 274.5,-56.5"/>
<text text-anchor="middle" x="304" y="-63.5" font-family="Helvetica,sans-Serif" font-size="10.00">functional</text>
</g>
<!-- Node13&#45;&gt;Node15 -->
<g id="edge17" class="edge"><title>Node13&#45;&gt;Node15</title>
<path fill="none" stroke="midnightblue" d="M348.255,-112.399C339.653,-103.575 328.548,-92.1827 319.614,-83.0178"/>
<polygon fill="midnightblue" stroke="midnightblue" points="321.926,-80.3755 312.44,-75.6578 316.914,-85.2616 321.926,-80.3755"/>
</g>
<!-- Node16 -->
<g id="node16" class="node"><title>Node16</title>
<polygon fill="none" stroke="#bfbfbf" points="390.5,-56.5 390.5,-75.5 435.5,-75.5 435.5,-56.5 390.5,-56.5"/>
<text text-anchor="middle" x="413" y="-63.5" font-family="Helvetica,sans-Serif" font-size="10.00">iosfwd</text>
</g>
<!-- Node13&#45;&gt;Node16 -->
<g id="edge18" class="edge"><title>Node13&#45;&gt;Node16</title>
<path fill="none" stroke="midnightblue" d="M374.086,-112.399C381.574,-103.664 391.218,-92.4126 399.032,-83.2962"/>
<polygon fill="midnightblue" stroke="midnightblue" points="401.729,-85.5281 405.579,-75.6578 396.414,-80.9726 401.729,-85.5281"/>
</g>
<!-- Node23 -->
<g id="node23" class="node"><title>Node23</title>
<polygon fill="none" stroke="#bfbfbf" points="1218,-118 1218,-137 1270,-137 1270,-118 1218,-118"/>
<text text-anchor="middle" x="1244" y="-125" font-family="Helvetica,sans-Serif" font-size="10.00">memory</text>
</g>
<!-- Node22&#45;&gt;Node23 -->
<g id="edge26" class="edge"><title>Node22&#45;&gt;Node23</title>
<path fill="none" stroke="midnightblue" d="M1122.53,-251.839C1144.02,-230.018 1200.64,-172.526 1228.32,-144.422"/>
<polygon fill="midnightblue" stroke="midnightblue" points="1231.08,-146.602 1235.61,-137.021 1226.1,-141.69 1231.08,-146.602"/>
</g>
<!-- Node24 -->
<g id="node24" class="node"><title>Node24</title>
<g id="a_node24"><a xlink:href="DatabaseInterface_8h.html" target="_top" xlink:title="QualityControl/DatabaseInterface.h">
<polygon fill="none" stroke="black" points="938,-185 938,-204 1108,-204 1108,-185 938,-185"/>
<text text-anchor="middle" x="1023" y="-192" font-family="Helvetica,sans-Serif" font-size="10.00">QualityControl/DatabaseInterface.h</text>
</a>
</g>
</g>
<!-- Node22&#45;&gt;Node24 -->
<g id="edge27" class="edge"><title>Node22&#45;&gt;Node24</title>
<path fill="none" stroke="midnightblue" d="M1101.73,-251.734C1086.85,-241.111 1061.57,-223.049 1043.67,-210.264"/>
<polygon fill="midnightblue" stroke="midnightblue" points="1045.25,-207.092 1035.08,-204.127 1041.18,-212.788 1045.25,-207.092"/>
</g>
<!-- Node24&#45;&gt;Node6 -->
<g id="edge33" class="edge"><title>Node24&#45;&gt;Node6</title>
<path fill="none" stroke="midnightblue" d="M977.543,-184.936C914.627,-173.082 801.118,-151.696 733.346,-138.928"/>
<polygon fill="midnightblue" stroke="midnightblue" points="733.759,-135.444 723.284,-137.032 732.463,-142.323 733.759,-135.444"/>
</g>
<!-- Node24&#45;&gt;Node12 -->
<g id="edge28" class="edge"><title>Node24&#45;&gt;Node12</title>
<path fill="none" stroke="midnightblue" d="M1095.82,-184.912C1123.29,-177.966 1152.37,-165.463 1171,-143 1197.89,-110.579 1196.16,-57.5715 1192.9,-29.6128"/>
<polygon fill="midnightblue" stroke="midnightblue" points="1196.36,-29.0396 1191.54,-19.6024 1189.42,-29.9828 1196.36,-29.0396"/>
</g>
<!-- Node24&#45;&gt;Node14 -->
<g id="edge30" class="edge"><title>Node24&#45;&gt;Node14</title>
<path fill="none" stroke="midnightblue" d="M937.796,-189.826C830.539,-184.113 653.157,-170.74 594,-143 586.31,-139.394 550.882,-104.312 529.838,-83.0939"/>
<polygon fill="midnightblue" stroke="midnightblue" points="532.084,-80.387 522.565,-75.7353 527.105,-85.3079 532.084,-80.387"/>
</g>
<!-- Node24&#45;&gt;Node23 -->
<g id="edge29" class="edge"><title>Node24&#45;&gt;Node23</title>
<path fill="none" stroke="midnightblue" d="M1056.58,-184.944C1093.09,-175.454 1153.05,-159.318 1204,-143 1206.55,-142.183 1209.18,-141.307 1211.82,-140.405"/>
<polygon fill="midnightblue" stroke="midnightblue" points="1212.99,-143.703 1221.26,-137.081 1210.66,-137.1 1212.99,-143.703"/>
</g>
<!-- Node25 -->
<g id="node25" class="node"><title>Node25</title>
<polygon fill="none" stroke="#bfbfbf" points="1073.5,-56.5 1073.5,-75.5 1156.5,-75.5 1156.5,-56.5 1073.5,-56.5"/>
<text text-anchor="middle" x="1115" y="-63.5" font-family="Helvetica,sans-Serif" font-size="10.00">unordered_map</text>
</g>
<!-- Node24&#45;&gt;Node25 -->
<g id="edge31" class="edge"><title>Node24&#45;&gt;Node25</title>
<path fill="none" stroke="midnightblue" d="M1017.47,-184.838C1008.15,-169.004 991.723,-134.916 1007,-112 1019.74,-92.8867 1042.3,-81.8785 1063.52,-75.5444"/>
<polygon fill="midnightblue" stroke="midnightblue" points="1064.71,-78.8497 1073.46,-72.8731 1062.89,-72.0897 1064.71,-78.8497"/>
</g>
<!-- Node26 -->
<g id="node26" class="node"><title>Node26</title>
<polygon fill="none" stroke="#bfbfbf" points="1016,-118 1016,-137 1162,-137 1162,-118 1016,-118"/>
<text text-anchor="middle" x="1089" y="-125" font-family="Helvetica,sans-Serif" font-size="10.00">Framework/ServiceRegistry.h</text>
</g>
<!-- Node24&#45;&gt;Node26 -->
<g id="edge32" class="edge"><title>Node24&#45;&gt;Node26</title>
<path fill="none" stroke="midnightblue" d="M1031.9,-184.734C1042.39,-174.403 1060.02,-157.037 1072.92,-144.332"/>
<polygon fill="midnightblue" stroke="midnightblue" points="1075.57,-146.638 1080.24,-137.127 1070.66,-141.651 1075.57,-146.638"/>
</g>
<!-- Node27 -->
<g id="node27" class="node"><title>Node27</title>
<g id="a_node27"><a xlink:href="MonitorObject_8h.html" target="_top" xlink:title="QualityControl/MonitorObject.h">
<polygon fill="none" stroke="black" points="808.5,-118 808.5,-137 959.5,-137 959.5,-118 808.5,-118"/>
<text text-anchor="middle" x="884" y="-125" font-family="Helvetica,sans-Serif" font-size="10.00">QualityControl/MonitorObject.h</text>
</a>
</g>
</g>
<!-- Node24&#45;&gt;Node27 -->
<g id="edge34" class="edge"><title>Node24&#45;&gt;Node27</title>
<path fill="none" stroke="midnightblue" d="M1004.54,-184.869C980.76,-173.748 939.208,-154.317 911.647,-141.429"/>
<polygon fill="midnightblue" stroke="midnightblue" points="913.076,-138.233 902.534,-137.167 910.11,-144.574 913.076,-138.233"/>
</g>
<!-- Node27&#45;&gt;Node7 -->
<g id="edge36" class="edge"><title>Node27&#45;&gt;Node7</title>
<path fill="none" stroke="midnightblue" d="M897.945,-117.846C918.373,-104.129 952.139,-76.8151 934,-56 914.457,-33.5741 710.966,-17.8547 635.746,-12.7716"/>
<polygon fill="midnightblue" stroke="midnightblue" points="635.826,-9.26928 625.616,-12.0993 635.363,-16.2539 635.826,-9.26928"/>
</g>
<!-- Node27&#45;&gt;Node8 -->
<g id="edge38" class="edge"><title>Node27&#45;&gt;Node8</title>
<path fill="none" stroke="midnightblue" d="M866.377,-117.975C845.826,-108.034 811.636,-91.4947 787.793,-79.961"/>
<polygon fill="midnightblue" stroke="midnightblue" points="789.116,-76.7131 778.59,-75.5091 786.068,-83.0145 789.116,-76.7131"/>
</g>
<!-- Node27&#45;&gt;Node9 -->
<g id="edge39" class="edge"><title>Node27&#45;&gt;Node9</title>
<path fill="none" stroke="midnightblue" d="M881.564,-117.975C879.141,-109.492 875.344,-96.2043 872.235,-85.3222"/>
<polygon fill="midnightblue" stroke="midnightblue" points="875.544,-84.1628 869.431,-75.5091 868.813,-86.0859 875.544,-84.1628"/>
</g>
<!-- Node27&#45;&gt;Node11 -->
<g id="edge37" class="edge"><title>Node27&#45;&gt;Node11</title>
<path fill="none" stroke="midnightblue" d="M909.033,-117.997C940.105,-106.066 986.736,-82.79 967,-56 942.702,-23.0178 894.462,-13.4971 860.307,-11.1071"/>
<polygon fill="midnightblue" stroke="midnightblue" points="860.371,-7.60576 850.201,-10.5762 860.004,-14.5961 860.371,-7.60576"/>
</g>
<!-- Node27&#45;&gt;Node12 -->
<g id="edge35" class="edge"><title>Node27&#45;&gt;Node12</title>
<path fill="none" stroke="midnightblue" d="M905.255,-117.934C938.848,-104.451 1006.32,-77.589 1064,-56 1096.65,-43.7795 1134.32,-30.4217 1159.91,-21.4601"/>
<polygon fill="midnightblue" stroke="midnightblue" points="1161.13,-24.7398 1169.42,-18.1366 1158.82,-18.1317 1161.13,-24.7398"/>
</g>
<!-- Node29 -->
<g id="node29" class="node"><title>Node29</title>
<polygon fill="none" stroke="#bfbfbf" points="2016,-185 2016,-204 2146,-204 2146,-185 2016,-185"/>
<text text-anchor="middle" x="2081" y="-192" font-family="Helvetica,sans-Serif" font-size="10.00">InfoLogger/InfoLogger.hxx</text>
</g>
<!-- Node28&#45;&gt;Node29 -->
<g id="edge41" class="edge"><title>Node28&#45;&gt;Node29</title>
<path fill="none" stroke="midnightblue" d="M2151.94,-251.734C2138.66,-241.208 2116.17,-223.379 2100.07,-210.617"/>
<polygon fill="midnightblue" stroke="midnightblue" points="2101.89,-207.596 2091.88,-204.127 2097.55,-213.082 2101.89,-207.596"/>
</g>
<!-- Node30 -->
<g id="node30" class="node"><title>Node30</title>
<polygon fill="none" stroke="#bfbfbf" points="2164,-185 2164,-204 2326,-204 2326,-185 2164,-185"/>
<text text-anchor="middle" x="2245" y="-192" font-family="Helvetica,sans-Serif" font-size="10.00">InfoLogger/InfoLoggerMacros.hxx</text>
</g>
<!-- Node28&#45;&gt;Node30 -->
<g id="edge42" class="edge"><title>Node28&#45;&gt;Node30</title>
<path fill="none" stroke="midnightblue" d="M2174.06,-251.734C2187.34,-241.208 2209.83,-223.379 2225.93,-210.617"/>
<polygon fill="midnightblue" stroke="midnightblue" points="2228.45,-213.082 2234.12,-204.127 2224.11,-207.596 2228.45,-213.082"/>
</g>
<!-- Node31&#45;&gt;Node12 -->
<g id="edge47" class="edge"><title>Node31&#45;&gt;Node12</title>
<path fill="none" stroke="midnightblue" d="M1664.34,-184.882C1641.05,-159.398 1567.89,-84.4124 1489,-56 1395.24,-22.2316 1276.11,-13.7998 1220.8,-11.697"/>
<polygon fill="midnightblue" stroke="midnightblue" points="1220.73,-8.19266 1210.61,-11.3552 1220.49,-15.1887 1220.73,-8.19266"/>
</g>
<!-- Node31&#45;&gt;Node23 -->
<g id="edge46" class="edge"><title>Node31&#45;&gt;Node23</title>
<path fill="none" stroke="midnightblue" d="M1588.34,-189.181C1507.93,-183.531 1383.53,-170.838 1279,-143 1276.55,-142.348 1274.05,-141.565 1271.56,-140.704"/>
<polygon fill="midnightblue" stroke="midnightblue" points="1272.8,-137.429 1262.21,-137.113 1270.29,-143.964 1272.8,-137.429"/>
</g>
<!-- Node32 -->
<g id="node32" class="node"><title>Node32</title>
<polygon fill="none" stroke="#bfbfbf" points="1649,-118 1649,-137 1695,-137 1695,-118 1649,-118"/>
<text text-anchor="middle" x="1672" y="-125" font-family="Helvetica,sans-Serif" font-size="10.00">atomic</text>
</g>
<!-- Node31&#45;&gt;Node32 -->
<g id="edge44" class="edge"><title>Node31&#45;&gt;Node32</title>
<path fill="none" stroke="midnightblue" d="M1672,-184.734C1672,-175.183 1672,-159.618 1672,-147.283"/>
<polygon fill="midnightblue" stroke="midnightblue" points="1675.5,-147.127 1672,-137.127 1668.5,-147.127 1675.5,-147.127"/>
</g>
<!-- Node33 -->
<g id="node33" class="node"><title>Node33</title>
<polygon fill="none" stroke="#bfbfbf" points="1713.5,-118 1713.5,-137 1772.5,-137 1772.5,-118 1713.5,-118"/>
<text text-anchor="middle" x="1743" y="-125" font-family="Helvetica,sans-Serif" font-size="10.00">curl/curl.h</text>
</g>
<!-- Node31&#45;&gt;Node33 -->
<g id="edge45" class="edge"><title>Node31&#45;&gt;Node33</title>
<path fill="none" stroke="midnightblue" d="M1681.58,-184.734C1692.97,-174.305 1712.19,-156.709 1726.1,-143.973"/>
<polygon fill="midnightblue" stroke="midnightblue" points="1728.56,-146.461 1733.58,-137.127 1723.84,-141.298 1728.56,-146.461"/>
</g>
<!-- Node34 -->
<g id="node34" class="node"><title>Node34</title>
<polygon fill="none" stroke="#bfbfbf" points="1791,-118 1791,-137 1835,-137 1835,-118 1791,-118"/>
<text text-anchor="middle" x="1813" y="-125" font-family="Helvetica,sans-Serif" font-size="10.00">thread</text>
</g>
<!-- Node31&#45;&gt;Node34 -->
<g id="edge48" class="edge"><title>Node31&#45;&gt;Node34</title>
<path fill="none" stroke="midnightblue" d="M1690.72,-184.869C1714.85,-173.748 1757,-154.317 1784.95,-141.429"/>
<polygon fill="midnightblue" stroke="midnightblue" points="1786.58,-144.532 1794.2,-137.167 1783.65,-138.175 1786.58,-144.532"/>
</g>
<!-- Node35 -->
<g id="node35" class="node"><title>Node35</title>
<polygon fill="none" stroke="#bfbfbf" points="1853,-112.5 1853,-142.5 1947,-142.5 1947,-112.5 1853,-112.5"/>
<text text-anchor="start" x="1861" y="-130.5" font-family="Helvetica,sans-Serif" font-size="10.00">boost/asio/ip/host</text>
<text text-anchor="middle" x="1900" y="-119.5" font-family="Helvetica,sans-Serif" font-size="10.00">_name.hpp</text>
</g>
<!-- Node31&#45;&gt;Node35 -->
<g id="edge49" class="edge"><title>Node31&#45;&gt;Node35</title>
<path fill="none" stroke="midnightblue" d="M1702.28,-184.869C1738.09,-174.659 1798.47,-157.446 1843.1,-144.721"/>
<polygon fill="midnightblue" stroke="midnightblue" points="1844.28,-148.023 1852.94,-141.916 1842.37,-141.292 1844.28,-148.023"/>
</g>
<!-- Node36&#45;&gt;Node6 -->
<g id="edge52" class="edge"><title>Node36&#45;&gt;Node6</title>
<path fill="none" stroke="midnightblue" d="M1270.32,-187.654C1167.69,-178.786 968.233,-161.05 799,-143 785.288,-141.537 770.714,-139.88 756.606,-138.221"/>
<polygon fill="midnightblue" stroke="midnightblue" points="756.778,-134.717 746.435,-137.016 755.954,-141.668 756.778,-134.717"/>
</g>
<!-- Node36&#45;&gt;Node12 -->
<g id="edge51" class="edge"><title>Node36&#45;&gt;Node12</title>
<path fill="none" stroke="midnightblue" d="M1407.74,-191.306C1488.58,-186.136 1606.57,-168.938 1563,-112 1520.76,-56.8036 1302.55,-24.7931 1220.89,-14.5943"/>
<polygon fill="midnightblue" stroke="midnightblue" points="1221.1,-11.0935 1210.75,-13.3524 1220.25,-18.0416 1221.1,-11.0935"/>
</g>
<!-- Node37 -->
<g id="node37" class="node"><title>Node37</title>
<g id="a_node37"><a xlink:href="CheckConfig_8h.html" target="_top" xlink:title="QualityControl/CheckConfig.h">
<polygon fill="none" stroke="black" points="1407.5,-118 1407.5,-137 1554.5,-137 1554.5,-118 1407.5,-118"/>
<text text-anchor="middle" x="1481" y="-125" font-family="Helvetica,sans-Serif" font-size="10.00">QualityControl/CheckConfig.h</text>
</a>
</g>
</g>
<!-- Node36&#45;&gt;Node37 -->
<g id="edge53" class="edge"><title>Node36&#45;&gt;Node37</title>
<path fill="none" stroke="midnightblue" d="M1357.86,-184.869C1382.15,-173.748 1424.6,-154.317 1452.76,-141.429"/>
<polygon fill="midnightblue" stroke="midnightblue" points="1454.43,-144.512 1462.07,-137.167 1451.52,-138.147 1454.43,-144.512"/>
</g>
<!-- Node38 -->
<g id="node38" class="node"><title>Node38</title>
<polygon fill="none" stroke="#bfbfbf" points="1288.5,-112.5 1288.5,-142.5 1389.5,-142.5 1389.5,-112.5 1288.5,-112.5"/>
<text text-anchor="start" x="1296.5" y="-130.5" font-family="Helvetica,sans-Serif" font-size="10.00">boost/property_tree</text>
<text text-anchor="middle" x="1339" y="-119.5" font-family="Helvetica,sans-Serif" font-size="10.00">/ptree_fwd.hpp</text>
</g>
<!-- Node36&#45;&gt;Node38 -->
<g id="edge56" class="edge"><title>Node36&#45;&gt;Node38</title>
<path fill="none" stroke="midnightblue" d="M1339,-184.734C1339,-176.541 1339,-163.923 1339,-152.714"/>
<polygon fill="midnightblue" stroke="midnightblue" points="1342.5,-152.589 1339,-142.589 1335.5,-152.589 1342.5,-152.589"/>
</g>
<!-- Node37&#45;&gt;Node12 -->
<g id="edge54" class="edge"><title>Node37&#45;&gt;Node12</title>
<path fill="none" stroke="midnightblue" d="M1459.13,-117.819C1407.65,-97.3862 1278.76,-46.2298 1220.02,-22.9147"/>
<polygon fill="midnightblue" stroke="midnightblue" points="1221.14,-19.5952 1210.56,-19.1591 1218.56,-26.1014 1221.14,-19.5952"/>
</g>
<!-- Node37&#45;&gt;Node25 -->
<g id="edge55" class="edge"><title>Node37&#45;&gt;Node25</title>
<path fill="none" stroke="midnightblue" d="M1432.74,-117.941C1421.36,-115.957 1409.25,-113.878 1398,-112 1317.39,-98.5504 1223.7,-83.832 1166.91,-75.0114"/>
<polygon fill="midnightblue" stroke="midnightblue" points="1167.17,-71.5092 1156.75,-73.4346 1166.09,-78.4265 1167.17,-71.5092"/>
</g>
</g>
</svg>
