<?xml version="1.0" encoding="UTF-8" standalone="no"?>
<!DOCTYPE svg PUBLIC "-//W3C//DTD SVG 1.1//EN"
 "http://www.w3.org/Graphics/SVG/1.1/DTD/svg11.dtd">
<!-- Generated by graphviz version 2.38.0 (20140413.2041)
 -->
<!-- Title: Framework/include/QualityControl/AggregatorInterface.h Pages: 1 -->
<svg width="503pt" height="173pt"
 viewBox="0.00 0.00 503.00 173.00" xmlns="http://www.w3.org/2000/svg" xmlns:xlink="http://www.w3.org/1999/xlink">
<g id="graph0" class="graph" transform="scale(1 1) rotate(0) translate(4 169)">
<title>Framework/include/QualityControl/AggregatorInterface.h</title>
<!-- Node1 -->
<g id="node1" class="node"><title>Node1</title>
<polygon fill="#bfbfbf" stroke="black" points="173,-134.5 173,-164.5 318,-164.5 318,-134.5 173,-134.5"/>
<text text-anchor="start" x="181" y="-152.5" font-family="Helvetica,sans-Serif" font-size="10.00">Framework/include/Quality</text>
<text text-anchor="middle" x="245.5" y="-141.5" font-family="Helvetica,sans-Serif" font-size="10.00">Control/AggregatorInterface.h</text>
</g>
<!-- Node2 -->
<g id="node2" class="node"><title>Node2</title>
<g id="a_node2"><a xlink:href="Aggregator_8cxx.html" target="_top" xlink:title="Framework/src/Aggregator.cxx">
<polygon fill="none" stroke="black" points="0,-73 0,-92 151,-92 151,-73 0,-73"/>
<text text-anchor="middle" x="75.5" y="-80" font-family="Helvetica,sans-Serif" font-size="10.00">Framework/src/Aggregator.cxx</text>
</a>
</g>
</g>
<!-- Node1&#45;&gt;Node2 -->
<g id="edge1" class="edge"><title>Node1&#45;&gt;Node2</title>
<path fill="none" stroke="midnightblue" d="M199.165,-130.784C166.203,-118.181 123.383,-101.808 97.7491,-92.007"/>
<polygon fill="midnightblue" stroke="midnightblue" points="198.022,-134.094 208.613,-134.396 200.522,-127.555 198.022,-134.094"/>
</g>
<!-- Node3 -->
<g id="node3" class="node"><title>Node3</title>
<g id="a_node3"><a xlink:href="testAggregatorInterface_8cxx.html" target="_top" xlink:title="Framework/test/testAggregator\lInterface.cxx">
<polygon fill="none" stroke="black" points="169.5,-67.5 169.5,-97.5 321.5,-97.5 321.5,-67.5 169.5,-67.5"/>
<text text-anchor="start" x="177.5" y="-85.5" font-family="Helvetica,sans-Serif" font-size="10.00">Framework/test/testAggregator</text>
<text text-anchor="middle" x="245.5" y="-74.5" font-family="Helvetica,sans-Serif" font-size="10.00">Interface.cxx</text>
</a>
</g>
</g>
<!-- Node1&#45;&gt;Node3 -->
<g id="edge2" class="edge"><title>Node1&#45;&gt;Node3</title>
<path fill="none" stroke="midnightblue" d="M245.5,-124.108C245.5,-115.154 245.5,-105.323 245.5,-97.5765"/>
<polygon fill="midnightblue" stroke="midnightblue" points="242,-124.396 245.5,-134.396 249,-124.396 242,-124.396"/>
</g>
<!-- Node4 -->
<g id="node4" class="node"><title>Node4</title>
<g id="a_node4"><a xlink:href="SkeletonAggregator_8h.html" target="_top" xlink:title="Modules/Skeleton/include\l/Skeleton/SkeletonAggregator.h">
<polygon fill="none" stroke="black" points="340,-67.5 340,-97.5 495,-97.5 495,-67.5 340,-67.5"/>
<text text-anchor="start" x="348" y="-85.5" font-family="Helvetica,sans-Serif" font-size="10.00">Modules/Skeleton/include</text>
<text text-anchor="middle" x="417.5" y="-74.5" font-family="Helvetica,sans-Serif" font-size="10.00">/Skeleton/SkeletonAggregator.h</text>
</a>
</g>
</g>
<!-- Node1&#45;&gt;Node4 -->
<g id="edge3" class="edge"><title>Node1&#45;&gt;Node4</title>
<path fill="none" stroke="midnightblue" d="M292.288,-130.819C319.935,-120.371 354.46,-107.323 380.251,-97.5765"/>
<polygon fill="midnightblue" stroke="midnightblue" points="290.938,-127.587 282.821,-134.396 293.413,-134.135 290.938,-127.587"/>
</g>
<!-- Node5 -->
<g id="node5" class="node"><title>Node5</title>
<polygon fill="none" stroke="#bfbfbf" points="355.5,-0.5 355.5,-30.5 479.5,-30.5 479.5,-0.5 355.5,-0.5"/>
<text text-anchor="start" x="363.5" y="-18.5" font-family="Helvetica,sans-Serif" font-size="10.00">Modules/Skeleton/src</text>
<text text-anchor="middle" x="417.5" y="-7.5" font-family="Helvetica,sans-Serif" font-size="10.00">/SkeletonAggregator.cxx</text>
</g>
<!-- Node4&#45;&gt;Node5 -->
<g id="edge4" class="edge"><title>Node4&#45;&gt;Node5</title>
<path fill="none" stroke="midnightblue" d="M417.5,-57.1081C417.5,-48.1539 417.5,-38.3227 417.5,-30.5765"/>
<polygon fill="midnightblue" stroke="midnightblue" points="414,-57.3959 417.5,-67.396 421,-57.396 414,-57.3959"/>
</g>
</g>
</svg>
