<?xml version="1.0" encoding="UTF-8" standalone="no"?>
<!DOCTYPE svg PUBLIC "-//W3C//DTD SVG 1.1//EN"
 "http://www.w3.org/Graphics/SVG/1.1/DTD/svg11.dtd">
<!-- Generated by graphviz version 2.38.0 (20140413.2041)
 -->
<!-- Title: Framework/include/QualityControl/AggregatorRunner.h Pages: 1 -->
<svg width="460pt" height="106pt"
 viewBox="0.00 0.00 460.00 106.00" xmlns="http://www.w3.org/2000/svg" xmlns:xlink="http://www.w3.org/1999/xlink">
<g id="graph0" class="graph" transform="scale(1 1) rotate(0) translate(4 102)">
<title>Framework/include/QualityControl/AggregatorRunner.h</title>
<!-- Node1 -->
<g id="node1" class="node"><title>Node1</title>
<polygon fill="#bfbfbf" stroke="black" points="147,-67.5 147,-97.5 285,-97.5 285,-67.5 147,-67.5"/>
<text text-anchor="start" x="155" y="-85.5" font-family="Helvetica,sans-Serif" font-size="10.00">Framework/include/Quality</text>
<text text-anchor="middle" x="216" y="-74.5" font-family="Helvetica,sans-Serif" font-size="10.00">Control/AggregatorRunner.h</text>
</g>
<!-- Node2 -->
<g id="node2" class="node"><title>Node2</title>
<g id="a_node2"><a xlink:href="AggregatorRunner_8cxx.html" target="_top" xlink:title="Framework/src/Aggregator\lRunner.cxx">
<polygon fill="none" stroke="black" points="0,-0.5 0,-30.5 132,-30.5 132,-0.5 0,-0.5"/>
<text text-anchor="start" x="8" y="-18.5" font-family="Helvetica,sans-Serif" font-size="10.00">Framework/src/Aggregator</text>
<text text-anchor="middle" x="66" y="-7.5" font-family="Helvetica,sans-Serif" font-size="10.00">Runner.cxx</text>
</a>
</g>
</g>
<!-- Node1&#45;&gt;Node2 -->
<g id="edge1" class="edge"><title>Node1&#45;&gt;Node2</title>
<path fill="none" stroke="midnightblue" d="M174.246,-63.4066C150.299,-53.0294 120.682,-40.1954 98.4842,-30.5765"/>
<polygon fill="midnightblue" stroke="midnightblue" points="172.885,-66.6313 183.452,-67.396 175.668,-60.2084 172.885,-66.6313"/>
</g>
<!-- Node3 -->
<g id="node3" class="node"><title>Node3</title>
<g id="a_node3"><a xlink:href="AggregatorRunnerFactory_8cxx.html" target="_top" xlink:title="Framework/src/Aggregator\lRunnerFactory.cxx">
<polygon fill="none" stroke="black" points="150,-0.5 150,-30.5 282,-30.5 282,-0.5 150,-0.5"/>
<text text-anchor="start" x="158" y="-18.5" font-family="Helvetica,sans-Serif" font-size="10.00">Framework/src/Aggregator</text>
<text text-anchor="middle" x="216" y="-7.5" font-family="Helvetica,sans-Serif" font-size="10.00">RunnerFactory.cxx</text>
</a>
</g>
</g>
<!-- Node1&#45;&gt;Node3 -->
<g id="edge2" class="edge"><title>Node1&#45;&gt;Node3</title>
<path fill="none" stroke="midnightblue" d="M216,-57.1081C216,-48.1539 216,-38.3227 216,-30.5765"/>
<polygon fill="midnightblue" stroke="midnightblue" points="212.5,-57.3959 216,-67.396 219.5,-57.396 212.5,-57.3959"/>
</g>
<!-- Node4 -->
<g id="node4" class="node"><title>Node4</title>
<g id="a_node4"><a xlink:href="testAggregatorRunner_8cxx.html" target="_top" xlink:title="Framework/test/testAggregator\lRunner.cxx">
<polygon fill="none" stroke="black" points="300,-0.5 300,-30.5 452,-30.5 452,-0.5 300,-0.5"/>
<text text-anchor="start" x="308" y="-18.5" font-family="Helvetica,sans-Serif" font-size="10.00">Framework/test/testAggregator</text>
<text text-anchor="middle" x="376" y="-7.5" font-family="Helvetica,sans-Serif" font-size="10.00">Runner.cxx</text>
</a>
</g>
</g>
<!-- Node1&#45;&gt;Node4 -->
<g id="edge3" class="edge"><title>Node1&#45;&gt;Node4</title>
<path fill="none" stroke="midnightblue" d="M260.199,-63.5442C285.802,-53.143 317.568,-40.238 341.35,-30.5765"/>
<polygon fill="midnightblue" stroke="midnightblue" points="258.665,-60.3895 250.718,-67.396 261.3,-66.8748 258.665,-60.3895"/>
</g>
</g>
</svg>
