<?xml version="1.0" encoding="UTF-8" standalone="no"?>
<!DOCTYPE svg PUBLIC "-//W3C//DTD SVG 1.1//EN"
 "http://www.w3.org/Graphics/SVG/1.1/DTD/svg11.dtd">
<!-- Generated by graphviz version 2.38.0 (20140413.2041)
 -->
<!-- Title: Modules/MFT/src/BasicClusterQcTask.cxx Pages: 1 -->
<svg width="1625pt" height="330pt"
 viewBox="0.00 0.00 1625.00 330.00" xmlns="http://www.w3.org/2000/svg" xmlns:xlink="http://www.w3.org/1999/xlink">
<g id="graph0" class="graph" transform="scale(1 1) rotate(0) translate(4 326)">
<title>Modules/MFT/src/BasicClusterQcTask.cxx</title>
<!-- Node1 -->
<g id="node1" class="node"><title>Node1</title>
<polygon fill="#bfbfbf" stroke="black" points="224.5,-291.5 224.5,-321.5 376.5,-321.5 376.5,-291.5 224.5,-291.5"/>
<text text-anchor="start" x="232.5" y="-309.5" font-family="Helvetica,sans-Serif" font-size="10.00">Modules/MFT/src/BasicCluster</text>
<text text-anchor="middle" x="300.5" y="-298.5" font-family="Helvetica,sans-Serif" font-size="10.00">QcTask.cxx</text>
</g>
<!-- Node2 -->
<g id="node2" class="node"><title>Node2</title>
<polygon fill="none" stroke="#bfbfbf" points="0,-235.5 0,-254.5 65,-254.5 65,-235.5 0,-235.5"/>
<text text-anchor="middle" x="32.5" y="-242.5" font-family="Helvetica,sans-Serif" font-size="10.00">TCanvas.h</text>
</g>
<!-- Node1&#45;&gt;Node2 -->
<g id="edge1" class="edge"><title>Node1&#45;&gt;Node2</title>
<path fill="none" stroke="midnightblue" d="M237.327,-291.475C187.327,-280.374 118.865,-265.174 75.1532,-255.47"/>
<polygon fill="midnightblue" stroke="midnightblue" points="75.6605,-251.997 65.1396,-253.246 74.1433,-258.831 75.6605,-251.997"/>
</g>
<!-- Node3 -->
<g id="node3" class="node"><title>Node3</title>
<polygon fill="none" stroke="#bfbfbf" points="83.5,-235.5 83.5,-254.5 127.5,-254.5 127.5,-235.5 83.5,-235.5"/>
<text text-anchor="middle" x="105.5" y="-242.5" font-family="Helvetica,sans-Serif" font-size="10.00">TH1.h</text>
</g>
<!-- Node1&#45;&gt;Node3 -->
<g id="edge2" class="edge"><title>Node1&#45;&gt;Node3</title>
<path fill="none" stroke="midnightblue" d="M254.288,-291.399C218.21,-280.391 169.036,-265.386 137.274,-255.695"/>
<polygon fill="midnightblue" stroke="midnightblue" points="138.199,-252.318 127.613,-252.747 136.156,-259.013 138.199,-252.318"/>
</g>
<!-- Node4 -->
<g id="node4" class="node"><title>Node4</title>
<polygon fill="none" stroke="#bfbfbf" points="145.5,-235.5 145.5,-254.5 297.5,-254.5 297.5,-235.5 145.5,-235.5"/>
<text text-anchor="middle" x="221.5" y="-242.5" font-family="Helvetica,sans-Serif" font-size="10.00">DataFormatsITSMFT/Cluster.h</text>
</g>
<!-- Node1&#45;&gt;Node4 -->
<g id="edge3" class="edge"><title>Node1&#45;&gt;Node4</title>
<path fill="none" stroke="midnightblue" d="M281.778,-291.399C269.588,-282.218 253.708,-270.258 241.307,-260.918"/>
<polygon fill="midnightblue" stroke="midnightblue" points="243.089,-257.878 232.995,-254.658 238.877,-263.47 243.089,-257.878"/>
</g>
<!-- Node5 -->
<g id="node5" class="node"><title>Node5</title>
<polygon fill="none" stroke="#bfbfbf" points="315.5,-235.5 315.5,-254.5 445.5,-254.5 445.5,-235.5 315.5,-235.5"/>
<text text-anchor="middle" x="380.5" y="-242.5" font-family="Helvetica,sans-Serif" font-size="10.00">Framework/InputRecord.h</text>
</g>
<!-- Node1&#45;&gt;Node5 -->
<g id="edge4" class="edge"><title>Node1&#45;&gt;Node5</title>
<path fill="none" stroke="midnightblue" d="M319.459,-291.399C331.923,-282.129 348.197,-270.025 360.807,-260.647"/>
<polygon fill="midnightblue" stroke="midnightblue" points="362.924,-263.434 368.859,-254.658 358.747,-257.817 362.924,-263.434"/>
</g>
<!-- Node6 -->
<g id="node6" class="node"><title>Node6</title>
<g id="a_node6"><a xlink:href="QcInfoLogger_8h.html" target="_top" xlink:title="QualityControl/QcInfoLogger.h">
<polygon fill="none" stroke="black" points="315,-123.5 315,-142.5 464,-142.5 464,-123.5 315,-123.5"/>
<text text-anchor="middle" x="389.5" y="-130.5" font-family="Helvetica,sans-Serif" font-size="10.00">QualityControl/QcInfoLogger.h</text>
</a>
</g>
</g>
<!-- Node1&#45;&gt;Node6 -->
<g id="edge5" class="edge"><title>Node1&#45;&gt;Node6</title>
<path fill="none" stroke="midnightblue" d="M376.72,-299.237C405.917,-292.678 436.507,-279.836 454.5,-255 480.111,-219.649 435.856,-172.983 408.559,-149.261"/>
<polygon fill="midnightblue" stroke="midnightblue" points="410.634,-146.432 400.729,-142.673 406.128,-151.789 410.634,-146.432"/>
</g>
<!-- Node9 -->
<g id="node9" class="node"><title>Node9</title>
<g id="a_node9"><a xlink:href="BasicClusterQcTask_8h.html" target="_top" xlink:title="MFT/BasicClusterQcTask.h">
<polygon fill="none" stroke="black" points="591,-235.5 591,-254.5 730,-254.5 730,-235.5 591,-235.5"/>
<text text-anchor="middle" x="660.5" y="-242.5" font-family="Helvetica,sans-Serif" font-size="10.00">MFT/BasicClusterQcTask.h</text>
</a>
</g>
</g>
<!-- Node1&#45;&gt;Node9 -->
<g id="edge8" class="edge"><title>Node1&#45;&gt;Node9</title>
<path fill="none" stroke="midnightblue" d="M376.847,-292.882C443.027,-281.943 537.567,-266.318 598.987,-256.167"/>
<polygon fill="midnightblue" stroke="midnightblue" points="599.631,-259.608 608.927,-254.524 598.49,-252.701 599.631,-259.608"/>
</g>
<!-- Node7 -->
<g id="node7" class="node"><title>Node7</title>
<polygon fill="none" stroke="#bfbfbf" points="157.5,-62 157.5,-81 287.5,-81 287.5,-62 157.5,-62"/>
<text text-anchor="middle" x="222.5" y="-69" font-family="Helvetica,sans-Serif" font-size="10.00">InfoLogger/InfoLogger.hxx</text>
</g>
<!-- Node6&#45;&gt;Node7 -->
<g id="edge6" class="edge"><title>Node6&#45;&gt;Node7</title>
<path fill="none" stroke="midnightblue" d="M365.573,-123.475C336.803,-113.225 288.344,-95.9593 255.898,-84.3994"/>
<polygon fill="midnightblue" stroke="midnightblue" points="256.977,-81.0684 246.383,-81.0091 254.628,-87.6624 256.977,-81.0684"/>
</g>
<!-- Node8 -->
<g id="node8" class="node"><title>Node8</title>
<polygon fill="none" stroke="#bfbfbf" points="305.5,-62 305.5,-81 467.5,-81 467.5,-62 305.5,-62"/>
<text text-anchor="middle" x="386.5" y="-69" font-family="Helvetica,sans-Serif" font-size="10.00">InfoLogger/InfoLoggerMacros.hxx</text>
</g>
<!-- Node6&#45;&gt;Node8 -->
<g id="edge7" class="edge"><title>Node6&#45;&gt;Node8</title>
<path fill="none" stroke="midnightblue" d="M389.07,-123.475C388.647,-115.08 387.986,-101.981 387.441,-91.1631"/>
<polygon fill="midnightblue" stroke="midnightblue" points="390.928,-90.8201 386.929,-81.0091 383.937,-91.1727 390.928,-90.8201"/>
</g>
<!-- Node10 -->
<g id="node10" class="node"><title>Node10</title>
<g id="a_node10"><a xlink:href="TaskInterface_8h.html" target="_top" xlink:title="QualityControl/TaskInterface.h">
<polygon fill="none" stroke="black" points="587.5,-179.5 587.5,-198.5 737.5,-198.5 737.5,-179.5 587.5,-179.5"/>
<text text-anchor="middle" x="662.5" y="-186.5" font-family="Helvetica,sans-Serif" font-size="10.00">QualityControl/TaskInterface.h</text>
</a>
</g>
</g>
<!-- Node9&#45;&gt;Node10 -->
<g id="edge9" class="edge"><title>Node9&#45;&gt;Node10</title>
<path fill="none" stroke="midnightblue" d="M660.83,-235.083C661.092,-228.006 661.468,-217.861 661.797,-208.986"/>
<polygon fill="midnightblue" stroke="midnightblue" points="665.303,-208.874 662.176,-198.751 658.308,-208.615 665.303,-208.874"/>
</g>
<!-- Node10&#45;&gt;Node6 -->
<g id="edge33" class="edge"><title>Node10&#45;&gt;Node6</title>
<path fill="none" stroke="midnightblue" d="M619.242,-179.444C571.319,-169.964 494.022,-154.675 442.5,-144.483"/>
<polygon fill="midnightblue" stroke="midnightblue" points="443.044,-141.023 432.555,-142.516 441.686,-147.89 443.044,-141.023"/>
</g>
<!-- Node11 -->
<g id="node11" class="node"><title>Node11</title>
<polygon fill="none" stroke="#bfbfbf" points="1348,-0.5 1348,-19.5 1383,-19.5 1383,-0.5 1348,-0.5"/>
<text text-anchor="middle" x="1365.5" y="-7.5" font-family="Helvetica,sans-Serif" font-size="10.00">map</text>
</g>
<!-- Node10&#45;&gt;Node11 -->
<g id="edge10" class="edge"><title>Node10&#45;&gt;Node11</title>
<path fill="none" stroke="midnightblue" d="M737.573,-188.286C905.977,-188.195 1302.61,-183.621 1346.5,-143 1377.7,-114.121 1373.92,-58.7574 1369.28,-29.7612"/>
<polygon fill="midnightblue" stroke="midnightblue" points="1372.69,-28.9509 1367.47,-19.7315 1365.81,-30.1942 1372.69,-28.9509"/>
</g>
<!-- Node12 -->
<g id="node12" class="node"><title>Node12</title>
<polygon fill="none" stroke="#bfbfbf" points="722.5,-62 722.5,-81 774.5,-81 774.5,-62 722.5,-62"/>
<text text-anchor="middle" x="748.5" y="-69" font-family="Helvetica,sans-Serif" font-size="10.00">memory</text>
</g>
<!-- Node10&#45;&gt;Node12 -->
<g id="edge11" class="edge"><title>Node10&#45;&gt;Node12</title>
<path fill="none" stroke="midnightblue" d="M640.041,-179.499C613.328,-168.083 574.373,-146.5 591.5,-123 618.897,-85.4075 674.752,-75.1904 711.91,-72.7429"/>
<polygon fill="midnightblue" stroke="midnightblue" points="712.508,-76.2176 722.322,-72.2263 712.161,-69.2262 712.508,-76.2176"/>
</g>
<!-- Node13 -->
<g id="node13" class="node"><title>Node13</title>
<polygon fill="none" stroke="#bfbfbf" points="1003,-0.5 1003,-19.5 1044,-19.5 1044,-0.5 1003,-0.5"/>
<text text-anchor="middle" x="1023.5" y="-7.5" font-family="Helvetica,sans-Serif" font-size="10.00">string</text>
</g>
<!-- Node10&#45;&gt;Node13 -->
<g id="edge12" class="edge"><title>Node10&#45;&gt;Node13</title>
<path fill="none" stroke="midnightblue" d="M635.336,-179.425C606.402,-168.744 566.764,-148.722 582.5,-123 616.626,-67.2153 651.191,-75.8535 713.5,-56 812.319,-24.5132 935.944,-14.9658 992.576,-12.1439"/>
<polygon fill="midnightblue" stroke="midnightblue" points="992.838,-15.6356 1002.67,-11.678 992.515,-8.64306 992.838,-15.6356"/>
</g>
<!-- Node14 -->
<g id="node14" class="node"><title>Node14</title>
<polygon fill="none" stroke="#bfbfbf" points="678,-0.5 678,-19.5 761,-19.5 761,-0.5 678,-0.5"/>
<text text-anchor="middle" x="719.5" y="-7.5" font-family="Helvetica,sans-Serif" font-size="10.00">unordered_map</text>
</g>
<!-- Node10&#45;&gt;Node14 -->
<g id="edge13" class="edge"><title>Node10&#45;&gt;Node14</title>
<path fill="none" stroke="midnightblue" d="M587.312,-182.153C561.604,-176.12 535.358,-164.614 519.5,-143 496.627,-111.824 495.345,-86.1936 519.5,-56 537.738,-33.2024 614.742,-21.1433 667.699,-15.422"/>
<polygon fill="midnightblue" stroke="midnightblue" points="668.359,-18.8724 677.946,-14.3609 667.638,-11.9097 668.359,-18.8724"/>
</g>
<!-- Node15 -->
<g id="node15" class="node"><title>Node15</title>
<polygon fill="none" stroke="#bfbfbf" points="600,-123.5 600,-142.5 725,-142.5 725,-123.5 600,-123.5"/>
<text text-anchor="middle" x="662.5" y="-130.5" font-family="Helvetica,sans-Serif" font-size="10.00">Framework/InitContext.h</text>
</g>
<!-- Node10&#45;&gt;Node15 -->
<g id="edge14" class="edge"><title>Node10&#45;&gt;Node15</title>
<path fill="none" stroke="midnightblue" d="M662.5,-179.083C662.5,-172.006 662.5,-161.861 662.5,-152.986"/>
<polygon fill="midnightblue" stroke="midnightblue" points="666,-152.751 662.5,-142.751 659,-152.751 666,-152.751"/>
</g>
<!-- Node16 -->
<g id="node16" class="node"><title>Node16</title>
<polygon fill="none" stroke="#bfbfbf" points="743.5,-123.5 743.5,-142.5 903.5,-142.5 903.5,-123.5 743.5,-123.5"/>
<text text-anchor="middle" x="823.5" y="-130.5" font-family="Helvetica,sans-Serif" font-size="10.00">Framework/ProcessingContext.h</text>
</g>
<!-- Node10&#45;&gt;Node16 -->
<g id="edge15" class="edge"><title>Node10&#45;&gt;Node16</title>
<path fill="none" stroke="midnightblue" d="M688.011,-179.444C715.096,-170.359 758.09,-155.939 788.369,-145.783"/>
<polygon fill="midnightblue" stroke="midnightblue" points="789.74,-149.015 798.108,-142.516 787.514,-142.378 789.74,-149.015"/>
</g>
<!-- Node17 -->
<g id="node17" class="node"><title>Node17</title>
<polygon fill="none" stroke="#bfbfbf" points="922,-123.5 922,-142.5 1017,-142.5 1017,-123.5 922,-123.5"/>
<text text-anchor="middle" x="969.5" y="-130.5" font-family="Helvetica,sans-Serif" font-size="10.00">CCDB/CcdbApi.h</text>
</g>
<!-- Node10&#45;&gt;Node17 -->
<g id="edge16" class="edge"><title>Node10&#45;&gt;Node17</title>
<path fill="none" stroke="midnightblue" d="M711.145,-179.444C765.613,-169.863 853.822,-154.347 911.748,-144.158"/>
<polygon fill="midnightblue" stroke="midnightblue" points="912.597,-147.563 921.84,-142.383 911.385,-140.669 912.597,-147.563"/>
</g>
<!-- Node18 -->
<g id="node18" class="node"><title>Node18</title>
<g id="a_node18"><a xlink:href="Activity_8h.html" target="_top" xlink:title="QualityControl/Activity.h">
<polygon fill="none" stroke="black" points="1035,-123.5 1035,-142.5 1158,-142.5 1158,-123.5 1035,-123.5"/>
<text text-anchor="middle" x="1096.5" y="-130.5" font-family="Helvetica,sans-Serif" font-size="10.00">QualityControl/Activity.h</text>
</a>
</g>
</g>
<!-- Node10&#45;&gt;Node18 -->
<g id="edge17" class="edge"><title>Node10&#45;&gt;Node18</title>
<path fill="none" stroke="midnightblue" d="M732.294,-179.474C803.358,-170.769 917.018,-156.784 1024.61,-143.234"/>
<polygon fill="midnightblue" stroke="midnightblue" points="1025.18,-146.69 1034.67,-141.967 1024.31,-139.745 1025.18,-146.69"/>
</g>
<!-- Node19 -->
<g id="node19" class="node"><title>Node19</title>
<g id="a_node19"><a xlink:href="ObjectsManager_8h.html" target="_top" xlink:title="QualityControl/ObjectsManager.h">
<polygon fill="none" stroke="black" points="1176,-123.5 1176,-142.5 1337,-142.5 1337,-123.5 1176,-123.5"/>
<text text-anchor="middle" x="1256.5" y="-130.5" font-family="Helvetica,sans-Serif" font-size="10.00">QualityControl/ObjectsManager.h</text>
</a>
</g>
</g>
<!-- Node10&#45;&gt;Node19 -->
<g id="edge18" class="edge"><title>Node10&#45;&gt;Node19</title>
<path fill="none" stroke="midnightblue" d="M737.817,-181.57C834.407,-173.261 1007.4,-158.168 1165.58,-143.174"/>
<polygon fill="midnightblue" stroke="midnightblue" points="1166.35,-146.616 1175.97,-142.186 1165.69,-139.648 1166.35,-146.616"/>
</g>
<!-- Node19&#45;&gt;Node12 -->
<g id="edge32" class="edge"><title>Node19&#45;&gt;Node12</title>
<path fill="none" stroke="midnightblue" d="M1183.72,-123.475C1073.35,-110.548 867.728,-86.4647 784.68,-76.7376"/>
<polygon fill="midnightblue" stroke="midnightblue" points="785.053,-73.2574 774.714,-75.5703 784.238,-80.2099 785.053,-73.2574"/>
</g>
<!-- Node19&#45;&gt;Node13 -->
<g id="edge31" class="edge"><title>Node19&#45;&gt;Node13</title>
<path fill="none" stroke="midnightblue" d="M1238.41,-123.413C1219.79,-114.508 1189.96,-100.083 1164.5,-87 1123.35,-65.8543 1076.13,-40.0918 1048.11,-24.6459"/>
<polygon fill="midnightblue" stroke="midnightblue" points="1049.49,-21.4088 1039.04,-19.6373 1046.1,-27.5361 1049.49,-21.4088"/>
</g>
<!-- Node20 -->
<g id="node20" class="node"><title>Node20</title>
<g id="a_node20"><a xlink:href="MonitorObject_8h.html" target="_top" xlink:title="QualityControl/MonitorObject.h">
<polygon fill="none" stroke="black" points="1173,-62 1173,-81 1324,-81 1324,-62 1173,-62"/>
<text text-anchor="middle" x="1248.5" y="-69" font-family="Helvetica,sans-Serif" font-size="10.00">QualityControl/MonitorObject.h</text>
</a>
</g>
</g>
<!-- Node19&#45;&gt;Node20 -->
<g id="edge19" class="edge"><title>Node19&#45;&gt;Node20</title>
<path fill="none" stroke="midnightblue" d="M1255.35,-123.475C1254.23,-115.08 1252.46,-101.981 1251.01,-91.1631"/>
<polygon fill="midnightblue" stroke="midnightblue" points="1254.45,-90.4535 1249.64,-81.0091 1247.51,-91.3863 1254.45,-90.4535"/>
</g>
<!-- Node24 -->
<g id="node24" class="node"><title>Node24</title>
<g id="a_node24"><a xlink:href="MonitorObjectCollection_8h.html" target="_top" xlink:title="QualityControl/MonitorObject\lCollection.h">
<polygon fill="none" stroke="black" points="1394,-56.5 1394,-86.5 1537,-86.5 1537,-56.5 1394,-56.5"/>
<text text-anchor="start" x="1402" y="-74.5" font-family="Helvetica,sans-Serif" font-size="10.00">QualityControl/MonitorObject</text>
<text text-anchor="middle" x="1465.5" y="-63.5" font-family="Helvetica,sans-Serif" font-size="10.00">Collection.h</text>
</a>
</g>
</g>
<!-- Node19&#45;&gt;Node24 -->
<g id="edge25" class="edge"><title>Node19&#45;&gt;Node24</title>
<path fill="none" stroke="midnightblue" d="M1286.44,-123.475C1317.66,-114.588 1367.4,-100.429 1406.54,-89.2859"/>
<polygon fill="midnightblue" stroke="midnightblue" points="1407.58,-92.6274 1416.24,-86.523 1405.67,-85.8949 1407.58,-92.6274"/>
</g>
<!-- Node27 -->
<g id="node27" class="node"><title>Node27</title>
<g id="a_node27"><a xlink:href="TaskConfig_8h.html" target="_top" xlink:title="QualityControl/TaskConfig.h">
<polygon fill="none" stroke="black" points="953.5,-62 953.5,-81 1093.5,-81 1093.5,-62 953.5,-62"/>
<text text-anchor="middle" x="1023.5" y="-69" font-family="Helvetica,sans-Serif" font-size="10.00">QualityControl/TaskConfig.h</text>
</a>
</g>
</g>
<!-- Node19&#45;&gt;Node27 -->
<g id="edge28" class="edge"><title>Node19&#45;&gt;Node27</title>
<path fill="none" stroke="midnightblue" d="M1223.12,-123.475C1181.94,-112.959 1111.85,-95.0615 1066.63,-83.5142"/>
<polygon fill="midnightblue" stroke="midnightblue" points="1067.38,-80.0922 1056.82,-81.0091 1065.64,-86.8746 1067.38,-80.0922"/>
</g>
<!-- Node20&#45;&gt;Node11 -->
<g id="edge21" class="edge"><title>Node20&#45;&gt;Node11</title>
<path fill="none" stroke="midnightblue" d="M1265.26,-61.9751C1284.72,-52.078 1317.05,-35.6416 1339.71,-24.1151"/>
<polygon fill="midnightblue" stroke="midnightblue" points="1341.44,-27.1619 1348.77,-19.5091 1338.27,-20.9224 1341.44,-27.1619"/>
</g>
<!-- Node20&#45;&gt;Node13 -->
<g id="edge20" class="edge"><title>Node20&#45;&gt;Node13</title>
<path fill="none" stroke="midnightblue" d="M1213.87,-61.9556C1176.79,-52.7114 1115.98,-37.2882 1054.07,-20.0774"/>
<polygon fill="midnightblue" stroke="midnightblue" points="1054.7,-16.6194 1044.13,-17.3005 1052.82,-23.3614 1054.7,-16.6194"/>
</g>
<!-- Node21 -->
<g id="node21" class="node"><title>Node21</title>
<polygon fill="none" stroke="#bfbfbf" points="1273.5,-0.5 1273.5,-19.5 1329.5,-19.5 1329.5,-0.5 1273.5,-0.5"/>
<text text-anchor="middle" x="1301.5" y="-7.5" font-family="Helvetica,sans-Serif" font-size="10.00">Rtypes.h</text>
</g>
<!-- Node20&#45;&gt;Node21 -->
<g id="edge22" class="edge"><title>Node20&#45;&gt;Node21</title>
<path fill="none" stroke="midnightblue" d="M1256.09,-61.9751C1264.2,-52.8733 1277.23,-38.241 1287.26,-26.983"/>
<polygon fill="midnightblue" stroke="midnightblue" points="1289.88,-29.3043 1293.92,-19.5091 1284.66,-24.6483 1289.88,-29.3043"/>
</g>
<!-- Node22 -->
<g id="node22" class="node"><title>Node22</title>
<polygon fill="none" stroke="#bfbfbf" points="1062,-0.5 1062,-19.5 1121,-19.5 1121,-0.5 1062,-0.5"/>
<text text-anchor="middle" x="1091.5" y="-7.5" font-family="Helvetica,sans-Serif" font-size="10.00">TObject.h</text>
</g>
<!-- Node20&#45;&gt;Node22 -->
<g id="edge23" class="edge"><title>Node20&#45;&gt;Node22</title>
<path fill="none" stroke="midnightblue" d="M1226.01,-61.9751C1199.19,-51.8129 1154.18,-34.7564 1123.69,-23.1996"/>
<polygon fill="midnightblue" stroke="midnightblue" points="1124.54,-19.7801 1113.95,-19.5091 1122.06,-26.3258 1124.54,-19.7801"/>
</g>
<!-- Node23 -->
<g id="node23" class="node"><title>Node23</title>
<polygon fill="none" stroke="#bfbfbf" points="1139.5,-0.5 1139.5,-19.5 1255.5,-19.5 1255.5,-0.5 1139.5,-0.5"/>
<text text-anchor="middle" x="1197.5" y="-7.5" font-family="Helvetica,sans-Serif" font-size="10.00">Common/Exceptions.h</text>
</g>
<!-- Node20&#45;&gt;Node23 -->
<g id="edge24" class="edge"><title>Node20&#45;&gt;Node23</title>
<path fill="none" stroke="midnightblue" d="M1241.19,-61.9751C1233.47,-52.9617 1221.09,-38.5246 1211.48,-27.3118"/>
<polygon fill="midnightblue" stroke="midnightblue" points="1213.96,-24.8239 1204.79,-19.5091 1208.64,-29.3795 1213.96,-24.8239"/>
</g>
<!-- Node25 -->
<g id="node25" class="node"><title>Node25</title>
<polygon fill="none" stroke="#bfbfbf" points="1548,-0.5 1548,-19.5 1617,-19.5 1617,-0.5 1548,-0.5"/>
<text text-anchor="middle" x="1582.5" y="-7.5" font-family="Helvetica,sans-Serif" font-size="10.00">TObjArray.h</text>
</g>
<!-- Node24&#45;&gt;Node25 -->
<g id="edge26" class="edge"><title>Node24&#45;&gt;Node25</title>
<path fill="none" stroke="midnightblue" d="M1493.23,-56.3993C1512.33,-46.6837 1537.56,-33.8551 1556.32,-24.3137"/>
<polygon fill="midnightblue" stroke="midnightblue" points="1558.15,-27.3106 1565.48,-19.6578 1554.98,-21.071 1558.15,-27.3106"/>
</g>
<!-- Node26 -->
<g id="node26" class="node"><title>Node26</title>
<polygon fill="none" stroke="#bfbfbf" points="1401.5,-0.5 1401.5,-19.5 1529.5,-19.5 1529.5,-0.5 1401.5,-0.5"/>
<text text-anchor="middle" x="1465.5" y="-7.5" font-family="Helvetica,sans-Serif" font-size="10.00">Mergers/MergeInterface.h</text>
</g>
<!-- Node24&#45;&gt;Node26 -->
<g id="edge27" class="edge"><title>Node24&#45;&gt;Node26</title>
<path fill="none" stroke="midnightblue" d="M1465.5,-56.3993C1465.5,-48.4664 1465.5,-38.458 1465.5,-29.8583"/>
<polygon fill="midnightblue" stroke="midnightblue" points="1469,-29.6577 1465.5,-19.6578 1462,-29.6578 1469,-29.6577"/>
</g>
<!-- Node27&#45;&gt;Node13 -->
<g id="edge29" class="edge"><title>Node27&#45;&gt;Node13</title>
<path fill="none" stroke="midnightblue" d="M1023.5,-61.9751C1023.5,-53.5803 1023.5,-40.4806 1023.5,-29.6631"/>
<polygon fill="midnightblue" stroke="midnightblue" points="1027,-29.5091 1023.5,-19.5091 1020,-29.5091 1027,-29.5091"/>
</g>
<!-- Node27&#45;&gt;Node14 -->
<g id="edge30" class="edge"><title>Node27&#45;&gt;Node14</title>
<path fill="none" stroke="midnightblue" d="M979.944,-61.9751C924.808,-51.1836 829.948,-32.6173 771.199,-21.1186"/>
<polygon fill="midnightblue" stroke="midnightblue" points="771.509,-17.6131 761.023,-19.1271 770.165,-24.4828 771.509,-17.6131"/>
</g>
</g>
</svg>
