<?xml version="1.0" encoding="UTF-8" standalone="no"?>
<!DOCTYPE svg PUBLIC "-//W3C//DTD SVG 1.1//EN"
 "http://www.w3.org/Graphics/SVG/1.1/DTD/svg11.dtd">
<!-- Generated by graphviz version 2.38.0 (20140413.2041)
 -->
<!-- Title: Modules/MFT/include/MFT/BasicTrackQcTask.h Pages: 1 -->
<!--zoomable 274 -->
<svg id="main" version="1.1" xmlns="http://www.w3.org/2000/svg" xmlns:xlink="http://www.w3.org/1999/xlink" xml:space="preserve" onload="init(evt)">
<style type="text/css"><![CDATA[
.edge:hover path { stroke: red; }
.edge:hover polygon { stroke: red; fill: red; }
]]></style>
<script type="text/javascript"><![CDATA[
var edges = document.getElementsByTagName('g');
if (edges && edges.length) {
  for (var i=0;i<edges.length;i++) {
    if (edges[i].id.substr(0,4)=='edge') {
      edges[i].setAttribute('class','edge');
    }
  }
}
]]></script>
        <defs>
                <circle id="rim" cx="0" cy="0" r="7"/>
                <circle id="rim2" cx="0" cy="0" r="3.5"/>
                <g id="zoomPlus">
                        <use xlink:href="#rim" fill="#404040">
                                <set attributeName="fill" to="#808080" begin="zoomplus.mouseover" end="zoomplus.mouseout"/>
                        </use>
                        <path d="M-4,0h8M0,-4v8" fill="none" stroke="white" stroke-width="1.5" pointer-events="none"/>
                </g>
                <g id="zoomMin">
                        <use xlink:href="#rim" fill="#404040">
                                <set attributeName="fill" to="#808080" begin="zoomminus.mouseover" end="zoomminus.mouseout"/>
                        </use>
                        <path d="M-4,0h8" fill="none" stroke="white" stroke-width="1.5" pointer-events="none"/>
                </g>
                <g id="dirArrow">
                        <path fill="none" stroke="white" stroke-width="1.5" d="M0,-3.0v7 M-2.5,-0.5L0,-3.0L2.5,-0.5"/>
                </g>
               <g id="resetDef">
                       <use xlink:href="#rim2" fill="#404040">
                               <set attributeName="fill" to="#808080" begin="reset.mouseover" end="reset.mouseout"/>
                       </use>
               </g>
        </defs>

<script type="text/javascript">
var viewWidth = 1632;
var viewHeight = 274;
var sectionId = 'dynsection-0';
</script>
<script xlink:href="svgpan.js"/>
<svg id="graph" class="graph">
<g id="viewport">
<title>Modules/MFT/include/MFT/BasicTrackQcTask.h</title>
<!-- Node1 -->
<g id="node1" class="node"><title>Node1</title>
<polygon fill="#bfbfbf" stroke="black" points="614,-235.5 614,-265.5 749,-265.5 749,-235.5 614,-235.5"/>
<text text-anchor="start" x="622" y="-253.5" font-family="Helvetica,sans-Serif" font-size="10.00">Modules/MFT/include</text>
<text text-anchor="middle" x="681.5" y="-242.5" font-family="Helvetica,sans-Serif" font-size="10.00">/MFT/BasicTrackQcTask.h</text>
</g>
<!-- Node2 -->
<g id="node2" class="node"><title>Node2</title>
<polygon fill="none" stroke="#bfbfbf" points="545,-179.5 545,-198.5 610,-198.5 610,-179.5 545,-179.5"/>
<text text-anchor="middle" x="577.5" y="-186.5" font-family="Helvetica,sans-Serif" font-size="10.00">TCanvas.h</text>
</g>
<!-- Node1&#45;&gt;Node2 -->
<g id="edge1" class="edge"><title>Node1&#45;&gt;Node2</title>
<path fill="none" stroke="midnightblue" d="M656.853,-235.399C640.183,-225.862 618.269,-213.325 601.695,-203.842"/>
<polygon fill="midnightblue" stroke="midnightblue" points="603.051,-200.586 592.633,-198.658 599.575,-206.662 603.051,-200.586"/>
</g>
<!-- Node3 -->
<g id="node3" class="node"><title>Node3</title>
<polygon fill="none" stroke="#bfbfbf" points="628.5,-179.5 628.5,-198.5 672.5,-198.5 672.5,-179.5 628.5,-179.5"/>
<text text-anchor="middle" x="650.5" y="-186.5" font-family="Helvetica,sans-Serif" font-size="10.00">TH1.h</text>
</g>
<!-- Node1&#45;&gt;Node3 -->
<g id="edge2" class="edge"><title>Node1&#45;&gt;Node3</title>
<path fill="none" stroke="midnightblue" d="M674.153,-235.399C669.835,-227.11 664.335,-216.554 659.726,-207.708"/>
<polygon fill="midnightblue" stroke="midnightblue" points="662.735,-205.909 655.011,-198.658 656.527,-209.144 662.735,-205.909"/>
</g>
<!-- Node4 -->
<g id="node4" class="node"><title>Node4</title>
<polygon fill="none" stroke="#bfbfbf" points="690.5,-179.5 690.5,-198.5 734.5,-198.5 734.5,-179.5 690.5,-179.5"/>
<text text-anchor="middle" x="712.5" y="-186.5" font-family="Helvetica,sans-Serif" font-size="10.00">TH2.h</text>
</g>
<!-- Node1&#45;&gt;Node4 -->
<g id="edge3" class="edge"><title>Node1&#45;&gt;Node4</title>
<path fill="none" stroke="midnightblue" d="M688.847,-235.399C693.165,-227.11 698.665,-216.554 703.274,-207.708"/>
<polygon fill="midnightblue" stroke="midnightblue" points="706.473,-209.144 707.989,-198.658 700.265,-205.909 706.473,-209.144"/>
</g>
<!-- Node5 -->
<g id="node5" class="node"><title>Node5</title>
<g id="a_node5"><a xlink:href="TaskInterface_8h.html" target="_top" xlink:title="QualityControl/TaskInterface.h">
<polygon fill="none" stroke="black" points="752.5,-179.5 752.5,-198.5 902.5,-198.5 902.5,-179.5 752.5,-179.5"/>
<text text-anchor="middle" x="827.5" y="-186.5" font-family="Helvetica,sans-Serif" font-size="10.00">QualityControl/TaskInterface.h</text>
</a>
</g>
</g>
<!-- Node1&#45;&gt;Node5 -->
<g id="edge4" class="edge"><title>Node1&#45;&gt;Node5</title>
<path fill="none" stroke="midnightblue" d="M716.1,-235.399C740.596,-225.416 773.157,-212.147 796.745,-202.534"/>
<polygon fill="midnightblue" stroke="midnightblue" points="798.316,-205.673 806.256,-198.658 795.674,-199.191 798.316,-205.673"/>
</g>
<!-- Node6 -->
<g id="node6" class="node"><title>Node6</title>
<polygon fill="none" stroke="#bfbfbf" points="0,-0.5 0,-19.5 35,-19.5 35,-0.5 0,-0.5"/>
<text text-anchor="middle" x="17.5" y="-7.5" font-family="Helvetica,sans-Serif" font-size="10.00">map</text>
</g>
<!-- Node5&#45;&gt;Node6 -->
<g id="edge5" class="edge"><title>Node5&#45;&gt;Node6</title>
<path fill="none" stroke="midnightblue" d="M752.396,-179.932C749.392,-179.616 746.418,-179.304 743.5,-179 469.49,-150.428 383.935,-195.02 130.5,-87 93.7982,-71.3568 56.3821,-43.3136 35.1409,-26.0153"/>
<polygon fill="midnightblue" stroke="midnightblue" points="37.2591,-23.225 27.3265,-19.5378 32.7918,-28.6142 37.2591,-23.225"/>
</g>
<!-- Node7 -->
<g id="node7" class="node"><title>Node7</title>
<polygon fill="none" stroke="#bfbfbf" points="705.5,-62 705.5,-81 757.5,-81 757.5,-62 705.5,-62"/>
<text text-anchor="middle" x="731.5" y="-69" font-family="Helvetica,sans-Serif" font-size="10.00">memory</text>
</g>
<!-- Node5&#45;&gt;Node7 -->
<g id="edge6" class="edge"><title>Node5&#45;&gt;Node7</title>
<path fill="none" stroke="midnightblue" d="M812.408,-179.41C799.255,-171.338 780.33,-158.241 767.5,-143 754.253,-127.264 744.191,-105.83 738.117,-90.7392"/>
<polygon fill="midnightblue" stroke="midnightblue" points="741.251,-89.1353 734.411,-81.0444 734.712,-91.6349 741.251,-89.1353"/>
</g>
<!-- Node8 -->
<g id="node8" class="node"><title>Node8</title>
<polygon fill="none" stroke="#bfbfbf" points="339,-0.5 339,-19.5 380,-19.5 380,-0.5 339,-0.5"/>
<text text-anchor="middle" x="359.5" y="-7.5" font-family="Helvetica,sans-Serif" font-size="10.00">string</text>
</g>
<!-- Node5&#45;&gt;Node8 -->
<g id="edge7" class="edge"><title>Node5&#45;&gt;Node8</title>
<path fill="none" stroke="midnightblue" d="M752.439,-179.587C643.231,-167.287 452.659,-145.57 445.5,-143 402.219,-127.466 380.523,-127.367 358.5,-87 348.846,-69.3058 351.069,-45.6691 354.432,-29.4811"/>
<polygon fill="midnightblue" stroke="midnightblue" points="357.866,-30.1707 356.811,-19.6286 351.062,-28.5279 357.866,-30.1707"/>
</g>
<!-- Node9 -->
<g id="node9" class="node"><title>Node9</title>
<polygon fill="none" stroke="#bfbfbf" points="423,-0.5 423,-19.5 506,-19.5 506,-0.5 423,-0.5"/>
<text text-anchor="middle" x="464.5" y="-7.5" font-family="Helvetica,sans-Serif" font-size="10.00">unordered_map</text>
</g>
<!-- Node5&#45;&gt;Node9 -->
<g id="edge8" class="edge"><title>Node5&#45;&gt;Node9</title>
<path fill="none" stroke="midnightblue" d="M821.668,-179.282C815.866,-170.392 806.926,-156.085 800.5,-143 782.2,-105.736 798.96,-81.8801 766.5,-56 761.633,-52.1199 601.276,-29.7011 516.259,-18.0419"/>
<polygon fill="midnightblue" stroke="midnightblue" points="516.663,-14.5646 506.28,-16.6754 515.713,-21.4999 516.663,-14.5646"/>
</g>
<!-- Node10 -->
<g id="node10" class="node"><title>Node10</title>
<polygon fill="none" stroke="#bfbfbf" points="810,-123.5 810,-142.5 935,-142.5 935,-123.5 810,-123.5"/>
<text text-anchor="middle" x="872.5" y="-130.5" font-family="Helvetica,sans-Serif" font-size="10.00">Framework/InitContext.h</text>
</g>
<!-- Node5&#45;&gt;Node10 -->
<g id="edge9" class="edge"><title>Node5&#45;&gt;Node10</title>
<path fill="none" stroke="midnightblue" d="M834.931,-179.083C841.353,-171.377 850.806,-160.033 858.622,-150.653"/>
<polygon fill="midnightblue" stroke="midnightblue" points="861.494,-152.674 865.207,-142.751 856.117,-148.193 861.494,-152.674"/>
</g>
<!-- Node11 -->
<g id="node11" class="node"><title>Node11</title>
<polygon fill="none" stroke="#bfbfbf" points="953.5,-123.5 953.5,-142.5 1113.5,-142.5 1113.5,-123.5 953.5,-123.5"/>
<text text-anchor="middle" x="1033.5" y="-130.5" font-family="Helvetica,sans-Serif" font-size="10.00">Framework/ProcessingContext.h</text>
</g>
<!-- Node5&#45;&gt;Node11 -->
<g id="edge10" class="edge"><title>Node5&#45;&gt;Node11</title>
<path fill="none" stroke="midnightblue" d="M860.141,-179.444C895.55,-170.162 952.209,-155.309 991.053,-145.127"/>
<polygon fill="midnightblue" stroke="midnightblue" points="992.226,-148.438 1001.01,-142.516 990.451,-141.667 992.226,-148.438"/>
</g>
<!-- Node12 -->
<g id="node12" class="node"><title>Node12</title>
<polygon fill="none" stroke="#bfbfbf" points="1132,-123.5 1132,-142.5 1227,-142.5 1227,-123.5 1132,-123.5"/>
<text text-anchor="middle" x="1179.5" y="-130.5" font-family="Helvetica,sans-Serif" font-size="10.00">CCDB/CcdbApi.h</text>
</g>
<!-- Node5&#45;&gt;Node12 -->
<g id="edge11" class="edge"><title>Node5&#45;&gt;Node12</title>
<path fill="none" stroke="midnightblue" d="M884.067,-179.461C941.315,-170.799 1032.67,-156.921 1121.89,-143.087"/>
<polygon fill="midnightblue" stroke="midnightblue" points="1122.57,-146.524 1131.92,-141.532 1121.5,-139.607 1122.57,-146.524"/>
</g>
<!-- Node13 -->
<g id="node13" class="node"><title>Node13</title>
<g id="a_node13"><a xlink:href="Activity_8h.html" target="_top" xlink:title="QualityControl/Activity.h">
<polygon fill="none" stroke="black" points="1245,-123.5 1245,-142.5 1368,-142.5 1368,-123.5 1245,-123.5"/>
<text text-anchor="middle" x="1306.5" y="-130.5" font-family="Helvetica,sans-Serif" font-size="10.00">QualityControl/Activity.h</text>
</a>
</g>
</g>
<!-- Node5&#45;&gt;Node13 -->
<g id="edge12" class="edge"><title>Node5&#45;&gt;Node13</title>
<path fill="none" stroke="midnightblue" d="M902.74,-180.071C982.48,-171.584 1112.37,-157.521 1234.99,-143.043"/>
<polygon fill="midnightblue" stroke="midnightblue" points="1235.41,-146.517 1244.93,-141.866 1234.59,-139.566 1235.41,-146.517"/>
</g>
<!-- Node14 -->
<g id="node14" class="node"><title>Node14</title>
<g id="a_node14"><a xlink:href="ObjectsManager_8h.html" target="_top" xlink:title="QualityControl/ObjectsManager.h">
<polygon fill="none" stroke="black" points="455,-123.5 455,-142.5 616,-142.5 616,-123.5 455,-123.5"/>
<text text-anchor="middle" x="535.5" y="-130.5" font-family="Helvetica,sans-Serif" font-size="10.00">QualityControl/ObjectsManager.h</text>
</a>
</g>
</g>
<!-- Node5&#45;&gt;Node14 -->
<g id="edge13" class="edge"><title>Node5&#45;&gt;Node14</title>
<path fill="none" stroke="midnightblue" d="M781.232,-179.444C729.759,-169.925 646.607,-154.547 591.501,-144.356"/>
<polygon fill="midnightblue" stroke="midnightblue" points="592.022,-140.893 581.552,-142.516 590.749,-147.777 592.022,-140.893"/>
</g>
<!-- Node23 -->
<g id="node23" class="node"><title>Node23</title>
<g id="a_node23"><a xlink:href="QcInfoLogger_8h.html" target="_top" xlink:title="QualityControl/QcInfoLogger.h">
<polygon fill="none" stroke="black" points="1386,-123.5 1386,-142.5 1535,-142.5 1535,-123.5 1386,-123.5"/>
<text text-anchor="middle" x="1460.5" y="-130.5" font-family="Helvetica,sans-Serif" font-size="10.00">QualityControl/QcInfoLogger.h</text>
</a>
</g>
</g>
<!-- Node5&#45;&gt;Node23 -->
<g id="edge28" class="edge"><title>Node5&#45;&gt;Node23</title>
<path fill="none" stroke="midnightblue" d="M902.729,-182.476C1006.69,-174.702 1200.42,-159.709 1375.67,-143.154"/>
<polygon fill="midnightblue" stroke="midnightblue" points="1376.23,-146.617 1385.85,-142.188 1375.57,-139.648 1376.23,-146.617"/>
</g>
<!-- Node14&#45;&gt;Node7 -->
<g id="edge27" class="edge"><title>Node14&#45;&gt;Node7</title>
<path fill="none" stroke="midnightblue" d="M569.851,-123.494C602.478,-115.144 652.756,-101.571 695.5,-87 697.625,-86.2758 699.806,-85.4945 701.993,-84.6833"/>
<polygon fill="midnightblue" stroke="midnightblue" points="703.399,-87.8921 711.462,-81.0193 700.873,-81.3637 703.399,-87.8921"/>
</g>
<!-- Node14&#45;&gt;Node8 -->
<g id="edge26" class="edge"><title>Node14&#45;&gt;Node8</title>
<path fill="none" stroke="midnightblue" d="M454.762,-125.997C426.509,-119.946 396.804,-108.469 376.5,-87 362.083,-71.7557 358.898,-47.0651 358.625,-29.983"/>
<polygon fill="midnightblue" stroke="midnightblue" points="362.131,-29.6393 358.799,-19.582 355.132,-29.5219 362.131,-29.6393"/>
</g>
<!-- Node15 -->
<g id="node15" class="node"><title>Node15</title>
<g id="a_node15"><a xlink:href="MonitorObject_8h.html" target="_top" xlink:title="QualityControl/MonitorObject.h">
<polygon fill="none" stroke="black" points="140,-62 140,-81 291,-81 291,-62 140,-62"/>
<text text-anchor="middle" x="215.5" y="-69" font-family="Helvetica,sans-Serif" font-size="10.00">QualityControl/MonitorObject.h</text>
</a>
</g>
</g>
<!-- Node14&#45;&gt;Node15 -->
<g id="edge14" class="edge"><title>Node14&#45;&gt;Node15</title>
<path fill="none" stroke="midnightblue" d="M489.652,-123.475C432.028,-112.761 333.185,-94.3821 271.25,-82.8661"/>
<polygon fill="midnightblue" stroke="midnightblue" points="271.734,-79.3962 261.263,-81.0091 270.455,-86.2782 271.734,-79.3962"/>
</g>
<!-- Node19 -->
<g id="node19" class="node"><title>Node19</title>
<g id="a_node19"><a xlink:href="MonitorObjectCollection_8h.html" target="_top" xlink:title="QualityControl/MonitorObject\lCollection.h">
<polygon fill="none" stroke="black" points="544,-56.5 544,-86.5 687,-86.5 687,-56.5 544,-56.5"/>
<text text-anchor="start" x="552" y="-74.5" font-family="Helvetica,sans-Serif" font-size="10.00">QualityControl/MonitorObject</text>
<text text-anchor="middle" x="615.5" y="-63.5" font-family="Helvetica,sans-Serif" font-size="10.00">Collection.h</text>
</a>
</g>
</g>
<!-- Node14&#45;&gt;Node19 -->
<g id="edge20" class="edge"><title>Node14&#45;&gt;Node19</title>
<path fill="none" stroke="midnightblue" d="M546.962,-123.475C557.696,-115.492 574.15,-103.254 588.246,-92.7703"/>
<polygon fill="midnightblue" stroke="midnightblue" points="590.71,-95.2993 596.646,-86.523 586.533,-89.6825 590.71,-95.2993"/>
</g>
<!-- Node22 -->
<g id="node22" class="node"><title>Node22</title>
<g id="a_node22"><a xlink:href="TaskConfig_8h.html" target="_top" xlink:title="QualityControl/TaskConfig.h">
<polygon fill="none" stroke="black" points="385.5,-62 385.5,-81 525.5,-81 525.5,-62 385.5,-62"/>
<text text-anchor="middle" x="455.5" y="-69" font-family="Helvetica,sans-Serif" font-size="10.00">QualityControl/TaskConfig.h</text>
</a>
</g>
</g>
<!-- Node14&#45;&gt;Node22 -->
<g id="edge23" class="edge"><title>Node14&#45;&gt;Node22</title>
<path fill="none" stroke="midnightblue" d="M524.038,-123.475C511.325,-114.02 490.587,-98.5961 475.247,-87.1871"/>
<polygon fill="midnightblue" stroke="midnightblue" points="477.054,-84.1686 466.941,-81.0091 472.876,-89.7854 477.054,-84.1686"/>
</g>
<!-- Node15&#45;&gt;Node6 -->
<g id="edge16" class="edge"><title>Node15&#45;&gt;Node6</title>
<path fill="none" stroke="midnightblue" d="M185.442,-61.9639C153.087,-52.7009 99.8941,-37.2578 44.7726,-20.0056"/>
<polygon fill="midnightblue" stroke="midnightblue" points="45.7797,-16.6534 35.1903,-16.9941 43.6809,-23.3313 45.7797,-16.6534"/>
</g>
<!-- Node15&#45;&gt;Node8 -->
<g id="edge15" class="edge"><title>Node15&#45;&gt;Node8</title>
<path fill="none" stroke="midnightblue" d="M236.132,-61.9751C260.619,-51.8571 301.647,-34.9046 329.609,-23.3507"/>
<polygon fill="midnightblue" stroke="midnightblue" points="331.001,-26.5627 338.907,-19.5091 328.328,-20.0932 331.001,-26.5627"/>
</g>
<!-- Node16 -->
<g id="node16" class="node"><title>Node16</title>
<polygon fill="none" stroke="#bfbfbf" points="187.5,-0.5 187.5,-19.5 243.5,-19.5 243.5,-0.5 187.5,-0.5"/>
<text text-anchor="middle" x="215.5" y="-7.5" font-family="Helvetica,sans-Serif" font-size="10.00">Rtypes.h</text>
</g>
<!-- Node15&#45;&gt;Node16 -->
<g id="edge17" class="edge"><title>Node15&#45;&gt;Node16</title>
<path fill="none" stroke="midnightblue" d="M215.5,-61.9751C215.5,-53.5803 215.5,-40.4806 215.5,-29.6631"/>
<polygon fill="midnightblue" stroke="midnightblue" points="219,-29.5091 215.5,-19.5091 212,-29.5091 219,-29.5091"/>
</g>
<!-- Node17 -->
<g id="node17" class="node"><title>Node17</title>
<polygon fill="none" stroke="#bfbfbf" points="262,-0.5 262,-19.5 321,-19.5 321,-0.5 262,-0.5"/>
<text text-anchor="middle" x="291.5" y="-7.5" font-family="Helvetica,sans-Serif" font-size="10.00">TObject.h</text>
</g>
<!-- Node15&#45;&gt;Node17 -->
<g id="edge18" class="edge"><title>Node15&#45;&gt;Node17</title>
<path fill="none" stroke="midnightblue" d="M226.389,-61.9751C238.466,-52.5199 258.167,-37.0961 272.74,-25.6871"/>
<polygon fill="midnightblue" stroke="midnightblue" points="274.915,-28.4295 280.631,-19.5091 270.6,-22.9177 274.915,-28.4295"/>
</g>
<!-- Node18 -->
<g id="node18" class="node"><title>Node18</title>
<polygon fill="none" stroke="#bfbfbf" points="53.5,-0.5 53.5,-19.5 169.5,-19.5 169.5,-0.5 53.5,-0.5"/>
<text text-anchor="middle" x="111.5" y="-7.5" font-family="Helvetica,sans-Serif" font-size="10.00">Common/Exceptions.h</text>
</g>
<!-- Node15&#45;&gt;Node18 -->
<g id="edge19" class="edge"><title>Node15&#45;&gt;Node18</title>
<path fill="none" stroke="midnightblue" d="M200.599,-61.9751C183.532,-52.2106 155.339,-36.0807 135.238,-24.5808"/>
<polygon fill="midnightblue" stroke="midnightblue" points="136.791,-21.4371 126.373,-19.5091 133.315,-27.513 136.791,-21.4371"/>
</g>
<!-- Node20 -->
<g id="node20" class="node"><title>Node20</title>
<polygon fill="none" stroke="#bfbfbf" points="689,-0.5 689,-19.5 758,-19.5 758,-0.5 689,-0.5"/>
<text text-anchor="middle" x="723.5" y="-7.5" font-family="Helvetica,sans-Serif" font-size="10.00">TObjArray.h</text>
</g>
<!-- Node19&#45;&gt;Node20 -->
<g id="edge21" class="edge"><title>Node19&#45;&gt;Node20</title>
<path fill="none" stroke="midnightblue" d="M641.094,-56.3993C658.568,-46.7728 681.588,-34.0902 698.856,-24.5772"/>
<polygon fill="midnightblue" stroke="midnightblue" points="700.715,-27.5488 707.785,-19.6578 697.337,-21.4177 700.715,-27.5488"/>
</g>
<!-- Node21 -->
<g id="node21" class="node"><title>Node21</title>
<polygon fill="none" stroke="#bfbfbf" points="542.5,-0.5 542.5,-19.5 670.5,-19.5 670.5,-0.5 542.5,-0.5"/>
<text text-anchor="middle" x="606.5" y="-7.5" font-family="Helvetica,sans-Serif" font-size="10.00">Mergers/MergeInterface.h</text>
</g>
<!-- Node19&#45;&gt;Node21 -->
<g id="edge22" class="edge"><title>Node19&#45;&gt;Node21</title>
<path fill="none" stroke="midnightblue" d="M613.367,-56.3993C612.154,-48.3772 610.619,-38.2328 609.309,-29.569"/>
<polygon fill="midnightblue" stroke="midnightblue" points="612.766,-29.0218 607.81,-19.6578 605.845,-30.0688 612.766,-29.0218"/>
</g>
<!-- Node22&#45;&gt;Node8 -->
<g id="edge24" class="edge"><title>Node22&#45;&gt;Node8</title>
<path fill="none" stroke="midnightblue" d="M441.746,-61.9751C426.134,-52.2989 400.437,-36.3721 381.917,-24.8941"/>
<polygon fill="midnightblue" stroke="midnightblue" points="383.573,-21.8023 373.229,-19.5091 379.885,-27.7522 383.573,-21.8023"/>
</g>
<!-- Node22&#45;&gt;Node9 -->
<g id="edge25" class="edge"><title>Node22&#45;&gt;Node9</title>
<path fill="none" stroke="midnightblue" d="M456.789,-61.9751C458.059,-53.5803 460.041,-40.4806 461.677,-29.6631"/>
<polygon fill="midnightblue" stroke="midnightblue" points="465.178,-29.9201 463.213,-19.5091 458.257,-28.8731 465.178,-29.9201"/>
</g>
<!-- Node24 -->
<g id="node24" class="node"><title>Node24</title>
<polygon fill="none" stroke="#bfbfbf" points="1313.5,-62 1313.5,-81 1443.5,-81 1443.5,-62 1313.5,-62"/>
<text text-anchor="middle" x="1378.5" y="-69" font-family="Helvetica,sans-Serif" font-size="10.00">InfoLogger/InfoLogger.hxx</text>
</g>
<!-- Node23&#45;&gt;Node24 -->
<g id="edge29" class="edge"><title>Node23&#45;&gt;Node24</title>
<path fill="none" stroke="midnightblue" d="M1448.75,-123.475C1435.72,-114.02 1414.46,-98.5961 1398.74,-87.1871"/>
<polygon fill="midnightblue" stroke="midnightblue" points="1400.38,-84.0492 1390.23,-81.0091 1396.27,-89.7149 1400.38,-84.0492"/>
</g>
<!-- Node25 -->
<g id="node25" class="node"><title>Node25</title>
<polygon fill="none" stroke="#bfbfbf" points="1461.5,-62 1461.5,-81 1623.5,-81 1623.5,-62 1461.5,-62"/>
<text text-anchor="middle" x="1542.5" y="-69" font-family="Helvetica,sans-Serif" font-size="10.00">InfoLogger/InfoLoggerMacros.hxx</text>
</g>
<!-- Node23&#45;&gt;Node25 -->
<g id="edge30" class="edge"><title>Node23&#45;&gt;Node25</title>
<path fill="none" stroke="midnightblue" d="M1472.25,-123.475C1485.28,-114.02 1506.54,-98.5961 1522.26,-87.1871"/>
<polygon fill="midnightblue" stroke="midnightblue" points="1524.73,-89.7149 1530.77,-81.0091 1520.62,-84.0492 1524.73,-89.7149"/>
</g>
</g>
</svg>
        <g id="navigator" transform="translate(0 0)" fill="#404254">
                <rect fill="#f2f5e9" fill-opacity="0.5" stroke="#606060" stroke-width=".5" x="0" y="0" width="60" height="60"/>
                <use id="zoomplus" xlink:href="#zoomPlus" x="17" y="9" onmousedown="handleZoom(evt,'in')"/>
                <use id="zoomminus" xlink:href="#zoomMin" x="42" y="9" onmousedown="handleZoom(evt,'out')"/>
                <use id="reset" xlink:href="#resetDef" x="30" y="36" onmousedown="handleReset()"/>
                <g id="arrowUp" xlink:href="#dirArrow" transform="translate(30 24)" onmousedown="handlePan(0,-1)">
                  <use xlink:href="#rim" fill="#404040">
                        <set attributeName="fill" to="#808080" begin="arrowUp.mouseover" end="arrowUp.mouseout"/>
                  </use>
                  <path fill="none" stroke="white" stroke-width="1.5" d="M0,-3.0v7 M-2.5,-0.5L0,-3.0L2.5,-0.5"/>
                </g>
                <g id="arrowRight" xlink:href="#dirArrow" transform="rotate(90) translate(36 -43)" onmousedown="handlePan(1,0)">
                  <use xlink:href="#rim" fill="#404040">
                        <set attributeName="fill" to="#808080" begin="arrowRight.mouseover" end="arrowRight.mouseout"/>
                  </use>
                  <path fill="none" stroke="white" stroke-width="1.5" d="M0,-3.0v7 M-2.5,-0.5L0,-3.0L2.5,-0.5"/>
                </g>
                <g id="arrowDown" xlink:href="#dirArrow" transform="rotate(180) translate(-30 -48)" onmousedown="handlePan(0,1)">
                  <use xlink:href="#rim" fill="#404040">
                        <set attributeName="fill" to="#808080" begin="arrowDown.mouseover" end="arrowDown.mouseout"/>
                  </use>
                  <path fill="none" stroke="white" stroke-width="1.5" d="M0,-3.0v7 M-2.5,-0.5L0,-3.0L2.5,-0.5"/>
                </g>
                <g id="arrowLeft" xlink:href="#dirArrow" transform="rotate(270) translate(-36 17)" onmousedown="handlePan(-1,0)">
                  <use xlink:href="#rim" fill="#404040">
                        <set attributeName="fill" to="#808080" begin="arrowLeft.mouseover" end="arrowLeft.mouseout"/>
                  </use>
                  <path fill="none" stroke="white" stroke-width="1.5" d="M0,-3.0v7 M-2.5,-0.5L0,-3.0L2.5,-0.5"/>
                </g>
        </g>
        <svg viewBox="0 0 15 15" width="100%" height="30px" preserveAspectRatio="xMaxYMin meet">
         <g id="arrow_out" transform="scale(0.3 0.3)">
          <a xlink:href="BasicTrackQcTask_8h__incl_org.svg" target="_base">
           <rect id="button" ry="5" rx="5" y="6" x="6" height="38" width="38"
                fill="#f2f5e9" fill-opacity="0.5" stroke="#606060" stroke-width="1.0"/>
           <path id="arrow"
             d="M 11.500037,31.436501 C 11.940474,20.09759 22.043105,11.32322 32.158766,21.979434 L 37.068811,17.246167 C 37.068811,17.246167 37.088388,32 37.088388,32 L 22.160133,31.978069 C 22.160133,31.978069 26.997745,27.140456 26.997745,27.140456 C 18.528582,18.264221 13.291696,25.230495 11.500037,31.436501 z"
             style="fill:#404040;"/>
          </a>
         </g>
        </svg>
</svg>
