<?xml version="1.0" encoding="UTF-8" standalone="no"?>
<!DOCTYPE svg PUBLIC "-//W3C//DTD SVG 1.1//EN"
 "http://www.w3.org/Graphics/SVG/1.1/DTD/svg11.dtd">
<!-- Generated by graphviz version 2.38.0 (20140413.2041)
 -->
<!-- Title: Modules/Example/include/Example/BenchmarkTask.h Pages: 1 -->
<svg width="1099pt" height="274pt"
 viewBox="0.00 0.00 1098.96 274.00" xmlns="http://www.w3.org/2000/svg" xmlns:xlink="http://www.w3.org/1999/xlink">
<g id="graph0" class="graph" transform="scale(1 1) rotate(0) translate(4 270)">
<title>Modules/Example/include/Example/BenchmarkTask.h</title>
<!-- Node1 -->
<g id="node1" class="node"><title>Node1</title>
<polygon fill="#bfbfbf" stroke="black" points="160.803,-235.5 160.803,-265.5 300.803,-265.5 300.803,-235.5 160.803,-235.5"/>
<text text-anchor="start" x="168.803" y="-253.5" font-family="Helvetica,sans-Serif" font-size="10.00">Modules/Example/include</text>
<text text-anchor="middle" x="230.803" y="-242.5" font-family="Helvetica,sans-Serif" font-size="10.00">/Example/BenchmarkTask.h</text>
</g>
<!-- Node2 -->
<g id="node2" class="node"><title>Node2</title>
<g id="a_node2"><a xlink:href="TaskInterface_8h.html" target="_top" xlink:title="QualityControl/TaskInterface.h">
<polygon fill="none" stroke="black" points="368.803,-179.5 368.803,-198.5 518.803,-198.5 518.803,-179.5 368.803,-179.5"/>
<text text-anchor="middle" x="443.803" y="-186.5" font-family="Helvetica,sans-Serif" font-size="10.00">QualityControl/TaskInterface.h</text>
</a>
</g>
</g>
<!-- Node1&#45;&gt;Node2 -->
<g id="edge1" class="edge"><title>Node1&#45;&gt;Node2</title>
<path fill="none" stroke="midnightblue" d="M281.011,-235.475C318.4,-225.03 368.778,-210.958 403.541,-201.247"/>
<polygon fill="midnightblue" stroke="midnightblue" points="404.662,-204.568 413.352,-198.506 402.779,-197.826 404.662,-204.568"/>
</g>
<!-- Node4 -->
<g id="node4" class="node"><title>Node4</title>
<polygon fill="none" stroke="#bfbfbf" points="13.803,-62 13.803,-81 65.803,-81 65.803,-62 13.803,-62"/>
<text text-anchor="middle" x="39.803" y="-69" font-family="Helvetica,sans-Serif" font-size="10.00">memory</text>
</g>
<!-- Node1&#45;&gt;Node4 -->
<g id="edge29" class="edge"><title>Node1&#45;&gt;Node4</title>
<path fill="none" stroke="midnightblue" d="M191.288,-235.431C151.581,-219.254 91.5668,-188.875 57.803,-143 46.7046,-127.921 42.4237,-106.67 40.7864,-91.4485"/>
<polygon fill="midnightblue" stroke="midnightblue" points="44.2527,-90.8815 39.9805,-81.1862 37.2742,-91.4296 44.2527,-90.8815"/>
</g>
<!-- Node5 -->
<g id="node5" class="node"><title>Node5</title>
<polygon fill="none" stroke="#bfbfbf" points="117.303,-0.5 117.303,-19.5 158.303,-19.5 158.303,-0.5 117.303,-0.5"/>
<text text-anchor="middle" x="137.803" y="-7.5" font-family="Helvetica,sans-Serif" font-size="10.00">string</text>
</g>
<!-- Node1&#45;&gt;Node5 -->
<g id="edge30" class="edge"><title>Node1&#45;&gt;Node5</title>
<path fill="none" stroke="midnightblue" d="M169.755,-235.456C143.579,-227.529 113.614,-215.767 89.803,-199 38.7097,-163.021 23.5183,-146.621 4.80297,-87 0.676605,-73.8546 -3.22784,-67.1952 4.80297,-56 27.9721,-23.7014 75.5883,-14.2915 107.106,-11.7159"/>
<polygon fill="midnightblue" stroke="midnightblue" points="107.361,-15.2069 117.12,-11.0813 106.918,-8.22091 107.361,-15.2069"/>
</g>
<!-- Node23 -->
<g id="node23" class="node"><title>Node23</title>
<polygon fill="none" stroke="#bfbfbf" points="536.803,-179.5 536.803,-198.5 580.803,-198.5 580.803,-179.5 536.803,-179.5"/>
<text text-anchor="middle" x="558.803" y="-186.5" font-family="Helvetica,sans-Serif" font-size="10.00">vector</text>
</g>
<!-- Node1&#45;&gt;Node23 -->
<g id="edge28" class="edge"><title>Node1&#45;&gt;Node23</title>
<path fill="none" stroke="midnightblue" d="M300.859,-239.894C359.023,-231.391 444.05,-217.746 526.724,-199.041"/>
<polygon fill="midnightblue" stroke="midnightblue" points="527.565,-202.439 536.532,-196.796 526.003,-195.616 527.565,-202.439"/>
</g>
<!-- Node3 -->
<g id="node3" class="node"><title>Node3</title>
<polygon fill="none" stroke="#bfbfbf" points="953.303,-0.5 953.303,-19.5 988.303,-19.5 988.303,-0.5 953.303,-0.5"/>
<text text-anchor="middle" x="970.803" y="-7.5" font-family="Helvetica,sans-Serif" font-size="10.00">map</text>
</g>
<!-- Node2&#45;&gt;Node3 -->
<g id="edge2" class="edge"><title>Node2&#45;&gt;Node3</title>
<path fill="none" stroke="midnightblue" d="M518.894,-179.801C521.902,-179.521 524.881,-179.253 527.803,-179 588.264,-173.766 1031.33,-187.304 1072.8,-143 1099.23,-114.772 1093.92,-88.3929 1072.8,-56 1056.51,-30.9996 1022.84,-19.7903 998.639,-14.8286"/>
<polygon fill="midnightblue" stroke="midnightblue" points="999.067,-11.3493 988.604,-13.0119 997.82,-18.2373 999.067,-11.3493"/>
</g>
<!-- Node2&#45;&gt;Node4 -->
<g id="edge3" class="edge"><title>Node2&#45;&gt;Node4</title>
<path fill="none" stroke="midnightblue" d="M368.67,-186.537C276.169,-183.416 125.672,-173.636 79.803,-143 61.5639,-130.818 50.7069,-107.337 45.0038,-90.8313"/>
<polygon fill="midnightblue" stroke="midnightblue" points="48.3088,-89.6733 41.9746,-81.1805 41.6301,-91.7697 48.3088,-89.6733"/>
</g>
<!-- Node2&#45;&gt;Node5 -->
<g id="edge4" class="edge"><title>Node2&#45;&gt;Node5</title>
<path fill="none" stroke="midnightblue" d="M368.583,-188.756C281.349,-187.836 145.322,-180.24 112.803,-143 84.3953,-110.469 110.162,-55.9383 126.596,-28.2528"/>
<polygon fill="midnightblue" stroke="midnightblue" points="129.628,-30.0046 131.915,-19.6597 123.676,-26.3202 129.628,-30.0046"/>
</g>
<!-- Node6 -->
<g id="node6" class="node"><title>Node6</title>
<polygon fill="none" stroke="#bfbfbf" points="200.303,-0.5 200.303,-19.5 283.303,-19.5 283.303,-0.5 200.303,-0.5"/>
<text text-anchor="middle" x="241.803" y="-7.5" font-family="Helvetica,sans-Serif" font-size="10.00">unordered_map</text>
</g>
<!-- Node2&#45;&gt;Node6 -->
<g id="edge5" class="edge"><title>Node2&#45;&gt;Node6</title>
<path fill="none" stroke="midnightblue" d="M518.908,-179.948C521.912,-179.628 524.886,-179.311 527.803,-179 603.946,-170.89 919.765,-179.245 867.803,-123 833.465,-85.8311 462.863,-99.4015 413.803,-87 358.205,-72.9458 297.924,-42.3955 265.563,-24.6047"/>
<polygon fill="midnightblue" stroke="midnightblue" points="267.267,-21.5472 256.828,-19.7373 263.86,-27.6621 267.267,-21.5472"/>
</g>
<!-- Node7 -->
<g id="node7" class="node"><title>Node7</title>
<polygon fill="none" stroke="#bfbfbf" points="301.303,-123.5 301.303,-142.5 426.303,-142.5 426.303,-123.5 301.303,-123.5"/>
<text text-anchor="middle" x="363.803" y="-130.5" font-family="Helvetica,sans-Serif" font-size="10.00">Framework/InitContext.h</text>
</g>
<!-- Node2&#45;&gt;Node7 -->
<g id="edge6" class="edge"><title>Node2&#45;&gt;Node7</title>
<path fill="none" stroke="midnightblue" d="M430.95,-179.324C418.587,-170.979 399.673,-158.212 385.066,-148.352"/>
<polygon fill="midnightblue" stroke="midnightblue" points="386.871,-145.348 376.624,-142.655 382.955,-151.15 386.871,-145.348"/>
</g>
<!-- Node8 -->
<g id="node8" class="node"><title>Node8</title>
<polygon fill="none" stroke="#bfbfbf" points="444.803,-123.5 444.803,-142.5 604.803,-142.5 604.803,-123.5 444.803,-123.5"/>
<text text-anchor="middle" x="524.803" y="-130.5" font-family="Helvetica,sans-Serif" font-size="10.00">Framework/ProcessingContext.h</text>
</g>
<!-- Node2&#45;&gt;Node8 -->
<g id="edge7" class="edge"><title>Node2&#45;&gt;Node8</title>
<path fill="none" stroke="midnightblue" d="M456.817,-179.324C469.335,-170.979 488.485,-158.212 503.274,-148.352"/>
<polygon fill="midnightblue" stroke="midnightblue" points="505.442,-151.114 511.821,-142.655 501.559,-145.289 505.442,-151.114"/>
</g>
<!-- Node9 -->
<g id="node9" class="node"><title>Node9</title>
<polygon fill="none" stroke="#bfbfbf" points="623.303,-123.5 623.303,-142.5 718.303,-142.5 718.303,-123.5 623.303,-123.5"/>
<text text-anchor="middle" x="670.803" y="-130.5" font-family="Helvetica,sans-Serif" font-size="10.00">CCDB/CcdbApi.h</text>
</g>
<!-- Node2&#45;&gt;Node9 -->
<g id="edge8" class="edge"><title>Node2&#45;&gt;Node9</title>
<path fill="none" stroke="midnightblue" d="M479.772,-179.444C519.122,-170.083 582.29,-155.056 625.117,-144.868"/>
<polygon fill="midnightblue" stroke="midnightblue" points="626.084,-148.236 635.002,-142.516 624.464,-141.426 626.084,-148.236"/>
</g>
<!-- Node10 -->
<g id="node10" class="node"><title>Node10</title>
<g id="a_node10"><a xlink:href="Activity_8h.html" target="_top" xlink:title="QualityControl/Activity.h">
<polygon fill="none" stroke="black" points="736.303,-123.5 736.303,-142.5 859.303,-142.5 859.303,-123.5 736.303,-123.5"/>
<text text-anchor="middle" x="797.803" y="-130.5" font-family="Helvetica,sans-Serif" font-size="10.00">QualityControl/Activity.h</text>
</a>
</g>
</g>
<!-- Node2&#45;&gt;Node10 -->
<g id="edge9" class="edge"><title>Node2&#45;&gt;Node10</title>
<path fill="none" stroke="midnightblue" d="M499.895,-179.444C562.944,-169.826 665.2,-154.228 731.979,-144.041"/>
<polygon fill="midnightblue" stroke="midnightblue" points="732.615,-147.484 741.973,-142.516 731.56,-140.565 732.615,-147.484"/>
</g>
<!-- Node11 -->
<g id="node11" class="node"><title>Node11</title>
<g id="a_node11"><a xlink:href="ObjectsManager_8h.html" target="_top" xlink:title="QualityControl/ObjectsManager.h">
<polygon fill="none" stroke="black" points="122.303,-123.5 122.303,-142.5 283.303,-142.5 283.303,-123.5 122.303,-123.5"/>
<text text-anchor="middle" x="202.803" y="-130.5" font-family="Helvetica,sans-Serif" font-size="10.00">QualityControl/ObjectsManager.h</text>
</a>
</g>
</g>
<!-- Node2&#45;&gt;Node11 -->
<g id="edge10" class="edge"><title>Node2&#45;&gt;Node11</title>
<path fill="none" stroke="midnightblue" d="M405.616,-179.444C363.662,-170.043 296.209,-154.929 250.732,-144.739"/>
<polygon fill="midnightblue" stroke="midnightblue" points="251.335,-141.288 240.811,-142.516 249.804,-148.118 251.335,-141.288"/>
</g>
<!-- Node20 -->
<g id="node20" class="node"><title>Node20</title>
<g id="a_node20"><a xlink:href="QcInfoLogger_8h.html" target="_top" xlink:title="QualityControl/QcInfoLogger.h">
<polygon fill="none" stroke="black" points="915.303,-123.5 915.303,-142.5 1064.3,-142.5 1064.3,-123.5 915.303,-123.5"/>
<text text-anchor="middle" x="989.803" y="-130.5" font-family="Helvetica,sans-Serif" font-size="10.00">QualityControl/QcInfoLogger.h</text>
</a>
</g>
</g>
<!-- Node2&#45;&gt;Node20 -->
<g id="edge25" class="edge"><title>Node2&#45;&gt;Node20</title>
<path fill="none" stroke="midnightblue" d="M518.905,-179.913C521.91,-179.602 524.885,-179.297 527.803,-179 693.937,-162.105 735.629,-159.495 901.803,-143 902.739,-142.907 903.681,-142.813 904.627,-142.719"/>
<polygon fill="midnightblue" stroke="midnightblue" points="905.312,-146.168 914.914,-141.69 904.615,-139.203 905.312,-146.168"/>
</g>
<!-- Node11&#45;&gt;Node4 -->
<g id="edge24" class="edge"><title>Node11&#45;&gt;Node4</title>
<path fill="none" stroke="midnightblue" d="M179.449,-123.475C151.489,-113.269 104.477,-96.108 72.8116,-84.5492"/>
<polygon fill="midnightblue" stroke="midnightblue" points="73.7075,-81.1503 63.1136,-81.0091 71.3071,-87.7259 73.7075,-81.1503"/>
</g>
<!-- Node11&#45;&gt;Node5 -->
<g id="edge23" class="edge"><title>Node11&#45;&gt;Node5</title>
<path fill="none" stroke="midnightblue" d="M190.791,-123.369C180.27,-115.178 165.362,-101.925 156.803,-87 146.567,-69.1516 141.794,-45.8577 139.602,-29.7873"/>
<polygon fill="midnightblue" stroke="midnightblue" points="143.043,-29.0763 138.42,-19.5432 136.089,-29.8784 143.043,-29.0763"/>
</g>
<!-- Node12 -->
<g id="node12" class="node"><title>Node12</title>
<g id="a_node12"><a xlink:href="MonitorObject_8h.html" target="_top" xlink:title="QualityControl/MonitorObject.h">
<polygon fill="none" stroke="black" points="584.303,-62 584.303,-81 735.303,-81 735.303,-62 584.303,-62"/>
<text text-anchor="middle" x="659.803" y="-69" font-family="Helvetica,sans-Serif" font-size="10.00">QualityControl/MonitorObject.h</text>
</a>
</g>
</g>
<!-- Node11&#45;&gt;Node12 -->
<g id="edge11" class="edge"><title>Node11&#45;&gt;Node12</title>
<path fill="none" stroke="midnightblue" d="M282.775,-123.463C358.209,-115.141 474.379,-101.631 574.803,-87 583.629,-85.7142 592.95,-84.2415 602.059,-82.7386"/>
<polygon fill="midnightblue" stroke="midnightblue" points="602.93,-86.1415 612.214,-81.0372 601.773,-79.2377 602.93,-86.1415"/>
</g>
<!-- Node16 -->
<g id="node16" class="node"><title>Node16</title>
<g id="a_node16"><a xlink:href="MonitorObjectCollection_8h.html" target="_top" xlink:title="QualityControl/MonitorObject\lCollection.h">
<polygon fill="none" stroke="black" points="423.303,-56.5 423.303,-86.5 566.303,-86.5 566.303,-56.5 423.303,-56.5"/>
<text text-anchor="start" x="431.303" y="-74.5" font-family="Helvetica,sans-Serif" font-size="10.00">QualityControl/MonitorObject</text>
<text text-anchor="middle" x="494.803" y="-63.5" font-family="Helvetica,sans-Serif" font-size="10.00">Collection.h</text>
</a>
</g>
</g>
<!-- Node11&#45;&gt;Node16 -->
<g id="edge17" class="edge"><title>Node11&#45;&gt;Node16</title>
<path fill="none" stroke="midnightblue" d="M244.639,-123.475C289.176,-114.4 360.697,-99.8265 415.881,-88.5818"/>
<polygon fill="midnightblue" stroke="midnightblue" points="416.885,-91.9492 425.984,-86.523 415.487,-85.0902 416.885,-91.9492"/>
</g>
<!-- Node19 -->
<g id="node19" class="node"><title>Node19</title>
<g id="a_node19"><a xlink:href="TaskConfig_8h.html" target="_top" xlink:title="QualityControl/TaskConfig.h">
<polygon fill="none" stroke="black" points="165.803,-62 165.803,-81 305.803,-81 305.803,-62 165.803,-62"/>
<text text-anchor="middle" x="235.803" y="-69" font-family="Helvetica,sans-Serif" font-size="10.00">QualityControl/TaskConfig.h</text>
</a>
</g>
</g>
<!-- Node11&#45;&gt;Node19 -->
<g id="edge20" class="edge"><title>Node11&#45;&gt;Node19</title>
<path fill="none" stroke="midnightblue" d="M207.531,-123.475C212.383,-114.727 220.069,-100.869 226.203,-89.8093"/>
<polygon fill="midnightblue" stroke="midnightblue" points="229.294,-91.4517 231.084,-81.0091 223.173,-88.0566 229.294,-91.4517"/>
</g>
<!-- Node12&#45;&gt;Node3 -->
<g id="edge13" class="edge"><title>Node12&#45;&gt;Node3</title>
<path fill="none" stroke="midnightblue" d="M704.362,-61.9751C769.708,-49.4732 889.593,-26.5369 943.398,-16.2431"/>
<polygon fill="midnightblue" stroke="midnightblue" points="944.078,-19.6765 953.242,-14.3597 942.763,-12.8012 944.078,-19.6765"/>
</g>
<!-- Node12&#45;&gt;Node5 -->
<g id="edge12" class="edge"><title>Node12&#45;&gt;Node5</title>
<path fill="none" stroke="midnightblue" d="M613.579,-61.9627C601.027,-59.8228 587.418,-57.6649 574.803,-56 404.862,-33.5715 360.753,-42.3643 190.803,-20 183.507,-19.0399 175.678,-17.8176 168.336,-16.5855"/>
<polygon fill="midnightblue" stroke="midnightblue" points="168.838,-13.1204 158.388,-14.8636 167.645,-20.0179 168.838,-13.1204"/>
</g>
<!-- Node13 -->
<g id="node13" class="node"><title>Node13</title>
<polygon fill="none" stroke="#bfbfbf" points="758.803,-0.5 758.803,-19.5 814.803,-19.5 814.803,-0.5 758.803,-0.5"/>
<text text-anchor="middle" x="786.803" y="-7.5" font-family="Helvetica,sans-Serif" font-size="10.00">Rtypes.h</text>
</g>
<!-- Node12&#45;&gt;Node13 -->
<g id="edge14" class="edge"><title>Node12&#45;&gt;Node13</title>
<path fill="none" stroke="midnightblue" d="M677.999,-61.9751C699.312,-51.9897 734.834,-35.3476 759.466,-23.8075"/>
<polygon fill="midnightblue" stroke="midnightblue" points="761.07,-26.9211 768.641,-19.5091 758.1,-20.5822 761.07,-26.9211"/>
</g>
<!-- Node14 -->
<g id="node14" class="node"><title>Node14</title>
<polygon fill="none" stroke="#bfbfbf" points="547.303,-0.5 547.303,-19.5 606.303,-19.5 606.303,-0.5 547.303,-0.5"/>
<text text-anchor="middle" x="576.803" y="-7.5" font-family="Helvetica,sans-Serif" font-size="10.00">TObject.h</text>
</g>
<!-- Node12&#45;&gt;Node14 -->
<g id="edge15" class="edge"><title>Node12&#45;&gt;Node14</title>
<path fill="none" stroke="midnightblue" d="M647.911,-61.9751C634.598,-52.4315 612.803,-36.8073 596.846,-25.3683"/>
<polygon fill="midnightblue" stroke="midnightblue" points="598.839,-22.4908 588.673,-19.5091 594.761,-28.18 598.839,-22.4908"/>
</g>
<!-- Node15 -->
<g id="node15" class="node"><title>Node15</title>
<polygon fill="none" stroke="#bfbfbf" points="624.803,-0.5 624.803,-19.5 740.803,-19.5 740.803,-0.5 624.803,-0.5"/>
<text text-anchor="middle" x="682.803" y="-7.5" font-family="Helvetica,sans-Serif" font-size="10.00">Common/Exceptions.h</text>
</g>
<!-- Node12&#45;&gt;Node15 -->
<g id="edge16" class="edge"><title>Node12&#45;&gt;Node15</title>
<path fill="none" stroke="midnightblue" d="M663.098,-61.9751C666.412,-53.4035 671.621,-39.9269 675.852,-28.983"/>
<polygon fill="midnightblue" stroke="midnightblue" points="679.173,-30.0984 679.514,-19.5091 672.644,-27.5745 679.173,-30.0984"/>
</g>
<!-- Node17 -->
<g id="node17" class="node"><title>Node17</title>
<polygon fill="none" stroke="#bfbfbf" points="460.303,-0.5 460.303,-19.5 529.303,-19.5 529.303,-0.5 460.303,-0.5"/>
<text text-anchor="middle" x="494.803" y="-7.5" font-family="Helvetica,sans-Serif" font-size="10.00">TObjArray.h</text>
</g>
<!-- Node16&#45;&gt;Node17 -->
<g id="edge18" class="edge"><title>Node16&#45;&gt;Node17</title>
<path fill="none" stroke="midnightblue" d="M494.803,-56.3993C494.803,-48.4664 494.803,-38.458 494.803,-29.8583"/>
<polygon fill="midnightblue" stroke="midnightblue" points="498.303,-29.6577 494.803,-19.6578 491.303,-29.6578 498.303,-29.6577"/>
</g>
<!-- Node18 -->
<g id="node18" class="node"><title>Node18</title>
<polygon fill="none" stroke="#bfbfbf" points="313.803,-0.5 313.803,-19.5 441.803,-19.5 441.803,-0.5 313.803,-0.5"/>
<text text-anchor="middle" x="377.803" y="-7.5" font-family="Helvetica,sans-Serif" font-size="10.00">Mergers/MergeInterface.h</text>
</g>
<!-- Node16&#45;&gt;Node18 -->
<g id="edge19" class="edge"><title>Node16&#45;&gt;Node18</title>
<path fill="none" stroke="midnightblue" d="M467.076,-56.3993C447.971,-46.6837 422.745,-33.8551 403.983,-24.3137"/>
<polygon fill="midnightblue" stroke="midnightblue" points="405.328,-21.071 394.828,-19.6578 402.155,-27.3106 405.328,-21.071"/>
</g>
<!-- Node19&#45;&gt;Node5 -->
<g id="edge21" class="edge"><title>Node19&#45;&gt;Node5</title>
<path fill="none" stroke="midnightblue" d="M221.762,-61.9751C205.752,-52.2548 179.353,-36.2266 160.429,-24.7372"/>
<polygon fill="midnightblue" stroke="midnightblue" points="162.182,-21.7072 151.818,-19.5091 158.549,-27.6907 162.182,-21.7072"/>
</g>
<!-- Node19&#45;&gt;Node6 -->
<g id="edge22" class="edge"><title>Node19&#45;&gt;Node6</title>
<path fill="none" stroke="midnightblue" d="M236.663,-61.9751C237.509,-53.5803 238.83,-40.4806 239.921,-29.6631"/>
<polygon fill="midnightblue" stroke="midnightblue" points="243.424,-29.8098 240.945,-19.5091 236.459,-29.1074 243.424,-29.8098"/>
</g>
<!-- Node21 -->
<g id="node21" class="node"><title>Node21</title>
<polygon fill="none" stroke="#bfbfbf" points="933.803,-62 933.803,-81 1063.8,-81 1063.8,-62 933.803,-62"/>
<text text-anchor="middle" x="998.803" y="-69" font-family="Helvetica,sans-Serif" font-size="10.00">InfoLogger/InfoLogger.hxx</text>
</g>
<!-- Node20&#45;&gt;Node21 -->
<g id="edge26" class="edge"><title>Node20&#45;&gt;Node21</title>
<path fill="none" stroke="midnightblue" d="M991.092,-123.475C992.362,-115.08 994.344,-101.981 995.98,-91.1631"/>
<polygon fill="midnightblue" stroke="midnightblue" points="999.481,-91.4201 997.516,-81.0091 992.56,-90.3731 999.481,-91.4201"/>
</g>
<!-- Node22 -->
<g id="node22" class="node"><title>Node22</title>
<polygon fill="none" stroke="#bfbfbf" points="753.803,-62 753.803,-81 915.803,-81 915.803,-62 753.803,-62"/>
<text text-anchor="middle" x="834.803" y="-69" font-family="Helvetica,sans-Serif" font-size="10.00">InfoLogger/InfoLoggerMacros.hxx</text>
</g>
<!-- Node20&#45;&gt;Node22 -->
<g id="edge27" class="edge"><title>Node20&#45;&gt;Node22</title>
<path fill="none" stroke="midnightblue" d="M967.595,-123.475C941.122,-113.313 896.689,-96.2564 866.583,-84.6996"/>
<polygon fill="midnightblue" stroke="midnightblue" points="867.56,-81.3254 856.969,-81.0091 865.051,-87.8604 867.56,-81.3254"/>
</g>
</g>
</svg>
