<?xml version="1.0" encoding="UTF-8" standalone="no"?>
<!DOCTYPE svg PUBLIC "-//W3C//DTD SVG 1.1//EN"
 "http://www.w3.org/Graphics/SVG/1.1/DTD/svg11.dtd">
<!-- Generated by graphviz version 2.38.0 (20140413.2041)
 -->
<!-- Title: Modules/Example/src/BenchmarkTask.cxx Pages: 1 -->
<!--zoomable 341 -->
<svg id="main" version="1.1" xmlns="http://www.w3.org/2000/svg" xmlns:xlink="http://www.w3.org/1999/xlink" xml:space="preserve" onload="init(evt)">
<style type="text/css"><![CDATA[
.edge:hover path { stroke: red; }
.edge:hover polygon { stroke: red; fill: red; }
]]></style>
<script type="text/javascript"><![CDATA[
var edges = document.getElementsByTagName('g');
if (edges && edges.length) {
  for (var i=0;i<edges.length;i++) {
    if (edges[i].id.substr(0,4)=='edge') {
      edges[i].setAttribute('class','edge');
    }
  }
}
]]></script>
        <defs>
                <circle id="rim" cx="0" cy="0" r="7"/>
                <circle id="rim2" cx="0" cy="0" r="3.5"/>
                <g id="zoomPlus">
                        <use xlink:href="#rim" fill="#404040">
                                <set attributeName="fill" to="#808080" begin="zoomplus.mouseover" end="zoomplus.mouseout"/>
                        </use>
                        <path d="M-4,0h8M0,-4v8" fill="none" stroke="white" stroke-width="1.5" pointer-events="none"/>
                </g>
                <g id="zoomMin">
                        <use xlink:href="#rim" fill="#404040">
                                <set attributeName="fill" to="#808080" begin="zoomminus.mouseover" end="zoomminus.mouseout"/>
                        </use>
                        <path d="M-4,0h8" fill="none" stroke="white" stroke-width="1.5" pointer-events="none"/>
                </g>
                <g id="dirArrow">
                        <path fill="none" stroke="white" stroke-width="1.5" d="M0,-3.0v7 M-2.5,-0.5L0,-3.0L2.5,-0.5"/>
                </g>
               <g id="resetDef">
                       <use xlink:href="#rim2" fill="#404040">
                               <set attributeName="fill" to="#808080" begin="reset.mouseover" end="reset.mouseout"/>
                       </use>
               </g>
        </defs>

<script type="text/javascript">
var viewWidth = 1676;
var viewHeight = 341;
var sectionId = 'dynsection-0';
</script>
<script xlink:href="svgpan.js"/>
<svg id="graph" class="graph">
<g id="viewport">
<title>Modules/Example/src/BenchmarkTask.cxx</title>
<!-- Node1 -->
<g id="node1" class="node"><title>Node1</title>
<polygon fill="#bfbfbf" stroke="black" points="1396,-302.5 1396,-332.5 1507,-332.5 1507,-302.5 1396,-302.5"/>
<text text-anchor="start" x="1404" y="-320.5" font-family="Helvetica,sans-Serif" font-size="10.00">Modules/Example/src</text>
<text text-anchor="middle" x="1451.5" y="-309.5" font-family="Helvetica,sans-Serif" font-size="10.00">/BenchmarkTask.cxx</text>
</g>
<!-- Node2 -->
<g id="node2" class="node"><title>Node2</title>
<g id="a_node2"><a xlink:href="BenchmarkTask_8h.html" target="_top" xlink:title="Example/BenchmarkTask.h">
<polygon fill="none" stroke="black" points="1127,-241 1127,-260 1264,-260 1264,-241 1127,-241"/>
<text text-anchor="middle" x="1195.5" y="-248" font-family="Helvetica,sans-Serif" font-size="10.00">Example/BenchmarkTask.h</text>
</a>
</g>
</g>
<!-- Node1&#45;&gt;Node2 -->
<g id="edge1" class="edge"><title>Node1&#45;&gt;Node2</title>
<path fill="none" stroke="midnightblue" d="M1396.27,-302.476C1349.18,-290.521 1282.43,-273.573 1239.05,-262.558"/>
<polygon fill="midnightblue" stroke="midnightblue" points="1239.64,-259.097 1229.09,-260.029 1237.92,-265.882 1239.64,-259.097"/>
</g>
<!-- Node21 -->
<g id="node21" class="node"><title>Node21</title>
<g id="a_node21"><a xlink:href="QcInfoLogger_8h.html" target="_top" xlink:title="QualityControl/QcInfoLogger.h">
<polygon fill="none" stroke="black" points="1223,-123.5 1223,-142.5 1372,-142.5 1372,-123.5 1223,-123.5"/>
<text text-anchor="middle" x="1297.5" y="-130.5" font-family="Helvetica,sans-Serif" font-size="10.00">QualityControl/QcInfoLogger.h</text>
</a>
</g>
</g>
<!-- Node1&#45;&gt;Node21 -->
<g id="edge33" class="edge"><title>Node1&#45;&gt;Node21</title>
<path fill="none" stroke="midnightblue" d="M1395.89,-309.508C1367.54,-302.985 1335.03,-290.375 1315.5,-266 1289.19,-233.159 1291.19,-180.328 1294.54,-152.507"/>
<polygon fill="midnightblue" stroke="midnightblue" points="1298.02,-152.939 1295.94,-142.55 1291.08,-151.968 1298.02,-152.939"/>
</g>
<!-- Node25 -->
<g id="node25" class="node"><title>Node25</title>
<polygon fill="none" stroke="#bfbfbf" points="1325,-235.5 1325,-265.5 1460,-265.5 1460,-235.5 1325,-235.5"/>
<text text-anchor="start" x="1333" y="-253.5" font-family="Helvetica,sans-Serif" font-size="10.00">Configuration/Configuration</text>
<text text-anchor="middle" x="1392.5" y="-242.5" font-family="Helvetica,sans-Serif" font-size="10.00">Factory.h</text>
</g>
<!-- Node1&#45;&gt;Node25 -->
<g id="edge32" class="edge"><title>Node1&#45;&gt;Node25</title>
<path fill="none" stroke="midnightblue" d="M1438.7,-302.396C1430.97,-293.878 1420.95,-282.847 1412.23,-273.233"/>
<polygon fill="midnightblue" stroke="midnightblue" points="1414.59,-270.629 1405.28,-265.577 1409.41,-275.333 1414.59,-270.629"/>
</g>
<!-- Node26 -->
<g id="node26" class="node"><title>Node26</title>
<polygon fill="none" stroke="#bfbfbf" points="1478,-241 1478,-260 1543,-260 1543,-241 1478,-241"/>
<text text-anchor="middle" x="1510.5" y="-248" font-family="Helvetica,sans-Serif" font-size="10.00">TCanvas.h</text>
</g>
<!-- Node1&#45;&gt;Node26 -->
<g id="edge34" class="edge"><title>Node1&#45;&gt;Node26</title>
<path fill="none" stroke="midnightblue" d="M1464.3,-302.396C1473.59,-292.161 1486.18,-278.296 1495.87,-267.622"/>
<polygon fill="midnightblue" stroke="midnightblue" points="1498.48,-269.951 1502.61,-260.195 1493.3,-265.247 1498.48,-269.951"/>
</g>
<!-- Node27 -->
<g id="node27" class="node"><title>Node27</title>
<polygon fill="none" stroke="#bfbfbf" points="1561.5,-241 1561.5,-260 1605.5,-260 1605.5,-241 1561.5,-241"/>
<text text-anchor="middle" x="1583.5" y="-248" font-family="Helvetica,sans-Serif" font-size="10.00">TH1.h</text>
</g>
<!-- Node1&#45;&gt;Node27 -->
<g id="edge35" class="edge"><title>Node1&#45;&gt;Node27</title>
<path fill="none" stroke="midnightblue" d="M1480.14,-302.396C1503,-291.142 1534.76,-275.501 1557.02,-264.538"/>
<polygon fill="midnightblue" stroke="midnightblue" points="1558.8,-267.565 1566.22,-260.007 1555.71,-261.285 1558.8,-267.565"/>
</g>
<!-- Node28 -->
<g id="node28" class="node"><title>Node28</title>
<polygon fill="none" stroke="#bfbfbf" points="1623.5,-241 1623.5,-260 1667.5,-260 1667.5,-241 1623.5,-241"/>
<text text-anchor="middle" x="1645.5" y="-248" font-family="Helvetica,sans-Serif" font-size="10.00">thread</text>
</g>
<!-- Node1&#45;&gt;Node28 -->
<g id="edge36" class="edge"><title>Node1&#45;&gt;Node28</title>
<path fill="none" stroke="midnightblue" d="M1503.14,-302.465C1535.51,-293.188 1577.89,-280.157 1614.5,-266 1615.92,-265.451 1617.37,-264.866 1618.82,-264.259"/>
<polygon fill="midnightblue" stroke="midnightblue" points="1620.58,-267.308 1628.3,-260.055 1617.74,-260.909 1620.58,-267.308"/>
</g>
<!-- Node3 -->
<g id="node3" class="node"><title>Node3</title>
<g id="a_node3"><a xlink:href="TaskInterface_8h.html" target="_top" xlink:title="QualityControl/TaskInterface.h">
<polygon fill="none" stroke="black" points="789.5,-179.5 789.5,-198.5 939.5,-198.5 939.5,-179.5 789.5,-179.5"/>
<text text-anchor="middle" x="864.5" y="-186.5" font-family="Helvetica,sans-Serif" font-size="10.00">QualityControl/TaskInterface.h</text>
</a>
</g>
</g>
<!-- Node2&#45;&gt;Node3 -->
<g id="edge2" class="edge"><title>Node2&#45;&gt;Node3</title>
<path fill="none" stroke="midnightblue" d="M1148.08,-240.975C1088.35,-230.239 985.809,-211.806 921.771,-200.295"/>
<polygon fill="midnightblue" stroke="midnightblue" points="922.298,-196.834 911.836,-198.509 921.059,-203.723 922.298,-196.834"/>
</g>
<!-- Node5 -->
<g id="node5" class="node"><title>Node5</title>
<polygon fill="none" stroke="#bfbfbf" points="1131.5,-62 1131.5,-81 1183.5,-81 1183.5,-62 1131.5,-62"/>
<text text-anchor="middle" x="1157.5" y="-69" font-family="Helvetica,sans-Serif" font-size="10.00">memory</text>
</g>
<!-- Node2&#45;&gt;Node5 -->
<g id="edge30" class="edge"><title>Node2&#45;&gt;Node5</title>
<path fill="none" stroke="midnightblue" d="M1193.67,-240.963C1187.86,-213.928 1169.79,-129.739 1161.6,-91.609"/>
<polygon fill="midnightblue" stroke="midnightblue" points="1164.93,-90.4109 1159.4,-81.3684 1158.08,-91.8803 1164.93,-90.4109"/>
</g>
<!-- Node6 -->
<g id="node6" class="node"><title>Node6</title>
<polygon fill="none" stroke="#bfbfbf" points="339,-0.5 339,-19.5 380,-19.5 380,-0.5 339,-0.5"/>
<text text-anchor="middle" x="359.5" y="-7.5" font-family="Helvetica,sans-Serif" font-size="10.00">string</text>
</g>
<!-- Node2&#45;&gt;Node6 -->
<g id="edge31" class="edge"><title>Node2&#45;&gt;Node6</title>
<path fill="none" stroke="midnightblue" d="M1126.87,-246.101C931.545,-235.742 383.211,-201.649 329.5,-143 303.378,-114.477 315.735,-92.8442 327.5,-56 330.841,-45.538 337.6,-35.4277 344.049,-27.4496"/>
<polygon fill="midnightblue" stroke="midnightblue" points="346.848,-29.5641 350.749,-19.7136 341.556,-24.9815 346.848,-29.5641"/>
</g>
<!-- Node24 -->
<g id="node24" class="node"><title>Node24</title>
<polygon fill="none" stroke="#bfbfbf" points="1223.5,-179.5 1223.5,-198.5 1267.5,-198.5 1267.5,-179.5 1223.5,-179.5"/>
<text text-anchor="middle" x="1245.5" y="-186.5" font-family="Helvetica,sans-Serif" font-size="10.00">vector</text>
</g>
<!-- Node2&#45;&gt;Node24 -->
<g id="edge29" class="edge"><title>Node2&#45;&gt;Node24</title>
<path fill="none" stroke="midnightblue" d="M1202.66,-240.975C1210.24,-231.962 1222.37,-217.525 1231.79,-206.312"/>
<polygon fill="midnightblue" stroke="midnightblue" points="1234.6,-208.417 1238.35,-198.509 1229.24,-203.913 1234.6,-208.417"/>
</g>
<!-- Node4 -->
<g id="node4" class="node"><title>Node4</title>
<polygon fill="none" stroke="#bfbfbf" points="0,-0.5 0,-19.5 35,-19.5 35,-0.5 0,-0.5"/>
<text text-anchor="middle" x="17.5" y="-7.5" font-family="Helvetica,sans-Serif" font-size="10.00">map</text>
</g>
<!-- Node3&#45;&gt;Node4 -->
<g id="edge3" class="edge"><title>Node3&#45;&gt;Node4</title>
<path fill="none" stroke="midnightblue" d="M789.413,-184.866C620.663,-176.751 216.934,-151.041 98.5,-87 70.7666,-72.0037 45.4182,-45.1623 30.7209,-27.7231"/>
<polygon fill="midnightblue" stroke="midnightblue" points="33.0923,-25.0944 24.0498,-19.5731 27.6755,-29.5282 33.0923,-25.0944"/>
</g>
<!-- Node3&#45;&gt;Node5 -->
<g id="edge4" class="edge"><title>Node3&#45;&gt;Node5</title>
<path fill="none" stroke="midnightblue" d="M939.78,-184.492C1010.29,-179.669 1108.97,-168.474 1137.5,-143 1151.86,-130.181 1156.23,-107.893 1157.41,-91.804"/>
<polygon fill="midnightblue" stroke="midnightblue" points="1160.92,-91.5317 1157.79,-81.4082 1153.92,-91.2708 1160.92,-91.5317"/>
</g>
<!-- Node3&#45;&gt;Node6 -->
<g id="edge5" class="edge"><title>Node3&#45;&gt;Node6</title>
<path fill="none" stroke="midnightblue" d="M789.297,-186.989C652.424,-184.364 373.938,-175.096 344.5,-143 315.758,-111.664 336.193,-57.0033 349.881,-28.8643"/>
<polygon fill="midnightblue" stroke="midnightblue" points="353.084,-30.2874 354.515,-19.7896 346.85,-27.1038 353.084,-30.2874"/>
</g>
<!-- Node7 -->
<g id="node7" class="node"><title>Node7</title>
<polygon fill="none" stroke="#bfbfbf" points="594,-0.5 594,-19.5 677,-19.5 677,-0.5 594,-0.5"/>
<text text-anchor="middle" x="635.5" y="-7.5" font-family="Helvetica,sans-Serif" font-size="10.00">unordered_map</text>
</g>
<!-- Node3&#45;&gt;Node7 -->
<g id="edge6" class="edge"><title>Node3&#45;&gt;Node7</title>
<path fill="none" stroke="midnightblue" d="M864.075,-179.451C862.992,-166.021 859.146,-139.785 845.5,-123 801.82,-69.2723 725.339,-37.8924 677.718,-22.6252"/>
<polygon fill="midnightblue" stroke="midnightblue" points="678.604,-19.2357 668.016,-19.6096 676.527,-25.9202 678.604,-19.2357"/>
</g>
<!-- Node8 -->
<g id="node8" class="node"><title>Node8</title>
<polygon fill="none" stroke="#bfbfbf" points="533,-123.5 533,-142.5 658,-142.5 658,-123.5 533,-123.5"/>
<text text-anchor="middle" x="595.5" y="-130.5" font-family="Helvetica,sans-Serif" font-size="10.00">Framework/InitContext.h</text>
</g>
<!-- Node3&#45;&gt;Node8 -->
<g id="edge7" class="edge"><title>Node3&#45;&gt;Node8</title>
<path fill="none" stroke="midnightblue" d="M821.876,-179.444C774.753,-169.984 698.808,-154.738 648.041,-144.547"/>
<polygon fill="midnightblue" stroke="midnightblue" points="648.418,-141.053 637.924,-142.516 647.04,-147.916 648.418,-141.053"/>
</g>
<!-- Node9 -->
<g id="node9" class="node"><title>Node9</title>
<polygon fill="none" stroke="#bfbfbf" points="676.5,-123.5 676.5,-142.5 836.5,-142.5 836.5,-123.5 676.5,-123.5"/>
<text text-anchor="middle" x="756.5" y="-130.5" font-family="Helvetica,sans-Serif" font-size="10.00">Framework/ProcessingContext.h</text>
</g>
<!-- Node3&#45;&gt;Node9 -->
<g id="edge8" class="edge"><title>Node3&#45;&gt;Node9</title>
<path fill="none" stroke="midnightblue" d="M847.148,-179.324C829.828,-170.664 802.985,-157.242 782.998,-147.249"/>
<polygon fill="midnightblue" stroke="midnightblue" points="784.319,-143.996 773.809,-142.655 781.188,-150.257 784.319,-143.996"/>
</g>
<!-- Node10 -->
<g id="node10" class="node"><title>Node10</title>
<polygon fill="none" stroke="#bfbfbf" points="893,-123.5 893,-142.5 988,-142.5 988,-123.5 893,-123.5"/>
<text text-anchor="middle" x="940.5" y="-130.5" font-family="Helvetica,sans-Serif" font-size="10.00">CCDB/CcdbApi.h</text>
</g>
<!-- Node3&#45;&gt;Node10 -->
<g id="edge9" class="edge"><title>Node3&#45;&gt;Node10</title>
<path fill="none" stroke="midnightblue" d="M876.711,-179.324C888.276,-171.107 905.875,-158.602 919.661,-148.807"/>
<polygon fill="midnightblue" stroke="midnightblue" points="921.943,-151.479 928.067,-142.834 917.888,-145.773 921.943,-151.479"/>
</g>
<!-- Node11 -->
<g id="node11" class="node"><title>Node11</title>
<g id="a_node11"><a xlink:href="Activity_8h.html" target="_top" xlink:title="QualityControl/Activity.h">
<polygon fill="none" stroke="black" points="1006,-123.5 1006,-142.5 1129,-142.5 1129,-123.5 1006,-123.5"/>
<text text-anchor="middle" x="1067.5" y="-130.5" font-family="Helvetica,sans-Serif" font-size="10.00">QualityControl/Activity.h</text>
</a>
</g>
</g>
<!-- Node3&#45;&gt;Node11 -->
<g id="edge10" class="edge"><title>Node3&#45;&gt;Node11</title>
<path fill="none" stroke="midnightblue" d="M896.666,-179.444C931.559,-170.162 987.393,-155.309 1025.67,-145.127"/>
<polygon fill="midnightblue" stroke="midnightblue" points="1026.72,-148.47 1035.48,-142.516 1024.92,-141.705 1026.72,-148.47"/>
</g>
<!-- Node12 -->
<g id="node12" class="node"><title>Node12</title>
<g id="a_node12"><a xlink:href="ObjectsManager_8h.html" target="_top" xlink:title="QualityControl/ObjectsManager.h">
<polygon fill="none" stroke="black" points="354,-123.5 354,-142.5 515,-142.5 515,-123.5 354,-123.5"/>
<text text-anchor="middle" x="434.5" y="-130.5" font-family="Helvetica,sans-Serif" font-size="10.00">QualityControl/ObjectsManager.h</text>
</a>
</g>
</g>
<!-- Node3&#45;&gt;Node12 -->
<g id="edge11" class="edge"><title>Node3&#45;&gt;Node12</title>
<path fill="none" stroke="midnightblue" d="M796.365,-179.444C719.151,-169.747 593.528,-153.971 512.465,-143.791"/>
<polygon fill="midnightblue" stroke="midnightblue" points="512.674,-140.29 502.316,-142.516 511.802,-147.235 512.674,-140.29"/>
</g>
<!-- Node3&#45;&gt;Node21 -->
<g id="edge26" class="edge"><title>Node3&#45;&gt;Node21</title>
<path fill="none" stroke="midnightblue" d="M933.11,-179.444C1010.86,-169.747 1137.36,-153.971 1218.99,-143.791"/>
<polygon fill="midnightblue" stroke="midnightblue" points="1219.72,-147.227 1229.21,-142.516 1218.85,-140.281 1219.72,-147.227"/>
</g>
<!-- Node12&#45;&gt;Node5 -->
<g id="edge25" class="edge"><title>Node12&#45;&gt;Node5</title>
<path fill="none" stroke="midnightblue" d="M515.02,-123.742C517.881,-123.485 520.715,-123.237 523.5,-123 754.772,-103.321 813.513,-109.781 1044.5,-87 1070.16,-84.4695 1098.99,-80.7564 1121.1,-77.7212"/>
<polygon fill="midnightblue" stroke="midnightblue" points="1121.64,-81.1799 1131.06,-76.3376 1120.68,-74.2465 1121.64,-81.1799"/>
</g>
<!-- Node12&#45;&gt;Node6 -->
<g id="edge24" class="edge"><title>Node12&#45;&gt;Node6</title>
<path fill="none" stroke="midnightblue" d="M420.618,-123.291C408.859,-115.232 392.379,-102.222 382.5,-87 371.147,-69.5063 365.18,-46.1479 362.198,-29.9653"/>
<polygon fill="midnightblue" stroke="midnightblue" points="365.578,-28.9458 360.52,-19.6365 358.669,-30.0684 365.578,-28.9458"/>
</g>
<!-- Node13 -->
<g id="node13" class="node"><title>Node13</title>
<g id="a_node13"><a xlink:href="MonitorObject_8h.html" target="_top" xlink:title="QualityControl/MonitorObject.h">
<polygon fill="none" stroke="black" points="108,-62 108,-81 259,-81 259,-62 108,-62"/>
<text text-anchor="middle" x="183.5" y="-69" font-family="Helvetica,sans-Serif" font-size="10.00">QualityControl/MonitorObject.h</text>
</a>
</g>
</g>
<!-- Node12&#45;&gt;Node13 -->
<g id="edge12" class="edge"><title>Node12&#45;&gt;Node13</title>
<path fill="none" stroke="midnightblue" d="M398.538,-123.475C353.991,-112.915 278.041,-94.911 229.351,-83.3689"/>
<polygon fill="midnightblue" stroke="midnightblue" points="229.933,-79.9101 219.395,-81.0091 228.318,-86.7214 229.933,-79.9101"/>
</g>
<!-- Node17 -->
<g id="node17" class="node"><title>Node17</title>
<g id="a_node17"><a xlink:href="MonitorObjectCollection_8h.html" target="_top" xlink:title="QualityControl/MonitorObject\lCollection.h">
<polygon fill="none" stroke="black" points="893,-56.5 893,-86.5 1036,-86.5 1036,-56.5 893,-56.5"/>
<text text-anchor="start" x="901" y="-74.5" font-family="Helvetica,sans-Serif" font-size="10.00">QualityControl/MonitorObject</text>
<text text-anchor="middle" x="964.5" y="-63.5" font-family="Helvetica,sans-Serif" font-size="10.00">Collection.h</text>
</a>
</g>
</g>
<!-- Node12&#45;&gt;Node17 -->
<g id="edge18" class="edge"><title>Node12&#45;&gt;Node17</title>
<path fill="none" stroke="midnightblue" d="M510.436,-123.475C609.227,-112.384 781.166,-93.0819 882.738,-81.6789"/>
<polygon fill="midnightblue" stroke="midnightblue" points="883.402,-85.1265 892.949,-80.5326 882.621,-78.1702 883.402,-85.1265"/>
</g>
<!-- Node20 -->
<g id="node20" class="node"><title>Node20</title>
<g id="a_node20"><a xlink:href="TaskConfig_8h.html" target="_top" xlink:title="QualityControl/TaskConfig.h">
<polygon fill="none" stroke="black" points="391.5,-62 391.5,-81 531.5,-81 531.5,-62 391.5,-62"/>
<text text-anchor="middle" x="461.5" y="-69" font-family="Helvetica,sans-Serif" font-size="10.00">QualityControl/TaskConfig.h</text>
</a>
</g>
</g>
<!-- Node12&#45;&gt;Node20 -->
<g id="edge21" class="edge"><title>Node12&#45;&gt;Node20</title>
<path fill="none" stroke="midnightblue" d="M438.368,-123.475C442.298,-114.815 448.5,-101.149 453.493,-90.1453"/>
<polygon fill="midnightblue" stroke="midnightblue" points="456.694,-91.5617 457.639,-81.0091 450.319,-88.6691 456.694,-91.5617"/>
</g>
<!-- Node13&#45;&gt;Node4 -->
<g id="edge14" class="edge"><title>Node13&#45;&gt;Node4</title>
<path fill="none" stroke="midnightblue" d="M159.716,-61.9751C129.3,-51.0729 76.7454,-32.2355 44.7491,-20.767"/>
<polygon fill="midnightblue" stroke="midnightblue" points="45.7317,-17.4012 35.1372,-17.3218 43.3698,-23.9907 45.7317,-17.4012"/>
</g>
<!-- Node13&#45;&gt;Node6 -->
<g id="edge13" class="edge"><title>Node13&#45;&gt;Node6</title>
<path fill="none" stroke="midnightblue" d="M208.717,-61.9751C240.502,-51.2295 295.089,-32.7752 329.134,-21.2659"/>
<polygon fill="midnightblue" stroke="midnightblue" points="330.639,-24.4515 338.992,-17.9332 328.398,-17.8202 330.639,-24.4515"/>
</g>
<!-- Node14 -->
<g id="node14" class="node"><title>Node14</title>
<polygon fill="none" stroke="#bfbfbf" points="264.5,-0.5 264.5,-19.5 320.5,-19.5 320.5,-0.5 264.5,-0.5"/>
<text text-anchor="middle" x="292.5" y="-7.5" font-family="Helvetica,sans-Serif" font-size="10.00">Rtypes.h</text>
</g>
<!-- Node13&#45;&gt;Node14 -->
<g id="edge15" class="edge"><title>Node13&#45;&gt;Node14</title>
<path fill="none" stroke="midnightblue" d="M199.117,-61.9751C217.086,-52.1664 246.821,-35.9346 267.906,-24.425"/>
<polygon fill="midnightblue" stroke="midnightblue" points="269.811,-27.3726 276.912,-19.5091 266.458,-21.2284 269.811,-27.3726"/>
</g>
<!-- Node15 -->
<g id="node15" class="node"><title>Node15</title>
<polygon fill="none" stroke="#bfbfbf" points="53,-0.5 53,-19.5 112,-19.5 112,-0.5 53,-0.5"/>
<text text-anchor="middle" x="82.5" y="-7.5" font-family="Helvetica,sans-Serif" font-size="10.00">TObject.h</text>
</g>
<!-- Node13&#45;&gt;Node15 -->
<g id="edge16" class="edge"><title>Node13&#45;&gt;Node15</title>
<path fill="none" stroke="midnightblue" d="M169.029,-61.9751C152.529,-52.2548 125.322,-36.2266 105.819,-24.7372"/>
<polygon fill="midnightblue" stroke="midnightblue" points="107.337,-21.5693 96.944,-19.5091 103.784,-27.6005 107.337,-21.5693"/>
</g>
<!-- Node16 -->
<g id="node16" class="node"><title>Node16</title>
<polygon fill="none" stroke="#bfbfbf" points="130.5,-0.5 130.5,-19.5 246.5,-19.5 246.5,-0.5 130.5,-0.5"/>
<text text-anchor="middle" x="188.5" y="-7.5" font-family="Helvetica,sans-Serif" font-size="10.00">Common/Exceptions.h</text>
</g>
<!-- Node13&#45;&gt;Node16 -->
<g id="edge17" class="edge"><title>Node13&#45;&gt;Node16</title>
<path fill="none" stroke="midnightblue" d="M184.216,-61.9751C184.922,-53.5803 186.023,-40.4806 186.932,-29.6631"/>
<polygon fill="midnightblue" stroke="midnightblue" points="190.435,-29.7671 187.785,-19.5091 183.46,-29.1808 190.435,-29.7671"/>
</g>
<!-- Node18 -->
<g id="node18" class="node"><title>Node18</title>
<polygon fill="none" stroke="#bfbfbf" points="868,-0.5 868,-19.5 937,-19.5 937,-0.5 868,-0.5"/>
<text text-anchor="middle" x="902.5" y="-7.5" font-family="Helvetica,sans-Serif" font-size="10.00">TObjArray.h</text>
</g>
<!-- Node17&#45;&gt;Node18 -->
<g id="edge19" class="edge"><title>Node17&#45;&gt;Node18</title>
<path fill="none" stroke="midnightblue" d="M949.807,-56.3993C940.519,-47.4859 928.501,-35.9523 918.902,-26.7408"/>
<polygon fill="midnightblue" stroke="midnightblue" points="921.16,-24.0566 911.522,-19.6578 916.313,-29.1072 921.16,-24.0566"/>
</g>
<!-- Node19 -->
<g id="node19" class="node"><title>Node19</title>
<polygon fill="none" stroke="#bfbfbf" points="955.5,-0.5 955.5,-19.5 1083.5,-19.5 1083.5,-0.5 955.5,-0.5"/>
<text text-anchor="middle" x="1019.5" y="-7.5" font-family="Helvetica,sans-Serif" font-size="10.00">Mergers/MergeInterface.h</text>
</g>
<!-- Node17&#45;&gt;Node19 -->
<g id="edge20" class="edge"><title>Node17&#45;&gt;Node19</title>
<path fill="none" stroke="midnightblue" d="M977.534,-56.3993C985.691,-47.575 996.222,-36.1827 1004.69,-27.0178"/>
<polygon fill="midnightblue" stroke="midnightblue" points="1007.28,-29.3769 1011.5,-19.6578 1002.14,-24.6253 1007.28,-29.3769"/>
</g>
<!-- Node20&#45;&gt;Node6 -->
<g id="edge22" class="edge"><title>Node20&#45;&gt;Node6</title>
<path fill="none" stroke="midnightblue" d="M446.886,-61.9751C430.147,-52.2106 402.496,-36.0807 382.781,-24.5808"/>
<polygon fill="midnightblue" stroke="midnightblue" points="384.488,-21.5246 374.087,-19.5091 380.961,-27.5711 384.488,-21.5246"/>
</g>
<!-- Node20&#45;&gt;Node7 -->
<g id="edge23" class="edge"><title>Node20&#45;&gt;Node7</title>
<path fill="none" stroke="midnightblue" d="M486.43,-61.9751C516.536,-51.6804 567.332,-34.3103 601.138,-22.7502"/>
<polygon fill="midnightblue" stroke="midnightblue" points="602.287,-26.0565 610.616,-19.5091 600.022,-19.433 602.287,-26.0565"/>
</g>
<!-- Node22 -->
<g id="node22" class="node"><title>Node22</title>
<polygon fill="none" stroke="#bfbfbf" points="1216.5,-62 1216.5,-81 1346.5,-81 1346.5,-62 1216.5,-62"/>
<text text-anchor="middle" x="1281.5" y="-69" font-family="Helvetica,sans-Serif" font-size="10.00">InfoLogger/InfoLogger.hxx</text>
</g>
<!-- Node21&#45;&gt;Node22 -->
<g id="edge27" class="edge"><title>Node21&#45;&gt;Node22</title>
<path fill="none" stroke="midnightblue" d="M1295.21,-123.475C1292.93,-114.992 1289.35,-101.704 1286.43,-90.8222"/>
<polygon fill="midnightblue" stroke="midnightblue" points="1289.76,-89.7571 1283.79,-81.0091 1283.01,-91.5749 1289.76,-89.7571"/>
</g>
<!-- Node23 -->
<g id="node23" class="node"><title>Node23</title>
<polygon fill="none" stroke="#bfbfbf" points="1364.5,-62 1364.5,-81 1526.5,-81 1526.5,-62 1364.5,-62"/>
<text text-anchor="middle" x="1445.5" y="-69" font-family="Helvetica,sans-Serif" font-size="10.00">InfoLogger/InfoLoggerMacros.hxx</text>
</g>
<!-- Node21&#45;&gt;Node23 -->
<g id="edge28" class="edge"><title>Node21&#45;&gt;Node23</title>
<path fill="none" stroke="midnightblue" d="M1318.7,-123.475C1343.87,-113.357 1386.04,-96.4046 1414.78,-84.8507"/>
<polygon fill="midnightblue" stroke="midnightblue" points="1416.36,-87.9867 1424.33,-81.0091 1413.75,-81.4919 1416.36,-87.9867"/>
</g>
</g>
</svg>
        <g id="navigator" transform="translate(0 0)" fill="#404254">
                <rect fill="#f2f5e9" fill-opacity="0.5" stroke="#606060" stroke-width=".5" x="0" y="0" width="60" height="60"/>
                <use id="zoomplus" xlink:href="#zoomPlus" x="17" y="9" onmousedown="handleZoom(evt,'in')"/>
                <use id="zoomminus" xlink:href="#zoomMin" x="42" y="9" onmousedown="handleZoom(evt,'out')"/>
                <use id="reset" xlink:href="#resetDef" x="30" y="36" onmousedown="handleReset()"/>
                <g id="arrowUp" xlink:href="#dirArrow" transform="translate(30 24)" onmousedown="handlePan(0,-1)">
                  <use xlink:href="#rim" fill="#404040">
                        <set attributeName="fill" to="#808080" begin="arrowUp.mouseover" end="arrowUp.mouseout"/>
                  </use>
                  <path fill="none" stroke="white" stroke-width="1.5" d="M0,-3.0v7 M-2.5,-0.5L0,-3.0L2.5,-0.5"/>
                </g>
                <g id="arrowRight" xlink:href="#dirArrow" transform="rotate(90) translate(36 -43)" onmousedown="handlePan(1,0)">
                  <use xlink:href="#rim" fill="#404040">
                        <set attributeName="fill" to="#808080" begin="arrowRight.mouseover" end="arrowRight.mouseout"/>
                  </use>
                  <path fill="none" stroke="white" stroke-width="1.5" d="M0,-3.0v7 M-2.5,-0.5L0,-3.0L2.5,-0.5"/>
                </g>
                <g id="arrowDown" xlink:href="#dirArrow" transform="rotate(180) translate(-30 -48)" onmousedown="handlePan(0,1)">
                  <use xlink:href="#rim" fill="#404040">
                        <set attributeName="fill" to="#808080" begin="arrowDown.mouseover" end="arrowDown.mouseout"/>
                  </use>
                  <path fill="none" stroke="white" stroke-width="1.5" d="M0,-3.0v7 M-2.5,-0.5L0,-3.0L2.5,-0.5"/>
                </g>
                <g id="arrowLeft" xlink:href="#dirArrow" transform="rotate(270) translate(-36 17)" onmousedown="handlePan(-1,0)">
                  <use xlink:href="#rim" fill="#404040">
                        <set attributeName="fill" to="#808080" begin="arrowLeft.mouseover" end="arrowLeft.mouseout"/>
                  </use>
                  <path fill="none" stroke="white" stroke-width="1.5" d="M0,-3.0v7 M-2.5,-0.5L0,-3.0L2.5,-0.5"/>
                </g>
        </g>
        <svg viewBox="0 0 15 15" width="100%" height="30px" preserveAspectRatio="xMaxYMin meet">
         <g id="arrow_out" transform="scale(0.3 0.3)">
          <a xlink:href="BenchmarkTask_8cxx__incl_org.svg" target="_base">
           <rect id="button" ry="5" rx="5" y="6" x="6" height="38" width="38"
                fill="#f2f5e9" fill-opacity="0.5" stroke="#606060" stroke-width="1.0"/>
           <path id="arrow"
             d="M 11.500037,31.436501 C 11.940474,20.09759 22.043105,11.32322 32.158766,21.979434 L 37.068811,17.246167 C 37.068811,17.246167 37.088388,32 37.088388,32 L 22.160133,31.978069 C 22.160133,31.978069 26.997745,27.140456 26.997745,27.140456 C 18.528582,18.264221 13.291696,25.230495 11.500037,31.436501 z"
             style="fill:#404040;"/>
          </a>
         </g>
        </svg>
</svg>
