<?xml version="1.0" encoding="UTF-8" standalone="no"?>
<!DOCTYPE svg PUBLIC "-//W3C//DTD SVG 1.1//EN"
 "http://www.w3.org/Graphics/SVG/1.1/DTD/svg11.dtd">
<!-- Generated by graphviz version 2.38.0 (20140413.2041)
 -->
<!-- Title: Framework/include/QualityControl/Calculators.h Pages: 1 -->
<svg width="523pt" height="106pt"
 viewBox="0.00 0.00 523.00 106.00" xmlns="http://www.w3.org/2000/svg" xmlns:xlink="http://www.w3.org/1999/xlink">
<g id="graph0" class="graph" transform="scale(1 1) rotate(0) translate(4 102)">
<title>Framework/include/QualityControl/Calculators.h</title>
<!-- Node1 -->
<g id="node1" class="node"><title>Node1</title>
<polygon fill="#bfbfbf" stroke="black" points="172,-67.5 172,-97.5 305,-97.5 305,-67.5 172,-67.5"/>
<text text-anchor="start" x="180" y="-85.5" font-family="Helvetica,sans-Serif" font-size="10.00">Framework/include/Quality</text>
<text text-anchor="middle" x="238.5" y="-74.5" font-family="Helvetica,sans-Serif" font-size="10.00">Control/Calculators.h</text>
</g>
<!-- Node2 -->
<g id="node2" class="node"><title>Node2</title>
<g id="a_node2"><a xlink:href="Calculators_8cxx.html" target="_top" xlink:title="Bunch of formulas for theoretical calculations for finding optimal QC topologies. ...">
<polygon fill="none" stroke="black" points="0,-6 0,-25 153,-25 153,-6 0,-6"/>
<text text-anchor="middle" x="76.5" y="-13" font-family="Helvetica,sans-Serif" font-size="10.00">Framework/src/Calculators.cxx</text>
</a>
</g>
</g>
<!-- Node1&#45;&gt;Node2 -->
<g id="edge1" class="edge"><title>Node1&#45;&gt;Node2</title>
<path fill="none" stroke="midnightblue" d="M193.941,-63.6214C162.585,-51.0403 122.025,-34.7661 97.7021,-25.007"/>
<polygon fill="midnightblue" stroke="midnightblue" points="192.764,-66.9204 203.348,-67.396 195.371,-60.4238 192.764,-66.9204"/>
</g>
<!-- Node3 -->
<g id="node3" class="node"><title>Node3</title>
<g id="a_node3"><a xlink:href="runLocationCalculator_8cxx.html" target="_top" xlink:title="This is a calculator for the tasks cost when it is run locally and remotely. ">
<polygon fill="none" stroke="black" points="171,-0.5 171,-30.5 306,-30.5 306,-0.5 171,-0.5"/>
<text text-anchor="start" x="179" y="-18.5" font-family="Helvetica,sans-Serif" font-size="10.00">Framework/src/runLocation</text>
<text text-anchor="middle" x="238.5" y="-7.5" font-family="Helvetica,sans-Serif" font-size="10.00">Calculator.cxx</text>
</a>
</g>
</g>
<!-- Node1&#45;&gt;Node3 -->
<g id="edge2" class="edge"><title>Node1&#45;&gt;Node3</title>
<path fill="none" stroke="midnightblue" d="M238.5,-57.1081C238.5,-48.1539 238.5,-38.3227 238.5,-30.5765"/>
<polygon fill="midnightblue" stroke="midnightblue" points="235,-57.3959 238.5,-67.396 242,-57.396 235,-57.3959"/>
</g>
<!-- Node4 -->
<g id="node4" class="node"><title>Node4</title>
<g id="a_node4"><a xlink:href="runMergerCalculator_8cxx.html" target="_top" xlink:title="This is a calculator for finding an optimal reduction factor for Mergers. ">
<polygon fill="none" stroke="black" points="324,-6 324,-25 515,-25 515,-6 324,-6"/>
<text text-anchor="middle" x="419.5" y="-13" font-family="Helvetica,sans-Serif" font-size="10.00">Framework/src/runMergerCalculator.cxx</text>
</a>
</g>
</g>
<!-- Node1&#45;&gt;Node4 -->
<g id="edge3" class="edge"><title>Node1&#45;&gt;Node4</title>
<path fill="none" stroke="midnightblue" d="M287.381,-63.9459C322.536,-51.3213 368.402,-34.8502 395.811,-25.007"/>
<polygon fill="midnightblue" stroke="midnightblue" points="286.003,-60.722 277.774,-67.396 288.369,-67.3101 286.003,-60.722"/>
</g>
</g>
</svg>
