<?xml version="1.0" encoding="UTF-8" standalone="no"?>
<!DOCTYPE svg PUBLIC "-//W3C//DTD SVG 1.1//EN"
 "http://www.w3.org/Graphics/SVG/1.1/DTD/svg11.dtd">
<!-- Generated by graphviz version 2.38.0 (20140413.2041)
 -->
<!-- Title: Framework/src/Calculators.cxx Pages: 1 -->
<svg width="477pt" height="140pt"
 viewBox="0.00 0.00 477.00 140.00" xmlns="http://www.w3.org/2000/svg" xmlns:xlink="http://www.w3.org/1999/xlink">
<g id="graph0" class="graph" transform="scale(1 1) rotate(0) translate(4 136)">
<title>Framework/src/Calculators.cxx</title>
<!-- Node1 -->
<g id="node1" class="node"><title>Node1</title>
<polygon fill="#bfbfbf" stroke="black" points="159.5,-112.5 159.5,-131.5 312.5,-131.5 312.5,-112.5 159.5,-112.5"/>
<text text-anchor="middle" x="236" y="-119.5" font-family="Helvetica,sans-Serif" font-size="10.00">Framework/src/Calculators.cxx</text>
</g>
<!-- Node2 -->
<g id="node2" class="node"><title>Node2</title>
<g id="a_node2"><a xlink:href="Calculators_8h.html" target="_top" xlink:title="Bunch of formulas for theoretical calculations for finding optimal QC topologies. ...">
<polygon fill="none" stroke="black" points="3,-56.5 3,-75.5 143,-75.5 143,-56.5 3,-56.5"/>
<text text-anchor="middle" x="73" y="-63.5" font-family="Helvetica,sans-Serif" font-size="10.00">QualityControl/Calculators.h</text>
</a>
</g>
</g>
<!-- Node1&#45;&gt;Node2 -->
<g id="edge1" class="edge"><title>Node1&#45;&gt;Node2</title>
<path fill="none" stroke="midnightblue" d="M210.172,-112.444C182.751,-103.359 139.223,-88.9388 108.568,-78.7831"/>
<polygon fill="midnightblue" stroke="midnightblue" points="109.3,-75.3389 98.707,-75.5164 107.099,-81.9837 109.3,-75.3389"/>
</g>
<!-- Node5 -->
<g id="node5" class="node"><title>Node5</title>
<g id="a_node5"><a xlink:href="QcInfoLogger_8h.html" target="_top" xlink:title="QualityControl/QcInfoLogger.h">
<polygon fill="none" stroke="black" points="161.5,-56.5 161.5,-75.5 310.5,-75.5 310.5,-56.5 161.5,-56.5"/>
<text text-anchor="middle" x="236" y="-63.5" font-family="Helvetica,sans-Serif" font-size="10.00">QualityControl/QcInfoLogger.h</text>
</a>
</g>
</g>
<!-- Node1&#45;&gt;Node5 -->
<g id="edge4" class="edge"><title>Node1&#45;&gt;Node5</title>
<path fill="none" stroke="midnightblue" d="M236,-112.083C236,-105.006 236,-94.8611 236,-85.9865"/>
<polygon fill="midnightblue" stroke="midnightblue" points="239.5,-85.751 236,-75.7511 232.5,-85.7511 239.5,-85.751"/>
</g>
<!-- Node8 -->
<g id="node8" class="node"><title>Node8</title>
<polygon fill="none" stroke="#bfbfbf" points="328,-56.5 328,-75.5 372,-75.5 372,-56.5 328,-56.5"/>
<text text-anchor="middle" x="350" y="-63.5" font-family="Helvetica,sans-Serif" font-size="10.00">cmath</text>
</g>
<!-- Node1&#45;&gt;Node8 -->
<g id="edge7" class="edge"><title>Node1&#45;&gt;Node8</title>
<path fill="none" stroke="midnightblue" d="M254.064,-112.444C272.575,-103.675 301.581,-89.9355 322.855,-79.8579"/>
<polygon fill="midnightblue" stroke="midnightblue" points="324.482,-82.9604 332.021,-75.5164 321.485,-76.6343 324.482,-82.9604"/>
</g>
<!-- Node3 -->
<g id="node3" class="node"><title>Node3</title>
<polygon fill="none" stroke="#bfbfbf" points="0,-0.5 0,-19.5 38,-19.5 38,-0.5 0,-0.5"/>
<text text-anchor="middle" x="19" y="-7.5" font-family="Helvetica,sans-Serif" font-size="10.00">tuple</text>
</g>
<!-- Node2&#45;&gt;Node3 -->
<g id="edge2" class="edge"><title>Node2&#45;&gt;Node3</title>
<path fill="none" stroke="midnightblue" d="M64.083,-56.083C56.2195,-48.2195 44.5688,-36.5688 35.0813,-27.0813"/>
<polygon fill="midnightblue" stroke="midnightblue" points="37.2971,-24.3473 27.7511,-19.7511 32.3473,-29.2971 37.2971,-24.3473"/>
</g>
<!-- Node4 -->
<g id="node4" class="node"><title>Node4</title>
<polygon fill="none" stroke="#bfbfbf" points="56.5,-0.5 56.5,-19.5 115.5,-19.5 115.5,-0.5 56.5,-0.5"/>
<text text-anchor="middle" x="86" y="-7.5" font-family="Helvetica,sans-Serif" font-size="10.00">functional</text>
</g>
<!-- Node2&#45;&gt;Node4 -->
<g id="edge3" class="edge"><title>Node2&#45;&gt;Node4</title>
<path fill="none" stroke="midnightblue" d="M75.1467,-56.083C76.8694,-48.9272 79.3471,-38.6353 81.5003,-29.6911"/>
<polygon fill="midnightblue" stroke="midnightblue" points="84.9554,-30.2925 83.8933,-19.7511 78.1499,-28.6541 84.9554,-30.2925"/>
</g>
<!-- Node6 -->
<g id="node6" class="node"><title>Node6</title>
<polygon fill="none" stroke="#bfbfbf" points="159,-0.5 159,-19.5 289,-19.5 289,-0.5 159,-0.5"/>
<text text-anchor="middle" x="224" y="-7.5" font-family="Helvetica,sans-Serif" font-size="10.00">InfoLogger/InfoLogger.hxx</text>
</g>
<!-- Node5&#45;&gt;Node6 -->
<g id="edge5" class="edge"><title>Node5&#45;&gt;Node6</title>
<path fill="none" stroke="midnightblue" d="M234.018,-56.083C232.428,-48.9272 230.141,-38.6353 228.154,-29.6911"/>
<polygon fill="midnightblue" stroke="midnightblue" points="231.531,-28.7537 225.945,-19.7511 224.697,-30.2722 231.531,-28.7537"/>
</g>
<!-- Node7 -->
<g id="node7" class="node"><title>Node7</title>
<polygon fill="none" stroke="#bfbfbf" points="307,-0.5 307,-19.5 469,-19.5 469,-0.5 307,-0.5"/>
<text text-anchor="middle" x="388" y="-7.5" font-family="Helvetica,sans-Serif" font-size="10.00">InfoLogger/InfoLoggerMacros.hxx</text>
</g>
<!-- Node5&#45;&gt;Node7 -->
<g id="edge6" class="edge"><title>Node5&#45;&gt;Node7</title>
<path fill="none" stroke="midnightblue" d="M260.085,-56.4435C285.545,-47.3986 325.894,-33.064 354.459,-22.9158"/>
<polygon fill="midnightblue" stroke="midnightblue" points="355.777,-26.1622 364.028,-19.5164 353.433,-19.5661 355.777,-26.1622"/>
</g>
</g>
</svg>
