<?xml version="1.0" encoding="UTF-8" standalone="no"?>
<!DOCTYPE svg PUBLIC "-//W3C//DTD SVG 1.1//EN"
 "http://www.w3.org/Graphics/SVG/1.1/DTD/svg11.dtd">
<!-- Generated by graphviz version 2.38.0 (20140413.2041)
 -->
<!-- Title: Framework/src/CcdbDatabase.cxx Pages: 1 -->
<!--zoomable 319 -->
<svg id="main" version="1.1" xmlns="http://www.w3.org/2000/svg" xmlns:xlink="http://www.w3.org/1999/xlink" xml:space="preserve" onload="init(evt)">
<style type="text/css"><![CDATA[
.edge:hover path { stroke: red; }
.edge:hover polygon { stroke: red; fill: red; }
]]></style>
<script type="text/javascript"><![CDATA[
var edges = document.getElementsByTagName('g');
if (edges && edges.length) {
  for (var i=0;i<edges.length;i++) {
    if (edges[i].id.substr(0,4)=='edge') {
      edges[i].setAttribute('class','edge');
    }
  }
}
]]></script>
        <defs>
                <circle id="rim" cx="0" cy="0" r="7"/>
                <circle id="rim2" cx="0" cy="0" r="3.5"/>
                <g id="zoomPlus">
                        <use xlink:href="#rim" fill="#404040">
                                <set attributeName="fill" to="#808080" begin="zoomplus.mouseover" end="zoomplus.mouseout"/>
                        </use>
                        <path d="M-4,0h8M0,-4v8" fill="none" stroke="white" stroke-width="1.5" pointer-events="none"/>
                </g>
                <g id="zoomMin">
                        <use xlink:href="#rim" fill="#404040">
                                <set attributeName="fill" to="#808080" begin="zoomminus.mouseover" end="zoomminus.mouseout"/>
                        </use>
                        <path d="M-4,0h8" fill="none" stroke="white" stroke-width="1.5" pointer-events="none"/>
                </g>
                <g id="dirArrow">
                        <path fill="none" stroke="white" stroke-width="1.5" d="M0,-3.0v7 M-2.5,-0.5L0,-3.0L2.5,-0.5"/>
                </g>
               <g id="resetDef">
                       <use xlink:href="#rim2" fill="#404040">
                               <set attributeName="fill" to="#808080" begin="reset.mouseover" end="reset.mouseout"/>
                       </use>
               </g>
        </defs>

<script type="text/javascript">
var viewWidth = 2686;
var viewHeight = 319;
var sectionId = 'dynsection-0';
</script>
<script xlink:href="svgpan.js"/>
<svg id="graph" class="graph">
<g id="viewport">
<title>Framework/src/CcdbDatabase.cxx</title>
<!-- Node1 -->
<g id="node1" class="node"><title>Node1</title>
<polygon fill="#bfbfbf" stroke="black" points="1365.68,-291.5 1365.68,-310.5 1534.68,-310.5 1534.68,-291.5 1365.68,-291.5"/>
<text text-anchor="middle" x="1450.18" y="-298.5" font-family="Helvetica,sans-Serif" font-size="10.00">Framework/src/CcdbDatabase.cxx</text>
</g>
<!-- Node2 -->
<g id="node2" class="node"><title>Node2</title>
<g id="a_node2"><a xlink:href="CcdbDatabase_8h.html" target="_top" xlink:title="QualityControl/CcdbDatabase.h">
<polygon fill="none" stroke="black" points="176.684,-230 176.684,-249 331.684,-249 331.684,-230 176.684,-230"/>
<text text-anchor="middle" x="254.184" y="-237" font-family="Helvetica,sans-Serif" font-size="10.00">QualityControl/CcdbDatabase.h</text>
</a>
</g>
</g>
<!-- Node1&#45;&gt;Node2 -->
<g id="edge1" class="edge"><title>Node1&#45;&gt;Node2</title>
<path fill="none" stroke="midnightblue" d="M1365.61,-295.792C1146.95,-284.914 564.512,-255.939 342.147,-244.876"/>
<polygon fill="midnightblue" stroke="midnightblue" points="341.995,-241.364 331.833,-244.363 341.647,-248.356 341.995,-241.364"/>
</g>
<!-- Node13 -->
<g id="node13" class="node"><title>Node13</title>
<polygon fill="none" stroke="#bfbfbf" points="534.184,-56.5 534.184,-75.5 650.184,-75.5 650.184,-56.5 534.184,-56.5"/>
<text text-anchor="middle" x="592.184" y="-63.5" font-family="Helvetica,sans-Serif" font-size="10.00">Common/Exceptions.h</text>
</g>
<!-- Node1&#45;&gt;Node13 -->
<g id="edge28" class="edge"><title>Node1&#45;&gt;Node13</title>
<path fill="none" stroke="midnightblue" d="M1365.46,-298.119C1161.45,-293.22 657.665,-278.769 630.184,-255 580.883,-212.359 584.76,-125.008 589.315,-86.2529"/>
<polygon fill="midnightblue" stroke="midnightblue" points="592.845,-86.263 590.693,-75.889 585.906,-85.3407 592.845,-86.263"/>
</g>
<!-- Node16 -->
<g id="node16" class="node"><title>Node16</title>
<g id="a_node16"><a xlink:href="MonitorObject_8h.html" target="_top" xlink:title="QualityControl/MonitorObject.h">
<polygon fill="none" stroke="black" points="616.684,-112.5 616.684,-131.5 767.684,-131.5 767.684,-112.5 616.684,-112.5"/>
<text text-anchor="middle" x="692.184" y="-119.5" font-family="Helvetica,sans-Serif" font-size="10.00">QualityControl/MonitorObject.h</text>
</a>
</g>
</g>
<!-- Node1&#45;&gt;Node16 -->
<g id="edge23" class="edge"><title>Node1&#45;&gt;Node16</title>
<path fill="none" stroke="midnightblue" d="M1365.59,-298.363C1163.9,-294.046 669.649,-280.87 645.184,-255 613.829,-221.844 653.665,-166.399 677.193,-139.136"/>
<polygon fill="midnightblue" stroke="midnightblue" points="679.836,-141.431 683.875,-131.636 674.61,-136.774 679.836,-141.431"/>
</g>
<!-- Node17 -->
<g id="node17" class="node"><title>Node17</title>
<polygon fill="none" stroke="#bfbfbf" points="654.684,-230 654.684,-249 777.684,-249 777.684,-230 654.684,-230"/>
<text text-anchor="middle" x="716.184" y="-237" font-family="Helvetica,sans-Serif" font-size="10.00">QualityControl/Version.h</text>
</g>
<!-- Node1&#45;&gt;Node17 -->
<g id="edge24" class="edge"><title>Node1&#45;&gt;Node17</title>
<path fill="none" stroke="midnightblue" d="M1365.57,-297.876C1239.18,-293.886 993.827,-282.986 787.184,-255 779.382,-253.943 771.152,-252.537 763.17,-251.015"/>
<polygon fill="midnightblue" stroke="midnightblue" points="763.731,-247.558 753.241,-249.043 762.367,-254.424 763.731,-247.558"/>
</g>
<!-- Node18 -->
<g id="node18" class="node"><title>Node18</title>
<g id="a_node18"><a xlink:href="QcInfoLogger_8h.html" target="_top" xlink:title="QualityControl/QcInfoLogger.h">
<polygon fill="none" stroke="black" points="795.684,-230 795.684,-249 944.684,-249 944.684,-230 795.684,-230"/>
<text text-anchor="middle" x="870.184" y="-237" font-family="Helvetica,sans-Serif" font-size="10.00">QualityControl/QcInfoLogger.h</text>
</a>
</g>
</g>
<!-- Node1&#45;&gt;Node18 -->
<g id="edge25" class="edge"><title>Node1&#45;&gt;Node18</title>
<path fill="none" stroke="midnightblue" d="M1365.53,-294.475C1266.42,-287.513 1097.48,-274.103 953.184,-255 944.025,-253.787 934.334,-252.291 924.93,-250.724"/>
<polygon fill="midnightblue" stroke="midnightblue" points="925.325,-247.24 914.878,-249.006 924.146,-254.14 925.325,-247.24"/>
</g>
<!-- Node21 -->
<g id="node21" class="node"><title>Node21</title>
<polygon fill="none" stroke="#bfbfbf" points="962.184,-230 962.184,-249 1046.18,-249 1046.18,-230 962.184,-230"/>
<text text-anchor="middle" x="1004.18" y="-237" font-family="Helvetica,sans-Serif" font-size="10.00">TBufferJSON.h</text>
</g>
<!-- Node1&#45;&gt;Node21 -->
<g id="edge29" class="edge"><title>Node1&#45;&gt;Node21</title>
<path fill="none" stroke="midnightblue" d="M1365.58,-294.386C1285.17,-288.105 1161.15,-275.953 1055.18,-255 1050.47,-254.067 1045.55,-252.911 1040.71,-251.661"/>
<polygon fill="midnightblue" stroke="midnightblue" points="1041.55,-248.262 1030.98,-249.008 1039.71,-255.016 1041.55,-248.262"/>
</g>
<!-- Node22 -->
<g id="node22" class="node"><title>Node22</title>
<polygon fill="none" stroke="#bfbfbf" points="1064.18,-230 1064.18,-249 1114.18,-249 1114.18,-230 1064.18,-230"/>
<text text-anchor="middle" x="1089.18" y="-237" font-family="Helvetica,sans-Serif" font-size="10.00">TH1F.h</text>
</g>
<!-- Node1&#45;&gt;Node22 -->
<g id="edge30" class="edge"><title>Node1&#45;&gt;Node22</title>
<path fill="none" stroke="midnightblue" d="M1365.59,-294.284C1299.08,-288.37 1204.55,-276.807 1124.18,-255 1121.74,-254.337 1119.24,-253.545 1116.76,-252.679"/>
<polygon fill="midnightblue" stroke="midnightblue" points="1117.99,-249.405 1107.4,-249.08 1115.48,-255.938 1117.99,-249.405"/>
</g>
<!-- Node23 -->
<g id="node23" class="node"><title>Node23</title>
<polygon fill="none" stroke="#bfbfbf" points="1132.68,-230 1132.68,-249 1179.68,-249 1179.68,-230 1132.68,-230"/>
<text text-anchor="middle" x="1156.18" y="-237" font-family="Helvetica,sans-Serif" font-size="10.00">TFile.h</text>
</g>
<!-- Node1&#45;&gt;Node23 -->
<g id="edge31" class="edge"><title>Node1&#45;&gt;Node23</title>
<path fill="none" stroke="midnightblue" d="M1371.37,-291.487C1318.98,-284.597 1249.06,-273.024 1189.18,-255 1187.25,-254.418 1185.28,-253.753 1183.32,-253.035"/>
<polygon fill="midnightblue" stroke="midnightblue" points="1184.28,-249.648 1173.7,-249.138 1181.65,-256.136 1184.28,-249.648"/>
</g>
<!-- Node24 -->
<g id="node24" class="node"><title>Node24</title>
<polygon fill="none" stroke="#bfbfbf" points="1197.68,-230 1197.68,-249 1244.68,-249 1244.68,-230 1197.68,-230"/>
<text text-anchor="middle" x="1221.18" y="-237" font-family="Helvetica,sans-Serif" font-size="10.00">TList.h</text>
</g>
<!-- Node1&#45;&gt;Node24 -->
<g id="edge32" class="edge"><title>Node1&#45;&gt;Node24</title>
<path fill="none" stroke="midnightblue" d="M1401.56,-291.482C1361.47,-283.832 1303.4,-271.301 1254.18,-255 1252.31,-254.38 1250.4,-253.693 1248.49,-252.965"/>
<polygon fill="midnightblue" stroke="midnightblue" points="1249.68,-249.67 1239.1,-249.103 1247.02,-256.143 1249.68,-249.67"/>
</g>
<!-- Node25 -->
<g id="node25" class="node"><title>Node25</title>
<polygon fill="none" stroke="#bfbfbf" points="1262.68,-230 1262.68,-249 1321.68,-249 1321.68,-230 1262.68,-230"/>
<text text-anchor="middle" x="1292.18" y="-237" font-family="Helvetica,sans-Serif" font-size="10.00">TROOT.h</text>
</g>
<!-- Node1&#45;&gt;Node25 -->
<g id="edge33" class="edge"><title>Node1&#45;&gt;Node25</title>
<path fill="none" stroke="midnightblue" d="M1427.55,-291.475C1400.44,-281.269 1354.87,-264.108 1324.18,-252.549"/>
<polygon fill="midnightblue" stroke="midnightblue" points="1325.37,-249.258 1314.78,-249.009 1322.9,-255.809 1325.37,-249.258"/>
</g>
<!-- Node26 -->
<g id="node26" class="node"><title>Node26</title>
<polygon fill="none" stroke="#bfbfbf" points="1340.18,-230 1340.18,-249 1388.18,-249 1388.18,-230 1340.18,-230"/>
<text text-anchor="middle" x="1364.18" y="-237" font-family="Helvetica,sans-Serif" font-size="10.00">TKey.h</text>
</g>
<!-- Node1&#45;&gt;Node26 -->
<g id="edge34" class="edge"><title>Node1&#45;&gt;Node26</title>
<path fill="none" stroke="midnightblue" d="M1437.86,-291.475C1424.07,-281.931 1401.49,-266.307 1384.95,-254.868"/>
<polygon fill="midnightblue" stroke="midnightblue" points="1386.7,-251.82 1376.48,-249.009 1382.72,-257.577 1386.7,-251.82"/>
</g>
<!-- Node27 -->
<g id="node27" class="node"><title>Node27</title>
<polygon fill="none" stroke="#bfbfbf" points="1406.68,-230 1406.68,-249 1493.68,-249 1493.68,-230 1406.68,-230"/>
<text text-anchor="middle" x="1450.18" y="-237" font-family="Helvetica,sans-Serif" font-size="10.00">TStreamerInfo.h</text>
</g>
<!-- Node1&#45;&gt;Node27 -->
<g id="edge35" class="edge"><title>Node1&#45;&gt;Node27</title>
<path fill="none" stroke="midnightblue" d="M1450.18,-291.475C1450.18,-283.08 1450.18,-269.981 1450.18,-259.163"/>
<polygon fill="midnightblue" stroke="midnightblue" points="1453.68,-259.009 1450.18,-249.009 1446.68,-259.009 1453.68,-259.009"/>
</g>
<!-- Node28 -->
<g id="node28" class="node"><title>Node28</title>
<polygon fill="none" stroke="#bfbfbf" points="1511.68,-230 1511.68,-249 1576.68,-249 1576.68,-230 1511.68,-230"/>
<text text-anchor="middle" x="1544.18" y="-237" font-family="Helvetica,sans-Serif" font-size="10.00">TSystem.h</text>
</g>
<!-- Node1&#45;&gt;Node28 -->
<g id="edge36" class="edge"><title>Node1&#45;&gt;Node28</title>
<path fill="none" stroke="midnightblue" d="M1463.65,-291.475C1478.87,-281.843 1503.87,-266.017 1521.98,-254.552"/>
<polygon fill="midnightblue" stroke="midnightblue" points="1524.16,-257.315 1530.74,-249.009 1520.42,-251.4 1524.16,-257.315"/>
</g>
<!-- Node29 -->
<g id="node29" class="node"><title>Node29</title>
<polygon fill="none" stroke="#bfbfbf" points="1595.18,-230 1595.18,-249 1641.18,-249 1641.18,-230 1595.18,-230"/>
<text text-anchor="middle" x="1618.18" y="-237" font-family="Helvetica,sans-Serif" font-size="10.00">chrono</text>
</g>
<!-- Node1&#45;&gt;Node29 -->
<g id="edge37" class="edge"><title>Node1&#45;&gt;Node29</title>
<path fill="none" stroke="midnightblue" d="M1478.89,-291.472C1506.63,-283.003 1549.7,-269.256 1586.18,-255 1587.6,-254.445 1589.05,-253.86 1590.51,-253.257"/>
<polygon fill="midnightblue" stroke="midnightblue" points="1592.27,-256.309 1600.05,-249.119 1589.48,-249.887 1592.27,-256.309"/>
</g>
<!-- Node30 -->
<g id="node30" class="node"><title>Node30</title>
<polygon fill="none" stroke="#bfbfbf" points="1659.18,-230 1659.18,-249 1711.18,-249 1711.18,-230 1659.18,-230"/>
<text text-anchor="middle" x="1685.18" y="-237" font-family="Helvetica,sans-Serif" font-size="10.00">sstream</text>
</g>
<!-- Node1&#45;&gt;Node30 -->
<g id="edge38" class="edge"><title>Node1&#45;&gt;Node30</title>
<path fill="none" stroke="midnightblue" d="M1498.89,-291.465C1539.78,-283.727 1599.46,-271.081 1650.18,-255 1652.32,-254.322 1654.51,-253.566 1656.71,-252.767"/>
<polygon fill="midnightblue" stroke="midnightblue" points="1658.11,-255.977 1666.15,-249.08 1655.56,-249.457 1658.11,-255.977"/>
</g>
<!-- Node31 -->
<g id="node31" class="node"><title>Node31</title>
<polygon fill="none" stroke="#bfbfbf" points="1729.18,-230 1729.18,-249 1807.18,-249 1807.18,-230 1729.18,-230"/>
<text text-anchor="middle" x="1768.18" y="-237" font-family="Helvetica,sans-Serif" font-size="10.00">unordered_set</text>
</g>
<!-- Node1&#45;&gt;Node31 -->
<g id="edge39" class="edge"><title>Node1&#45;&gt;Node31</title>
<path fill="none" stroke="midnightblue" d="M1515.57,-291.498C1570.54,-283.78 1651,-271.145 1720.18,-255 1724.12,-254.08 1728.22,-253.017 1732.28,-251.891"/>
<polygon fill="midnightblue" stroke="midnightblue" points="1733.56,-255.163 1742.19,-249.015 1731.61,-248.44 1733.56,-255.163"/>
</g>
<!-- Node32 -->
<g id="node32" class="node"><title>Node32</title>
<polygon fill="none" stroke="#bfbfbf" points="1825.68,-230 1825.68,-249 1954.68,-249 1954.68,-230 1825.68,-230"/>
<text text-anchor="middle" x="1890.18" y="-237" font-family="Helvetica,sans-Serif" font-size="10.00">boost/algorithm/string.hpp</text>
</g>
<!-- Node1&#45;&gt;Node32 -->
<g id="edge40" class="edge"><title>Node1&#45;&gt;Node32</title>
<path fill="none" stroke="midnightblue" d="M1533.28,-291.489C1607.61,-283.469 1719.45,-270.404 1816.18,-255 1823.65,-253.812 1831.5,-252.423 1839.2,-250.983"/>
<polygon fill="midnightblue" stroke="midnightblue" points="1840.01,-254.391 1849.18,-249.075 1838.7,-247.516 1840.01,-254.391"/>
</g>
<!-- Node33 -->
<g id="node33" class="node"><title>Node33</title>
<polygon fill="none" stroke="#bfbfbf" points="1972.68,-224.5 1972.68,-254.5 2073.68,-254.5 2073.68,-224.5 1972.68,-224.5"/>
<text text-anchor="start" x="1980.68" y="-242.5" font-family="Helvetica,sans-Serif" font-size="10.00">boost/property_tree</text>
<text text-anchor="middle" x="2023.18" y="-231.5" font-family="Helvetica,sans-Serif" font-size="10.00">/json_parser.hpp</text>
</g>
<!-- Node1&#45;&gt;Node33 -->
<g id="edge41" class="edge"><title>Node1&#45;&gt;Node33</title>
<path fill="none" stroke="midnightblue" d="M1534.82,-296.58C1634.91,-291.638 1806.6,-280.348 1962.21,-255.175"/>
<polygon fill="midnightblue" stroke="midnightblue" points="1963.14,-258.57 1972.44,-253.496 1962,-251.662 1963.14,-258.57"/>
</g>
<!-- Node34 -->
<g id="node34" class="node"><title>Node34</title>
<polygon fill="none" stroke="#bfbfbf" points="2091.68,-224.5 2091.68,-254.5 2192.68,-254.5 2192.68,-224.5 2091.68,-224.5"/>
<text text-anchor="start" x="2099.68" y="-242.5" font-family="Helvetica,sans-Serif" font-size="10.00">boost/property_tree</text>
<text text-anchor="middle" x="2142.18" y="-231.5" font-family="Helvetica,sans-Serif" font-size="10.00">/ptree.hpp</text>
</g>
<!-- Node1&#45;&gt;Node34 -->
<g id="edge42" class="edge"><title>Node1&#45;&gt;Node34</title>
<path fill="none" stroke="midnightblue" d="M1534.92,-298.544C1654.81,-295.468 1880.84,-285.938 2081.32,-255.129"/>
<polygon fill="midnightblue" stroke="midnightblue" points="2082.1,-258.548 2091.45,-253.55 2081.03,-251.632 2082.1,-258.548"/>
</g>
<!-- Node35 -->
<g id="node35" class="node"><title>Node35</title>
<polygon fill="none" stroke="#bfbfbf" points="2210.68,-230 2210.68,-249 2305.68,-249 2305.68,-230 2210.68,-230"/>
<text text-anchor="middle" x="2258.18" y="-237" font-family="Helvetica,sans-Serif" font-size="10.00">boost/foreach.hpp</text>
</g>
<!-- Node1&#45;&gt;Node35 -->
<g id="edge43" class="edge"><title>Node1&#45;&gt;Node35</title>
<path fill="none" stroke="midnightblue" d="M1534.78,-300.252C1674.57,-299.482 1962.21,-292.881 2202.18,-255 2207.97,-254.087 2214.02,-252.838 2219.92,-251.453"/>
<polygon fill="midnightblue" stroke="midnightblue" points="2220.78,-254.847 2229.63,-249.03 2219.08,-248.055 2220.78,-254.847"/>
</g>
<!-- Node36 -->
<g id="node36" class="node"><title>Node36</title>
<polygon fill="none" stroke="#bfbfbf" points="2324.18,-230 2324.18,-249 2434.18,-249 2434.18,-230 2324.18,-230"/>
<text text-anchor="middle" x="2379.18" y="-237" font-family="Helvetica,sans-Serif" font-size="10.00">rapidjson/document.h</text>
</g>
<!-- Node1&#45;&gt;Node36 -->
<g id="edge44" class="edge"><title>Node1&#45;&gt;Node36</title>
<path fill="none" stroke="midnightblue" d="M1534.74,-300.376C1690.09,-300.01 2031.04,-294.285 2315.18,-255 2322.08,-254.046 2329.34,-252.721 2336.38,-251.256"/>
<polygon fill="midnightblue" stroke="midnightblue" points="2337.48,-254.599 2346.49,-249.036 2335.98,-247.762 2337.48,-254.599"/>
</g>
<!-- Node37 -->
<g id="node37" class="node"><title>Node37</title>
<polygon fill="none" stroke="#bfbfbf" points="2452.18,-230 2452.18,-249 2568.18,-249 2568.18,-230 2452.18,-230"/>
<text text-anchor="middle" x="2510.18" y="-237" font-family="Helvetica,sans-Serif" font-size="10.00">rapidjson/stringbuffer.h</text>
</g>
<!-- Node1&#45;&gt;Node37 -->
<g id="edge45" class="edge"><title>Node1&#45;&gt;Node37</title>
<path fill="none" stroke="midnightblue" d="M1534.85,-297.992C1741.71,-292.789 2268.63,-277.681 2443.18,-255 2450.65,-254.03 2458.52,-252.653 2466.14,-251.131"/>
<polygon fill="midnightblue" stroke="midnightblue" points="2466.88,-254.551 2475.95,-249.067 2465.44,-247.7 2466.88,-254.551"/>
</g>
<!-- Node38 -->
<g id="node38" class="node"><title>Node38</title>
<polygon fill="none" stroke="#bfbfbf" points="2586.68,-230 2586.68,-249 2677.68,-249 2677.68,-230 2586.68,-230"/>
<text text-anchor="middle" x="2632.18" y="-237" font-family="Helvetica,sans-Serif" font-size="10.00">rapidjson/writer.h</text>
</g>
<!-- Node1&#45;&gt;Node38 -->
<g id="edge46" class="edge"><title>Node1&#45;&gt;Node38</title>
<path fill="none" stroke="midnightblue" d="M1534.98,-299.005C1761.37,-295.966 2376.39,-285.108 2577.18,-255 2582.8,-254.158 2588.67,-252.963 2594.39,-251.615"/>
<polygon fill="midnightblue" stroke="midnightblue" points="2595.61,-254.916 2604.45,-249.069 2593.9,-248.13 2595.61,-254.916"/>
</g>
<!-- Node3 -->
<g id="node3" class="node"><title>Node3</title>
<polygon fill="none" stroke="#bfbfbf" points="55.6839,-168.5 55.6839,-187.5 150.684,-187.5 150.684,-168.5 55.6839,-168.5"/>
<text text-anchor="middle" x="103.184" y="-175.5" font-family="Helvetica,sans-Serif" font-size="10.00">CCDB/CcdbApi.h</text>
</g>
<!-- Node2&#45;&gt;Node3 -->
<g id="edge2" class="edge"><title>Node2&#45;&gt;Node3</title>
<path fill="none" stroke="midnightblue" d="M232.549,-229.975C206.76,-219.813 163.473,-202.756 134.144,-191.2"/>
<polygon fill="midnightblue" stroke="midnightblue" points="135.365,-187.919 124.778,-187.509 132.799,-194.432 135.365,-187.919"/>
</g>
<!-- Node4 -->
<g id="node4" class="node"><title>Node4</title>
<g id="a_node4"><a xlink:href="DatabaseInterface_8h.html" target="_top" xlink:title="QualityControl/DatabaseInterface.h">
<polygon fill="none" stroke="black" points="169.184,-168.5 169.184,-187.5 339.184,-187.5 339.184,-168.5 169.184,-168.5"/>
<text text-anchor="middle" x="254.184" y="-175.5" font-family="Helvetica,sans-Serif" font-size="10.00">QualityControl/DatabaseInterface.h</text>
</a>
</g>
</g>
<!-- Node2&#45;&gt;Node4 -->
<g id="edge3" class="edge"><title>Node2&#45;&gt;Node4</title>
<path fill="none" stroke="midnightblue" d="M254.184,-229.975C254.184,-221.58 254.184,-208.481 254.184,-197.663"/>
<polygon fill="midnightblue" stroke="midnightblue" points="257.684,-197.509 254.184,-187.509 250.684,-197.509 257.684,-197.509"/>
</g>
<!-- Node5 -->
<g id="node5" class="node"><title>Node5</title>
<polygon fill="none" stroke="#bfbfbf" points="329.684,-0.5 329.684,-19.5 370.684,-19.5 370.684,-0.5 329.684,-0.5"/>
<text text-anchor="middle" x="350.184" y="-7.5" font-family="Helvetica,sans-Serif" font-size="10.00">string</text>
</g>
<!-- Node4&#45;&gt;Node5 -->
<g id="edge4" class="edge"><title>Node4&#45;&gt;Node5</title>
<path fill="none" stroke="midnightblue" d="M179.856,-168.471C110.326,-159.728 15.4987,-145.533 4.18391,-132 -1.51763,-125.181 -1.14864,-119.112 4.18391,-112 42.7268,-60.5975 242.051,-26.6741 319.428,-15.2612"/>
<polygon fill="midnightblue" stroke="midnightblue" points="320.113,-18.6986 329.507,-13.8007 319.109,-11.7709 320.113,-18.6986"/>
</g>
<!-- Node6 -->
<g id="node6" class="node"><title>Node6</title>
<polygon fill="none" stroke="#bfbfbf" points="13.1839,-112.5 13.1839,-131.5 65.1839,-131.5 65.1839,-112.5 13.1839,-112.5"/>
<text text-anchor="middle" x="39.1839" y="-119.5" font-family="Helvetica,sans-Serif" font-size="10.00">memory</text>
</g>
<!-- Node4&#45;&gt;Node6 -->
<g id="edge5" class="edge"><title>Node4&#45;&gt;Node6</title>
<path fill="none" stroke="midnightblue" d="M219.659,-168.442C185.394,-159.932 131.114,-146.408 75.2584,-132.261"/>
<polygon fill="midnightblue" stroke="midnightblue" points="76.1058,-128.865 65.5523,-129.801 74.3856,-135.651 76.1058,-128.865"/>
</g>
<!-- Node7 -->
<g id="node7" class="node"><title>Node7</title>
<polygon fill="none" stroke="#bfbfbf" points="83.1839,-112.5 83.1839,-131.5 127.184,-131.5 127.184,-112.5 83.1839,-112.5"/>
<text text-anchor="middle" x="105.184" y="-119.5" font-family="Helvetica,sans-Serif" font-size="10.00">vector</text>
</g>
<!-- Node4&#45;&gt;Node7 -->
<g id="edge6" class="edge"><title>Node4&#45;&gt;Node7</title>
<path fill="none" stroke="midnightblue" d="M230.574,-168.444C205.288,-159.279 165.017,-144.685 136.96,-134.516"/>
<polygon fill="midnightblue" stroke="midnightblue" points="137.82,-131.105 127.226,-130.988 135.435,-137.686 137.82,-131.105"/>
</g>
<!-- Node8 -->
<g id="node8" class="node"><title>Node8</title>
<polygon fill="none" stroke="#bfbfbf" points="145.684,-112.5 145.684,-131.5 228.684,-131.5 228.684,-112.5 145.684,-112.5"/>
<text text-anchor="middle" x="187.184" y="-119.5" font-family="Helvetica,sans-Serif" font-size="10.00">unordered_map</text>
</g>
<!-- Node4&#45;&gt;Node8 -->
<g id="edge7" class="edge"><title>Node4&#45;&gt;Node8</title>
<path fill="none" stroke="midnightblue" d="M243.419,-168.324C233.418,-160.263 218.297,-148.077 206.253,-138.369"/>
<polygon fill="midnightblue" stroke="midnightblue" points="208.127,-135.384 198.144,-131.834 203.734,-140.834 208.127,-135.384"/>
</g>
<!-- Node9 -->
<g id="node9" class="node"><title>Node9</title>
<polygon fill="none" stroke="#bfbfbf" points="247.184,-112.5 247.184,-131.5 393.184,-131.5 393.184,-112.5 247.184,-112.5"/>
<text text-anchor="middle" x="320.184" y="-119.5" font-family="Helvetica,sans-Serif" font-size="10.00">Framework/ServiceRegistry.h</text>
</g>
<!-- Node4&#45;&gt;Node9 -->
<g id="edge8" class="edge"><title>Node4&#45;&gt;Node9</title>
<path fill="none" stroke="midnightblue" d="M264.788,-168.324C274.64,-160.263 289.535,-148.077 301.399,-138.369"/>
<polygon fill="midnightblue" stroke="midnightblue" points="303.864,-140.875 309.387,-131.834 299.431,-135.457 303.864,-140.875"/>
</g>
<!-- Node10 -->
<g id="node10" class="node"><title>Node10</title>
<g id="a_node10"><a xlink:href="QualityObject_8h_source.html" target="_top" xlink:title="QualityControl/QualityObject.h">
<polygon fill="none" stroke="black" points="411.684,-112.5 411.684,-131.5 560.684,-131.5 560.684,-112.5 411.684,-112.5"/>
<text text-anchor="middle" x="486.184" y="-119.5" font-family="Helvetica,sans-Serif" font-size="10.00">QualityControl/QualityObject.h</text>
</a>
</g>
</g>
<!-- Node4&#45;&gt;Node10 -->
<g id="edge9" class="edge"><title>Node4&#45;&gt;Node10</title>
<path fill="none" stroke="midnightblue" d="M290.945,-168.444C331.247,-159.063 395.993,-143.993 439.768,-133.804"/>
<polygon fill="midnightblue" stroke="midnightblue" points="440.649,-137.192 449.595,-131.516 439.062,-130.375 440.649,-137.192"/>
</g>
<!-- Node4&#45;&gt;Node16 -->
<g id="edge17" class="edge"><title>Node4&#45;&gt;Node16</title>
<path fill="none" stroke="midnightblue" d="M323.586,-168.444C402.317,-158.737 530.458,-142.939 613.02,-132.76"/>
<polygon fill="midnightblue" stroke="midnightblue" points="613.61,-136.214 623.106,-131.516 612.753,-129.266 613.61,-136.214"/>
</g>
<!-- Node11 -->
<g id="node11" class="node"><title>Node11</title>
<polygon fill="none" stroke="#bfbfbf" points="388.684,-0.5 388.684,-19.5 423.684,-19.5 423.684,-0.5 388.684,-0.5"/>
<text text-anchor="middle" x="406.184" y="-7.5" font-family="Helvetica,sans-Serif" font-size="10.00">map</text>
</g>
<!-- Node10&#45;&gt;Node11 -->
<g id="edge10" class="edge"><title>Node10&#45;&gt;Node11</title>
<path fill="none" stroke="midnightblue" d="M418.107,-112.499C373.842,-105.413 321.892,-93.605 308.184,-76 302.723,-68.9865 303.386,-63.4828 308.184,-56 312.324,-49.5432 351.322,-32.913 378.853,-21.78"/>
<polygon fill="midnightblue" stroke="midnightblue" points="380.412,-24.9258 388.392,-17.9561 377.807,-18.4285 380.412,-24.9258"/>
</g>
<!-- Node12 -->
<g id="node12" class="node"><title>Node12</title>
<polygon fill="none" stroke="#bfbfbf" points="456.684,-56.5 456.684,-75.5 515.684,-75.5 515.684,-56.5 456.684,-56.5"/>
<text text-anchor="middle" x="486.184" y="-63.5" font-family="Helvetica,sans-Serif" font-size="10.00">TObject.h</text>
</g>
<!-- Node10&#45;&gt;Node12 -->
<g id="edge11" class="edge"><title>Node10&#45;&gt;Node12</title>
<path fill="none" stroke="midnightblue" d="M486.184,-112.083C486.184,-105.006 486.184,-94.8611 486.184,-85.9865"/>
<polygon fill="midnightblue" stroke="midnightblue" points="489.684,-85.751 486.184,-75.7511 482.684,-85.7511 489.684,-85.751"/>
</g>
<!-- Node10&#45;&gt;Node13 -->
<g id="edge12" class="edge"><title>Node10&#45;&gt;Node13</title>
<path fill="none" stroke="midnightblue" d="M503.215,-112.324C520.214,-103.664 546.56,-90.2424 566.177,-80.249"/>
<polygon fill="midnightblue" stroke="midnightblue" points="567.874,-83.3125 575.195,-75.6545 564.696,-77.0752 567.874,-83.3125"/>
</g>
<!-- Node14 -->
<g id="node14" class="node"><title>Node14</title>
<g id="a_node14"><a xlink:href="Quality_8h.html" target="_top" xlink:title="QualityControl/Quality.h">
<polygon fill="none" stroke="black" points="317.684,-56.5 317.684,-75.5 438.684,-75.5 438.684,-56.5 317.684,-56.5"/>
<text text-anchor="middle" x="378.184" y="-63.5" font-family="Helvetica,sans-Serif" font-size="10.00">QualityControl/Quality.h</text>
</a>
</g>
</g>
<!-- Node10&#45;&gt;Node14 -->
<g id="edge13" class="edge"><title>Node10&#45;&gt;Node14</title>
<path fill="none" stroke="midnightblue" d="M468.832,-112.324C451.512,-103.664 424.669,-90.2424 404.682,-80.249"/>
<polygon fill="midnightblue" stroke="midnightblue" points="406.002,-76.9962 395.493,-75.6545 402.872,-83.2572 406.002,-76.9962"/>
</g>
<!-- Node14&#45;&gt;Node5 -->
<g id="edge15" class="edge"><title>Node14&#45;&gt;Node5</title>
<path fill="none" stroke="midnightblue" d="M373.56,-56.083C369.728,-48.6913 364.16,-37.9533 359.419,-28.8111"/>
<polygon fill="midnightblue" stroke="midnightblue" points="362.432,-27.0175 354.722,-19.7511 356.218,-30.2398 362.432,-27.0175"/>
</g>
<!-- Node14&#45;&gt;Node11 -->
<g id="edge16" class="edge"><title>Node14&#45;&gt;Node11</title>
<path fill="none" stroke="midnightblue" d="M382.808,-56.083C386.64,-48.6913 392.208,-37.9533 396.949,-28.8111"/>
<polygon fill="midnightblue" stroke="midnightblue" points="400.15,-30.2398 401.646,-19.7511 393.936,-27.0175 400.15,-30.2398"/>
</g>
<!-- Node15 -->
<g id="node15" class="node"><title>Node15</title>
<polygon fill="none" stroke="#bfbfbf" points="598.184,-0.5 598.184,-19.5 654.184,-19.5 654.184,-0.5 598.184,-0.5"/>
<text text-anchor="middle" x="626.184" y="-7.5" font-family="Helvetica,sans-Serif" font-size="10.00">Rtypes.h</text>
</g>
<!-- Node14&#45;&gt;Node15 -->
<g id="edge14" class="edge"><title>Node14&#45;&gt;Node15</title>
<path fill="none" stroke="midnightblue" d="M417.48,-56.4435C464.208,-46.269 541.675,-29.401 587.937,-19.3279"/>
<polygon fill="midnightblue" stroke="midnightblue" points="588.845,-22.7124 597.871,-17.1649 587.355,-15.8727 588.845,-22.7124"/>
</g>
<!-- Node16&#45;&gt;Node5 -->
<g id="edge18" class="edge"><title>Node16&#45;&gt;Node5</title>
<path fill="none" stroke="midnightblue" d="M690.446,-112.122C687.123,-97.7345 678.418,-69.5707 659.184,-56 610.227,-21.4581 455.291,-32.2333 380.918,-19.836"/>
<polygon fill="midnightblue" stroke="midnightblue" points="381.459,-16.3759 370.978,-17.9258 380.138,-23.2502 381.459,-16.3759"/>
</g>
<!-- Node16&#45;&gt;Node11 -->
<g id="edge19" class="edge"><title>Node16&#45;&gt;Node11</title>
<path fill="none" stroke="midnightblue" d="M695.386,-112.213C699.774,-98.4565 705.677,-71.7821 692.184,-56 659.146,-17.3571 499.73,-11.6868 434.299,-11.0084"/>
<polygon fill="midnightblue" stroke="midnightblue" points="433.955,-7.50599 423.93,-10.9354 433.905,-14.5058 433.955,-7.50599"/>
</g>
<!-- Node16&#45;&gt;Node12 -->
<g id="edge21" class="edge"><title>Node16&#45;&gt;Node12</title>
<path fill="none" stroke="midnightblue" d="M659.543,-112.444C623.301,-102.943 564.797,-87.6072 525.919,-77.4161"/>
<polygon fill="midnightblue" stroke="midnightblue" points="526.558,-73.9652 515.997,-74.8151 524.783,-80.7365 526.558,-73.9652"/>
</g>
<!-- Node16&#45;&gt;Node13 -->
<g id="edge22" class="edge"><title>Node16&#45;&gt;Node13</title>
<path fill="none" stroke="midnightblue" d="M676.117,-112.324C660.226,-103.743 635.676,-90.486 617.225,-80.5224"/>
<polygon fill="midnightblue" stroke="midnightblue" points="618.673,-77.3264 608.211,-75.6545 615.347,-83.4857 618.673,-77.3264"/>
</g>
<!-- Node16&#45;&gt;Node15 -->
<g id="edge20" class="edge"><title>Node16&#45;&gt;Node15</title>
<path fill="none" stroke="midnightblue" d="M703.658,-112.415C719.068,-99.8114 743.102,-75.6654 730.184,-56 715.694,-33.9421 687.832,-22.645 664.592,-16.8878"/>
<polygon fill="midnightblue" stroke="midnightblue" points="665.157,-13.4282 654.636,-14.679 663.64,-20.262 665.157,-13.4282"/>
</g>
<!-- Node19 -->
<g id="node19" class="node"><title>Node19</title>
<polygon fill="none" stroke="#bfbfbf" points="730.184,-168.5 730.184,-187.5 860.184,-187.5 860.184,-168.5 730.184,-168.5"/>
<text text-anchor="middle" x="795.184" y="-175.5" font-family="Helvetica,sans-Serif" font-size="10.00">InfoLogger/InfoLogger.hxx</text>
</g>
<!-- Node18&#45;&gt;Node19 -->
<g id="edge26" class="edge"><title>Node18&#45;&gt;Node19</title>
<path fill="none" stroke="midnightblue" d="M859.438,-229.975C847.631,-220.608 828.441,-205.384 814.102,-194.008"/>
<polygon fill="midnightblue" stroke="midnightblue" points="815.919,-190.982 805.91,-187.509 811.568,-196.466 815.919,-190.982"/>
</g>
<!-- Node20 -->
<g id="node20" class="node"><title>Node20</title>
<polygon fill="none" stroke="#bfbfbf" points="878.184,-168.5 878.184,-187.5 1040.18,-187.5 1040.18,-168.5 878.184,-168.5"/>
<text text-anchor="middle" x="959.184" y="-175.5" font-family="Helvetica,sans-Serif" font-size="10.00">InfoLogger/InfoLoggerMacros.hxx</text>
</g>
<!-- Node18&#45;&gt;Node20 -->
<g id="edge27" class="edge"><title>Node18&#45;&gt;Node20</title>
<path fill="none" stroke="midnightblue" d="M882.935,-229.975C897.211,-220.431 920.581,-204.807 937.692,-193.368"/>
<polygon fill="midnightblue" stroke="midnightblue" points="940.088,-195.977 946.456,-187.509 936.197,-190.157 940.088,-195.977"/>
</g>
</g>
</svg>
        <g id="navigator" transform="translate(0 0)" fill="#404254">
                <rect fill="#f2f5e9" fill-opacity="0.5" stroke="#606060" stroke-width=".5" x="0" y="0" width="60" height="60"/>
                <use id="zoomplus" xlink:href="#zoomPlus" x="17" y="9" onmousedown="handleZoom(evt,'in')"/>
                <use id="zoomminus" xlink:href="#zoomMin" x="42" y="9" onmousedown="handleZoom(evt,'out')"/>
                <use id="reset" xlink:href="#resetDef" x="30" y="36" onmousedown="handleReset()"/>
                <g id="arrowUp" xlink:href="#dirArrow" transform="translate(30 24)" onmousedown="handlePan(0,-1)">
                  <use xlink:href="#rim" fill="#404040">
                        <set attributeName="fill" to="#808080" begin="arrowUp.mouseover" end="arrowUp.mouseout"/>
                  </use>
                  <path fill="none" stroke="white" stroke-width="1.5" d="M0,-3.0v7 M-2.5,-0.5L0,-3.0L2.5,-0.5"/>
                </g>
                <g id="arrowRight" xlink:href="#dirArrow" transform="rotate(90) translate(36 -43)" onmousedown="handlePan(1,0)">
                  <use xlink:href="#rim" fill="#404040">
                        <set attributeName="fill" to="#808080" begin="arrowRight.mouseover" end="arrowRight.mouseout"/>
                  </use>
                  <path fill="none" stroke="white" stroke-width="1.5" d="M0,-3.0v7 M-2.5,-0.5L0,-3.0L2.5,-0.5"/>
                </g>
                <g id="arrowDown" xlink:href="#dirArrow" transform="rotate(180) translate(-30 -48)" onmousedown="handlePan(0,1)">
                  <use xlink:href="#rim" fill="#404040">
                        <set attributeName="fill" to="#808080" begin="arrowDown.mouseover" end="arrowDown.mouseout"/>
                  </use>
                  <path fill="none" stroke="white" stroke-width="1.5" d="M0,-3.0v7 M-2.5,-0.5L0,-3.0L2.5,-0.5"/>
                </g>
                <g id="arrowLeft" xlink:href="#dirArrow" transform="rotate(270) translate(-36 17)" onmousedown="handlePan(-1,0)">
                  <use xlink:href="#rim" fill="#404040">
                        <set attributeName="fill" to="#808080" begin="arrowLeft.mouseover" end="arrowLeft.mouseout"/>
                  </use>
                  <path fill="none" stroke="white" stroke-width="1.5" d="M0,-3.0v7 M-2.5,-0.5L0,-3.0L2.5,-0.5"/>
                </g>
        </g>
        <svg viewBox="0 0 15 15" width="100%" height="30px" preserveAspectRatio="xMaxYMin meet">
         <g id="arrow_out" transform="scale(0.3 0.3)">
          <a xlink:href="CcdbDatabase_8cxx__incl_org.svg" target="_base">
           <rect id="button" ry="5" rx="5" y="6" x="6" height="38" width="38"
                fill="#f2f5e9" fill-opacity="0.5" stroke="#606060" stroke-width="1.0"/>
           <path id="arrow"
             d="M 11.500037,31.436501 C 11.940474,20.09759 22.043105,11.32322 32.158766,21.979434 L 37.068811,17.246167 C 37.068811,17.246167 37.088388,32 37.088388,32 L 22.160133,31.978069 C 22.160133,31.978069 26.997745,27.140456 26.997745,27.140456 C 18.528582,18.264221 13.291696,25.230495 11.500037,31.436501 z"
             style="fill:#404040;"/>
          </a>
         </g>
        </svg>
</svg>
