<?xml version="1.0" encoding="UTF-8" standalone="no"?>
<!DOCTYPE svg PUBLIC "-//W3C//DTD SVG 1.1//EN"
 "http://www.w3.org/Graphics/SVG/1.1/DTD/svg11.dtd">
<!-- Generated by graphviz version 2.38.0 (20140413.2041)
 -->
<!-- Title: Framework/include/QualityControl/CcdbDatabase.h Pages: 1 -->
<!--zoomable 263 -->
<svg id="main" version="1.1" xmlns="http://www.w3.org/2000/svg" xmlns:xlink="http://www.w3.org/1999/xlink" xml:space="preserve" onload="init(evt)">
<style type="text/css"><![CDATA[
.edge:hover path { stroke: red; }
.edge:hover polygon { stroke: red; fill: red; }
]]></style>
<script type="text/javascript"><![CDATA[
var edges = document.getElementsByTagName('g');
if (edges && edges.length) {
  for (var i=0;i<edges.length;i++) {
    if (edges[i].id.substr(0,4)=='edge') {
      edges[i].setAttribute('class','edge');
    }
  }
}
]]></script>
        <defs>
                <circle id="rim" cx="0" cy="0" r="7"/>
                <circle id="rim2" cx="0" cy="0" r="3.5"/>
                <g id="zoomPlus">
                        <use xlink:href="#rim" fill="#404040">
                                <set attributeName="fill" to="#808080" begin="zoomplus.mouseover" end="zoomplus.mouseout"/>
                        </use>
                        <path d="M-4,0h8M0,-4v8" fill="none" stroke="white" stroke-width="1.5" pointer-events="none"/>
                </g>
                <g id="zoomMin">
                        <use xlink:href="#rim" fill="#404040">
                                <set attributeName="fill" to="#808080" begin="zoomminus.mouseover" end="zoomminus.mouseout"/>
                        </use>
                        <path d="M-4,0h8" fill="none" stroke="white" stroke-width="1.5" pointer-events="none"/>
                </g>
                <g id="dirArrow">
                        <path fill="none" stroke="white" stroke-width="1.5" d="M0,-3.0v7 M-2.5,-0.5L0,-3.0L2.5,-0.5"/>
                </g>
               <g id="resetDef">
                       <use xlink:href="#rim2" fill="#404040">
                               <set attributeName="fill" to="#808080" begin="reset.mouseover" end="reset.mouseout"/>
                       </use>
               </g>
        </defs>

<script type="text/javascript">
var viewWidth = 747;
var viewHeight = 263;
var sectionId = 'dynsection-0';
</script>
<script xlink:href="svgpan.js"/>
<svg id="graph" class="graph">
<g id="viewport">
<title>Framework/include/QualityControl/CcdbDatabase.h</title>
<!-- Node1 -->
<g id="node1" class="node"><title>Node1</title>
<polygon fill="#bfbfbf" stroke="black" points="242.358,-224.5 242.358,-254.5 375.358,-254.5 375.358,-224.5 242.358,-224.5"/>
<text text-anchor="start" x="250.358" y="-242.5" font-family="Helvetica,sans-Serif" font-size="10.00">Framework/include/Quality</text>
<text text-anchor="middle" x="308.858" y="-231.5" font-family="Helvetica,sans-Serif" font-size="10.00">Control/CcdbDatabase.h</text>
</g>
<!-- Node2 -->
<g id="node2" class="node"><title>Node2</title>
<polygon fill="none" stroke="#bfbfbf" points="186.358,-168.5 186.358,-187.5 281.358,-187.5 281.358,-168.5 186.358,-168.5"/>
<text text-anchor="middle" x="233.858" y="-175.5" font-family="Helvetica,sans-Serif" font-size="10.00">CCDB/CcdbApi.h</text>
</g>
<!-- Node1&#45;&gt;Node2 -->
<g id="edge1" class="edge"><title>Node1&#45;&gt;Node2</title>
<path fill="none" stroke="midnightblue" d="M291.084,-224.399C279.511,-215.218 264.435,-203.258 252.662,-193.918"/>
<polygon fill="midnightblue" stroke="midnightblue" points="254.78,-191.131 244.771,-187.658 250.43,-196.615 254.78,-191.131"/>
</g>
<!-- Node3 -->
<g id="node3" class="node"><title>Node3</title>
<g id="a_node3"><a xlink:href="DatabaseInterface_8h.html" target="_top" xlink:title="QualityControl/DatabaseInterface.h">
<polygon fill="none" stroke="black" points="299.858,-168.5 299.858,-187.5 469.858,-187.5 469.858,-168.5 299.858,-168.5"/>
<text text-anchor="middle" x="384.858" y="-175.5" font-family="Helvetica,sans-Serif" font-size="10.00">QualityControl/DatabaseInterface.h</text>
</a>
</g>
</g>
<!-- Node1&#45;&gt;Node3 -->
<g id="edge2" class="edge"><title>Node1&#45;&gt;Node3</title>
<path fill="none" stroke="midnightblue" d="M326.868,-224.399C338.595,-215.218 353.873,-203.258 365.802,-193.918"/>
<polygon fill="midnightblue" stroke="midnightblue" points="368.082,-196.578 373.799,-187.658 363.767,-191.066 368.082,-196.578"/>
</g>
<!-- Node4 -->
<g id="node4" class="node"><title>Node4</title>
<polygon fill="none" stroke="#bfbfbf" points="4.35754,-0.5 4.35754,-19.5 45.3575,-19.5 45.3575,-0.5 4.35754,-0.5"/>
<text text-anchor="middle" x="24.8575" y="-7.5" font-family="Helvetica,sans-Serif" font-size="10.00">string</text>
</g>
<!-- Node3&#45;&gt;Node4 -->
<g id="edge3" class="edge"><title>Node3&#45;&gt;Node4</title>
<path fill="none" stroke="midnightblue" d="M303.399,-168.469C195.64,-156.993 18.6376,-137.395 13.8575,-132 -11.4586,-103.428 4.51664,-54.7817 16.0543,-28.7233"/>
<polygon fill="midnightblue" stroke="midnightblue" points="19.2367,-30.1804 20.3074,-19.6398 12.8972,-27.2121 19.2367,-30.1804"/>
</g>
<!-- Node5 -->
<g id="node5" class="node"><title>Node5</title>
<polygon fill="none" stroke="#bfbfbf" points="358.858,-112.5 358.858,-131.5 410.858,-131.5 410.858,-112.5 358.858,-112.5"/>
<text text-anchor="middle" x="384.858" y="-119.5" font-family="Helvetica,sans-Serif" font-size="10.00">memory</text>
</g>
<!-- Node3&#45;&gt;Node5 -->
<g id="edge4" class="edge"><title>Node3&#45;&gt;Node5</title>
<path fill="none" stroke="midnightblue" d="M384.858,-168.083C384.858,-161.006 384.858,-150.861 384.858,-141.986"/>
<polygon fill="midnightblue" stroke="midnightblue" points="388.358,-141.751 384.858,-131.751 381.358,-141.751 388.358,-141.751"/>
</g>
<!-- Node6 -->
<g id="node6" class="node"><title>Node6</title>
<polygon fill="none" stroke="#bfbfbf" points="428.858,-112.5 428.858,-131.5 472.858,-131.5 472.858,-112.5 428.858,-112.5"/>
<text text-anchor="middle" x="450.858" y="-119.5" font-family="Helvetica,sans-Serif" font-size="10.00">vector</text>
</g>
<!-- Node3&#45;&gt;Node6 -->
<g id="edge5" class="edge"><title>Node3&#45;&gt;Node6</title>
<path fill="none" stroke="midnightblue" d="M395.462,-168.324C405.314,-160.263 420.208,-148.077 432.073,-138.369"/>
<polygon fill="midnightblue" stroke="midnightblue" points="434.537,-140.875 440.061,-131.834 430.105,-135.457 434.537,-140.875"/>
</g>
<!-- Node7 -->
<g id="node7" class="node"><title>Node7</title>
<polygon fill="none" stroke="#bfbfbf" points="491.358,-112.5 491.358,-131.5 574.358,-131.5 574.358,-112.5 491.358,-112.5"/>
<text text-anchor="middle" x="532.858" y="-119.5" font-family="Helvetica,sans-Serif" font-size="10.00">unordered_map</text>
</g>
<!-- Node3&#45;&gt;Node7 -->
<g id="edge6" class="edge"><title>Node3&#45;&gt;Node7</title>
<path fill="none" stroke="midnightblue" d="M408.309,-168.444C432.99,-159.438 472.043,-145.189 499.834,-135.049"/>
<polygon fill="midnightblue" stroke="midnightblue" points="501.322,-138.232 509.516,-131.516 498.922,-131.656 501.322,-138.232"/>
</g>
<!-- Node8 -->
<g id="node8" class="node"><title>Node8</title>
<polygon fill="none" stroke="#bfbfbf" points="592.858,-112.5 592.858,-131.5 738.858,-131.5 738.858,-112.5 592.858,-112.5"/>
<text text-anchor="middle" x="665.858" y="-119.5" font-family="Helvetica,sans-Serif" font-size="10.00">Framework/ServiceRegistry.h</text>
</g>
<!-- Node3&#45;&gt;Node8 -->
<g id="edge7" class="edge"><title>Node3&#45;&gt;Node8</title>
<path fill="none" stroke="midnightblue" d="M429.383,-168.444C478.814,-158.944 558.604,-143.611 611.636,-133.42"/>
<polygon fill="midnightblue" stroke="midnightblue" points="612.381,-136.841 621.541,-131.516 611.06,-129.967 612.381,-136.841"/>
</g>
<!-- Node9 -->
<g id="node9" class="node"><title>Node9</title>
<g id="a_node9"><a xlink:href="QualityObject_8h_source.html" target="_top" xlink:title="QualityControl/QualityObject.h">
<polygon fill="none" stroke="black" points="192.358,-112.5 192.358,-131.5 341.358,-131.5 341.358,-112.5 192.358,-112.5"/>
<text text-anchor="middle" x="266.858" y="-119.5" font-family="Helvetica,sans-Serif" font-size="10.00">QualityControl/QualityObject.h</text>
</a>
</g>
</g>
<!-- Node3&#45;&gt;Node9 -->
<g id="edge8" class="edge"><title>Node3&#45;&gt;Node9</title>
<path fill="none" stroke="midnightblue" d="M366.16,-168.444C346.913,-159.636 316.705,-145.812 294.657,-135.722"/>
<polygon fill="midnightblue" stroke="midnightblue" points="296.017,-132.495 285.468,-131.516 293.104,-138.86 296.017,-132.495"/>
</g>
<!-- Node15 -->
<g id="node15" class="node"><title>Node15</title>
<g id="a_node15"><a xlink:href="MonitorObject_8h.html" target="_top" xlink:title="QualityControl/MonitorObject.h">
<polygon fill="none" stroke="black" points="23.3575,-112.5 23.3575,-131.5 174.358,-131.5 174.358,-112.5 23.3575,-112.5"/>
<text text-anchor="middle" x="98.8575" y="-119.5" font-family="Helvetica,sans-Serif" font-size="10.00">QualityControl/MonitorObject.h</text>
</a>
</g>
</g>
<!-- Node3&#45;&gt;Node15 -->
<g id="edge16" class="edge"><title>Node3&#45;&gt;Node15</title>
<path fill="none" stroke="midnightblue" d="M339.54,-168.444C289.23,-158.944 208.019,-143.611 154.044,-133.42"/>
<polygon fill="midnightblue" stroke="midnightblue" points="154.439,-129.933 143.963,-131.516 153.14,-136.811 154.439,-129.933"/>
</g>
<!-- Node10 -->
<g id="node10" class="node"><title>Node10</title>
<polygon fill="none" stroke="#bfbfbf" points="384.358,-0.5 384.358,-19.5 419.358,-19.5 419.358,-0.5 384.358,-0.5"/>
<text text-anchor="middle" x="401.858" y="-7.5" font-family="Helvetica,sans-Serif" font-size="10.00">map</text>
</g>
<!-- Node9&#45;&gt;Node10 -->
<g id="edge9" class="edge"><title>Node9&#45;&gt;Node10</title>
<path fill="none" stroke="midnightblue" d="M321.792,-112.491C378.952,-103.078 461.459,-87.6979 470.858,-76 487.749,-54.9758 454.741,-34.2329 428.796,-22.0264"/>
<polygon fill="midnightblue" stroke="midnightblue" points="430.219,-18.8289 419.662,-17.9308 427.355,-25.2161 430.219,-18.8289"/>
</g>
<!-- Node11 -->
<g id="node11" class="node"><title>Node11</title>
<polygon fill="none" stroke="#bfbfbf" points="129.358,-56.5 129.358,-75.5 188.358,-75.5 188.358,-56.5 129.358,-56.5"/>
<text text-anchor="middle" x="158.858" y="-63.5" font-family="Helvetica,sans-Serif" font-size="10.00">TObject.h</text>
</g>
<!-- Node9&#45;&gt;Node11 -->
<g id="edge10" class="edge"><title>Node9&#45;&gt;Node11</title>
<path fill="none" stroke="midnightblue" d="M249.505,-112.324C232.186,-103.664 205.342,-90.2424 185.356,-80.249"/>
<polygon fill="midnightblue" stroke="midnightblue" points="186.676,-76.9962 176.167,-75.6545 183.546,-83.2572 186.676,-76.9962"/>
</g>
<!-- Node12 -->
<g id="node12" class="node"><title>Node12</title>
<polygon fill="none" stroke="#bfbfbf" points="206.858,-56.5 206.858,-75.5 322.858,-75.5 322.858,-56.5 206.858,-56.5"/>
<text text-anchor="middle" x="264.858" y="-63.5" font-family="Helvetica,sans-Serif" font-size="10.00">Common/Exceptions.h</text>
</g>
<!-- Node9&#45;&gt;Node12 -->
<g id="edge11" class="edge"><title>Node9&#45;&gt;Node12</title>
<path fill="none" stroke="midnightblue" d="M266.527,-112.083C266.265,-105.006 265.889,-94.8611 265.561,-85.9865"/>
<polygon fill="midnightblue" stroke="midnightblue" points="269.049,-85.6147 265.182,-75.7511 262.054,-85.8738 269.049,-85.6147"/>
</g>
<!-- Node13 -->
<g id="node13" class="node"><title>Node13</title>
<g id="a_node13"><a xlink:href="Quality_8h.html" target="_top" xlink:title="QualityControl/Quality.h">
<polygon fill="none" stroke="black" points="341.358,-56.5 341.358,-75.5 462.358,-75.5 462.358,-56.5 341.358,-56.5"/>
<text text-anchor="middle" x="401.858" y="-63.5" font-family="Helvetica,sans-Serif" font-size="10.00">QualityControl/Quality.h</text>
</a>
</g>
</g>
<!-- Node9&#45;&gt;Node13 -->
<g id="edge12" class="edge"><title>Node9&#45;&gt;Node13</title>
<path fill="none" stroke="midnightblue" d="M288.249,-112.444C310.565,-103.517 345.761,-89.4387 371.065,-79.3168"/>
<polygon fill="midnightblue" stroke="midnightblue" points="372.582,-82.4801 380.566,-75.5164 369.982,-75.9807 372.582,-82.4801"/>
</g>
<!-- Node13&#45;&gt;Node4 -->
<g id="edge14" class="edge"><title>Node13&#45;&gt;Node4</title>
<path fill="none" stroke="midnightblue" d="M342.121,-56.4435C260.669,-44.7767 117.774,-24.309 55.4137,-15.3767"/>
<polygon fill="midnightblue" stroke="midnightblue" points="55.8222,-11.8996 45.427,-13.9463 54.8296,-18.8289 55.8222,-11.8996"/>
</g>
<!-- Node13&#45;&gt;Node10 -->
<g id="edge15" class="edge"><title>Node13&#45;&gt;Node10</title>
<path fill="none" stroke="midnightblue" d="M401.858,-56.083C401.858,-49.0059 401.858,-38.8611 401.858,-29.9865"/>
<polygon fill="midnightblue" stroke="midnightblue" points="405.358,-29.751 401.858,-19.7511 398.358,-29.7511 405.358,-29.751"/>
</g>
<!-- Node14 -->
<g id="node14" class="node"><title>Node14</title>
<polygon fill="none" stroke="#bfbfbf" points="186.858,-0.5 186.858,-19.5 242.858,-19.5 242.858,-0.5 186.858,-0.5"/>
<text text-anchor="middle" x="214.858" y="-7.5" font-family="Helvetica,sans-Serif" font-size="10.00">Rtypes.h</text>
</g>
<!-- Node13&#45;&gt;Node14 -->
<g id="edge13" class="edge"><title>Node13&#45;&gt;Node14</title>
<path fill="none" stroke="midnightblue" d="M372.227,-56.4435C339.983,-47.1323 288.326,-32.2155 253.057,-22.0308"/>
<polygon fill="midnightblue" stroke="midnightblue" points="253.704,-18.5748 243.126,-19.1629 251.762,-25.3 253.704,-18.5748"/>
</g>
<!-- Node15&#45;&gt;Node4 -->
<g id="edge17" class="edge"><title>Node15&#45;&gt;Node4</title>
<path fill="none" stroke="midnightblue" d="M86.1769,-112.351C74.9944,-104.146 58.9508,-90.8857 48.8575,-76 39.1625,-61.7016 32.7922,-42.9903 29.0674,-29.3167"/>
<polygon fill="midnightblue" stroke="midnightblue" points="32.461,-28.4601 26.6344,-19.6114 25.6711,-30.1623 32.461,-28.4601"/>
</g>
<!-- Node15&#45;&gt;Node10 -->
<g id="edge18" class="edge"><title>Node15&#45;&gt;Node10</title>
<path fill="none" stroke="midnightblue" d="M98.9516,-112.297C99.6102,-98.1602 103.105,-70.3491 119.858,-56 157.766,-23.5306 310.495,-14.2992 373.974,-11.8375"/>
<polygon fill="midnightblue" stroke="midnightblue" points="374.188,-15.3322 384.056,-11.4751 373.937,-8.33674 374.188,-15.3322"/>
</g>
<!-- Node15&#45;&gt;Node11 -->
<g id="edge20" class="edge"><title>Node15&#45;&gt;Node11</title>
<path fill="none" stroke="midnightblue" d="M108.498,-112.324C117.367,-104.341 130.732,-92.3128 141.465,-82.6529"/>
<polygon fill="midnightblue" stroke="midnightblue" points="143.951,-85.1251 149.042,-75.8339 139.268,-79.922 143.951,-85.1251"/>
</g>
<!-- Node15&#45;&gt;Node12 -->
<g id="edge21" class="edge"><title>Node15&#45;&gt;Node12</title>
<path fill="none" stroke="midnightblue" d="M125.161,-112.444C153.208,-103.32 197.802,-88.8133 229.042,-78.6509"/>
<polygon fill="midnightblue" stroke="midnightblue" points="230.251,-81.9383 238.677,-75.5164 228.085,-75.2816 230.251,-81.9383"/>
</g>
<!-- Node15&#45;&gt;Node14 -->
<g id="edge19" class="edge"><title>Node15&#45;&gt;Node14</title>
<path fill="none" stroke="midnightblue" d="M93.4028,-112.118C85.9429,-98.7055 74.7843,-73.0421 86.8575,-56 107.017,-27.5444 146.667,-16.9511 176.523,-13.0771"/>
<polygon fill="midnightblue" stroke="midnightblue" points="177.068,-16.5384 186.627,-11.9687 176.305,-9.58009 177.068,-16.5384"/>
</g>
</g>
</svg>
        <g id="navigator" transform="translate(0 0)" fill="#404254">
                <rect fill="#f2f5e9" fill-opacity="0.5" stroke="#606060" stroke-width=".5" x="0" y="0" width="60" height="60"/>
                <use id="zoomplus" xlink:href="#zoomPlus" x="17" y="9" onmousedown="handleZoom(evt,'in')"/>
                <use id="zoomminus" xlink:href="#zoomMin" x="42" y="9" onmousedown="handleZoom(evt,'out')"/>
                <use id="reset" xlink:href="#resetDef" x="30" y="36" onmousedown="handleReset()"/>
                <g id="arrowUp" xlink:href="#dirArrow" transform="translate(30 24)" onmousedown="handlePan(0,-1)">
                  <use xlink:href="#rim" fill="#404040">
                        <set attributeName="fill" to="#808080" begin="arrowUp.mouseover" end="arrowUp.mouseout"/>
                  </use>
                  <path fill="none" stroke="white" stroke-width="1.5" d="M0,-3.0v7 M-2.5,-0.5L0,-3.0L2.5,-0.5"/>
                </g>
                <g id="arrowRight" xlink:href="#dirArrow" transform="rotate(90) translate(36 -43)" onmousedown="handlePan(1,0)">
                  <use xlink:href="#rim" fill="#404040">
                        <set attributeName="fill" to="#808080" begin="arrowRight.mouseover" end="arrowRight.mouseout"/>
                  </use>
                  <path fill="none" stroke="white" stroke-width="1.5" d="M0,-3.0v7 M-2.5,-0.5L0,-3.0L2.5,-0.5"/>
                </g>
                <g id="arrowDown" xlink:href="#dirArrow" transform="rotate(180) translate(-30 -48)" onmousedown="handlePan(0,1)">
                  <use xlink:href="#rim" fill="#404040">
                        <set attributeName="fill" to="#808080" begin="arrowDown.mouseover" end="arrowDown.mouseout"/>
                  </use>
                  <path fill="none" stroke="white" stroke-width="1.5" d="M0,-3.0v7 M-2.5,-0.5L0,-3.0L2.5,-0.5"/>
                </g>
                <g id="arrowLeft" xlink:href="#dirArrow" transform="rotate(270) translate(-36 17)" onmousedown="handlePan(-1,0)">
                  <use xlink:href="#rim" fill="#404040">
                        <set attributeName="fill" to="#808080" begin="arrowLeft.mouseover" end="arrowLeft.mouseout"/>
                  </use>
                  <path fill="none" stroke="white" stroke-width="1.5" d="M0,-3.0v7 M-2.5,-0.5L0,-3.0L2.5,-0.5"/>
                </g>
        </g>
        <svg viewBox="0 0 15 15" width="100%" height="30px" preserveAspectRatio="xMaxYMin meet">
         <g id="arrow_out" transform="scale(0.3 0.3)">
          <a xlink:href="CcdbDatabase_8h__incl_org.svg" target="_base">
           <rect id="button" ry="5" rx="5" y="6" x="6" height="38" width="38"
                fill="#f2f5e9" fill-opacity="0.5" stroke="#606060" stroke-width="1.0"/>
           <path id="arrow"
             d="M 11.500037,31.436501 C 11.940474,20.09759 22.043105,11.32322 32.158766,21.979434 L 37.068811,17.246167 C 37.068811,17.246167 37.088388,32 37.088388,32 L 22.160133,31.978069 C 22.160133,31.978069 26.997745,27.140456 26.997745,27.140456 C 18.528582,18.264221 13.291696,25.230495 11.500037,31.436501 z"
             style="fill:#404040;"/>
          </a>
         </g>
        </svg>
</svg>
