<?xml version="1.0" encoding="UTF-8" standalone="no"?>
<!DOCTYPE svg PUBLIC "-//W3C//DTD SVG 1.1//EN"
 "http://www.w3.org/Graphics/SVG/1.1/DTD/svg11.dtd">
<!-- Generated by graphviz version 2.38.0 (20140413.2041)
 -->
<!-- Title: Modules/FT0/src/ChannelsCheck.cxx Pages: 1 -->
<svg width="1255pt" height="263pt"
 viewBox="0.00 0.00 1254.50 263.00" xmlns="http://www.w3.org/2000/svg" xmlns:xlink="http://www.w3.org/1999/xlink">
<g id="graph0" class="graph" transform="scale(1 1) rotate(0) translate(4 259)">
<title>Modules/FT0/src/ChannelsCheck.cxx</title>
<!-- Node1 -->
<g id="node1" class="node"><title>Node1</title>
<polygon fill="#bfbfbf" stroke="black" points="337.5,-224.5 337.5,-254.5 471.5,-254.5 471.5,-224.5 337.5,-224.5"/>
<text text-anchor="start" x="345.5" y="-242.5" font-family="Helvetica,sans-Serif" font-size="10.00">Modules/FT0/src/Channels</text>
<text text-anchor="middle" x="404.5" y="-231.5" font-family="Helvetica,sans-Serif" font-size="10.00">Check.cxx</text>
</g>
<!-- Node2 -->
<g id="node2" class="node"><title>Node2</title>
<polygon fill="none" stroke="#bfbfbf" points="0,-168.5 0,-187.5 97,-187.5 97,-168.5 0,-168.5"/>
<text text-anchor="middle" x="48.5" y="-175.5" font-family="Helvetica,sans-Serif" font-size="10.00">fairlogger/Logger.h</text>
</g>
<!-- Node1&#45;&gt;Node2 -->
<g id="edge1" class="edge"><title>Node1&#45;&gt;Node2</title>
<path fill="none" stroke="midnightblue" d="M337.121,-227.239C270.766,-216.148 170.433,-199.379 107.239,-188.817"/>
<polygon fill="midnightblue" stroke="midnightblue" points="107.483,-185.31 97.0429,-187.113 106.329,-192.214 107.483,-185.31"/>
</g>
<!-- Node3 -->
<g id="node3" class="node"><title>Node3</title>
<polygon fill="none" stroke="#bfbfbf" points="114.5,-168.5 114.5,-187.5 158.5,-187.5 158.5,-168.5 114.5,-168.5"/>
<text text-anchor="middle" x="136.5" y="-175.5" font-family="Helvetica,sans-Serif" font-size="10.00">TH1.h</text>
</g>
<!-- Node1&#45;&gt;Node3 -->
<g id="edge2" class="edge"><title>Node1&#45;&gt;Node3</title>
<path fill="none" stroke="midnightblue" d="M337.288,-225.532C292.096,-216.499 230.999,-203.688 168.79,-188.193"/>
<polygon fill="midnightblue" stroke="midnightblue" points="169.35,-184.725 158.798,-185.684 167.644,-191.514 169.35,-184.725"/>
</g>
<!-- Node4 -->
<g id="node4" class="node"><title>Node4</title>
<polygon fill="none" stroke="#bfbfbf" points="176.5,-168.5 176.5,-187.5 226.5,-187.5 226.5,-168.5 176.5,-168.5"/>
<text text-anchor="middle" x="201.5" y="-175.5" font-family="Helvetica,sans-Serif" font-size="10.00">TTree.h</text>
</g>
<!-- Node1&#45;&gt;Node4 -->
<g id="edge3" class="edge"><title>Node1&#45;&gt;Node4</title>
<path fill="none" stroke="midnightblue" d="M356.649,-224.475C319.681,-213.639 269.389,-198.899 236.214,-189.175"/>
<polygon fill="midnightblue" stroke="midnightblue" points="237.082,-185.782 226.501,-186.328 235.113,-192.499 237.082,-185.782"/>
</g>
<!-- Node5 -->
<g id="node5" class="node"><title>Node5</title>
<g id="a_node5"><a xlink:href="ChannelsCheck_8h.html" target="_top" xlink:title="FT0/ChannelsCheck.h">
<polygon fill="none" stroke="black" points="299,-168.5 299,-187.5 414,-187.5 414,-168.5 299,-168.5"/>
<text text-anchor="middle" x="356.5" y="-175.5" font-family="Helvetica,sans-Serif" font-size="10.00">FT0/ChannelsCheck.h</text>
</a>
</g>
</g>
<!-- Node1&#45;&gt;Node5 -->
<g id="edge4" class="edge"><title>Node1&#45;&gt;Node5</title>
<path fill="none" stroke="midnightblue" d="M393.125,-224.399C386.15,-215.753 377.186,-204.642 369.872,-195.576"/>
<polygon fill="midnightblue" stroke="midnightblue" points="372.487,-193.243 363.484,-187.658 367.039,-197.638 372.487,-193.243"/>
</g>
<!-- Node8 -->
<g id="node8" class="node"><title>Node8</title>
<g id="a_node8"><a xlink:href="MonitorObject_8h.html" target="_top" xlink:title="QualityControl/MonitorObject.h">
<polygon fill="none" stroke="black" points="311,-56.5 311,-75.5 462,-75.5 462,-56.5 311,-56.5"/>
<text text-anchor="middle" x="386.5" y="-63.5" font-family="Helvetica,sans-Serif" font-size="10.00">QualityControl/MonitorObject.h</text>
</a>
</g>
</g>
<!-- Node1&#45;&gt;Node8 -->
<g id="edge17" class="edge"><title>Node1&#45;&gt;Node8</title>
<path fill="none" stroke="midnightblue" d="M413.291,-224.329C426.945,-200.387 450.046,-150.749 433.5,-112 428.353,-99.9469 418.219,-89.5764 408.674,-81.8389"/>
<polygon fill="midnightblue" stroke="midnightblue" points="410.672,-78.9619 400.578,-75.7409 406.46,-84.5532 410.672,-78.9619"/>
</g>
<!-- Node14 -->
<g id="node14" class="node"><title>Node14</title>
<g id="a_node14"><a xlink:href="Quality_8h.html" target="_top" xlink:title="QualityControl/Quality.h">
<polygon fill="none" stroke="black" points="71,-56.5 71,-75.5 192,-75.5 192,-56.5 71,-56.5"/>
<text text-anchor="middle" x="131.5" y="-63.5" font-family="Helvetica,sans-Serif" font-size="10.00">QualityControl/Quality.h</text>
</a>
</g>
</g>
<!-- Node1&#45;&gt;Node14 -->
<g id="edge18" class="edge"><title>Node1&#45;&gt;Node14</title>
<path fill="none" stroke="midnightblue" d="M366.965,-224.457C344.192,-215.313 314.913,-202.427 290.5,-188 235.561,-155.532 177.472,-107.242 149.132,-82.6365"/>
<polygon fill="midnightblue" stroke="midnightblue" points="151.158,-79.7584 141.328,-75.8047 146.547,-85.0252 151.158,-79.7584"/>
</g>
<!-- Node15 -->
<g id="node15" class="node"><title>Node15</title>
<g id="a_node15"><a xlink:href="QcInfoLogger_8h.html" target="_top" xlink:title="QualityControl/QcInfoLogger.h">
<polygon fill="none" stroke="black" points="927,-168.5 927,-187.5 1076,-187.5 1076,-168.5 927,-168.5"/>
<text text-anchor="middle" x="1001.5" y="-175.5" font-family="Helvetica,sans-Serif" font-size="10.00">QualityControl/QcInfoLogger.h</text>
</a>
</g>
</g>
<!-- Node1&#45;&gt;Node15 -->
<g id="edge19" class="edge"><title>Node1&#45;&gt;Node15</title>
<path fill="none" stroke="midnightblue" d="M471.534,-231.819C580.751,-220.934 796.9,-199.391 916.654,-187.456"/>
<polygon fill="midnightblue" stroke="midnightblue" points="917.27,-190.912 926.874,-186.438 916.576,-183.947 917.27,-190.912"/>
</g>
<!-- Node18 -->
<g id="node18" class="node"><title>Node18</title>
<polygon fill="none" stroke="#bfbfbf" points="618.5,-112.5 618.5,-131.5 740.5,-131.5 740.5,-112.5 618.5,-112.5"/>
<text text-anchor="middle" x="679.5" y="-119.5" font-family="Helvetica,sans-Serif" font-size="10.00">DataFormatsFT0/Digit.h</text>
</g>
<!-- Node1&#45;&gt;Node18 -->
<g id="edge22" class="edge"><title>Node1&#45;&gt;Node18</title>
<path fill="none" stroke="midnightblue" d="M471.907,-228.861C511.245,-221.404 560.951,-208.743 601.5,-188 626.129,-175.401 649.874,-153.822 664.564,-139.007"/>
<polygon fill="midnightblue" stroke="midnightblue" points="667.313,-141.198 671.741,-131.573 662.277,-136.336 667.313,-141.198"/>
</g>
<!-- Node19 -->
<g id="node19" class="node"><title>Node19</title>
<polygon fill="none" stroke="#bfbfbf" points="759,-112.5 759,-131.5 918,-131.5 918,-112.5 759,-112.5"/>
<text text-anchor="middle" x="838.5" y="-119.5" font-family="Helvetica,sans-Serif" font-size="10.00">DataFormatsFT0/ChannelData.h</text>
</g>
<!-- Node1&#45;&gt;Node19 -->
<g id="edge23" class="edge"><title>Node1&#45;&gt;Node19</title>
<path fill="none" stroke="midnightblue" d="M471.605,-225.031C516.753,-215.596 577.486,-202.18 630.5,-188 692.12,-171.518 762.793,-148.553 803.868,-134.793"/>
<polygon fill="midnightblue" stroke="midnightblue" points="805.04,-138.091 813.403,-131.585 802.809,-131.456 805.04,-138.091"/>
</g>
<!-- Node20 -->
<g id="node20" class="node"><title>Node20</title>
<g id="a_node20"><a xlink:href="Utilities_8h.html" target="_top" xlink:title="FT0/Utilities.h">
<polygon fill="none" stroke="black" points="514.5,-168.5 514.5,-187.5 592.5,-187.5 592.5,-168.5 514.5,-168.5"/>
<text text-anchor="middle" x="553.5" y="-175.5" font-family="Helvetica,sans-Serif" font-size="10.00">FT0/Utilities.h</text>
</a>
</g>
</g>
<!-- Node1&#45;&gt;Node20 -->
<g id="edge24" class="edge"><title>Node1&#45;&gt;Node20</title>
<path fill="none" stroke="midnightblue" d="M439.811,-224.399C464.922,-214.372 498.337,-201.028 522.435,-191.405"/>
<polygon fill="midnightblue" stroke="midnightblue" points="523.83,-194.617 531.819,-187.658 521.234,-188.116 523.83,-194.617"/>
</g>
<!-- Node6 -->
<g id="node6" class="node"><title>Node6</title>
<g id="a_node6"><a xlink:href="CheckInterface_8h.html" target="_top" xlink:title="QualityControl/CheckInterface.h">
<polygon fill="none" stroke="black" points="267,-112.5 267,-131.5 424,-131.5 424,-112.5 267,-112.5"/>
<text text-anchor="middle" x="345.5" y="-119.5" font-family="Helvetica,sans-Serif" font-size="10.00">QualityControl/CheckInterface.h</text>
</a>
</g>
</g>
<!-- Node5&#45;&gt;Node6 -->
<g id="edge5" class="edge"><title>Node5&#45;&gt;Node6</title>
<path fill="none" stroke="midnightblue" d="M354.684,-168.083C353.226,-160.927 351.129,-150.635 349.307,-141.691"/>
<polygon fill="midnightblue" stroke="midnightblue" points="352.708,-140.851 347.283,-131.751 345.849,-142.248 352.708,-140.851"/>
</g>
<!-- Node7 -->
<g id="node7" class="node"><title>Node7</title>
<polygon fill="none" stroke="#bfbfbf" points="210,-56.5 210,-75.5 293,-75.5 293,-56.5 210,-56.5"/>
<text text-anchor="middle" x="251.5" y="-63.5" font-family="Helvetica,sans-Serif" font-size="10.00">unordered_map</text>
</g>
<!-- Node6&#45;&gt;Node7 -->
<g id="edge6" class="edge"><title>Node6&#45;&gt;Node7</title>
<path fill="none" stroke="midnightblue" d="M330.397,-112.324C315.597,-103.822 292.806,-90.7288 275.518,-80.7975"/>
<polygon fill="midnightblue" stroke="midnightblue" points="276.98,-77.6009 266.565,-75.6545 273.493,-83.6707 276.98,-77.6009"/>
</g>
<!-- Node6&#45;&gt;Node8 -->
<g id="edge7" class="edge"><title>Node6&#45;&gt;Node8</title>
<path fill="none" stroke="midnightblue" d="M352.27,-112.083C358.062,-104.455 366.558,-93.2645 373.638,-83.9408"/>
<polygon fill="midnightblue" stroke="midnightblue" points="376.596,-85.8321 379.856,-75.7511 371.021,-81.5991 376.596,-85.8321"/>
</g>
<!-- Node6&#45;&gt;Node14 -->
<g id="edge13" class="edge"><title>Node6&#45;&gt;Node14</title>
<path fill="none" stroke="midnightblue" d="M311.591,-112.444C274.651,-103.122 215.446,-88.1828 175.082,-77.9972"/>
<polygon fill="midnightblue" stroke="midnightblue" points="175.803,-74.5695 165.25,-75.5164 174.09,-81.3568 175.803,-74.5695"/>
</g>
<!-- Node9 -->
<g id="node9" class="node"><title>Node9</title>
<polygon fill="none" stroke="#bfbfbf" points="215,-0.5 215,-19.5 256,-19.5 256,-0.5 215,-0.5"/>
<text text-anchor="middle" x="235.5" y="-7.5" font-family="Helvetica,sans-Serif" font-size="10.00">string</text>
</g>
<!-- Node8&#45;&gt;Node9 -->
<g id="edge8" class="edge"><title>Node8&#45;&gt;Node9</title>
<path fill="none" stroke="midnightblue" d="M362.574,-56.4435C336.389,-47.0794 294.35,-32.0456 265.86,-21.8574"/>
<polygon fill="midnightblue" stroke="midnightblue" points="266.991,-18.5448 256.397,-18.473 264.634,-25.136 266.991,-18.5448"/>
</g>
<!-- Node10 -->
<g id="node10" class="node"><title>Node10</title>
<polygon fill="none" stroke="#bfbfbf" points="146,-0.5 146,-19.5 181,-19.5 181,-0.5 146,-0.5"/>
<text text-anchor="middle" x="163.5" y="-7.5" font-family="Helvetica,sans-Serif" font-size="10.00">map</text>
</g>
<!-- Node8&#45;&gt;Node10 -->
<g id="edge9" class="edge"><title>Node8&#45;&gt;Node10</title>
<path fill="none" stroke="midnightblue" d="M351.165,-56.4435C306.746,-45.6874 231.436,-27.4509 191.044,-17.6698"/>
<polygon fill="midnightblue" stroke="midnightblue" points="191.642,-14.2135 181.099,-15.2616 189.994,-21.0169 191.642,-14.2135"/>
</g>
<!-- Node11 -->
<g id="node11" class="node"><title>Node11</title>
<polygon fill="none" stroke="#bfbfbf" points="416.5,-0.5 416.5,-19.5 472.5,-19.5 472.5,-0.5 416.5,-0.5"/>
<text text-anchor="middle" x="444.5" y="-7.5" font-family="Helvetica,sans-Serif" font-size="10.00">Rtypes.h</text>
</g>
<!-- Node8&#45;&gt;Node11 -->
<g id="edge10" class="edge"><title>Node8&#45;&gt;Node11</title>
<path fill="none" stroke="midnightblue" d="M395.819,-56.324C404.393,-48.3414 417.312,-36.3128 427.688,-26.6529"/>
<polygon fill="midnightblue" stroke="midnightblue" points="430.078,-29.2098 435.012,-19.8339 425.308,-24.0865 430.078,-29.2098"/>
</g>
<!-- Node12 -->
<g id="node12" class="node"><title>Node12</title>
<polygon fill="none" stroke="#bfbfbf" points="495,-0.5 495,-19.5 554,-19.5 554,-0.5 495,-0.5"/>
<text text-anchor="middle" x="524.5" y="-7.5" font-family="Helvetica,sans-Serif" font-size="10.00">TObject.h</text>
</g>
<!-- Node8&#45;&gt;Node12 -->
<g id="edge11" class="edge"><title>Node8&#45;&gt;Node12</title>
<path fill="none" stroke="midnightblue" d="M408.367,-56.4435C431.279,-47.4776 467.475,-33.314 493.366,-23.1827"/>
<polygon fill="midnightblue" stroke="midnightblue" points="494.699,-26.4198 502.736,-19.5164 492.148,-19.9011 494.699,-26.4198"/>
</g>
<!-- Node13 -->
<g id="node13" class="node"><title>Node13</title>
<polygon fill="none" stroke="#bfbfbf" points="282.5,-0.5 282.5,-19.5 398.5,-19.5 398.5,-0.5 282.5,-0.5"/>
<text text-anchor="middle" x="340.5" y="-7.5" font-family="Helvetica,sans-Serif" font-size="10.00">Common/Exceptions.h</text>
</g>
<!-- Node8&#45;&gt;Node13 -->
<g id="edge12" class="edge"><title>Node8&#45;&gt;Node13</title>
<path fill="none" stroke="midnightblue" d="M378.904,-56.083C372.273,-48.2982 362.479,-36.8015 354.442,-27.3665"/>
<polygon fill="midnightblue" stroke="midnightblue" points="357.104,-25.0939 347.955,-19.7511 351.775,-29.6332 357.104,-25.0939"/>
</g>
<!-- Node14&#45;&gt;Node9 -->
<g id="edge15" class="edge"><title>Node14&#45;&gt;Node9</title>
<path fill="none" stroke="midnightblue" d="M148.209,-56.324C164.812,-47.7034 190.502,-34.3643 209.72,-24.3855"/>
<polygon fill="midnightblue" stroke="midnightblue" points="211.57,-27.3689 218.832,-19.6545 208.344,-21.1565 211.57,-27.3689"/>
</g>
<!-- Node14&#45;&gt;Node10 -->
<g id="edge16" class="edge"><title>Node14&#45;&gt;Node10</title>
<path fill="none" stroke="midnightblue" d="M136.784,-56.083C141.211,-48.6127 147.663,-37.7244 153.118,-28.5199"/>
<polygon fill="midnightblue" stroke="midnightblue" points="156.227,-30.1383 158.314,-19.7511 150.205,-26.5697 156.227,-30.1383"/>
</g>
<!-- Node14&#45;&gt;Node11 -->
<g id="edge14" class="edge"><title>Node14&#45;&gt;Node11</title>
<path fill="none" stroke="midnightblue" d="M192.045,-56.4987C245.827,-48.6363 326.776,-36.0444 406.101,-20.1602"/>
<polygon fill="midnightblue" stroke="midnightblue" points="407.161,-23.517 416.268,-18.1042 405.773,-16.6558 407.161,-23.517"/>
</g>
<!-- Node16 -->
<g id="node16" class="node"><title>Node16</title>
<polygon fill="none" stroke="#bfbfbf" points="936.5,-112.5 936.5,-131.5 1066.5,-131.5 1066.5,-112.5 936.5,-112.5"/>
<text text-anchor="middle" x="1001.5" y="-119.5" font-family="Helvetica,sans-Serif" font-size="10.00">InfoLogger/InfoLogger.hxx</text>
</g>
<!-- Node15&#45;&gt;Node16 -->
<g id="edge20" class="edge"><title>Node15&#45;&gt;Node16</title>
<path fill="none" stroke="midnightblue" d="M1001.5,-168.083C1001.5,-161.006 1001.5,-150.861 1001.5,-141.986"/>
<polygon fill="midnightblue" stroke="midnightblue" points="1005,-141.751 1001.5,-131.751 998,-141.751 1005,-141.751"/>
</g>
<!-- Node17 -->
<g id="node17" class="node"><title>Node17</title>
<polygon fill="none" stroke="#bfbfbf" points="1084.5,-112.5 1084.5,-131.5 1246.5,-131.5 1246.5,-112.5 1084.5,-112.5"/>
<text text-anchor="middle" x="1165.5" y="-119.5" font-family="Helvetica,sans-Serif" font-size="10.00">InfoLogger/InfoLoggerMacros.hxx</text>
</g>
<!-- Node15&#45;&gt;Node17 -->
<g id="edge21" class="edge"><title>Node15&#45;&gt;Node17</title>
<path fill="none" stroke="midnightblue" d="M1027.49,-168.444C1055.2,-159.32 1099.25,-144.813 1130.12,-134.651"/>
<polygon fill="midnightblue" stroke="midnightblue" points="1131.23,-137.968 1139.64,-131.516 1129.04,-131.32 1131.23,-137.968"/>
</g>
<!-- Node20&#45;&gt;Node11 -->
<g id="edge28" class="edge"><title>Node20&#45;&gt;Node11</title>
<path fill="none" stroke="midnightblue" d="M547.64,-168.075C530.259,-141.606 478.782,-63.2089 455.8,-28.2097"/>
<polygon fill="midnightblue" stroke="midnightblue" points="458.541,-26.0061 450.126,-19.5681 452.689,-29.8482 458.541,-26.0061"/>
</g>
<!-- Node20&#45;&gt;Node12 -->
<g id="edge29" class="edge"><title>Node20&#45;&gt;Node12</title>
<path fill="none" stroke="midnightblue" d="M551.941,-168.075C547.376,-141.945 533.971,-65.2106 527.745,-29.577"/>
<polygon fill="midnightblue" stroke="midnightblue" points="531.166,-28.8166 525.997,-19.5681 524.27,-30.0213 531.166,-28.8166"/>
</g>
<!-- Node20&#45;&gt;Node18 -->
<g id="edge26" class="edge"><title>Node20&#45;&gt;Node18</title>
<path fill="none" stroke="midnightblue" d="M573.465,-168.444C594.109,-159.596 626.563,-145.687 650.132,-135.586"/>
<polygon fill="midnightblue" stroke="midnightblue" points="651.816,-138.673 659.628,-131.516 649.058,-132.239 651.816,-138.673"/>
</g>
<!-- Node20&#45;&gt;Node19 -->
<g id="edge27" class="edge"><title>Node20&#45;&gt;Node19</title>
<path fill="none" stroke="midnightblue" d="M592.53,-169.605C641.9,-160.25 727.221,-144.085 783.262,-133.466"/>
<polygon fill="midnightblue" stroke="midnightblue" points="784.197,-136.851 793.37,-131.551 782.894,-129.974 784.197,-136.851"/>
</g>
<!-- Node21 -->
<g id="node21" class="node"><title>Node21</title>
<polygon fill="none" stroke="#bfbfbf" points="556.5,-112.5 556.5,-131.5 600.5,-131.5 600.5,-112.5 556.5,-112.5"/>
<text text-anchor="middle" x="578.5" y="-119.5" font-family="Helvetica,sans-Serif" font-size="10.00">vector</text>
</g>
<!-- Node20&#45;&gt;Node21 -->
<g id="edge25" class="edge"><title>Node20&#45;&gt;Node21</title>
<path fill="none" stroke="midnightblue" d="M557.628,-168.083C561.014,-160.77 565.916,-150.181 570.119,-141.103"/>
<polygon fill="midnightblue" stroke="midnightblue" points="573.423,-142.296 574.449,-131.751 567.071,-139.355 573.423,-142.296"/>
</g>
</g>
</svg>
