<?xml version="1.0" encoding="UTF-8" standalone="no"?>
<!DOCTYPE svg PUBLIC "-//W3C//DTD SVG 1.1//EN"
 "http://www.w3.org/Graphics/SVG/1.1/DTD/svg11.dtd">
<!-- Generated by graphviz version 2.38.0 (20140413.2041)
 -->
<!-- Title: Framework/src/CheckRunnerFactory.cxx Pages: 1 -->
<svg width="1996pt" height="341pt"
 viewBox="0.00 0.00 1996.05 341.00" xmlns="http://www.w3.org/2000/svg" xmlns:xlink="http://www.w3.org/1999/xlink">
<g id="graph0" class="graph" transform="scale(1 1) rotate(0) translate(4 337)">
<title>Framework/src/CheckRunnerFactory.cxx</title>
<!-- Node1 -->
<g id="node1" class="node"><title>Node1</title>
<polygon fill="#bfbfbf" stroke="black" points="1092.44,-302.5 1092.44,-332.5 1237.44,-332.5 1237.44,-302.5 1092.44,-302.5"/>
<text text-anchor="start" x="1100.44" y="-320.5" font-family="Helvetica,sans-Serif" font-size="10.00">Framework/src/CheckRunner</text>
<text text-anchor="middle" x="1164.94" y="-309.5" font-family="Helvetica,sans-Serif" font-size="10.00">Factory.cxx</text>
</g>
<!-- Node2 -->
<g id="node2" class="node"><title>Node2</title>
<polygon fill="none" stroke="#bfbfbf" points="1416.94,-112.5 1416.94,-131.5 1460.94,-131.5 1460.94,-112.5 1416.94,-112.5"/>
<text text-anchor="middle" x="1438.94" y="-119.5" font-family="Helvetica,sans-Serif" font-size="10.00">vector</text>
</g>
<!-- Node1&#45;&gt;Node2 -->
<g id="edge1" class="edge"><title>Node1&#45;&gt;Node2</title>
<path fill="none" stroke="midnightblue" d="M1196.75,-302.389C1238.2,-284.487 1313.25,-253.698 1379.94,-235 1463.95,-211.442 1517.18,-266.119 1572.94,-199 1581.74,-188.402 1580.98,-179.186 1572.94,-168 1569.83,-163.679 1509.39,-144.546 1470.75,-132.663"/>
<polygon fill="midnightblue" stroke="midnightblue" points="1471.56,-129.25 1460.97,-129.666 1469.51,-135.943 1471.56,-129.25"/>
</g>
<!-- Node3 -->
<g id="node3" class="node"><title>Node3</title>
<polygon fill="none" stroke="#bfbfbf" points="195.935,-174 195.935,-193 273.935,-193 273.935,-174 195.935,-174"/>
<text text-anchor="middle" x="234.935" y="-181" font-family="Helvetica,sans-Serif" font-size="10.00">unordered_set</text>
</g>
<!-- Node1&#45;&gt;Node3 -->
<g id="edge2" class="edge"><title>Node1&#45;&gt;Node3</title>
<path fill="none" stroke="midnightblue" d="M1092.26,-317.139C888.922,-318.281 324.781,-316.791 259.935,-266 241.031,-251.193 236.047,-222.419 234.932,-203.329"/>
<polygon fill="midnightblue" stroke="midnightblue" points="238.425,-203.044 234.647,-193.146 231.428,-203.24 238.425,-203.044"/>
</g>
<!-- Node4 -->
<g id="node4" class="node"><title>Node4</title>
<polygon fill="none" stroke="#bfbfbf" points="11.935,-112.5 11.935,-131.5 175.935,-131.5 175.935,-112.5 11.935,-112.5"/>
<text text-anchor="middle" x="93.935" y="-119.5" font-family="Helvetica,sans-Serif" font-size="10.00">Framework/DataProcessorSpec.h</text>
</g>
<!-- Node1&#45;&gt;Node4 -->
<g id="edge3" class="edge"><title>Node1&#45;&gt;Node4</title>
<path fill="none" stroke="midnightblue" d="M1092.34,-314.687C903.661,-309.633 401.074,-293.894 236.935,-266 131.548,-248.091 70.1378,-284.47 5.93503,-199 -2.33988,-187.984 -1.25527,-179.753 5.93503,-168 15.4421,-152.46 32.1981,-142.07 48.5557,-135.231"/>
<polygon fill="midnightblue" stroke="midnightblue" points="49.9835,-138.433 58.0829,-131.603 47.492,-131.891 49.9835,-138.433"/>
</g>
<!-- Node5 -->
<g id="node5" class="node"><title>Node5</title>
<polygon fill="none" stroke="#bfbfbf" points="1388.94,-241 1388.94,-260 1518.94,-260 1518.94,-241 1388.94,-241"/>
<text text-anchor="middle" x="1453.94" y="-248" font-family="Helvetica,sans-Serif" font-size="10.00">Framework/DeviceSpec.h</text>
</g>
<!-- Node1&#45;&gt;Node5 -->
<g id="edge4" class="edge"><title>Node1&#45;&gt;Node5</title>
<path fill="none" stroke="midnightblue" d="M1227.29,-302.476C1280.89,-290.421 1357.07,-273.286 1406,-262.28"/>
<polygon fill="midnightblue" stroke="midnightblue" points="1407.03,-265.638 1416.02,-260.029 1405.49,-258.808 1407.03,-265.638"/>
</g>
<!-- Node6 -->
<g id="node6" class="node"><title>Node6</title>
<polygon fill="none" stroke="#bfbfbf" points="1536.94,-241 1536.94,-260 1676.94,-260 1676.94,-241 1536.94,-241"/>
<text text-anchor="middle" x="1606.94" y="-248" font-family="Helvetica,sans-Serif" font-size="10.00">Framework/DataSpecUtils.h</text>
</g>
<!-- Node1&#45;&gt;Node6 -->
<g id="edge5" class="edge"><title>Node1&#45;&gt;Node6</title>
<path fill="none" stroke="midnightblue" d="M1237.73,-307.314C1311.12,-297.833 1427.59,-282.182 1527.94,-266 1535.86,-264.722 1544.22,-263.285 1552.42,-261.825"/>
<polygon fill="midnightblue" stroke="midnightblue" points="1553.07,-265.264 1562.29,-260.043 1551.83,-258.375 1553.07,-265.264"/>
</g>
<!-- Node7 -->
<g id="node7" class="node"><title>Node7</title>
<polygon fill="none" stroke="#bfbfbf" points="1695.44,-235.5 1695.44,-265.5 1840.44,-265.5 1840.44,-235.5 1695.44,-235.5"/>
<text text-anchor="start" x="1703.44" y="-253.5" font-family="Helvetica,sans-Serif" font-size="10.00">Framework/CompletionPolicy</text>
<text text-anchor="middle" x="1767.94" y="-242.5" font-family="Helvetica,sans-Serif" font-size="10.00">Helpers.h</text>
</g>
<!-- Node1&#45;&gt;Node7 -->
<g id="edge6" class="edge"><title>Node1&#45;&gt;Node7</title>
<path fill="none" stroke="midnightblue" d="M1237.63,-311.263C1336.45,-303.741 1518.89,-288.425 1684.71,-266.096"/>
<polygon fill="midnightblue" stroke="midnightblue" points="1685.67,-269.498 1695.1,-264.684 1684.72,-262.562 1685.67,-269.498"/>
</g>
<!-- Node8 -->
<g id="node8" class="node"><title>Node8</title>
<g id="a_node8"><a xlink:href="CheckRunner_8h.html" target="_top" xlink:title="QualityControl/CheckRunner.h">
<polygon fill="none" stroke="black" points="893.935,-241 893.935,-260 1043.94,-260 1043.94,-241 893.935,-241"/>
<text text-anchor="middle" x="968.935" y="-248" font-family="Helvetica,sans-Serif" font-size="10.00">QualityControl/CheckRunner.h</text>
</a>
</g>
</g>
<!-- Node1&#45;&gt;Node8 -->
<g id="edge7" class="edge"><title>Node1&#45;&gt;Node8</title>
<path fill="none" stroke="midnightblue" d="M1122.41,-302.396C1087.1,-290.688 1037.48,-274.231 1004.32,-263.234"/>
<polygon fill="midnightblue" stroke="midnightblue" points="1005.18,-259.833 994.587,-260.007 1002.98,-266.477 1005.18,-259.833"/>
</g>
<!-- Node36 -->
<g id="node36" class="node"><title>Node36</title>
<g id="a_node36"><a xlink:href="CheckRunnerFactory_8h.html" target="_top" xlink:title="QualityControl/CheckRunner\lFactory.h">
<polygon fill="none" stroke="black" points="268.935,-235.5 268.935,-265.5 410.935,-265.5 410.935,-235.5 268.935,-235.5"/>
<text text-anchor="start" x="276.935" y="-253.5" font-family="Helvetica,sans-Serif" font-size="10.00">QualityControl/CheckRunner</text>
<text text-anchor="middle" x="339.935" y="-242.5" font-family="Helvetica,sans-Serif" font-size="10.00">Factory.h</text>
</a>
</g>
</g>
<!-- Node1&#45;&gt;Node36 -->
<g id="edge69" class="edge"><title>Node1&#45;&gt;Node36</title>
<path fill="none" stroke="midnightblue" d="M1092.08,-310.76C938.44,-298.655 582.154,-270.584 421.315,-257.912"/>
<polygon fill="midnightblue" stroke="midnightblue" points="421.251,-254.396 411.007,-257.1 420.701,-261.374 421.251,-254.396"/>
</g>
<!-- Node8&#45;&gt;Node2 -->
<g id="edge12" class="edge"><title>Node8&#45;&gt;Node2</title>
<path fill="none" stroke="midnightblue" d="M1044.08,-245.704C1198.37,-237.546 1537.89,-217.575 1554.94,-199 1564.25,-188.848 1562.72,-179.368 1554.94,-168 1549.9,-160.651 1503.2,-144.092 1470.62,-133.241"/>
<polygon fill="midnightblue" stroke="midnightblue" points="1471.61,-129.884 1461.02,-130.074 1469.42,-136.531 1471.61,-129.884"/>
</g>
<!-- Node8&#45;&gt;Node3 -->
<g id="edge13" class="edge"><title>Node8&#45;&gt;Node3</title>
<path fill="none" stroke="midnightblue" d="M893.79,-248.652C767.676,-246.176 505.831,-236.523 287.935,-199 282.779,-198.112 277.4,-196.939 272.13,-195.644"/>
<polygon fill="midnightblue" stroke="midnightblue" points="272.777,-192.196 262.216,-193.046 271.002,-198.967 272.777,-192.196"/>
</g>
<!-- Node8&#45;&gt;Node4 -->
<g id="edge19" class="edge"><title>Node8&#45;&gt;Node4</title>
<path fill="none" stroke="midnightblue" d="M893.86,-249.984C778.465,-249.222 551.21,-241.744 363.935,-199 326.355,-190.423 319.764,-179.378 282.935,-168 237.525,-153.971 184.844,-141.753 146.654,-133.602"/>
<polygon fill="midnightblue" stroke="midnightblue" points="147.286,-130.158 136.778,-131.515 145.839,-137.007 147.286,-130.158"/>
</g>
<!-- Node9 -->
<g id="node9" class="node"><title>Node9</title>
<polygon fill="none" stroke="#bfbfbf" points="619.935,-174 619.935,-193 665.935,-193 665.935,-174 619.935,-174"/>
<text text-anchor="middle" x="642.935" y="-181" font-family="Helvetica,sans-Serif" font-size="10.00">chrono</text>
</g>
<!-- Node8&#45;&gt;Node9 -->
<g id="edge8" class="edge"><title>Node8&#45;&gt;Node9</title>
<path fill="none" stroke="midnightblue" d="M893.701,-241.942C833.558,-234.627 747.591,-221.298 674.935,-199 673.011,-198.409 671.051,-197.73 669.097,-196.995"/>
<polygon fill="midnightblue" stroke="midnightblue" points="670.137,-193.636 659.561,-193.003 667.434,-200.093 670.137,-193.636"/>
</g>
<!-- Node10 -->
<g id="node10" class="node"><title>Node10</title>
<polygon fill="none" stroke="#bfbfbf" points="1478.94,-112.5 1478.94,-131.5 1530.94,-131.5 1530.94,-112.5 1478.94,-112.5"/>
<text text-anchor="middle" x="1504.94" y="-119.5" font-family="Helvetica,sans-Serif" font-size="10.00">memory</text>
</g>
<!-- Node8&#45;&gt;Node10 -->
<g id="edge9" class="edge"><title>Node8&#45;&gt;Node10</title>
<path fill="none" stroke="midnightblue" d="M1043.99,-245.91C1201.85,-237.994 1555.26,-218.216 1572.94,-199 1582.26,-188.86 1579.46,-180.136 1572.94,-168 1565.31,-153.815 1551.04,-143.352 1537.53,-136.103"/>
<polygon fill="midnightblue" stroke="midnightblue" points="1538.91,-132.879 1528.39,-131.592 1535.81,-139.156 1538.91,-132.879"/>
</g>
<!-- Node11 -->
<g id="node11" class="node"><title>Node11</title>
<polygon fill="none" stroke="#bfbfbf" points="1082.44,-0.5 1082.44,-19.5 1123.44,-19.5 1123.44,-0.5 1082.44,-0.5"/>
<text text-anchor="middle" x="1102.94" y="-7.5" font-family="Helvetica,sans-Serif" font-size="10.00">string</text>
</g>
<!-- Node8&#45;&gt;Node11 -->
<g id="edge10" class="edge"><title>Node8&#45;&gt;Node11</title>
<path fill="none" stroke="midnightblue" d="M893.826,-247.291C762.076,-242.634 500.586,-229.609 472.935,-199 463.699,-188.776 464.548,-178.931 472.935,-168 476.594,-163.232 885.091,-57.4023 890.935,-56 955.221,-40.5761 1031.13,-25.1262 1072.42,-16.9518"/>
<polygon fill="midnightblue" stroke="midnightblue" points="1073.25,-20.3552 1082.39,-14.9873 1071.9,-13.4874 1073.25,-20.3552"/>
</g>
<!-- Node12 -->
<g id="node12" class="node"><title>Node12</title>
<polygon fill="none" stroke="#bfbfbf" points="877.435,-0.5 877.435,-19.5 912.435,-19.5 912.435,-0.5 877.435,-0.5"/>
<text text-anchor="middle" x="894.935" y="-7.5" font-family="Helvetica,sans-Serif" font-size="10.00">map</text>
</g>
<!-- Node8&#45;&gt;Node12 -->
<g id="edge11" class="edge"><title>Node8&#45;&gt;Node12</title>
<path fill="none" stroke="midnightblue" d="M893.71,-246.712C754.269,-240.928 466.466,-225.87 429.935,-199 382.919,-164.418 392.974,-133.66 383.935,-76 382.558,-67.2184 377.932,-62.5553 383.935,-56 416.76,-20.1569 765.167,-12.7211 867.083,-11.3084"/>
<polygon fill="midnightblue" stroke="midnightblue" points="867.261,-14.8064 877.214,-11.1768 867.17,-7.80703 867.261,-14.8064"/>
</g>
<!-- Node13 -->
<g id="node13" class="node"><title>Node13</title>
<polygon fill="none" stroke="#bfbfbf" points="683.935,-174 683.935,-193 775.935,-193 775.935,-174 683.935,-174"/>
<text text-anchor="middle" x="729.935" y="-181" font-family="Helvetica,sans-Serif" font-size="10.00">Common/Timer.h</text>
</g>
<!-- Node8&#45;&gt;Node13 -->
<g id="edge14" class="edge"><title>Node8&#45;&gt;Node13</title>
<path fill="none" stroke="midnightblue" d="M937.198,-240.869C894.492,-229.254 818.46,-208.576 771.311,-195.753"/>
<polygon fill="midnightblue" stroke="midnightblue" points="771.991,-192.311 761.423,-193.064 770.154,-199.065 771.991,-192.311"/>
</g>
<!-- Node14 -->
<g id="node14" class="node"><title>Node14</title>
<polygon fill="none" stroke="#bfbfbf" points="793.935,-174 793.935,-193 891.935,-193 891.935,-174 793.935,-174"/>
<text text-anchor="middle" x="842.935" y="-181" font-family="Helvetica,sans-Serif" font-size="10.00">Framework/Task.h</text>
</g>
<!-- Node8&#45;&gt;Node14 -->
<g id="edge15" class="edge"><title>Node8&#45;&gt;Node14</title>
<path fill="none" stroke="midnightblue" d="M952.203,-240.869C930.834,-229.845 893.636,-210.655 868.654,-197.768"/>
<polygon fill="midnightblue" stroke="midnightblue" points="870.228,-194.641 859.736,-193.167 867.019,-200.862 870.228,-194.641"/>
</g>
<!-- Node15 -->
<g id="node15" class="node"><title>Node15</title>
<polygon fill="none" stroke="#bfbfbf" points="910.435,-174 910.435,-193 1027.44,-193 1027.44,-174 910.435,-174"/>
<text text-anchor="middle" x="968.935" y="-181" font-family="Helvetica,sans-Serif" font-size="10.00">Headers/DataHeader.h</text>
</g>
<!-- Node8&#45;&gt;Node15 -->
<g id="edge16" class="edge"><title>Node8&#45;&gt;Node15</title>
<path fill="none" stroke="midnightblue" d="M968.935,-240.734C968.935,-231.183 968.935,-215.618 968.935,-203.283"/>
<polygon fill="midnightblue" stroke="midnightblue" points="972.435,-203.127 968.935,-193.127 965.435,-203.127 972.435,-203.127"/>
</g>
<!-- Node16 -->
<g id="node16" class="node"><title>Node16</title>
<polygon fill="none" stroke="#bfbfbf" points="1045.44,-174 1045.44,-193 1196.44,-193 1196.44,-174 1045.44,-174"/>
<text text-anchor="middle" x="1120.94" y="-181" font-family="Helvetica,sans-Serif" font-size="10.00">Monitoring/MonitoringFactory.h</text>
</g>
<!-- Node8&#45;&gt;Node16 -->
<g id="edge17" class="edge"><title>Node8&#45;&gt;Node16</title>
<path fill="none" stroke="midnightblue" d="M989.119,-240.869C1015.24,-229.699 1060.96,-210.147 1091.1,-197.26"/>
<polygon fill="midnightblue" stroke="midnightblue" points="1092.85,-200.317 1100.67,-193.167 1090.1,-193.881 1092.85,-200.317"/>
</g>
<!-- Node17 -->
<g id="node17" class="node"><title>Node17</title>
<polygon fill="none" stroke="#bfbfbf" points="1214.44,-168.5 1214.44,-198.5 1349.44,-198.5 1349.44,-168.5 1214.44,-168.5"/>
<text text-anchor="start" x="1222.44" y="-186.5" font-family="Helvetica,sans-Serif" font-size="10.00">Configuration/Configuration</text>
<text text-anchor="middle" x="1281.94" y="-175.5" font-family="Helvetica,sans-Serif" font-size="10.00">Interface.h</text>
</g>
<!-- Node8&#45;&gt;Node17 -->
<g id="edge18" class="edge"><title>Node8&#45;&gt;Node17</title>
<path fill="none" stroke="midnightblue" d="M1010.18,-240.936C1059.39,-230.714 1142.74,-213.406 1204.19,-200.646"/>
<polygon fill="midnightblue" stroke="midnightblue" points="1205.16,-204.019 1214.23,-198.559 1203.73,-197.166 1205.16,-204.019"/>
</g>
<!-- Node18 -->
<g id="node18" class="node"><title>Node18</title>
<g id="a_node18"><a xlink:href="CheckInterface_8h.html" target="_top" xlink:title="QualityControl/CheckInterface.h">
<polygon fill="none" stroke="black" points="1024.44,-112.5 1024.44,-131.5 1181.44,-131.5 1181.44,-112.5 1024.44,-112.5"/>
<text text-anchor="middle" x="1102.94" y="-119.5" font-family="Helvetica,sans-Serif" font-size="10.00">QualityControl/CheckInterface.h</text>
</a>
</g>
</g>
<!-- Node8&#45;&gt;Node18 -->
<g id="edge20" class="edge"><title>Node8&#45;&gt;Node18</title>
<path fill="none" stroke="midnightblue" d="M1044.3,-244.997C1151.56,-237.809 1337.6,-222.15 1357.94,-199 1367.03,-188.65 1366.79,-178.555 1357.94,-168 1346.95,-154.911 1259.09,-141.498 1189.53,-132.762"/>
<polygon fill="midnightblue" stroke="midnightblue" points="1189.76,-129.265 1179.41,-131.508 1188.9,-136.212 1189.76,-129.265"/>
</g>
<!-- Node20 -->
<g id="node20" class="node"><title>Node20</title>
<g id="a_node20"><a xlink:href="MonitorObject_8h.html" target="_top" xlink:title="QualityControl/MonitorObject.h">
<polygon fill="none" stroke="black" points="1493.44,-56.5 1493.44,-75.5 1644.44,-75.5 1644.44,-56.5 1493.44,-56.5"/>
<text text-anchor="middle" x="1568.94" y="-63.5" font-family="Helvetica,sans-Serif" font-size="10.00">QualityControl/MonitorObject.h</text>
</a>
</g>
</g>
<!-- Node8&#45;&gt;Node20 -->
<g id="edge44" class="edge"><title>Node8&#45;&gt;Node20</title>
<path fill="none" stroke="midnightblue" d="M1044.17,-247.059C1244.29,-240.307 1779.76,-220.453 1856.94,-199 1918.42,-181.908 1950.98,-186.649 1983.94,-132 1988.53,-124.388 1989.87,-118.616 1983.94,-112 1962.38,-87.9817 1769.91,-75.6011 1654.8,-70.2913"/>
<polygon fill="midnightblue" stroke="midnightblue" points="1654.74,-66.7853 1644.59,-69.8298 1654.43,-73.7782 1654.74,-66.7853"/>
</g>
<!-- Node25 -->
<g id="node25" class="node"><title>Node25</title>
<g id="a_node25"><a xlink:href="DatabaseInterface_8h.html" target="_top" xlink:title="QualityControl/DatabaseInterface.h">
<polygon fill="none" stroke="black" points="1677.94,-174 1677.94,-193 1847.94,-193 1847.94,-174 1677.94,-174"/>
<text text-anchor="middle" x="1762.94" y="-181" font-family="Helvetica,sans-Serif" font-size="10.00">QualityControl/DatabaseInterface.h</text>
</a>
</g>
</g>
<!-- Node8&#45;&gt;Node25 -->
<g id="edge32" class="edge"><title>Node8&#45;&gt;Node25</title>
<path fill="none" stroke="midnightblue" d="M1044.37,-244.409C1166.6,-236.002 1415.46,-218.223 1625.94,-199 1642.11,-197.523 1659.34,-195.809 1675.93,-194.088"/>
<polygon fill="midnightblue" stroke="midnightblue" points="1676.59,-197.539 1686.17,-193.018 1675.86,-190.577 1676.59,-197.539"/>
</g>
<!-- Node28 -->
<g id="node28" class="node"><title>Node28</title>
<g id="a_node28"><a xlink:href="QcInfoLogger_8h.html" target="_top" xlink:title="QualityControl/QcInfoLogger.h">
<polygon fill="none" stroke="black" points="439.435,-112.5 439.435,-131.5 588.435,-131.5 588.435,-112.5 439.435,-112.5"/>
<text text-anchor="middle" x="513.935" y="-119.5" font-family="Helvetica,sans-Serif" font-size="10.00">QualityControl/QcInfoLogger.h</text>
</a>
</g>
</g>
<!-- Node8&#45;&gt;Node28 -->
<g id="edge45" class="edge"><title>Node8&#45;&gt;Node28</title>
<path fill="none" stroke="midnightblue" d="M893.762,-247.807C754.973,-243.899 469.859,-231.917 439.935,-199 430.667,-188.805 433.182,-180.01 439.935,-168 448.157,-153.378 463.266,-142.954 477.698,-135.846"/>
<polygon fill="midnightblue" stroke="midnightblue" points="479.332,-138.949 487.006,-131.644 476.451,-132.569 479.332,-138.949"/>
</g>
<!-- Node31 -->
<g id="node31" class="node"><title>Node31</title>
<g id="a_node31"><a xlink:href="Check_8h_source.html" target="_top" xlink:title="QualityControl/Check.h">
<polygon fill="none" stroke="black" points="482.435,-174 482.435,-193 601.435,-193 601.435,-174 482.435,-174"/>
<text text-anchor="middle" x="541.935" y="-181" font-family="Helvetica,sans-Serif" font-size="10.00">QualityControl/Check.h</text>
</a>
</g>
</g>
<!-- Node8&#45;&gt;Node31 -->
<g id="edge48" class="edge"><title>Node8&#45;&gt;Node31</title>
<path fill="none" stroke="midnightblue" d="M898.409,-240.969C826.047,-231.884 710.318,-216.432 610.935,-199 604.212,-197.821 597.143,-196.467 590.199,-195.071"/>
<polygon fill="midnightblue" stroke="midnightblue" points="590.668,-191.595 580.169,-193.011 589.26,-198.451 590.668,-191.595"/>
</g>
<!-- Node34 -->
<g id="node34" class="node"><title>Node34</title>
<g id="a_node34"><a xlink:href="UpdatePolicyManager_8h.html" target="_top" xlink:title="QualityControl/UpdatePolicy\lManager.h">
<polygon fill="none" stroke="black" points="1405.94,-168.5 1405.94,-198.5 1545.94,-198.5 1545.94,-168.5 1405.94,-168.5"/>
<text text-anchor="start" x="1413.94" y="-186.5" font-family="Helvetica,sans-Serif" font-size="10.00">QualityControl/UpdatePolicy</text>
<text text-anchor="middle" x="1475.94" y="-175.5" font-family="Helvetica,sans-Serif" font-size="10.00">Manager.h</text>
</a>
</g>
</g>
<!-- Node8&#45;&gt;Node34 -->
<g id="edge63" class="edge"><title>Node8&#45;&gt;Node34</title>
<path fill="none" stroke="midnightblue" d="M1043.97,-241.736C1128.66,-232.697 1270.45,-216.725 1391.94,-199 1393.21,-198.814 1394.5,-198.623 1395.79,-198.429"/>
<polygon fill="midnightblue" stroke="midnightblue" points="1396.5,-201.862 1405.85,-196.879 1395.44,-194.943 1396.5,-201.862"/>
</g>
<!-- Node19 -->
<g id="node19" class="node"><title>Node19</title>
<polygon fill="none" stroke="#bfbfbf" points="929.435,-56.5 929.435,-75.5 1012.44,-75.5 1012.44,-56.5 929.435,-56.5"/>
<text text-anchor="middle" x="970.935" y="-63.5" font-family="Helvetica,sans-Serif" font-size="10.00">unordered_map</text>
</g>
<!-- Node18&#45;&gt;Node19 -->
<g id="edge21" class="edge"><title>Node18&#45;&gt;Node19</title>
<path fill="none" stroke="midnightblue" d="M1082.02,-112.444C1060.2,-103.517 1025.79,-89.4387 1001.04,-79.3168"/>
<polygon fill="midnightblue" stroke="midnightblue" points="1002.33,-76.0634 991.753,-75.5164 999.683,-82.5422 1002.33,-76.0634"/>
</g>
<!-- Node18&#45;&gt;Node20 -->
<g id="edge22" class="edge"><title>Node18&#45;&gt;Node20</title>
<path fill="none" stroke="midnightblue" d="M1176.52,-112.473C1260.48,-102.743 1397.51,-86.8644 1485.42,-76.6781"/>
<polygon fill="midnightblue" stroke="midnightblue" points="1485.82,-80.1543 1495.36,-75.5264 1485.02,-73.2009 1485.82,-80.1543"/>
</g>
<!-- Node24 -->
<g id="node24" class="node"><title>Node24</title>
<g id="a_node24"><a xlink:href="Quality_8h.html" target="_top" xlink:title="QualityControl/Quality.h">
<polygon fill="none" stroke="black" points="1042.44,-56.5 1042.44,-75.5 1163.44,-75.5 1163.44,-56.5 1042.44,-56.5"/>
<text text-anchor="middle" x="1102.94" y="-63.5" font-family="Helvetica,sans-Serif" font-size="10.00">QualityControl/Quality.h</text>
</a>
</g>
</g>
<!-- Node18&#45;&gt;Node24 -->
<g id="edge28" class="edge"><title>Node18&#45;&gt;Node24</title>
<path fill="none" stroke="midnightblue" d="M1102.94,-112.083C1102.94,-105.006 1102.94,-94.8611 1102.94,-85.9865"/>
<polygon fill="midnightblue" stroke="midnightblue" points="1106.44,-85.751 1102.94,-75.7511 1099.44,-85.7511 1106.44,-85.751"/>
</g>
<!-- Node20&#45;&gt;Node11 -->
<g id="edge23" class="edge"><title>Node20&#45;&gt;Node11</title>
<path fill="none" stroke="midnightblue" d="M1495.35,-56.4733C1391.67,-44.4589 1207.09,-23.069 1133.98,-14.598"/>
<polygon fill="midnightblue" stroke="midnightblue" points="1133.97,-11.073 1123.63,-13.3986 1133.16,-18.0265 1133.97,-11.073"/>
</g>
<!-- Node20&#45;&gt;Node12 -->
<g id="edge24" class="edge"><title>Node20&#45;&gt;Node12</title>
<path fill="none" stroke="midnightblue" d="M1493.25,-58.9366C1344.41,-47.0114 1019.65,-20.9918 922.759,-13.2292"/>
<polygon fill="midnightblue" stroke="midnightblue" points="922.843,-9.7248 912.595,-12.4149 922.284,-16.7024 922.843,-9.7248"/>
</g>
<!-- Node21 -->
<g id="node21" class="node"><title>Node21</title>
<polygon fill="none" stroke="#bfbfbf" points="1312.94,-0.5 1312.94,-19.5 1368.94,-19.5 1368.94,-0.5 1312.94,-0.5"/>
<text text-anchor="middle" x="1340.94" y="-7.5" font-family="Helvetica,sans-Serif" font-size="10.00">Rtypes.h</text>
</g>
<!-- Node20&#45;&gt;Node21 -->
<g id="edge25" class="edge"><title>Node20&#45;&gt;Node21</title>
<path fill="none" stroke="midnightblue" d="M1532.81,-56.4435C1490.73,-46.4769 1421.53,-30.0877 1378.74,-19.954"/>
<polygon fill="midnightblue" stroke="midnightblue" points="1379.52,-16.5428 1368.99,-17.6439 1377.91,-23.3544 1379.52,-16.5428"/>
</g>
<!-- Node22 -->
<g id="node22" class="node"><title>Node22</title>
<polygon fill="none" stroke="#bfbfbf" points="1548.44,-0.5 1548.44,-19.5 1607.44,-19.5 1607.44,-0.5 1548.44,-0.5"/>
<text text-anchor="middle" x="1577.94" y="-7.5" font-family="Helvetica,sans-Serif" font-size="10.00">TObject.h</text>
</g>
<!-- Node20&#45;&gt;Node22 -->
<g id="edge26" class="edge"><title>Node20&#45;&gt;Node22</title>
<path fill="none" stroke="midnightblue" d="M1570.42,-56.083C1571.61,-48.9272 1573.33,-38.6353 1574.82,-29.6911"/>
<polygon fill="midnightblue" stroke="midnightblue" points="1578.28,-30.1904 1576.48,-19.7511 1571.38,-29.0396 1578.28,-30.1904"/>
</g>
<!-- Node23 -->
<g id="node23" class="node"><title>Node23</title>
<polygon fill="none" stroke="#bfbfbf" points="1643.94,-0.5 1643.94,-19.5 1759.94,-19.5 1759.94,-0.5 1643.94,-0.5"/>
<text text-anchor="middle" x="1701.94" y="-7.5" font-family="Helvetica,sans-Serif" font-size="10.00">Common/Exceptions.h</text>
</g>
<!-- Node20&#45;&gt;Node23 -->
<g id="edge27" class="edge"><title>Node20&#45;&gt;Node23</title>
<path fill="none" stroke="midnightblue" d="M1590.01,-56.4435C1611.99,-47.5171 1646.67,-33.4387 1671.6,-23.3168"/>
<polygon fill="midnightblue" stroke="midnightblue" points="1673.01,-26.5213 1680.96,-19.5164 1670.38,-20.0355 1673.01,-26.5213"/>
</g>
<!-- Node24&#45;&gt;Node11 -->
<g id="edge30" class="edge"><title>Node24&#45;&gt;Node11</title>
<path fill="none" stroke="midnightblue" d="M1102.94,-56.083C1102.94,-49.0059 1102.94,-38.8611 1102.94,-29.9865"/>
<polygon fill="midnightblue" stroke="midnightblue" points="1106.44,-29.751 1102.94,-19.7511 1099.44,-29.7511 1106.44,-29.751"/>
</g>
<!-- Node24&#45;&gt;Node12 -->
<g id="edge31" class="edge"><title>Node24&#45;&gt;Node12</title>
<path fill="none" stroke="midnightblue" d="M1069.98,-56.4435C1029.25,-45.8691 960.666,-28.0649 922.563,-18.1727"/>
<polygon fill="midnightblue" stroke="midnightblue" points="923.231,-14.7301 912.673,-15.6049 921.472,-21.5055 923.231,-14.7301"/>
</g>
<!-- Node24&#45;&gt;Node21 -->
<g id="edge29" class="edge"><title>Node24&#45;&gt;Node21</title>
<path fill="none" stroke="midnightblue" d="M1140.65,-56.4435C1185.03,-46.3731 1258.32,-29.7456 1302.86,-19.6394"/>
<polygon fill="midnightblue" stroke="midnightblue" points="1303.74,-23.0286 1312.72,-17.4026 1302.19,-16.2021 1303.74,-23.0286"/>
</g>
<!-- Node25&#45;&gt;Node2 -->
<g id="edge35" class="edge"><title>Node25&#45;&gt;Node2</title>
<path fill="none" stroke="midnightblue" d="M1709.17,-173.973C1641.68,-163.15 1528.69,-144.603 1471.26,-132.059"/>
<polygon fill="midnightblue" stroke="midnightblue" points="1471.73,-128.577 1461.21,-129.79 1470.19,-135.405 1471.73,-128.577"/>
</g>
<!-- Node25&#45;&gt;Node10 -->
<g id="edge34" class="edge"><title>Node25&#45;&gt;Node10</title>
<path fill="none" stroke="midnightblue" d="M1725.97,-173.975C1676.67,-162.605 1589.95,-142.605 1541.07,-131.333"/>
<polygon fill="midnightblue" stroke="midnightblue" points="1541.77,-127.904 1531.24,-129.067 1540.2,-134.725 1541.77,-127.904"/>
</g>
<!-- Node25&#45;&gt;Node11 -->
<g id="edge33" class="edge"><title>Node25&#45;&gt;Node11</title>
<path fill="none" stroke="midnightblue" d="M1763.41,-173.556C1763.68,-158.394 1761.81,-127.76 1743.94,-112 1700.18,-73.4263 1541.58,-84.9058 1483.94,-76 1353.27,-55.8137 1198.05,-28.1965 1133.47,-16.5445"/>
<polygon fill="midnightblue" stroke="midnightblue" points="1134.01,-13.0856 1123.55,-14.751 1132.77,-19.974 1134.01,-13.0856"/>
</g>
<!-- Node25&#45;&gt;Node19 -->
<g id="edge36" class="edge"><title>Node25&#45;&gt;Node19</title>
<path fill="none" stroke="midnightblue" d="M1720.67,-173.948C1682.37,-165.518 1624.78,-151.129 1576.94,-132 1559.58,-125.061 1557.88,-117.224 1539.94,-112 1323.03,-48.8725 1257.53,-100.242 1032.94,-76 1029.53,-75.6329 1026.03,-75.2201 1022.51,-74.7784"/>
<polygon fill="midnightblue" stroke="midnightblue" points="1022.94,-71.3055 1012.57,-73.4712 1022.03,-78.2457 1022.94,-71.3055"/>
</g>
<!-- Node25&#45;&gt;Node20 -->
<g id="edge43" class="edge"><title>Node25&#45;&gt;Node20</title>
<path fill="none" stroke="midnightblue" d="M1768.77,-173.621C1777.51,-159.095 1791.51,-130.064 1776.94,-112 1761.33,-92.6578 1704.68,-81.2174 1654.44,-74.7154"/>
<polygon fill="midnightblue" stroke="midnightblue" points="1654.85,-71.239 1644.49,-73.48 1653.99,-78.1857 1654.85,-71.239"/>
</g>
<!-- Node26 -->
<g id="node26" class="node"><title>Node26</title>
<polygon fill="none" stroke="#bfbfbf" points="1828.94,-112.5 1828.94,-131.5 1974.94,-131.5 1974.94,-112.5 1828.94,-112.5"/>
<text text-anchor="middle" x="1901.94" y="-119.5" font-family="Helvetica,sans-Serif" font-size="10.00">Framework/ServiceRegistry.h</text>
</g>
<!-- Node25&#45;&gt;Node26 -->
<g id="edge37" class="edge"><title>Node25&#45;&gt;Node26</title>
<path fill="none" stroke="midnightblue" d="M1782.85,-173.975C1806.38,-163.901 1845.75,-147.053 1872.73,-135.502"/>
<polygon fill="midnightblue" stroke="midnightblue" points="1874.24,-138.662 1882.06,-131.509 1871.49,-132.227 1874.24,-138.662"/>
</g>
<!-- Node27 -->
<g id="node27" class="node"><title>Node27</title>
<g id="a_node27"><a xlink:href="QualityObject_8h_source.html" target="_top" xlink:title="QualityControl/QualityObject.h">
<polygon fill="none" stroke="black" points="1586.44,-112.5 1586.44,-131.5 1735.44,-131.5 1735.44,-112.5 1586.44,-112.5"/>
<text text-anchor="middle" x="1660.94" y="-119.5" font-family="Helvetica,sans-Serif" font-size="10.00">QualityControl/QualityObject.h</text>
</a>
</g>
</g>
<!-- Node25&#45;&gt;Node27 -->
<g id="edge38" class="edge"><title>Node25&#45;&gt;Node27</title>
<path fill="none" stroke="midnightblue" d="M1748.32,-173.975C1731.58,-164.211 1703.93,-148.081 1684.22,-136.581"/>
<polygon fill="midnightblue" stroke="midnightblue" points="1685.92,-133.525 1675.52,-131.509 1682.4,-139.571 1685.92,-133.525"/>
</g>
<!-- Node27&#45;&gt;Node12 -->
<g id="edge39" class="edge"><title>Node27&#45;&gt;Node12</title>
<path fill="none" stroke="midnightblue" d="M1601.47,-112.46C1446.34,-90.1836 1033.74,-30.9325 922.753,-14.9948"/>
<polygon fill="midnightblue" stroke="midnightblue" points="923.086,-11.5067 912.69,-13.5497 922.091,-18.4357 923.086,-11.5067"/>
</g>
<!-- Node27&#45;&gt;Node22 -->
<g id="edge40" class="edge"><title>Node27&#45;&gt;Node22</title>
<path fill="none" stroke="midnightblue" d="M1662.14,-112.195C1663.5,-98.8833 1664.21,-73.3496 1652.94,-56 1643.5,-41.4834 1627.59,-30.971 1612.85,-23.7757"/>
<polygon fill="midnightblue" stroke="midnightblue" points="1613.96,-20.4386 1603.4,-19.5176 1611.08,-26.8196 1613.96,-20.4386"/>
</g>
<!-- Node27&#45;&gt;Node23 -->
<g id="edge41" class="edge"><title>Node27&#45;&gt;Node23</title>
<path fill="none" stroke="midnightblue" d="M1666.93,-112.428C1672.81,-103.652 1681.64,-89.4313 1686.94,-76 1692.85,-60.9992 1696.76,-43.0906 1699.11,-29.8733"/>
<polygon fill="midnightblue" stroke="midnightblue" points="1702.62,-30.0897 1700.77,-19.6567 1695.71,-28.9631 1702.62,-30.0897"/>
</g>
<!-- Node27&#45;&gt;Node24 -->
<g id="edge42" class="edge"><title>Node27&#45;&gt;Node24</title>
<path fill="none" stroke="midnightblue" d="M1586.05,-113.308C1581.61,-112.862 1577.21,-112.424 1572.94,-112 1431.41,-97.9881 1265.84,-82.2998 1173.82,-73.6431"/>
<polygon fill="midnightblue" stroke="midnightblue" points="1174.07,-70.1513 1163.79,-72.6997 1173.42,-77.1205 1174.07,-70.1513"/>
</g>
<!-- Node29 -->
<g id="node29" class="node"><title>Node29</title>
<polygon fill="none" stroke="#bfbfbf" points="585.935,-56.5 585.935,-75.5 715.935,-75.5 715.935,-56.5 585.935,-56.5"/>
<text text-anchor="middle" x="650.935" y="-63.5" font-family="Helvetica,sans-Serif" font-size="10.00">InfoLogger/InfoLogger.hxx</text>
</g>
<!-- Node28&#45;&gt;Node29 -->
<g id="edge46" class="edge"><title>Node28&#45;&gt;Node29</title>
<path fill="none" stroke="midnightblue" d="M535.643,-112.444C558.29,-103.517 594.007,-89.4387 619.687,-79.3168"/>
<polygon fill="midnightblue" stroke="midnightblue" points="621.309,-82.4397 629.329,-75.5164 618.742,-75.9273 621.309,-82.4397"/>
</g>
<!-- Node30 -->
<g id="node30" class="node"><title>Node30</title>
<polygon fill="none" stroke="#bfbfbf" points="405.935,-56.5 405.935,-75.5 567.935,-75.5 567.935,-56.5 405.935,-56.5"/>
<text text-anchor="middle" x="486.935" y="-63.5" font-family="Helvetica,sans-Serif" font-size="10.00">InfoLogger/InfoLoggerMacros.hxx</text>
</g>
<!-- Node28&#45;&gt;Node30 -->
<g id="edge47" class="edge"><title>Node28&#45;&gt;Node30</title>
<path fill="none" stroke="midnightblue" d="M509.477,-112.083C505.781,-104.691 500.412,-93.9533 495.841,-84.8111"/>
<polygon fill="midnightblue" stroke="midnightblue" points="498.913,-83.1301 491.311,-75.7511 492.652,-86.2606 498.913,-83.1301"/>
</g>
<!-- Node31&#45;&gt;Node2 -->
<g id="edge51" class="edge"><title>Node31&#45;&gt;Node2</title>
<path fill="none" stroke="midnightblue" d="M577.207,-173.956C587.973,-171.655 599.886,-169.414 610.935,-168 945.475,-125.183 1032.96,-161.528 1368.94,-132 1381.4,-130.905 1395.05,-129.252 1406.97,-127.66"/>
<polygon fill="midnightblue" stroke="midnightblue" points="1407.49,-131.122 1416.92,-126.292 1406.53,-124.187 1407.49,-131.122"/>
</g>
<!-- Node31&#45;&gt;Node4 -->
<g id="edge54" class="edge"><title>Node31&#45;&gt;Node4</title>
<path fill="none" stroke="midnightblue" d="M481.981,-174.537C400.906,-163.77 256.363,-144.573 168.415,-132.892"/>
<polygon fill="midnightblue" stroke="midnightblue" points="168.616,-129.388 158.242,-131.541 167.694,-136.327 168.616,-129.388"/>
</g>
<!-- Node31&#45;&gt;Node10 -->
<g id="edge52" class="edge"><title>Node31&#45;&gt;Node10</title>
<path fill="none" stroke="midnightblue" d="M576.848,-173.994C587.706,-171.665 599.761,-169.399 610.935,-168 986.758,-120.964 1090.12,-186.713 1468.55,-131.868"/>
<polygon fill="midnightblue" stroke="midnightblue" points="1469.3,-135.296 1478.68,-130.381 1468.28,-128.37 1469.3,-135.296"/>
</g>
<!-- Node31&#45;&gt;Node12 -->
<g id="edge50" class="edge"><title>Node31&#45;&gt;Node12</title>
<path fill="none" stroke="midnightblue" d="M517.294,-173.924C465.15,-154.542 351.979,-105.202 396.935,-56 428.824,-21.0992 767.023,-13.0111 867.155,-11.3752"/>
<polygon fill="midnightblue" stroke="midnightblue" points="867.439,-14.8713 877.384,-11.2173 867.331,-7.87215 867.439,-14.8713"/>
</g>
<!-- Node31&#45;&gt;Node18 -->
<g id="edge58" class="edge"><title>Node31&#45;&gt;Node18</title>
<path fill="none" stroke="midnightblue" d="M578.674,-173.947C589.06,-171.756 600.403,-169.576 610.935,-168 787.028,-141.646 832.655,-148.576 1009.94,-132 1011.25,-131.877 1012.58,-131.752 1013.92,-131.627"/>
<polygon fill="midnightblue" stroke="midnightblue" points="1014.67,-135.072 1024.29,-130.647 1014.01,-128.103 1014.67,-135.072"/>
</g>
<!-- Node31&#45;&gt;Node19 -->
<g id="edge53" class="edge"><title>Node31&#45;&gt;Node19</title>
<path fill="none" stroke="midnightblue" d="M579.413,-173.931C589.602,-171.791 600.661,-169.641 610.935,-168 683.126,-156.469 877.819,-173.6 937.935,-132 953.511,-121.221 962.154,-100.828 966.647,-85.7466"/>
<polygon fill="midnightblue" stroke="midnightblue" points="970.073,-86.4782 969.224,-75.9175 963.302,-84.7026 970.073,-86.4782"/>
</g>
<!-- Node31&#45;&gt;Node20 -->
<g id="edge57" class="edge"><title>Node31&#45;&gt;Node20</title>
<path fill="none" stroke="midnightblue" d="M577.576,-173.981C588.249,-171.71 600.018,-169.479 610.935,-168 866.433,-133.397 941.307,-200.268 1189.94,-132 1208.72,-126.842 1210.34,-117.807 1228.94,-112 1313.04,-85.7339 1413.51,-74.7976 1483.33,-70.245"/>
<polygon fill="midnightblue" stroke="midnightblue" points="1483.64,-73.7326 1493.4,-69.6185 1483.2,-66.7461 1483.64,-73.7326"/>
</g>
<!-- Node31&#45;&gt;Node24 -->
<g id="edge55" class="edge"><title>Node31&#45;&gt;Node24</title>
<path fill="none" stroke="midnightblue" d="M579.046,-173.957C589.334,-171.792 600.534,-169.623 610.935,-168 765.441,-143.887 810.054,-173.09 960.935,-132 984.01,-125.716 1042.72,-97.2254 1076.99,-80.1183"/>
<polygon fill="midnightblue" stroke="midnightblue" points="1078.58,-83.233 1085.95,-75.623 1075.45,-76.9751 1078.58,-83.233"/>
</g>
<!-- Node31&#45;&gt;Node27 -->
<g id="edge56" class="edge"><title>Node31&#45;&gt;Node27</title>
<path fill="none" stroke="midnightblue" d="M576.845,-173.972C587.704,-171.642 599.758,-169.381 610.935,-168 1021.02,-117.333 1127.4,-155.328 1539.94,-132 1551.68,-131.336 1564.07,-130.533 1576.25,-129.683"/>
<polygon fill="midnightblue" stroke="midnightblue" points="1576.68,-133.161 1586.41,-128.961 1576.19,-126.179 1576.68,-133.161"/>
</g>
<!-- Node31&#45;&gt;Node28 -->
<g id="edge59" class="edge"><title>Node31&#45;&gt;Node28</title>
<path fill="none" stroke="midnightblue" d="M537.923,-173.975C533.848,-165.315 527.417,-151.649 522.239,-140.645"/>
<polygon fill="midnightblue" stroke="midnightblue" points="525.364,-139.067 517.939,-131.509 519.03,-142.048 525.364,-139.067"/>
</g>
<!-- Node32 -->
<g id="node32" class="node"><title>Node32</title>
<polygon fill="none" stroke="#bfbfbf" points="1238.44,-112.5 1238.44,-131.5 1297.44,-131.5 1297.44,-112.5 1238.44,-112.5"/>
<text text-anchor="middle" x="1267.94" y="-119.5" font-family="Helvetica,sans-Serif" font-size="10.00">functional</text>
</g>
<!-- Node31&#45;&gt;Node32 -->
<g id="edge49" class="edge"><title>Node31&#45;&gt;Node32</title>
<path fill="none" stroke="midnightblue" d="M577.573,-173.958C588.246,-171.685 600.015,-169.46 610.935,-168 881.442,-131.838 953.332,-167.436 1223.94,-132 1225.38,-131.81 1226.86,-131.6 1228.34,-131.373"/>
<polygon fill="midnightblue" stroke="midnightblue" points="1228.95,-134.821 1238.21,-129.68 1227.76,-127.922 1228.95,-134.821"/>
</g>
<!-- Node33 -->
<g id="node33" class="node"><title>Node33</title>
<g id="a_node33"><a xlink:href="CheckConfig_8h.html" target="_top" xlink:title="QualityControl/CheckConfig.h">
<polygon fill="none" stroke="black" points="782.435,-112.5 782.435,-131.5 929.435,-131.5 929.435,-112.5 782.435,-112.5"/>
<text text-anchor="middle" x="855.935" y="-119.5" font-family="Helvetica,sans-Serif" font-size="10.00">QualityControl/CheckConfig.h</text>
</a>
</g>
</g>
<!-- Node31&#45;&gt;Node33 -->
<g id="edge60" class="edge"><title>Node31&#45;&gt;Node33</title>
<path fill="none" stroke="midnightblue" d="M581.671,-173.969C591.244,-171.964 601.447,-169.868 610.935,-168 674.649,-155.456 747.909,-142.146 797.597,-133.284"/>
<polygon fill="midnightblue" stroke="midnightblue" points="798.288,-136.716 807.52,-131.517 797.061,-129.824 798.288,-136.716"/>
</g>
<!-- Node33&#45;&gt;Node11 -->
<g id="edge61" class="edge"><title>Node33&#45;&gt;Node11</title>
<path fill="none" stroke="midnightblue" d="M861.93,-112.345C872.147,-98.2771 894.33,-70.5629 919.935,-56 968.597,-28.3228 1033.96,-17.5404 1071.96,-13.4328"/>
<polygon fill="midnightblue" stroke="midnightblue" points="1072.77,-16.8703 1082.38,-12.4017 1072.08,-9.90439 1072.77,-16.8703"/>
</g>
<!-- Node33&#45;&gt;Node19 -->
<g id="edge62" class="edge"><title>Node33&#45;&gt;Node19</title>
<path fill="none" stroke="midnightblue" d="M874.157,-112.444C892.831,-103.675 922.091,-89.9355 943.552,-79.8579"/>
<polygon fill="midnightblue" stroke="midnightblue" points="945.234,-82.935 952.798,-75.5164 942.259,-76.5988 945.234,-82.935"/>
</g>
<!-- Node34&#45;&gt;Node2 -->
<g id="edge66" class="edge"><title>Node34&#45;&gt;Node2</title>
<path fill="none" stroke="midnightblue" d="M1467.17,-168.399C1461.96,-160.021 1455.31,-149.327 1449.77,-140.423"/>
<polygon fill="midnightblue" stroke="midnightblue" points="1452.57,-138.302 1444.32,-131.658 1446.63,-141.998 1452.57,-138.302"/>
</g>
<!-- Node34&#45;&gt;Node11 -->
<g id="edge64" class="edge"><title>Node34&#45;&gt;Node11</title>
<path fill="none" stroke="midnightblue" d="M1457.37,-168.444C1436.62,-153.169 1401.62,-128.713 1368.94,-112 1287.06,-70.1259 1183.59,-35.7401 1133.23,-20.0973"/>
<polygon fill="midnightblue" stroke="midnightblue" points="1134.19,-16.7311 1123.61,-17.1348 1132.14,-23.4215 1134.19,-16.7311"/>
</g>
<!-- Node34&#45;&gt;Node12 -->
<g id="edge65" class="edge"><title>Node34&#45;&gt;Node12</title>
<path fill="none" stroke="midnightblue" d="M1405.81,-173.172C1390.08,-171.277 1373.45,-169.43 1357.94,-168 1293.09,-162.026 817.547,-179.442 772.935,-132 733.824,-90.4077 821.379,-43.3762 868.068,-22.2847"/>
<polygon fill="midnightblue" stroke="midnightblue" points="869.614,-25.428 877.35,-18.189 866.788,-19.0237 869.614,-25.428"/>
</g>
<!-- Node34&#45;&gt;Node32 -->
<g id="edge67" class="edge"><title>Node34&#45;&gt;Node32</title>
<path fill="none" stroke="midnightblue" d="M1426.91,-168.475C1390.55,-158.075 1341.62,-144.078 1307.69,-134.372"/>
<polygon fill="midnightblue" stroke="midnightblue" points="1308.25,-130.892 1297.67,-131.506 1306.32,-137.622 1308.25,-130.892"/>
</g>
<!-- Node35 -->
<g id="node35" class="node"><title>Node35</title>
<polygon fill="none" stroke="#bfbfbf" points="1315.44,-112.5 1315.44,-131.5 1360.44,-131.5 1360.44,-112.5 1315.44,-112.5"/>
<text text-anchor="middle" x="1337.94" y="-119.5" font-family="Helvetica,sans-Serif" font-size="10.00">iosfwd</text>
</g>
<!-- Node34&#45;&gt;Node35 -->
<g id="edge68" class="edge"><title>Node34&#45;&gt;Node35</title>
<path fill="none" stroke="midnightblue" d="M1443.23,-168.399C1420.18,-158.461 1389.57,-145.265 1367.3,-135.662"/>
<polygon fill="midnightblue" stroke="midnightblue" points="1368.58,-132.403 1358.02,-131.658 1365.81,-138.831 1368.58,-132.403"/>
</g>
<!-- Node36&#45;&gt;Node4 -->
<g id="edge71" class="edge"><title>Node36&#45;&gt;Node4</title>
<path fill="none" stroke="midnightblue" d="M268.616,-248.814C183.005,-246.3 46.9283,-236.348 14.935,-199 5.97175,-188.536 8.01147,-179.912 14.935,-168 23.6712,-152.97 39.5134,-142.543 54.7299,-135.54"/>
<polygon fill="midnightblue" stroke="midnightblue" points="56.1973,-138.72 64.0543,-131.613 53.4798,-132.269 56.1973,-138.72"/>
</g>
<!-- Node36&#45;&gt;Node11 -->
<g id="edge70" class="edge"><title>Node36&#45;&gt;Node11</title>
<path fill="none" stroke="midnightblue" d="M339.158,-235.392C338.007,-198.883 340.567,-101.025 396.935,-56 410.337,-45.2952 938.217,-18.9939 1072.24,-12.4784"/>
<polygon fill="midnightblue" stroke="midnightblue" points="1072.43,-15.9736 1082.25,-11.9933 1072.09,-8.98185 1072.43,-15.9736"/>
</g>
<!-- Node36&#45;&gt;Node31 -->
<g id="edge73" class="edge"><title>Node36&#45;&gt;Node31</title>
<path fill="none" stroke="midnightblue" d="M383.766,-235.396C420.307,-223.638 471.734,-207.089 505.912,-196.092"/>
<polygon fill="midnightblue" stroke="midnightblue" points="507.051,-199.402 515.498,-193.007 504.906,-192.738 507.051,-199.402"/>
</g>
<!-- Node37 -->
<g id="node37" class="node"><title>Node37</title>
<polygon fill="none" stroke="#bfbfbf" points="24.435,-174 24.435,-193 177.435,-193 177.435,-174 24.435,-174"/>
<text text-anchor="middle" x="100.935" y="-181" font-family="Helvetica,sans-Serif" font-size="10.00">Framework/CompletionPolicy.h</text>
</g>
<!-- Node36&#45;&gt;Node37 -->
<g id="edge72" class="edge"><title>Node36&#45;&gt;Node37</title>
<path fill="none" stroke="midnightblue" d="M288.37,-235.476C244.599,-223.572 182.62,-206.716 142.107,-195.698"/>
<polygon fill="midnightblue" stroke="midnightblue" points="142.862,-192.276 132.294,-193.029 141.025,-199.03 142.862,-192.276"/>
</g>
</g>
</svg>
