<?xml version="1.0" encoding="UTF-8" standalone="no"?>
<!DOCTYPE svg PUBLIC "-//W3C//DTD SVG 1.1//EN"
 "http://www.w3.org/Graphics/SVG/1.1/DTD/svg11.dtd">
<!-- Generated by graphviz version 2.38.0 (20140413.2041)
 -->
<!-- Title: Framework/include/QualityControl/CheckInterface.h Pages: 1 -->
<svg width="501pt" height="151pt"
 viewBox="0.00 0.00 501.00 151.00" xmlns="http://www.w3.org/2000/svg" xmlns:xlink="http://www.w3.org/1999/xlink">
<g id="graph0" class="graph" transform="scale(1 1) rotate(0) translate(4 147)">
<title>Framework/include/QualityControl/CheckInterface.h</title>
<!-- Node1 -->
<g id="node1" class="node"><title>Node1</title>
<polygon fill="#bfbfbf" stroke="black" points="95,-112.5 95,-142.5 228,-142.5 228,-112.5 95,-112.5"/>
<text text-anchor="start" x="103" y="-130.5" font-family="Helvetica,sans-Serif" font-size="10.00">Framework/include/Quality</text>
<text text-anchor="middle" x="161.5" y="-119.5" font-family="Helvetica,sans-Serif" font-size="10.00">Control/CheckInterface.h</text>
</g>
<!-- Node2 -->
<g id="node2" class="node"><title>Node2</title>
<polygon fill="none" stroke="#bfbfbf" points="0,-56.5 0,-75.5 83,-75.5 83,-56.5 0,-56.5"/>
<text text-anchor="middle" x="41.5" y="-63.5" font-family="Helvetica,sans-Serif" font-size="10.00">unordered_map</text>
</g>
<!-- Node1&#45;&gt;Node2 -->
<g id="edge1" class="edge"><title>Node1&#45;&gt;Node2</title>
<path fill="none" stroke="midnightblue" d="M133.062,-112.399C113.377,-102.639 87.3567,-89.7373 68.0868,-80.1826"/>
<polygon fill="midnightblue" stroke="midnightblue" points="69.475,-76.9644 58.9611,-75.6578 66.3654,-83.2358 69.475,-76.9644"/>
</g>
<!-- Node3 -->
<g id="node3" class="node"><title>Node3</title>
<g id="a_node3"><a xlink:href="MonitorObject_8h.html" target="_top" xlink:title="QualityControl/MonitorObject.h">
<polygon fill="none" stroke="black" points="240,-56.5 240,-75.5 391,-75.5 391,-56.5 240,-56.5"/>
<text text-anchor="middle" x="315.5" y="-63.5" font-family="Helvetica,sans-Serif" font-size="10.00">QualityControl/MonitorObject.h</text>
</a>
</g>
</g>
<!-- Node1&#45;&gt;Node3 -->
<g id="edge2" class="edge"><title>Node1&#45;&gt;Node3</title>
<path fill="none" stroke="midnightblue" d="M197.996,-112.399C224.065,-102.327 258.794,-88.9093 283.724,-79.2769"/>
<polygon fill="midnightblue" stroke="midnightblue" points="285.025,-82.5266 293.092,-75.6578 282.502,-75.997 285.025,-82.5266"/>
</g>
<!-- Node9 -->
<g id="node9" class="node"><title>Node9</title>
<g id="a_node9"><a xlink:href="Quality_8h.html" target="_top" xlink:title="QualityControl/Quality.h">
<polygon fill="none" stroke="black" points="101,-56.5 101,-75.5 222,-75.5 222,-56.5 101,-56.5"/>
<text text-anchor="middle" x="161.5" y="-63.5" font-family="Helvetica,sans-Serif" font-size="10.00">QualityControl/Quality.h</text>
</a>
</g>
</g>
<!-- Node1&#45;&gt;Node9 -->
<g id="edge8" class="edge"><title>Node1&#45;&gt;Node9</title>
<path fill="none" stroke="midnightblue" d="M161.5,-112.399C161.5,-104.466 161.5,-94.458 161.5,-85.8583"/>
<polygon fill="midnightblue" stroke="midnightblue" points="165,-85.6577 161.5,-75.6578 158,-85.6578 165,-85.6577"/>
</g>
<!-- Node4 -->
<g id="node4" class="node"><title>Node4</title>
<polygon fill="none" stroke="#bfbfbf" points="113,-0.5 113,-19.5 154,-19.5 154,-0.5 113,-0.5"/>
<text text-anchor="middle" x="133.5" y="-7.5" font-family="Helvetica,sans-Serif" font-size="10.00">string</text>
</g>
<!-- Node3&#45;&gt;Node4 -->
<g id="edge3" class="edge"><title>Node3&#45;&gt;Node4</title>
<path fill="none" stroke="midnightblue" d="M286.634,-56.488C257.963,-48.0262 212.496,-34.587 163.909,-20.1141"/>
<polygon fill="midnightblue" stroke="midnightblue" points="164.737,-16.7088 154.154,-17.2069 162.738,-23.4172 164.737,-16.7088"/>
</g>
<!-- Node5 -->
<g id="node5" class="node"><title>Node5</title>
<polygon fill="none" stroke="#bfbfbf" points="172,-0.5 172,-19.5 207,-19.5 207,-0.5 172,-0.5"/>
<text text-anchor="middle" x="189.5" y="-7.5" font-family="Helvetica,sans-Serif" font-size="10.00">map</text>
</g>
<!-- Node3&#45;&gt;Node5 -->
<g id="edge4" class="edge"><title>Node3&#45;&gt;Node5</title>
<path fill="none" stroke="midnightblue" d="M295.535,-56.4435C274.284,-47.3359 240.518,-32.865 216.812,-22.7053"/>
<polygon fill="midnightblue" stroke="midnightblue" points="217.905,-19.3656 207.334,-18.6433 215.147,-25.7996 217.905,-19.3656"/>
</g>
<!-- Node6 -->
<g id="node6" class="node"><title>Node6</title>
<polygon fill="none" stroke="#bfbfbf" points="225.5,-0.5 225.5,-19.5 281.5,-19.5 281.5,-0.5 225.5,-0.5"/>
<text text-anchor="middle" x="253.5" y="-7.5" font-family="Helvetica,sans-Serif" font-size="10.00">Rtypes.h</text>
</g>
<!-- Node3&#45;&gt;Node6 -->
<g id="edge5" class="edge"><title>Node3&#45;&gt;Node6</title>
<path fill="none" stroke="midnightblue" d="M305.539,-56.324C296.373,-48.3414 282.563,-36.3128 271.472,-26.6529"/>
<polygon fill="midnightblue" stroke="midnightblue" points="273.482,-23.7624 263.643,-19.8339 268.885,-29.041 273.482,-23.7624"/>
</g>
<!-- Node7 -->
<g id="node7" class="node"><title>Node7</title>
<polygon fill="none" stroke="#bfbfbf" points="434,-0.5 434,-19.5 493,-19.5 493,-0.5 434,-0.5"/>
<text text-anchor="middle" x="463.5" y="-7.5" font-family="Helvetica,sans-Serif" font-size="10.00">TObject.h</text>
</g>
<!-- Node3&#45;&gt;Node7 -->
<g id="edge6" class="edge"><title>Node3&#45;&gt;Node7</title>
<path fill="none" stroke="midnightblue" d="M338.951,-56.4435C363.633,-47.4381 402.685,-33.1891 430.477,-23.049"/>
<polygon fill="midnightblue" stroke="midnightblue" points="431.964,-26.2321 440.159,-19.5164 429.565,-19.6561 431.964,-26.2321"/>
</g>
<!-- Node8 -->
<g id="node8" class="node"><title>Node8</title>
<polygon fill="none" stroke="#bfbfbf" points="299.5,-0.5 299.5,-19.5 415.5,-19.5 415.5,-0.5 299.5,-0.5"/>
<text text-anchor="middle" x="357.5" y="-7.5" font-family="Helvetica,sans-Serif" font-size="10.00">Common/Exceptions.h</text>
</g>
<!-- Node3&#45;&gt;Node8 -->
<g id="edge7" class="edge"><title>Node3&#45;&gt;Node8</title>
<path fill="none" stroke="midnightblue" d="M322.435,-56.083C328.429,-48.3768 337.252,-37.0333 344.548,-27.6531"/>
<polygon fill="midnightblue" stroke="midnightblue" points="347.317,-29.7934 350.694,-19.7511 341.791,-25.4958 347.317,-29.7934"/>
</g>
<!-- Node9&#45;&gt;Node4 -->
<g id="edge10" class="edge"><title>Node9&#45;&gt;Node4</title>
<path fill="none" stroke="midnightblue" d="M156.876,-56.083C153.044,-48.6913 147.476,-37.9533 142.735,-28.8111"/>
<polygon fill="midnightblue" stroke="midnightblue" points="145.748,-27.0175 138.038,-19.7511 139.534,-30.2398 145.748,-27.0175"/>
</g>
<!-- Node9&#45;&gt;Node5 -->
<g id="edge11" class="edge"><title>Node9&#45;&gt;Node5</title>
<path fill="none" stroke="midnightblue" d="M166.124,-56.083C169.956,-48.6913 175.524,-37.9533 180.265,-28.8111"/>
<polygon fill="midnightblue" stroke="midnightblue" points="183.466,-30.2398 184.962,-19.7511 177.252,-27.0175 183.466,-30.2398"/>
</g>
<!-- Node9&#45;&gt;Node6 -->
<g id="edge9" class="edge"><title>Node9&#45;&gt;Node6</title>
<path fill="none" stroke="midnightblue" d="M176.281,-56.324C190.767,-47.8215 213.073,-34.7288 229.993,-24.7975"/>
<polygon fill="midnightblue" stroke="midnightblue" points="231.903,-27.735 238.755,-19.6545 228.359,-21.6981 231.903,-27.735"/>
</g>
</g>
</svg>
