<?xml version="1.0" encoding="UTF-8" standalone="no"?>
<!DOCTYPE svg PUBLIC "-//W3C//DTD SVG 1.1//EN"
 "http://www.w3.org/Graphics/SVG/1.1/DTD/svg11.dtd">
<!-- Generated by graphviz version 2.38.0 (20140413.2041)
 -->
<!-- Title: Framework/include/QualityControl/CheckRunner.h Pages: 1 -->
<svg width="1790pt" height="106pt"
 viewBox="0.00 0.00 1790.00 106.00" xmlns="http://www.w3.org/2000/svg" xmlns:xlink="http://www.w3.org/1999/xlink">
<g id="graph0" class="graph" transform="scale(1 1) rotate(0) translate(4 102)">
<title>Framework/include/QualityControl/CheckRunner.h</title>
<!-- Node1 -->
<g id="node1" class="node"><title>Node1</title>
<polygon fill="#bfbfbf" stroke="black" points="742.5,-67.5 742.5,-97.5 875.5,-97.5 875.5,-67.5 742.5,-67.5"/>
<text text-anchor="start" x="750.5" y="-85.5" font-family="Helvetica,sans-Serif" font-size="10.00">Framework/include/Quality</text>
<text text-anchor="middle" x="809" y="-74.5" font-family="Helvetica,sans-Serif" font-size="10.00">Control/CheckRunner.h</text>
</g>
<!-- Node2 -->
<g id="node2" class="node"><title>Node2</title>
<g id="a_node2"><a xlink:href="CheckRunner_8cxx.html" target="_top" xlink:title="Framework/src/CheckRunner.cxx">
<polygon fill="none" stroke="black" points="0,-6 0,-25 164,-25 164,-6 0,-6"/>
<text text-anchor="middle" x="82" y="-13" font-family="Helvetica,sans-Serif" font-size="10.00">Framework/src/CheckRunner.cxx</text>
</a>
</g>
</g>
<!-- Node1&#45;&gt;Node2 -->
<g id="edge1" class="edge"><title>Node1&#45;&gt;Node2</title>
<path fill="none" stroke="midnightblue" d="M732.287,-77.3655C612.574,-70.4728 374.185,-54.978 173,-31 159.338,-29.3718 144.586,-27.2011 131.017,-25.0362"/>
<polygon fill="midnightblue" stroke="midnightblue" points="732.264,-80.8698 742.448,-77.9462 732.664,-73.8812 732.264,-80.8698"/>
</g>
<!-- Node3 -->
<g id="node3" class="node"><title>Node3</title>
<g id="a_node3"><a xlink:href="CheckRunnerFactory_8cxx.html" target="_top" xlink:title="Framework/src/CheckRunner\lFactory.cxx">
<polygon fill="none" stroke="black" points="182.5,-0.5 182.5,-30.5 327.5,-30.5 327.5,-0.5 182.5,-0.5"/>
<text text-anchor="start" x="190.5" y="-18.5" font-family="Helvetica,sans-Serif" font-size="10.00">Framework/src/CheckRunner</text>
<text text-anchor="middle" x="255" y="-7.5" font-family="Helvetica,sans-Serif" font-size="10.00">Factory.cxx</text>
</a>
</g>
</g>
<!-- Node1&#45;&gt;Node3 -->
<g id="edge2" class="edge"><title>Node1&#45;&gt;Node3</title>
<path fill="none" stroke="midnightblue" d="M732.268,-74.9902C638.53,-66.6502 475.227,-50.8686 336,-31 333.313,-30.6165 330.578,-30.2101 327.819,-29.7863"/>
<polygon fill="midnightblue" stroke="midnightblue" points="731.963,-78.4769 742.233,-75.8721 732.58,-71.5041 731.963,-78.4769"/>
</g>
<!-- Node4 -->
<g id="node4" class="node"><title>Node4</title>
<g id="a_node4"><a xlink:href="InfrastructureGenerator_8cxx.html" target="_top" xlink:title="Framework/src/Infrastructure\lGenerator.cxx">
<polygon fill="none" stroke="black" points="345.5,-0.5 345.5,-30.5 488.5,-30.5 488.5,-0.5 345.5,-0.5"/>
<text text-anchor="start" x="353.5" y="-18.5" font-family="Helvetica,sans-Serif" font-size="10.00">Framework/src/Infrastructure</text>
<text text-anchor="middle" x="417" y="-7.5" font-family="Helvetica,sans-Serif" font-size="10.00">Generator.cxx</text>
</a>
</g>
</g>
<!-- Node1&#45;&gt;Node4 -->
<g id="edge3" class="edge"><title>Node1&#45;&gt;Node4</title>
<path fill="none" stroke="midnightblue" d="M731.969,-69.3465C668.998,-59.3261 577.68,-44.6002 498,-31 494.902,-30.4712 491.738,-29.9262 488.543,-29.3717"/>
<polygon fill="midnightblue" stroke="midnightblue" points="731.789,-72.8619 742.215,-70.9752 732.888,-65.9487 731.789,-72.8619"/>
</g>
<!-- Node5 -->
<g id="node5" class="node"><title>Node5</title>
<g id="a_node5"><a xlink:href="runBasic_8cxx.html" target="_top" xlink:title="This is an executable showing QC Task&#39;s usage in Data Processing Layer. ">
<polygon fill="none" stroke="black" points="507,-6 507,-25 649,-25 649,-6 507,-6"/>
<text text-anchor="middle" x="578" y="-13" font-family="Helvetica,sans-Serif" font-size="10.00">Framework/src/runBasic.cxx</text>
</a>
</g>
</g>
<!-- Node1&#45;&gt;Node5 -->
<g id="edge4" class="edge"><title>Node1&#45;&gt;Node5</title>
<path fill="none" stroke="midnightblue" d="M749.475,-64.7505C704.297,-52.038 644.049,-35.0851 608.31,-25.0287"/>
<polygon fill="midnightblue" stroke="midnightblue" points="748.587,-68.1364 759.161,-67.476 750.483,-61.3981 748.587,-68.1364"/>
</g>
<!-- Node6 -->
<g id="node6" class="node"><title>Node6</title>
<g id="a_node6"><a xlink:href="testCheckRunner_8cxx.html" target="_top" xlink:title="Framework/test/testCheck\lRunner.cxx">
<polygon fill="none" stroke="black" points="667.5,-0.5 667.5,-30.5 800.5,-30.5 800.5,-0.5 667.5,-0.5"/>
<text text-anchor="start" x="675.5" y="-18.5" font-family="Helvetica,sans-Serif" font-size="10.00">Framework/test/testCheck</text>
<text text-anchor="middle" x="734" y="-7.5" font-family="Helvetica,sans-Serif" font-size="10.00">Runner.cxx</text>
</a>
</g>
</g>
<!-- Node1&#45;&gt;Node6 -->
<g id="edge5" class="edge"><title>Node1&#45;&gt;Node6</title>
<path fill="none" stroke="midnightblue" d="M784.882,-60.5978C773.557,-50.7831 760.359,-39.3442 750.242,-30.5765"/>
<polygon fill="midnightblue" stroke="midnightblue" points="782.877,-63.4915 792.726,-67.396 787.461,-58.2017 782.877,-63.4915"/>
</g>
<!-- Node7 -->
<g id="node7" class="node"><title>Node7</title>
<g id="a_node7"><a xlink:href="testCheckWorkflow_8cxx.html" target="_top" xlink:title="Framework/test/testCheck\lWorkflow.cxx">
<polygon fill="none" stroke="black" points="818.5,-0.5 818.5,-30.5 951.5,-30.5 951.5,-0.5 818.5,-0.5"/>
<text text-anchor="start" x="826.5" y="-18.5" font-family="Helvetica,sans-Serif" font-size="10.00">Framework/test/testCheck</text>
<text text-anchor="middle" x="885" y="-7.5" font-family="Helvetica,sans-Serif" font-size="10.00">Workflow.cxx</text>
</a>
</g>
</g>
<!-- Node1&#45;&gt;Node7 -->
<g id="edge6" class="edge"><title>Node1&#45;&gt;Node7</title>
<path fill="none" stroke="midnightblue" d="M833.106,-60.8832C844.655,-51.0054 858.19,-39.4293 868.541,-30.5765"/>
<polygon fill="midnightblue" stroke="midnightblue" points="830.816,-58.2364 825.491,-67.396 835.365,-63.5561 830.816,-58.2364"/>
</g>
<!-- Node8 -->
<g id="node8" class="node"><title>Node8</title>
<g id="a_node8"><a xlink:href="testWorkflow_8cxx.html" target="_top" xlink:title="Framework/test/testWorkflow.cxx">
<polygon fill="none" stroke="black" points="970,-6 970,-25 1134,-25 1134,-6 970,-6"/>
<text text-anchor="middle" x="1052" y="-13" font-family="Helvetica,sans-Serif" font-size="10.00">Framework/test/testWorkflow.cxx</text>
</a>
</g>
</g>
<!-- Node1&#45;&gt;Node8 -->
<g id="edge7" class="edge"><title>Node1&#45;&gt;Node8</title>
<path fill="none" stroke="midnightblue" d="M871.319,-64.8304C918.877,-52.1091 982.441,-35.1062 1020.12,-25.0287"/>
<polygon fill="midnightblue" stroke="midnightblue" points="870.184,-61.5107 861.428,-67.476 871.993,-68.273 870.184,-61.5107"/>
</g>
<!-- Node9 -->
<g id="node9" class="node"><title>Node9</title>
<polygon fill="none" stroke="#bfbfbf" points="1152,-6 1152,-25 1370,-25 1370,-6 1152,-6"/>
<text text-anchor="middle" x="1261" y="-13" font-family="Helvetica,sans-Serif" font-size="10.00">Modules/EMCAL/src/runQCEMCALDigits.cxx</text>
</g>
<!-- Node1&#45;&gt;Node9 -->
<g id="edge8" class="edge"><title>Node1&#45;&gt;Node9</title>
<path fill="none" stroke="midnightblue" d="M885.759,-70.4616C975.039,-57.6227 1120.51,-36.7029 1201.61,-25.0409"/>
<polygon fill="midnightblue" stroke="midnightblue" points="885.094,-67.0212 875.694,-71.909 886.091,-73.9499 885.094,-67.0212"/>
</g>
<!-- Node10 -->
<g id="node10" class="node"><title>Node10</title>
<polygon fill="none" stroke="#bfbfbf" points="1388,-6 1388,-25 1594,-25 1594,-6 1388,-6"/>
<text text-anchor="middle" x="1491" y="-13" font-family="Helvetica,sans-Serif" font-size="10.00">Modules/PHOS/src/runQCPHOSDigits.cxx</text>
</g>
<!-- Node1&#45;&gt;Node10 -->
<g id="edge9" class="edge"><title>Node1&#45;&gt;Node10</title>
<path fill="none" stroke="midnightblue" d="M885.749,-75.69C995.304,-67.1715 1202.78,-50.2053 1379,-31 1395.18,-29.2369 1412.64,-27.0928 1428.85,-25.0002"/>
<polygon fill="midnightblue" stroke="midnightblue" points="885.478,-72.2004 875.779,-76.4629 886.019,-79.1794 885.478,-72.2004"/>
</g>
<!-- Node11 -->
<g id="node11" class="node"><title>Node11</title>
<polygon fill="none" stroke="#bfbfbf" points="1612,-0.5 1612,-30.5 1782,-30.5 1782,-0.5 1612,-0.5"/>
<text text-anchor="start" x="1620" y="-18.5" font-family="Helvetica,sans-Serif" font-size="10.00">Modules/TPC/run/runTPCQCTrack</text>
<text text-anchor="middle" x="1697" y="-7.5" font-family="Helvetica,sans-Serif" font-size="10.00">Reader.cxx</text>
</g>
<!-- Node1&#45;&gt;Node11 -->
<g id="edge10" class="edge"><title>Node1&#45;&gt;Node11</title>
<path fill="none" stroke="midnightblue" d="M885.909,-78.8981C1027.92,-73.5853 1340.76,-59.507 1603,-31 1605.95,-30.6788 1608.96,-30.3311 1611.99,-29.9621"/>
<polygon fill="midnightblue" stroke="midnightblue" points="885.436,-75.4132 875.572,-79.2806 885.695,-82.4084 885.436,-75.4132"/>
</g>
</g>
</svg>
