<?xml version="1.0" encoding="UTF-8" standalone="no"?>
<!DOCTYPE svg PUBLIC "-//W3C//DTD SVG 1.1//EN"
 "http://www.w3.org/Graphics/SVG/1.1/DTD/svg11.dtd">
<!-- Generated by graphviz version 2.38.0 (20140413.2041)
 -->
<!-- Title: Modules/TOF/src/CheckRawMultiplicity.cxx Pages: 1 -->
<svg width="824pt" height="263pt"
 viewBox="0.00 0.00 824.00 263.00" xmlns="http://www.w3.org/2000/svg" xmlns:xlink="http://www.w3.org/1999/xlink">
<g id="graph0" class="graph" transform="scale(1 1) rotate(0) translate(4 259)">
<title>Modules/TOF/src/CheckRawMultiplicity.cxx</title>
<!-- Node1 -->
<g id="node1" class="node"><title>Node1</title>
<polygon fill="#bfbfbf" stroke="black" points="516.5,-224.5 516.5,-254.5 660.5,-254.5 660.5,-224.5 516.5,-224.5"/>
<text text-anchor="start" x="524.5" y="-242.5" font-family="Helvetica,sans-Serif" font-size="10.00">Modules/TOF/src/CheckRaw</text>
<text text-anchor="middle" x="588.5" y="-231.5" font-family="Helvetica,sans-Serif" font-size="10.00">Multiplicity.cxx</text>
</g>
<!-- Node2 -->
<g id="node2" class="node"><title>Node2</title>
<g id="a_node2"><a xlink:href="CheckRawMultiplicity_8h.html" target="_top" xlink:title="Checker for the raw hit multiplicity obtained with the TaskDigits. ">
<polygon fill="none" stroke="black" points="201,-168.5 201,-187.5 344,-187.5 344,-168.5 201,-168.5"/>
<text text-anchor="middle" x="272.5" y="-175.5" font-family="Helvetica,sans-Serif" font-size="10.00">TOF/CheckRawMultiplicity.h</text>
</a>
</g>
</g>
<!-- Node1&#45;&gt;Node2 -->
<g id="edge1" class="edge"><title>Node1&#45;&gt;Node2</title>
<path fill="none" stroke="midnightblue" d="M516.399,-224.924C459.191,-214.152 380.396,-199.316 328.022,-189.454"/>
<polygon fill="midnightblue" stroke="midnightblue" points="328.389,-185.962 317.914,-187.551 327.093,-192.841 328.389,-185.962"/>
</g>
<!-- Node13 -->
<g id="node13" class="node"><title>Node13</title>
<g id="a_node13"><a xlink:href="QcInfoLogger_8h.html" target="_top" xlink:title="QualityControl/QcInfoLogger.h">
<polygon fill="none" stroke="black" points="362,-168.5 362,-187.5 511,-187.5 511,-168.5 362,-168.5"/>
<text text-anchor="middle" x="436.5" y="-175.5" font-family="Helvetica,sans-Serif" font-size="10.00">QualityControl/QcInfoLogger.h</text>
</a>
</g>
</g>
<!-- Node1&#45;&gt;Node13 -->
<g id="edge15" class="edge"><title>Node1&#45;&gt;Node13</title>
<path fill="none" stroke="midnightblue" d="M552.478,-224.399C526.861,-214.372 492.773,-201.028 468.19,-191.405"/>
<polygon fill="midnightblue" stroke="midnightblue" points="469.205,-188.044 458.617,-187.658 466.654,-194.562 469.205,-188.044"/>
</g>
<!-- Node16 -->
<g id="node16" class="node"><title>Node16</title>
<polygon fill="none" stroke="#bfbfbf" points="528.5,-168.5 528.5,-187.5 572.5,-187.5 572.5,-168.5 528.5,-168.5"/>
<text text-anchor="middle" x="550.5" y="-175.5" font-family="Helvetica,sans-Serif" font-size="10.00">TH1.h</text>
</g>
<!-- Node1&#45;&gt;Node16 -->
<g id="edge18" class="edge"><title>Node1&#45;&gt;Node16</title>
<path fill="none" stroke="midnightblue" d="M579.495,-224.399C574.087,-215.932 567.168,-205.099 561.446,-196.139"/>
<polygon fill="midnightblue" stroke="midnightblue" points="564.362,-194.202 556.029,-187.658 558.462,-197.97 564.362,-194.202"/>
</g>
<!-- Node17 -->
<g id="node17" class="node"><title>Node17</title>
<polygon fill="none" stroke="#bfbfbf" points="591,-168.5 591,-187.5 664,-187.5 664,-168.5 591,-168.5"/>
<text text-anchor="middle" x="627.5" y="-175.5" font-family="Helvetica,sans-Serif" font-size="10.00">TPaveText.h</text>
</g>
<!-- Node1&#45;&gt;Node17 -->
<g id="edge19" class="edge"><title>Node1&#45;&gt;Node17</title>
<path fill="none" stroke="midnightblue" d="M597.742,-224.399C603.293,-215.932 610.393,-205.099 616.266,-196.139"/>
<polygon fill="midnightblue" stroke="midnightblue" points="619.27,-197.94 621.825,-187.658 613.416,-194.103 619.27,-197.94"/>
</g>
<!-- Node18 -->
<g id="node18" class="node"><title>Node18</title>
<polygon fill="none" stroke="#bfbfbf" points="682,-168.5 682,-187.5 751,-187.5 751,-168.5 682,-168.5"/>
<text text-anchor="middle" x="716.5" y="-175.5" font-family="Helvetica,sans-Serif" font-size="10.00">TObjArray.h</text>
</g>
<!-- Node1&#45;&gt;Node18 -->
<g id="edge20" class="edge"><title>Node1&#45;&gt;Node18</title>
<path fill="none" stroke="midnightblue" d="M618.834,-224.399C640.023,-214.55 668.094,-201.501 688.702,-191.922"/>
<polygon fill="midnightblue" stroke="midnightblue" points="690.282,-195.047 697.875,-187.658 687.331,-188.699 690.282,-195.047"/>
</g>
<!-- Node19 -->
<g id="node19" class="node"><title>Node19</title>
<polygon fill="none" stroke="#bfbfbf" points="769,-168.5 769,-187.5 816,-187.5 816,-168.5 769,-168.5"/>
<text text-anchor="middle" x="792.5" y="-175.5" font-family="Helvetica,sans-Serif" font-size="10.00">TList.h</text>
</g>
<!-- Node1&#45;&gt;Node19 -->
<g id="edge21" class="edge"><title>Node1&#45;&gt;Node19</title>
<path fill="none" stroke="midnightblue" d="M636.587,-224.475C674.27,-213.484 725.731,-198.474 759.041,-188.759"/>
<polygon fill="midnightblue" stroke="midnightblue" points="760.141,-192.084 768.761,-185.924 758.181,-185.364 760.141,-192.084"/>
</g>
<!-- Node3 -->
<g id="node3" class="node"><title>Node3</title>
<g id="a_node3"><a xlink:href="CheckInterface_8h.html" target="_top" xlink:title="QualityControl/CheckInterface.h">
<polygon fill="none" stroke="black" points="83,-112.5 83,-131.5 240,-131.5 240,-112.5 83,-112.5"/>
<text text-anchor="middle" x="161.5" y="-119.5" font-family="Helvetica,sans-Serif" font-size="10.00">QualityControl/CheckInterface.h</text>
</a>
</g>
</g>
<!-- Node2&#45;&gt;Node3 -->
<g id="edge2" class="edge"><title>Node2&#45;&gt;Node3</title>
<path fill="none" stroke="midnightblue" d="M254.666,-168.324C236.784,-159.625 209.025,-146.12 188.454,-136.113"/>
<polygon fill="midnightblue" stroke="midnightblue" points="189.813,-132.882 179.29,-131.655 186.751,-139.177 189.813,-132.882"/>
</g>
<!-- Node12 -->
<g id="node12" class="node"><title>Node12</title>
<polygon fill="none" stroke="#bfbfbf" points="258.5,-112.5 258.5,-131.5 314.5,-131.5 314.5,-112.5 258.5,-112.5"/>
<text text-anchor="middle" x="286.5" y="-119.5" font-family="Helvetica,sans-Serif" font-size="10.00">TString.h</text>
</g>
<!-- Node2&#45;&gt;Node12 -->
<g id="edge14" class="edge"><title>Node2&#45;&gt;Node12</title>
<path fill="none" stroke="midnightblue" d="M274.812,-168.083C276.667,-160.927 279.335,-150.635 281.654,-141.691"/>
<polygon fill="midnightblue" stroke="midnightblue" points="285.109,-142.309 284.231,-131.751 278.334,-140.553 285.109,-142.309"/>
</g>
<!-- Node4 -->
<g id="node4" class="node"><title>Node4</title>
<polygon fill="none" stroke="#bfbfbf" points="0,-56.5 0,-75.5 83,-75.5 83,-56.5 0,-56.5"/>
<text text-anchor="middle" x="41.5" y="-63.5" font-family="Helvetica,sans-Serif" font-size="10.00">unordered_map</text>
</g>
<!-- Node3&#45;&gt;Node4 -->
<g id="edge3" class="edge"><title>Node3&#45;&gt;Node4</title>
<path fill="none" stroke="midnightblue" d="M142.486,-112.444C122.912,-103.636 92.1924,-89.8116 69.7711,-79.722"/>
<polygon fill="midnightblue" stroke="midnightblue" points="70.9809,-76.4284 60.4254,-75.5164 68.1083,-82.8119 70.9809,-76.4284"/>
</g>
<!-- Node5 -->
<g id="node5" class="node"><title>Node5</title>
<g id="a_node5"><a xlink:href="MonitorObject_8h.html" target="_top" xlink:title="QualityControl/MonitorObject.h">
<polygon fill="none" stroke="black" points="240,-56.5 240,-75.5 391,-75.5 391,-56.5 240,-56.5"/>
<text text-anchor="middle" x="315.5" y="-63.5" font-family="Helvetica,sans-Serif" font-size="10.00">QualityControl/MonitorObject.h</text>
</a>
</g>
</g>
<!-- Node3&#45;&gt;Node5 -->
<g id="edge4" class="edge"><title>Node3&#45;&gt;Node5</title>
<path fill="none" stroke="midnightblue" d="M185.902,-112.444C211.697,-103.399 252.577,-89.064 281.518,-78.9158"/>
<polygon fill="midnightblue" stroke="midnightblue" points="282.934,-82.1283 291.212,-75.5164 280.618,-75.5226 282.934,-82.1283"/>
</g>
<!-- Node11 -->
<g id="node11" class="node"><title>Node11</title>
<g id="a_node11"><a xlink:href="Quality_8h.html" target="_top" xlink:title="QualityControl/Quality.h">
<polygon fill="none" stroke="black" points="101,-56.5 101,-75.5 222,-75.5 222,-56.5 101,-56.5"/>
<text text-anchor="middle" x="161.5" y="-63.5" font-family="Helvetica,sans-Serif" font-size="10.00">QualityControl/Quality.h</text>
</a>
</g>
</g>
<!-- Node3&#45;&gt;Node11 -->
<g id="edge10" class="edge"><title>Node3&#45;&gt;Node11</title>
<path fill="none" stroke="midnightblue" d="M161.5,-112.083C161.5,-105.006 161.5,-94.8611 161.5,-85.9865"/>
<polygon fill="midnightblue" stroke="midnightblue" points="165,-85.751 161.5,-75.7511 158,-85.7511 165,-85.751"/>
</g>
<!-- Node6 -->
<g id="node6" class="node"><title>Node6</title>
<polygon fill="none" stroke="#bfbfbf" points="113,-0.5 113,-19.5 154,-19.5 154,-0.5 113,-0.5"/>
<text text-anchor="middle" x="133.5" y="-7.5" font-family="Helvetica,sans-Serif" font-size="10.00">string</text>
</g>
<!-- Node5&#45;&gt;Node6 -->
<g id="edge5" class="edge"><title>Node5&#45;&gt;Node6</title>
<path fill="none" stroke="midnightblue" d="M285.844,-56.4194C256.921,-48.0195 211.441,-34.7295 163.665,-20.3242"/>
<polygon fill="midnightblue" stroke="midnightblue" points="164.668,-16.9711 154.084,-17.4294 162.644,-23.672 164.668,-16.9711"/>
</g>
<!-- Node7 -->
<g id="node7" class="node"><title>Node7</title>
<polygon fill="none" stroke="#bfbfbf" points="172,-0.5 172,-19.5 207,-19.5 207,-0.5 172,-0.5"/>
<text text-anchor="middle" x="189.5" y="-7.5" font-family="Helvetica,sans-Serif" font-size="10.00">map</text>
</g>
<!-- Node5&#45;&gt;Node7 -->
<g id="edge6" class="edge"><title>Node5&#45;&gt;Node7</title>
<path fill="none" stroke="midnightblue" d="M295.535,-56.4435C274.284,-47.3359 240.518,-32.865 216.812,-22.7053"/>
<polygon fill="midnightblue" stroke="midnightblue" points="217.905,-19.3656 207.334,-18.6433 215.147,-25.7996 217.905,-19.3656"/>
</g>
<!-- Node8 -->
<g id="node8" class="node"><title>Node8</title>
<polygon fill="none" stroke="#bfbfbf" points="225.5,-0.5 225.5,-19.5 281.5,-19.5 281.5,-0.5 225.5,-0.5"/>
<text text-anchor="middle" x="253.5" y="-7.5" font-family="Helvetica,sans-Serif" font-size="10.00">Rtypes.h</text>
</g>
<!-- Node5&#45;&gt;Node8 -->
<g id="edge7" class="edge"><title>Node5&#45;&gt;Node8</title>
<path fill="none" stroke="midnightblue" d="M305.539,-56.324C296.373,-48.3414 282.563,-36.3128 271.472,-26.6529"/>
<polygon fill="midnightblue" stroke="midnightblue" points="273.482,-23.7624 263.643,-19.8339 268.885,-29.041 273.482,-23.7624"/>
</g>
<!-- Node9 -->
<g id="node9" class="node"><title>Node9</title>
<polygon fill="none" stroke="#bfbfbf" points="434,-0.5 434,-19.5 493,-19.5 493,-0.5 434,-0.5"/>
<text text-anchor="middle" x="463.5" y="-7.5" font-family="Helvetica,sans-Serif" font-size="10.00">TObject.h</text>
</g>
<!-- Node5&#45;&gt;Node9 -->
<g id="edge8" class="edge"><title>Node5&#45;&gt;Node9</title>
<path fill="none" stroke="midnightblue" d="M338.951,-56.4435C363.633,-47.4381 402.685,-33.1891 430.477,-23.049"/>
<polygon fill="midnightblue" stroke="midnightblue" points="431.964,-26.2321 440.159,-19.5164 429.565,-19.6561 431.964,-26.2321"/>
</g>
<!-- Node10 -->
<g id="node10" class="node"><title>Node10</title>
<polygon fill="none" stroke="#bfbfbf" points="299.5,-0.5 299.5,-19.5 415.5,-19.5 415.5,-0.5 299.5,-0.5"/>
<text text-anchor="middle" x="357.5" y="-7.5" font-family="Helvetica,sans-Serif" font-size="10.00">Common/Exceptions.h</text>
</g>
<!-- Node5&#45;&gt;Node10 -->
<g id="edge9" class="edge"><title>Node5&#45;&gt;Node10</title>
<path fill="none" stroke="midnightblue" d="M322.435,-56.083C328.429,-48.3768 337.252,-37.0333 344.548,-27.6531"/>
<polygon fill="midnightblue" stroke="midnightblue" points="347.317,-29.7934 350.694,-19.7511 341.791,-25.4958 347.317,-29.7934"/>
</g>
<!-- Node11&#45;&gt;Node6 -->
<g id="edge12" class="edge"><title>Node11&#45;&gt;Node6</title>
<path fill="none" stroke="midnightblue" d="M156.876,-56.083C153.044,-48.6913 147.476,-37.9533 142.735,-28.8111"/>
<polygon fill="midnightblue" stroke="midnightblue" points="145.748,-27.0175 138.038,-19.7511 139.534,-30.2398 145.748,-27.0175"/>
</g>
<!-- Node11&#45;&gt;Node7 -->
<g id="edge13" class="edge"><title>Node11&#45;&gt;Node7</title>
<path fill="none" stroke="midnightblue" d="M166.124,-56.083C169.956,-48.6913 175.524,-37.9533 180.265,-28.8111"/>
<polygon fill="midnightblue" stroke="midnightblue" points="183.466,-30.2398 184.962,-19.7511 177.252,-27.0175 183.466,-30.2398"/>
</g>
<!-- Node11&#45;&gt;Node8 -->
<g id="edge11" class="edge"><title>Node11&#45;&gt;Node8</title>
<path fill="none" stroke="midnightblue" d="M176.281,-56.324C190.767,-47.8215 213.073,-34.7288 229.993,-24.7975"/>
<polygon fill="midnightblue" stroke="midnightblue" points="231.903,-27.735 238.755,-19.6545 228.359,-21.6981 231.903,-27.735"/>
</g>
<!-- Node14 -->
<g id="node14" class="node"><title>Node14</title>
<polygon fill="none" stroke="#bfbfbf" points="358.5,-112.5 358.5,-131.5 488.5,-131.5 488.5,-112.5 358.5,-112.5"/>
<text text-anchor="middle" x="423.5" y="-119.5" font-family="Helvetica,sans-Serif" font-size="10.00">InfoLogger/InfoLogger.hxx</text>
</g>
<!-- Node13&#45;&gt;Node14 -->
<g id="edge16" class="edge"><title>Node13&#45;&gt;Node14</title>
<path fill="none" stroke="midnightblue" d="M434.353,-168.083C432.631,-160.927 430.153,-150.635 428,-141.691"/>
<polygon fill="midnightblue" stroke="midnightblue" points="431.35,-140.654 425.607,-131.751 424.545,-142.293 431.35,-140.654"/>
</g>
<!-- Node15 -->
<g id="node15" class="node"><title>Node15</title>
<polygon fill="none" stroke="#bfbfbf" points="506.5,-112.5 506.5,-131.5 668.5,-131.5 668.5,-112.5 506.5,-112.5"/>
<text text-anchor="middle" x="587.5" y="-119.5" font-family="Helvetica,sans-Serif" font-size="10.00">InfoLogger/InfoLoggerMacros.hxx</text>
</g>
<!-- Node13&#45;&gt;Node15 -->
<g id="edge17" class="edge"><title>Node13&#45;&gt;Node15</title>
<path fill="none" stroke="midnightblue" d="M460.426,-168.444C485.719,-159.399 525.802,-145.064 554.18,-134.916"/>
<polygon fill="midnightblue" stroke="midnightblue" points="555.448,-138.179 563.686,-131.516 553.091,-131.588 555.448,-138.179"/>
</g>
</g>
</svg>
