<?xml version="1.0" encoding="UTF-8" standalone="no"?>
<!DOCTYPE svg PUBLIC "-//W3C//DTD SVG 1.1//EN"
 "http://www.w3.org/Graphics/SVG/1.1/DTD/svg11.dtd">
<!-- Generated by graphviz version 2.38.0 (20140413.2041)
 -->
<!-- Title: Framework/include/QualityControl/CheckRunner.h Pages: 1 -->
<!--zoomable 274 -->
<svg id="main" version="1.1" xmlns="http://www.w3.org/2000/svg" xmlns:xlink="http://www.w3.org/1999/xlink" xml:space="preserve" onload="init(evt)">
<style type="text/css"><![CDATA[
.edge:hover path { stroke: red; }
.edge:hover polygon { stroke: red; fill: red; }
]]></style>
<script type="text/javascript"><![CDATA[
var edges = document.getElementsByTagName('g');
if (edges && edges.length) {
  for (var i=0;i<edges.length;i++) {
    if (edges[i].id.substr(0,4)=='edge') {
      edges[i].setAttribute('class','edge');
    }
  }
}
]]></script>
        <defs>
                <circle id="rim" cx="0" cy="0" r="7"/>
                <circle id="rim2" cx="0" cy="0" r="3.5"/>
                <g id="zoomPlus">
                        <use xlink:href="#rim" fill="#404040">
                                <set attributeName="fill" to="#808080" begin="zoomplus.mouseover" end="zoomplus.mouseout"/>
                        </use>
                        <path d="M-4,0h8M0,-4v8" fill="none" stroke="white" stroke-width="1.5" pointer-events="none"/>
                </g>
                <g id="zoomMin">
                        <use xlink:href="#rim" fill="#404040">
                                <set attributeName="fill" to="#808080" begin="zoomminus.mouseover" end="zoomminus.mouseout"/>
                        </use>
                        <path d="M-4,0h8" fill="none" stroke="white" stroke-width="1.5" pointer-events="none"/>
                </g>
                <g id="dirArrow">
                        <path fill="none" stroke="white" stroke-width="1.5" d="M0,-3.0v7 M-2.5,-0.5L0,-3.0L2.5,-0.5"/>
                </g>
               <g id="resetDef">
                       <use xlink:href="#rim2" fill="#404040">
                               <set attributeName="fill" to="#808080" begin="reset.mouseover" end="reset.mouseout"/>
                       </use>
               </g>
        </defs>

<script type="text/javascript">
var viewWidth = 2324;
var viewHeight = 274;
var sectionId = 'dynsection-0';
</script>
<script xlink:href="svgpan.js"/>
<svg id="graph" class="graph">
<g id="viewport">
<title>Framework/include/QualityControl/CheckRunner.h</title>
<!-- Node1 -->
<g id="node1" class="node"><title>Node1</title>
<polygon fill="#bfbfbf" stroke="black" points="1244.5,-235.5 1244.5,-265.5 1377.5,-265.5 1377.5,-235.5 1244.5,-235.5"/>
<text text-anchor="start" x="1252.5" y="-253.5" font-family="Helvetica,sans-Serif" font-size="10.00">Framework/include/Quality</text>
<text text-anchor="middle" x="1311" y="-242.5" font-family="Helvetica,sans-Serif" font-size="10.00">Control/CheckRunner.h</text>
</g>
<!-- Node2 -->
<g id="node2" class="node"><title>Node2</title>
<polygon fill="none" stroke="#bfbfbf" points="0,-174 0,-193 46,-193 46,-174 0,-174"/>
<text text-anchor="middle" x="23" y="-181" font-family="Helvetica,sans-Serif" font-size="10.00">chrono</text>
</g>
<!-- Node1&#45;&gt;Node2 -->
<g id="edge1" class="edge"><title>Node1&#45;&gt;Node2</title>
<path fill="none" stroke="midnightblue" d="M1244.19,-249.721C1019.01,-250.01 289.214,-247.118 60,-199 56.9911,-198.368 53.9086,-197.517 50.8693,-196.542"/>
<polygon fill="midnightblue" stroke="midnightblue" points="52.0449,-193.246 41.4508,-193.122 49.6558,-199.825 52.0449,-193.246"/>
</g>
<!-- Node3 -->
<g id="node3" class="node"><title>Node3</title>
<polygon fill="none" stroke="#bfbfbf" points="546,-112.5 546,-131.5 598,-131.5 598,-112.5 546,-112.5"/>
<text text-anchor="middle" x="572" y="-119.5" font-family="Helvetica,sans-Serif" font-size="10.00">memory</text>
</g>
<!-- Node1&#45;&gt;Node3 -->
<g id="edge2" class="edge"><title>Node1&#45;&gt;Node3</title>
<path fill="none" stroke="midnightblue" d="M1244.44,-248.337C1080.01,-244.954 664.122,-233.09 612,-199 592.066,-185.962 581.434,-159.601 576.258,-141.622"/>
<polygon fill="midnightblue" stroke="midnightblue" points="579.646,-140.745 573.758,-131.937 572.868,-142.494 579.646,-140.745"/>
</g>
<!-- Node4 -->
<g id="node4" class="node"><title>Node4</title>
<polygon fill="none" stroke="#bfbfbf" points="612.5,-0.5 612.5,-19.5 653.5,-19.5 653.5,-0.5 612.5,-0.5"/>
<text text-anchor="middle" x="633" y="-7.5" font-family="Helvetica,sans-Serif" font-size="10.00">string</text>
</g>
<!-- Node1&#45;&gt;Node4 -->
<g id="edge3" class="edge"><title>Node1&#45;&gt;Node4</title>
<path fill="none" stroke="midnightblue" d="M1244.35,-246.105C1099.47,-237.338 762.472,-208.98 683,-132 653.845,-103.76 641.036,-56.041 635.954,-29.7599"/>
<polygon fill="midnightblue" stroke="midnightblue" points="639.353,-28.8783 634.178,-19.6334 632.458,-30.0877 639.353,-28.8783"/>
</g>
<!-- Node5 -->
<g id="node5" class="node"><title>Node5</title>
<polygon fill="none" stroke="#bfbfbf" points="925.5,-0.5 925.5,-19.5 960.5,-19.5 960.5,-0.5 925.5,-0.5"/>
<text text-anchor="middle" x="943" y="-7.5" font-family="Helvetica,sans-Serif" font-size="10.00">map</text>
</g>
<!-- Node1&#45;&gt;Node5 -->
<g id="edge4" class="edge"><title>Node1&#45;&gt;Node5</title>
<path fill="none" stroke="midnightblue" d="M1377.53,-239.738C1416.71,-232.219 1466.39,-219.537 1507,-199 1526.45,-189.163 1525.19,-177.093 1545,-168 1629.67,-129.135 1781.05,-198.717 1747,-112 1734.59,-80.3858 1725.71,-70.5004 1695,-56 1628.56,-24.6331 1099.4,-13.661 970.995,-11.4469"/>
<polygon fill="midnightblue" stroke="midnightblue" points="970.868,-7.94434 960.81,-11.2753 970.75,-14.9434 970.868,-7.94434"/>
</g>
<!-- Node6 -->
<g id="node6" class="node"><title>Node6</title>
<polygon fill="none" stroke="#bfbfbf" points="1148,-112.5 1148,-131.5 1192,-131.5 1192,-112.5 1148,-112.5"/>
<text text-anchor="middle" x="1170" y="-119.5" font-family="Helvetica,sans-Serif" font-size="10.00">vector</text>
</g>
<!-- Node1&#45;&gt;Node6 -->
<g id="edge5" class="edge"><title>Node1&#45;&gt;Node6</title>
<path fill="none" stroke="midnightblue" d="M1295.37,-235.479C1268.86,-211.694 1215.26,-163.602 1187.52,-138.715"/>
<polygon fill="midnightblue" stroke="midnightblue" points="1189.58,-135.861 1179.8,-131.789 1184.9,-141.072 1189.58,-135.861"/>
</g>
<!-- Node7 -->
<g id="node7" class="node"><title>Node7</title>
<polygon fill="none" stroke="#bfbfbf" points="1554,-174 1554,-193 1632,-193 1632,-174 1554,-174"/>
<text text-anchor="middle" x="1593" y="-181" font-family="Helvetica,sans-Serif" font-size="10.00">unordered_set</text>
</g>
<!-- Node1&#45;&gt;Node7 -->
<g id="edge6" class="edge"><title>Node1&#45;&gt;Node7</title>
<path fill="none" stroke="midnightblue" d="M1377.59,-235.734C1423.4,-226.04 1485.55,-212.442 1540,-199 1544.17,-197.971 1548.51,-196.856 1552.83,-195.716"/>
<polygon fill="midnightblue" stroke="midnightblue" points="1554.05,-199.014 1562.8,-193.043 1552.23,-192.253 1554.05,-199.014"/>
</g>
<!-- Node8 -->
<g id="node8" class="node"><title>Node8</title>
<polygon fill="none" stroke="#bfbfbf" points="1650,-174 1650,-193 1742,-193 1742,-174 1650,-174"/>
<text text-anchor="middle" x="1696" y="-181" font-family="Helvetica,sans-Serif" font-size="10.00">Common/Timer.h</text>
</g>
<!-- Node1&#45;&gt;Node8 -->
<g id="edge7" class="edge"><title>Node1&#45;&gt;Node8</title>
<path fill="none" stroke="midnightblue" d="M1377.74,-241.397C1444.66,-232.778 1550.49,-217.802 1641,-199 1645.82,-197.998 1650.85,-196.837 1655.83,-195.615"/>
<polygon fill="midnightblue" stroke="midnightblue" points="1657.05,-198.916 1665.88,-193.056 1655.32,-192.132 1657.05,-198.916"/>
</g>
<!-- Node9 -->
<g id="node9" class="node"><title>Node9</title>
<polygon fill="none" stroke="#bfbfbf" points="1760,-174 1760,-193 1858,-193 1858,-174 1760,-174"/>
<text text-anchor="middle" x="1809" y="-181" font-family="Helvetica,sans-Serif" font-size="10.00">Framework/Task.h</text>
</g>
<!-- Node1&#45;&gt;Node9 -->
<g id="edge8" class="edge"><title>Node1&#45;&gt;Node9</title>
<path fill="none" stroke="midnightblue" d="M1377.74,-244.572C1464.3,-237.558 1619.74,-222.834 1751,-199 1756.55,-197.992 1762.36,-196.758 1768.07,-195.439"/>
<polygon fill="midnightblue" stroke="midnightblue" points="1769.26,-198.753 1778.16,-193.005 1767.62,-191.948 1769.26,-198.753"/>
</g>
<!-- Node10 -->
<g id="node10" class="node"><title>Node10</title>
<polygon fill="none" stroke="#bfbfbf" points="1876.5,-174 1876.5,-193 1993.5,-193 1993.5,-174 1876.5,-174"/>
<text text-anchor="middle" x="1935" y="-181" font-family="Helvetica,sans-Serif" font-size="10.00">Headers/DataHeader.h</text>
</g>
<!-- Node1&#45;&gt;Node10 -->
<g id="edge9" class="edge"><title>Node1&#45;&gt;Node10</title>
<path fill="none" stroke="midnightblue" d="M1377.64,-246.028C1482.3,-239.995 1691.39,-225.601 1867,-199 1874.14,-197.919 1881.65,-196.551 1888.98,-195.09"/>
<polygon fill="midnightblue" stroke="midnightblue" points="1889.71,-198.512 1898.8,-193.058 1888.3,-191.657 1889.71,-198.512"/>
</g>
<!-- Node11 -->
<g id="node11" class="node"><title>Node11</title>
<polygon fill="none" stroke="#bfbfbf" points="2011.5,-174 2011.5,-193 2162.5,-193 2162.5,-174 2011.5,-174"/>
<text text-anchor="middle" x="2087" y="-181" font-family="Helvetica,sans-Serif" font-size="10.00">Monitoring/MonitoringFactory.h</text>
</g>
<!-- Node1&#45;&gt;Node11 -->
<g id="edge10" class="edge"><title>Node1&#45;&gt;Node11</title>
<path fill="none" stroke="midnightblue" d="M1377.53,-246.818C1501.11,-241.355 1774.33,-227.011 2003,-199 2012.48,-197.838 2022.53,-196.34 2032.25,-194.749"/>
<polygon fill="midnightblue" stroke="midnightblue" points="2032.94,-198.182 2042.22,-193.068 2031.78,-191.279 2032.94,-198.182"/>
</g>
<!-- Node12 -->
<g id="node12" class="node"><title>Node12</title>
<polygon fill="none" stroke="#bfbfbf" points="2180.5,-168.5 2180.5,-198.5 2315.5,-198.5 2315.5,-168.5 2180.5,-168.5"/>
<text text-anchor="start" x="2188.5" y="-186.5" font-family="Helvetica,sans-Serif" font-size="10.00">Configuration/Configuration</text>
<text text-anchor="middle" x="2248" y="-175.5" font-family="Helvetica,sans-Serif" font-size="10.00">Interface.h</text>
</g>
<!-- Node1&#45;&gt;Node12 -->
<g id="edge11" class="edge"><title>Node1&#45;&gt;Node12</title>
<path fill="none" stroke="midnightblue" d="M1377.7,-248.535C1521.1,-245.822 1869.47,-235.813 2169.9,-199.163"/>
<polygon fill="midnightblue" stroke="midnightblue" points="2170.62,-202.601 2180.12,-197.904 2169.76,-195.654 2170.62,-202.601"/>
</g>
<!-- Node13 -->
<g id="node13" class="node"><title>Node13</title>
<polygon fill="none" stroke="#bfbfbf" points="1210,-112.5 1210,-131.5 1374,-131.5 1374,-112.5 1210,-112.5"/>
<text text-anchor="middle" x="1292" y="-119.5" font-family="Helvetica,sans-Serif" font-size="10.00">Framework/DataProcessorSpec.h</text>
</g>
<!-- Node1&#45;&gt;Node13 -->
<g id="edge12" class="edge"><title>Node1&#45;&gt;Node13</title>
<path fill="none" stroke="midnightblue" d="M1308.89,-235.479C1305.46,-212.616 1298.65,-167.296 1294.81,-141.713"/>
<polygon fill="midnightblue" stroke="midnightblue" points="1298.27,-141.158 1293.32,-131.789 1291.34,-142.198 1298.27,-141.158"/>
</g>
<!-- Node14 -->
<g id="node14" class="node"><title>Node14</title>
<g id="a_node14"><a xlink:href="CheckInterface_8h.html" target="_top" xlink:title="QualityControl/CheckInterface.h">
<polygon fill="none" stroke="black" points="692.5,-112.5 692.5,-131.5 849.5,-131.5 849.5,-112.5 692.5,-112.5"/>
<text text-anchor="middle" x="771" y="-119.5" font-family="Helvetica,sans-Serif" font-size="10.00">QualityControl/CheckInterface.h</text>
</a>
</g>
</g>
<!-- Node1&#45;&gt;Node14 -->
<g id="edge13" class="edge"><title>Node1&#45;&gt;Node14</title>
<path fill="none" stroke="midnightblue" d="M1244.2,-245.495C1170.73,-239.871 1049.73,-226.993 949,-199 892.425,-183.277 830.146,-153.606 796.313,-136.356"/>
<polygon fill="midnightblue" stroke="midnightblue" points="797.65,-133.108 787.158,-131.636 794.442,-139.329 797.65,-133.108"/>
</g>
<!-- Node16 -->
<g id="node16" class="node"><title>Node16</title>
<g id="a_node16"><a xlink:href="MonitorObject_8h.html" target="_top" xlink:title="QualityControl/MonitorObject.h">
<polygon fill="none" stroke="black" points="408.5,-56.5 408.5,-75.5 559.5,-75.5 559.5,-56.5 408.5,-56.5"/>
<text text-anchor="middle" x="484" y="-63.5" font-family="Helvetica,sans-Serif" font-size="10.00">QualityControl/MonitorObject.h</text>
</a>
</g>
</g>
<!-- Node1&#45;&gt;Node16 -->
<g id="edge37" class="edge"><title>Node1&#45;&gt;Node16</title>
<path fill="none" stroke="midnightblue" d="M1244.38,-248.592C1000.05,-244.536 163.647,-223.979 93,-132 54.586,-81.987 271.605,-70.2697 397.988,-67.6483"/>
<polygon fill="midnightblue" stroke="midnightblue" points="398.119,-71.1466 408.049,-67.4548 397.984,-64.1479 398.119,-71.1466"/>
</g>
<!-- Node21 -->
<g id="node21" class="node"><title>Node21</title>
<g id="a_node21"><a xlink:href="DatabaseInterface_8h.html" target="_top" xlink:title="QualityControl/DatabaseInterface.h">
<polygon fill="none" stroke="black" points="353,-174 353,-193 523,-193 523,-174 353,-174"/>
<text text-anchor="middle" x="438" y="-181" font-family="Helvetica,sans-Serif" font-size="10.00">QualityControl/DatabaseInterface.h</text>
</a>
</g>
</g>
<!-- Node1&#45;&gt;Node21 -->
<g id="edge25" class="edge"><title>Node1&#45;&gt;Node21</title>
<path fill="none" stroke="midnightblue" d="M1244.39,-245.996C1114.01,-238.912 815.988,-221.621 566,-199 550.561,-197.603 534.098,-195.899 518.298,-194.158"/>
<polygon fill="midnightblue" stroke="midnightblue" points="518.355,-190.642 508.029,-193.011 517.578,-197.599 518.355,-190.642"/>
</g>
<!-- Node24 -->
<g id="node24" class="node"><title>Node24</title>
<g id="a_node24"><a xlink:href="QcInfoLogger_8h.html" target="_top" xlink:title="QualityControl/QcInfoLogger.h">
<polygon fill="none" stroke="black" points="1392.5,-112.5 1392.5,-131.5 1541.5,-131.5 1541.5,-112.5 1392.5,-112.5"/>
<text text-anchor="middle" x="1467" y="-119.5" font-family="Helvetica,sans-Serif" font-size="10.00">QualityControl/QcInfoLogger.h</text>
</a>
</g>
</g>
<!-- Node1&#45;&gt;Node24 -->
<g id="edge38" class="edge"><title>Node1&#45;&gt;Node24</title>
<path fill="none" stroke="midnightblue" d="M1314.08,-235.467C1318.71,-217.506 1329.11,-186.505 1349,-168 1366.47,-151.745 1390.41,-141.178 1412.17,-134.4"/>
<polygon fill="midnightblue" stroke="midnightblue" points="1413.35,-137.701 1421.98,-131.546 1411.4,-130.979 1413.35,-137.701"/>
</g>
<!-- Node27 -->
<g id="node27" class="node"><title>Node27</title>
<g id="a_node27"><a xlink:href="Check_8h_source.html" target="_top" xlink:title="QualityControl/Check.h">
<polygon fill="none" stroke="black" points="958.5,-174 958.5,-193 1077.5,-193 1077.5,-174 958.5,-174"/>
<text text-anchor="middle" x="1018" y="-181" font-family="Helvetica,sans-Serif" font-size="10.00">QualityControl/Check.h</text>
</a>
</g>
</g>
<!-- Node1&#45;&gt;Node27 -->
<g id="edge41" class="edge"><title>Node1&#45;&gt;Node27</title>
<path fill="none" stroke="midnightblue" d="M1247.78,-235.476C1193.33,-223.395 1115.88,-206.215 1066.28,-195.211"/>
<polygon fill="midnightblue" stroke="midnightblue" points="1066.97,-191.778 1056.44,-193.029 1065.45,-198.611 1066.97,-191.778"/>
</g>
<!-- Node30 -->
<g id="node30" class="node"><title>Node30</title>
<g id="a_node30"><a xlink:href="UpdatePolicyManager_8h.html" target="_top" xlink:title="QualityControl/UpdatePolicy\lManager.h">
<polygon fill="none" stroke="black" points="1358,-168.5 1358,-198.5 1498,-198.5 1498,-168.5 1358,-168.5"/>
<text text-anchor="start" x="1366" y="-186.5" font-family="Helvetica,sans-Serif" font-size="10.00">QualityControl/UpdatePolicy</text>
<text text-anchor="middle" x="1428" y="-175.5" font-family="Helvetica,sans-Serif" font-size="10.00">Manager.h</text>
</a>
</g>
</g>
<!-- Node1&#45;&gt;Node30 -->
<g id="edge56" class="edge"><title>Node1&#45;&gt;Node30</title>
<path fill="none" stroke="midnightblue" d="M1336.39,-235.396C1353.18,-226.069 1375.39,-213.728 1393.74,-203.534"/>
<polygon fill="midnightblue" stroke="midnightblue" points="1395.62,-206.493 1402.66,-198.577 1392.22,-200.373 1395.62,-206.493"/>
</g>
<!-- Node15 -->
<g id="node15" class="node"><title>Node15</title>
<polygon fill="none" stroke="#bfbfbf" points="859.5,-56.5 859.5,-75.5 942.5,-75.5 942.5,-56.5 859.5,-56.5"/>
<text text-anchor="middle" x="901" y="-63.5" font-family="Helvetica,sans-Serif" font-size="10.00">unordered_map</text>
</g>
<!-- Node14&#45;&gt;Node15 -->
<g id="edge14" class="edge"><title>Node14&#45;&gt;Node15</title>
<path fill="none" stroke="midnightblue" d="M791.599,-112.444C812.993,-103.557 846.681,-89.5632 871.024,-79.4514"/>
<polygon fill="midnightblue" stroke="midnightblue" points="872.605,-82.5848 880.497,-75.5164 869.92,-76.1203 872.605,-82.5848"/>
</g>
<!-- Node14&#45;&gt;Node16 -->
<g id="edge15" class="edge"><title>Node14&#45;&gt;Node16</title>
<path fill="none" stroke="midnightblue" d="M725.524,-112.444C675.038,-102.944 593.544,-87.611 539.38,-77.4198"/>
<polygon fill="midnightblue" stroke="midnightblue" points="539.738,-73.9259 529.263,-75.5164 538.444,-80.8052 539.738,-73.9259"/>
</g>
<!-- Node20 -->
<g id="node20" class="node"><title>Node20</title>
<g id="a_node20"><a xlink:href="Quality_8h.html" target="_top" xlink:title="QualityControl/Quality.h">
<polygon fill="none" stroke="black" points="705.5,-56.5 705.5,-75.5 826.5,-75.5 826.5,-56.5 705.5,-56.5"/>
<text text-anchor="middle" x="766" y="-63.5" font-family="Helvetica,sans-Serif" font-size="10.00">QualityControl/Quality.h</text>
</a>
</g>
</g>
<!-- Node14&#45;&gt;Node20 -->
<g id="edge21" class="edge"><title>Node14&#45;&gt;Node20</title>
<path fill="none" stroke="midnightblue" d="M770.174,-112.083C769.519,-105.006 768.58,-94.8611 767.758,-85.9865"/>
<polygon fill="midnightblue" stroke="midnightblue" points="771.217,-85.3858 766.81,-75.7511 764.247,-86.0312 771.217,-85.3858"/>
</g>
<!-- Node16&#45;&gt;Node4 -->
<g id="edge16" class="edge"><title>Node16&#45;&gt;Node4</title>
<path fill="none" stroke="midnightblue" d="M507.609,-56.4435C533.335,-47.1203 574.568,-32.1768 602.673,-21.9911"/>
<polygon fill="midnightblue" stroke="midnightblue" points="604.171,-25.1709 612.38,-18.473 601.786,-18.5898 604.171,-25.1709"/>
</g>
<!-- Node16&#45;&gt;Node5 -->
<g id="edge17" class="edge"><title>Node16&#45;&gt;Node5</title>
<path fill="none" stroke="midnightblue" d="M556.477,-56.4733C659.828,-44.3143 844.801,-22.5528 914.969,-14.2978"/>
<polygon fill="midnightblue" stroke="midnightblue" points="915.692,-17.737 925.214,-13.0924 914.874,-10.7849 915.692,-17.737"/>
</g>
<!-- Node17 -->
<g id="node17" class="node"><title>Node17</title>
<polygon fill="none" stroke="#bfbfbf" points="534,-0.5 534,-19.5 590,-19.5 590,-0.5 534,-0.5"/>
<text text-anchor="middle" x="562" y="-7.5" font-family="Helvetica,sans-Serif" font-size="10.00">Rtypes.h</text>
</g>
<!-- Node16&#45;&gt;Node17 -->
<g id="edge18" class="edge"><title>Node16&#45;&gt;Node17</title>
<path fill="none" stroke="midnightblue" d="M496.532,-56.324C508.586,-47.979 527.027,-35.2122 541.269,-25.3524"/>
<polygon fill="midnightblue" stroke="midnightblue" points="543.269,-28.2243 549.499,-19.6545 539.285,-22.469 543.269,-28.2243"/>
</g>
<!-- Node18 -->
<g id="node18" class="node"><title>Node18</title>
<polygon fill="none" stroke="#bfbfbf" points="447.5,-0.5 447.5,-19.5 506.5,-19.5 506.5,-0.5 447.5,-0.5"/>
<text text-anchor="middle" x="477" y="-7.5" font-family="Helvetica,sans-Serif" font-size="10.00">TObject.h</text>
</g>
<!-- Node16&#45;&gt;Node18 -->
<g id="edge19" class="edge"><title>Node16&#45;&gt;Node18</title>
<path fill="none" stroke="midnightblue" d="M482.844,-56.083C481.916,-48.9272 480.582,-38.6353 479.423,-29.6911"/>
<polygon fill="midnightblue" stroke="midnightblue" points="482.891,-29.2181 478.134,-19.7511 475.949,-30.1181 482.891,-29.2181"/>
</g>
<!-- Node19 -->
<g id="node19" class="node"><title>Node19</title>
<polygon fill="none" stroke="#bfbfbf" points="296,-0.5 296,-19.5 412,-19.5 412,-0.5 296,-0.5"/>
<text text-anchor="middle" x="354" y="-7.5" font-family="Helvetica,sans-Serif" font-size="10.00">Common/Exceptions.h</text>
</g>
<!-- Node16&#45;&gt;Node19 -->
<g id="edge20" class="edge"><title>Node16&#45;&gt;Node19</title>
<path fill="none" stroke="midnightblue" d="M463.401,-56.4435C442.007,-47.5566 408.319,-33.5632 383.976,-23.4514"/>
<polygon fill="midnightblue" stroke="midnightblue" points="385.08,-20.1203 374.503,-19.5164 382.395,-26.5848 385.08,-20.1203"/>
</g>
<!-- Node20&#45;&gt;Node4 -->
<g id="edge23" class="edge"><title>Node20&#45;&gt;Node4</title>
<path fill="none" stroke="midnightblue" d="M744.926,-56.4435C722.811,-47.4646 687.857,-33.2729 662.897,-23.1386"/>
<polygon fill="midnightblue" stroke="midnightblue" points="664.121,-19.8581 653.539,-19.339 661.487,-26.3439 664.121,-19.8581"/>
</g>
<!-- Node20&#45;&gt;Node5 -->
<g id="edge24" class="edge"><title>Node20&#45;&gt;Node5</title>
<path fill="none" stroke="midnightblue" d="M794.046,-56.4435C827.295,-46.2999 882.35,-29.5034 915.401,-19.4199"/>
<polygon fill="midnightblue" stroke="midnightblue" points="916.76,-22.6647 925.304,-16.3989 914.718,-15.9693 916.76,-22.6647"/>
</g>
<!-- Node20&#45;&gt;Node17 -->
<g id="edge22" class="edge"><title>Node20&#45;&gt;Node17</title>
<path fill="none" stroke="midnightblue" d="M733.676,-56.4435C697.373,-46.834 638.515,-31.2539 600.03,-21.0667"/>
<polygon fill="midnightblue" stroke="midnightblue" points="600.794,-17.6485 590.231,-18.473 599.003,-24.4155 600.794,-17.6485"/>
</g>
<!-- Node21&#45;&gt;Node3 -->
<g id="edge27" class="edge"><title>Node21&#45;&gt;Node3</title>
<path fill="none" stroke="midnightblue" d="M457.199,-173.975C479.787,-163.945 517.499,-147.2 543.501,-135.655"/>
<polygon fill="midnightblue" stroke="midnightblue" points="545.118,-138.766 552.837,-131.509 542.277,-132.369 545.118,-138.766"/>
</g>
<!-- Node21&#45;&gt;Node4 -->
<g id="edge26" class="edge"><title>Node21&#45;&gt;Node4</title>
<path fill="none" stroke="midnightblue" d="M402.905,-173.925C363.267,-162.621 307.301,-140.752 332,-112 401.138,-31.5161 473.325,-123.9 568,-76 590.141,-64.7979 609.365,-43.2256 621.047,-28.0123"/>
<polygon fill="midnightblue" stroke="midnightblue" points="623.899,-30.0413 627.019,-19.9162 618.266,-25.886 623.899,-30.0413"/>
</g>
<!-- Node21&#45;&gt;Node6 -->
<g id="edge28" class="edge"><title>Node21&#45;&gt;Node6</title>
<path fill="none" stroke="midnightblue" d="M523.033,-177.425C649.154,-169.579 893.172,-153.171 1100,-132 1112.44,-130.726 1126.1,-129.037 1138.01,-127.466"/>
<polygon fill="midnightblue" stroke="midnightblue" points="1138.52,-130.93 1147.96,-126.13 1137.59,-123.992 1138.52,-130.93"/>
</g>
<!-- Node21&#45;&gt;Node15 -->
<g id="edge29" class="edge"><title>Node21&#45;&gt;Node15</title>
<path fill="none" stroke="midnightblue" d="M446.638,-173.988C462.807,-158.636 499.419,-126.556 537,-112 661.403,-63.8177 702.682,-93.013 835,-76 839.699,-75.3958 844.584,-74.7545 849.476,-74.1034"/>
<polygon fill="midnightblue" stroke="midnightblue" points="850.023,-77.5615 859.468,-72.7621 849.091,-70.6238 850.023,-77.5615"/>
</g>
<!-- Node21&#45;&gt;Node16 -->
<g id="edge36" class="edge"><title>Node21&#45;&gt;Node16</title>
<path fill="none" stroke="midnightblue" d="M380.347,-173.932C331.733,-164.214 273.921,-145.226 300,-112 312.951,-95.5003 358.682,-84.2707 401.309,-77.1558"/>
<polygon fill="midnightblue" stroke="midnightblue" points="401.878,-80.6093 411.197,-75.5675 400.768,-73.6979 401.878,-80.6093"/>
</g>
<!-- Node22 -->
<g id="node22" class="node"><title>Node22</title>
<polygon fill="none" stroke="#bfbfbf" points="102,-112.5 102,-131.5 248,-131.5 248,-112.5 102,-112.5"/>
<text text-anchor="middle" x="175" y="-119.5" font-family="Helvetica,sans-Serif" font-size="10.00">Framework/ServiceRegistry.h</text>
</g>
<!-- Node21&#45;&gt;Node22 -->
<g id="edge30" class="edge"><title>Node21&#45;&gt;Node22</title>
<path fill="none" stroke="midnightblue" d="M400.319,-173.975C353.447,-163.371 273.394,-145.26 222.404,-133.724"/>
<polygon fill="midnightblue" stroke="midnightblue" points="223.137,-130.302 212.612,-131.509 221.593,-137.129 223.137,-130.302"/>
</g>
<!-- Node23 -->
<g id="node23" class="node"><title>Node23</title>
<g id="a_node23"><a xlink:href="QualityObject_8h_source.html" target="_top" xlink:title="QualityControl/QualityObject.h">
<polygon fill="none" stroke="black" points="341.5,-112.5 341.5,-131.5 490.5,-131.5 490.5,-112.5 341.5,-112.5"/>
<text text-anchor="middle" x="416" y="-119.5" font-family="Helvetica,sans-Serif" font-size="10.00">QualityControl/QualityObject.h</text>
</a>
</g>
</g>
<!-- Node21&#45;&gt;Node23 -->
<g id="edge31" class="edge"><title>Node21&#45;&gt;Node23</title>
<path fill="none" stroke="midnightblue" d="M434.848,-173.975C431.679,-165.404 426.696,-151.927 422.649,-140.983"/>
<polygon fill="midnightblue" stroke="midnightblue" points="425.897,-139.675 419.146,-131.509 419.332,-142.102 425.897,-139.675"/>
</g>
<!-- Node23&#45;&gt;Node5 -->
<g id="edge32" class="edge"><title>Node23&#45;&gt;Node5</title>
<path fill="none" stroke="midnightblue" d="M450.368,-112.462C503.061,-99.4986 607.061,-74.4139 696,-56 775.227,-39.5968 869.419,-23.3227 915.222,-15.6142"/>
<polygon fill="midnightblue" stroke="midnightblue" points="915.989,-19.0346 925.273,-13.9297 914.832,-12.1309 915.989,-19.0346"/>
</g>
<!-- Node23&#45;&gt;Node18 -->
<g id="edge33" class="edge"><title>Node23&#45;&gt;Node18</title>
<path fill="none" stroke="midnightblue" d="M409.898,-112.454C401.454,-99.4809 388.383,-74.3832 399,-56 407.677,-40.9772 423.487,-30.5229 438.617,-23.4992"/>
<polygon fill="midnightblue" stroke="midnightblue" points="440.047,-26.6943 447.879,-19.5592 437.307,-20.2529 440.047,-26.6943"/>
</g>
<!-- Node23&#45;&gt;Node19 -->
<g id="edge34" class="edge"><title>Node23&#45;&gt;Node19</title>
<path fill="none" stroke="midnightblue" d="M411.135,-112.368C400.948,-94.2957 377.209,-52.1764 363.755,-28.3074"/>
<polygon fill="midnightblue" stroke="midnightblue" points="366.802,-26.5844 358.842,-19.5914 360.704,-30.0215 366.802,-26.5844"/>
</g>
<!-- Node23&#45;&gt;Node20 -->
<g id="edge35" class="edge"><title>Node23&#45;&gt;Node20</title>
<path fill="none" stroke="midnightblue" d="M471.459,-112.444C533.667,-102.846 634.48,-87.2916 700.513,-77.1037"/>
<polygon fill="midnightblue" stroke="midnightblue" points="701.452,-80.5004 710.801,-75.5164 700.384,-73.5823 701.452,-80.5004"/>
</g>
<!-- Node25 -->
<g id="node25" class="node"><title>Node25</title>
<polygon fill="none" stroke="#bfbfbf" points="1273,-56.5 1273,-75.5 1403,-75.5 1403,-56.5 1273,-56.5"/>
<text text-anchor="middle" x="1338" y="-63.5" font-family="Helvetica,sans-Serif" font-size="10.00">InfoLogger/InfoLogger.hxx</text>
</g>
<!-- Node24&#45;&gt;Node25 -->
<g id="edge39" class="edge"><title>Node24&#45;&gt;Node25</title>
<path fill="none" stroke="midnightblue" d="M1446.56,-112.444C1425.33,-103.557 1391.9,-89.5632 1367.75,-79.4514"/>
<polygon fill="midnightblue" stroke="midnightblue" points="1368.92,-76.1493 1358.34,-75.5164 1366.22,-82.6064 1368.92,-76.1493"/>
</g>
<!-- Node26 -->
<g id="node26" class="node"><title>Node26</title>
<polygon fill="none" stroke="#bfbfbf" points="1421,-56.5 1421,-75.5 1583,-75.5 1583,-56.5 1421,-56.5"/>
<text text-anchor="middle" x="1502" y="-63.5" font-family="Helvetica,sans-Serif" font-size="10.00">InfoLogger/InfoLoggerMacros.hxx</text>
</g>
<!-- Node24&#45;&gt;Node26 -->
<g id="edge40" class="edge"><title>Node24&#45;&gt;Node26</title>
<path fill="none" stroke="midnightblue" d="M1472.78,-112.083C1477.67,-104.534 1484.83,-93.4948 1490.83,-84.2298"/>
<polygon fill="midnightblue" stroke="midnightblue" points="1493.83,-86.0463 1496.33,-75.7511 1487.95,-82.239 1493.83,-86.0463"/>
</g>
<!-- Node27&#45;&gt;Node3 -->
<g id="edge45" class="edge"><title>Node27&#45;&gt;Node3</title>
<path fill="none" stroke="midnightblue" d="M958.313,-174.537C864.459,-162.016 685.169,-138.098 608.377,-127.853"/>
<polygon fill="midnightblue" stroke="midnightblue" points="608.616,-124.354 598.241,-126.501 607.69,-131.292 608.616,-124.354"/>
</g>
<!-- Node27&#45;&gt;Node5 -->
<g id="edge43" class="edge"><title>Node27&#45;&gt;Node5</title>
<path fill="none" stroke="midnightblue" d="M1043.43,-173.965C1072.89,-162.555 1115.51,-140.428 1100,-112 1072.4,-61.4216 1007.41,-32.3823 970.281,-19.359"/>
<polygon fill="midnightblue" stroke="midnightblue" points="971.195,-15.9738 960.601,-16.1059 968.965,-22.6091 971.195,-15.9738"/>
</g>
<!-- Node27&#45;&gt;Node6 -->
<g id="edge44" class="edge"><title>Node27&#45;&gt;Node6</title>
<path fill="none" stroke="midnightblue" d="M1039.78,-173.975C1065.74,-163.813 1109.31,-146.756 1138.83,-135.2"/>
<polygon fill="midnightblue" stroke="midnightblue" points="1140.23,-138.413 1148.26,-131.509 1137.67,-131.895 1140.23,-138.413"/>
</g>
<!-- Node27&#45;&gt;Node13 -->
<g id="edge47" class="edge"><title>Node27&#45;&gt;Node13</title>
<path fill="none" stroke="midnightblue" d="M1057.26,-173.975C1106.19,-163.349 1189.84,-145.185 1242.95,-133.652"/>
<polygon fill="midnightblue" stroke="midnightblue" points="1243.79,-137.052 1252.82,-131.509 1242.3,-130.211 1243.79,-137.052"/>
</g>
<!-- Node27&#45;&gt;Node14 -->
<g id="edge51" class="edge"><title>Node27&#45;&gt;Node14</title>
<path fill="none" stroke="midnightblue" d="M982.611,-173.975C938.774,-163.415 864.034,-145.411 816.12,-133.869"/>
<polygon fill="midnightblue" stroke="midnightblue" points="816.865,-130.448 806.323,-131.509 815.226,-137.254 816.865,-130.448"/>
</g>
<!-- Node27&#45;&gt;Node15 -->
<g id="edge46" class="edge"><title>Node27&#45;&gt;Node15</title>
<path fill="none" stroke="midnightblue" d="M997.431,-173.863C979.192,-165.377 952.764,-150.952 935,-132 922.369,-118.524 913.137,-99.4553 907.507,-85.4556"/>
<polygon fill="midnightblue" stroke="midnightblue" points="910.712,-84.0353 903.907,-75.9147 904.163,-86.5064 910.712,-84.0353"/>
</g>
<!-- Node27&#45;&gt;Node16 -->
<g id="edge50" class="edge"><title>Node27&#45;&gt;Node16</title>
<path fill="none" stroke="midnightblue" d="M958.43,-176.545C890.998,-169.106 778.148,-154.546 683,-132 622.778,-117.73 554.624,-93.6848 515.736,-79.1824"/>
<polygon fill="midnightblue" stroke="midnightblue" points="516.63,-75.7794 506.038,-75.5369 514.167,-82.3318 516.63,-75.7794"/>
</g>
<!-- Node27&#45;&gt;Node20 -->
<g id="edge48" class="edge"><title>Node27&#45;&gt;Node20</title>
<path fill="none" stroke="midnightblue" d="M999.059,-173.819C955.078,-153.661 845.852,-103.599 794.078,-79.8693"/>
<polygon fill="midnightblue" stroke="midnightblue" points="795.366,-76.6093 784.817,-75.6245 792.449,-82.9728 795.366,-76.6093"/>
</g>
<!-- Node27&#45;&gt;Node23 -->
<g id="edge49" class="edge"><title>Node27&#45;&gt;Node23</title>
<path fill="none" stroke="midnightblue" d="M958.354,-176.605C850.885,-165.983 624.45,-143.603 500.867,-131.388"/>
<polygon fill="midnightblue" stroke="midnightblue" points="500.988,-127.883 490.693,-130.382 500.3,-134.849 500.988,-127.883"/>
</g>
<!-- Node27&#45;&gt;Node24 -->
<g id="edge52" class="edge"><title>Node27&#45;&gt;Node24</title>
<path fill="none" stroke="midnightblue" d="M1077.62,-174.599C1158.94,-163.824 1304.56,-144.526 1392.83,-132.829"/>
<polygon fill="midnightblue" stroke="midnightblue" points="1393.32,-136.295 1402.77,-131.512 1392.4,-129.356 1393.32,-136.295"/>
</g>
<!-- Node28 -->
<g id="node28" class="node"><title>Node28</title>
<polygon fill="none" stroke="#bfbfbf" points="1559.5,-112.5 1559.5,-131.5 1618.5,-131.5 1618.5,-112.5 1559.5,-112.5"/>
<text text-anchor="middle" x="1589" y="-119.5" font-family="Helvetica,sans-Serif" font-size="10.00">functional</text>
</g>
<!-- Node27&#45;&gt;Node28 -->
<g id="edge42" class="edge"><title>Node27&#45;&gt;Node28</title>
<path fill="none" stroke="midnightblue" d="M1077.9,-179.528C1175.06,-174.114 1373.12,-160.618 1549.24,-132.1"/>
<polygon fill="midnightblue" stroke="midnightblue" points="1549.91,-135.538 1559.21,-130.467 1548.77,-128.631 1549.91,-135.538"/>
</g>
<!-- Node29 -->
<g id="node29" class="node"><title>Node29</title>
<g id="a_node29"><a xlink:href="CheckConfig_8h.html" target="_top" xlink:title="QualityControl/CheckConfig.h">
<polygon fill="none" stroke="black" points="944.5,-112.5 944.5,-131.5 1091.5,-131.5 1091.5,-112.5 944.5,-112.5"/>
<text text-anchor="middle" x="1018" y="-119.5" font-family="Helvetica,sans-Serif" font-size="10.00">QualityControl/CheckConfig.h</text>
</a>
</g>
</g>
<!-- Node27&#45;&gt;Node29 -->
<g id="edge53" class="edge"><title>Node27&#45;&gt;Node29</title>
<path fill="none" stroke="midnightblue" d="M1018,-173.975C1018,-165.58 1018,-152.481 1018,-141.663"/>
<polygon fill="midnightblue" stroke="midnightblue" points="1021.5,-141.509 1018,-131.509 1014.5,-141.509 1021.5,-141.509"/>
</g>
<!-- Node29&#45;&gt;Node4 -->
<g id="edge54" class="edge"><title>Node29&#45;&gt;Node4</title>
<path fill="none" stroke="midnightblue" d="M1011.78,-112.052C1001.17,-97.5637 978.072,-69.2583 951,-56 900.734,-31.3825 733.738,-17.7011 664.009,-12.9429"/>
<polygon fill="midnightblue" stroke="midnightblue" points="663.896,-9.42773 653.685,-12.2555 663.431,-16.4123 663.896,-9.42773"/>
</g>
<!-- Node29&#45;&gt;Node15 -->
<g id="edge55" class="edge"><title>Node29&#45;&gt;Node15</title>
<path fill="none" stroke="midnightblue" d="M999.461,-112.444C980.377,-103.636 950.425,-89.8116 928.564,-79.722"/>
<polygon fill="midnightblue" stroke="midnightblue" points="929.999,-76.5292 919.452,-75.5164 927.065,-82.8849 929.999,-76.5292"/>
</g>
<!-- Node30&#45;&gt;Node4 -->
<g id="edge57" class="edge"><title>Node30&#45;&gt;Node4</title>
<path fill="none" stroke="midnightblue" d="M1498.23,-169.145C1552.5,-158.112 1619.75,-142.595 1628,-132 1649.89,-103.898 1612.05,-67.5661 1592,-56 1571.42,-44.1325 826.736,-17.707 664.146,-12.0705"/>
<polygon fill="midnightblue" stroke="midnightblue" points="663.991,-8.56318 653.876,-11.7154 663.749,-15.559 663.991,-8.56318"/>
</g>
<!-- Node30&#45;&gt;Node5 -->
<g id="edge58" class="edge"><title>Node30&#45;&gt;Node5</title>
<path fill="none" stroke="midnightblue" d="M1498.12,-170.357C1502.82,-169.555 1507.48,-168.764 1512,-168 1610.64,-151.342 1773.02,-202.313 1730,-112 1713.02,-76.3426 1697.79,-70.3625 1661,-56 1595.85,-30.5667 1095.04,-15.1897 970.815,-11.7418"/>
<polygon fill="midnightblue" stroke="midnightblue" points="970.71,-8.23775 960.618,-11.4623 970.519,-15.2351 970.71,-8.23775"/>
</g>
<!-- Node30&#45;&gt;Node6 -->
<g id="edge59" class="edge"><title>Node30&#45;&gt;Node6</title>
<path fill="none" stroke="midnightblue" d="M1359.69,-168.488C1316.87,-159.43 1260.33,-146.971 1202.05,-132.155"/>
<polygon fill="midnightblue" stroke="midnightblue" points="1202.86,-128.75 1192.3,-129.659 1201.12,-135.531 1202.86,-128.75"/>
</g>
<!-- Node30&#45;&gt;Node28 -->
<g id="edge60" class="edge"><title>Node30&#45;&gt;Node28</title>
<path fill="none" stroke="midnightblue" d="M1466.15,-168.399C1493.53,-158.283 1530.04,-144.791 1556.13,-135.149"/>
<polygon fill="midnightblue" stroke="midnightblue" points="1557.41,-138.407 1565.57,-131.658 1554.98,-131.841 1557.41,-138.407"/>
</g>
<!-- Node31 -->
<g id="node31" class="node"><title>Node31</title>
<polygon fill="none" stroke="#bfbfbf" points="1675.5,-112.5 1675.5,-131.5 1720.5,-131.5 1720.5,-112.5 1675.5,-112.5"/>
<text text-anchor="middle" x="1698" y="-119.5" font-family="Helvetica,sans-Serif" font-size="10.00">iosfwd</text>
</g>
<!-- Node30&#45;&gt;Node31 -->
<g id="edge61" class="edge"><title>Node30&#45;&gt;Node31</title>
<path fill="none" stroke="midnightblue" d="M1494.89,-168.469C1541.52,-158.574 1605.13,-144.847 1661,-132 1662.45,-131.667 1663.93,-131.322 1665.43,-130.972"/>
<polygon fill="midnightblue" stroke="midnightblue" points="1666.41,-134.336 1675.32,-128.612 1664.78,-127.527 1666.41,-134.336"/>
</g>
</g>
</svg>
        <g id="navigator" transform="translate(0 0)" fill="#404254">
                <rect fill="#f2f5e9" fill-opacity="0.5" stroke="#606060" stroke-width=".5" x="0" y="0" width="60" height="60"/>
                <use id="zoomplus" xlink:href="#zoomPlus" x="17" y="9" onmousedown="handleZoom(evt,'in')"/>
                <use id="zoomminus" xlink:href="#zoomMin" x="42" y="9" onmousedown="handleZoom(evt,'out')"/>
                <use id="reset" xlink:href="#resetDef" x="30" y="36" onmousedown="handleReset()"/>
                <g id="arrowUp" xlink:href="#dirArrow" transform="translate(30 24)" onmousedown="handlePan(0,-1)">
                  <use xlink:href="#rim" fill="#404040">
                        <set attributeName="fill" to="#808080" begin="arrowUp.mouseover" end="arrowUp.mouseout"/>
                  </use>
                  <path fill="none" stroke="white" stroke-width="1.5" d="M0,-3.0v7 M-2.5,-0.5L0,-3.0L2.5,-0.5"/>
                </g>
                <g id="arrowRight" xlink:href="#dirArrow" transform="rotate(90) translate(36 -43)" onmousedown="handlePan(1,0)">
                  <use xlink:href="#rim" fill="#404040">
                        <set attributeName="fill" to="#808080" begin="arrowRight.mouseover" end="arrowRight.mouseout"/>
                  </use>
                  <path fill="none" stroke="white" stroke-width="1.5" d="M0,-3.0v7 M-2.5,-0.5L0,-3.0L2.5,-0.5"/>
                </g>
                <g id="arrowDown" xlink:href="#dirArrow" transform="rotate(180) translate(-30 -48)" onmousedown="handlePan(0,1)">
                  <use xlink:href="#rim" fill="#404040">
                        <set attributeName="fill" to="#808080" begin="arrowDown.mouseover" end="arrowDown.mouseout"/>
                  </use>
                  <path fill="none" stroke="white" stroke-width="1.5" d="M0,-3.0v7 M-2.5,-0.5L0,-3.0L2.5,-0.5"/>
                </g>
                <g id="arrowLeft" xlink:href="#dirArrow" transform="rotate(270) translate(-36 17)" onmousedown="handlePan(-1,0)">
                  <use xlink:href="#rim" fill="#404040">
                        <set attributeName="fill" to="#808080" begin="arrowLeft.mouseover" end="arrowLeft.mouseout"/>
                  </use>
                  <path fill="none" stroke="white" stroke-width="1.5" d="M0,-3.0v7 M-2.5,-0.5L0,-3.0L2.5,-0.5"/>
                </g>
        </g>
        <svg viewBox="0 0 15 15" width="100%" height="30px" preserveAspectRatio="xMaxYMin meet">
         <g id="arrow_out" transform="scale(0.3 0.3)">
          <a xlink:href="CheckRunner_8h__incl_org.svg" target="_base">
           <rect id="button" ry="5" rx="5" y="6" x="6" height="38" width="38"
                fill="#f2f5e9" fill-opacity="0.5" stroke="#606060" stroke-width="1.0"/>
           <path id="arrow"
             d="M 11.500037,31.436501 C 11.940474,20.09759 22.043105,11.32322 32.158766,21.979434 L 37.068811,17.246167 C 37.068811,17.246167 37.088388,32 37.088388,32 L 22.160133,31.978069 C 22.160133,31.978069 26.997745,27.140456 26.997745,27.140456 C 18.528582,18.264221 13.291696,25.230495 11.500037,31.436501 z"
             style="fill:#404040;"/>
          </a>
         </g>
        </svg>
</svg>
