<?xml version="1.0" encoding="UTF-8" standalone="no"?>
<!DOCTYPE svg PUBLIC "-//W3C//DTD SVG 1.1//EN"
 "http://www.w3.org/Graphics/SVG/1.1/DTD/svg11.dtd">
<!-- Generated by graphviz version 2.38.0 (20140413.2041)
 -->
<!-- Title: Modules/TOF/src/CheckDiagnostics.cxx Pages: 1 -->
<svg width="905pt" height="252pt"
 viewBox="0.00 0.00 904.50 252.00" xmlns="http://www.w3.org/2000/svg" xmlns:xlink="http://www.w3.org/1999/xlink">
<g id="graph0" class="graph" transform="scale(1 1) rotate(0) translate(4 248)">
<title>Modules/TOF/src/CheckDiagnostics.cxx</title>
<!-- Node1 -->
<g id="node1" class="node"><title>Node1</title>
<polygon fill="#bfbfbf" stroke="black" points="502,-224.5 502,-243.5 696,-243.5 696,-224.5 502,-224.5"/>
<text text-anchor="middle" x="599" y="-231.5" font-family="Helvetica,sans-Serif" font-size="10.00">Modules/TOF/src/CheckDiagnostics.cxx</text>
</g>
<!-- Node2 -->
<g id="node2" class="node"><title>Node2</title>
<g id="a_node2"><a xlink:href="CheckDiagnostics_8h.html" target="_top" xlink:title="Checker dedicated to the study of low level raw data diagnostics words. ">
<polygon fill="none" stroke="black" points="257,-168.5 257,-187.5 385,-187.5 385,-168.5 257,-168.5"/>
<text text-anchor="middle" x="321" y="-175.5" font-family="Helvetica,sans-Serif" font-size="10.00">TOF/CheckDiagnostics.h</text>
</a>
</g>
</g>
<!-- Node1&#45;&gt;Node2 -->
<g id="edge1" class="edge"><title>Node1&#45;&gt;Node2</title>
<path fill="none" stroke="midnightblue" d="M554.95,-224.444C506.149,-214.964 427.437,-199.675 374.97,-189.483"/>
<polygon fill="midnightblue" stroke="midnightblue" points="375.328,-185.988 364.844,-187.516 373.993,-192.859 375.328,-185.988"/>
</g>
<!-- Node5 -->
<g id="node5" class="node"><title>Node5</title>
<g id="a_node5"><a xlink:href="MonitorObject_8h.html" target="_top" xlink:title="QualityControl/MonitorObject.h">
<polygon fill="none" stroke="black" points="84.5,-56.5 84.5,-75.5 235.5,-75.5 235.5,-56.5 84.5,-56.5"/>
<text text-anchor="middle" x="160" y="-63.5" font-family="Helvetica,sans-Serif" font-size="10.00">QualityControl/MonitorObject.h</text>
</a>
</g>
</g>
<!-- Node1&#45;&gt;Node5 -->
<g id="edge16" class="edge"><title>Node1&#45;&gt;Node5</title>
<path fill="none" stroke="midnightblue" d="M501.816,-226.978C413.967,-220.376 291.896,-207.976 248,-188 213.902,-172.483 206.328,-162.799 185,-132 175.115,-117.725 168.453,-99.011 164.509,-85.3304"/>
<polygon fill="midnightblue" stroke="midnightblue" points="167.878,-84.3792 161.919,-75.6189 161.114,-86.1831 167.878,-84.3792"/>
</g>
<!-- Node11 -->
<g id="node11" class="node"><title>Node11</title>
<g id="a_node11"><a xlink:href="Quality_8h.html" target="_top" xlink:title="QualityControl/Quality.h">
<polygon fill="none" stroke="black" points="354.5,-56.5 354.5,-75.5 475.5,-75.5 475.5,-56.5 354.5,-56.5"/>
<text text-anchor="middle" x="415" y="-63.5" font-family="Helvetica,sans-Serif" font-size="10.00">QualityControl/Quality.h</text>
</a>
</g>
</g>
<!-- Node1&#45;&gt;Node11 -->
<g id="edge17" class="edge"><title>Node1&#45;&gt;Node11</title>
<path fill="none" stroke="midnightblue" d="M532.642,-224.446C506.882,-218.123 478.862,-207.125 459,-188 430.247,-160.313 420.198,-112.376 416.749,-85.9118"/>
<polygon fill="midnightblue" stroke="midnightblue" points="420.199,-85.26 415.613,-75.709 413.242,-86.0351 420.199,-85.26"/>
</g>
<!-- Node12 -->
<g id="node12" class="node"><title>Node12</title>
<g id="a_node12"><a xlink:href="QcInfoLogger_8h.html" target="_top" xlink:title="QualityControl/QcInfoLogger.h">
<polygon fill="none" stroke="black" points="467.5,-168.5 467.5,-187.5 616.5,-187.5 616.5,-168.5 467.5,-168.5"/>
<text text-anchor="middle" x="542" y="-175.5" font-family="Helvetica,sans-Serif" font-size="10.00">QualityControl/QcInfoLogger.h</text>
</a>
</g>
</g>
<!-- Node1&#45;&gt;Node12 -->
<g id="edge18" class="edge"><title>Node1&#45;&gt;Node12</title>
<path fill="none" stroke="midnightblue" d="M589.842,-224.324C581.499,-216.42 568.968,-204.548 558.823,-194.938"/>
<polygon fill="midnightblue" stroke="midnightblue" points="560.991,-192.171 551.325,-187.834 556.177,-197.252 560.991,-192.171"/>
</g>
<!-- Node15 -->
<g id="node15" class="node"><title>Node15</title>
<polygon fill="none" stroke="#bfbfbf" points="634,-168.5 634,-187.5 678,-187.5 678,-168.5 634,-168.5"/>
<text text-anchor="middle" x="656" y="-175.5" font-family="Helvetica,sans-Serif" font-size="10.00">TH1.h</text>
</g>
<!-- Node1&#45;&gt;Node15 -->
<g id="edge21" class="edge"><title>Node1&#45;&gt;Node15</title>
<path fill="none" stroke="midnightblue" d="M608.158,-224.324C616.501,-216.42 629.032,-204.548 639.177,-194.938"/>
<polygon fill="midnightblue" stroke="midnightblue" points="641.823,-197.252 646.675,-187.834 637.009,-192.171 641.823,-197.252"/>
</g>
<!-- Node16 -->
<g id="node16" class="node"><title>Node16</title>
<polygon fill="none" stroke="#bfbfbf" points="696,-168.5 696,-187.5 740,-187.5 740,-168.5 696,-168.5"/>
<text text-anchor="middle" x="718" y="-175.5" font-family="Helvetica,sans-Serif" font-size="10.00">TH2.h</text>
</g>
<!-- Node1&#45;&gt;Node16 -->
<g id="edge22" class="edge"><title>Node1&#45;&gt;Node16</title>
<path fill="none" stroke="midnightblue" d="M617.856,-224.444C637.266,-215.636 667.73,-201.812 689.965,-191.722"/>
<polygon fill="midnightblue" stroke="midnightblue" points="691.572,-194.836 699.232,-187.516 688.68,-188.462 691.572,-194.836"/>
</g>
<!-- Node17 -->
<g id="node17" class="node"><title>Node17</title>
<polygon fill="none" stroke="#bfbfbf" points="758.5,-168.5 758.5,-187.5 831.5,-187.5 831.5,-168.5 758.5,-168.5"/>
<text text-anchor="middle" x="795" y="-175.5" font-family="Helvetica,sans-Serif" font-size="10.00">TPaveText.h</text>
</g>
<!-- Node1&#45;&gt;Node17 -->
<g id="edge23" class="edge"><title>Node1&#45;&gt;Node17</title>
<path fill="none" stroke="midnightblue" d="M630.057,-224.444C663.603,-215.201 717.197,-200.436 754.141,-190.257"/>
<polygon fill="midnightblue" stroke="midnightblue" points="755.377,-193.547 764.089,-187.516 753.518,-186.798 755.377,-193.547"/>
</g>
<!-- Node18 -->
<g id="node18" class="node"><title>Node18</title>
<polygon fill="none" stroke="#bfbfbf" points="849.5,-168.5 849.5,-187.5 896.5,-187.5 896.5,-168.5 849.5,-168.5"/>
<text text-anchor="middle" x="873" y="-175.5" font-family="Helvetica,sans-Serif" font-size="10.00">TList.h</text>
</g>
<!-- Node1&#45;&gt;Node18 -->
<g id="edge24" class="edge"><title>Node1&#45;&gt;Node18</title>
<path fill="none" stroke="midnightblue" d="M652.637,-224.456C699.656,-216.643 770.028,-204.172 839.502,-188.201"/>
<polygon fill="midnightblue" stroke="midnightblue" points="840.348,-191.597 849.296,-185.924 838.763,-184.779 840.348,-191.597"/>
</g>
<!-- Node3 -->
<g id="node3" class="node"><title>Node3</title>
<g id="a_node3"><a xlink:href="CheckInterface_8h.html" target="_top" xlink:title="QualityControl/CheckInterface.h">
<polygon fill="none" stroke="black" points="216.5,-112.5 216.5,-131.5 373.5,-131.5 373.5,-112.5 216.5,-112.5"/>
<text text-anchor="middle" x="295" y="-119.5" font-family="Helvetica,sans-Serif" font-size="10.00">QualityControl/CheckInterface.h</text>
</a>
</g>
</g>
<!-- Node2&#45;&gt;Node3 -->
<g id="edge2" class="edge"><title>Node2&#45;&gt;Node3</title>
<path fill="none" stroke="midnightblue" d="M316.707,-168.083C313.148,-160.691 307.978,-149.953 303.576,-140.811"/>
<polygon fill="midnightblue" stroke="midnightblue" points="306.705,-139.243 299.213,-131.751 300.398,-142.279 306.705,-139.243"/>
</g>
<!-- Node2&#45;&gt;Node5 -->
<g id="edge14" class="edge"><title>Node2&#45;&gt;Node5</title>
<path fill="none" stroke="midnightblue" d="M284.926,-168.46C261.052,-161.511 230.022,-149.881 207,-132 190.558,-119.23 177.291,-99.2073 169.098,-84.7581"/>
<polygon fill="midnightblue" stroke="midnightblue" points="172.092,-82.9374 164.26,-75.8029 165.934,-86.2647 172.092,-82.9374"/>
</g>
<!-- Node2&#45;&gt;Node11 -->
<g id="edge15" class="edge"><title>Node2&#45;&gt;Node11</title>
<path fill="none" stroke="midnightblue" d="M336.36,-168.471C349.742,-160.44 368.99,-147.368 382,-132 393.86,-117.991 402.873,-98.993 408.459,-85.155"/>
<polygon fill="midnightblue" stroke="midnightblue" points="411.754,-86.3376 412.053,-75.7469 405.215,-83.8397 411.754,-86.3376"/>
</g>
<!-- Node4 -->
<g id="node4" class="node"><title>Node4</title>
<polygon fill="none" stroke="#bfbfbf" points="253.5,-56.5 253.5,-75.5 336.5,-75.5 336.5,-56.5 253.5,-56.5"/>
<text text-anchor="middle" x="295" y="-63.5" font-family="Helvetica,sans-Serif" font-size="10.00">unordered_map</text>
</g>
<!-- Node3&#45;&gt;Node4 -->
<g id="edge3" class="edge"><title>Node3&#45;&gt;Node4</title>
<path fill="none" stroke="midnightblue" d="M295,-112.083C295,-105.006 295,-94.8611 295,-85.9865"/>
<polygon fill="midnightblue" stroke="midnightblue" points="298.5,-85.751 295,-75.7511 291.5,-85.7511 298.5,-85.751"/>
</g>
<!-- Node3&#45;&gt;Node5 -->
<g id="edge4" class="edge"><title>Node3&#45;&gt;Node5</title>
<path fill="none" stroke="midnightblue" d="M273.609,-112.444C251.293,-103.517 216.097,-89.4387 190.792,-79.3168"/>
<polygon fill="midnightblue" stroke="midnightblue" points="191.876,-75.9807 181.291,-75.5164 189.276,-82.4801 191.876,-75.9807"/>
</g>
<!-- Node3&#45;&gt;Node11 -->
<g id="edge10" class="edge"><title>Node3&#45;&gt;Node11</title>
<path fill="none" stroke="midnightblue" d="M314.014,-112.444C333.588,-103.636 364.308,-89.8116 386.729,-79.722"/>
<polygon fill="midnightblue" stroke="midnightblue" points="388.392,-82.8119 396.075,-75.5164 385.519,-76.4284 388.392,-82.8119"/>
</g>
<!-- Node6 -->
<g id="node6" class="node"><title>Node6</title>
<polygon fill="none" stroke="#bfbfbf" points="307.5,-0.5 307.5,-19.5 348.5,-19.5 348.5,-0.5 307.5,-0.5"/>
<text text-anchor="middle" x="328" y="-7.5" font-family="Helvetica,sans-Serif" font-size="10.00">string</text>
</g>
<!-- Node5&#45;&gt;Node6 -->
<g id="edge5" class="edge"><title>Node5&#45;&gt;Node6</title>
<path fill="none" stroke="midnightblue" d="M186.62,-56.4435C216.842,-46.7292 266.047,-30.9134 297.712,-20.7354"/>
<polygon fill="midnightblue" stroke="midnightblue" points="298.881,-24.0361 307.33,-17.6439 296.739,-17.3719 298.881,-24.0361"/>
</g>
<!-- Node7 -->
<g id="node7" class="node"><title>Node7</title>
<polygon fill="none" stroke="#bfbfbf" points="369.5,-0.5 369.5,-19.5 404.5,-19.5 404.5,-0.5 369.5,-0.5"/>
<text text-anchor="middle" x="387" y="-7.5" font-family="Helvetica,sans-Serif" font-size="10.00">map</text>
</g>
<!-- Node5&#45;&gt;Node7 -->
<g id="edge6" class="edge"><title>Node5&#45;&gt;Node7</title>
<path fill="none" stroke="midnightblue" d="M200.943,-56.4834C240.925,-47.9701 303.405,-34.1436 357,-20 357.874,-19.7693 358.761,-19.5307 359.656,-19.286"/>
<polygon fill="midnightblue" stroke="midnightblue" points="360.639,-22.6453 369.289,-16.5274 358.711,-15.9158 360.639,-22.6453"/>
</g>
<!-- Node8 -->
<g id="node8" class="node"><title>Node8</title>
<polygon fill="none" stroke="#bfbfbf" points="226,-0.5 226,-19.5 282,-19.5 282,-0.5 226,-0.5"/>
<text text-anchor="middle" x="254" y="-7.5" font-family="Helvetica,sans-Serif" font-size="10.00">Rtypes.h</text>
</g>
<!-- Node5&#45;&gt;Node8 -->
<g id="edge7" class="edge"><title>Node5&#45;&gt;Node8</title>
<path fill="none" stroke="midnightblue" d="M175.103,-56.324C189.903,-47.8215 212.694,-34.7288 229.982,-24.7975"/>
<polygon fill="midnightblue" stroke="midnightblue" points="232.007,-27.6707 238.935,-19.6545 228.52,-21.6009 232.007,-27.6707"/>
</g>
<!-- Node9 -->
<g id="node9" class="node"><title>Node9</title>
<polygon fill="none" stroke="#bfbfbf" points="134.5,-0.5 134.5,-19.5 193.5,-19.5 193.5,-0.5 134.5,-0.5"/>
<text text-anchor="middle" x="164" y="-7.5" font-family="Helvetica,sans-Serif" font-size="10.00">TObject.h</text>
</g>
<!-- Node5&#45;&gt;Node9 -->
<g id="edge8" class="edge"><title>Node5&#45;&gt;Node9</title>
<path fill="none" stroke="midnightblue" d="M160.661,-56.083C161.185,-49.0059 161.936,-38.8611 162.594,-29.9865"/>
<polygon fill="midnightblue" stroke="midnightblue" points="166.103,-29.9823 163.352,-19.7511 159.123,-29.4652 166.103,-29.9823"/>
</g>
<!-- Node10 -->
<g id="node10" class="node"><title>Node10</title>
<polygon fill="none" stroke="#bfbfbf" points="0,-0.5 0,-19.5 116,-19.5 116,-0.5 0,-0.5"/>
<text text-anchor="middle" x="58" y="-7.5" font-family="Helvetica,sans-Serif" font-size="10.00">Common/Exceptions.h</text>
</g>
<!-- Node5&#45;&gt;Node10 -->
<g id="edge9" class="edge"><title>Node5&#45;&gt;Node10</title>
<path fill="none" stroke="midnightblue" d="M143.612,-56.324C127.329,-47.7034 102.133,-34.3643 83.2837,-24.3855"/>
<polygon fill="midnightblue" stroke="midnightblue" points="84.8229,-21.2402 74.3474,-19.6545 81.5477,-27.4267 84.8229,-21.2402"/>
</g>
<!-- Node11&#45;&gt;Node6 -->
<g id="edge12" class="edge"><title>Node11&#45;&gt;Node6</title>
<path fill="none" stroke="midnightblue" d="M401.022,-56.324C387.45,-47.9002 366.62,-34.9709 350.675,-25.0741"/>
<polygon fill="midnightblue" stroke="midnightblue" points="352.286,-21.9544 341.943,-19.6545 348.594,-27.9019 352.286,-21.9544"/>
</g>
<!-- Node11&#45;&gt;Node7 -->
<g id="edge13" class="edge"><title>Node11&#45;&gt;Node7</title>
<path fill="none" stroke="midnightblue" d="M410.376,-56.083C406.544,-48.6913 400.976,-37.9533 396.235,-28.8111"/>
<polygon fill="midnightblue" stroke="midnightblue" points="399.248,-27.0175 391.538,-19.7511 393.034,-30.2398 399.248,-27.0175"/>
</g>
<!-- Node11&#45;&gt;Node8 -->
<g id="edge11" class="edge"><title>Node11&#45;&gt;Node8</title>
<path fill="none" stroke="midnightblue" d="M389.489,-56.4435C362.404,-47.3591 319.41,-32.9388 289.131,-22.7831"/>
<polygon fill="midnightblue" stroke="midnightblue" points="289.986,-19.3781 279.392,-19.5164 287.76,-26.0148 289.986,-19.3781"/>
</g>
<!-- Node13 -->
<g id="node13" class="node"><title>Node13</title>
<polygon fill="none" stroke="#bfbfbf" points="648,-112.5 648,-131.5 778,-131.5 778,-112.5 648,-112.5"/>
<text text-anchor="middle" x="713" y="-119.5" font-family="Helvetica,sans-Serif" font-size="10.00">InfoLogger/InfoLogger.hxx</text>
</g>
<!-- Node12&#45;&gt;Node13 -->
<g id="edge19" class="edge"><title>Node12&#45;&gt;Node13</title>
<path fill="none" stroke="midnightblue" d="M569.095,-168.444C597.988,-159.32 643.925,-144.813 676.105,-134.651"/>
<polygon fill="midnightblue" stroke="midnightblue" points="677.549,-137.865 686.031,-131.516 675.441,-131.19 677.549,-137.865"/>
</g>
<!-- Node14 -->
<g id="node14" class="node"><title>Node14</title>
<polygon fill="none" stroke="#bfbfbf" points="468,-112.5 468,-131.5 630,-131.5 630,-112.5 468,-112.5"/>
<text text-anchor="middle" x="549" y="-119.5" font-family="Helvetica,sans-Serif" font-size="10.00">InfoLogger/InfoLoggerMacros.hxx</text>
</g>
<!-- Node12&#45;&gt;Node14 -->
<g id="edge20" class="edge"><title>Node12&#45;&gt;Node14</title>
<path fill="none" stroke="midnightblue" d="M543.156,-168.083C544.084,-160.927 545.418,-150.635 546.577,-141.691"/>
<polygon fill="midnightblue" stroke="midnightblue" points="550.051,-142.118 547.866,-131.751 543.109,-141.218 550.051,-142.118"/>
</g>
</g>
</svg>
