<?xml version="1.0" encoding="UTF-8" standalone="no"?>
<!DOCTYPE svg PUBLIC "-//W3C//DTD SVG 1.1//EN"
 "http://www.w3.org/Graphics/SVG/1.1/DTD/svg11.dtd">
<!-- Generated by graphviz version 2.38.0 (20140413.2041)
 -->
<!-- Title: Framework/include/QualityControl/CheckConfig.h Pages: 1 -->
<svg width="1960pt" height="240pt"
 viewBox="0.00 0.00 1960.00 240.00" xmlns="http://www.w3.org/2000/svg" xmlns:xlink="http://www.w3.org/1999/xlink">
<g id="graph0" class="graph" transform="scale(1 1) rotate(0) translate(4 236)">
<title>Framework/include/QualityControl/CheckConfig.h</title>
<!-- Node1 -->
<g id="node1" class="node"><title>Node1</title>
<polygon fill="#bfbfbf" stroke="black" points="558.5,-201.5 558.5,-231.5 691.5,-231.5 691.5,-201.5 558.5,-201.5"/>
<text text-anchor="start" x="566.5" y="-219.5" font-family="Helvetica,sans-Serif" font-size="10.00">Framework/include/Quality</text>
<text text-anchor="middle" x="625" y="-208.5" font-family="Helvetica,sans-Serif" font-size="10.00">Control/CheckConfig.h</text>
</g>
<!-- Node2 -->
<g id="node2" class="node"><title>Node2</title>
<g id="a_node2"><a xlink:href="Aggregator_8h.html" target="_top" xlink:title="Framework/include/Quality\lControl/Aggregator.h">
<polygon fill="none" stroke="black" points="362.5,-134.5 362.5,-164.5 495.5,-164.5 495.5,-134.5 362.5,-134.5"/>
<text text-anchor="start" x="370.5" y="-152.5" font-family="Helvetica,sans-Serif" font-size="10.00">Framework/include/Quality</text>
<text text-anchor="middle" x="429" y="-141.5" font-family="Helvetica,sans-Serif" font-size="10.00">Control/Aggregator.h</text>
</a>
</g>
</g>
<!-- Node1&#45;&gt;Node2 -->
<g id="edge1" class="edge"><title>Node1&#45;&gt;Node2</title>
<path fill="none" stroke="midnightblue" d="M572.918,-198.228C541.212,-187.713 501.221,-174.451 471.446,-164.577"/>
<polygon fill="midnightblue" stroke="midnightblue" points="571.878,-201.57 582.471,-201.396 574.081,-194.926 571.878,-201.57"/>
</g>
<!-- Node5 -->
<g id="node5" class="node"><title>Node5</title>
<g id="a_node5"><a xlink:href="Check_8h_source.html" target="_top" xlink:title="Framework/include/Quality\lControl/Check.h">
<polygon fill="none" stroke="black" points="755.5,-134.5 755.5,-164.5 888.5,-164.5 888.5,-134.5 755.5,-134.5"/>
<text text-anchor="start" x="763.5" y="-152.5" font-family="Helvetica,sans-Serif" font-size="10.00">Framework/include/Quality</text>
<text text-anchor="middle" x="822" y="-141.5" font-family="Helvetica,sans-Serif" font-size="10.00">Control/Check.h</text>
</a>
</g>
</g>
<!-- Node1&#45;&gt;Node5 -->
<g id="edge4" class="edge"><title>Node1&#45;&gt;Node5</title>
<path fill="none" stroke="midnightblue" d="M677.348,-198.228C709.216,-187.713 749.411,-174.451 779.337,-164.577"/>
<polygon fill="midnightblue" stroke="midnightblue" points="676.146,-194.939 667.746,-201.396 678.339,-201.586 676.146,-194.939"/>
</g>
<!-- Node3 -->
<g id="node3" class="node"><title>Node3</title>
<g id="a_node3"><a xlink:href="Aggregator_8cxx.html" target="_top" xlink:title="Framework/src/Aggregator.cxx">
<polygon fill="none" stroke="black" points="193.5,-73 193.5,-92 344.5,-92 344.5,-73 193.5,-73"/>
<text text-anchor="middle" x="269" y="-80" font-family="Helvetica,sans-Serif" font-size="10.00">Framework/src/Aggregator.cxx</text>
</a>
</g>
</g>
<!-- Node2&#45;&gt;Node3 -->
<g id="edge2" class="edge"><title>Node2&#45;&gt;Node3</title>
<path fill="none" stroke="midnightblue" d="M384.991,-130.621C354.022,-118.04 313.963,-101.766 289.94,-92.007"/>
<polygon fill="midnightblue" stroke="midnightblue" points="383.7,-133.875 394.282,-134.396 386.335,-127.389 383.7,-133.875"/>
</g>
<!-- Node4 -->
<g id="node4" class="node"><title>Node4</title>
<g id="a_node4"><a xlink:href="AggregatorRunner_8cxx.html" target="_top" xlink:title="Framework/src/Aggregator\lRunner.cxx">
<polygon fill="none" stroke="black" points="363,-67.5 363,-97.5 495,-97.5 495,-67.5 363,-67.5"/>
<text text-anchor="start" x="371" y="-85.5" font-family="Helvetica,sans-Serif" font-size="10.00">Framework/src/Aggregator</text>
<text text-anchor="middle" x="429" y="-74.5" font-family="Helvetica,sans-Serif" font-size="10.00">Runner.cxx</text>
</a>
</g>
</g>
<!-- Node2&#45;&gt;Node4 -->
<g id="edge3" class="edge"><title>Node2&#45;&gt;Node4</title>
<path fill="none" stroke="midnightblue" d="M429,-124.108C429,-115.154 429,-105.323 429,-97.5765"/>
<polygon fill="midnightblue" stroke="midnightblue" points="425.5,-124.396 429,-134.396 432.5,-124.396 425.5,-124.396"/>
</g>
<!-- Node6 -->
<g id="node6" class="node"><title>Node6</title>
<g id="a_node6"><a xlink:href="CheckRunner_8h.html" target="_top" xlink:title="Framework/include/Quality\lControl/CheckRunner.h">
<polygon fill="none" stroke="black" points="755.5,-67.5 755.5,-97.5 888.5,-97.5 888.5,-67.5 755.5,-67.5"/>
<text text-anchor="start" x="763.5" y="-85.5" font-family="Helvetica,sans-Serif" font-size="10.00">Framework/include/Quality</text>
<text text-anchor="middle" x="822" y="-74.5" font-family="Helvetica,sans-Serif" font-size="10.00">Control/CheckRunner.h</text>
</a>
</g>
</g>
<!-- Node5&#45;&gt;Node6 -->
<g id="edge5" class="edge"><title>Node5&#45;&gt;Node6</title>
<path fill="none" stroke="midnightblue" d="M822,-124.108C822,-115.154 822,-105.323 822,-97.5765"/>
<polygon fill="midnightblue" stroke="midnightblue" points="818.5,-124.396 822,-134.396 825.5,-124.396 818.5,-124.396"/>
</g>
<!-- Node9 -->
<g id="node9" class="node"><title>Node9</title>
<g id="a_node9"><a xlink:href="InfrastructureGenerator_8cxx.html" target="_top" xlink:title="Framework/src/Infrastructure\lGenerator.cxx">
<polygon fill="none" stroke="black" points="170.5,-0.5 170.5,-30.5 313.5,-30.5 313.5,-0.5 170.5,-0.5"/>
<text text-anchor="start" x="178.5" y="-18.5" font-family="Helvetica,sans-Serif" font-size="10.00">Framework/src/Infrastructure</text>
<text text-anchor="middle" x="242" y="-7.5" font-family="Helvetica,sans-Serif" font-size="10.00">Generator.cxx</text>
</a>
</g>
</g>
<!-- Node5&#45;&gt;Node9 -->
<g id="edge24" class="edge"><title>Node5&#45;&gt;Node9</title>
<path fill="none" stroke="midnightblue" d="M745.049,-145.023C686.977,-139.978 606.552,-127.712 542,-98 522.201,-88.8869 523.744,-76.2315 504,-67 499.627,-64.9552 389.789,-44.1482 313.735,-29.8886"/>
<polygon fill="midnightblue" stroke="midnightblue" points="745.008,-148.531 755.259,-145.855 745.577,-141.554 745.008,-148.531"/>
</g>
<!-- Node17 -->
<g id="node17" class="node"><title>Node17</title>
<g id="a_node17"><a xlink:href="CheckRunnerFactory_8h.html" target="_top" xlink:title="Framework/include/Quality\lControl/CheckRunnerFactory.h">
<polygon fill="none" stroke="black" points="551,-67.5 551,-97.5 703,-97.5 703,-67.5 551,-67.5"/>
<text text-anchor="start" x="559" y="-85.5" font-family="Helvetica,sans-Serif" font-size="10.00">Framework/include/Quality</text>
<text text-anchor="middle" x="627" y="-74.5" font-family="Helvetica,sans-Serif" font-size="10.00">Control/CheckRunnerFactory.h</text>
</a>
</g>
</g>
<!-- Node5&#45;&gt;Node17 -->
<g id="edge16" class="edge"><title>Node5&#45;&gt;Node17</title>
<path fill="none" stroke="midnightblue" d="M770.183,-131.228C738.639,-120.713 698.852,-107.451 669.23,-97.5765"/>
<polygon fill="midnightblue" stroke="midnightblue" points="769.094,-134.554 779.688,-134.396 771.308,-127.913 769.094,-134.554"/>
</g>
<!-- Node19 -->
<g id="node19" class="node"><title>Node19</title>
<polygon fill="none" stroke="#bfbfbf" points="907,-73 907,-92 1039,-92 1039,-73 907,-73"/>
<text text-anchor="middle" x="973" y="-80" font-family="Helvetica,sans-Serif" font-size="10.00">Framework/src/Check.cxx</text>
</g>
<!-- Node5&#45;&gt;Node19 -->
<g id="edge23" class="edge"><title>Node5&#45;&gt;Node19</title>
<path fill="none" stroke="midnightblue" d="M864.291,-130.295C893.411,-117.76 930.762,-101.682 953.238,-92.007"/>
<polygon fill="midnightblue" stroke="midnightblue" points="862.566,-127.227 854.765,-134.396 865.334,-133.657 862.566,-127.227"/>
</g>
<!-- Node20 -->
<g id="node20" class="node"><title>Node20</title>
<g id="a_node20"><a xlink:href="runITS_8cxx.html" target="_top" xlink:title="Modules/ITS/src/runITS.cxx">
<polygon fill="none" stroke="black" points="1057,-73 1057,-92 1197,-92 1197,-73 1057,-73"/>
<text text-anchor="middle" x="1127" y="-80" font-family="Helvetica,sans-Serif" font-size="10.00">Modules/ITS/src/runITS.cxx</text>
</a>
</g>
</g>
<!-- Node5&#45;&gt;Node20 -->
<g id="edge25" class="edge"><title>Node5&#45;&gt;Node20</title>
<path fill="none" stroke="midnightblue" d="M897.609,-132.387C957.567,-119.609 1039,-102.254 1086.98,-92.0287"/>
<polygon fill="midnightblue" stroke="midnightblue" points="896.856,-128.968 887.805,-134.476 898.315,-135.815 896.856,-128.968"/>
</g>
<!-- Node21 -->
<g id="node21" class="node"><title>Node21</title>
<g id="a_node21"><a xlink:href="runMID_8cxx.html" target="_top" xlink:title="This is an executable to run the MID QC Task (see the ITS code). ">
<polygon fill="none" stroke="black" points="1215,-73 1215,-92 1361,-92 1361,-73 1215,-73"/>
<text text-anchor="middle" x="1288" y="-80" font-family="Helvetica,sans-Serif" font-size="10.00">Modules/MID/src/runMID.cxx</text>
</a>
</g>
</g>
<!-- Node5&#45;&gt;Node21 -->
<g id="edge26" class="edge"><title>Node5&#45;&gt;Node21</title>
<path fill="none" stroke="midnightblue" d="M898.898,-139.403C976.524,-129.981 1099.79,-114.367 1206,-98 1217.57,-96.2166 1230.03,-94.1101 1241.66,-92.0636"/>
<polygon fill="midnightblue" stroke="midnightblue" points="898.231,-135.958 888.724,-140.634 899.072,-142.907 898.231,-135.958"/>
</g>
<!-- Node7 -->
<g id="node7" class="node"><title>Node7</title>
<g id="a_node7"><a xlink:href="CheckRunner_8cxx.html" target="_top" xlink:title="Framework/src/CheckRunner.cxx">
<polygon fill="none" stroke="black" points="1628,-6 1628,-25 1792,-25 1792,-6 1628,-6"/>
<text text-anchor="middle" x="1710" y="-13" font-family="Helvetica,sans-Serif" font-size="10.00">Framework/src/CheckRunner.cxx</text>
</a>
</g>
</g>
<!-- Node6&#45;&gt;Node7 -->
<g id="edge6" class="edge"><title>Node6&#45;&gt;Node7</title>
<path fill="none" stroke="midnightblue" d="M898.657,-67.0546C1218.3,-29.5636 1303.16,-63.9505 1619,-31 1633.16,-29.5226 1648.47,-27.3199 1662.43,-25.0748"/>
<polygon fill="midnightblue" stroke="midnightblue" points="898.164,-63.5885 888.647,-68.2432 898.989,-70.5397 898.164,-63.5885"/>
</g>
<!-- Node8 -->
<g id="node8" class="node"><title>Node8</title>
<g id="a_node8"><a xlink:href="CheckRunnerFactory_8cxx.html" target="_top" xlink:title="Framework/src/CheckRunner\lFactory.cxx">
<polygon fill="none" stroke="black" points="943.5,-0.5 943.5,-30.5 1088.5,-30.5 1088.5,-0.5 943.5,-0.5"/>
<text text-anchor="start" x="951.5" y="-18.5" font-family="Helvetica,sans-Serif" font-size="10.00">Framework/src/CheckRunner</text>
<text text-anchor="middle" x="1016" y="-7.5" font-family="Helvetica,sans-Serif" font-size="10.00">Factory.cxx</text>
</a>
</g>
</g>
<!-- Node6&#45;&gt;Node8 -->
<g id="edge7" class="edge"><title>Node6&#45;&gt;Node8</title>
<path fill="none" stroke="midnightblue" d="M873.957,-64.0917C905.274,-53.5988 944.643,-40.4082 973.987,-30.5765"/>
<polygon fill="midnightblue" stroke="midnightblue" points="872.465,-60.9003 864.095,-67.396 874.689,-67.5376 872.465,-60.9003"/>
</g>
<!-- Node6&#45;&gt;Node9 -->
<g id="edge8" class="edge"><title>Node6&#45;&gt;Node9</title>
<path fill="none" stroke="midnightblue" d="M745.28,-70.9974C734.124,-69.5835 722.772,-68.2067 712,-67 539.012,-47.6219 494.471,-54.5446 322,-31 319.343,-30.6373 316.639,-30.2485 313.911,-29.8395"/>
<polygon fill="midnightblue" stroke="midnightblue" points="745.083,-74.5008 755.447,-72.3024 745.974,-67.5578 745.083,-74.5008"/>
</g>
<!-- Node10 -->
<g id="node10" class="node"><title>Node10</title>
<g id="a_node10"><a xlink:href="runBasic_8cxx.html" target="_top" xlink:title="This is an executable showing QC Task&#39;s usage in Data Processing Layer. ">
<polygon fill="none" stroke="black" points="1810,-6 1810,-25 1952,-25 1952,-6 1810,-6"/>
<text text-anchor="middle" x="1881" y="-13" font-family="Helvetica,sans-Serif" font-size="10.00">Framework/src/runBasic.cxx</text>
</a>
</g>
</g>
<!-- Node6&#45;&gt;Node10 -->
<g id="edge9" class="edge"><title>Node6&#45;&gt;Node10</title>
<path fill="none" stroke="midnightblue" d="M898.75,-67.056C1298.8,-22.1215 1405.07,-74.5583 1801,-31 1813.77,-29.5953 1827.57,-27.3571 1840.05,-25.0554"/>
<polygon fill="midnightblue" stroke="midnightblue" points="898.183,-63.5978 888.642,-68.2049 898.973,-70.553 898.183,-63.5978"/>
</g>
<!-- Node11 -->
<g id="node11" class="node"><title>Node11</title>
<g id="a_node11"><a xlink:href="testCheckRunner_8cxx.html" target="_top" xlink:title="Framework/test/testCheck\lRunner.cxx">
<polygon fill="none" stroke="black" points="331.5,-0.5 331.5,-30.5 464.5,-30.5 464.5,-0.5 331.5,-0.5"/>
<text text-anchor="start" x="339.5" y="-18.5" font-family="Helvetica,sans-Serif" font-size="10.00">Framework/test/testCheck</text>
<text text-anchor="middle" x="398" y="-7.5" font-family="Helvetica,sans-Serif" font-size="10.00">Runner.cxx</text>
</a>
</g>
</g>
<!-- Node6&#45;&gt;Node11 -->
<g id="edge10" class="edge"><title>Node6&#45;&gt;Node11</title>
<path fill="none" stroke="midnightblue" d="M745.329,-71.3701C674.715,-61.8042 567.107,-46.6296 474,-31 470.953,-30.4885 467.84,-29.9519 464.698,-29.3988"/>
<polygon fill="midnightblue" stroke="midnightblue" points="745.095,-74.8701 755.473,-72.7402 746.032,-67.9331 745.095,-74.8701"/>
</g>
<!-- Node12 -->
<g id="node12" class="node"><title>Node12</title>
<g id="a_node12"><a xlink:href="testCheckWorkflow_8cxx.html" target="_top" xlink:title="Framework/test/testCheck\lWorkflow.cxx">
<polygon fill="none" stroke="black" points="1106.5,-0.5 1106.5,-30.5 1239.5,-30.5 1239.5,-0.5 1106.5,-0.5"/>
<text text-anchor="start" x="1114.5" y="-18.5" font-family="Helvetica,sans-Serif" font-size="10.00">Framework/test/testCheck</text>
<text text-anchor="middle" x="1173" y="-7.5" font-family="Helvetica,sans-Serif" font-size="10.00">Workflow.cxx</text>
</a>
</g>
</g>
<!-- Node6&#45;&gt;Node12 -->
<g id="edge11" class="edge"><title>Node6&#45;&gt;Node12</title>
<path fill="none" stroke="midnightblue" d="M898.747,-66.8725C988.014,-50.3394 1011.74,-46.845 1097,-31 1100.04,-30.4355 1103.14,-29.8554 1106.28,-29.2671"/>
<polygon fill="midnightblue" stroke="midnightblue" points="897.915,-63.467 888.721,-68.7329 899.192,-70.3495 897.915,-63.467"/>
</g>
<!-- Node13 -->
<g id="node13" class="node"><title>Node13</title>
<g id="a_node13"><a xlink:href="testWorkflow_8cxx.html" target="_top" xlink:title="Framework/test/testWorkflow.cxx">
<polygon fill="none" stroke="black" points="1258,-6 1258,-25 1422,-25 1422,-6 1258,-6"/>
<text text-anchor="middle" x="1340" y="-13" font-family="Helvetica,sans-Serif" font-size="10.00">Framework/test/testWorkflow.cxx</text>
</a>
</g>
</g>
<!-- Node6&#45;&gt;Node13 -->
<g id="edge12" class="edge"><title>Node6&#45;&gt;Node13</title>
<path fill="none" stroke="midnightblue" d="M898.612,-66.9981C1054.42,-44.5956 1096.11,-50.7663 1248,-31 1261.31,-29.2681 1275.66,-27.135 1288.97,-25.0429"/>
<polygon fill="midnightblue" stroke="midnightblue" points="898.065,-63.5407 888.673,-68.4434 899.073,-70.4679 898.065,-63.5407"/>
</g>
<!-- Node14 -->
<g id="node14" class="node"><title>Node14</title>
<polygon fill="none" stroke="#bfbfbf" points="483,-6 483,-25 701,-25 701,-6 483,-6"/>
<text text-anchor="middle" x="592" y="-13" font-family="Helvetica,sans-Serif" font-size="10.00">Modules/EMCAL/src/runQCEMCALDigits.cxx</text>
</g>
<!-- Node6&#45;&gt;Node14 -->
<g id="edge13" class="edge"><title>Node6&#45;&gt;Node14</title>
<path fill="none" stroke="midnightblue" d="M762.733,-64.7505C717.75,-52.038 657.763,-35.0851 622.178,-25.0287"/>
<polygon fill="midnightblue" stroke="midnightblue" points="761.802,-68.1244 772.377,-67.476 763.705,-61.3883 761.802,-68.1244"/>
</g>
<!-- Node15 -->
<g id="node15" class="node"><title>Node15</title>
<polygon fill="none" stroke="#bfbfbf" points="719,-6 719,-25 925,-25 925,-6 719,-6"/>
<text text-anchor="middle" x="822" y="-13" font-family="Helvetica,sans-Serif" font-size="10.00">Modules/PHOS/src/runQCPHOSDigits.cxx</text>
</g>
<!-- Node6&#45;&gt;Node15 -->
<g id="edge14" class="edge"><title>Node6&#45;&gt;Node15</title>
<path fill="none" stroke="midnightblue" d="M822,-57.2495C822,-46.017 822,-33.3767 822,-25.1945"/>
<polygon fill="midnightblue" stroke="midnightblue" points="818.5,-57.3959 822,-67.396 825.5,-57.396 818.5,-57.3959"/>
</g>
<!-- Node16 -->
<g id="node16" class="node"><title>Node16</title>
<polygon fill="none" stroke="#bfbfbf" points="1440,-0.5 1440,-30.5 1610,-30.5 1610,-0.5 1440,-0.5"/>
<text text-anchor="start" x="1448" y="-18.5" font-family="Helvetica,sans-Serif" font-size="10.00">Modules/TPC/run/runTPCQCTrack</text>
<text text-anchor="middle" x="1525" y="-7.5" font-family="Helvetica,sans-Serif" font-size="10.00">Reader.cxx</text>
</g>
<!-- Node6&#45;&gt;Node16 -->
<g id="edge15" class="edge"><title>Node6&#45;&gt;Node16</title>
<path fill="none" stroke="midnightblue" d="M898.595,-67.0423C1135.2,-37.2462 1198.24,-56.765 1431,-31 1433.95,-30.673 1436.96,-30.3203 1439.99,-29.9471"/>
<polygon fill="midnightblue" stroke="midnightblue" points="898.132,-63.5729 888.655,-68.31 899.017,-70.5167 898.132,-63.5729"/>
</g>
<!-- Node17&#45;&gt;Node8 -->
<g id="edge17" class="edge"><title>Node17&#45;&gt;Node8</title>
<path fill="none" stroke="midnightblue" d="M713.116,-67.6173C774.68,-57.6235 859.479,-43.7175 934,-31 936.993,-30.4893 940.046,-29.9648 943.13,-29.4322"/>
<polygon fill="midnightblue" stroke="midnightblue" points="712.366,-64.1931 703.056,-69.2492 713.487,-71.1028 712.366,-64.1931"/>
</g>
<!-- Node17&#45;&gt;Node9 -->
<g id="edge18" class="edge"><title>Node17&#45;&gt;Node9</title>
<path fill="none" stroke="midnightblue" d="M540.81,-67.5881C479.692,-57.6353 395.764,-43.7908 322,-31 319.218,-30.5177 316.383,-30.0222 313.52,-29.5186"/>
<polygon fill="midnightblue" stroke="midnightblue" points="540.367,-71.062 550.8,-69.2132 541.492,-64.1528 540.367,-71.062"/>
</g>
<!-- Node17&#45;&gt;Node11 -->
<g id="edge20" class="edge"><title>Node17&#45;&gt;Node11</title>
<path fill="none" stroke="midnightblue" d="M567.865,-64.7149C530.599,-54.1373 483.029,-40.6348 447.714,-30.6109"/>
<polygon fill="midnightblue" stroke="midnightblue" points="567.017,-68.1124 577.592,-67.476 568.928,-61.3784 567.017,-68.1124"/>
</g>
<!-- Node17&#45;&gt;Node14 -->
<g id="edge21" class="edge"><title>Node17&#45;&gt;Node14</title>
<path fill="none" stroke="midnightblue" d="M614.501,-58.2875C608.317,-46.8032 601.224,-33.6298 596.682,-25.1945"/>
<polygon fill="midnightblue" stroke="midnightblue" points="611.583,-60.2506 619.406,-67.396 617.746,-56.9319 611.583,-60.2506"/>
</g>
<!-- Node17&#45;&gt;Node15 -->
<g id="edge22" class="edge"><title>Node17&#45;&gt;Node15</title>
<path fill="none" stroke="midnightblue" d="M679.177,-64.1075C717.113,-51.4622 766.823,-34.8923 796.479,-25.007"/>
<polygon fill="midnightblue" stroke="midnightblue" points="677.692,-60.9132 669.312,-67.396 679.906,-67.554 677.692,-60.9132"/>
</g>
<!-- Node18 -->
<g id="node18" class="node"><title>Node18</title>
<g id="a_node18"><a xlink:href="testCheck_8cxx.html" target="_top" xlink:title="Framework/test/testCheck.cxx">
<polygon fill="none" stroke="black" points="0,-6 0,-25 152,-25 152,-6 0,-6"/>
<text text-anchor="middle" x="76" y="-13" font-family="Helvetica,sans-Serif" font-size="10.00">Framework/test/testCheck.cxx</text>
</a>
</g>
</g>
<!-- Node17&#45;&gt;Node18 -->
<g id="edge19" class="edge"><title>Node17&#45;&gt;Node18</title>
<path fill="none" stroke="midnightblue" d="M540.641,-71.1783C528.345,-69.7498 515.854,-68.3207 504,-67 351.661,-50.0269 312.85,-51.8987 161,-31 148.543,-29.2855 135.109,-27.135 122.68,-25.0192"/>
<polygon fill="midnightblue" stroke="midnightblue" points="540.568,-74.6934 550.906,-72.3758 541.379,-67.7406 540.568,-74.6934"/>
</g>
</g>
</svg>
