<?xml version="1.0" encoding="UTF-8" standalone="no"?>
<!DOCTYPE svg PUBLIC "-//W3C//DTD SVG 1.1//EN"
 "http://www.w3.org/Graphics/SVG/1.1/DTD/svg11.dtd">
<!-- Generated by graphviz version 2.38.0 (20140413.2041)
 -->
<!-- Title: o2::quality_control::core::MonitorObjectCollection Pages: 1 -->
<svg width="210pt" height="204pt"
 viewBox="0.00 0.00 210.00 204.00" xmlns="http://www.w3.org/2000/svg" xmlns:xlink="http://www.w3.org/1999/xlink">
<g id="graph0" class="graph" transform="scale(1 1) rotate(0) translate(4 200)">
<title>o2::quality_control::core::MonitorObjectCollection</title>
<!-- Node1 -->
<g id="node1" class="node"><title>Node1</title>
<polygon fill="#bfbfbf" stroke="black" points="9.5,-0.5 9.5,-101.5 161.5,-101.5 161.5,-0.5 9.5,-0.5"/>
<text text-anchor="start" x="17.5" y="-89.5" font-family="Helvetica,sans-Serif" font-size="10.00">o2::quality_control</text>
<text text-anchor="middle" x="85.5" y="-78.5" font-family="Helvetica,sans-Serif" font-size="10.00">::core::MonitorObjectCollection</text>
<polyline fill="none" stroke="black" points="9.5,-71.5 161.5,-71.5 "/>
<text text-anchor="middle" x="85.5" y="-59.5" font-family="Helvetica,sans-Serif" font-size="10.00"> </text>
<polyline fill="none" stroke="black" points="9.5,-52.5 161.5,-52.5 "/>
<text text-anchor="start" x="17.5" y="-40.5" font-family="Helvetica,sans-Serif" font-size="10.00">+ MonitorObjectCollection()</text>
<text text-anchor="start" x="17.5" y="-29.5" font-family="Helvetica,sans-Serif" font-size="10.00">+ ~MonitorObjectCollection()</text>
<text text-anchor="start" x="17.5" y="-18.5" font-family="Helvetica,sans-Serif" font-size="10.00">+ merge()</text>
<text text-anchor="start" x="17.5" y="-7.5" font-family="Helvetica,sans-Serif" font-size="10.00">+ ClassDefOverride()</text>
</g>
<!-- Node2 -->
<g id="node2" class="node"><title>Node2</title>
<g id="a_node2"><a xlink:href="classTObjArray.html" target="_top" xlink:title="{TObjArray\n||}">
<polygon fill="none" stroke="black" points="0,-138.5 0,-195.5 61,-195.5 61,-138.5 0,-138.5"/>
<text text-anchor="middle" x="30.5" y="-183.5" font-family="Helvetica,sans-Serif" font-size="10.00">TObjArray</text>
<polyline fill="none" stroke="black" points="0,-176.5 61,-176.5 "/>
<text text-anchor="middle" x="30.5" y="-164.5" font-family="Helvetica,sans-Serif" font-size="10.00"> </text>
<polyline fill="none" stroke="black" points="0,-157.5 61,-157.5 "/>
<text text-anchor="middle" x="30.5" y="-145.5" font-family="Helvetica,sans-Serif" font-size="10.00"> </text>
</a>
</g>
</g>
<!-- Node2&#45;&gt;Node1 -->
<g id="edge1" class="edge"><title>Node2&#45;&gt;Node1</title>
<path fill="none" stroke="midnightblue" d="M48.2553,-129.198C52.498,-120.404 57.096,-110.874 61.5662,-101.608"/>
<polygon fill="none" stroke="midnightblue" points="45.007,-127.876 43.814,-138.404 51.3116,-130.918 45.007,-127.876"/>
</g>
<!-- Node3 -->
<g id="node3" class="node"><title>Node3</title>
<polygon fill="none" stroke="#bfbfbf" points="79,-138.5 79,-195.5 202,-195.5 202,-138.5 79,-138.5"/>
<text text-anchor="middle" x="140.5" y="-183.5" font-family="Helvetica,sans-Serif" font-size="10.00">mergers::MergeInterface</text>
<polyline fill="none" stroke="#bfbfbf" points="79,-176.5 202,-176.5 "/>
<text text-anchor="middle" x="140.5" y="-164.5" font-family="Helvetica,sans-Serif" font-size="10.00"> </text>
<polyline fill="none" stroke="#bfbfbf" points="79,-157.5 202,-157.5 "/>
<text text-anchor="middle" x="140.5" y="-145.5" font-family="Helvetica,sans-Serif" font-size="10.00"> </text>
</g>
<!-- Node3&#45;&gt;Node1 -->
<g id="edge2" class="edge"><title>Node3&#45;&gt;Node1</title>
<path fill="none" stroke="midnightblue" d="M122.745,-129.198C118.502,-120.404 113.904,-110.874 109.434,-101.608"/>
<polygon fill="none" stroke="midnightblue" points="119.688,-130.918 127.186,-138.404 125.993,-127.876 119.688,-130.918"/>
</g>
</g>
</svg>
