<?xml version="1.0" encoding="UTF-8" standalone="no"?>
<!DOCTYPE svg PUBLIC "-//W3C//DTD SVG 1.1//EN"
 "http://www.w3.org/Graphics/SVG/1.1/DTD/svg11.dtd">
<!-- Generated by graphviz version 2.38.0 (20140413.2041)
 -->
<!-- Title: PostProcessingOCCStateMachine Pages: 1 -->
<svg width="191pt" height="270pt"
 viewBox="0.00 0.00 191.00 270.00" xmlns="http://www.w3.org/2000/svg" xmlns:xlink="http://www.w3.org/1999/xlink">
<g id="graph0" class="graph" transform="scale(1 1) rotate(0) translate(4 266)">
<title>PostProcessingOCCStateMachine</title>
<!-- Node1 -->
<g id="node1" class="node"><title>Node1</title>
<polygon fill="#bfbfbf" stroke="black" points="0,-0.5 0,-167.5 183,-167.5 183,-0.5 0,-0.5"/>
<text text-anchor="middle" x="91.5" y="-155.5" font-family="Helvetica,sans-Serif" font-size="10.00">PostProcessingOCCStateMachine</text>
<polyline fill="none" stroke="black" points="0,-148.5 183,-148.5 "/>
<text text-anchor="middle" x="91.5" y="-136.5" font-family="Helvetica,sans-Serif" font-size="10.00"> </text>
<polyline fill="none" stroke="black" points="0,-129.5 183,-129.5 "/>
<text text-anchor="start" x="8" y="-117.5" font-family="Helvetica,sans-Serif" font-size="10.00">+ PostProcessingOCCStateMachine()</text>
<text text-anchor="start" x="8" y="-106.5" font-family="Helvetica,sans-Serif" font-size="10.00">+ executeConfigure()</text>
<text text-anchor="start" x="8" y="-95.5" font-family="Helvetica,sans-Serif" font-size="10.00">+ executeReset()</text>
<text text-anchor="start" x="8" y="-84.5" font-family="Helvetica,sans-Serif" font-size="10.00">+ executeRecover()</text>
<text text-anchor="start" x="8" y="-73.5" font-family="Helvetica,sans-Serif" font-size="10.00">+ executeStart()</text>
<text text-anchor="start" x="8" y="-62.5" font-family="Helvetica,sans-Serif" font-size="10.00">+ executeStop()</text>
<text text-anchor="start" x="8" y="-51.5" font-family="Helvetica,sans-Serif" font-size="10.00">+ executePause()</text>
<text text-anchor="start" x="8" y="-40.5" font-family="Helvetica,sans-Serif" font-size="10.00">+ executeResume()</text>
<text text-anchor="start" x="8" y="-29.5" font-family="Helvetica,sans-Serif" font-size="10.00">+ executeExit()</text>
<text text-anchor="start" x="8" y="-18.5" font-family="Helvetica,sans-Serif" font-size="10.00">+ iterateRunning()</text>
<text text-anchor="start" x="8" y="-7.5" font-family="Helvetica,sans-Serif" font-size="10.00">+ iterateCheck()</text>
</g>
<!-- Node2 -->
<g id="node2" class="node"><title>Node2</title>
<g id="a_node2"><a xlink:href="classRuntimeControlledObject.html" target="_top" xlink:title="{RuntimeControlledObject\n||}">
<polygon fill="none" stroke="black" points="28.5,-204.5 28.5,-261.5 154.5,-261.5 154.5,-204.5 28.5,-204.5"/>
<text text-anchor="middle" x="91.5" y="-249.5" font-family="Helvetica,sans-Serif" font-size="10.00">RuntimeControlledObject</text>
<polyline fill="none" stroke="black" points="28.5,-242.5 154.5,-242.5 "/>
<text text-anchor="middle" x="91.5" y="-230.5" font-family="Helvetica,sans-Serif" font-size="10.00"> </text>
<polyline fill="none" stroke="black" points="28.5,-223.5 154.5,-223.5 "/>
<text text-anchor="middle" x="91.5" y="-211.5" font-family="Helvetica,sans-Serif" font-size="10.00"> </text>
</a>
</g>
</g>
<!-- Node2&#45;&gt;Node1 -->
<g id="edge1" class="edge"><title>Node2&#45;&gt;Node1</title>
<path fill="none" stroke="midnightblue" d="M91.5,-194.35C91.5,-186.08 91.5,-177.008 91.5,-167.738"/>
<polygon fill="none" stroke="midnightblue" points="88.0001,-194.35 91.5,-204.35 95.0001,-194.35 88.0001,-194.35"/>
</g>
</g>
</svg>
