<?xml version="1.0" encoding="UTF-8" standalone="no"?>
<!DOCTYPE svg PUBLIC "-//W3C//DTD SVG 1.1//EN"
 "http://www.w3.org/Graphics/SVG/1.1/DTD/svg11.dtd">
<!-- Generated by graphviz version 2.38.0 (20140413.2041)
 -->
<!-- Title: o2::quality_control::checker::AggregatorInterface Pages: 1 -->
<svg width="278pt" height="259pt"
 viewBox="0.00 0.00 278.00 259.00" xmlns="http://www.w3.org/2000/svg" xmlns:xlink="http://www.w3.org/1999/xlink">
<g id="graph0" class="graph" transform="scale(1 1) rotate(0) translate(4 255)">
<title>o2::quality_control::checker::AggregatorInterface</title>
<!-- Node1 -->
<g id="node1" class="node"><title>Node1</title>
<polygon fill="#bfbfbf" stroke="black" points="68.5,-138.5 68.5,-250.5 217.5,-250.5 217.5,-138.5 68.5,-138.5"/>
<text text-anchor="start" x="76.5" y="-238.5" font-family="Helvetica,sans-Serif" font-size="10.00">o2::quality_control</text>
<text text-anchor="middle" x="143" y="-227.5" font-family="Helvetica,sans-Serif" font-size="10.00">::checker::AggregatorInterface</text>
<polyline fill="none" stroke="black" points="68.5,-220.5 217.5,-220.5 "/>
<text text-anchor="start" x="76.5" y="-208.5" font-family="Helvetica,sans-Serif" font-size="10.00"># mCustomParameters</text>
<polyline fill="none" stroke="black" points="68.5,-201.5 217.5,-201.5 "/>
<text text-anchor="start" x="76.5" y="-189.5" font-family="Helvetica,sans-Serif" font-size="10.00">+ AggregatorInterface()</text>
<text text-anchor="start" x="76.5" y="-178.5" font-family="Helvetica,sans-Serif" font-size="10.00">+ ~AggregatorInterface()</text>
<text text-anchor="start" x="76.5" y="-167.5" font-family="Helvetica,sans-Serif" font-size="10.00">+ configure()</text>
<text text-anchor="start" x="76.5" y="-156.5" font-family="Helvetica,sans-Serif" font-size="10.00">+ aggregate()</text>
<text text-anchor="start" x="76.5" y="-145.5" font-family="Helvetica,sans-Serif" font-size="10.00">+ setCustomParameters()</text>
</g>
<!-- Node2 -->
<g id="node2" class="node"><title>Node2</title>
<g id="a_node2"><a xlink:href="classo2_1_1quality__control_1_1test_1_1SimpleTestAggregator.html" target="_top" xlink:title="{o2::quality_control\l::test::SimpleTestAggregator\n|+ mValidString\l|+ SimpleTestAggregator()\l+ ~SimpleTestAggregator()\l+ configure()\l+ aggregate()\l}">
<polygon fill="none" stroke="black" points="0,-0.5 0,-101.5 142,-101.5 142,-0.5 0,-0.5"/>
<text text-anchor="start" x="8" y="-89.5" font-family="Helvetica,sans-Serif" font-size="10.00">o2::quality_control</text>
<text text-anchor="middle" x="71" y="-78.5" font-family="Helvetica,sans-Serif" font-size="10.00">::test::SimpleTestAggregator</text>
<polyline fill="none" stroke="black" points="0,-71.5 142,-71.5 "/>
<text text-anchor="start" x="8" y="-59.5" font-family="Helvetica,sans-Serif" font-size="10.00">+ mValidString</text>
<polyline fill="none" stroke="black" points="0,-52.5 142,-52.5 "/>
<text text-anchor="start" x="8" y="-40.5" font-family="Helvetica,sans-Serif" font-size="10.00">+ SimpleTestAggregator()</text>
<text text-anchor="start" x="8" y="-29.5" font-family="Helvetica,sans-Serif" font-size="10.00">+ ~SimpleTestAggregator()</text>
<text text-anchor="start" x="8" y="-18.5" font-family="Helvetica,sans-Serif" font-size="10.00">+ configure()</text>
<text text-anchor="start" x="8" y="-7.5" font-family="Helvetica,sans-Serif" font-size="10.00">+ aggregate()</text>
</a>
</g>
</g>
<!-- Node1&#45;&gt;Node2 -->
<g id="edge1" class="edge"><title>Node1&#45;&gt;Node2</title>
<path fill="none" stroke="midnightblue" d="M110.288,-129.211C105.581,-119.962 100.8,-110.564 96.2675,-101.658"/>
<polygon fill="none" stroke="midnightblue" points="107.302,-131.062 114.957,-138.387 113.541,-127.887 107.302,-131.062"/>
</g>
<!-- Node3 -->
<g id="node3" class="node"><title>Node3</title>
<g id="a_node3"><a xlink:href="classo2_1_1quality__control__modules_1_1skeleton_1_1SkeletonAggregator.html" target="_top" xlink:title="Example QC quality aggregator. ">
<polygon fill="none" stroke="black" points="160,-0.5 160,-101.5 270,-101.5 270,-0.5 160,-0.5"/>
<text text-anchor="start" x="168" y="-89.5" font-family="Helvetica,sans-Serif" font-size="10.00">o2::quality_control</text>
<text text-anchor="start" x="168" y="-78.5" font-family="Helvetica,sans-Serif" font-size="10.00">_modules::skeleton::</text>
<text text-anchor="middle" x="215" y="-67.5" font-family="Helvetica,sans-Serif" font-size="10.00">SkeletonAggregator</text>
<polyline fill="none" stroke="black" points="160,-60.5 270,-60.5 "/>
<text text-anchor="middle" x="215" y="-48.5" font-family="Helvetica,sans-Serif" font-size="10.00"> </text>
<polyline fill="none" stroke="black" points="160,-41.5 270,-41.5 "/>
<text text-anchor="start" x="168" y="-29.5" font-family="Helvetica,sans-Serif" font-size="10.00">+ configure()</text>
<text text-anchor="start" x="168" y="-18.5" font-family="Helvetica,sans-Serif" font-size="10.00">+ aggregate()</text>
<text text-anchor="start" x="168" y="-7.5" font-family="Helvetica,sans-Serif" font-size="10.00">+ ClassDefOverride()</text>
</a>
</g>
</g>
<!-- Node1&#45;&gt;Node3 -->
<g id="edge2" class="edge"><title>Node1&#45;&gt;Node3</title>
<path fill="none" stroke="midnightblue" d="M175.712,-129.211C180.419,-119.962 185.2,-110.564 189.733,-101.658"/>
<polygon fill="none" stroke="midnightblue" points="172.459,-127.887 171.043,-138.387 178.698,-131.062 172.459,-127.887"/>
</g>
</g>
</svg>
