<?xml version="1.0" encoding="UTF-8" standalone="no"?>
<!DOCTYPE svg PUBLIC "-//W3C//DTD SVG 1.1//EN"
 "http://www.w3.org/Graphics/SVG/1.1/DTD/svg11.dtd">
<!-- Generated by graphviz version 2.38.0 (20140413.2041)
 -->
<!-- Title: o2::quality_control_modules::hmpid::HmpidEquipment Pages: 1 -->
<!--zoomable 501 -->
<svg id="main" version="1.1" xmlns="http://www.w3.org/2000/svg" xmlns:xlink="http://www.w3.org/1999/xlink" xml:space="preserve" onload="init(evt)">
<style type="text/css"><![CDATA[
.edge:hover path { stroke: red; }
.edge:hover polygon { stroke: red; fill: red; }
]]></style>
<script type="text/javascript"><![CDATA[
var edges = document.getElementsByTagName('g');
if (edges && edges.length) {
  for (var i=0;i<edges.length;i++) {
    if (edges[i].id.substr(0,4)=='edge') {
      edges[i].setAttribute('class','edge');
    }
  }
}
]]></script>
        <defs>
                <circle id="rim" cx="0" cy="0" r="7"/>
                <circle id="rim2" cx="0" cy="0" r="3.5"/>
                <g id="zoomPlus">
                        <use xlink:href="#rim" fill="#404040">
                                <set attributeName="fill" to="#808080" begin="zoomplus.mouseover" end="zoomplus.mouseout"/>
                        </use>
                        <path d="M-4,0h8M0,-4v8" fill="none" stroke="white" stroke-width="1.5" pointer-events="none"/>
                </g>
                <g id="zoomMin">
                        <use xlink:href="#rim" fill="#404040">
                                <set attributeName="fill" to="#808080" begin="zoomminus.mouseover" end="zoomminus.mouseout"/>
                        </use>
                        <path d="M-4,0h8" fill="none" stroke="white" stroke-width="1.5" pointer-events="none"/>
                </g>
                <g id="dirArrow">
                        <path fill="none" stroke="white" stroke-width="1.5" d="M0,-3.0v7 M-2.5,-0.5L0,-3.0L2.5,-0.5"/>
                </g>
               <g id="resetDef">
                       <use xlink:href="#rim2" fill="#404040">
                               <set attributeName="fill" to="#808080" begin="reset.mouseover" end="reset.mouseout"/>
                       </use>
               </g>
        </defs>

<script type="text/javascript">
var viewWidth = 484;
var viewHeight = 501;
var sectionId = 'dynsection-0';
</script>
<script xlink:href="svgpan.js"/>
<svg id="graph" class="graph">
<g id="viewport">
<title>o2::quality_control_modules::hmpid::HmpidEquipment</title>
<!-- Node1 -->
<g id="node1" class="node"><title>Node1</title>
<polygon fill="#bfbfbf" stroke="black" points="100.5,-0.5 100.5,-277.5 272.5,-277.5 272.5,-0.5 100.5,-0.5"/>
<text text-anchor="start" x="108.5" y="-265.5" font-family="Helvetica,sans-Serif" font-size="10.00">o2::quality_control</text>
<text text-anchor="middle" x="186.5" y="-254.5" font-family="Helvetica,sans-Serif" font-size="10.00">_modules::hmpid::HmpidEquipment</text>
<polyline fill="none" stroke="black" points="100.5,-247.5 272.5,-247.5 "/>
<text text-anchor="start" x="108.5" y="-235.5" font-family="Helvetica,sans-Serif" font-size="10.00">+ mWillBeRowMarker</text>
<text text-anchor="start" x="108.5" y="-224.5" font-family="Helvetica,sans-Serif" font-size="10.00">+ mWillBeSegmentMarker</text>
<text text-anchor="start" x="108.5" y="-213.5" font-family="Helvetica,sans-Serif" font-size="10.00">+ mRowSize</text>
<text text-anchor="start" x="108.5" y="-202.5" font-family="Helvetica,sans-Serif" font-size="10.00">+ mColumnCounter</text>
<text text-anchor="start" x="108.5" y="-191.5" font-family="Helvetica,sans-Serif" font-size="10.00">+ mWordsPerRowCounter</text>
<text text-anchor="start" x="108.5" y="-180.5" font-family="Helvetica,sans-Serif" font-size="10.00">+ mWordsPerSegCounter</text>
<text text-anchor="start" x="108.5" y="-169.5" font-family="Helvetica,sans-Serif" font-size="10.00">+ mErrorPadsPerEvent</text>
<text text-anchor="start" x="108.5" y="-158.5" font-family="Helvetica,sans-Serif" font-size="10.00">+ mEventNumber</text>
<text text-anchor="start" x="108.5" y="-147.5" font-family="Helvetica,sans-Serif" font-size="10.00">+ mEventSize</text>
<text text-anchor="start" x="108.5" y="-136.5" font-family="Helvetica,sans-Serif" font-size="10.00">+ mBusyTimeSamples</text>
<text text-anchor="start" x="108.5" y="-125.5" font-family="Helvetica,sans-Serif" font-size="10.00">+ mNumberOfEmptyEvents</text>
<text text-anchor="start" x="108.5" y="-114.5" font-family="Helvetica,sans-Serif" font-size="10.00">+ mTotalErrors</text>
<polyline fill="none" stroke="black" points="100.5,-107.5 272.5,-107.5 "/>
<text text-anchor="start" x="108.5" y="-95.5" font-family="Helvetica,sans-Serif" font-size="10.00">+ HmpidEquipment()</text>
<text text-anchor="start" x="108.5" y="-84.5" font-family="Helvetica,sans-Serif" font-size="10.00">+ ~HmpidEquipment()</text>
<text text-anchor="start" x="108.5" y="-73.5" font-family="Helvetica,sans-Serif" font-size="10.00">+ getEquipmentId()</text>
<text text-anchor="start" x="108.5" y="-62.5" font-family="Helvetica,sans-Serif" font-size="10.00">+ getEquipmentId()</text>
<text text-anchor="start" x="108.5" y="-51.5" font-family="Helvetica,sans-Serif" font-size="10.00">+ init()</text>
<text text-anchor="start" x="108.5" y="-40.5" font-family="Helvetica,sans-Serif" font-size="10.00">+ resetPadMap()</text>
<text text-anchor="start" x="108.5" y="-29.5" font-family="Helvetica,sans-Serif" font-size="10.00">+ resetErrors()</text>
<text text-anchor="start" x="108.5" y="-18.5" font-family="Helvetica,sans-Serif" font-size="10.00">+ setError()</text>
<text text-anchor="start" x="108.5" y="-7.5" font-family="Helvetica,sans-Serif" font-size="10.00">+ setPad()</text>
</g>
<!-- Node2 -->
<g id="node2" class="node"><title>Node2</title>
<polygon fill="none" stroke="#bfbfbf" points="0,-435.5 0,-492.5 45,-492.5 45,-435.5 0,-435.5"/>
<text text-anchor="middle" x="22.5" y="-480.5" font-family="Helvetica,sans-Serif" font-size="10.00">double</text>
<polyline fill="none" stroke="#bfbfbf" points="0,-473.5 45,-473.5 "/>
<text text-anchor="middle" x="22.5" y="-461.5" font-family="Helvetica,sans-Serif" font-size="10.00"> </text>
<polyline fill="none" stroke="#bfbfbf" points="0,-454.5 45,-454.5 "/>
<text text-anchor="middle" x="22.5" y="-442.5" font-family="Helvetica,sans-Serif" font-size="10.00"> </text>
</g>
<!-- Node2&#45;&gt;Node1 -->
<g id="edge1" class="edge"><title>Node2&#45;&gt;Node1</title>
<path fill="none" stroke="#404040" d="M19.1164,-435.289C16.1383,-400.966 15.0088,-341.47 35.5,-296 48.6143,-266.9 69.575,-239.982 91.7561,-216.987"/>
<polygon fill="none" stroke="#404040" points="91.8527,-216.889 93.238,-209.812 100.303,-208.369 98.918,-215.446 91.8527,-216.889"/>
<text text-anchor="middle" x="71" y="-359.5" font-family="Helvetica,sans-Serif" font-size="10.00"> +mPadSquares</text>
<text text-anchor="middle" x="71" y="-348.5" font-family="Helvetica,sans-Serif" font-size="10.00">+mPadSum</text>
</g>
<!-- Node3 -->
<g id="node3" class="node"><title>Node3</title>
<polygon fill="none" stroke="#bfbfbf" points="99,-435.5 99,-492.5 134,-492.5 134,-435.5 99,-435.5"/>
<text text-anchor="middle" x="116.5" y="-480.5" font-family="Helvetica,sans-Serif" font-size="10.00">float</text>
<polyline fill="none" stroke="#bfbfbf" points="99,-473.5 134,-473.5 "/>
<text text-anchor="middle" x="116.5" y="-461.5" font-family="Helvetica,sans-Serif" font-size="10.00"> </text>
<polyline fill="none" stroke="#bfbfbf" points="99,-454.5 134,-454.5 "/>
<text text-anchor="middle" x="116.5" y="-442.5" font-family="Helvetica,sans-Serif" font-size="10.00"> </text>
</g>
<!-- Node3&#45;&gt;Node1 -->
<g id="edge2" class="edge"><title>Node3&#45;&gt;Node1</title>
<path fill="none" stroke="#404040" d="M113.264,-435.439C110.116,-402.024 107.167,-344.194 117.5,-296 117.969,-293.815 118.469,-291.623 119,-289.426"/>
<polygon fill="none" stroke="#404040" points="119.046,-289.252 116.712,-282.429 122.113,-277.651 124.447,-284.474 119.046,-289.252"/>
<text text-anchor="middle" x="176" y="-370.5" font-family="Helvetica,sans-Serif" font-size="10.00"> +mPadsPerEventAverage</text>
<text text-anchor="middle" x="176" y="-359.5" font-family="Helvetica,sans-Serif" font-size="10.00">+mBusyTimeAverage</text>
<text text-anchor="middle" x="176" y="-348.5" font-family="Helvetica,sans-Serif" font-size="10.00">+mBusyTimeValue</text>
<text text-anchor="middle" x="176" y="-337.5" font-family="Helvetica,sans-Serif" font-size="10.00">+mEventSizeAverage</text>
</g>
<!-- Node4 -->
<g id="node4" class="node"><title>Node4</title>
<polygon fill="none" stroke="#bfbfbf" points="231,-435.5 231,-492.5 282,-492.5 282,-435.5 231,-435.5"/>
<text text-anchor="middle" x="256.5" y="-480.5" font-family="Helvetica,sans-Serif" font-size="10.00">uint32_t</text>
<polyline fill="none" stroke="#bfbfbf" points="231,-473.5 282,-473.5 "/>
<text text-anchor="middle" x="256.5" y="-461.5" font-family="Helvetica,sans-Serif" font-size="10.00"> </text>
<polyline fill="none" stroke="#bfbfbf" points="231,-454.5 282,-454.5 "/>
<text text-anchor="middle" x="256.5" y="-442.5" font-family="Helvetica,sans-Serif" font-size="10.00"> </text>
</g>
<!-- Node4&#45;&gt;Node1 -->
<g id="edge3" class="edge"><title>Node4&#45;&gt;Node1</title>
<path fill="none" stroke="#404040" d="M254.28,-435.273C251.283,-401.939 245.063,-344.429 234.5,-296 234.054,-293.954 233.593,-291.896 233.12,-289.828"/>
<polygon fill="none" stroke="#404040" points="233.059,-289.572 227.775,-284.665 230.273,-277.9 235.557,-282.808 233.059,-289.572"/>
<text text-anchor="middle" x="288" y="-354" font-family="Helvetica,sans-Serif" font-size="10.00"> +mPadSamples</text>
</g>
<!-- Node5 -->
<g id="node5" class="node"><title>Node5</title>
<polygon fill="none" stroke="#bfbfbf" points="338,-435.5 338,-492.5 367,-492.5 367,-435.5 338,-435.5"/>
<text text-anchor="middle" x="352.5" y="-480.5" font-family="Helvetica,sans-Serif" font-size="10.00">int</text>
<polyline fill="none" stroke="#bfbfbf" points="338,-473.5 367,-473.5 "/>
<text text-anchor="middle" x="352.5" y="-461.5" font-family="Helvetica,sans-Serif" font-size="10.00"> </text>
<polyline fill="none" stroke="#bfbfbf" points="338,-454.5 367,-454.5 "/>
<text text-anchor="middle" x="352.5" y="-442.5" font-family="Helvetica,sans-Serif" font-size="10.00"> </text>
</g>
<!-- Node5&#45;&gt;Node1 -->
<g id="edge4" class="edge"><title>Node5&#45;&gt;Node1</title>
<path fill="none" stroke="#404040" d="M353.384,-435.278C353.414,-400.944 349.924,-341.437 328.5,-296 316.61,-270.783 299.235,-246.769 280.688,-225.472"/>
<polygon fill="none" stroke="#404040" points="280.679,-225.462 273.698,-223.655 272.681,-216.516 279.662,-218.323 280.679,-225.462"/>
<text text-anchor="middle" x="414" y="-409" font-family="Helvetica,sans-Serif" font-size="10.00"> +mSampleNumber</text>
<text text-anchor="middle" x="414" y="-398" font-family="Helvetica,sans-Serif" font-size="10.00">+mNumberOfEvents</text>
<text text-anchor="middle" x="414" y="-387" font-family="Helvetica,sans-Serif" font-size="10.00">+mSegment</text>
<text text-anchor="middle" x="414" y="-376" font-family="Helvetica,sans-Serif" font-size="10.00">+mWordsPerDilogicCounter</text>
<text text-anchor="middle" x="414" y="-365" font-family="Helvetica,sans-Serif" font-size="10.00">+mErrors</text>
<text text-anchor="middle" x="414" y="-354" font-family="Helvetica,sans-Serif" font-size="10.00">+mNumberOfWrongEvents</text>
<text text-anchor="middle" x="414" y="-343" font-family="Helvetica,sans-Serif" font-size="10.00">+mErrorsCounter</text>
<text text-anchor="middle" x="414" y="-332" font-family="Helvetica,sans-Serif" font-size="10.00">+mTotalPads</text>
<text text-anchor="middle" x="414" y="-321" font-family="Helvetica,sans-Serif" font-size="10.00">+mWillBePad</text>
<text text-anchor="middle" x="414" y="-310" font-family="Helvetica,sans-Serif" font-size="10.00">+mWillBeEoE</text>
<text text-anchor="middle" x="414" y="-299" font-family="Helvetica,sans-Serif" font-size="10.00">...</text>
</g>
</g>
</svg>
        <g id="navigator" transform="translate(0 0)" fill="#404254">
                <rect fill="#f2f5e9" fill-opacity="0.5" stroke="#606060" stroke-width=".5" x="0" y="0" width="60" height="60"/>
                <use id="zoomplus" xlink:href="#zoomPlus" x="17" y="9" onmousedown="handleZoom(evt,'in')"/>
                <use id="zoomminus" xlink:href="#zoomMin" x="42" y="9" onmousedown="handleZoom(evt,'out')"/>
                <use id="reset" xlink:href="#resetDef" x="30" y="36" onmousedown="handleReset()"/>
                <g id="arrowUp" xlink:href="#dirArrow" transform="translate(30 24)" onmousedown="handlePan(0,-1)">
                  <use xlink:href="#rim" fill="#404040">
                        <set attributeName="fill" to="#808080" begin="arrowUp.mouseover" end="arrowUp.mouseout"/>
                  </use>
                  <path fill="none" stroke="white" stroke-width="1.5" d="M0,-3.0v7 M-2.5,-0.5L0,-3.0L2.5,-0.5"/>
                </g>
                <g id="arrowRight" xlink:href="#dirArrow" transform="rotate(90) translate(36 -43)" onmousedown="handlePan(1,0)">
                  <use xlink:href="#rim" fill="#404040">
                        <set attributeName="fill" to="#808080" begin="arrowRight.mouseover" end="arrowRight.mouseout"/>
                  </use>
                  <path fill="none" stroke="white" stroke-width="1.5" d="M0,-3.0v7 M-2.5,-0.5L0,-3.0L2.5,-0.5"/>
                </g>
                <g id="arrowDown" xlink:href="#dirArrow" transform="rotate(180) translate(-30 -48)" onmousedown="handlePan(0,1)">
                  <use xlink:href="#rim" fill="#404040">
                        <set attributeName="fill" to="#808080" begin="arrowDown.mouseover" end="arrowDown.mouseout"/>
                  </use>
                  <path fill="none" stroke="white" stroke-width="1.5" d="M0,-3.0v7 M-2.5,-0.5L0,-3.0L2.5,-0.5"/>
                </g>
                <g id="arrowLeft" xlink:href="#dirArrow" transform="rotate(270) translate(-36 17)" onmousedown="handlePan(-1,0)">
                  <use xlink:href="#rim" fill="#404040">
                        <set attributeName="fill" to="#808080" begin="arrowLeft.mouseover" end="arrowLeft.mouseout"/>
                  </use>
                  <path fill="none" stroke="white" stroke-width="1.5" d="M0,-3.0v7 M-2.5,-0.5L0,-3.0L2.5,-0.5"/>
                </g>
        </g>
        <svg viewBox="0 0 15 15" width="100%" height="30px" preserveAspectRatio="xMaxYMin meet">
         <g id="arrow_out" transform="scale(0.3 0.3)">
          <a xlink:href="classo2_1_1quality__control__modules_1_1hmpid_1_1HmpidEquipment__coll__graph_org.svg" target="_base">
           <rect id="button" ry="5" rx="5" y="6" x="6" height="38" width="38"
                fill="#f2f5e9" fill-opacity="0.5" stroke="#606060" stroke-width="1.0"/>
           <path id="arrow"
             d="M 11.500037,31.436501 C 11.940474,20.09759 22.043105,11.32322 32.158766,21.979434 L 37.068811,17.246167 C 37.068811,17.246167 37.088388,32 37.088388,32 L 22.160133,31.978069 C 22.160133,31.978069 26.997745,27.140456 26.997745,27.140456 C 18.528582,18.264221 13.291696,25.230495 11.500037,31.436501 z"
             style="fill:#404040;"/>
          </a>
         </g>
        </svg>
</svg>
