<?xml version="1.0" encoding="UTF-8" standalone="no"?>
<!DOCTYPE svg PUBLIC "-//W3C//DTD SVG 1.1//EN"
 "http://www.w3.org/Graphics/SVG/1.1/DTD/svg11.dtd">
<!-- Generated by graphviz version 2.38.0 (20140413.2041)
 -->
<!-- Title: MyReductor Pages: 1 -->
<svg width="216pt" height="270pt"
 viewBox="0.00 0.00 216.00 270.00" xmlns="http://www.w3.org/2000/svg" xmlns:xlink="http://www.w3.org/1999/xlink">
<g id="graph0" class="graph" transform="scale(1 1) rotate(0) translate(4 266)">
<title>MyReductor</title>
<!-- Node1 -->
<g id="node1" class="node"><title>Node1</title>
<polygon fill="#bfbfbf" stroke="black" points="67,-0.5 67,-101.5 179,-101.5 179,-0.5 67,-0.5"/>
<text text-anchor="middle" x="123" y="-89.5" font-family="Helvetica,sans-Serif" font-size="10.00">MyReductor</text>
<polyline fill="none" stroke="black" points="67,-82.5 179,-82.5 "/>
<text text-anchor="middle" x="123" y="-70.5" font-family="Helvetica,sans-Serif" font-size="10.00"> </text>
<polyline fill="none" stroke="black" points="67,-63.5 179,-63.5 "/>
<text text-anchor="start" x="75" y="-51.5" font-family="Helvetica,sans-Serif" font-size="10.00">+ MyReductor()</text>
<text text-anchor="start" x="75" y="-40.5" font-family="Helvetica,sans-Serif" font-size="10.00">+ ~MyReductor()</text>
<text text-anchor="start" x="75" y="-29.5" font-family="Helvetica,sans-Serif" font-size="10.00">+ getBranchAddress()</text>
<text text-anchor="start" x="75" y="-18.5" font-family="Helvetica,sans-Serif" font-size="10.00">+ getBranchLeafList()</text>
<text text-anchor="start" x="75" y="-7.5" font-family="Helvetica,sans-Serif" font-size="10.00">+ update()</text>
</g>
<!-- Node2 -->
<g id="node2" class="node"><title>Node2</title>
<g id="a_node2"><a xlink:href="classo2_1_1quality__control_1_1postprocessing_1_1Reductor.html" target="_top" xlink:title="An interface for storing data derived from QC objects into a TTree. ">
<polygon fill="none" stroke="black" points="0,-149.5 0,-261.5 134,-261.5 134,-149.5 0,-149.5"/>
<text text-anchor="start" x="8" y="-249.5" font-family="Helvetica,sans-Serif" font-size="10.00">o2::quality_control</text>
<text text-anchor="middle" x="67" y="-238.5" font-family="Helvetica,sans-Serif" font-size="10.00">::postprocessing::Reductor</text>
<polyline fill="none" stroke="black" points="0,-231.5 134,-231.5 "/>
<text text-anchor="middle" x="67" y="-219.5" font-family="Helvetica,sans-Serif" font-size="10.00"> </text>
<polyline fill="none" stroke="black" points="0,-212.5 134,-212.5 "/>
<text text-anchor="start" x="8" y="-200.5" font-family="Helvetica,sans-Serif" font-size="10.00">+ Reductor()</text>
<text text-anchor="start" x="8" y="-189.5" font-family="Helvetica,sans-Serif" font-size="10.00">+ ~Reductor()</text>
<text text-anchor="start" x="8" y="-178.5" font-family="Helvetica,sans-Serif" font-size="10.00">+ getBranchAddress()</text>
<text text-anchor="start" x="8" y="-167.5" font-family="Helvetica,sans-Serif" font-size="10.00">+ getBranchLeafList()</text>
<text text-anchor="start" x="8" y="-156.5" font-family="Helvetica,sans-Serif" font-size="10.00">+ update()</text>
</a>
</g>
</g>
<!-- Node2&#45;&gt;Node1 -->
<g id="edge1" class="edge"><title>Node2&#45;&gt;Node1</title>
<path fill="none" stroke="midnightblue" d="M90.7605,-139.795C95.4471,-127.032 100.296,-113.828 104.765,-101.657"/>
<polygon fill="none" stroke="midnightblue" points="87.3789,-138.85 87.2173,-149.444 93.9499,-141.263 87.3789,-138.85"/>
</g>
<!-- Node3 -->
<g id="node3" class="node"><title>Node3</title>
<polygon fill="none" stroke="#bfbfbf" points="152,-177 152,-234 208,-234 208,-177 152,-177"/>
<text text-anchor="middle" x="180" y="-222" font-family="Helvetica,sans-Serif" font-size="10.00">Double_t</text>
<polyline fill="none" stroke="#bfbfbf" points="152,-215 208,-215 "/>
<text text-anchor="middle" x="180" y="-203" font-family="Helvetica,sans-Serif" font-size="10.00"> </text>
<polyline fill="none" stroke="#bfbfbf" points="152,-196 208,-196 "/>
<text text-anchor="middle" x="180" y="-184" font-family="Helvetica,sans-Serif" font-size="10.00"> </text>
</g>
<!-- Node3&#45;&gt;Node1 -->
<g id="edge2" class="edge"><title>Node3&#45;&gt;Node1</title>
<path fill="none" stroke="#404040" d="M169.678,-176.883C163.012,-159.049 154.069,-135.122 145.795,-112.986"/>
<polygon fill="none" stroke="#404040" points="145.746,-112.855 139.898,-108.635 141.544,-101.614 147.392,-105.834 145.746,-112.855"/>
<text text-anchor="middle" x="171.5" y="-123" font-family="Helvetica,sans-Serif" font-size="10.00"> +integral</text>
</g>
</g>
</svg>
