<?xml version="1.0" encoding="UTF-8" standalone="no"?>
<!DOCTYPE svg PUBLIC "-//W3C//DTD SVG 1.1//EN"
 "http://www.w3.org/Graphics/SVG/1.1/DTD/svg11.dtd">
<!-- Generated by graphviz version 2.38.0 (20140413.2041)
 -->
<!-- Title: o2::quality_control_modules::ft0::FT0DataProducer Pages: 1 -->
<svg width="167pt" height="182pt"
 viewBox="0.00 0.00 167.00 182.00" xmlns="http://www.w3.org/2000/svg" xmlns:xlink="http://www.w3.org/1999/xlink">
<g id="graph0" class="graph" transform="scale(1 1) rotate(0) translate(4 178)">
<title>o2::quality_control_modules::ft0::FT0DataProducer</title>
<!-- Node1 -->
<g id="node1" class="node"><title>Node1</title>
<polygon fill="#bfbfbf" stroke="black" points="-1.42109e-14,-0.5 -1.42109e-14,-79.5 159,-79.5 159,-0.5 -1.42109e-14,-0.5"/>
<text text-anchor="start" x="8" y="-67.5" font-family="Helvetica,sans-Serif" font-size="10.00">o2::quality_control</text>
<text text-anchor="middle" x="79.5" y="-56.5" font-family="Helvetica,sans-Serif" font-size="10.00">_modules::ft0::FT0DataProducer</text>
<polyline fill="none" stroke="black" points="-1.42109e-14,-49.5 159,-49.5 "/>
<text text-anchor="middle" x="79.5" y="-37.5" font-family="Helvetica,sans-Serif" font-size="10.00"> </text>
<polyline fill="none" stroke="black" points="-1.42109e-14,-30.5 159,-30.5 "/>
<text text-anchor="start" x="8" y="-18.5" font-family="Helvetica,sans-Serif" font-size="10.00">+ init()</text>
<text text-anchor="start" x="8" y="-7.5" font-family="Helvetica,sans-Serif" font-size="10.00">+ run()</text>
</g>
<!-- Node2 -->
<g id="node2" class="node"><title>Node2</title>
<g id="a_node2"><a xlink:href="classo2_1_1framework_1_1Task.html" target="_top" xlink:title="{Task\n||}">
<polygon fill="none" stroke="black" points="60.5,-116.5 60.5,-173.5 98.5,-173.5 98.5,-116.5 60.5,-116.5"/>
<text text-anchor="middle" x="79.5" y="-161.5" font-family="Helvetica,sans-Serif" font-size="10.00">Task</text>
<polyline fill="none" stroke="black" points="60.5,-154.5 98.5,-154.5 "/>
<text text-anchor="middle" x="79.5" y="-142.5" font-family="Helvetica,sans-Serif" font-size="10.00"> </text>
<polyline fill="none" stroke="black" points="60.5,-135.5 98.5,-135.5 "/>
<text text-anchor="middle" x="79.5" y="-123.5" font-family="Helvetica,sans-Serif" font-size="10.00"> </text>
</a>
</g>
</g>
<!-- Node2&#45;&gt;Node1 -->
<g id="edge1" class="edge"><title>Node2&#45;&gt;Node1</title>
<path fill="none" stroke="midnightblue" d="M79.5,-106.156C79.5,-97.4733 79.5,-88.2318 79.5,-79.5205"/>
<polygon fill="none" stroke="midnightblue" points="76.0001,-106.398 79.5,-116.398 83.0001,-106.398 76.0001,-106.398"/>
</g>
</g>
</svg>
