<?xml version="1.0" encoding="UTF-8" standalone="no"?>
<!DOCTYPE svg PUBLIC "-//W3C//DTD SVG 1.1//EN"
 "http://www.w3.org/Graphics/SVG/1.1/DTD/svg11.dtd">
<!-- Generated by graphviz version 2.38.0 (20140413.2041)
 -->
<!-- Title: ExceptionBase Pages: 1 -->
<svg width="146pt" height="171pt"
 viewBox="0.00 0.00 146.00 171.00" xmlns="http://www.w3.org/2000/svg" xmlns:xlink="http://www.w3.org/1999/xlink">
<g id="graph0" class="graph" transform="scale(1 1) rotate(0) translate(4 167)">
<title>ExceptionBase</title>
<!-- Node1 -->
<g id="node1" class="node"><title>Node1</title>
<polygon fill="#bfbfbf" stroke="black" points="27.5,-105.5 27.5,-162.5 110.5,-162.5 110.5,-105.5 27.5,-105.5"/>
<text text-anchor="middle" x="69" y="-150.5" font-family="Helvetica,sans-Serif" font-size="10.00">ExceptionBase</text>
<polyline fill="none" stroke="black" points="27.5,-143.5 110.5,-143.5 "/>
<text text-anchor="middle" x="69" y="-131.5" font-family="Helvetica,sans-Serif" font-size="10.00"> </text>
<polyline fill="none" stroke="black" points="27.5,-124.5 110.5,-124.5 "/>
<text text-anchor="middle" x="69" y="-112.5" font-family="Helvetica,sans-Serif" font-size="10.00"> </text>
</g>
<!-- Node2 -->
<g id="node2" class="node"><title>Node2</title>
<g id="a_node2"><a xlink:href="structo2_1_1quality__control_1_1core_1_1DuplicateObjectError.html" target="_top" xlink:title="{o2::quality_control\l::core::DuplicateObjectError\n||+ what()\l}">
<polygon fill="none" stroke="black" points="0,-0.5 0,-68.5 138,-68.5 138,-0.5 0,-0.5"/>
<text text-anchor="start" x="8" y="-56.5" font-family="Helvetica,sans-Serif" font-size="10.00">o2::quality_control</text>
<text text-anchor="middle" x="69" y="-45.5" font-family="Helvetica,sans-Serif" font-size="10.00">::core::DuplicateObjectError</text>
<polyline fill="none" stroke="black" points="0,-38.5 138,-38.5 "/>
<text text-anchor="middle" x="69" y="-26.5" font-family="Helvetica,sans-Serif" font-size="10.00"> </text>
<polyline fill="none" stroke="black" points="0,-19.5 138,-19.5 "/>
<text text-anchor="start" x="8" y="-7.5" font-family="Helvetica,sans-Serif" font-size="10.00">+ what()</text>
</a>
</g>
</g>
<!-- Node1&#45;&gt;Node2 -->
<g id="edge1" class="edge"><title>Node1&#45;&gt;Node2</title>
<path fill="none" stroke="midnightblue" d="M69,-95.0631C69,-86.3933 69,-77.2431 69,-68.7855"/>
<polygon fill="none" stroke="midnightblue" points="65.5001,-95.3212 69,-105.321 72.5001,-95.3212 65.5001,-95.3212"/>
</g>
</g>
</svg>
