<?xml version="1.0" encoding="UTF-8" standalone="no"?>
<!DOCTYPE svg PUBLIC "-//W3C//DTD SVG 1.1//EN"
 "http://www.w3.org/Graphics/SVG/1.1/DTD/svg11.dtd">
<!-- Generated by graphviz version 2.38.0 (20140413.2041)
 -->
<!-- Title: o2::quality_control_modules::muonchambers::MapDualSampa Pages: 1 -->
<svg width="139pt" height="226pt"
 viewBox="0.00 0.00 139.00 226.00" xmlns="http://www.w3.org/2000/svg" xmlns:xlink="http://www.w3.org/1999/xlink">
<g id="graph0" class="graph" transform="scale(1 1) rotate(0) translate(4 222)">
<title>o2::quality_control_modules::muonchambers::MapDualSampa</title>
<!-- Node1 -->
<g id="node1" class="node"><title>Node1</title>
<polygon fill="#bfbfbf" stroke="black" points="0,-0.5 0,-90.5 131,-90.5 131,-0.5 0,-0.5"/>
<text text-anchor="start" x="8" y="-78.5" font-family="Helvetica,sans-Serif" font-size="10.00">o2::quality_control</text>
<text text-anchor="start" x="8" y="-67.5" font-family="Helvetica,sans-Serif" font-size="10.00">_modules::muonchambers</text>
<text text-anchor="middle" x="65.5" y="-56.5" font-family="Helvetica,sans-Serif" font-size="10.00">::MapDualSampa</text>
<polyline fill="none" stroke="black" points="0,-49.5 131,-49.5 "/>
<text text-anchor="middle" x="65.5" y="-37.5" font-family="Helvetica,sans-Serif" font-size="10.00"> </text>
<polyline fill="none" stroke="black" points="0,-30.5 131,-30.5 "/>
<text text-anchor="start" x="8" y="-18.5" font-family="Helvetica,sans-Serif" font-size="10.00">+ MapDualSampa()</text>
<text text-anchor="start" x="8" y="-7.5" font-family="Helvetica,sans-Serif" font-size="10.00">+ ~MapDualSampa()</text>
</g>
<!-- Node2 -->
<g id="node2" class="node"><title>Node2</title>
<polygon fill="none" stroke="#bfbfbf" points="51,-160.5 51,-217.5 80,-217.5 80,-160.5 51,-160.5"/>
<text text-anchor="middle" x="65.5" y="-205.5" font-family="Helvetica,sans-Serif" font-size="10.00">int</text>
<polyline fill="none" stroke="#bfbfbf" points="51,-198.5 80,-198.5 "/>
<text text-anchor="middle" x="65.5" y="-186.5" font-family="Helvetica,sans-Serif" font-size="10.00"> </text>
<polyline fill="none" stroke="#bfbfbf" points="51,-179.5 80,-179.5 "/>
<text text-anchor="middle" x="65.5" y="-167.5" font-family="Helvetica,sans-Serif" font-size="10.00"> </text>
</g>
<!-- Node2&#45;&gt;Node1 -->
<g id="edge1" class="edge"><title>Node2&#45;&gt;Node1</title>
<path fill="none" stroke="#404040" d="M65.5,-160.381C65.5,-143.997 65.5,-122.622 65.5,-102.821"/>
<polygon fill="none" stroke="#404040" points="65.5001,-102.755 61.5,-96.7546 65.5,-90.7545 69.5,-96.7545 65.5001,-102.755"/>
<text text-anchor="middle" x="85" y="-134" font-family="Helvetica,sans-Serif" font-size="10.00"> +mBad</text>
<text text-anchor="middle" x="85" y="-123" font-family="Helvetica,sans-Serif" font-size="10.00">+mIndex</text>
<text text-anchor="middle" x="85" y="-112" font-family="Helvetica,sans-Serif" font-size="10.00">+mDE</text>
</g>
</g>
</svg>
