<?xml version="1.0" encoding="UTF-8" standalone="no"?>
<!DOCTYPE svg PUBLIC "-//W3C//DTD SVG 1.1//EN"
 "http://www.w3.org/Graphics/SVG/1.1/DTD/svg11.dtd">
<!-- Generated by graphviz version 2.38.0 (20140413.2041)
 -->
<!-- Title: TestCheck Pages: 1 -->
<svg width="212pt" height="441pt"
 viewBox="0.00 0.00 212.00 441.00" xmlns="http://www.w3.org/2000/svg" xmlns:xlink="http://www.w3.org/1999/xlink">
<g id="graph0" class="graph" transform="scale(1 1) rotate(0) translate(4 437)">
<title>TestCheck</title>
<!-- Node1 -->
<g id="node1" class="node"><title>Node1</title>
<polygon fill="#bfbfbf" stroke="black" points="86,-0.5 86,-101.5 194,-101.5 194,-0.5 86,-0.5"/>
<text text-anchor="middle" x="140" y="-89.5" font-family="Helvetica,sans-Serif" font-size="10.00">TestCheck</text>
<polyline fill="none" stroke="black" points="86,-82.5 194,-82.5 "/>
<text text-anchor="middle" x="140" y="-70.5" font-family="Helvetica,sans-Serif" font-size="10.00"> </text>
<polyline fill="none" stroke="black" points="86,-63.5 194,-63.5 "/>
<text text-anchor="start" x="94" y="-51.5" font-family="Helvetica,sans-Serif" font-size="10.00">+ TestCheck()</text>
<text text-anchor="start" x="94" y="-40.5" font-family="Helvetica,sans-Serif" font-size="10.00">+ configure()</text>
<text text-anchor="start" x="94" y="-29.5" font-family="Helvetica,sans-Serif" font-size="10.00">+ check()</text>
<text text-anchor="start" x="94" y="-18.5" font-family="Helvetica,sans-Serif" font-size="10.00">+ beautify()</text>
<text text-anchor="start" x="94" y="-7.5" font-family="Helvetica,sans-Serif" font-size="10.00">+ getAcceptedType()</text>
</g>
<!-- Node2 -->
<g id="node2" class="node"><title>Node2</title>
<g id="a_node2"><a xlink:href="classo2_1_1quality__control_1_1checker_1_1CheckInterface.html" target="_top" xlink:title="Skeleton of a check. ">
<polygon fill="none" stroke="black" points="0,-160.5 0,-316.5 130,-316.5 130,-160.5 0,-160.5"/>
<text text-anchor="start" x="8" y="-304.5" font-family="Helvetica,sans-Serif" font-size="10.00">o2::quality_control</text>
<text text-anchor="middle" x="65" y="-293.5" font-family="Helvetica,sans-Serif" font-size="10.00">::checker::CheckInterface</text>
<polyline fill="none" stroke="black" points="0,-286.5 130,-286.5 "/>
<text text-anchor="middle" x="65" y="-274.5" font-family="Helvetica,sans-Serif" font-size="10.00"> </text>
<polyline fill="none" stroke="black" points="0,-267.5 130,-267.5 "/>
<text text-anchor="start" x="8" y="-255.5" font-family="Helvetica,sans-Serif" font-size="10.00">+ CheckInterface()</text>
<text text-anchor="start" x="8" y="-244.5" font-family="Helvetica,sans-Serif" font-size="10.00">+ ~CheckInterface()</text>
<text text-anchor="start" x="8" y="-233.5" font-family="Helvetica,sans-Serif" font-size="10.00">+ configure()</text>
<text text-anchor="start" x="8" y="-222.5" font-family="Helvetica,sans-Serif" font-size="10.00">+ check()</text>
<text text-anchor="start" x="8" y="-211.5" font-family="Helvetica,sans-Serif" font-size="10.00">+ beautify()</text>
<text text-anchor="start" x="8" y="-200.5" font-family="Helvetica,sans-Serif" font-size="10.00">+ getAcceptedType()</text>
<text text-anchor="start" x="8" y="-189.5" font-family="Helvetica,sans-Serif" font-size="10.00">+ isObjectCheckable()</text>
<text text-anchor="start" x="8" y="-178.5" font-family="Helvetica,sans-Serif" font-size="10.00">+ isObjectCheckable()</text>
<text text-anchor="start" x="8" y="-167.5" font-family="Helvetica,sans-Serif" font-size="10.00">+ setCustomParameters()</text>
</a>
</g>
</g>
<!-- Node2&#45;&gt;Node1 -->
<g id="edge1" class="edge"><title>Node2&#45;&gt;Node1</title>
<path fill="none" stroke="midnightblue" d="M99.9518,-151.052C106.818,-134.071 113.798,-116.807 119.966,-101.551"/>
<polygon fill="none" stroke="midnightblue" points="96.6588,-149.86 96.1552,-160.443 103.148,-152.484 96.6588,-149.86"/>
</g>
<!-- Node3 -->
<g id="node3" class="node"><title>Node3</title>
<polygon fill="none" stroke="#bfbfbf" points="12,-364.5 12,-432.5 118,-432.5 118,-364.5 12,-364.5"/>
<text text-anchor="start" x="20" y="-420.5" font-family="Helvetica,sans-Serif" font-size="10.00">unordered_map&lt; std</text>
<text text-anchor="middle" x="65" y="-409.5" font-family="Helvetica,sans-Serif" font-size="10.00">::string, std::string &gt;</text>
<polyline fill="none" stroke="#bfbfbf" points="12,-402.5 118,-402.5 "/>
<text text-anchor="middle" x="65" y="-390.5" font-family="Helvetica,sans-Serif" font-size="10.00"> </text>
<polyline fill="none" stroke="#bfbfbf" points="12,-383.5 118,-383.5 "/>
<text text-anchor="middle" x="65" y="-371.5" font-family="Helvetica,sans-Serif" font-size="10.00"> </text>
</g>
<!-- Node3&#45;&gt;Node2 -->
<g id="edge2" class="edge"><title>Node3&#45;&gt;Node2</title>
<path fill="none" stroke="#404040" d="M65,-364.378C65,-353.749 65,-341.424 65,-328.742"/>
<polygon fill="none" stroke="#404040" points="65.0001,-328.516 61,-322.516 65,-316.516 69,-322.516 65.0001,-328.516"/>
<text text-anchor="middle" x="116" y="-338" font-family="Helvetica,sans-Serif" font-size="10.00"> #mCustomParameters</text>
</g>
<!-- Node4 -->
<g id="node4" class="node"><title>Node4</title>
<polygon fill="none" stroke="#bfbfbf" points="148.5,-210 148.5,-267 183.5,-267 183.5,-210 148.5,-210"/>
<text text-anchor="middle" x="166" y="-255" font-family="Helvetica,sans-Serif" font-size="10.00">bool</text>
<polyline fill="none" stroke="#bfbfbf" points="148.5,-248 183.5,-248 "/>
<text text-anchor="middle" x="166" y="-236" font-family="Helvetica,sans-Serif" font-size="10.00"> </text>
<polyline fill="none" stroke="#bfbfbf" points="148.5,-229 183.5,-229 "/>
<text text-anchor="middle" x="166" y="-217" font-family="Helvetica,sans-Serif" font-size="10.00"> </text>
</g>
<!-- Node4&#45;&gt;Node1 -->
<g id="edge3" class="edge"><title>Node4&#45;&gt;Node1</title>
<path fill="none" stroke="#404040" d="M162.108,-209.729C158.565,-184.456 153.21,-146.247 148.657,-113.766"/>
<polygon fill="none" stroke="#404040" points="148.623,-113.52 143.829,-108.133 146.957,-101.636 151.751,-107.023 148.623,-113.52"/>
<text text-anchor="middle" x="178.5" y="-134" font-family="Helvetica,sans-Serif" font-size="10.00"> +mCheck</text>
<text text-anchor="middle" x="178.5" y="-123" font-family="Helvetica,sans-Serif" font-size="10.00">+mBeautify</text>
</g>
</g>
</svg>
