<?xml version="1.0" encoding="UTF-8" standalone="no"?>
<!DOCTYPE svg PUBLIC "-//W3C//DTD SVG 1.1//EN"
 "http://www.w3.org/Graphics/SVG/1.1/DTD/svg11.dtd">
<!-- Generated by graphviz version 2.38.0 (20140413.2041)
 -->
<!-- Title: o2::quality_control_modules::hmpid::HmpidDecodeRawMem Pages: 1 -->
<svg width="581pt" height="1372pt"
 viewBox="0.00 0.00 580.50 1372.00" xmlns="http://www.w3.org/2000/svg" xmlns:xlink="http://www.w3.org/1999/xlink">
<g id="graph0" class="graph" transform="scale(1 1) rotate(0) translate(4 1368)">
<title>o2::quality_control_modules::hmpid::HmpidDecodeRawMem</title>
<!-- Node1 -->
<g id="node1" class="node"><title>Node1</title>
<polygon fill="#bfbfbf" stroke="black" points="132,-0.5 132,-112.5 291,-112.5 291,-0.5 132,-0.5"/>
<text text-anchor="start" x="140" y="-100.5" font-family="Helvetica,sans-Serif" font-size="10.00">o2::quality_control</text>
<text text-anchor="start" x="140" y="-89.5" font-family="Helvetica,sans-Serif" font-size="10.00">_modules::hmpid::HmpidDecode</text>
<text text-anchor="middle" x="211.5" y="-78.5" font-family="Helvetica,sans-Serif" font-size="10.00">RawMem</text>
<polyline fill="none" stroke="black" points="132,-71.5 291,-71.5 "/>
<text text-anchor="middle" x="211.5" y="-59.5" font-family="Helvetica,sans-Serif" font-size="10.00"> </text>
<polyline fill="none" stroke="black" points="132,-52.5 291,-52.5 "/>
<text text-anchor="start" x="140" y="-40.5" font-family="Helvetica,sans-Serif" font-size="10.00">+ HmpidDecodeRawMem()</text>
<text text-anchor="start" x="140" y="-29.5" font-family="Helvetica,sans-Serif" font-size="10.00">+ HmpidDecodeRawMem()</text>
<text text-anchor="start" x="140" y="-18.5" font-family="Helvetica,sans-Serif" font-size="10.00">+ ~HmpidDecodeRawMem()</text>
<text text-anchor="start" x="140" y="-7.5" font-family="Helvetica,sans-Serif" font-size="10.00">+ setUpStream()</text>
</g>
<!-- Node2 -->
<g id="node2" class="node"><title>Node2</title>
<g id="a_node2"><a xlink:href="classo2_1_1quality__control__modules_1_1hmpid_1_1HmpidDecoder.html" target="_top" xlink:title="{o2::quality_control\l_modules::hmpid::HmpidDecoder\n|+ mVerbose\l+ mNumberOfEquipments\l+ mHeEvent\l+ mNumberWordToRead\l+ mHeFEEID\l+ mHeSize\l+ mHePrior\l+ mHeStop\l+ mHePages\l+ mEquipment\l+ mHeOffsetNewPack\l+ mHeDW\l+ mHeCruID\l+ mHePageNum\l+ mHeFirmwareVersion\l+ mHeBCDI\l+ mHeORBIT\l|+ HmpidDecoder()\l+ HmpidDecoder()\l+ ~HmpidDecoder()\l+ init()\l+ setUpStream()\l+ setVerbosity()\l+ getVerbosity()\l+ getNumberOfEquipments()\l+ getEquipmentIndex()\l+ getEquipmentIndex()\l+ getEquipmentID()\l+ decodeBuffer()\l+ getChannelSamples()\l+ getChannelSum()\l+ getChannelSquare()\l+ getPadSamples()\l+ getPadSum()\l+ getPadSquares()\l+ dumpErrors()\l+ dumpPads()\l+ writeSummaryFile()\l+ getAverageEventSize()\l+ getAverageBusyTime()\l# checkType()\l# isRowMarker()\l# isSegmentMarker()\l# isPadWord()\l# isEoEmarker()\l# decodeHeader()\l# decodeHmpidError()\l# dumpHmpidError()\l# evaluateHeaderContents()\l# updateStatistics()\l# setPad()\l# getBlockFromStream()\l# getHeaderFromStream()\l# getWordFromStream()\l# getActualStreamPtr()\l}">
<polygon fill="none" stroke="black" points="130.5,-150.5 130.5,-801.5 292.5,-801.5 292.5,-150.5 130.5,-150.5"/>
<text text-anchor="start" x="138.5" y="-789.5" font-family="Helvetica,sans-Serif" font-size="10.00">o2::quality_control</text>
<text text-anchor="middle" x="211.5" y="-778.5" font-family="Helvetica,sans-Serif" font-size="10.00">_modules::hmpid::HmpidDecoder</text>
<polyline fill="none" stroke="black" points="130.5,-771.5 292.5,-771.5 "/>
<text text-anchor="start" x="138.5" y="-759.5" font-family="Helvetica,sans-Serif" font-size="10.00">+ mVerbose</text>
<text text-anchor="start" x="138.5" y="-748.5" font-family="Helvetica,sans-Serif" font-size="10.00">+ mNumberOfEquipments</text>
<text text-anchor="start" x="138.5" y="-737.5" font-family="Helvetica,sans-Serif" font-size="10.00">+ mHeEvent</text>
<text text-anchor="start" x="138.5" y="-726.5" font-family="Helvetica,sans-Serif" font-size="10.00">+ mNumberWordToRead</text>
<text text-anchor="start" x="138.5" y="-715.5" font-family="Helvetica,sans-Serif" font-size="10.00">+ mHeFEEID</text>
<text text-anchor="start" x="138.5" y="-704.5" font-family="Helvetica,sans-Serif" font-size="10.00">+ mHeSize</text>
<text text-anchor="start" x="138.5" y="-693.5" font-family="Helvetica,sans-Serif" font-size="10.00">+ mHePrior</text>
<text text-anchor="start" x="138.5" y="-682.5" font-family="Helvetica,sans-Serif" font-size="10.00">+ mHeStop</text>
<text text-anchor="start" x="138.5" y="-671.5" font-family="Helvetica,sans-Serif" font-size="10.00">+ mHePages</text>
<text text-anchor="start" x="138.5" y="-660.5" font-family="Helvetica,sans-Serif" font-size="10.00">+ mEquipment</text>
<text text-anchor="start" x="138.5" y="-649.5" font-family="Helvetica,sans-Serif" font-size="10.00">+ mHeOffsetNewPack</text>
<text text-anchor="start" x="138.5" y="-638.5" font-family="Helvetica,sans-Serif" font-size="10.00">+ mHeDW</text>
<text text-anchor="start" x="138.5" y="-627.5" font-family="Helvetica,sans-Serif" font-size="10.00">+ mHeCruID</text>
<text text-anchor="start" x="138.5" y="-616.5" font-family="Helvetica,sans-Serif" font-size="10.00">+ mHePageNum</text>
<text text-anchor="start" x="138.5" y="-605.5" font-family="Helvetica,sans-Serif" font-size="10.00">+ mHeFirmwareVersion</text>
<text text-anchor="start" x="138.5" y="-594.5" font-family="Helvetica,sans-Serif" font-size="10.00">+ mHeBCDI</text>
<text text-anchor="start" x="138.5" y="-583.5" font-family="Helvetica,sans-Serif" font-size="10.00">+ mHeORBIT</text>
<polyline fill="none" stroke="black" points="130.5,-576.5 292.5,-576.5 "/>
<text text-anchor="start" x="138.5" y="-564.5" font-family="Helvetica,sans-Serif" font-size="10.00">+ HmpidDecoder()</text>
<text text-anchor="start" x="138.5" y="-553.5" font-family="Helvetica,sans-Serif" font-size="10.00">+ HmpidDecoder()</text>
<text text-anchor="start" x="138.5" y="-542.5" font-family="Helvetica,sans-Serif" font-size="10.00">+ ~HmpidDecoder()</text>
<text text-anchor="start" x="138.5" y="-531.5" font-family="Helvetica,sans-Serif" font-size="10.00">+ init()</text>
<text text-anchor="start" x="138.5" y="-520.5" font-family="Helvetica,sans-Serif" font-size="10.00">+ setUpStream()</text>
<text text-anchor="start" x="138.5" y="-509.5" font-family="Helvetica,sans-Serif" font-size="10.00">+ setVerbosity()</text>
<text text-anchor="start" x="138.5" y="-498.5" font-family="Helvetica,sans-Serif" font-size="10.00">+ getVerbosity()</text>
<text text-anchor="start" x="138.5" y="-487.5" font-family="Helvetica,sans-Serif" font-size="10.00">+ getNumberOfEquipments()</text>
<text text-anchor="start" x="138.5" y="-476.5" font-family="Helvetica,sans-Serif" font-size="10.00">+ getEquipmentIndex()</text>
<text text-anchor="start" x="138.5" y="-465.5" font-family="Helvetica,sans-Serif" font-size="10.00">+ getEquipmentIndex()</text>
<text text-anchor="start" x="138.5" y="-454.5" font-family="Helvetica,sans-Serif" font-size="10.00">+ getEquipmentID()</text>
<text text-anchor="start" x="138.5" y="-443.5" font-family="Helvetica,sans-Serif" font-size="10.00">+ decodeBuffer()</text>
<text text-anchor="start" x="138.5" y="-432.5" font-family="Helvetica,sans-Serif" font-size="10.00">+ getChannelSamples()</text>
<text text-anchor="start" x="138.5" y="-421.5" font-family="Helvetica,sans-Serif" font-size="10.00">+ getChannelSum()</text>
<text text-anchor="start" x="138.5" y="-410.5" font-family="Helvetica,sans-Serif" font-size="10.00">+ getChannelSquare()</text>
<text text-anchor="start" x="138.5" y="-399.5" font-family="Helvetica,sans-Serif" font-size="10.00">+ getPadSamples()</text>
<text text-anchor="start" x="138.5" y="-388.5" font-family="Helvetica,sans-Serif" font-size="10.00">+ getPadSum()</text>
<text text-anchor="start" x="138.5" y="-377.5" font-family="Helvetica,sans-Serif" font-size="10.00">+ getPadSquares()</text>
<text text-anchor="start" x="138.5" y="-366.5" font-family="Helvetica,sans-Serif" font-size="10.00">+ dumpErrors()</text>
<text text-anchor="start" x="138.5" y="-355.5" font-family="Helvetica,sans-Serif" font-size="10.00">+ dumpPads()</text>
<text text-anchor="start" x="138.5" y="-344.5" font-family="Helvetica,sans-Serif" font-size="10.00">+ writeSummaryFile()</text>
<text text-anchor="start" x="138.5" y="-333.5" font-family="Helvetica,sans-Serif" font-size="10.00">+ getAverageEventSize()</text>
<text text-anchor="start" x="138.5" y="-322.5" font-family="Helvetica,sans-Serif" font-size="10.00">+ getAverageBusyTime()</text>
<text text-anchor="start" x="138.5" y="-311.5" font-family="Helvetica,sans-Serif" font-size="10.00"># checkType()</text>
<text text-anchor="start" x="138.5" y="-300.5" font-family="Helvetica,sans-Serif" font-size="10.00"># isRowMarker()</text>
<text text-anchor="start" x="138.5" y="-289.5" font-family="Helvetica,sans-Serif" font-size="10.00"># isSegmentMarker()</text>
<text text-anchor="start" x="138.5" y="-278.5" font-family="Helvetica,sans-Serif" font-size="10.00"># isPadWord()</text>
<text text-anchor="start" x="138.5" y="-267.5" font-family="Helvetica,sans-Serif" font-size="10.00"># isEoEmarker()</text>
<text text-anchor="start" x="138.5" y="-256.5" font-family="Helvetica,sans-Serif" font-size="10.00"># decodeHeader()</text>
<text text-anchor="start" x="138.5" y="-245.5" font-family="Helvetica,sans-Serif" font-size="10.00"># decodeHmpidError()</text>
<text text-anchor="start" x="138.5" y="-234.5" font-family="Helvetica,sans-Serif" font-size="10.00"># dumpHmpidError()</text>
<text text-anchor="start" x="138.5" y="-223.5" font-family="Helvetica,sans-Serif" font-size="10.00"># evaluateHeaderContents()</text>
<text text-anchor="start" x="138.5" y="-212.5" font-family="Helvetica,sans-Serif" font-size="10.00"># updateStatistics()</text>
<text text-anchor="start" x="138.5" y="-201.5" font-family="Helvetica,sans-Serif" font-size="10.00"># setPad()</text>
<text text-anchor="start" x="138.5" y="-190.5" font-family="Helvetica,sans-Serif" font-size="10.00"># getBlockFromStream()</text>
<text text-anchor="start" x="138.5" y="-179.5" font-family="Helvetica,sans-Serif" font-size="10.00"># getHeaderFromStream()</text>
<text text-anchor="start" x="138.5" y="-168.5" font-family="Helvetica,sans-Serif" font-size="10.00"># getWordFromStream()</text>
<text text-anchor="start" x="138.5" y="-157.5" font-family="Helvetica,sans-Serif" font-size="10.00"># getActualStreamPtr()</text>
</a>
</g>
</g>
<!-- Node2&#45;&gt;Node1 -->
<g id="edge1" class="edge"><title>Node2&#45;&gt;Node1</title>
<path fill="none" stroke="midnightblue" d="M211.5,-140.316C211.5,-130.411 211.5,-121.11 211.5,-112.577"/>
<polygon fill="none" stroke="midnightblue" points="208,-140.416 211.5,-150.416 215,-140.416 208,-140.416"/>
</g>
<!-- Node3 -->
<g id="node3" class="node"><title>Node3</title>
<polygon fill="none" stroke="#bfbfbf" points="0,-981.5 0,-1038.5 35,-1038.5 35,-981.5 0,-981.5"/>
<text text-anchor="middle" x="17.5" y="-1026.5" font-family="Helvetica,sans-Serif" font-size="10.00">char</text>
<polyline fill="none" stroke="#bfbfbf" points="0,-1019.5 35,-1019.5 "/>
<text text-anchor="middle" x="17.5" y="-1007.5" font-family="Helvetica,sans-Serif" font-size="10.00"> </text>
<polyline fill="none" stroke="#bfbfbf" points="0,-1000.5 35,-1000.5 "/>
<text text-anchor="middle" x="17.5" y="-988.5" font-family="Helvetica,sans-Serif" font-size="10.00"> </text>
</g>
<!-- Node3&#45;&gt;Node2 -->
<g id="edge2" class="edge"><title>Node3&#45;&gt;Node2</title>
<path fill="none" stroke="#404040" d="M18.1369,-981.491C19.6399,-944.163 24.6738,-875.729 41.5,-820 61.619,-753.365 93.729,-683.844 124.652,-624.952"/>
<polygon fill="none" stroke="#404040" points="124.792,-624.686 124.065,-617.512 130.408,-614.082 131.135,-621.256 124.792,-624.686"/>
<text text-anchor="middle" x="97" y="-839.5" font-family="Helvetica,sans-Serif" font-size="10.00"> +sErrorDescription</text>
<text text-anchor="middle" x="97" y="-828.5" font-family="Helvetica,sans-Serif" font-size="10.00">+sHmpidErrorDescription</text>
</g>
<!-- Node4 -->
<g id="node4" class="node"><title>Node4</title>
<polygon fill="none" stroke="#bfbfbf" points="124.5,-981.5 124.5,-1038.5 170.5,-1038.5 170.5,-981.5 124.5,-981.5"/>
<text text-anchor="middle" x="147.5" y="-1026.5" font-family="Helvetica,sans-Serif" font-size="10.00">int32_t</text>
<polyline fill="none" stroke="#bfbfbf" points="124.5,-1019.5 170.5,-1019.5 "/>
<text text-anchor="middle" x="147.5" y="-1007.5" font-family="Helvetica,sans-Serif" font-size="10.00"> </text>
<polyline fill="none" stroke="#bfbfbf" points="124.5,-1000.5 170.5,-1000.5 "/>
<text text-anchor="middle" x="147.5" y="-988.5" font-family="Helvetica,sans-Serif" font-size="10.00"> </text>
</g>
<!-- Node4&#45;&gt;Node2 -->
<g id="edge3" class="edge"><title>Node4&#45;&gt;Node2</title>
<path fill="none" stroke="#404040" d="M148.284,-981.388C149.519,-944.515 152.43,-877.198 158.5,-820 158.719,-817.94 158.941,-815.874 159.167,-813.802"/>
<polygon fill="none" stroke="#404040" points="159.167,-813.798 155.857,-807.391 160.498,-801.872 163.808,-808.279 159.167,-813.798"/>
<text text-anchor="middle" x="203.5" y="-845" font-family="Helvetica,sans-Serif" font-size="10.00"> +mActualStreamPtr</text>
<text text-anchor="middle" x="203.5" y="-834" font-family="Helvetica,sans-Serif" font-size="10.00">+mEndStreamPtr</text>
<text text-anchor="middle" x="203.5" y="-823" font-family="Helvetica,sans-Serif" font-size="10.00">+mStartStreamPtr</text>
</g>
<!-- Node5 -->
<g id="node5" class="node"><title>Node5</title>
<g id="a_node5"><a xlink:href="classo2_1_1quality__control__modules_1_1hmpid_1_1HmpidEquipment.html" target="_top" xlink:title="{o2::quality_control\l_modules::hmpid::HmpidEquipment\n|+ mWillBeRowMarker\l+ mWillBeSegmentMarker\l+ mRowSize\l+ mColumnCounter\l+ mWordsPerRowCounter\l+ mWordsPerSegCounter\l+ mErrorPadsPerEvent\l+ mEventNumber\l+ mEventSize\l+ mBusyTimeSamples\l+ mNumberOfEmptyEvents\l+ mTotalErrors\l|+ HmpidEquipment()\l+ ~HmpidEquipment()\l+ getEquipmentId()\l+ getEquipmentId()\l+ init()\l+ resetPadMap()\l+ resetErrors()\l+ setError()\l+ setPad()\l}">
<polygon fill="none" stroke="black" points="188.5,-871.5 188.5,-1148.5 360.5,-1148.5 360.5,-871.5 188.5,-871.5"/>
<text text-anchor="start" x="196.5" y="-1136.5" font-family="Helvetica,sans-Serif" font-size="10.00">o2::quality_control</text>
<text text-anchor="middle" x="274.5" y="-1125.5" font-family="Helvetica,sans-Serif" font-size="10.00">_modules::hmpid::HmpidEquipment</text>
<polyline fill="none" stroke="black" points="188.5,-1118.5 360.5,-1118.5 "/>
<text text-anchor="start" x="196.5" y="-1106.5" font-family="Helvetica,sans-Serif" font-size="10.00">+ mWillBeRowMarker</text>
<text text-anchor="start" x="196.5" y="-1095.5" font-family="Helvetica,sans-Serif" font-size="10.00">+ mWillBeSegmentMarker</text>
<text text-anchor="start" x="196.5" y="-1084.5" font-family="Helvetica,sans-Serif" font-size="10.00">+ mRowSize</text>
<text text-anchor="start" x="196.5" y="-1073.5" font-family="Helvetica,sans-Serif" font-size="10.00">+ mColumnCounter</text>
<text text-anchor="start" x="196.5" y="-1062.5" font-family="Helvetica,sans-Serif" font-size="10.00">+ mWordsPerRowCounter</text>
<text text-anchor="start" x="196.5" y="-1051.5" font-family="Helvetica,sans-Serif" font-size="10.00">+ mWordsPerSegCounter</text>
<text text-anchor="start" x="196.5" y="-1040.5" font-family="Helvetica,sans-Serif" font-size="10.00">+ mErrorPadsPerEvent</text>
<text text-anchor="start" x="196.5" y="-1029.5" font-family="Helvetica,sans-Serif" font-size="10.00">+ mEventNumber</text>
<text text-anchor="start" x="196.5" y="-1018.5" font-family="Helvetica,sans-Serif" font-size="10.00">+ mEventSize</text>
<text text-anchor="start" x="196.5" y="-1007.5" font-family="Helvetica,sans-Serif" font-size="10.00">+ mBusyTimeSamples</text>
<text text-anchor="start" x="196.5" y="-996.5" font-family="Helvetica,sans-Serif" font-size="10.00">+ mNumberOfEmptyEvents</text>
<text text-anchor="start" x="196.5" y="-985.5" font-family="Helvetica,sans-Serif" font-size="10.00">+ mTotalErrors</text>
<polyline fill="none" stroke="black" points="188.5,-978.5 360.5,-978.5 "/>
<text text-anchor="start" x="196.5" y="-966.5" font-family="Helvetica,sans-Serif" font-size="10.00">+ HmpidEquipment()</text>
<text text-anchor="start" x="196.5" y="-955.5" font-family="Helvetica,sans-Serif" font-size="10.00">+ ~HmpidEquipment()</text>
<text text-anchor="start" x="196.5" y="-944.5" font-family="Helvetica,sans-Serif" font-size="10.00">+ getEquipmentId()</text>
<text text-anchor="start" x="196.5" y="-933.5" font-family="Helvetica,sans-Serif" font-size="10.00">+ getEquipmentId()</text>
<text text-anchor="start" x="196.5" y="-922.5" font-family="Helvetica,sans-Serif" font-size="10.00">+ init()</text>
<text text-anchor="start" x="196.5" y="-911.5" font-family="Helvetica,sans-Serif" font-size="10.00">+ resetPadMap()</text>
<text text-anchor="start" x="196.5" y="-900.5" font-family="Helvetica,sans-Serif" font-size="10.00">+ resetErrors()</text>
<text text-anchor="start" x="196.5" y="-889.5" font-family="Helvetica,sans-Serif" font-size="10.00">+ setError()</text>
<text text-anchor="start" x="196.5" y="-878.5" font-family="Helvetica,sans-Serif" font-size="10.00">+ setPad()</text>
</a>
</g>
</g>
<!-- Node5&#45;&gt;Node2 -->
<g id="edge4" class="edge"><title>Node5&#45;&gt;Node2</title>
<path fill="none" stroke="#404040" d="M258.194,-871.305C256.025,-852.99 253.73,-833.607 251.367,-813.653"/>
<polygon fill="none" stroke="#404040" points="251.339,-813.419 246.661,-807.931 249.928,-801.502 254.606,-806.99 251.339,-813.419"/>
<text text-anchor="middle" x="299.5" y="-834" font-family="Helvetica,sans-Serif" font-size="10.00"> +mTheEquipments</text>
</g>
<!-- Node6 -->
<g id="node6" class="node"><title>Node6</title>
<polygon fill="none" stroke="#bfbfbf" points="18,-1306.5 18,-1363.5 63,-1363.5 63,-1306.5 18,-1306.5"/>
<text text-anchor="middle" x="40.5" y="-1351.5" font-family="Helvetica,sans-Serif" font-size="10.00">double</text>
<polyline fill="none" stroke="#bfbfbf" points="18,-1344.5 63,-1344.5 "/>
<text text-anchor="middle" x="40.5" y="-1332.5" font-family="Helvetica,sans-Serif" font-size="10.00"> </text>
<polyline fill="none" stroke="#bfbfbf" points="18,-1325.5 63,-1325.5 "/>
<text text-anchor="middle" x="40.5" y="-1313.5" font-family="Helvetica,sans-Serif" font-size="10.00"> </text>
</g>
<!-- Node6&#45;&gt;Node5 -->
<g id="edge5" class="edge"><title>Node6&#45;&gt;Node5</title>
<path fill="none" stroke="#404040" d="M33.721,-1306.48C26.4294,-1269.55 20.1745,-1204.31 55.5,-1167 91.321,-1129.17 127.249,-1172.1 177.575,-1148.88"/>
<polygon fill="none" stroke="#404040" points="177.651,-1148.84 181.003,-1142.46 188.186,-1143.1 184.834,-1149.48 177.651,-1148.84"/>
<text text-anchor="middle" x="91" y="-1230.5" font-family="Helvetica,sans-Serif" font-size="10.00"> +mPadSquares</text>
<text text-anchor="middle" x="91" y="-1219.5" font-family="Helvetica,sans-Serif" font-size="10.00">+mPadSum</text>
</g>
<!-- Node7 -->
<g id="node7" class="node"><title>Node7</title>
<polygon fill="none" stroke="#bfbfbf" points="117,-1306.5 117,-1363.5 152,-1363.5 152,-1306.5 117,-1306.5"/>
<text text-anchor="middle" x="134.5" y="-1351.5" font-family="Helvetica,sans-Serif" font-size="10.00">float</text>
<polyline fill="none" stroke="#bfbfbf" points="117,-1344.5 152,-1344.5 "/>
<text text-anchor="middle" x="134.5" y="-1332.5" font-family="Helvetica,sans-Serif" font-size="10.00"> </text>
<polyline fill="none" stroke="#bfbfbf" points="117,-1325.5 152,-1325.5 "/>
<text text-anchor="middle" x="134.5" y="-1313.5" font-family="Helvetica,sans-Serif" font-size="10.00"> </text>
</g>
<!-- Node7&#45;&gt;Node5 -->
<g id="edge6" class="edge"><title>Node7&#45;&gt;Node5</title>
<path fill="none" stroke="#404040" d="M131.022,-1306.38C128.014,-1271.35 127.577,-1210.32 153.5,-1167 160.717,-1154.94 169.575,-1158.95 179.5,-1149 179.593,-1148.91 179.686,-1148.81 179.779,-1148.72"/>
<polygon fill="none" stroke="#404040" points="180.051,-1148.43 181.296,-1141.33 188.331,-1139.75 187.086,-1146.85 180.051,-1148.43"/>
<text text-anchor="middle" x="212" y="-1241.5" font-family="Helvetica,sans-Serif" font-size="10.00"> +mPadsPerEventAverage</text>
<text text-anchor="middle" x="212" y="-1230.5" font-family="Helvetica,sans-Serif" font-size="10.00">+mBusyTimeAverage</text>
<text text-anchor="middle" x="212" y="-1219.5" font-family="Helvetica,sans-Serif" font-size="10.00">+mBusyTimeValue</text>
<text text-anchor="middle" x="212" y="-1208.5" font-family="Helvetica,sans-Serif" font-size="10.00">+mEventSizeAverage</text>
</g>
<!-- Node8 -->
<g id="node8" class="node"><title>Node8</title>
<polygon fill="none" stroke="#bfbfbf" points="249,-1306.5 249,-1363.5 300,-1363.5 300,-1306.5 249,-1306.5"/>
<text text-anchor="middle" x="274.5" y="-1351.5" font-family="Helvetica,sans-Serif" font-size="10.00">uint32_t</text>
<polyline fill="none" stroke="#bfbfbf" points="249,-1344.5 300,-1344.5 "/>
<text text-anchor="middle" x="274.5" y="-1332.5" font-family="Helvetica,sans-Serif" font-size="10.00"> </text>
<polyline fill="none" stroke="#bfbfbf" points="249,-1325.5 300,-1325.5 "/>
<text text-anchor="middle" x="274.5" y="-1313.5" font-family="Helvetica,sans-Serif" font-size="10.00"> </text>
</g>
<!-- Node8&#45;&gt;Node5 -->
<g id="edge7" class="edge"><title>Node8&#45;&gt;Node5</title>
<path fill="none" stroke="#404040" d="M274.5,-1306.46C274.5,-1273.7 274.5,-1216.44 274.5,-1161.01"/>
<polygon fill="none" stroke="#404040" points="274.5,-1160.84 270.5,-1154.84 274.5,-1148.84 278.5,-1154.84 274.5,-1160.84"/>
<text text-anchor="middle" x="311" y="-1225" font-family="Helvetica,sans-Serif" font-size="10.00"> +mPadSamples</text>
</g>
<!-- Node9 -->
<g id="node9" class="node"><title>Node9</title>
<polygon fill="none" stroke="#bfbfbf" points="425,-1306.5 425,-1363.5 454,-1363.5 454,-1306.5 425,-1306.5"/>
<text text-anchor="middle" x="439.5" y="-1351.5" font-family="Helvetica,sans-Serif" font-size="10.00">int</text>
<polyline fill="none" stroke="#bfbfbf" points="425,-1344.5 454,-1344.5 "/>
<text text-anchor="middle" x="439.5" y="-1332.5" font-family="Helvetica,sans-Serif" font-size="10.00"> </text>
<polyline fill="none" stroke="#bfbfbf" points="425,-1325.5 454,-1325.5 "/>
<text text-anchor="middle" x="439.5" y="-1313.5" font-family="Helvetica,sans-Serif" font-size="10.00"> </text>
</g>
<!-- Node9&#45;&gt;Node2 -->
<g id="edge9" class="edge"><title>Node9&#45;&gt;Node2</title>
<path fill="none" stroke="#404040" d="M454.102,-1326.63C467.415,-1319 486.226,-1305.71 494.5,-1288 517.267,-1239.28 504.9,-1219.76 494.5,-1167 457.049,-976.993 366.751,-773.469 298.146,-637.086"/>
<polygon fill="none" stroke="#404040" points="298.035,-636.865 291.758,-633.315 292.622,-626.156 298.898,-629.706 298.035,-636.865"/>
<text text-anchor="middle" x="531.5" y="-1062.5" font-family="Helvetica,sans-Serif" font-size="10.00"> +mHeLinkNum</text>
<text text-anchor="middle" x="531.5" y="-1051.5" font-family="Helvetica,sans-Serif" font-size="10.00">+mPayloadTail</text>
<text text-anchor="middle" x="531.5" y="-1040.5" font-family="Helvetica,sans-Serif" font-size="10.00">+mHeBusy</text>
<text text-anchor="middle" x="531.5" y="-1029.5" font-family="Helvetica,sans-Serif" font-size="10.00">+mHeTType</text>
<text text-anchor="middle" x="531.5" y="-1018.5" font-family="Helvetica,sans-Serif" font-size="10.00">+mHePackNum</text>
<text text-anchor="middle" x="531.5" y="-1007.5" font-family="Helvetica,sans-Serif" font-size="10.00">+mHeVer</text>
<text text-anchor="middle" x="531.5" y="-996.5" font-family="Helvetica,sans-Serif" font-size="10.00">+mHeHmpidError</text>
<text text-anchor="middle" x="531.5" y="-985.5" font-family="Helvetica,sans-Serif" font-size="10.00">+mHePAR</text>
<text text-anchor="middle" x="531.5" y="-974.5" font-family="Helvetica,sans-Serif" font-size="10.00">+mHeDetectorID</text>
<text text-anchor="middle" x="531.5" y="-963.5" font-family="Helvetica,sans-Serif" font-size="10.00">+mHeMemorySize</text>
<text text-anchor="middle" x="531.5" y="-952.5" font-family="Helvetica,sans-Serif" font-size="10.00">...</text>
</g>
<!-- Node9&#45;&gt;Node5 -->
<g id="edge8" class="edge"><title>Node9&#45;&gt;Node5</title>
<path fill="none" stroke="#404040" d="M424.732,-1328.14C408.938,-1321.08 384.426,-1307.65 371.5,-1288 341.412,-1242.27 365.48,-1219.04 348.5,-1167 347.768,-1164.76 347.011,-1162.5 346.231,-1160.24"/>
<polygon fill="none" stroke="#404040" points="346.211,-1160.19 340.417,-1155.89 342.152,-1148.89 347.946,-1153.19 346.211,-1160.19"/>
<text text-anchor="middle" x="433" y="-1280" font-family="Helvetica,sans-Serif" font-size="10.00"> +mSampleNumber</text>
<text text-anchor="middle" x="433" y="-1269" font-family="Helvetica,sans-Serif" font-size="10.00">+mNumberOfEvents</text>
<text text-anchor="middle" x="433" y="-1258" font-family="Helvetica,sans-Serif" font-size="10.00">+mSegment</text>
<text text-anchor="middle" x="433" y="-1247" font-family="Helvetica,sans-Serif" font-size="10.00">+mWordsPerDilogicCounter</text>
<text text-anchor="middle" x="433" y="-1236" font-family="Helvetica,sans-Serif" font-size="10.00">+mErrors</text>
<text text-anchor="middle" x="433" y="-1225" font-family="Helvetica,sans-Serif" font-size="10.00">+mNumberOfWrongEvents</text>
<text text-anchor="middle" x="433" y="-1214" font-family="Helvetica,sans-Serif" font-size="10.00">+mErrorsCounter</text>
<text text-anchor="middle" x="433" y="-1203" font-family="Helvetica,sans-Serif" font-size="10.00">+mTotalPads</text>
<text text-anchor="middle" x="433" y="-1192" font-family="Helvetica,sans-Serif" font-size="10.00">+mWillBePad</text>
<text text-anchor="middle" x="433" y="-1181" font-family="Helvetica,sans-Serif" font-size="10.00">+mWillBeEoE</text>
<text text-anchor="middle" x="433" y="-1170" font-family="Helvetica,sans-Serif" font-size="10.00">...</text>
</g>
</g>
</svg>
