<?xml version="1.0" encoding="UTF-8" standalone="no"?>
<!DOCTYPE svg PUBLIC "-//W3C//DTD SVG 1.1//EN"
 "http://www.w3.org/Graphics/SVG/1.1/DTD/svg11.dtd">
<!-- Generated by graphviz version 2.38.0 (20140413.2041)
 -->
<!-- Title: o2::quality_control::core::DataDumpGui Pages: 1 -->
<svg width="372pt" height="491pt"
 viewBox="0.00 0.00 372.00 491.00" xmlns="http://www.w3.org/2000/svg" xmlns:xlink="http://www.w3.org/1999/xlink">
<g id="graph0" class="graph" transform="scale(1 1) rotate(0) translate(4 487)">
<title>o2::quality_control::core::DataDumpGui</title>
<!-- Node1 -->
<g id="node1" class="node"><title>Node1</title>
<polygon fill="#bfbfbf" stroke="black" points="95,-0.5 95,-112.5 205,-112.5 205,-0.5 95,-0.5"/>
<text text-anchor="start" x="103" y="-100.5" font-family="Helvetica,sans-Serif" font-size="10.00">o2::quality_control</text>
<text text-anchor="middle" x="150" y="-89.5" font-family="Helvetica,sans-Serif" font-size="10.00">::core::DataDumpGui</text>
<polyline fill="none" stroke="black" points="95,-82.5 205,-82.5 "/>
<text text-anchor="middle" x="150" y="-70.5" font-family="Helvetica,sans-Serif" font-size="10.00"> </text>
<polyline fill="none" stroke="black" points="95,-63.5 205,-63.5 "/>
<text text-anchor="start" x="103" y="-51.5" font-family="Helvetica,sans-Serif" font-size="10.00">+ DataDumpGui()</text>
<text text-anchor="start" x="103" y="-40.5" font-family="Helvetica,sans-Serif" font-size="10.00">+ ~DataDumpGui()</text>
<text text-anchor="start" x="103" y="-29.5" font-family="Helvetica,sans-Serif" font-size="10.00"># InitTask()</text>
<text text-anchor="start" x="103" y="-18.5" font-family="Helvetica,sans-Serif" font-size="10.00"># ConditionalRun()</text>
<text text-anchor="start" x="103" y="-7.5" font-family="Helvetica,sans-Serif" font-size="10.00"># handleParts()</text>
</g>
<!-- Node2 -->
<g id="node2" class="node"><title>Node2</title>
<g id="a_node2"><a xlink:href="classFairMQDevice.html" target="_top" xlink:title="{FairMQDevice\n||}">
<polygon fill="none" stroke="black" points="4,-166 4,-223 84,-223 84,-166 4,-166"/>
<text text-anchor="middle" x="44" y="-211" font-family="Helvetica,sans-Serif" font-size="10.00">FairMQDevice</text>
<polyline fill="none" stroke="black" points="4,-204 84,-204 "/>
<text text-anchor="middle" x="44" y="-192" font-family="Helvetica,sans-Serif" font-size="10.00"> </text>
<polyline fill="none" stroke="black" points="4,-185 84,-185 "/>
<text text-anchor="middle" x="44" y="-173" font-family="Helvetica,sans-Serif" font-size="10.00"> </text>
</a>
</g>
</g>
<!-- Node2&#45;&gt;Node1 -->
<g id="edge1" class="edge"><title>Node2&#45;&gt;Node1</title>
<path fill="none" stroke="midnightblue" d="M71.5996,-158.089C82.4405,-144.18 95.1384,-127.888 107.12,-112.516"/>
<polygon fill="none" stroke="midnightblue" points="68.8376,-155.939 65.4507,-165.978 74.3587,-160.243 68.8376,-155.939"/>
</g>
<!-- Node3 -->
<g id="node3" class="node"><title>Node3</title>
<g id="a_node3"><a xlink:href="structo2_1_1quality__control_1_1core_1_1GUIState.html" target="_top" xlink:title="{o2::quality_control\l::core::GUIState\n||+ GUIState()\l}">
<polygon fill="none" stroke="black" points="102,-160.5 102,-228.5 198,-228.5 198,-160.5 102,-160.5"/>
<text text-anchor="start" x="110" y="-216.5" font-family="Helvetica,sans-Serif" font-size="10.00">o2::quality_control</text>
<text text-anchor="middle" x="150" y="-205.5" font-family="Helvetica,sans-Serif" font-size="10.00">::core::GUIState</text>
<polyline fill="none" stroke="black" points="102,-198.5 198,-198.5 "/>
<text text-anchor="middle" x="150" y="-186.5" font-family="Helvetica,sans-Serif" font-size="10.00"> </text>
<polyline fill="none" stroke="black" points="102,-179.5 198,-179.5 "/>
<text text-anchor="start" x="110" y="-167.5" font-family="Helvetica,sans-Serif" font-size="10.00">+ GUIState()</text>
</a>
</g>
</g>
<!-- Node3&#45;&gt;Node1 -->
<g id="edge2" class="edge"><title>Node3&#45;&gt;Node1</title>
<path fill="none" stroke="#404040" d="M150,-160.231C150,-149.497 150,-137.184 150,-124.898"/>
<polygon fill="none" stroke="#404040" points="150,-124.68 146,-118.68 150,-112.68 154,-118.68 150,-124.68"/>
<text text-anchor="middle" x="173" y="-134" font-family="Helvetica,sans-Serif" font-size="10.00"> +guiState</text>
</g>
<!-- Node4 -->
<g id="node4" class="node"><title>Node4</title>
<g id="a_node4"><a xlink:href="structo2_1_1quality__control_1_1core_1_1Chunk.html" target="_top" xlink:title="{o2::quality_control\l::core::Chunk\n||+ Chunk()\l}">
<polygon fill="none" stroke="black" points="0,-309.5 0,-377.5 96,-377.5 96,-309.5 0,-309.5"/>
<text text-anchor="start" x="8" y="-365.5" font-family="Helvetica,sans-Serif" font-size="10.00">o2::quality_control</text>
<text text-anchor="middle" x="48" y="-354.5" font-family="Helvetica,sans-Serif" font-size="10.00">::core::Chunk</text>
<polyline fill="none" stroke="black" points="0,-347.5 96,-347.5 "/>
<text text-anchor="middle" x="48" y="-335.5" font-family="Helvetica,sans-Serif" font-size="10.00"> </text>
<polyline fill="none" stroke="black" points="0,-328.5 96,-328.5 "/>
<text text-anchor="start" x="8" y="-316.5" font-family="Helvetica,sans-Serif" font-size="10.00">+ Chunk()</text>
</a>
</g>
</g>
<!-- Node4&#45;&gt;Node3 -->
<g id="edge3" class="edge"><title>Node4&#45;&gt;Node3</title>
<path fill="none" stroke="#404040" d="M48.1451,-309.448C49.7082,-289.784 54.3878,-265.203 67,-247 68.0679,-245.459 78.3067,-238.834 91.2514,-230.823"/>
<polygon fill="none" stroke="#404040" points="91.3441,-230.767 94.3647,-224.219 101.571,-224.488 98.5502,-231.036 91.3441,-230.767"/>
<text text-anchor="middle" x="106.5" y="-283" font-family="Helvetica,sans-Serif" font-size="10.00"> +current_payload</text>
<text text-anchor="middle" x="106.5" y="-272" font-family="Helvetica,sans-Serif" font-size="10.00">+next_header</text>
<text text-anchor="middle" x="106.5" y="-261" font-family="Helvetica,sans-Serif" font-size="10.00">+current_header</text>
<text text-anchor="middle" x="106.5" y="-250" font-family="Helvetica,sans-Serif" font-size="10.00">+next_payload</text>
</g>
<!-- Node5 -->
<g id="node5" class="node"><title>Node5</title>
<polygon fill="none" stroke="#bfbfbf" points="2.5,-425.5 2.5,-482.5 37.5,-482.5 37.5,-425.5 2.5,-425.5"/>
<text text-anchor="middle" x="20" y="-470.5" font-family="Helvetica,sans-Serif" font-size="10.00">char</text>
<polyline fill="none" stroke="#bfbfbf" points="2.5,-463.5 37.5,-463.5 "/>
<text text-anchor="middle" x="20" y="-451.5" font-family="Helvetica,sans-Serif" font-size="10.00"> </text>
<polyline fill="none" stroke="#bfbfbf" points="2.5,-444.5 37.5,-444.5 "/>
<text text-anchor="middle" x="20" y="-432.5" font-family="Helvetica,sans-Serif" font-size="10.00"> </text>
</g>
<!-- Node5&#45;&gt;Node4 -->
<g id="edge4" class="edge"><title>Node5&#45;&gt;Node4</title>
<path fill="none" stroke="#404040" d="M21.8948,-425.469C22.9355,-416.025 24.5383,-405.456 27,-396 27.593,-393.722 28.2634,-391.412 28.9912,-389.095"/>
<polygon fill="none" stroke="#404040" points="29.0554,-388.911 27.259,-381.927 33.0147,-377.583 34.811,-384.566 29.0554,-388.911"/>
<text text-anchor="middle" x="41" y="-399" font-family="Helvetica,sans-Serif" font-size="10.00"> +data</text>
</g>
<!-- Node6 -->
<g id="node6" class="node"><title>Node6</title>
<polygon fill="none" stroke="#bfbfbf" points="55.5,-425.5 55.5,-482.5 98.5,-482.5 98.5,-425.5 55.5,-425.5"/>
<text text-anchor="middle" x="77" y="-470.5" font-family="Helvetica,sans-Serif" font-size="10.00">size_t</text>
<polyline fill="none" stroke="#bfbfbf" points="55.5,-463.5 98.5,-463.5 "/>
<text text-anchor="middle" x="77" y="-451.5" font-family="Helvetica,sans-Serif" font-size="10.00"> </text>
<polyline fill="none" stroke="#bfbfbf" points="55.5,-444.5 98.5,-444.5 "/>
<text text-anchor="middle" x="77" y="-432.5" font-family="Helvetica,sans-Serif" font-size="10.00"> </text>
</g>
<!-- Node6&#45;&gt;Node4 -->
<g id="edge5" class="edge"><title>Node6&#45;&gt;Node4</title>
<path fill="none" stroke="#404040" d="M69.607,-425.34C66.6871,-414.416 63.2563,-401.58 59.9992,-389.393"/>
<polygon fill="none" stroke="#404040" points="59.9239,-389.112 54.5102,-384.348 56.8252,-377.519 62.2389,-382.282 59.9239,-389.112"/>
<text text-anchor="middle" x="79" y="-399" font-family="Helvetica,sans-Serif" font-size="10.00"> +size</text>
</g>
<!-- Node7 -->
<g id="node7" class="node"><title>Node7</title>
<polygon fill="none" stroke="#bfbfbf" points="129.5,-315 129.5,-372 170.5,-372 170.5,-315 129.5,-315"/>
<text text-anchor="middle" x="150" y="-360" font-family="Helvetica,sans-Serif" font-size="10.00">string</text>
<polyline fill="none" stroke="#bfbfbf" points="129.5,-353 170.5,-353 "/>
<text text-anchor="middle" x="150" y="-341" font-family="Helvetica,sans-Serif" font-size="10.00"> </text>
<polyline fill="none" stroke="#bfbfbf" points="129.5,-334 170.5,-334 "/>
<text text-anchor="middle" x="150" y="-322" font-family="Helvetica,sans-Serif" font-size="10.00"> </text>
</g>
<!-- Node7&#45;&gt;Node3 -->
<g id="edge6" class="edge"><title>Node7&#45;&gt;Node3</title>
<path fill="none" stroke="#404040" d="M150,-314.85C150,-294.028 150,-265.032 150,-240.835"/>
<polygon fill="none" stroke="#404040" points="150,-240.687 146,-234.687 150,-228.687 154,-234.687 150,-240.687"/>
<text text-anchor="middle" x="202.5" y="-272" font-family="Helvetica,sans-Serif" font-size="10.00"> +actionMessage</text>
<text text-anchor="middle" x="202.5" y="-261" font-family="Helvetica,sans-Serif" font-size="10.00">+dataAvailableMessage</text>
</g>
<!-- Node8 -->
<g id="node8" class="node"><title>Node8</title>
<polygon fill="none" stroke="#bfbfbf" points="260.5,-315 260.5,-372 295.5,-372 295.5,-315 260.5,-315"/>
<text text-anchor="middle" x="278" y="-360" font-family="Helvetica,sans-Serif" font-size="10.00">bool</text>
<polyline fill="none" stroke="#bfbfbf" points="260.5,-353 295.5,-353 "/>
<text text-anchor="middle" x="278" y="-341" font-family="Helvetica,sans-Serif" font-size="10.00"> </text>
<polyline fill="none" stroke="#bfbfbf" points="260.5,-334 295.5,-334 "/>
<text text-anchor="middle" x="278" y="-322" font-family="Helvetica,sans-Serif" font-size="10.00"> </text>
</g>
<!-- Node8&#45;&gt;Node3 -->
<g id="edge7" class="edge"><title>Node8&#45;&gt;Node3</title>
<path fill="none" stroke="#404040" d="M278.38,-314.644C277.206,-293.685 272.315,-265.505 256,-247 242.755,-231.976 231.492,-236.869 209.497,-229.286"/>
<polygon fill="none" stroke="#404040" points="209.281,-229.197 202.208,-230.604 198.189,-224.616 205.262,-223.209 209.281,-229.197"/>
<text text-anchor="middle" x="320" y="-266.5" font-family="Helvetica,sans-Serif" font-size="10.00"> +newDataAvailable</text>
</g>
<!-- Node9 -->
<g id="node9" class="node"><title>Node9</title>
<polygon fill="none" stroke="#bfbfbf" points="216,-166 216,-223 284,-223 284,-166 216,-166"/>
<text text-anchor="middle" x="250" y="-211" font-family="Helvetica,sans-Serif" font-size="10.00">static void *</text>
<polyline fill="none" stroke="#bfbfbf" points="216,-204 284,-204 "/>
<text text-anchor="middle" x="250" y="-192" font-family="Helvetica,sans-Serif" font-size="10.00"> </text>
<polyline fill="none" stroke="#bfbfbf" points="216,-185 284,-185 "/>
<text text-anchor="middle" x="250" y="-173" font-family="Helvetica,sans-Serif" font-size="10.00"> </text>
</g>
<!-- Node9&#45;&gt;Node1 -->
<g id="edge8" class="edge"><title>Node9&#45;&gt;Node1</title>
<path fill="none" stroke="#404040" d="M229.764,-165.978C220.494,-153.372 209.079,-137.847 197.812,-122.524"/>
<polygon fill="none" stroke="#404040" points="197.562,-122.184 190.785,-119.72 190.453,-112.516 197.23,-114.981 197.562,-122.184"/>
<text text-anchor="middle" x="233.5" y="-134" font-family="Helvetica,sans-Serif" font-size="10.00"> +window</text>
</g>
</g>
</svg>
