<?xml version="1.0" encoding="UTF-8" standalone="no"?>
<!DOCTYPE svg PUBLIC "-//W3C//DTD SVG 1.1//EN"
 "http://www.w3.org/Graphics/SVG/1.1/DTD/svg11.dtd">
<!-- Generated by graphviz version 2.38.0 (20140413.2041)
 -->
<!-- Title: o2::quality_control_modules::tpc::ROCReductor Pages: 1 -->
<svg width="208pt" height="303pt"
 viewBox="0.00 0.00 207.50 303.00" xmlns="http://www.w3.org/2000/svg" xmlns:xlink="http://www.w3.org/1999/xlink">
<g id="graph0" class="graph" transform="scale(1 1) rotate(0) translate(4 299)">
<title>o2::quality_control_modules::tpc::ROCReductor</title>
<!-- Node1 -->
<g id="node1" class="node"><title>Node1</title>
<polygon fill="#bfbfbf" stroke="black" points="48,-0.5 48,-112.5 194,-112.5 194,-0.5 48,-0.5"/>
<text text-anchor="start" x="56" y="-100.5" font-family="Helvetica,sans-Serif" font-size="10.00">o2::quality_control</text>
<text text-anchor="middle" x="121" y="-89.5" font-family="Helvetica,sans-Serif" font-size="10.00">_modules::tpc::ROCReductor</text>
<polyline fill="none" stroke="black" points="48,-82.5 194,-82.5 "/>
<text text-anchor="middle" x="121" y="-70.5" font-family="Helvetica,sans-Serif" font-size="10.00"> </text>
<polyline fill="none" stroke="black" points="48,-63.5 194,-63.5 "/>
<text text-anchor="start" x="56" y="-51.5" font-family="Helvetica,sans-Serif" font-size="10.00">+ ROCReductor()</text>
<text text-anchor="start" x="56" y="-40.5" font-family="Helvetica,sans-Serif" font-size="10.00">+ ~ROCReductor()</text>
<text text-anchor="start" x="56" y="-29.5" font-family="Helvetica,sans-Serif" font-size="10.00">+ getBranchAddress()</text>
<text text-anchor="start" x="56" y="-18.5" font-family="Helvetica,sans-Serif" font-size="10.00">+ getBranchLeafList()</text>
<text text-anchor="start" x="56" y="-7.5" font-family="Helvetica,sans-Serif" font-size="10.00">+ update()</text>
</g>
<!-- Node2 -->
<g id="node2" class="node"><title>Node2</title>
<g id="a_node2"><a xlink:href="classo2_1_1quality__control_1_1postprocessing_1_1Reductor.html" target="_top" xlink:title="An interface for storing data derived from QC objects into a TTree. ">
<polygon fill="none" stroke="black" points="0,-182.5 0,-294.5 134,-294.5 134,-182.5 0,-182.5"/>
<text text-anchor="start" x="8" y="-282.5" font-family="Helvetica,sans-Serif" font-size="10.00">o2::quality_control</text>
<text text-anchor="middle" x="67" y="-271.5" font-family="Helvetica,sans-Serif" font-size="10.00">::postprocessing::Reductor</text>
<polyline fill="none" stroke="black" points="0,-264.5 134,-264.5 "/>
<text text-anchor="middle" x="67" y="-252.5" font-family="Helvetica,sans-Serif" font-size="10.00"> </text>
<polyline fill="none" stroke="black" points="0,-245.5 134,-245.5 "/>
<text text-anchor="start" x="8" y="-233.5" font-family="Helvetica,sans-Serif" font-size="10.00">+ Reductor()</text>
<text text-anchor="start" x="8" y="-222.5" font-family="Helvetica,sans-Serif" font-size="10.00">+ ~Reductor()</text>
<text text-anchor="start" x="8" y="-211.5" font-family="Helvetica,sans-Serif" font-size="10.00">+ getBranchAddress()</text>
<text text-anchor="start" x="8" y="-200.5" font-family="Helvetica,sans-Serif" font-size="10.00">+ getBranchLeafList()</text>
<text text-anchor="start" x="8" y="-189.5" font-family="Helvetica,sans-Serif" font-size="10.00">+ update()</text>
</a>
</g>
</g>
<!-- Node2&#45;&gt;Node1 -->
<g id="edge1" class="edge"><title>Node2&#45;&gt;Node1</title>
<path fill="none" stroke="midnightblue" d="M86.5595,-172.302C92.4121,-152.793 98.7705,-131.598 104.413,-112.792"/>
<polygon fill="none" stroke="midnightblue" points="83.1636,-171.441 83.6424,-182.025 89.8683,-173.453 83.1636,-171.441"/>
</g>
<!-- Node3 -->
<g id="node3" class="node"><title>Node3</title>
<polygon fill="none" stroke="#bfbfbf" points="152.5,-210 152.5,-267 199.5,-267 199.5,-210 152.5,-210"/>
<text text-anchor="middle" x="176" y="-255" font-family="Helvetica,sans-Serif" font-size="10.00">Float_t</text>
<polyline fill="none" stroke="#bfbfbf" points="152.5,-248 199.5,-248 "/>
<text text-anchor="middle" x="176" y="-236" font-family="Helvetica,sans-Serif" font-size="10.00"> </text>
<polyline fill="none" stroke="#bfbfbf" points="152.5,-229 199.5,-229 "/>
<text text-anchor="middle" x="176" y="-217" font-family="Helvetica,sans-Serif" font-size="10.00"> </text>
</g>
<!-- Node3&#45;&gt;Node1 -->
<g id="edge2" class="edge"><title>Node3&#45;&gt;Node1</title>
<path fill="none" stroke="#404040" d="M167.527,-209.769C160.584,-187.047 150.467,-153.938 141.439,-124.392"/>
<polygon fill="none" stroke="#404040" points="141.418,-124.323 135.84,-119.754 137.912,-112.847 143.49,-117.416 141.418,-124.323"/>
<text text-anchor="middle" x="174.5" y="-156" font-family="Helvetica,sans-Serif" font-size="10.00"> +median</text>
<text text-anchor="middle" x="174.5" y="-145" font-family="Helvetica,sans-Serif" font-size="10.00">+stddev</text>
<text text-anchor="middle" x="174.5" y="-134" font-family="Helvetica,sans-Serif" font-size="10.00">+mean</text>
</g>
</g>
</svg>
