<?xml version="1.0" encoding="UTF-8" standalone="no"?>
<!DOCTYPE svg PUBLIC "-//W3C//DTD SVG 1.1//EN"
 "http://www.w3.org/Graphics/SVG/1.1/DTD/svg11.dtd">
<!-- Generated by graphviz version 2.38.0 (20140413.2041)
 -->
<!-- Title: o2::quality_control::core::Activity Pages: 1 -->
<svg width="104pt" height="259pt"
 viewBox="0.00 0.00 104.00 259.00" xmlns="http://www.w3.org/2000/svg" xmlns:xlink="http://www.w3.org/1999/xlink">
<g id="graph0" class="graph" transform="scale(1 1) rotate(0) translate(4 255)">
<title>o2::quality_control::core::Activity</title>
<!-- Node1 -->
<g id="node1" class="node"><title>Node1</title>
<polygon fill="#bfbfbf" stroke="black" points="0,-0.5 0,-134.5 96,-134.5 96,-0.5 0,-0.5"/>
<text text-anchor="start" x="8" y="-122.5" font-family="Helvetica,sans-Serif" font-size="10.00">o2::quality_control</text>
<text text-anchor="middle" x="48" y="-111.5" font-family="Helvetica,sans-Serif" font-size="10.00">::core::Activity</text>
<polyline fill="none" stroke="black" points="0,-104.5 96,-104.5 "/>
<text text-anchor="middle" x="48" y="-92.5" font-family="Helvetica,sans-Serif" font-size="10.00"> </text>
<polyline fill="none" stroke="black" points="0,-85.5 96,-85.5 "/>
<text text-anchor="start" x="8" y="-73.5" font-family="Helvetica,sans-Serif" font-size="10.00">+ Activity()</text>
<text text-anchor="start" x="8" y="-62.5" font-family="Helvetica,sans-Serif" font-size="10.00">+ Activity()</text>
<text text-anchor="start" x="8" y="-51.5" font-family="Helvetica,sans-Serif" font-size="10.00">+ Activity()</text>
<text text-anchor="start" x="8" y="-40.5" font-family="Helvetica,sans-Serif" font-size="10.00">+ Activity()</text>
<text text-anchor="start" x="8" y="-29.5" font-family="Helvetica,sans-Serif" font-size="10.00">+ operator=()</text>
<text text-anchor="start" x="8" y="-18.5" font-family="Helvetica,sans-Serif" font-size="10.00">+ operator=()</text>
<text text-anchor="start" x="8" y="-7.5" font-family="Helvetica,sans-Serif" font-size="10.00">+ ~Activity()</text>
</g>
<!-- Node2 -->
<g id="node2" class="node"><title>Node2</title>
<polygon fill="none" stroke="#bfbfbf" points="33.5,-193.5 33.5,-250.5 62.5,-250.5 62.5,-193.5 33.5,-193.5"/>
<text text-anchor="middle" x="48" y="-238.5" font-family="Helvetica,sans-Serif" font-size="10.00">int</text>
<polyline fill="none" stroke="#bfbfbf" points="33.5,-231.5 62.5,-231.5 "/>
<text text-anchor="middle" x="48" y="-219.5" font-family="Helvetica,sans-Serif" font-size="10.00"> </text>
<polyline fill="none" stroke="#bfbfbf" points="33.5,-212.5 62.5,-212.5 "/>
<text text-anchor="middle" x="48" y="-200.5" font-family="Helvetica,sans-Serif" font-size="10.00"> </text>
</g>
<!-- Node2&#45;&gt;Node1 -->
<g id="edge1" class="edge"><title>Node2&#45;&gt;Node1</title>
<path fill="none" stroke="#404040" d="M48,-193.383C48,-180.122 48,-163.493 48,-146.735"/>
<polygon fill="none" stroke="#404040" points="48.0001,-146.557 44,-140.557 48,-134.557 52,-140.557 48.0001,-146.557"/>
<text text-anchor="middle" x="68" y="-167" font-family="Helvetica,sans-Serif" font-size="10.00"> +mType</text>
<text text-anchor="middle" x="68" y="-156" font-family="Helvetica,sans-Serif" font-size="10.00">+mId</text>
</g>
</g>
</svg>
