<?xml version="1.0" encoding="UTF-8" standalone="no"?>
<!DOCTYPE svg PUBLIC "-//W3C//DTD SVG 1.1//EN"
 "http://www.w3.org/Graphics/SVG/1.1/DTD/svg11.dtd">
<!-- Generated by graphviz version 2.38.0 (20140413.2041)
 -->
<!-- Title: o2::quality_control_modules::skeleton::SkeletonCheck Pages: 1 -->
<svg width="175pt" height="464pt"
 viewBox="0.00 0.00 175.00 464.00" xmlns="http://www.w3.org/2000/svg" xmlns:xlink="http://www.w3.org/1999/xlink">
<g id="graph0" class="graph" transform="scale(1 1) rotate(0) translate(4 460)">
<title>o2::quality_control_modules::skeleton::SkeletonCheck</title>
<!-- Node1 -->
<g id="node1" class="node"><title>Node1</title>
<polygon fill="#bfbfbf" stroke="black" points="10,-0.5 10,-145.5 120,-145.5 120,-0.5 10,-0.5"/>
<text text-anchor="start" x="18" y="-133.5" font-family="Helvetica,sans-Serif" font-size="10.00">o2::quality_control</text>
<text text-anchor="start" x="18" y="-122.5" font-family="Helvetica,sans-Serif" font-size="10.00">_modules::skeleton::</text>
<text text-anchor="middle" x="65" y="-111.5" font-family="Helvetica,sans-Serif" font-size="10.00">SkeletonCheck</text>
<polyline fill="none" stroke="black" points="10,-104.5 120,-104.5 "/>
<text text-anchor="middle" x="65" y="-92.5" font-family="Helvetica,sans-Serif" font-size="10.00"> </text>
<polyline fill="none" stroke="black" points="10,-85.5 120,-85.5 "/>
<text text-anchor="start" x="18" y="-73.5" font-family="Helvetica,sans-Serif" font-size="10.00">+ SkeletonCheck()</text>
<text text-anchor="start" x="18" y="-62.5" font-family="Helvetica,sans-Serif" font-size="10.00">+ ~SkeletonCheck()</text>
<text text-anchor="start" x="18" y="-51.5" font-family="Helvetica,sans-Serif" font-size="10.00">+ configure()</text>
<text text-anchor="start" x="18" y="-40.5" font-family="Helvetica,sans-Serif" font-size="10.00">+ check()</text>
<text text-anchor="start" x="18" y="-29.5" font-family="Helvetica,sans-Serif" font-size="10.00">+ beautify()</text>
<text text-anchor="start" x="18" y="-18.5" font-family="Helvetica,sans-Serif" font-size="10.00">+ getAcceptedType()</text>
<text text-anchor="start" x="18" y="-7.5" font-family="Helvetica,sans-Serif" font-size="10.00">+ ClassDefOverride()</text>
</g>
<!-- Node2 -->
<g id="node2" class="node"><title>Node2</title>
<g id="a_node2"><a xlink:href="classo2_1_1quality__control_1_1checker_1_1CheckInterface.html" target="_top" xlink:title="Skeleton of a check. ">
<polygon fill="none" stroke="black" points="0,-183.5 0,-339.5 130,-339.5 130,-183.5 0,-183.5"/>
<text text-anchor="start" x="8" y="-327.5" font-family="Helvetica,sans-Serif" font-size="10.00">o2::quality_control</text>
<text text-anchor="middle" x="65" y="-316.5" font-family="Helvetica,sans-Serif" font-size="10.00">::checker::CheckInterface</text>
<polyline fill="none" stroke="black" points="0,-309.5 130,-309.5 "/>
<text text-anchor="middle" x="65" y="-297.5" font-family="Helvetica,sans-Serif" font-size="10.00"> </text>
<polyline fill="none" stroke="black" points="0,-290.5 130,-290.5 "/>
<text text-anchor="start" x="8" y="-278.5" font-family="Helvetica,sans-Serif" font-size="10.00">+ CheckInterface()</text>
<text text-anchor="start" x="8" y="-267.5" font-family="Helvetica,sans-Serif" font-size="10.00">+ ~CheckInterface()</text>
<text text-anchor="start" x="8" y="-256.5" font-family="Helvetica,sans-Serif" font-size="10.00">+ configure()</text>
<text text-anchor="start" x="8" y="-245.5" font-family="Helvetica,sans-Serif" font-size="10.00">+ check()</text>
<text text-anchor="start" x="8" y="-234.5" font-family="Helvetica,sans-Serif" font-size="10.00">+ beautify()</text>
<text text-anchor="start" x="8" y="-223.5" font-family="Helvetica,sans-Serif" font-size="10.00">+ getAcceptedType()</text>
<text text-anchor="start" x="8" y="-212.5" font-family="Helvetica,sans-Serif" font-size="10.00">+ isObjectCheckable()</text>
<text text-anchor="start" x="8" y="-201.5" font-family="Helvetica,sans-Serif" font-size="10.00">+ isObjectCheckable()</text>
<text text-anchor="start" x="8" y="-190.5" font-family="Helvetica,sans-Serif" font-size="10.00">+ setCustomParameters()</text>
</a>
</g>
</g>
<!-- Node2&#45;&gt;Node1 -->
<g id="edge1" class="edge"><title>Node2&#45;&gt;Node1</title>
<path fill="none" stroke="midnightblue" d="M65,-173.035C65,-163.901 65,-154.692 65,-145.762"/>
<polygon fill="none" stroke="midnightblue" points="61.5001,-173.297 65,-183.297 68.5001,-173.297 61.5001,-173.297"/>
</g>
<!-- Node3 -->
<g id="node3" class="node"><title>Node3</title>
<polygon fill="none" stroke="#bfbfbf" points="12,-387.5 12,-455.5 118,-455.5 118,-387.5 12,-387.5"/>
<text text-anchor="start" x="20" y="-443.5" font-family="Helvetica,sans-Serif" font-size="10.00">unordered_map&lt; std</text>
<text text-anchor="middle" x="65" y="-432.5" font-family="Helvetica,sans-Serif" font-size="10.00">::string, std::string &gt;</text>
<polyline fill="none" stroke="#bfbfbf" points="12,-425.5 118,-425.5 "/>
<text text-anchor="middle" x="65" y="-413.5" font-family="Helvetica,sans-Serif" font-size="10.00"> </text>
<polyline fill="none" stroke="#bfbfbf" points="12,-406.5 118,-406.5 "/>
<text text-anchor="middle" x="65" y="-394.5" font-family="Helvetica,sans-Serif" font-size="10.00"> </text>
</g>
<!-- Node3&#45;&gt;Node2 -->
<g id="edge2" class="edge"><title>Node3&#45;&gt;Node2</title>
<path fill="none" stroke="#404040" d="M65,-387.378C65,-376.749 65,-364.424 65,-351.742"/>
<polygon fill="none" stroke="#404040" points="65.0001,-351.516 61,-345.516 65,-339.516 69,-345.516 65.0001,-351.516"/>
<text text-anchor="middle" x="116" y="-361" font-family="Helvetica,sans-Serif" font-size="10.00"> #mCustomParameters</text>
</g>
</g>
</svg>
