<?xml version="1.0" encoding="UTF-8" standalone="no"?>
<!DOCTYPE svg PUBLIC "-//W3C//DTD SVG 1.1//EN"
 "http://www.w3.org/Graphics/SVG/1.1/DTD/svg11.dtd">
<!-- Generated by graphviz version 2.38.0 (20140413.2041)
 -->
<!-- Title: o2::quality_control_modules::tof::CheckCompressedData Pages: 1 -->
<svg width="204pt" height="442pt"
 viewBox="0.00 0.00 203.50 442.00" xmlns="http://www.w3.org/2000/svg" xmlns:xlink="http://www.w3.org/1999/xlink">
<g id="graph0" class="graph" transform="scale(1 1) rotate(0) translate(4 438)">
<title>o2::quality_control_modules::tof::CheckCompressedData</title>
<!-- Node1 -->
<g id="node1" class="node"><title>Node1</title>
<polygon fill="#bfbfbf" stroke="black" points="-1.42109e-14,-0.5 -1.42109e-14,-123.5 187,-123.5 187,-0.5 -1.42109e-14,-0.5"/>
<text text-anchor="start" x="8" y="-111.5" font-family="Helvetica,sans-Serif" font-size="10.00">o2::quality_control</text>
<text text-anchor="middle" x="93.5" y="-100.5" font-family="Helvetica,sans-Serif" font-size="10.00">_modules::tof::CheckCompressedData</text>
<polyline fill="none" stroke="black" points="-1.42109e-14,-93.5 187,-93.5 "/>
<text text-anchor="middle" x="93.5" y="-81.5" font-family="Helvetica,sans-Serif" font-size="10.00"> </text>
<polyline fill="none" stroke="black" points="-1.42109e-14,-74.5 187,-74.5 "/>
<text text-anchor="start" x="8" y="-62.5" font-family="Helvetica,sans-Serif" font-size="10.00">+ CheckCompressedData()</text>
<text text-anchor="start" x="8" y="-51.5" font-family="Helvetica,sans-Serif" font-size="10.00">+ ~CheckCompressedData()</text>
<text text-anchor="start" x="8" y="-40.5" font-family="Helvetica,sans-Serif" font-size="10.00">+ configure()</text>
<text text-anchor="start" x="8" y="-29.5" font-family="Helvetica,sans-Serif" font-size="10.00">+ check()</text>
<text text-anchor="start" x="8" y="-18.5" font-family="Helvetica,sans-Serif" font-size="10.00">+ beautify()</text>
<text text-anchor="start" x="8" y="-7.5" font-family="Helvetica,sans-Serif" font-size="10.00">+ getAcceptedType()</text>
</g>
<!-- Node2 -->
<g id="node2" class="node"><title>Node2</title>
<g id="a_node2"><a xlink:href="classo2_1_1quality__control_1_1checker_1_1CheckInterface.html" target="_top" xlink:title="Skeleton of a check. ">
<polygon fill="none" stroke="black" points="28.5,-161.5 28.5,-317.5 158.5,-317.5 158.5,-161.5 28.5,-161.5"/>
<text text-anchor="start" x="36.5" y="-305.5" font-family="Helvetica,sans-Serif" font-size="10.00">o2::quality_control</text>
<text text-anchor="middle" x="93.5" y="-294.5" font-family="Helvetica,sans-Serif" font-size="10.00">::checker::CheckInterface</text>
<polyline fill="none" stroke="black" points="28.5,-287.5 158.5,-287.5 "/>
<text text-anchor="middle" x="93.5" y="-275.5" font-family="Helvetica,sans-Serif" font-size="10.00"> </text>
<polyline fill="none" stroke="black" points="28.5,-268.5 158.5,-268.5 "/>
<text text-anchor="start" x="36.5" y="-256.5" font-family="Helvetica,sans-Serif" font-size="10.00">+ CheckInterface()</text>
<text text-anchor="start" x="36.5" y="-245.5" font-family="Helvetica,sans-Serif" font-size="10.00">+ ~CheckInterface()</text>
<text text-anchor="start" x="36.5" y="-234.5" font-family="Helvetica,sans-Serif" font-size="10.00">+ configure()</text>
<text text-anchor="start" x="36.5" y="-223.5" font-family="Helvetica,sans-Serif" font-size="10.00">+ check()</text>
<text text-anchor="start" x="36.5" y="-212.5" font-family="Helvetica,sans-Serif" font-size="10.00">+ beautify()</text>
<text text-anchor="start" x="36.5" y="-201.5" font-family="Helvetica,sans-Serif" font-size="10.00">+ getAcceptedType()</text>
<text text-anchor="start" x="36.5" y="-190.5" font-family="Helvetica,sans-Serif" font-size="10.00">+ isObjectCheckable()</text>
<text text-anchor="start" x="36.5" y="-179.5" font-family="Helvetica,sans-Serif" font-size="10.00">+ isObjectCheckable()</text>
<text text-anchor="start" x="36.5" y="-168.5" font-family="Helvetica,sans-Serif" font-size="10.00">+ setCustomParameters()</text>
</a>
</g>
</g>
<!-- Node2&#45;&gt;Node1 -->
<g id="edge1" class="edge"><title>Node2&#45;&gt;Node1</title>
<path fill="none" stroke="midnightblue" d="M93.5,-151.186C93.5,-141.874 93.5,-132.556 93.5,-123.65"/>
<polygon fill="none" stroke="midnightblue" points="90.0001,-151.268 93.5,-161.268 97.0001,-151.268 90.0001,-151.268"/>
</g>
<!-- Node3 -->
<g id="node3" class="node"><title>Node3</title>
<polygon fill="none" stroke="#bfbfbf" points="40.5,-365.5 40.5,-433.5 146.5,-433.5 146.5,-365.5 40.5,-365.5"/>
<text text-anchor="start" x="48.5" y="-421.5" font-family="Helvetica,sans-Serif" font-size="10.00">unordered_map&lt; std</text>
<text text-anchor="middle" x="93.5" y="-410.5" font-family="Helvetica,sans-Serif" font-size="10.00">::string, std::string &gt;</text>
<polyline fill="none" stroke="#bfbfbf" points="40.5,-403.5 146.5,-403.5 "/>
<text text-anchor="middle" x="93.5" y="-391.5" font-family="Helvetica,sans-Serif" font-size="10.00"> </text>
<polyline fill="none" stroke="#bfbfbf" points="40.5,-384.5 146.5,-384.5 "/>
<text text-anchor="middle" x="93.5" y="-372.5" font-family="Helvetica,sans-Serif" font-size="10.00"> </text>
</g>
<!-- Node3&#45;&gt;Node2 -->
<g id="edge2" class="edge"><title>Node3&#45;&gt;Node2</title>
<path fill="none" stroke="#404040" d="M93.5,-365.378C93.5,-354.749 93.5,-342.424 93.5,-329.742"/>
<polygon fill="none" stroke="#404040" points="93.5001,-329.516 89.5,-323.516 93.5,-317.516 97.5,-323.516 93.5001,-329.516"/>
<text text-anchor="middle" x="144.5" y="-339" font-family="Helvetica,sans-Serif" font-size="10.00"> #mCustomParameters</text>
</g>
</g>
</svg>
