<?xml version="1.0" encoding="UTF-8" standalone="no"?>
<!DOCTYPE svg PUBLIC "-//W3C//DTD SVG 1.1//EN"
 "http://www.w3.org/Graphics/SVG/1.1/DTD/svg11.dtd">
<!-- Generated by graphviz version 2.38.0 (20140413.2041)
 -->
<!-- Title: o2::quality_control_modules::muonchambers::TH1MCHReductor Pages: 1 -->
<!--zoomable 952 -->
<svg id="main" version="1.1" xmlns="http://www.w3.org/2000/svg" xmlns:xlink="http://www.w3.org/1999/xlink" xml:space="preserve" onload="init(evt)">
<style type="text/css"><![CDATA[
.edge:hover path { stroke: red; }
.edge:hover polygon { stroke: red; fill: red; }
]]></style>
<script type="text/javascript"><![CDATA[
var edges = document.getElementsByTagName('g');
if (edges && edges.length) {
  for (var i=0;i<edges.length;i++) {
    if (edges[i].id.substr(0,4)=='edge') {
      edges[i].setAttribute('class','edge');
    }
  }
}
]]></script>
        <defs>
                <circle id="rim" cx="0" cy="0" r="7"/>
                <circle id="rim2" cx="0" cy="0" r="3.5"/>
                <g id="zoomPlus">
                        <use xlink:href="#rim" fill="#404040">
                                <set attributeName="fill" to="#808080" begin="zoomplus.mouseover" end="zoomplus.mouseout"/>
                        </use>
                        <path d="M-4,0h8M0,-4v8" fill="none" stroke="white" stroke-width="1.5" pointer-events="none"/>
                </g>
                <g id="zoomMin">
                        <use xlink:href="#rim" fill="#404040">
                                <set attributeName="fill" to="#808080" begin="zoomminus.mouseover" end="zoomminus.mouseout"/>
                        </use>
                        <path d="M-4,0h8" fill="none" stroke="white" stroke-width="1.5" pointer-events="none"/>
                </g>
                <g id="dirArrow">
                        <path fill="none" stroke="white" stroke-width="1.5" d="M0,-3.0v7 M-2.5,-0.5L0,-3.0L2.5,-0.5"/>
                </g>
               <g id="resetDef">
                       <use xlink:href="#rim2" fill="#404040">
                               <set attributeName="fill" to="#808080" begin="reset.mouseover" end="reset.mouseout"/>
                       </use>
               </g>
        </defs>

<script type="text/javascript">
var viewWidth = 632;
var viewHeight = 952;
var sectionId = 'dynsection-1';
</script>
<script xlink:href="svgpan.js"/>
<svg id="graph" class="graph">
<g id="viewport">
<title>o2::quality_control_modules::muonchambers::TH1MCHReductor</title>
<!-- Node1 -->
<g id="node1" class="node"><title>Node1</title>
<polygon fill="#bfbfbf" stroke="black" points="281.5,-0.5 281.5,-673.5 412.5,-673.5 412.5,-0.5 281.5,-0.5"/>
<text text-anchor="start" x="289.5" y="-661.5" font-family="Helvetica,sans-Serif" font-size="10.00">o2::quality_control</text>
<text text-anchor="start" x="289.5" y="-650.5" font-family="Helvetica,sans-Serif" font-size="10.00">_modules::muonchambers</text>
<text text-anchor="middle" x="347" y="-639.5" font-family="Helvetica,sans-Serif" font-size="10.00">::TH1MCHReductor</text>
<polyline fill="none" stroke="black" points="281.5,-632.5 412.5,-632.5 "/>
<text text-anchor="start" x="289.5" y="-620.5" font-family="Helvetica,sans-Serif" font-size="10.00">+ val500</text>
<text text-anchor="start" x="289.5" y="-609.5" font-family="Helvetica,sans-Serif" font-size="10.00">+ val501</text>
<text text-anchor="start" x="289.5" y="-598.5" font-family="Helvetica,sans-Serif" font-size="10.00">+ val502</text>
<text text-anchor="start" x="289.5" y="-587.5" font-family="Helvetica,sans-Serif" font-size="10.00">+ val503</text>
<text text-anchor="start" x="289.5" y="-576.5" font-family="Helvetica,sans-Serif" font-size="10.00">+ val504</text>
<text text-anchor="start" x="289.5" y="-565.5" font-family="Helvetica,sans-Serif" font-size="10.00">+ val505</text>
<text text-anchor="start" x="289.5" y="-554.5" font-family="Helvetica,sans-Serif" font-size="10.00">+ val506</text>
<text text-anchor="start" x="289.5" y="-543.5" font-family="Helvetica,sans-Serif" font-size="10.00">+ val507</text>
<text text-anchor="start" x="289.5" y="-532.5" font-family="Helvetica,sans-Serif" font-size="10.00">+ val508</text>
<text text-anchor="start" x="289.5" y="-521.5" font-family="Helvetica,sans-Serif" font-size="10.00">+ val509</text>
<text text-anchor="start" x="289.5" y="-510.5" font-family="Helvetica,sans-Serif" font-size="10.00">+ val511</text>
<text text-anchor="start" x="289.5" y="-499.5" font-family="Helvetica,sans-Serif" font-size="10.00">+ val512</text>
<text text-anchor="start" x="289.5" y="-488.5" font-family="Helvetica,sans-Serif" font-size="10.00">+ val513</text>
<text text-anchor="start" x="289.5" y="-477.5" font-family="Helvetica,sans-Serif" font-size="10.00">+ val514</text>
<text text-anchor="start" x="289.5" y="-466.5" font-family="Helvetica,sans-Serif" font-size="10.00">+ val515</text>
<text text-anchor="start" x="289.5" y="-455.5" font-family="Helvetica,sans-Serif" font-size="10.00">+ val516</text>
<text text-anchor="start" x="289.5" y="-444.5" font-family="Helvetica,sans-Serif" font-size="10.00">+ val517</text>
<text text-anchor="start" x="289.5" y="-433.5" font-family="Helvetica,sans-Serif" font-size="10.00">+ val600</text>
<text text-anchor="start" x="289.5" y="-422.5" font-family="Helvetica,sans-Serif" font-size="10.00">+ val601</text>
<text text-anchor="start" x="289.5" y="-411.5" font-family="Helvetica,sans-Serif" font-size="10.00">+ val602</text>
<text text-anchor="start" x="289.5" y="-400.5" font-family="Helvetica,sans-Serif" font-size="10.00">+ val603</text>
<text text-anchor="start" x="289.5" y="-389.5" font-family="Helvetica,sans-Serif" font-size="10.00">+ val604</text>
<text text-anchor="start" x="289.5" y="-378.5" font-family="Helvetica,sans-Serif" font-size="10.00">+ val605</text>
<text text-anchor="start" x="289.5" y="-367.5" font-family="Helvetica,sans-Serif" font-size="10.00">+ val606</text>
<text text-anchor="start" x="289.5" y="-356.5" font-family="Helvetica,sans-Serif" font-size="10.00">+ val607</text>
<text text-anchor="start" x="289.5" y="-345.5" font-family="Helvetica,sans-Serif" font-size="10.00">+ val608</text>
<text text-anchor="start" x="289.5" y="-334.5" font-family="Helvetica,sans-Serif" font-size="10.00">+ val610</text>
<text text-anchor="start" x="289.5" y="-323.5" font-family="Helvetica,sans-Serif" font-size="10.00">+ val611</text>
<text text-anchor="start" x="289.5" y="-312.5" font-family="Helvetica,sans-Serif" font-size="10.00">+ val612</text>
<text text-anchor="start" x="289.5" y="-301.5" font-family="Helvetica,sans-Serif" font-size="10.00">+ val613</text>
<text text-anchor="start" x="289.5" y="-290.5" font-family="Helvetica,sans-Serif" font-size="10.00">+ val614</text>
<text text-anchor="start" x="289.5" y="-279.5" font-family="Helvetica,sans-Serif" font-size="10.00">+ val615</text>
<text text-anchor="start" x="289.5" y="-268.5" font-family="Helvetica,sans-Serif" font-size="10.00">+ val616</text>
<text text-anchor="start" x="289.5" y="-257.5" font-family="Helvetica,sans-Serif" font-size="10.00">+ val617</text>
<text text-anchor="start" x="289.5" y="-246.5" font-family="Helvetica,sans-Serif" font-size="10.00">+ val700</text>
<text text-anchor="start" x="289.5" y="-235.5" font-family="Helvetica,sans-Serif" font-size="10.00">+ val701</text>
<text text-anchor="start" x="289.5" y="-224.5" font-family="Helvetica,sans-Serif" font-size="10.00">+ val702</text>
<text text-anchor="start" x="289.5" y="-213.5" font-family="Helvetica,sans-Serif" font-size="10.00">+ val703</text>
<text text-anchor="start" x="289.5" y="-202.5" font-family="Helvetica,sans-Serif" font-size="10.00">+ val704</text>
<text text-anchor="start" x="289.5" y="-191.5" font-family="Helvetica,sans-Serif" font-size="10.00">+ val705</text>
<text text-anchor="start" x="289.5" y="-180.5" font-family="Helvetica,sans-Serif" font-size="10.00">+ val706</text>
<text text-anchor="start" x="289.5" y="-169.5" font-family="Helvetica,sans-Serif" font-size="10.00">+ val707</text>
<text text-anchor="start" x="289.5" y="-158.5" font-family="Helvetica,sans-Serif" font-size="10.00">+ val709</text>
<text text-anchor="start" x="289.5" y="-147.5" font-family="Helvetica,sans-Serif" font-size="10.00">+ val710</text>
<text text-anchor="start" x="289.5" y="-136.5" font-family="Helvetica,sans-Serif" font-size="10.00">+ val711</text>
<text text-anchor="start" x="289.5" y="-125.5" font-family="Helvetica,sans-Serif" font-size="10.00">+ val712</text>
<text text-anchor="start" x="289.5" y="-114.5" font-family="Helvetica,sans-Serif" font-size="10.00">+ val713</text>
<text text-anchor="start" x="289.5" y="-103.5" font-family="Helvetica,sans-Serif" font-size="10.00">+ val714</text>
<text text-anchor="start" x="289.5" y="-92.5" font-family="Helvetica,sans-Serif" font-size="10.00">+ val715</text>
<text text-anchor="start" x="289.5" y="-81.5" font-family="Helvetica,sans-Serif" font-size="10.00">+ val716</text>
<text text-anchor="start" x="289.5" y="-70.5" font-family="Helvetica,sans-Serif" font-size="10.00">and 94 more...</text>
<polyline fill="none" stroke="black" points="281.5,-63.5 412.5,-63.5 "/>
<text text-anchor="start" x="289.5" y="-51.5" font-family="Helvetica,sans-Serif" font-size="10.00">+ TH1MCHReductor()</text>
<text text-anchor="start" x="289.5" y="-40.5" font-family="Helvetica,sans-Serif" font-size="10.00">+ ~TH1MCHReductor()</text>
<text text-anchor="start" x="289.5" y="-29.5" font-family="Helvetica,sans-Serif" font-size="10.00">+ getBranchAddress()</text>
<text text-anchor="start" x="289.5" y="-18.5" font-family="Helvetica,sans-Serif" font-size="10.00">+ getBranchLeafList()</text>
<text text-anchor="start" x="289.5" y="-7.5" font-family="Helvetica,sans-Serif" font-size="10.00">+ update()</text>
</g>
<!-- Node2 -->
<g id="node2" class="node"><title>Node2</title>
<g id="a_node2"><a xlink:href="classo2_1_1quality__control_1_1postprocessing_1_1Reductor.html" target="_top" xlink:title="An interface for storing data derived from QC objects into a TTree. ">
<polygon fill="none" stroke="black" points="0,-831.5 0,-943.5 134,-943.5 134,-831.5 0,-831.5"/>
<text text-anchor="start" x="8" y="-931.5" font-family="Helvetica,sans-Serif" font-size="10.00">o2::quality_control</text>
<text text-anchor="middle" x="67" y="-920.5" font-family="Helvetica,sans-Serif" font-size="10.00">::postprocessing::Reductor</text>
<polyline fill="none" stroke="black" points="0,-913.5 134,-913.5 "/>
<text text-anchor="middle" x="67" y="-901.5" font-family="Helvetica,sans-Serif" font-size="10.00"> </text>
<polyline fill="none" stroke="black" points="0,-894.5 134,-894.5 "/>
<text text-anchor="start" x="8" y="-882.5" font-family="Helvetica,sans-Serif" font-size="10.00">+ Reductor()</text>
<text text-anchor="start" x="8" y="-871.5" font-family="Helvetica,sans-Serif" font-size="10.00">+ ~Reductor()</text>
<text text-anchor="start" x="8" y="-860.5" font-family="Helvetica,sans-Serif" font-size="10.00">+ getBranchAddress()</text>
<text text-anchor="start" x="8" y="-849.5" font-family="Helvetica,sans-Serif" font-size="10.00">+ getBranchLeafList()</text>
<text text-anchor="start" x="8" y="-838.5" font-family="Helvetica,sans-Serif" font-size="10.00">+ update()</text>
</a>
</g>
</g>
<!-- Node2&#45;&gt;Node1 -->
<g id="edge1" class="edge"><title>Node2&#45;&gt;Node1</title>
<path fill="none" stroke="midnightblue" d="M99.7027,-822.438C144.074,-735.518 224.346,-578.271 281.393,-466.52"/>
<polygon fill="none" stroke="midnightblue" points="96.5589,-820.898 95.1295,-831.396 102.794,-824.081 96.5589,-820.898"/>
</g>
<!-- Node3 -->
<g id="node3" class="node"><title>Node3</title>
<polygon fill="none" stroke="#bfbfbf" points="152,-859 152,-916 272,-916 272,-859 152,-859"/>
<text text-anchor="middle" x="212" y="-904" font-family="Helvetica,sans-Serif" font-size="10.00">anonymous:+de_values</text>
<polyline fill="none" stroke="#bfbfbf" points="152,-897 272,-897 "/>
<text text-anchor="middle" x="212" y="-885" font-family="Helvetica,sans-Serif" font-size="10.00"> </text>
<polyline fill="none" stroke="#bfbfbf" points="152,-878 272,-878 "/>
<text text-anchor="middle" x="212" y="-866" font-family="Helvetica,sans-Serif" font-size="10.00"> </text>
</g>
<!-- Node3&#45;&gt;Node1 -->
<g id="edge2" class="edge"><title>Node3&#45;&gt;Node1</title>
<path fill="none" stroke="#404040" d="M216.504,-858.972C222.858,-821.151 235.226,-751.084 249,-692 257.791,-654.291 267.925,-614.555 278.27,-575.875"/>
<polygon fill="none" stroke="#404040" points="278.371,-575.498 276.066,-568.665 281.486,-563.909 283.791,-570.741 278.371,-575.498"/>
<text text-anchor="middle" x="276" y="-750" font-family="Helvetica,sans-Serif" font-size="10.00"> +de_values</text>
</g>
<!-- Node4 -->
<g id="node4" class="node"><title>Node4</title>
<polygon fill="none" stroke="#bfbfbf" points="290.5,-859 290.5,-916 395.5,-916 395.5,-859 290.5,-859"/>
<text text-anchor="middle" x="343" y="-904" font-family="Helvetica,sans-Serif" font-size="10.00">anonymous:+named</text>
<polyline fill="none" stroke="#bfbfbf" points="290.5,-897 395.5,-897 "/>
<text text-anchor="middle" x="343" y="-885" font-family="Helvetica,sans-Serif" font-size="10.00"> </text>
<polyline fill="none" stroke="#bfbfbf" points="290.5,-878 395.5,-878 "/>
<text text-anchor="middle" x="343" y="-866" font-family="Helvetica,sans-Serif" font-size="10.00"> </text>
</g>
<!-- Node4&#45;&gt;Node1 -->
<g id="edge3" class="edge"><title>Node4&#45;&gt;Node1</title>
<path fill="none" stroke="#404040" d="M330.698,-858.829C325.34,-845.302 319.679,-828.608 317,-813 309.972,-772.058 306.861,-728.878 306.4,-685.918"/>
<polygon fill="none" stroke="#404040" points="306.4,-685.809 302.37,-679.829 306.339,-673.809 310.37,-679.789 306.4,-685.809"/>
<text text-anchor="middle" x="336.5" y="-750" font-family="Helvetica,sans-Serif" font-size="10.00"> +named</text>
</g>
<!-- Node4&#45;&gt;Node1 -->
<g id="edge4" class="edge"><title>Node4&#45;&gt;Node1</title>
<path fill="none" stroke="#404040" d="M349.095,-858.731C351.797,-845.039 354.663,-828.232 356,-813 359.608,-771.881 361.462,-728.686 362.109,-685.798"/>
<polygon fill="none" stroke="#404040" points="362.11,-685.711 358.185,-679.661 362.26,-673.712 366.185,-679.761 362.11,-685.711"/>
<text text-anchor="middle" x="381.5" y="-750" font-family="Helvetica,sans-Serif" font-size="10.00"> +named</text>
</g>
<!-- Node5 -->
<g id="node5" class="node"><title>Node5</title>
<polygon fill="none" stroke="#bfbfbf" points="414,-859 414,-916 550,-916 550,-859 414,-859"/>
<text text-anchor="middle" x="482" y="-904" font-family="Helvetica,sans-Serif" font-size="10.00">anonymous:+halfch_values</text>
<polyline fill="none" stroke="#bfbfbf" points="414,-897 550,-897 "/>
<text text-anchor="middle" x="482" y="-885" font-family="Helvetica,sans-Serif" font-size="10.00"> </text>
<polyline fill="none" stroke="#bfbfbf" points="414,-878 550,-878 "/>
<text text-anchor="middle" x="482" y="-866" font-family="Helvetica,sans-Serif" font-size="10.00"> </text>
</g>
<!-- Node5&#45;&gt;Node1 -->
<g id="edge5" class="edge"><title>Node5&#45;&gt;Node1</title>
<path fill="none" stroke="#404040" d="M475.213,-858.924C463.821,-812.638 439.707,-714.665 415.433,-616.039"/>
<polygon fill="none" stroke="#404040" points="415.417,-615.976 410.099,-611.106 412.549,-604.324 417.867,-609.194 415.417,-615.976"/>
<text text-anchor="middle" x="498" y="-750" font-family="Helvetica,sans-Serif" font-size="10.00"> +halfch_values</text>
</g>
<!-- Node6 -->
<g id="node6" class="node"><title>Node6</title>
<polygon fill="none" stroke="#bfbfbf" points="568,-859 568,-916 624,-916 624,-859 568,-859"/>
<text text-anchor="middle" x="596" y="-904" font-family="Helvetica,sans-Serif" font-size="10.00">Double_t</text>
<polyline fill="none" stroke="#bfbfbf" points="568,-897 624,-897 "/>
<text text-anchor="middle" x="596" y="-885" font-family="Helvetica,sans-Serif" font-size="10.00"> </text>
<polyline fill="none" stroke="#bfbfbf" points="568,-878 624,-878 "/>
<text text-anchor="middle" x="596" y="-866" font-family="Helvetica,sans-Serif" font-size="10.00"> </text>
</g>
<!-- Node6&#45;&gt;Node1 -->
<g id="edge6" class="edge"><title>Node6&#45;&gt;Node1</title>
<path fill="none" stroke="#404040" d="M589.455,-858.844C579.987,-820.58 560.951,-749.683 537,-692 503.486,-611.285 457.263,-524.779 418.8,-457.486"/>
<polygon fill="none" stroke="#404040" points="418.672,-457.262 412.215,-454.05 412.697,-446.855 419.153,-450.067 418.672,-457.262"/>
<text text-anchor="middle" x="597" y="-805" font-family="Helvetica,sans-Serif" font-size="10.00"> +val9I</text>
<text text-anchor="middle" x="597" y="-794" font-family="Helvetica,sans-Serif" font-size="10.00">+val1017</text>
<text text-anchor="middle" x="597" y="-783" font-family="Helvetica,sans-Serif" font-size="10.00">+val1002</text>
<text text-anchor="middle" x="597" y="-772" font-family="Helvetica,sans-Serif" font-size="10.00">+val906</text>
<text text-anchor="middle" x="597" y="-761" font-family="Helvetica,sans-Serif" font-size="10.00">+val807</text>
<text text-anchor="middle" x="597" y="-750" font-family="Helvetica,sans-Serif" font-size="10.00">+val708</text>
<text text-anchor="middle" x="597" y="-739" font-family="Helvetica,sans-Serif" font-size="10.00">+val609</text>
<text text-anchor="middle" x="597" y="-728" font-family="Helvetica,sans-Serif" font-size="10.00">+val510</text>
<text text-anchor="middle" x="597" y="-717" font-family="Helvetica,sans-Serif" font-size="10.00">+val8I</text>
<text text-anchor="middle" x="597" y="-706" font-family="Helvetica,sans-Serif" font-size="10.00">+val1018</text>
<text text-anchor="middle" x="597" y="-695" font-family="Helvetica,sans-Serif" font-size="10.00">...</text>
</g>
</g>
</svg>
        <g id="navigator" transform="translate(0 0)" fill="#404254">
                <rect fill="#f2f5e9" fill-opacity="0.5" stroke="#606060" stroke-width=".5" x="0" y="0" width="60" height="60"/>
                <use id="zoomplus" xlink:href="#zoomPlus" x="17" y="9" onmousedown="handleZoom(evt,'in')"/>
                <use id="zoomminus" xlink:href="#zoomMin" x="42" y="9" onmousedown="handleZoom(evt,'out')"/>
                <use id="reset" xlink:href="#resetDef" x="30" y="36" onmousedown="handleReset()"/>
                <g id="arrowUp" xlink:href="#dirArrow" transform="translate(30 24)" onmousedown="handlePan(0,-1)">
                  <use xlink:href="#rim" fill="#404040">
                        <set attributeName="fill" to="#808080" begin="arrowUp.mouseover" end="arrowUp.mouseout"/>
                  </use>
                  <path fill="none" stroke="white" stroke-width="1.5" d="M0,-3.0v7 M-2.5,-0.5L0,-3.0L2.5,-0.5"/>
                </g>
                <g id="arrowRight" xlink:href="#dirArrow" transform="rotate(90) translate(36 -43)" onmousedown="handlePan(1,0)">
                  <use xlink:href="#rim" fill="#404040">
                        <set attributeName="fill" to="#808080" begin="arrowRight.mouseover" end="arrowRight.mouseout"/>
                  </use>
                  <path fill="none" stroke="white" stroke-width="1.5" d="M0,-3.0v7 M-2.5,-0.5L0,-3.0L2.5,-0.5"/>
                </g>
                <g id="arrowDown" xlink:href="#dirArrow" transform="rotate(180) translate(-30 -48)" onmousedown="handlePan(0,1)">
                  <use xlink:href="#rim" fill="#404040">
                        <set attributeName="fill" to="#808080" begin="arrowDown.mouseover" end="arrowDown.mouseout"/>
                  </use>
                  <path fill="none" stroke="white" stroke-width="1.5" d="M0,-3.0v7 M-2.5,-0.5L0,-3.0L2.5,-0.5"/>
                </g>
                <g id="arrowLeft" xlink:href="#dirArrow" transform="rotate(270) translate(-36 17)" onmousedown="handlePan(-1,0)">
                  <use xlink:href="#rim" fill="#404040">
                        <set attributeName="fill" to="#808080" begin="arrowLeft.mouseover" end="arrowLeft.mouseout"/>
                  </use>
                  <path fill="none" stroke="white" stroke-width="1.5" d="M0,-3.0v7 M-2.5,-0.5L0,-3.0L2.5,-0.5"/>
                </g>
        </g>
        <svg viewBox="0 0 15 15" width="100%" height="30px" preserveAspectRatio="xMaxYMin meet">
         <g id="arrow_out" transform="scale(0.3 0.3)">
          <a xlink:href="classo2_1_1quality__control__modules_1_1muonchambers_1_1TH1MCHReductor__coll__graph_org.svg" target="_base">
           <rect id="button" ry="5" rx="5" y="6" x="6" height="38" width="38"
                fill="#f2f5e9" fill-opacity="0.5" stroke="#606060" stroke-width="1.0"/>
           <path id="arrow"
             d="M 11.500037,31.436501 C 11.940474,20.09759 22.043105,11.32322 32.158766,21.979434 L 37.068811,17.246167 C 37.068811,17.246167 37.088388,32 37.088388,32 L 22.160133,31.978069 C 22.160133,31.978069 26.997745,27.140456 26.997745,27.140456 C 18.528582,18.264221 13.291696,25.230495 11.500037,31.436501 z"
             style="fill:#404040;"/>
          </a>
         </g>
        </svg>
</svg>
