<?xml version="1.0" encoding="UTF-8" standalone="no"?>
<!DOCTYPE svg PUBLIC "-//W3C//DTD SVG 1.1//EN"
 "http://www.w3.org/Graphics/SVG/1.1/DTD/svg11.dtd">
<!-- Generated by graphviz version 2.38.0 (20140413.2041)
 -->
<!-- Title: Receiver Pages: 1 -->
<svg width="98pt" height="193pt"
 viewBox="0.00 0.00 98.00 193.00" xmlns="http://www.w3.org/2000/svg" xmlns:xlink="http://www.w3.org/1999/xlink">
<g id="graph0" class="graph" transform="scale(1 1) rotate(0) translate(4 189)">
<title>Receiver</title>
<!-- Node1 -->
<g id="node1" class="node"><title>Node1</title>
<polygon fill="#bfbfbf" stroke="black" points="6.5,-0.5 6.5,-90.5 83.5,-90.5 83.5,-0.5 6.5,-0.5"/>
<text text-anchor="middle" x="45" y="-78.5" font-family="Helvetica,sans-Serif" font-size="10.00">Receiver</text>
<polyline fill="none" stroke="black" points="6.5,-71.5 83.5,-71.5 "/>
<text text-anchor="middle" x="45" y="-59.5" font-family="Helvetica,sans-Serif" font-size="10.00"> </text>
<polyline fill="none" stroke="black" points="6.5,-52.5 83.5,-52.5 "/>
<text text-anchor="start" x="14.5" y="-40.5" font-family="Helvetica,sans-Serif" font-size="10.00">+ Receiver()</text>
<text text-anchor="start" x="14.5" y="-29.5" font-family="Helvetica,sans-Serif" font-size="10.00">+ ~Receiver()</text>
<text text-anchor="start" x="14.5" y="-18.5" font-family="Helvetica,sans-Serif" font-size="10.00">+ run()</text>
<text text-anchor="start" x="14.5" y="-7.5" font-family="Helvetica,sans-Serif" font-size="10.00">+ getInputs()</text>
</g>
<!-- Node2 -->
<g id="node2" class="node"><title>Node2</title>
<polygon fill="none" stroke="#bfbfbf" points="0,-127.5 0,-184.5 90,-184.5 90,-127.5 0,-127.5"/>
<text text-anchor="middle" x="45" y="-172.5" font-family="Helvetica,sans-Serif" font-size="10.00">framework::Task</text>
<polyline fill="none" stroke="#bfbfbf" points="0,-165.5 90,-165.5 "/>
<text text-anchor="middle" x="45" y="-153.5" font-family="Helvetica,sans-Serif" font-size="10.00"> </text>
<polyline fill="none" stroke="#bfbfbf" points="0,-146.5 90,-146.5 "/>
<text text-anchor="middle" x="45" y="-134.5" font-family="Helvetica,sans-Serif" font-size="10.00"> </text>
</g>
<!-- Node2&#45;&gt;Node1 -->
<g id="edge1" class="edge"><title>Node2&#45;&gt;Node1</title>
<path fill="none" stroke="midnightblue" d="M45,-117.214C45,-108.609 45,-99.3943 45,-90.5541"/>
<polygon fill="none" stroke="midnightblue" points="41.5001,-117.34 45,-127.34 48.5001,-117.34 41.5001,-117.34"/>
</g>
</g>
</svg>
