<?xml version="1.0" encoding="UTF-8" standalone="no"?>
<!DOCTYPE svg PUBLIC "-//W3C//DTD SVG 1.1//EN"
 "http://www.w3.org/Graphics/SVG/1.1/DTD/svg11.dtd">
<!-- Generated by graphviz version 2.38.0 (20140413.2041)
 -->
<!-- Title: o2::quality_control_modules::common::QualityReductor Pages: 1 -->
<svg width="347pt" height="281pt"
 viewBox="0.00 0.00 347.00 281.00" xmlns="http://www.w3.org/2000/svg" xmlns:xlink="http://www.w3.org/1999/xlink">
<g id="graph0" class="graph" transform="scale(1 1) rotate(0) translate(4 277)">
<title>o2::quality_control_modules::common::QualityReductor</title>
<!-- Node1 -->
<g id="node1" class="node"><title>Node1</title>
<polygon fill="#bfbfbf" stroke="black" points="108.5,-0.5 108.5,-112.5 287.5,-112.5 287.5,-0.5 108.5,-0.5"/>
<text text-anchor="start" x="116.5" y="-100.5" font-family="Helvetica,sans-Serif" font-size="10.00">o2::quality_control</text>
<text text-anchor="middle" x="198" y="-89.5" font-family="Helvetica,sans-Serif" font-size="10.00">_modules::common::QualityReductor</text>
<polyline fill="none" stroke="black" points="108.5,-82.5 287.5,-82.5 "/>
<text text-anchor="middle" x="198" y="-70.5" font-family="Helvetica,sans-Serif" font-size="10.00"> </text>
<polyline fill="none" stroke="black" points="108.5,-63.5 287.5,-63.5 "/>
<text text-anchor="start" x="116.5" y="-51.5" font-family="Helvetica,sans-Serif" font-size="10.00">+ QualityReductor()</text>
<text text-anchor="start" x="116.5" y="-40.5" font-family="Helvetica,sans-Serif" font-size="10.00">+ ~QualityReductor()</text>
<text text-anchor="start" x="116.5" y="-29.5" font-family="Helvetica,sans-Serif" font-size="10.00">+ getBranchAddress()</text>
<text text-anchor="start" x="116.5" y="-18.5" font-family="Helvetica,sans-Serif" font-size="10.00">+ getBranchLeafList()</text>
<text text-anchor="start" x="116.5" y="-7.5" font-family="Helvetica,sans-Serif" font-size="10.00">+ update()</text>
</g>
<!-- Node2 -->
<g id="node2" class="node"><title>Node2</title>
<g id="a_node2"><a xlink:href="classo2_1_1quality__control_1_1postprocessing_1_1Reductor.html" target="_top" xlink:title="An interface for storing data derived from QC objects into a TTree. ">
<polygon fill="none" stroke="black" points="0,-160.5 0,-272.5 134,-272.5 134,-160.5 0,-160.5"/>
<text text-anchor="start" x="8" y="-260.5" font-family="Helvetica,sans-Serif" font-size="10.00">o2::quality_control</text>
<text text-anchor="middle" x="67" y="-249.5" font-family="Helvetica,sans-Serif" font-size="10.00">::postprocessing::Reductor</text>
<polyline fill="none" stroke="black" points="0,-242.5 134,-242.5 "/>
<text text-anchor="middle" x="67" y="-230.5" font-family="Helvetica,sans-Serif" font-size="10.00"> </text>
<polyline fill="none" stroke="black" points="0,-223.5 134,-223.5 "/>
<text text-anchor="start" x="8" y="-211.5" font-family="Helvetica,sans-Serif" font-size="10.00">+ Reductor()</text>
<text text-anchor="start" x="8" y="-200.5" font-family="Helvetica,sans-Serif" font-size="10.00">+ ~Reductor()</text>
<text text-anchor="start" x="8" y="-189.5" font-family="Helvetica,sans-Serif" font-size="10.00">+ getBranchAddress()</text>
<text text-anchor="start" x="8" y="-178.5" font-family="Helvetica,sans-Serif" font-size="10.00">+ getBranchLeafList()</text>
<text text-anchor="start" x="8" y="-167.5" font-family="Helvetica,sans-Serif" font-size="10.00">+ update()</text>
</a>
</g>
</g>
<!-- Node2&#45;&gt;Node1 -->
<g id="edge1" class="edge"><title>Node2&#45;&gt;Node1</title>
<path fill="none" stroke="midnightblue" d="M119.485,-152.197C130.315,-139.135 141.639,-125.477 152.208,-112.73"/>
<polygon fill="none" stroke="midnightblue" points="116.506,-150.307 112.817,-160.239 121.894,-154.775 116.506,-150.307"/>
</g>
<!-- Node3 -->
<g id="node3" class="node"><title>Node3</title>
<polygon fill="none" stroke="#bfbfbf" points="152.5,-188 152.5,-245 187.5,-245 187.5,-188 152.5,-188"/>
<text text-anchor="middle" x="170" y="-233" font-family="Helvetica,sans-Serif" font-size="10.00">char</text>
<polyline fill="none" stroke="#bfbfbf" points="152.5,-226 187.5,-226 "/>
<text text-anchor="middle" x="170" y="-214" font-family="Helvetica,sans-Serif" font-size="10.00"> </text>
<polyline fill="none" stroke="#bfbfbf" points="152.5,-207 187.5,-207 "/>
<text text-anchor="middle" x="170" y="-195" font-family="Helvetica,sans-Serif" font-size="10.00"> </text>
</g>
<!-- Node3&#45;&gt;Node1 -->
<g id="edge2" class="edge"><title>Node3&#45;&gt;Node1</title>
<path fill="none" stroke="#404040" d="M167.98,-187.872C167.345,-171.255 167.549,-149.758 171,-131 171.398,-128.838 171.853,-126.656 172.357,-124.464"/>
<polygon fill="none" stroke="#404040" points="172.394,-124.324 170.063,-117.5 175.465,-112.724 177.796,-119.548 172.394,-124.324"/>
<text text-anchor="middle" x="188" y="-134" font-family="Helvetica,sans-Serif" font-size="10.00"> +name</text>
</g>
<!-- Node4 -->
<g id="node4" class="node"><title>Node4</title>
<polygon fill="none" stroke="#bfbfbf" points="205.5,-188 205.5,-245 248.5,-245 248.5,-188 205.5,-188"/>
<text text-anchor="middle" x="227" y="-233" font-family="Helvetica,sans-Serif" font-size="10.00">size_t</text>
<polyline fill="none" stroke="#bfbfbf" points="205.5,-226 248.5,-226 "/>
<text text-anchor="middle" x="227" y="-214" font-family="Helvetica,sans-Serif" font-size="10.00"> </text>
<polyline fill="none" stroke="#bfbfbf" points="205.5,-207 248.5,-207 "/>
<text text-anchor="middle" x="227" y="-195" font-family="Helvetica,sans-Serif" font-size="10.00"> </text>
</g>
<!-- Node4&#45;&gt;Node1 -->
<g id="edge3" class="edge"><title>Node4&#45;&gt;Node1</title>
<path fill="none" stroke="#404040" d="M221.949,-187.979C218.716,-170.366 214.374,-146.708 210.274,-124.375"/>
<polygon fill="none" stroke="#404040" points="210.262,-124.307 205.245,-119.128 208.096,-112.504 213.113,-117.684 210.262,-124.307"/>
<text text-anchor="middle" x="247.5" y="-134" font-family="Helvetica,sans-Serif" font-size="10.00"> +NAME_SIZE</text>
</g>
<!-- Node5 -->
<g id="node5" class="node"><title>Node5</title>
<polygon fill="none" stroke="#bfbfbf" points="295,-188 295,-245 339,-245 339,-188 295,-188"/>
<text text-anchor="middle" x="317" y="-233" font-family="Helvetica,sans-Serif" font-size="10.00">UInt_t</text>
<polyline fill="none" stroke="#bfbfbf" points="295,-226 339,-226 "/>
<text text-anchor="middle" x="317" y="-214" font-family="Helvetica,sans-Serif" font-size="10.00"> </text>
<polyline fill="none" stroke="#bfbfbf" points="295,-207 339,-207 "/>
<text text-anchor="middle" x="317" y="-195" font-family="Helvetica,sans-Serif" font-size="10.00"> </text>
</g>
<!-- Node5&#45;&gt;Node1 -->
<g id="edge4" class="edge"><title>Node5&#45;&gt;Node1</title>
<path fill="none" stroke="#404040" d="M310.395,-187.911C305.338,-170.508 297.139,-148.161 285,-131 282.843,-127.951 280.53,-124.951 278.097,-122.011"/>
<polygon fill="none" stroke="#404040" points="277.92,-121.81 270.946,-119.975 269.958,-112.832 276.932,-114.667 277.92,-121.81"/>
<text text-anchor="middle" x="307" y="-134" font-family="Helvetica,sans-Serif" font-size="10.00"> +level</text>
</g>
</g>
</svg>
