<?xml version="1.0" encoding="UTF-8" standalone="no"?>
<!DOCTYPE svg PUBLIC "-//W3C//DTD SVG 1.1//EN"
 "http://www.w3.org/Graphics/SVG/1.1/DTD/svg11.dtd">
<!-- Generated by graphviz version 2.38.0 (20140413.2041)
 -->
<!-- Title: o2::quality_control_modules::hmpid::HmpidDecoder Pages: 1 -->
<!--zoomable 1222 -->
<svg id="main" version="1.1" xmlns="http://www.w3.org/2000/svg" xmlns:xlink="http://www.w3.org/1999/xlink" xml:space="preserve" onload="init(evt)">
<style type="text/css"><![CDATA[
.edge:hover path { stroke: red; }
.edge:hover polygon { stroke: red; fill: red; }
]]></style>
<script type="text/javascript"><![CDATA[
var edges = document.getElementsByTagName('g');
if (edges && edges.length) {
  for (var i=0;i<edges.length;i++) {
    if (edges[i].id.substr(0,4)=='edge') {
      edges[i].setAttribute('class','edge');
    }
  }
}
]]></script>
        <defs>
                <circle id="rim" cx="0" cy="0" r="7"/>
                <circle id="rim2" cx="0" cy="0" r="3.5"/>
                <g id="zoomPlus">
                        <use xlink:href="#rim" fill="#404040">
                                <set attributeName="fill" to="#808080" begin="zoomplus.mouseover" end="zoomplus.mouseout"/>
                        </use>
                        <path d="M-4,0h8M0,-4v8" fill="none" stroke="white" stroke-width="1.5" pointer-events="none"/>
                </g>
                <g id="zoomMin">
                        <use xlink:href="#rim" fill="#404040">
                                <set attributeName="fill" to="#808080" begin="zoomminus.mouseover" end="zoomminus.mouseout"/>
                        </use>
                        <path d="M-4,0h8" fill="none" stroke="white" stroke-width="1.5" pointer-events="none"/>
                </g>
                <g id="dirArrow">
                        <path fill="none" stroke="white" stroke-width="1.5" d="M0,-3.0v7 M-2.5,-0.5L0,-3.0L2.5,-0.5"/>
                </g>
               <g id="resetDef">
                       <use xlink:href="#rim2" fill="#404040">
                               <set attributeName="fill" to="#808080" begin="reset.mouseover" end="reset.mouseout"/>
                       </use>
               </g>
        </defs>

<script type="text/javascript">
var viewWidth = 581;
var viewHeight = 1222;
var sectionId = 'dynsection-1';
</script>
<script xlink:href="svgpan.js"/>
<svg id="graph" class="graph">
<g id="viewport">
<title>o2::quality_control_modules::hmpid::HmpidDecoder</title>
<!-- Node1 -->
<g id="node1" class="node"><title>Node1</title>
<polygon fill="#bfbfbf" stroke="black" points="130.5,-0.5 130.5,-651.5 292.5,-651.5 292.5,-0.5 130.5,-0.5"/>
<text text-anchor="start" x="138.5" y="-639.5" font-family="Helvetica,sans-Serif" font-size="10.00">o2::quality_control</text>
<text text-anchor="middle" x="211.5" y="-628.5" font-family="Helvetica,sans-Serif" font-size="10.00">_modules::hmpid::HmpidDecoder</text>
<polyline fill="none" stroke="black" points="130.5,-621.5 292.5,-621.5 "/>
<text text-anchor="start" x="138.5" y="-609.5" font-family="Helvetica,sans-Serif" font-size="10.00">+ mVerbose</text>
<text text-anchor="start" x="138.5" y="-598.5" font-family="Helvetica,sans-Serif" font-size="10.00">+ mNumberOfEquipments</text>
<text text-anchor="start" x="138.5" y="-587.5" font-family="Helvetica,sans-Serif" font-size="10.00">+ mHeEvent</text>
<text text-anchor="start" x="138.5" y="-576.5" font-family="Helvetica,sans-Serif" font-size="10.00">+ mNumberWordToRead</text>
<text text-anchor="start" x="138.5" y="-565.5" font-family="Helvetica,sans-Serif" font-size="10.00">+ mHeFEEID</text>
<text text-anchor="start" x="138.5" y="-554.5" font-family="Helvetica,sans-Serif" font-size="10.00">+ mHeSize</text>
<text text-anchor="start" x="138.5" y="-543.5" font-family="Helvetica,sans-Serif" font-size="10.00">+ mHePrior</text>
<text text-anchor="start" x="138.5" y="-532.5" font-family="Helvetica,sans-Serif" font-size="10.00">+ mHeStop</text>
<text text-anchor="start" x="138.5" y="-521.5" font-family="Helvetica,sans-Serif" font-size="10.00">+ mHePages</text>
<text text-anchor="start" x="138.5" y="-510.5" font-family="Helvetica,sans-Serif" font-size="10.00">+ mEquipment</text>
<text text-anchor="start" x="138.5" y="-499.5" font-family="Helvetica,sans-Serif" font-size="10.00">+ mHeOffsetNewPack</text>
<text text-anchor="start" x="138.5" y="-488.5" font-family="Helvetica,sans-Serif" font-size="10.00">+ mHeDW</text>
<text text-anchor="start" x="138.5" y="-477.5" font-family="Helvetica,sans-Serif" font-size="10.00">+ mHeCruID</text>
<text text-anchor="start" x="138.5" y="-466.5" font-family="Helvetica,sans-Serif" font-size="10.00">+ mHePageNum</text>
<text text-anchor="start" x="138.5" y="-455.5" font-family="Helvetica,sans-Serif" font-size="10.00">+ mHeFirmwareVersion</text>
<text text-anchor="start" x="138.5" y="-444.5" font-family="Helvetica,sans-Serif" font-size="10.00">+ mHeBCDI</text>
<text text-anchor="start" x="138.5" y="-433.5" font-family="Helvetica,sans-Serif" font-size="10.00">+ mHeORBIT</text>
<polyline fill="none" stroke="black" points="130.5,-426.5 292.5,-426.5 "/>
<text text-anchor="start" x="138.5" y="-414.5" font-family="Helvetica,sans-Serif" font-size="10.00">+ HmpidDecoder()</text>
<text text-anchor="start" x="138.5" y="-403.5" font-family="Helvetica,sans-Serif" font-size="10.00">+ HmpidDecoder()</text>
<text text-anchor="start" x="138.5" y="-392.5" font-family="Helvetica,sans-Serif" font-size="10.00">+ ~HmpidDecoder()</text>
<text text-anchor="start" x="138.5" y="-381.5" font-family="Helvetica,sans-Serif" font-size="10.00">+ init()</text>
<text text-anchor="start" x="138.5" y="-370.5" font-family="Helvetica,sans-Serif" font-size="10.00">+ setUpStream()</text>
<text text-anchor="start" x="138.5" y="-359.5" font-family="Helvetica,sans-Serif" font-size="10.00">+ setVerbosity()</text>
<text text-anchor="start" x="138.5" y="-348.5" font-family="Helvetica,sans-Serif" font-size="10.00">+ getVerbosity()</text>
<text text-anchor="start" x="138.5" y="-337.5" font-family="Helvetica,sans-Serif" font-size="10.00">+ getNumberOfEquipments()</text>
<text text-anchor="start" x="138.5" y="-326.5" font-family="Helvetica,sans-Serif" font-size="10.00">+ getEquipmentIndex()</text>
<text text-anchor="start" x="138.5" y="-315.5" font-family="Helvetica,sans-Serif" font-size="10.00">+ getEquipmentIndex()</text>
<text text-anchor="start" x="138.5" y="-304.5" font-family="Helvetica,sans-Serif" font-size="10.00">+ getEquipmentID()</text>
<text text-anchor="start" x="138.5" y="-293.5" font-family="Helvetica,sans-Serif" font-size="10.00">+ decodeBuffer()</text>
<text text-anchor="start" x="138.5" y="-282.5" font-family="Helvetica,sans-Serif" font-size="10.00">+ getChannelSamples()</text>
<text text-anchor="start" x="138.5" y="-271.5" font-family="Helvetica,sans-Serif" font-size="10.00">+ getChannelSum()</text>
<text text-anchor="start" x="138.5" y="-260.5" font-family="Helvetica,sans-Serif" font-size="10.00">+ getChannelSquare()</text>
<text text-anchor="start" x="138.5" y="-249.5" font-family="Helvetica,sans-Serif" font-size="10.00">+ getPadSamples()</text>
<text text-anchor="start" x="138.5" y="-238.5" font-family="Helvetica,sans-Serif" font-size="10.00">+ getPadSum()</text>
<text text-anchor="start" x="138.5" y="-227.5" font-family="Helvetica,sans-Serif" font-size="10.00">+ getPadSquares()</text>
<text text-anchor="start" x="138.5" y="-216.5" font-family="Helvetica,sans-Serif" font-size="10.00">+ dumpErrors()</text>
<text text-anchor="start" x="138.5" y="-205.5" font-family="Helvetica,sans-Serif" font-size="10.00">+ dumpPads()</text>
<text text-anchor="start" x="138.5" y="-194.5" font-family="Helvetica,sans-Serif" font-size="10.00">+ writeSummaryFile()</text>
<text text-anchor="start" x="138.5" y="-183.5" font-family="Helvetica,sans-Serif" font-size="10.00">+ getAverageEventSize()</text>
<text text-anchor="start" x="138.5" y="-172.5" font-family="Helvetica,sans-Serif" font-size="10.00">+ getAverageBusyTime()</text>
<text text-anchor="start" x="138.5" y="-161.5" font-family="Helvetica,sans-Serif" font-size="10.00"># checkType()</text>
<text text-anchor="start" x="138.5" y="-150.5" font-family="Helvetica,sans-Serif" font-size="10.00"># isRowMarker()</text>
<text text-anchor="start" x="138.5" y="-139.5" font-family="Helvetica,sans-Serif" font-size="10.00"># isSegmentMarker()</text>
<text text-anchor="start" x="138.5" y="-128.5" font-family="Helvetica,sans-Serif" font-size="10.00"># isPadWord()</text>
<text text-anchor="start" x="138.5" y="-117.5" font-family="Helvetica,sans-Serif" font-size="10.00"># isEoEmarker()</text>
<text text-anchor="start" x="138.5" y="-106.5" font-family="Helvetica,sans-Serif" font-size="10.00"># decodeHeader()</text>
<text text-anchor="start" x="138.5" y="-95.5" font-family="Helvetica,sans-Serif" font-size="10.00"># decodeHmpidError()</text>
<text text-anchor="start" x="138.5" y="-84.5" font-family="Helvetica,sans-Serif" font-size="10.00"># dumpHmpidError()</text>
<text text-anchor="start" x="138.5" y="-73.5" font-family="Helvetica,sans-Serif" font-size="10.00"># evaluateHeaderContents()</text>
<text text-anchor="start" x="138.5" y="-62.5" font-family="Helvetica,sans-Serif" font-size="10.00"># updateStatistics()</text>
<text text-anchor="start" x="138.5" y="-51.5" font-family="Helvetica,sans-Serif" font-size="10.00"># setPad()</text>
<text text-anchor="start" x="138.5" y="-40.5" font-family="Helvetica,sans-Serif" font-size="10.00"># getBlockFromStream()</text>
<text text-anchor="start" x="138.5" y="-29.5" font-family="Helvetica,sans-Serif" font-size="10.00"># getHeaderFromStream()</text>
<text text-anchor="start" x="138.5" y="-18.5" font-family="Helvetica,sans-Serif" font-size="10.00"># getWordFromStream()</text>
<text text-anchor="start" x="138.5" y="-7.5" font-family="Helvetica,sans-Serif" font-size="10.00"># getActualStreamPtr()</text>
</g>
<!-- Node2 -->
<g id="node2" class="node"><title>Node2</title>
<polygon fill="none" stroke="#bfbfbf" points="0,-831.5 0,-888.5 35,-888.5 35,-831.5 0,-831.5"/>
<text text-anchor="middle" x="17.5" y="-876.5" font-family="Helvetica,sans-Serif" font-size="10.00">char</text>
<polyline fill="none" stroke="#bfbfbf" points="0,-869.5 35,-869.5 "/>
<text text-anchor="middle" x="17.5" y="-857.5" font-family="Helvetica,sans-Serif" font-size="10.00"> </text>
<polyline fill="none" stroke="#bfbfbf" points="0,-850.5 35,-850.5 "/>
<text text-anchor="middle" x="17.5" y="-838.5" font-family="Helvetica,sans-Serif" font-size="10.00"> </text>
</g>
<!-- Node2&#45;&gt;Node1 -->
<g id="edge1" class="edge"><title>Node2&#45;&gt;Node1</title>
<path fill="none" stroke="#404040" d="M18.1369,-831.491C19.6399,-794.163 24.6738,-725.729 41.5,-670 61.619,-603.365 93.729,-533.844 124.652,-474.952"/>
<polygon fill="none" stroke="#404040" points="124.792,-474.686 124.065,-467.512 130.408,-464.082 131.135,-471.256 124.792,-474.686"/>
<text text-anchor="middle" x="97" y="-689.5" font-family="Helvetica,sans-Serif" font-size="10.00"> +sErrorDescription</text>
<text text-anchor="middle" x="97" y="-678.5" font-family="Helvetica,sans-Serif" font-size="10.00">+sHmpidErrorDescription</text>
</g>
<!-- Node3 -->
<g id="node3" class="node"><title>Node3</title>
<polygon fill="none" stroke="#bfbfbf" points="124.5,-831.5 124.5,-888.5 170.5,-888.5 170.5,-831.5 124.5,-831.5"/>
<text text-anchor="middle" x="147.5" y="-876.5" font-family="Helvetica,sans-Serif" font-size="10.00">int32_t</text>
<polyline fill="none" stroke="#bfbfbf" points="124.5,-869.5 170.5,-869.5 "/>
<text text-anchor="middle" x="147.5" y="-857.5" font-family="Helvetica,sans-Serif" font-size="10.00"> </text>
<polyline fill="none" stroke="#bfbfbf" points="124.5,-850.5 170.5,-850.5 "/>
<text text-anchor="middle" x="147.5" y="-838.5" font-family="Helvetica,sans-Serif" font-size="10.00"> </text>
</g>
<!-- Node3&#45;&gt;Node1 -->
<g id="edge2" class="edge"><title>Node3&#45;&gt;Node1</title>
<path fill="none" stroke="#404040" d="M148.284,-831.388C149.519,-794.515 152.43,-727.198 158.5,-670 158.719,-667.94 158.941,-665.874 159.167,-663.802"/>
<polygon fill="none" stroke="#404040" points="159.167,-663.798 155.857,-657.391 160.498,-651.872 163.808,-658.279 159.167,-663.798"/>
<text text-anchor="middle" x="203.5" y="-695" font-family="Helvetica,sans-Serif" font-size="10.00"> +mActualStreamPtr</text>
<text text-anchor="middle" x="203.5" y="-684" font-family="Helvetica,sans-Serif" font-size="10.00">+mEndStreamPtr</text>
<text text-anchor="middle" x="203.5" y="-673" font-family="Helvetica,sans-Serif" font-size="10.00">+mStartStreamPtr</text>
</g>
<!-- Node4 -->
<g id="node4" class="node"><title>Node4</title>
<g id="a_node4"><a xlink:href="classo2_1_1quality__control__modules_1_1hmpid_1_1HmpidEquipment.html" target="_top" xlink:title="{o2::quality_control\l_modules::hmpid::HmpidEquipment\n|+ mWillBeRowMarker\l+ mWillBeSegmentMarker\l+ mRowSize\l+ mColumnCounter\l+ mWordsPerRowCounter\l+ mWordsPerSegCounter\l+ mErrorPadsPerEvent\l+ mEventNumber\l+ mEventSize\l+ mBusyTimeSamples\l+ mNumberOfEmptyEvents\l+ mTotalErrors\l|+ HmpidEquipment()\l+ ~HmpidEquipment()\l+ getEquipmentId()\l+ getEquipmentId()\l+ init()\l+ resetPadMap()\l+ resetErrors()\l+ setError()\l+ setPad()\l}">
<polygon fill="none" stroke="black" points="188.5,-721.5 188.5,-998.5 360.5,-998.5 360.5,-721.5 188.5,-721.5"/>
<text text-anchor="start" x="196.5" y="-986.5" font-family="Helvetica,sans-Serif" font-size="10.00">o2::quality_control</text>
<text text-anchor="middle" x="274.5" y="-975.5" font-family="Helvetica,sans-Serif" font-size="10.00">_modules::hmpid::HmpidEquipment</text>
<polyline fill="none" stroke="black" points="188.5,-968.5 360.5,-968.5 "/>
<text text-anchor="start" x="196.5" y="-956.5" font-family="Helvetica,sans-Serif" font-size="10.00">+ mWillBeRowMarker</text>
<text text-anchor="start" x="196.5" y="-945.5" font-family="Helvetica,sans-Serif" font-size="10.00">+ mWillBeSegmentMarker</text>
<text text-anchor="start" x="196.5" y="-934.5" font-family="Helvetica,sans-Serif" font-size="10.00">+ mRowSize</text>
<text text-anchor="start" x="196.5" y="-923.5" font-family="Helvetica,sans-Serif" font-size="10.00">+ mColumnCounter</text>
<text text-anchor="start" x="196.5" y="-912.5" font-family="Helvetica,sans-Serif" font-size="10.00">+ mWordsPerRowCounter</text>
<text text-anchor="start" x="196.5" y="-901.5" font-family="Helvetica,sans-Serif" font-size="10.00">+ mWordsPerSegCounter</text>
<text text-anchor="start" x="196.5" y="-890.5" font-family="Helvetica,sans-Serif" font-size="10.00">+ mErrorPadsPerEvent</text>
<text text-anchor="start" x="196.5" y="-879.5" font-family="Helvetica,sans-Serif" font-size="10.00">+ mEventNumber</text>
<text text-anchor="start" x="196.5" y="-868.5" font-family="Helvetica,sans-Serif" font-size="10.00">+ mEventSize</text>
<text text-anchor="start" x="196.5" y="-857.5" font-family="Helvetica,sans-Serif" font-size="10.00">+ mBusyTimeSamples</text>
<text text-anchor="start" x="196.5" y="-846.5" font-family="Helvetica,sans-Serif" font-size="10.00">+ mNumberOfEmptyEvents</text>
<text text-anchor="start" x="196.5" y="-835.5" font-family="Helvetica,sans-Serif" font-size="10.00">+ mTotalErrors</text>
<polyline fill="none" stroke="black" points="188.5,-828.5 360.5,-828.5 "/>
<text text-anchor="start" x="196.5" y="-816.5" font-family="Helvetica,sans-Serif" font-size="10.00">+ HmpidEquipment()</text>
<text text-anchor="start" x="196.5" y="-805.5" font-family="Helvetica,sans-Serif" font-size="10.00">+ ~HmpidEquipment()</text>
<text text-anchor="start" x="196.5" y="-794.5" font-family="Helvetica,sans-Serif" font-size="10.00">+ getEquipmentId()</text>
<text text-anchor="start" x="196.5" y="-783.5" font-family="Helvetica,sans-Serif" font-size="10.00">+ getEquipmentId()</text>
<text text-anchor="start" x="196.5" y="-772.5" font-family="Helvetica,sans-Serif" font-size="10.00">+ init()</text>
<text text-anchor="start" x="196.5" y="-761.5" font-family="Helvetica,sans-Serif" font-size="10.00">+ resetPadMap()</text>
<text text-anchor="start" x="196.5" y="-750.5" font-family="Helvetica,sans-Serif" font-size="10.00">+ resetErrors()</text>
<text text-anchor="start" x="196.5" y="-739.5" font-family="Helvetica,sans-Serif" font-size="10.00">+ setError()</text>
<text text-anchor="start" x="196.5" y="-728.5" font-family="Helvetica,sans-Serif" font-size="10.00">+ setPad()</text>
</a>
</g>
</g>
<!-- Node4&#45;&gt;Node1 -->
<g id="edge3" class="edge"><title>Node4&#45;&gt;Node1</title>
<path fill="none" stroke="#404040" d="M258.194,-721.305C256.025,-702.99 253.73,-683.607 251.367,-663.653"/>
<polygon fill="none" stroke="#404040" points="251.339,-663.419 246.661,-657.931 249.928,-651.502 254.606,-656.99 251.339,-663.419"/>
<text text-anchor="middle" x="299.5" y="-684" font-family="Helvetica,sans-Serif" font-size="10.00"> +mTheEquipments</text>
</g>
<!-- Node5 -->
<g id="node5" class="node"><title>Node5</title>
<polygon fill="none" stroke="#bfbfbf" points="18,-1156.5 18,-1213.5 63,-1213.5 63,-1156.5 18,-1156.5"/>
<text text-anchor="middle" x="40.5" y="-1201.5" font-family="Helvetica,sans-Serif" font-size="10.00">double</text>
<polyline fill="none" stroke="#bfbfbf" points="18,-1194.5 63,-1194.5 "/>
<text text-anchor="middle" x="40.5" y="-1182.5" font-family="Helvetica,sans-Serif" font-size="10.00"> </text>
<polyline fill="none" stroke="#bfbfbf" points="18,-1175.5 63,-1175.5 "/>
<text text-anchor="middle" x="40.5" y="-1163.5" font-family="Helvetica,sans-Serif" font-size="10.00"> </text>
</g>
<!-- Node5&#45;&gt;Node4 -->
<g id="edge4" class="edge"><title>Node5&#45;&gt;Node4</title>
<path fill="none" stroke="#404040" d="M33.721,-1156.48C26.4294,-1119.55 20.1745,-1054.31 55.5,-1017 91.321,-979.169 127.249,-1022.1 177.575,-998.885"/>
<polygon fill="none" stroke="#404040" points="177.651,-998.843 181.003,-992.459 188.186,-993.098 184.834,-999.482 177.651,-998.843"/>
<text text-anchor="middle" x="91" y="-1080.5" font-family="Helvetica,sans-Serif" font-size="10.00"> +mPadSquares</text>
<text text-anchor="middle" x="91" y="-1069.5" font-family="Helvetica,sans-Serif" font-size="10.00">+mPadSum</text>
</g>
<!-- Node6 -->
<g id="node6" class="node"><title>Node6</title>
<polygon fill="none" stroke="#bfbfbf" points="117,-1156.5 117,-1213.5 152,-1213.5 152,-1156.5 117,-1156.5"/>
<text text-anchor="middle" x="134.5" y="-1201.5" font-family="Helvetica,sans-Serif" font-size="10.00">float</text>
<polyline fill="none" stroke="#bfbfbf" points="117,-1194.5 152,-1194.5 "/>
<text text-anchor="middle" x="134.5" y="-1182.5" font-family="Helvetica,sans-Serif" font-size="10.00"> </text>
<polyline fill="none" stroke="#bfbfbf" points="117,-1175.5 152,-1175.5 "/>
<text text-anchor="middle" x="134.5" y="-1163.5" font-family="Helvetica,sans-Serif" font-size="10.00"> </text>
</g>
<!-- Node6&#45;&gt;Node4 -->
<g id="edge5" class="edge"><title>Node6&#45;&gt;Node4</title>
<path fill="none" stroke="#404040" d="M131.022,-1156.38C128.014,-1121.35 127.577,-1060.32 153.5,-1017 160.717,-1004.94 169.575,-1008.95 179.5,-999 179.593,-998.907 179.686,-998.813 179.779,-998.72"/>
<polygon fill="none" stroke="#404040" points="180.051,-998.435 181.296,-991.332 188.331,-989.75 187.086,-996.852 180.051,-998.435"/>
<text text-anchor="middle" x="212" y="-1091.5" font-family="Helvetica,sans-Serif" font-size="10.00"> +mPadsPerEventAverage</text>
<text text-anchor="middle" x="212" y="-1080.5" font-family="Helvetica,sans-Serif" font-size="10.00">+mBusyTimeAverage</text>
<text text-anchor="middle" x="212" y="-1069.5" font-family="Helvetica,sans-Serif" font-size="10.00">+mBusyTimeValue</text>
<text text-anchor="middle" x="212" y="-1058.5" font-family="Helvetica,sans-Serif" font-size="10.00">+mEventSizeAverage</text>
</g>
<!-- Node7 -->
<g id="node7" class="node"><title>Node7</title>
<polygon fill="none" stroke="#bfbfbf" points="249,-1156.5 249,-1213.5 300,-1213.5 300,-1156.5 249,-1156.5"/>
<text text-anchor="middle" x="274.5" y="-1201.5" font-family="Helvetica,sans-Serif" font-size="10.00">uint32_t</text>
<polyline fill="none" stroke="#bfbfbf" points="249,-1194.5 300,-1194.5 "/>
<text text-anchor="middle" x="274.5" y="-1182.5" font-family="Helvetica,sans-Serif" font-size="10.00"> </text>
<polyline fill="none" stroke="#bfbfbf" points="249,-1175.5 300,-1175.5 "/>
<text text-anchor="middle" x="274.5" y="-1163.5" font-family="Helvetica,sans-Serif" font-size="10.00"> </text>
</g>
<!-- Node7&#45;&gt;Node4 -->
<g id="edge6" class="edge"><title>Node7&#45;&gt;Node4</title>
<path fill="none" stroke="#404040" d="M274.5,-1156.46C274.5,-1123.7 274.5,-1066.44 274.5,-1011.01"/>
<polygon fill="none" stroke="#404040" points="274.5,-1010.84 270.5,-1004.84 274.5,-998.841 278.5,-1004.84 274.5,-1010.84"/>
<text text-anchor="middle" x="311" y="-1075" font-family="Helvetica,sans-Serif" font-size="10.00"> +mPadSamples</text>
</g>
<!-- Node8 -->
<g id="node8" class="node"><title>Node8</title>
<polygon fill="none" stroke="#bfbfbf" points="425,-1156.5 425,-1213.5 454,-1213.5 454,-1156.5 425,-1156.5"/>
<text text-anchor="middle" x="439.5" y="-1201.5" font-family="Helvetica,sans-Serif" font-size="10.00">int</text>
<polyline fill="none" stroke="#bfbfbf" points="425,-1194.5 454,-1194.5 "/>
<text text-anchor="middle" x="439.5" y="-1182.5" font-family="Helvetica,sans-Serif" font-size="10.00"> </text>
<polyline fill="none" stroke="#bfbfbf" points="425,-1175.5 454,-1175.5 "/>
<text text-anchor="middle" x="439.5" y="-1163.5" font-family="Helvetica,sans-Serif" font-size="10.00"> </text>
</g>
<!-- Node8&#45;&gt;Node1 -->
<g id="edge8" class="edge"><title>Node8&#45;&gt;Node1</title>
<path fill="none" stroke="#404040" d="M454.102,-1176.63C467.415,-1169 486.226,-1155.71 494.5,-1138 517.267,-1089.28 504.9,-1069.76 494.5,-1017 457.049,-826.993 366.751,-623.469 298.146,-487.086"/>
<polygon fill="none" stroke="#404040" points="298.035,-486.865 291.758,-483.315 292.622,-476.156 298.898,-479.706 298.035,-486.865"/>
<text text-anchor="middle" x="531.5" y="-912.5" font-family="Helvetica,sans-Serif" font-size="10.00"> +mHeLinkNum</text>
<text text-anchor="middle" x="531.5" y="-901.5" font-family="Helvetica,sans-Serif" font-size="10.00">+mPayloadTail</text>
<text text-anchor="middle" x="531.5" y="-890.5" font-family="Helvetica,sans-Serif" font-size="10.00">+mHeBusy</text>
<text text-anchor="middle" x="531.5" y="-879.5" font-family="Helvetica,sans-Serif" font-size="10.00">+mHeTType</text>
<text text-anchor="middle" x="531.5" y="-868.5" font-family="Helvetica,sans-Serif" font-size="10.00">+mHePackNum</text>
<text text-anchor="middle" x="531.5" y="-857.5" font-family="Helvetica,sans-Serif" font-size="10.00">+mHeVer</text>
<text text-anchor="middle" x="531.5" y="-846.5" font-family="Helvetica,sans-Serif" font-size="10.00">+mHeHmpidError</text>
<text text-anchor="middle" x="531.5" y="-835.5" font-family="Helvetica,sans-Serif" font-size="10.00">+mHePAR</text>
<text text-anchor="middle" x="531.5" y="-824.5" font-family="Helvetica,sans-Serif" font-size="10.00">+mHeDetectorID</text>
<text text-anchor="middle" x="531.5" y="-813.5" font-family="Helvetica,sans-Serif" font-size="10.00">+mHeMemorySize</text>
<text text-anchor="middle" x="531.5" y="-802.5" font-family="Helvetica,sans-Serif" font-size="10.00">...</text>
</g>
<!-- Node8&#45;&gt;Node4 -->
<g id="edge7" class="edge"><title>Node8&#45;&gt;Node4</title>
<path fill="none" stroke="#404040" d="M424.732,-1178.14C408.938,-1171.08 384.426,-1157.65 371.5,-1138 341.412,-1092.27 365.48,-1069.04 348.5,-1017 347.768,-1014.76 347.011,-1012.5 346.231,-1010.24"/>
<polygon fill="none" stroke="#404040" points="346.211,-1010.19 340.417,-1005.89 342.152,-998.894 347.946,-1003.19 346.211,-1010.19"/>
<text text-anchor="middle" x="433" y="-1130" font-family="Helvetica,sans-Serif" font-size="10.00"> +mSampleNumber</text>
<text text-anchor="middle" x="433" y="-1119" font-family="Helvetica,sans-Serif" font-size="10.00">+mNumberOfEvents</text>
<text text-anchor="middle" x="433" y="-1108" font-family="Helvetica,sans-Serif" font-size="10.00">+mSegment</text>
<text text-anchor="middle" x="433" y="-1097" font-family="Helvetica,sans-Serif" font-size="10.00">+mWordsPerDilogicCounter</text>
<text text-anchor="middle" x="433" y="-1086" font-family="Helvetica,sans-Serif" font-size="10.00">+mErrors</text>
<text text-anchor="middle" x="433" y="-1075" font-family="Helvetica,sans-Serif" font-size="10.00">+mNumberOfWrongEvents</text>
<text text-anchor="middle" x="433" y="-1064" font-family="Helvetica,sans-Serif" font-size="10.00">+mErrorsCounter</text>
<text text-anchor="middle" x="433" y="-1053" font-family="Helvetica,sans-Serif" font-size="10.00">+mTotalPads</text>
<text text-anchor="middle" x="433" y="-1042" font-family="Helvetica,sans-Serif" font-size="10.00">+mWillBePad</text>
<text text-anchor="middle" x="433" y="-1031" font-family="Helvetica,sans-Serif" font-size="10.00">+mWillBeEoE</text>
<text text-anchor="middle" x="433" y="-1020" font-family="Helvetica,sans-Serif" font-size="10.00">...</text>
</g>
</g>
</svg>
        <g id="navigator" transform="translate(0 0)" fill="#404254">
                <rect fill="#f2f5e9" fill-opacity="0.5" stroke="#606060" stroke-width=".5" x="0" y="0" width="60" height="60"/>
                <use id="zoomplus" xlink:href="#zoomPlus" x="17" y="9" onmousedown="handleZoom(evt,'in')"/>
                <use id="zoomminus" xlink:href="#zoomMin" x="42" y="9" onmousedown="handleZoom(evt,'out')"/>
                <use id="reset" xlink:href="#resetDef" x="30" y="36" onmousedown="handleReset()"/>
                <g id="arrowUp" xlink:href="#dirArrow" transform="translate(30 24)" onmousedown="handlePan(0,-1)">
                  <use xlink:href="#rim" fill="#404040">
                        <set attributeName="fill" to="#808080" begin="arrowUp.mouseover" end="arrowUp.mouseout"/>
                  </use>
                  <path fill="none" stroke="white" stroke-width="1.5" d="M0,-3.0v7 M-2.5,-0.5L0,-3.0L2.5,-0.5"/>
                </g>
                <g id="arrowRight" xlink:href="#dirArrow" transform="rotate(90) translate(36 -43)" onmousedown="handlePan(1,0)">
                  <use xlink:href="#rim" fill="#404040">
                        <set attributeName="fill" to="#808080" begin="arrowRight.mouseover" end="arrowRight.mouseout"/>
                  </use>
                  <path fill="none" stroke="white" stroke-width="1.5" d="M0,-3.0v7 M-2.5,-0.5L0,-3.0L2.5,-0.5"/>
                </g>
                <g id="arrowDown" xlink:href="#dirArrow" transform="rotate(180) translate(-30 -48)" onmousedown="handlePan(0,1)">
                  <use xlink:href="#rim" fill="#404040">
                        <set attributeName="fill" to="#808080" begin="arrowDown.mouseover" end="arrowDown.mouseout"/>
                  </use>
                  <path fill="none" stroke="white" stroke-width="1.5" d="M0,-3.0v7 M-2.5,-0.5L0,-3.0L2.5,-0.5"/>
                </g>
                <g id="arrowLeft" xlink:href="#dirArrow" transform="rotate(270) translate(-36 17)" onmousedown="handlePan(-1,0)">
                  <use xlink:href="#rim" fill="#404040">
                        <set attributeName="fill" to="#808080" begin="arrowLeft.mouseover" end="arrowLeft.mouseout"/>
                  </use>
                  <path fill="none" stroke="white" stroke-width="1.5" d="M0,-3.0v7 M-2.5,-0.5L0,-3.0L2.5,-0.5"/>
                </g>
        </g>
        <svg viewBox="0 0 15 15" width="100%" height="30px" preserveAspectRatio="xMaxYMin meet">
         <g id="arrow_out" transform="scale(0.3 0.3)">
          <a xlink:href="classo2_1_1quality__control__modules_1_1hmpid_1_1HmpidDecoder__coll__graph_org.svg" target="_base">
           <rect id="button" ry="5" rx="5" y="6" x="6" height="38" width="38"
                fill="#f2f5e9" fill-opacity="0.5" stroke="#606060" stroke-width="1.0"/>
           <path id="arrow"
             d="M 11.500037,31.436501 C 11.940474,20.09759 22.043105,11.32322 32.158766,21.979434 L 37.068811,17.246167 C 37.068811,17.246167 37.088388,32 37.088388,32 L 22.160133,31.978069 C 22.160133,31.978069 26.997745,27.140456 26.997745,27.140456 C 18.528582,18.264221 13.291696,25.230495 11.500037,31.436501 z"
             style="fill:#404040;"/>
          </a>
         </g>
        </svg>
</svg>
