<?xml version="1.0" encoding="UTF-8" standalone="no"?>
<!DOCTYPE svg PUBLIC "-//W3C//DTD SVG 1.1//EN"
 "http://www.w3.org/Graphics/SVG/1.1/DTD/svg11.dtd">
<!-- Generated by graphviz version 2.38.0 (20140413.2041)
 -->
<!-- Title: FairMQDevice Pages: 1 -->
<svg width="280pt" height="237pt"
 viewBox="0.00 0.00 280.00 237.00" xmlns="http://www.w3.org/2000/svg" xmlns:xlink="http://www.w3.org/1999/xlink">
<g id="graph0" class="graph" transform="scale(1 1) rotate(0) translate(4 233)">
<title>FairMQDevice</title>
<!-- Node1 -->
<g id="node1" class="node"><title>Node1</title>
<polygon fill="#bfbfbf" stroke="black" points="87,-171.5 87,-228.5 167,-228.5 167,-171.5 87,-171.5"/>
<text text-anchor="middle" x="127" y="-216.5" font-family="Helvetica,sans-Serif" font-size="10.00">FairMQDevice</text>
<polyline fill="none" stroke="black" points="87,-209.5 167,-209.5 "/>
<text text-anchor="middle" x="127" y="-197.5" font-family="Helvetica,sans-Serif" font-size="10.00"> </text>
<polyline fill="none" stroke="black" points="87,-190.5 167,-190.5 "/>
<text text-anchor="middle" x="127" y="-178.5" font-family="Helvetica,sans-Serif" font-size="10.00"> </text>
</g>
<!-- Node2 -->
<g id="node2" class="node"><title>Node2</title>
<g id="a_node2"><a xlink:href="classo2_1_1quality__control_1_1core_1_1DataDumpGui.html" target="_top" xlink:title="{o2::quality_control\l::core::DataDumpGui\n|+ guiState\l+ window\l|+ DataDumpGui()\l+ ~DataDumpGui()\l# InitTask()\l# ConditionalRun()\l# handleParts()\l}">
<polygon fill="none" stroke="black" points="0,-6 0,-129 110,-129 110,-6 0,-6"/>
<text text-anchor="start" x="8" y="-117" font-family="Helvetica,sans-Serif" font-size="10.00">o2::quality_control</text>
<text text-anchor="middle" x="55" y="-106" font-family="Helvetica,sans-Serif" font-size="10.00">::core::DataDumpGui</text>
<polyline fill="none" stroke="black" points="0,-99 110,-99 "/>
<text text-anchor="start" x="8" y="-87" font-family="Helvetica,sans-Serif" font-size="10.00">+ guiState</text>
<text text-anchor="start" x="8" y="-76" font-family="Helvetica,sans-Serif" font-size="10.00">+ window</text>
<polyline fill="none" stroke="black" points="0,-69 110,-69 "/>
<text text-anchor="start" x="8" y="-57" font-family="Helvetica,sans-Serif" font-size="10.00">+ DataDumpGui()</text>
<text text-anchor="start" x="8" y="-46" font-family="Helvetica,sans-Serif" font-size="10.00">+ ~DataDumpGui()</text>
<text text-anchor="start" x="8" y="-35" font-family="Helvetica,sans-Serif" font-size="10.00"># InitTask()</text>
<text text-anchor="start" x="8" y="-24" font-family="Helvetica,sans-Serif" font-size="10.00"># ConditionalRun()</text>
<text text-anchor="start" x="8" y="-13" font-family="Helvetica,sans-Serif" font-size="10.00"># handleParts()</text>
</a>
</g>
</g>
<!-- Node1&#45;&gt;Node2 -->
<g id="edge1" class="edge"><title>Node1&#45;&gt;Node2</title>
<path fill="none" stroke="midnightblue" d="M106.889,-162.55C101.162,-152.168 94.7626,-140.57 88.4673,-129.16"/>
<polygon fill="none" stroke="midnightblue" points="103.835,-164.259 111.731,-171.324 109.964,-160.878 103.835,-164.259"/>
</g>
<!-- Node3 -->
<g id="node3" class="node"><title>Node3</title>
<g id="a_node3"><a xlink:href="classo2_1_1quality__control_1_1core_1_1RepositoryBenchmark.html" target="_top" xlink:title="{o2::quality_control\l::core::RepositoryBenchmark\n||+ RepositoryBenchmark()\l+ ~RepositoryBenchmark()\l# InitTask()\l# ConditionalRun()\l# emptyDatabase()\l# checkTimedOut()\l# createHisto()\l}">
<polygon fill="none" stroke="black" points="128,-0.5 128,-134.5 272,-134.5 272,-0.5 128,-0.5"/>
<text text-anchor="start" x="136" y="-122.5" font-family="Helvetica,sans-Serif" font-size="10.00">o2::quality_control</text>
<text text-anchor="middle" x="200" y="-111.5" font-family="Helvetica,sans-Serif" font-size="10.00">::core::RepositoryBenchmark</text>
<polyline fill="none" stroke="black" points="128,-104.5 272,-104.5 "/>
<text text-anchor="middle" x="200" y="-92.5" font-family="Helvetica,sans-Serif" font-size="10.00"> </text>
<polyline fill="none" stroke="black" points="128,-85.5 272,-85.5 "/>
<text text-anchor="start" x="136" y="-73.5" font-family="Helvetica,sans-Serif" font-size="10.00">+ RepositoryBenchmark()</text>
<text text-anchor="start" x="136" y="-62.5" font-family="Helvetica,sans-Serif" font-size="10.00">+ ~RepositoryBenchmark()</text>
<text text-anchor="start" x="136" y="-51.5" font-family="Helvetica,sans-Serif" font-size="10.00"># InitTask()</text>
<text text-anchor="start" x="136" y="-40.5" font-family="Helvetica,sans-Serif" font-size="10.00"># ConditionalRun()</text>
<text text-anchor="start" x="136" y="-29.5" font-family="Helvetica,sans-Serif" font-size="10.00"># emptyDatabase()</text>
<text text-anchor="start" x="136" y="-18.5" font-family="Helvetica,sans-Serif" font-size="10.00"># checkTimedOut()</text>
<text text-anchor="start" x="136" y="-7.5" font-family="Helvetica,sans-Serif" font-size="10.00"># createHisto()</text>
</a>
</g>
</g>
<!-- Node1&#45;&gt;Node3 -->
<g id="edge2" class="edge"><title>Node1&#45;&gt;Node3</title>
<path fill="none" stroke="midnightblue" d="M147.39,-162.55C152.287,-153.795 157.668,-144.175 163.062,-134.533"/>
<polygon fill="none" stroke="midnightblue" points="144.309,-160.888 142.481,-171.324 150.418,-164.306 144.309,-160.888"/>
</g>
</g>
</svg>
