<?xml version="1.0" encoding="UTF-8" standalone="no"?>
<!DOCTYPE svg PUBLIC "-//W3C//DTD SVG 1.1//EN"
 "http://www.w3.org/Graphics/SVG/1.1/DTD/svg11.dtd">
<!-- Generated by graphviz version 2.38.0 (20140413.2041)
 -->
<!-- Title: o2::quality_control::core::QcInfoLogger Pages: 1 -->
<svg width="114pt" height="193pt"
 viewBox="0.00 0.00 114.00 193.00" xmlns="http://www.w3.org/2000/svg" xmlns:xlink="http://www.w3.org/1999/xlink">
<g id="graph0" class="graph" transform="scale(1 1) rotate(0) translate(4 189)">
<title>o2::quality_control::core::QcInfoLogger</title>
<!-- Node1 -->
<g id="node1" class="node"><title>Node1</title>
<polygon fill="#bfbfbf" stroke="black" points="-7.10543e-15,-0.5 -7.10543e-15,-79.5 106,-79.5 106,-0.5 -7.10543e-15,-0.5"/>
<text text-anchor="start" x="8" y="-67.5" font-family="Helvetica,sans-Serif" font-size="10.00">o2::quality_control</text>
<text text-anchor="middle" x="53" y="-56.5" font-family="Helvetica,sans-Serif" font-size="10.00">::core::QcInfoLogger</text>
<polyline fill="none" stroke="black" points="-7.10543e-15,-49.5 106,-49.5 "/>
<text text-anchor="middle" x="53" y="-37.5" font-family="Helvetica,sans-Serif" font-size="10.00"> </text>
<polyline fill="none" stroke="black" points="-7.10543e-15,-30.5 106,-30.5 "/>
<text text-anchor="start" x="8" y="-18.5" font-family="Helvetica,sans-Serif" font-size="10.00">+ setFacility()</text>
<text text-anchor="start" x="8" y="-7.5" font-family="Helvetica,sans-Serif" font-size="10.00">+ GetInstance()</text>
</g>
<!-- Node2 -->
<g id="node2" class="node"><title>Node2</title>
<g id="a_node2"><a xlink:href="classAliceO2_1_1InfoLogger_1_1InfoLogger.html" target="_top" xlink:title="{AliceO2::InfoLogger\l::InfoLogger\n||}">
<polygon fill="none" stroke="black" points="1.5,-116.5 1.5,-184.5 104.5,-184.5 104.5,-116.5 1.5,-116.5"/>
<text text-anchor="start" x="9.5" y="-172.5" font-family="Helvetica,sans-Serif" font-size="10.00">AliceO2::InfoLogger</text>
<text text-anchor="middle" x="53" y="-161.5" font-family="Helvetica,sans-Serif" font-size="10.00">::InfoLogger</text>
<polyline fill="none" stroke="black" points="1.5,-154.5 104.5,-154.5 "/>
<text text-anchor="middle" x="53" y="-142.5" font-family="Helvetica,sans-Serif" font-size="10.00"> </text>
<polyline fill="none" stroke="black" points="1.5,-135.5 104.5,-135.5 "/>
<text text-anchor="middle" x="53" y="-123.5" font-family="Helvetica,sans-Serif" font-size="10.00"> </text>
</a>
</g>
</g>
<!-- Node2&#45;&gt;Node1 -->
<g id="edge1" class="edge"><title>Node2&#45;&gt;Node1</title>
<path fill="none" stroke="midnightblue" d="M53,-106.274C53,-97.4764 53,-88.2753 53,-79.6493"/>
<polygon fill="none" stroke="midnightblue" points="49.5001,-106.357 53,-116.357 56.5001,-106.357 49.5001,-106.357"/>
</g>
</g>
</svg>
