<?xml version="1.0" encoding="UTF-8" standalone="no"?>
<!DOCTYPE svg PUBLIC "-//W3C//DTD SVG 1.1//EN"
 "http://www.w3.org/Graphics/SVG/1.1/DTD/svg11.dtd">
<!-- Generated by graphviz version 2.38.0 (20140413.2041)
 -->
<!-- Title: o2::quality_control_modules::skeleton::SkeletonAggregator Pages: 1 -->
<svg width="185pt" height="376pt"
 viewBox="0.00 0.00 184.50 376.00" xmlns="http://www.w3.org/2000/svg" xmlns:xlink="http://www.w3.org/1999/xlink">
<g id="graph0" class="graph" transform="scale(1 1) rotate(0) translate(4 372)">
<title>o2::quality_control_modules::skeleton::SkeletonAggregator</title>
<!-- Node1 -->
<g id="node1" class="node"><title>Node1</title>
<polygon fill="#bfbfbf" stroke="black" points="19.5,-0.5 19.5,-101.5 129.5,-101.5 129.5,-0.5 19.5,-0.5"/>
<text text-anchor="start" x="27.5" y="-89.5" font-family="Helvetica,sans-Serif" font-size="10.00">o2::quality_control</text>
<text text-anchor="start" x="27.5" y="-78.5" font-family="Helvetica,sans-Serif" font-size="10.00">_modules::skeleton::</text>
<text text-anchor="middle" x="74.5" y="-67.5" font-family="Helvetica,sans-Serif" font-size="10.00">SkeletonAggregator</text>
<polyline fill="none" stroke="black" points="19.5,-60.5 129.5,-60.5 "/>
<text text-anchor="middle" x="74.5" y="-48.5" font-family="Helvetica,sans-Serif" font-size="10.00"> </text>
<polyline fill="none" stroke="black" points="19.5,-41.5 129.5,-41.5 "/>
<text text-anchor="start" x="27.5" y="-29.5" font-family="Helvetica,sans-Serif" font-size="10.00">+ configure()</text>
<text text-anchor="start" x="27.5" y="-18.5" font-family="Helvetica,sans-Serif" font-size="10.00">+ aggregate()</text>
<text text-anchor="start" x="27.5" y="-7.5" font-family="Helvetica,sans-Serif" font-size="10.00">+ ClassDefOverride()</text>
</g>
<!-- Node2 -->
<g id="node2" class="node"><title>Node2</title>
<g id="a_node2"><a xlink:href="classo2_1_1quality__control_1_1checker_1_1AggregatorInterface.html" target="_top" xlink:title="Skeleton of a quality aggregator user algorithm. ">
<polygon fill="none" stroke="black" points="-1.42109e-14,-139.5 -1.42109e-14,-251.5 149,-251.5 149,-139.5 -1.42109e-14,-139.5"/>
<text text-anchor="start" x="8" y="-239.5" font-family="Helvetica,sans-Serif" font-size="10.00">o2::quality_control</text>
<text text-anchor="middle" x="74.5" y="-228.5" font-family="Helvetica,sans-Serif" font-size="10.00">::checker::AggregatorInterface</text>
<polyline fill="none" stroke="black" points="-1.42109e-14,-221.5 149,-221.5 "/>
<text text-anchor="middle" x="74.5" y="-209.5" font-family="Helvetica,sans-Serif" font-size="10.00"> </text>
<polyline fill="none" stroke="black" points="-1.42109e-14,-202.5 149,-202.5 "/>
<text text-anchor="start" x="8" y="-190.5" font-family="Helvetica,sans-Serif" font-size="10.00">+ AggregatorInterface()</text>
<text text-anchor="start" x="8" y="-179.5" font-family="Helvetica,sans-Serif" font-size="10.00">+ ~AggregatorInterface()</text>
<text text-anchor="start" x="8" y="-168.5" font-family="Helvetica,sans-Serif" font-size="10.00">+ configure()</text>
<text text-anchor="start" x="8" y="-157.5" font-family="Helvetica,sans-Serif" font-size="10.00">+ aggregate()</text>
<text text-anchor="start" x="8" y="-146.5" font-family="Helvetica,sans-Serif" font-size="10.00">+ setCustomParameters()</text>
</a>
</g>
</g>
<!-- Node2&#45;&gt;Node1 -->
<g id="edge1" class="edge"><title>Node2&#45;&gt;Node1</title>
<path fill="none" stroke="midnightblue" d="M74.5,-129.134C74.5,-119.957 74.5,-110.65 74.5,-101.826"/>
<polygon fill="none" stroke="midnightblue" points="71.0001,-129.406 74.5,-139.406 78.0001,-129.406 71.0001,-129.406"/>
</g>
<!-- Node3 -->
<g id="node3" class="node"><title>Node3</title>
<polygon fill="none" stroke="#bfbfbf" points="21.5,-299.5 21.5,-367.5 127.5,-367.5 127.5,-299.5 21.5,-299.5"/>
<text text-anchor="start" x="29.5" y="-355.5" font-family="Helvetica,sans-Serif" font-size="10.00">unordered_map&lt; std</text>
<text text-anchor="middle" x="74.5" y="-344.5" font-family="Helvetica,sans-Serif" font-size="10.00">::string, std::string &gt;</text>
<polyline fill="none" stroke="#bfbfbf" points="21.5,-337.5 127.5,-337.5 "/>
<text text-anchor="middle" x="74.5" y="-325.5" font-family="Helvetica,sans-Serif" font-size="10.00"> </text>
<polyline fill="none" stroke="#bfbfbf" points="21.5,-318.5 127.5,-318.5 "/>
<text text-anchor="middle" x="74.5" y="-306.5" font-family="Helvetica,sans-Serif" font-size="10.00"> </text>
</g>
<!-- Node3&#45;&gt;Node2 -->
<g id="edge2" class="edge"><title>Node3&#45;&gt;Node2</title>
<path fill="none" stroke="#404040" d="M74.5,-299.231C74.5,-288.497 74.5,-276.184 74.5,-263.898"/>
<polygon fill="none" stroke="#404040" points="74.5001,-263.68 70.5,-257.68 74.5,-251.68 78.5,-257.68 74.5001,-263.68"/>
<text text-anchor="middle" x="125.5" y="-273" font-family="Helvetica,sans-Serif" font-size="10.00"> #mCustomParameters</text>
</g>
</g>
</svg>
