<?xml version="1.0" encoding="UTF-8" standalone="no"?>
<!DOCTYPE svg PUBLIC "-//W3C//DTD SVG 1.1//EN"
 "http://www.w3.org/Graphics/SVG/1.1/DTD/svg11.dtd">
<!-- Generated by graphviz version 2.38.0 (20140413.2041)
 -->
<!-- Title: o2::quality_control_modules::tof::CompressedDataDecoder Pages: 1 -->
<!--zoomable 325 -->
<svg id="main" version="1.1" xmlns="http://www.w3.org/2000/svg" xmlns:xlink="http://www.w3.org/1999/xlink" xml:space="preserve" onload="init(evt)">
<style type="text/css"><![CDATA[
.edge:hover path { stroke: red; }
.edge:hover polygon { stroke: red; fill: red; }
]]></style>
<script type="text/javascript"><![CDATA[
var edges = document.getElementsByTagName('g');
if (edges && edges.length) {
  for (var i=0;i<edges.length;i++) {
    if (edges[i].id.substr(0,4)=='edge') {
      edges[i].setAttribute('class','edge');
    }
  }
}
]]></script>
        <defs>
                <circle id="rim" cx="0" cy="0" r="7"/>
                <circle id="rim2" cx="0" cy="0" r="3.5"/>
                <g id="zoomPlus">
                        <use xlink:href="#rim" fill="#404040">
                                <set attributeName="fill" to="#808080" begin="zoomplus.mouseover" end="zoomplus.mouseout"/>
                        </use>
                        <path d="M-4,0h8M0,-4v8" fill="none" stroke="white" stroke-width="1.5" pointer-events="none"/>
                </g>
                <g id="zoomMin">
                        <use xlink:href="#rim" fill="#404040">
                                <set attributeName="fill" to="#808080" begin="zoomminus.mouseover" end="zoomminus.mouseout"/>
                        </use>
                        <path d="M-4,0h8" fill="none" stroke="white" stroke-width="1.5" pointer-events="none"/>
                </g>
                <g id="dirArrow">
                        <path fill="none" stroke="white" stroke-width="1.5" d="M0,-3.0v7 M-2.5,-0.5L0,-3.0L2.5,-0.5"/>
                </g>
               <g id="resetDef">
                       <use xlink:href="#rim2" fill="#404040">
                               <set attributeName="fill" to="#808080" begin="reset.mouseover" end="reset.mouseout"/>
                       </use>
               </g>
        </defs>

<script type="text/javascript">
var viewWidth = 522;
var viewHeight = 325;
var sectionId = 'dynsection-1';
</script>
<script xlink:href="svgpan.js"/>
<svg id="graph" class="graph">
<g id="viewport">
<title>o2::quality_control_modules::tof::CompressedDataDecoder</title>
<!-- Node1 -->
<g id="node1" class="node"><title>Node1</title>
<polygon fill="#bfbfbf" stroke="black" points="196,-0.5 196,-123.5 354,-123.5 354,-0.5 196,-0.5"/>
<text text-anchor="start" x="204" y="-111.5" font-family="Helvetica,sans-Serif" font-size="10.00">o2::quality_control</text>
<text text-anchor="start" x="204" y="-100.5" font-family="Helvetica,sans-Serif" font-size="10.00">_modules::tof::CompressedData</text>
<text text-anchor="middle" x="275" y="-89.5" font-family="Helvetica,sans-Serif" font-size="10.00">Decoder</text>
<polyline fill="none" stroke="black" points="196,-82.5 354,-82.5 "/>
<text text-anchor="middle" x="275" y="-70.5" font-family="Helvetica,sans-Serif" font-size="10.00"> </text>
<polyline fill="none" stroke="black" points="196,-63.5 354,-63.5 "/>
<text text-anchor="start" x="204" y="-51.5" font-family="Helvetica,sans-Serif" font-size="10.00">+ CompressedDataDecoder()</text>
<text text-anchor="start" x="204" y="-40.5" font-family="Helvetica,sans-Serif" font-size="10.00">+ ~CompressedDataDecoder()</text>
<text text-anchor="start" x="204" y="-29.5" font-family="Helvetica,sans-Serif" font-size="10.00">+ decode()</text>
<text text-anchor="start" x="204" y="-18.5" font-family="Helvetica,sans-Serif" font-size="10.00">+ initHistograms()</text>
<text text-anchor="start" x="204" y="-7.5" font-family="Helvetica,sans-Serif" font-size="10.00">+ resetHistograms()</text>
</g>
<!-- Node2 -->
<g id="node2" class="node"><title>Node2</title>
<g id="a_node2"><a xlink:href="classDecoderBase.html" target="_top" xlink:title="{DecoderBase\n||}">
<polygon fill="none" stroke="black" points="0,-254 0,-311 76,-311 76,-254 0,-254"/>
<text text-anchor="middle" x="38" y="-299" font-family="Helvetica,sans-Serif" font-size="10.00">DecoderBase</text>
<polyline fill="none" stroke="black" points="0,-292 76,-292 "/>
<text text-anchor="middle" x="38" y="-280" font-family="Helvetica,sans-Serif" font-size="10.00"> </text>
<polyline fill="none" stroke="black" points="0,-273 76,-273 "/>
<text text-anchor="middle" x="38" y="-261" font-family="Helvetica,sans-Serif" font-size="10.00"> </text>
</a>
</g>
</g>
<!-- Node2&#45;&gt;Node1 -->
<g id="edge1" class="edge"><title>Node2&#45;&gt;Node1</title>
<path fill="none" stroke="midnightblue" d="M70.2257,-246.3C97.283,-217.339 137.435,-175.721 175,-142 181.833,-135.866 189.078,-129.645 196.423,-123.526"/>
<polygon fill="none" stroke="midnightblue" points="67.5468,-244.041 63.2969,-253.746 72.6714,-248.809 67.5468,-244.041"/>
</g>
<!-- Node3 -->
<g id="node3" class="node"><title>Node3</title>
<polygon fill="none" stroke="#bfbfbf" points="94,-248.5 94,-316.5 208,-316.5 208,-248.5 94,-248.5"/>
<text text-anchor="start" x="102" y="-304.5" font-family="Helvetica,sans-Serif" font-size="10.00">map&lt; std::string, std</text>
<text text-anchor="middle" x="151" y="-293.5" font-family="Helvetica,sans-Serif" font-size="10.00">::shared_ptr&lt; TH1 &gt; &gt;</text>
<polyline fill="none" stroke="#bfbfbf" points="94,-286.5 208,-286.5 "/>
<text text-anchor="middle" x="151" y="-274.5" font-family="Helvetica,sans-Serif" font-size="10.00"> </text>
<polyline fill="none" stroke="#bfbfbf" points="94,-267.5 208,-267.5 "/>
<text text-anchor="middle" x="151" y="-255.5" font-family="Helvetica,sans-Serif" font-size="10.00"> </text>
</g>
<!-- Node3&#45;&gt;Node1 -->
<g id="edge2" class="edge"><title>Node3&#45;&gt;Node1</title>
<path fill="none" stroke="#404040" d="M167.645,-248.416C182.205,-219.902 204.216,-177.801 225,-142 226.533,-139.359 228.111,-136.68 229.719,-133.982"/>
<polygon fill="none" stroke="#404040" points="229.83,-133.797 229.509,-126.593 236.036,-123.526 236.357,-130.73 229.83,-133.797"/>
<text text-anchor="middle" x="248" y="-183.5" font-family="Helvetica,sans-Serif" font-size="10.00"> +mHistos</text>
</g>
<!-- Node4 -->
<g id="node4" class="node"><title>Node4</title>
<polygon fill="none" stroke="#bfbfbf" points="226.5,-254 226.5,-311 331.5,-311 331.5,-254 226.5,-254"/>
<text text-anchor="middle" x="279" y="-299" font-family="Helvetica,sans-Serif" font-size="10.00">shared_ptr&lt; TH2F &gt;</text>
<polyline fill="none" stroke="#bfbfbf" points="226.5,-292 331.5,-292 "/>
<text text-anchor="middle" x="279" y="-280" font-family="Helvetica,sans-Serif" font-size="10.00"> </text>
<polyline fill="none" stroke="#bfbfbf" points="226.5,-273 331.5,-273 "/>
<text text-anchor="middle" x="279" y="-261" font-family="Helvetica,sans-Serif" font-size="10.00"> </text>
</g>
<!-- Node4&#45;&gt;Node1 -->
<g id="edge3" class="edge"><title>Node4&#45;&gt;Node1</title>
<path fill="none" stroke="#404040" d="M277.131,-253.983C276.677,-246.23 276.25,-237.788 276,-230 275.011,-199.192 274.671,-165.171 274.612,-135.919"/>
<polygon fill="none" stroke="#404040" points="274.612,-135.698 270.607,-129.701 274.602,-123.698 278.607,-129.695 274.612,-135.698"/>
<text text-anchor="middle" x="313" y="-205.5" font-family="Helvetica,sans-Serif" font-size="10.00"> +mOrbitID</text>
<text text-anchor="middle" x="313" y="-194.5" font-family="Helvetica,sans-Serif" font-size="10.00">+mError</text>
<text text-anchor="middle" x="313" y="-183.5" font-family="Helvetica,sans-Serif" font-size="10.00">+mSlotPartMask</text>
<text text-anchor="middle" x="313" y="-172.5" font-family="Helvetica,sans-Serif" font-size="10.00">+mDiagnostic</text>
<text text-anchor="middle" x="313" y="-161.5" font-family="Helvetica,sans-Serif" font-size="10.00">+mTest</text>
</g>
<!-- Node5 -->
<g id="node5" class="node"><title>Node5</title>
<polygon fill="none" stroke="#bfbfbf" points="354,-254 354,-311 390,-311 390,-254 354,-254"/>
<text text-anchor="middle" x="372" y="-299" font-family="Helvetica,sans-Serif" font-size="10.00">Int_t</text>
<polyline fill="none" stroke="#bfbfbf" points="354,-292 390,-292 "/>
<text text-anchor="middle" x="372" y="-280" font-family="Helvetica,sans-Serif" font-size="10.00"> </text>
<polyline fill="none" stroke="#bfbfbf" points="354,-273 390,-273 "/>
<text text-anchor="middle" x="372" y="-261" font-family="Helvetica,sans-Serif" font-size="10.00"> </text>
</g>
<!-- Node5&#45;&gt;Node1 -->
<g id="edge4" class="edge"><title>Node5&#45;&gt;Node1</title>
<path fill="none" stroke="#404040" d="M372.394,-253.838C371.756,-224.6 367.668,-177.847 350,-142 348.647,-139.254 347.165,-136.54 345.575,-133.863"/>
<polygon fill="none" stroke="#404040" points="345.528,-133.791 338.897,-130.957 338.961,-123.747 345.593,-126.58 345.528,-133.791"/>
<text text-anchor="middle" x="393" y="-183.5" font-family="Helvetica,sans-Serif" font-size="10.00"> +rdhread</text>
</g>
<!-- Node6 -->
<g id="node6" class="node"><title>Node6</title>
<polygon fill="none" stroke="#bfbfbf" points="408.5,-254 408.5,-311 513.5,-311 513.5,-254 408.5,-254"/>
<text text-anchor="middle" x="461" y="-299" font-family="Helvetica,sans-Serif" font-size="10.00">shared_ptr&lt; TH1F &gt;</text>
<polyline fill="none" stroke="#bfbfbf" points="408.5,-292 513.5,-292 "/>
<text text-anchor="middle" x="461" y="-280" font-family="Helvetica,sans-Serif" font-size="10.00"> </text>
<polyline fill="none" stroke="#bfbfbf" points="408.5,-273 513.5,-273 "/>
<text text-anchor="middle" x="461" y="-261" font-family="Helvetica,sans-Serif" font-size="10.00"> </text>
</g>
<!-- Node6&#45;&gt;Node1 -->
<g id="edge5" class="edge"><title>Node6&#45;&gt;Node1</title>
<path fill="none" stroke="#404040" d="M458.597,-253.727C454.677,-223.314 444.456,-174.547 418,-142 403.745,-124.463 384.51,-110.19 364.777,-98.8475"/>
<polygon fill="none" stroke="#404040" points="364.642,-98.7739 357.459,-99.4031 354.115,-93.014 361.299,-92.3849 364.642,-98.7739"/>
<text text-anchor="middle" x="481.5" y="-222" font-family="Helvetica,sans-Serif" font-size="10.00"> +mNTests</text>
<text text-anchor="middle" x="481.5" y="-211" font-family="Helvetica,sans-Serif" font-size="10.00">+mNErrors</text>
<text text-anchor="middle" x="481.5" y="-200" font-family="Helvetica,sans-Serif" font-size="10.00">+mIndexE</text>
<text text-anchor="middle" x="481.5" y="-189" font-family="Helvetica,sans-Serif" font-size="10.00">+mTOT</text>
<text text-anchor="middle" x="481.5" y="-178" font-family="Helvetica,sans-Serif" font-size="10.00">+mErrorBits</text>
<text text-anchor="middle" x="481.5" y="-167" font-family="Helvetica,sans-Serif" font-size="10.00">+mTime</text>
<text text-anchor="middle" x="481.5" y="-156" font-family="Helvetica,sans-Serif" font-size="10.00">+mHits</text>
<text text-anchor="middle" x="481.5" y="-145" font-family="Helvetica,sans-Serif" font-size="10.00">+mTimeBC</text>
</g>
</g>
</svg>
        <g id="navigator" transform="translate(0 0)" fill="#404254">
                <rect fill="#f2f5e9" fill-opacity="0.5" stroke="#606060" stroke-width=".5" x="0" y="0" width="60" height="60"/>
                <use id="zoomplus" xlink:href="#zoomPlus" x="17" y="9" onmousedown="handleZoom(evt,'in')"/>
                <use id="zoomminus" xlink:href="#zoomMin" x="42" y="9" onmousedown="handleZoom(evt,'out')"/>
                <use id="reset" xlink:href="#resetDef" x="30" y="36" onmousedown="handleReset()"/>
                <g id="arrowUp" xlink:href="#dirArrow" transform="translate(30 24)" onmousedown="handlePan(0,-1)">
                  <use xlink:href="#rim" fill="#404040">
                        <set attributeName="fill" to="#808080" begin="arrowUp.mouseover" end="arrowUp.mouseout"/>
                  </use>
                  <path fill="none" stroke="white" stroke-width="1.5" d="M0,-3.0v7 M-2.5,-0.5L0,-3.0L2.5,-0.5"/>
                </g>
                <g id="arrowRight" xlink:href="#dirArrow" transform="rotate(90) translate(36 -43)" onmousedown="handlePan(1,0)">
                  <use xlink:href="#rim" fill="#404040">
                        <set attributeName="fill" to="#808080" begin="arrowRight.mouseover" end="arrowRight.mouseout"/>
                  </use>
                  <path fill="none" stroke="white" stroke-width="1.5" d="M0,-3.0v7 M-2.5,-0.5L0,-3.0L2.5,-0.5"/>
                </g>
                <g id="arrowDown" xlink:href="#dirArrow" transform="rotate(180) translate(-30 -48)" onmousedown="handlePan(0,1)">
                  <use xlink:href="#rim" fill="#404040">
                        <set attributeName="fill" to="#808080" begin="arrowDown.mouseover" end="arrowDown.mouseout"/>
                  </use>
                  <path fill="none" stroke="white" stroke-width="1.5" d="M0,-3.0v7 M-2.5,-0.5L0,-3.0L2.5,-0.5"/>
                </g>
                <g id="arrowLeft" xlink:href="#dirArrow" transform="rotate(270) translate(-36 17)" onmousedown="handlePan(-1,0)">
                  <use xlink:href="#rim" fill="#404040">
                        <set attributeName="fill" to="#808080" begin="arrowLeft.mouseover" end="arrowLeft.mouseout"/>
                  </use>
                  <path fill="none" stroke="white" stroke-width="1.5" d="M0,-3.0v7 M-2.5,-0.5L0,-3.0L2.5,-0.5"/>
                </g>
        </g>
        <svg viewBox="0 0 15 15" width="100%" height="30px" preserveAspectRatio="xMaxYMin meet">
         <g id="arrow_out" transform="scale(0.3 0.3)">
          <a xlink:href="classo2_1_1quality__control__modules_1_1tof_1_1CompressedDataDecoder__coll__graph_org.svg" target="_base">
           <rect id="button" ry="5" rx="5" y="6" x="6" height="38" width="38"
                fill="#f2f5e9" fill-opacity="0.5" stroke="#606060" stroke-width="1.0"/>
           <path id="arrow"
             d="M 11.500037,31.436501 C 11.940474,20.09759 22.043105,11.32322 32.158766,21.979434 L 37.068811,17.246167 C 37.068811,17.246167 37.088388,32 37.088388,32 L 22.160133,31.978069 C 22.160133,31.978069 26.997745,27.140456 26.997745,27.140456 C 18.528582,18.264221 13.291696,25.230495 11.500037,31.436501 z"
             style="fill:#404040;"/>
          </a>
         </g>
        </svg>
</svg>
