<?xml version="1.0" encoding="UTF-8" standalone="no"?>
<!DOCTYPE svg PUBLIC "-//W3C//DTD SVG 1.1//EN"
 "http://www.w3.org/Graphics/SVG/1.1/DTD/svg11.dtd">
<!-- Generated by graphviz version 2.38.0 (20140413.2041)
 -->
<!-- Title: o2::quality_control_modules::emcal::DigitCheck Pages: 1 -->
<svg width="183pt" height="453pt"
 viewBox="0.00 0.00 183.00 453.00" xmlns="http://www.w3.org/2000/svg" xmlns:xlink="http://www.w3.org/1999/xlink">
<g id="graph0" class="graph" transform="scale(1 1) rotate(0) translate(4 449)">
<title>o2::quality_control_modules::emcal::DigitCheck</title>
<!-- Node1 -->
<g id="node1" class="node"><title>Node1</title>
<polygon fill="#bfbfbf" stroke="black" points="0,-0.5 0,-134.5 146,-134.5 146,-0.5 0,-0.5"/>
<text text-anchor="start" x="8" y="-122.5" font-family="Helvetica,sans-Serif" font-size="10.00">o2::quality_control</text>
<text text-anchor="middle" x="73" y="-111.5" font-family="Helvetica,sans-Serif" font-size="10.00">_modules::emcal::DigitCheck</text>
<polyline fill="none" stroke="black" points="0,-104.5 146,-104.5 "/>
<text text-anchor="middle" x="73" y="-92.5" font-family="Helvetica,sans-Serif" font-size="10.00"> </text>
<polyline fill="none" stroke="black" points="0,-85.5 146,-85.5 "/>
<text text-anchor="start" x="8" y="-73.5" font-family="Helvetica,sans-Serif" font-size="10.00">+ DigitCheck()</text>
<text text-anchor="start" x="8" y="-62.5" font-family="Helvetica,sans-Serif" font-size="10.00">+ ~DigitCheck()</text>
<text text-anchor="start" x="8" y="-51.5" font-family="Helvetica,sans-Serif" font-size="10.00">+ configure()</text>
<text text-anchor="start" x="8" y="-40.5" font-family="Helvetica,sans-Serif" font-size="10.00">+ check()</text>
<text text-anchor="start" x="8" y="-29.5" font-family="Helvetica,sans-Serif" font-size="10.00">+ beautify()</text>
<text text-anchor="start" x="8" y="-18.5" font-family="Helvetica,sans-Serif" font-size="10.00">+ getAcceptedType()</text>
<text text-anchor="start" x="8" y="-7.5" font-family="Helvetica,sans-Serif" font-size="10.00">+ ClassDefOverride()</text>
</g>
<!-- Node2 -->
<g id="node2" class="node"><title>Node2</title>
<g id="a_node2"><a xlink:href="classo2_1_1quality__control_1_1checker_1_1CheckInterface.html" target="_top" xlink:title="Skeleton of a check. ">
<polygon fill="none" stroke="black" points="8,-172.5 8,-328.5 138,-328.5 138,-172.5 8,-172.5"/>
<text text-anchor="start" x="16" y="-316.5" font-family="Helvetica,sans-Serif" font-size="10.00">o2::quality_control</text>
<text text-anchor="middle" x="73" y="-305.5" font-family="Helvetica,sans-Serif" font-size="10.00">::checker::CheckInterface</text>
<polyline fill="none" stroke="black" points="8,-298.5 138,-298.5 "/>
<text text-anchor="middle" x="73" y="-286.5" font-family="Helvetica,sans-Serif" font-size="10.00"> </text>
<polyline fill="none" stroke="black" points="8,-279.5 138,-279.5 "/>
<text text-anchor="start" x="16" y="-267.5" font-family="Helvetica,sans-Serif" font-size="10.00">+ CheckInterface()</text>
<text text-anchor="start" x="16" y="-256.5" font-family="Helvetica,sans-Serif" font-size="10.00">+ ~CheckInterface()</text>
<text text-anchor="start" x="16" y="-245.5" font-family="Helvetica,sans-Serif" font-size="10.00">+ configure()</text>
<text text-anchor="start" x="16" y="-234.5" font-family="Helvetica,sans-Serif" font-size="10.00">+ check()</text>
<text text-anchor="start" x="16" y="-223.5" font-family="Helvetica,sans-Serif" font-size="10.00">+ beautify()</text>
<text text-anchor="start" x="16" y="-212.5" font-family="Helvetica,sans-Serif" font-size="10.00">+ getAcceptedType()</text>
<text text-anchor="start" x="16" y="-201.5" font-family="Helvetica,sans-Serif" font-size="10.00">+ isObjectCheckable()</text>
<text text-anchor="start" x="16" y="-190.5" font-family="Helvetica,sans-Serif" font-size="10.00">+ isObjectCheckable()</text>
<text text-anchor="start" x="16" y="-179.5" font-family="Helvetica,sans-Serif" font-size="10.00">+ setCustomParameters()</text>
</a>
</g>
</g>
<!-- Node2&#45;&gt;Node1 -->
<g id="edge1" class="edge"><title>Node2&#45;&gt;Node1</title>
<path fill="none" stroke="midnightblue" d="M73,-162.376C73,-153.033 73,-143.641 73,-134.601"/>
<polygon fill="none" stroke="midnightblue" points="69.5001,-162.477 73,-172.477 76.5001,-162.477 69.5001,-162.477"/>
</g>
<!-- Node3 -->
<g id="node3" class="node"><title>Node3</title>
<polygon fill="none" stroke="#bfbfbf" points="20,-376.5 20,-444.5 126,-444.5 126,-376.5 20,-376.5"/>
<text text-anchor="start" x="28" y="-432.5" font-family="Helvetica,sans-Serif" font-size="10.00">unordered_map&lt; std</text>
<text text-anchor="middle" x="73" y="-421.5" font-family="Helvetica,sans-Serif" font-size="10.00">::string, std::string &gt;</text>
<polyline fill="none" stroke="#bfbfbf" points="20,-414.5 126,-414.5 "/>
<text text-anchor="middle" x="73" y="-402.5" font-family="Helvetica,sans-Serif" font-size="10.00"> </text>
<polyline fill="none" stroke="#bfbfbf" points="20,-395.5 126,-395.5 "/>
<text text-anchor="middle" x="73" y="-383.5" font-family="Helvetica,sans-Serif" font-size="10.00"> </text>
</g>
<!-- Node3&#45;&gt;Node2 -->
<g id="edge2" class="edge"><title>Node3&#45;&gt;Node2</title>
<path fill="none" stroke="#404040" d="M73,-376.378C73,-365.749 73,-353.424 73,-340.742"/>
<polygon fill="none" stroke="#404040" points="73.0001,-340.516 69,-334.516 73,-328.516 77,-334.516 73.0001,-340.516"/>
<text text-anchor="middle" x="124" y="-350" font-family="Helvetica,sans-Serif" font-size="10.00"> #mCustomParameters</text>
</g>
</g>
</svg>
