<?xml version="1.0" encoding="UTF-8" standalone="no"?>
<!DOCTYPE svg PUBLIC "-//W3C//DTD SVG 1.1//EN"
 "http://www.w3.org/Graphics/SVG/1.1/DTD/svg11.dtd">
<!-- Generated by graphviz version 2.38.0 (20140413.2041)
 -->
<!-- Title: o2::quality_control_modules::common::TH2Reductor Pages: 1 -->
<svg width="458pt" height="369pt"
 viewBox="0.00 0.00 458.00 369.00" xmlns="http://www.w3.org/2000/svg" xmlns:xlink="http://www.w3.org/1999/xlink">
<g id="graph0" class="graph" transform="scale(1 1) rotate(0) translate(4 365)">
<title>o2::quality_control_modules::common::TH2Reductor</title>
<!-- Node1 -->
<g id="node1" class="node"><title>Node1</title>
<polygon fill="#bfbfbf" stroke="black" points="178.5,-0.5 178.5,-112.5 345.5,-112.5 345.5,-0.5 178.5,-0.5"/>
<text text-anchor="start" x="186.5" y="-100.5" font-family="Helvetica,sans-Serif" font-size="10.00">o2::quality_control</text>
<text text-anchor="middle" x="262" y="-89.5" font-family="Helvetica,sans-Serif" font-size="10.00">_modules::common::TH2Reductor</text>
<polyline fill="none" stroke="black" points="178.5,-82.5 345.5,-82.5 "/>
<text text-anchor="middle" x="262" y="-70.5" font-family="Helvetica,sans-Serif" font-size="10.00"> </text>
<polyline fill="none" stroke="black" points="178.5,-63.5 345.5,-63.5 "/>
<text text-anchor="start" x="186.5" y="-51.5" font-family="Helvetica,sans-Serif" font-size="10.00">+ TH2Reductor()</text>
<text text-anchor="start" x="186.5" y="-40.5" font-family="Helvetica,sans-Serif" font-size="10.00">+ ~TH2Reductor()</text>
<text text-anchor="start" x="186.5" y="-29.5" font-family="Helvetica,sans-Serif" font-size="10.00">+ getBranchAddress()</text>
<text text-anchor="start" x="186.5" y="-18.5" font-family="Helvetica,sans-Serif" font-size="10.00">+ getBranchLeafList()</text>
<text text-anchor="start" x="186.5" y="-7.5" font-family="Helvetica,sans-Serif" font-size="10.00">+ update()</text>
</g>
<!-- Node2 -->
<g id="node2" class="node"><title>Node2</title>
<g id="a_node2"><a xlink:href="classo2_1_1quality__control_1_1postprocessing_1_1Reductor.html" target="_top" xlink:title="An interface for storing data derived from QC objects into a TTree. ">
<polygon fill="none" stroke="black" points="0,-248.5 0,-360.5 134,-360.5 134,-248.5 0,-248.5"/>
<text text-anchor="start" x="8" y="-348.5" font-family="Helvetica,sans-Serif" font-size="10.00">o2::quality_control</text>
<text text-anchor="middle" x="67" y="-337.5" font-family="Helvetica,sans-Serif" font-size="10.00">::postprocessing::Reductor</text>
<polyline fill="none" stroke="black" points="0,-330.5 134,-330.5 "/>
<text text-anchor="middle" x="67" y="-318.5" font-family="Helvetica,sans-Serif" font-size="10.00"> </text>
<polyline fill="none" stroke="black" points="0,-311.5 134,-311.5 "/>
<text text-anchor="start" x="8" y="-299.5" font-family="Helvetica,sans-Serif" font-size="10.00">+ Reductor()</text>
<text text-anchor="start" x="8" y="-288.5" font-family="Helvetica,sans-Serif" font-size="10.00">+ ~Reductor()</text>
<text text-anchor="start" x="8" y="-277.5" font-family="Helvetica,sans-Serif" font-size="10.00">+ getBranchAddress()</text>
<text text-anchor="start" x="8" y="-266.5" font-family="Helvetica,sans-Serif" font-size="10.00">+ getBranchLeafList()</text>
<text text-anchor="start" x="8" y="-255.5" font-family="Helvetica,sans-Serif" font-size="10.00">+ update()</text>
</a>
</g>
</g>
<!-- Node2&#45;&gt;Node1 -->
<g id="edge1" class="edge"><title>Node2&#45;&gt;Node1</title>
<path fill="none" stroke="midnightblue" d="M117.303,-240.041C148.594,-200.566 188.434,-150.306 218.384,-112.523"/>
<polygon fill="none" stroke="midnightblue" points="114.231,-238.282 110.762,-248.293 119.717,-242.63 114.231,-238.282"/>
</g>
<!-- Node3 -->
<g id="node3" class="node"><title>Node3</title>
<polygon fill="none" stroke="#bfbfbf" points="152,-276 152,-333 252,-333 252,-276 152,-276"/>
<text text-anchor="middle" x="202" y="-321" font-family="Helvetica,sans-Serif" font-size="10.00">anonymous:+sums</text>
<polyline fill="none" stroke="#bfbfbf" points="152,-314 252,-314 "/>
<text text-anchor="middle" x="202" y="-302" font-family="Helvetica,sans-Serif" font-size="10.00"> </text>
<polyline fill="none" stroke="#bfbfbf" points="152,-295 252,-295 "/>
<text text-anchor="middle" x="202" y="-283" font-family="Helvetica,sans-Serif" font-size="10.00"> </text>
</g>
<!-- Node3&#45;&gt;Node1 -->
<g id="edge2" class="edge"><title>Node3&#45;&gt;Node1</title>
<path fill="none" stroke="#404040" d="M208.766,-275.759C217.628,-239.425 233.46,-174.516 245.562,-124.897"/>
<polygon fill="none" stroke="#404040" points="245.63,-124.618 243.165,-117.841 248.473,-112.96 250.937,-119.737 245.63,-124.618"/>
<text text-anchor="middle" x="260" y="-178" font-family="Helvetica,sans-Serif" font-size="10.00"> +sums</text>
</g>
<!-- Node4 -->
<g id="node4" class="node"><title>Node4</title>
<polygon fill="none" stroke="#bfbfbf" points="270.5,-276 270.5,-333 375.5,-333 375.5,-276 270.5,-276"/>
<text text-anchor="middle" x="323" y="-321" font-family="Helvetica,sans-Serif" font-size="10.00">anonymous:+named</text>
<polyline fill="none" stroke="#bfbfbf" points="270.5,-314 375.5,-314 "/>
<text text-anchor="middle" x="323" y="-302" font-family="Helvetica,sans-Serif" font-size="10.00"> </text>
<polyline fill="none" stroke="#bfbfbf" points="270.5,-295 375.5,-295 "/>
<text text-anchor="middle" x="323" y="-283" font-family="Helvetica,sans-Serif" font-size="10.00"> </text>
</g>
<!-- Node4&#45;&gt;Node1 -->
<g id="edge3" class="edge"><title>Node4&#45;&gt;Node1</title>
<path fill="none" stroke="#404040" d="M316.427,-275.985C308.26,-241.914 293.83,-182.122 281,-131 280.47,-128.887 279.929,-126.74 279.38,-124.573"/>
<polygon fill="none" stroke="#404040" points="279.36,-124.492 274.004,-119.664 276.401,-112.863 281.757,-117.691 279.36,-124.492"/>
<text text-anchor="middle" x="325.5" y="-178" font-family="Helvetica,sans-Serif" font-size="10.00"> +named</text>
</g>
<!-- Node5 -->
<g id="node5" class="node"><title>Node5</title>
<polygon fill="none" stroke="#bfbfbf" points="394,-276 394,-333 450,-333 450,-276 394,-276"/>
<text text-anchor="middle" x="422" y="-321" font-family="Helvetica,sans-Serif" font-size="10.00">Double_t</text>
<polyline fill="none" stroke="#bfbfbf" points="394,-314 450,-314 "/>
<text text-anchor="middle" x="422" y="-302" font-family="Helvetica,sans-Serif" font-size="10.00"> </text>
<polyline fill="none" stroke="#bfbfbf" points="394,-295 450,-295 "/>
<text text-anchor="middle" x="422" y="-283" font-family="Helvetica,sans-Serif" font-size="10.00"> </text>
</g>
<!-- Node5&#45;&gt;Node1 -->
<g id="edge4" class="edge"><title>Node5&#45;&gt;Node1</title>
<path fill="none" stroke="#404040" d="M414.657,-275.766C404.221,-239.877 382.556,-176.56 349,-131 346.655,-127.816 344.145,-124.681 341.511,-121.606"/>
<polygon fill="none" stroke="#404040" points="341.361,-121.442 334.362,-119.705 333.274,-112.577 340.273,-114.314 341.361,-121.442"/>
<text text-anchor="middle" x="423" y="-222" font-family="Helvetica,sans-Serif" font-size="10.00"> +sumwy2</text>
<text text-anchor="middle" x="423" y="-211" font-family="Helvetica,sans-Serif" font-size="10.00">+sumw</text>
<text text-anchor="middle" x="423" y="-200" font-family="Helvetica,sans-Serif" font-size="10.00">+sumwx2</text>
<text text-anchor="middle" x="423" y="-189" font-family="Helvetica,sans-Serif" font-size="10.00">+array</text>
<text text-anchor="middle" x="423" y="-178" font-family="Helvetica,sans-Serif" font-size="10.00">+sumwxy</text>
<text text-anchor="middle" x="423" y="-167" font-family="Helvetica,sans-Serif" font-size="10.00">+entries</text>
<text text-anchor="middle" x="423" y="-156" font-family="Helvetica,sans-Serif" font-size="10.00">+sumw2</text>
<text text-anchor="middle" x="423" y="-145" font-family="Helvetica,sans-Serif" font-size="10.00">+sumwx</text>
<text text-anchor="middle" x="423" y="-134" font-family="Helvetica,sans-Serif" font-size="10.00">+sumwy</text>
</g>
</g>
</svg>
