<?xml version="1.0" encoding="UTF-8" standalone="no"?>
<!DOCTYPE svg PUBLIC "-//W3C//DTD SVG 1.1//EN"
 "http://www.w3.org/Graphics/SVG/1.1/DTD/svg11.dtd">
<!-- Generated by graphviz version 2.38.0 (20140413.2041)
 -->
<!-- Title: o2::quality_control_modules::muonchambers::PedestalsCheck Pages: 1 -->
<svg width="249pt" height="474pt"
 viewBox="0.00 0.00 249.00 474.00" xmlns="http://www.w3.org/2000/svg" xmlns:xlink="http://www.w3.org/1999/xlink">
<g id="graph0" class="graph" transform="scale(1 1) rotate(0) translate(4 470)">
<title>o2::quality_control_modules::muonchambers::PedestalsCheck</title>
<!-- Node1 -->
<g id="node1" class="node"><title>Node1</title>
<polygon fill="#bfbfbf" stroke="black" points="74.5,-0.5 74.5,-134.5 205.5,-134.5 205.5,-0.5 74.5,-0.5"/>
<text text-anchor="start" x="82.5" y="-122.5" font-family="Helvetica,sans-Serif" font-size="10.00">o2::quality_control</text>
<text text-anchor="start" x="82.5" y="-111.5" font-family="Helvetica,sans-Serif" font-size="10.00">_modules::muonchambers</text>
<text text-anchor="middle" x="140" y="-100.5" font-family="Helvetica,sans-Serif" font-size="10.00">::PedestalsCheck</text>
<polyline fill="none" stroke="black" points="74.5,-93.5 205.5,-93.5 "/>
<text text-anchor="middle" x="140" y="-81.5" font-family="Helvetica,sans-Serif" font-size="10.00"> </text>
<polyline fill="none" stroke="black" points="74.5,-74.5 205.5,-74.5 "/>
<text text-anchor="start" x="82.5" y="-62.5" font-family="Helvetica,sans-Serif" font-size="10.00">+ PedestalsCheck()</text>
<text text-anchor="start" x="82.5" y="-51.5" font-family="Helvetica,sans-Serif" font-size="10.00">+ ~PedestalsCheck()</text>
<text text-anchor="start" x="82.5" y="-40.5" font-family="Helvetica,sans-Serif" font-size="10.00">+ configure()</text>
<text text-anchor="start" x="82.5" y="-29.5" font-family="Helvetica,sans-Serif" font-size="10.00">+ check()</text>
<text text-anchor="start" x="82.5" y="-18.5" font-family="Helvetica,sans-Serif" font-size="10.00">+ beautify()</text>
<text text-anchor="start" x="82.5" y="-7.5" font-family="Helvetica,sans-Serif" font-size="10.00">+ getAcceptedType()</text>
</g>
<!-- Node2 -->
<g id="node2" class="node"><title>Node2</title>
<g id="a_node2"><a xlink:href="classo2_1_1quality__control_1_1checker_1_1CheckInterface.html" target="_top" xlink:title="Skeleton of a check. ">
<polygon fill="none" stroke="black" points="0,-193.5 0,-349.5 130,-349.5 130,-193.5 0,-193.5"/>
<text text-anchor="start" x="8" y="-337.5" font-family="Helvetica,sans-Serif" font-size="10.00">o2::quality_control</text>
<text text-anchor="middle" x="65" y="-326.5" font-family="Helvetica,sans-Serif" font-size="10.00">::checker::CheckInterface</text>
<polyline fill="none" stroke="black" points="0,-319.5 130,-319.5 "/>
<text text-anchor="middle" x="65" y="-307.5" font-family="Helvetica,sans-Serif" font-size="10.00"> </text>
<polyline fill="none" stroke="black" points="0,-300.5 130,-300.5 "/>
<text text-anchor="start" x="8" y="-288.5" font-family="Helvetica,sans-Serif" font-size="10.00">+ CheckInterface()</text>
<text text-anchor="start" x="8" y="-277.5" font-family="Helvetica,sans-Serif" font-size="10.00">+ ~CheckInterface()</text>
<text text-anchor="start" x="8" y="-266.5" font-family="Helvetica,sans-Serif" font-size="10.00">+ configure()</text>
<text text-anchor="start" x="8" y="-255.5" font-family="Helvetica,sans-Serif" font-size="10.00">+ check()</text>
<text text-anchor="start" x="8" y="-244.5" font-family="Helvetica,sans-Serif" font-size="10.00">+ beautify()</text>
<text text-anchor="start" x="8" y="-233.5" font-family="Helvetica,sans-Serif" font-size="10.00">+ getAcceptedType()</text>
<text text-anchor="start" x="8" y="-222.5" font-family="Helvetica,sans-Serif" font-size="10.00">+ isObjectCheckable()</text>
<text text-anchor="start" x="8" y="-211.5" font-family="Helvetica,sans-Serif" font-size="10.00">+ isObjectCheckable()</text>
<text text-anchor="start" x="8" y="-200.5" font-family="Helvetica,sans-Serif" font-size="10.00">+ setCustomParameters()</text>
</a>
</g>
</g>
<!-- Node2&#45;&gt;Node1 -->
<g id="edge1" class="edge"><title>Node2&#45;&gt;Node1</title>
<path fill="none" stroke="midnightblue" d="M97.2282,-183.699C103.308,-167.324 109.576,-150.441 115.377,-134.819"/>
<polygon fill="none" stroke="midnightblue" points="93.8749,-182.675 93.6753,-193.268 100.437,-185.111 93.8749,-182.675"/>
</g>
<!-- Node3 -->
<g id="node3" class="node"><title>Node3</title>
<polygon fill="none" stroke="#bfbfbf" points="12,-397.5 12,-465.5 118,-465.5 118,-397.5 12,-397.5"/>
<text text-anchor="start" x="20" y="-453.5" font-family="Helvetica,sans-Serif" font-size="10.00">unordered_map&lt; std</text>
<text text-anchor="middle" x="65" y="-442.5" font-family="Helvetica,sans-Serif" font-size="10.00">::string, std::string &gt;</text>
<polyline fill="none" stroke="#bfbfbf" points="12,-435.5 118,-435.5 "/>
<text text-anchor="middle" x="65" y="-423.5" font-family="Helvetica,sans-Serif" font-size="10.00"> </text>
<polyline fill="none" stroke="#bfbfbf" points="12,-416.5 118,-416.5 "/>
<text text-anchor="middle" x="65" y="-404.5" font-family="Helvetica,sans-Serif" font-size="10.00"> </text>
</g>
<!-- Node3&#45;&gt;Node2 -->
<g id="edge2" class="edge"><title>Node3&#45;&gt;Node2</title>
<path fill="none" stroke="#404040" d="M65,-397.378C65,-386.749 65,-374.424 65,-361.742"/>
<polygon fill="none" stroke="#404040" points="65.0001,-361.516 61,-355.516 65,-349.516 69,-355.516 65.0001,-361.516"/>
<text text-anchor="middle" x="116" y="-371" font-family="Helvetica,sans-Serif" font-size="10.00"> #mCustomParameters</text>
</g>
<!-- Node4 -->
<g id="node4" class="node"><title>Node4</title>
<polygon fill="none" stroke="#bfbfbf" points="148.5,-243 148.5,-300 183.5,-300 183.5,-243 148.5,-243"/>
<text text-anchor="middle" x="166" y="-288" font-family="Helvetica,sans-Serif" font-size="10.00">float</text>
<polyline fill="none" stroke="#bfbfbf" points="148.5,-281 183.5,-281 "/>
<text text-anchor="middle" x="166" y="-269" font-family="Helvetica,sans-Serif" font-size="10.00"> </text>
<polyline fill="none" stroke="#bfbfbf" points="148.5,-262 183.5,-262 "/>
<text text-anchor="middle" x="166" y="-250" font-family="Helvetica,sans-Serif" font-size="10.00"> </text>
</g>
<!-- Node4&#45;&gt;Node1 -->
<g id="edge3" class="edge"><title>Node4&#45;&gt;Node1</title>
<path fill="none" stroke="#404040" d="M162.439,-242.836C159.268,-218.2 154.472,-180.934 150.126,-147.172"/>
<polygon fill="none" stroke="#404040" points="150.081,-146.824 145.348,-141.384 148.549,-134.922 153.283,-140.362 150.081,-146.824"/>
<text text-anchor="middle" x="197" y="-167" font-family="Helvetica,sans-Serif" font-size="10.00"> +maxMCHpedestal</text>
<text text-anchor="middle" x="197" y="-156" font-family="Helvetica,sans-Serif" font-size="10.00">+minMCHpedestal</text>
</g>
</g>
</svg>
