<?xml version="1.0" encoding="UTF-8" standalone="no"?>
<!DOCTYPE svg PUBLIC "-//W3C//DTD SVG 1.1//EN"
 "http://www.w3.org/Graphics/SVG/1.1/DTD/svg11.dtd">
<!-- Generated by graphviz version 2.38.0 (20140413.2041)
 -->
<!-- Title: o2::quality_control::postprocessing::Reductor Pages: 1 -->
<svg width="1546pt" height="831pt"
 viewBox="0.00 0.00 1546.00 831.00" xmlns="http://www.w3.org/2000/svg" xmlns:xlink="http://www.w3.org/1999/xlink">
<g id="graph0" class="graph" transform="scale(1 1) rotate(0) translate(4 827)">
<title>o2::quality_control::postprocessing::Reductor</title>
<!-- Node1 -->
<g id="node1" class="node"><title>Node1</title>
<polygon fill="#bfbfbf" stroke="black" points="712,-710.5 712,-822.5 846,-822.5 846,-710.5 712,-710.5"/>
<text text-anchor="start" x="720" y="-810.5" font-family="Helvetica,sans-Serif" font-size="10.00">o2::quality_control</text>
<text text-anchor="middle" x="779" y="-799.5" font-family="Helvetica,sans-Serif" font-size="10.00">::postprocessing::Reductor</text>
<polyline fill="none" stroke="black" points="712,-792.5 846,-792.5 "/>
<text text-anchor="middle" x="779" y="-780.5" font-family="Helvetica,sans-Serif" font-size="10.00"> </text>
<polyline fill="none" stroke="black" points="712,-773.5 846,-773.5 "/>
<text text-anchor="start" x="720" y="-761.5" font-family="Helvetica,sans-Serif" font-size="10.00">+ Reductor()</text>
<text text-anchor="start" x="720" y="-750.5" font-family="Helvetica,sans-Serif" font-size="10.00">+ ~Reductor()</text>
<text text-anchor="start" x="720" y="-739.5" font-family="Helvetica,sans-Serif" font-size="10.00">+ getBranchAddress()</text>
<text text-anchor="start" x="720" y="-728.5" font-family="Helvetica,sans-Serif" font-size="10.00">+ getBranchLeafList()</text>
<text text-anchor="start" x="720" y="-717.5" font-family="Helvetica,sans-Serif" font-size="10.00">+ update()</text>
</g>
<!-- Node2 -->
<g id="node2" class="node"><title>Node2</title>
<g id="a_node2"><a xlink:href="classMyReductor.html" target="_top" xlink:title="{MyReductor\n|+ integral\l|+ MyReductor()\l+ ~MyReductor()\l+ getBranchAddress()\l+ getBranchLeafList()\l+ update()\l}">
<polygon fill="none" stroke="black" points="0,-286.5 0,-387.5 112,-387.5 112,-286.5 0,-286.5"/>
<text text-anchor="middle" x="56" y="-375.5" font-family="Helvetica,sans-Serif" font-size="10.00">MyReductor</text>
<polyline fill="none" stroke="black" points="0,-368.5 112,-368.5 "/>
<text text-anchor="start" x="8" y="-356.5" font-family="Helvetica,sans-Serif" font-size="10.00">+ integral</text>
<polyline fill="none" stroke="black" points="0,-349.5 112,-349.5 "/>
<text text-anchor="start" x="8" y="-337.5" font-family="Helvetica,sans-Serif" font-size="10.00">+ MyReductor()</text>
<text text-anchor="start" x="8" y="-326.5" font-family="Helvetica,sans-Serif" font-size="10.00">+ ~MyReductor()</text>
<text text-anchor="start" x="8" y="-315.5" font-family="Helvetica,sans-Serif" font-size="10.00">+ getBranchAddress()</text>
<text text-anchor="start" x="8" y="-304.5" font-family="Helvetica,sans-Serif" font-size="10.00">+ getBranchLeafList()</text>
<text text-anchor="start" x="8" y="-293.5" font-family="Helvetica,sans-Serif" font-size="10.00">+ update()</text>
</a>
</g>
</g>
<!-- Node1&#45;&gt;Node2 -->
<g id="edge1" class="edge"><title>Node1&#45;&gt;Node2</title>
<path fill="none" stroke="midnightblue" d="M701.306,-765.598C545.564,-764.11 203.06,-751.828 121,-674 42.6486,-599.689 42.7872,-461.535 49.4587,-387.646"/>
<polygon fill="none" stroke="midnightblue" points="701.712,-769.101 711.74,-765.684 701.769,-762.102 701.712,-769.101"/>
</g>
<!-- Node3 -->
<g id="node3" class="node"><title>Node3</title>
<g id="a_node3"><a xlink:href="classo2_1_1quality__control__modules_1_1common_1_1QualityReductor.html" target="_top" xlink:title="A Reductor of QualityObjects, stores a name and level of a Quality. ">
<polygon fill="none" stroke="black" points="130.5,-270 130.5,-404 309.5,-404 309.5,-270 130.5,-270"/>
<text text-anchor="start" x="138.5" y="-392" font-family="Helvetica,sans-Serif" font-size="10.00">o2::quality_control</text>
<text text-anchor="middle" x="220" y="-381" font-family="Helvetica,sans-Serif" font-size="10.00">_modules::common::QualityReductor</text>
<polyline fill="none" stroke="black" points="130.5,-374 309.5,-374 "/>
<text text-anchor="start" x="138.5" y="-362" font-family="Helvetica,sans-Serif" font-size="10.00">+ level</text>
<text text-anchor="start" x="138.5" y="-351" font-family="Helvetica,sans-Serif" font-size="10.00">+ name</text>
<text text-anchor="start" x="138.5" y="-340" font-family="Helvetica,sans-Serif" font-size="10.00">+ NAME_SIZE</text>
<polyline fill="none" stroke="black" points="130.5,-333 309.5,-333 "/>
<text text-anchor="start" x="138.5" y="-321" font-family="Helvetica,sans-Serif" font-size="10.00">+ QualityReductor()</text>
<text text-anchor="start" x="138.5" y="-310" font-family="Helvetica,sans-Serif" font-size="10.00">+ ~QualityReductor()</text>
<text text-anchor="start" x="138.5" y="-299" font-family="Helvetica,sans-Serif" font-size="10.00">+ getBranchAddress()</text>
<text text-anchor="start" x="138.5" y="-288" font-family="Helvetica,sans-Serif" font-size="10.00">+ getBranchLeafList()</text>
<text text-anchor="start" x="138.5" y="-277" font-family="Helvetica,sans-Serif" font-size="10.00">+ update()</text>
</a>
</g>
</g>
<!-- Node1&#45;&gt;Node3 -->
<g id="edge2" class="edge"><title>Node1&#45;&gt;Node3</title>
<path fill="none" stroke="midnightblue" d="M701.31,-759.719C584.921,-749.508 373.054,-724.417 318,-674 242.268,-604.645 223.817,-480.43 220.022,-404.012"/>
<polygon fill="none" stroke="midnightblue" points="701.317,-763.233 711.58,-760.603 701.917,-756.258 701.317,-763.233"/>
</g>
<!-- Node4 -->
<g id="node4" class="node"><title>Node4</title>
<g id="a_node4"><a xlink:href="classo2_1_1quality__control__modules_1_1common_1_1TH1Reductor.html" target="_top" xlink:title="A Reductor which obtains the most popular characteristics of TH1. ">
<polygon fill="none" stroke="black" points="327.5,-270 327.5,-404 494.5,-404 494.5,-270 327.5,-270"/>
<text text-anchor="start" x="335.5" y="-392" font-family="Helvetica,sans-Serif" font-size="10.00">o2::quality_control</text>
<text text-anchor="middle" x="411" y="-381" font-family="Helvetica,sans-Serif" font-size="10.00">_modules::common::TH1Reductor</text>
<polyline fill="none" stroke="black" points="327.5,-374 494.5,-374 "/>
<text text-anchor="start" x="335.5" y="-362" font-family="Helvetica,sans-Serif" font-size="10.00">+ mean</text>
<text text-anchor="start" x="335.5" y="-351" font-family="Helvetica,sans-Serif" font-size="10.00">+ stddev</text>
<text text-anchor="start" x="335.5" y="-340" font-family="Helvetica,sans-Serif" font-size="10.00">+ entries</text>
<polyline fill="none" stroke="black" points="327.5,-333 494.5,-333 "/>
<text text-anchor="start" x="335.5" y="-321" font-family="Helvetica,sans-Serif" font-size="10.00">+ TH1Reductor()</text>
<text text-anchor="start" x="335.5" y="-310" font-family="Helvetica,sans-Serif" font-size="10.00">+ ~TH1Reductor()</text>
<text text-anchor="start" x="335.5" y="-299" font-family="Helvetica,sans-Serif" font-size="10.00">+ getBranchAddress()</text>
<text text-anchor="start" x="335.5" y="-288" font-family="Helvetica,sans-Serif" font-size="10.00">+ getBranchLeafList()</text>
<text text-anchor="start" x="335.5" y="-277" font-family="Helvetica,sans-Serif" font-size="10.00">+ update()</text>
</a>
</g>
</g>
<!-- Node1&#45;&gt;Node4 -->
<g id="edge3" class="edge"><title>Node1&#45;&gt;Node4</title>
<path fill="none" stroke="midnightblue" d="M701.731,-759.502C639.719,-750.604 554.748,-728.558 503,-674 433.181,-600.389 415.36,-478.976 411.37,-404.015"/>
<polygon fill="none" stroke="midnightblue" points="701.487,-763 711.865,-760.869 702.423,-756.063 701.487,-763"/>
</g>
<!-- Node5 -->
<g id="node5" class="node"><title>Node5</title>
<g id="a_node5"><a xlink:href="classo2_1_1quality__control__modules_1_1common_1_1TH2Reductor.html" target="_top" xlink:title="A Reductor which obtains the most popular characteristics of TH2. ">
<polygon fill="none" stroke="black" points="512.5,-226 512.5,-448 679.5,-448 679.5,-226 512.5,-226"/>
<text text-anchor="start" x="520.5" y="-436" font-family="Helvetica,sans-Serif" font-size="10.00">o2::quality_control</text>
<text text-anchor="middle" x="596" y="-425" font-family="Helvetica,sans-Serif" font-size="10.00">_modules::common::TH2Reductor</text>
<polyline fill="none" stroke="black" points="512.5,-418 679.5,-418 "/>
<text text-anchor="start" x="520.5" y="-406" font-family="Helvetica,sans-Serif" font-size="10.00">+ sumw</text>
<text text-anchor="start" x="520.5" y="-395" font-family="Helvetica,sans-Serif" font-size="10.00">+ sumw2</text>
<text text-anchor="start" x="520.5" y="-384" font-family="Helvetica,sans-Serif" font-size="10.00">+ sumwx</text>
<text text-anchor="start" x="520.5" y="-373" font-family="Helvetica,sans-Serif" font-size="10.00">+ sumwx2</text>
<text text-anchor="start" x="520.5" y="-362" font-family="Helvetica,sans-Serif" font-size="10.00">+ sumwy</text>
<text text-anchor="start" x="520.5" y="-351" font-family="Helvetica,sans-Serif" font-size="10.00">+ sumwy2</text>
<text text-anchor="start" x="520.5" y="-340" font-family="Helvetica,sans-Serif" font-size="10.00">+ sumwxy</text>
<text text-anchor="start" x="520.5" y="-329" font-family="Helvetica,sans-Serif" font-size="10.00">+ named</text>
<text text-anchor="start" x="520.5" y="-318" font-family="Helvetica,sans-Serif" font-size="10.00">+ array</text>
<text text-anchor="start" x="520.5" y="-307" font-family="Helvetica,sans-Serif" font-size="10.00">+ sums</text>
<text text-anchor="start" x="520.5" y="-296" font-family="Helvetica,sans-Serif" font-size="10.00">+ entries</text>
<polyline fill="none" stroke="black" points="512.5,-289 679.5,-289 "/>
<text text-anchor="start" x="520.5" y="-277" font-family="Helvetica,sans-Serif" font-size="10.00">+ TH2Reductor()</text>
<text text-anchor="start" x="520.5" y="-266" font-family="Helvetica,sans-Serif" font-size="10.00">+ ~TH2Reductor()</text>
<text text-anchor="start" x="520.5" y="-255" font-family="Helvetica,sans-Serif" font-size="10.00">+ getBranchAddress()</text>
<text text-anchor="start" x="520.5" y="-244" font-family="Helvetica,sans-Serif" font-size="10.00">+ getBranchLeafList()</text>
<text text-anchor="start" x="520.5" y="-233" font-family="Helvetica,sans-Serif" font-size="10.00">+ update()</text>
</a>
</g>
</g>
<!-- Node1&#45;&gt;Node5 -->
<g id="edge4" class="edge"><title>Node1&#45;&gt;Node5</title>
<path fill="none" stroke="midnightblue" d="M708.433,-702.493C700.796,-693.485 693.732,-683.897 688,-674 647.762,-604.523 624.516,-516.752 611.46,-448.341"/>
<polygon fill="none" stroke="midnightblue" points="706.036,-705.066 715.273,-710.254 711.287,-700.438 706.036,-705.066"/>
</g>
<!-- Node6 -->
<g id="node6" class="node"><title>Node6</title>
<g id="a_node6"><a xlink:href="classo2_1_1quality__control__modules_1_1common_1_1THnSparse5Reductor.html" target="_top" xlink:title="A Reductor which obtains the most popular characteristics of THnSparse up to 5 dimensions. ">
<polygon fill="none" stroke="black" points="697.5,-264.5 697.5,-409.5 860.5,-409.5 860.5,-264.5 697.5,-264.5"/>
<text text-anchor="start" x="705.5" y="-397.5" font-family="Helvetica,sans-Serif" font-size="10.00">o2::quality_control</text>
<text text-anchor="start" x="705.5" y="-386.5" font-family="Helvetica,sans-Serif" font-size="10.00">_modules::common::THnSparse5</text>
<text text-anchor="middle" x="779" y="-375.5" font-family="Helvetica,sans-Serif" font-size="10.00">Reductor</text>
<polyline fill="none" stroke="black" points="697.5,-368.5 860.5,-368.5 "/>
<text text-anchor="start" x="705.5" y="-356.5" font-family="Helvetica,sans-Serif" font-size="10.00">+ mean</text>
<text text-anchor="start" x="705.5" y="-345.5" font-family="Helvetica,sans-Serif" font-size="10.00">+ stddev</text>
<text text-anchor="start" x="705.5" y="-334.5" font-family="Helvetica,sans-Serif" font-size="10.00">+ entries</text>
<polyline fill="none" stroke="black" points="697.5,-327.5 860.5,-327.5 "/>
<text text-anchor="start" x="705.5" y="-315.5" font-family="Helvetica,sans-Serif" font-size="10.00">+ THnSparse5Reductor()</text>
<text text-anchor="start" x="705.5" y="-304.5" font-family="Helvetica,sans-Serif" font-size="10.00">+ ~THnSparse5Reductor()</text>
<text text-anchor="start" x="705.5" y="-293.5" font-family="Helvetica,sans-Serif" font-size="10.00">+ getBranchAddress()</text>
<text text-anchor="start" x="705.5" y="-282.5" font-family="Helvetica,sans-Serif" font-size="10.00">+ getBranchLeafList()</text>
<text text-anchor="start" x="705.5" y="-271.5" font-family="Helvetica,sans-Serif" font-size="10.00">+ update()</text>
</a>
</g>
</g>
<!-- Node1&#45;&gt;Node6 -->
<g id="edge5" class="edge"><title>Node1&#45;&gt;Node6</title>
<path fill="none" stroke="midnightblue" d="M779,-700.251C779,-621.822 779,-490.662 779,-409.534"/>
<polygon fill="none" stroke="midnightblue" points="775.5,-700.487 779,-710.487 782.5,-700.487 775.5,-700.487"/>
</g>
<!-- Node7 -->
<g id="node7" class="node"><title>Node7</title>
<g id="a_node7"><a xlink:href="classo2_1_1quality__control__modules_1_1emcal_1_1DigitOccupancyReductor.html" target="_top" xlink:title="A Reductor which obtains the most popular characteristics of TH2. ">
<polygon fill="none" stroke="black" points="878.5,-270 878.5,-404 1045.5,-404 1045.5,-270 878.5,-270"/>
<text text-anchor="start" x="886.5" y="-392" font-family="Helvetica,sans-Serif" font-size="10.00">o2::quality_control</text>
<text text-anchor="start" x="886.5" y="-381" font-family="Helvetica,sans-Serif" font-size="10.00">_modules::emcal::DigitOccupancy</text>
<text text-anchor="middle" x="962" y="-370" font-family="Helvetica,sans-Serif" font-size="10.00">Reductor</text>
<polyline fill="none" stroke="black" points="878.5,-363 1045.5,-363 "/>
<text text-anchor="start" x="886.5" y="-351" font-family="Helvetica,sans-Serif" font-size="10.00">+ mCountTotal</text>
<text text-anchor="start" x="886.5" y="-340" font-family="Helvetica,sans-Serif" font-size="10.00">+ mCountSM</text>
<polyline fill="none" stroke="black" points="878.5,-333 1045.5,-333 "/>
<text text-anchor="start" x="886.5" y="-321" font-family="Helvetica,sans-Serif" font-size="10.00">+ DigitOccupancyReductor()</text>
<text text-anchor="start" x="886.5" y="-310" font-family="Helvetica,sans-Serif" font-size="10.00">+ ~DigitOccupancyReductor()</text>
<text text-anchor="start" x="886.5" y="-299" font-family="Helvetica,sans-Serif" font-size="10.00">+ getBranchAddress()</text>
<text text-anchor="start" x="886.5" y="-288" font-family="Helvetica,sans-Serif" font-size="10.00">+ getBranchLeafList()</text>
<text text-anchor="start" x="886.5" y="-277" font-family="Helvetica,sans-Serif" font-size="10.00">+ update()</text>
</a>
</g>
</g>
<!-- Node1&#45;&gt;Node7 -->
<g id="edge6" class="edge"><title>Node1&#45;&gt;Node7</title>
<path fill="none" stroke="midnightblue" d="M849.567,-702.493C857.204,-693.485 864.268,-683.897 870,-674 919.635,-588.299 943.414,-474.761 954.106,-404.062"/>
<polygon fill="none" stroke="midnightblue" points="846.713,-700.438 842.727,-710.254 851.964,-705.066 846.713,-700.438"/>
</g>
<!-- Node8 -->
<g id="node8" class="node"><title>Node8</title>
<g id="a_node8"><a xlink:href="classo2_1_1quality__control__modules_1_1its_1_1TH2XlineReductor.html" target="_top" xlink:title="A Reductor which obtains specific characteristics of TH2: mean and stddev of bin contents for each y ...">
<polygon fill="none" stroke="black" points="1063.5,-281 1063.5,-393 1224.5,-393 1224.5,-281 1063.5,-281"/>
<text text-anchor="start" x="1071.5" y="-381" font-family="Helvetica,sans-Serif" font-size="10.00">o2::quality_control</text>
<text text-anchor="middle" x="1144" y="-370" font-family="Helvetica,sans-Serif" font-size="10.00">_modules::its::TH2XlineReductor</text>
<polyline fill="none" stroke="black" points="1063.5,-363 1224.5,-363 "/>
<text text-anchor="middle" x="1144" y="-351" font-family="Helvetica,sans-Serif" font-size="10.00"> </text>
<polyline fill="none" stroke="black" points="1063.5,-344 1224.5,-344 "/>
<text text-anchor="start" x="1071.5" y="-332" font-family="Helvetica,sans-Serif" font-size="10.00">+ TH2XlineReductor()</text>
<text text-anchor="start" x="1071.5" y="-321" font-family="Helvetica,sans-Serif" font-size="10.00">+ ~TH2XlineReductor()</text>
<text text-anchor="start" x="1071.5" y="-310" font-family="Helvetica,sans-Serif" font-size="10.00">+ getBranchAddress()</text>
<text text-anchor="start" x="1071.5" y="-299" font-family="Helvetica,sans-Serif" font-size="10.00">+ getBranchLeafList()</text>
<text text-anchor="start" x="1071.5" y="-288" font-family="Helvetica,sans-Serif" font-size="10.00">+ update()</text>
</a>
</g>
</g>
<!-- Node1&#45;&gt;Node8 -->
<g id="edge7" class="edge"><title>Node1&#45;&gt;Node8</title>
<path fill="none" stroke="midnightblue" d="M856.388,-759.614C918.471,-750.784 1003.48,-728.773 1055,-674 1127.77,-596.638 1142.55,-466.836 1144.68,-393.265"/>
<polygon fill="none" stroke="midnightblue" points="855.691,-756.176 846.242,-760.97 856.618,-763.115 855.691,-756.176"/>
</g>
<!-- Node9 -->
<g id="node9" class="node"><title>Node9</title>
<g id="a_node9"><a xlink:href="classo2_1_1quality__control__modules_1_1muonchambers_1_1TH1MCHReductor.html" target="_top" xlink:title="A Reductor which obtains the most popular characteristics of TH1. ">
<polygon fill="none" stroke="black" points="1242.5,-0.5 1242.5,-673.5 1373.5,-673.5 1373.5,-0.5 1242.5,-0.5"/>
<text text-anchor="start" x="1250.5" y="-661.5" font-family="Helvetica,sans-Serif" font-size="10.00">o2::quality_control</text>
<text text-anchor="start" x="1250.5" y="-650.5" font-family="Helvetica,sans-Serif" font-size="10.00">_modules::muonchambers</text>
<text text-anchor="middle" x="1308" y="-639.5" font-family="Helvetica,sans-Serif" font-size="10.00">::TH1MCHReductor</text>
<polyline fill="none" stroke="black" points="1242.5,-632.5 1373.5,-632.5 "/>
<text text-anchor="start" x="1250.5" y="-620.5" font-family="Helvetica,sans-Serif" font-size="10.00">+ val500</text>
<text text-anchor="start" x="1250.5" y="-609.5" font-family="Helvetica,sans-Serif" font-size="10.00">+ val501</text>
<text text-anchor="start" x="1250.5" y="-598.5" font-family="Helvetica,sans-Serif" font-size="10.00">+ val502</text>
<text text-anchor="start" x="1250.5" y="-587.5" font-family="Helvetica,sans-Serif" font-size="10.00">+ val503</text>
<text text-anchor="start" x="1250.5" y="-576.5" font-family="Helvetica,sans-Serif" font-size="10.00">+ val504</text>
<text text-anchor="start" x="1250.5" y="-565.5" font-family="Helvetica,sans-Serif" font-size="10.00">+ val505</text>
<text text-anchor="start" x="1250.5" y="-554.5" font-family="Helvetica,sans-Serif" font-size="10.00">+ val506</text>
<text text-anchor="start" x="1250.5" y="-543.5" font-family="Helvetica,sans-Serif" font-size="10.00">+ val507</text>
<text text-anchor="start" x="1250.5" y="-532.5" font-family="Helvetica,sans-Serif" font-size="10.00">+ val508</text>
<text text-anchor="start" x="1250.5" y="-521.5" font-family="Helvetica,sans-Serif" font-size="10.00">+ val509</text>
<text text-anchor="start" x="1250.5" y="-510.5" font-family="Helvetica,sans-Serif" font-size="10.00">+ val510</text>
<text text-anchor="start" x="1250.5" y="-499.5" font-family="Helvetica,sans-Serif" font-size="10.00">+ val511</text>
<text text-anchor="start" x="1250.5" y="-488.5" font-family="Helvetica,sans-Serif" font-size="10.00">+ val512</text>
<text text-anchor="start" x="1250.5" y="-477.5" font-family="Helvetica,sans-Serif" font-size="10.00">+ val513</text>
<text text-anchor="start" x="1250.5" y="-466.5" font-family="Helvetica,sans-Serif" font-size="10.00">+ val514</text>
<text text-anchor="start" x="1250.5" y="-455.5" font-family="Helvetica,sans-Serif" font-size="10.00">+ val515</text>
<text text-anchor="start" x="1250.5" y="-444.5" font-family="Helvetica,sans-Serif" font-size="10.00">+ val516</text>
<text text-anchor="start" x="1250.5" y="-433.5" font-family="Helvetica,sans-Serif" font-size="10.00">+ val517</text>
<text text-anchor="start" x="1250.5" y="-422.5" font-family="Helvetica,sans-Serif" font-size="10.00">+ val600</text>
<text text-anchor="start" x="1250.5" y="-411.5" font-family="Helvetica,sans-Serif" font-size="10.00">+ val601</text>
<text text-anchor="start" x="1250.5" y="-400.5" font-family="Helvetica,sans-Serif" font-size="10.00">+ val602</text>
<text text-anchor="start" x="1250.5" y="-389.5" font-family="Helvetica,sans-Serif" font-size="10.00">+ val603</text>
<text text-anchor="start" x="1250.5" y="-378.5" font-family="Helvetica,sans-Serif" font-size="10.00">+ val604</text>
<text text-anchor="start" x="1250.5" y="-367.5" font-family="Helvetica,sans-Serif" font-size="10.00">+ val605</text>
<text text-anchor="start" x="1250.5" y="-356.5" font-family="Helvetica,sans-Serif" font-size="10.00">+ val606</text>
<text text-anchor="start" x="1250.5" y="-345.5" font-family="Helvetica,sans-Serif" font-size="10.00">+ val607</text>
<text text-anchor="start" x="1250.5" y="-334.5" font-family="Helvetica,sans-Serif" font-size="10.00">+ val608</text>
<text text-anchor="start" x="1250.5" y="-323.5" font-family="Helvetica,sans-Serif" font-size="10.00">+ val609</text>
<text text-anchor="start" x="1250.5" y="-312.5" font-family="Helvetica,sans-Serif" font-size="10.00">+ val610</text>
<text text-anchor="start" x="1250.5" y="-301.5" font-family="Helvetica,sans-Serif" font-size="10.00">+ val611</text>
<text text-anchor="start" x="1250.5" y="-290.5" font-family="Helvetica,sans-Serif" font-size="10.00">+ val612</text>
<text text-anchor="start" x="1250.5" y="-279.5" font-family="Helvetica,sans-Serif" font-size="10.00">+ val613</text>
<text text-anchor="start" x="1250.5" y="-268.5" font-family="Helvetica,sans-Serif" font-size="10.00">+ val614</text>
<text text-anchor="start" x="1250.5" y="-257.5" font-family="Helvetica,sans-Serif" font-size="10.00">+ val615</text>
<text text-anchor="start" x="1250.5" y="-246.5" font-family="Helvetica,sans-Serif" font-size="10.00">+ val616</text>
<text text-anchor="start" x="1250.5" y="-235.5" font-family="Helvetica,sans-Serif" font-size="10.00">+ val617</text>
<text text-anchor="start" x="1250.5" y="-224.5" font-family="Helvetica,sans-Serif" font-size="10.00">+ val700</text>
<text text-anchor="start" x="1250.5" y="-213.5" font-family="Helvetica,sans-Serif" font-size="10.00">+ val701</text>
<text text-anchor="start" x="1250.5" y="-202.5" font-family="Helvetica,sans-Serif" font-size="10.00">+ val702</text>
<text text-anchor="start" x="1250.5" y="-191.5" font-family="Helvetica,sans-Serif" font-size="10.00">+ val703</text>
<text text-anchor="start" x="1250.5" y="-180.5" font-family="Helvetica,sans-Serif" font-size="10.00">+ val704</text>
<text text-anchor="start" x="1250.5" y="-169.5" font-family="Helvetica,sans-Serif" font-size="10.00">+ val705</text>
<text text-anchor="start" x="1250.5" y="-158.5" font-family="Helvetica,sans-Serif" font-size="10.00">+ val706</text>
<text text-anchor="start" x="1250.5" y="-147.5" font-family="Helvetica,sans-Serif" font-size="10.00">+ val707</text>
<text text-anchor="start" x="1250.5" y="-136.5" font-family="Helvetica,sans-Serif" font-size="10.00">+ val708</text>
<text text-anchor="start" x="1250.5" y="-125.5" font-family="Helvetica,sans-Serif" font-size="10.00">+ val709</text>
<text text-anchor="start" x="1250.5" y="-114.5" font-family="Helvetica,sans-Serif" font-size="10.00">+ val710</text>
<text text-anchor="start" x="1250.5" y="-103.5" font-family="Helvetica,sans-Serif" font-size="10.00">+ val711</text>
<text text-anchor="start" x="1250.5" y="-92.5" font-family="Helvetica,sans-Serif" font-size="10.00">+ val712</text>
<text text-anchor="start" x="1250.5" y="-81.5" font-family="Helvetica,sans-Serif" font-size="10.00">+ val713</text>
<text text-anchor="start" x="1250.5" y="-70.5" font-family="Helvetica,sans-Serif" font-size="10.00">and 108 more...</text>
<polyline fill="none" stroke="black" points="1242.5,-63.5 1373.5,-63.5 "/>
<text text-anchor="start" x="1250.5" y="-51.5" font-family="Helvetica,sans-Serif" font-size="10.00">+ TH1MCHReductor()</text>
<text text-anchor="start" x="1250.5" y="-40.5" font-family="Helvetica,sans-Serif" font-size="10.00">+ ~TH1MCHReductor()</text>
<text text-anchor="start" x="1250.5" y="-29.5" font-family="Helvetica,sans-Serif" font-size="10.00">+ getBranchAddress()</text>
<text text-anchor="start" x="1250.5" y="-18.5" font-family="Helvetica,sans-Serif" font-size="10.00">+ getBranchLeafList()</text>
<text text-anchor="start" x="1250.5" y="-7.5" font-family="Helvetica,sans-Serif" font-size="10.00">+ update()</text>
</a>
</g>
</g>
<!-- Node1&#45;&gt;Node9 -->
<g id="edge8" class="edge"><title>Node1&#45;&gt;Node9</title>
<path fill="none" stroke="midnightblue" d="M856.563,-759.98C972.1,-750.143 1181.47,-725.577 1234,-674 1236.88,-671.175 1239.65,-668.266 1242.33,-665.278"/>
<polygon fill="none" stroke="midnightblue" points="856.039,-756.511 846.365,-760.831 856.621,-763.487 856.039,-756.511"/>
</g>
<!-- Node10 -->
<g id="node10" class="node"><title>Node10</title>
<g id="a_node10"><a xlink:href="classo2_1_1quality__control__modules_1_1tpc_1_1ROCReductor.html" target="_top" xlink:title="A Reductor of ROC, stores mean, standard deviation and median for each ROC. ">
<polygon fill="none" stroke="black" points="1392,-270 1392,-404 1538,-404 1538,-270 1392,-270"/>
<text text-anchor="start" x="1400" y="-392" font-family="Helvetica,sans-Serif" font-size="10.00">o2::quality_control</text>
<text text-anchor="middle" x="1465" y="-381" font-family="Helvetica,sans-Serif" font-size="10.00">_modules::tpc::ROCReductor</text>
<polyline fill="none" stroke="black" points="1392,-374 1538,-374 "/>
<text text-anchor="start" x="1400" y="-362" font-family="Helvetica,sans-Serif" font-size="10.00">+ mean</text>
<text text-anchor="start" x="1400" y="-351" font-family="Helvetica,sans-Serif" font-size="10.00">+ stddev</text>
<text text-anchor="start" x="1400" y="-340" font-family="Helvetica,sans-Serif" font-size="10.00">+ median</text>
<polyline fill="none" stroke="black" points="1392,-333 1538,-333 "/>
<text text-anchor="start" x="1400" y="-321" font-family="Helvetica,sans-Serif" font-size="10.00">+ ROCReductor()</text>
<text text-anchor="start" x="1400" y="-310" font-family="Helvetica,sans-Serif" font-size="10.00">+ ~ROCReductor()</text>
<text text-anchor="start" x="1400" y="-299" font-family="Helvetica,sans-Serif" font-size="10.00">+ getBranchAddress()</text>
<text text-anchor="start" x="1400" y="-288" font-family="Helvetica,sans-Serif" font-size="10.00">+ getBranchLeafList()</text>
<text text-anchor="start" x="1400" y="-277" font-family="Helvetica,sans-Serif" font-size="10.00">+ update()</text>
</a>
</g>
</g>
<!-- Node1&#45;&gt;Node10 -->
<g id="edge9" class="edge"><title>Node1&#45;&gt;Node10</title>
<path fill="none" stroke="midnightblue" d="M856.203,-764.177C1001.4,-760.068 1307.34,-743.206 1383,-674 1457.88,-605.509 1469.63,-481.017 1468.97,-404.311"/>
<polygon fill="none" stroke="midnightblue" points="855.934,-760.682 846.032,-764.451 856.123,-767.68 855.934,-760.682"/>
</g>
</g>
</svg>
