<?xml version="1.0" encoding="UTF-8" standalone="no"?>
<!DOCTYPE svg PUBLIC "-//W3C//DTD SVG 1.1//EN"
 "http://www.w3.org/Graphics/SVG/1.1/DTD/svg11.dtd">
<!-- Generated by graphviz version 2.38.0 (20140413.2041)
 -->
<!-- Title: o2::quality_control_modules::hmpid::HmpidEquipment Pages: 1 -->
<svg width="484pt" height="501pt"
 viewBox="0.00 0.00 483.50 501.00" xmlns="http://www.w3.org/2000/svg" xmlns:xlink="http://www.w3.org/1999/xlink">
<g id="graph0" class="graph" transform="scale(1 1) rotate(0) translate(4 497)">
<title>o2::quality_control_modules::hmpid::HmpidEquipment</title>
<!-- Node1 -->
<g id="node1" class="node"><title>Node1</title>
<polygon fill="#bfbfbf" stroke="black" points="100.5,-0.5 100.5,-277.5 272.5,-277.5 272.5,-0.5 100.5,-0.5"/>
<text text-anchor="start" x="108.5" y="-265.5" font-family="Helvetica,sans-Serif" font-size="10.00">o2::quality_control</text>
<text text-anchor="middle" x="186.5" y="-254.5" font-family="Helvetica,sans-Serif" font-size="10.00">_modules::hmpid::HmpidEquipment</text>
<polyline fill="none" stroke="black" points="100.5,-247.5 272.5,-247.5 "/>
<text text-anchor="start" x="108.5" y="-235.5" font-family="Helvetica,sans-Serif" font-size="10.00">+ mWillBeRowMarker</text>
<text text-anchor="start" x="108.5" y="-224.5" font-family="Helvetica,sans-Serif" font-size="10.00">+ mWillBeSegmentMarker</text>
<text text-anchor="start" x="108.5" y="-213.5" font-family="Helvetica,sans-Serif" font-size="10.00">+ mRowSize</text>
<text text-anchor="start" x="108.5" y="-202.5" font-family="Helvetica,sans-Serif" font-size="10.00">+ mColumnCounter</text>
<text text-anchor="start" x="108.5" y="-191.5" font-family="Helvetica,sans-Serif" font-size="10.00">+ mWordsPerRowCounter</text>
<text text-anchor="start" x="108.5" y="-180.5" font-family="Helvetica,sans-Serif" font-size="10.00">+ mWordsPerSegCounter</text>
<text text-anchor="start" x="108.5" y="-169.5" font-family="Helvetica,sans-Serif" font-size="10.00">+ mErrorPadsPerEvent</text>
<text text-anchor="start" x="108.5" y="-158.5" font-family="Helvetica,sans-Serif" font-size="10.00">+ mEventNumber</text>
<text text-anchor="start" x="108.5" y="-147.5" font-family="Helvetica,sans-Serif" font-size="10.00">+ mEventSize</text>
<text text-anchor="start" x="108.5" y="-136.5" font-family="Helvetica,sans-Serif" font-size="10.00">+ mBusyTimeSamples</text>
<text text-anchor="start" x="108.5" y="-125.5" font-family="Helvetica,sans-Serif" font-size="10.00">+ mNumberOfEmptyEvents</text>
<text text-anchor="start" x="108.5" y="-114.5" font-family="Helvetica,sans-Serif" font-size="10.00">+ mTotalErrors</text>
<polyline fill="none" stroke="black" points="100.5,-107.5 272.5,-107.5 "/>
<text text-anchor="start" x="108.5" y="-95.5" font-family="Helvetica,sans-Serif" font-size="10.00">+ HmpidEquipment()</text>
<text text-anchor="start" x="108.5" y="-84.5" font-family="Helvetica,sans-Serif" font-size="10.00">+ ~HmpidEquipment()</text>
<text text-anchor="start" x="108.5" y="-73.5" font-family="Helvetica,sans-Serif" font-size="10.00">+ getEquipmentId()</text>
<text text-anchor="start" x="108.5" y="-62.5" font-family="Helvetica,sans-Serif" font-size="10.00">+ getEquipmentId()</text>
<text text-anchor="start" x="108.5" y="-51.5" font-family="Helvetica,sans-Serif" font-size="10.00">+ init()</text>
<text text-anchor="start" x="108.5" y="-40.5" font-family="Helvetica,sans-Serif" font-size="10.00">+ resetPadMap()</text>
<text text-anchor="start" x="108.5" y="-29.5" font-family="Helvetica,sans-Serif" font-size="10.00">+ resetErrors()</text>
<text text-anchor="start" x="108.5" y="-18.5" font-family="Helvetica,sans-Serif" font-size="10.00">+ setError()</text>
<text text-anchor="start" x="108.5" y="-7.5" font-family="Helvetica,sans-Serif" font-size="10.00">+ setPad()</text>
</g>
<!-- Node2 -->
<g id="node2" class="node"><title>Node2</title>
<polygon fill="none" stroke="#bfbfbf" points="0,-435.5 0,-492.5 45,-492.5 45,-435.5 0,-435.5"/>
<text text-anchor="middle" x="22.5" y="-480.5" font-family="Helvetica,sans-Serif" font-size="10.00">double</text>
<polyline fill="none" stroke="#bfbfbf" points="0,-473.5 45,-473.5 "/>
<text text-anchor="middle" x="22.5" y="-461.5" font-family="Helvetica,sans-Serif" font-size="10.00"> </text>
<polyline fill="none" stroke="#bfbfbf" points="0,-454.5 45,-454.5 "/>
<text text-anchor="middle" x="22.5" y="-442.5" font-family="Helvetica,sans-Serif" font-size="10.00"> </text>
</g>
<!-- Node2&#45;&gt;Node1 -->
<g id="edge1" class="edge"><title>Node2&#45;&gt;Node1</title>
<path fill="none" stroke="#404040" d="M19.1164,-435.289C16.1383,-400.966 15.0088,-341.47 35.5,-296 48.6143,-266.9 69.575,-239.982 91.7561,-216.987"/>
<polygon fill="none" stroke="#404040" points="91.8527,-216.889 93.238,-209.812 100.303,-208.369 98.918,-215.446 91.8527,-216.889"/>
<text text-anchor="middle" x="71" y="-359.5" font-family="Helvetica,sans-Serif" font-size="10.00"> +mPadSquares</text>
<text text-anchor="middle" x="71" y="-348.5" font-family="Helvetica,sans-Serif" font-size="10.00">+mPadSum</text>
</g>
<!-- Node3 -->
<g id="node3" class="node"><title>Node3</title>
<polygon fill="none" stroke="#bfbfbf" points="99,-435.5 99,-492.5 134,-492.5 134,-435.5 99,-435.5"/>
<text text-anchor="middle" x="116.5" y="-480.5" font-family="Helvetica,sans-Serif" font-size="10.00">float</text>
<polyline fill="none" stroke="#bfbfbf" points="99,-473.5 134,-473.5 "/>
<text text-anchor="middle" x="116.5" y="-461.5" font-family="Helvetica,sans-Serif" font-size="10.00"> </text>
<polyline fill="none" stroke="#bfbfbf" points="99,-454.5 134,-454.5 "/>
<text text-anchor="middle" x="116.5" y="-442.5" font-family="Helvetica,sans-Serif" font-size="10.00"> </text>
</g>
<!-- Node3&#45;&gt;Node1 -->
<g id="edge2" class="edge"><title>Node3&#45;&gt;Node1</title>
<path fill="none" stroke="#404040" d="M113.264,-435.439C110.116,-402.024 107.167,-344.194 117.5,-296 117.969,-293.815 118.469,-291.623 119,-289.426"/>
<polygon fill="none" stroke="#404040" points="119.046,-289.252 116.712,-282.429 122.113,-277.651 124.447,-284.474 119.046,-289.252"/>
<text text-anchor="middle" x="176" y="-370.5" font-family="Helvetica,sans-Serif" font-size="10.00"> +mPadsPerEventAverage</text>
<text text-anchor="middle" x="176" y="-359.5" font-family="Helvetica,sans-Serif" font-size="10.00">+mBusyTimeAverage</text>
<text text-anchor="middle" x="176" y="-348.5" font-family="Helvetica,sans-Serif" font-size="10.00">+mBusyTimeValue</text>
<text text-anchor="middle" x="176" y="-337.5" font-family="Helvetica,sans-Serif" font-size="10.00">+mEventSizeAverage</text>
</g>
<!-- Node4 -->
<g id="node4" class="node"><title>Node4</title>
<polygon fill="none" stroke="#bfbfbf" points="231,-435.5 231,-492.5 282,-492.5 282,-435.5 231,-435.5"/>
<text text-anchor="middle" x="256.5" y="-480.5" font-family="Helvetica,sans-Serif" font-size="10.00">uint32_t</text>
<polyline fill="none" stroke="#bfbfbf" points="231,-473.5 282,-473.5 "/>
<text text-anchor="middle" x="256.5" y="-461.5" font-family="Helvetica,sans-Serif" font-size="10.00"> </text>
<polyline fill="none" stroke="#bfbfbf" points="231,-454.5 282,-454.5 "/>
<text text-anchor="middle" x="256.5" y="-442.5" font-family="Helvetica,sans-Serif" font-size="10.00"> </text>
</g>
<!-- Node4&#45;&gt;Node1 -->
<g id="edge3" class="edge"><title>Node4&#45;&gt;Node1</title>
<path fill="none" stroke="#404040" d="M254.28,-435.273C251.283,-401.939 245.063,-344.429 234.5,-296 234.054,-293.954 233.593,-291.896 233.12,-289.828"/>
<polygon fill="none" stroke="#404040" points="233.059,-289.572 227.775,-284.665 230.273,-277.9 235.557,-282.808 233.059,-289.572"/>
<text text-anchor="middle" x="288" y="-354" font-family="Helvetica,sans-Serif" font-size="10.00"> +mPadSamples</text>
</g>
<!-- Node5 -->
<g id="node5" class="node"><title>Node5</title>
<polygon fill="none" stroke="#bfbfbf" points="338,-435.5 338,-492.5 367,-492.5 367,-435.5 338,-435.5"/>
<text text-anchor="middle" x="352.5" y="-480.5" font-family="Helvetica,sans-Serif" font-size="10.00">int</text>
<polyline fill="none" stroke="#bfbfbf" points="338,-473.5 367,-473.5 "/>
<text text-anchor="middle" x="352.5" y="-461.5" font-family="Helvetica,sans-Serif" font-size="10.00"> </text>
<polyline fill="none" stroke="#bfbfbf" points="338,-454.5 367,-454.5 "/>
<text text-anchor="middle" x="352.5" y="-442.5" font-family="Helvetica,sans-Serif" font-size="10.00"> </text>
</g>
<!-- Node5&#45;&gt;Node1 -->
<g id="edge4" class="edge"><title>Node5&#45;&gt;Node1</title>
<path fill="none" stroke="#404040" d="M353.384,-435.278C353.414,-400.944 349.924,-341.437 328.5,-296 316.61,-270.783 299.235,-246.769 280.688,-225.472"/>
<polygon fill="none" stroke="#404040" points="280.679,-225.462 273.698,-223.655 272.681,-216.516 279.662,-218.323 280.679,-225.462"/>
<text text-anchor="middle" x="414" y="-409" font-family="Helvetica,sans-Serif" font-size="10.00"> +mSampleNumber</text>
<text text-anchor="middle" x="414" y="-398" font-family="Helvetica,sans-Serif" font-size="10.00">+mNumberOfEvents</text>
<text text-anchor="middle" x="414" y="-387" font-family="Helvetica,sans-Serif" font-size="10.00">+mSegment</text>
<text text-anchor="middle" x="414" y="-376" font-family="Helvetica,sans-Serif" font-size="10.00">+mWordsPerDilogicCounter</text>
<text text-anchor="middle" x="414" y="-365" font-family="Helvetica,sans-Serif" font-size="10.00">+mErrors</text>
<text text-anchor="middle" x="414" y="-354" font-family="Helvetica,sans-Serif" font-size="10.00">+mNumberOfWrongEvents</text>
<text text-anchor="middle" x="414" y="-343" font-family="Helvetica,sans-Serif" font-size="10.00">+mErrorsCounter</text>
<text text-anchor="middle" x="414" y="-332" font-family="Helvetica,sans-Serif" font-size="10.00">+mTotalPads</text>
<text text-anchor="middle" x="414" y="-321" font-family="Helvetica,sans-Serif" font-size="10.00">+mWillBePad</text>
<text text-anchor="middle" x="414" y="-310" font-family="Helvetica,sans-Serif" font-size="10.00">+mWillBeEoE</text>
<text text-anchor="middle" x="414" y="-299" font-family="Helvetica,sans-Serif" font-size="10.00">...</text>
</g>
</g>
</svg>
