<?xml version="1.0" encoding="UTF-8" standalone="no"?>
<!DOCTYPE svg PUBLIC "-//W3C//DTD SVG 1.1//EN"
 "http://www.w3.org/Graphics/SVG/1.1/DTD/svg11.dtd">
<!-- Generated by graphviz version 2.38.0 (20140413.2041)
 -->
<!-- Title: o2::quality_control_modules::tof::DiagnosticsCounter Pages: 1 -->
<svg width="734pt" height="562pt"
 viewBox="0.00 0.00 734.00 562.00" xmlns="http://www.w3.org/2000/svg" xmlns:xlink="http://www.w3.org/1999/xlink">
<g id="graph0" class="graph" transform="scale(1 1) rotate(0) translate(4 558)">
<title>o2::quality_control_modules::tof::DiagnosticsCounter</title>
<!-- Node1 -->
<g id="node1" class="node"><title>Node1</title>
<polygon fill="#bfbfbf" stroke="black" points="321,-0.5 321,-101.5 455,-101.5 455,-0.5 321,-0.5"/>
<text text-anchor="start" x="329" y="-89.5" font-family="Helvetica,sans-Serif" font-size="10.00">o2::quality_control</text>
<text text-anchor="start" x="329" y="-78.5" font-family="Helvetica,sans-Serif" font-size="10.00">_modules::tof::Diagnostics</text>
<text text-anchor="middle" x="388" y="-67.5" font-family="Helvetica,sans-Serif" font-size="10.00">Counter</text>
<polyline fill="none" stroke="black" points="321,-60.5 455,-60.5 "/>
<text text-anchor="middle" x="388" y="-48.5" font-family="Helvetica,sans-Serif" font-size="10.00"> </text>
<polyline fill="none" stroke="black" points="321,-41.5 455,-41.5 "/>
<text text-anchor="start" x="329" y="-29.5" font-family="Helvetica,sans-Serif" font-size="10.00">+ DiagnosticsCounter()</text>
<text text-anchor="start" x="329" y="-18.5" font-family="Helvetica,sans-Serif" font-size="10.00">+ ~DiagnosticsCounter()</text>
<text text-anchor="start" x="329" y="-7.5" font-family="Helvetica,sans-Serif" font-size="10.00">+ decode()</text>
</g>
<!-- Node2 -->
<g id="node2" class="node"><title>Node2</title>
<g id="a_node2"><a xlink:href="classDecoderBase.html" target="_top" xlink:title="{DecoderBase\n||}">
<polygon fill="none" stroke="black" points="0,-226.5 0,-283.5 76,-283.5 76,-226.5 0,-226.5"/>
<text text-anchor="middle" x="38" y="-271.5" font-family="Helvetica,sans-Serif" font-size="10.00">DecoderBase</text>
<polyline fill="none" stroke="black" points="0,-264.5 76,-264.5 "/>
<text text-anchor="middle" x="38" y="-252.5" font-family="Helvetica,sans-Serif" font-size="10.00"> </text>
<polyline fill="none" stroke="black" points="0,-245.5 76,-245.5 "/>
<text text-anchor="middle" x="38" y="-233.5" font-family="Helvetica,sans-Serif" font-size="10.00"> </text>
</a>
</g>
</g>
<!-- Node2&#45;&gt;Node1 -->
<g id="edge1" class="edge"><title>Node2&#45;&gt;Node1</title>
<path fill="none" stroke="midnightblue" d="M52.2446,-217.01C59.9242,-201.09 70.7831,-183.341 85,-171 153.286,-111.723 254.574,-80.058 320.937,-64.6449"/>
<polygon fill="none" stroke="midnightblue" points="49.0561,-215.567 48.089,-226.117 55.4245,-218.473 49.0561,-215.567"/>
</g>
<!-- Node3 -->
<g id="node3" class="node"><title>Node3</title>
<g id="a_node3"><a xlink:href="classo2_1_1quality__control__modules_1_1tof_1_1Counter.html" target="_top" xlink:title="{o2::quality_control\l_modules::tof::Counter\l\&lt; 2, RDHDiagnosticName \&gt;\n||+ Counter()\l+ ~Counter()\l+ Count()\l+ Reset()\l+ HowMany()\l+ MakeHistogram()\l+ FillHistogram()\l+ Size()\l}">
<polygon fill="none" stroke="black" points="94.5,-177 94.5,-333 235.5,-333 235.5,-177 94.5,-177"/>
<text text-anchor="start" x="102.5" y="-321" font-family="Helvetica,sans-Serif" font-size="10.00">o2::quality_control</text>
<text text-anchor="start" x="102.5" y="-310" font-family="Helvetica,sans-Serif" font-size="10.00">_modules::tof::Counter</text>
<text text-anchor="middle" x="165" y="-299" font-family="Helvetica,sans-Serif" font-size="10.00">&lt; 2, RDHDiagnosticName &gt;</text>
<polyline fill="none" stroke="black" points="94.5,-292 235.5,-292 "/>
<text text-anchor="middle" x="165" y="-280" font-family="Helvetica,sans-Serif" font-size="10.00"> </text>
<polyline fill="none" stroke="black" points="94.5,-273 235.5,-273 "/>
<text text-anchor="start" x="102.5" y="-261" font-family="Helvetica,sans-Serif" font-size="10.00">+ Counter()</text>
<text text-anchor="start" x="102.5" y="-250" font-family="Helvetica,sans-Serif" font-size="10.00">+ ~Counter()</text>
<text text-anchor="start" x="102.5" y="-239" font-family="Helvetica,sans-Serif" font-size="10.00">+ Count()</text>
<text text-anchor="start" x="102.5" y="-228" font-family="Helvetica,sans-Serif" font-size="10.00">+ Reset()</text>
<text text-anchor="start" x="102.5" y="-217" font-family="Helvetica,sans-Serif" font-size="10.00">+ HowMany()</text>
<text text-anchor="start" x="102.5" y="-206" font-family="Helvetica,sans-Serif" font-size="10.00">+ MakeHistogram()</text>
<text text-anchor="start" x="102.5" y="-195" font-family="Helvetica,sans-Serif" font-size="10.00">+ FillHistogram()</text>
<text text-anchor="start" x="102.5" y="-184" font-family="Helvetica,sans-Serif" font-size="10.00">+ Size()</text>
</a>
</g>
</g>
<!-- Node3&#45;&gt;Node1 -->
<g id="edge2" class="edge"><title>Node3&#45;&gt;Node1</title>
<path fill="none" stroke="#404040" d="M211.94,-176.741C226.382,-156.741 243.424,-136.278 262,-120 276.262,-107.502 293.214,-96.4143 309.985,-87.0059"/>
<polygon fill="none" stroke="#404040" points="310.398,-86.7823 313.769,-80.4078 320.95,-81.0679 317.579,-87.4425 310.398,-86.7823"/>
<text text-anchor="middle" x="299.5" y="-134" font-family="Helvetica,sans-Serif" font-size="10.00"> +mRDHCounter</text>
</g>
<!-- Node4 -->
<g id="node4" class="node"><title>Node4</title>
<g id="a_node4"><a xlink:href="classo2_1_1quality__control__modules_1_1tof_1_1Counter.html" target="_top" xlink:title="Class to count events. ">
<polygon fill="none" stroke="black" points="331,-397.5 331,-553.5 447,-553.5 447,-397.5 331,-397.5"/>
<text text-anchor="start" x="339" y="-541.5" font-family="Helvetica,sans-Serif" font-size="10.00">o2::quality_control</text>
<text text-anchor="start" x="339" y="-530.5" font-family="Helvetica,sans-Serif" font-size="10.00">_modules::tof::Counter</text>
<text text-anchor="middle" x="389" y="-519.5" font-family="Helvetica,sans-Serif" font-size="10.00">&lt; size, labels &gt;</text>
<polyline fill="none" stroke="black" points="331,-512.5 447,-512.5 "/>
<text text-anchor="middle" x="389" y="-500.5" font-family="Helvetica,sans-Serif" font-size="10.00"> </text>
<polyline fill="none" stroke="black" points="331,-493.5 447,-493.5 "/>
<text text-anchor="start" x="339" y="-481.5" font-family="Helvetica,sans-Serif" font-size="10.00">+ Counter()</text>
<text text-anchor="start" x="339" y="-470.5" font-family="Helvetica,sans-Serif" font-size="10.00">+ ~Counter()</text>
<text text-anchor="start" x="339" y="-459.5" font-family="Helvetica,sans-Serif" font-size="10.00">+ Count()</text>
<text text-anchor="start" x="339" y="-448.5" font-family="Helvetica,sans-Serif" font-size="10.00">+ Reset()</text>
<text text-anchor="start" x="339" y="-437.5" font-family="Helvetica,sans-Serif" font-size="10.00">+ HowMany()</text>
<text text-anchor="start" x="339" y="-426.5" font-family="Helvetica,sans-Serif" font-size="10.00">+ MakeHistogram()</text>
<text text-anchor="start" x="339" y="-415.5" font-family="Helvetica,sans-Serif" font-size="10.00">+ FillHistogram()</text>
<text text-anchor="start" x="339" y="-404.5" font-family="Helvetica,sans-Serif" font-size="10.00">+ Size()</text>
</a>
</g>
</g>
<!-- Node4&#45;&gt;Node3 -->
<g id="edge3" class="edge"><title>Node4&#45;&gt;Node3</title>
<path fill="none" stroke="orange" d="M321.019,-458.661C277.095,-444.897 222.299,-420.451 190,-379 179.754,-365.851 173.399,-349.576 169.525,-333.219"/>
<polygon fill="orange" stroke="orange" points="320.199,-462.07 330.784,-461.604 322.219,-455.368 320.199,-462.07"/>
<text text-anchor="middle" x="254" y="-365.5" font-family="Helvetica,sans-Serif" font-size="10.00"> &lt; 2, RDHDiagnosticName &gt;</text>
</g>
<!-- Node5 -->
<g id="node5" class="node"><title>Node5</title>
<g id="a_node5"><a xlink:href="classo2_1_1quality__control__modules_1_1tof_1_1Counter.html" target="_top" xlink:title="{o2::quality_control\l_modules::tof::Counter\l\&lt; 32, o2::tof::diagnostic\l::TRMDiagnosticName \&gt;\n||+ Counter()\l+ ~Counter()\l+ Count()\l+ Reset()\l+ HowMany()\l+ MakeHistogram()\l+ FillHistogram()\l+ Size()\l}">
<polygon fill="none" stroke="black" points="254,-171.5 254,-338.5 380,-338.5 380,-171.5 254,-171.5"/>
<text text-anchor="start" x="262" y="-326.5" font-family="Helvetica,sans-Serif" font-size="10.00">o2::quality_control</text>
<text text-anchor="start" x="262" y="-315.5" font-family="Helvetica,sans-Serif" font-size="10.00">_modules::tof::Counter</text>
<text text-anchor="start" x="262" y="-304.5" font-family="Helvetica,sans-Serif" font-size="10.00">&lt; 32, o2::tof::diagnostic</text>
<text text-anchor="middle" x="317" y="-293.5" font-family="Helvetica,sans-Serif" font-size="10.00">::TRMDiagnosticName &gt;</text>
<polyline fill="none" stroke="black" points="254,-286.5 380,-286.5 "/>
<text text-anchor="middle" x="317" y="-274.5" font-family="Helvetica,sans-Serif" font-size="10.00"> </text>
<polyline fill="none" stroke="black" points="254,-267.5 380,-267.5 "/>
<text text-anchor="start" x="262" y="-255.5" font-family="Helvetica,sans-Serif" font-size="10.00">+ Counter()</text>
<text text-anchor="start" x="262" y="-244.5" font-family="Helvetica,sans-Serif" font-size="10.00">+ ~Counter()</text>
<text text-anchor="start" x="262" y="-233.5" font-family="Helvetica,sans-Serif" font-size="10.00">+ Count()</text>
<text text-anchor="start" x="262" y="-222.5" font-family="Helvetica,sans-Serif" font-size="10.00">+ Reset()</text>
<text text-anchor="start" x="262" y="-211.5" font-family="Helvetica,sans-Serif" font-size="10.00">+ HowMany()</text>
<text text-anchor="start" x="262" y="-200.5" font-family="Helvetica,sans-Serif" font-size="10.00">+ MakeHistogram()</text>
<text text-anchor="start" x="262" y="-189.5" font-family="Helvetica,sans-Serif" font-size="10.00">+ FillHistogram()</text>
<text text-anchor="start" x="262" y="-178.5" font-family="Helvetica,sans-Serif" font-size="10.00">+ Size()</text>
</a>
</g>
</g>
<!-- Node4&#45;&gt;Node5 -->
<g id="edge5" class="edge"><title>Node4&#45;&gt;Node5</title>
<path fill="none" stroke="orange" d="M330.502,-388.245C329.226,-385.173 328.052,-382.087 327,-379 322.646,-366.224 319.829,-352.287 318.057,-338.534"/>
<polygon fill="orange" stroke="orange" points="327.327,-389.718 334.616,-397.407 333.713,-386.851 327.327,-389.718"/>
<text text-anchor="start" x="327" y="-371" font-family="Helvetica,sans-Serif" font-size="10.00"> &lt; 32, o2::tof::diagnostic</text>
<text text-anchor="middle" x="382" y="-360" font-family="Helvetica,sans-Serif" font-size="10.00">::TRMDiagnosticName &gt;</text>
</g>
<!-- Node6 -->
<g id="node6" class="node"><title>Node6</title>
<g id="a_node6"><a xlink:href="classo2_1_1quality__control__modules_1_1tof_1_1Counter.html" target="_top" xlink:title="{o2::quality_control\l_modules::tof::Counter\l\&lt; 32, o2::tof::diagnostic\l::DRMDiagnosticName \&gt;\n||+ Counter()\l+ ~Counter()\l+ Count()\l+ Reset()\l+ HowMany()\l+ MakeHistogram()\l+ FillHistogram()\l+ Size()\l}">
<polygon fill="none" stroke="black" points="398,-171.5 398,-338.5 526,-338.5 526,-171.5 398,-171.5"/>
<text text-anchor="start" x="406" y="-326.5" font-family="Helvetica,sans-Serif" font-size="10.00">o2::quality_control</text>
<text text-anchor="start" x="406" y="-315.5" font-family="Helvetica,sans-Serif" font-size="10.00">_modules::tof::Counter</text>
<text text-anchor="start" x="406" y="-304.5" font-family="Helvetica,sans-Serif" font-size="10.00">&lt; 32, o2::tof::diagnostic</text>
<text text-anchor="middle" x="462" y="-293.5" font-family="Helvetica,sans-Serif" font-size="10.00">::DRMDiagnosticName &gt;</text>
<polyline fill="none" stroke="black" points="398,-286.5 526,-286.5 "/>
<text text-anchor="middle" x="462" y="-274.5" font-family="Helvetica,sans-Serif" font-size="10.00"> </text>
<polyline fill="none" stroke="black" points="398,-267.5 526,-267.5 "/>
<text text-anchor="start" x="406" y="-255.5" font-family="Helvetica,sans-Serif" font-size="10.00">+ Counter()</text>
<text text-anchor="start" x="406" y="-244.5" font-family="Helvetica,sans-Serif" font-size="10.00">+ ~Counter()</text>
<text text-anchor="start" x="406" y="-233.5" font-family="Helvetica,sans-Serif" font-size="10.00">+ Count()</text>
<text text-anchor="start" x="406" y="-222.5" font-family="Helvetica,sans-Serif" font-size="10.00">+ Reset()</text>
<text text-anchor="start" x="406" y="-211.5" font-family="Helvetica,sans-Serif" font-size="10.00">+ HowMany()</text>
<text text-anchor="start" x="406" y="-200.5" font-family="Helvetica,sans-Serif" font-size="10.00">+ MakeHistogram()</text>
<text text-anchor="start" x="406" y="-189.5" font-family="Helvetica,sans-Serif" font-size="10.00">+ FillHistogram()</text>
<text text-anchor="start" x="406" y="-178.5" font-family="Helvetica,sans-Serif" font-size="10.00">+ Size()</text>
</a>
</g>
</g>
<!-- Node4&#45;&gt;Node6 -->
<g id="edge7" class="edge"><title>Node4&#45;&gt;Node6</title>
<path fill="none" stroke="orange" d="M433.755,-387.849C434.9,-384.885 435.986,-381.93 437,-379 441.454,-366.129 445.223,-352.212 448.376,-338.526"/>
<polygon fill="orange" stroke="orange" points="430.428,-386.741 429.918,-397.323 436.916,-389.369 430.428,-386.741"/>
<text text-anchor="start" x="444" y="-371" font-family="Helvetica,sans-Serif" font-size="10.00"> &lt; 32, o2::tof::diagnostic</text>
<text text-anchor="middle" x="500" y="-360" font-family="Helvetica,sans-Serif" font-size="10.00">::DRMDiagnosticName &gt;</text>
</g>
<!-- Node8 -->
<g id="node8" class="node"><title>Node8</title>
<g id="a_node8"><a xlink:href="classo2_1_1quality__control__modules_1_1tof_1_1Counter.html" target="_top" xlink:title="{o2::quality_control\l_modules::tof::Counter\l\&lt; 32, o2::tof::diagnostic\l::LTMDiagnosticName \&gt;\n||+ Counter()\l+ ~Counter()\l+ Count()\l+ Reset()\l+ HowMany()\l+ MakeHistogram()\l+ FillHistogram()\l+ Size()\l}">
<polygon fill="none" stroke="black" points="544,-171.5 544,-338.5 668,-338.5 668,-171.5 544,-171.5"/>
<text text-anchor="start" x="552" y="-326.5" font-family="Helvetica,sans-Serif" font-size="10.00">o2::quality_control</text>
<text text-anchor="start" x="552" y="-315.5" font-family="Helvetica,sans-Serif" font-size="10.00">_modules::tof::Counter</text>
<text text-anchor="start" x="552" y="-304.5" font-family="Helvetica,sans-Serif" font-size="10.00">&lt; 32, o2::tof::diagnostic</text>
<text text-anchor="middle" x="606" y="-293.5" font-family="Helvetica,sans-Serif" font-size="10.00">::LTMDiagnosticName &gt;</text>
<polyline fill="none" stroke="black" points="544,-286.5 668,-286.5 "/>
<text text-anchor="middle" x="606" y="-274.5" font-family="Helvetica,sans-Serif" font-size="10.00"> </text>
<polyline fill="none" stroke="black" points="544,-267.5 668,-267.5 "/>
<text text-anchor="start" x="552" y="-255.5" font-family="Helvetica,sans-Serif" font-size="10.00">+ Counter()</text>
<text text-anchor="start" x="552" y="-244.5" font-family="Helvetica,sans-Serif" font-size="10.00">+ ~Counter()</text>
<text text-anchor="start" x="552" y="-233.5" font-family="Helvetica,sans-Serif" font-size="10.00">+ Count()</text>
<text text-anchor="start" x="552" y="-222.5" font-family="Helvetica,sans-Serif" font-size="10.00">+ Reset()</text>
<text text-anchor="start" x="552" y="-211.5" font-family="Helvetica,sans-Serif" font-size="10.00">+ HowMany()</text>
<text text-anchor="start" x="552" y="-200.5" font-family="Helvetica,sans-Serif" font-size="10.00">+ MakeHistogram()</text>
<text text-anchor="start" x="552" y="-189.5" font-family="Helvetica,sans-Serif" font-size="10.00">+ FillHistogram()</text>
<text text-anchor="start" x="552" y="-178.5" font-family="Helvetica,sans-Serif" font-size="10.00">+ Size()</text>
</a>
</g>
</g>
<!-- Node4&#45;&gt;Node8 -->
<g id="edge10" class="edge"><title>Node4&#45;&gt;Node8</title>
<path fill="none" stroke="orange" d="M456.268,-450.169C491.293,-434.536 532.441,-411.084 560,-379 570.102,-367.24 578.082,-353.049 584.356,-338.548"/>
<polygon fill="orange" stroke="orange" points="454.82,-446.982 447.039,-454.173 457.606,-453.404 454.82,-446.982"/>
<text text-anchor="start" x="575" y="-371" font-family="Helvetica,sans-Serif" font-size="10.00"> &lt; 32, o2::tof::diagnostic</text>
<text text-anchor="middle" x="629" y="-360" font-family="Helvetica,sans-Serif" font-size="10.00">::LTMDiagnosticName &gt;</text>
</g>
<!-- Node5&#45;&gt;Node1 -->
<g id="edge4" class="edge"><title>Node5&#45;&gt;Node1</title>
<path fill="none" stroke="#404040" d="M335.422,-171.195C340.128,-154.036 345.677,-136.245 352,-120 352.965,-117.522 353.997,-115.018 355.08,-112.508"/>
<polygon fill="none" stroke="#404040" points="355.117,-112.428 353.975,-105.308 360.109,-101.516 361.25,-108.636 355.117,-112.428"/>
<text text-anchor="middle" x="389" y="-134" font-family="Helvetica,sans-Serif" font-size="10.00"> +mTRMCounter</text>
</g>
<!-- Node6&#45;&gt;Node1 -->
<g id="edge6" class="edge"><title>Node6&#45;&gt;Node1</title>
<path fill="none" stroke="#404040" d="M443.262,-171.448C438.393,-154.187 432.621,-136.291 426,-120 425.045,-117.651 424.027,-115.281 422.958,-112.906"/>
<polygon fill="none" stroke="#404040" points="422.831,-112.64 416.633,-108.953 417.653,-101.815 423.85,-105.501 422.831,-112.64"/>
<text text-anchor="middle" x="476" y="-134" font-family="Helvetica,sans-Serif" font-size="10.00"> +mDRMCounter</text>
</g>
<!-- Node7 -->
<g id="node7" class="node"><title>Node7</title>
<polygon fill="none" stroke="#bfbfbf" points="685.5,-226.5 685.5,-283.5 714.5,-283.5 714.5,-226.5 685.5,-226.5"/>
<text text-anchor="middle" x="700" y="-271.5" font-family="Helvetica,sans-Serif" font-size="10.00">int</text>
<polyline fill="none" stroke="#bfbfbf" points="685.5,-264.5 714.5,-264.5 "/>
<text text-anchor="middle" x="700" y="-252.5" font-family="Helvetica,sans-Serif" font-size="10.00"> </text>
<polyline fill="none" stroke="#bfbfbf" points="685.5,-245.5 714.5,-245.5 "/>
<text text-anchor="middle" x="700" y="-233.5" font-family="Helvetica,sans-Serif" font-size="10.00"> </text>
</g>
<!-- Node7&#45;&gt;Node1 -->
<g id="edge8" class="edge"><title>Node7&#45;&gt;Node1</title>
<path fill="none" stroke="#404040" d="M696.151,-226.378C692.904,-209.492 687.105,-187.955 677,-171 660.264,-142.919 652.314,-136.338 624,-120 575.484,-92.005 514.615,-74.8353 466.847,-64.7526"/>
<polygon fill="none" stroke="#404040" points="466.759,-64.7347 460.081,-67.4567 455,-62.3396 461.678,-59.6176 466.759,-64.7347"/>
<text text-anchor="middle" x="696" y="-145" font-family="Helvetica,sans-Serif" font-size="10.00"> +ntrms</text>
<text text-anchor="middle" x="696" y="-134" font-family="Helvetica,sans-Serif" font-size="10.00">+ntrmschains</text>
<text text-anchor="middle" x="696" y="-123" font-family="Helvetica,sans-Serif" font-size="10.00">+ncrates</text>
</g>
<!-- Node8&#45;&gt;Node1 -->
<g id="edge9" class="edge"><title>Node8&#45;&gt;Node1</title>
<path fill="none" stroke="#404040" d="M561.107,-171.222C548.733,-152.935 534.195,-134.664 518,-120 502.769,-106.209 484.229,-94.3575 465.977,-84.5924"/>
<polygon fill="none" stroke="#404040" points="465.958,-84.5826 458.792,-85.3894 455.292,-79.085 462.457,-78.2783 465.958,-84.5826"/>
<text text-anchor="middle" x="584" y="-134" font-family="Helvetica,sans-Serif" font-size="10.00"> +mLTMCounter</text>
</g>
</g>
</svg>
