<?xml version="1.0" encoding="UTF-8" standalone="no"?>
<!DOCTYPE svg PUBLIC "-//W3C//DTD SVG 1.1//EN"
 "http://www.w3.org/Graphics/SVG/1.1/DTD/svg11.dtd">
<!-- Generated by graphviz version 2.38.0 (20140413.2041)
 -->
<!-- Title: Task Pages: 1 -->
<svg width="1185pt" height="314pt"
 viewBox="0.00 0.00 1184.50 314.00" xmlns="http://www.w3.org/2000/svg" xmlns:xlink="http://www.w3.org/1999/xlink">
<g id="graph0" class="graph" transform="scale(1 1) rotate(0) translate(4 310)">
<title>Task</title>
<!-- Node1 -->
<g id="node1" class="node"><title>Node1</title>
<polygon fill="#bfbfbf" stroke="black" points="549,-248.5 549,-305.5 587,-305.5 587,-248.5 549,-248.5"/>
<text text-anchor="middle" x="568" y="-293.5" font-family="Helvetica,sans-Serif" font-size="10.00">Task</text>
<polyline fill="none" stroke="black" points="549,-286.5 587,-286.5 "/>
<text text-anchor="middle" x="568" y="-274.5" font-family="Helvetica,sans-Serif" font-size="10.00"> </text>
<polyline fill="none" stroke="black" points="549,-267.5 587,-267.5 "/>
<text text-anchor="middle" x="568" y="-255.5" font-family="Helvetica,sans-Serif" font-size="10.00"> </text>
</g>
<!-- Node2 -->
<g id="node2" class="node"><title>Node2</title>
<g id="a_node2"><a xlink:href="classClustersRootFileReaderMFT.html" target="_top" xlink:title="{ClustersRootFileReaderMFT\n||+ init()\l+ run()\l}">
<polygon fill="none" stroke="black" points="0,-72 0,-140 142,-140 142,-72 0,-72"/>
<text text-anchor="middle" x="71" y="-128" font-family="Helvetica,sans-Serif" font-size="10.00">ClustersRootFileReaderMFT</text>
<polyline fill="none" stroke="black" points="0,-121 142,-121 "/>
<text text-anchor="middle" x="71" y="-109" font-family="Helvetica,sans-Serif" font-size="10.00"> </text>
<polyline fill="none" stroke="black" points="0,-102 142,-102 "/>
<text text-anchor="start" x="8" y="-90" font-family="Helvetica,sans-Serif" font-size="10.00">+ init()</text>
<text text-anchor="start" x="8" y="-79" font-family="Helvetica,sans-Serif" font-size="10.00">+ run()</text>
</a>
</g>
</g>
<!-- Node1&#45;&gt;Node2 -->
<g id="edge1" class="edge"><title>Node1&#45;&gt;Node2</title>
<path fill="none" stroke="midnightblue" d="M538.617,-274.333C454.921,-269.148 217.058,-251.239 151,-212 122.627,-195.146 100.861,-164.03 87.2469,-140.03"/>
<polygon fill="none" stroke="midnightblue" points="538.514,-277.833 548.707,-274.943 538.936,-270.846 538.514,-277.833"/>
</g>
<!-- Node3 -->
<g id="node3" class="node"><title>Node3</title>
<g id="a_node3"><a xlink:href="classDigitsRootFileReaderMFT.html" target="_top" xlink:title="{DigitsRootFileReaderMFT\n||+ init()\l+ run()\l}">
<polygon fill="none" stroke="black" points="160.5,-72 160.5,-140 291.5,-140 291.5,-72 160.5,-72"/>
<text text-anchor="middle" x="226" y="-128" font-family="Helvetica,sans-Serif" font-size="10.00">DigitsRootFileReaderMFT</text>
<polyline fill="none" stroke="black" points="160.5,-121 291.5,-121 "/>
<text text-anchor="middle" x="226" y="-109" font-family="Helvetica,sans-Serif" font-size="10.00"> </text>
<polyline fill="none" stroke="black" points="160.5,-102 291.5,-102 "/>
<text text-anchor="start" x="168.5" y="-90" font-family="Helvetica,sans-Serif" font-size="10.00">+ init()</text>
<text text-anchor="start" x="168.5" y="-79" font-family="Helvetica,sans-Serif" font-size="10.00">+ run()</text>
</a>
</g>
</g>
<!-- Node1&#45;&gt;Node3 -->
<g id="edge2" class="edge"><title>Node1&#45;&gt;Node3</title>
<path fill="none" stroke="midnightblue" d="M538.491,-275.506C486.244,-273.293 375.92,-262.479 301,-212 274.619,-194.225 254.428,-163.863 241.678,-140.347"/>
<polygon fill="none" stroke="midnightblue" points="538.61,-279.012 548.725,-275.859 538.852,-272.016 538.61,-279.012"/>
</g>
<!-- Node4 -->
<g id="node4" class="node"><title>Node4</title>
<g id="a_node4"><a xlink:href="classo2_1_1quality__control_1_1checker_1_1AggregatorRunner.html" target="_top" xlink:title="The class in charge of running the aggregators on the QualityObjects. ">
<polygon fill="none" stroke="black" points="310,-17 310,-195 474,-195 474,-17 310,-17"/>
<text text-anchor="start" x="318" y="-183" font-family="Helvetica,sans-Serif" font-size="10.00">o2::quality_control</text>
<text text-anchor="middle" x="392" y="-172" font-family="Helvetica,sans-Serif" font-size="10.00">::checker::AggregatorRunner</text>
<polyline fill="none" stroke="black" points="310,-165 474,-165 "/>
<text text-anchor="middle" x="392" y="-153" font-family="Helvetica,sans-Serif" font-size="10.00"> </text>
<polyline fill="none" stroke="black" points="310,-146 474,-146 "/>
<text text-anchor="start" x="318" y="-134" font-family="Helvetica,sans-Serif" font-size="10.00">+ AggregatorRunner()</text>
<text text-anchor="start" x="318" y="-123" font-family="Helvetica,sans-Serif" font-size="10.00">+ ~AggregatorRunner()</text>
<text text-anchor="start" x="318" y="-112" font-family="Helvetica,sans-Serif" font-size="10.00">+ init()</text>
<text text-anchor="start" x="318" y="-101" font-family="Helvetica,sans-Serif" font-size="10.00">+ run()</text>
<text text-anchor="start" x="318" y="-90" font-family="Helvetica,sans-Serif" font-size="10.00">+ getInputs()</text>
<text text-anchor="start" x="318" y="-79" font-family="Helvetica,sans-Serif" font-size="10.00">+ getDeviceName()</text>
<text text-anchor="start" x="318" y="-68" font-family="Helvetica,sans-Serif" font-size="10.00">+ createAggregatorRunnerId</text>
<text text-anchor="start" x="318" y="-57" font-family="Helvetica,sans-Serif" font-size="10.00">String()</text>
<text text-anchor="start" x="318" y="-46" font-family="Helvetica,sans-Serif" font-size="10.00">+ createAggregatorRunnerName()</text>
<text text-anchor="start" x="318" y="-35" font-family="Helvetica,sans-Serif" font-size="10.00">+ createAggregatorRunnerData</text>
<text text-anchor="start" x="318" y="-24" font-family="Helvetica,sans-Serif" font-size="10.00">Description()</text>
</a>
</g>
</g>
<!-- Node1&#45;&gt;Node4 -->
<g id="edge3" class="edge"><title>Node1&#45;&gt;Node4</title>
<path fill="none" stroke="midnightblue" d="M540.366,-257.442C523.148,-245.346 500.938,-228.746 483,-212 477.269,-206.65 471.527,-200.966 465.868,-195.12"/>
<polygon fill="none" stroke="midnightblue" points="538.653,-260.514 548.865,-263.334 542.641,-254.761 538.653,-260.514"/>
</g>
<!-- Node5 -->
<g id="node5" class="node"><title>Node5</title>
<g id="a_node5"><a xlink:href="classo2_1_1quality__control_1_1core_1_1TaskRunner.html" target="_top" xlink:title="A class driving the execution of a QC task inside DPL. ">
<polygon fill="none" stroke="black" points="492.5,-0.5 492.5,-211.5 643.5,-211.5 643.5,-0.5 492.5,-0.5"/>
<text text-anchor="start" x="500.5" y="-199.5" font-family="Helvetica,sans-Serif" font-size="10.00">o2::quality_control</text>
<text text-anchor="middle" x="568" y="-188.5" font-family="Helvetica,sans-Serif" font-size="10.00">::core::TaskRunner</text>
<polyline fill="none" stroke="black" points="492.5,-181.5 643.5,-181.5 "/>
<text text-anchor="middle" x="568" y="-169.5" font-family="Helvetica,sans-Serif" font-size="10.00"> </text>
<polyline fill="none" stroke="black" points="492.5,-162.5 643.5,-162.5 "/>
<text text-anchor="start" x="500.5" y="-150.5" font-family="Helvetica,sans-Serif" font-size="10.00">+ TaskRunner()</text>
<text text-anchor="start" x="500.5" y="-139.5" font-family="Helvetica,sans-Serif" font-size="10.00">+ ~TaskRunner()</text>
<text text-anchor="start" x="500.5" y="-128.5" font-family="Helvetica,sans-Serif" font-size="10.00">+ init()</text>
<text text-anchor="start" x="500.5" y="-117.5" font-family="Helvetica,sans-Serif" font-size="10.00">+ run()</text>
<text text-anchor="start" x="500.5" y="-106.5" font-family="Helvetica,sans-Serif" font-size="10.00">+ getDeviceName()</text>
<text text-anchor="start" x="500.5" y="-95.5" font-family="Helvetica,sans-Serif" font-size="10.00">+ getInputsSpecs()</text>
<text text-anchor="start" x="500.5" y="-84.5" font-family="Helvetica,sans-Serif" font-size="10.00">+ getOutputSpec()</text>
<text text-anchor="start" x="500.5" y="-73.5" font-family="Helvetica,sans-Serif" font-size="10.00">+ getOptions()</text>
<text text-anchor="start" x="500.5" y="-62.5" font-family="Helvetica,sans-Serif" font-size="10.00">+ setResetAfterPublish()</text>
<text text-anchor="start" x="500.5" y="-51.5" font-family="Helvetica,sans-Serif" font-size="10.00">+ endOfStream()</text>
<text text-anchor="start" x="500.5" y="-40.5" font-family="Helvetica,sans-Serif" font-size="10.00">+ completionPolicyCallback()</text>
<text text-anchor="start" x="500.5" y="-29.5" font-family="Helvetica,sans-Serif" font-size="10.00">+ createTaskRunnerIdString()</text>
<text text-anchor="start" x="500.5" y="-18.5" font-family="Helvetica,sans-Serif" font-size="10.00">+ createTaskDataOrigin()</text>
<text text-anchor="start" x="500.5" y="-7.5" font-family="Helvetica,sans-Serif" font-size="10.00">+ createTaskDataDescription()</text>
</a>
</g>
</g>
<!-- Node1&#45;&gt;Node5 -->
<g id="edge4" class="edge"><title>Node1&#45;&gt;Node5</title>
<path fill="none" stroke="midnightblue" d="M568,-238.233C568,-230.038 568,-220.987 568,-211.584"/>
<polygon fill="none" stroke="midnightblue" points="564.5,-238.471 568,-248.471 571.5,-238.471 564.5,-238.471"/>
</g>
<!-- Node6 -->
<g id="node6" class="node"><title>Node6</title>
<g id="a_node6"><a xlink:href="classo2_1_1quality__control_1_1example_1_1ExampleQualityPrinterSpec.html" target="_top" xlink:title="Example DPL task to be plugged after a QC check. ">
<polygon fill="none" stroke="black" points="661.5,-72 661.5,-140 846.5,-140 846.5,-72 661.5,-72"/>
<text text-anchor="start" x="669.5" y="-128" font-family="Helvetica,sans-Serif" font-size="10.00">o2::quality_control</text>
<text text-anchor="middle" x="754" y="-117" font-family="Helvetica,sans-Serif" font-size="10.00">::example::ExampleQualityPrinterSpec</text>
<polyline fill="none" stroke="black" points="661.5,-110 846.5,-110 "/>
<text text-anchor="middle" x="754" y="-98" font-family="Helvetica,sans-Serif" font-size="10.00"> </text>
<polyline fill="none" stroke="black" points="661.5,-91 846.5,-91 "/>
<text text-anchor="start" x="669.5" y="-79" font-family="Helvetica,sans-Serif" font-size="10.00">+ run()</text>
</a>
</g>
</g>
<!-- Node1&#45;&gt;Node6 -->
<g id="edge5" class="edge"><title>Node1&#45;&gt;Node6</title>
<path fill="none" stroke="midnightblue" d="M595.667,-256.88C612.725,-244.68 634.752,-228.17 653,-212 678.556,-189.354 705.246,-161.393 724.767,-140.02"/>
<polygon fill="none" stroke="midnightblue" points="593.384,-254.207 587.246,-262.842 597.429,-259.92 593.384,-254.207"/>
</g>
<!-- Node7 -->
<g id="node7" class="node"><title>Node7</title>
<g id="a_node7"><a xlink:href="classo2_1_1quality__control__modules_1_1ft0_1_1FT0DataProducer.html" target="_top" xlink:title="{o2::quality_control\l_modules::ft0::FT0DataProducer\n||+ init()\l+ run()\l}">
<polygon fill="none" stroke="black" points="864.5,-66.5 864.5,-145.5 1023.5,-145.5 1023.5,-66.5 864.5,-66.5"/>
<text text-anchor="start" x="872.5" y="-133.5" font-family="Helvetica,sans-Serif" font-size="10.00">o2::quality_control</text>
<text text-anchor="middle" x="944" y="-122.5" font-family="Helvetica,sans-Serif" font-size="10.00">_modules::ft0::FT0DataProducer</text>
<polyline fill="none" stroke="black" points="864.5,-115.5 1023.5,-115.5 "/>
<text text-anchor="middle" x="944" y="-103.5" font-family="Helvetica,sans-Serif" font-size="10.00"> </text>
<polyline fill="none" stroke="black" points="864.5,-96.5 1023.5,-96.5 "/>
<text text-anchor="start" x="872.5" y="-84.5" font-family="Helvetica,sans-Serif" font-size="10.00">+ init()</text>
<text text-anchor="start" x="872.5" y="-73.5" font-family="Helvetica,sans-Serif" font-size="10.00">+ run()</text>
</a>
</g>
</g>
<!-- Node1&#45;&gt;Node7 -->
<g id="edge6" class="edge"><title>Node1&#45;&gt;Node7</title>
<path fill="none" stroke="midnightblue" d="M597.081,-275.58C651.743,-273.552 771.872,-263.113 856,-212 882.832,-195.698 905.39,-168.291 920.948,-145.566"/>
<polygon fill="none" stroke="midnightblue" points="596.942,-272.083 587.052,-275.883 597.153,-279.08 596.942,-272.083"/>
</g>
<!-- Node8 -->
<g id="node8" class="node"><title>Node8</title>
<g id="a_node8"><a xlink:href="classTracksRootFileReaderMFT.html" target="_top" xlink:title="{TracksRootFileReaderMFT\n||+ init()\l+ run()\l}">
<polygon fill="none" stroke="black" points="1041.5,-72 1041.5,-140 1176.5,-140 1176.5,-72 1041.5,-72"/>
<text text-anchor="middle" x="1109" y="-128" font-family="Helvetica,sans-Serif" font-size="10.00">TracksRootFileReaderMFT</text>
<polyline fill="none" stroke="black" points="1041.5,-121 1176.5,-121 "/>
<text text-anchor="middle" x="1109" y="-109" font-family="Helvetica,sans-Serif" font-size="10.00"> </text>
<polyline fill="none" stroke="black" points="1041.5,-102 1176.5,-102 "/>
<text text-anchor="start" x="1049.5" y="-90" font-family="Helvetica,sans-Serif" font-size="10.00">+ init()</text>
<text text-anchor="start" x="1049.5" y="-79" font-family="Helvetica,sans-Serif" font-size="10.00">+ run()</text>
</a>
</g>
</g>
<!-- Node1&#45;&gt;Node8 -->
<g id="edge7" class="edge"><title>Node1&#45;&gt;Node8</title>
<path fill="none" stroke="midnightblue" d="M597.148,-274.949C687.097,-271.254 958.722,-256.577 1033,-212 1060.79,-195.325 1081.36,-164.187 1094.04,-140.132"/>
<polygon fill="none" stroke="midnightblue" points="596.959,-271.454 587.105,-275.347 597.236,-278.448 596.959,-271.454"/>
</g>
</g>
</svg>
