<?xml version="1.0" encoding="UTF-8" standalone="no"?>
<!DOCTYPE svg PUBLIC "-//W3C//DTD SVG 1.1//EN"
 "http://www.w3.org/Graphics/SVG/1.1/DTD/svg11.dtd">
<!-- Generated by graphviz version 2.38.0 (20140413.2041)
 -->
<!-- Title: o2::quality_control::postprocessing::PostProcessingInterface Pages: 1 -->
<svg width="1124pt" height="402pt"
 viewBox="0.00 0.00 1123.50 402.00" xmlns="http://www.w3.org/2000/svg" xmlns:xlink="http://www.w3.org/1999/xlink">
<g id="graph0" class="graph" transform="scale(1 1) rotate(0) translate(4 398)">
<title>o2::quality_control::postprocessing::PostProcessingInterface</title>
<!-- Node1 -->
<g id="node1" class="node"><title>Node1</title>
<polygon fill="#bfbfbf" stroke="black" points="477,-215.5 477,-393.5 641,-393.5 641,-215.5 477,-215.5"/>
<text text-anchor="start" x="485" y="-381.5" font-family="Helvetica,sans-Serif" font-size="10.00">o2::quality_control</text>
<text text-anchor="start" x="485" y="-370.5" font-family="Helvetica,sans-Serif" font-size="10.00">::postprocessing::PostProcessing</text>
<text text-anchor="middle" x="559" y="-359.5" font-family="Helvetica,sans-Serif" font-size="10.00">Interface</text>
<polyline fill="none" stroke="black" points="477,-352.5 641,-352.5 "/>
<text text-anchor="middle" x="559" y="-340.5" font-family="Helvetica,sans-Serif" font-size="10.00"> </text>
<polyline fill="none" stroke="black" points="477,-333.5 641,-333.5 "/>
<text text-anchor="start" x="485" y="-321.5" font-family="Helvetica,sans-Serif" font-size="10.00">+ PostProcessingInterface()</text>
<text text-anchor="start" x="485" y="-310.5" font-family="Helvetica,sans-Serif" font-size="10.00">+ ~PostProcessingInterface()</text>
<text text-anchor="start" x="485" y="-299.5" font-family="Helvetica,sans-Serif" font-size="10.00">+ configure()</text>
<text text-anchor="start" x="485" y="-288.5" font-family="Helvetica,sans-Serif" font-size="10.00">+ initialize()</text>
<text text-anchor="start" x="485" y="-277.5" font-family="Helvetica,sans-Serif" font-size="10.00">+ update()</text>
<text text-anchor="start" x="485" y="-266.5" font-family="Helvetica,sans-Serif" font-size="10.00">+ finalize()</text>
<text text-anchor="start" x="485" y="-255.5" font-family="Helvetica,sans-Serif" font-size="10.00">+ setObjectsManager()</text>
<text text-anchor="start" x="485" y="-244.5" font-family="Helvetica,sans-Serif" font-size="10.00">+ setName()</text>
<text text-anchor="start" x="485" y="-233.5" font-family="Helvetica,sans-Serif" font-size="10.00">+ getName()</text>
<text text-anchor="start" x="485" y="-222.5" font-family="Helvetica,sans-Serif" font-size="10.00"># getObjectsManager()</text>
</g>
<!-- Node2 -->
<g id="node2" class="node"><title>Node2</title>
<g id="a_node2"><a xlink:href="classo2_1_1quality__control_1_1postprocessing_1_1TrendingTask.html" target="_top" xlink:title="A post&#45;processing task which trends values, stores them in a TTree and produces plots. ">
<polygon fill="none" stroke="black" points="0,-28 0,-151 154,-151 154,-28 0,-28"/>
<text text-anchor="start" x="8" y="-139" font-family="Helvetica,sans-Serif" font-size="10.00">o2::quality_control</text>
<text text-anchor="middle" x="77" y="-128" font-family="Helvetica,sans-Serif" font-size="10.00">::postprocessing::TrendingTask</text>
<polyline fill="none" stroke="black" points="0,-121 154,-121 "/>
<text text-anchor="middle" x="77" y="-109" font-family="Helvetica,sans-Serif" font-size="10.00"> </text>
<polyline fill="none" stroke="black" points="0,-102 154,-102 "/>
<text text-anchor="start" x="8" y="-90" font-family="Helvetica,sans-Serif" font-size="10.00">+ TrendingTask()</text>
<text text-anchor="start" x="8" y="-79" font-family="Helvetica,sans-Serif" font-size="10.00">+ ~TrendingTask()</text>
<text text-anchor="start" x="8" y="-68" font-family="Helvetica,sans-Serif" font-size="10.00">+ configure()</text>
<text text-anchor="start" x="8" y="-57" font-family="Helvetica,sans-Serif" font-size="10.00">+ initialize()</text>
<text text-anchor="start" x="8" y="-46" font-family="Helvetica,sans-Serif" font-size="10.00">+ update()</text>
<text text-anchor="start" x="8" y="-35" font-family="Helvetica,sans-Serif" font-size="10.00">+ finalize()</text>
</a>
</g>
</g>
<!-- Node1&#45;&gt;Node2 -->
<g id="edge1" class="edge"><title>Node1&#45;&gt;Node2</title>
<path fill="none" stroke="midnightblue" d="M466.66,-287.919C382.747,-270.75 257.927,-237.484 163,-179 150.597,-171.358 138.715,-161.532 127.952,-151.221"/>
<polygon fill="none" stroke="midnightblue" points="466.192,-291.395 476.685,-289.934 467.571,-284.532 466.192,-291.395"/>
</g>
<!-- Node3 -->
<g id="node3" class="node"><title>Node3</title>
<g id="a_node3"><a xlink:href="classo2_1_1quality__control_1_1postprocessing_1_1TrendingTaskITSFhr.html" target="_top" xlink:title="A post&#45;processing task which trends values, stores them in a TTree and produces plots. ">
<polygon fill="none" stroke="black" points="172,-22.5 172,-156.5 304,-156.5 304,-22.5 172,-22.5"/>
<text text-anchor="start" x="180" y="-144.5" font-family="Helvetica,sans-Serif" font-size="10.00">o2::quality_control</text>
<text text-anchor="start" x="180" y="-133.5" font-family="Helvetica,sans-Serif" font-size="10.00">::postprocessing::Trending</text>
<text text-anchor="middle" x="238" y="-122.5" font-family="Helvetica,sans-Serif" font-size="10.00">TaskITSFhr</text>
<polyline fill="none" stroke="black" points="172,-115.5 304,-115.5 "/>
<text text-anchor="middle" x="238" y="-103.5" font-family="Helvetica,sans-Serif" font-size="10.00"> </text>
<polyline fill="none" stroke="black" points="172,-96.5 304,-96.5 "/>
<text text-anchor="start" x="180" y="-84.5" font-family="Helvetica,sans-Serif" font-size="10.00">+ TrendingTaskITSFhr()</text>
<text text-anchor="start" x="180" y="-73.5" font-family="Helvetica,sans-Serif" font-size="10.00">+ ~TrendingTaskITSFhr()</text>
<text text-anchor="start" x="180" y="-62.5" font-family="Helvetica,sans-Serif" font-size="10.00">+ configure()</text>
<text text-anchor="start" x="180" y="-51.5" font-family="Helvetica,sans-Serif" font-size="10.00">+ initialize()</text>
<text text-anchor="start" x="180" y="-40.5" font-family="Helvetica,sans-Serif" font-size="10.00">+ update()</text>
<text text-anchor="start" x="180" y="-29.5" font-family="Helvetica,sans-Serif" font-size="10.00">+ finalize()</text>
</a>
</g>
</g>
<!-- Node1&#45;&gt;Node3 -->
<g id="edge2" class="edge"><title>Node1&#45;&gt;Node3</title>
<path fill="none" stroke="midnightblue" d="M467.683,-267.789C418.995,-246.25 359.683,-215.844 313,-179 304.621,-172.387 296.497,-164.719 288.881,-156.716"/>
<polygon fill="none" stroke="midnightblue" points="466.394,-271.045 476.958,-271.842 469.197,-264.631 466.394,-271.045"/>
</g>
<!-- Node4 -->
<g id="node4" class="node"><title>Node4</title>
<g id="a_node4"><a xlink:href="classo2_1_1quality__control_1_1postprocessing_1_1TrendingTaskITSThr.html" target="_top" xlink:title="A post&#45;processing task which trends values, stores them in a TTree and produces plots. ">
<polygon fill="none" stroke="black" points="322.5,-0.5 322.5,-178.5 461.5,-178.5 461.5,-0.5 322.5,-0.5"/>
<text text-anchor="start" x="330.5" y="-166.5" font-family="Helvetica,sans-Serif" font-size="10.00">o2::quality_control</text>
<text text-anchor="start" x="330.5" y="-155.5" font-family="Helvetica,sans-Serif" font-size="10.00">::postprocessing::Trending</text>
<text text-anchor="middle" x="392" y="-144.5" font-family="Helvetica,sans-Serif" font-size="10.00">TaskITSThr</text>
<polyline fill="none" stroke="black" points="322.5,-137.5 461.5,-137.5 "/>
<text text-anchor="middle" x="392" y="-125.5" font-family="Helvetica,sans-Serif" font-size="10.00"> </text>
<polyline fill="none" stroke="black" points="322.5,-118.5 461.5,-118.5 "/>
<text text-anchor="start" x="330.5" y="-106.5" font-family="Helvetica,sans-Serif" font-size="10.00">+ TrendingTaskITSThr()</text>
<text text-anchor="start" x="330.5" y="-95.5" font-family="Helvetica,sans-Serif" font-size="10.00">+ ~TrendingTaskITSThr()</text>
<text text-anchor="start" x="330.5" y="-84.5" font-family="Helvetica,sans-Serif" font-size="10.00">+ configure()</text>
<text text-anchor="start" x="330.5" y="-73.5" font-family="Helvetica,sans-Serif" font-size="10.00">+ initialize()</text>
<text text-anchor="start" x="330.5" y="-62.5" font-family="Helvetica,sans-Serif" font-size="10.00">+ update()</text>
<text text-anchor="start" x="330.5" y="-51.5" font-family="Helvetica,sans-Serif" font-size="10.00">+ finalize()</text>
<text text-anchor="start" x="330.5" y="-40.5" font-family="Helvetica,sans-Serif" font-size="10.00">+ SetLegendStyle()</text>
<text text-anchor="start" x="330.5" y="-29.5" font-family="Helvetica,sans-Serif" font-size="10.00">+ SetGraphStyle()</text>
<text text-anchor="start" x="330.5" y="-18.5" font-family="Helvetica,sans-Serif" font-size="10.00">+ SetGraphNameAndAxes()</text>
<text text-anchor="start" x="330.5" y="-7.5" font-family="Helvetica,sans-Serif" font-size="10.00">+ PrepareLegend()</text>
</a>
</g>
</g>
<!-- Node1&#45;&gt;Node4 -->
<g id="edge3" class="edge"><title>Node1&#45;&gt;Node4</title>
<path fill="none" stroke="midnightblue" d="M483.596,-207.326C476.096,-197.761 468.509,-188.083 461.079,-178.607"/>
<polygon fill="none" stroke="midnightblue" points="480.945,-209.617 489.869,-215.327 486.453,-205.298 480.945,-209.617"/>
</g>
<!-- Node5 -->
<g id="node5" class="node"><title>Node5</title>
<g id="a_node5"><a xlink:href="classo2_1_1quality__control__modules_1_1ft0_1_1TreeReaderPostProcessing.html" target="_top" xlink:title="{o2::quality_control\l_modules::ft0::TreeReaderPost\lProcessing\n||+ TreeReaderPostProcessing()\l+ ~TreeReaderPostProcessing()\l+ initialize()\l+ update()\l+ finalize()\l}">
<polygon fill="none" stroke="black" points="480,-28 480,-151 638,-151 638,-28 480,-28"/>
<text text-anchor="start" x="488" y="-139" font-family="Helvetica,sans-Serif" font-size="10.00">o2::quality_control</text>
<text text-anchor="start" x="488" y="-128" font-family="Helvetica,sans-Serif" font-size="10.00">_modules::ft0::TreeReaderPost</text>
<text text-anchor="middle" x="559" y="-117" font-family="Helvetica,sans-Serif" font-size="10.00">Processing</text>
<polyline fill="none" stroke="black" points="480,-110 638,-110 "/>
<text text-anchor="middle" x="559" y="-98" font-family="Helvetica,sans-Serif" font-size="10.00"> </text>
<polyline fill="none" stroke="black" points="480,-91 638,-91 "/>
<text text-anchor="start" x="488" y="-79" font-family="Helvetica,sans-Serif" font-size="10.00">+ TreeReaderPostProcessing()</text>
<text text-anchor="start" x="488" y="-68" font-family="Helvetica,sans-Serif" font-size="10.00">+ ~TreeReaderPostProcessing()</text>
<text text-anchor="start" x="488" y="-57" font-family="Helvetica,sans-Serif" font-size="10.00">+ initialize()</text>
<text text-anchor="start" x="488" y="-46" font-family="Helvetica,sans-Serif" font-size="10.00">+ update()</text>
<text text-anchor="start" x="488" y="-35" font-family="Helvetica,sans-Serif" font-size="10.00">+ finalize()</text>
</a>
</g>
</g>
<!-- Node1&#45;&gt;Node5 -->
<g id="edge4" class="edge"><title>Node1&#45;&gt;Node5</title>
<path fill="none" stroke="midnightblue" d="M559,-205.126C559,-186.677 559,-167.901 559,-151.03"/>
<polygon fill="none" stroke="midnightblue" points="555.5,-205.327 559,-215.327 562.5,-205.327 555.5,-205.327"/>
</g>
<!-- Node6 -->
<g id="node6" class="node"><title>Node6</title>
<g id="a_node6"><a xlink:href="classo2_1_1quality__control__modules_1_1skeleton_1_1SkeletonPostProcessing.html" target="_top" xlink:title="Example Quality Control Postprocessing Task. ">
<polygon fill="none" stroke="black" points="656.5,-28 656.5,-151 801.5,-151 801.5,-28 656.5,-28"/>
<text text-anchor="start" x="664.5" y="-139" font-family="Helvetica,sans-Serif" font-size="10.00">o2::quality_control</text>
<text text-anchor="start" x="664.5" y="-128" font-family="Helvetica,sans-Serif" font-size="10.00">_modules::skeleton::</text>
<text text-anchor="middle" x="729" y="-117" font-family="Helvetica,sans-Serif" font-size="10.00">SkeletonPostProcessing</text>
<polyline fill="none" stroke="black" points="656.5,-110 801.5,-110 "/>
<text text-anchor="middle" x="729" y="-98" font-family="Helvetica,sans-Serif" font-size="10.00"> </text>
<polyline fill="none" stroke="black" points="656.5,-91 801.5,-91 "/>
<text text-anchor="start" x="664.5" y="-79" font-family="Helvetica,sans-Serif" font-size="10.00">+ SkeletonPostProcessing()</text>
<text text-anchor="start" x="664.5" y="-68" font-family="Helvetica,sans-Serif" font-size="10.00">+ ~SkeletonPostProcessing()</text>
<text text-anchor="start" x="664.5" y="-57" font-family="Helvetica,sans-Serif" font-size="10.00">+ initialize()</text>
<text text-anchor="start" x="664.5" y="-46" font-family="Helvetica,sans-Serif" font-size="10.00">+ update()</text>
<text text-anchor="start" x="664.5" y="-35" font-family="Helvetica,sans-Serif" font-size="10.00">+ finalize()</text>
</a>
</g>
</g>
<!-- Node1&#45;&gt;Node6 -->
<g id="edge5" class="edge"><title>Node1&#45;&gt;Node6</title>
<path fill="none" stroke="midnightblue" d="M635.676,-207.43C650.987,-188.245 666.663,-168.604 680.689,-151.03"/>
<polygon fill="none" stroke="midnightblue" points="632.875,-205.328 629.373,-215.327 638.346,-209.695 632.875,-205.328"/>
</g>
<!-- Node7 -->
<g id="node7" class="node"><title>Node7</title>
<g id="a_node7"><a xlink:href="classo2_1_1quality__control__modules_1_1test_1_1TestTask.html" target="_top" xlink:title="{o2::quality_control\l_modules::test::TestTask\n|+ test\l|+ TestTask()\l+ ~TestTask()\l+ configure()\l+ initialize()\l+ update()\l+ finalize()\l}">
<polygon fill="none" stroke="black" points="820,-28 820,-151 948,-151 948,-28 820,-28"/>
<text text-anchor="start" x="828" y="-139" font-family="Helvetica,sans-Serif" font-size="10.00">o2::quality_control</text>
<text text-anchor="middle" x="884" y="-128" font-family="Helvetica,sans-Serif" font-size="10.00">_modules::test::TestTask</text>
<polyline fill="none" stroke="black" points="820,-121 948,-121 "/>
<text text-anchor="start" x="828" y="-109" font-family="Helvetica,sans-Serif" font-size="10.00">+ test</text>
<polyline fill="none" stroke="black" points="820,-102 948,-102 "/>
<text text-anchor="start" x="828" y="-90" font-family="Helvetica,sans-Serif" font-size="10.00">+ TestTask()</text>
<text text-anchor="start" x="828" y="-79" font-family="Helvetica,sans-Serif" font-size="10.00">+ ~TestTask()</text>
<text text-anchor="start" x="828" y="-68" font-family="Helvetica,sans-Serif" font-size="10.00">+ configure()</text>
<text text-anchor="start" x="828" y="-57" font-family="Helvetica,sans-Serif" font-size="10.00">+ initialize()</text>
<text text-anchor="start" x="828" y="-46" font-family="Helvetica,sans-Serif" font-size="10.00">+ update()</text>
<text text-anchor="start" x="828" y="-35" font-family="Helvetica,sans-Serif" font-size="10.00">+ finalize()</text>
</a>
</g>
</g>
<!-- Node1&#45;&gt;Node7 -->
<g id="edge6" class="edge"><title>Node1&#45;&gt;Node7</title>
<path fill="none" stroke="midnightblue" d="M650.491,-269.404C700.86,-248.01 762.749,-217.226 811,-179 821.148,-170.961 830.848,-161.299 839.675,-151.356"/>
<polygon fill="none" stroke="midnightblue" points="649.094,-266.194 641.226,-273.289 651.801,-272.65 649.094,-266.194"/>
</g>
<!-- Node8 -->
<g id="node8" class="node"><title>Node8</title>
<g id="a_node8"><a xlink:href="classo2_1_1quality__control__modules_1_1tof_1_1PostProcessDiagnosticPerCrate.html" target="_top" xlink:title="Post processing to rearrange TOF information at the level of the crate (maybe we should do the opposi...">
<polygon fill="none" stroke="black" points="966.5,-17 966.5,-162 1115.5,-162 1115.5,-17 966.5,-17"/>
<text text-anchor="start" x="974.5" y="-150" font-family="Helvetica,sans-Serif" font-size="10.00">o2::quality_control</text>
<text text-anchor="start" x="974.5" y="-139" font-family="Helvetica,sans-Serif" font-size="10.00">_modules::tof::PostProcess</text>
<text text-anchor="middle" x="1041" y="-128" font-family="Helvetica,sans-Serif" font-size="10.00">DiagnosticPerCrate</text>
<polyline fill="none" stroke="black" points="966.5,-121 1115.5,-121 "/>
<text text-anchor="middle" x="1041" y="-109" font-family="Helvetica,sans-Serif" font-size="10.00"> </text>
<polyline fill="none" stroke="black" points="966.5,-102 1115.5,-102 "/>
<text text-anchor="start" x="974.5" y="-90" font-family="Helvetica,sans-Serif" font-size="10.00">+ PostProcessDiagnosticPer</text>
<text text-anchor="start" x="974.5" y="-79" font-family="Helvetica,sans-Serif" font-size="10.00">Crate()</text>
<text text-anchor="start" x="974.5" y="-68" font-family="Helvetica,sans-Serif" font-size="10.00">+ ~PostProcessDiagnosticPer</text>
<text text-anchor="start" x="974.5" y="-57" font-family="Helvetica,sans-Serif" font-size="10.00">Crate()</text>
<text text-anchor="start" x="974.5" y="-46" font-family="Helvetica,sans-Serif" font-size="10.00">+ initialize()</text>
<text text-anchor="start" x="974.5" y="-35" font-family="Helvetica,sans-Serif" font-size="10.00">+ update()</text>
<text text-anchor="start" x="974.5" y="-24" font-family="Helvetica,sans-Serif" font-size="10.00">+ finalize()</text>
</a>
</g>
</g>
<!-- Node1&#45;&gt;Node8 -->
<g id="edge7" class="edge"><title>Node1&#45;&gt;Node8</title>
<path fill="none" stroke="midnightblue" d="M650.927,-288.484C735.382,-271.624 861.549,-238.488 957,-179 964.731,-174.182 972.234,-168.486 979.369,-162.342"/>
<polygon fill="none" stroke="midnightblue" points="650.236,-285.053 641.096,-290.411 651.582,-291.923 650.236,-285.053"/>
</g>
</g>
</svg>
