<?xml version="1.0" encoding="UTF-8" standalone="no"?>
<!DOCTYPE svg PUBLIC "-//W3C//DTD SVG 1.1//EN"
 "http://www.w3.org/Graphics/SVG/1.1/DTD/svg11.dtd">
<!-- Generated by graphviz version 2.38.0 (20140413.2041)
 -->
<!-- Title: Modules/TPC/src/Clusters.cxx Pages: 1 -->
<!--zoomable 330 -->
<svg id="main" version="1.1" xmlns="http://www.w3.org/2000/svg" xmlns:xlink="http://www.w3.org/1999/xlink" xml:space="preserve" onload="init(evt)">
<style type="text/css"><![CDATA[
.edge:hover path { stroke: red; }
.edge:hover polygon { stroke: red; fill: red; }
]]></style>
<script type="text/javascript"><![CDATA[
var edges = document.getElementsByTagName('g');
if (edges && edges.length) {
  for (var i=0;i<edges.length;i++) {
    if (edges[i].id.substr(0,4)=='edge') {
      edges[i].setAttribute('class','edge');
    }
  }
}
]]></script>
        <defs>
                <circle id="rim" cx="0" cy="0" r="7"/>
                <circle id="rim2" cx="0" cy="0" r="3.5"/>
                <g id="zoomPlus">
                        <use xlink:href="#rim" fill="#404040">
                                <set attributeName="fill" to="#808080" begin="zoomplus.mouseover" end="zoomplus.mouseout"/>
                        </use>
                        <path d="M-4,0h8M0,-4v8" fill="none" stroke="white" stroke-width="1.5" pointer-events="none"/>
                </g>
                <g id="zoomMin">
                        <use xlink:href="#rim" fill="#404040">
                                <set attributeName="fill" to="#808080" begin="zoomminus.mouseover" end="zoomminus.mouseout"/>
                        </use>
                        <path d="M-4,0h8" fill="none" stroke="white" stroke-width="1.5" pointer-events="none"/>
                </g>
                <g id="dirArrow">
                        <path fill="none" stroke="white" stroke-width="1.5" d="M0,-3.0v7 M-2.5,-0.5L0,-3.0L2.5,-0.5"/>
                </g>
               <g id="resetDef">
                       <use xlink:href="#rim2" fill="#404040">
                               <set attributeName="fill" to="#808080" begin="reset.mouseover" end="reset.mouseout"/>
                       </use>
               </g>
        </defs>

<script type="text/javascript">
var viewWidth = 3418;
var viewHeight = 330;
var sectionId = 'dynsection-0';
</script>
<script xlink:href="svgpan.js"/>
<svg id="graph" class="graph">
<g id="viewport">
<title>Modules/TPC/src/Clusters.cxx</title>
<!-- Node1 -->
<g id="node1" class="node"><title>Node1</title>
<polygon fill="#bfbfbf" stroke="black" points="1377,-302.5 1377,-321.5 1529,-321.5 1529,-302.5 1377,-302.5"/>
<text text-anchor="middle" x="1453" y="-309.5" font-family="Helvetica,sans-Serif" font-size="10.00">Modules/TPC/src/Clusters.cxx</text>
</g>
<!-- Node2 -->
<g id="node2" class="node"><title>Node2</title>
<polygon fill="none" stroke="#bfbfbf" points="0,-241 0,-260 110,-260 110,-241 0,-241"/>
<text text-anchor="middle" x="55" y="-248" font-family="Helvetica,sans-Serif" font-size="10.00">Framework/PartRef.h</text>
</g>
<!-- Node1&#45;&gt;Node2 -->
<g id="edge1" class="edge"><title>Node1&#45;&gt;Node2</title>
<path fill="none" stroke="midnightblue" d="M1376.92,-310.325C1131.88,-307.852 364.913,-297.715 119,-266 111.776,-265.068 104.168,-263.697 96.8185,-262.165"/>
<polygon fill="midnightblue" stroke="midnightblue" points="97.5369,-258.739 87.0175,-260.001 96.0278,-265.575 97.5369,-258.739"/>
</g>
<!-- Node3 -->
<g id="node3" class="node"><title>Node3</title>
<polygon fill="none" stroke="#bfbfbf" points="128,-241 128,-260 268,-260 268,-241 128,-241"/>
<text text-anchor="middle" x="198" y="-248" font-family="Helvetica,sans-Serif" font-size="10.00">Framework/WorkflowSpec.h</text>
</g>
<!-- Node1&#45;&gt;Node3 -->
<g id="edge2" class="edge"><title>Node1&#45;&gt;Node3</title>
<path fill="none" stroke="midnightblue" d="M1376.62,-309.509C1151.22,-304.881 491.253,-289.639 277,-266 267.737,-264.978 257.927,-263.502 248.487,-261.877"/>
<polygon fill="midnightblue" stroke="midnightblue" points="248.892,-258.394 238.431,-260.072 247.655,-265.284 248.892,-258.394"/>
</g>
<!-- Node4 -->
<g id="node4" class="node"><title>Node4</title>
<polygon fill="none" stroke="#bfbfbf" points="286,-241 286,-260 420,-260 420,-241 286,-241"/>
<text text-anchor="middle" x="353" y="-248" font-family="Helvetica,sans-Serif" font-size="10.00">Framework/DataRefUtils.h</text>
</g>
<!-- Node1&#45;&gt;Node4 -->
<g id="edge3" class="edge"><title>Node1&#45;&gt;Node4</title>
<path fill="none" stroke="midnightblue" d="M1376.91,-311.407C1206.52,-311.5 781.614,-307.166 429,-266 420.179,-264.97 410.845,-263.505 401.851,-261.898"/>
<polygon fill="midnightblue" stroke="midnightblue" points="402.359,-258.433 391.887,-260.04 401.075,-265.314 402.359,-258.433"/>
</g>
<!-- Node5 -->
<g id="node5" class="node"><title>Node5</title>
<polygon fill="none" stroke="#bfbfbf" points="438,-241 438,-260 578,-260 578,-241 438,-241"/>
<text text-anchor="middle" x="508" y="-248" font-family="Helvetica,sans-Serif" font-size="10.00">Framework/DataSpecUtils.h</text>
</g>
<!-- Node1&#45;&gt;Node5 -->
<g id="edge4" class="edge"><title>Node1&#45;&gt;Node5</title>
<path fill="none" stroke="midnightblue" d="M1376.85,-310.353C1225.73,-308.339 877.454,-300.057 587,-266 577.846,-264.927 568.153,-263.441 558.81,-261.828"/>
<polygon fill="midnightblue" stroke="midnightblue" points="559.311,-258.362 548.85,-260.04 558.075,-265.252 559.311,-258.362"/>
</g>
<!-- Node6 -->
<g id="node6" class="node"><title>Node6</title>
<polygon fill="none" stroke="#bfbfbf" points="596.5,-241 596.5,-260 737.5,-260 737.5,-241 596.5,-241"/>
<text text-anchor="middle" x="667" y="-248" font-family="Helvetica,sans-Serif" font-size="10.00">Framework/ControlService.h</text>
</g>
<!-- Node1&#45;&gt;Node6 -->
<g id="edge5" class="edge"><title>Node1&#45;&gt;Node6</title>
<path fill="none" stroke="midnightblue" d="M1376.99,-309.037C1247.33,-305.044 975.282,-293.869 747,-266 737.842,-264.882 728.146,-263.39 718.783,-261.787"/>
<polygon fill="midnightblue" stroke="midnightblue" points="719.253,-258.316 708.796,-260.017 718.032,-265.209 719.253,-258.316"/>
</g>
<!-- Node7 -->
<g id="node7" class="node"><title>Node7</title>
<polygon fill="none" stroke="#bfbfbf" points="756,-241 756,-260 926,-260 926,-241 756,-241"/>
<text text-anchor="middle" x="841" y="-248" font-family="Helvetica,sans-Serif" font-size="10.00">Framework/ConfigParamRegistry.h</text>
</g>
<!-- Node1&#45;&gt;Node7 -->
<g id="edge6" class="edge"><title>Node1&#45;&gt;Node7</title>
<path fill="none" stroke="midnightblue" d="M1376.63,-305.903C1275.61,-298.807 1092.1,-284.687 936,-266 925.219,-264.709 913.781,-263.138 902.715,-261.512"/>
<polygon fill="midnightblue" stroke="midnightblue" points="903.095,-258.03 892.687,-260.01 902.058,-264.953 903.095,-258.03"/>
</g>
<!-- Node8 -->
<g id="node8" class="node"><title>Node8</title>
<polygon fill="none" stroke="#bfbfbf" points="944.5,-241 944.5,-260 1105.5,-260 1105.5,-241 944.5,-241"/>
<text text-anchor="middle" x="1025" y="-248" font-family="Helvetica,sans-Serif" font-size="10.00">Framework/InputRecordWalker.h</text>
</g>
<!-- Node1&#45;&gt;Node8 -->
<g id="edge7" class="edge"><title>Node1&#45;&gt;Node8</title>
<path fill="none" stroke="midnightblue" d="M1384.95,-302.496C1316.63,-293.828 1208.42,-279.741 1115,-266 1105.7,-264.632 1095.88,-263.119 1086.27,-261.602"/>
<polygon fill="midnightblue" stroke="midnightblue" points="1086.79,-258.141 1076.36,-260.024 1085.69,-265.054 1086.79,-258.141"/>
</g>
<!-- Node9 -->
<g id="node9" class="node"><title>Node9</title>
<polygon fill="none" stroke="#bfbfbf" points="1124,-235.5 1124,-265.5 1270,-265.5 1270,-235.5 1124,-235.5"/>
<text text-anchor="start" x="1132" y="-253.5" font-family="Helvetica,sans-Serif" font-size="10.00">DataFormatsTPC/TPCSector</text>
<text text-anchor="middle" x="1197" y="-242.5" font-family="Helvetica,sans-Serif" font-size="10.00">Header.h</text>
</g>
<!-- Node1&#45;&gt;Node9 -->
<g id="edge8" class="edge"><title>Node1&#45;&gt;Node9</title>
<path fill="none" stroke="midnightblue" d="M1416.32,-302.475C1377.52,-293.456 1315.35,-279.008 1267.1,-267.792"/>
<polygon fill="midnightblue" stroke="midnightblue" points="1267.87,-264.378 1257.33,-265.523 1266.28,-271.196 1267.87,-264.378"/>
</g>
<!-- Node10 -->
<g id="node10" class="node"><title>Node10</title>
<polygon fill="none" stroke="#bfbfbf" points="1288.5,-241 1288.5,-260 1329.5,-260 1329.5,-241 1288.5,-241"/>
<text text-anchor="middle" x="1309" y="-248" font-family="Helvetica,sans-Serif" font-size="10.00">bitset</text>
</g>
<!-- Node1&#45;&gt;Node10 -->
<g id="edge9" class="edge"><title>Node1&#45;&gt;Node10</title>
<path fill="none" stroke="midnightblue" d="M1429.65,-302.364C1406.46,-293.651 1369.99,-279.582 1339,-266 1337.81,-265.477 1336.59,-264.935 1335.37,-264.38"/>
<polygon fill="midnightblue" stroke="midnightblue" points="1336.57,-261.078 1326.03,-260.003 1333.6,-267.416 1336.57,-261.078"/>
</g>
<!-- Node11 -->
<g id="node11" class="node"><title>Node11</title>
<polygon fill="none" stroke="#bfbfbf" points="1347.5,-241 1347.5,-260 1412.5,-260 1412.5,-241 1347.5,-241"/>
<text text-anchor="middle" x="1380" y="-248" font-family="Helvetica,sans-Serif" font-size="10.00">TCanvas.h</text>
</g>
<!-- Node1&#45;&gt;Node11 -->
<g id="edge10" class="edge"><title>Node1&#45;&gt;Node11</title>
<path fill="none" stroke="midnightblue" d="M1442.54,-302.475C1431.05,-293.108 1412.37,-277.884 1398.41,-266.508"/>
<polygon fill="midnightblue" stroke="midnightblue" points="1400.4,-263.614 1390.44,-260.009 1395.98,-269.04 1400.4,-263.614"/>
</g>
<!-- Node12 -->
<g id="node12" class="node"><title>Node12</title>
<polygon fill="none" stroke="#bfbfbf" points="1431,-241 1431,-260 1475,-260 1475,-241 1431,-241"/>
<text text-anchor="middle" x="1453" y="-248" font-family="Helvetica,sans-Serif" font-size="10.00">TH1.h</text>
</g>
<!-- Node1&#45;&gt;Node12 -->
<g id="edge11" class="edge"><title>Node1&#45;&gt;Node12</title>
<path fill="none" stroke="midnightblue" d="M1453,-302.475C1453,-294.08 1453,-280.981 1453,-270.163"/>
<polygon fill="midnightblue" stroke="midnightblue" points="1456.5,-270.009 1453,-260.009 1449.5,-270.009 1456.5,-270.009"/>
</g>
<!-- Node13 -->
<g id="node13" class="node"><title>Node13</title>
<polygon fill="none" stroke="#bfbfbf" points="1493,-241 1493,-260 1537,-260 1537,-241 1493,-241"/>
<text text-anchor="middle" x="1515" y="-248" font-family="Helvetica,sans-Serif" font-size="10.00">TH2.h</text>
</g>
<!-- Node1&#45;&gt;Node13 -->
<g id="edge12" class="edge"><title>Node1&#45;&gt;Node13</title>
<path fill="none" stroke="midnightblue" d="M1461.88,-302.475C1471.46,-293.285 1486.91,-278.456 1498.69,-267.156"/>
<polygon fill="midnightblue" stroke="midnightblue" points="1501.34,-269.458 1506.13,-260.009 1496.49,-264.408 1501.34,-269.458"/>
</g>
<!-- Node14 -->
<g id="node14" class="node"><title>Node14</title>
<polygon fill="none" stroke="#bfbfbf" points="1814,-123.5 1814,-142.5 1974,-142.5 1974,-123.5 1814,-123.5"/>
<text text-anchor="middle" x="1894" y="-130.5" font-family="Helvetica,sans-Serif" font-size="10.00">Framework/ProcessingContext.h</text>
</g>
<!-- Node1&#45;&gt;Node14 -->
<g id="edge13" class="edge"><title>Node1&#45;&gt;Node14</title>
<path fill="none" stroke="midnightblue" d="M1474.06,-302.492C1493.41,-294.288 1522.56,-280.944 1546,-266 1564.38,-254.285 1564.87,-245.442 1584,-235 1668.89,-188.665 1778.56,-159.189 1842.11,-144.709"/>
<polygon fill="midnightblue" stroke="midnightblue" points="1842.91,-148.116 1851.9,-142.513 1841.38,-141.285 1842.91,-148.116"/>
</g>
<!-- Node15 -->
<g id="node15" class="node"><title>Node15</title>
<polygon fill="none" stroke="#bfbfbf" points="1593,-241 1593,-260 1719,-260 1719,-241 1593,-241"/>
<text text-anchor="middle" x="1656" y="-248" font-family="Helvetica,sans-Serif" font-size="10.00">DataFormatsTPC/Defs.h</text>
</g>
<!-- Node1&#45;&gt;Node15 -->
<g id="edge14" class="edge"><title>Node1&#45;&gt;Node15</title>
<path fill="none" stroke="midnightblue" d="M1482.08,-302.475C1517.58,-292.07 1577.75,-274.437 1617.17,-262.88"/>
<polygon fill="midnightblue" stroke="midnightblue" points="1618.36,-266.181 1626.97,-260.009 1616.39,-259.463 1618.36,-266.181"/>
</g>
<!-- Node16 -->
<g id="node16" class="node"><title>Node16</title>
<polygon fill="none" stroke="#bfbfbf" points="1737.5,-241 1737.5,-260 1838.5,-260 1838.5,-241 1737.5,-241"/>
<text text-anchor="middle" x="1788" y="-248" font-family="Helvetica,sans-Serif" font-size="10.00">TPCBase/Painter.h</text>
</g>
<!-- Node1&#45;&gt;Node16 -->
<g id="edge15" class="edge"><title>Node1&#45;&gt;Node16</title>
<path fill="none" stroke="midnightblue" d="M1513.05,-302.498C1568.92,-294.275 1654.39,-280.896 1728,-266 1733.38,-264.911 1739.02,-263.676 1744.58,-262.399"/>
<polygon fill="midnightblue" stroke="midnightblue" points="1745.53,-265.772 1754.46,-260.074 1743.93,-258.958 1745.53,-265.772"/>
</g>
<!-- Node17 -->
<g id="node17" class="node"><title>Node17</title>
<polygon fill="none" stroke="#bfbfbf" points="1856.5,-241 1856.5,-260 2021.5,-260 2021.5,-241 1856.5,-241"/>
<text text-anchor="middle" x="1939" y="-248" font-family="Helvetica,sans-Serif" font-size="10.00">DataFormatsTPC/ClusterNative.h</text>
</g>
<!-- Node1&#45;&gt;Node17 -->
<g id="edge16" class="edge"><title>Node1&#45;&gt;Node17</title>
<path fill="none" stroke="midnightblue" d="M1529.22,-303.335C1608.86,-295.087 1737.39,-281.106 1848,-266 1857.75,-264.669 1868.06,-263.14 1878.11,-261.586"/>
<polygon fill="midnightblue" stroke="midnightblue" points="1878.7,-265.036 1888.04,-260.03 1877.62,-258.121 1878.7,-265.036"/>
</g>
<!-- Node18 -->
<g id="node18" class="node"><title>Node18</title>
<polygon fill="none" stroke="#bfbfbf" points="2039.5,-235.5 2039.5,-265.5 2196.5,-265.5 2196.5,-235.5 2039.5,-235.5"/>
<text text-anchor="start" x="2047.5" y="-253.5" font-family="Helvetica,sans-Serif" font-size="10.00">DataFormatsTPC/ClusterNative</text>
<text text-anchor="middle" x="2118" y="-242.5" font-family="Helvetica,sans-Serif" font-size="10.00">Helper.h</text>
</g>
<!-- Node1&#45;&gt;Node18 -->
<g id="edge17" class="edge"><title>Node1&#45;&gt;Node18</title>
<path fill="none" stroke="midnightblue" d="M1529.41,-307.184C1638.24,-301.274 1844.3,-288.332 2029.14,-266.162"/>
<polygon fill="midnightblue" stroke="midnightblue" points="2029.82,-269.606 2039.32,-264.929 2028.98,-262.657 2029.82,-269.606"/>
</g>
<!-- Node19 -->
<g id="node19" class="node"><title>Node19</title>
<polygon fill="none" stroke="#bfbfbf" points="2215,-235.5 2215,-265.5 2329,-265.5 2329,-235.5 2215,-235.5"/>
<text text-anchor="start" x="2223" y="-253.5" font-family="Helvetica,sans-Serif" font-size="10.00">SimulationDataFormat</text>
<text text-anchor="middle" x="2272" y="-242.5" font-family="Helvetica,sans-Serif" font-size="10.00">/MCTruthContainer.h</text>
</g>
<!-- Node1&#45;&gt;Node19 -->
<g id="edge18" class="edge"><title>Node1&#45;&gt;Node19</title>
<path fill="none" stroke="midnightblue" d="M1529,-310.382C1663.5,-308.428 1952.28,-300.372 2204.76,-266.018"/>
<polygon fill="midnightblue" stroke="midnightblue" points="2205.43,-269.459 2214.86,-264.627 2204.48,-262.524 2205.43,-269.459"/>
</g>
<!-- Node20 -->
<g id="node20" class="node"><title>Node20</title>
<polygon fill="none" stroke="#bfbfbf" points="2347,-241 2347,-260 2497,-260 2497,-241 2347,-241"/>
<text text-anchor="middle" x="2422" y="-248" font-family="Helvetica,sans-Serif" font-size="10.00">DataFormatsTPC/Constants.h</text>
</g>
<!-- Node1&#45;&gt;Node20 -->
<g id="edge19" class="edge"><title>Node1&#45;&gt;Node20</title>
<path fill="none" stroke="midnightblue" d="M1529.01,-310.206C1682.42,-307.928 2039.85,-299.192 2338,-266 2347.93,-264.895 2358.46,-263.364 2368.59,-261.71"/>
<polygon fill="midnightblue" stroke="midnightblue" points="2369.27,-265.144 2378.54,-260.025 2368.1,-258.243 2369.27,-265.144"/>
</g>
<!-- Node21 -->
<g id="node21" class="node"><title>Node21</title>
<g id="a_node21"><a xlink:href="QcInfoLogger_8h.html" target="_top" xlink:title="QualityControl/QcInfoLogger.h">
<polygon fill="none" stroke="black" points="2366.5,-123.5 2366.5,-142.5 2515.5,-142.5 2515.5,-123.5 2366.5,-123.5"/>
<text text-anchor="middle" x="2441" y="-130.5" font-family="Helvetica,sans-Serif" font-size="10.00">QualityControl/QcInfoLogger.h</text>
</a>
</g>
</g>
<!-- Node1&#45;&gt;Node21 -->
<g id="edge20" class="edge"><title>Node1&#45;&gt;Node21</title>
<path fill="none" stroke="midnightblue" d="M1529.29,-310.595C1765.71,-308.97 2472.29,-301.177 2506,-266 2539.28,-231.27 2488.44,-176.217 2459.22,-149.527"/>
<polygon fill="midnightblue" stroke="midnightblue" points="2461.44,-146.817 2451.64,-142.791 2456.79,-152.05 2461.44,-146.817"/>
</g>
<!-- Node24 -->
<g id="node24" class="node"><title>Node24</title>
<g id="a_node24"><a xlink:href="Clusters_8h.html" target="_top" xlink:title="TPC/Clusters.h">
<polygon fill="none" stroke="black" points="2694.5,-241 2694.5,-260 2779.5,-260 2779.5,-241 2694.5,-241"/>
<text text-anchor="middle" x="2737" y="-248" font-family="Helvetica,sans-Serif" font-size="10.00">TPC/Clusters.h</text>
</a>
</g>
</g>
<!-- Node1&#45;&gt;Node24 -->
<g id="edge23" class="edge"><title>Node1&#45;&gt;Node24</title>
<path fill="none" stroke="midnightblue" d="M1529.08,-308.677C1706.24,-303.087 2160.09,-287.719 2539,-266 2588.22,-263.179 2644.26,-258.983 2684.13,-255.83"/>
<polygon fill="midnightblue" stroke="midnightblue" points="2684.46,-259.314 2694.15,-255.031 2683.91,-252.336 2684.46,-259.314"/>
</g>
<!-- Node22 -->
<g id="node22" class="node"><title>Node22</title>
<polygon fill="none" stroke="#bfbfbf" points="2294,-62 2294,-81 2424,-81 2424,-62 2294,-62"/>
<text text-anchor="middle" x="2359" y="-69" font-family="Helvetica,sans-Serif" font-size="10.00">InfoLogger/InfoLogger.hxx</text>
</g>
<!-- Node21&#45;&gt;Node22 -->
<g id="edge21" class="edge"><title>Node21&#45;&gt;Node22</title>
<path fill="none" stroke="midnightblue" d="M2429.25,-123.475C2416.22,-114.02 2394.96,-98.5961 2379.24,-87.1871"/>
<polygon fill="midnightblue" stroke="midnightblue" points="2380.88,-84.0492 2370.73,-81.0091 2376.77,-89.7149 2380.88,-84.0492"/>
</g>
<!-- Node23 -->
<g id="node23" class="node"><title>Node23</title>
<polygon fill="none" stroke="#bfbfbf" points="2442,-62 2442,-81 2604,-81 2604,-62 2442,-62"/>
<text text-anchor="middle" x="2523" y="-69" font-family="Helvetica,sans-Serif" font-size="10.00">InfoLogger/InfoLoggerMacros.hxx</text>
</g>
<!-- Node21&#45;&gt;Node23 -->
<g id="edge22" class="edge"><title>Node21&#45;&gt;Node23</title>
<path fill="none" stroke="midnightblue" d="M2452.75,-123.475C2465.78,-114.02 2487.04,-98.5961 2502.76,-87.1871"/>
<polygon fill="midnightblue" stroke="midnightblue" points="2505.23,-89.7149 2511.27,-81.0091 2501.12,-84.0492 2505.23,-89.7149"/>
</g>
<!-- Node25 -->
<g id="node25" class="node"><title>Node25</title>
<polygon fill="none" stroke="#bfbfbf" points="2553,-179.5 2553,-198.5 2653,-198.5 2653,-179.5 2553,-179.5"/>
<text text-anchor="middle" x="2603" y="-186.5" font-family="Helvetica,sans-Serif" font-size="10.00">TPCQC/Clusters.h</text>
</g>
<!-- Node24&#45;&gt;Node25 -->
<g id="edge24" class="edge"><title>Node24&#45;&gt;Node25</title>
<path fill="none" stroke="midnightblue" d="M2717.8,-240.975C2695.21,-230.945 2657.5,-214.2 2631.5,-202.655"/>
<polygon fill="midnightblue" stroke="midnightblue" points="2632.72,-199.369 2622.16,-198.509 2629.88,-205.766 2632.72,-199.369"/>
</g>
<!-- Node26 -->
<g id="node26" class="node"><title>Node26</title>
<polygon fill="none" stroke="#bfbfbf" points="2671,-179.5 2671,-198.5 2803,-198.5 2803,-179.5 2671,-179.5"/>
<text text-anchor="middle" x="2737" y="-186.5" font-family="Helvetica,sans-Serif" font-size="10.00">TPCQC/CalPadWrapper.h</text>
</g>
<!-- Node24&#45;&gt;Node26 -->
<g id="edge25" class="edge"><title>Node24&#45;&gt;Node26</title>
<path fill="none" stroke="midnightblue" d="M2737,-240.975C2737,-232.58 2737,-219.481 2737,-208.663"/>
<polygon fill="midnightblue" stroke="midnightblue" points="2740.5,-208.509 2737,-198.509 2733.5,-208.509 2740.5,-208.509"/>
</g>
<!-- Node27 -->
<g id="node27" class="node"><title>Node27</title>
<g id="a_node27"><a xlink:href="TaskInterface_8h.html" target="_top" xlink:title="QualityControl/TaskInterface.h">
<polygon fill="none" stroke="black" points="2821,-179.5 2821,-198.5 2971,-198.5 2971,-179.5 2821,-179.5"/>
<text text-anchor="middle" x="2896" y="-186.5" font-family="Helvetica,sans-Serif" font-size="10.00">QualityControl/TaskInterface.h</text>
</a>
</g>
</g>
<!-- Node24&#45;&gt;Node27 -->
<g id="edge26" class="edge"><title>Node24&#45;&gt;Node27</title>
<path fill="none" stroke="midnightblue" d="M2759.78,-240.975C2787.05,-230.769 2832.91,-213.608 2863.8,-202.049"/>
<polygon fill="midnightblue" stroke="midnightblue" points="2865.12,-205.292 2873.26,-198.509 2862.67,-198.736 2865.12,-205.292"/>
</g>
<!-- Node44 -->
<g id="node44" class="node"><title>Node44</title>
<polygon fill="none" stroke="#bfbfbf" points="2989,-179.5 2989,-198.5 3039,-198.5 3039,-179.5 2989,-179.5"/>
<text text-anchor="middle" x="3014" y="-186.5" font-family="Helvetica,sans-Serif" font-size="10.00">TH2F.h</text>
</g>
<!-- Node24&#45;&gt;Node44 -->
<g id="edge51" class="edge"><title>Node24&#45;&gt;Node44</title>
<path fill="none" stroke="midnightblue" d="M2779.73,-241.343C2826.3,-232.294 2903.21,-216.881 2978.64,-199.227"/>
<polygon fill="midnightblue" stroke="midnightblue" points="2979.86,-202.536 2988.79,-196.836 2978.25,-195.722 2979.86,-202.536"/>
</g>
<!-- Node27&#45;&gt;Node14 -->
<g id="edge32" class="edge"><title>Node27&#45;&gt;Node14</title>
<path fill="none" stroke="midnightblue" d="M2820.91,-179.738C2817.9,-179.476 2814.92,-179.228 2812,-179 2509.12,-155.371 2149,-141.999 1984.31,-136.696"/>
<polygon fill="midnightblue" stroke="midnightblue" points="1984.33,-133.195 1974.22,-136.374 1984.1,-140.192 1984.33,-133.195"/>
</g>
<!-- Node27&#45;&gt;Node21 -->
<g id="edge50" class="edge"><title>Node27&#45;&gt;Node21</title>
<path fill="none" stroke="midnightblue" d="M2824.15,-179.473C2742.25,-169.753 2608.65,-153.897 2522.81,-143.709"/>
<polygon fill="midnightblue" stroke="midnightblue" points="2523.19,-140.229 2512.84,-142.526 2522.36,-147.181 2523.19,-140.229"/>
</g>
<!-- Node28 -->
<g id="node28" class="node"><title>Node28</title>
<polygon fill="none" stroke="#bfbfbf" points="2865.5,-0.5 2865.5,-19.5 2900.5,-19.5 2900.5,-0.5 2865.5,-0.5"/>
<text text-anchor="middle" x="2883" y="-7.5" font-family="Helvetica,sans-Serif" font-size="10.00">map</text>
</g>
<!-- Node27&#45;&gt;Node28 -->
<g id="edge27" class="edge"><title>Node27&#45;&gt;Node28</title>
<path fill="none" stroke="midnightblue" d="M2902.89,-179.319C2909.27,-170.684 2918.31,-156.77 2922,-143 2924.3,-134.414 2923.48,-131.764 2922,-123 2916.19,-88.6306 2901.01,-50.7373 2891.39,-29.012"/>
<polygon fill="midnightblue" stroke="midnightblue" points="2894.5,-27.3938 2887.18,-19.732 2888.12,-30.2848 2894.5,-27.3938"/>
</g>
<!-- Node29 -->
<g id="node29" class="node"><title>Node29</title>
<polygon fill="none" stroke="#bfbfbf" points="3310,-62 3310,-81 3362,-81 3362,-62 3310,-62"/>
<text text-anchor="middle" x="3336" y="-69" font-family="Helvetica,sans-Serif" font-size="10.00">memory</text>
</g>
<!-- Node27&#45;&gt;Node29 -->
<g id="edge28" class="edge"><title>Node27&#45;&gt;Node29</title>
<path fill="none" stroke="midnightblue" d="M2967.37,-179.487C3040.44,-170.334 3148.8,-155.425 3189,-143 3234.92,-128.806 3284.6,-102.424 3312.84,-86.2678"/>
<polygon fill="midnightblue" stroke="midnightblue" points="3314.67,-89.2556 3321.57,-81.213 3311.16,-83.1992 3314.67,-89.2556"/>
</g>
<!-- Node30 -->
<g id="node30" class="node"><title>Node30</title>
<polygon fill="none" stroke="#bfbfbf" points="3204.5,-0.5 3204.5,-19.5 3245.5,-19.5 3245.5,-0.5 3204.5,-0.5"/>
<text text-anchor="middle" x="3225" y="-7.5" font-family="Helvetica,sans-Serif" font-size="10.00">string</text>
</g>
<!-- Node27&#45;&gt;Node30 -->
<g id="edge29" class="edge"><title>Node27&#45;&gt;Node30</title>
<path fill="none" stroke="midnightblue" d="M2971.06,-179.931C3053.65,-170.681 3180.92,-155.222 3228,-143 3294.07,-125.85 3332.53,-143.381 3371,-87 3401.51,-42.2819 3306.91,-22.1282 3255.66,-14.6718"/>
<polygon fill="midnightblue" stroke="midnightblue" points="3256.12,-11.2027 3245.74,-13.3077 3255.17,-18.1375 3256.12,-11.2027"/>
</g>
<!-- Node31 -->
<g id="node31" class="node"><title>Node31</title>
<polygon fill="none" stroke="#bfbfbf" points="3326.5,-0.5 3326.5,-19.5 3409.5,-19.5 3409.5,-0.5 3326.5,-0.5"/>
<text text-anchor="middle" x="3368" y="-7.5" font-family="Helvetica,sans-Serif" font-size="10.00">unordered_map</text>
</g>
<!-- Node27&#45;&gt;Node31 -->
<g id="edge30" class="edge"><title>Node27&#45;&gt;Node31</title>
<path fill="none" stroke="midnightblue" d="M2971.21,-179.878C3084.21,-167.62 3285.45,-145.544 3293,-143 3339.08,-127.469 3362.97,-129.28 3387,-87 3397.46,-68.5905 3388.17,-44.4639 3379.28,-28.3828"/>
<polygon fill="midnightblue" stroke="midnightblue" points="3382.12,-26.313 3373.98,-19.5327 3376.12,-29.91 3382.12,-26.313"/>
</g>
<!-- Node32 -->
<g id="node32" class="node"><title>Node32</title>
<polygon fill="none" stroke="#bfbfbf" points="2533.5,-123.5 2533.5,-142.5 2658.5,-142.5 2658.5,-123.5 2533.5,-123.5"/>
<text text-anchor="middle" x="2596" y="-130.5" font-family="Helvetica,sans-Serif" font-size="10.00">Framework/InitContext.h</text>
</g>
<!-- Node27&#45;&gt;Node32 -->
<g id="edge31" class="edge"><title>Node27&#45;&gt;Node32</title>
<path fill="none" stroke="midnightblue" d="M2848.46,-179.444C2795.47,-169.905 2709.8,-154.483 2653.18,-144.293"/>
<polygon fill="midnightblue" stroke="midnightblue" points="2653.78,-140.843 2643.31,-142.516 2652.54,-147.733 2653.78,-140.843"/>
</g>
<!-- Node33 -->
<g id="node33" class="node"><title>Node33</title>
<polygon fill="none" stroke="#bfbfbf" points="2676.5,-123.5 2676.5,-142.5 2771.5,-142.5 2771.5,-123.5 2676.5,-123.5"/>
<text text-anchor="middle" x="2724" y="-130.5" font-family="Helvetica,sans-Serif" font-size="10.00">CCDB/CcdbApi.h</text>
</g>
<!-- Node27&#45;&gt;Node33 -->
<g id="edge33" class="edge"><title>Node27&#45;&gt;Node33</title>
<path fill="none" stroke="midnightblue" d="M2868.75,-179.444C2839.56,-170.28 2793.08,-155.688 2760.69,-145.519"/>
<polygon fill="midnightblue" stroke="midnightblue" points="2761.72,-142.173 2751.13,-142.516 2759.62,-148.851 2761.72,-142.173"/>
</g>
<!-- Node34 -->
<g id="node34" class="node"><title>Node34</title>
<g id="a_node34"><a xlink:href="Activity_8h.html" target="_top" xlink:title="QualityControl/Activity.h">
<polygon fill="none" stroke="black" points="2789.5,-123.5 2789.5,-142.5 2912.5,-142.5 2912.5,-123.5 2789.5,-123.5"/>
<text text-anchor="middle" x="2851" y="-130.5" font-family="Helvetica,sans-Serif" font-size="10.00">QualityControl/Activity.h</text>
</a>
</g>
</g>
<!-- Node27&#45;&gt;Node34 -->
<g id="edge34" class="edge"><title>Node27&#45;&gt;Node34</title>
<path fill="none" stroke="midnightblue" d="M2888.57,-179.083C2882.15,-171.377 2872.69,-160.033 2864.88,-150.653"/>
<polygon fill="midnightblue" stroke="midnightblue" points="2867.38,-148.193 2858.29,-142.751 2862.01,-152.674 2867.38,-148.193"/>
</g>
<!-- Node35 -->
<g id="node35" class="node"><title>Node35</title>
<g id="a_node35"><a xlink:href="ObjectsManager_8h.html" target="_top" xlink:title="QualityControl/ObjectsManager.h">
<polygon fill="none" stroke="black" points="3018.5,-123.5 3018.5,-142.5 3179.5,-142.5 3179.5,-123.5 3018.5,-123.5"/>
<text text-anchor="middle" x="3099" y="-130.5" font-family="Helvetica,sans-Serif" font-size="10.00">QualityControl/ObjectsManager.h</text>
</a>
</g>
</g>
<!-- Node27&#45;&gt;Node35 -->
<g id="edge35" class="edge"><title>Node27&#45;&gt;Node35</title>
<path fill="none" stroke="midnightblue" d="M2928.17,-179.444C2963.06,-170.162 3018.89,-155.309 3057.17,-145.127"/>
<polygon fill="midnightblue" stroke="midnightblue" points="3058.22,-148.47 3066.98,-142.516 3056.42,-141.705 3058.22,-148.47"/>
</g>
<!-- Node35&#45;&gt;Node29 -->
<g id="edge49" class="edge"><title>Node35&#45;&gt;Node29</title>
<path fill="none" stroke="midnightblue" d="M3148.61,-123.439C3189.9,-115.724 3249.95,-103.126 3301,-87 3303.14,-86.3239 3305.33,-85.5704 3307.52,-84.7722"/>
<polygon fill="midnightblue" stroke="midnightblue" points="3308.92,-87.983 3316.97,-81.0873 3306.38,-81.4619 3308.92,-87.983"/>
</g>
<!-- Node35&#45;&gt;Node30 -->
<g id="edge48" class="edge"><title>Node35&#45;&gt;Node30</title>
<path fill="none" stroke="midnightblue" d="M3102.13,-123.488C3108.08,-108.304 3122.28,-76.2475 3143,-56 3157.85,-41.4829 3178.33,-30.2392 3195.11,-22.6217"/>
<polygon fill="midnightblue" stroke="midnightblue" points="3196.7,-25.7452 3204.49,-18.5583 3193.92,-19.3221 3196.7,-25.7452"/>
</g>
<!-- Node36 -->
<g id="node36" class="node"><title>Node36</title>
<g id="a_node36"><a xlink:href="MonitorObject_8h.html" target="_top" xlink:title="QualityControl/MonitorObject.h">
<polygon fill="none" stroke="black" points="2944.5,-62 2944.5,-81 3095.5,-81 3095.5,-62 2944.5,-62"/>
<text text-anchor="middle" x="3020" y="-69" font-family="Helvetica,sans-Serif" font-size="10.00">QualityControl/MonitorObject.h</text>
</a>
</g>
</g>
<!-- Node35&#45;&gt;Node36 -->
<g id="edge36" class="edge"><title>Node35&#45;&gt;Node36</title>
<path fill="none" stroke="midnightblue" d="M3087.68,-123.475C3075.13,-114.02 3054.65,-98.5961 3039.5,-87.1871"/>
<polygon fill="midnightblue" stroke="midnightblue" points="3041.39,-84.2295 3031.3,-81.0091 3037.18,-89.821 3041.39,-84.2295"/>
</g>
<!-- Node40 -->
<g id="node40" class="node"><title>Node40</title>
<g id="a_node40"><a xlink:href="MonitorObjectCollection_8h.html" target="_top" xlink:title="QualityControl/MonitorObject\lCollection.h">
<polygon fill="none" stroke="black" points="2741.5,-56.5 2741.5,-86.5 2884.5,-86.5 2884.5,-56.5 2741.5,-56.5"/>
<text text-anchor="start" x="2749.5" y="-74.5" font-family="Helvetica,sans-Serif" font-size="10.00">QualityControl/MonitorObject</text>
<text text-anchor="middle" x="2813" y="-63.5" font-family="Helvetica,sans-Serif" font-size="10.00">Collection.h</text>
</a>
</g>
</g>
<!-- Node35&#45;&gt;Node40 -->
<g id="edge42" class="edge"><title>Node35&#45;&gt;Node40</title>
<path fill="none" stroke="midnightblue" d="M3058.02,-123.475C3014.4,-114.4 2944.35,-99.8265 2890.3,-88.5818"/>
<polygon fill="midnightblue" stroke="midnightblue" points="2890.91,-85.1332 2880.4,-86.523 2889.48,-91.9865 2890.91,-85.1332"/>
</g>
<!-- Node43 -->
<g id="node43" class="node"><title>Node43</title>
<g id="a_node43"><a xlink:href="TaskConfig_8h.html" target="_top" xlink:title="QualityControl/TaskConfig.h">
<polygon fill="none" stroke="black" points="3152,-62 3152,-81 3292,-81 3292,-62 3152,-62"/>
<text text-anchor="middle" x="3222" y="-69" font-family="Helvetica,sans-Serif" font-size="10.00">QualityControl/TaskConfig.h</text>
</a>
</g>
</g>
<!-- Node35&#45;&gt;Node43 -->
<g id="edge45" class="edge"><title>Node35&#45;&gt;Node43</title>
<path fill="none" stroke="midnightblue" d="M3116.62,-123.475C3137.17,-113.534 3171.36,-96.9947 3195.21,-85.461"/>
<polygon fill="midnightblue" stroke="midnightblue" points="3196.93,-88.5145 3204.41,-81.0091 3193.88,-82.2131 3196.93,-88.5145"/>
</g>
<!-- Node36&#45;&gt;Node28 -->
<g id="edge38" class="edge"><title>Node36&#45;&gt;Node28</title>
<path fill="none" stroke="midnightblue" d="M3000.37,-61.9751C2976.75,-51.7175 2936.96,-34.4356 2910.34,-22.8756"/>
<polygon fill="midnightblue" stroke="midnightblue" points="2911.42,-19.5252 2900.85,-18.7519 2908.63,-25.9458 2911.42,-19.5252"/>
</g>
<!-- Node36&#45;&gt;Node30 -->
<g id="edge37" class="edge"><title>Node36&#45;&gt;Node30</title>
<path fill="none" stroke="midnightblue" d="M3050.07,-61.928C3083.04,-52.5029 3137.78,-36.7916 3194.49,-20.1264"/>
<polygon fill="midnightblue" stroke="midnightblue" points="3195.75,-23.4061 3204.35,-17.2256 3193.77,-16.6908 3195.75,-23.4061"/>
</g>
<!-- Node37 -->
<g id="node37" class="node"><title>Node37</title>
<polygon fill="none" stroke="#bfbfbf" points="3130,-0.5 3130,-19.5 3186,-19.5 3186,-0.5 3130,-0.5"/>
<text text-anchor="middle" x="3158" y="-7.5" font-family="Helvetica,sans-Serif" font-size="10.00">Rtypes.h</text>
</g>
<!-- Node36&#45;&gt;Node37 -->
<g id="edge39" class="edge"><title>Node36&#45;&gt;Node37</title>
<path fill="none" stroke="midnightblue" d="M3039.77,-61.9751C3063.14,-51.9013 3102.21,-35.0525 3129,-23.5023"/>
<polygon fill="midnightblue" stroke="midnightblue" points="3130.47,-26.6824 3138.26,-19.5091 3127.7,-20.2544 3130.47,-26.6824"/>
</g>
<!-- Node38 -->
<g id="node38" class="node"><title>Node38</title>
<polygon fill="none" stroke="#bfbfbf" points="2918.5,-0.5 2918.5,-19.5 2977.5,-19.5 2977.5,-0.5 2918.5,-0.5"/>
<text text-anchor="middle" x="2948" y="-7.5" font-family="Helvetica,sans-Serif" font-size="10.00">TObject.h</text>
</g>
<!-- Node36&#45;&gt;Node38 -->
<g id="edge40" class="edge"><title>Node36&#45;&gt;Node38</title>
<path fill="none" stroke="midnightblue" d="M3009.68,-61.9751C2998.35,-52.6082 2979.93,-37.3839 2966.16,-26.0081"/>
<polygon fill="midnightblue" stroke="midnightblue" points="2968.23,-23.1813 2958.3,-19.5091 2963.78,-28.5773 2968.23,-23.1813"/>
</g>
<!-- Node39 -->
<g id="node39" class="node"><title>Node39</title>
<polygon fill="none" stroke="#bfbfbf" points="2996,-0.5 2996,-19.5 3112,-19.5 3112,-0.5 2996,-0.5"/>
<text text-anchor="middle" x="3054" y="-7.5" font-family="Helvetica,sans-Serif" font-size="10.00">Common/Exceptions.h</text>
</g>
<!-- Node36&#45;&gt;Node39 -->
<g id="edge41" class="edge"><title>Node36&#45;&gt;Node39</title>
<path fill="none" stroke="midnightblue" d="M3024.87,-61.9751C3029.87,-53.2268 3037.79,-39.3691 3044.11,-28.3093"/>
<polygon fill="midnightblue" stroke="midnightblue" points="3047.22,-29.928 3049.14,-19.5091 3041.14,-26.455 3047.22,-29.928"/>
</g>
<!-- Node41 -->
<g id="node41" class="node"><title>Node41</title>
<polygon fill="none" stroke="#bfbfbf" points="2778.5,-0.5 2778.5,-19.5 2847.5,-19.5 2847.5,-0.5 2778.5,-0.5"/>
<text text-anchor="middle" x="2813" y="-7.5" font-family="Helvetica,sans-Serif" font-size="10.00">TObjArray.h</text>
</g>
<!-- Node40&#45;&gt;Node41 -->
<g id="edge43" class="edge"><title>Node40&#45;&gt;Node41</title>
<path fill="none" stroke="midnightblue" d="M2813,-56.3993C2813,-48.4664 2813,-38.458 2813,-29.8583"/>
<polygon fill="midnightblue" stroke="midnightblue" points="2816.5,-29.6577 2813,-19.6578 2809.5,-29.6578 2816.5,-29.6577"/>
</g>
<!-- Node42 -->
<g id="node42" class="node"><title>Node42</title>
<polygon fill="none" stroke="#bfbfbf" points="2632,-0.5 2632,-19.5 2760,-19.5 2760,-0.5 2632,-0.5"/>
<text text-anchor="middle" x="2696" y="-7.5" font-family="Helvetica,sans-Serif" font-size="10.00">Mergers/MergeInterface.h</text>
</g>
<!-- Node40&#45;&gt;Node42 -->
<g id="edge44" class="edge"><title>Node40&#45;&gt;Node42</title>
<path fill="none" stroke="midnightblue" d="M2785.27,-56.3993C2766.17,-46.6837 2740.94,-33.8551 2722.18,-24.3137"/>
<polygon fill="midnightblue" stroke="midnightblue" points="2723.52,-21.071 2713.02,-19.6578 2720.35,-27.3106 2723.52,-21.071"/>
</g>
<!-- Node43&#45;&gt;Node30 -->
<g id="edge46" class="edge"><title>Node43&#45;&gt;Node30</title>
<path fill="none" stroke="midnightblue" d="M3222.43,-61.9751C3222.85,-53.5803 3223.51,-40.4806 3224.06,-29.6631"/>
<polygon fill="midnightblue" stroke="midnightblue" points="3227.56,-29.6727 3224.57,-19.5091 3220.57,-29.3201 3227.56,-29.6727"/>
</g>
<!-- Node43&#45;&gt;Node31 -->
<g id="edge47" class="edge"><title>Node43&#45;&gt;Node31</title>
<path fill="none" stroke="midnightblue" d="M3242.92,-61.9751C3267.75,-51.8571 3309.34,-34.9046 3337.69,-23.3507"/>
<polygon fill="midnightblue" stroke="midnightblue" points="3339.18,-26.5243 3347.12,-19.5091 3336.54,-20.0419 3339.18,-26.5243"/>
</g>
</g>
</svg>
        <g id="navigator" transform="translate(0 0)" fill="#404254">
                <rect fill="#f2f5e9" fill-opacity="0.5" stroke="#606060" stroke-width=".5" x="0" y="0" width="60" height="60"/>
                <use id="zoomplus" xlink:href="#zoomPlus" x="17" y="9" onmousedown="handleZoom(evt,'in')"/>
                <use id="zoomminus" xlink:href="#zoomMin" x="42" y="9" onmousedown="handleZoom(evt,'out')"/>
                <use id="reset" xlink:href="#resetDef" x="30" y="36" onmousedown="handleReset()"/>
                <g id="arrowUp" xlink:href="#dirArrow" transform="translate(30 24)" onmousedown="handlePan(0,-1)">
                  <use xlink:href="#rim" fill="#404040">
                        <set attributeName="fill" to="#808080" begin="arrowUp.mouseover" end="arrowUp.mouseout"/>
                  </use>
                  <path fill="none" stroke="white" stroke-width="1.5" d="M0,-3.0v7 M-2.5,-0.5L0,-3.0L2.5,-0.5"/>
                </g>
                <g id="arrowRight" xlink:href="#dirArrow" transform="rotate(90) translate(36 -43)" onmousedown="handlePan(1,0)">
                  <use xlink:href="#rim" fill="#404040">
                        <set attributeName="fill" to="#808080" begin="arrowRight.mouseover" end="arrowRight.mouseout"/>
                  </use>
                  <path fill="none" stroke="white" stroke-width="1.5" d="M0,-3.0v7 M-2.5,-0.5L0,-3.0L2.5,-0.5"/>
                </g>
                <g id="arrowDown" xlink:href="#dirArrow" transform="rotate(180) translate(-30 -48)" onmousedown="handlePan(0,1)">
                  <use xlink:href="#rim" fill="#404040">
                        <set attributeName="fill" to="#808080" begin="arrowDown.mouseover" end="arrowDown.mouseout"/>
                  </use>
                  <path fill="none" stroke="white" stroke-width="1.5" d="M0,-3.0v7 M-2.5,-0.5L0,-3.0L2.5,-0.5"/>
                </g>
                <g id="arrowLeft" xlink:href="#dirArrow" transform="rotate(270) translate(-36 17)" onmousedown="handlePan(-1,0)">
                  <use xlink:href="#rim" fill="#404040">
                        <set attributeName="fill" to="#808080" begin="arrowLeft.mouseover" end="arrowLeft.mouseout"/>
                  </use>
                  <path fill="none" stroke="white" stroke-width="1.5" d="M0,-3.0v7 M-2.5,-0.5L0,-3.0L2.5,-0.5"/>
                </g>
        </g>
        <svg viewBox="0 0 15 15" width="100%" height="30px" preserveAspectRatio="xMaxYMin meet">
         <g id="arrow_out" transform="scale(0.3 0.3)">
          <a xlink:href="Clusters_8cxx__incl_org.svg" target="_base">
           <rect id="button" ry="5" rx="5" y="6" x="6" height="38" width="38"
                fill="#f2f5e9" fill-opacity="0.5" stroke="#606060" stroke-width="1.0"/>
           <path id="arrow"
             d="M 11.500037,31.436501 C 11.940474,20.09759 22.043105,11.32322 32.158766,21.979434 L 37.068811,17.246167 C 37.068811,17.246167 37.088388,32 37.088388,32 L 22.160133,31.978069 C 22.160133,31.978069 26.997745,27.140456 26.997745,27.140456 C 18.528582,18.264221 13.291696,25.230495 11.500037,31.436501 z"
             style="fill:#404040;"/>
          </a>
         </g>
        </svg>
</svg>
