<?xml version="1.0" encoding="UTF-8" standalone="no"?>
<!DOCTYPE svg PUBLIC "-//W3C//DTD SVG 1.1//EN"
 "http://www.w3.org/Graphics/SVG/1.1/DTD/svg11.dtd">
<!-- Generated by graphviz version 2.38.0 (20140413.2041)
 -->
<!-- Title: Modules/TOF/include/Base/Counter.h Pages: 1 -->
<svg width="345pt" height="151pt"
 viewBox="0.00 0.00 344.50 151.00" xmlns="http://www.w3.org/2000/svg" xmlns:xlink="http://www.w3.org/1999/xlink">
<g id="graph0" class="graph" transform="scale(1 1) rotate(0) translate(4 147)">
<title>Modules/TOF/include/Base/Counter.h</title>
<!-- Node1 -->
<g id="node1" class="node"><title>Node1</title>
<polygon fill="#bfbfbf" stroke="black" points="92,-112.5 92,-142.5 202,-142.5 202,-112.5 92,-112.5"/>
<text text-anchor="start" x="100" y="-130.5" font-family="Helvetica,sans-Serif" font-size="10.00">Modules/TOF/include</text>
<text text-anchor="middle" x="147" y="-119.5" font-family="Helvetica,sans-Serif" font-size="10.00">/Base/Counter.h</text>
</g>
<!-- Node2 -->
<g id="node2" class="node"><title>Node2</title>
<polygon fill="none" stroke="#bfbfbf" points="11,-56.5 11,-75.5 55,-75.5 55,-56.5 11,-56.5"/>
<text text-anchor="middle" x="33" y="-63.5" font-family="Helvetica,sans-Serif" font-size="10.00">TH1.h</text>
</g>
<!-- Node1&#45;&gt;Node2 -->
<g id="edge1" class="edge"><title>Node1&#45;&gt;Node2</title>
<path fill="none" stroke="midnightblue" d="M119.984,-112.399C101.369,-102.684 76.7895,-89.8551 58.5087,-80.3137"/>
<polygon fill="midnightblue" stroke="midnightblue" points="60.0726,-77.182 49.588,-75.6578 56.8337,-83.3876 60.0726,-77.182"/>
</g>
<!-- Node3 -->
<g id="node3" class="node"><title>Node3</title>
<g id="a_node3"><a xlink:href="QcInfoLogger_8h.html" target="_top" xlink:title="QualityControl/QcInfoLogger.h">
<polygon fill="none" stroke="black" points="72.5,-56.5 72.5,-75.5 221.5,-75.5 221.5,-56.5 72.5,-56.5"/>
<text text-anchor="middle" x="147" y="-63.5" font-family="Helvetica,sans-Serif" font-size="10.00">QualityControl/QcInfoLogger.h</text>
</a>
</g>
</g>
<!-- Node1&#45;&gt;Node3 -->
<g id="edge2" class="edge"><title>Node1&#45;&gt;Node3</title>
<path fill="none" stroke="midnightblue" d="M147,-112.399C147,-104.466 147,-94.458 147,-85.8583"/>
<polygon fill="midnightblue" stroke="midnightblue" points="150.5,-85.6577 147,-75.6578 143.5,-85.6578 150.5,-85.6577"/>
</g>
<!-- Node6 -->
<g id="node6" class="node"><title>Node6</title>
<polygon fill="none" stroke="#bfbfbf" points="239.5,-56.5 239.5,-75.5 336.5,-75.5 336.5,-56.5 239.5,-56.5"/>
<text text-anchor="middle" x="288" y="-63.5" font-family="Helvetica,sans-Serif" font-size="10.00">fairlogger/Logger.h</text>
</g>
<!-- Node1&#45;&gt;Node6 -->
<g id="edge5" class="edge"><title>Node1&#45;&gt;Node6</title>
<path fill="none" stroke="midnightblue" d="M180.415,-112.399C203.967,-102.461 235.238,-89.2649 257.993,-79.6625"/>
<polygon fill="midnightblue" stroke="midnightblue" points="259.631,-82.7704 267.483,-75.6578 256.909,-76.3211 259.631,-82.7704"/>
</g>
<!-- Node4 -->
<g id="node4" class="node"><title>Node4</title>
<polygon fill="none" stroke="#bfbfbf" points="0,-0.5 0,-19.5 130,-19.5 130,-0.5 0,-0.5"/>
<text text-anchor="middle" x="65" y="-7.5" font-family="Helvetica,sans-Serif" font-size="10.00">InfoLogger/InfoLogger.hxx</text>
</g>
<!-- Node3&#45;&gt;Node4 -->
<g id="edge3" class="edge"><title>Node3&#45;&gt;Node4</title>
<path fill="none" stroke="midnightblue" d="M133.825,-56.324C121.153,-47.979 101.767,-35.2122 86.7944,-25.3524"/>
<polygon fill="midnightblue" stroke="midnightblue" points="88.4187,-22.2313 78.142,-19.6545 84.5688,-28.0776 88.4187,-22.2313"/>
</g>
<!-- Node5 -->
<g id="node5" class="node"><title>Node5</title>
<polygon fill="none" stroke="#bfbfbf" points="148,-0.5 148,-19.5 310,-19.5 310,-0.5 148,-0.5"/>
<text text-anchor="middle" x="229" y="-7.5" font-family="Helvetica,sans-Serif" font-size="10.00">InfoLogger/InfoLoggerMacros.hxx</text>
</g>
<!-- Node3&#45;&gt;Node5 -->
<g id="edge4" class="edge"><title>Node3&#45;&gt;Node5</title>
<path fill="none" stroke="midnightblue" d="M160.175,-56.324C172.847,-47.979 192.233,-35.2122 207.206,-25.3524"/>
<polygon fill="midnightblue" stroke="midnightblue" points="209.431,-28.0776 215.858,-19.6545 205.581,-22.2313 209.431,-28.0776"/>
</g>
</g>
</svg>
