<?xml version="1.0" encoding="UTF-8" standalone="no"?>
<!DOCTYPE svg PUBLIC "-//W3C//DTD SVG 1.1//EN"
 "http://www.w3.org/Graphics/SVG/1.1/DTD/svg11.dtd">
<!-- Generated by graphviz version 2.38.0 (20140413.2041)
 -->
<!-- Title: Modules/Daq/include/Daq/DaqTask.h Pages: 1 -->
<svg width="342pt" height="95pt"
 viewBox="0.00 0.00 341.50 95.00" xmlns="http://www.w3.org/2000/svg" xmlns:xlink="http://www.w3.org/1999/xlink">
<g id="graph0" class="graph" transform="scale(1 1) rotate(0) translate(4 91)">
<title>Modules/Daq/include/Daq/DaqTask.h</title>
<!-- Node1 -->
<g id="node1" class="node"><title>Node1</title>
<polygon fill="#bfbfbf" stroke="black" points="110,-56.5 110,-86.5 218,-86.5 218,-56.5 110,-56.5"/>
<text text-anchor="start" x="118" y="-74.5" font-family="Helvetica,sans-Serif" font-size="10.00">Modules/Daq/include</text>
<text text-anchor="middle" x="164" y="-63.5" font-family="Helvetica,sans-Serif" font-size="10.00">/Daq/DaqTask.h</text>
</g>
<!-- Node2 -->
<g id="node2" class="node"><title>Node2</title>
<g id="a_node2"><a xlink:href="DaqTask_8cxx.html" target="_top" xlink:title="Modules/Daq/src/DaqTask.cxx">
<polygon fill="none" stroke="black" points="0,-0.5 0,-19.5 152,-19.5 152,-0.5 0,-0.5"/>
<text text-anchor="middle" x="76" y="-7.5" font-family="Helvetica,sans-Serif" font-size="10.00">Modules/Daq/src/DaqTask.cxx</text>
</a>
</g>
</g>
<!-- Node1&#45;&gt;Node2 -->
<g id="edge1" class="edge"><title>Node1&#45;&gt;Node2</title>
<path fill="none" stroke="midnightblue" d="M134.829,-50.7764C119.233,-40.2315 100.822,-27.7834 88.8048,-19.6578"/>
<polygon fill="midnightblue" stroke="midnightblue" points="132.901,-53.6975 143.145,-56.3993 136.822,-47.8986 132.901,-53.6975"/>
</g>
<!-- Node3 -->
<g id="node3" class="node"><title>Node3</title>
<g id="a_node3"><a xlink:href="testQcDaq_8cxx.html" target="_top" xlink:title="Modules/Daq/test/testQcDaq.cxx">
<polygon fill="none" stroke="black" points="170.5,-0.5 170.5,-19.5 333.5,-19.5 333.5,-0.5 170.5,-0.5"/>
<text text-anchor="middle" x="252" y="-7.5" font-family="Helvetica,sans-Serif" font-size="10.00">Modules/Daq/test/testQcDaq.cxx</text>
</a>
</g>
</g>
<!-- Node1&#45;&gt;Node3 -->
<g id="edge2" class="edge"><title>Node1&#45;&gt;Node3</title>
<path fill="none" stroke="midnightblue" d="M193.171,-50.7764C208.767,-40.2315 227.178,-27.7834 239.195,-19.6578"/>
<polygon fill="midnightblue" stroke="midnightblue" points="191.178,-47.8986 184.855,-56.3993 195.099,-53.6975 191.178,-47.8986"/>
</g>
</g>
</svg>
