<?xml version="1.0" encoding="UTF-8" standalone="no"?>
<!DOCTYPE svg PUBLIC "-//W3C//DTD SVG 1.1//EN"
 "http://www.w3.org/Graphics/SVG/1.1/DTD/svg11.dtd">
<!-- Generated by graphviz version 2.38.0 (20140413.2041)
 -->
<!-- Title: Modules/Daq/include/Daq/DaqTask.h Pages: 1 -->
<svg width="1296pt" height="274pt"
 viewBox="0.00 0.00 1296.05 274.00" xmlns="http://www.w3.org/2000/svg" xmlns:xlink="http://www.w3.org/1999/xlink">
<g id="graph0" class="graph" transform="scale(1 1) rotate(0) translate(4 270)">
<title>Modules/Daq/include/Daq/DaqTask.h</title>
<!-- Node1 -->
<g id="node1" class="node"><title>Node1</title>
<polygon fill="#bfbfbf" stroke="black" points="622.786,-235.5 622.786,-265.5 730.786,-265.5 730.786,-235.5 622.786,-235.5"/>
<text text-anchor="start" x="630.786" y="-253.5" font-family="Helvetica,sans-Serif" font-size="10.00">Modules/Daq/include</text>
<text text-anchor="middle" x="676.786" y="-242.5" font-family="Helvetica,sans-Serif" font-size="10.00">/Daq/DaqTask.h</text>
</g>
<!-- Node2 -->
<g id="node2" class="node"><title>Node2</title>
<g id="a_node2"><a xlink:href="TaskInterface_8h.html" target="_top" xlink:title="QualityControl/TaskInterface.h">
<polygon fill="none" stroke="black" points="531.786,-179.5 531.786,-198.5 681.786,-198.5 681.786,-179.5 531.786,-179.5"/>
<text text-anchor="middle" x="606.786" y="-186.5" font-family="Helvetica,sans-Serif" font-size="10.00">QualityControl/TaskInterface.h</text>
</a>
</g>
</g>
<!-- Node1&#45;&gt;Node2 -->
<g id="edge1" class="edge"><title>Node1&#45;&gt;Node2</title>
<path fill="none" stroke="midnightblue" d="M660.197,-235.399C649.501,-226.308 635.598,-214.49 624.658,-205.191"/>
<polygon fill="midnightblue" stroke="midnightblue" points="626.858,-202.468 616.972,-198.658 622.325,-207.801 626.858,-202.468"/>
</g>
<!-- Node3 -->
<g id="node3" class="node"><title>Node3</title>
<polygon fill="none" stroke="#bfbfbf" points="165.286,-0.5 165.286,-19.5 200.286,-19.5 200.286,-0.5 165.286,-0.5"/>
<text text-anchor="middle" x="182.786" y="-7.5" font-family="Helvetica,sans-Serif" font-size="10.00">map</text>
</g>
<!-- Node1&#45;&gt;Node3 -->
<g id="edge29" class="edge"><title>Node1&#45;&gt;Node3</title>
<path fill="none" stroke="midnightblue" d="M622.619,-249.434C478.208,-247.994 89.6159,-235.437 10.7864,-143 -38.2776,-85.4667 95.563,-36.9482 155.474,-18.7218"/>
<polygon fill="midnightblue" stroke="midnightblue" points="156.491,-22.0708 165.08,-15.8668 154.497,-15.3609 156.491,-22.0708"/>
</g>
<!-- Node23 -->
<g id="node23" class="node"><title>Node23</title>
<polygon fill="none" stroke="#bfbfbf" points="699.286,-179.5 699.286,-198.5 796.286,-198.5 796.286,-179.5 699.286,-179.5"/>
<text text-anchor="middle" x="747.786" y="-186.5" font-family="Helvetica,sans-Serif" font-size="10.00">Headers/DAQID.h</text>
</g>
<!-- Node1&#45;&gt;Node23 -->
<g id="edge28" class="edge"><title>Node1&#45;&gt;Node23</title>
<path fill="none" stroke="midnightblue" d="M693.612,-235.399C704.461,-226.308 718.563,-214.49 729.659,-205.191"/>
<polygon fill="midnightblue" stroke="midnightblue" points="732.039,-207.763 737.455,-198.658 727.543,-202.398 732.039,-207.763"/>
</g>
<!-- Node24 -->
<g id="node24" class="node"><title>Node24</title>
<polygon fill="none" stroke="#bfbfbf" points="814.786,-179.5 814.786,-198.5 844.786,-198.5 844.786,-179.5 814.786,-179.5"/>
<text text-anchor="middle" x="829.786" y="-186.5" font-family="Helvetica,sans-Serif" font-size="10.00">set</text>
</g>
<!-- Node1&#45;&gt;Node24 -->
<g id="edge30" class="edge"><title>Node1&#45;&gt;Node24</title>
<path fill="none" stroke="midnightblue" d="M713.045,-235.399C741.471,-224.345 780.26,-209.26 805.17,-199.573"/>
<polygon fill="midnightblue" stroke="midnightblue" points="806.56,-202.788 814.612,-195.901 804.023,-196.264 806.56,-202.788"/>
</g>
<!-- Node2&#45;&gt;Node3 -->
<g id="edge2" class="edge"><title>Node2&#45;&gt;Node3</title>
<path fill="none" stroke="midnightblue" d="M606.878,-179.26C606.511,-165.072 603.549,-137.188 586.786,-123 494.382,-44.7855 431.54,-125.569 316.786,-87 273.21,-72.3538 227.739,-43.1119 202.564,-25.478"/>
<polygon fill="midnightblue" stroke="midnightblue" points="204.424,-22.5058 194.249,-19.555 200.363,-28.2073 204.424,-22.5058"/>
</g>
<!-- Node4 -->
<g id="node4" class="node"><title>Node4</title>
<polygon fill="none" stroke="#bfbfbf" points="852.786,-62 852.786,-81 904.786,-81 904.786,-62 852.786,-62"/>
<text text-anchor="middle" x="878.786" y="-69" font-family="Helvetica,sans-Serif" font-size="10.00">memory</text>
</g>
<!-- Node2&#45;&gt;Node4 -->
<g id="edge3" class="edge"><title>Node2&#45;&gt;Node4</title>
<path fill="none" stroke="midnightblue" d="M658.484,-179.468C708.359,-170.665 779.857,-156.372 804.786,-143 829.59,-129.696 852.067,-105.811 865.578,-89.5659"/>
<polygon fill="midnightblue" stroke="midnightblue" points="868.573,-91.4264 872.119,-81.4425 863.121,-87.0362 868.573,-91.4264"/>
</g>
<!-- Node5 -->
<g id="node5" class="node"><title>Node5</title>
<polygon fill="none" stroke="#bfbfbf" points="742.286,-0.5 742.286,-19.5 783.286,-19.5 783.286,-0.5 742.286,-0.5"/>
<text text-anchor="middle" x="762.786" y="-7.5" font-family="Helvetica,sans-Serif" font-size="10.00">string</text>
</g>
<!-- Node2&#45;&gt;Node5 -->
<g id="edge4" class="edge"><title>Node2&#45;&gt;Node5</title>
<path fill="none" stroke="midnightblue" d="M662.968,-179.492C719.606,-170.439 802.81,-155.699 832.786,-143 873.085,-125.928 893.462,-125.76 913.786,-87 920.185,-74.798 922.021,-67.0463 913.786,-56 886.154,-18.9323 829.19,-11.1952 793.669,-10.2168"/>
<polygon fill="midnightblue" stroke="midnightblue" points="793.427,-6.71409 783.39,-10.1052 793.351,-13.7137 793.427,-6.71409"/>
</g>
<!-- Node6 -->
<g id="node6" class="node"><title>Node6</title>
<polygon fill="none" stroke="#bfbfbf" points="1028.29,-0.5 1028.29,-19.5 1111.29,-19.5 1111.29,-0.5 1028.29,-0.5"/>
<text text-anchor="middle" x="1069.79" y="-7.5" font-family="Helvetica,sans-Serif" font-size="10.00">unordered_map</text>
</g>
<!-- Node2&#45;&gt;Node6 -->
<g id="edge5" class="edge"><title>Node2&#45;&gt;Node6</title>
<path fill="none" stroke="midnightblue" d="M681.879,-179.775C684.547,-179.509 687.189,-179.25 689.786,-179 821.871,-166.286 1202.8,-195.076 1279.79,-87 1320.88,-29.3185 1196.42,-15.2583 1121.74,-11.9364"/>
<polygon fill="midnightblue" stroke="midnightblue" points="1121.68,-8.43161 1111.55,-11.5355 1121.41,-15.4262 1121.68,-8.43161"/>
</g>
<!-- Node7 -->
<g id="node7" class="node"><title>Node7</title>
<polygon fill="none" stroke="#bfbfbf" points="20.2864,-123.5 20.2864,-142.5 145.286,-142.5 145.286,-123.5 20.2864,-123.5"/>
<text text-anchor="middle" x="82.7864" y="-130.5" font-family="Helvetica,sans-Serif" font-size="10.00">Framework/InitContext.h</text>
</g>
<!-- Node2&#45;&gt;Node7 -->
<g id="edge6" class="edge"><title>Node2&#45;&gt;Node7</title>
<path fill="none" stroke="midnightblue" d="M531.547,-181.092C443.894,-172.913 294.438,-158.561 155.582,-143.064"/>
<polygon fill="midnightblue" stroke="midnightblue" points="155.932,-139.581 145.604,-141.947 155.152,-146.538 155.932,-139.581"/>
</g>
<!-- Node8 -->
<g id="node8" class="node"><title>Node8</title>
<polygon fill="none" stroke="#bfbfbf" points="163.786,-123.5 163.786,-142.5 323.786,-142.5 323.786,-123.5 163.786,-123.5"/>
<text text-anchor="middle" x="243.786" y="-130.5" font-family="Helvetica,sans-Serif" font-size="10.00">Framework/ProcessingContext.h</text>
</g>
<!-- Node2&#45;&gt;Node8 -->
<g id="edge7" class="edge"><title>Node2&#45;&gt;Node8</title>
<path fill="none" stroke="midnightblue" d="M549.268,-179.444C484.616,-169.826 379.761,-154.228 311.284,-144.041"/>
<polygon fill="midnightblue" stroke="midnightblue" points="311.442,-140.526 301.036,-142.516 310.412,-147.45 311.442,-140.526"/>
</g>
<!-- Node9 -->
<g id="node9" class="node"><title>Node9</title>
<polygon fill="none" stroke="#bfbfbf" points="342.286,-123.5 342.286,-142.5 437.286,-142.5 437.286,-123.5 342.286,-123.5"/>
<text text-anchor="middle" x="389.786" y="-130.5" font-family="Helvetica,sans-Serif" font-size="10.00">CCDB/CcdbApi.h</text>
</g>
<!-- Node2&#45;&gt;Node9 -->
<g id="edge8" class="edge"><title>Node2&#45;&gt;Node9</title>
<path fill="none" stroke="midnightblue" d="M572.402,-179.444C534.864,-170.102 474.655,-155.119 433.719,-144.933"/>
<polygon fill="midnightblue" stroke="midnightblue" points="434.559,-141.535 424.01,-142.516 432.869,-148.328 434.559,-141.535"/>
</g>
<!-- Node10 -->
<g id="node10" class="node"><title>Node10</title>
<g id="a_node10"><a xlink:href="Activity_8h.html" target="_top" xlink:title="QualityControl/Activity.h">
<polygon fill="none" stroke="black" points="455.286,-123.5 455.286,-142.5 578.286,-142.5 578.286,-123.5 455.286,-123.5"/>
<text text-anchor="middle" x="516.786" y="-130.5" font-family="Helvetica,sans-Serif" font-size="10.00">QualityControl/Activity.h</text>
</a>
</g>
</g>
<!-- Node2&#45;&gt;Node10 -->
<g id="edge9" class="edge"><title>Node2&#45;&gt;Node10</title>
<path fill="none" stroke="midnightblue" d="M592.326,-179.324C578.287,-170.9 556.738,-157.971 540.243,-148.074"/>
<polygon fill="midnightblue" stroke="midnightblue" points="541.586,-144.798 531.211,-142.655 537.985,-150.801 541.586,-144.798"/>
</g>
<!-- Node11 -->
<g id="node11" class="node"><title>Node11</title>
<g id="a_node11"><a xlink:href="ObjectsManager_8h.html" target="_top" xlink:title="QualityControl/ObjectsManager.h">
<polygon fill="none" stroke="black" points="635.286,-123.5 635.286,-142.5 796.286,-142.5 796.286,-123.5 635.286,-123.5"/>
<text text-anchor="middle" x="715.786" y="-130.5" font-family="Helvetica,sans-Serif" font-size="10.00">QualityControl/ObjectsManager.h</text>
</a>
</g>
</g>
<!-- Node2&#45;&gt;Node11 -->
<g id="edge10" class="edge"><title>Node2&#45;&gt;Node11</title>
<path fill="none" stroke="midnightblue" d="M624.299,-179.324C641.859,-170.625 669.118,-157.12 689.318,-147.113"/>
<polygon fill="midnightblue" stroke="midnightblue" points="690.91,-150.23 698.317,-142.655 687.803,-143.958 690.91,-150.23"/>
</g>
<!-- Node20 -->
<g id="node20" class="node"><title>Node20</title>
<g id="a_node20"><a xlink:href="QcInfoLogger_8h.html" target="_top" xlink:title="QualityControl/QcInfoLogger.h">
<polygon fill="none" stroke="black" points="960.286,-123.5 960.286,-142.5 1109.29,-142.5 1109.29,-123.5 960.286,-123.5"/>
<text text-anchor="middle" x="1034.79" y="-130.5" font-family="Helvetica,sans-Serif" font-size="10.00">QualityControl/QcInfoLogger.h</text>
</a>
</g>
</g>
<!-- Node2&#45;&gt;Node20 -->
<g id="edge25" class="edge"><title>Node2&#45;&gt;Node20</title>
<path fill="none" stroke="midnightblue" d="M674.604,-179.444C751.459,-169.747 876.498,-153.971 957.184,-143.791"/>
<polygon fill="midnightblue" stroke="midnightblue" points="957.803,-147.241 967.286,-142.516 956.926,-140.296 957.803,-147.241"/>
</g>
<!-- Node11&#45;&gt;Node4 -->
<g id="edge24" class="edge"><title>Node11&#45;&gt;Node4</title>
<path fill="none" stroke="midnightblue" d="M741.436,-123.443C767.386,-114.679 808.586,-100.468 843.786,-87 845.434,-86.3698 847.12,-85.7126 848.818,-85.0409"/>
<polygon fill="midnightblue" stroke="midnightblue" points="850.546,-88.1177 858.504,-81.1231 847.921,-81.6285 850.546,-88.1177"/>
</g>
<!-- Node11&#45;&gt;Node5 -->
<g id="edge23" class="edge"><title>Node11&#45;&gt;Node5</title>
<path fill="none" stroke="midnightblue" d="M707.338,-123.193C694.442,-108.635 672.655,-78.8844 685.786,-56 695.836,-38.487 715.628,-27.1393 732.628,-20.2201"/>
<polygon fill="midnightblue" stroke="midnightblue" points="734.073,-23.4169 742.221,-16.6448 731.628,-16.8577 734.073,-23.4169"/>
</g>
<!-- Node12 -->
<g id="node12" class="node"><title>Node12</title>
<g id="a_node12"><a xlink:href="MonitorObject_8h.html" target="_top" xlink:title="QualityControl/MonitorObject.h">
<polygon fill="none" stroke="black" points="487.286,-62 487.286,-81 638.286,-81 638.286,-62 487.286,-62"/>
<text text-anchor="middle" x="562.786" y="-69" font-family="Helvetica,sans-Serif" font-size="10.00">QualityControl/MonitorObject.h</text>
</a>
</g>
</g>
<!-- Node11&#45;&gt;Node12 -->
<g id="edge11" class="edge"><title>Node11&#45;&gt;Node12</title>
<path fill="none" stroke="midnightblue" d="M693.865,-123.475C667.734,-113.313 623.874,-96.2564 594.157,-84.6996"/>
<polygon fill="midnightblue" stroke="midnightblue" points="595.256,-81.3716 584.667,-81.0091 592.718,-87.8956 595.256,-81.3716"/>
</g>
<!-- Node16 -->
<g id="node16" class="node"><title>Node16</title>
<g id="a_node16"><a xlink:href="MonitorObjectCollection_8h.html" target="_top" xlink:title="QualityControl/MonitorObject\lCollection.h">
<polygon fill="none" stroke="black" points="326.286,-56.5 326.286,-86.5 469.286,-86.5 469.286,-56.5 326.286,-56.5"/>
<text text-anchor="start" x="334.286" y="-74.5" font-family="Helvetica,sans-Serif" font-size="10.00">QualityControl/MonitorObject</text>
<text text-anchor="middle" x="397.786" y="-63.5" font-family="Helvetica,sans-Serif" font-size="10.00">Collection.h</text>
</a>
</g>
</g>
<!-- Node11&#45;&gt;Node16 -->
<g id="edge17" class="edge"><title>Node11&#45;&gt;Node16</title>
<path fill="none" stroke="midnightblue" d="M670.225,-123.475C620.526,-114.176 539.973,-99.104 479.321,-87.7557"/>
<polygon fill="midnightblue" stroke="midnightblue" points="479.859,-84.2956 469.386,-85.8967 478.571,-91.1762 479.859,-84.2956"/>
</g>
<!-- Node19 -->
<g id="node19" class="node"><title>Node19</title>
<g id="a_node19"><a xlink:href="TaskConfig_8h.html" target="_top" xlink:title="QualityControl/TaskConfig.h">
<polygon fill="none" stroke="black" points="694.786,-62 694.786,-81 834.786,-81 834.786,-62 694.786,-62"/>
<text text-anchor="middle" x="764.786" y="-69" font-family="Helvetica,sans-Serif" font-size="10.00">QualityControl/TaskConfig.h</text>
</a>
</g>
</g>
<!-- Node11&#45;&gt;Node19 -->
<g id="edge20" class="edge"><title>Node11&#45;&gt;Node19</title>
<path fill="none" stroke="midnightblue" d="M722.807,-123.475C730.23,-114.462 742.119,-100.025 751.353,-88.8118"/>
<polygon fill="midnightblue" stroke="midnightblue" points="754.124,-90.9534 757.779,-81.0091 748.72,-86.5034 754.124,-90.9534"/>
</g>
<!-- Node12&#45;&gt;Node3 -->
<g id="edge13" class="edge"><title>Node12&#45;&gt;Node3</title>
<path fill="none" stroke="midnightblue" d="M514.735,-61.9976C502.685,-59.9495 489.774,-57.827 477.786,-56 362.11,-38.3698 328.621,-46.6546 210.182,-19.6613"/>
<polygon fill="midnightblue" stroke="midnightblue" points="210.901,-16.2353 200.369,-17.3895 209.322,-23.0549 210.901,-16.2353"/>
</g>
<!-- Node12&#45;&gt;Node5 -->
<g id="edge12" class="edge"><title>Node12&#45;&gt;Node5</title>
<path fill="none" stroke="midnightblue" d="M591.442,-61.9751C628.761,-50.8725 693.742,-31.5406 732.056,-20.1423"/>
<polygon fill="midnightblue" stroke="midnightblue" points="733.523,-23.3575 742.11,-17.1513 731.527,-16.6481 733.523,-23.3575"/>
</g>
<!-- Node13 -->
<g id="node13" class="node"><title>Node13</title>
<polygon fill="none" stroke="#bfbfbf" points="663.786,-0.5 663.786,-19.5 719.786,-19.5 719.786,-0.5 663.786,-0.5"/>
<text text-anchor="middle" x="691.786" y="-7.5" font-family="Helvetica,sans-Serif" font-size="10.00">Rtypes.h</text>
</g>
<!-- Node12&#45;&gt;Node13 -->
<g id="edge14" class="edge"><title>Node12&#45;&gt;Node13</title>
<path fill="none" stroke="midnightblue" d="M581.269,-61.9751C602.918,-51.9897 638.999,-35.3476 664.019,-23.8075"/>
<polygon fill="midnightblue" stroke="midnightblue" points="665.723,-26.8757 673.338,-19.5091 662.792,-20.5193 665.723,-26.8757"/>
</g>
<!-- Node14 -->
<g id="node14" class="node"><title>Node14</title>
<polygon fill="none" stroke="#bfbfbf" points="452.286,-0.5 452.286,-19.5 511.286,-19.5 511.286,-0.5 452.286,-0.5"/>
<text text-anchor="middle" x="481.786" y="-7.5" font-family="Helvetica,sans-Serif" font-size="10.00">TObject.h</text>
</g>
<!-- Node12&#45;&gt;Node14 -->
<g id="edge15" class="edge"><title>Node12&#45;&gt;Node14</title>
<path fill="none" stroke="midnightblue" d="M551.181,-61.9751C538.309,-52.5199 517.312,-37.0961 501.781,-25.6871"/>
<polygon fill="midnightblue" stroke="midnightblue" points="503.502,-22.6085 493.37,-19.5091 499.358,-28.25 503.502,-22.6085"/>
</g>
<!-- Node15 -->
<g id="node15" class="node"><title>Node15</title>
<polygon fill="none" stroke="#bfbfbf" points="529.786,-0.5 529.786,-19.5 645.786,-19.5 645.786,-0.5 529.786,-0.5"/>
<text text-anchor="middle" x="587.786" y="-7.5" font-family="Helvetica,sans-Serif" font-size="10.00">Common/Exceptions.h</text>
</g>
<!-- Node12&#45;&gt;Node15 -->
<g id="edge16" class="edge"><title>Node12&#45;&gt;Node15</title>
<path fill="none" stroke="midnightblue" d="M566.368,-61.9751C569.97,-53.4035 575.632,-39.9269 580.231,-28.983"/>
<polygon fill="midnightblue" stroke="midnightblue" points="583.564,-30.0842 584.211,-19.5091 577.111,-27.3726 583.564,-30.0842"/>
</g>
<!-- Node17 -->
<g id="node17" class="node"><title>Node17</title>
<polygon fill="none" stroke="#bfbfbf" points="365.286,-0.5 365.286,-19.5 434.286,-19.5 434.286,-0.5 365.286,-0.5"/>
<text text-anchor="middle" x="399.786" y="-7.5" font-family="Helvetica,sans-Serif" font-size="10.00">TObjArray.h</text>
</g>
<!-- Node16&#45;&gt;Node17 -->
<g id="edge18" class="edge"><title>Node16&#45;&gt;Node17</title>
<path fill="none" stroke="midnightblue" d="M398.26,-56.3993C398.527,-48.4664 398.863,-38.458 399.153,-29.8583"/>
<polygon fill="midnightblue" stroke="midnightblue" points="402.657,-29.7697 399.495,-19.6578 395.661,-29.5345 402.657,-29.7697"/>
</g>
<!-- Node18 -->
<g id="node18" class="node"><title>Node18</title>
<polygon fill="none" stroke="#bfbfbf" points="218.786,-0.5 218.786,-19.5 346.786,-19.5 346.786,-0.5 218.786,-0.5"/>
<text text-anchor="middle" x="282.786" y="-7.5" font-family="Helvetica,sans-Serif" font-size="10.00">Mergers/MergeInterface.h</text>
</g>
<!-- Node16&#45;&gt;Node18 -->
<g id="edge19" class="edge"><title>Node16&#45;&gt;Node18</title>
<path fill="none" stroke="midnightblue" d="M370.533,-56.3993C351.755,-46.6837 326.96,-33.8551 308.519,-24.3137"/>
<polygon fill="midnightblue" stroke="midnightblue" points="310.01,-21.1445 299.52,-19.6578 306.793,-27.3617 310.01,-21.1445"/>
</g>
<!-- Node19&#45;&gt;Node5 -->
<g id="edge21" class="edge"><title>Node19&#45;&gt;Node5</title>
<path fill="none" stroke="midnightblue" d="M764.5,-61.9751C764.218,-53.5803 763.777,-40.4806 763.414,-29.6631"/>
<polygon fill="midnightblue" stroke="midnightblue" points="766.907,-29.3858 763.072,-19.5091 759.91,-29.6211 766.907,-29.3858"/>
</g>
<!-- Node19&#45;&gt;Node6 -->
<g id="edge22" class="edge"><title>Node19&#45;&gt;Node6</title>
<path fill="none" stroke="midnightblue" d="M808.485,-61.9751C863.918,-51.1612 959.369,-32.5404 1018.28,-21.0473"/>
<polygon fill="midnightblue" stroke="midnightblue" points="1018.98,-24.4771 1028.13,-19.1271 1017.64,-17.6067 1018.98,-24.4771"/>
</g>
<!-- Node21 -->
<g id="node21" class="node"><title>Node21</title>
<polygon fill="none" stroke="#bfbfbf" points="960.786,-62 960.786,-81 1090.79,-81 1090.79,-62 960.786,-62"/>
<text text-anchor="middle" x="1025.79" y="-69" font-family="Helvetica,sans-Serif" font-size="10.00">InfoLogger/InfoLogger.hxx</text>
</g>
<!-- Node20&#45;&gt;Node21 -->
<g id="edge26" class="edge"><title>Node20&#45;&gt;Node21</title>
<path fill="none" stroke="midnightblue" d="M1033.5,-123.475C1032.23,-115.08 1030.25,-101.981 1028.61,-91.1631"/>
<polygon fill="midnightblue" stroke="midnightblue" points="1032.03,-90.3731 1027.07,-81.0091 1025.11,-91.4201 1032.03,-90.3731"/>
</g>
<!-- Node22 -->
<g id="node22" class="node"><title>Node22</title>
<polygon fill="none" stroke="#bfbfbf" points="1108.79,-62 1108.79,-81 1270.79,-81 1270.79,-62 1108.79,-62"/>
<text text-anchor="middle" x="1189.79" y="-69" font-family="Helvetica,sans-Serif" font-size="10.00">InfoLogger/InfoLoggerMacros.hxx</text>
</g>
<!-- Node20&#45;&gt;Node22 -->
<g id="edge27" class="edge"><title>Node20&#45;&gt;Node22</title>
<path fill="none" stroke="midnightblue" d="M1056.99,-123.475C1083.47,-113.313 1127.9,-96.2564 1158.01,-84.6996"/>
<polygon fill="midnightblue" stroke="midnightblue" points="1159.54,-87.8604 1167.62,-81.0091 1157.03,-81.3254 1159.54,-87.8604"/>
</g>
</g>
</svg>
