<?xml version="1.0" encoding="UTF-8" standalone="no"?>
<!DOCTYPE svg PUBLIC "-//W3C//DTD SVG 1.1//EN"
 "http://www.w3.org/Graphics/SVG/1.1/DTD/svg11.dtd">
<!-- Generated by graphviz version 2.38.0 (20140413.2041)
 -->
<!-- Title: Framework/include/QualityControl/DataProducerExample.h Pages: 1 -->
<svg width="330pt" height="106pt"
 viewBox="0.00 0.00 329.50 106.00" xmlns="http://www.w3.org/2000/svg" xmlns:xlink="http://www.w3.org/1999/xlink">
<g id="graph0" class="graph" transform="scale(1 1) rotate(0) translate(4 102)">
<title>Framework/include/QualityControl/DataProducerExample.h</title>
<!-- Node1 -->
<g id="node1" class="node"><title>Node1</title>
<polygon fill="#bfbfbf" stroke="black" points="78.5,-67.5 78.5,-97.5 236.5,-97.5 236.5,-67.5 78.5,-67.5"/>
<text text-anchor="start" x="86.5" y="-85.5" font-family="Helvetica,sans-Serif" font-size="10.00">Framework/include/Quality</text>
<text text-anchor="middle" x="157.5" y="-74.5" font-family="Helvetica,sans-Serif" font-size="10.00">Control/DataProducerExample.h</text>
</g>
<!-- Node2 -->
<g id="node2" class="node"><title>Node2</title>
<g id="a_node2"><a xlink:href="DataProducerExample_8cxx.html" target="_top" xlink:title="Framework/src/DataProducer\lExample.cxx">
<polygon fill="none" stroke="black" points="0,-0.5 0,-30.5 145,-30.5 145,-0.5 0,-0.5"/>
<text text-anchor="start" x="8" y="-18.5" font-family="Helvetica,sans-Serif" font-size="10.00">Framework/src/DataProducer</text>
<text text-anchor="middle" x="72.5" y="-7.5" font-family="Helvetica,sans-Serif" font-size="10.00">Example.cxx</text>
</a>
</g>
</g>
<!-- Node1&#45;&gt;Node2 -->
<g id="edge1" class="edge"><title>Node1&#45;&gt;Node2</title>
<path fill="none" stroke="midnightblue" d="M130.912,-61.1677C117.914,-51.2283 102.596,-39.5144 90.9077,-30.5765"/>
<polygon fill="midnightblue" stroke="midnightblue" points="128.987,-64.1017 139.056,-67.396 133.239,-58.5412 128.987,-64.1017"/>
</g>
<!-- Node3 -->
<g id="node3" class="node"><title>Node3</title>
<g id="a_node3"><a xlink:href="runDataProducerExample_8cxx.html" target="_top" xlink:title="This is just an example of very basic data producer in Data Processing Layer. It produces a fixed num...">
<polygon fill="none" stroke="black" points="163.5,-0.5 163.5,-30.5 321.5,-30.5 321.5,-0.5 163.5,-0.5"/>
<text text-anchor="start" x="171.5" y="-18.5" font-family="Helvetica,sans-Serif" font-size="10.00">Framework/src/runDataProducer</text>
<text text-anchor="middle" x="242.5" y="-7.5" font-family="Helvetica,sans-Serif" font-size="10.00">Example.cxx</text>
</a>
</g>
</g>
<!-- Node1&#45;&gt;Node3 -->
<g id="edge2" class="edge"><title>Node1&#45;&gt;Node3</title>
<path fill="none" stroke="midnightblue" d="M184.088,-61.1677C197.086,-51.2283 212.404,-39.5144 224.092,-30.5765"/>
<polygon fill="midnightblue" stroke="midnightblue" points="181.761,-58.5412 175.944,-67.396 186.013,-64.1017 181.761,-58.5412"/>
</g>
</g>
</svg>
