<?xml version="1.0" encoding="UTF-8" standalone="no"?>
<!DOCTYPE svg PUBLIC "-//W3C//DTD SVG 1.1//EN"
 "http://www.w3.org/Graphics/SVG/1.1/DTD/svg11.dtd">
<!-- Generated by graphviz version 2.38.0 (20140413.2041)
 -->
<!-- Title: Framework/include/QualityControl/DatabaseInterface.h Pages: 1 -->
<!--zoomable 184 -->
<svg id="main" version="1.1" xmlns="http://www.w3.org/2000/svg" xmlns:xlink="http://www.w3.org/1999/xlink" xml:space="preserve" onload="init(evt)">
<style type="text/css"><![CDATA[
.edge:hover path { stroke: red; }
.edge:hover polygon { stroke: red; fill: red; }
]]></style>
<script type="text/javascript"><![CDATA[
var edges = document.getElementsByTagName('g');
if (edges && edges.length) {
  for (var i=0;i<edges.length;i++) {
    if (edges[i].id.substr(0,4)=='edge') {
      edges[i].setAttribute('class','edge');
    }
  }
}
]]></script>
        <defs>
                <circle id="rim" cx="0" cy="0" r="7"/>
                <circle id="rim2" cx="0" cy="0" r="3.5"/>
                <g id="zoomPlus">
                        <use xlink:href="#rim" fill="#404040">
                                <set attributeName="fill" to="#808080" begin="zoomplus.mouseover" end="zoomplus.mouseout"/>
                        </use>
                        <path d="M-4,0h8M0,-4v8" fill="none" stroke="white" stroke-width="1.5" pointer-events="none"/>
                </g>
                <g id="zoomMin">
                        <use xlink:href="#rim" fill="#404040">
                                <set attributeName="fill" to="#808080" begin="zoomminus.mouseover" end="zoomminus.mouseout"/>
                        </use>
                        <path d="M-4,0h8" fill="none" stroke="white" stroke-width="1.5" pointer-events="none"/>
                </g>
                <g id="dirArrow">
                        <path fill="none" stroke="white" stroke-width="1.5" d="M0,-3.0v7 M-2.5,-0.5L0,-3.0L2.5,-0.5"/>
                </g>
               <g id="resetDef">
                       <use xlink:href="#rim2" fill="#404040">
                               <set attributeName="fill" to="#808080" begin="reset.mouseover" end="reset.mouseout"/>
                       </use>
               </g>
        </defs>

<script type="text/javascript">
var viewWidth = 5206;
var viewHeight = 184;
var sectionId = 'dynsection-1';
</script>
<script xlink:href="svgpan.js"/>
<svg id="graph" class="graph">
<g id="viewport">
<title>Framework/include/QualityControl/DatabaseInterface.h</title>
<!-- Node1 -->
<g id="node1" class="node"><title>Node1</title>
<polygon fill="#bfbfbf" stroke="black" points="4062,-145.5 4062,-175.5 4202,-175.5 4202,-145.5 4062,-145.5"/>
<text text-anchor="start" x="4070" y="-163.5" font-family="Helvetica,sans-Serif" font-size="10.00">Framework/include/Quality</text>
<text text-anchor="middle" x="4132" y="-152.5" font-family="Helvetica,sans-Serif" font-size="10.00">Control/DatabaseInterface.h</text>
</g>
<!-- Node2 -->
<g id="node2" class="node"><title>Node2</title>
<g id="a_node2"><a xlink:href="CcdbDatabase_8h.html" target="_top" xlink:title="Framework/include/Quality\lControl/CcdbDatabase.h">
<polygon fill="none" stroke="black" points="791.5,-73 791.5,-103 924.5,-103 924.5,-73 791.5,-73"/>
<text text-anchor="start" x="799.5" y="-91" font-family="Helvetica,sans-Serif" font-size="10.00">Framework/include/Quality</text>
<text text-anchor="middle" x="858" y="-80" font-family="Helvetica,sans-Serif" font-size="10.00">Control/CcdbDatabase.h</text>
</a>
</g>
</g>
<!-- Node1&#45;&gt;Node2 -->
<g id="edge1" class="edge"><title>Node1&#45;&gt;Node2</title>
<path fill="none" stroke="midnightblue" d="M4051.42,-159.148C3628.06,-157.151 1657.41,-145.991 1048,-109 1006.95,-106.508 961.086,-101.738 924.707,-97.481"/>
<polygon fill="midnightblue" stroke="midnightblue" points="4051.71,-162.649 4061.72,-159.196 4051.74,-155.649 4051.71,-162.649"/>
</g>
<!-- Node9 -->
<g id="node9" class="node"><title>Node9</title>
<g id="a_node9"><a xlink:href="CheckRunner_8h.html" target="_top" xlink:title="Framework/include/Quality\lControl/CheckRunner.h">
<polygon fill="none" stroke="black" points="2623.5,-73 2623.5,-103 2756.5,-103 2756.5,-73 2623.5,-73"/>
<text text-anchor="start" x="2631.5" y="-91" font-family="Helvetica,sans-Serif" font-size="10.00">Framework/include/Quality</text>
<text text-anchor="middle" x="2690" y="-80" font-family="Helvetica,sans-Serif" font-size="10.00">Control/CheckRunner.h</text>
</a>
</g>
</g>
<!-- Node1&#45;&gt;Node9 -->
<g id="edge8" class="edge"><title>Node1&#45;&gt;Node9</title>
<path fill="none" stroke="midnightblue" d="M4051.96,-155.587C3794.96,-143.022 2993.73,-103.849 2756.7,-92.2608"/>
<polygon fill="midnightblue" stroke="midnightblue" points="4051.8,-159.083 4061.96,-156.076 4052.14,-152.092 4051.8,-159.083"/>
</g>
<!-- Node20 -->
<g id="node20" class="node"><title>Node20</title>
<g id="a_node20"><a xlink:href="DatabaseFactory_8h.html" target="_top" xlink:title="Framework/include/Quality\lControl/DatabaseFactory.h">
<polygon fill="none" stroke="black" points="1424,-73 1424,-103 1558,-103 1558,-73 1424,-73"/>
<text text-anchor="start" x="1432" y="-91" font-family="Helvetica,sans-Serif" font-size="10.00">Framework/include/Quality</text>
<text text-anchor="middle" x="1491" y="-80" font-family="Helvetica,sans-Serif" font-size="10.00">Control/DatabaseFactory.h</text>
</a>
</g>
</g>
<!-- Node1&#45;&gt;Node20 -->
<g id="edge19" class="edge"><title>Node1&#45;&gt;Node20</title>
<path fill="none" stroke="midnightblue" d="M4051.49,-157.351C3655.89,-146.79 1922.34,-100.514 1558.24,-90.795"/>
<polygon fill="midnightblue" stroke="midnightblue" points="4051.61,-160.855 4061.7,-157.623 4051.8,-153.858 4051.61,-160.855"/>
</g>
<!-- Node25 -->
<g id="node25" class="node"><title>Node25</title>
<g id="a_node25"><a xlink:href="DummyDatabase_8h.html" target="_top" xlink:title="Framework/include/Quality\lControl/DummyDatabase.h">
<polygon fill="none" stroke="black" points="1057,-73 1057,-103 1193,-103 1193,-73 1057,-73"/>
<text text-anchor="start" x="1065" y="-91" font-family="Helvetica,sans-Serif" font-size="10.00">Framework/include/Quality</text>
<text text-anchor="middle" x="1125" y="-80" font-family="Helvetica,sans-Serif" font-size="10.00">Control/DummyDatabase.h</text>
</a>
</g>
</g>
<!-- Node1&#45;&gt;Node25 -->
<g id="edge29" class="edge"><title>Node1&#45;&gt;Node25</title>
<path fill="none" stroke="midnightblue" d="M4051.56,-159.481C3723.69,-159.092 2456.24,-154.552 1415,-109 1338.99,-105.675 1251.94,-99.3306 1193.21,-94.6759"/>
<polygon fill="midnightblue" stroke="midnightblue" points="4051.9,-162.981 4061.9,-159.492 4051.91,-155.981 4051.9,-162.981"/>
</g>
<!-- Node27 -->
<g id="node27" class="node"><title>Node27</title>
<g id="a_node27"><a xlink:href="MySqlDatabase_8h.html" target="_top" xlink:title="Framework/include/Quality\lControl/MySqlDatabase.h">
<polygon fill="none" stroke="black" points="4141.5,-73 4141.5,-103 4274.5,-103 4274.5,-73 4141.5,-73"/>
<text text-anchor="start" x="4149.5" y="-91" font-family="Helvetica,sans-Serif" font-size="10.00">Framework/include/Quality</text>
<text text-anchor="middle" x="4208" y="-80" font-family="Helvetica,sans-Serif" font-size="10.00">Control/MySqlDatabase.h</text>
</a>
</g>
</g>
<!-- Node1&#45;&gt;Node27 -->
<g id="edge33" class="edge"><title>Node1&#45;&gt;Node27</title>
<path fill="none" stroke="midnightblue" d="M4155.03,-138.139C4167.31,-126.743 4182.08,-113.041 4192.9,-103.005"/>
<polygon fill="midnightblue" stroke="midnightblue" points="4152.33,-135.866 4147.38,-145.233 4157.09,-140.998 4152.33,-135.866"/>
</g>
<!-- Node29 -->
<g id="node29" class="node"><title>Node29</title>
<g id="a_node29"><a xlink:href="PostProcessingRunner_8h.html" target="_top" xlink:title="Framework/include/Quality\lControl/PostProcessingRunner.h">
<polygon fill="none" stroke="black" points="3813,-73 3813,-103 3973,-103 3973,-73 3813,-73"/>
<text text-anchor="start" x="3821" y="-91" font-family="Helvetica,sans-Serif" font-size="10.00">Framework/include/Quality</text>
<text text-anchor="middle" x="3893" y="-80" font-family="Helvetica,sans-Serif" font-size="10.00">Control/PostProcessingRunner.h</text>
</a>
</g>
</g>
<!-- Node1&#45;&gt;Node29 -->
<g id="edge35" class="edge"><title>Node1&#45;&gt;Node29</title>
<path fill="none" stroke="midnightblue" d="M4074.67,-142.589C4033.77,-130.523 3979.39,-114.484 3940.82,-103.107"/>
<polygon fill="midnightblue" stroke="midnightblue" points="4073.91,-146.015 4084.5,-145.487 4075.89,-139.301 4073.91,-146.015"/>
</g>
<!-- Node34 -->
<g id="node34" class="node"><title>Node34</title>
<g id="a_node34"><a xlink:href="RepositoryBenchmark_8h.html" target="_top" xlink:title="Framework/src/Repository\lBenchmark.h">
<polygon fill="none" stroke="black" points="3991,-73 3991,-103 4123,-103 4123,-73 3991,-73"/>
<text text-anchor="start" x="3999" y="-91" font-family="Helvetica,sans-Serif" font-size="10.00">Framework/src/Repository</text>
<text text-anchor="middle" x="4057" y="-80" font-family="Helvetica,sans-Serif" font-size="10.00">Benchmark.h</text>
</a>
</g>
</g>
<!-- Node1&#45;&gt;Node34 -->
<g id="edge41" class="edge"><title>Node1&#45;&gt;Node34</title>
<path fill="none" stroke="midnightblue" d="M4109.28,-138.139C4097.15,-126.743 4082.58,-113.041 4071.9,-103.005"/>
<polygon fill="midnightblue" stroke="midnightblue" points="4107.14,-140.934 4116.82,-145.233 4111.93,-135.834 4107.14,-140.934"/>
</g>
<!-- Node36 -->
<g id="node36" class="node"><title>Node36</title>
<g id="a_node36"><a xlink:href="TrendingTask_8cxx.html" target="_top" xlink:title="Framework/src/TrendingTask.cxx">
<polygon fill="none" stroke="black" points="4292.5,-78.5 4292.5,-97.5 4455.5,-97.5 4455.5,-78.5 4292.5,-78.5"/>
<text text-anchor="middle" x="4374" y="-85.5" font-family="Helvetica,sans-Serif" font-size="10.00">Framework/src/TrendingTask.cxx</text>
</a>
</g>
</g>
<!-- Node1&#45;&gt;Node36 -->
<g id="edge44" class="edge"><title>Node1&#45;&gt;Node36</title>
<path fill="none" stroke="midnightblue" d="M4189.89,-142.635C4238.65,-128.432 4306.38,-108.699 4344.63,-97.555"/>
<polygon fill="midnightblue" stroke="midnightblue" points="4188.72,-139.33 4180.1,-145.487 4190.68,-146.05 4188.72,-139.33"/>
</g>
<!-- Node37 -->
<g id="node37" class="node"><title>Node37</title>
<g id="a_node37"><a xlink:href="TreeReaderPostProcessing_8h.html" target="_top" xlink:title="Modules/FT0/include\l/FT0/TreeReaderPostProcessing.h">
<polygon fill="none" stroke="black" points="4474,-73 4474,-103 4642,-103 4642,-73 4474,-73"/>
<text text-anchor="start" x="4482" y="-91" font-family="Helvetica,sans-Serif" font-size="10.00">Modules/FT0/include</text>
<text text-anchor="middle" x="4558" y="-80" font-family="Helvetica,sans-Serif" font-size="10.00">/FT0/TreeReaderPostProcessing.h</text>
</a>
</g>
</g>
<!-- Node1&#45;&gt;Node37 -->
<g id="edge45" class="edge"><title>Node1&#45;&gt;Node37</title>
<path fill="none" stroke="midnightblue" d="M4212.27,-148.636C4279.65,-139.194 4378.35,-124.612 4464,-109 4473.93,-107.19 4484.42,-105.118 4494.64,-103.01"/>
<polygon fill="midnightblue" stroke="midnightblue" points="4211.57,-145.2 4202.15,-150.048 4212.54,-152.132 4211.57,-145.2"/>
</g>
<!-- Node39 -->
<g id="node39" class="node"><title>Node39</title>
<g id="a_node39"><a xlink:href="TrendingTaskITSFhr_8cxx.html" target="_top" xlink:title="Modules/ITS/src/Trending\lTaskITSFhr.cxx">
<polygon fill="none" stroke="black" points="4660.5,-73 4660.5,-103 4789.5,-103 4789.5,-73 4660.5,-73"/>
<text text-anchor="start" x="4668.5" y="-91" font-family="Helvetica,sans-Serif" font-size="10.00">Modules/ITS/src/Trending</text>
<text text-anchor="middle" x="4725" y="-80" font-family="Helvetica,sans-Serif" font-size="10.00">TaskITSFhr.cxx</text>
</a>
</g>
</g>
<!-- Node1&#45;&gt;Node39 -->
<g id="edge47" class="edge"><title>Node1&#45;&gt;Node39</title>
<path fill="none" stroke="midnightblue" d="M4212.46,-155.841C4314.98,-150.227 4497.31,-137.044 4651,-109 4659.64,-107.423 4668.74,-105.33 4677.5,-103.092"/>
<polygon fill="midnightblue" stroke="midnightblue" points="4211.99,-152.361 4202.19,-156.393 4212.36,-159.351 4211.99,-152.361"/>
</g>
<!-- Node40 -->
<g id="node40" class="node"><title>Node40</title>
<g id="a_node40"><a xlink:href="TrendingTaskITSThr_8cxx.html" target="_top" xlink:title="Modules/ITS/src/Trending\lTaskITSThr.cxx">
<polygon fill="none" stroke="black" points="4807.5,-73 4807.5,-103 4936.5,-103 4936.5,-73 4807.5,-73"/>
<text text-anchor="start" x="4815.5" y="-91" font-family="Helvetica,sans-Serif" font-size="10.00">Modules/ITS/src/Trending</text>
<text text-anchor="middle" x="4872" y="-80" font-family="Helvetica,sans-Serif" font-size="10.00">TaskITSThr.cxx</text>
</a>
</g>
</g>
<!-- Node1&#45;&gt;Node40 -->
<g id="edge48" class="edge"><title>Node1&#45;&gt;Node40</title>
<path fill="none" stroke="midnightblue" d="M4212.35,-158.277C4338.11,-155.271 4588.73,-144.884 4798,-109 4806.92,-107.471 4816.32,-105.343 4825.32,-103.042"/>
<polygon fill="midnightblue" stroke="midnightblue" points="4211.96,-154.784 4202.04,-158.513 4212.12,-161.783 4211.96,-154.784"/>
</g>
<!-- Node41 -->
<g id="node41" class="node"><title>Node41</title>
<g id="a_node41"><a xlink:href="PostProcessDiagnosticPerCrate_8h.html" target="_top" xlink:title="Post processing to rearrange TOF information at the level of the crate (maybe we should do the opposi...">
<polygon fill="none" stroke="black" points="5017.5,-67.5 5017.5,-108.5 5162.5,-108.5 5162.5,-67.5 5017.5,-67.5"/>
<text text-anchor="start" x="5025.5" y="-96.5" font-family="Helvetica,sans-Serif" font-size="10.00">Modules/TOF/include</text>
<text text-anchor="start" x="5025.5" y="-85.5" font-family="Helvetica,sans-Serif" font-size="10.00">/TOF/PostProcessDiagnostic</text>
<text text-anchor="middle" x="5090" y="-74.5" font-family="Helvetica,sans-Serif" font-size="10.00">PerCrate.h</text>
</a>
</g>
</g>
<!-- Node1&#45;&gt;Node41 -->
<g id="edge49" class="edge"><title>Node1&#45;&gt;Node41</title>
<path fill="none" stroke="midnightblue" d="M4212.23,-156.514C4358.27,-150.635 4677.2,-135.748 4945,-109 4968.64,-106.639 4994.36,-103.334 5017.48,-100.091"/>
<polygon fill="midnightblue" stroke="midnightblue" points="4211.87,-153.026 4202.01,-156.922 4212.15,-160.02 4211.87,-153.026"/>
</g>
<!-- Node3 -->
<g id="node3" class="node"><title>Node3</title>
<g id="a_node3"><a xlink:href="CcdbDatabase_8cxx.html" target="_top" xlink:title="Framework/src/CcdbDatabase.cxx">
<polygon fill="none" stroke="black" points="206.5,-6 206.5,-25 375.5,-25 375.5,-6 206.5,-6"/>
<text text-anchor="middle" x="291" y="-13" font-family="Helvetica,sans-Serif" font-size="10.00">Framework/src/CcdbDatabase.cxx</text>
</a>
</g>
</g>
<!-- Node2&#45;&gt;Node3 -->
<g id="edge2" class="edge"><title>Node2&#45;&gt;Node3</title>
<path fill="none" stroke="midnightblue" d="M781.37,-78.7667C687.733,-68.5127 524.53,-50.0153 385,-31 371.747,-29.1939 357.471,-27.0791 344.144,-25.0318"/>
<polygon fill="midnightblue" stroke="midnightblue" points="781.003,-82.2474 791.324,-79.8544 781.763,-75.2888 781.003,-82.2474"/>
</g>
<!-- Node4 -->
<g id="node4" class="node"><title>Node4</title>
<g id="a_node4"><a xlink:href="DatabaseFactory_8cxx.html" target="_top" xlink:title="Framework/src/DatabaseFactory.cxx">
<polygon fill="none" stroke="black" points="768.5,-6 768.5,-25 947.5,-25 947.5,-6 768.5,-6"/>
<text text-anchor="middle" x="858" y="-13" font-family="Helvetica,sans-Serif" font-size="10.00">Framework/src/DatabaseFactory.cxx</text>
</a>
</g>
</g>
<!-- Node2&#45;&gt;Node4 -->
<g id="edge3" class="edge"><title>Node2&#45;&gt;Node4</title>
<path fill="none" stroke="midnightblue" d="M858,-62.5913C858,-49.7136 858,-34.6974 858,-25.3932"/>
<polygon fill="midnightblue" stroke="midnightblue" points="854.5,-62.7332 858,-72.7333 861.5,-62.7333 854.5,-62.7332"/>
</g>
<!-- Node5 -->
<g id="node5" class="node"><title>Node5</title>
<g id="a_node5"><a xlink:href="testCcdbDatabase_8cxx.html" target="_top" xlink:title="Framework/test/testCcdbDatabase.cxx">
<polygon fill="none" stroke="black" points="0,-6 0,-25 188,-25 188,-6 0,-6"/>
<text text-anchor="middle" x="94" y="-13" font-family="Helvetica,sans-Serif" font-size="10.00">Framework/test/testCcdbDatabase.cxx</text>
</a>
</g>
</g>
<!-- Node2&#45;&gt;Node5 -->
<g id="edge4" class="edge"><title>Node2&#45;&gt;Node5</title>
<path fill="none" stroke="midnightblue" d="M781.164,-81.8767C657.786,-73.3385 407.941,-54.7649 197,-31 181.837,-29.2917 165.462,-27.1313 150.327,-25.0035"/>
<polygon fill="midnightblue" stroke="midnightblue" points="781.049,-85.377 791.266,-82.5729 781.53,-78.3936 781.049,-85.377"/>
</g>
<!-- Node6 -->
<g id="node6" class="node"><title>Node6</title>
<g id="a_node6"><a xlink:href="testCcdbDatabaseExtra_8cxx.html" target="_top" xlink:title="Framework/test/testCcdbDatabase\lExtra.cxx">
<polygon fill="none" stroke="black" points="966,-0.5 966,-30.5 1136,-30.5 1136,-0.5 966,-0.5"/>
<text text-anchor="start" x="974" y="-18.5" font-family="Helvetica,sans-Serif" font-size="10.00">Framework/test/testCcdbDatabase</text>
<text text-anchor="middle" x="1051" y="-7.5" font-family="Helvetica,sans-Serif" font-size="10.00">Extra.cxx</text>
</a>
</g>
</g>
<!-- Node2&#45;&gt;Node6 -->
<g id="edge5" class="edge"><title>Node2&#45;&gt;Node6</title>
<path fill="none" stroke="midnightblue" d="M906.005,-69.4645C938.862,-57.4622 981.855,-41.7576 1012.47,-30.5729"/>
<polygon fill="midnightblue" stroke="midnightblue" points="904.785,-66.184 896.593,-72.9027 907.186,-72.7591 904.785,-66.184"/>
</g>
<!-- Node7 -->
<g id="node7" class="node"><title>Node7</title>
<g id="a_node7"><a xlink:href="testDbFactory_8cxx.html" target="_top" xlink:title="Framework/test/testDbFactory.cxx">
<polygon fill="none" stroke="black" points="1154.5,-6 1154.5,-25 1323.5,-25 1323.5,-6 1154.5,-6"/>
<text text-anchor="middle" x="1239" y="-13" font-family="Helvetica,sans-Serif" font-size="10.00">Framework/test/testDbFactory.cxx</text>
</a>
</g>
</g>
<!-- Node2&#45;&gt;Node7 -->
<g id="edge6" class="edge"><title>Node2&#45;&gt;Node7</title>
<path fill="none" stroke="midnightblue" d="M934.973,-72.7569C1012.32,-58.4449 1128.97,-36.8596 1192.96,-25.0194"/>
<polygon fill="midnightblue" stroke="midnightblue" points="933.997,-69.378 924.801,-74.6392 935.271,-76.2612 933.997,-69.378"/>
</g>
<!-- Node8 -->
<g id="node8" class="node"><title>Node8</title>
<g id="a_node8"><a xlink:href="testTriggers_8cxx.html" target="_top" xlink:title="Framework/test/testTriggers.cxx">
<polygon fill="none" stroke="black" points="592,-6 592,-25 750,-25 750,-6 592,-6"/>
<text text-anchor="middle" x="671" y="-13" font-family="Helvetica,sans-Serif" font-size="10.00">Framework/test/testTriggers.cxx</text>
</a>
</g>
</g>
<!-- Node2&#45;&gt;Node8 -->
<g id="edge7" class="edge"><title>Node2&#45;&gt;Node8</title>
<path fill="none" stroke="midnightblue" d="M810.9,-69.2429C773.403,-55.1065 722.57,-35.9423 693.635,-25.0336"/>
<polygon fill="midnightblue" stroke="midnightblue" points="810.015,-72.65 820.607,-72.9027 812.485,-66.1 810.015,-72.65"/>
</g>
<!-- Node10 -->
<g id="node10" class="node"><title>Node10</title>
<g id="a_node10"><a xlink:href="CheckRunner_8cxx.html" target="_top" xlink:title="Framework/src/CheckRunner.cxx">
<polygon fill="none" stroke="black" points="1652,-6 1652,-25 1816,-25 1816,-6 1652,-6"/>
<text text-anchor="middle" x="1734" y="-13" font-family="Helvetica,sans-Serif" font-size="10.00">Framework/src/CheckRunner.cxx</text>
</a>
</g>
</g>
<!-- Node9&#45;&gt;Node10 -->
<g id="edge9" class="edge"><title>Node9&#45;&gt;Node10</title>
<path fill="none" stroke="midnightblue" d="M2613.23,-84.4376C2462,-78.8578 2115.02,-63.4221 1825,-31 1811.01,-29.4359 1795.88,-27.2337 1782.06,-25.017"/>
<polygon fill="midnightblue" stroke="midnightblue" points="2613.22,-87.9394 2623.34,-84.8067 2613.48,-80.9441 2613.22,-87.9394"/>
</g>
<!-- Node11 -->
<g id="node11" class="node"><title>Node11</title>
<g id="a_node11"><a xlink:href="CheckRunnerFactory_8cxx.html" target="_top" xlink:title="Framework/src/CheckRunner\lFactory.cxx">
<polygon fill="none" stroke="black" points="2294.5,-0.5 2294.5,-30.5 2439.5,-30.5 2439.5,-0.5 2294.5,-0.5"/>
<text text-anchor="start" x="2302.5" y="-18.5" font-family="Helvetica,sans-Serif" font-size="10.00">Framework/src/CheckRunner</text>
<text text-anchor="middle" x="2367" y="-7.5" font-family="Helvetica,sans-Serif" font-size="10.00">Factory.cxx</text>
</a>
</g>
</g>
<!-- Node9&#45;&gt;Node11 -->
<g id="edge10" class="edge"><title>Node9&#45;&gt;Node11</title>
<path fill="none" stroke="midnightblue" d="M2615.98,-70.8448C2560.25,-58.6789 2484.59,-42.1667 2431.36,-30.5465"/>
<polygon fill="midnightblue" stroke="midnightblue" points="2615.28,-74.2741 2625.8,-72.9872 2616.78,-67.4351 2615.28,-74.2741"/>
</g>
<!-- Node12 -->
<g id="node12" class="node"><title>Node12</title>
<g id="a_node12"><a xlink:href="InfrastructureGenerator_8cxx.html" target="_top" xlink:title="Framework/src/Infrastructure\lGenerator.cxx">
<polygon fill="none" stroke="black" points="2457.5,-0.5 2457.5,-30.5 2600.5,-30.5 2600.5,-0.5 2457.5,-0.5"/>
<text text-anchor="start" x="2465.5" y="-18.5" font-family="Helvetica,sans-Serif" font-size="10.00">Framework/src/Infrastructure</text>
<text text-anchor="middle" x="2529" y="-7.5" font-family="Helvetica,sans-Serif" font-size="10.00">Generator.cxx</text>
</a>
</g>
</g>
<!-- Node9&#45;&gt;Node12 -->
<g id="edge11" class="edge"><title>Node9&#45;&gt;Node12</title>
<path fill="none" stroke="midnightblue" d="M2648.54,-68.8431C2621.32,-56.9243 2586.24,-41.5655 2561.14,-30.5729"/>
<polygon fill="midnightblue" stroke="midnightblue" points="2647.24,-72.0976 2657.81,-72.9027 2650.05,-65.6854 2647.24,-72.0976"/>
</g>
<!-- Node13 -->
<g id="node13" class="node"><title>Node13</title>
<g id="a_node13"><a xlink:href="runBasic_8cxx.html" target="_top" xlink:title="This is an executable showing QC Task&#39;s usage in Data Processing Layer. ">
<polygon fill="none" stroke="black" points="2619,-6 2619,-25 2761,-25 2761,-6 2619,-6"/>
<text text-anchor="middle" x="2690" y="-13" font-family="Helvetica,sans-Serif" font-size="10.00">Framework/src/runBasic.cxx</text>
</a>
</g>
</g>
<!-- Node9&#45;&gt;Node13 -->
<g id="edge12" class="edge"><title>Node9&#45;&gt;Node13</title>
<path fill="none" stroke="midnightblue" d="M2690,-62.5913C2690,-49.7136 2690,-34.6974 2690,-25.3932"/>
<polygon fill="midnightblue" stroke="midnightblue" points="2686.5,-62.7332 2690,-72.7333 2693.5,-62.7333 2686.5,-62.7332"/>
</g>
<!-- Node14 -->
<g id="node14" class="node"><title>Node14</title>
<g id="a_node14"><a xlink:href="testCheckRunner_8cxx.html" target="_top" xlink:title="Framework/test/testCheck\lRunner.cxx">
<polygon fill="none" stroke="black" points="2779.5,-0.5 2779.5,-30.5 2912.5,-30.5 2912.5,-0.5 2779.5,-0.5"/>
<text text-anchor="start" x="2787.5" y="-18.5" font-family="Helvetica,sans-Serif" font-size="10.00">Framework/test/testCheck</text>
<text text-anchor="middle" x="2846" y="-7.5" font-family="Helvetica,sans-Serif" font-size="10.00">Runner.cxx</text>
</a>
</g>
</g>
<!-- Node9&#45;&gt;Node14 -->
<g id="edge13" class="edge"><title>Node9&#45;&gt;Node14</title>
<path fill="none" stroke="midnightblue" d="M2730.52,-68.6868C2756.85,-56.7903 2790.64,-41.5175 2814.86,-30.5729"/>
<polygon fill="midnightblue" stroke="midnightblue" points="2728.87,-65.595 2721.19,-72.9027 2731.75,-71.9739 2728.87,-65.595"/>
</g>
<!-- Node15 -->
<g id="node15" class="node"><title>Node15</title>
<g id="a_node15"><a xlink:href="testCheckWorkflow_8cxx.html" target="_top" xlink:title="Framework/test/testCheck\lWorkflow.cxx">
<polygon fill="none" stroke="black" points="3103.5,-0.5 3103.5,-30.5 3236.5,-30.5 3236.5,-0.5 3103.5,-0.5"/>
<text text-anchor="start" x="3111.5" y="-18.5" font-family="Helvetica,sans-Serif" font-size="10.00">Framework/test/testCheck</text>
<text text-anchor="middle" x="3170" y="-7.5" font-family="Helvetica,sans-Serif" font-size="10.00">Workflow.cxx</text>
</a>
</g>
</g>
<!-- Node9&#45;&gt;Node15 -->
<g id="edge14" class="edge"><title>Node9&#45;&gt;Node15</title>
<path fill="none" stroke="midnightblue" d="M2766.8,-77.5338C2848.2,-67.2249 2980.43,-49.693 3094,-31 3097.05,-30.4982 3100.16,-29.9696 3103.31,-29.423"/>
<polygon fill="midnightblue" stroke="midnightblue" points="2766.12,-74.0915 2756.64,-78.8164 2767,-81.0363 2766.12,-74.0915"/>
</g>
<!-- Node16 -->
<g id="node16" class="node"><title>Node16</title>
<g id="a_node16"><a xlink:href="testWorkflow_8cxx.html" target="_top" xlink:title="Framework/test/testWorkflow.cxx">
<polygon fill="none" stroke="black" points="3405,-6 3405,-25 3569,-25 3569,-6 3405,-6"/>
<text text-anchor="middle" x="3487" y="-13" font-family="Helvetica,sans-Serif" font-size="10.00">Framework/test/testWorkflow.cxx</text>
</a>
</g>
</g>
<!-- Node9&#45;&gt;Node16 -->
<g id="edge15" class="edge"><title>Node9&#45;&gt;Node16</title>
<path fill="none" stroke="midnightblue" d="M2767.1,-82.8804C2897.1,-75.4872 3168.06,-58.1569 3396,-31 3409.66,-29.3723 3424.41,-27.2019 3437.98,-25.037"/>
<polygon fill="midnightblue" stroke="midnightblue" points="2766.64,-79.4008 2756.85,-83.4591 2767.03,-86.3896 2766.64,-79.4008"/>
</g>
<!-- Node17 -->
<g id="node17" class="node"><title>Node17</title>
<polygon fill="none" stroke="#bfbfbf" points="1834,-6 1834,-25 2052,-25 2052,-6 1834,-6"/>
<text text-anchor="middle" x="1943" y="-13" font-family="Helvetica,sans-Serif" font-size="10.00">Modules/EMCAL/src/runQCEMCALDigits.cxx</text>
</g>
<!-- Node9&#45;&gt;Node17 -->
<g id="edge16" class="edge"><title>Node9&#45;&gt;Node17</title>
<path fill="none" stroke="midnightblue" d="M2613.3,-81.0037C2494.74,-71.5477 2259.89,-52.0681 2061,-31 2044.17,-29.2172 2026.01,-27.0888 2009.11,-25.0191"/>
<polygon fill="midnightblue" stroke="midnightblue" points="2613.12,-84.5003 2623.36,-81.8047 2613.67,-77.5224 2613.12,-84.5003"/>
</g>
<!-- Node18 -->
<g id="node18" class="node"><title>Node18</title>
<polygon fill="none" stroke="#bfbfbf" points="2070,-6 2070,-25 2276,-25 2276,-6 2070,-6"/>
<text text-anchor="middle" x="2173" y="-13" font-family="Helvetica,sans-Serif" font-size="10.00">Modules/PHOS/src/runQCPHOSDigits.cxx</text>
</g>
<!-- Node9&#45;&gt;Node18 -->
<g id="edge17" class="edge"><title>Node9&#45;&gt;Node18</title>
<path fill="none" stroke="midnightblue" d="M2613.48,-76.5659C2510.87,-62.5736 2330.63,-37.9945 2235.64,-25.0417"/>
<polygon fill="midnightblue" stroke="midnightblue" points="2613.09,-80.0444 2623.47,-77.9277 2614.03,-73.1086 2613.09,-80.0444"/>
</g>
<!-- Node19 -->
<g id="node19" class="node"><title>Node19</title>
<polygon fill="none" stroke="#bfbfbf" points="3587,-0.5 3587,-30.5 3757,-30.5 3757,-0.5 3587,-0.5"/>
<text text-anchor="start" x="3595" y="-18.5" font-family="Helvetica,sans-Serif" font-size="10.00">Modules/TPC/run/runTPCQCTrack</text>
<text text-anchor="middle" x="3672" y="-7.5" font-family="Helvetica,sans-Serif" font-size="10.00">Reader.cxx</text>
</g>
<!-- Node9&#45;&gt;Node19 -->
<g id="edge18" class="edge"><title>Node9&#45;&gt;Node19</title>
<path fill="none" stroke="midnightblue" d="M2767.04,-84.4781C2921.33,-78.9122 3279.07,-63.4152 3578,-31 3580.95,-30.6796 3583.96,-30.3325 3586.99,-29.9642"/>
<polygon fill="midnightblue" stroke="midnightblue" points="2766.6,-80.9915 2756.73,-84.8461 2766.85,-87.9871 2766.6,-80.9915"/>
</g>
<!-- Node20&#45;&gt;Node4 -->
<g id="edge22" class="edge"><title>Node20&#45;&gt;Node4</title>
<path fill="none" stroke="midnightblue" d="M1413.79,-79.9037C1309.85,-70.1222 1119.24,-51.3789 957,-31 942.867,-29.2247 927.63,-27.099 913.448,-25.0295"/>
<polygon fill="midnightblue" stroke="midnightblue" points="1413.6,-83.4009 1423.88,-80.8507 1414.25,-76.4315 1413.6,-83.4009"/>
</g>
<!-- Node20&#45;&gt;Node6 -->
<g id="edge25" class="edge"><title>Node20&#45;&gt;Node6</title>
<path fill="none" stroke="midnightblue" d="M1413.48,-74.5795C1335.74,-62.1227 1216.33,-42.991 1136.03,-30.1242"/>
<polygon fill="midnightblue" stroke="midnightblue" points="1413.27,-78.0896 1423.69,-76.2158 1414.37,-71.1777 1413.27,-78.0896"/>
</g>
<!-- Node20&#45;&gt;Node7 -->
<g id="edge26" class="edge"><title>Node20&#45;&gt;Node7</title>
<path fill="none" stroke="midnightblue" d="M1431.03,-70.2239C1380.24,-56.0143 1309.5,-36.2221 1269.58,-25.055"/>
<polygon fill="midnightblue" stroke="midnightblue" points="1430.34,-73.6635 1440.91,-72.9872 1432.22,-66.9223 1430.34,-73.6635"/>
</g>
<!-- Node20&#45;&gt;Node8 -->
<g id="edge28" class="edge"><title>Node20&#45;&gt;Node8</title>
<path fill="none" stroke="midnightblue" d="M1413.59,-81.4616C1238.58,-68.8845 822.663,-38.6654 759,-31 745.626,-29.3896 731.178,-27.1992 717.932,-25.0089"/>
<polygon fill="midnightblue" stroke="midnightblue" points="1413.53,-84.9664 1423.76,-82.1919 1414.04,-77.9844 1413.53,-84.9664"/>
</g>
<!-- Node20&#45;&gt;Node10 -->
<g id="edge21" class="edge"><title>Node20&#45;&gt;Node10</title>
<path fill="none" stroke="midnightblue" d="M1549.13,-70.135C1598.09,-55.9319 1666.1,-36.1988 1704.51,-25.055"/>
<polygon fill="midnightblue" stroke="midnightblue" points="1547.93,-66.8394 1539.3,-72.9872 1549.88,-73.5622 1547.93,-66.8394"/>
</g>
<!-- Node21 -->
<g id="node21" class="node"><title>Node21</title>
<g id="a_node21"><a xlink:href="AggregatorRunner_8cxx.html" target="_top" xlink:title="Framework/src/Aggregator\lRunner.cxx">
<polygon fill="none" stroke="black" points="1502,-0.5 1502,-30.5 1634,-30.5 1634,-0.5 1502,-0.5"/>
<text text-anchor="start" x="1510" y="-18.5" font-family="Helvetica,sans-Serif" font-size="10.00">Framework/src/Aggregator</text>
<text text-anchor="middle" x="1568" y="-7.5" font-family="Helvetica,sans-Serif" font-size="10.00">Runner.cxx</text>
</a>
</g>
</g>
<!-- Node20&#45;&gt;Node21 -->
<g id="edge20" class="edge"><title>Node20&#45;&gt;Node21</title>
<path fill="none" stroke="midnightblue" d="M1513.98,-65.964C1526.49,-54.5043 1541.64,-40.637 1552.7,-30.5049"/>
<polygon fill="midnightblue" stroke="midnightblue" points="1511.59,-63.3989 1506.58,-72.7333 1516.32,-68.5618 1511.59,-63.3989"/>
</g>
<!-- Node22 -->
<g id="node22" class="node"><title>Node22</title>
<polygon fill="none" stroke="#bfbfbf" points="2931,-0.5 2931,-30.5 3085,-30.5 3085,-0.5 2931,-0.5"/>
<text text-anchor="start" x="2939" y="-18.5" font-family="Helvetica,sans-Serif" font-size="10.00">Framework/src/PostProcessing</text>
<text text-anchor="middle" x="3008" y="-7.5" font-family="Helvetica,sans-Serif" font-size="10.00">Runner.cxx</text>
</g>
<!-- Node20&#45;&gt;Node22 -->
<g id="edge23" class="edge"><title>Node20&#45;&gt;Node22</title>
<path fill="none" stroke="midnightblue" d="M1568.46,-87.3893C1783.64,-87.733 2406.68,-83.7184 2921,-31 2924.2,-30.6721 2927.46,-30.3004 2930.75,-29.8944"/>
<polygon fill="midnightblue" stroke="midnightblue" points="1568.23,-83.8889 1558.22,-87.3691 1568.21,-90.8889 1568.23,-83.8889"/>
</g>
<!-- Node23 -->
<g id="node23" class="node"><title>Node23</title>
<g id="a_node23"><a xlink:href="RepositoryBenchmark_8cxx.html" target="_top" xlink:title="Framework/src/Repository\lBenchmark.cxx">
<polygon fill="none" stroke="black" points="3255,-0.5 3255,-30.5 3387,-30.5 3387,-0.5 3255,-0.5"/>
<text text-anchor="start" x="3263" y="-18.5" font-family="Helvetica,sans-Serif" font-size="10.00">Framework/src/Repository</text>
<text text-anchor="middle" x="3321" y="-7.5" font-family="Helvetica,sans-Serif" font-size="10.00">Benchmark.cxx</text>
</a>
</g>
</g>
<!-- Node20&#45;&gt;Node23 -->
<g id="edge24" class="edge"><title>Node20&#45;&gt;Node23</title>
<path fill="none" stroke="midnightblue" d="M1568.44,-86.1417C1862.89,-82.6272 2913,-67.7424 3245,-31 3248.2,-30.6454 3251.48,-30.2298 3254.77,-29.7679"/>
<polygon fill="midnightblue" stroke="midnightblue" points="1568.24,-82.6437 1558.28,-86.2619 1568.32,-89.6432 1568.24,-82.6437"/>
</g>
<!-- Node24 -->
<g id="node24" class="node"><title>Node24</title>
<g id="a_node24"><a xlink:href="testTrendingTask_8cxx.html" target="_top" xlink:title="Framework/test/testTrending\lTask.cxx">
<polygon fill="none" stroke="black" points="1342,-0.5 1342,-30.5 1484,-30.5 1484,-0.5 1342,-0.5"/>
<text text-anchor="start" x="1350" y="-18.5" font-family="Helvetica,sans-Serif" font-size="10.00">Framework/test/testTrending</text>
<text text-anchor="middle" x="1413" y="-7.5" font-family="Helvetica,sans-Serif" font-size="10.00">Task.cxx</text>
</a>
</g>
</g>
<!-- Node20&#45;&gt;Node24 -->
<g id="edge27" class="edge"><title>Node20&#45;&gt;Node24</title>
<path fill="none" stroke="midnightblue" d="M1467.73,-65.964C1455.05,-54.5043 1439.7,-40.637 1428.49,-30.5049"/>
<polygon fill="midnightblue" stroke="midnightblue" points="1465.45,-68.6244 1475.22,-72.7333 1470.14,-63.4313 1465.45,-68.6244"/>
</g>
<!-- Node25&#45;&gt;Node4 -->
<g id="edge30" class="edge"><title>Node25&#45;&gt;Node4</title>
<path fill="none" stroke="midnightblue" d="M1062.14,-70.4012C1008.28,-56.1794 932.868,-36.2686 890.4,-25.055"/>
<polygon fill="midnightblue" stroke="midnightblue" points="1061.37,-73.8182 1071.93,-72.9872 1063.16,-67.0501 1061.37,-73.8182"/>
</g>
<!-- Node25&#45;&gt;Node7 -->
<g id="edge32" class="edge"><title>Node25&#45;&gt;Node7</title>
<path fill="none" stroke="midnightblue" d="M1156.37,-67.5973C1178.93,-53.6507 1208.24,-35.5245 1225.2,-25.0336"/>
<polygon fill="midnightblue" stroke="midnightblue" points="1154.46,-64.6662 1147.8,-72.9027 1158.14,-70.6197 1154.46,-64.6662"/>
</g>
<!-- Node26 -->
<g id="node26" class="node"><title>Node26</title>
<g id="a_node26"><a xlink:href="DummyDatabase_8cxx.html" target="_top" xlink:title="Framework/src/DummyDatabase.cxx">
<polygon fill="none" stroke="black" points="394,-6 394,-25 574,-25 574,-6 394,-6"/>
<text text-anchor="middle" x="484" y="-13" font-family="Helvetica,sans-Serif" font-size="10.00">Framework/src/DummyDatabase.cxx</text>
</a>
</g>
</g>
<!-- Node25&#45;&gt;Node26 -->
<g id="edge31" class="edge"><title>Node25&#45;&gt;Node26</title>
<path fill="none" stroke="midnightblue" d="M1046.49,-78.7983C1011.72,-75.172 970.319,-70.863 933,-67 777.455,-50.8992 738.176,-50.3354 583,-31 568.779,-29.228 553.442,-27.0922 539.186,-25.0112"/>
<polygon fill="midnightblue" stroke="midnightblue" points="1046.27,-82.2946 1056.58,-79.8511 1047,-75.3324 1046.27,-82.2946"/>
</g>
<!-- Node28 -->
<g id="node28" class="node"><title>Node28</title>
<g id="a_node28"><a xlink:href="MySqlDatabase_8cxx.html" target="_top" xlink:title="Framework/src/MySqlDatabase.cxx">
<polygon fill="none" stroke="black" points="4692.5,-6 4692.5,-25 4865.5,-25 4865.5,-6 4692.5,-6"/>
<text text-anchor="middle" x="4779" y="-13" font-family="Helvetica,sans-Serif" font-size="10.00">Framework/src/MySqlDatabase.cxx</text>
</a>
</g>
</g>
<!-- Node27&#45;&gt;Node28 -->
<g id="edge34" class="edge"><title>Node27&#45;&gt;Node28</title>
<path fill="none" stroke="midnightblue" d="M4265.54,-70.5933C4271.41,-69.2404 4277.3,-68.0081 4283,-67 4458.76,-35.8906 4505.78,-52.3387 4683,-31 4697.06,-29.3074 4712.23,-27.1644 4726.26,-25.0488"/>
<polygon fill="midnightblue" stroke="midnightblue" points="4264.64,-67.2121 4255.74,-72.9658 4266.28,-74.0158 4264.64,-67.2121"/>
</g>
<!-- Node29&#45;&gt;Node22 -->
<g id="edge37" class="edge"><title>Node29&#45;&gt;Node22</title>
<path fill="none" stroke="midnightblue" d="M3802.39,-83.5163C3653.95,-77.1666 3349.87,-61.4638 3094,-31 3091.14,-30.6599 3088.24,-30.2904 3085.3,-29.8977"/>
<polygon fill="midnightblue" stroke="midnightblue" points="3802.67,-87.0311 3812.81,-83.9574 3802.96,-80.0374 3802.67,-87.0311"/>
</g>
<!-- Node30 -->
<g id="node30" class="node"><title>Node30</title>
<g id="a_node30"><a xlink:href="PostProcessingDevice_8cxx.html" target="_top" xlink:title="Framework/src/PostProcessing\lDevice.cxx">
<polygon fill="none" stroke="black" points="3967,-0.5 3967,-30.5 4121,-30.5 4121,-0.5 3967,-0.5"/>
<text text-anchor="start" x="3975" y="-18.5" font-family="Helvetica,sans-Serif" font-size="10.00">Framework/src/PostProcessing</text>
<text text-anchor="middle" x="4044" y="-7.5" font-family="Helvetica,sans-Serif" font-size="10.00">Device.cxx</text>
</a>
</g>
</g>
<!-- Node29&#45;&gt;Node30 -->
<g id="edge36" class="edge"><title>Node29&#45;&gt;Node30</title>
<path fill="none" stroke="midnightblue" d="M3932.56,-68.5301C3957.99,-56.6564 3990.52,-41.4695 4013.86,-30.5729"/>
<polygon fill="midnightblue" stroke="midnightblue" points="3930.77,-65.5008 3923.19,-72.9027 3933.74,-71.8435 3930.77,-65.5008"/>
</g>
<!-- Node31 -->
<g id="node31" class="node"><title>Node31</title>
<g id="a_node31"><a xlink:href="runPostProcessing_8cxx.html" target="_top" xlink:title="This is a standalone executable to run postprocessing. ">
<polygon fill="none" stroke="black" points="4139,-6 4139,-25 4325,-25 4325,-6 4139,-6"/>
<text text-anchor="middle" x="4232" y="-13" font-family="Helvetica,sans-Serif" font-size="10.00">Framework/src/runPostProcessing.cxx</text>
</a>
</g>
</g>
<!-- Node29&#45;&gt;Node31 -->
<g id="edge38" class="edge"><title>Node29&#45;&gt;Node31</title>
<path fill="none" stroke="midnightblue" d="M3964.61,-70.7653C3970.49,-69.4758 3976.34,-68.2065 3982,-67 4054.1,-51.6181 4138.17,-34.8828 4188.13,-25.0612"/>
<polygon fill="midnightblue" stroke="midnightblue" points="3963.74,-67.3746 3954.72,-72.9472 3965.24,-74.2102 3963.74,-67.3746"/>
</g>
<!-- Node32 -->
<g id="node32" class="node"><title>Node32</title>
<g id="a_node32"><a xlink:href="runPostProcessingOCC_8cxx.html" target="_top" xlink:title="This is an OCC executable to run postprocessing. ">
<polygon fill="none" stroke="black" points="4342.5,-0.5 4342.5,-30.5 4509.5,-30.5 4509.5,-0.5 4342.5,-0.5"/>
<text text-anchor="start" x="4350.5" y="-18.5" font-family="Helvetica,sans-Serif" font-size="10.00">Framework/src/runPostProcessing</text>
<text text-anchor="middle" x="4426" y="-7.5" font-family="Helvetica,sans-Serif" font-size="10.00">OCC.cxx</text>
</a>
</g>
</g>
<!-- Node29&#45;&gt;Node32 -->
<g id="edge39" class="edge"><title>Node29&#45;&gt;Node32</title>
<path fill="none" stroke="midnightblue" d="M3960.53,-70.9414C3967.76,-69.4879 3975.02,-68.1379 3982,-67 4137.21,-41.7154 4178.05,-51.2492 4334,-31 4336.73,-30.6461 4339.5,-30.2752 4342.29,-29.8912"/>
<polygon fill="midnightblue" stroke="midnightblue" points="3959.81,-67.5162 3950.73,-72.9773 3961.24,-74.3699 3959.81,-67.5162"/>
</g>
<!-- Node33 -->
<g id="node33" class="node"><title>Node33</title>
<g id="a_node33"><a xlink:href="testPostProcessingRunner_8cxx.html" target="_top" xlink:title="Framework/test/testPostProcessing\lRunner.cxx">
<polygon fill="none" stroke="black" points="3775.5,-0.5 3775.5,-30.5 3948.5,-30.5 3948.5,-0.5 3775.5,-0.5"/>
<text text-anchor="start" x="3783.5" y="-18.5" font-family="Helvetica,sans-Serif" font-size="10.00">Framework/test/testPostProcessing</text>
<text text-anchor="middle" x="3862" y="-7.5" font-family="Helvetica,sans-Serif" font-size="10.00">Runner.cxx</text>
</a>
</g>
</g>
<!-- Node29&#45;&gt;Node33 -->
<g id="edge40" class="edge"><title>Node29&#45;&gt;Node33</title>
<path fill="none" stroke="midnightblue" d="M3882.62,-63.3962C3877.86,-52.5756 3872.38,-40.1055 3868.26,-30.7455"/>
<polygon fill="midnightblue" stroke="midnightblue" points="3879.5,-64.988 3886.73,-72.7333 3885.91,-62.1703 3879.5,-64.988"/>
</g>
<!-- Node34&#45;&gt;Node23 -->
<g id="edge42" class="edge"><title>Node34&#45;&gt;Node23</title>
<path fill="none" stroke="midnightblue" d="M4000.01,-70.5435C3993.97,-69.1761 3987.88,-67.9548 3982,-67 3724.44,-25.176 3654.86,-63.8341 3396,-31 3393.11,-30.6329 3390.15,-30.2218 3387.18,-29.7769"/>
<polygon fill="midnightblue" stroke="midnightblue" points="3999.56,-74.0348 4010.1,-72.9613 4001.19,-67.2275 3999.56,-74.0348"/>
</g>
<!-- Node35 -->
<g id="node35" class="node"><title>Node35</title>
<g id="a_node35"><a xlink:href="runRepositoryBenchmark_8cxx.html" target="_top" xlink:title="Framework/src/runRepository\lBenchmark.cxx">
<polygon fill="none" stroke="black" points="4528,-0.5 4528,-30.5 4674,-30.5 4674,-0.5 4528,-0.5"/>
<text text-anchor="start" x="4536" y="-18.5" font-family="Helvetica,sans-Serif" font-size="10.00">Framework/src/runRepository</text>
<text text-anchor="middle" x="4601" y="-7.5" font-family="Helvetica,sans-Serif" font-size="10.00">Benchmark.cxx</text>
</a>
</g>
</g>
<!-- Node34&#45;&gt;Node35 -->
<g id="edge43" class="edge"><title>Node34&#45;&gt;Node35</title>
<path fill="none" stroke="midnightblue" d="M4114.55,-70.6124C4120.41,-69.2557 4126.31,-68.0173 4132,-67 4301.61,-36.696 4347.22,-53.844 4518,-31 4521.19,-30.5733 4524.44,-30.1129 4527.73,-29.6277"/>
<polygon fill="midnightblue" stroke="midnightblue" points="4113.64,-67.2317 4104.74,-72.9894 4115.29,-74.0346 4113.64,-67.2317"/>
</g>
<!-- Node38 -->
<g id="node38" class="node"><title>Node38</title>
<g id="a_node38"><a xlink:href="TreeReaderPostProcessing_8cxx.html" target="_top" xlink:title="Modules/FT0/src/TreeReader\lPostProcessing.cxx">
<polygon fill="none" stroke="black" points="4884,-0.5 4884,-30.5 5028,-30.5 5028,-0.5 4884,-0.5"/>
<text text-anchor="start" x="4892" y="-18.5" font-family="Helvetica,sans-Serif" font-size="10.00">Modules/FT0/src/TreeReader</text>
<text text-anchor="middle" x="4956" y="-7.5" font-family="Helvetica,sans-Serif" font-size="10.00">PostProcessing.cxx</text>
</a>
</g>
</g>
<!-- Node37&#45;&gt;Node38 -->
<g id="edge46" class="edge"><title>Node37&#45;&gt;Node38</title>
<path fill="none" stroke="midnightblue" d="M4631.04,-70.9181C4637.78,-69.5476 4644.51,-68.2205 4651,-67 4749.66,-48.44 4775.01,-47.7412 4874,-31 4877.14,-30.4696 4880.34,-29.9233 4883.57,-29.3678"/>
<polygon fill="midnightblue" stroke="midnightblue" points="4630.28,-67.5018 4621.19,-72.9499 4631.7,-74.3574 4630.28,-67.5018"/>
</g>
<!-- Node42 -->
<g id="node42" class="node"><title>Node42</title>
<g id="a_node42"><a xlink:href="PostProcessDiagnosticPerCrate_8cxx.html" target="_top" xlink:title="Post processing to rearrange TOF information at the level of the crate (maybe we should do the opposi...">
<polygon fill="none" stroke="black" points="5046,-0.5 5046,-30.5 5198,-30.5 5198,-0.5 5046,-0.5"/>
<text text-anchor="start" x="5054" y="-18.5" font-family="Helvetica,sans-Serif" font-size="10.00">Modules/TOF/src/PostProcess</text>
<text text-anchor="middle" x="5122" y="-7.5" font-family="Helvetica,sans-Serif" font-size="10.00">DiagnosticPerCrate.cxx</text>
</a>
</g>
</g>
<!-- Node41&#45;&gt;Node42 -->
<g id="edge50" class="edge"><title>Node41&#45;&gt;Node42</title>
<path fill="none" stroke="midnightblue" d="M5103.18,-57.966C5107.42,-48.6314 5111.93,-38.6962 5115.47,-30.8916"/>
<polygon fill="midnightblue" stroke="midnightblue" points="5099.86,-56.8093 5098.91,-67.3618 5106.23,-59.7026 5099.86,-56.8093"/>
</g>
</g>
</svg>
        <g id="navigator" transform="translate(0 0)" fill="#404254">
                <rect fill="#f2f5e9" fill-opacity="0.5" stroke="#606060" stroke-width=".5" x="0" y="0" width="60" height="60"/>
                <use id="zoomplus" xlink:href="#zoomPlus" x="17" y="9" onmousedown="handleZoom(evt,'in')"/>
                <use id="zoomminus" xlink:href="#zoomMin" x="42" y="9" onmousedown="handleZoom(evt,'out')"/>
                <use id="reset" xlink:href="#resetDef" x="30" y="36" onmousedown="handleReset()"/>
                <g id="arrowUp" xlink:href="#dirArrow" transform="translate(30 24)" onmousedown="handlePan(0,-1)">
                  <use xlink:href="#rim" fill="#404040">
                        <set attributeName="fill" to="#808080" begin="arrowUp.mouseover" end="arrowUp.mouseout"/>
                  </use>
                  <path fill="none" stroke="white" stroke-width="1.5" d="M0,-3.0v7 M-2.5,-0.5L0,-3.0L2.5,-0.5"/>
                </g>
                <g id="arrowRight" xlink:href="#dirArrow" transform="rotate(90) translate(36 -43)" onmousedown="handlePan(1,0)">
                  <use xlink:href="#rim" fill="#404040">
                        <set attributeName="fill" to="#808080" begin="arrowRight.mouseover" end="arrowRight.mouseout"/>
                  </use>
                  <path fill="none" stroke="white" stroke-width="1.5" d="M0,-3.0v7 M-2.5,-0.5L0,-3.0L2.5,-0.5"/>
                </g>
                <g id="arrowDown" xlink:href="#dirArrow" transform="rotate(180) translate(-30 -48)" onmousedown="handlePan(0,1)">
                  <use xlink:href="#rim" fill="#404040">
                        <set attributeName="fill" to="#808080" begin="arrowDown.mouseover" end="arrowDown.mouseout"/>
                  </use>
                  <path fill="none" stroke="white" stroke-width="1.5" d="M0,-3.0v7 M-2.5,-0.5L0,-3.0L2.5,-0.5"/>
                </g>
                <g id="arrowLeft" xlink:href="#dirArrow" transform="rotate(270) translate(-36 17)" onmousedown="handlePan(-1,0)">
                  <use xlink:href="#rim" fill="#404040">
                        <set attributeName="fill" to="#808080" begin="arrowLeft.mouseover" end="arrowLeft.mouseout"/>
                  </use>
                  <path fill="none" stroke="white" stroke-width="1.5" d="M0,-3.0v7 M-2.5,-0.5L0,-3.0L2.5,-0.5"/>
                </g>
        </g>
        <svg viewBox="0 0 15 15" width="100%" height="30px" preserveAspectRatio="xMaxYMin meet">
         <g id="arrow_out" transform="scale(0.3 0.3)">
          <a xlink:href="DatabaseInterface_8h__dep__incl_org.svg" target="_base">
           <rect id="button" ry="5" rx="5" y="6" x="6" height="38" width="38"
                fill="#f2f5e9" fill-opacity="0.5" stroke="#606060" stroke-width="1.0"/>
           <path id="arrow"
             d="M 11.500037,31.436501 C 11.940474,20.09759 22.043105,11.32322 32.158766,21.979434 L 37.068811,17.246167 C 37.068811,17.246167 37.088388,32 37.088388,32 L 22.160133,31.978069 C 22.160133,31.978069 26.997745,27.140456 26.997745,27.140456 C 18.528582,18.264221 13.291696,25.230495 11.500037,31.436501 z"
             style="fill:#404040;"/>
          </a>
         </g>
        </svg>
</svg>
