<?xml version="1.0" encoding="UTF-8" standalone="no"?>
<!DOCTYPE svg PUBLIC "-//W3C//DTD SVG 1.1//EN"
 "http://www.w3.org/Graphics/SVG/1.1/DTD/svg11.dtd">
<!-- Generated by graphviz version 2.38.0 (20140413.2041)
 -->
<!-- Title: Framework/include/QualityControl/DataDumpGui.h Pages: 1 -->
<svg width="356pt" height="95pt"
 viewBox="0.00 0.00 356.00 95.00" xmlns="http://www.w3.org/2000/svg" xmlns:xlink="http://www.w3.org/1999/xlink">
<g id="graph0" class="graph" transform="scale(1 1) rotate(0) translate(4 91)">
<title>Framework/include/QualityControl/DataDumpGui.h</title>
<!-- Node1 -->
<g id="node1" class="node"><title>Node1</title>
<polygon fill="#bfbfbf" stroke="black" points="107.5,-56.5 107.5,-86.5 240.5,-86.5 240.5,-56.5 107.5,-56.5"/>
<text text-anchor="start" x="115.5" y="-74.5" font-family="Helvetica,sans-Serif" font-size="10.00">Framework/include/Quality</text>
<text text-anchor="middle" x="174" y="-63.5" font-family="Helvetica,sans-Serif" font-size="10.00">Control/DataDumpGui.h</text>
</g>
<!-- Node2 -->
<g id="node2" class="node"><title>Node2</title>
<g id="a_node2"><a xlink:href="DataDumpGui_8cxx.html" target="_top" xlink:title="Framework/src/DataDumpGui.cxx">
<polygon fill="none" stroke="black" points="0,-0.5 0,-19.5 166,-19.5 166,-0.5 0,-0.5"/>
<text text-anchor="middle" x="83" y="-7.5" font-family="Helvetica,sans-Serif" font-size="10.00">Framework/src/DataDumpGui.cxx</text>
</a>
</g>
</g>
<!-- Node1&#45;&gt;Node2 -->
<g id="edge1" class="edge"><title>Node1&#45;&gt;Node2</title>
<path fill="none" stroke="midnightblue" d="M143.834,-50.7764C127.707,-40.2315 108.669,-27.7834 96.2413,-19.6578"/>
<polygon fill="midnightblue" stroke="midnightblue" points="142.149,-53.8562 152.434,-56.3993 145.98,-47.9974 142.149,-53.8562"/>
</g>
<!-- Node3 -->
<g id="node3" class="node"><title>Node3</title>
<g id="a_node3"><a xlink:href="runDataDump_8cxx.html" target="_top" xlink:title="Framework/src/runDataDump.cxx">
<polygon fill="none" stroke="black" points="184,-0.5 184,-19.5 348,-19.5 348,-0.5 184,-0.5"/>
<text text-anchor="middle" x="266" y="-7.5" font-family="Helvetica,sans-Serif" font-size="10.00">Framework/src/runDataDump.cxx</text>
</a>
</g>
</g>
<!-- Node1&#45;&gt;Node3 -->
<g id="edge2" class="edge"><title>Node1&#45;&gt;Node3</title>
<path fill="none" stroke="midnightblue" d="M204.497,-50.7764C220.802,-40.2315 240.049,-27.7834 252.613,-19.6578"/>
<polygon fill="midnightblue" stroke="midnightblue" points="202.299,-48.0297 195.803,-56.3993 206.1,-53.9076 202.299,-48.0297"/>
</g>
</g>
</svg>
