<?xml version="1.0" encoding="UTF-8" standalone="no"?>
<!DOCTYPE svg PUBLIC "-//W3C//DTD SVG 1.1//EN"
 "http://www.w3.org/Graphics/SVG/1.1/DTD/svg11.dtd">
<!-- Generated by graphviz version 2.38.0 (20140413.2041)
 -->
<!-- Title: Framework/src/DatabaseFactory.cxx Pages: 1 -->
<!--zoomable 308 -->
<svg id="main" version="1.1" xmlns="http://www.w3.org/2000/svg" xmlns:xlink="http://www.w3.org/1999/xlink" xml:space="preserve" onload="init(evt)">
<style type="text/css"><![CDATA[
.edge:hover path { stroke: red; }
.edge:hover polygon { stroke: red; fill: red; }
]]></style>
<script type="text/javascript"><![CDATA[
var edges = document.getElementsByTagName('g');
if (edges && edges.length) {
  for (var i=0;i<edges.length;i++) {
    if (edges[i].id.substr(0,4)=='edge') {
      edges[i].setAttribute('class','edge');
    }
  }
}
]]></script>
        <defs>
                <circle id="rim" cx="0" cy="0" r="7"/>
                <circle id="rim2" cx="0" cy="0" r="3.5"/>
                <g id="zoomPlus">
                        <use xlink:href="#rim" fill="#404040">
                                <set attributeName="fill" to="#808080" begin="zoomplus.mouseover" end="zoomplus.mouseout"/>
                        </use>
                        <path d="M-4,0h8M0,-4v8" fill="none" stroke="white" stroke-width="1.5" pointer-events="none"/>
                </g>
                <g id="zoomMin">
                        <use xlink:href="#rim" fill="#404040">
                                <set attributeName="fill" to="#808080" begin="zoomminus.mouseover" end="zoomminus.mouseout"/>
                        </use>
                        <path d="M-4,0h8" fill="none" stroke="white" stroke-width="1.5" pointer-events="none"/>
                </g>
                <g id="dirArrow">
                        <path fill="none" stroke="white" stroke-width="1.5" d="M0,-3.0v7 M-2.5,-0.5L0,-3.0L2.5,-0.5"/>
                </g>
               <g id="resetDef">
                       <use xlink:href="#rim2" fill="#404040">
                               <set attributeName="fill" to="#808080" begin="reset.mouseover" end="reset.mouseout"/>
                       </use>
               </g>
        </defs>

<script type="text/javascript">
var viewWidth = 1105;
var viewHeight = 308;
var sectionId = 'dynsection-0';
</script>
<script xlink:href="svgpan.js"/>
<svg id="graph" class="graph">
<g id="viewport">
<title>Framework/src/DatabaseFactory.cxx</title>
<!-- Node1 -->
<g id="node1" class="node"><title>Node1</title>
<polygon fill="#bfbfbf" stroke="black" points="424.5,-280.5 424.5,-299.5 603.5,-299.5 603.5,-280.5 424.5,-280.5"/>
<text text-anchor="middle" x="514" y="-287.5" font-family="Helvetica,sans-Serif" font-size="10.00">Framework/src/DatabaseFactory.cxx</text>
</g>
<!-- Node2 -->
<g id="node2" class="node"><title>Node2</title>
<g id="a_node2"><a xlink:href="CcdbDatabase_8h.html" target="_top" xlink:title="QualityControl/CcdbDatabase.h">
<polygon fill="none" stroke="black" points="257.5,-224.5 257.5,-243.5 412.5,-243.5 412.5,-224.5 257.5,-224.5"/>
<text text-anchor="middle" x="335" y="-231.5" font-family="Helvetica,sans-Serif" font-size="10.00">QualityControl/CcdbDatabase.h</text>
</a>
</g>
</g>
<!-- Node1&#45;&gt;Node2 -->
<g id="edge1" class="edge"><title>Node1&#45;&gt;Node2</title>
<path fill="none" stroke="midnightblue" d="M485.637,-280.444C455.262,-271.28 406.89,-256.688 373.184,-246.519"/>
<polygon fill="midnightblue" stroke="midnightblue" points="373.815,-243.054 363.23,-243.516 371.793,-249.756 373.815,-243.054"/>
</g>
<!-- Node13 -->
<g id="node13" class="node"><title>Node13</title>
<polygon fill="none" stroke="#bfbfbf" points="0,-56.5 0,-75.5 116,-75.5 116,-56.5 0,-56.5"/>
<text text-anchor="middle" x="58" y="-63.5" font-family="Helvetica,sans-Serif" font-size="10.00">Common/Exceptions.h</text>
</g>
<!-- Node1&#45;&gt;Node13 -->
<g id="edge23" class="edge"><title>Node1&#45;&gt;Node13</title>
<path fill="none" stroke="midnightblue" d="M424.238,-284.251C371.248,-278.93 303.835,-267.693 248,-244 170.753,-211.221 152.11,-194.396 96,-132 83.3236,-117.903 72.814,-98.917 66.0847,-85.1056"/>
<polygon fill="midnightblue" stroke="midnightblue" points="69.1043,-83.2997 61.7023,-75.7194 62.7615,-86.2611 69.1043,-83.2997"/>
</g>
<!-- Node17 -->
<g id="node17" class="node"><title>Node17</title>
<g id="a_node17"><a xlink:href="DummyDatabase_8h.html" target="_top" xlink:title="QualityControl/DummyDatabase.h">
<polygon fill="none" stroke="black" points="430.5,-224.5 430.5,-243.5 597.5,-243.5 597.5,-224.5 430.5,-224.5"/>
<text text-anchor="middle" x="514" y="-231.5" font-family="Helvetica,sans-Serif" font-size="10.00">QualityControl/DummyDatabase.h</text>
</a>
</g>
</g>
<!-- Node1&#45;&gt;Node17 -->
<g id="edge24" class="edge"><title>Node1&#45;&gt;Node17</title>
<path fill="none" stroke="midnightblue" d="M514,-280.083C514,-273.006 514,-262.861 514,-253.986"/>
<polygon fill="midnightblue" stroke="midnightblue" points="517.5,-253.751 514,-243.751 510.5,-253.751 517.5,-253.751"/>
</g>
<!-- Node18 -->
<g id="node18" class="node"><title>Node18</title>
<g id="a_node18"><a xlink:href="DatabaseFactory_8h.html" target="_top" xlink:title="QualityControl/DatabaseFactory.h">
<polygon fill="none" stroke="black" points="615.5,-224.5 615.5,-243.5 780.5,-243.5 780.5,-224.5 615.5,-224.5"/>
<text text-anchor="middle" x="698" y="-231.5" font-family="Helvetica,sans-Serif" font-size="10.00">QualityControl/DatabaseFactory.h</text>
</a>
</g>
</g>
<!-- Node1&#45;&gt;Node18 -->
<g id="edge26" class="edge"><title>Node1&#45;&gt;Node18</title>
<path fill="none" stroke="midnightblue" d="M543.155,-280.444C574.513,-271.241 624.531,-256.562 659.197,-246.388"/>
<polygon fill="midnightblue" stroke="midnightblue" points="660.371,-249.691 668.981,-243.516 658.4,-242.974 660.371,-249.691"/>
</g>
<!-- Node19 -->
<g id="node19" class="node"><title>Node19</title>
<g id="a_node19"><a xlink:href="QcInfoLogger_8h.html" target="_top" xlink:title="QualityControl/QcInfoLogger.h">
<polygon fill="none" stroke="black" points="798.5,-224.5 798.5,-243.5 947.5,-243.5 947.5,-224.5 798.5,-224.5"/>
<text text-anchor="middle" x="873" y="-231.5" font-family="Helvetica,sans-Serif" font-size="10.00">QualityControl/QcInfoLogger.h</text>
</a>
</g>
</g>
<!-- Node1&#45;&gt;Node19 -->
<g id="edge29" class="edge"><title>Node1&#45;&gt;Node19</title>
<path fill="none" stroke="midnightblue" d="M570.885,-280.444C634.824,-270.826 738.524,-255.228 806.247,-245.041"/>
<polygon fill="midnightblue" stroke="midnightblue" points="807.013,-248.465 816.382,-243.516 805.972,-241.543 807.013,-248.465"/>
</g>
<!-- Node3 -->
<g id="node3" class="node"><title>Node3</title>
<polygon fill="none" stroke="#bfbfbf" points="287.5,-168.5 287.5,-187.5 382.5,-187.5 382.5,-168.5 287.5,-168.5"/>
<text text-anchor="middle" x="335" y="-175.5" font-family="Helvetica,sans-Serif" font-size="10.00">CCDB/CcdbApi.h</text>
</g>
<!-- Node2&#45;&gt;Node3 -->
<g id="edge2" class="edge"><title>Node2&#45;&gt;Node3</title>
<path fill="none" stroke="midnightblue" d="M335,-224.083C335,-217.006 335,-206.861 335,-197.986"/>
<polygon fill="midnightblue" stroke="midnightblue" points="338.5,-197.751 335,-187.751 331.5,-197.751 338.5,-197.751"/>
</g>
<!-- Node4 -->
<g id="node4" class="node"><title>Node4</title>
<g id="a_node4"><a xlink:href="DatabaseInterface_8h.html" target="_top" xlink:title="QualityControl/DatabaseInterface.h">
<polygon fill="none" stroke="black" points="429,-168.5 429,-187.5 599,-187.5 599,-168.5 429,-168.5"/>
<text text-anchor="middle" x="514" y="-175.5" font-family="Helvetica,sans-Serif" font-size="10.00">QualityControl/DatabaseInterface.h</text>
</a>
</g>
</g>
<!-- Node2&#45;&gt;Node4 -->
<g id="edge3" class="edge"><title>Node2&#45;&gt;Node4</title>
<path fill="none" stroke="midnightblue" d="M363.363,-224.444C393.738,-215.28 442.11,-200.688 475.816,-190.519"/>
<polygon fill="midnightblue" stroke="midnightblue" points="477.207,-193.756 485.77,-187.516 475.185,-187.054 477.207,-193.756"/>
</g>
<!-- Node5 -->
<g id="node5" class="node"><title>Node5</title>
<polygon fill="none" stroke="#bfbfbf" points="455.5,-0.5 455.5,-19.5 496.5,-19.5 496.5,-0.5 455.5,-0.5"/>
<text text-anchor="middle" x="476" y="-7.5" font-family="Helvetica,sans-Serif" font-size="10.00">string</text>
</g>
<!-- Node4&#45;&gt;Node5 -->
<g id="edge4" class="edge"><title>Node4&#45;&gt;Node5</title>
<path fill="none" stroke="midnightblue" d="M511.957,-168.075C505.975,-141.945 488.41,-65.2106 480.253,-29.577"/>
<polygon fill="midnightblue" stroke="midnightblue" points="483.605,-28.5349 477.961,-19.5681 476.781,-30.097 483.605,-28.5349"/>
</g>
<!-- Node6 -->
<g id="node6" class="node"><title>Node6</title>
<polygon fill="none" stroke="#bfbfbf" points="808,-112.5 808,-131.5 860,-131.5 860,-112.5 808,-112.5"/>
<text text-anchor="middle" x="834" y="-119.5" font-family="Helvetica,sans-Serif" font-size="10.00">memory</text>
</g>
<!-- Node4&#45;&gt;Node6 -->
<g id="edge5" class="edge"><title>Node4&#45;&gt;Node6</title>
<path fill="none" stroke="midnightblue" d="M579.405,-168.475C635.113,-160.803 717.457,-148.495 797.892,-132.074"/>
<polygon fill="midnightblue" stroke="midnightblue" points="798.604,-135.501 807.689,-130.052 797.188,-128.646 798.604,-135.501"/>
</g>
<!-- Node7 -->
<g id="node7" class="node"><title>Node7</title>
<polygon fill="none" stroke="#bfbfbf" points="442,-112.5 442,-131.5 486,-131.5 486,-112.5 442,-112.5"/>
<text text-anchor="middle" x="464" y="-119.5" font-family="Helvetica,sans-Serif" font-size="10.00">vector</text>
</g>
<!-- Node4&#45;&gt;Node7 -->
<g id="edge6" class="edge"><title>Node4&#45;&gt;Node7</title>
<path fill="none" stroke="midnightblue" d="M505.744,-168.083C498.535,-160.298 487.89,-148.801 479.154,-139.367"/>
<polygon fill="midnightblue" stroke="midnightblue" points="481.465,-136.711 472.103,-131.751 476.329,-141.467 481.465,-136.711"/>
</g>
<!-- Node8 -->
<g id="node8" class="node"><title>Node8</title>
<polygon fill="none" stroke="#bfbfbf" points="542.5,-112.5 542.5,-131.5 625.5,-131.5 625.5,-112.5 542.5,-112.5"/>
<text text-anchor="middle" x="584" y="-119.5" font-family="Helvetica,sans-Serif" font-size="10.00">unordered_map</text>
</g>
<!-- Node4&#45;&gt;Node8 -->
<g id="edge7" class="edge"><title>Node4&#45;&gt;Node8</title>
<path fill="none" stroke="midnightblue" d="M525.247,-168.324C535.797,-160.185 551.801,-147.839 564.442,-138.087"/>
<polygon fill="midnightblue" stroke="midnightblue" points="566.769,-140.713 572.549,-131.834 562.493,-135.171 566.769,-140.713"/>
</g>
<!-- Node9 -->
<g id="node9" class="node"><title>Node9</title>
<polygon fill="none" stroke="#bfbfbf" points="644,-112.5 644,-131.5 790,-131.5 790,-112.5 644,-112.5"/>
<text text-anchor="middle" x="717" y="-119.5" font-family="Helvetica,sans-Serif" font-size="10.00">Framework/ServiceRegistry.h</text>
</g>
<!-- Node4&#45;&gt;Node9 -->
<g id="edge8" class="edge"><title>Node4&#45;&gt;Node9</title>
<path fill="none" stroke="midnightblue" d="M546.166,-168.444C581.059,-159.162 636.893,-144.309 675.171,-134.127"/>
<polygon fill="midnightblue" stroke="midnightblue" points="676.22,-137.47 684.985,-131.516 674.421,-130.705 676.22,-137.47"/>
</g>
<!-- Node10 -->
<g id="node10" class="node"><title>Node10</title>
<g id="a_node10"><a xlink:href="QualityObject_8h_source.html" target="_top" xlink:title="QualityControl/QualityObject.h">
<polygon fill="none" stroke="black" points="105.5,-112.5 105.5,-131.5 254.5,-131.5 254.5,-112.5 105.5,-112.5"/>
<text text-anchor="middle" x="180" y="-119.5" font-family="Helvetica,sans-Serif" font-size="10.00">QualityControl/QualityObject.h</text>
</a>
</g>
</g>
<!-- Node4&#45;&gt;Node10 -->
<g id="edge9" class="edge"><title>Node4&#45;&gt;Node10</title>
<path fill="none" stroke="midnightblue" d="M461.077,-168.444C401.834,-158.865 305.903,-143.356 242.883,-133.167"/>
<polygon fill="midnightblue" stroke="midnightblue" points="243.106,-129.657 232.676,-131.516 241.989,-136.568 243.106,-129.657"/>
</g>
<!-- Node16 -->
<g id="node16" class="node"><title>Node16</title>
<g id="a_node16"><a xlink:href="MonitorObject_8h.html" target="_top" xlink:title="QualityControl/MonitorObject.h">
<polygon fill="none" stroke="black" points="272.5,-112.5 272.5,-131.5 423.5,-131.5 423.5,-112.5 272.5,-112.5"/>
<text text-anchor="middle" x="348" y="-119.5" font-family="Helvetica,sans-Serif" font-size="10.00">QualityControl/MonitorObject.h</text>
</a>
</g>
</g>
<!-- Node4&#45;&gt;Node16 -->
<g id="edge17" class="edge"><title>Node4&#45;&gt;Node16</title>
<path fill="none" stroke="midnightblue" d="M487.697,-168.444C459.649,-159.32 415.056,-144.813 383.816,-134.651"/>
<polygon fill="midnightblue" stroke="midnightblue" points="384.772,-131.282 374.18,-131.516 382.607,-137.938 384.772,-131.282"/>
</g>
<!-- Node11 -->
<g id="node11" class="node"><title>Node11</title>
<polygon fill="none" stroke="#bfbfbf" points="242.5,-0.5 242.5,-19.5 277.5,-19.5 277.5,-0.5 242.5,-0.5"/>
<text text-anchor="middle" x="260" y="-7.5" font-family="Helvetica,sans-Serif" font-size="10.00">map</text>
</g>
<!-- Node10&#45;&gt;Node11 -->
<g id="edge10" class="edge"><title>Node10&#45;&gt;Node11</title>
<path fill="none" stroke="midnightblue" d="M173.696,-112.332C164.988,-99.1976 151.576,-73.8931 163,-56 178.16,-32.2543 209.434,-20.848 232.389,-15.4959"/>
<polygon fill="midnightblue" stroke="midnightblue" points="233.186,-18.9051 242.263,-13.4404 231.76,-12.0521 233.186,-18.9051"/>
</g>
<!-- Node12 -->
<g id="node12" class="node"><title>Node12</title>
<polygon fill="none" stroke="#bfbfbf" points="172.5,-56.5 172.5,-75.5 231.5,-75.5 231.5,-56.5 172.5,-56.5"/>
<text text-anchor="middle" x="202" y="-63.5" font-family="Helvetica,sans-Serif" font-size="10.00">TObject.h</text>
</g>
<!-- Node10&#45;&gt;Node12 -->
<g id="edge11" class="edge"><title>Node10&#45;&gt;Node12</title>
<path fill="none" stroke="midnightblue" d="M183.633,-112.083C186.612,-104.77 190.926,-94.1814 194.625,-85.1034"/>
<polygon fill="midnightblue" stroke="midnightblue" points="197.903,-86.3326 198.435,-75.7511 191.42,-83.6914 197.903,-86.3326"/>
</g>
<!-- Node10&#45;&gt;Node13 -->
<g id="edge12" class="edge"><title>Node10&#45;&gt;Node13</title>
<path fill="none" stroke="midnightblue" d="M160.669,-112.444C140.68,-103.596 109.257,-89.6875 86.4361,-79.5865"/>
<polygon fill="midnightblue" stroke="midnightblue" points="87.8018,-76.3635 77.2408,-75.5164 84.9685,-82.7645 87.8018,-76.3635"/>
</g>
<!-- Node14 -->
<g id="node14" class="node"><title>Node14</title>
<g id="a_node14"><a xlink:href="Quality_8h.html" target="_top" xlink:title="QualityControl/Quality.h">
<polygon fill="none" stroke="black" points="288.5,-56.5 288.5,-75.5 409.5,-75.5 409.5,-56.5 288.5,-56.5"/>
<text text-anchor="middle" x="349" y="-63.5" font-family="Helvetica,sans-Serif" font-size="10.00">QualityControl/Quality.h</text>
</a>
</g>
</g>
<!-- Node10&#45;&gt;Node14 -->
<g id="edge13" class="edge"><title>Node10&#45;&gt;Node14</title>
<path fill="none" stroke="midnightblue" d="M206.779,-112.444C235.333,-103.32 280.733,-88.8133 312.537,-78.6509"/>
<polygon fill="midnightblue" stroke="midnightblue" points="313.886,-81.8941 322.347,-75.5164 311.756,-75.2262 313.886,-81.8941"/>
</g>
<!-- Node14&#45;&gt;Node5 -->
<g id="edge15" class="edge"><title>Node14&#45;&gt;Node5</title>
<path fill="none" stroke="midnightblue" d="M369.124,-56.4435C390.024,-47.5566 422.935,-33.5632 446.716,-23.4514"/>
<polygon fill="midnightblue" stroke="midnightblue" points="448.138,-26.6504 455.971,-19.5164 445.398,-20.2085 448.138,-26.6504"/>
</g>
<!-- Node14&#45;&gt;Node11 -->
<g id="edge16" class="edge"><title>Node14&#45;&gt;Node11</title>
<path fill="none" stroke="midnightblue" d="M334.701,-56.324C320.817,-47.9002 299.508,-34.9709 283.196,-25.0741"/>
<polygon fill="midnightblue" stroke="midnightblue" points="284.629,-21.8495 274.264,-19.6545 280.998,-27.8341 284.629,-21.8495"/>
</g>
<!-- Node15 -->
<g id="node15" class="node"><title>Node15</title>
<polygon fill="none" stroke="#bfbfbf" points="351,-0.5 351,-19.5 407,-19.5 407,-0.5 351,-0.5"/>
<text text-anchor="middle" x="379" y="-7.5" font-family="Helvetica,sans-Serif" font-size="10.00">Rtypes.h</text>
</g>
<!-- Node14&#45;&gt;Node15 -->
<g id="edge14" class="edge"><title>Node14&#45;&gt;Node15</title>
<path fill="none" stroke="midnightblue" d="M353.954,-56.083C358.104,-48.6127 364.153,-37.7244 369.267,-28.5199"/>
<polygon fill="midnightblue" stroke="midnightblue" points="372.341,-30.1924 374.138,-19.7511 366.222,-26.7929 372.341,-30.1924"/>
</g>
<!-- Node16&#45;&gt;Node5 -->
<g id="edge18" class="edge"><title>Node16&#45;&gt;Node5</title>
<path fill="none" stroke="midnightblue" d="M371.923,-112.399C390.409,-104.887 415.825,-92.582 434,-76 448.696,-62.5922 460.442,-42.9505 467.734,-28.771"/>
<polygon fill="midnightblue" stroke="midnightblue" points="470.981,-30.0989 472.236,-19.5787 464.694,-27.0203 470.981,-30.0989"/>
</g>
<!-- Node16&#45;&gt;Node11 -->
<g id="edge19" class="edge"><title>Node16&#45;&gt;Node11</title>
<path fill="none" stroke="midnightblue" d="M327.305,-112.347C311.856,-104.876 291.362,-92.6501 279,-76 269.035,-62.5779 264.278,-44.0136 262.018,-30.16"/>
<polygon fill="midnightblue" stroke="midnightblue" points="265.435,-29.2988 260.648,-19.8471 258.496,-30.2211 265.435,-29.2988"/>
</g>
<!-- Node16&#45;&gt;Node12 -->
<g id="edge21" class="edge"><title>Node16&#45;&gt;Node12</title>
<path fill="none" stroke="midnightblue" d="M324.866,-112.444C300.518,-103.438 261.993,-89.1891 234.577,-79.049"/>
<polygon fill="midnightblue" stroke="midnightblue" points="235.619,-75.7028 225.026,-75.5164 233.191,-82.2681 235.619,-75.7028"/>
</g>
<!-- Node16&#45;&gt;Node13 -->
<g id="edge22" class="edge"><title>Node16&#45;&gt;Node13</title>
<path fill="none" stroke="midnightblue" d="M302.049,-112.444C250.929,-102.925 168.346,-87.5472 113.617,-77.3563"/>
<polygon fill="midnightblue" stroke="midnightblue" points="114.208,-73.9063 103.736,-75.5164 112.927,-80.788 114.208,-73.9063"/>
</g>
<!-- Node16&#45;&gt;Node15 -->
<g id="edge20" class="edge"><title>Node16&#45;&gt;Node15</title>
<path fill="none" stroke="midnightblue" d="M372.469,-112.438C388.567,-105.378 408.377,-93.626 418,-76 427.383,-58.8128 412.683,-39.6458 398.726,-26.6071"/>
<polygon fill="midnightblue" stroke="midnightblue" points="400.624,-23.6198 390.782,-19.6995 396.031,-28.9022 400.624,-23.6198"/>
</g>
<!-- Node17&#45;&gt;Node4 -->
<g id="edge25" class="edge"><title>Node17&#45;&gt;Node4</title>
<path fill="none" stroke="midnightblue" d="M514,-224.083C514,-217.006 514,-206.861 514,-197.986"/>
<polygon fill="midnightblue" stroke="midnightblue" points="517.5,-197.751 514,-187.751 510.5,-197.751 517.5,-197.751"/>
</g>
<!-- Node18&#45;&gt;Node4 -->
<g id="edge28" class="edge"><title>Node18&#45;&gt;Node4</title>
<path fill="none" stroke="midnightblue" d="M668.845,-224.444C637.487,-215.241 587.469,-200.562 552.803,-190.388"/>
<polygon fill="midnightblue" stroke="midnightblue" points="553.6,-186.974 543.019,-187.516 551.629,-193.691 553.6,-186.974"/>
</g>
<!-- Node18&#45;&gt;Node6 -->
<g id="edge27" class="edge"><title>Node18&#45;&gt;Node6</title>
<path fill="none" stroke="midnightblue" d="M708.597,-224.36C723.899,-211.89 753.084,-188.132 778,-168 790.401,-157.98 804.38,-146.747 815.269,-138.01"/>
<polygon fill="midnightblue" stroke="midnightblue" points="817.639,-140.596 823.251,-131.61 813.26,-135.135 817.639,-140.596"/>
</g>
<!-- Node20 -->
<g id="node20" class="node"><title>Node20</title>
<polygon fill="none" stroke="#bfbfbf" points="787,-168.5 787,-187.5 917,-187.5 917,-168.5 787,-168.5"/>
<text text-anchor="middle" x="852" y="-175.5" font-family="Helvetica,sans-Serif" font-size="10.00">InfoLogger/InfoLogger.hxx</text>
</g>
<!-- Node19&#45;&gt;Node20 -->
<g id="edge30" class="edge"><title>Node19&#45;&gt;Node20</title>
<path fill="none" stroke="midnightblue" d="M869.532,-224.083C866.688,-216.77 862.571,-206.181 859.04,-197.103"/>
<polygon fill="midnightblue" stroke="midnightblue" points="862.29,-195.803 855.403,-187.751 855.766,-198.34 862.29,-195.803"/>
</g>
<!-- Node21 -->
<g id="node21" class="node"><title>Node21</title>
<polygon fill="none" stroke="#bfbfbf" points="935,-168.5 935,-187.5 1097,-187.5 1097,-168.5 935,-168.5"/>
<text text-anchor="middle" x="1016" y="-175.5" font-family="Helvetica,sans-Serif" font-size="10.00">InfoLogger/InfoLoggerMacros.hxx</text>
</g>
<!-- Node19&#45;&gt;Node21 -->
<g id="edge31" class="edge"><title>Node19&#45;&gt;Node21</title>
<path fill="none" stroke="midnightblue" d="M895.659,-224.444C919.402,-215.478 956.909,-201.314 983.738,-191.183"/>
<polygon fill="midnightblue" stroke="midnightblue" points="985.329,-194.324 993.447,-187.516 982.856,-187.775 985.329,-194.324"/>
</g>
</g>
</svg>
        <g id="navigator" transform="translate(0 0)" fill="#404254">
                <rect fill="#f2f5e9" fill-opacity="0.5" stroke="#606060" stroke-width=".5" x="0" y="0" width="60" height="60"/>
                <use id="zoomplus" xlink:href="#zoomPlus" x="17" y="9" onmousedown="handleZoom(evt,'in')"/>
                <use id="zoomminus" xlink:href="#zoomMin" x="42" y="9" onmousedown="handleZoom(evt,'out')"/>
                <use id="reset" xlink:href="#resetDef" x="30" y="36" onmousedown="handleReset()"/>
                <g id="arrowUp" xlink:href="#dirArrow" transform="translate(30 24)" onmousedown="handlePan(0,-1)">
                  <use xlink:href="#rim" fill="#404040">
                        <set attributeName="fill" to="#808080" begin="arrowUp.mouseover" end="arrowUp.mouseout"/>
                  </use>
                  <path fill="none" stroke="white" stroke-width="1.5" d="M0,-3.0v7 M-2.5,-0.5L0,-3.0L2.5,-0.5"/>
                </g>
                <g id="arrowRight" xlink:href="#dirArrow" transform="rotate(90) translate(36 -43)" onmousedown="handlePan(1,0)">
                  <use xlink:href="#rim" fill="#404040">
                        <set attributeName="fill" to="#808080" begin="arrowRight.mouseover" end="arrowRight.mouseout"/>
                  </use>
                  <path fill="none" stroke="white" stroke-width="1.5" d="M0,-3.0v7 M-2.5,-0.5L0,-3.0L2.5,-0.5"/>
                </g>
                <g id="arrowDown" xlink:href="#dirArrow" transform="rotate(180) translate(-30 -48)" onmousedown="handlePan(0,1)">
                  <use xlink:href="#rim" fill="#404040">
                        <set attributeName="fill" to="#808080" begin="arrowDown.mouseover" end="arrowDown.mouseout"/>
                  </use>
                  <path fill="none" stroke="white" stroke-width="1.5" d="M0,-3.0v7 M-2.5,-0.5L0,-3.0L2.5,-0.5"/>
                </g>
                <g id="arrowLeft" xlink:href="#dirArrow" transform="rotate(270) translate(-36 17)" onmousedown="handlePan(-1,0)">
                  <use xlink:href="#rim" fill="#404040">
                        <set attributeName="fill" to="#808080" begin="arrowLeft.mouseover" end="arrowLeft.mouseout"/>
                  </use>
                  <path fill="none" stroke="white" stroke-width="1.5" d="M0,-3.0v7 M-2.5,-0.5L0,-3.0L2.5,-0.5"/>
                </g>
        </g>
        <svg viewBox="0 0 15 15" width="100%" height="30px" preserveAspectRatio="xMaxYMin meet">
         <g id="arrow_out" transform="scale(0.3 0.3)">
          <a xlink:href="DatabaseFactory_8cxx__incl_org.svg" target="_base">
           <rect id="button" ry="5" rx="5" y="6" x="6" height="38" width="38"
                fill="#f2f5e9" fill-opacity="0.5" stroke="#606060" stroke-width="1.0"/>
           <path id="arrow"
             d="M 11.500037,31.436501 C 11.940474,20.09759 22.043105,11.32322 32.158766,21.979434 L 37.068811,17.246167 C 37.068811,17.246167 37.088388,32 37.088388,32 L 22.160133,31.978069 C 22.160133,31.978069 26.997745,27.140456 26.997745,27.140456 C 18.528582,18.264221 13.291696,25.230495 11.500037,31.436501 z"
             style="fill:#404040;"/>
          </a>
         </g>
        </svg>
</svg>
