<?xml version="1.0" encoding="UTF-8" standalone="no"?>
<!DOCTYPE svg PUBLIC "-//W3C//DTD SVG 1.1//EN"
 "http://www.w3.org/Graphics/SVG/1.1/DTD/svg11.dtd">
<!-- Generated by graphviz version 2.38.0 (20140413.2041)
 -->
<!-- Title: Framework/include/QualityControl/DatabaseInterface.h Pages: 1 -->
<svg width="747pt" height="207pt"
 viewBox="0.00 0.00 746.73 207.00" xmlns="http://www.w3.org/2000/svg" xmlns:xlink="http://www.w3.org/1999/xlink">
<g id="graph0" class="graph" transform="scale(1 1) rotate(0) translate(4 203)">
<title>Framework/include/QualityControl/DatabaseInterface.h</title>
<!-- Node1 -->
<g id="node1" class="node"><title>Node1</title>
<polygon fill="#bfbfbf" stroke="black" points="314.729,-168.5 314.729,-198.5 454.729,-198.5 454.729,-168.5 314.729,-168.5"/>
<text text-anchor="start" x="322.729" y="-186.5" font-family="Helvetica,sans-Serif" font-size="10.00">Framework/include/Quality</text>
<text text-anchor="middle" x="384.729" y="-175.5" font-family="Helvetica,sans-Serif" font-size="10.00">Control/DatabaseInterface.h</text>
</g>
<!-- Node2 -->
<g id="node2" class="node"><title>Node2</title>
<polygon fill="none" stroke="#bfbfbf" points="4.22907,-0.5 4.22907,-19.5 45.2291,-19.5 45.2291,-0.5 4.22907,-0.5"/>
<text text-anchor="middle" x="24.7291" y="-7.5" font-family="Helvetica,sans-Serif" font-size="10.00">string</text>
</g>
<!-- Node1&#45;&gt;Node2 -->
<g id="edge1" class="edge"><title>Node1&#45;&gt;Node2</title>
<path fill="none" stroke="midnightblue" d="M314.613,-183.437C218.131,-183.053 51.9926,-175.825 13.7291,-132 -11.267,-103.371 4.37086,-55.1034 15.8272,-29.0224"/>
<polygon fill="midnightblue" stroke="midnightblue" points="19.1592,-30.1579 20.2071,-19.6151 12.8133,-27.2033 19.1592,-30.1579"/>
</g>
<!-- Node3 -->
<g id="node3" class="node"><title>Node3</title>
<polygon fill="none" stroke="#bfbfbf" points="358.729,-112.5 358.729,-131.5 410.729,-131.5 410.729,-112.5 358.729,-112.5"/>
<text text-anchor="middle" x="384.729" y="-119.5" font-family="Helvetica,sans-Serif" font-size="10.00">memory</text>
</g>
<!-- Node1&#45;&gt;Node3 -->
<g id="edge2" class="edge"><title>Node1&#45;&gt;Node3</title>
<path fill="none" stroke="midnightblue" d="M384.729,-168.399C384.729,-160.466 384.729,-150.458 384.729,-141.858"/>
<polygon fill="midnightblue" stroke="midnightblue" points="388.229,-141.658 384.729,-131.658 381.229,-141.658 388.229,-141.658"/>
</g>
<!-- Node4 -->
<g id="node4" class="node"><title>Node4</title>
<polygon fill="none" stroke="#bfbfbf" points="428.729,-112.5 428.729,-131.5 472.729,-131.5 472.729,-112.5 428.729,-112.5"/>
<text text-anchor="middle" x="450.729" y="-119.5" font-family="Helvetica,sans-Serif" font-size="10.00">vector</text>
</g>
<!-- Node1&#45;&gt;Node4 -->
<g id="edge3" class="edge"><title>Node1&#45;&gt;Node4</title>
<path fill="none" stroke="midnightblue" d="M400.37,-168.399C410.356,-159.397 423.307,-147.721 433.574,-138.465"/>
<polygon fill="midnightblue" stroke="midnightblue" points="436.042,-140.953 441.125,-131.658 431.355,-135.754 436.042,-140.953"/>
</g>
<!-- Node5 -->
<g id="node5" class="node"><title>Node5</title>
<polygon fill="none" stroke="#bfbfbf" points="491.229,-112.5 491.229,-131.5 574.229,-131.5 574.229,-112.5 491.229,-112.5"/>
<text text-anchor="middle" x="532.729" y="-119.5" font-family="Helvetica,sans-Serif" font-size="10.00">unordered_map</text>
</g>
<!-- Node1&#45;&gt;Node5 -->
<g id="edge4" class="edge"><title>Node1&#45;&gt;Node5</title>
<path fill="none" stroke="midnightblue" d="M419.803,-168.399C444.746,-158.372 477.937,-145.028 501.873,-135.405"/>
<polygon fill="midnightblue" stroke="midnightblue" points="503.221,-138.635 511.194,-131.658 500.61,-132.141 503.221,-138.635"/>
</g>
<!-- Node6 -->
<g id="node6" class="node"><title>Node6</title>
<polygon fill="none" stroke="#bfbfbf" points="592.729,-112.5 592.729,-131.5 738.729,-131.5 738.729,-112.5 592.729,-112.5"/>
<text text-anchor="middle" x="665.729" y="-119.5" font-family="Helvetica,sans-Serif" font-size="10.00">Framework/ServiceRegistry.h</text>
</g>
<!-- Node1&#45;&gt;Node6 -->
<g id="edge5" class="edge"><title>Node1&#45;&gt;Node6</title>
<path fill="none" stroke="midnightblue" d="M450.966,-168.475C501.35,-157.806 569.613,-143.352 615.537,-133.628"/>
<polygon fill="midnightblue" stroke="midnightblue" points="616.498,-137.002 625.556,-131.506 615.048,-130.154 616.498,-137.002"/>
</g>
<!-- Node7 -->
<g id="node7" class="node"><title>Node7</title>
<g id="a_node7"><a xlink:href="QualityObject_8h_source.html" target="_top" xlink:title="QualityControl/QualityObject.h">
<polygon fill="none" stroke="black" points="192.229,-112.5 192.229,-131.5 341.229,-131.5 341.229,-112.5 192.229,-112.5"/>
<text text-anchor="middle" x="266.729" y="-119.5" font-family="Helvetica,sans-Serif" font-size="10.00">QualityControl/QualityObject.h</text>
</a>
</g>
</g>
<!-- Node1&#45;&gt;Node7 -->
<g id="edge6" class="edge"><title>Node1&#45;&gt;Node7</title>
<path fill="none" stroke="midnightblue" d="M356.765,-168.399C337.408,-158.639 311.822,-145.737 292.873,-136.183"/>
<polygon fill="midnightblue" stroke="midnightblue" points="294.404,-133.035 283.899,-131.658 291.252,-139.285 294.404,-133.035"/>
</g>
<!-- Node13 -->
<g id="node13" class="node"><title>Node13</title>
<g id="a_node13"><a xlink:href="MonitorObject_8h.html" target="_top" xlink:title="QualityControl/MonitorObject.h">
<polygon fill="none" stroke="black" points="23.2291,-112.5 23.2291,-131.5 174.229,-131.5 174.229,-112.5 23.2291,-112.5"/>
<text text-anchor="middle" x="98.7291" y="-119.5" font-family="Helvetica,sans-Serif" font-size="10.00">QualityControl/MonitorObject.h</text>
</a>
</g>
</g>
<!-- Node1&#45;&gt;Node13 -->
<g id="edge14" class="edge"><title>Node1&#45;&gt;Node13</title>
<path fill="none" stroke="midnightblue" d="M317.313,-168.475C265.925,-157.784 196.263,-143.291 149.52,-133.567"/>
<polygon fill="midnightblue" stroke="midnightblue" points="150.12,-130.117 139.617,-131.506 148.694,-136.97 150.12,-130.117"/>
</g>
<!-- Node8 -->
<g id="node8" class="node"><title>Node8</title>
<polygon fill="none" stroke="#bfbfbf" points="384.229,-0.5 384.229,-19.5 419.229,-19.5 419.229,-0.5 384.229,-0.5"/>
<text text-anchor="middle" x="401.729" y="-7.5" font-family="Helvetica,sans-Serif" font-size="10.00">map</text>
</g>
<!-- Node7&#45;&gt;Node8 -->
<g id="edge7" class="edge"><title>Node7&#45;&gt;Node8</title>
<path fill="none" stroke="midnightblue" d="M322.192,-112.467C379.621,-103.067 462.295,-87.73 471.729,-76 488.855,-54.7074 454.939,-33.8977 428.589,-21.7695"/>
<polygon fill="midnightblue" stroke="midnightblue" points="429.896,-18.5209 419.333,-17.7092 427.085,-24.9313 429.896,-18.5209"/>
</g>
<!-- Node9 -->
<g id="node9" class="node"><title>Node9</title>
<polygon fill="none" stroke="#bfbfbf" points="129.229,-56.5 129.229,-75.5 188.229,-75.5 188.229,-56.5 129.229,-56.5"/>
<text text-anchor="middle" x="158.729" y="-63.5" font-family="Helvetica,sans-Serif" font-size="10.00">TObject.h</text>
</g>
<!-- Node7&#45;&gt;Node9 -->
<g id="edge8" class="edge"><title>Node7&#45;&gt;Node9</title>
<path fill="none" stroke="midnightblue" d="M249.377,-112.324C232.057,-103.664 205.214,-90.2424 185.227,-80.249"/>
<polygon fill="midnightblue" stroke="midnightblue" points="186.548,-76.9962 176.038,-75.6545 183.417,-83.2572 186.548,-76.9962"/>
</g>
<!-- Node10 -->
<g id="node10" class="node"><title>Node10</title>
<polygon fill="none" stroke="#bfbfbf" points="206.729,-56.5 206.729,-75.5 322.729,-75.5 322.729,-56.5 206.729,-56.5"/>
<text text-anchor="middle" x="264.729" y="-63.5" font-family="Helvetica,sans-Serif" font-size="10.00">Common/Exceptions.h</text>
</g>
<!-- Node7&#45;&gt;Node10 -->
<g id="edge9" class="edge"><title>Node7&#45;&gt;Node10</title>
<path fill="none" stroke="midnightblue" d="M266.399,-112.083C266.137,-105.006 265.761,-94.8611 265.432,-85.9865"/>
<polygon fill="midnightblue" stroke="midnightblue" points="268.921,-85.6147 265.053,-75.7511 261.926,-85.8738 268.921,-85.6147"/>
</g>
<!-- Node11 -->
<g id="node11" class="node"><title>Node11</title>
<g id="a_node11"><a xlink:href="Quality_8h.html" target="_top" xlink:title="QualityControl/Quality.h">
<polygon fill="none" stroke="black" points="341.229,-56.5 341.229,-75.5 462.229,-75.5 462.229,-56.5 341.229,-56.5"/>
<text text-anchor="middle" x="401.729" y="-63.5" font-family="Helvetica,sans-Serif" font-size="10.00">QualityControl/Quality.h</text>
</a>
</g>
</g>
<!-- Node7&#45;&gt;Node11 -->
<g id="edge10" class="edge"><title>Node7&#45;&gt;Node11</title>
<path fill="none" stroke="midnightblue" d="M288.12,-112.444C310.436,-103.517 345.632,-89.4387 370.937,-79.3168"/>
<polygon fill="midnightblue" stroke="midnightblue" points="372.453,-82.4801 380.438,-75.5164 369.853,-75.9807 372.453,-82.4801"/>
</g>
<!-- Node11&#45;&gt;Node2 -->
<g id="edge12" class="edge"><title>Node11&#45;&gt;Node2</title>
<path fill="none" stroke="midnightblue" d="M341.992,-56.4435C260.54,-44.7767 117.645,-24.309 55.2853,-15.3767"/>
<polygon fill="midnightblue" stroke="midnightblue" points="55.6937,-11.8996 45.2985,-13.9463 54.7012,-18.8289 55.6937,-11.8996"/>
</g>
<!-- Node11&#45;&gt;Node8 -->
<g id="edge13" class="edge"><title>Node11&#45;&gt;Node8</title>
<path fill="none" stroke="midnightblue" d="M401.729,-56.083C401.729,-49.0059 401.729,-38.8611 401.729,-29.9865"/>
<polygon fill="midnightblue" stroke="midnightblue" points="405.229,-29.751 401.729,-19.7511 398.229,-29.7511 405.229,-29.751"/>
</g>
<!-- Node12 -->
<g id="node12" class="node"><title>Node12</title>
<polygon fill="none" stroke="#bfbfbf" points="186.729,-0.5 186.729,-19.5 242.729,-19.5 242.729,-0.5 186.729,-0.5"/>
<text text-anchor="middle" x="214.729" y="-7.5" font-family="Helvetica,sans-Serif" font-size="10.00">Rtypes.h</text>
</g>
<!-- Node11&#45;&gt;Node12 -->
<g id="edge11" class="edge"><title>Node11&#45;&gt;Node12</title>
<path fill="none" stroke="midnightblue" d="M372.098,-56.4435C339.854,-47.1323 288.198,-32.2155 252.928,-22.0308"/>
<polygon fill="midnightblue" stroke="midnightblue" points="253.576,-18.5748 242.997,-19.1629 251.633,-25.3 253.576,-18.5748"/>
</g>
<!-- Node13&#45;&gt;Node2 -->
<g id="edge15" class="edge"><title>Node13&#45;&gt;Node2</title>
<path fill="none" stroke="midnightblue" d="M86.0485,-112.351C74.866,-104.146 58.8223,-90.8857 48.7291,-76 39.0341,-61.7016 32.6637,-42.9903 28.9389,-29.3167"/>
<polygon fill="midnightblue" stroke="midnightblue" points="32.3326,-28.4601 26.5059,-19.6114 25.5427,-30.1623 32.3326,-28.4601"/>
</g>
<!-- Node13&#45;&gt;Node8 -->
<g id="edge16" class="edge"><title>Node13&#45;&gt;Node8</title>
<path fill="none" stroke="midnightblue" d="M98.8231,-112.297C99.4817,-98.1602 102.976,-70.3491 119.729,-56 157.637,-23.5306 310.367,-14.2992 373.846,-11.8375"/>
<polygon fill="midnightblue" stroke="midnightblue" points="374.06,-15.3322 383.927,-11.4751 373.808,-8.33674 374.06,-15.3322"/>
</g>
<!-- Node13&#45;&gt;Node9 -->
<g id="edge18" class="edge"><title>Node13&#45;&gt;Node9</title>
<path fill="none" stroke="midnightblue" d="M108.369,-112.324C117.239,-104.341 130.604,-92.3128 141.337,-82.6529"/>
<polygon fill="midnightblue" stroke="midnightblue" points="143.822,-85.1251 148.914,-75.8339 139.139,-79.922 143.822,-85.1251"/>
</g>
<!-- Node13&#45;&gt;Node10 -->
<g id="edge19" class="edge"><title>Node13&#45;&gt;Node10</title>
<path fill="none" stroke="midnightblue" d="M125.032,-112.444C153.08,-103.32 197.673,-88.8133 228.913,-78.6509"/>
<polygon fill="midnightblue" stroke="midnightblue" points="230.122,-81.9383 238.549,-75.5164 227.957,-75.2816 230.122,-81.9383"/>
</g>
<!-- Node13&#45;&gt;Node12 -->
<g id="edge17" class="edge"><title>Node13&#45;&gt;Node12</title>
<path fill="none" stroke="midnightblue" d="M93.2743,-112.118C85.8144,-98.7055 74.6559,-73.0421 86.7291,-56 106.888,-27.5444 146.538,-16.9511 176.395,-13.0771"/>
<polygon fill="midnightblue" stroke="midnightblue" points="176.94,-16.5384 186.499,-11.9687 176.176,-9.58009 176.94,-16.5384"/>
</g>
</g>
</svg>
