<?xml version="1.0" encoding="UTF-8" standalone="no"?>
<!DOCTYPE svg PUBLIC "-//W3C//DTD SVG 1.1//EN"
 "http://www.w3.org/Graphics/SVG/1.1/DTD/svg11.dtd">
<!-- Generated by graphviz version 2.38.0 (20140413.2041)
 -->
<!-- Title: Framework/include/QualityControl/DatabaseFactory.h Pages: 1 -->
<svg width="1554pt" height="106pt"
 viewBox="0.00 0.00 1554.00 106.00" xmlns="http://www.w3.org/2000/svg" xmlns:xlink="http://www.w3.org/1999/xlink">
<g id="graph0" class="graph" transform="scale(1 1) rotate(0) translate(4 102)">
<title>Framework/include/QualityControl/DatabaseFactory.h</title>
<!-- Node1 -->
<g id="node1" class="node"><title>Node1</title>
<polygon fill="#bfbfbf" stroke="black" points="701,-67.5 701,-97.5 835,-97.5 835,-67.5 701,-67.5"/>
<text text-anchor="start" x="709" y="-85.5" font-family="Helvetica,sans-Serif" font-size="10.00">Framework/include/Quality</text>
<text text-anchor="middle" x="768" y="-74.5" font-family="Helvetica,sans-Serif" font-size="10.00">Control/DatabaseFactory.h</text>
</g>
<!-- Node2 -->
<g id="node2" class="node"><title>Node2</title>
<g id="a_node2"><a xlink:href="AggregatorRunner_8cxx.html" target="_top" xlink:title="Framework/src/Aggregator\lRunner.cxx">
<polygon fill="none" stroke="black" points="0,-0.5 0,-30.5 132,-30.5 132,-0.5 0,-0.5"/>
<text text-anchor="start" x="8" y="-18.5" font-family="Helvetica,sans-Serif" font-size="10.00">Framework/src/Aggregator</text>
<text text-anchor="middle" x="66" y="-7.5" font-family="Helvetica,sans-Serif" font-size="10.00">Runner.cxx</text>
</a>
</g>
</g>
<!-- Node1&#45;&gt;Node2 -->
<g id="edge1" class="edge"><title>Node1&#45;&gt;Node2</title>
<path fill="none" stroke="midnightblue" d="M690.853,-78.038C572.244,-72.0958 338.135,-57.9112 141,-31 138.109,-30.6054 135.161,-30.1715 132.188,-29.708"/>
<polygon fill="midnightblue" stroke="midnightblue" points="690.765,-81.5379 700.926,-78.5367 691.111,-74.5464 690.765,-81.5379"/>
</g>
<!-- Node3 -->
<g id="node3" class="node"><title>Node3</title>
<g id="a_node3"><a xlink:href="CheckRunner_8cxx.html" target="_top" xlink:title="Framework/src/CheckRunner.cxx">
<polygon fill="none" stroke="black" points="150,-6 150,-25 314,-25 314,-6 150,-6"/>
<text text-anchor="middle" x="232" y="-13" font-family="Helvetica,sans-Serif" font-size="10.00">Framework/src/CheckRunner.cxx</text>
</a>
</g>
</g>
<!-- Node1&#45;&gt;Node3 -->
<g id="edge2" class="edge"><title>Node1&#45;&gt;Node3</title>
<path fill="none" stroke="midnightblue" d="M690.791,-73.8034C601.938,-64.699 451.704,-48.5477 323,-31 310.002,-29.2278 295.994,-27.1033 282.957,-25.0339"/>
<polygon fill="midnightblue" stroke="midnightblue" points="690.482,-77.2899 700.786,-74.8243 691.193,-70.3262 690.482,-77.2899"/>
</g>
<!-- Node4 -->
<g id="node4" class="node"><title>Node4</title>
<g id="a_node4"><a xlink:href="DatabaseFactory_8cxx.html" target="_top" xlink:title="Framework/src/DatabaseFactory.cxx">
<polygon fill="none" stroke="black" points="332.5,-6 332.5,-25 511.5,-25 511.5,-6 332.5,-6"/>
<text text-anchor="middle" x="422" y="-13" font-family="Helvetica,sans-Serif" font-size="10.00">Framework/src/DatabaseFactory.cxx</text>
</a>
</g>
</g>
<!-- Node1&#45;&gt;Node4 -->
<g id="edge3" class="edge"><title>Node1&#45;&gt;Node4</title>
<path fill="none" stroke="midnightblue" d="M690.974,-67.0298C622.345,-54.1371 524.238,-35.7065 467.432,-25.0349"/>
<polygon fill="midnightblue" stroke="midnightblue" points="690.403,-70.4837 700.877,-68.8903 691.696,-63.6041 690.403,-70.4837"/>
</g>
<!-- Node5 -->
<g id="node5" class="node"><title>Node5</title>
<polygon fill="none" stroke="#bfbfbf" points="530,-0.5 530,-30.5 684,-30.5 684,-0.5 530,-0.5"/>
<text text-anchor="start" x="538" y="-18.5" font-family="Helvetica,sans-Serif" font-size="10.00">Framework/src/PostProcessing</text>
<text text-anchor="middle" x="607" y="-7.5" font-family="Helvetica,sans-Serif" font-size="10.00">Runner.cxx</text>
</g>
<!-- Node1&#45;&gt;Node5 -->
<g id="edge4" class="edge"><title>Node1&#45;&gt;Node5</title>
<path fill="none" stroke="midnightblue" d="M723.525,-63.5442C697.762,-53.143 665.797,-40.238 641.866,-30.5765"/>
<polygon fill="midnightblue" stroke="midnightblue" points="722.482,-66.8977 733.065,-67.396 725.103,-60.4067 722.482,-66.8977"/>
</g>
<!-- Node6 -->
<g id="node6" class="node"><title>Node6</title>
<g id="a_node6"><a xlink:href="RepositoryBenchmark_8cxx.html" target="_top" xlink:title="Framework/src/Repository\lBenchmark.cxx">
<polygon fill="none" stroke="black" points="702,-0.5 702,-30.5 834,-30.5 834,-0.5 702,-0.5"/>
<text text-anchor="start" x="710" y="-18.5" font-family="Helvetica,sans-Serif" font-size="10.00">Framework/src/Repository</text>
<text text-anchor="middle" x="768" y="-7.5" font-family="Helvetica,sans-Serif" font-size="10.00">Benchmark.cxx</text>
</a>
</g>
</g>
<!-- Node1&#45;&gt;Node6 -->
<g id="edge5" class="edge"><title>Node1&#45;&gt;Node6</title>
<path fill="none" stroke="midnightblue" d="M768,-57.1081C768,-48.1539 768,-38.3227 768,-30.5765"/>
<polygon fill="midnightblue" stroke="midnightblue" points="764.5,-57.3959 768,-67.396 771.5,-57.396 764.5,-57.3959"/>
</g>
<!-- Node7 -->
<g id="node7" class="node"><title>Node7</title>
<g id="a_node7"><a xlink:href="testCcdbDatabaseExtra_8cxx.html" target="_top" xlink:title="Framework/test/testCcdbDatabase\lExtra.cxx">
<polygon fill="none" stroke="black" points="852,-0.5 852,-30.5 1022,-30.5 1022,-0.5 852,-0.5"/>
<text text-anchor="start" x="860" y="-18.5" font-family="Helvetica,sans-Serif" font-size="10.00">Framework/test/testCcdbDatabase</text>
<text text-anchor="middle" x="937" y="-7.5" font-family="Helvetica,sans-Serif" font-size="10.00">Extra.cxx</text>
</a>
</g>
</g>
<!-- Node1&#45;&gt;Node7 -->
<g id="edge6" class="edge"><title>Node1&#45;&gt;Node7</title>
<path fill="none" stroke="midnightblue" d="M814.328,-63.6815C841.432,-53.2568 875.171,-40.2805 900.401,-30.5765"/>
<polygon fill="midnightblue" stroke="midnightblue" points="812.747,-60.5394 804.67,-67.396 815.26,-67.0728 812.747,-60.5394"/>
</g>
<!-- Node8 -->
<g id="node8" class="node"><title>Node8</title>
<g id="a_node8"><a xlink:href="testDbFactory_8cxx.html" target="_top" xlink:title="Framework/test/testDbFactory.cxx">
<polygon fill="none" stroke="black" points="1040.5,-6 1040.5,-25 1209.5,-25 1209.5,-6 1040.5,-6"/>
<text text-anchor="middle" x="1125" y="-13" font-family="Helvetica,sans-Serif" font-size="10.00">Framework/test/testDbFactory.cxx</text>
</a>
</g>
</g>
<!-- Node1&#45;&gt;Node8 -->
<g id="edge7" class="edge"><title>Node1&#45;&gt;Node8</title>
<path fill="none" stroke="midnightblue" d="M845.367,-67.4136C916.244,-54.5089 1018.87,-35.8234 1078.07,-25.0441"/>
<polygon fill="midnightblue" stroke="midnightblue" points="844.36,-64.0392 835.149,-69.274 845.614,-70.926 844.36,-64.0392"/>
</g>
<!-- Node9 -->
<g id="node9" class="node"><title>Node9</title>
<g id="a_node9"><a xlink:href="testTrendingTask_8cxx.html" target="_top" xlink:title="Framework/test/testTrending\lTask.cxx">
<polygon fill="none" stroke="black" points="1228,-0.5 1228,-30.5 1370,-30.5 1370,-0.5 1228,-0.5"/>
<text text-anchor="start" x="1236" y="-18.5" font-family="Helvetica,sans-Serif" font-size="10.00">Framework/test/testTrending</text>
<text text-anchor="middle" x="1299" y="-7.5" font-family="Helvetica,sans-Serif" font-size="10.00">Task.cxx</text>
</a>
</g>
</g>
<!-- Node1&#45;&gt;Node9 -->
<g id="edge8" class="edge"><title>Node1&#45;&gt;Node9</title>
<path fill="none" stroke="midnightblue" d="M845.159,-74.4663C935.125,-65.8934 1088.2,-50.1541 1219,-31 1221.93,-30.5705 1224.92,-30.1139 1227.94,-29.6375"/>
<polygon fill="midnightblue" stroke="midnightblue" points="844.668,-70.997 835.043,-75.4253 845.329,-77.9657 844.668,-70.997"/>
</g>
<!-- Node10 -->
<g id="node10" class="node"><title>Node10</title>
<g id="a_node10"><a xlink:href="testTriggers_8cxx.html" target="_top" xlink:title="Framework/test/testTriggers.cxx">
<polygon fill="none" stroke="black" points="1388,-6 1388,-25 1546,-25 1546,-6 1388,-6"/>
<text text-anchor="middle" x="1467" y="-13" font-family="Helvetica,sans-Serif" font-size="10.00">Framework/test/testTriggers.cxx</text>
</a>
</g>
</g>
<!-- Node1&#45;&gt;Node10 -->
<g id="edge9" class="edge"><title>Node1&#45;&gt;Node10</title>
<path fill="none" stroke="midnightblue" d="M845.298,-77.1211C961.444,-70.0874 1187.76,-54.6193 1379,-31 1392.22,-29.3678 1406.48,-27.1958 1419.6,-25.031"/>
<polygon fill="midnightblue" stroke="midnightblue" points="844.858,-73.6411 835.086,-77.7349 845.278,-80.6285 844.858,-73.6411"/>
</g>
</g>
</svg>
