<?xml version="1.0" encoding="UTF-8" standalone="no"?>
<!DOCTYPE svg PUBLIC "-//W3C//DTD SVG 1.1//EN"
 "http://www.w3.org/Graphics/SVG/1.1/DTD/svg11.dtd">
<!-- Generated by graphviz version 2.38.0 (20140413.2041)
 -->
<!-- Title: Framework/src/DataProducerExample.cxx Pages: 1 -->
<svg width="339pt" height="162pt"
 viewBox="0.00 0.00 339.00 162.00" xmlns="http://www.w3.org/2000/svg" xmlns:xlink="http://www.w3.org/1999/xlink">
<g id="graph0" class="graph" transform="scale(1 1) rotate(0) translate(4 158)">
<title>Framework/src/DataProducerExample.cxx</title>
<!-- Node1 -->
<g id="node1" class="node"><title>Node1</title>
<polygon fill="#bfbfbf" stroke="black" points="123.5,-123.5 123.5,-153.5 268.5,-153.5 268.5,-123.5 123.5,-123.5"/>
<text text-anchor="start" x="131.5" y="-141.5" font-family="Helvetica,sans-Serif" font-size="10.00">Framework/src/DataProducer</text>
<text text-anchor="middle" x="196" y="-130.5" font-family="Helvetica,sans-Serif" font-size="10.00">Example.cxx</text>
</g>
<!-- Node2 -->
<g id="node2" class="node"><title>Node2</title>
<g id="a_node2"><a xlink:href="DataProducerExample_8h.html" target="_top" xlink:title="QualityControl/DataProducer\lExample.h">
<polygon fill="none" stroke="black" points="11,-56.5 11,-86.5 153,-86.5 153,-56.5 11,-56.5"/>
<text text-anchor="start" x="19" y="-74.5" font-family="Helvetica,sans-Serif" font-size="10.00">QualityControl/DataProducer</text>
<text text-anchor="middle" x="82" y="-63.5" font-family="Helvetica,sans-Serif" font-size="10.00">Example.h</text>
</a>
</g>
</g>
<!-- Node1&#45;&gt;Node2 -->
<g id="edge1" class="edge"><title>Node1&#45;&gt;Node2</title>
<path fill="none" stroke="midnightblue" d="M171.264,-123.396C154.98,-114.112 133.459,-101.841 115.629,-91.6742"/>
<polygon fill="midnightblue" stroke="midnightblue" points="117.109,-88.4892 106.688,-86.5765 113.642,-94.5702 117.109,-88.4892"/>
</g>
<!-- Node4 -->
<g id="node4" class="node"><title>Node4</title>
<polygon fill="none" stroke="#bfbfbf" points="171.5,-62 171.5,-81 220.5,-81 220.5,-62 171.5,-62"/>
<text text-anchor="middle" x="196" y="-69" font-family="Helvetica,sans-Serif" font-size="10.00">random</text>
</g>
<!-- Node1&#45;&gt;Node4 -->
<g id="edge3" class="edge"><title>Node1&#45;&gt;Node4</title>
<path fill="none" stroke="midnightblue" d="M196,-123.396C196,-114.064 196,-101.714 196,-91.5173"/>
<polygon fill="midnightblue" stroke="midnightblue" points="199.5,-91.1945 196,-81.1945 192.5,-91.1946 199.5,-91.1945"/>
</g>
<!-- Node5 -->
<g id="node5" class="node"><title>Node5</title>
<polygon fill="none" stroke="#bfbfbf" points="239,-62 239,-81 331,-81 331,-62 239,-62"/>
<text text-anchor="middle" x="285" y="-69" font-family="Helvetica,sans-Serif" font-size="10.00">Common/Timer.h</text>
</g>
<!-- Node1&#45;&gt;Node5 -->
<g id="edge4" class="edge"><title>Node1&#45;&gt;Node5</title>
<path fill="none" stroke="midnightblue" d="M215.312,-123.396C229.96,-112.697 250.039,-98.0334 264.882,-87.193"/>
<polygon fill="midnightblue" stroke="midnightblue" points="267.341,-89.7314 273.352,-81.007 263.212,-84.0785 267.341,-89.7314"/>
</g>
<!-- Node3 -->
<g id="node3" class="node"><title>Node3</title>
<polygon fill="none" stroke="#bfbfbf" points="0,-0.5 0,-19.5 164,-19.5 164,-0.5 0,-0.5"/>
<text text-anchor="middle" x="82" y="-7.5" font-family="Helvetica,sans-Serif" font-size="10.00">Framework/DataProcessorSpec.h</text>
</g>
<!-- Node2&#45;&gt;Node3 -->
<g id="edge2" class="edge"><title>Node2&#45;&gt;Node3</title>
<path fill="none" stroke="midnightblue" d="M82,-56.3993C82,-48.4664 82,-38.458 82,-29.8583"/>
<polygon fill="midnightblue" stroke="midnightblue" points="85.5001,-29.6577 82,-19.6578 78.5001,-29.6578 85.5001,-29.6577"/>
</g>
</g>
</svg>
