<?xml version="1.0" encoding="UTF-8" standalone="no"?>
<!DOCTYPE svg PUBLIC "-//W3C//DTD SVG 1.1//EN"
 "http://www.w3.org/Graphics/SVG/1.1/DTD/svg11.dtd">
<!-- Generated by graphviz version 2.38.0 (20140413.2041)
 -->
<!-- Title: Framework/src/DataDumpGui.cxx Pages: 1 -->
<svg width="1533pt" height="162pt"
 viewBox="0.00 0.00 1532.50 162.00" xmlns="http://www.w3.org/2000/svg" xmlns:xlink="http://www.w3.org/1999/xlink">
<g id="graph0" class="graph" transform="scale(1 1) rotate(0) translate(4 158)">
<title>Framework/src/DataDumpGui.cxx</title>
<!-- Node1 -->
<g id="node1" class="node"><title>Node1</title>
<polygon fill="#bfbfbf" stroke="black" points="819,-134.5 819,-153.5 985,-153.5 985,-134.5 819,-134.5"/>
<text text-anchor="middle" x="902" y="-141.5" font-family="Helvetica,sans-Serif" font-size="10.00">Framework/src/DataDumpGui.cxx</text>
</g>
<!-- Node2 -->
<g id="node2" class="node"><title>Node2</title>
<g id="a_node2"><a xlink:href="DataDumpGui_8h.html" target="_top" xlink:title="QualityControl/DataDumpGui.h">
<polygon fill="none" stroke="black" points="276,-67.5 276,-86.5 428,-86.5 428,-67.5 276,-67.5"/>
<text text-anchor="middle" x="352" y="-74.5" font-family="Helvetica,sans-Serif" font-size="10.00">QualityControl/DataDumpGui.h</text>
</a>
</g>
</g>
<!-- Node1&#45;&gt;Node2 -->
<g id="edge1" class="edge"><title>Node1&#45;&gt;Node2</title>
<path fill="none" stroke="midnightblue" d="M818.593,-138.234C725.379,-132.137 570.178,-119.682 438,-98 423.515,-95.6239 407.833,-92.2271 393.877,-88.9056"/>
<polygon fill="midnightblue" stroke="midnightblue" points="394.606,-85.4808 384.062,-86.516 392.95,-92.2821 394.606,-85.4808"/>
</g>
<!-- Node5 -->
<g id="node5" class="node"><title>Node5</title>
<g id="a_node5"><a xlink:href="QcInfoLogger_8h.html" target="_top" xlink:title="QualityControl/QcInfoLogger.h">
<polygon fill="none" stroke="black" points="446.5,-67.5 446.5,-86.5 595.5,-86.5 595.5,-67.5 446.5,-67.5"/>
<text text-anchor="middle" x="521" y="-74.5" font-family="Helvetica,sans-Serif" font-size="10.00">QualityControl/QcInfoLogger.h</text>
</a>
</g>
</g>
<!-- Node1&#45;&gt;Node5 -->
<g id="edge4" class="edge"><title>Node1&#45;&gt;Node5</title>
<path fill="none" stroke="midnightblue" d="M835.081,-134.484C774.706,-126.415 683.58,-113.28 605,-98 591.515,-95.3777 576.92,-92.07 563.738,-88.9036"/>
<polygon fill="midnightblue" stroke="midnightblue" points="564.52,-85.4917 553.975,-86.5234 562.862,-92.2925 564.52,-85.4917"/>
</g>
<!-- Node8 -->
<g id="node8" class="node"><title>Node8</title>
<g id="a_node8"><a xlink:href="stringUtils_8h.html" target="_top" xlink:title="QualityControl/stringUtils.h">
<polygon fill="none" stroke="black" points="86,-67.5 86,-86.5 220,-86.5 220,-67.5 86,-67.5"/>
<text text-anchor="middle" x="153" y="-74.5" font-family="Helvetica,sans-Serif" font-size="10.00">QualityControl/stringUtils.h</text>
</a>
</g>
</g>
<!-- Node1&#45;&gt;Node8 -->
<g id="edge7" class="edge"><title>Node1&#45;&gt;Node8</title>
<path fill="none" stroke="midnightblue" d="M818.955,-142.058C692.127,-139.573 442.879,-130.567 234,-98 220.2,-95.8484 205.305,-92.4804 192.097,-89.1174"/>
<polygon fill="midnightblue" stroke="midnightblue" points="192.932,-85.7182 182.371,-86.5669 191.157,-92.4893 192.932,-85.7182"/>
</g>
<!-- Node11 -->
<g id="node11" class="node"><title>Node11</title>
<polygon fill="none" stroke="#bfbfbf" points="192,-0.5 192,-19.5 242,-19.5 242,-0.5 192,-0.5"/>
<text text-anchor="middle" x="217" y="-7.5" font-family="Helvetica,sans-Serif" font-size="10.00">iomanip</text>
</g>
<!-- Node1&#45;&gt;Node11 -->
<g id="edge23" class="edge"><title>Node1&#45;&gt;Node11</title>
<path fill="none" stroke="midnightblue" d="M818.796,-141.427C657.192,-137.748 312.65,-126.618 267,-98 242.227,-82.4698 228.446,-49.9085 221.891,-29.3228"/>
<polygon fill="midnightblue" stroke="midnightblue" points="225.201,-28.1691 219.036,-19.5524 218.482,-30.1327 225.201,-28.1691"/>
</g>
<!-- Node13 -->
<g id="node13" class="node"><title>Node13</title>
<polygon fill="none" stroke="#bfbfbf" points="613.5,-67.5 613.5,-86.5 702.5,-86.5 702.5,-67.5 613.5,-67.5"/>
<text text-anchor="middle" x="658" y="-74.5" font-family="Helvetica,sans-Serif" font-size="10.00">imgui/BaseGui.h</text>
</g>
<!-- Node1&#45;&gt;Node13 -->
<g id="edge13" class="edge"><title>Node1&#45;&gt;Node13</title>
<path fill="none" stroke="midnightblue" d="M859.346,-134.457C820.576,-126.325 761.97,-113.109 712,-98 704.415,-95.7064 696.35,-92.9157 688.829,-90.1557"/>
<polygon fill="midnightblue" stroke="midnightblue" points="689.935,-86.8321 679.342,-86.5893 687.471,-93.3844 689.935,-86.8321"/>
</g>
<!-- Node14 -->
<g id="node14" class="node"><title>Node14</title>
<polygon fill="none" stroke="#bfbfbf" points="720.5,-67.5 720.5,-86.5 779.5,-86.5 779.5,-67.5 720.5,-67.5"/>
<text text-anchor="middle" x="750" y="-74.5" font-family="Helvetica,sans-Serif" font-size="10.00">functional</text>
</g>
<!-- Node1&#45;&gt;Node14 -->
<g id="edge14" class="edge"><title>Node1&#45;&gt;Node14</title>
<path fill="none" stroke="midnightblue" d="M878.79,-134.495C855.756,-125.883 819.569,-111.887 789,-98 784.393,-95.9071 779.548,-93.5519 774.899,-91.212"/>
<polygon fill="midnightblue" stroke="midnightblue" points="776.266,-87.9792 765.772,-86.5193 773.065,-94.2046 776.266,-87.9792"/>
</g>
<!-- Node15 -->
<g id="node15" class="node"><title>Node15</title>
<polygon fill="none" stroke="#bfbfbf" points="798,-67.5 798,-86.5 872,-86.5 872,-67.5 798,-67.5"/>
<text text-anchor="middle" x="835" y="-74.5" font-family="Helvetica,sans-Serif" font-size="10.00">imgui/imgui.h</text>
</g>
<!-- Node1&#45;&gt;Node15 -->
<g id="edge15" class="edge"><title>Node1&#45;&gt;Node15</title>
<path fill="none" stroke="midnightblue" d="M892.964,-134.234C882.315,-123.903 864.415,-106.537 851.319,-93.8315"/>
<polygon fill="midnightblue" stroke="midnightblue" points="853.507,-91.0784 843.893,-86.6273 848.633,-96.1026 853.507,-91.0784"/>
</g>
<!-- Node16 -->
<g id="node16" class="node"><title>Node16</title>
<polygon fill="none" stroke="#bfbfbf" points="890.5,-56.5 890.5,-97.5 1049.5,-97.5 1049.5,-56.5 890.5,-56.5"/>
<text text-anchor="start" x="898.5" y="-85.5" font-family="Helvetica,sans-Serif" font-size="10.00">/home/travis/build</text>
<text text-anchor="start" x="898.5" y="-74.5" font-family="Helvetica,sans-Serif" font-size="10.00">/AliceO2Group/QualityControl</text>
<text text-anchor="middle" x="970" y="-63.5" font-family="Helvetica,sans-Serif" font-size="10.00">/Framework/src/imgui/imconfig.h</text>
</g>
<!-- Node1&#45;&gt;Node16 -->
<g id="edge16" class="edge"><title>Node1&#45;&gt;Node16</title>
<path fill="none" stroke="midnightblue" d="M911.171,-134.234C919.124,-126.632 931.061,-115.221 942.109,-104.66"/>
<polygon fill="midnightblue" stroke="midnightblue" points="944.746,-106.982 949.556,-97.5421 939.909,-101.922 944.746,-106.982"/>
</g>
<!-- Node17 -->
<g id="node17" class="node"><title>Node17</title>
<polygon fill="none" stroke="#bfbfbf" points="1067,-67.5 1067,-86.5 1111,-86.5 1111,-67.5 1067,-67.5"/>
<text text-anchor="middle" x="1089" y="-74.5" font-family="Helvetica,sans-Serif" font-size="10.00">float.h</text>
</g>
<!-- Node1&#45;&gt;Node17 -->
<g id="edge17" class="edge"><title>Node1&#45;&gt;Node17</title>
<path fill="none" stroke="midnightblue" d="M944.919,-134.47C977.216,-127.164 1022.08,-115.094 1059,-98 1062.5,-96.3794 1066.05,-94.3801 1069.43,-92.2783"/>
<polygon fill="midnightblue" stroke="midnightblue" points="1071.45,-95.1396 1077.81,-86.6651 1067.55,-89.3245 1071.45,-95.1396"/>
</g>
<!-- Node18 -->
<g id="node18" class="node"><title>Node18</title>
<polygon fill="none" stroke="#bfbfbf" points="1129,-67.5 1129,-86.5 1181,-86.5 1181,-67.5 1129,-67.5"/>
<text text-anchor="middle" x="1155" y="-74.5" font-family="Helvetica,sans-Serif" font-size="10.00">stdarg.h</text>
</g>
<!-- Node1&#45;&gt;Node18 -->
<g id="edge18" class="edge"><title>Node1&#45;&gt;Node18</title>
<path fill="none" stroke="midnightblue" d="M970.828,-134.479C1014.53,-127.693 1071.74,-116.24 1120,-98 1124.47,-96.3121 1129.04,-94.1035 1133.34,-91.7717"/>
<polygon fill="midnightblue" stroke="midnightblue" points="1135.3,-94.6784 1142.19,-86.6243 1131.78,-88.6279 1135.3,-94.6784"/>
</g>
<!-- Node19 -->
<g id="node19" class="node"><title>Node19</title>
<polygon fill="none" stroke="#bfbfbf" points="1199,-67.5 1199,-86.5 1251,-86.5 1251,-67.5 1199,-67.5"/>
<text text-anchor="middle" x="1225" y="-74.5" font-family="Helvetica,sans-Serif" font-size="10.00">stddef.h</text>
</g>
<!-- Node1&#45;&gt;Node19 -->
<g id="edge19" class="edge"><title>Node1&#45;&gt;Node19</title>
<path fill="none" stroke="midnightblue" d="M985.253,-138.03C1043.84,-132.613 1123.38,-121.348 1190,-98 1194.58,-96.3943 1199.25,-94.19 1203.62,-91.8296"/>
<polygon fill="midnightblue" stroke="midnightblue" points="1205.71,-94.6609 1212.57,-86.5846 1202.17,-88.6217 1205.71,-94.6609"/>
</g>
<!-- Node20 -->
<g id="node20" class="node"><title>Node20</title>
<polygon fill="none" stroke="#bfbfbf" points="1269.5,-67.5 1269.5,-86.5 1318.5,-86.5 1318.5,-67.5 1269.5,-67.5"/>
<text text-anchor="middle" x="1294" y="-74.5" font-family="Helvetica,sans-Serif" font-size="10.00">string.h</text>
</g>
<!-- Node1&#45;&gt;Node20 -->
<g id="edge20" class="edge"><title>Node1&#45;&gt;Node20</title>
<path fill="none" stroke="midnightblue" d="M985.168,-142.019C1059.12,-138.947 1169.28,-128.91 1260,-98 1264.5,-96.4677 1269.05,-94.2972 1273.31,-91.9468"/>
<polygon fill="midnightblue" stroke="midnightblue" points="1275.25,-94.8626 1281.99,-86.6922 1271.63,-88.8731 1275.25,-94.8626"/>
</g>
<!-- Node21 -->
<g id="node21" class="node"><title>Node21</title>
<polygon fill="none" stroke="#bfbfbf" points="1337,-67.5 1337,-86.5 1389,-86.5 1389,-67.5 1337,-67.5"/>
<text text-anchor="middle" x="1363" y="-74.5" font-family="Helvetica,sans-Serif" font-size="10.00">assert.h</text>
</g>
<!-- Node1&#45;&gt;Node21 -->
<g id="edge21" class="edge"><title>Node1&#45;&gt;Node21</title>
<path fill="none" stroke="midnightblue" d="M985.262,-138.281C1090.75,-131.598 1266.25,-117.93 1328,-98 1332.82,-96.4429 1337.72,-94.1657 1342.26,-91.7005"/>
<polygon fill="midnightblue" stroke="midnightblue" points="1344.13,-94.6595 1350.95,-86.547 1340.56,-88.6392 1344.13,-94.6595"/>
</g>
<!-- Node22 -->
<g id="node22" class="node"><title>Node22</title>
<polygon fill="none" stroke="#bfbfbf" points="1407.5,-67.5 1407.5,-86.5 1524.5,-86.5 1524.5,-67.5 1407.5,-67.5"/>
<text text-anchor="middle" x="1466" y="-74.5" font-family="Helvetica,sans-Serif" font-size="10.00">Headers/DataHeader.h</text>
</g>
<!-- Node1&#45;&gt;Node22 -->
<g id="edge22" class="edge"><title>Node1&#45;&gt;Node22</title>
<path fill="none" stroke="midnightblue" d="M985.184,-140.416C1084.28,-136.199 1254.46,-125.348 1398,-98 1408.99,-95.9057 1420.76,-92.7756 1431.36,-89.6098"/>
<polygon fill="midnightblue" stroke="midnightblue" points="1432.58,-92.8951 1441.1,-86.5963 1430.51,-86.2076 1432.58,-92.8951"/>
</g>
<!-- Node3 -->
<g id="node3" class="node"><title>Node3</title>
<polygon fill="none" stroke="#bfbfbf" points="260.5,-0.5 260.5,-19.5 301.5,-19.5 301.5,-0.5 260.5,-0.5"/>
<text text-anchor="middle" x="281" y="-7.5" font-family="Helvetica,sans-Serif" font-size="10.00">string</text>
</g>
<!-- Node2&#45;&gt;Node3 -->
<g id="edge2" class="edge"><title>Node2&#45;&gt;Node3</title>
<path fill="none" stroke="midnightblue" d="M342.425,-67.2338C331.034,-56.8055 311.813,-39.2088 297.901,-26.4732"/>
<polygon fill="midnightblue" stroke="midnightblue" points="300.163,-23.7983 290.424,-19.6273 295.436,-28.9614 300.163,-23.7983"/>
</g>
<!-- Node4 -->
<g id="node4" class="node"><title>Node4</title>
<polygon fill="none" stroke="#bfbfbf" points="320,-0.5 320,-19.5 438,-19.5 438,-0.5 320,-0.5"/>
<text text-anchor="middle" x="379" y="-7.5" font-family="Helvetica,sans-Serif" font-size="10.00">fairmq/FairMQDevice.h</text>
</g>
<!-- Node2&#45;&gt;Node4 -->
<g id="edge3" class="edge"><title>Node2&#45;&gt;Node4</title>
<path fill="none" stroke="midnightblue" d="M355.641,-67.2338C359.69,-57.4877 366.339,-41.4805 371.51,-29.0318"/>
<polygon fill="midnightblue" stroke="midnightblue" points="374.812,-30.2049 375.416,-19.6273 368.348,-27.5196 374.812,-30.2049"/>
</g>
<!-- Node6 -->
<g id="node6" class="node"><title>Node6</title>
<polygon fill="none" stroke="#bfbfbf" points="456,-0.5 456,-19.5 586,-19.5 586,-0.5 456,-0.5"/>
<text text-anchor="middle" x="521" y="-7.5" font-family="Helvetica,sans-Serif" font-size="10.00">InfoLogger/InfoLogger.hxx</text>
</g>
<!-- Node5&#45;&gt;Node6 -->
<g id="edge5" class="edge"><title>Node5&#45;&gt;Node6</title>
<path fill="none" stroke="midnightblue" d="M521,-67.2338C521,-57.6826 521,-42.1183 521,-29.7829"/>
<polygon fill="midnightblue" stroke="midnightblue" points="524.5,-29.6273 521,-19.6273 517.5,-29.6273 524.5,-29.6273"/>
</g>
<!-- Node7 -->
<g id="node7" class="node"><title>Node7</title>
<polygon fill="none" stroke="#bfbfbf" points="604,-0.5 604,-19.5 766,-19.5 766,-0.5 604,-0.5"/>
<text text-anchor="middle" x="685" y="-7.5" font-family="Helvetica,sans-Serif" font-size="10.00">InfoLogger/InfoLoggerMacros.hxx</text>
</g>
<!-- Node5&#45;&gt;Node7 -->
<g id="edge6" class="edge"><title>Node5&#45;&gt;Node7</title>
<path fill="none" stroke="midnightblue" d="M542.778,-67.3685C571.283,-56.0706 621.428,-36.1961 653.92,-23.3183"/>
<polygon fill="midnightblue" stroke="midnightblue" points="655.386,-26.5021 663.393,-19.5637 652.807,-19.9945 655.386,-26.5021"/>
</g>
<!-- Node8&#45;&gt;Node3 -->
<g id="edge8" class="edge"><title>Node8&#45;&gt;Node3</title>
<path fill="none" stroke="midnightblue" d="M169.997,-67.3685C191.706,-56.3447 229.494,-37.1554 254.873,-24.2678"/>
<polygon fill="midnightblue" stroke="midnightblue" points="256.601,-27.3157 263.932,-19.6672 253.431,-21.0743 256.601,-27.3157"/>
</g>
<!-- Node9 -->
<g id="node9" class="node"><title>Node9</title>
<polygon fill="none" stroke="#bfbfbf" points="0,-0.5 0,-19.5 52,-19.5 52,-0.5 0,-0.5"/>
<text text-anchor="middle" x="26" y="-7.5" font-family="Helvetica,sans-Serif" font-size="10.00">sstream</text>
</g>
<!-- Node8&#45;&gt;Node9 -->
<g id="edge9" class="edge"><title>Node8&#45;&gt;Node9</title>
<path fill="none" stroke="midnightblue" d="M136.135,-67.3685C114.597,-56.3447 77.1037,-37.1554 51.9232,-24.2678"/>
<polygon fill="midnightblue" stroke="midnightblue" points="53.4308,-21.1077 42.9344,-19.6672 50.2416,-27.3389 53.4308,-21.1077"/>
</g>
<!-- Node10 -->
<g id="node10" class="node"><title>Node10</title>
<polygon fill="none" stroke="#bfbfbf" points="70,-0.5 70,-19.5 114,-19.5 114,-0.5 70,-0.5"/>
<text text-anchor="middle" x="92" y="-7.5" font-family="Helvetica,sans-Serif" font-size="10.00">vector</text>
</g>
<!-- Node8&#45;&gt;Node10 -->
<g id="edge10" class="edge"><title>Node8&#45;&gt;Node10</title>
<path fill="none" stroke="midnightblue" d="M144.773,-67.2338C135.17,-57.0004 119.088,-39.8642 107.196,-27.1924"/>
<polygon fill="midnightblue" stroke="midnightblue" points="109.492,-24.5241 100.096,-19.6273 104.387,-29.3143 109.492,-24.5241"/>
</g>
<!-- Node8&#45;&gt;Node11 -->
<g id="edge11" class="edge"><title>Node8&#45;&gt;Node11</title>
<path fill="none" stroke="midnightblue" d="M161.631,-67.2338C171.803,-56.903 188.902,-39.5371 201.412,-26.8315"/>
<polygon fill="midnightblue" stroke="midnightblue" points="203.983,-29.2086 208.505,-19.6273 198.995,-24.2974 203.983,-29.2086"/>
</g>
<!-- Node12 -->
<g id="node12" class="node"><title>Node12</title>
<polygon fill="none" stroke="#bfbfbf" points="132.5,-0.5 132.5,-19.5 173.5,-19.5 173.5,-0.5 132.5,-0.5"/>
<text text-anchor="middle" x="153" y="-7.5" font-family="Helvetica,sans-Serif" font-size="10.00">bitset</text>
</g>
<!-- Node8&#45;&gt;Node12 -->
<g id="edge12" class="edge"><title>Node8&#45;&gt;Node12</title>
<path fill="none" stroke="midnightblue" d="M153,-67.2338C153,-57.6826 153,-42.1183 153,-29.7829"/>
<polygon fill="midnightblue" stroke="midnightblue" points="156.5,-29.6273 153,-19.6273 149.5,-29.6273 156.5,-29.6273"/>
</g>
</g>
</svg>
