<?xml version="1.0" encoding="UTF-8" standalone="no"?>
<!DOCTYPE svg PUBLIC "-//W3C//DTD SVG 1.1//EN"
 "http://www.w3.org/Graphics/SVG/1.1/DTD/svg11.dtd">
<!-- Generated by graphviz version 2.38.0 (20140413.2041)
 -->
<!-- Title: Modules/MUON/MCH/include/MCH/Decoding.h Pages: 1 -->
<svg width="304pt" height="173pt"
 viewBox="0.00 0.00 303.50 173.00" xmlns="http://www.w3.org/2000/svg" xmlns:xlink="http://www.w3.org/1999/xlink">
<g id="graph0" class="graph" transform="scale(1 1) rotate(0) translate(4 169)">
<title>Modules/MUON/MCH/include/MCH/Decoding.h</title>
<!-- Node1 -->
<g id="node1" class="node"><title>Node1</title>
<polygon fill="#bfbfbf" stroke="black" points="78,-134.5 78,-164.5 225,-164.5 225,-134.5 78,-134.5"/>
<text text-anchor="start" x="86" y="-152.5" font-family="Helvetica,sans-Serif" font-size="10.00">Modules/MUON/MCH/include</text>
<text text-anchor="middle" x="151.5" y="-141.5" font-family="Helvetica,sans-Serif" font-size="10.00">/MCH/Decoding.h</text>
</g>
<!-- Node2 -->
<g id="node2" class="node"><title>Node2</title>
<g id="a_node2"><a xlink:href="PedestalsTask_8h.html" target="_top" xlink:title="Modules/MUON/MCH/include\l/MCH/PedestalsTask.h">
<polygon fill="none" stroke="black" points="0,-67.5 0,-97.5 147,-97.5 147,-67.5 0,-67.5"/>
<text text-anchor="start" x="8" y="-85.5" font-family="Helvetica,sans-Serif" font-size="10.00">Modules/MUON/MCH/include</text>
<text text-anchor="middle" x="73.5" y="-74.5" font-family="Helvetica,sans-Serif" font-size="10.00">/MCH/PedestalsTask.h</text>
</a>
</g>
</g>
<!-- Node1&#45;&gt;Node2 -->
<g id="edge1" class="edge"><title>Node1&#45;&gt;Node2</title>
<path fill="none" stroke="midnightblue" d="M126.76,-127.883C114.907,-118.005 101.015,-106.429 90.3918,-97.5765"/>
<polygon fill="midnightblue" stroke="midnightblue" points="124.652,-130.683 134.575,-134.396 129.134,-125.305 124.652,-130.683"/>
</g>
<!-- Node4 -->
<g id="node4" class="node"><title>Node4</title>
<g id="a_node4"><a xlink:href="Decoding_8cxx.html" target="_top" xlink:title="Modules/MUON/MCH/src\l/Decoding.cxx">
<polygon fill="none" stroke="black" points="165.5,-67.5 165.5,-97.5 295.5,-97.5 295.5,-67.5 165.5,-67.5"/>
<text text-anchor="start" x="173.5" y="-85.5" font-family="Helvetica,sans-Serif" font-size="10.00">Modules/MUON/MCH/src</text>
<text text-anchor="middle" x="230.5" y="-74.5" font-family="Helvetica,sans-Serif" font-size="10.00">/Decoding.cxx</text>
</a>
</g>
</g>
<!-- Node1&#45;&gt;Node4 -->
<g id="edge3" class="edge"><title>Node1&#45;&gt;Node4</title>
<path fill="none" stroke="midnightblue" d="M176.557,-127.883C188.563,-118.005 202.632,-106.429 213.392,-97.5765"/>
<polygon fill="midnightblue" stroke="midnightblue" points="174.14,-125.34 168.642,-134.396 178.588,-130.745 174.14,-125.34"/>
</g>
<!-- Node3 -->
<g id="node3" class="node"><title>Node3</title>
<g id="a_node3"><a xlink:href="PedestalsTask_8cxx.html" target="_top" xlink:title="Modules/MUON/MCH/src\l/PedestalsTask.cxx">
<polygon fill="none" stroke="black" points="8.5,-0.5 8.5,-30.5 138.5,-30.5 138.5,-0.5 8.5,-0.5"/>
<text text-anchor="start" x="16.5" y="-18.5" font-family="Helvetica,sans-Serif" font-size="10.00">Modules/MUON/MCH/src</text>
<text text-anchor="middle" x="73.5" y="-7.5" font-family="Helvetica,sans-Serif" font-size="10.00">/PedestalsTask.cxx</text>
</a>
</g>
</g>
<!-- Node2&#45;&gt;Node3 -->
<g id="edge2" class="edge"><title>Node2&#45;&gt;Node3</title>
<path fill="none" stroke="midnightblue" d="M73.5,-57.1081C73.5,-48.1539 73.5,-38.3227 73.5,-30.5765"/>
<polygon fill="midnightblue" stroke="midnightblue" points="70.0001,-57.3959 73.5,-67.396 77.0001,-57.396 70.0001,-57.3959"/>
</g>
</g>
</svg>
