<?xml version="1.0" encoding="UTF-8" standalone="no"?>
<!DOCTYPE svg PUBLIC "-//W3C//DTD SVG 1.1//EN"
 "http://www.w3.org/Graphics/SVG/1.1/DTD/svg11.dtd">
<!-- Generated by graphviz version 2.38.0 (20140413.2041)
 -->
<!-- Title: Modules/MUON/MCH/src/Decoding.cxx Pages: 1 -->
<!--zoomable 397 -->
<svg id="main" version="1.1" xmlns="http://www.w3.org/2000/svg" xmlns:xlink="http://www.w3.org/1999/xlink" xml:space="preserve" onload="init(evt)">
<style type="text/css"><![CDATA[
.edge:hover path { stroke: red; }
.edge:hover polygon { stroke: red; fill: red; }
]]></style>
<script type="text/javascript"><![CDATA[
var edges = document.getElementsByTagName('g');
if (edges && edges.length) {
  for (var i=0;i<edges.length;i++) {
    if (edges[i].id.substr(0,4)=='edge') {
      edges[i].setAttribute('class','edge');
    }
  }
}
]]></script>
        <defs>
                <circle id="rim" cx="0" cy="0" r="7"/>
                <circle id="rim2" cx="0" cy="0" r="3.5"/>
                <g id="zoomPlus">
                        <use xlink:href="#rim" fill="#404040">
                                <set attributeName="fill" to="#808080" begin="zoomplus.mouseover" end="zoomplus.mouseout"/>
                        </use>
                        <path d="M-4,0h8M0,-4v8" fill="none" stroke="white" stroke-width="1.5" pointer-events="none"/>
                </g>
                <g id="zoomMin">
                        <use xlink:href="#rim" fill="#404040">
                                <set attributeName="fill" to="#808080" begin="zoomminus.mouseover" end="zoomminus.mouseout"/>
                        </use>
                        <path d="M-4,0h8" fill="none" stroke="white" stroke-width="1.5" pointer-events="none"/>
                </g>
                <g id="dirArrow">
                        <path fill="none" stroke="white" stroke-width="1.5" d="M0,-3.0v7 M-2.5,-0.5L0,-3.0L2.5,-0.5"/>
                </g>
               <g id="resetDef">
                       <use xlink:href="#rim2" fill="#404040">
                               <set attributeName="fill" to="#808080" begin="reset.mouseover" end="reset.mouseout"/>
                       </use>
               </g>
        </defs>

<script type="text/javascript">
var viewWidth = 1728;
var viewHeight = 397;
var sectionId = 'dynsection-0';
</script>
<script xlink:href="svgpan.js"/>
<svg id="graph" class="graph">
<g id="viewport">
<title>Modules/MUON/MCH/src/Decoding.cxx</title>
<!-- Node1 -->
<g id="node1" class="node"><title>Node1</title>
<polygon fill="#bfbfbf" stroke="black" points="416.5,-358.5 416.5,-388.5 546.5,-388.5 546.5,-358.5 416.5,-358.5"/>
<text text-anchor="start" x="424.5" y="-376.5" font-family="Helvetica,sans-Serif" font-size="10.00">Modules/MUON/MCH/src</text>
<text text-anchor="middle" x="481.5" y="-365.5" font-family="Helvetica,sans-Serif" font-size="10.00">/Decoding.cxx</text>
</g>
<!-- Node2 -->
<g id="node2" class="node"><title>Node2</title>
<polygon fill="none" stroke="#bfbfbf" points="0,-302.5 0,-321.5 65,-321.5 65,-302.5 0,-302.5"/>
<text text-anchor="middle" x="32.5" y="-309.5" font-family="Helvetica,sans-Serif" font-size="10.00">TCanvas.h</text>
</g>
<!-- Node1&#45;&gt;Node2 -->
<g id="edge1" class="edge"><title>Node1&#45;&gt;Node2</title>
<path fill="none" stroke="midnightblue" d="M416.394,-366.199C337.866,-358.202 201.69,-343.065 74.8948,-321.924"/>
<polygon fill="midnightblue" stroke="midnightblue" points="75.4474,-318.468 65.0052,-320.26 74.2856,-325.371 75.4474,-318.468"/>
</g>
<!-- Node3 -->
<g id="node3" class="node"><title>Node3</title>
<polygon fill="none" stroke="#bfbfbf" points="83.5,-302.5 83.5,-321.5 127.5,-321.5 127.5,-302.5 83.5,-302.5"/>
<text text-anchor="middle" x="105.5" y="-309.5" font-family="Helvetica,sans-Serif" font-size="10.00">TH1.h</text>
</g>
<!-- Node1&#45;&gt;Node3 -->
<g id="edge2" class="edge"><title>Node1&#45;&gt;Node3</title>
<path fill="none" stroke="midnightblue" d="M416.484,-365.679C348.949,-357.988 240.132,-343.898 137.653,-322.002"/>
<polygon fill="midnightblue" stroke="midnightblue" points="138.272,-318.554 127.757,-319.858 136.79,-325.396 138.272,-318.554"/>
</g>
<!-- Node4 -->
<g id="node4" class="node"><title>Node4</title>
<polygon fill="none" stroke="#bfbfbf" points="145.5,-302.5 145.5,-321.5 189.5,-321.5 189.5,-302.5 145.5,-302.5"/>
<text text-anchor="middle" x="167.5" y="-309.5" font-family="Helvetica,sans-Serif" font-size="10.00">TH2.h</text>
</g>
<!-- Node1&#45;&gt;Node4 -->
<g id="edge3" class="edge"><title>Node1&#45;&gt;Node4</title>
<path fill="none" stroke="midnightblue" d="M416.456,-362.689C361.307,-353.952 279.961,-340.081 199.602,-321.821"/>
<polygon fill="midnightblue" stroke="midnightblue" points="200.338,-318.399 189.809,-319.572 198.772,-325.221 200.338,-318.399"/>
</g>
<!-- Node5 -->
<g id="node5" class="node"><title>Node5</title>
<polygon fill="none" stroke="#bfbfbf" points="208,-302.5 208,-321.5 349,-321.5 349,-302.5 208,-302.5"/>
<text text-anchor="middle" x="278.5" y="-309.5" font-family="Helvetica,sans-Serif" font-size="10.00">Headers/RAWDataHeader.h</text>
</g>
<!-- Node1&#45;&gt;Node5 -->
<g id="edge4" class="edge"><title>Node1&#45;&gt;Node5</title>
<path fill="none" stroke="midnightblue" d="M433.649,-358.475C398.168,-348.075 350.414,-334.078 317.299,-324.372"/>
<polygon fill="midnightblue" stroke="midnightblue" points="318.102,-320.96 307.522,-321.506 316.134,-327.678 318.102,-320.96"/>
</g>
<!-- Node6 -->
<g id="node6" class="node"><title>Node6</title>
<polygon fill="none" stroke="#bfbfbf" points="367.5,-302.5 367.5,-321.5 501.5,-321.5 501.5,-302.5 367.5,-302.5"/>
<text text-anchor="middle" x="434.5" y="-309.5" font-family="Helvetica,sans-Serif" font-size="10.00">DetectorsRaw/RDHUtils.h</text>
</g>
<!-- Node1&#45;&gt;Node6 -->
<g id="edge5" class="edge"><title>Node1&#45;&gt;Node6</title>
<path fill="none" stroke="midnightblue" d="M470.362,-358.399C463.532,-349.753 454.755,-338.642 447.594,-329.576"/>
<polygon fill="midnightblue" stroke="midnightblue" points="450.284,-327.335 441.339,-321.658 444.791,-331.674 450.284,-327.335"/>
</g>
<!-- Node7 -->
<g id="node7" class="node"><title>Node7</title>
<g id="a_node7"><a xlink:href="QcInfoLogger_8h.html" target="_top" xlink:title="QualityControl/QcInfoLogger.h">
<polygon fill="none" stroke="black" points="419,-123.5 419,-142.5 568,-142.5 568,-123.5 419,-123.5"/>
<text text-anchor="middle" x="493.5" y="-130.5" font-family="Helvetica,sans-Serif" font-size="10.00">QualityControl/QcInfoLogger.h</text>
</a>
</g>
</g>
<!-- Node1&#45;&gt;Node7 -->
<g id="edge6" class="edge"><title>Node1&#45;&gt;Node7</title>
<path fill="none" stroke="midnightblue" d="M492.307,-358.372C498.994,-348.708 506.957,-335.285 510.5,-322 526.586,-261.688 509.325,-187.052 499.434,-152.794"/>
<polygon fill="midnightblue" stroke="midnightblue" points="502.659,-151.366 496.421,-142.803 495.957,-153.387 502.659,-151.366"/>
</g>
<!-- Node10 -->
<g id="node10" class="node"><title>Node10</title>
<g id="a_node10"><a xlink:href="Decoding_8h.html" target="_top" xlink:title="MCH/Decoding.h">
<polygon fill="none" stroke="black" points="557.5,-302.5 557.5,-321.5 649.5,-321.5 649.5,-302.5 557.5,-302.5"/>
<text text-anchor="middle" x="603.5" y="-309.5" font-family="Helvetica,sans-Serif" font-size="10.00">MCH/Decoding.h</text>
</a>
</g>
</g>
<!-- Node1&#45;&gt;Node10 -->
<g id="edge9" class="edge"><title>Node1&#45;&gt;Node10</title>
<path fill="none" stroke="midnightblue" d="M510.412,-358.399C530.516,-348.595 557.121,-335.619 576.738,-326.052"/>
<polygon fill="midnightblue" stroke="midnightblue" points="578.294,-329.187 585.748,-321.658 575.226,-322.896 578.294,-329.187"/>
</g>
<!-- Node32 -->
<g id="node32" class="node"><title>Node32</title>
<polygon fill="none" stroke="#bfbfbf" points="836.5,-246.5 836.5,-265.5 930.5,-265.5 930.5,-246.5 836.5,-246.5"/>
<text text-anchor="middle" x="883.5" y="-253.5" font-family="Helvetica,sans-Serif" font-size="10.00">MCHBase/Digit.h</text>
</g>
<!-- Node1&#45;&gt;Node32 -->
<g id="edge40" class="edge"><title>Node1&#45;&gt;Node32</title>
<path fill="none" stroke="midnightblue" d="M542.341,-358.456C576.974,-349.645 620.83,-337.099 658.5,-322 676.215,-314.9 678.64,-308.729 696.5,-302 738.772,-286.073 788.588,-274.413 826.169,-266.958"/>
<polygon fill="midnightblue" stroke="midnightblue" points="827.279,-270.308 836.429,-264.966 825.945,-263.436 827.279,-270.308"/>
</g>
<!-- Node33 -->
<g id="node33" class="node"><title>Node33</title>
<polygon fill="none" stroke="#bfbfbf" points="705.5,-302.5 705.5,-321.5 761.5,-321.5 761.5,-302.5 705.5,-302.5"/>
<text text-anchor="middle" x="733.5" y="-309.5" font-family="Helvetica,sans-Serif" font-size="10.00">cinttypes</text>
</g>
<!-- Node1&#45;&gt;Node33 -->
<g id="edge41" class="edge"><title>Node1&#45;&gt;Node33</title>
<path fill="none" stroke="midnightblue" d="M540.901,-358.475C588.657,-347.199 654.323,-331.694 695.318,-322.015"/>
<polygon fill="midnightblue" stroke="midnightblue" points="696.255,-325.39 705.183,-319.686 694.647,-318.578 696.255,-325.39"/>
</g>
<!-- Node34 -->
<g id="node34" class="node"><title>Node34</title>
<polygon fill="none" stroke="#bfbfbf" points="779.5,-302.5 779.5,-321.5 829.5,-321.5 829.5,-302.5 779.5,-302.5"/>
<text text-anchor="middle" x="804.5" y="-309.5" font-family="Helvetica,sans-Serif" font-size="10.00">fstream</text>
</g>
<!-- Node1&#45;&gt;Node34 -->
<g id="edge42" class="edge"><title>Node1&#45;&gt;Node34</title>
<path fill="none" stroke="midnightblue" d="M546.662,-362.75C603.145,-353.926 687.248,-339.897 769.312,-322.113"/>
<polygon fill="midnightblue" stroke="midnightblue" points="770.287,-325.483 779.308,-319.926 768.79,-318.645 770.287,-325.483"/>
</g>
<!-- Node8 -->
<g id="node8" class="node"><title>Node8</title>
<polygon fill="none" stroke="#bfbfbf" points="260.5,-62 260.5,-81 390.5,-81 390.5,-62 260.5,-62"/>
<text text-anchor="middle" x="325.5" y="-69" font-family="Helvetica,sans-Serif" font-size="10.00">InfoLogger/InfoLogger.hxx</text>
</g>
<!-- Node7&#45;&gt;Node8 -->
<g id="edge7" class="edge"><title>Node7&#45;&gt;Node8</title>
<path fill="none" stroke="midnightblue" d="M469.43,-123.475C440.487,-113.225 391.738,-95.9593 359.098,-84.3994"/>
<polygon fill="midnightblue" stroke="midnightblue" points="360.12,-81.0484 349.526,-81.0091 357.783,-87.6468 360.12,-81.0484"/>
</g>
<!-- Node9 -->
<g id="node9" class="node"><title>Node9</title>
<polygon fill="none" stroke="#bfbfbf" points="408.5,-62 408.5,-81 570.5,-81 570.5,-62 408.5,-62"/>
<text text-anchor="middle" x="489.5" y="-69" font-family="Helvetica,sans-Serif" font-size="10.00">InfoLogger/InfoLoggerMacros.hxx</text>
</g>
<!-- Node7&#45;&gt;Node9 -->
<g id="edge8" class="edge"><title>Node7&#45;&gt;Node9</title>
<path fill="none" stroke="midnightblue" d="M492.927,-123.475C492.363,-115.08 491.482,-101.981 490.755,-91.1631"/>
<polygon fill="midnightblue" stroke="midnightblue" points="494.235,-90.7518 490.072,-81.0091 487.251,-91.2214 494.235,-90.7518"/>
</g>
<!-- Node11 -->
<g id="node11" class="node"><title>Node11</title>
<g id="a_node11"><a xlink:href="TaskInterface_8h.html" target="_top" xlink:title="QualityControl/TaskInterface.h">
<polygon fill="none" stroke="black" points="690.5,-185 690.5,-204 840.5,-204 840.5,-185 690.5,-185"/>
<text text-anchor="middle" x="765.5" y="-192" font-family="Helvetica,sans-Serif" font-size="10.00">QualityControl/TaskInterface.h</text>
</a>
</g>
</g>
<!-- Node10&#45;&gt;Node11 -->
<g id="edge10" class="edge"><title>Node10&#45;&gt;Node11</title>
<path fill="none" stroke="midnightblue" d="M615.565,-302.371C632.985,-289.913 666.2,-266.171 694.5,-246 711.475,-233.9 730.75,-220.193 744.928,-210.116"/>
<polygon fill="midnightblue" stroke="midnightblue" points="747.311,-212.716 753.435,-204.071 743.256,-207.01 747.311,-212.716"/>
</g>
<!-- Node29 -->
<g id="node29" class="node"><title>Node29</title>
<g id="a_node29"><a xlink:href="sampa__header_8h_source.html" target="_top" xlink:title="MCH/sampa_header.h">
<polygon fill="none" stroke="black" points="703,-246.5 703,-265.5 818,-265.5 818,-246.5 703,-246.5"/>
<text text-anchor="middle" x="760.5" y="-253.5" font-family="Helvetica,sans-Serif" font-size="10.00">MCH/sampa_header.h</text>
</a>
</g>
</g>
<!-- Node10&#45;&gt;Node29 -->
<g id="edge35" class="edge"><title>Node10&#45;&gt;Node29</title>
<path fill="none" stroke="midnightblue" d="M628.377,-302.444C654.789,-293.359 696.715,-278.939 726.242,-268.783"/>
<polygon fill="midnightblue" stroke="midnightblue" points="727.421,-272.079 735.739,-265.516 725.145,-265.459 727.421,-272.079"/>
</g>
<!-- Node30 -->
<g id="node30" class="node"><title>Node30</title>
<g id="a_node30"><a xlink:href="Mapping_8h_source.html" target="_top" xlink:title="MCH/Mapping.h">
<polygon fill="none" stroke="black" points="558.5,-246.5 558.5,-265.5 646.5,-265.5 646.5,-246.5 558.5,-246.5"/>
<text text-anchor="middle" x="602.5" y="-253.5" font-family="Helvetica,sans-Serif" font-size="10.00">MCH/Mapping.h</text>
</a>
</g>
</g>
<!-- Node10&#45;&gt;Node30 -->
<g id="edge36" class="edge"><title>Node10&#45;&gt;Node30</title>
<path fill="none" stroke="midnightblue" d="M603.335,-302.083C603.204,-295.006 603.016,-284.861 602.852,-275.986"/>
<polygon fill="midnightblue" stroke="midnightblue" points="606.347,-275.685 602.662,-265.751 599.348,-275.814 606.347,-275.685"/>
</g>
<!-- Node10&#45;&gt;Node32 -->
<g id="edge39" class="edge"><title>Node10&#45;&gt;Node32</title>
<path fill="none" stroke="midnightblue" d="M647.867,-302.444C697.122,-292.944 776.628,-277.611 829.471,-267.42"/>
<polygon fill="midnightblue" stroke="midnightblue" points="830.184,-270.847 839.341,-265.516 828.859,-263.974 830.184,-270.847"/>
</g>
<!-- Node11&#45;&gt;Node7 -->
<g id="edge34" class="edge"><title>Node11&#45;&gt;Node7</title>
<path fill="none" stroke="midnightblue" d="M726.529,-184.975C677.953,-174.349 594.916,-156.185 542.197,-144.652"/>
<polygon fill="midnightblue" stroke="midnightblue" points="542.916,-141.227 532.399,-142.509 541.42,-148.065 542.916,-141.227"/>
</g>
<!-- Node12 -->
<g id="node12" class="node"><title>Node12</title>
<polygon fill="none" stroke="#bfbfbf" points="1451,-0.5 1451,-19.5 1486,-19.5 1486,-0.5 1451,-0.5"/>
<text text-anchor="middle" x="1468.5" y="-7.5" font-family="Helvetica,sans-Serif" font-size="10.00">map</text>
</g>
<!-- Node11&#45;&gt;Node12 -->
<g id="edge11" class="edge"><title>Node11&#45;&gt;Node12</title>
<path fill="none" stroke="midnightblue" d="M840.592,-193.161C1009.04,-191.671 1405.75,-183.819 1449.5,-143 1480.59,-113.997 1476.85,-58.6869 1472.26,-29.7313"/>
<polygon fill="midnightblue" stroke="midnightblue" points="1475.67,-28.9417 1470.46,-19.7166 1468.78,-30.1775 1475.67,-28.9417"/>
</g>
<!-- Node13 -->
<g id="node13" class="node"><title>Node13</title>
<polygon fill="none" stroke="#bfbfbf" points="825.5,-62 825.5,-81 877.5,-81 877.5,-62 825.5,-62"/>
<text text-anchor="middle" x="851.5" y="-69" font-family="Helvetica,sans-Serif" font-size="10.00">memory</text>
</g>
<!-- Node11&#45;&gt;Node13 -->
<g id="edge12" class="edge"><title>Node11&#45;&gt;Node13</title>
<path fill="none" stroke="midnightblue" d="M744.671,-184.813C717.728,-172.311 676.289,-147.988 694.5,-123 721.897,-85.4075 777.752,-75.1904 814.91,-72.7429"/>
<polygon fill="midnightblue" stroke="midnightblue" points="815.508,-76.2176 825.322,-72.2263 815.161,-69.2262 815.508,-76.2176"/>
</g>
<!-- Node14 -->
<g id="node14" class="node"><title>Node14</title>
<polygon fill="none" stroke="#bfbfbf" points="1106,-0.5 1106,-19.5 1147,-19.5 1147,-0.5 1106,-0.5"/>
<text text-anchor="middle" x="1126.5" y="-7.5" font-family="Helvetica,sans-Serif" font-size="10.00">string</text>
</g>
<!-- Node11&#45;&gt;Node14 -->
<g id="edge13" class="edge"><title>Node11&#45;&gt;Node14</title>
<path fill="none" stroke="midnightblue" d="M741.212,-184.992C711.937,-173.303 668.642,-150.557 685.5,-123 719.626,-67.2153 754.191,-75.8535 816.5,-56 915.319,-24.5132 1038.94,-14.9658 1095.58,-12.1439"/>
<polygon fill="midnightblue" stroke="midnightblue" points="1095.84,-15.6356 1105.67,-11.678 1095.51,-8.64306 1095.84,-15.6356"/>
</g>
<!-- Node15 -->
<g id="node15" class="node"><title>Node15</title>
<polygon fill="none" stroke="#bfbfbf" points="781,-0.5 781,-19.5 864,-19.5 864,-0.5 781,-0.5"/>
<text text-anchor="middle" x="822.5" y="-7.5" font-family="Helvetica,sans-Serif" font-size="10.00">unordered_map</text>
</g>
<!-- Node11&#45;&gt;Node15 -->
<g id="edge14" class="edge"><title>Node11&#45;&gt;Node15</title>
<path fill="none" stroke="midnightblue" d="M726.094,-184.947C688.144,-175.816 634.74,-160.303 622.5,-143 600.17,-111.433 598.345,-86.1936 622.5,-56 640.738,-33.2024 717.742,-21.1433 770.699,-15.422"/>
<polygon fill="midnightblue" stroke="midnightblue" points="771.359,-18.8724 780.946,-14.3609 770.638,-11.9097 771.359,-18.8724"/>
</g>
<!-- Node16 -->
<g id="node16" class="node"><title>Node16</title>
<polygon fill="none" stroke="#bfbfbf" points="703,-123.5 703,-142.5 828,-142.5 828,-123.5 703,-123.5"/>
<text text-anchor="middle" x="765.5" y="-130.5" font-family="Helvetica,sans-Serif" font-size="10.00">Framework/InitContext.h</text>
</g>
<!-- Node11&#45;&gt;Node16 -->
<g id="edge15" class="edge"><title>Node11&#45;&gt;Node16</title>
<path fill="none" stroke="midnightblue" d="M765.5,-184.975C765.5,-176.58 765.5,-163.481 765.5,-152.663"/>
<polygon fill="midnightblue" stroke="midnightblue" points="769,-152.509 765.5,-142.509 762,-152.509 769,-152.509"/>
</g>
<!-- Node17 -->
<g id="node17" class="node"><title>Node17</title>
<polygon fill="none" stroke="#bfbfbf" points="846.5,-123.5 846.5,-142.5 1006.5,-142.5 1006.5,-123.5 846.5,-123.5"/>
<text text-anchor="middle" x="926.5" y="-130.5" font-family="Helvetica,sans-Serif" font-size="10.00">Framework/ProcessingContext.h</text>
</g>
<!-- Node11&#45;&gt;Node17 -->
<g id="edge16" class="edge"><title>Node11&#45;&gt;Node17</title>
<path fill="none" stroke="midnightblue" d="M788.567,-184.975C816.185,-174.769 862.62,-157.608 893.896,-146.049"/>
<polygon fill="midnightblue" stroke="midnightblue" points="895.309,-149.259 903.475,-142.509 892.882,-142.693 895.309,-149.259"/>
</g>
<!-- Node18 -->
<g id="node18" class="node"><title>Node18</title>
<polygon fill="none" stroke="#bfbfbf" points="1025,-123.5 1025,-142.5 1120,-142.5 1120,-123.5 1025,-123.5"/>
<text text-anchor="middle" x="1072.5" y="-130.5" font-family="Helvetica,sans-Serif" font-size="10.00">CCDB/CcdbApi.h</text>
</g>
<!-- Node11&#45;&gt;Node18 -->
<g id="edge17" class="edge"><title>Node11&#45;&gt;Node18</title>
<path fill="none" stroke="midnightblue" d="M809.486,-184.975C864.655,-174.283 959.205,-155.958 1018.65,-144.437"/>
<polygon fill="midnightblue" stroke="midnightblue" points="1019.44,-147.848 1028.6,-142.509 1018.11,-140.976 1019.44,-147.848"/>
</g>
<!-- Node19 -->
<g id="node19" class="node"><title>Node19</title>
<g id="a_node19"><a xlink:href="Activity_8h.html" target="_top" xlink:title="QualityControl/Activity.h">
<polygon fill="none" stroke="black" points="1138,-123.5 1138,-142.5 1261,-142.5 1261,-123.5 1138,-123.5"/>
<text text-anchor="middle" x="1199.5" y="-130.5" font-family="Helvetica,sans-Serif" font-size="10.00">QualityControl/Activity.h</text>
</a>
</g>
</g>
<!-- Node11&#45;&gt;Node19 -->
<g id="edge18" class="edge"><title>Node11&#45;&gt;Node19</title>
<path fill="none" stroke="midnightblue" d="M827.682,-184.975C907.075,-174.091 1044.16,-155.297 1127.85,-143.823"/>
<polygon fill="midnightblue" stroke="midnightblue" points="1128.35,-147.287 1137.78,-142.461 1127.4,-140.352 1128.35,-147.287"/>
</g>
<!-- Node20 -->
<g id="node20" class="node"><title>Node20</title>
<g id="a_node20"><a xlink:href="ObjectsManager_8h.html" target="_top" xlink:title="QualityControl/ObjectsManager.h">
<polygon fill="none" stroke="black" points="1279,-123.5 1279,-142.5 1440,-142.5 1440,-123.5 1279,-123.5"/>
<text text-anchor="middle" x="1359.5" y="-130.5" font-family="Helvetica,sans-Serif" font-size="10.00">QualityControl/ObjectsManager.h</text>
</a>
</g>
</g>
<!-- Node11&#45;&gt;Node20 -->
<g id="edge19" class="edge"><title>Node11&#45;&gt;Node20</title>
<path fill="none" stroke="midnightblue" d="M840.793,-185.997C937.359,-176.368 1110.32,-159.102 1268.57,-143.193"/>
<polygon fill="midnightblue" stroke="midnightblue" points="1269.37,-146.63 1278.97,-142.148 1268.67,-139.666 1269.37,-146.63"/>
</g>
<!-- Node20&#45;&gt;Node13 -->
<g id="edge33" class="edge"><title>Node20&#45;&gt;Node13</title>
<path fill="none" stroke="midnightblue" d="M1286.72,-123.475C1176.35,-110.548 970.728,-86.4647 887.68,-76.7376"/>
<polygon fill="midnightblue" stroke="midnightblue" points="888.053,-73.2574 877.714,-75.5703 887.238,-80.2099 888.053,-73.2574"/>
</g>
<!-- Node20&#45;&gt;Node14 -->
<g id="edge32" class="edge"><title>Node20&#45;&gt;Node14</title>
<path fill="none" stroke="midnightblue" d="M1341.41,-123.413C1322.79,-114.508 1292.96,-100.083 1267.5,-87 1226.35,-65.8543 1179.13,-40.0918 1151.11,-24.6459"/>
<polygon fill="midnightblue" stroke="midnightblue" points="1152.49,-21.4088 1142.04,-19.6373 1149.1,-27.5361 1152.49,-21.4088"/>
</g>
<!-- Node21 -->
<g id="node21" class="node"><title>Node21</title>
<g id="a_node21"><a xlink:href="MonitorObject_8h.html" target="_top" xlink:title="QualityControl/MonitorObject.h">
<polygon fill="none" stroke="black" points="1276,-62 1276,-81 1427,-81 1427,-62 1276,-62"/>
<text text-anchor="middle" x="1351.5" y="-69" font-family="Helvetica,sans-Serif" font-size="10.00">QualityControl/MonitorObject.h</text>
</a>
</g>
</g>
<!-- Node20&#45;&gt;Node21 -->
<g id="edge20" class="edge"><title>Node20&#45;&gt;Node21</title>
<path fill="none" stroke="midnightblue" d="M1358.35,-123.475C1357.23,-115.08 1355.46,-101.981 1354.01,-91.1631"/>
<polygon fill="midnightblue" stroke="midnightblue" points="1357.45,-90.4535 1352.64,-81.0091 1350.51,-91.3863 1357.45,-90.4535"/>
</g>
<!-- Node25 -->
<g id="node25" class="node"><title>Node25</title>
<g id="a_node25"><a xlink:href="MonitorObjectCollection_8h.html" target="_top" xlink:title="QualityControl/MonitorObject\lCollection.h">
<polygon fill="none" stroke="black" points="1497,-56.5 1497,-86.5 1640,-86.5 1640,-56.5 1497,-56.5"/>
<text text-anchor="start" x="1505" y="-74.5" font-family="Helvetica,sans-Serif" font-size="10.00">QualityControl/MonitorObject</text>
<text text-anchor="middle" x="1568.5" y="-63.5" font-family="Helvetica,sans-Serif" font-size="10.00">Collection.h</text>
</a>
</g>
</g>
<!-- Node20&#45;&gt;Node25 -->
<g id="edge26" class="edge"><title>Node20&#45;&gt;Node25</title>
<path fill="none" stroke="midnightblue" d="M1389.44,-123.475C1420.66,-114.588 1470.4,-100.429 1509.54,-89.2859"/>
<polygon fill="midnightblue" stroke="midnightblue" points="1510.58,-92.6274 1519.24,-86.523 1508.67,-85.8949 1510.58,-92.6274"/>
</g>
<!-- Node28 -->
<g id="node28" class="node"><title>Node28</title>
<g id="a_node28"><a xlink:href="TaskConfig_8h.html" target="_top" xlink:title="QualityControl/TaskConfig.h">
<polygon fill="none" stroke="black" points="1056.5,-62 1056.5,-81 1196.5,-81 1196.5,-62 1056.5,-62"/>
<text text-anchor="middle" x="1126.5" y="-69" font-family="Helvetica,sans-Serif" font-size="10.00">QualityControl/TaskConfig.h</text>
</a>
</g>
</g>
<!-- Node20&#45;&gt;Node28 -->
<g id="edge29" class="edge"><title>Node20&#45;&gt;Node28</title>
<path fill="none" stroke="midnightblue" d="M1326.12,-123.475C1284.94,-112.959 1214.85,-95.0615 1169.63,-83.5142"/>
<polygon fill="midnightblue" stroke="midnightblue" points="1170.38,-80.0922 1159.82,-81.0091 1168.64,-86.8746 1170.38,-80.0922"/>
</g>
<!-- Node21&#45;&gt;Node12 -->
<g id="edge22" class="edge"><title>Node21&#45;&gt;Node12</title>
<path fill="none" stroke="midnightblue" d="M1368.26,-61.9751C1387.72,-52.078 1420.05,-35.6416 1442.71,-24.1151"/>
<polygon fill="midnightblue" stroke="midnightblue" points="1444.44,-27.1619 1451.77,-19.5091 1441.27,-20.9224 1444.44,-27.1619"/>
</g>
<!-- Node21&#45;&gt;Node14 -->
<g id="edge21" class="edge"><title>Node21&#45;&gt;Node14</title>
<path fill="none" stroke="midnightblue" d="M1316.87,-61.9556C1279.79,-52.7114 1218.98,-37.2882 1157.07,-20.0774"/>
<polygon fill="midnightblue" stroke="midnightblue" points="1157.7,-16.6194 1147.13,-17.3005 1155.82,-23.3614 1157.7,-16.6194"/>
</g>
<!-- Node22 -->
<g id="node22" class="node"><title>Node22</title>
<polygon fill="none" stroke="#bfbfbf" points="1376.5,-0.5 1376.5,-19.5 1432.5,-19.5 1432.5,-0.5 1376.5,-0.5"/>
<text text-anchor="middle" x="1404.5" y="-7.5" font-family="Helvetica,sans-Serif" font-size="10.00">Rtypes.h</text>
</g>
<!-- Node21&#45;&gt;Node22 -->
<g id="edge23" class="edge"><title>Node21&#45;&gt;Node22</title>
<path fill="none" stroke="midnightblue" d="M1359.09,-61.9751C1367.2,-52.8733 1380.23,-38.241 1390.26,-26.983"/>
<polygon fill="midnightblue" stroke="midnightblue" points="1392.88,-29.3043 1396.92,-19.5091 1387.66,-24.6483 1392.88,-29.3043"/>
</g>
<!-- Node23 -->
<g id="node23" class="node"><title>Node23</title>
<polygon fill="none" stroke="#bfbfbf" points="1165,-0.5 1165,-19.5 1224,-19.5 1224,-0.5 1165,-0.5"/>
<text text-anchor="middle" x="1194.5" y="-7.5" font-family="Helvetica,sans-Serif" font-size="10.00">TObject.h</text>
</g>
<!-- Node21&#45;&gt;Node23 -->
<g id="edge24" class="edge"><title>Node21&#45;&gt;Node23</title>
<path fill="none" stroke="midnightblue" d="M1329.01,-61.9751C1302.19,-51.8129 1257.18,-34.7564 1226.69,-23.1996"/>
<polygon fill="midnightblue" stroke="midnightblue" points="1227.54,-19.7801 1216.95,-19.5091 1225.06,-26.3258 1227.54,-19.7801"/>
</g>
<!-- Node24 -->
<g id="node24" class="node"><title>Node24</title>
<polygon fill="none" stroke="#bfbfbf" points="1242.5,-0.5 1242.5,-19.5 1358.5,-19.5 1358.5,-0.5 1242.5,-0.5"/>
<text text-anchor="middle" x="1300.5" y="-7.5" font-family="Helvetica,sans-Serif" font-size="10.00">Common/Exceptions.h</text>
</g>
<!-- Node21&#45;&gt;Node24 -->
<g id="edge25" class="edge"><title>Node21&#45;&gt;Node24</title>
<path fill="none" stroke="midnightblue" d="M1344.19,-61.9751C1336.47,-52.9617 1324.09,-38.5246 1314.48,-27.3118"/>
<polygon fill="midnightblue" stroke="midnightblue" points="1316.96,-24.8239 1307.79,-19.5091 1311.64,-29.3795 1316.96,-24.8239"/>
</g>
<!-- Node26 -->
<g id="node26" class="node"><title>Node26</title>
<polygon fill="none" stroke="#bfbfbf" points="1651,-0.5 1651,-19.5 1720,-19.5 1720,-0.5 1651,-0.5"/>
<text text-anchor="middle" x="1685.5" y="-7.5" font-family="Helvetica,sans-Serif" font-size="10.00">TObjArray.h</text>
</g>
<!-- Node25&#45;&gt;Node26 -->
<g id="edge27" class="edge"><title>Node25&#45;&gt;Node26</title>
<path fill="none" stroke="midnightblue" d="M1596.23,-56.3993C1615.33,-46.6837 1640.56,-33.8551 1659.32,-24.3137"/>
<polygon fill="midnightblue" stroke="midnightblue" points="1661.15,-27.3106 1668.48,-19.6578 1657.98,-21.071 1661.15,-27.3106"/>
</g>
<!-- Node27 -->
<g id="node27" class="node"><title>Node27</title>
<polygon fill="none" stroke="#bfbfbf" points="1504.5,-0.5 1504.5,-19.5 1632.5,-19.5 1632.5,-0.5 1504.5,-0.5"/>
<text text-anchor="middle" x="1568.5" y="-7.5" font-family="Helvetica,sans-Serif" font-size="10.00">Mergers/MergeInterface.h</text>
</g>
<!-- Node25&#45;&gt;Node27 -->
<g id="edge28" class="edge"><title>Node25&#45;&gt;Node27</title>
<path fill="none" stroke="midnightblue" d="M1568.5,-56.3993C1568.5,-48.4664 1568.5,-38.458 1568.5,-29.8583"/>
<polygon fill="midnightblue" stroke="midnightblue" points="1572,-29.6577 1568.5,-19.6578 1565,-29.6578 1572,-29.6577"/>
</g>
<!-- Node28&#45;&gt;Node14 -->
<g id="edge30" class="edge"><title>Node28&#45;&gt;Node14</title>
<path fill="none" stroke="midnightblue" d="M1126.5,-61.9751C1126.5,-53.5803 1126.5,-40.4806 1126.5,-29.6631"/>
<polygon fill="midnightblue" stroke="midnightblue" points="1130,-29.5091 1126.5,-19.5091 1123,-29.5091 1130,-29.5091"/>
</g>
<!-- Node28&#45;&gt;Node15 -->
<g id="edge31" class="edge"><title>Node28&#45;&gt;Node15</title>
<path fill="none" stroke="midnightblue" d="M1082.94,-61.9751C1027.81,-51.1836 932.948,-32.6173 874.199,-21.1186"/>
<polygon fill="midnightblue" stroke="midnightblue" points="874.509,-17.6131 864.023,-19.1271 873.165,-24.4828 874.509,-17.6131"/>
</g>
<!-- Node30&#45;&gt;Node11 -->
<g id="edge38" class="edge"><title>Node30&#45;&gt;Node11</title>
<path fill="none" stroke="midnightblue" d="M625.854,-246.475C653.814,-236.269 700.826,-219.108 732.491,-207.549"/>
<polygon fill="midnightblue" stroke="midnightblue" points="733.996,-210.726 742.189,-204.009 731.595,-204.15 733.996,-210.726"/>
</g>
<!-- Node31 -->
<g id="node31" class="node"><title>Node31</title>
<polygon fill="none" stroke="#bfbfbf" points="558,-179.5 558,-209.5 673,-209.5 673,-179.5 558,-179.5"/>
<text text-anchor="start" x="566" y="-197.5" font-family="Helvetica,sans-Serif" font-size="10.00">MCHMappingInterface</text>
<text text-anchor="middle" x="615.5" y="-186.5" font-family="Helvetica,sans-Serif" font-size="10.00">/Segmentation.h</text>
</g>
<!-- Node30&#45;&gt;Node31 -->
<g id="edge37" class="edge"><title>Node30&#45;&gt;Node31</title>
<path fill="none" stroke="midnightblue" d="M604.363,-246.475C605.909,-239.396 608.187,-228.97 610.28,-219.39"/>
<polygon fill="midnightblue" stroke="midnightblue" points="613.721,-220.04 612.436,-209.523 606.882,-218.545 613.721,-220.04"/>
</g>
</g>
</svg>
        <g id="navigator" transform="translate(0 0)" fill="#404254">
                <rect fill="#f2f5e9" fill-opacity="0.5" stroke="#606060" stroke-width=".5" x="0" y="0" width="60" height="60"/>
                <use id="zoomplus" xlink:href="#zoomPlus" x="17" y="9" onmousedown="handleZoom(evt,'in')"/>
                <use id="zoomminus" xlink:href="#zoomMin" x="42" y="9" onmousedown="handleZoom(evt,'out')"/>
                <use id="reset" xlink:href="#resetDef" x="30" y="36" onmousedown="handleReset()"/>
                <g id="arrowUp" xlink:href="#dirArrow" transform="translate(30 24)" onmousedown="handlePan(0,-1)">
                  <use xlink:href="#rim" fill="#404040">
                        <set attributeName="fill" to="#808080" begin="arrowUp.mouseover" end="arrowUp.mouseout"/>
                  </use>
                  <path fill="none" stroke="white" stroke-width="1.5" d="M0,-3.0v7 M-2.5,-0.5L0,-3.0L2.5,-0.5"/>
                </g>
                <g id="arrowRight" xlink:href="#dirArrow" transform="rotate(90) translate(36 -43)" onmousedown="handlePan(1,0)">
                  <use xlink:href="#rim" fill="#404040">
                        <set attributeName="fill" to="#808080" begin="arrowRight.mouseover" end="arrowRight.mouseout"/>
                  </use>
                  <path fill="none" stroke="white" stroke-width="1.5" d="M0,-3.0v7 M-2.5,-0.5L0,-3.0L2.5,-0.5"/>
                </g>
                <g id="arrowDown" xlink:href="#dirArrow" transform="rotate(180) translate(-30 -48)" onmousedown="handlePan(0,1)">
                  <use xlink:href="#rim" fill="#404040">
                        <set attributeName="fill" to="#808080" begin="arrowDown.mouseover" end="arrowDown.mouseout"/>
                  </use>
                  <path fill="none" stroke="white" stroke-width="1.5" d="M0,-3.0v7 M-2.5,-0.5L0,-3.0L2.5,-0.5"/>
                </g>
                <g id="arrowLeft" xlink:href="#dirArrow" transform="rotate(270) translate(-36 17)" onmousedown="handlePan(-1,0)">
                  <use xlink:href="#rim" fill="#404040">
                        <set attributeName="fill" to="#808080" begin="arrowLeft.mouseover" end="arrowLeft.mouseout"/>
                  </use>
                  <path fill="none" stroke="white" stroke-width="1.5" d="M0,-3.0v7 M-2.5,-0.5L0,-3.0L2.5,-0.5"/>
                </g>
        </g>
        <svg viewBox="0 0 15 15" width="100%" height="30px" preserveAspectRatio="xMaxYMin meet">
         <g id="arrow_out" transform="scale(0.3 0.3)">
          <a xlink:href="Decoding_8cxx__incl_org.svg" target="_base">
           <rect id="button" ry="5" rx="5" y="6" x="6" height="38" width="38"
                fill="#f2f5e9" fill-opacity="0.5" stroke="#606060" stroke-width="1.0"/>
           <path id="arrow"
             d="M 11.500037,31.436501 C 11.940474,20.09759 22.043105,11.32322 32.158766,21.979434 L 37.068811,17.246167 C 37.068811,17.246167 37.088388,32 37.088388,32 L 22.160133,31.978069 C 22.160133,31.978069 26.997745,27.140456 26.997745,27.140456 C 18.528582,18.264221 13.291696,25.230495 11.500037,31.436501 z"
             style="fill:#404040;"/>
          </a>
         </g>
        </svg>
</svg>
