<?xml version="1.0" encoding="UTF-8" standalone="no"?>
<!DOCTYPE svg PUBLIC "-//W3C//DTD SVG 1.1//EN"
 "http://www.w3.org/Graphics/SVG/1.1/DTD/svg11.dtd">
<!-- Generated by graphviz version 2.38.0 (20140413.2041)
 -->
<!-- Title: Modules/MUON/MCH/include/MCH/Decoding.h Pages: 1 -->
<svg width="1632pt" height="341pt"
 viewBox="0.00 0.00 1631.50 341.00" xmlns="http://www.w3.org/2000/svg" xmlns:xlink="http://www.w3.org/1999/xlink">
<g id="graph0" class="graph" transform="scale(1 1) rotate(0) translate(4 337)">
<title>Modules/MUON/MCH/include/MCH/Decoding.h</title>
<!-- Node1 -->
<g id="node1" class="node"><title>Node1</title>
<polygon fill="#bfbfbf" stroke="black" points="884,-302.5 884,-332.5 1031,-332.5 1031,-302.5 884,-302.5"/>
<text text-anchor="start" x="892" y="-320.5" font-family="Helvetica,sans-Serif" font-size="10.00">Modules/MUON/MCH/include</text>
<text text-anchor="middle" x="957.5" y="-309.5" font-family="Helvetica,sans-Serif" font-size="10.00">/MCH/Decoding.h</text>
</g>
<!-- Node2 -->
<g id="node2" class="node"><title>Node2</title>
<g id="a_node2"><a xlink:href="TaskInterface_8h.html" target="_top" xlink:title="QualityControl/TaskInterface.h">
<polygon fill="none" stroke="black" points="751.5,-185 751.5,-204 901.5,-204 901.5,-185 751.5,-185"/>
<text text-anchor="middle" x="826.5" y="-192" font-family="Helvetica,sans-Serif" font-size="10.00">QualityControl/TaskInterface.h</text>
</a>
</g>
</g>
<!-- Node1&#45;&gt;Node2 -->
<g id="edge1" class="edge"><title>Node1&#45;&gt;Node2</title>
<path fill="none" stroke="midnightblue" d="M902.01,-302.427C881.672,-294.724 860.086,-283.135 845.5,-266 833.202,-251.553 828.789,-229.9 827.246,-214.406"/>
<polygon fill="midnightblue" stroke="midnightblue" points="830.736,-214.14 826.557,-204.404 823.752,-214.621 830.736,-214.14"/>
</g>
<!-- Node23 -->
<g id="node23" class="node"><title>Node23</title>
<g id="a_node23"><a xlink:href="sampa__header_8h_source.html" target="_top" xlink:title="MCH/sampa_header.h">
<polygon fill="none" stroke="black" points="960,-246.5 960,-265.5 1075,-265.5 1075,-246.5 960,-246.5"/>
<text text-anchor="middle" x="1017.5" y="-253.5" font-family="Helvetica,sans-Serif" font-size="10.00">MCH/sampa_header.h</text>
</a>
</g>
</g>
<!-- Node1&#45;&gt;Node23 -->
<g id="edge28" class="edge"><title>Node1&#45;&gt;Node23</title>
<path fill="none" stroke="midnightblue" d="M971.719,-302.399C980.708,-293.486 992.338,-281.952 1001.63,-272.741"/>
<polygon fill="midnightblue" stroke="midnightblue" points="1004.13,-275.184 1008.77,-265.658 999.204,-270.214 1004.13,-275.184"/>
</g>
<!-- Node24 -->
<g id="node24" class="node"><title>Node24</title>
<g id="a_node24"><a xlink:href="Mapping_8h_source.html" target="_top" xlink:title="MCH/Mapping.h">
<polygon fill="none" stroke="black" points="854.5,-246.5 854.5,-265.5 942.5,-265.5 942.5,-246.5 854.5,-246.5"/>
<text text-anchor="middle" x="898.5" y="-253.5" font-family="Helvetica,sans-Serif" font-size="10.00">MCH/Mapping.h</text>
</a>
</g>
</g>
<!-- Node1&#45;&gt;Node24 -->
<g id="edge29" class="edge"><title>Node1&#45;&gt;Node24</title>
<path fill="none" stroke="midnightblue" d="M943.518,-302.399C934.768,-293.575 923.471,-282.183 914.383,-273.018"/>
<polygon fill="midnightblue" stroke="midnightblue" points="916.612,-270.294 907.085,-265.658 911.641,-275.223 916.612,-270.294"/>
</g>
<!-- Node26 -->
<g id="node26" class="node"><title>Node26</title>
<polygon fill="none" stroke="#bfbfbf" points="1093.5,-246.5 1093.5,-265.5 1187.5,-265.5 1187.5,-246.5 1093.5,-246.5"/>
<text text-anchor="middle" x="1140.5" y="-253.5" font-family="Helvetica,sans-Serif" font-size="10.00">MCHBase/Digit.h</text>
</g>
<!-- Node1&#45;&gt;Node26 -->
<g id="edge32" class="edge"><title>Node1&#45;&gt;Node26</title>
<path fill="none" stroke="midnightblue" d="M1000.87,-302.399C1032.49,-292.118 1074.83,-278.351 1104.57,-268.682"/>
<polygon fill="midnightblue" stroke="midnightblue" points="1105.71,-271.992 1114.14,-265.571 1103.55,-265.335 1105.71,-271.992"/>
</g>
<!-- Node3 -->
<g id="node3" class="node"><title>Node3</title>
<polygon fill="none" stroke="#bfbfbf" points="0,-0.5 0,-19.5 35,-19.5 35,-0.5 0,-0.5"/>
<text text-anchor="middle" x="17.5" y="-7.5" font-family="Helvetica,sans-Serif" font-size="10.00">map</text>
</g>
<!-- Node2&#45;&gt;Node3 -->
<g id="edge2" class="edge"><title>Node2&#45;&gt;Node3</title>
<path fill="none" stroke="midnightblue" d="M751.333,-194.021C620.025,-192.361 342.648,-177.322 130.5,-87 93.792,-71.3715 56.3778,-43.3236 35.1387,-26.0204"/>
<polygon fill="midnightblue" stroke="midnightblue" points="37.257,-23.2302 27.3252,-19.5409 32.7886,-28.6185 37.257,-23.2302"/>
</g>
<!-- Node4 -->
<g id="node4" class="node"><title>Node4</title>
<polygon fill="none" stroke="#bfbfbf" points="705.5,-62 705.5,-81 757.5,-81 757.5,-62 705.5,-62"/>
<text text-anchor="middle" x="731.5" y="-69" font-family="Helvetica,sans-Serif" font-size="10.00">memory</text>
</g>
<!-- Node2&#45;&gt;Node4 -->
<g id="edge3" class="edge"><title>Node2&#45;&gt;Node4</title>
<path fill="none" stroke="midnightblue" d="M813.466,-184.669C800.562,-175.433 780.854,-159.943 767.5,-143 754.904,-127.019 744.836,-105.941 738.585,-91.0074"/>
<polygon fill="midnightblue" stroke="midnightblue" points="741.696,-89.3604 734.727,-81.3803 735.198,-91.9646 741.696,-89.3604"/>
</g>
<!-- Node5 -->
<g id="node5" class="node"><title>Node5</title>
<polygon fill="none" stroke="#bfbfbf" points="339,-0.5 339,-19.5 380,-19.5 380,-0.5 339,-0.5"/>
<text text-anchor="middle" x="359.5" y="-7.5" font-family="Helvetica,sans-Serif" font-size="10.00">string</text>
</g>
<!-- Node2&#45;&gt;Node5 -->
<g id="edge4" class="edge"><title>Node2&#45;&gt;Node5</title>
<path fill="none" stroke="midnightblue" d="M751.16,-193.142C672.59,-190.58 546.971,-180.253 445.5,-143 402.333,-127.152 380.523,-127.367 358.5,-87 348.846,-69.3058 351.069,-45.6691 354.432,-29.4811"/>
<polygon fill="midnightblue" stroke="midnightblue" points="357.866,-30.1707 356.811,-19.6286 351.062,-28.5279 357.866,-30.1707"/>
</g>
<!-- Node6 -->
<g id="node6" class="node"><title>Node6</title>
<polygon fill="none" stroke="#bfbfbf" points="432,-0.5 432,-19.5 515,-19.5 515,-0.5 432,-0.5"/>
<text text-anchor="middle" x="473.5" y="-7.5" font-family="Helvetica,sans-Serif" font-size="10.00">unordered_map</text>
</g>
<!-- Node2&#45;&gt;Node6 -->
<g id="edge5" class="edge"><title>Node2&#45;&gt;Node6</title>
<path fill="none" stroke="midnightblue" d="M821.616,-184.696C816.168,-174.724 807.235,-157.92 800.5,-143 783.42,-105.162 798.902,-81.9526 766.5,-56 765.325,-55.059 609.206,-31.4334 525.368,-18.8012"/>
<polygon fill="midnightblue" stroke="midnightblue" points="525.681,-15.309 515.271,-17.2804 524.638,-22.2309 525.681,-15.309"/>
</g>
<!-- Node7 -->
<g id="node7" class="node"><title>Node7</title>
<polygon fill="none" stroke="#bfbfbf" points="810,-123.5 810,-142.5 935,-142.5 935,-123.5 810,-123.5"/>
<text text-anchor="middle" x="872.5" y="-130.5" font-family="Helvetica,sans-Serif" font-size="10.00">Framework/InitContext.h</text>
</g>
<!-- Node2&#45;&gt;Node7 -->
<g id="edge6" class="edge"><title>Node2&#45;&gt;Node7</title>
<path fill="none" stroke="midnightblue" d="M833.091,-184.975C839.991,-176.05 851.002,-161.807 859.634,-150.643"/>
<polygon fill="midnightblue" stroke="midnightblue" points="862.574,-152.561 865.922,-142.509 857.036,-148.28 862.574,-152.561"/>
</g>
<!-- Node8 -->
<g id="node8" class="node"><title>Node8</title>
<polygon fill="none" stroke="#bfbfbf" points="953.5,-123.5 953.5,-142.5 1113.5,-142.5 1113.5,-123.5 953.5,-123.5"/>
<text text-anchor="middle" x="1033.5" y="-130.5" font-family="Helvetica,sans-Serif" font-size="10.00">Framework/ProcessingContext.h</text>
</g>
<!-- Node2&#45;&gt;Node8 -->
<g id="edge7" class="edge"><title>Node2&#45;&gt;Node8</title>
<path fill="none" stroke="midnightblue" d="M856.158,-184.975C892.434,-174.548 953.964,-156.862 994.164,-145.307"/>
<polygon fill="midnightblue" stroke="midnightblue" points="995.253,-148.635 1003.9,-142.509 993.319,-141.908 995.253,-148.635"/>
</g>
<!-- Node9 -->
<g id="node9" class="node"><title>Node9</title>
<polygon fill="none" stroke="#bfbfbf" points="1132,-123.5 1132,-142.5 1227,-142.5 1227,-123.5 1132,-123.5"/>
<text text-anchor="middle" x="1179.5" y="-130.5" font-family="Helvetica,sans-Serif" font-size="10.00">CCDB/CcdbApi.h</text>
</g>
<!-- Node2&#45;&gt;Node9 -->
<g id="edge8" class="edge"><title>Node2&#45;&gt;Node9</title>
<path fill="none" stroke="midnightblue" d="M875.205,-184.926C886.464,-182.962 898.397,-180.895 909.5,-179 982.553,-166.531 1066.8,-152.555 1121.49,-143.534"/>
<polygon fill="midnightblue" stroke="midnightblue" points="1122.39,-146.934 1131.68,-141.854 1121.25,-140.027 1122.39,-146.934"/>
</g>
<!-- Node10 -->
<g id="node10" class="node"><title>Node10</title>
<g id="a_node10"><a xlink:href="Activity_8h.html" target="_top" xlink:title="QualityControl/Activity.h">
<polygon fill="none" stroke="black" points="1245,-123.5 1245,-142.5 1368,-142.5 1368,-123.5 1245,-123.5"/>
<text text-anchor="middle" x="1306.5" y="-130.5" font-family="Helvetica,sans-Serif" font-size="10.00">QualityControl/Activity.h</text>
</a>
</g>
</g>
<!-- Node2&#45;&gt;Node10 -->
<g id="edge9" class="edge"><title>Node2&#45;&gt;Node10</title>
<path fill="none" stroke="midnightblue" d="M872.515,-184.93C884.53,-182.838 897.48,-180.712 909.5,-179 1050.57,-158.909 1089.03,-160.1 1234.72,-143.069"/>
<polygon fill="midnightblue" stroke="midnightblue" points="1235.41,-146.512 1244.93,-141.866 1234.59,-139.56 1235.41,-146.512"/>
</g>
<!-- Node11 -->
<g id="node11" class="node"><title>Node11</title>
<g id="a_node11"><a xlink:href="ObjectsManager_8h.html" target="_top" xlink:title="QualityControl/ObjectsManager.h">
<polygon fill="none" stroke="black" points="455,-123.5 455,-142.5 616,-142.5 616,-123.5 455,-123.5"/>
<text text-anchor="middle" x="535.5" y="-130.5" font-family="Helvetica,sans-Serif" font-size="10.00">QualityControl/ObjectsManager.h</text>
</a>
</g>
</g>
<!-- Node2&#45;&gt;Node11 -->
<g id="edge10" class="edge"><title>Node2&#45;&gt;Node11</title>
<path fill="none" stroke="midnightblue" d="M784.807,-184.975C732.729,-174.327 643.63,-156.109 587.247,-144.581"/>
<polygon fill="midnightblue" stroke="midnightblue" points="587.614,-141.083 577.116,-142.509 586.212,-147.941 587.614,-141.083"/>
</g>
<!-- Node20 -->
<g id="node20" class="node"><title>Node20</title>
<g id="a_node20"><a xlink:href="QcInfoLogger_8h.html" target="_top" xlink:title="QualityControl/QcInfoLogger.h">
<polygon fill="none" stroke="black" points="1386,-123.5 1386,-142.5 1535,-142.5 1535,-123.5 1386,-123.5"/>
<text text-anchor="middle" x="1460.5" y="-130.5" font-family="Helvetica,sans-Serif" font-size="10.00">QualityControl/QcInfoLogger.h</text>
</a>
</g>
</g>
<!-- Node2&#45;&gt;Node20 -->
<g id="edge25" class="edge"><title>Node2&#45;&gt;Node20</title>
<path fill="none" stroke="midnightblue" d="M870.749,-184.959C883.242,-182.769 896.873,-180.586 909.5,-179 1112.82,-153.463 1167.51,-161.817 1375.82,-143.03"/>
<polygon fill="midnightblue" stroke="midnightblue" points="1376.22,-146.508 1385.86,-142.114 1375.58,-139.537 1376.22,-146.508"/>
</g>
<!-- Node11&#45;&gt;Node4 -->
<g id="edge24" class="edge"><title>Node11&#45;&gt;Node4</title>
<path fill="none" stroke="midnightblue" d="M569.851,-123.494C602.478,-115.144 652.756,-101.571 695.5,-87 697.625,-86.2758 699.806,-85.4945 701.993,-84.6833"/>
<polygon fill="midnightblue" stroke="midnightblue" points="703.399,-87.8921 711.462,-81.0193 700.873,-81.3637 703.399,-87.8921"/>
</g>
<!-- Node11&#45;&gt;Node5 -->
<g id="edge23" class="edge"><title>Node11&#45;&gt;Node5</title>
<path fill="none" stroke="midnightblue" d="M454.762,-125.997C426.509,-119.946 396.804,-108.469 376.5,-87 362.083,-71.7557 358.898,-47.0651 358.625,-29.983"/>
<polygon fill="midnightblue" stroke="midnightblue" points="362.131,-29.6393 358.799,-19.582 355.132,-29.5219 362.131,-29.6393"/>
</g>
<!-- Node12 -->
<g id="node12" class="node"><title>Node12</title>
<g id="a_node12"><a xlink:href="MonitorObject_8h.html" target="_top" xlink:title="QualityControl/MonitorObject.h">
<polygon fill="none" stroke="black" points="140,-62 140,-81 291,-81 291,-62 140,-62"/>
<text text-anchor="middle" x="215.5" y="-69" font-family="Helvetica,sans-Serif" font-size="10.00">QualityControl/MonitorObject.h</text>
</a>
</g>
</g>
<!-- Node11&#45;&gt;Node12 -->
<g id="edge11" class="edge"><title>Node11&#45;&gt;Node12</title>
<path fill="none" stroke="midnightblue" d="M489.652,-123.475C432.028,-112.761 333.185,-94.3821 271.25,-82.8661"/>
<polygon fill="midnightblue" stroke="midnightblue" points="271.734,-79.3962 261.263,-81.0091 270.455,-86.2782 271.734,-79.3962"/>
</g>
<!-- Node16 -->
<g id="node16" class="node"><title>Node16</title>
<g id="a_node16"><a xlink:href="MonitorObjectCollection_8h.html" target="_top" xlink:title="QualityControl/MonitorObject\lCollection.h">
<polygon fill="none" stroke="black" points="544,-56.5 544,-86.5 687,-86.5 687,-56.5 544,-56.5"/>
<text text-anchor="start" x="552" y="-74.5" font-family="Helvetica,sans-Serif" font-size="10.00">QualityControl/MonitorObject</text>
<text text-anchor="middle" x="615.5" y="-63.5" font-family="Helvetica,sans-Serif" font-size="10.00">Collection.h</text>
</a>
</g>
</g>
<!-- Node11&#45;&gt;Node16 -->
<g id="edge17" class="edge"><title>Node11&#45;&gt;Node16</title>
<path fill="none" stroke="midnightblue" d="M546.962,-123.475C557.696,-115.492 574.15,-103.254 588.246,-92.7703"/>
<polygon fill="midnightblue" stroke="midnightblue" points="590.71,-95.2993 596.646,-86.523 586.533,-89.6825 590.71,-95.2993"/>
</g>
<!-- Node19 -->
<g id="node19" class="node"><title>Node19</title>
<g id="a_node19"><a xlink:href="TaskConfig_8h.html" target="_top" xlink:title="QualityControl/TaskConfig.h">
<polygon fill="none" stroke="black" points="385.5,-62 385.5,-81 525.5,-81 525.5,-62 385.5,-62"/>
<text text-anchor="middle" x="455.5" y="-69" font-family="Helvetica,sans-Serif" font-size="10.00">QualityControl/TaskConfig.h</text>
</a>
</g>
</g>
<!-- Node11&#45;&gt;Node19 -->
<g id="edge20" class="edge"><title>Node11&#45;&gt;Node19</title>
<path fill="none" stroke="midnightblue" d="M524.038,-123.475C511.325,-114.02 490.587,-98.5961 475.247,-87.1871"/>
<polygon fill="midnightblue" stroke="midnightblue" points="477.054,-84.1686 466.941,-81.0091 472.876,-89.7854 477.054,-84.1686"/>
</g>
<!-- Node12&#45;&gt;Node3 -->
<g id="edge13" class="edge"><title>Node12&#45;&gt;Node3</title>
<path fill="none" stroke="midnightblue" d="M185.442,-61.9639C153.087,-52.7009 99.8941,-37.2578 44.7726,-20.0056"/>
<polygon fill="midnightblue" stroke="midnightblue" points="45.7797,-16.6534 35.1903,-16.9941 43.6809,-23.3313 45.7797,-16.6534"/>
</g>
<!-- Node12&#45;&gt;Node5 -->
<g id="edge12" class="edge"><title>Node12&#45;&gt;Node5</title>
<path fill="none" stroke="midnightblue" d="M236.132,-61.9751C260.619,-51.8571 301.647,-34.9046 329.609,-23.3507"/>
<polygon fill="midnightblue" stroke="midnightblue" points="331.001,-26.5627 338.907,-19.5091 328.328,-20.0932 331.001,-26.5627"/>
</g>
<!-- Node13 -->
<g id="node13" class="node"><title>Node13</title>
<polygon fill="none" stroke="#bfbfbf" points="187.5,-0.5 187.5,-19.5 243.5,-19.5 243.5,-0.5 187.5,-0.5"/>
<text text-anchor="middle" x="215.5" y="-7.5" font-family="Helvetica,sans-Serif" font-size="10.00">Rtypes.h</text>
</g>
<!-- Node12&#45;&gt;Node13 -->
<g id="edge14" class="edge"><title>Node12&#45;&gt;Node13</title>
<path fill="none" stroke="midnightblue" d="M215.5,-61.9751C215.5,-53.5803 215.5,-40.4806 215.5,-29.6631"/>
<polygon fill="midnightblue" stroke="midnightblue" points="219,-29.5091 215.5,-19.5091 212,-29.5091 219,-29.5091"/>
</g>
<!-- Node14 -->
<g id="node14" class="node"><title>Node14</title>
<polygon fill="none" stroke="#bfbfbf" points="262,-0.5 262,-19.5 321,-19.5 321,-0.5 262,-0.5"/>
<text text-anchor="middle" x="291.5" y="-7.5" font-family="Helvetica,sans-Serif" font-size="10.00">TObject.h</text>
</g>
<!-- Node12&#45;&gt;Node14 -->
<g id="edge15" class="edge"><title>Node12&#45;&gt;Node14</title>
<path fill="none" stroke="midnightblue" d="M226.389,-61.9751C238.466,-52.5199 258.167,-37.0961 272.74,-25.6871"/>
<polygon fill="midnightblue" stroke="midnightblue" points="274.915,-28.4295 280.631,-19.5091 270.6,-22.9177 274.915,-28.4295"/>
</g>
<!-- Node15 -->
<g id="node15" class="node"><title>Node15</title>
<polygon fill="none" stroke="#bfbfbf" points="53.5,-0.5 53.5,-19.5 169.5,-19.5 169.5,-0.5 53.5,-0.5"/>
<text text-anchor="middle" x="111.5" y="-7.5" font-family="Helvetica,sans-Serif" font-size="10.00">Common/Exceptions.h</text>
</g>
<!-- Node12&#45;&gt;Node15 -->
<g id="edge16" class="edge"><title>Node12&#45;&gt;Node15</title>
<path fill="none" stroke="midnightblue" d="M200.599,-61.9751C183.532,-52.2106 155.339,-36.0807 135.238,-24.5808"/>
<polygon fill="midnightblue" stroke="midnightblue" points="136.791,-21.4371 126.373,-19.5091 133.315,-27.513 136.791,-21.4371"/>
</g>
<!-- Node17 -->
<g id="node17" class="node"><title>Node17</title>
<polygon fill="none" stroke="#bfbfbf" points="689,-0.5 689,-19.5 758,-19.5 758,-0.5 689,-0.5"/>
<text text-anchor="middle" x="723.5" y="-7.5" font-family="Helvetica,sans-Serif" font-size="10.00">TObjArray.h</text>
</g>
<!-- Node16&#45;&gt;Node17 -->
<g id="edge18" class="edge"><title>Node16&#45;&gt;Node17</title>
<path fill="none" stroke="midnightblue" d="M641.094,-56.3993C658.568,-46.7728 681.588,-34.0902 698.856,-24.5772"/>
<polygon fill="midnightblue" stroke="midnightblue" points="700.715,-27.5488 707.785,-19.6578 697.337,-21.4177 700.715,-27.5488"/>
</g>
<!-- Node18 -->
<g id="node18" class="node"><title>Node18</title>
<polygon fill="none" stroke="#bfbfbf" points="542.5,-0.5 542.5,-19.5 670.5,-19.5 670.5,-0.5 542.5,-0.5"/>
<text text-anchor="middle" x="606.5" y="-7.5" font-family="Helvetica,sans-Serif" font-size="10.00">Mergers/MergeInterface.h</text>
</g>
<!-- Node16&#45;&gt;Node18 -->
<g id="edge19" class="edge"><title>Node16&#45;&gt;Node18</title>
<path fill="none" stroke="midnightblue" d="M613.367,-56.3993C612.154,-48.3772 610.619,-38.2328 609.309,-29.569"/>
<polygon fill="midnightblue" stroke="midnightblue" points="612.766,-29.0218 607.81,-19.6578 605.845,-30.0688 612.766,-29.0218"/>
</g>
<!-- Node19&#45;&gt;Node5 -->
<g id="edge21" class="edge"><title>Node19&#45;&gt;Node5</title>
<path fill="none" stroke="midnightblue" d="M441.746,-61.9751C426.134,-52.2989 400.437,-36.3721 381.917,-24.8941"/>
<polygon fill="midnightblue" stroke="midnightblue" points="383.573,-21.8023 373.229,-19.5091 379.885,-27.7522 383.573,-21.8023"/>
</g>
<!-- Node19&#45;&gt;Node6 -->
<g id="edge22" class="edge"><title>Node19&#45;&gt;Node6</title>
<path fill="none" stroke="midnightblue" d="M458.079,-61.9751C460.645,-53.4919 464.665,-40.2043 467.957,-29.3222"/>
<polygon fill="midnightblue" stroke="midnightblue" points="471.38,-30.0942 470.926,-19.5091 464.68,-28.0672 471.38,-30.0942"/>
</g>
<!-- Node21 -->
<g id="node21" class="node"><title>Node21</title>
<polygon fill="none" stroke="#bfbfbf" points="1313.5,-62 1313.5,-81 1443.5,-81 1443.5,-62 1313.5,-62"/>
<text text-anchor="middle" x="1378.5" y="-69" font-family="Helvetica,sans-Serif" font-size="10.00">InfoLogger/InfoLogger.hxx</text>
</g>
<!-- Node20&#45;&gt;Node21 -->
<g id="edge26" class="edge"><title>Node20&#45;&gt;Node21</title>
<path fill="none" stroke="midnightblue" d="M1448.75,-123.475C1435.72,-114.02 1414.46,-98.5961 1398.74,-87.1871"/>
<polygon fill="midnightblue" stroke="midnightblue" points="1400.38,-84.0492 1390.23,-81.0091 1396.27,-89.7149 1400.38,-84.0492"/>
</g>
<!-- Node22 -->
<g id="node22" class="node"><title>Node22</title>
<polygon fill="none" stroke="#bfbfbf" points="1461.5,-62 1461.5,-81 1623.5,-81 1623.5,-62 1461.5,-62"/>
<text text-anchor="middle" x="1542.5" y="-69" font-family="Helvetica,sans-Serif" font-size="10.00">InfoLogger/InfoLoggerMacros.hxx</text>
</g>
<!-- Node20&#45;&gt;Node22 -->
<g id="edge27" class="edge"><title>Node20&#45;&gt;Node22</title>
<path fill="none" stroke="midnightblue" d="M1472.25,-123.475C1485.28,-114.02 1506.54,-98.5961 1522.26,-87.1871"/>
<polygon fill="midnightblue" stroke="midnightblue" points="1524.73,-89.7149 1530.77,-81.0091 1520.62,-84.0492 1524.73,-89.7149"/>
</g>
<!-- Node24&#45;&gt;Node2 -->
<g id="edge31" class="edge"><title>Node24&#45;&gt;Node2</title>
<path fill="none" stroke="midnightblue" d="M888.184,-246.475C876.849,-237.108 858.427,-221.884 844.661,-210.508"/>
<polygon fill="midnightblue" stroke="midnightblue" points="846.735,-207.681 836.797,-204.009 842.276,-213.077 846.735,-207.681"/>
</g>
<!-- Node25 -->
<g id="node25" class="node"><title>Node25</title>
<polygon fill="none" stroke="#bfbfbf" points="919,-179.5 919,-209.5 1034,-209.5 1034,-179.5 919,-179.5"/>
<text text-anchor="start" x="927" y="-197.5" font-family="Helvetica,sans-Serif" font-size="10.00">MCHMappingInterface</text>
<text text-anchor="middle" x="976.5" y="-186.5" font-family="Helvetica,sans-Serif" font-size="10.00">/Segmentation.h</text>
</g>
<!-- Node24&#45;&gt;Node25 -->
<g id="edge30" class="edge"><title>Node24&#45;&gt;Node25</title>
<path fill="none" stroke="midnightblue" d="M909.675,-246.475C920.141,-238.492 936.184,-226.254 949.927,-215.77"/>
<polygon fill="midnightblue" stroke="midnightblue" points="952.289,-218.371 958.117,-209.523 948.043,-212.805 952.289,-218.371"/>
</g>
</g>
</svg>
