<?xml version="1.0" encoding="UTF-8" standalone="no"?>
<!DOCTYPE svg PUBLIC "-//W3C//DTD SVG 1.1//EN"
 "http://www.w3.org/Graphics/SVG/1.1/DTD/svg11.dtd">
<!-- Generated by graphviz version 2.38.0 (20140413.2041)
 -->
<!-- Title: Modules Pages: 1 -->
<!--zoomable 132 -->
<svg id="main" version="1.1" xmlns="http://www.w3.org/2000/svg" xmlns:xlink="http://www.w3.org/1999/xlink" xml:space="preserve" onload="init(evt)">
<style type="text/css"><![CDATA[
.edge:hover path { stroke: red; }
.edge:hover polygon { stroke: red; fill: red; }
]]></style>
<script type="text/javascript"><![CDATA[
var edges = document.getElementsByTagName('g');
if (edges && edges.length) {
  for (var i=0;i<edges.length;i++) {
    if (edges[i].id.substr(0,4)=='edge') {
      edges[i].setAttribute('class','edge');
    }
  }
}
]]></script>
        <defs>
                <circle id="rim" cx="0" cy="0" r="7"/>
                <circle id="rim2" cx="0" cy="0" r="3.5"/>
                <g id="zoomPlus">
                        <use xlink:href="#rim" fill="#404040">
                                <set attributeName="fill" to="#808080" begin="zoomplus.mouseover" end="zoomplus.mouseout"/>
                        </use>
                        <path d="M-4,0h8M0,-4v8" fill="none" stroke="white" stroke-width="1.5" pointer-events="none"/>
                </g>
                <g id="zoomMin">
                        <use xlink:href="#rim" fill="#404040">
                                <set attributeName="fill" to="#808080" begin="zoomminus.mouseover" end="zoomminus.mouseout"/>
                        </use>
                        <path d="M-4,0h8" fill="none" stroke="white" stroke-width="1.5" pointer-events="none"/>
                </g>
                <g id="dirArrow">
                        <path fill="none" stroke="white" stroke-width="1.5" d="M0,-3.0v7 M-2.5,-0.5L0,-3.0L2.5,-0.5"/>
                </g>
               <g id="resetDef">
                       <use xlink:href="#rim2" fill="#404040">
                               <set attributeName="fill" to="#808080" begin="reset.mouseover" end="reset.mouseout"/>
                       </use>
               </g>
        </defs>

<script type="text/javascript">
var viewWidth = 1108;
var viewHeight = 132;
var sectionId = 'dynsection-0';
</script>
<script xlink:href="svgpan.js"/>
<svg id="graph" class="graph">
<g id="viewport">
<title>Modules</title>
<g id="clust1" class="cluster"><title>clusterdir_f2541a3b18981391fa76fac5599e978a</title>
<g id="a_clust1"><a xlink:href="dir_f2541a3b18981391fa76fac5599e978a.html" target="_top">
<polygon fill="#eeeeff" stroke="black" points="8,-64 8,-116 1092,-116 1092,-64 8,-64"/>
</a>
</g>
</g>
<!-- dir_f2541a3b18981391fa76fac5599e978a -->
<g id="node1" class="node"><title>dir_f2541a3b18981391fa76fac5599e978a</title>
<text text-anchor="middle" x="1057" y="-87.5" font-family="Helvetica,sans-Serif" font-size="10.00">Modules</text>
</g>
<!-- dir_6b8bd6c02904bc94839ef977dfbf16fd -->
<g id="node2" class="node"><title>dir_6b8bd6c02904bc94839ef977dfbf16fd</title>
<g id="a_node2"><a xlink:href="dir_6b8bd6c02904bc94839ef977dfbf16fd.html" target="_top" xlink:title="Common">
<polygon fill="white" stroke="red" points="1012,-108 956,-108 956,-72 1012,-72 1012,-108"/>
<text text-anchor="middle" x="984" y="-87.5" font-family="Helvetica,sans-Serif" font-size="10.00">Common</text>
</a>
</g>
</g>
<!-- dir_bcbb2cf9a3d3d83e5515c82071a07177 -->
<g id="node16" class="node"><title>dir_bcbb2cf9a3d3d83e5515c82071a07177</title>
<g id="a_node16"><a xlink:href="dir_bcbb2cf9a3d3d83e5515c82071a07177.html" target="_top" xlink:title="Framework">
<polygon fill="none" stroke="red" points="545.5,-36 480.5,-36 480.5,-0 545.5,-0 545.5,-36"/>
<text text-anchor="middle" x="513" y="-15.5" font-family="Helvetica,sans-Serif" font-size="10.00">Framework</text>
</a>
</g>
</g>
<!-- dir_6b8bd6c02904bc94839ef977dfbf16fd&#45;&gt;dir_bcbb2cf9a3d3d83e5515c82071a07177 -->
<g id="edge12" class="edge"><title>dir_6b8bd6c02904bc94839ef977dfbf16fd&#45;&gt;dir_bcbb2cf9a3d3d83e5515c82071a07177</title>
<path fill="none" stroke="black" d="M962.264,-71.7765C957.467,-68.7196 952.246,-65.9075 947,-64 875.723,-38.0814 650.414,-25.1772 555.651,-20.7856"/>
<polygon fill="black" stroke="black" points="555.708,-17.2847 545.559,-20.3274 555.39,-24.2775 555.708,-17.2847"/>
<g id="a_edge12&#45;headlabel"><a xlink:href="dir_000004_000000.html" target="_top" xlink:title="17">
<text text-anchor="middle" x="559.427" y="-12.1113" font-family="Helvetica,sans-Serif" font-size="10.00">17</text>
</a>
</g>
</g>
<!-- dir_b4be303506ebb37c6dc24696436a6ab8 -->
<g id="node3" class="node"><title>dir_b4be303506ebb37c6dc24696436a6ab8</title>
<g id="a_node3"><a xlink:href="dir_b4be303506ebb37c6dc24696436a6ab8.html" target="_top" xlink:title="Daq">
<polygon fill="white" stroke="red" points="938,-108 884,-108 884,-72 938,-72 938,-108"/>
<text text-anchor="middle" x="911" y="-87.5" font-family="Helvetica,sans-Serif" font-size="10.00">Daq</text>
</a>
</g>
</g>
<!-- dir_b4be303506ebb37c6dc24696436a6ab8&#45;&gt;dir_bcbb2cf9a3d3d83e5515c82071a07177 -->
<g id="edge14" class="edge"><title>dir_b4be303506ebb37c6dc24696436a6ab8&#45;&gt;dir_bcbb2cf9a3d3d83e5515c82071a07177</title>
<path fill="none" stroke="black" d="M889.872,-71.8537C885.203,-68.7912 880.117,-65.9573 875,-64 817.495,-42.0041 638.52,-27.462 555.762,-21.7396"/>
<polygon fill="black" stroke="black" points="555.903,-18.2412 545.689,-21.0539 555.428,-25.225 555.903,-18.2412"/>
<g id="a_edge14&#45;headlabel"><a xlink:href="dir_000007_000000.html" target="_top" xlink:title="3">
<text text-anchor="middle" x="559.683" y="-13.1525" font-family="Helvetica,sans-Serif" font-size="10.00">3</text>
</a>
</g>
</g>
<!-- dir_ed80be2c367d80462ec6a6a3f0ad67d1 -->
<g id="node4" class="node"><title>dir_ed80be2c367d80462ec6a6a3f0ad67d1</title>
<g id="a_node4"><a xlink:href="dir_ed80be2c367d80462ec6a6a3f0ad67d1.html" target="_top" xlink:title="EMCAL">
<polygon fill="white" stroke="red" points="866,-108 812,-108 812,-72 866,-72 866,-108"/>
<text text-anchor="middle" x="839" y="-87.5" font-family="Helvetica,sans-Serif" font-size="10.00">EMCAL</text>
</a>
</g>
</g>
<!-- dir_ed80be2c367d80462ec6a6a3f0ad67d1&#45;&gt;dir_bcbb2cf9a3d3d83e5515c82071a07177 -->
<g id="edge6" class="edge"><title>dir_ed80be2c367d80462ec6a6a3f0ad67d1&#45;&gt;dir_bcbb2cf9a3d3d83e5515c82071a07177</title>
<path fill="none" stroke="black" d="M817.825,-71.9734C813.16,-68.9022 808.087,-66.0345 803,-64 719.72,-30.692 613.841,-21.9138 555.826,-19.6796"/>
<polygon fill="black" stroke="black" points="555.679,-16.1727 545.566,-19.3341 555.443,-23.1687 555.679,-16.1727"/>
<g id="a_edge6&#45;headlabel"><a xlink:href="dir_000010_000000.html" target="_top" xlink:title="16">
<text text-anchor="middle" x="559.367" y="-10.9559" font-family="Helvetica,sans-Serif" font-size="10.00">16</text>
</a>
</g>
</g>
<!-- dir_5273b6b5b4e75477d91e3579fb65d936 -->
<g id="node5" class="node"><title>dir_5273b6b5b4e75477d91e3579fb65d936</title>
<g id="a_node5"><a xlink:href="dir_5273b6b5b4e75477d91e3579fb65d936.html" target="_top" xlink:title="Example">
<polygon fill="white" stroke="red" points="793.5,-108 738.5,-108 738.5,-72 793.5,-72 793.5,-108"/>
<text text-anchor="middle" x="766" y="-87.5" font-family="Helvetica,sans-Serif" font-size="10.00">Example</text>
</a>
</g>
</g>
<!-- dir_5273b6b5b4e75477d91e3579fb65d936&#45;&gt;dir_bcbb2cf9a3d3d83e5515c82071a07177 -->
<g id="edge7" class="edge"><title>dir_5273b6b5b4e75477d91e3579fb65d936&#45;&gt;dir_bcbb2cf9a3d3d83e5515c82071a07177</title>
<path fill="none" stroke="black" d="M743.703,-71.9306C739.03,-68.9386 733.999,-66.1123 729,-64 671.835,-39.8443 600.515,-28.24 555.851,-22.9751"/>
<polygon fill="black" stroke="black" points="555.972,-19.4668 545.644,-21.8279 555.19,-26.423 555.972,-19.4668"/>
<g id="a_edge7&#45;headlabel"><a xlink:href="dir_000013_000000.html" target="_top" xlink:title="11">
<text text-anchor="middle" x="559.861" y="-14.5467" font-family="Helvetica,sans-Serif" font-size="10.00">11</text>
</a>
</g>
</g>
<!-- dir_ac48c89599594e65270cafb6e04a1bcc -->
<g id="node6" class="node"><title>dir_ac48c89599594e65270cafb6e04a1bcc</title>
<g id="a_node6"><a xlink:href="dir_ac48c89599594e65270cafb6e04a1bcc.html" target="_top" xlink:title="FT0">
<polygon fill="white" stroke="red" points="720,-108 666,-108 666,-72 720,-72 720,-108"/>
<text text-anchor="middle" x="693" y="-87.5" font-family="Helvetica,sans-Serif" font-size="10.00">FT0</text>
</a>
</g>
</g>
<!-- dir_ac48c89599594e65270cafb6e04a1bcc&#45;&gt;dir_bcbb2cf9a3d3d83e5515c82071a07177 -->
<g id="edge4" class="edge"><title>dir_ac48c89599594e65270cafb6e04a1bcc&#45;&gt;dir_bcbb2cf9a3d3d83e5515c82071a07177</title>
<path fill="none" stroke="black" d="M670.4,-71.7749C666.089,-68.9373 661.511,-66.2067 657,-64 624.378,-48.0425 584.851,-36.1701 555.469,-28.6387"/>
<polygon fill="black" stroke="black" points="556.077,-25.1832 545.527,-26.1563 554.381,-31.9747 556.077,-25.1832"/>
<g id="a_edge4&#45;headlabel"><a xlink:href="dir_000016_000000.html" target="_top" xlink:title="18">
<text text-anchor="middle" x="560.252" y="-20.7993" font-family="Helvetica,sans-Serif" font-size="10.00">18</text>
</a>
</g>
</g>
<!-- dir_c2539499a1d5f0a04b2dc79b275506bd -->
<g id="node7" class="node"><title>dir_c2539499a1d5f0a04b2dc79b275506bd</title>
<g id="a_node7"><a xlink:href="dir_c2539499a1d5f0a04b2dc79b275506bd.html" target="_top" xlink:title="HMPID">
<polygon fill="white" stroke="red" points="648,-108 594,-108 594,-72 648,-72 648,-108"/>
<text text-anchor="middle" x="621" y="-87.5" font-family="Helvetica,sans-Serif" font-size="10.00">HMPID</text>
</a>
</g>
</g>
<!-- dir_c2539499a1d5f0a04b2dc79b275506bd&#45;&gt;dir_bcbb2cf9a3d3d83e5515c82071a07177 -->
<g id="edge11" class="edge"><title>dir_c2539499a1d5f0a04b2dc79b275506bd&#45;&gt;dir_bcbb2cf9a3d3d83e5515c82071a07177</title>
<path fill="none" stroke="black" d="M596.709,-71.8948C592.815,-69.2208 588.812,-66.5127 585,-64 573.735,-56.5744 561.321,-48.7061 550.02,-41.6609"/>
<polygon fill="black" stroke="black" points="551.581,-38.5104 541.239,-36.2114 547.89,-44.4582 551.581,-38.5104"/>
<g id="a_edge11&#45;headlabel"><a xlink:href="dir_000019_000000.html" target="_top" xlink:title="4">
<text text-anchor="middle" x="556.132" y="-35.4933" font-family="Helvetica,sans-Serif" font-size="10.00">4</text>
</a>
</g>
</g>
<!-- dir_48a8cb84b7ebf8a30d1487d6c616d7f4 -->
<g id="node8" class="node"><title>dir_48a8cb84b7ebf8a30d1487d6c616d7f4</title>
<g id="a_node8"><a xlink:href="dir_48a8cb84b7ebf8a30d1487d6c616d7f4.html" target="_top" xlink:title="ITS">
<polygon fill="white" stroke="red" points="576,-108 522,-108 522,-72 576,-72 576,-108"/>
<text text-anchor="middle" x="549" y="-87.5" font-family="Helvetica,sans-Serif" font-size="10.00">ITS</text>
</a>
</g>
</g>
<!-- dir_48a8cb84b7ebf8a30d1487d6c616d7f4&#45;&gt;dir_bcbb2cf9a3d3d83e5515c82071a07177 -->
<g id="edge2" class="edge"><title>dir_48a8cb84b7ebf8a30d1487d6c616d7f4&#45;&gt;dir_bcbb2cf9a3d3d83e5515c82071a07177</title>
<path fill="none" stroke="black" d="M540.101,-71.6966C536.003,-63.7284 531.051,-54.0995 526.507,-45.2641"/>
<polygon fill="black" stroke="black" points="529.483,-43.3965 521.797,-36.1043 523.258,-46.598 529.483,-43.3965"/>
<g id="a_edge2&#45;headlabel"><a xlink:href="dir_000022_000000.html" target="_top" xlink:title="33">
<text text-anchor="middle" x="533.651" y="-42.7946" font-family="Helvetica,sans-Serif" font-size="10.00">33</text>
</a>
</g>
</g>
<!-- dir_83d1d206e08935b361e68569931943ec -->
<g id="node9" class="node"><title>dir_83d1d206e08935b361e68569931943ec</title>
<g id="a_node9"><a xlink:href="dir_83d1d206e08935b361e68569931943ec.html" target="_top" xlink:title="MFT">
<polygon fill="white" stroke="red" points="504,-108 450,-108 450,-72 504,-72 504,-108"/>
<text text-anchor="middle" x="477" y="-87.5" font-family="Helvetica,sans-Serif" font-size="10.00">MFT</text>
</a>
</g>
</g>
<!-- dir_83d1d206e08935b361e68569931943ec&#45;&gt;dir_bcbb2cf9a3d3d83e5515c82071a07177 -->
<g id="edge10" class="edge"><title>dir_83d1d206e08935b361e68569931943ec&#45;&gt;dir_bcbb2cf9a3d3d83e5515c82071a07177</title>
<path fill="none" stroke="black" d="M485.899,-71.6966C489.997,-63.7284 494.949,-54.0995 499.493,-45.2641"/>
<polygon fill="black" stroke="black" points="502.742,-46.598 504.203,-36.1043 496.517,-43.3965 502.742,-46.598"/>
<g id="a_edge10&#45;headlabel"><a xlink:href="dir_000025_000000.html" target="_top" xlink:title="16">
<text text-anchor="middle" x="503.623" y="-48.5931" font-family="Helvetica,sans-Serif" font-size="10.00">16</text>
</a>
</g>
</g>
<!-- dir_ed72a712e51ac04ff45d8c7804f27dca -->
<g id="node10" class="node"><title>dir_ed72a712e51ac04ff45d8c7804f27dca</title>
<g id="a_node10"><a xlink:href="dir_ed72a712e51ac04ff45d8c7804f27dca.html" target="_top" xlink:title="MID">
<polygon fill="white" stroke="red" points="432,-108 378,-108 378,-72 432,-72 432,-108"/>
<text text-anchor="middle" x="405" y="-87.5" font-family="Helvetica,sans-Serif" font-size="10.00">MID</text>
</a>
</g>
</g>
<!-- dir_ed72a712e51ac04ff45d8c7804f27dca&#45;&gt;dir_bcbb2cf9a3d3d83e5515c82071a07177 -->
<g id="edge3" class="edge"><title>dir_ed72a712e51ac04ff45d8c7804f27dca&#45;&gt;dir_bcbb2cf9a3d3d83e5515c82071a07177</title>
<path fill="none" stroke="black" d="M429.291,-71.8948C433.185,-69.2208 437.188,-66.5127 441,-64 452.265,-56.5744 464.679,-48.7061 475.98,-41.6609"/>
<polygon fill="black" stroke="black" points="478.11,-44.4582 484.761,-36.2114 474.419,-38.5104 478.11,-44.4582"/>
<g id="a_edge3&#45;headlabel"><a xlink:href="dir_000028_000000.html" target="_top" xlink:title="10">
<text text-anchor="middle" x="476.553" y="-46.2661" font-family="Helvetica,sans-Serif" font-size="10.00">10</text>
</a>
</g>
</g>
<!-- dir_d3f38a47912c447ca68cc325fcb37be5 -->
<g id="node11" class="node"><title>dir_d3f38a47912c447ca68cc325fcb37be5</title>
<g id="a_node11"><a xlink:href="dir_d3f38a47912c447ca68cc325fcb37be5.html" target="_top" xlink:title="MUON">
<polygon fill="white" stroke="red" points="360,-108 306,-108 306,-72 360,-72 360,-108"/>
<text text-anchor="middle" x="333" y="-87.5" font-family="Helvetica,sans-Serif" font-size="10.00">MUON</text>
</a>
</g>
</g>
<!-- dir_d3f38a47912c447ca68cc325fcb37be5&#45;&gt;dir_bcbb2cf9a3d3d83e5515c82071a07177 -->
<g id="edge9" class="edge"><title>dir_d3f38a47912c447ca68cc325fcb37be5&#45;&gt;dir_bcbb2cf9a3d3d83e5515c82071a07177</title>
<path fill="none" stroke="black" d="M355.6,-71.7749C359.911,-68.9373 364.489,-66.2067 369,-64 401.622,-48.0425 441.149,-36.1701 470.531,-28.6387"/>
<polygon fill="black" stroke="black" points="471.619,-31.9747 480.473,-26.1563 469.923,-25.1832 471.619,-31.9747"/>
<g id="a_edge9&#45;headlabel"><a xlink:href="dir_000031_000000.html" target="_top" xlink:title="18">
<text text-anchor="middle" x="468.819" y="-33.1001" font-family="Helvetica,sans-Serif" font-size="10.00">18</text>
</a>
</g>
</g>
<!-- dir_e5d84f0709a9c6ad9e00d771422a7ef2 -->
<g id="node12" class="node"><title>dir_e5d84f0709a9c6ad9e00d771422a7ef2</title>
<g id="a_node12"><a xlink:href="dir_e5d84f0709a9c6ad9e00d771422a7ef2.html" target="_top" xlink:title="PHOS">
<polygon fill="white" stroke="red" points="288,-108 234,-108 234,-72 288,-72 288,-108"/>
<text text-anchor="middle" x="261" y="-87.5" font-family="Helvetica,sans-Serif" font-size="10.00">PHOS</text>
</a>
</g>
</g>
<!-- dir_e5d84f0709a9c6ad9e00d771422a7ef2&#45;&gt;dir_bcbb2cf9a3d3d83e5515c82071a07177 -->
<g id="edge5" class="edge"><title>dir_e5d84f0709a9c6ad9e00d771422a7ef2&#45;&gt;dir_bcbb2cf9a3d3d83e5515c82071a07177</title>
<path fill="none" stroke="black" d="M282.648,-71.9183C287.198,-68.9274 292.107,-66.1046 297,-64 354.009,-39.4797 425.371,-27.9722 470.086,-22.8276"/>
<polygon fill="black" stroke="black" points="470.746,-26.2765 480.306,-21.7096 469.984,-19.318 470.746,-26.2765"/>
<g id="a_edge5&#45;headlabel"><a xlink:href="dir_000035_000000.html" target="_top" xlink:title="14">
<text text-anchor="middle" x="467.481" y="-26.9897" font-family="Helvetica,sans-Serif" font-size="10.00">14</text>
</a>
</g>
</g>
<!-- dir_cc72967e88078b463843b5977855e60d -->
<g id="node13" class="node"><title>dir_cc72967e88078b463843b5977855e60d</title>
<g id="a_node13"><a xlink:href="dir_cc72967e88078b463843b5977855e60d.html" target="_top" xlink:title="Skeleton">
<polygon fill="white" stroke="red" points="215.5,-108 160.5,-108 160.5,-72 215.5,-72 215.5,-108"/>
<text text-anchor="middle" x="188" y="-87.5" font-family="Helvetica,sans-Serif" font-size="10.00">Skeleton</text>
</a>
</g>
</g>
<!-- dir_cc72967e88078b463843b5977855e60d&#45;&gt;dir_bcbb2cf9a3d3d83e5515c82071a07177 -->
<g id="edge8" class="edge"><title>dir_cc72967e88078b463843b5977855e60d&#45;&gt;dir_bcbb2cf9a3d3d83e5515c82071a07177</title>
<path fill="none" stroke="black" d="M209.815,-71.9856C214.606,-68.9135 219.805,-66.0424 225,-64 307.69,-31.4889 412.421,-22.4056 470.067,-19.9072"/>
<polygon fill="black" stroke="black" points="470.41,-23.3967 480.267,-19.5132 470.139,-16.4019 470.41,-23.3967"/>
<g id="a_edge8&#45;headlabel"><a xlink:href="dir_000038_000000.html" target="_top" xlink:title="12">
<text text-anchor="middle" x="466.927" y="-23.8725" font-family="Helvetica,sans-Serif" font-size="10.00">12</text>
</a>
</g>
</g>
<!-- dir_d97bc60669e70ebe18802fd5c1c1d939 -->
<g id="node14" class="node"><title>dir_d97bc60669e70ebe18802fd5c1c1d939</title>
<g id="a_node14"><a xlink:href="dir_d97bc60669e70ebe18802fd5c1c1d939.html" target="_top" xlink:title="TOF">
<polygon fill="white" stroke="red" points="142,-108 88,-108 88,-72 142,-72 142,-108"/>
<text text-anchor="middle" x="115" y="-87.5" font-family="Helvetica,sans-Serif" font-size="10.00">TOF</text>
</a>
</g>
</g>
<!-- dir_d97bc60669e70ebe18802fd5c1c1d939&#45;&gt;dir_bcbb2cf9a3d3d83e5515c82071a07177 -->
<g id="edge13" class="edge"><title>dir_d97bc60669e70ebe18802fd5c1c1d939&#45;&gt;dir_bcbb2cf9a3d3d83e5515c82071a07177</title>
<path fill="none" stroke="black" d="M136.767,-71.8605C141.561,-68.7975 146.774,-65.9617 152,-64 209.484,-42.4209 387.893,-27.6625 470.38,-21.8119"/>
<polygon fill="black" stroke="black" points="470.689,-25.299 480.42,-21.1103 470.2,-18.316 470.689,-25.299"/>
<g id="a_edge13&#45;headlabel"><a xlink:href="dir_000041_000000.html" target="_top" xlink:title="32">
<text text-anchor="middle" x="467.301" y="-25.8818" font-family="Helvetica,sans-Serif" font-size="10.00">32</text>
</a>
</g>
</g>
<!-- dir_1daf86e93d49a76fe0702a1348efb120 -->
<g id="node15" class="node"><title>dir_1daf86e93d49a76fe0702a1348efb120</title>
<g id="a_node15"><a xlink:href="dir_1daf86e93d49a76fe0702a1348efb120.html" target="_top" xlink:title="TPC">
<polygon fill="white" stroke="red" points="70,-108 16,-108 16,-72 70,-72 70,-108"/>
<text text-anchor="middle" x="43" y="-87.5" font-family="Helvetica,sans-Serif" font-size="10.00">TPC</text>
</a>
</g>
</g>
<!-- dir_1daf86e93d49a76fe0702a1348efb120&#45;&gt;dir_bcbb2cf9a3d3d83e5515c82071a07177 -->
<g id="edge1" class="edge"><title>dir_1daf86e93d49a76fe0702a1348efb120&#45;&gt;dir_bcbb2cf9a3d3d83e5515c82071a07177</title>
<path fill="none" stroke="black" d="M64.0979,-71.7728C68.7683,-68.7161 73.8633,-65.9051 79,-64 150.11,-37.6267 375.513,-24.9791 470.325,-20.7209"/>
<polygon fill="black" stroke="black" points="470.586,-24.2129 480.422,-20.2771 470.278,-17.2197 470.586,-24.2129"/>
<g id="a_edge1&#45;headlabel"><a xlink:href="dir_000044_000000.html" target="_top" xlink:title="17">
<text text-anchor="middle" x="467.119" y="-24.7072" font-family="Helvetica,sans-Serif" font-size="10.00">17</text>
</a>
</g>
</g>
</g>
</svg>
        <g id="navigator" transform="translate(0 0)" fill="#404254">
                <rect fill="#f2f5e9" fill-opacity="0.5" stroke="#606060" stroke-width=".5" x="0" y="0" width="60" height="60"/>
                <use id="zoomplus" xlink:href="#zoomPlus" x="17" y="9" onmousedown="handleZoom(evt,'in')"/>
                <use id="zoomminus" xlink:href="#zoomMin" x="42" y="9" onmousedown="handleZoom(evt,'out')"/>
                <use id="reset" xlink:href="#resetDef" x="30" y="36" onmousedown="handleReset()"/>
                <g id="arrowUp" xlink:href="#dirArrow" transform="translate(30 24)" onmousedown="handlePan(0,-1)">
                  <use xlink:href="#rim" fill="#404040">
                        <set attributeName="fill" to="#808080" begin="arrowUp.mouseover" end="arrowUp.mouseout"/>
                  </use>
                  <path fill="none" stroke="white" stroke-width="1.5" d="M0,-3.0v7 M-2.5,-0.5L0,-3.0L2.5,-0.5"/>
                </g>
                <g id="arrowRight" xlink:href="#dirArrow" transform="rotate(90) translate(36 -43)" onmousedown="handlePan(1,0)">
                  <use xlink:href="#rim" fill="#404040">
                        <set attributeName="fill" to="#808080" begin="arrowRight.mouseover" end="arrowRight.mouseout"/>
                  </use>
                  <path fill="none" stroke="white" stroke-width="1.5" d="M0,-3.0v7 M-2.5,-0.5L0,-3.0L2.5,-0.5"/>
                </g>
                <g id="arrowDown" xlink:href="#dirArrow" transform="rotate(180) translate(-30 -48)" onmousedown="handlePan(0,1)">
                  <use xlink:href="#rim" fill="#404040">
                        <set attributeName="fill" to="#808080" begin="arrowDown.mouseover" end="arrowDown.mouseout"/>
                  </use>
                  <path fill="none" stroke="white" stroke-width="1.5" d="M0,-3.0v7 M-2.5,-0.5L0,-3.0L2.5,-0.5"/>
                </g>
                <g id="arrowLeft" xlink:href="#dirArrow" transform="rotate(270) translate(-36 17)" onmousedown="handlePan(-1,0)">
                  <use xlink:href="#rim" fill="#404040">
                        <set attributeName="fill" to="#808080" begin="arrowLeft.mouseover" end="arrowLeft.mouseout"/>
                  </use>
                  <path fill="none" stroke="white" stroke-width="1.5" d="M0,-3.0v7 M-2.5,-0.5L0,-3.0L2.5,-0.5"/>
                </g>
        </g>
        <svg viewBox="0 0 15 15" width="100%" height="30px" preserveAspectRatio="xMaxYMin meet">
         <g id="arrow_out" transform="scale(0.3 0.3)">
          <a xlink:href="dir_f2541a3b18981391fa76fac5599e978a_dep_org.svg" target="_base">
           <rect id="button" ry="5" rx="5" y="6" x="6" height="38" width="38"
                fill="#f2f5e9" fill-opacity="0.5" stroke="#606060" stroke-width="1.0"/>
           <path id="arrow"
             d="M 11.500037,31.436501 C 11.940474,20.09759 22.043105,11.32322 32.158766,21.979434 L 37.068811,17.246167 C 37.068811,17.246167 37.088388,32 37.088388,32 L 22.160133,31.978069 C 22.160133,31.978069 26.997745,27.140456 26.997745,27.140456 C 18.528582,18.264221 13.291696,25.230495 11.500037,31.436501 z"
             style="fill:#404040;"/>
          </a>
         </g>
        </svg>
</svg>
