<?xml version="1.0" encoding="UTF-8" standalone="no"?>
<!DOCTYPE svg PUBLIC "-//W3C//DTD SVG 1.1//EN"
 "http://www.w3.org/Graphics/SVG/1.1/DTD/svg11.dtd">
<!-- Generated by graphviz version 2.38.0 (20140413.2041)
 -->
<!-- Title: Modules/Common/test Pages: 1 -->
<svg width="105pt" height="223pt"
 viewBox="0.00 0.00 105.00 223.00" xmlns="http://www.w3.org/2000/svg" xmlns:xlink="http://www.w3.org/1999/xlink">
<g id="graph0" class="graph" transform="scale(1 1) rotate(0) translate(4 219)">
<title>Modules/Common/test</title>
<g id="clust1" class="cluster"><title>clusterdir_6b8bd6c02904bc94839ef977dfbf16fd</title>
<g id="a_clust1"><a xlink:href="dir_6b8bd6c02904bc94839ef977dfbf16fd.html" target="_top" xlink:title="Common">
<polygon fill="#ddddee" stroke="black" points="19,-136 19,-207 89,-207 89,-136 19,-136"/>
<text text-anchor="middle" x="54" y="-195" font-family="Helvetica,sans-Serif" font-size="10.00">Common</text>
</a>
</g>
</g>
<!-- dir_27999782bc6f94329efb152568d588f7 -->
<g id="node1" class="node"><title>dir_27999782bc6f94329efb152568d588f7</title>
<g id="a_node1"><a xlink:href="dir_27999782bc6f94329efb152568d588f7.html" target="_top" xlink:title="test">
<polygon fill="#eeeeff" stroke="black" points="81,-180 27,-180 27,-144 81,-144 81,-180"/>
<text text-anchor="middle" x="54" y="-159.5" font-family="Helvetica,sans-Serif" font-size="10.00">test</text>
</a>
</g>
</g>
<!-- dir_caae62af8a804fdc9eaf1a3e87248c28 -->
<g id="node2" class="node"><title>dir_caae62af8a804fdc9eaf1a3e87248c28</title>
<g id="a_node2"><a xlink:href="dir_caae62af8a804fdc9eaf1a3e87248c28.html" target="_top" xlink:title="include">
<polygon fill="none" stroke="red" points="54,-108 0,-108 0,-72 54,-72 54,-108"/>
<text text-anchor="middle" x="27" y="-87.5" font-family="Helvetica,sans-Serif" font-size="10.00">include</text>
</a>
</g>
</g>
<!-- dir_27999782bc6f94329efb152568d588f7&#45;&gt;dir_caae62af8a804fdc9eaf1a3e87248c28 -->
<g id="edge2" class="edge"><title>dir_27999782bc6f94329efb152568d588f7&#45;&gt;dir_caae62af8a804fdc9eaf1a3e87248c28</title>
<path fill="none" stroke="black" d="M47.3258,-143.697C44.2851,-135.813 40.6173,-126.304 37.2393,-117.546"/>
<polygon fill="black" stroke="black" points="40.4617,-116.175 33.5974,-108.104 33.9307,-118.694 40.4617,-116.175"/>
<g id="a_edge2&#45;headlabel"><a xlink:href="dir_000053_000005.html" target="_top" xlink:title="5">
<text text-anchor="middle" x="44.4043" y="-116.007" font-family="Helvetica,sans-Serif" font-size="10.00">5</text>
</a>
</g>
</g>
<!-- dir_bcbb2cf9a3d3d83e5515c82071a07177 -->
<g id="node3" class="node"><title>dir_bcbb2cf9a3d3d83e5515c82071a07177</title>
<g id="a_node3"><a xlink:href="dir_bcbb2cf9a3d3d83e5515c82071a07177.html" target="_top" xlink:title="Framework">
<polygon fill="none" stroke="red" points="86.5,-36 21.5,-36 21.5,-0 86.5,-0 86.5,-36"/>
<text text-anchor="middle" x="54" y="-15.5" font-family="Helvetica,sans-Serif" font-size="10.00">Framework</text>
</a>
</g>
</g>
<!-- dir_27999782bc6f94329efb152568d588f7&#45;&gt;dir_bcbb2cf9a3d3d83e5515c82071a07177 -->
<g id="edge3" class="edge"><title>dir_27999782bc6f94329efb152568d588f7&#45;&gt;dir_bcbb2cf9a3d3d83e5515c82071a07177</title>
<path fill="none" stroke="black" d="M57.6538,-143.908C59.6758,-133.569 61.9808,-120.09 63,-108 64.3441,-92.0566 64.3441,-87.9434 63,-72 62.2834,-63.4991 60.9311,-54.3119 59.4884,-46.0122"/>
<polygon fill="black" stroke="black" points="62.9142,-45.2892 57.6538,-36.0925 56.0309,-46.5623 62.9142,-45.2892"/>
<g id="a_edge3&#45;headlabel"><a xlink:href="dir_000053_000000.html" target="_top" xlink:title="1">
<text text-anchor="middle" x="66.3597" y="-45.8075" font-family="Helvetica,sans-Serif" font-size="10.00">1</text>
</a>
</g>
</g>
<!-- dir_caae62af8a804fdc9eaf1a3e87248c28&#45;&gt;dir_bcbb2cf9a3d3d83e5515c82071a07177 -->
<g id="edge1" class="edge"><title>dir_caae62af8a804fdc9eaf1a3e87248c28&#45;&gt;dir_bcbb2cf9a3d3d83e5515c82071a07177</title>
<path fill="none" stroke="black" d="M33.6742,-71.6966C36.7149,-63.8132 40.3827,-54.3042 43.7607,-45.5464"/>
<polygon fill="black" stroke="black" points="47.0693,-46.6939 47.4026,-36.1043 40.5383,-44.1748 47.0693,-46.6939"/>
<g id="a_edge1&#45;headlabel"><a xlink:href="dir_000005_000000.html" target="_top" xlink:title="8">
<text text-anchor="middle" x="48.4248" y="-48.5695" font-family="Helvetica,sans-Serif" font-size="10.00">8</text>
</a>
</g>
</g>
</g>
</svg>
