<?xml version="1.0" encoding="UTF-8" standalone="no"?>
<!DOCTYPE svg PUBLIC "-//W3C//DTD SVG 1.1//EN"
 "http://www.w3.org/Graphics/SVG/1.1/DTD/svg11.dtd">
<!-- Generated by graphviz version 2.38.0 (20140413.2041)
 -->
<!-- Title: Modules/Example Pages: 1 -->
<svg width="256pt" height="231pt"
 viewBox="0.00 0.00 256.00 231.00" xmlns="http://www.w3.org/2000/svg" xmlns:xlink="http://www.w3.org/1999/xlink">
<g id="graph0" class="graph" transform="scale(1 1) rotate(0) translate(4 227)">
<title>Modules/Example</title>
<g id="clust1" class="cluster"><title>clusterdir_f2541a3b18981391fa76fac5599e978a</title>
<g id="a_clust1"><a xlink:href="dir_f2541a3b18981391fa76fac5599e978a.html" target="_top" xlink:title="Modules">
<polygon fill="#ddddee" stroke="black" points="8,-56 8,-215 240,-215 240,-56 8,-56"/>
<text text-anchor="middle" x="124" y="-203" font-family="Helvetica,sans-Serif" font-size="10.00">Modules</text>
</a>
</g>
</g>
<g id="clust2" class="cluster"><title>clusterdir_5273b6b5b4e75477d91e3579fb65d936</title>
<g id="a_clust2"><a xlink:href="dir_5273b6b5b4e75477d91e3579fb65d936.html" target="_top">
<polygon fill="#eeeeff" stroke="black" points="16,-64 16,-188 232,-188 232,-64 16,-64"/>
</a>
</g>
</g>
<!-- dir_5273b6b5b4e75477d91e3579fb65d936 -->
<g id="node1" class="node"><title>dir_5273b6b5b4e75477d91e3579fb65d936</title>
<text text-anchor="middle" x="196" y="-159.5" font-family="Helvetica,sans-Serif" font-size="10.00">Example</text>
</g>
<!-- dir_4f716d1398dd9e7f7923e011ccd04c42 -->
<g id="node2" class="node"><title>dir_4f716d1398dd9e7f7923e011ccd04c42</title>
<g id="a_node2"><a xlink:href="dir_4f716d1398dd9e7f7923e011ccd04c42.html" target="_top" xlink:title="include">
<polygon fill="white" stroke="red" points="78,-108 24,-108 24,-72 78,-72 78,-108"/>
<text text-anchor="middle" x="51" y="-87.5" font-family="Helvetica,sans-Serif" font-size="10.00">include</text>
</a>
</g>
</g>
<!-- dir_bcbb2cf9a3d3d83e5515c82071a07177 -->
<g id="node5" class="node"><title>dir_bcbb2cf9a3d3d83e5515c82071a07177</title>
<g id="a_node5"><a xlink:href="dir_bcbb2cf9a3d3d83e5515c82071a07177.html" target="_top" xlink:title="Framework">
<polygon fill="none" stroke="red" points="138.5,-36 73.5,-36 73.5,-0 138.5,-0 138.5,-36"/>
<text text-anchor="middle" x="106" y="-15.5" font-family="Helvetica,sans-Serif" font-size="10.00">Framework</text>
</a>
</g>
</g>
<!-- dir_4f716d1398dd9e7f7923e011ccd04c42&#45;&gt;dir_bcbb2cf9a3d3d83e5515c82071a07177 -->
<g id="edge5" class="edge"><title>dir_4f716d1398dd9e7f7923e011ccd04c42&#45;&gt;dir_bcbb2cf9a3d3d83e5515c82071a07177</title>
<path fill="none" stroke="black" d="M64.5955,-71.6966C71.1227,-63.3893 79.068,-53.2771 86.2466,-44.1407"/>
<polygon fill="black" stroke="black" points="89.1347,-46.1299 92.5609,-36.1043 83.6305,-41.8051 89.1347,-46.1299"/>
<g id="a_edge5&#45;headlabel"><a xlink:href="dir_000014_000000.html" target="_top" xlink:title="4">
<text text-anchor="middle" x="89.1465" y="-48.2106" font-family="Helvetica,sans-Serif" font-size="10.00">4</text>
</a>
</g>
</g>
<!-- dir_fdb6ddbbc2da1863ce9fae6cded46ef3 -->
<g id="node3" class="node"><title>dir_fdb6ddbbc2da1863ce9fae6cded46ef3</title>
<g id="a_node3"><a xlink:href="dir_fdb6ddbbc2da1863ce9fae6cded46ef3.html" target="_top" xlink:title="src">
<polygon fill="white" stroke="black" points="78,-180 24,-180 24,-144 78,-144 78,-180"/>
<text text-anchor="middle" x="51" y="-159.5" font-family="Helvetica,sans-Serif" font-size="10.00">src</text>
</a>
</g>
</g>
<!-- dir_fdb6ddbbc2da1863ce9fae6cded46ef3&#45;&gt;dir_4f716d1398dd9e7f7923e011ccd04c42 -->
<g id="edge4" class="edge"><title>dir_fdb6ddbbc2da1863ce9fae6cded46ef3&#45;&gt;dir_4f716d1398dd9e7f7923e011ccd04c42</title>
<path fill="none" stroke="black" d="M51,-143.697C51,-135.983 51,-126.712 51,-118.112"/>
<polygon fill="black" stroke="black" points="54.5001,-118.104 51,-108.104 47.5001,-118.104 54.5001,-118.104"/>
<g id="a_edge4&#45;headlabel"><a xlink:href="dir_000059_000014.html" target="_top" xlink:title="4">
<text text-anchor="middle" x="57.3393" y="-119.199" font-family="Helvetica,sans-Serif" font-size="10.00">4</text>
</a>
</g>
</g>
<!-- dir_fdb6ddbbc2da1863ce9fae6cded46ef3&#45;&gt;dir_bcbb2cf9a3d3d83e5515c82071a07177 -->
<g id="edge3" class="edge"><title>dir_fdb6ddbbc2da1863ce9fae6cded46ef3&#45;&gt;dir_bcbb2cf9a3d3d83e5515c82071a07177</title>
<path fill="none" stroke="black" d="M65.1647,-143.851C72.6902,-133.93 81.4971,-120.89 87,-108 95.4132,-88.2932 100.245,-64.4881 102.928,-46.4579"/>
<polygon fill="black" stroke="black" points="106.427,-46.7052 104.303,-36.3255 99.4903,-45.7643 106.427,-46.7052"/>
<g id="a_edge3&#45;headlabel"><a xlink:href="dir_000059_000000.html" target="_top" xlink:title="4">
<text text-anchor="middle" x="108.757" y="-48.1489" font-family="Helvetica,sans-Serif" font-size="10.00">4</text>
</a>
</g>
</g>
<!-- dir_faf8ee473e0eaeabff8126873fcb7894 -->
<g id="node4" class="node"><title>dir_faf8ee473e0eaeabff8126873fcb7894</title>
<g id="a_node4"><a xlink:href="dir_faf8ee473e0eaeabff8126873fcb7894.html" target="_top" xlink:title="test">
<polygon fill="white" stroke="black" points="150,-180 96,-180 96,-144 150,-144 150,-180"/>
<text text-anchor="middle" x="123" y="-159.5" font-family="Helvetica,sans-Serif" font-size="10.00">test</text>
</a>
</g>
</g>
<!-- dir_faf8ee473e0eaeabff8126873fcb7894&#45;&gt;dir_4f716d1398dd9e7f7923e011ccd04c42 -->
<g id="edge2" class="edge"><title>dir_faf8ee473e0eaeabff8126873fcb7894&#45;&gt;dir_4f716d1398dd9e7f7923e011ccd04c42</title>
<path fill="none" stroke="black" d="M105.202,-143.697C96.396,-135.135 85.6179,-124.656 75.9989,-115.304"/>
<polygon fill="black" stroke="black" points="78.2028,-112.566 68.593,-108.104 73.3232,-117.585 78.2028,-112.566"/>
<g id="a_edge2&#45;headlabel"><a xlink:href="dir_000060_000014.html" target="_top" xlink:title="1">
<text text-anchor="middle" x="82.7593" y="-110.536" font-family="Helvetica,sans-Serif" font-size="10.00">1</text>
</a>
</g>
</g>
<!-- dir_faf8ee473e0eaeabff8126873fcb7894&#45;&gt;dir_bcbb2cf9a3d3d83e5515c82071a07177 -->
<g id="edge1" class="edge"><title>dir_faf8ee473e0eaeabff8126873fcb7894&#45;&gt;dir_bcbb2cf9a3d3d83e5515c82071a07177</title>
<path fill="none" stroke="black" d="M124.247,-143.709C125.362,-122.737 126.012,-86.4138 120,-56 119.347,-52.6985 118.432,-49.3053 117.378,-45.9765"/>
<polygon fill="black" stroke="black" points="120.592,-44.5725 113.924,-36.3392 114.003,-46.9338 120.592,-44.5725"/>
<g id="a_edge1&#45;headlabel"><a xlink:href="dir_000060_000000.html" target="_top" xlink:title="3">
<text text-anchor="middle" x="124.478" y="-44.4987" font-family="Helvetica,sans-Serif" font-size="10.00">3</text>
</a>
</g>
</g>
</g>
</svg>
