<?xml version="1.0" encoding="UTF-8" standalone="no"?>
<!DOCTYPE svg PUBLIC "-//W3C//DTD SVG 1.1//EN"
 "http://www.w3.org/Graphics/SVG/1.1/DTD/svg11.dtd">
<!-- Generated by graphviz version 2.38.0 (20140413.2041)
 -->
<!-- Title: Modules/TPC Pages: 1 -->
<svg width="326pt" height="231pt"
 viewBox="0.00 0.00 326.00 231.00" xmlns="http://www.w3.org/2000/svg" xmlns:xlink="http://www.w3.org/1999/xlink">
<g id="graph0" class="graph" transform="scale(1 1) rotate(0) translate(4 227)">
<title>Modules/TPC</title>
<g id="clust1" class="cluster"><title>clusterdir_f2541a3b18981391fa76fac5599e978a</title>
<g id="a_clust1"><a xlink:href="dir_f2541a3b18981391fa76fac5599e978a.html" target="_top" xlink:title="Modules">
<polygon fill="#ddddee" stroke="black" points="8,-56 8,-215 310,-215 310,-56 8,-56"/>
<text text-anchor="middle" x="159" y="-203" font-family="Helvetica,sans-Serif" font-size="10.00">Modules</text>
</a>
</g>
</g>
<g id="clust2" class="cluster"><title>clusterdir_1daf86e93d49a76fe0702a1348efb120</title>
<g id="a_clust2"><a xlink:href="dir_1daf86e93d49a76fe0702a1348efb120.html" target="_top">
<polygon fill="#eeeeff" stroke="black" points="16,-64 16,-188 302,-188 302,-64 16,-64"/>
</a>
</g>
</g>
<!-- dir_1daf86e93d49a76fe0702a1348efb120 -->
<g id="node1" class="node"><title>dir_1daf86e93d49a76fe0702a1348efb120</title>
<text text-anchor="middle" x="267" y="-159.5" font-family="Helvetica,sans-Serif" font-size="10.00">TPC</text>
</g>
<!-- dir_34a4956a874ea31fd302e3c925329874 -->
<g id="node2" class="node"><title>dir_34a4956a874ea31fd302e3c925329874</title>
<g id="a_node2"><a xlink:href="dir_34a4956a874ea31fd302e3c925329874.html" target="_top" xlink:title="include">
<polygon fill="white" stroke="red" points="78,-108 24,-108 24,-72 78,-72 78,-108"/>
<text text-anchor="middle" x="51" y="-87.5" font-family="Helvetica,sans-Serif" font-size="10.00">include</text>
</a>
</g>
</g>
<!-- dir_bcbb2cf9a3d3d83e5515c82071a07177 -->
<g id="node6" class="node"><title>dir_bcbb2cf9a3d3d83e5515c82071a07177</title>
<g id="a_node6"><a xlink:href="dir_bcbb2cf9a3d3d83e5515c82071a07177.html" target="_top" xlink:title="Framework">
<polygon fill="none" stroke="red" points="157.5,-36 92.5,-36 92.5,-0 157.5,-0 157.5,-36"/>
<text text-anchor="middle" x="125" y="-15.5" font-family="Helvetica,sans-Serif" font-size="10.00">Framework</text>
</a>
</g>
</g>
<!-- dir_34a4956a874ea31fd302e3c925329874&#45;&gt;dir_bcbb2cf9a3d3d83e5515c82071a07177 -->
<g id="edge3" class="edge"><title>dir_34a4956a874ea31fd302e3c925329874&#45;&gt;dir_bcbb2cf9a3d3d83e5515c82071a07177</title>
<path fill="none" stroke="black" d="M69.2921,-71.6966C78.4326,-63.0503 89.6401,-52.4486 99.6,-43.027"/>
<polygon fill="black" stroke="black" points="102.059,-45.519 106.918,-36.1043 97.2484,-40.4337 102.059,-45.519"/>
<g id="a_edge3&#45;headlabel"><a xlink:href="dir_000045_000000.html" target="_top" xlink:title="6">
<text text-anchor="middle" x="101.399" y="-47.5518" font-family="Helvetica,sans-Serif" font-size="10.00">6</text>
</a>
</g>
</g>
<!-- dir_09d05f0a4cfe55c1c49a54455d248558 -->
<g id="node3" class="node"><title>dir_09d05f0a4cfe55c1c49a54455d248558</title>
<g id="a_node3"><a xlink:href="dir_09d05f0a4cfe55c1c49a54455d248558.html" target="_top" xlink:title="run">
<polygon fill="white" stroke="black" points="150,-180 96,-180 96,-144 150,-144 150,-180"/>
<text text-anchor="middle" x="123" y="-159.5" font-family="Helvetica,sans-Serif" font-size="10.00">run</text>
</a>
</g>
</g>
<!-- dir_09d05f0a4cfe55c1c49a54455d248558&#45;&gt;dir_bcbb2cf9a3d3d83e5515c82071a07177 -->
<g id="edge2" class="edge"><title>dir_09d05f0a4cfe55c1c49a54455d248558&#45;&gt;dir_bcbb2cf9a3d3d83e5515c82071a07177</title>
<path fill="none" stroke="black" d="M123.241,-143.871C123.582,-119.67 124.208,-75.2108 124.614,-46.3932"/>
<polygon fill="black" stroke="black" points="128.117,-46.2376 124.758,-36.1893 121.117,-46.1389 128.117,-46.2376"/>
<g id="a_edge2&#45;headlabel"><a xlink:href="dir_000077_000000.html" target="_top" xlink:title="3">
<text text-anchor="middle" x="130.905" y="-47.3718" font-family="Helvetica,sans-Serif" font-size="10.00">3</text>
</a>
</g>
</g>
<!-- dir_1cf3c0bd6553348c9dc995e55bfd3089 -->
<g id="node4" class="node"><title>dir_1cf3c0bd6553348c9dc995e55bfd3089</title>
<g id="a_node4"><a xlink:href="dir_1cf3c0bd6553348c9dc995e55bfd3089.html" target="_top" xlink:title="src">
<polygon fill="white" stroke="black" points="78,-180 24,-180 24,-144 78,-144 78,-180"/>
<text text-anchor="middle" x="51" y="-159.5" font-family="Helvetica,sans-Serif" font-size="10.00">src</text>
</a>
</g>
</g>
<!-- dir_1cf3c0bd6553348c9dc995e55bfd3089&#45;&gt;dir_34a4956a874ea31fd302e3c925329874 -->
<g id="edge4" class="edge"><title>dir_1cf3c0bd6553348c9dc995e55bfd3089&#45;&gt;dir_34a4956a874ea31fd302e3c925329874</title>
<path fill="none" stroke="black" d="M51,-143.697C51,-135.983 51,-126.712 51,-118.112"/>
<polygon fill="black" stroke="black" points="54.5001,-118.104 51,-108.104 47.5001,-118.104 54.5001,-118.104"/>
<g id="a_edge4&#45;headlabel"><a xlink:href="dir_000078_000045.html" target="_top" xlink:title="5">
<text text-anchor="middle" x="57.3393" y="-119.199" font-family="Helvetica,sans-Serif" font-size="10.00">5</text>
</a>
</g>
</g>
<!-- dir_1cf3c0bd6553348c9dc995e55bfd3089&#45;&gt;dir_bcbb2cf9a3d3d83e5515c82071a07177 -->
<g id="edge5" class="edge"><title>dir_1cf3c0bd6553348c9dc995e55bfd3089&#45;&gt;dir_bcbb2cf9a3d3d83e5515c82071a07177</title>
<path fill="none" stroke="black" d="M63.8796,-143.871C71.1728,-133.744 80.1728,-120.494 87,-108 98.0285,-87.8172 108.128,-63.77 115.139,-45.7626"/>
<polygon fill="black" stroke="black" points="118.497,-46.7789 118.798,-36.1883 111.959,-44.2801 118.497,-46.7789"/>
<g id="a_edge5&#45;headlabel"><a xlink:href="dir_000078_000000.html" target="_top" xlink:title="7">
<text text-anchor="middle" x="119.867" y="-48.6502" font-family="Helvetica,sans-Serif" font-size="10.00">7</text>
</a>
</g>
</g>
<!-- dir_abac60189cb6f0035268ac5b7d8f851a -->
<g id="node5" class="node"><title>dir_abac60189cb6f0035268ac5b7d8f851a</title>
<g id="a_node5"><a xlink:href="dir_abac60189cb6f0035268ac5b7d8f851a.html" target="_top" xlink:title="test">
<polygon fill="white" stroke="black" points="222,-180 168,-180 168,-144 222,-144 222,-180"/>
<text text-anchor="middle" x="195" y="-159.5" font-family="Helvetica,sans-Serif" font-size="10.00">test</text>
</a>
</g>
</g>
<!-- dir_abac60189cb6f0035268ac5b7d8f851a&#45;&gt;dir_bcbb2cf9a3d3d83e5515c82071a07177 -->
<g id="edge1" class="edge"><title>dir_abac60189cb6f0035268ac5b7d8f851a&#45;&gt;dir_bcbb2cf9a3d3d83e5515c82071a07177</title>
<path fill="none" stroke="black" d="M186.556,-143.871C174.469,-119.35 152.129,-74.0321 137.945,-45.2589"/>
<polygon fill="black" stroke="black" points="141.034,-43.6111 133.474,-36.1893 134.756,-46.7062 141.034,-43.6111"/>
<g id="a_edge1&#45;headlabel"><a xlink:href="dir_000079_000000.html" target="_top" xlink:title="1">
<text text-anchor="middle" x="145.17" y="-43.0799" font-family="Helvetica,sans-Serif" font-size="10.00">1</text>
</a>
</g>
</g>
</g>
</svg>
