<?xml version="1.0" encoding="UTF-8" standalone="no"?>
<!DOCTYPE svg PUBLIC "-//W3C//DTD SVG 1.1//EN"
 "http://www.w3.org/Graphics/SVG/1.1/DTD/svg11.dtd">
<!-- Generated by graphviz version 2.38.0 (20140413.2041)
 -->
<!-- Title: Modules/Example/src/ExampleCondition.cxx Pages: 1 -->
<!--zoomable 352 -->
<svg id="main" version="1.1" xmlns="http://www.w3.org/2000/svg" xmlns:xlink="http://www.w3.org/1999/xlink" xml:space="preserve" onload="init(evt)">
<style type="text/css"><![CDATA[
.edge:hover path { stroke: red; }
.edge:hover polygon { stroke: red; fill: red; }
]]></style>
<script type="text/javascript"><![CDATA[
var edges = document.getElementsByTagName('g');
if (edges && edges.length) {
  for (var i=0;i<edges.length;i++) {
    if (edges[i].id.substr(0,4)=='edge') {
      edges[i].setAttribute('class','edge');
    }
  }
}
]]></script>
        <defs>
                <circle id="rim" cx="0" cy="0" r="7"/>
                <circle id="rim2" cx="0" cy="0" r="3.5"/>
                <g id="zoomPlus">
                        <use xlink:href="#rim" fill="#404040">
                                <set attributeName="fill" to="#808080" begin="zoomplus.mouseover" end="zoomplus.mouseout"/>
                        </use>
                        <path d="M-4,0h8M0,-4v8" fill="none" stroke="white" stroke-width="1.5" pointer-events="none"/>
                </g>
                <g id="zoomMin">
                        <use xlink:href="#rim" fill="#404040">
                                <set attributeName="fill" to="#808080" begin="zoomminus.mouseover" end="zoomminus.mouseout"/>
                        </use>
                        <path d="M-4,0h8" fill="none" stroke="white" stroke-width="1.5" pointer-events="none"/>
                </g>
                <g id="dirArrow">
                        <path fill="none" stroke="white" stroke-width="1.5" d="M0,-3.0v7 M-2.5,-0.5L0,-3.0L2.5,-0.5"/>
                </g>
               <g id="resetDef">
                       <use xlink:href="#rim2" fill="#404040">
                               <set attributeName="fill" to="#808080" begin="reset.mouseover" end="reset.mouseout"/>
                       </use>
               </g>
        </defs>

<script type="text/javascript">
var viewWidth = 1632;
var viewHeight = 352;
var sectionId = 'dynsection-0';
</script>
<script xlink:href="svgpan.js"/>
<svg id="graph" class="graph">
<g id="viewport">
<title>Modules/Example/src/ExampleCondition.cxx</title>
<!-- Node1 -->
<g id="node1" class="node"><title>Node1</title>
<polygon fill="#bfbfbf" stroke="black" points="920.5,-313.5 920.5,-343.5 1038.5,-343.5 1038.5,-313.5 920.5,-313.5"/>
<text text-anchor="start" x="928.5" y="-331.5" font-family="Helvetica,sans-Serif" font-size="10.00">Modules/Example/src</text>
<text text-anchor="middle" x="979.5" y="-320.5" font-family="Helvetica,sans-Serif" font-size="10.00">/ExampleCondition.cxx</text>
</g>
<!-- Node2 -->
<g id="node2" class="node"><title>Node2</title>
<g id="a_node2"><a xlink:href="ExampleCondition_8h.html" target="_top" xlink:title="Example/ExampleCondition.h">
<polygon fill="none" stroke="black" points="835.5,-252 835.5,-271 981.5,-271 981.5,-252 835.5,-252"/>
<text text-anchor="middle" x="908.5" y="-259" font-family="Helvetica,sans-Serif" font-size="10.00">Example/ExampleCondition.h</text>
</a>
</g>
</g>
<!-- Node1&#45;&gt;Node2 -->
<g id="edge1" class="edge"><title>Node1&#45;&gt;Node2</title>
<path fill="none" stroke="midnightblue" d="M964.094,-313.396C952.695,-302.96 937.174,-288.751 925.428,-277.998"/>
<polygon fill="midnightblue" stroke="midnightblue" points="927.736,-275.366 917.997,-271.195 923.01,-280.529 927.736,-275.366"/>
</g>
<!-- Node25 -->
<g id="node25" class="node"><title>Node25</title>
<polygon fill="none" stroke="#bfbfbf" points="1000,-246.5 1000,-276.5 1101,-276.5 1101,-246.5 1000,-246.5"/>
<text text-anchor="start" x="1008" y="-264.5" font-family="Helvetica,sans-Serif" font-size="10.00">boost/property_tree</text>
<text text-anchor="middle" x="1050.5" y="-253.5" font-family="Helvetica,sans-Serif" font-size="10.00">/ptree.hpp</text>
</g>
<!-- Node1&#45;&gt;Node25 -->
<g id="edge30" class="edge"><title>Node1&#45;&gt;Node25</title>
<path fill="none" stroke="midnightblue" d="M994.906,-313.396C1004.49,-304.623 1016.99,-293.183 1027.7,-283.371"/>
<polygon fill="midnightblue" stroke="midnightblue" points="1030.11,-285.911 1035.12,-276.577 1025.38,-280.748 1030.11,-285.911"/>
</g>
<!-- Node3 -->
<g id="node3" class="node"><title>Node3</title>
<g id="a_node3"><a xlink:href="TaskInterface_8h.html" target="_top" xlink:title="QualityControl/TaskInterface.h">
<polygon fill="none" stroke="black" points="751.5,-185 751.5,-204 901.5,-204 901.5,-185 751.5,-185"/>
<text text-anchor="middle" x="826.5" y="-192" font-family="Helvetica,sans-Serif" font-size="10.00">QualityControl/TaskInterface.h</text>
</a>
</g>
</g>
<!-- Node2&#45;&gt;Node3 -->
<g id="edge2" class="edge"><title>Node2&#45;&gt;Node3</title>
<path fill="none" stroke="midnightblue" d="M897.441,-251.734C884.162,-241.208 861.671,-223.379 845.571,-210.617"/>
<polygon fill="midnightblue" stroke="midnightblue" points="847.394,-207.596 837.384,-204.127 843.046,-213.082 847.394,-207.596"/>
</g>
<!-- Node24 -->
<g id="node24" class="node"><title>Node24</title>
<polygon fill="none" stroke="#bfbfbf" points="920,-179.5 920,-209.5 1063,-209.5 1063,-179.5 920,-179.5"/>
<text text-anchor="start" x="928" y="-197.5" font-family="Helvetica,sans-Serif" font-size="10.00">DataSampling/DataSampling</text>
<text text-anchor="middle" x="991.5" y="-186.5" font-family="Helvetica,sans-Serif" font-size="10.00">Condition.h</text>
</g>
<!-- Node2&#45;&gt;Node24 -->
<g id="edge29" class="edge"><title>Node2&#45;&gt;Node24</title>
<path fill="none" stroke="midnightblue" d="M919.694,-251.734C931.342,-242.611 949.995,-228.004 965.37,-215.963"/>
<polygon fill="midnightblue" stroke="midnightblue" points="967.794,-218.51 973.509,-209.589 963.478,-212.999 967.794,-218.51"/>
</g>
<!-- Node4 -->
<g id="node4" class="node"><title>Node4</title>
<polygon fill="none" stroke="#bfbfbf" points="0,-0.5 0,-19.5 35,-19.5 35,-0.5 0,-0.5"/>
<text text-anchor="middle" x="17.5" y="-7.5" font-family="Helvetica,sans-Serif" font-size="10.00">map</text>
</g>
<!-- Node3&#45;&gt;Node4 -->
<g id="edge3" class="edge"><title>Node3&#45;&gt;Node4</title>
<path fill="none" stroke="midnightblue" d="M751.333,-194.021C620.025,-192.361 342.648,-177.322 130.5,-87 93.792,-71.3715 56.3778,-43.3236 35.1387,-26.0204"/>
<polygon fill="midnightblue" stroke="midnightblue" points="37.257,-23.2302 27.3252,-19.5409 32.7886,-28.6185 37.257,-23.2302"/>
</g>
<!-- Node5 -->
<g id="node5" class="node"><title>Node5</title>
<polygon fill="none" stroke="#bfbfbf" points="705.5,-62 705.5,-81 757.5,-81 757.5,-62 705.5,-62"/>
<text text-anchor="middle" x="731.5" y="-69" font-family="Helvetica,sans-Serif" font-size="10.00">memory</text>
</g>
<!-- Node3&#45;&gt;Node5 -->
<g id="edge4" class="edge"><title>Node3&#45;&gt;Node5</title>
<path fill="none" stroke="midnightblue" d="M813.466,-184.669C800.562,-175.433 780.854,-159.943 767.5,-143 754.904,-127.019 744.836,-105.941 738.585,-91.0074"/>
<polygon fill="midnightblue" stroke="midnightblue" points="741.696,-89.3604 734.727,-81.3803 735.198,-91.9646 741.696,-89.3604"/>
</g>
<!-- Node6 -->
<g id="node6" class="node"><title>Node6</title>
<polygon fill="none" stroke="#bfbfbf" points="339,-0.5 339,-19.5 380,-19.5 380,-0.5 339,-0.5"/>
<text text-anchor="middle" x="359.5" y="-7.5" font-family="Helvetica,sans-Serif" font-size="10.00">string</text>
</g>
<!-- Node3&#45;&gt;Node6 -->
<g id="edge5" class="edge"><title>Node3&#45;&gt;Node6</title>
<path fill="none" stroke="midnightblue" d="M751.16,-193.142C672.59,-190.58 546.971,-180.253 445.5,-143 402.333,-127.152 380.523,-127.367 358.5,-87 348.846,-69.3058 351.069,-45.6691 354.432,-29.4811"/>
<polygon fill="midnightblue" stroke="midnightblue" points="357.866,-30.1707 356.811,-19.6286 351.062,-28.5279 357.866,-30.1707"/>
</g>
<!-- Node7 -->
<g id="node7" class="node"><title>Node7</title>
<polygon fill="none" stroke="#bfbfbf" points="423,-0.5 423,-19.5 506,-19.5 506,-0.5 423,-0.5"/>
<text text-anchor="middle" x="464.5" y="-7.5" font-family="Helvetica,sans-Serif" font-size="10.00">unordered_map</text>
</g>
<!-- Node3&#45;&gt;Node7 -->
<g id="edge6" class="edge"><title>Node3&#45;&gt;Node7</title>
<path fill="none" stroke="midnightblue" d="M821.616,-184.696C816.168,-174.724 807.235,-157.92 800.5,-143 783.42,-105.162 798.96,-81.8801 766.5,-56 761.633,-52.1199 601.276,-29.7011 516.259,-18.0419"/>
<polygon fill="midnightblue" stroke="midnightblue" points="516.663,-14.5646 506.28,-16.6754 515.713,-21.4999 516.663,-14.5646"/>
</g>
<!-- Node8 -->
<g id="node8" class="node"><title>Node8</title>
<polygon fill="none" stroke="#bfbfbf" points="810,-123.5 810,-142.5 935,-142.5 935,-123.5 810,-123.5"/>
<text text-anchor="middle" x="872.5" y="-130.5" font-family="Helvetica,sans-Serif" font-size="10.00">Framework/InitContext.h</text>
</g>
<!-- Node3&#45;&gt;Node8 -->
<g id="edge7" class="edge"><title>Node3&#45;&gt;Node8</title>
<path fill="none" stroke="midnightblue" d="M833.091,-184.975C839.991,-176.05 851.002,-161.807 859.634,-150.643"/>
<polygon fill="midnightblue" stroke="midnightblue" points="862.574,-152.561 865.922,-142.509 857.036,-148.28 862.574,-152.561"/>
</g>
<!-- Node9 -->
<g id="node9" class="node"><title>Node9</title>
<polygon fill="none" stroke="#bfbfbf" points="953.5,-123.5 953.5,-142.5 1113.5,-142.5 1113.5,-123.5 953.5,-123.5"/>
<text text-anchor="middle" x="1033.5" y="-130.5" font-family="Helvetica,sans-Serif" font-size="10.00">Framework/ProcessingContext.h</text>
</g>
<!-- Node3&#45;&gt;Node9 -->
<g id="edge8" class="edge"><title>Node3&#45;&gt;Node9</title>
<path fill="none" stroke="midnightblue" d="M856.158,-184.975C892.434,-174.548 953.964,-156.862 994.164,-145.307"/>
<polygon fill="midnightblue" stroke="midnightblue" points="995.253,-148.635 1003.9,-142.509 993.319,-141.908 995.253,-148.635"/>
</g>
<!-- Node10 -->
<g id="node10" class="node"><title>Node10</title>
<polygon fill="none" stroke="#bfbfbf" points="1132,-123.5 1132,-142.5 1227,-142.5 1227,-123.5 1132,-123.5"/>
<text text-anchor="middle" x="1179.5" y="-130.5" font-family="Helvetica,sans-Serif" font-size="10.00">CCDB/CcdbApi.h</text>
</g>
<!-- Node3&#45;&gt;Node10 -->
<g id="edge9" class="edge"><title>Node3&#45;&gt;Node10</title>
<path fill="none" stroke="midnightblue" d="M875.796,-184.947C887.19,-182.982 899.266,-180.909 910.5,-179 983.299,-166.628 1067.23,-152.63 1121.71,-143.578"/>
<polygon fill="midnightblue" stroke="midnightblue" points="1122.58,-146.983 1131.87,-141.892 1121.43,-140.077 1122.58,-146.983"/>
</g>
<!-- Node11 -->
<g id="node11" class="node"><title>Node11</title>
<g id="a_node11"><a xlink:href="Activity_8h.html" target="_top" xlink:title="QualityControl/Activity.h">
<polygon fill="none" stroke="black" points="1245,-123.5 1245,-142.5 1368,-142.5 1368,-123.5 1245,-123.5"/>
<text text-anchor="middle" x="1306.5" y="-130.5" font-family="Helvetica,sans-Serif" font-size="10.00">QualityControl/Activity.h</text>
</a>
</g>
</g>
<!-- Node3&#45;&gt;Node11 -->
<g id="edge10" class="edge"><title>Node3&#45;&gt;Node11</title>
<path fill="none" stroke="midnightblue" d="M873.074,-184.943C885.233,-182.851 898.338,-180.722 910.5,-179 1051.16,-159.088 1089.48,-160.082 1234.75,-143.066"/>
<polygon fill="midnightblue" stroke="midnightblue" points="1235.41,-146.512 1244.93,-141.864 1234.59,-139.561 1235.41,-146.512"/>
</g>
<!-- Node12 -->
<g id="node12" class="node"><title>Node12</title>
<g id="a_node12"><a xlink:href="ObjectsManager_8h.html" target="_top" xlink:title="QualityControl/ObjectsManager.h">
<polygon fill="none" stroke="black" points="455,-123.5 455,-142.5 616,-142.5 616,-123.5 455,-123.5"/>
<text text-anchor="middle" x="535.5" y="-130.5" font-family="Helvetica,sans-Serif" font-size="10.00">QualityControl/ObjectsManager.h</text>
</a>
</g>
</g>
<!-- Node3&#45;&gt;Node12 -->
<g id="edge11" class="edge"><title>Node3&#45;&gt;Node12</title>
<path fill="none" stroke="midnightblue" d="M784.807,-184.975C732.729,-174.327 643.63,-156.109 587.247,-144.581"/>
<polygon fill="midnightblue" stroke="midnightblue" points="587.614,-141.083 577.116,-142.509 586.212,-147.941 587.614,-141.083"/>
</g>
<!-- Node21 -->
<g id="node21" class="node"><title>Node21</title>
<g id="a_node21"><a xlink:href="QcInfoLogger_8h.html" target="_top" xlink:title="QualityControl/QcInfoLogger.h">
<polygon fill="none" stroke="black" points="1386,-123.5 1386,-142.5 1535,-142.5 1535,-123.5 1386,-123.5"/>
<text text-anchor="middle" x="1460.5" y="-130.5" font-family="Helvetica,sans-Serif" font-size="10.00">QualityControl/QcInfoLogger.h</text>
</a>
</g>
</g>
<!-- Node3&#45;&gt;Node21 -->
<g id="edge26" class="edge"><title>Node3&#45;&gt;Node21</title>
<path fill="none" stroke="midnightblue" d="M871.286,-184.968C883.93,-182.777 897.724,-180.593 910.5,-179 1113.41,-153.706 1167.95,-161.802 1375.84,-143.028"/>
<polygon fill="midnightblue" stroke="midnightblue" points="1376.22,-146.508 1385.86,-142.114 1375.58,-139.537 1376.22,-146.508"/>
</g>
<!-- Node12&#45;&gt;Node5 -->
<g id="edge25" class="edge"><title>Node12&#45;&gt;Node5</title>
<path fill="none" stroke="midnightblue" d="M569.851,-123.494C602.478,-115.144 652.756,-101.571 695.5,-87 697.625,-86.2758 699.806,-85.4945 701.993,-84.6833"/>
<polygon fill="midnightblue" stroke="midnightblue" points="703.399,-87.8921 711.462,-81.0193 700.873,-81.3637 703.399,-87.8921"/>
</g>
<!-- Node12&#45;&gt;Node6 -->
<g id="edge24" class="edge"><title>Node12&#45;&gt;Node6</title>
<path fill="none" stroke="midnightblue" d="M454.762,-125.997C426.509,-119.946 396.804,-108.469 376.5,-87 362.083,-71.7557 358.898,-47.0651 358.625,-29.983"/>
<polygon fill="midnightblue" stroke="midnightblue" points="362.131,-29.6393 358.799,-19.582 355.132,-29.5219 362.131,-29.6393"/>
</g>
<!-- Node13 -->
<g id="node13" class="node"><title>Node13</title>
<g id="a_node13"><a xlink:href="MonitorObject_8h.html" target="_top" xlink:title="QualityControl/MonitorObject.h">
<polygon fill="none" stroke="black" points="140,-62 140,-81 291,-81 291,-62 140,-62"/>
<text text-anchor="middle" x="215.5" y="-69" font-family="Helvetica,sans-Serif" font-size="10.00">QualityControl/MonitorObject.h</text>
</a>
</g>
</g>
<!-- Node12&#45;&gt;Node13 -->
<g id="edge12" class="edge"><title>Node12&#45;&gt;Node13</title>
<path fill="none" stroke="midnightblue" d="M489.652,-123.475C432.028,-112.761 333.185,-94.3821 271.25,-82.8661"/>
<polygon fill="midnightblue" stroke="midnightblue" points="271.734,-79.3962 261.263,-81.0091 270.455,-86.2782 271.734,-79.3962"/>
</g>
<!-- Node17 -->
<g id="node17" class="node"><title>Node17</title>
<g id="a_node17"><a xlink:href="MonitorObjectCollection_8h.html" target="_top" xlink:title="QualityControl/MonitorObject\lCollection.h">
<polygon fill="none" stroke="black" points="544,-56.5 544,-86.5 687,-86.5 687,-56.5 544,-56.5"/>
<text text-anchor="start" x="552" y="-74.5" font-family="Helvetica,sans-Serif" font-size="10.00">QualityControl/MonitorObject</text>
<text text-anchor="middle" x="615.5" y="-63.5" font-family="Helvetica,sans-Serif" font-size="10.00">Collection.h</text>
</a>
</g>
</g>
<!-- Node12&#45;&gt;Node17 -->
<g id="edge18" class="edge"><title>Node12&#45;&gt;Node17</title>
<path fill="none" stroke="midnightblue" d="M546.962,-123.475C557.696,-115.492 574.15,-103.254 588.246,-92.7703"/>
<polygon fill="midnightblue" stroke="midnightblue" points="590.71,-95.2993 596.646,-86.523 586.533,-89.6825 590.71,-95.2993"/>
</g>
<!-- Node20 -->
<g id="node20" class="node"><title>Node20</title>
<g id="a_node20"><a xlink:href="TaskConfig_8h.html" target="_top" xlink:title="QualityControl/TaskConfig.h">
<polygon fill="none" stroke="black" points="385.5,-62 385.5,-81 525.5,-81 525.5,-62 385.5,-62"/>
<text text-anchor="middle" x="455.5" y="-69" font-family="Helvetica,sans-Serif" font-size="10.00">QualityControl/TaskConfig.h</text>
</a>
</g>
</g>
<!-- Node12&#45;&gt;Node20 -->
<g id="edge21" class="edge"><title>Node12&#45;&gt;Node20</title>
<path fill="none" stroke="midnightblue" d="M524.038,-123.475C511.325,-114.02 490.587,-98.5961 475.247,-87.1871"/>
<polygon fill="midnightblue" stroke="midnightblue" points="477.054,-84.1686 466.941,-81.0091 472.876,-89.7854 477.054,-84.1686"/>
</g>
<!-- Node13&#45;&gt;Node4 -->
<g id="edge14" class="edge"><title>Node13&#45;&gt;Node4</title>
<path fill="none" stroke="midnightblue" d="M185.442,-61.9639C153.087,-52.7009 99.8941,-37.2578 44.7726,-20.0056"/>
<polygon fill="midnightblue" stroke="midnightblue" points="45.7797,-16.6534 35.1903,-16.9941 43.6809,-23.3313 45.7797,-16.6534"/>
</g>
<!-- Node13&#45;&gt;Node6 -->
<g id="edge13" class="edge"><title>Node13&#45;&gt;Node6</title>
<path fill="none" stroke="midnightblue" d="M236.132,-61.9751C260.619,-51.8571 301.647,-34.9046 329.609,-23.3507"/>
<polygon fill="midnightblue" stroke="midnightblue" points="331.001,-26.5627 338.907,-19.5091 328.328,-20.0932 331.001,-26.5627"/>
</g>
<!-- Node14 -->
<g id="node14" class="node"><title>Node14</title>
<polygon fill="none" stroke="#bfbfbf" points="187.5,-0.5 187.5,-19.5 243.5,-19.5 243.5,-0.5 187.5,-0.5"/>
<text text-anchor="middle" x="215.5" y="-7.5" font-family="Helvetica,sans-Serif" font-size="10.00">Rtypes.h</text>
</g>
<!-- Node13&#45;&gt;Node14 -->
<g id="edge15" class="edge"><title>Node13&#45;&gt;Node14</title>
<path fill="none" stroke="midnightblue" d="M215.5,-61.9751C215.5,-53.5803 215.5,-40.4806 215.5,-29.6631"/>
<polygon fill="midnightblue" stroke="midnightblue" points="219,-29.5091 215.5,-19.5091 212,-29.5091 219,-29.5091"/>
</g>
<!-- Node15 -->
<g id="node15" class="node"><title>Node15</title>
<polygon fill="none" stroke="#bfbfbf" points="262,-0.5 262,-19.5 321,-19.5 321,-0.5 262,-0.5"/>
<text text-anchor="middle" x="291.5" y="-7.5" font-family="Helvetica,sans-Serif" font-size="10.00">TObject.h</text>
</g>
<!-- Node13&#45;&gt;Node15 -->
<g id="edge16" class="edge"><title>Node13&#45;&gt;Node15</title>
<path fill="none" stroke="midnightblue" d="M226.389,-61.9751C238.466,-52.5199 258.167,-37.0961 272.74,-25.6871"/>
<polygon fill="midnightblue" stroke="midnightblue" points="274.915,-28.4295 280.631,-19.5091 270.6,-22.9177 274.915,-28.4295"/>
</g>
<!-- Node16 -->
<g id="node16" class="node"><title>Node16</title>
<polygon fill="none" stroke="#bfbfbf" points="53.5,-0.5 53.5,-19.5 169.5,-19.5 169.5,-0.5 53.5,-0.5"/>
<text text-anchor="middle" x="111.5" y="-7.5" font-family="Helvetica,sans-Serif" font-size="10.00">Common/Exceptions.h</text>
</g>
<!-- Node13&#45;&gt;Node16 -->
<g id="edge17" class="edge"><title>Node13&#45;&gt;Node16</title>
<path fill="none" stroke="midnightblue" d="M200.599,-61.9751C183.532,-52.2106 155.339,-36.0807 135.238,-24.5808"/>
<polygon fill="midnightblue" stroke="midnightblue" points="136.791,-21.4371 126.373,-19.5091 133.315,-27.513 136.791,-21.4371"/>
</g>
<!-- Node18 -->
<g id="node18" class="node"><title>Node18</title>
<polygon fill="none" stroke="#bfbfbf" points="689,-0.5 689,-19.5 758,-19.5 758,-0.5 689,-0.5"/>
<text text-anchor="middle" x="723.5" y="-7.5" font-family="Helvetica,sans-Serif" font-size="10.00">TObjArray.h</text>
</g>
<!-- Node17&#45;&gt;Node18 -->
<g id="edge19" class="edge"><title>Node17&#45;&gt;Node18</title>
<path fill="none" stroke="midnightblue" d="M641.094,-56.3993C658.568,-46.7728 681.588,-34.0902 698.856,-24.5772"/>
<polygon fill="midnightblue" stroke="midnightblue" points="700.715,-27.5488 707.785,-19.6578 697.337,-21.4177 700.715,-27.5488"/>
</g>
<!-- Node19 -->
<g id="node19" class="node"><title>Node19</title>
<polygon fill="none" stroke="#bfbfbf" points="542.5,-0.5 542.5,-19.5 670.5,-19.5 670.5,-0.5 542.5,-0.5"/>
<text text-anchor="middle" x="606.5" y="-7.5" font-family="Helvetica,sans-Serif" font-size="10.00">Mergers/MergeInterface.h</text>
</g>
<!-- Node17&#45;&gt;Node19 -->
<g id="edge20" class="edge"><title>Node17&#45;&gt;Node19</title>
<path fill="none" stroke="midnightblue" d="M613.367,-56.3993C612.154,-48.3772 610.619,-38.2328 609.309,-29.569"/>
<polygon fill="midnightblue" stroke="midnightblue" points="612.766,-29.0218 607.81,-19.6578 605.845,-30.0688 612.766,-29.0218"/>
</g>
<!-- Node20&#45;&gt;Node6 -->
<g id="edge22" class="edge"><title>Node20&#45;&gt;Node6</title>
<path fill="none" stroke="midnightblue" d="M441.746,-61.9751C426.134,-52.2989 400.437,-36.3721 381.917,-24.8941"/>
<polygon fill="midnightblue" stroke="midnightblue" points="383.573,-21.8023 373.229,-19.5091 379.885,-27.7522 383.573,-21.8023"/>
</g>
<!-- Node20&#45;&gt;Node7 -->
<g id="edge23" class="edge"><title>Node20&#45;&gt;Node7</title>
<path fill="none" stroke="midnightblue" d="M456.789,-61.9751C458.059,-53.5803 460.041,-40.4806 461.677,-29.6631"/>
<polygon fill="midnightblue" stroke="midnightblue" points="465.178,-29.9201 463.213,-19.5091 458.257,-28.8731 465.178,-29.9201"/>
</g>
<!-- Node22 -->
<g id="node22" class="node"><title>Node22</title>
<polygon fill="none" stroke="#bfbfbf" points="1313.5,-62 1313.5,-81 1443.5,-81 1443.5,-62 1313.5,-62"/>
<text text-anchor="middle" x="1378.5" y="-69" font-family="Helvetica,sans-Serif" font-size="10.00">InfoLogger/InfoLogger.hxx</text>
</g>
<!-- Node21&#45;&gt;Node22 -->
<g id="edge27" class="edge"><title>Node21&#45;&gt;Node22</title>
<path fill="none" stroke="midnightblue" d="M1448.75,-123.475C1435.72,-114.02 1414.46,-98.5961 1398.74,-87.1871"/>
<polygon fill="midnightblue" stroke="midnightblue" points="1400.38,-84.0492 1390.23,-81.0091 1396.27,-89.7149 1400.38,-84.0492"/>
</g>
<!-- Node23 -->
<g id="node23" class="node"><title>Node23</title>
<polygon fill="none" stroke="#bfbfbf" points="1461.5,-62 1461.5,-81 1623.5,-81 1623.5,-62 1461.5,-62"/>
<text text-anchor="middle" x="1542.5" y="-69" font-family="Helvetica,sans-Serif" font-size="10.00">InfoLogger/InfoLoggerMacros.hxx</text>
</g>
<!-- Node21&#45;&gt;Node23 -->
<g id="edge28" class="edge"><title>Node21&#45;&gt;Node23</title>
<path fill="none" stroke="midnightblue" d="M1472.25,-123.475C1485.28,-114.02 1506.54,-98.5961 1522.26,-87.1871"/>
<polygon fill="midnightblue" stroke="midnightblue" points="1524.73,-89.7149 1530.77,-81.0091 1520.62,-84.0492 1524.73,-89.7149"/>
</g>
</g>
</svg>
        <g id="navigator" transform="translate(0 0)" fill="#404254">
                <rect fill="#f2f5e9" fill-opacity="0.5" stroke="#606060" stroke-width=".5" x="0" y="0" width="60" height="60"/>
                <use id="zoomplus" xlink:href="#zoomPlus" x="17" y="9" onmousedown="handleZoom(evt,'in')"/>
                <use id="zoomminus" xlink:href="#zoomMin" x="42" y="9" onmousedown="handleZoom(evt,'out')"/>
                <use id="reset" xlink:href="#resetDef" x="30" y="36" onmousedown="handleReset()"/>
                <g id="arrowUp" xlink:href="#dirArrow" transform="translate(30 24)" onmousedown="handlePan(0,-1)">
                  <use xlink:href="#rim" fill="#404040">
                        <set attributeName="fill" to="#808080" begin="arrowUp.mouseover" end="arrowUp.mouseout"/>
                  </use>
                  <path fill="none" stroke="white" stroke-width="1.5" d="M0,-3.0v7 M-2.5,-0.5L0,-3.0L2.5,-0.5"/>
                </g>
                <g id="arrowRight" xlink:href="#dirArrow" transform="rotate(90) translate(36 -43)" onmousedown="handlePan(1,0)">
                  <use xlink:href="#rim" fill="#404040">
                        <set attributeName="fill" to="#808080" begin="arrowRight.mouseover" end="arrowRight.mouseout"/>
                  </use>
                  <path fill="none" stroke="white" stroke-width="1.5" d="M0,-3.0v7 M-2.5,-0.5L0,-3.0L2.5,-0.5"/>
                </g>
                <g id="arrowDown" xlink:href="#dirArrow" transform="rotate(180) translate(-30 -48)" onmousedown="handlePan(0,1)">
                  <use xlink:href="#rim" fill="#404040">
                        <set attributeName="fill" to="#808080" begin="arrowDown.mouseover" end="arrowDown.mouseout"/>
                  </use>
                  <path fill="none" stroke="white" stroke-width="1.5" d="M0,-3.0v7 M-2.5,-0.5L0,-3.0L2.5,-0.5"/>
                </g>
                <g id="arrowLeft" xlink:href="#dirArrow" transform="rotate(270) translate(-36 17)" onmousedown="handlePan(-1,0)">
                  <use xlink:href="#rim" fill="#404040">
                        <set attributeName="fill" to="#808080" begin="arrowLeft.mouseover" end="arrowLeft.mouseout"/>
                  </use>
                  <path fill="none" stroke="white" stroke-width="1.5" d="M0,-3.0v7 M-2.5,-0.5L0,-3.0L2.5,-0.5"/>
                </g>
        </g>
        <svg viewBox="0 0 15 15" width="100%" height="30px" preserveAspectRatio="xMaxYMin meet">
         <g id="arrow_out" transform="scale(0.3 0.3)">
          <a xlink:href="ExampleCondition_8cxx__incl_org.svg" target="_base">
           <rect id="button" ry="5" rx="5" y="6" x="6" height="38" width="38"
                fill="#f2f5e9" fill-opacity="0.5" stroke="#606060" stroke-width="1.0"/>
           <path id="arrow"
             d="M 11.500037,31.436501 C 11.940474,20.09759 22.043105,11.32322 32.158766,21.979434 L 37.068811,17.246167 C 37.068811,17.246167 37.088388,32 37.088388,32 L 22.160133,31.978069 C 22.160133,31.978069 26.997745,27.140456 26.997745,27.140456 C 18.528582,18.264221 13.291696,25.230495 11.500037,31.436501 z"
             style="fill:#404040;"/>
          </a>
         </g>
        </svg>
</svg>
