<?xml version="1.0" encoding="UTF-8" standalone="no"?>
<!DOCTYPE svg PUBLIC "-//W3C//DTD SVG 1.1//EN"
 "http://www.w3.org/Graphics/SVG/1.1/DTD/svg11.dtd">
<!-- Generated by graphviz version 2.38.0 (20140413.2041)
 -->
<!-- Title: Framework/include/QualityControl/ExamplePrinterSpec.h Pages: 1 -->
<!--zoomable 207 -->
<svg id="main" version="1.1" xmlns="http://www.w3.org/2000/svg" xmlns:xlink="http://www.w3.org/1999/xlink" xml:space="preserve" onload="init(evt)">
<style type="text/css"><![CDATA[
.edge:hover path { stroke: red; }
.edge:hover polygon { stroke: red; fill: red; }
]]></style>
<script type="text/javascript"><![CDATA[
var edges = document.getElementsByTagName('g');
if (edges && edges.length) {
  for (var i=0;i<edges.length;i++) {
    if (edges[i].id.substr(0,4)=='edge') {
      edges[i].setAttribute('class','edge');
    }
  }
}
]]></script>
        <defs>
                <circle id="rim" cx="0" cy="0" r="7"/>
                <circle id="rim2" cx="0" cy="0" r="3.5"/>
                <g id="zoomPlus">
                        <use xlink:href="#rim" fill="#404040">
                                <set attributeName="fill" to="#808080" begin="zoomplus.mouseover" end="zoomplus.mouseout"/>
                        </use>
                        <path d="M-4,0h8M0,-4v8" fill="none" stroke="white" stroke-width="1.5" pointer-events="none"/>
                </g>
                <g id="zoomMin">
                        <use xlink:href="#rim" fill="#404040">
                                <set attributeName="fill" to="#808080" begin="zoomminus.mouseover" end="zoomminus.mouseout"/>
                        </use>
                        <path d="M-4,0h8" fill="none" stroke="white" stroke-width="1.5" pointer-events="none"/>
                </g>
                <g id="dirArrow">
                        <path fill="none" stroke="white" stroke-width="1.5" d="M0,-3.0v7 M-2.5,-0.5L0,-3.0L2.5,-0.5"/>
                </g>
               <g id="resetDef">
                       <use xlink:href="#rim2" fill="#404040">
                               <set attributeName="fill" to="#808080" begin="reset.mouseover" end="reset.mouseout"/>
                       </use>
               </g>
        </defs>

<script type="text/javascript">
var viewWidth = 843;
var viewHeight = 207;
var sectionId = 'dynsection-0';
</script>
<script xlink:href="svgpan.js"/>
<svg id="graph" class="graph">
<g id="viewport">
<title>Framework/include/QualityControl/ExamplePrinterSpec.h</title>
<!-- Node1 -->
<g id="node1" class="node"><title>Node1</title>
<polygon fill="#bfbfbf" stroke="black" points="344.327,-168.5 344.327,-198.5 493.327,-198.5 493.327,-168.5 344.327,-168.5"/>
<text text-anchor="start" x="352.327" y="-186.5" font-family="Helvetica,sans-Serif" font-size="10.00">Framework/include/Quality</text>
<text text-anchor="middle" x="418.827" y="-175.5" font-family="Helvetica,sans-Serif" font-size="10.00">Control/ExamplePrinterSpec.h</text>
</g>
<!-- Node2 -->
<g id="node2" class="node"><title>Node2</title>
<polygon fill="none" stroke="#bfbfbf" points="4.32707,-0.5 4.32707,-19.5 45.3271,-19.5 45.3271,-0.5 4.32707,-0.5"/>
<text text-anchor="middle" x="24.8271" y="-7.5" font-family="Helvetica,sans-Serif" font-size="10.00">string</text>
</g>
<!-- Node1&#45;&gt;Node2 -->
<g id="edge1" class="edge"><title>Node1&#45;&gt;Node2</title>
<path fill="none" stroke="midnightblue" d="M344.046,-178.45C233.02,-171.664 35.2845,-156.299 13.8271,-132 -11.4412,-103.385 4.51421,-54.7569 16.0362,-28.7124"/>
<polygon fill="midnightblue" stroke="midnightblue" points="19.2159,-30.1751 20.2834,-19.6341 12.8755,-27.2087 19.2159,-30.1751"/>
</g>
<!-- Node3 -->
<g id="node3" class="node"><title>Node3</title>
<polygon fill="none" stroke="#bfbfbf" points="358.827,-112.5 358.827,-131.5 410.827,-131.5 410.827,-112.5 358.827,-112.5"/>
<text text-anchor="middle" x="384.827" y="-119.5" font-family="Helvetica,sans-Serif" font-size="10.00">memory</text>
</g>
<!-- Node1&#45;&gt;Node3 -->
<g id="edge2" class="edge"><title>Node1&#45;&gt;Node3</title>
<path fill="none" stroke="midnightblue" d="M410.77,-168.399C405.982,-160.021 399.871,-149.327 394.783,-140.423"/>
<polygon fill="midnightblue" stroke="midnightblue" points="397.775,-138.604 389.774,-131.658 391.697,-142.077 397.775,-138.604"/>
</g>
<!-- Node4 -->
<g id="node4" class="node"><title>Node4</title>
<polygon fill="none" stroke="#bfbfbf" points="428.827,-112.5 428.827,-131.5 478.827,-131.5 478.827,-112.5 428.827,-112.5"/>
<text text-anchor="middle" x="453.827" y="-119.5" font-family="Helvetica,sans-Serif" font-size="10.00">TH1F.h</text>
</g>
<!-- Node1&#45;&gt;Node4 -->
<g id="edge3" class="edge"><title>Node1&#45;&gt;Node4</title>
<path fill="none" stroke="midnightblue" d="M427.122,-168.399C432.05,-160.021 438.341,-149.327 443.578,-140.423"/>
<polygon fill="midnightblue" stroke="midnightblue" points="446.681,-142.052 448.734,-131.658 440.647,-138.503 446.681,-142.052"/>
</g>
<!-- Node5 -->
<g id="node5" class="node"><title>Node5</title>
<polygon fill="none" stroke="#bfbfbf" points="497.327,-112.5 497.327,-131.5 566.327,-131.5 566.327,-112.5 497.327,-112.5"/>
<text text-anchor="middle" x="531.827" y="-119.5" font-family="Helvetica,sans-Serif" font-size="10.00">TObjArray.h</text>
</g>
<!-- Node1&#45;&gt;Node5 -->
<g id="edge4" class="edge"><title>Node1&#45;&gt;Node5</title>
<path fill="none" stroke="midnightblue" d="M445.606,-168.399C463.889,-158.773 487.975,-146.09 506.042,-136.577"/>
<polygon fill="midnightblue" stroke="midnightblue" points="508.167,-139.414 515.385,-131.658 504.906,-133.22 508.167,-139.414"/>
</g>
<!-- Node6 -->
<g id="node6" class="node"><title>Node6</title>
<polygon fill="none" stroke="#bfbfbf" points="584.827,-112.5 584.827,-131.5 682.827,-131.5 682.827,-112.5 584.827,-112.5"/>
<text text-anchor="middle" x="633.827" y="-119.5" font-family="Helvetica,sans-Serif" font-size="10.00">Framework/Task.h</text>
</g>
<!-- Node1&#45;&gt;Node6 -->
<g id="edge5" class="edge"><title>Node1&#45;&gt;Node6</title>
<path fill="none" stroke="midnightblue" d="M469.507,-168.475C507.247,-158.03 558.098,-143.958 593.187,-134.247"/>
<polygon fill="midnightblue" stroke="midnightblue" points="594.386,-137.547 603.09,-131.506 592.518,-130.8 594.386,-137.547"/>
</g>
<!-- Node7 -->
<g id="node7" class="node"><title>Node7</title>
<polygon fill="none" stroke="#bfbfbf" points="700.827,-112.5 700.827,-131.5 834.827,-131.5 834.827,-112.5 700.827,-112.5"/>
<text text-anchor="middle" x="767.827" y="-119.5" font-family="Helvetica,sans-Serif" font-size="10.00">Framework/DataRefUtils.h</text>
</g>
<!-- Node1&#45;&gt;Node7 -->
<g id="edge6" class="edge"><title>Node1&#45;&gt;Node7</title>
<path fill="none" stroke="midnightblue" d="M493.696,-169.736C557.692,-158.825 648.572,-143.331 707.86,-133.224"/>
<polygon fill="midnightblue" stroke="midnightblue" points="708.551,-136.656 717.821,-131.525 707.375,-129.756 708.551,-136.656"/>
</g>
<!-- Node8 -->
<g id="node8" class="node"><title>Node8</title>
<g id="a_node8"><a xlink:href="MonitorObject_8h.html" target="_top" xlink:title="QualityControl/MonitorObject.h">
<polygon fill="none" stroke="black" points="23.3271,-112.5 23.3271,-131.5 174.327,-131.5 174.327,-112.5 23.3271,-112.5"/>
<text text-anchor="middle" x="98.8271" y="-119.5" font-family="Helvetica,sans-Serif" font-size="10.00">QualityControl/MonitorObject.h</text>
</a>
</g>
</g>
<!-- Node1&#45;&gt;Node8 -->
<g id="edge7" class="edge"><title>Node1&#45;&gt;Node8</title>
<path fill="none" stroke="midnightblue" d="M344.205,-168.625C286.376,-157.872 207.504,-143.207 154.957,-133.437"/>
<polygon fill="midnightblue" stroke="midnightblue" points="155.284,-129.937 144.812,-131.55 154.004,-136.82 155.284,-129.937"/>
</g>
<!-- Node13 -->
<g id="node13" class="node"><title>Node13</title>
<g id="a_node13"><a xlink:href="QualityObject_8h_source.html" target="_top" xlink:title="QualityControl/QualityObject.h">
<polygon fill="none" stroke="black" points="192.327,-112.5 192.327,-131.5 341.327,-131.5 341.327,-112.5 192.327,-112.5"/>
<text text-anchor="middle" x="266.827" y="-119.5" font-family="Helvetica,sans-Serif" font-size="10.00">QualityControl/QualityObject.h</text>
</a>
</g>
</g>
<!-- Node1&#45;&gt;Node13 -->
<g id="edge13" class="edge"><title>Node1&#45;&gt;Node13</title>
<path fill="none" stroke="midnightblue" d="M382.805,-168.399C357.188,-158.372 323.1,-145.028 298.517,-135.405"/>
<polygon fill="midnightblue" stroke="midnightblue" points="299.532,-132.044 288.944,-131.658 296.981,-138.562 299.532,-132.044"/>
</g>
<!-- Node8&#45;&gt;Node2 -->
<g id="edge8" class="edge"><title>Node8&#45;&gt;Node2</title>
<path fill="none" stroke="midnightblue" d="M86.1465,-112.351C74.964,-104.146 58.9203,-90.8857 48.8271,-76 39.1321,-61.7016 32.7617,-42.9903 29.0369,-29.3167"/>
<polygon fill="midnightblue" stroke="midnightblue" points="32.4306,-28.4601 26.6039,-19.6114 25.6407,-30.1623 32.4306,-28.4601"/>
</g>
<!-- Node9 -->
<g id="node9" class="node"><title>Node9</title>
<polygon fill="none" stroke="#bfbfbf" points="384.327,-0.5 384.327,-19.5 419.327,-19.5 419.327,-0.5 384.327,-0.5"/>
<text text-anchor="middle" x="401.827" y="-7.5" font-family="Helvetica,sans-Serif" font-size="10.00">map</text>
</g>
<!-- Node8&#45;&gt;Node9 -->
<g id="edge9" class="edge"><title>Node8&#45;&gt;Node9</title>
<path fill="none" stroke="midnightblue" d="M98.9211,-112.297C99.5797,-98.1602 103.074,-70.3491 119.827,-56 157.735,-23.5306 310.465,-14.2992 373.944,-11.8375"/>
<polygon fill="midnightblue" stroke="midnightblue" points="374.158,-15.3322 384.025,-11.4751 373.906,-8.33674 374.158,-15.3322"/>
</g>
<!-- Node10 -->
<g id="node10" class="node"><title>Node10</title>
<polygon fill="none" stroke="#bfbfbf" points="186.827,-0.5 186.827,-19.5 242.827,-19.5 242.827,-0.5 186.827,-0.5"/>
<text text-anchor="middle" x="214.827" y="-7.5" font-family="Helvetica,sans-Serif" font-size="10.00">Rtypes.h</text>
</g>
<!-- Node8&#45;&gt;Node10 -->
<g id="edge10" class="edge"><title>Node8&#45;&gt;Node10</title>
<path fill="none" stroke="midnightblue" d="M93.3723,-112.118C85.9124,-98.7055 74.7539,-73.0421 86.8271,-56 106.986,-27.5444 146.636,-16.9511 176.493,-13.0771"/>
<polygon fill="midnightblue" stroke="midnightblue" points="177.038,-16.5384 186.597,-11.9687 176.274,-9.58009 177.038,-16.5384"/>
</g>
<!-- Node11 -->
<g id="node11" class="node"><title>Node11</title>
<polygon fill="none" stroke="#bfbfbf" points="129.327,-56.5 129.327,-75.5 188.327,-75.5 188.327,-56.5 129.327,-56.5"/>
<text text-anchor="middle" x="158.827" y="-63.5" font-family="Helvetica,sans-Serif" font-size="10.00">TObject.h</text>
</g>
<!-- Node8&#45;&gt;Node11 -->
<g id="edge11" class="edge"><title>Node8&#45;&gt;Node11</title>
<path fill="none" stroke="midnightblue" d="M108.467,-112.324C117.337,-104.341 130.702,-92.3128 141.435,-82.6529"/>
<polygon fill="midnightblue" stroke="midnightblue" points="143.92,-85.1251 149.012,-75.8339 139.237,-79.922 143.92,-85.1251"/>
</g>
<!-- Node12 -->
<g id="node12" class="node"><title>Node12</title>
<polygon fill="none" stroke="#bfbfbf" points="206.827,-56.5 206.827,-75.5 322.827,-75.5 322.827,-56.5 206.827,-56.5"/>
<text text-anchor="middle" x="264.827" y="-63.5" font-family="Helvetica,sans-Serif" font-size="10.00">Common/Exceptions.h</text>
</g>
<!-- Node8&#45;&gt;Node12 -->
<g id="edge12" class="edge"><title>Node8&#45;&gt;Node12</title>
<path fill="none" stroke="midnightblue" d="M125.13,-112.444C153.178,-103.32 197.771,-88.8133 229.011,-78.6509"/>
<polygon fill="midnightblue" stroke="midnightblue" points="230.22,-81.9383 238.647,-75.5164 228.055,-75.2816 230.22,-81.9383"/>
</g>
<!-- Node13&#45;&gt;Node9 -->
<g id="edge14" class="edge"><title>Node13&#45;&gt;Node9</title>
<path fill="none" stroke="midnightblue" d="M322.29,-112.467C379.719,-103.067 462.393,-87.73 471.827,-76 488.953,-54.7074 455.037,-33.8977 428.687,-21.7695"/>
<polygon fill="midnightblue" stroke="midnightblue" points="429.994,-18.5209 419.431,-17.7092 427.183,-24.9313 429.994,-18.5209"/>
</g>
<!-- Node13&#45;&gt;Node11 -->
<g id="edge15" class="edge"><title>Node13&#45;&gt;Node11</title>
<path fill="none" stroke="midnightblue" d="M249.475,-112.324C232.155,-103.664 205.312,-90.2424 185.325,-80.249"/>
<polygon fill="midnightblue" stroke="midnightblue" points="186.646,-76.9962 176.136,-75.6545 183.515,-83.2572 186.646,-76.9962"/>
</g>
<!-- Node13&#45;&gt;Node12 -->
<g id="edge16" class="edge"><title>Node13&#45;&gt;Node12</title>
<path fill="none" stroke="midnightblue" d="M266.497,-112.083C266.235,-105.006 265.859,-94.8611 265.53,-85.9865"/>
<polygon fill="midnightblue" stroke="midnightblue" points="269.019,-85.6147 265.151,-75.7511 262.024,-85.8738 269.019,-85.6147"/>
</g>
<!-- Node14 -->
<g id="node14" class="node"><title>Node14</title>
<g id="a_node14"><a xlink:href="Quality_8h.html" target="_top" xlink:title="QualityControl/Quality.h">
<polygon fill="none" stroke="black" points="341.327,-56.5 341.327,-75.5 462.327,-75.5 462.327,-56.5 341.327,-56.5"/>
<text text-anchor="middle" x="401.827" y="-63.5" font-family="Helvetica,sans-Serif" font-size="10.00">QualityControl/Quality.h</text>
</a>
</g>
</g>
<!-- Node13&#45;&gt;Node14 -->
<g id="edge17" class="edge"><title>Node13&#45;&gt;Node14</title>
<path fill="none" stroke="midnightblue" d="M288.218,-112.444C310.534,-103.517 345.73,-89.4387 371.035,-79.3168"/>
<polygon fill="midnightblue" stroke="midnightblue" points="372.551,-82.4801 380.536,-75.5164 369.951,-75.9807 372.551,-82.4801"/>
</g>
<!-- Node14&#45;&gt;Node2 -->
<g id="edge19" class="edge"><title>Node14&#45;&gt;Node2</title>
<path fill="none" stroke="midnightblue" d="M342.09,-56.4435C260.638,-44.7767 117.743,-24.309 55.3833,-15.3767"/>
<polygon fill="midnightblue" stroke="midnightblue" points="55.7917,-11.8996 45.3965,-13.9463 54.7992,-18.8289 55.7917,-11.8996"/>
</g>
<!-- Node14&#45;&gt;Node9 -->
<g id="edge20" class="edge"><title>Node14&#45;&gt;Node9</title>
<path fill="none" stroke="midnightblue" d="M401.827,-56.083C401.827,-49.0059 401.827,-38.8611 401.827,-29.9865"/>
<polygon fill="midnightblue" stroke="midnightblue" points="405.327,-29.751 401.827,-19.7511 398.327,-29.7511 405.327,-29.751"/>
</g>
<!-- Node14&#45;&gt;Node10 -->
<g id="edge18" class="edge"><title>Node14&#45;&gt;Node10</title>
<path fill="none" stroke="midnightblue" d="M372.196,-56.4435C339.952,-47.1323 288.296,-32.2155 253.026,-22.0308"/>
<polygon fill="midnightblue" stroke="midnightblue" points="253.674,-18.5748 243.095,-19.1629 251.731,-25.3 253.674,-18.5748"/>
</g>
</g>
</svg>
        <g id="navigator" transform="translate(0 0)" fill="#404254">
                <rect fill="#f2f5e9" fill-opacity="0.5" stroke="#606060" stroke-width=".5" x="0" y="0" width="60" height="60"/>
                <use id="zoomplus" xlink:href="#zoomPlus" x="17" y="9" onmousedown="handleZoom(evt,'in')"/>
                <use id="zoomminus" xlink:href="#zoomMin" x="42" y="9" onmousedown="handleZoom(evt,'out')"/>
                <use id="reset" xlink:href="#resetDef" x="30" y="36" onmousedown="handleReset()"/>
                <g id="arrowUp" xlink:href="#dirArrow" transform="translate(30 24)" onmousedown="handlePan(0,-1)">
                  <use xlink:href="#rim" fill="#404040">
                        <set attributeName="fill" to="#808080" begin="arrowUp.mouseover" end="arrowUp.mouseout"/>
                  </use>
                  <path fill="none" stroke="white" stroke-width="1.5" d="M0,-3.0v7 M-2.5,-0.5L0,-3.0L2.5,-0.5"/>
                </g>
                <g id="arrowRight" xlink:href="#dirArrow" transform="rotate(90) translate(36 -43)" onmousedown="handlePan(1,0)">
                  <use xlink:href="#rim" fill="#404040">
                        <set attributeName="fill" to="#808080" begin="arrowRight.mouseover" end="arrowRight.mouseout"/>
                  </use>
                  <path fill="none" stroke="white" stroke-width="1.5" d="M0,-3.0v7 M-2.5,-0.5L0,-3.0L2.5,-0.5"/>
                </g>
                <g id="arrowDown" xlink:href="#dirArrow" transform="rotate(180) translate(-30 -48)" onmousedown="handlePan(0,1)">
                  <use xlink:href="#rim" fill="#404040">
                        <set attributeName="fill" to="#808080" begin="arrowDown.mouseover" end="arrowDown.mouseout"/>
                  </use>
                  <path fill="none" stroke="white" stroke-width="1.5" d="M0,-3.0v7 M-2.5,-0.5L0,-3.0L2.5,-0.5"/>
                </g>
                <g id="arrowLeft" xlink:href="#dirArrow" transform="rotate(270) translate(-36 17)" onmousedown="handlePan(-1,0)">
                  <use xlink:href="#rim" fill="#404040">
                        <set attributeName="fill" to="#808080" begin="arrowLeft.mouseover" end="arrowLeft.mouseout"/>
                  </use>
                  <path fill="none" stroke="white" stroke-width="1.5" d="M0,-3.0v7 M-2.5,-0.5L0,-3.0L2.5,-0.5"/>
                </g>
        </g>
        <svg viewBox="0 0 15 15" width="100%" height="30px" preserveAspectRatio="xMaxYMin meet">
         <g id="arrow_out" transform="scale(0.3 0.3)">
          <a xlink:href="ExamplePrinterSpec_8h__incl_org.svg" target="_base">
           <rect id="button" ry="5" rx="5" y="6" x="6" height="38" width="38"
                fill="#f2f5e9" fill-opacity="0.5" stroke="#606060" stroke-width="1.0"/>
           <path id="arrow"
             d="M 11.500037,31.436501 C 11.940474,20.09759 22.043105,11.32322 32.158766,21.979434 L 37.068811,17.246167 C 37.068811,17.246167 37.088388,32 37.088388,32 L 22.160133,31.978069 C 22.160133,31.978069 26.997745,27.140456 26.997745,27.140456 C 18.528582,18.264221 13.291696,25.230495 11.500037,31.436501 z"
             style="fill:#404040;"/>
          </a>
         </g>
        </svg>
</svg>
