<?xml version="1.0" encoding="UTF-8" standalone="no"?>
<!DOCTYPE svg PUBLIC "-//W3C//DTD SVG 1.1//EN"
 "http://www.w3.org/Graphics/SVG/1.1/DTD/svg11.dtd">
<!-- Generated by graphviz version 2.38.0 (20140413.2041)
 -->
<!-- Title: Modules/HMPID/include/HMPID/HmpidDecoder.h Pages: 1 -->
<svg width="626pt" height="151pt"
 viewBox="0.00 0.00 625.50 151.00" xmlns="http://www.w3.org/2000/svg" xmlns:xlink="http://www.w3.org/1999/xlink">
<g id="graph0" class="graph" transform="scale(1 1) rotate(0) translate(4 147)">
<title>Modules/HMPID/include/HMPID/HmpidDecoder.h</title>
<!-- Node1 -->
<g id="node1" class="node"><title>Node1</title>
<polygon fill="#bfbfbf" stroke="black" points="152,-112.5 152,-142.5 281,-142.5 281,-112.5 152,-112.5"/>
<text text-anchor="start" x="160" y="-130.5" font-family="Helvetica,sans-Serif" font-size="10.00">Modules/HMPID/include</text>
<text text-anchor="middle" x="216.5" y="-119.5" font-family="Helvetica,sans-Serif" font-size="10.00">/HMPID/HmpidDecoder.h</text>
</g>
<!-- Node2 -->
<g id="node2" class="node"><title>Node2</title>
<polygon fill="none" stroke="#bfbfbf" points="0,-0.5 0,-19.5 43,-19.5 43,-0.5 0,-0.5"/>
<text text-anchor="middle" x="21.5" y="-7.5" font-family="Helvetica,sans-Serif" font-size="10.00">cstdio</text>
</g>
<!-- Node1&#45;&gt;Node2 -->
<g id="edge1" class="edge"><title>Node1&#45;&gt;Node2</title>
<path fill="none" stroke="midnightblue" d="M151.877,-117.792C102.619,-109.707 40.5892,-95.9017 24.5,-76 14.1887,-63.2452 14.6083,-44.0509 16.9036,-29.8238"/>
<polygon fill="midnightblue" stroke="midnightblue" points="20.4,-30.1956 18.9774,-19.6968 13.5423,-28.7913 20.4,-30.1956"/>
</g>
<!-- Node3 -->
<g id="node3" class="node"><title>Node3</title>
<polygon fill="none" stroke="#bfbfbf" points="90,-0.5 90,-19.5 139,-19.5 139,-0.5 90,-0.5"/>
<text text-anchor="middle" x="114.5" y="-7.5" font-family="Helvetica,sans-Serif" font-size="10.00">stdint.h</text>
</g>
<!-- Node1&#45;&gt;Node3 -->
<g id="edge2" class="edge"><title>Node1&#45;&gt;Node3</title>
<path fill="none" stroke="midnightblue" d="M211.171,-112.335C204.978,-97.1882 193.642,-73.0504 178.5,-56 167.468,-43.5778 152.369,-32.7533 139.606,-24.8356"/>
<polygon fill="midnightblue" stroke="midnightblue" points="141.201,-21.7116 130.818,-19.6027 137.619,-27.7261 141.201,-21.7116"/>
</g>
<!-- Node4 -->
<g id="node4" class="node"><title>Node4</title>
<polygon fill="none" stroke="#bfbfbf" points="183.5,-0.5 183.5,-19.5 237.5,-19.5 237.5,-0.5 183.5,-0.5"/>
<text text-anchor="middle" x="210.5" y="-7.5" font-family="Helvetica,sans-Serif" font-size="10.00">iostream</text>
</g>
<!-- Node1&#45;&gt;Node4 -->
<g id="edge3" class="edge"><title>Node1&#45;&gt;Node4</title>
<path fill="none" stroke="midnightblue" d="M215.764,-112.337C214.688,-91.6217 212.683,-53.0162 211.482,-29.8991"/>
<polygon fill="midnightblue" stroke="midnightblue" points="214.965,-29.4744 210.95,-19.6695 207.974,-29.8376 214.965,-29.4744"/>
</g>
<!-- Node5 -->
<g id="node5" class="node"><title>Node5</title>
<polygon fill="none" stroke="#bfbfbf" points="263.5,-56.5 263.5,-75.5 309.5,-75.5 309.5,-56.5 263.5,-56.5"/>
<text text-anchor="middle" x="286.5" y="-63.5" font-family="Helvetica,sans-Serif" font-size="10.00">cstring</text>
</g>
<!-- Node1&#45;&gt;Node5 -->
<g id="edge4" class="edge"><title>Node1&#45;&gt;Node5</title>
<path fill="none" stroke="midnightblue" d="M233.089,-112.399C243.785,-103.308 257.688,-91.4899 268.628,-82.1909"/>
<polygon fill="midnightblue" stroke="midnightblue" points="270.962,-84.8011 276.314,-75.6578 266.428,-79.4675 270.962,-84.8011"/>
</g>
<!-- Node6 -->
<g id="node6" class="node"><title>Node6</title>
<g id="a_node6"><a xlink:href="QcInfoLogger_8h.html" target="_top" xlink:title="QualityControl/QcInfoLogger.h">
<polygon fill="none" stroke="black" points="327,-56.5 327,-75.5 476,-75.5 476,-56.5 327,-56.5"/>
<text text-anchor="middle" x="401.5" y="-63.5" font-family="Helvetica,sans-Serif" font-size="10.00">QualityControl/QcInfoLogger.h</text>
</a>
</g>
</g>
<!-- Node1&#45;&gt;Node6 -->
<g id="edge5" class="edge"><title>Node1&#45;&gt;Node6</title>
<path fill="none" stroke="midnightblue" d="M260.342,-112.399C292.31,-102.118 335.116,-88.3506 365.178,-78.6818"/>
<polygon fill="midnightblue" stroke="midnightblue" points="366.403,-81.9647 374.851,-75.5709 364.26,-75.3008 366.403,-81.9647"/>
</g>
<!-- Node9 -->
<g id="node9" class="node"><title>Node9</title>
<g id="a_node9"><a xlink:href="HmpidEquipment_8h_source.html" target="_top" xlink:title="HMPID/HmpidEquipment.h">
<polygon fill="none" stroke="black" points="33.5,-56.5 33.5,-75.5 169.5,-75.5 169.5,-56.5 33.5,-56.5"/>
<text text-anchor="middle" x="101.5" y="-63.5" font-family="Helvetica,sans-Serif" font-size="10.00">HMPID/HmpidEquipment.h</text>
</a>
</g>
</g>
<!-- Node1&#45;&gt;Node9 -->
<g id="edge8" class="edge"><title>Node1&#45;&gt;Node9</title>
<path fill="none" stroke="midnightblue" d="M189.247,-112.399C170.468,-102.684 145.674,-89.8551 127.232,-80.3137"/>
<polygon fill="midnightblue" stroke="midnightblue" points="128.724,-77.1445 118.234,-75.6578 125.507,-83.3617 128.724,-77.1445"/>
</g>
<!-- Node7 -->
<g id="node7" class="node"><title>Node7</title>
<polygon fill="none" stroke="#bfbfbf" points="487.5,-0.5 487.5,-19.5 617.5,-19.5 617.5,-0.5 487.5,-0.5"/>
<text text-anchor="middle" x="552.5" y="-7.5" font-family="Helvetica,sans-Serif" font-size="10.00">InfoLogger/InfoLogger.hxx</text>
</g>
<!-- Node6&#45;&gt;Node7 -->
<g id="edge6" class="edge"><title>Node6&#45;&gt;Node7</title>
<path fill="none" stroke="midnightblue" d="M425.426,-56.4435C450.719,-47.3986 490.802,-33.064 519.18,-22.9158"/>
<polygon fill="midnightblue" stroke="midnightblue" points="520.448,-26.1794 528.686,-19.5164 518.091,-19.5882 520.448,-26.1794"/>
</g>
<!-- Node8 -->
<g id="node8" class="node"><title>Node8</title>
<polygon fill="none" stroke="#bfbfbf" points="307.5,-0.5 307.5,-19.5 469.5,-19.5 469.5,-0.5 307.5,-0.5"/>
<text text-anchor="middle" x="388.5" y="-7.5" font-family="Helvetica,sans-Serif" font-size="10.00">InfoLogger/InfoLoggerMacros.hxx</text>
</g>
<!-- Node6&#45;&gt;Node8 -->
<g id="edge7" class="edge"><title>Node6&#45;&gt;Node8</title>
<path fill="none" stroke="midnightblue" d="M399.353,-56.083C397.631,-48.9272 395.153,-38.6353 393,-29.6911"/>
<polygon fill="midnightblue" stroke="midnightblue" points="396.35,-28.6541 390.607,-19.7511 389.545,-30.2925 396.35,-28.6541"/>
</g>
<!-- Node9&#45;&gt;Node2 -->
<g id="edge9" class="edge"><title>Node9&#45;&gt;Node2</title>
<path fill="none" stroke="midnightblue" d="M88.6466,-56.324C76.2836,-47.979 57.3699,-35.2122 42.7628,-25.3524"/>
<polygon fill="midnightblue" stroke="midnightblue" points="44.5682,-22.3483 34.3215,-19.6545 40.6518,-28.1503 44.5682,-22.3483"/>
</g>
<!-- Node9&#45;&gt;Node3 -->
<g id="edge10" class="edge"><title>Node9&#45;&gt;Node3</title>
<path fill="none" stroke="midnightblue" d="M103.647,-56.083C105.369,-48.9272 107.847,-38.6353 110,-29.6911"/>
<polygon fill="midnightblue" stroke="midnightblue" points="113.455,-30.2925 112.393,-19.7511 106.65,-28.6541 113.455,-30.2925"/>
</g>
<!-- Node9&#45;&gt;Node4 -->
<g id="edge11" class="edge"><title>Node9&#45;&gt;Node4</title>
<path fill="none" stroke="midnightblue" d="M119.013,-56.324C136.572,-47.6247 163.831,-34.1202 184.031,-24.113"/>
<polygon fill="midnightblue" stroke="midnightblue" points="185.624,-27.23 193.031,-19.6545 182.516,-20.9575 185.624,-27.23"/>
</g>
</g>
</svg>
