<?xml version="1.0" encoding="UTF-8" standalone="no"?>
<!DOCTYPE svg PUBLIC "-//W3C//DTD SVG 1.1//EN"
 "http://www.w3.org/Graphics/SVG/1.1/DTD/svg11.dtd">
<!-- Generated by graphviz version 2.38.0 (20140413.2041)
 -->
<!-- Title: Modules/HMPID/src/HmpidTask.cxx Pages: 1 -->
<!--zoomable 319 -->
<svg id="main" version="1.1" xmlns="http://www.w3.org/2000/svg" xmlns:xlink="http://www.w3.org/1999/xlink" xml:space="preserve" onload="init(evt)">
<style type="text/css"><![CDATA[
.edge:hover path { stroke: red; }
.edge:hover polygon { stroke: red; fill: red; }
]]></style>
<script type="text/javascript"><![CDATA[
var edges = document.getElementsByTagName('g');
if (edges && edges.length) {
  for (var i=0;i<edges.length;i++) {
    if (edges[i].id.substr(0,4)=='edge') {
      edges[i].setAttribute('class','edge');
    }
  }
}
]]></script>
        <defs>
                <circle id="rim" cx="0" cy="0" r="7"/>
                <circle id="rim2" cx="0" cy="0" r="3.5"/>
                <g id="zoomPlus">
                        <use xlink:href="#rim" fill="#404040">
                                <set attributeName="fill" to="#808080" begin="zoomplus.mouseover" end="zoomplus.mouseout"/>
                        </use>
                        <path d="M-4,0h8M0,-4v8" fill="none" stroke="white" stroke-width="1.5" pointer-events="none"/>
                </g>
                <g id="zoomMin">
                        <use xlink:href="#rim" fill="#404040">
                                <set attributeName="fill" to="#808080" begin="zoomminus.mouseover" end="zoomminus.mouseout"/>
                        </use>
                        <path d="M-4,0h8" fill="none" stroke="white" stroke-width="1.5" pointer-events="none"/>
                </g>
                <g id="dirArrow">
                        <path fill="none" stroke="white" stroke-width="1.5" d="M0,-3.0v7 M-2.5,-0.5L0,-3.0L2.5,-0.5"/>
                </g>
               <g id="resetDef">
                       <use xlink:href="#rim2" fill="#404040">
                               <set attributeName="fill" to="#808080" begin="reset.mouseover" end="reset.mouseout"/>
                       </use>
               </g>
        </defs>

<script type="text/javascript">
var viewWidth = 2040;
var viewHeight = 319;
var sectionId = 'dynsection-0';
</script>
<script xlink:href="svgpan.js"/>
<svg id="graph" class="graph">
<g id="viewport">
<title>Modules/HMPID/src/HmpidTask.cxx</title>
<!-- Node1 -->
<g id="node1" class="node"><title>Node1</title>
<polygon fill="#bfbfbf" stroke="black" points="146.5,-291.5 146.5,-310.5 324.5,-310.5 324.5,-291.5 146.5,-291.5"/>
<text text-anchor="middle" x="235.5" y="-298.5" font-family="Helvetica,sans-Serif" font-size="10.00">Modules/HMPID/src/HmpidTask.cxx</text>
</g>
<!-- Node2 -->
<g id="node2" class="node"><title>Node2</title>
<polygon fill="none" stroke="#bfbfbf" points="0,-235.5 0,-254.5 65,-254.5 65,-235.5 0,-235.5"/>
<text text-anchor="middle" x="32.5" y="-242.5" font-family="Helvetica,sans-Serif" font-size="10.00">TCanvas.h</text>
</g>
<!-- Node1&#45;&gt;Node2 -->
<g id="edge1" class="edge"><title>Node1&#45;&gt;Node2</title>
<path fill="none" stroke="midnightblue" d="M203.334,-291.444C168.441,-282.162 112.607,-267.309 74.3291,-257.127"/>
<polygon fill="midnightblue" stroke="midnightblue" points="75.0792,-253.705 64.5155,-254.516 73.2796,-260.47 75.0792,-253.705"/>
</g>
<!-- Node3 -->
<g id="node3" class="node"><title>Node3</title>
<polygon fill="none" stroke="#bfbfbf" points="83.5,-235.5 83.5,-254.5 127.5,-254.5 127.5,-235.5 83.5,-235.5"/>
<text text-anchor="middle" x="105.5" y="-242.5" font-family="Helvetica,sans-Serif" font-size="10.00">TH1.h</text>
</g>
<!-- Node1&#45;&gt;Node3 -->
<g id="edge2" class="edge"><title>Node1&#45;&gt;Node3</title>
<path fill="none" stroke="midnightblue" d="M214.901,-291.444C193.507,-282.557 159.819,-268.563 135.476,-258.451"/>
<polygon fill="midnightblue" stroke="midnightblue" points="136.58,-255.12 126.003,-254.516 133.895,-261.585 136.58,-255.12"/>
</g>
<!-- Node4 -->
<g id="node4" class="node"><title>Node4</title>
<polygon fill="none" stroke="#bfbfbf" points="146,-235.5 146,-254.5 199,-254.5 199,-235.5 146,-235.5"/>
<text text-anchor="middle" x="172.5" y="-242.5" font-family="Helvetica,sans-Serif" font-size="10.00">TMath.h</text>
</g>
<!-- Node1&#45;&gt;Node4 -->
<g id="edge3" class="edge"><title>Node1&#45;&gt;Node4</title>
<path fill="none" stroke="midnightblue" d="M225.378,-291.324C215.974,-283.263 201.756,-271.077 190.431,-261.369"/>
<polygon fill="midnightblue" stroke="midnightblue" points="192.677,-258.684 182.806,-254.834 188.121,-263.999 192.677,-258.684"/>
</g>
<!-- Node5 -->
<g id="node5" class="node"><title>Node5</title>
<g id="a_node5"><a xlink:href="QcInfoLogger_8h.html" target="_top" xlink:title="QualityControl/QcInfoLogger.h">
<polygon fill="none" stroke="black" points="434,-123.5 434,-142.5 583,-142.5 583,-123.5 434,-123.5"/>
<text text-anchor="middle" x="508.5" y="-130.5" font-family="Helvetica,sans-Serif" font-size="10.00">QualityControl/QcInfoLogger.h</text>
</a>
</g>
</g>
<!-- Node1&#45;&gt;Node5 -->
<g id="edge4" class="edge"><title>Node1&#45;&gt;Node5</title>
<path fill="none" stroke="midnightblue" d="M305.656,-291.465C364.185,-280.452 444.966,-255.441 489.5,-199 500.073,-185.599 504.765,-166.492 506.845,-152.461"/>
<polygon fill="midnightblue" stroke="midnightblue" points="510.324,-152.843 508.016,-142.503 503.372,-152.025 510.324,-152.843"/>
</g>
<!-- Node8 -->
<g id="node8" class="node"><title>Node8</title>
<g id="a_node8"><a xlink:href="HmpidDecodeRawMem_8h.html" target="_top" xlink:title="Derived Class for decoding Raw Data Memory stream. ">
<polygon fill="none" stroke="black" points="217,-235.5 217,-254.5 382,-254.5 382,-235.5 217,-235.5"/>
<text text-anchor="middle" x="299.5" y="-242.5" font-family="Helvetica,sans-Serif" font-size="10.00">HMPID/HmpidDecodeRawMem.h</text>
</a>
</g>
</g>
<!-- Node1&#45;&gt;Node8 -->
<g id="edge7" class="edge"><title>Node1&#45;&gt;Node8</title>
<path fill="none" stroke="midnightblue" d="M245.783,-291.324C255.336,-283.263 269.78,-271.077 281.284,-261.369"/>
<polygon fill="midnightblue" stroke="midnightblue" points="283.644,-263.958 289.03,-254.834 279.13,-258.608 283.644,-263.958"/>
</g>
<!-- Node20 -->
<g id="node20" class="node"><title>Node20</title>
<g id="a_node20"><a xlink:href="HmpidTask_8h.html" target="_top" xlink:title="HMPID/HmpidTask.h">
<polygon fill="none" stroke="black" points="758,-235.5 758,-254.5 869,-254.5 869,-235.5 758,-235.5"/>
<text text-anchor="middle" x="813.5" y="-242.5" font-family="Helvetica,sans-Serif" font-size="10.00">HMPID/HmpidTask.h</text>
</a>
</g>
</g>
<!-- Node1&#45;&gt;Node20 -->
<g id="edge23" class="edge"><title>Node1&#45;&gt;Node20</title>
<path fill="none" stroke="midnightblue" d="M324.546,-291.681C441.461,-280.758 644.012,-261.834 747.899,-252.129"/>
<polygon fill="midnightblue" stroke="midnightblue" points="748.312,-255.606 757.943,-251.19 747.66,-248.636 748.312,-255.606"/>
</g>
<!-- Node6 -->
<g id="node6" class="node"><title>Node6</title>
<polygon fill="none" stroke="#bfbfbf" points="510.5,-62 510.5,-81 640.5,-81 640.5,-62 510.5,-62"/>
<text text-anchor="middle" x="575.5" y="-69" font-family="Helvetica,sans-Serif" font-size="10.00">InfoLogger/InfoLogger.hxx</text>
</g>
<!-- Node5&#45;&gt;Node6 -->
<g id="edge5" class="edge"><title>Node5&#45;&gt;Node6</title>
<path fill="none" stroke="midnightblue" d="M518.099,-123.475C528.548,-114.197 545.468,-99.1706 558.236,-87.831"/>
<polygon fill="midnightblue" stroke="midnightblue" points="560.765,-90.2663 565.918,-81.0091 556.117,-85.0323 560.765,-90.2663"/>
</g>
<!-- Node7 -->
<g id="node7" class="node"><title>Node7</title>
<polygon fill="none" stroke="#bfbfbf" points="330.5,-62 330.5,-81 492.5,-81 492.5,-62 330.5,-62"/>
<text text-anchor="middle" x="411.5" y="-69" font-family="Helvetica,sans-Serif" font-size="10.00">InfoLogger/InfoLoggerMacros.hxx</text>
</g>
<!-- Node5&#45;&gt;Node7 -->
<g id="edge6" class="edge"><title>Node5&#45;&gt;Node7</title>
<path fill="none" stroke="midnightblue" d="M494.602,-123.475C478.828,-113.799 452.863,-97.8721 434.151,-86.3941"/>
<polygon fill="midnightblue" stroke="midnightblue" points="435.726,-83.2544 425.372,-81.0091 432.066,-89.2213 435.726,-83.2544"/>
</g>
<!-- Node9 -->
<g id="node9" class="node"><title>Node9</title>
<polygon fill="none" stroke="#bfbfbf" points="157,-179.5 157,-198.5 206,-198.5 206,-179.5 157,-179.5"/>
<text text-anchor="middle" x="181.5" y="-186.5" font-family="Helvetica,sans-Serif" font-size="10.00">ctype.h</text>
</g>
<!-- Node8&#45;&gt;Node9 -->
<g id="edge8" class="edge"><title>Node8&#45;&gt;Node9</title>
<path fill="none" stroke="midnightblue" d="M280.803,-235.444C261.556,-226.636 231.348,-212.812 209.3,-202.722"/>
<polygon fill="midnightblue" stroke="midnightblue" points="210.66,-199.495 200.11,-198.516 207.747,-205.86 210.66,-199.495"/>
</g>
<!-- Node10 -->
<g id="node10" class="node"><title>Node10</title>
<polygon fill="none" stroke="#bfbfbf" points="224.5,-179.5 224.5,-198.5 270.5,-198.5 270.5,-179.5 224.5,-179.5"/>
<text text-anchor="middle" x="247.5" y="-186.5" font-family="Helvetica,sans-Serif" font-size="10.00">stdio.h</text>
</g>
<!-- Node8&#45;&gt;Node10 -->
<g id="edge9" class="edge"><title>Node8&#45;&gt;Node10</title>
<path fill="none" stroke="midnightblue" d="M290.913,-235.083C283.341,-227.22 272.122,-215.569 262.986,-206.081"/>
<polygon fill="midnightblue" stroke="midnightblue" points="265.385,-203.527 255.927,-198.751 260.342,-208.382 265.385,-203.527"/>
</g>
<!-- Node11 -->
<g id="node11" class="node"><title>Node11</title>
<polygon fill="none" stroke="#bfbfbf" points="432.5,-179.5 432.5,-198.5 480.5,-198.5 480.5,-179.5 432.5,-179.5"/>
<text text-anchor="middle" x="456.5" y="-186.5" font-family="Helvetica,sans-Serif" font-size="10.00">stdlib.h</text>
</g>
<!-- Node8&#45;&gt;Node11 -->
<g id="edge10" class="edge"><title>Node8&#45;&gt;Node11</title>
<path fill="none" stroke="midnightblue" d="M324.377,-235.444C350.945,-226.306 393.209,-211.769 422.761,-201.604"/>
<polygon fill="midnightblue" stroke="midnightblue" points="423.937,-204.901 432.255,-198.339 421.66,-198.282 423.937,-204.901"/>
</g>
<!-- Node12 -->
<g id="node12" class="node"><title>Node12</title>
<polygon fill="none" stroke="#bfbfbf" points="21,-179.5 21,-198.5 72,-198.5 72,-179.5 21,-179.5"/>
<text text-anchor="middle" x="46.5" y="-186.5" font-family="Helvetica,sans-Serif" font-size="10.00">unistd.h</text>
</g>
<!-- Node8&#45;&gt;Node12 -->
<g id="edge11" class="edge"><title>Node8&#45;&gt;Node12</title>
<path fill="none" stroke="midnightblue" d="M254.039,-235.431C211.8,-227.296 146.923,-214.364 82.0663,-199.276"/>
<polygon fill="midnightblue" stroke="midnightblue" points="82.6161,-195.81 72.0812,-196.936 81.0186,-202.626 82.6161,-195.81"/>
</g>
<!-- Node13 -->
<g id="node13" class="node"><title>Node13</title>
<polygon fill="none" stroke="#bfbfbf" points="90,-179.5 90,-198.5 139,-198.5 139,-179.5 90,-179.5"/>
<text text-anchor="middle" x="114.5" y="-186.5" font-family="Helvetica,sans-Serif" font-size="10.00">string.h</text>
</g>
<!-- Node8&#45;&gt;Node13 -->
<g id="edge12" class="edge"><title>Node8&#45;&gt;Node13</title>
<path fill="none" stroke="midnightblue" d="M270.186,-235.444C237.267,-225.835 183.895,-210.256 148.994,-200.069"/>
<polygon fill="midnightblue" stroke="midnightblue" points="149.816,-196.663 139.236,-197.22 147.855,-203.382 149.816,-196.663"/>
</g>
<!-- Node14 -->
<g id="node14" class="node"><title>Node14</title>
<g id="a_node14"><a xlink:href="HmpidDecoder_8h.html" target="_top" xlink:title="Base Class to decode HMPID Raw Data stream. ">
<polygon fill="none" stroke="black" points="288.5,-179.5 288.5,-198.5 414.5,-198.5 414.5,-179.5 288.5,-179.5"/>
<text text-anchor="middle" x="351.5" y="-186.5" font-family="Helvetica,sans-Serif" font-size="10.00">HMPID/HmpidDecoder.h</text>
</a>
</g>
</g>
<!-- Node8&#45;&gt;Node14 -->
<g id="edge13" class="edge"><title>Node8&#45;&gt;Node14</title>
<path fill="none" stroke="midnightblue" d="M308.087,-235.083C315.659,-227.22 326.878,-215.569 336.014,-206.081"/>
<polygon fill="midnightblue" stroke="midnightblue" points="338.658,-208.382 343.073,-198.751 333.615,-203.527 338.658,-208.382"/>
</g>
<!-- Node14&#45;&gt;Node5 -->
<g id="edge18" class="edge"><title>Node14&#45;&gt;Node5</title>
<path fill="none" stroke="midnightblue" d="M376.377,-179.444C402.789,-170.359 444.715,-155.939 474.242,-145.783"/>
<polygon fill="midnightblue" stroke="midnightblue" points="475.421,-149.079 483.739,-142.516 473.145,-142.459 475.421,-149.079"/>
</g>
<!-- Node15 -->
<g id="node15" class="node"><title>Node15</title>
<polygon fill="none" stroke="#bfbfbf" points="202,-62 202,-81 245,-81 245,-62 202,-62"/>
<text text-anchor="middle" x="223.5" y="-69" font-family="Helvetica,sans-Serif" font-size="10.00">cstdio</text>
</g>
<!-- Node14&#45;&gt;Node15 -->
<g id="edge14" class="edge"><title>Node14&#45;&gt;Node15</title>
<path fill="none" stroke="midnightblue" d="M351.198,-179.348C350.282,-165.777 346.663,-139.352 332.5,-123 307.238,-93.8345 288.428,-103.397 253.5,-87 252.351,-86.4607 251.179,-85.9074 249.996,-85.3464"/>
<polygon fill="midnightblue" stroke="midnightblue" points="251.449,-82.1617 240.918,-81.001 248.427,-88.4756 251.449,-82.1617"/>
</g>
<!-- Node16 -->
<g id="node16" class="node"><title>Node16</title>
<polygon fill="none" stroke="#bfbfbf" points="263,-62 263,-81 312,-81 312,-62 263,-62"/>
<text text-anchor="middle" x="287.5" y="-69" font-family="Helvetica,sans-Serif" font-size="10.00">stdint.h</text>
</g>
<!-- Node14&#45;&gt;Node16 -->
<g id="edge15" class="edge"><title>Node14&#45;&gt;Node16</title>
<path fill="none" stroke="midnightblue" d="M356.849,-179.473C364.227,-166.523 375.538,-141.456 365.5,-123 359.719,-112.37 333.926,-96.8553 313.562,-85.8323"/>
<polygon fill="midnightblue" stroke="midnightblue" points="315.152,-82.7142 304.678,-81.1174 311.87,-88.8972 315.152,-82.7142"/>
</g>
<!-- Node17 -->
<g id="node17" class="node"><title>Node17</title>
<polygon fill="none" stroke="#bfbfbf" points="115.5,-62 115.5,-81 169.5,-81 169.5,-62 115.5,-62"/>
<text text-anchor="middle" x="142.5" y="-69" font-family="Helvetica,sans-Serif" font-size="10.00">iostream</text>
</g>
<!-- Node14&#45;&gt;Node17 -->
<g id="edge16" class="edge"><title>Node14&#45;&gt;Node17</title>
<path fill="none" stroke="midnightblue" d="M288.329,-180.189C221.945,-171.334 125.585,-156.387 114.5,-143 101.319,-127.081 114.822,-104.185 127.245,-88.8487"/>
<polygon fill="midnightblue" stroke="midnightblue" points="129.967,-91.0523 133.86,-81.1988 124.672,-86.4738 129.967,-91.0523"/>
</g>
<!-- Node18 -->
<g id="node18" class="node"><title>Node18</title>
<polygon fill="none" stroke="#bfbfbf" points="123.5,-123.5 123.5,-142.5 169.5,-142.5 169.5,-123.5 123.5,-123.5"/>
<text text-anchor="middle" x="146.5" y="-130.5" font-family="Helvetica,sans-Serif" font-size="10.00">cstring</text>
</g>
<!-- Node14&#45;&gt;Node18 -->
<g id="edge17" class="edge"><title>Node14&#45;&gt;Node18</title>
<path fill="none" stroke="midnightblue" d="M317.96,-179.484C285.045,-171.081 233.176,-157.717 179.283,-143.175"/>
<polygon fill="midnightblue" stroke="midnightblue" points="180.124,-139.776 169.557,-140.543 178.296,-146.533 180.124,-139.776"/>
</g>
<!-- Node19 -->
<g id="node19" class="node"><title>Node19</title>
<g id="a_node19"><a xlink:href="HmpidEquipment_8h_source.html" target="_top" xlink:title="HMPID/HmpidEquipment.h">
<polygon fill="none" stroke="black" points="187.5,-123.5 187.5,-142.5 323.5,-142.5 323.5,-123.5 187.5,-123.5"/>
<text text-anchor="middle" x="255.5" y="-130.5" font-family="Helvetica,sans-Serif" font-size="10.00">HMPID/HmpidEquipment.h</text>
</a>
</g>
</g>
<!-- Node14&#45;&gt;Node19 -->
<g id="edge19" class="edge"><title>Node14&#45;&gt;Node19</title>
<path fill="none" stroke="midnightblue" d="M336.076,-179.324C320.96,-170.822 297.685,-157.729 280.029,-147.797"/>
<polygon fill="midnightblue" stroke="midnightblue" points="281.317,-144.507 270.886,-142.655 277.886,-150.608 281.317,-144.507"/>
</g>
<!-- Node19&#45;&gt;Node15 -->
<g id="edge20" class="edge"><title>Node19&#45;&gt;Node15</title>
<path fill="none" stroke="midnightblue" d="M250.915,-123.475C246.258,-114.815 238.908,-101.149 232.99,-90.1453"/>
<polygon fill="midnightblue" stroke="midnightblue" points="235.895,-88.1584 228.076,-81.0091 229.73,-91.474 235.895,-88.1584"/>
</g>
<!-- Node19&#45;&gt;Node16 -->
<g id="edge21" class="edge"><title>Node19&#45;&gt;Node16</title>
<path fill="none" stroke="midnightblue" d="M260.085,-123.475C264.742,-114.815 272.092,-101.149 278.01,-90.1453"/>
<polygon fill="midnightblue" stroke="midnightblue" points="281.27,-91.474 282.924,-81.0091 275.105,-88.1584 281.27,-91.474"/>
</g>
<!-- Node19&#45;&gt;Node17 -->
<g id="edge22" class="edge"><title>Node19&#45;&gt;Node17</title>
<path fill="none" stroke="midnightblue" d="M239.31,-123.475C220.598,-113.622 189.577,-97.2883 167.701,-85.7697"/>
<polygon fill="midnightblue" stroke="midnightblue" points="169.139,-82.5713 158.66,-81.0091 165.878,-88.7651 169.139,-82.5713"/>
</g>
<!-- Node21 -->
<g id="node21" class="node"><title>Node21</title>
<g id="a_node21"><a xlink:href="TaskInterface_8h.html" target="_top" xlink:title="QualityControl/TaskInterface.h">
<polygon fill="none" stroke="black" points="991.5,-179.5 991.5,-198.5 1141.5,-198.5 1141.5,-179.5 991.5,-179.5"/>
<text text-anchor="middle" x="1066.5" y="-186.5" font-family="Helvetica,sans-Serif" font-size="10.00">QualityControl/TaskInterface.h</text>
</a>
</g>
</g>
<!-- Node20&#45;&gt;Node21 -->
<g id="edge24" class="edge"><title>Node20&#45;&gt;Node21</title>
<path fill="none" stroke="midnightblue" d="M853.589,-235.444C897.816,-226.004 969.039,-210.802 1016.78,-200.611"/>
<polygon fill="midnightblue" stroke="midnightblue" points="1017.55,-204.027 1026.6,-198.516 1016.09,-197.181 1017.55,-204.027"/>
</g>
<!-- Node21&#45;&gt;Node5 -->
<g id="edge48" class="edge"><title>Node21&#45;&gt;Node5</title>
<path fill="none" stroke="midnightblue" d="M991.246,-180.717C887.643,-170.691 701.626,-152.69 593.247,-142.201"/>
<polygon fill="midnightblue" stroke="midnightblue" points="593.297,-138.69 583.006,-141.21 592.622,-145.657 593.297,-138.69"/>
</g>
<!-- Node22 -->
<g id="node22" class="node"><title>Node22</title>
<polygon fill="none" stroke="#bfbfbf" points="1763,-0.5 1763,-19.5 1798,-19.5 1798,-0.5 1763,-0.5"/>
<text text-anchor="middle" x="1780.5" y="-7.5" font-family="Helvetica,sans-Serif" font-size="10.00">map</text>
</g>
<!-- Node21&#45;&gt;Node22 -->
<g id="edge25" class="edge"><title>Node21&#45;&gt;Node22</title>
<path fill="none" stroke="midnightblue" d="M1141.55,-187.943C1243.53,-186.413 1431,-178.43 1586.5,-143 1655.07,-127.376 1680.44,-131.99 1734.5,-87 1753.25,-71.3943 1766.39,-46.0598 1773.7,-28.9761"/>
<polygon fill="midnightblue" stroke="midnightblue" points="1777,-30.1495 1777.49,-19.5661 1770.5,-27.5329 1777,-30.1495"/>
</g>
<!-- Node23 -->
<g id="node23" class="node"><title>Node23</title>
<polygon fill="none" stroke="#bfbfbf" points="1307.5,-62 1307.5,-81 1359.5,-81 1359.5,-62 1307.5,-62"/>
<text text-anchor="middle" x="1333.5" y="-69" font-family="Helvetica,sans-Serif" font-size="10.00">memory</text>
</g>
<!-- Node21&#45;&gt;Node23 -->
<g id="edge26" class="edge"><title>Node21&#45;&gt;Node23</title>
<path fill="none" stroke="midnightblue" d="M1141.67,-180.514C1199.42,-173.471 1273.27,-161.252 1297.5,-143 1314.45,-130.236 1324.05,-107.229 1329,-90.9748"/>
<polygon fill="midnightblue" stroke="midnightblue" points="1332.46,-91.5777 1331.71,-81.0091 1325.71,-89.7359 1332.46,-91.5777"/>
</g>
<!-- Node24 -->
<g id="node24" class="node"><title>Node24</title>
<polygon fill="none" stroke="#bfbfbf" points="1418,-0.5 1418,-19.5 1459,-19.5 1459,-0.5 1418,-0.5"/>
<text text-anchor="middle" x="1438.5" y="-7.5" font-family="Helvetica,sans-Serif" font-size="10.00">string</text>
</g>
<!-- Node21&#45;&gt;Node24 -->
<g id="edge27" class="edge"><title>Node21&#45;&gt;Node24</title>
<path fill="none" stroke="midnightblue" d="M1134.21,-179.477C1183.55,-172.024 1245.03,-159.762 1264.5,-143 1295.96,-115.912 1268.26,-84.438 1298.5,-56 1328.45,-27.8407 1376.11,-17.302 1407.35,-13.3581"/>
<polygon fill="midnightblue" stroke="midnightblue" points="1408.11,-16.7961 1417.66,-12.2201 1407.34,-9.83835 1408.11,-16.7961"/>
</g>
<!-- Node25 -->
<g id="node25" class="node"><title>Node25</title>
<polygon fill="none" stroke="#bfbfbf" points="972,-0.5 972,-19.5 1055,-19.5 1055,-0.5 972,-0.5"/>
<text text-anchor="middle" x="1013.5" y="-7.5" font-family="Helvetica,sans-Serif" font-size="10.00">unordered_map</text>
</g>
<!-- Node21&#45;&gt;Node25 -->
<g id="edge28" class="edge"><title>Node21&#45;&gt;Node25</title>
<path fill="none" stroke="midnightblue" d="M991.121,-184.312C886.606,-178.414 708.22,-165.207 688.5,-143 607.704,-52.0151 851.006,-22.6461 961.714,-14.1366"/>
<polygon fill="midnightblue" stroke="midnightblue" points="962.284,-17.6042 971.999,-13.3769 961.768,-10.6232 962.284,-17.6042"/>
</g>
<!-- Node26 -->
<g id="node26" class="node"><title>Node26</title>
<polygon fill="none" stroke="#bfbfbf" points="697,-123.5 697,-142.5 822,-142.5 822,-123.5 697,-123.5"/>
<text text-anchor="middle" x="759.5" y="-130.5" font-family="Helvetica,sans-Serif" font-size="10.00">Framework/InitContext.h</text>
</g>
<!-- Node21&#45;&gt;Node26 -->
<g id="edge29" class="edge"><title>Node21&#45;&gt;Node26</title>
<path fill="none" stroke="midnightblue" d="M1017.85,-179.444C963.626,-169.905 875.952,-154.483 818.018,-144.293"/>
<polygon fill="midnightblue" stroke="midnightblue" points="818.373,-140.802 807.917,-142.516 817.16,-147.696 818.373,-140.802"/>
</g>
<!-- Node27 -->
<g id="node27" class="node"><title>Node27</title>
<polygon fill="none" stroke="#bfbfbf" points="840.5,-123.5 840.5,-142.5 1000.5,-142.5 1000.5,-123.5 840.5,-123.5"/>
<text text-anchor="middle" x="920.5" y="-130.5" font-family="Helvetica,sans-Serif" font-size="10.00">Framework/ProcessingContext.h</text>
</g>
<!-- Node21&#45;&gt;Node27 -->
<g id="edge30" class="edge"><title>Node21&#45;&gt;Node27</title>
<path fill="none" stroke="midnightblue" d="M1043.37,-179.444C1019.02,-170.438 980.493,-156.189 953.077,-146.049"/>
<polygon fill="midnightblue" stroke="midnightblue" points="954.119,-142.703 943.526,-142.516 951.691,-149.268 954.119,-142.703"/>
</g>
<!-- Node28 -->
<g id="node28" class="node"><title>Node28</title>
<polygon fill="none" stroke="#bfbfbf" points="1019,-123.5 1019,-142.5 1114,-142.5 1114,-123.5 1019,-123.5"/>
<text text-anchor="middle" x="1066.5" y="-130.5" font-family="Helvetica,sans-Serif" font-size="10.00">CCDB/CcdbApi.h</text>
</g>
<!-- Node21&#45;&gt;Node28 -->
<g id="edge31" class="edge"><title>Node21&#45;&gt;Node28</title>
<path fill="none" stroke="midnightblue" d="M1066.5,-179.083C1066.5,-172.006 1066.5,-161.861 1066.5,-152.986"/>
<polygon fill="midnightblue" stroke="midnightblue" points="1070,-152.751 1066.5,-142.751 1063,-152.751 1070,-152.751"/>
</g>
<!-- Node29 -->
<g id="node29" class="node"><title>Node29</title>
<g id="a_node29"><a xlink:href="Activity_8h.html" target="_top" xlink:title="QualityControl/Activity.h">
<polygon fill="none" stroke="black" points="1132,-123.5 1132,-142.5 1255,-142.5 1255,-123.5 1132,-123.5"/>
<text text-anchor="middle" x="1193.5" y="-130.5" font-family="Helvetica,sans-Serif" font-size="10.00">QualityControl/Activity.h</text>
</a>
</g>
</g>
<!-- Node21&#45;&gt;Node29 -->
<g id="edge32" class="edge"><title>Node21&#45;&gt;Node29</title>
<path fill="none" stroke="midnightblue" d="M1086.62,-179.444C1107.52,-170.557 1140.43,-156.563 1164.22,-146.451"/>
<polygon fill="midnightblue" stroke="midnightblue" points="1165.64,-149.65 1173.47,-142.516 1162.9,-143.208 1165.64,-149.65"/>
</g>
<!-- Node30 -->
<g id="node30" class="node"><title>Node30</title>
<g id="a_node30"><a xlink:href="ObjectsManager_8h.html" target="_top" xlink:title="QualityControl/ObjectsManager.h">
<polygon fill="none" stroke="black" points="1416,-123.5 1416,-142.5 1577,-142.5 1577,-123.5 1416,-123.5"/>
<text text-anchor="middle" x="1496.5" y="-130.5" font-family="Helvetica,sans-Serif" font-size="10.00">QualityControl/ObjectsManager.h</text>
</a>
</g>
</g>
<!-- Node21&#45;&gt;Node30 -->
<g id="edge33" class="edge"><title>Node21&#45;&gt;Node30</title>
<path fill="none" stroke="midnightblue" d="M1134.63,-179.444C1211.85,-169.747 1337.47,-153.971 1418.53,-143.791"/>
<polygon fill="midnightblue" stroke="midnightblue" points="1419.2,-147.235 1428.68,-142.516 1418.33,-140.29 1419.2,-147.235"/>
</g>
<!-- Node30&#45;&gt;Node23 -->
<g id="edge47" class="edge"><title>Node30&#45;&gt;Node23</title>
<path fill="none" stroke="midnightblue" d="M1470.85,-123.443C1444.9,-114.679 1403.7,-100.468 1368.5,-87 1366.85,-86.3698 1365.17,-85.7126 1363.47,-85.0409"/>
<polygon fill="midnightblue" stroke="midnightblue" points="1364.37,-81.6285 1353.78,-81.1231 1361.74,-88.1177 1364.37,-81.6285"/>
</g>
<!-- Node30&#45;&gt;Node24 -->
<g id="edge46" class="edge"><title>Node30&#45;&gt;Node24</title>
<path fill="none" stroke="midnightblue" d="M1505.09,-123.109C1518.19,-108.428 1540.27,-78.5065 1526.5,-56 1519.84,-45.1135 1491.21,-31.6852 1468.39,-22.3445"/>
<polygon fill="midnightblue" stroke="midnightblue" points="1469.63,-19.0714 1459.04,-18.6109 1467.03,-25.5717 1469.63,-19.0714"/>
</g>
<!-- Node31 -->
<g id="node31" class="node"><title>Node31</title>
<g id="a_node31"><a xlink:href="MonitorObject_8h.html" target="_top" xlink:title="QualityControl/MonitorObject.h">
<polygon fill="none" stroke="black" points="1574,-62 1574,-81 1725,-81 1725,-62 1574,-62"/>
<text text-anchor="middle" x="1649.5" y="-69" font-family="Helvetica,sans-Serif" font-size="10.00">QualityControl/MonitorObject.h</text>
</a>
</g>
</g>
<!-- Node30&#45;&gt;Node31 -->
<g id="edge34" class="edge"><title>Node30&#45;&gt;Node31</title>
<path fill="none" stroke="midnightblue" d="M1518.42,-123.475C1544.55,-113.313 1588.41,-96.2564 1618.13,-84.6996"/>
<polygon fill="midnightblue" stroke="midnightblue" points="1619.57,-87.8956 1627.62,-81.0091 1617.03,-81.3716 1619.57,-87.8956"/>
</g>
<!-- Node35 -->
<g id="node35" class="node"><title>Node35</title>
<g id="a_node35"><a xlink:href="MonitorObjectCollection_8h.html" target="_top" xlink:title="QualityControl/MonitorObject\lCollection.h">
<polygon fill="none" stroke="black" points="1809,-56.5 1809,-86.5 1952,-86.5 1952,-56.5 1809,-56.5"/>
<text text-anchor="start" x="1817" y="-74.5" font-family="Helvetica,sans-Serif" font-size="10.00">QualityControl/MonitorObject</text>
<text text-anchor="middle" x="1880.5" y="-63.5" font-family="Helvetica,sans-Serif" font-size="10.00">Collection.h</text>
</a>
</g>
</g>
<!-- Node30&#45;&gt;Node35 -->
<g id="edge40" class="edge"><title>Node30&#45;&gt;Node35</title>
<path fill="none" stroke="midnightblue" d="M1551.52,-123.475C1616.19,-113.455 1724.12,-96.7315 1798.62,-85.187"/>
<polygon fill="midnightblue" stroke="midnightblue" points="1799.56,-88.5837 1808.9,-83.5937 1798.49,-81.6662 1799.56,-88.5837"/>
</g>
<!-- Node38 -->
<g id="node38" class="node"><title>Node38</title>
<g id="a_node38"><a xlink:href="TaskConfig_8h.html" target="_top" xlink:title="QualityControl/TaskConfig.h">
<polygon fill="none" stroke="black" points="1377.5,-62 1377.5,-81 1517.5,-81 1517.5,-62 1377.5,-62"/>
<text text-anchor="middle" x="1447.5" y="-69" font-family="Helvetica,sans-Serif" font-size="10.00">QualityControl/TaskConfig.h</text>
</a>
</g>
</g>
<!-- Node30&#45;&gt;Node38 -->
<g id="edge43" class="edge"><title>Node30&#45;&gt;Node38</title>
<path fill="none" stroke="midnightblue" d="M1489.48,-123.475C1482.06,-114.462 1470.17,-100.025 1460.93,-88.8118"/>
<polygon fill="midnightblue" stroke="midnightblue" points="1463.57,-86.5034 1454.51,-81.0091 1458.16,-90.9534 1463.57,-86.5034"/>
</g>
<!-- Node31&#45;&gt;Node22 -->
<g id="edge36" class="edge"><title>Node31&#45;&gt;Node22</title>
<path fill="none" stroke="midnightblue" d="M1668.27,-61.9751C1690.6,-51.8315 1728.06,-34.8188 1753.5,-23.263"/>
<polygon fill="midnightblue" stroke="midnightblue" points="1754.95,-26.4493 1762.61,-19.1271 1752.05,-20.0759 1754.95,-26.4493"/>
</g>
<!-- Node31&#45;&gt;Node24 -->
<g id="edge35" class="edge"><title>Node31&#45;&gt;Node24</title>
<path fill="none" stroke="midnightblue" d="M1618.06,-61.9259C1583.82,-52.5459 1527.21,-36.9094 1468.89,-20.0719"/>
<polygon fill="midnightblue" stroke="midnightblue" points="1469.72,-16.6679 1459.14,-17.2496 1467.77,-23.3919 1469.72,-16.6679"/>
</g>
<!-- Node32 -->
<g id="node32" class="node"><title>Node32</title>
<polygon fill="none" stroke="#bfbfbf" points="1611.5,-0.5 1611.5,-19.5 1667.5,-19.5 1667.5,-0.5 1611.5,-0.5"/>
<text text-anchor="middle" x="1639.5" y="-7.5" font-family="Helvetica,sans-Serif" font-size="10.00">Rtypes.h</text>
</g>
<!-- Node31&#45;&gt;Node32 -->
<g id="edge37" class="edge"><title>Node31&#45;&gt;Node32</title>
<path fill="none" stroke="midnightblue" d="M1648.07,-61.9751C1646.66,-53.5803 1644.45,-40.4806 1642.64,-29.6631"/>
<polygon fill="midnightblue" stroke="midnightblue" points="1646.04,-28.7906 1640.93,-19.5091 1639.14,-29.9509 1646.04,-28.7906"/>
</g>
<!-- Node33 -->
<g id="node33" class="node"><title>Node33</title>
<polygon fill="none" stroke="#bfbfbf" points="1686,-0.5 1686,-19.5 1745,-19.5 1745,-0.5 1686,-0.5"/>
<text text-anchor="middle" x="1715.5" y="-7.5" font-family="Helvetica,sans-Serif" font-size="10.00">TObject.h</text>
</g>
<!-- Node31&#45;&gt;Node33 -->
<g id="edge38" class="edge"><title>Node31&#45;&gt;Node33</title>
<path fill="none" stroke="midnightblue" d="M1658.96,-61.9751C1669.25,-52.6966 1685.92,-37.6706 1698.49,-26.331"/>
<polygon fill="midnightblue" stroke="midnightblue" points="1700.98,-28.8046 1706.06,-19.5091 1696.29,-23.6054 1700.98,-28.8046"/>
</g>
<!-- Node34 -->
<g id="node34" class="node"><title>Node34</title>
<polygon fill="none" stroke="#bfbfbf" points="1477.5,-0.5 1477.5,-19.5 1593.5,-19.5 1593.5,-0.5 1477.5,-0.5"/>
<text text-anchor="middle" x="1535.5" y="-7.5" font-family="Helvetica,sans-Serif" font-size="10.00">Common/Exceptions.h</text>
</g>
<!-- Node31&#45;&gt;Node34 -->
<g id="edge39" class="edge"><title>Node31&#45;&gt;Node34</title>
<path fill="none" stroke="midnightblue" d="M1633.17,-61.9751C1614.29,-52.1222 1582.99,-35.7883 1560.92,-24.2697"/>
<polygon fill="midnightblue" stroke="midnightblue" points="1562.29,-21.0333 1551.8,-19.5091 1559.05,-27.2389 1562.29,-21.0333"/>
</g>
<!-- Node36 -->
<g id="node36" class="node"><title>Node36</title>
<polygon fill="none" stroke="#bfbfbf" points="1963,-0.5 1963,-19.5 2032,-19.5 2032,-0.5 1963,-0.5"/>
<text text-anchor="middle" x="1997.5" y="-7.5" font-family="Helvetica,sans-Serif" font-size="10.00">TObjArray.h</text>
</g>
<!-- Node35&#45;&gt;Node36 -->
<g id="edge41" class="edge"><title>Node35&#45;&gt;Node36</title>
<path fill="none" stroke="midnightblue" d="M1908.23,-56.3993C1927.33,-46.6837 1952.56,-33.8551 1971.32,-24.3137"/>
<polygon fill="midnightblue" stroke="midnightblue" points="1973.15,-27.3106 1980.48,-19.6578 1969.98,-21.071 1973.15,-27.3106"/>
</g>
<!-- Node37 -->
<g id="node37" class="node"><title>Node37</title>
<polygon fill="none" stroke="#bfbfbf" points="1816.5,-0.5 1816.5,-19.5 1944.5,-19.5 1944.5,-0.5 1816.5,-0.5"/>
<text text-anchor="middle" x="1880.5" y="-7.5" font-family="Helvetica,sans-Serif" font-size="10.00">Mergers/MergeInterface.h</text>
</g>
<!-- Node35&#45;&gt;Node37 -->
<g id="edge42" class="edge"><title>Node35&#45;&gt;Node37</title>
<path fill="none" stroke="midnightblue" d="M1880.5,-56.3993C1880.5,-48.4664 1880.5,-38.458 1880.5,-29.8583"/>
<polygon fill="midnightblue" stroke="midnightblue" points="1884,-29.6577 1880.5,-19.6578 1877,-29.6578 1884,-29.6577"/>
</g>
<!-- Node38&#45;&gt;Node24 -->
<g id="edge44" class="edge"><title>Node38&#45;&gt;Node24</title>
<path fill="none" stroke="midnightblue" d="M1446.21,-61.9751C1444.94,-53.5803 1442.96,-40.4806 1441.32,-29.6631"/>
<polygon fill="midnightblue" stroke="midnightblue" points="1444.74,-28.8731 1439.79,-19.5091 1437.82,-29.9201 1444.74,-28.8731"/>
</g>
<!-- Node38&#45;&gt;Node25 -->
<g id="edge45" class="edge"><title>Node38&#45;&gt;Node25</title>
<path fill="none" stroke="midnightblue" d="M1403.28,-61.9378C1391.97,-59.869 1379.8,-57.7518 1368.5,-56 1261.05,-39.3427 1134.6,-24.4288 1065.34,-16.6599"/>
<polygon fill="midnightblue" stroke="midnightblue" points="1065.47,-13.1521 1055.14,-15.5207 1064.69,-20.1088 1065.47,-13.1521"/>
</g>
</g>
</svg>
        <g id="navigator" transform="translate(0 0)" fill="#404254">
                <rect fill="#f2f5e9" fill-opacity="0.5" stroke="#606060" stroke-width=".5" x="0" y="0" width="60" height="60"/>
                <use id="zoomplus" xlink:href="#zoomPlus" x="17" y="9" onmousedown="handleZoom(evt,'in')"/>
                <use id="zoomminus" xlink:href="#zoomMin" x="42" y="9" onmousedown="handleZoom(evt,'out')"/>
                <use id="reset" xlink:href="#resetDef" x="30" y="36" onmousedown="handleReset()"/>
                <g id="arrowUp" xlink:href="#dirArrow" transform="translate(30 24)" onmousedown="handlePan(0,-1)">
                  <use xlink:href="#rim" fill="#404040">
                        <set attributeName="fill" to="#808080" begin="arrowUp.mouseover" end="arrowUp.mouseout"/>
                  </use>
                  <path fill="none" stroke="white" stroke-width="1.5" d="M0,-3.0v7 M-2.5,-0.5L0,-3.0L2.5,-0.5"/>
                </g>
                <g id="arrowRight" xlink:href="#dirArrow" transform="rotate(90) translate(36 -43)" onmousedown="handlePan(1,0)">
                  <use xlink:href="#rim" fill="#404040">
                        <set attributeName="fill" to="#808080" begin="arrowRight.mouseover" end="arrowRight.mouseout"/>
                  </use>
                  <path fill="none" stroke="white" stroke-width="1.5" d="M0,-3.0v7 M-2.5,-0.5L0,-3.0L2.5,-0.5"/>
                </g>
                <g id="arrowDown" xlink:href="#dirArrow" transform="rotate(180) translate(-30 -48)" onmousedown="handlePan(0,1)">
                  <use xlink:href="#rim" fill="#404040">
                        <set attributeName="fill" to="#808080" begin="arrowDown.mouseover" end="arrowDown.mouseout"/>
                  </use>
                  <path fill="none" stroke="white" stroke-width="1.5" d="M0,-3.0v7 M-2.5,-0.5L0,-3.0L2.5,-0.5"/>
                </g>
                <g id="arrowLeft" xlink:href="#dirArrow" transform="rotate(270) translate(-36 17)" onmousedown="handlePan(-1,0)">
                  <use xlink:href="#rim" fill="#404040">
                        <set attributeName="fill" to="#808080" begin="arrowLeft.mouseover" end="arrowLeft.mouseout"/>
                  </use>
                  <path fill="none" stroke="white" stroke-width="1.5" d="M0,-3.0v7 M-2.5,-0.5L0,-3.0L2.5,-0.5"/>
                </g>
        </g>
        <svg viewBox="0 0 15 15" width="100%" height="30px" preserveAspectRatio="xMaxYMin meet">
         <g id="arrow_out" transform="scale(0.3 0.3)">
          <a xlink:href="HmpidTask_8cxx__incl_org.svg" target="_base">
           <rect id="button" ry="5" rx="5" y="6" x="6" height="38" width="38"
                fill="#f2f5e9" fill-opacity="0.5" stroke="#606060" stroke-width="1.0"/>
           <path id="arrow"
             d="M 11.500037,31.436501 C 11.940474,20.09759 22.043105,11.32322 32.158766,21.979434 L 37.068811,17.246167 C 37.068811,17.246167 37.088388,32 37.088388,32 L 22.160133,31.978069 C 22.160133,31.978069 26.997745,27.140456 26.997745,27.140456 C 18.528582,18.264221 13.291696,25.230495 11.500037,31.436501 z"
             style="fill:#404040;"/>
          </a>
         </g>
        </svg>
</svg>
