<?xml version="1.0" encoding="UTF-8" standalone="no"?>
<!DOCTYPE svg PUBLIC "-//W3C//DTD SVG 1.1//EN"
 "http://www.w3.org/Graphics/SVG/1.1/DTD/svg11.dtd">
<!-- Generated by graphviz version 2.38.0 (20140413.2041)
 -->
<!-- Title: Modules/HMPID/include/HMPID/HmpidDecodeRawMem.h Pages: 1 -->
<svg width="376pt" height="106pt"
 viewBox="0.00 0.00 375.50 106.00" xmlns="http://www.w3.org/2000/svg" xmlns:xlink="http://www.w3.org/1999/xlink">
<g id="graph0" class="graph" transform="scale(1 1) rotate(0) translate(4 102)">
<title>Modules/HMPID/include/HMPID/HmpidDecodeRawMem.h</title>
<!-- Node1 -->
<g id="node1" class="node"><title>Node1</title>
<polygon fill="#bfbfbf" stroke="black" points="97.5,-67.5 97.5,-97.5 265.5,-97.5 265.5,-67.5 97.5,-67.5"/>
<text text-anchor="start" x="105.5" y="-85.5" font-family="Helvetica,sans-Serif" font-size="10.00">Modules/HMPID/include</text>
<text text-anchor="middle" x="181.5" y="-74.5" font-family="Helvetica,sans-Serif" font-size="10.00">/HMPID/HmpidDecodeRawMem.h</text>
</g>
<!-- Node2 -->
<g id="node2" class="node"><title>Node2</title>
<g id="a_node2"><a xlink:href="HmpidDecodeRawMem_8cxx.html" target="_top" xlink:title="Derived Class for decoding Raw Data Memory stream. ">
<polygon fill="none" stroke="black" points="0,-0.5 0,-30.5 171,-30.5 171,-0.5 0,-0.5"/>
<text text-anchor="start" x="8" y="-18.5" font-family="Helvetica,sans-Serif" font-size="10.00">Modules/HMPID/src/HmpidDecode</text>
<text text-anchor="middle" x="85.5" y="-7.5" font-family="Helvetica,sans-Serif" font-size="10.00">RawMem.cxx</text>
</a>
</g>
</g>
<!-- Node1&#45;&gt;Node2 -->
<g id="edge1" class="edge"><title>Node1&#45;&gt;Node2</title>
<path fill="none" stroke="midnightblue" d="M152.307,-61.7337C137.452,-51.6755 119.742,-39.6847 106.29,-30.5765"/>
<polygon fill="midnightblue" stroke="midnightblue" points="150.427,-64.6875 160.669,-67.396 154.351,-58.8912 150.427,-64.6875"/>
</g>
<!-- Node3 -->
<g id="node3" class="node"><title>Node3</title>
<g id="a_node3"><a xlink:href="HmpidTask_8cxx.html" target="_top" xlink:title="Modules/HMPID/src/HmpidTask.cxx">
<polygon fill="none" stroke="black" points="189.5,-6 189.5,-25 367.5,-25 367.5,-6 189.5,-6"/>
<text text-anchor="middle" x="278.5" y="-13" font-family="Helvetica,sans-Serif" font-size="10.00">Modules/HMPID/src/HmpidTask.cxx</text>
</a>
</g>
</g>
<!-- Node1&#45;&gt;Node3 -->
<g id="edge2" class="edge"><title>Node1&#45;&gt;Node3</title>
<path fill="none" stroke="midnightblue" d="M211.136,-61.6409C229.442,-49.3742 251.995,-34.2613 265.805,-25.007"/>
<polygon fill="midnightblue" stroke="midnightblue" points="208.906,-58.9216 202.548,-67.396 212.803,-64.7367 208.906,-58.9216"/>
</g>
</g>
</svg>
