<?xml version="1.0" encoding="UTF-8" standalone="no"?>
<!DOCTYPE svg PUBLIC "-//W3C//DTD SVG 1.1//EN"
 "http://www.w3.org/Graphics/SVG/1.1/DTD/svg11.dtd">
<!-- Generated by graphviz version 2.38.0 (20140413.2041)
 -->
<!-- Title: Modules/HMPID/src/HmpidDecodeRawMem.cxx Pages: 1 -->
<svg width="807pt" height="263pt"
 viewBox="0.00 0.00 806.50 263.00" xmlns="http://www.w3.org/2000/svg" xmlns:xlink="http://www.w3.org/1999/xlink">
<g id="graph0" class="graph" transform="scale(1 1) rotate(0) translate(4 259)">
<title>Modules/HMPID/src/HmpidDecodeRawMem.cxx</title>
<!-- Node1 -->
<g id="node1" class="node"><title>Node1</title>
<polygon fill="#bfbfbf" stroke="black" points="104,-224.5 104,-254.5 275,-254.5 275,-224.5 104,-224.5"/>
<text text-anchor="start" x="112" y="-242.5" font-family="Helvetica,sans-Serif" font-size="10.00">Modules/HMPID/src/HmpidDecode</text>
<text text-anchor="middle" x="189.5" y="-231.5" font-family="Helvetica,sans-Serif" font-size="10.00">RawMem.cxx</text>
</g>
<!-- Node2 -->
<g id="node2" class="node"><title>Node2</title>
<g id="a_node2"><a xlink:href="HmpidDecodeRawMem_8h.html" target="_top" xlink:title="Derived Class for decoding Raw Data Memory stream. ">
<polygon fill="none" stroke="black" points="107,-168.5 107,-187.5 272,-187.5 272,-168.5 107,-168.5"/>
<text text-anchor="middle" x="189.5" y="-175.5" font-family="Helvetica,sans-Serif" font-size="10.00">HMPID/HmpidDecodeRawMem.h</text>
</a>
</g>
</g>
<!-- Node1&#45;&gt;Node2 -->
<g id="edge1" class="edge"><title>Node1&#45;&gt;Node2</title>
<path fill="none" stroke="midnightblue" d="M189.5,-224.399C189.5,-216.466 189.5,-206.458 189.5,-197.858"/>
<polygon fill="midnightblue" stroke="midnightblue" points="193,-197.658 189.5,-187.658 186,-197.658 193,-197.658"/>
</g>
<!-- Node3 -->
<g id="node3" class="node"><title>Node3</title>
<polygon fill="none" stroke="#bfbfbf" points="0,-112.5 0,-131.5 49,-131.5 49,-112.5 0,-112.5"/>
<text text-anchor="middle" x="24.5" y="-119.5" font-family="Helvetica,sans-Serif" font-size="10.00">ctype.h</text>
</g>
<!-- Node2&#45;&gt;Node3 -->
<g id="edge2" class="edge"><title>Node2&#45;&gt;Node3</title>
<path fill="none" stroke="midnightblue" d="M163.355,-168.444C135.067,-159.185 89.8444,-144.385 58.7388,-134.205"/>
<polygon fill="midnightblue" stroke="midnightblue" points="59.7676,-130.86 49.175,-131.075 57.5903,-137.512 59.7676,-130.86"/>
</g>
<!-- Node4 -->
<g id="node4" class="node"><title>Node4</title>
<polygon fill="none" stroke="#bfbfbf" points="67.5,-112.5 67.5,-131.5 113.5,-131.5 113.5,-112.5 67.5,-112.5"/>
<text text-anchor="middle" x="90.5" y="-119.5" font-family="Helvetica,sans-Serif" font-size="10.00">stdio.h</text>
</g>
<!-- Node2&#45;&gt;Node4 -->
<g id="edge3" class="edge"><title>Node2&#45;&gt;Node4</title>
<path fill="none" stroke="midnightblue" d="M173.594,-168.324C157.862,-159.743 133.558,-146.486 115.291,-136.522"/>
<polygon fill="midnightblue" stroke="midnightblue" points="116.822,-133.37 106.367,-131.655 113.47,-139.516 116.822,-133.37"/>
</g>
<!-- Node5 -->
<g id="node5" class="node"><title>Node5</title>
<polygon fill="none" stroke="#bfbfbf" points="131.5,-112.5 131.5,-131.5 179.5,-131.5 179.5,-112.5 131.5,-112.5"/>
<text text-anchor="middle" x="155.5" y="-119.5" font-family="Helvetica,sans-Serif" font-size="10.00">stdlib.h</text>
</g>
<!-- Node2&#45;&gt;Node5 -->
<g id="edge4" class="edge"><title>Node2&#45;&gt;Node5</title>
<path fill="none" stroke="midnightblue" d="M183.886,-168.083C179.133,-160.534 172.182,-149.495 166.348,-140.23"/>
<polygon fill="midnightblue" stroke="midnightblue" points="169.3,-138.349 161.01,-131.751 163.376,-142.078 169.3,-138.349"/>
</g>
<!-- Node6 -->
<g id="node6" class="node"><title>Node6</title>
<polygon fill="none" stroke="#bfbfbf" points="198,-112.5 198,-131.5 249,-131.5 249,-112.5 198,-112.5"/>
<text text-anchor="middle" x="223.5" y="-119.5" font-family="Helvetica,sans-Serif" font-size="10.00">unistd.h</text>
</g>
<!-- Node2&#45;&gt;Node6 -->
<g id="edge5" class="edge"><title>Node2&#45;&gt;Node6</title>
<path fill="none" stroke="midnightblue" d="M195.114,-168.083C199.867,-160.534 206.818,-149.495 212.652,-140.23"/>
<polygon fill="midnightblue" stroke="midnightblue" points="215.624,-142.078 217.99,-131.751 209.7,-138.349 215.624,-142.078"/>
</g>
<!-- Node7 -->
<g id="node7" class="node"><title>Node7</title>
<polygon fill="none" stroke="#bfbfbf" points="267,-112.5 267,-131.5 316,-131.5 316,-112.5 267,-112.5"/>
<text text-anchor="middle" x="291.5" y="-119.5" font-family="Helvetica,sans-Serif" font-size="10.00">string.h</text>
</g>
<!-- Node2&#45;&gt;Node7 -->
<g id="edge6" class="edge"><title>Node2&#45;&gt;Node7</title>
<path fill="none" stroke="midnightblue" d="M205.888,-168.324C222.171,-159.703 247.367,-146.364 266.216,-136.386"/>
<polygon fill="midnightblue" stroke="midnightblue" points="267.952,-139.427 275.153,-131.655 264.677,-133.24 267.952,-139.427"/>
</g>
<!-- Node8 -->
<g id="node8" class="node"><title>Node8</title>
<g id="a_node8"><a xlink:href="HmpidDecoder_8h.html" target="_top" xlink:title="Base Class to decode HMPID Raw Data stream. ">
<polygon fill="none" stroke="black" points="334.5,-112.5 334.5,-131.5 460.5,-131.5 460.5,-112.5 334.5,-112.5"/>
<text text-anchor="middle" x="397.5" y="-119.5" font-family="Helvetica,sans-Serif" font-size="10.00">HMPID/HmpidDecoder.h</text>
</a>
</g>
</g>
<!-- Node2&#45;&gt;Node8 -->
<g id="edge7" class="edge"><title>Node2&#45;&gt;Node8</title>
<path fill="none" stroke="midnightblue" d="M222.458,-168.444C258.287,-159.142 315.663,-144.246 354.891,-134.062"/>
<polygon fill="midnightblue" stroke="midnightblue" points="355.896,-137.417 364.696,-131.516 354.137,-130.642 355.896,-137.417"/>
</g>
<!-- Node9 -->
<g id="node9" class="node"><title>Node9</title>
<polygon fill="none" stroke="#bfbfbf" points="181,-0.5 181,-19.5 224,-19.5 224,-0.5 181,-0.5"/>
<text text-anchor="middle" x="202.5" y="-7.5" font-family="Helvetica,sans-Serif" font-size="10.00">cstdio</text>
</g>
<!-- Node8&#45;&gt;Node9 -->
<g id="edge8" class="edge"><title>Node8&#45;&gt;Node9</title>
<path fill="none" stroke="midnightblue" d="M347.33,-112.451C293.558,-102.794 214.635,-86.9935 205.5,-76 195.018,-63.3855 195.46,-44.1723 197.807,-29.9026"/>
<polygon fill="midnightblue" stroke="midnightblue" points="201.312,-30.2427 199.926,-19.7389 194.459,-28.8143 201.312,-30.2427"/>
</g>
<!-- Node10 -->
<g id="node10" class="node"><title>Node10</title>
<polygon fill="none" stroke="#bfbfbf" points="271,-0.5 271,-19.5 320,-19.5 320,-0.5 271,-0.5"/>
<text text-anchor="middle" x="295.5" y="-7.5" font-family="Helvetica,sans-Serif" font-size="10.00">stdint.h</text>
</g>
<!-- Node8&#45;&gt;Node10 -->
<g id="edge9" class="edge"><title>Node8&#45;&gt;Node10</title>
<path fill="none" stroke="midnightblue" d="M393.847,-112.236C388.016,-98.9773 375.603,-73.5122 359.5,-56 348.181,-43.6904 332.946,-32.8127 320.181,-24.8368"/>
<polygon fill="midnightblue" stroke="midnightblue" points="321.786,-21.7182 311.413,-19.563 318.178,-27.7167 321.786,-21.7182"/>
</g>
<!-- Node11 -->
<g id="node11" class="node"><title>Node11</title>
<polygon fill="none" stroke="#bfbfbf" points="364.5,-0.5 364.5,-19.5 418.5,-19.5 418.5,-0.5 364.5,-0.5"/>
<text text-anchor="middle" x="391.5" y="-7.5" font-family="Helvetica,sans-Serif" font-size="10.00">iostream</text>
</g>
<!-- Node8&#45;&gt;Node11 -->
<g id="edge10" class="edge"><title>Node8&#45;&gt;Node11</title>
<path fill="none" stroke="midnightblue" d="M397.029,-112.368C396.061,-94.617 393.827,-53.6664 392.514,-29.5974"/>
<polygon fill="midnightblue" stroke="midnightblue" points="396.008,-29.3859 391.969,-19.5914 389.019,-29.7672 396.008,-29.3859"/>
</g>
<!-- Node12 -->
<g id="node12" class="node"><title>Node12</title>
<polygon fill="none" stroke="#bfbfbf" points="444.5,-56.5 444.5,-75.5 490.5,-75.5 490.5,-56.5 444.5,-56.5"/>
<text text-anchor="middle" x="467.5" y="-63.5" font-family="Helvetica,sans-Serif" font-size="10.00">cstring</text>
</g>
<!-- Node8&#45;&gt;Node12 -->
<g id="edge11" class="edge"><title>Node8&#45;&gt;Node12</title>
<path fill="none" stroke="midnightblue" d="M408.747,-112.324C419.297,-104.185 435.301,-91.8395 447.942,-82.0874"/>
<polygon fill="midnightblue" stroke="midnightblue" points="450.269,-84.7132 456.049,-75.8339 445.993,-79.1707 450.269,-84.7132"/>
</g>
<!-- Node13 -->
<g id="node13" class="node"><title>Node13</title>
<g id="a_node13"><a xlink:href="QcInfoLogger_8h.html" target="_top" xlink:title="QualityControl/QcInfoLogger.h">
<polygon fill="none" stroke="black" points="508,-56.5 508,-75.5 657,-75.5 657,-56.5 508,-56.5"/>
<text text-anchor="middle" x="582.5" y="-63.5" font-family="Helvetica,sans-Serif" font-size="10.00">QualityControl/QcInfoLogger.h</text>
</a>
</g>
</g>
<!-- Node8&#45;&gt;Node13 -->
<g id="edge12" class="edge"><title>Node8&#45;&gt;Node13</title>
<path fill="none" stroke="midnightblue" d="M426.814,-112.444C458.342,-103.241 508.631,-88.5617 543.486,-78.3879"/>
<polygon fill="midnightblue" stroke="midnightblue" points="544.705,-81.6783 553.323,-75.5164 542.743,-74.9587 544.705,-81.6783"/>
</g>
<!-- Node16 -->
<g id="node16" class="node"><title>Node16</title>
<g id="a_node16"><a xlink:href="HmpidEquipment_8h_source.html" target="_top" xlink:title="HMPID/HmpidEquipment.h">
<polygon fill="none" stroke="black" points="214.5,-56.5 214.5,-75.5 350.5,-75.5 350.5,-56.5 214.5,-56.5"/>
<text text-anchor="middle" x="282.5" y="-63.5" font-family="Helvetica,sans-Serif" font-size="10.00">HMPID/HmpidEquipment.h</text>
</a>
</g>
</g>
<!-- Node8&#45;&gt;Node16 -->
<g id="edge15" class="edge"><title>Node8&#45;&gt;Node16</title>
<path fill="none" stroke="midnightblue" d="M379.278,-112.444C360.604,-103.675 331.344,-89.9355 309.883,-79.8579"/>
<polygon fill="midnightblue" stroke="midnightblue" points="311.176,-76.5988 300.637,-75.5164 308.201,-82.935 311.176,-76.5988"/>
</g>
<!-- Node14 -->
<g id="node14" class="node"><title>Node14</title>
<polygon fill="none" stroke="#bfbfbf" points="668.5,-0.5 668.5,-19.5 798.5,-19.5 798.5,-0.5 668.5,-0.5"/>
<text text-anchor="middle" x="733.5" y="-7.5" font-family="Helvetica,sans-Serif" font-size="10.00">InfoLogger/InfoLogger.hxx</text>
</g>
<!-- Node13&#45;&gt;Node14 -->
<g id="edge13" class="edge"><title>Node13&#45;&gt;Node14</title>
<path fill="none" stroke="midnightblue" d="M606.426,-56.4435C631.719,-47.3986 671.802,-33.064 700.18,-22.9158"/>
<polygon fill="midnightblue" stroke="midnightblue" points="701.448,-26.1794 709.686,-19.5164 699.091,-19.5882 701.448,-26.1794"/>
</g>
<!-- Node15 -->
<g id="node15" class="node"><title>Node15</title>
<polygon fill="none" stroke="#bfbfbf" points="488.5,-0.5 488.5,-19.5 650.5,-19.5 650.5,-0.5 488.5,-0.5"/>
<text text-anchor="middle" x="569.5" y="-7.5" font-family="Helvetica,sans-Serif" font-size="10.00">InfoLogger/InfoLoggerMacros.hxx</text>
</g>
<!-- Node13&#45;&gt;Node15 -->
<g id="edge14" class="edge"><title>Node13&#45;&gt;Node15</title>
<path fill="none" stroke="midnightblue" d="M580.353,-56.083C578.631,-48.9272 576.153,-38.6353 574,-29.6911"/>
<polygon fill="midnightblue" stroke="midnightblue" points="577.35,-28.6541 571.607,-19.7511 570.545,-30.2925 577.35,-28.6541"/>
</g>
<!-- Node16&#45;&gt;Node9 -->
<g id="edge16" class="edge"><title>Node16&#45;&gt;Node9</title>
<path fill="none" stroke="midnightblue" d="M269.647,-56.324C257.284,-47.979 238.37,-35.2122 223.763,-25.3524"/>
<polygon fill="midnightblue" stroke="midnightblue" points="225.568,-22.3483 215.321,-19.6545 221.652,-28.1503 225.568,-22.3483"/>
</g>
<!-- Node16&#45;&gt;Node10 -->
<g id="edge17" class="edge"><title>Node16&#45;&gt;Node10</title>
<path fill="none" stroke="midnightblue" d="M284.647,-56.083C286.369,-48.9272 288.847,-38.6353 291,-29.6911"/>
<polygon fill="midnightblue" stroke="midnightblue" points="294.455,-30.2925 293.393,-19.7511 287.65,-28.6541 294.455,-30.2925"/>
</g>
<!-- Node16&#45;&gt;Node11 -->
<g id="edge18" class="edge"><title>Node16&#45;&gt;Node11</title>
<path fill="none" stroke="midnightblue" d="M300.013,-56.324C317.572,-47.6247 344.831,-34.1202 365.031,-24.113"/>
<polygon fill="midnightblue" stroke="midnightblue" points="366.624,-27.23 374.031,-19.6545 363.516,-20.9575 366.624,-27.23"/>
</g>
</g>
</svg>
