<?xml version="1.0" encoding="UTF-8" standalone="no"?>
<!DOCTYPE svg PUBLIC "-//W3C//DTD SVG 1.1//EN"
 "http://www.w3.org/Graphics/SVG/1.1/DTD/svg11.dtd">
<!-- Generated by graphviz version 2.38.0 (20140413.2041)
 -->
<!-- Title: Framework/include/QualityControl/InfrastructureGenerator.h Pages: 1 -->
<!--zoomable 106 -->
<svg id="main" version="1.1" xmlns="http://www.w3.org/2000/svg" xmlns:xlink="http://www.w3.org/1999/xlink" xml:space="preserve" onload="init(evt)">
<style type="text/css"><![CDATA[
.edge:hover path { stroke: red; }
.edge:hover polygon { stroke: red; fill: red; }
]]></style>
<script type="text/javascript"><![CDATA[
var edges = document.getElementsByTagName('g');
if (edges && edges.length) {
  for (var i=0;i<edges.length;i++) {
    if (edges[i].id.substr(0,4)=='edge') {
      edges[i].setAttribute('class','edge');
    }
  }
}
]]></script>
        <defs>
                <circle id="rim" cx="0" cy="0" r="7"/>
                <circle id="rim2" cx="0" cy="0" r="3.5"/>
                <g id="zoomPlus">
                        <use xlink:href="#rim" fill="#404040">
                                <set attributeName="fill" to="#808080" begin="zoomplus.mouseover" end="zoomplus.mouseout"/>
                        </use>
                        <path d="M-4,0h8M0,-4v8" fill="none" stroke="white" stroke-width="1.5" pointer-events="none"/>
                </g>
                <g id="zoomMin">
                        <use xlink:href="#rim" fill="#404040">
                                <set attributeName="fill" to="#808080" begin="zoomminus.mouseover" end="zoomminus.mouseout"/>
                        </use>
                        <path d="M-4,0h8" fill="none" stroke="white" stroke-width="1.5" pointer-events="none"/>
                </g>
                <g id="dirArrow">
                        <path fill="none" stroke="white" stroke-width="1.5" d="M0,-3.0v7 M-2.5,-0.5L0,-3.0L2.5,-0.5"/>
                </g>
               <g id="resetDef">
                       <use xlink:href="#rim2" fill="#404040">
                               <set attributeName="fill" to="#808080" begin="reset.mouseover" end="reset.mouseout"/>
                       </use>
               </g>
        </defs>

<script type="text/javascript">
var viewWidth = 2125;
var viewHeight = 106;
var sectionId = 'dynsection-1';
</script>
<script xlink:href="svgpan.js"/>
<svg id="graph" class="graph">
<g id="viewport">
<title>Framework/include/QualityControl/InfrastructureGenerator.h</title>
<!-- Node1 -->
<g id="node1" class="node"><title>Node1</title>
<polygon fill="#bfbfbf" stroke="black" points="893.5,-67.5 893.5,-97.5 1053.5,-97.5 1053.5,-67.5 893.5,-67.5"/>
<text text-anchor="start" x="901.5" y="-85.5" font-family="Helvetica,sans-Serif" font-size="10.00">Framework/include/Quality</text>
<text text-anchor="middle" x="973.5" y="-74.5" font-family="Helvetica,sans-Serif" font-size="10.00">Control/InfrastructureGenerator.h</text>
</g>
<!-- Node2 -->
<g id="node2" class="node"><title>Node2</title>
<g id="a_node2"><a xlink:href="InfrastructureGenerator_8cxx.html" target="_top" xlink:title="Framework/src/Infrastructure\lGenerator.cxx">
<polygon fill="none" stroke="black" points="0,-0.5 0,-30.5 143,-30.5 143,-0.5 0,-0.5"/>
<text text-anchor="start" x="8" y="-18.5" font-family="Helvetica,sans-Serif" font-size="10.00">Framework/src/Infrastructure</text>
<text text-anchor="middle" x="71.5" y="-7.5" font-family="Helvetica,sans-Serif" font-size="10.00">Generator.cxx</text>
</a>
</g>
</g>
<!-- Node1&#45;&gt;Node2 -->
<g id="edge1" class="edge"><title>Node1&#45;&gt;Node2</title>
<path fill="none" stroke="midnightblue" d="M883.092,-79.4301C731.385,-75.1776 416.176,-63.0033 151.5,-31 148.838,-30.6781 146.13,-30.324 143.398,-29.9445"/>
<polygon fill="midnightblue" stroke="midnightblue" points="883.195,-82.9341 893.287,-79.7108 883.388,-75.9368 883.195,-82.9341"/>
</g>
<!-- Node3 -->
<g id="node3" class="node"><title>Node3</title>
<g id="a_node3"><a xlink:href="runAdvanced_8cxx.html" target="_top" xlink:title="This is an executable showing a more complicated QC topology. ">
<polygon fill="none" stroke="black" points="161,-6 161,-25 322,-25 322,-6 161,-6"/>
<text text-anchor="middle" x="241.5" y="-13" font-family="Helvetica,sans-Serif" font-size="10.00">Framework/src/runAdvanced.cxx</text>
</a>
</g>
</g>
<!-- Node1&#45;&gt;Node3 -->
<g id="edge2" class="edge"><title>Node1&#45;&gt;Node3</title>
<path fill="none" stroke="midnightblue" d="M883.235,-76.7181C758.78,-69.597 527.609,-54.4714 331.5,-31 317.986,-29.3825 303.394,-27.2154 289.975,-25.0505"/>
<polygon fill="midnightblue" stroke="midnightblue" points="883.293,-80.2269 893.475,-77.2997 883.69,-73.2382 883.293,-80.2269"/>
</g>
<!-- Node4 -->
<g id="node4" class="node"><title>Node4</title>
<g id="a_node4"><a xlink:href="runBasic_8cxx.html" target="_top" xlink:title="This is an executable showing QC Task&#39;s usage in Data Processing Layer. ">
<polygon fill="none" stroke="black" points="340.5,-6 340.5,-25 482.5,-25 482.5,-6 340.5,-6"/>
<text text-anchor="middle" x="411.5" y="-13" font-family="Helvetica,sans-Serif" font-size="10.00">Framework/src/runBasic.cxx</text>
</a>
</g>
</g>
<!-- Node1&#45;&gt;Node4 -->
<g id="edge3" class="edge"><title>Node1&#45;&gt;Node4</title>
<path fill="none" stroke="midnightblue" d="M883.037,-74.0595C785.987,-65.6019 627.455,-50.4152 491.5,-31 479.762,-29.3238 467.114,-27.1864 455.417,-25.071"/>
<polygon fill="midnightblue" stroke="midnightblue" points="882.841,-77.5555 893.106,-74.932 883.445,-70.5816 882.841,-77.5555"/>
</g>
<!-- Node5 -->
<g id="node5" class="node"><title>Node5</title>
<g id="a_node5"><a xlink:href="runQC_8cxx.html" target="_top" xlink:title="This is an executable which generates a QC topology given a configuration file. ">
<polygon fill="none" stroke="black" points="500.5,-6 500.5,-25 632.5,-25 632.5,-6 500.5,-6"/>
<text text-anchor="middle" x="566.5" y="-13" font-family="Helvetica,sans-Serif" font-size="10.00">Framework/src/runQC.cxx</text>
</a>
</g>
</g>
<!-- Node1&#45;&gt;Node5 -->
<g id="edge4" class="edge"><title>Node1&#45;&gt;Node5</title>
<path fill="none" stroke="midnightblue" d="M883.106,-68.7477C816.259,-59.0748 723.06,-45.0813 641.5,-31 630.914,-29.1724 619.519,-27.0497 608.886,-25.0016"/>
<polygon fill="midnightblue" stroke="midnightblue" points="882.79,-72.2383 893.188,-70.2026 883.79,-65.3101 882.79,-72.2383"/>
</g>
<!-- Node6 -->
<g id="node6" class="node"><title>Node6</title>
<g id="a_node6"><a xlink:href="testCheckWorkflow_8cxx.html" target="_top" xlink:title="Framework/test/testCheck\lWorkflow.cxx">
<polygon fill="none" stroke="black" points="651,-0.5 651,-30.5 784,-30.5 784,-0.5 651,-0.5"/>
<text text-anchor="start" x="659" y="-18.5" font-family="Helvetica,sans-Serif" font-size="10.00">Framework/test/testCheck</text>
<text text-anchor="middle" x="717.5" y="-7.5" font-family="Helvetica,sans-Serif" font-size="10.00">Workflow.cxx</text>
</a>
</g>
</g>
<!-- Node1&#45;&gt;Node6 -->
<g id="edge5" class="edge"><title>Node1&#45;&gt;Node6</title>
<path fill="none" stroke="midnightblue" d="M908.454,-64.9844C866.639,-54.3674 812.89,-40.7201 773.075,-30.6109"/>
<polygon fill="midnightblue" stroke="midnightblue" points="907.713,-68.4073 918.267,-67.476 909.436,-61.6226 907.713,-68.4073"/>
</g>
<!-- Node7 -->
<g id="node7" class="node"><title>Node7</title>
<g id="a_node7"><a xlink:href="testInfrastructureGenerator_8cxx.html" target="_top" xlink:title="Framework/test/testInfrastructure\lGenerator.cxx">
<polygon fill="none" stroke="black" points="802.5,-0.5 802.5,-30.5 964.5,-30.5 964.5,-0.5 802.5,-0.5"/>
<text text-anchor="start" x="810.5" y="-18.5" font-family="Helvetica,sans-Serif" font-size="10.00">Framework/test/testInfrastructure</text>
<text text-anchor="middle" x="883.5" y="-7.5" font-family="Helvetica,sans-Serif" font-size="10.00">Generator.cxx</text>
</a>
</g>
</g>
<!-- Node1&#45;&gt;Node7 -->
<g id="edge6" class="edge"><title>Node1&#45;&gt;Node7</title>
<path fill="none" stroke="midnightblue" d="M945.74,-61.4511C931.895,-51.4517 915.484,-39.5995 902.991,-30.5765"/>
<polygon fill="midnightblue" stroke="midnightblue" points="943.815,-64.3784 953.971,-67.396 947.914,-58.7036 943.815,-64.3784"/>
</g>
<!-- Node8 -->
<g id="node8" class="node"><title>Node8</title>
<g id="a_node8"><a xlink:href="testWorkflow_8cxx.html" target="_top" xlink:title="Framework/test/testWorkflow.cxx">
<polygon fill="none" stroke="black" points="982.5,-6 982.5,-25 1146.5,-25 1146.5,-6 982.5,-6"/>
<text text-anchor="middle" x="1064.5" y="-13" font-family="Helvetica,sans-Serif" font-size="10.00">Framework/test/testWorkflow.cxx</text>
</a>
</g>
</g>
<!-- Node1&#45;&gt;Node8 -->
<g id="edge7" class="edge"><title>Node1&#45;&gt;Node8</title>
<path fill="none" stroke="midnightblue" d="M1001.77,-61.3056C1018.86,-49.0999 1039.75,-34.1772 1052.59,-25.007"/>
<polygon fill="midnightblue" stroke="midnightblue" points="999.349,-58.7355 993.246,-67.396 1003.42,-64.4316 999.349,-58.7355"/>
</g>
<!-- Node9 -->
<g id="node9" class="node"><title>Node9</title>
<polygon fill="none" stroke="#bfbfbf" points="1164.5,-6 1164.5,-25 1382.5,-25 1382.5,-6 1164.5,-6"/>
<text text-anchor="middle" x="1273.5" y="-13" font-family="Helvetica,sans-Serif" font-size="10.00">Modules/EMCAL/src/runQCEMCALDigits.cxx</text>
</g>
<!-- Node1&#45;&gt;Node9 -->
<g id="edge8" class="edge"><title>Node1&#45;&gt;Node9</title>
<path fill="none" stroke="midnightblue" d="M1048.23,-65.3074C1107.17,-52.5371 1187.04,-35.2327 1234.14,-25.0287"/>
<polygon fill="midnightblue" stroke="midnightblue" points="1047.26,-61.9378 1038.23,-67.476 1048.74,-68.779 1047.26,-61.9378"/>
</g>
<!-- Node10 -->
<g id="node10" class="node"><title>Node10</title>
<g id="a_node10"><a xlink:href="runITS_8cxx.html" target="_top" xlink:title="Modules/ITS/src/runITS.cxx">
<polygon fill="none" stroke="black" points="1400.5,-6 1400.5,-25 1540.5,-25 1540.5,-6 1400.5,-6"/>
<text text-anchor="middle" x="1470.5" y="-13" font-family="Helvetica,sans-Serif" font-size="10.00">Modules/ITS/src/runITS.cxx</text>
</a>
</g>
</g>
<!-- Node1&#45;&gt;Node10 -->
<g id="edge9" class="edge"><title>Node1&#45;&gt;Node10</title>
<path fill="none" stroke="midnightblue" d="M1063.94,-72.1913C1148.75,-63.0797 1279,-48.1035 1391.5,-31 1402.94,-29.2604 1415.27,-27.1246 1426.7,-25.0324"/>
<polygon fill="midnightblue" stroke="midnightblue" points="1063.4,-68.7293 1053.83,-73.2732 1064.15,-75.6896 1063.4,-68.7293"/>
</g>
<!-- Node11 -->
<g id="node11" class="node"><title>Node11</title>
<g id="a_node11"><a xlink:href="runMID_8cxx.html" target="_top" xlink:title="This is an executable to run the MID QC Task (see the ITS code). ">
<polygon fill="none" stroke="black" points="1558.5,-6 1558.5,-25 1704.5,-25 1704.5,-6 1558.5,-6"/>
<text text-anchor="middle" x="1631.5" y="-13" font-family="Helvetica,sans-Serif" font-size="10.00">Modules/MID/src/runMID.cxx</text>
</a>
</g>
</g>
<!-- Node1&#45;&gt;Node11 -->
<g id="edge10" class="edge"><title>Node1&#45;&gt;Node11</title>
<path fill="none" stroke="midnightblue" d="M1063.93,-76.0305C1177.58,-68.5914 1378.51,-53.5697 1549.5,-31 1561.83,-29.373 1575.12,-27.2028 1587.35,-25.0379"/>
<polygon fill="midnightblue" stroke="midnightblue" points="1063.63,-72.5423 1053.88,-76.6833 1064.08,-79.5276 1063.63,-72.5423"/>
</g>
<!-- Node12 -->
<g id="node12" class="node"><title>Node12</title>
<polygon fill="none" stroke="#bfbfbf" points="1722.5,-6 1722.5,-25 1928.5,-25 1928.5,-6 1722.5,-6"/>
<text text-anchor="middle" x="1825.5" y="-13" font-family="Helvetica,sans-Serif" font-size="10.00">Modules/PHOS/src/runQCPHOSDigits.cxx</text>
</g>
<!-- Node1&#45;&gt;Node12 -->
<g id="edge11" class="edge"><title>Node1&#45;&gt;Node12</title>
<path fill="none" stroke="midnightblue" d="M1063.79,-77.1061C1203.33,-69.9164 1479.71,-54.0891 1713.5,-31 1730.18,-29.3524 1748.21,-27.1879 1764.83,-25.0356"/>
<polygon fill="midnightblue" stroke="midnightblue" points="1063.38,-73.6223 1053.57,-77.6296 1063.74,-80.6132 1063.38,-73.6223"/>
</g>
<!-- Node13 -->
<g id="node13" class="node"><title>Node13</title>
<polygon fill="none" stroke="#bfbfbf" points="1946.5,-0.5 1946.5,-30.5 2116.5,-30.5 2116.5,-0.5 1946.5,-0.5"/>
<text text-anchor="start" x="1954.5" y="-18.5" font-family="Helvetica,sans-Serif" font-size="10.00">Modules/TPC/run/runTPCQCTrack</text>
<text text-anchor="middle" x="2031.5" y="-7.5" font-family="Helvetica,sans-Serif" font-size="10.00">Reader.cxx</text>
</g>
<!-- Node1&#45;&gt;Node13 -->
<g id="edge12" class="edge"><title>Node1&#45;&gt;Node13</title>
<path fill="none" stroke="midnightblue" d="M1063.91,-79.7989C1234.91,-75.9087 1617.29,-63.9991 1937.5,-31 1940.46,-30.6953 1943.46,-30.3618 1946.5,-30.005"/>
<polygon fill="midnightblue" stroke="midnightblue" points="1063.61,-76.3045 1053.69,-80.0274 1063.77,-83.3027 1063.61,-76.3045"/>
</g>
</g>
</svg>
        <g id="navigator" transform="translate(0 0)" fill="#404254">
                <rect fill="#f2f5e9" fill-opacity="0.5" stroke="#606060" stroke-width=".5" x="0" y="0" width="60" height="60"/>
                <use id="zoomplus" xlink:href="#zoomPlus" x="17" y="9" onmousedown="handleZoom(evt,'in')"/>
                <use id="zoomminus" xlink:href="#zoomMin" x="42" y="9" onmousedown="handleZoom(evt,'out')"/>
                <use id="reset" xlink:href="#resetDef" x="30" y="36" onmousedown="handleReset()"/>
                <g id="arrowUp" xlink:href="#dirArrow" transform="translate(30 24)" onmousedown="handlePan(0,-1)">
                  <use xlink:href="#rim" fill="#404040">
                        <set attributeName="fill" to="#808080" begin="arrowUp.mouseover" end="arrowUp.mouseout"/>
                  </use>
                  <path fill="none" stroke="white" stroke-width="1.5" d="M0,-3.0v7 M-2.5,-0.5L0,-3.0L2.5,-0.5"/>
                </g>
                <g id="arrowRight" xlink:href="#dirArrow" transform="rotate(90) translate(36 -43)" onmousedown="handlePan(1,0)">
                  <use xlink:href="#rim" fill="#404040">
                        <set attributeName="fill" to="#808080" begin="arrowRight.mouseover" end="arrowRight.mouseout"/>
                  </use>
                  <path fill="none" stroke="white" stroke-width="1.5" d="M0,-3.0v7 M-2.5,-0.5L0,-3.0L2.5,-0.5"/>
                </g>
                <g id="arrowDown" xlink:href="#dirArrow" transform="rotate(180) translate(-30 -48)" onmousedown="handlePan(0,1)">
                  <use xlink:href="#rim" fill="#404040">
                        <set attributeName="fill" to="#808080" begin="arrowDown.mouseover" end="arrowDown.mouseout"/>
                  </use>
                  <path fill="none" stroke="white" stroke-width="1.5" d="M0,-3.0v7 M-2.5,-0.5L0,-3.0L2.5,-0.5"/>
                </g>
                <g id="arrowLeft" xlink:href="#dirArrow" transform="rotate(270) translate(-36 17)" onmousedown="handlePan(-1,0)">
                  <use xlink:href="#rim" fill="#404040">
                        <set attributeName="fill" to="#808080" begin="arrowLeft.mouseover" end="arrowLeft.mouseout"/>
                  </use>
                  <path fill="none" stroke="white" stroke-width="1.5" d="M0,-3.0v7 M-2.5,-0.5L0,-3.0L2.5,-0.5"/>
                </g>
        </g>
        <svg viewBox="0 0 15 15" width="100%" height="30px" preserveAspectRatio="xMaxYMin meet">
         <g id="arrow_out" transform="scale(0.3 0.3)">
          <a xlink:href="InfrastructureGenerator_8h__dep__incl_org.svg" target="_base">
           <rect id="button" ry="5" rx="5" y="6" x="6" height="38" width="38"
                fill="#f2f5e9" fill-opacity="0.5" stroke="#606060" stroke-width="1.0"/>
           <path id="arrow"
             d="M 11.500037,31.436501 C 11.940474,20.09759 22.043105,11.32322 32.158766,21.979434 L 37.068811,17.246167 C 37.068811,17.246167 37.088388,32 37.088388,32 L 22.160133,31.978069 C 22.160133,31.978069 26.997745,27.140456 26.997745,27.140456 C 18.528582,18.264221 13.291696,25.230495 11.500037,31.436501 z"
             style="fill:#404040;"/>
          </a>
         </g>
        </svg>
</svg>
