<?xml version="1.0" encoding="UTF-8" standalone="no"?>
<!DOCTYPE svg PUBLIC "-//W3C//DTD SVG 1.1//EN"
 "http://www.w3.org/Graphics/SVG/1.1/DTD/svg11.dtd">
<!-- Generated by graphviz version 2.38.0 (20140413.2041)
 -->
<!-- Title: Framework/include/QualityControl/InfrastructureGenerator.h Pages: 1 -->
<svg width="452pt" height="95pt"
 viewBox="0.00 0.00 452.00 95.00" xmlns="http://www.w3.org/2000/svg" xmlns:xlink="http://www.w3.org/1999/xlink">
<g id="graph0" class="graph" transform="scale(1 1) rotate(0) translate(4 91)">
<title>Framework/include/QualityControl/InfrastructureGenerator.h</title>
<!-- Node1 -->
<g id="node1" class="node"><title>Node1</title>
<polygon fill="#bfbfbf" stroke="black" points="57,-56.5 57,-86.5 217,-86.5 217,-56.5 57,-56.5"/>
<text text-anchor="start" x="65" y="-74.5" font-family="Helvetica,sans-Serif" font-size="10.00">Framework/include/Quality</text>
<text text-anchor="middle" x="137" y="-63.5" font-family="Helvetica,sans-Serif" font-size="10.00">Control/InfrastructureGenerator.h</text>
</g>
<!-- Node2 -->
<g id="node2" class="node"><title>Node2</title>
<polygon fill="none" stroke="#bfbfbf" points="0,-0.5 0,-19.5 44,-19.5 44,-0.5 0,-0.5"/>
<text text-anchor="middle" x="22" y="-7.5" font-family="Helvetica,sans-Serif" font-size="10.00">vector</text>
</g>
<!-- Node1&#45;&gt;Node2 -->
<g id="edge1" class="edge"><title>Node1&#45;&gt;Node2</title>
<path fill="none" stroke="midnightblue" d="M109.747,-56.3993C90.9684,-46.6837 66.1736,-33.8551 47.7324,-24.3137"/>
<polygon fill="midnightblue" stroke="midnightblue" points="49.2235,-21.1445 38.7335,-19.6578 46.0068,-27.3617 49.2235,-21.1445"/>
</g>
<!-- Node3 -->
<g id="node3" class="node"><title>Node3</title>
<polygon fill="none" stroke="#bfbfbf" points="62.5,-0.5 62.5,-19.5 103.5,-19.5 103.5,-0.5 62.5,-0.5"/>
<text text-anchor="middle" x="83" y="-7.5" font-family="Helvetica,sans-Serif" font-size="10.00">string</text>
</g>
<!-- Node1&#45;&gt;Node3 -->
<g id="edge2" class="edge"><title>Node1&#45;&gt;Node3</title>
<path fill="none" stroke="midnightblue" d="M124.203,-56.3993C116.275,-47.6641 106.064,-36.4126 97.7899,-27.2962"/>
<polygon fill="midnightblue" stroke="midnightblue" points="100.17,-24.7106 90.8575,-19.6578 94.9863,-29.415 100.17,-24.7106"/>
</g>
<!-- Node4 -->
<g id="node4" class="node"><title>Node4</title>
<polygon fill="none" stroke="#bfbfbf" points="122,-0.5 122,-19.5 262,-19.5 262,-0.5 122,-0.5"/>
<text text-anchor="middle" x="192" y="-7.5" font-family="Helvetica,sans-Serif" font-size="10.00">Framework/WorkflowSpec.h</text>
</g>
<!-- Node1&#45;&gt;Node4 -->
<g id="edge3" class="edge"><title>Node1&#45;&gt;Node4</title>
<path fill="none" stroke="midnightblue" d="M150.034,-56.3993C158.191,-47.575 168.722,-36.1827 177.194,-27.0178"/>
<polygon fill="midnightblue" stroke="midnightblue" points="179.779,-29.3769 183.997,-19.6578 174.639,-24.6253 179.779,-29.3769"/>
</g>
<!-- Node5 -->
<g id="node5" class="node"><title>Node5</title>
<polygon fill="none" stroke="#bfbfbf" points="280,-0.5 280,-19.5 444,-19.5 444,-0.5 280,-0.5"/>
<text text-anchor="middle" x="362" y="-7.5" font-family="Helvetica,sans-Serif" font-size="10.00">Framework/DataProcessorSpec.h</text>
</g>
<!-- Node1&#45;&gt;Node5 -->
<g id="edge4" class="edge"><title>Node1&#45;&gt;Node5</title>
<path fill="none" stroke="midnightblue" d="M190.037,-56.4747C229.702,-45.9856 283.206,-31.8367 319.942,-22.1221"/>
<polygon fill="midnightblue" stroke="midnightblue" points="321.06,-25.4467 329.833,-19.5064 319.271,-18.6793 321.06,-25.4467"/>
</g>
</g>
</svg>
