<?xml version="1.0" encoding="UTF-8" standalone="no"?>
<!DOCTYPE svg PUBLIC "-//W3C//DTD SVG 1.1//EN"
 "http://www.w3.org/Graphics/SVG/1.1/DTD/svg11.dtd">
<!-- Generated by graphviz version 2.38.0 (20140413.2041)
 -->
<!-- Title: Graphical Class Hierarchy Pages: 1 -->
<svg width="361pt" height="1435pt"
 viewBox="0.00 0.00 361.00 1434.50" xmlns="http://www.w3.org/2000/svg" xmlns:xlink="http://www.w3.org/1999/xlink">
<g id="graph0" class="graph" transform="scale(1 1) rotate(0) translate(4 1430.5)">
<title>Graphical Class Hierarchy</title>
<!-- Node1 -->
<g id="node1" class="node"><title>Node1</title>
<g id="a_node1"><a xlink:href="classo2_1_1quality__control_1_1checker_1_1CheckInterface.html" target="_top" xlink:title="Skeleton of a check. ">
<polygon fill="none" stroke="black" points="0,-695 0,-725 130,-725 130,-695 0,-695"/>
<text text-anchor="start" x="8" y="-713" font-family="Helvetica,sans-Serif" font-size="10.00">o2::quality_control</text>
<text text-anchor="middle" x="65" y="-702" font-family="Helvetica,sans-Serif" font-size="10.00">::checker::CheckInterface</text>
</a>
</g>
</g>
<!-- Node2 -->
<g id="node2" class="node"><title>Node2</title>
<g id="a_node2"><a xlink:href="classo2_1_1quality__control_1_1test_1_1TestCheck.html" target="_top" xlink:title="o2::quality_control\l::test::TestCheck">
<polygon fill="none" stroke="black" points="211.5,-1396 211.5,-1426 307.5,-1426 307.5,-1396 211.5,-1396"/>
<text text-anchor="start" x="219.5" y="-1414" font-family="Helvetica,sans-Serif" font-size="10.00">o2::quality_control</text>
<text text-anchor="middle" x="259.5" y="-1403" font-family="Helvetica,sans-Serif" font-size="10.00">::test::TestCheck</text>
</a>
</g>
</g>
<!-- Node1&#45;&gt;Node2 -->
<g id="edge1" class="edge"><title>Node1&#45;&gt;Node2</title>
<path fill="none" stroke="midnightblue" d="M66.1389,-735.44C67.2683,-846.575 77.3499,-1288.3 166,-1387 177.419,-1399.71 194.623,-1406.08 211.108,-1409.15"/>
<polygon fill="midnightblue" stroke="midnightblue" points="69.6367,-735.157 66.0514,-725.187 62.6369,-735.217 69.6367,-735.157"/>
</g>
<!-- Node3 -->
<g id="node3" class="node"><title>Node3</title>
<g id="a_node3"><a xlink:href="classo2_1_1quality__control__modules_1_1common_1_1EverIncreasingGraph.html" target="_top" xlink:title="Check whether a plot is empty or not. ">
<polygon fill="none" stroke="black" points="173,-1336.5 173,-1377.5 346,-1377.5 346,-1336.5 173,-1336.5"/>
<text text-anchor="start" x="181" y="-1365.5" font-family="Helvetica,sans-Serif" font-size="10.00">o2::quality_control</text>
<text text-anchor="start" x="181" y="-1354.5" font-family="Helvetica,sans-Serif" font-size="10.00">_modules::common::EverIncreasing</text>
<text text-anchor="middle" x="259.5" y="-1343.5" font-family="Helvetica,sans-Serif" font-size="10.00">Graph</text>
</a>
</g>
</g>
<!-- Node1&#45;&gt;Node3 -->
<g id="edge2" class="edge"><title>Node1&#45;&gt;Node3</title>
<path fill="none" stroke="midnightblue" d="M66.6581,-735.443C69.871,-840.202 87.1389,-1236.94 166,-1328 168.644,-1331.05 171.606,-1333.79 174.801,-1336.24"/>
<polygon fill="midnightblue" stroke="midnightblue" points="70.149,-735.078 66.3605,-725.184 63.152,-735.281 70.149,-735.078"/>
</g>
<!-- Node4 -->
<g id="node4" class="node"><title>Node4</title>
<g id="a_node4"><a xlink:href="classo2_1_1quality__control__modules_1_1common_1_1MeanIsAbove.html" target="_top" xlink:title="Check whether the mean of the plot is above a certain limit. ">
<polygon fill="none" stroke="black" points="175.5,-1288 175.5,-1318 343.5,-1318 343.5,-1288 175.5,-1288"/>
<text text-anchor="start" x="183.5" y="-1306" font-family="Helvetica,sans-Serif" font-size="10.00">o2::quality_control</text>
<text text-anchor="middle" x="259.5" y="-1295" font-family="Helvetica,sans-Serif" font-size="10.00">_modules::common::MeanIsAbove</text>
</a>
</g>
</g>
<!-- Node1&#45;&gt;Node4 -->
<g id="edge3" class="edge"><title>Node1&#45;&gt;Node4</title>
<path fill="none" stroke="midnightblue" d="M66.9094,-735.124C71.0116,-834.383 90.9988,-1197.75 166,-1279 169.151,-1282.41 172.719,-1285.37 176.576,-1287.92"/>
<polygon fill="midnightblue" stroke="midnightblue" points="70.4056,-734.957 66.513,-725.104 63.4111,-735.234 70.4056,-734.957"/>
</g>
<!-- Node5 -->
<g id="node5" class="node"><title>Node5</title>
<g id="a_node5"><a xlink:href="classo2_1_1quality__control__modules_1_1common_1_1NonEmpty.html" target="_top" xlink:title="Check whether a plot is empty or not. ">
<polygon fill="none" stroke="black" points="182,-1239 182,-1269 337,-1269 337,-1239 182,-1239"/>
<text text-anchor="start" x="190" y="-1257" font-family="Helvetica,sans-Serif" font-size="10.00">o2::quality_control</text>
<text text-anchor="middle" x="259.5" y="-1246" font-family="Helvetica,sans-Serif" font-size="10.00">_modules::common::NonEmpty</text>
</a>
</g>
</g>
<!-- Node1&#45;&gt;Node5 -->
<g id="edge4" class="edge"><title>Node1&#45;&gt;Node5</title>
<path fill="none" stroke="midnightblue" d="M67.3595,-735.057C72.9454,-828.721 97.1797,-1156.64 166,-1230 170.54,-1234.84 175.92,-1238.75 181.766,-1241.91"/>
<polygon fill="midnightblue" stroke="midnightblue" points="70.8531,-734.845 66.782,-725.064 63.8648,-735.249 70.8531,-734.845"/>
</g>
<!-- Node6 -->
<g id="node6" class="node"><title>Node6</title>
<g id="a_node6"><a xlink:href="classo2_1_1quality__control__modules_1_1emcal_1_1DigitCheck.html" target="_top" xlink:title="Check whether a plot is empty or not. ">
<polygon fill="none" stroke="black" points="186.5,-1190 186.5,-1220 332.5,-1220 332.5,-1190 186.5,-1190"/>
<text text-anchor="start" x="194.5" y="-1208" font-family="Helvetica,sans-Serif" font-size="10.00">o2::quality_control</text>
<text text-anchor="middle" x="259.5" y="-1197" font-family="Helvetica,sans-Serif" font-size="10.00">_modules::emcal::DigitCheck</text>
</a>
</g>
</g>
<!-- Node1&#45;&gt;Node6 -->
<g id="edge5" class="edge"><title>Node1&#45;&gt;Node6</title>
<path fill="none" stroke="midnightblue" d="M67.9176,-735.227C75.1185,-823.332 103.392,-1115.53 166,-1181 171.733,-1187 178.756,-1191.56 186.345,-1195.04"/>
<polygon fill="midnightblue" stroke="midnightblue" points="71.3921,-734.766 67.1083,-725.076 64.4143,-735.323 71.3921,-734.766"/>
</g>
<!-- Node7 -->
<g id="node7" class="node"><title>Node7</title>
<g id="a_node7"><a xlink:href="classo2_1_1quality__control__modules_1_1emcal_1_1RawCheck.html" target="_top" xlink:title="EMCAL raw data check It is final because there is no reason to derive from it. Just remove it if need...">
<polygon fill="none" stroke="black" points="186.5,-1141 186.5,-1171 332.5,-1171 332.5,-1141 186.5,-1141"/>
<text text-anchor="start" x="194.5" y="-1159" font-family="Helvetica,sans-Serif" font-size="10.00">o2::quality_control</text>
<text text-anchor="middle" x="259.5" y="-1148" font-family="Helvetica,sans-Serif" font-size="10.00">_modules::emcal::RawCheck</text>
</a>
</g>
</g>
<!-- Node1&#45;&gt;Node7 -->
<g id="edge6" class="edge"><title>Node1&#45;&gt;Node7</title>
<path fill="none" stroke="midnightblue" d="M68.5937,-735.268C77.5155,-817.322 109.541,-1074.33 166,-1132 171.803,-1137.93 178.868,-1142.46 186.481,-1145.9"/>
<polygon fill="midnightblue" stroke="midnightblue" points="72.0723,-734.881 67.5315,-725.308 65.1117,-735.623 72.0723,-734.881"/>
</g>
<!-- Node8 -->
<g id="node8" class="node"><title>Node8</title>
<g id="a_node8"><a xlink:href="classo2_1_1quality__control__modules_1_1example_1_1FakeCheck.html" target="_top" xlink:title="Check whether a plot is empty or not. ">
<polygon fill="none" stroke="black" points="180.5,-1092 180.5,-1122 338.5,-1122 338.5,-1092 180.5,-1092"/>
<text text-anchor="start" x="188.5" y="-1110" font-family="Helvetica,sans-Serif" font-size="10.00">o2::quality_control</text>
<text text-anchor="middle" x="259.5" y="-1099" font-family="Helvetica,sans-Serif" font-size="10.00">_modules::example::FakeCheck</text>
</a>
</g>
</g>
<!-- Node1&#45;&gt;Node8 -->
<g id="edge7" class="edge"><title>Node1&#45;&gt;Node8</title>
<path fill="none" stroke="midnightblue" d="M69.4372,-735.267C80.2133,-810.85 115.643,-1033.05 166,-1083 170.24,-1087.21 175.117,-1090.7 180.368,-1093.61"/>
<polygon fill="midnightblue" stroke="midnightblue" points="72.8828,-734.634 68.0274,-725.217 65.9507,-735.607 72.8828,-734.634"/>
</g>
<!-- Node9 -->
<g id="node9" class="node"><title>Node9</title>
<g id="a_node9"><a xlink:href="classo2_1_1quality__control__modules_1_1ft0_1_1ChannelsCheck.html" target="_top" xlink:title="o2::quality_control\l_modules::ft0::ChannelsCheck">
<polygon fill="none" stroke="black" points="183.5,-1043 183.5,-1073 335.5,-1073 335.5,-1043 183.5,-1043"/>
<text text-anchor="start" x="191.5" y="-1061" font-family="Helvetica,sans-Serif" font-size="10.00">o2::quality_control</text>
<text text-anchor="middle" x="259.5" y="-1050" font-family="Helvetica,sans-Serif" font-size="10.00">_modules::ft0::ChannelsCheck</text>
</a>
</g>
</g>
<!-- Node1&#45;&gt;Node9 -->
<g id="edge8" class="edge"><title>Node1&#45;&gt;Node9</title>
<path fill="none" stroke="midnightblue" d="M65.9764,-735.41C67.3597,-796.28 79.6524,-951.495 166,-1034 171.038,-1038.81 176.913,-1042.69 183.214,-1045.82"/>
<polygon fill="midnightblue" stroke="midnightblue" points="69.4728,-735.13 65.8296,-725.181 62.4735,-735.23 69.4728,-735.13"/>
</g>
<!-- Node10 -->
<g id="node10" class="node"><title>Node10</title>
<g id="a_node10"><a xlink:href="classo2_1_1quality__control__modules_1_1ft0_1_1DigitsCheck.html" target="_top" xlink:title="o2::quality_control\l_modules::ft0::DigitsCheck">
<polygon fill="none" stroke="black" points="191.5,-994 191.5,-1024 327.5,-1024 327.5,-994 191.5,-994"/>
<text text-anchor="start" x="199.5" y="-1012" font-family="Helvetica,sans-Serif" font-size="10.00">o2::quality_control</text>
<text text-anchor="middle" x="259.5" y="-1001" font-family="Helvetica,sans-Serif" font-size="10.00">_modules::ft0::DigitsCheck</text>
</a>
</g>
</g>
<!-- Node1&#45;&gt;Node10 -->
<g id="edge9" class="edge"><title>Node1&#45;&gt;Node10</title>
<path fill="none" stroke="midnightblue" d="M67.5887,-735.255C72.3932,-789.397 91.4539,-917.213 166,-985 173.242,-991.585 182.059,-996.41 191.341,-999.936"/>
<polygon fill="midnightblue" stroke="midnightblue" points="71.0675,-734.848 66.7852,-725.157 64.0895,-735.404 71.0675,-734.848"/>
</g>
<!-- Node11 -->
<g id="node11" class="node"><title>Node11</title>
<g id="a_node11"><a xlink:href="classo2_1_1quality__control__modules_1_1ft0_1_1MergedTreeCheck.html" target="_top" xlink:title="o2::quality_control\l_modules::ft0::MergedTreeCheck">
<polygon fill="none" stroke="black" points="178.5,-945 178.5,-975 340.5,-975 340.5,-945 178.5,-945"/>
<text text-anchor="start" x="186.5" y="-963" font-family="Helvetica,sans-Serif" font-size="10.00">o2::quality_control</text>
<text text-anchor="middle" x="259.5" y="-952" font-family="Helvetica,sans-Serif" font-size="10.00">_modules::ft0::MergedTreeCheck</text>
</a>
</g>
</g>
<!-- Node1&#45;&gt;Node11 -->
<g id="edge10" class="edge"><title>Node1&#45;&gt;Node11</title>
<path fill="none" stroke="midnightblue" d="M69.7848,-734.945C78.2237,-781.684 103.043,-882.536 166,-936 170.047,-939.437 174.527,-942.389 179.269,-944.925"/>
<polygon fill="midnightblue" stroke="midnightblue" points="73.2299,-734.327 68.1007,-725.056 66.3293,-735.502 73.2299,-734.327"/>
</g>
<!-- Node12 -->
<g id="node12" class="node"><title>Node12</title>
<g id="a_node12"><a xlink:href="classo2_1_1quality__control__modules_1_1its_1_1ITSFhrCheck.html" target="_top" xlink:title="Check the sensor occupancy and raw data formatting errors. ">
<polygon fill="none" stroke="black" points="189.5,-896 189.5,-926 329.5,-926 329.5,-896 189.5,-896"/>
<text text-anchor="start" x="197.5" y="-914" font-family="Helvetica,sans-Serif" font-size="10.00">o2::quality_control</text>
<text text-anchor="middle" x="259.5" y="-903" font-family="Helvetica,sans-Serif" font-size="10.00">_modules::its::ITSFhrCheck</text>
</a>
</g>
</g>
<!-- Node1&#45;&gt;Node12 -->
<g id="edge11" class="edge"><title>Node1&#45;&gt;Node12</title>
<path fill="none" stroke="midnightblue" d="M73.1162,-734.909C85.4611,-773.524 114.583,-847.489 166,-887 172.972,-892.358 181.022,-896.526 189.405,-899.767"/>
<polygon fill="midnightblue" stroke="midnightblue" points="76.3582,-733.544 70.0746,-725.014 69.6672,-735.601 76.3582,-733.544"/>
</g>
<!-- Node13 -->
<g id="node13" class="node"><title>Node13</title>
<g id="a_node13"><a xlink:href="classo2_1_1quality__control__modules_1_1mft_1_1BasicClusterQcCheck.html" target="_top" xlink:title="MFT Cluster Check. ">
<polygon fill="none" stroke="black" points="189,-836.5 189,-877.5 330,-877.5 330,-836.5 189,-836.5"/>
<text text-anchor="start" x="197" y="-865.5" font-family="Helvetica,sans-Serif" font-size="10.00">o2::quality_control</text>
<text text-anchor="start" x="197" y="-854.5" font-family="Helvetica,sans-Serif" font-size="10.00">_modules::mft::BasicCluster</text>
<text text-anchor="middle" x="259.5" y="-843.5" font-family="Helvetica,sans-Serif" font-size="10.00">QcCheck</text>
</a>
</g>
</g>
<!-- Node1&#45;&gt;Node13 -->
<g id="edge12" class="edge"><title>Node1&#45;&gt;Node13</title>
<path fill="none" stroke="midnightblue" d="M80.5898,-733.901C97.8696,-760.296 129.023,-802.317 166,-827 173.021,-831.687 180.828,-835.687 188.846,-839.09"/>
<polygon fill="midnightblue" stroke="midnightblue" points="83.4062,-731.808 75.0694,-725.27 77.5093,-735.58 83.4062,-731.808"/>
</g>
<!-- Node14 -->
<g id="node14" class="node"><title>Node14</title>
<g id="a_node14"><a xlink:href="classo2_1_1quality__control__modules_1_1mft_1_1BasicDigitQcCheck.html" target="_top" xlink:title="MFT Digit Check. ">
<polygon fill="none" stroke="black" points="188,-776.5 188,-817.5 331,-817.5 331,-776.5 188,-776.5"/>
<text text-anchor="start" x="196" y="-805.5" font-family="Helvetica,sans-Serif" font-size="10.00">o2::quality_control</text>
<text text-anchor="start" x="196" y="-794.5" font-family="Helvetica,sans-Serif" font-size="10.00">_modules::mft::BasicDigitQc</text>
<text text-anchor="middle" x="259.5" y="-783.5" font-family="Helvetica,sans-Serif" font-size="10.00">Check</text>
</a>
</g>
</g>
<!-- Node1&#45;&gt;Node14 -->
<g id="edge13" class="edge"><title>Node1&#45;&gt;Node14</title>
<path fill="none" stroke="midnightblue" d="M98.1691,-730.579C117.355,-742.277 142.486,-756.616 166,-767 173.567,-770.342 181.627,-773.503 189.713,-776.431"/>
<polygon fill="midnightblue" stroke="midnightblue" points="99.8783,-727.521 89.5306,-725.245 96.201,-733.477 99.8783,-727.521"/>
</g>
<!-- Node15 -->
<g id="node15" class="node"><title>Node15</title>
<g id="a_node15"><a xlink:href="classo2_1_1quality__control__modules_1_1mft_1_1BasicTrackQcCheck.html" target="_top" xlink:title="MFT Track Check. ">
<polygon fill="none" stroke="black" points="186,-716.5 186,-757.5 333,-757.5 333,-716.5 186,-716.5"/>
<text text-anchor="start" x="194" y="-745.5" font-family="Helvetica,sans-Serif" font-size="10.00">o2::quality_control</text>
<text text-anchor="start" x="194" y="-734.5" font-family="Helvetica,sans-Serif" font-size="10.00">_modules::mft::BasicTrackQc</text>
<text text-anchor="middle" x="259.5" y="-723.5" font-family="Helvetica,sans-Serif" font-size="10.00">Check</text>
</a>
</g>
</g>
<!-- Node1&#45;&gt;Node15 -->
<g id="edge14" class="edge"><title>Node1&#45;&gt;Node15</title>
<path fill="none" stroke="midnightblue" d="M140.284,-720.419C155.194,-722.51 170.846,-724.706 185.705,-726.79"/>
<polygon fill="midnightblue" stroke="midnightblue" points="140.489,-716.914 130.1,-718.991 139.517,-723.846 140.489,-716.914"/>
</g>
<!-- Node16 -->
<g id="node16" class="node"><title>Node16</title>
<g id="a_node16"><a xlink:href="classo2_1_1quality__control__modules_1_1mid_1_1RawQcCheck.html" target="_top" xlink:title="Count number of digits per detector elements. ">
<polygon fill="none" stroke="black" points="185.5,-668 185.5,-698 333.5,-698 333.5,-668 185.5,-668"/>
<text text-anchor="start" x="193.5" y="-686" font-family="Helvetica,sans-Serif" font-size="10.00">o2::quality_control</text>
<text text-anchor="middle" x="259.5" y="-675" font-family="Helvetica,sans-Serif" font-size="10.00">_modules::mid::RawQcCheck</text>
</a>
</g>
</g>
<!-- Node1&#45;&gt;Node16 -->
<g id="edge15" class="edge"><title>Node1&#45;&gt;Node16</title>
<path fill="none" stroke="midnightblue" d="M140.221,-699.59C155.037,-697.512 170.589,-695.33 185.368,-693.257"/>
<polygon fill="midnightblue" stroke="midnightblue" points="139.517,-696.154 130.1,-701.009 140.489,-703.086 139.517,-696.154"/>
</g>
<!-- Node17 -->
<g id="node17" class="node"><title>Node17</title>
<g id="a_node17"><a xlink:href="classo2_1_1quality__control__modules_1_1muonchambers_1_1PedestalsCheck.html" target="_top" xlink:title="Check whether a plot is empty or not. ">
<polygon fill="none" stroke="black" points="194,-608.5 194,-649.5 325,-649.5 325,-608.5 194,-608.5"/>
<text text-anchor="start" x="202" y="-637.5" font-family="Helvetica,sans-Serif" font-size="10.00">o2::quality_control</text>
<text text-anchor="start" x="202" y="-626.5" font-family="Helvetica,sans-Serif" font-size="10.00">_modules::muonchambers</text>
<text text-anchor="middle" x="259.5" y="-615.5" font-family="Helvetica,sans-Serif" font-size="10.00">::PedestalsCheck</text>
</a>
</g>
</g>
<!-- Node1&#45;&gt;Node17 -->
<g id="edge16" class="edge"><title>Node1&#45;&gt;Node17</title>
<path fill="none" stroke="midnightblue" d="M101.443,-690.193C120.28,-680.112 144.027,-668.099 166,-659 174.891,-655.318 184.408,-651.789 193.832,-648.526"/>
<polygon fill="midnightblue" stroke="midnightblue" points="99.7496,-687.13 92.6189,-694.966 103.08,-693.287 99.7496,-687.13"/>
</g>
<!-- Node18 -->
<g id="node18" class="node"><title>Node18</title>
<g id="a_node18"><a xlink:href="classo2_1_1quality__control__modules_1_1muonchambers_1_1PhysicsCheck.html" target="_top" xlink:title="Check if the occupancy on each pad is between the two specified values. ">
<polygon fill="none" stroke="black" points="194,-548.5 194,-589.5 325,-589.5 325,-548.5 194,-548.5"/>
<text text-anchor="start" x="202" y="-577.5" font-family="Helvetica,sans-Serif" font-size="10.00">o2::quality_control</text>
<text text-anchor="start" x="202" y="-566.5" font-family="Helvetica,sans-Serif" font-size="10.00">_modules::muonchambers</text>
<text text-anchor="middle" x="259.5" y="-555.5" font-family="Helvetica,sans-Serif" font-size="10.00">::PhysicsCheck</text>
</a>
</g>
</g>
<!-- Node1&#45;&gt;Node18 -->
<g id="edge17" class="edge"><title>Node1&#45;&gt;Node18</title>
<path fill="none" stroke="midnightblue" d="M81.6767,-686.21C99.3587,-661.136 130.342,-622.136 166,-599 174.498,-593.487 184.093,-588.91 193.805,-585.133"/>
<polygon fill="midnightblue" stroke="midnightblue" points="78.575,-684.543 75.7801,-694.763 84.338,-688.516 78.575,-684.543"/>
</g>
<!-- Node19 -->
<g id="node19" class="node"><title>Node19</title>
<g id="a_node19"><a xlink:href="classo2_1_1quality__control__modules_1_1phos_1_1DigitCheck.html" target="_top" xlink:title="Check mos: appearence of dead regions in occupancy plots, mean and RMS etc. ">
<polygon fill="none" stroke="black" points="189.5,-500 189.5,-530 329.5,-530 329.5,-500 189.5,-500"/>
<text text-anchor="start" x="197.5" y="-518" font-family="Helvetica,sans-Serif" font-size="10.00">o2::quality_control</text>
<text text-anchor="middle" x="259.5" y="-507" font-family="Helvetica,sans-Serif" font-size="10.00">_modules::phos::DigitCheck</text>
</a>
</g>
</g>
<!-- Node1&#45;&gt;Node19 -->
<g id="edge18" class="edge"><title>Node1&#45;&gt;Node19</title>
<path fill="none" stroke="midnightblue" d="M73.5531,-685.364C86.3376,-647.893 115.863,-576.936 166,-539 173.012,-533.694 181.085,-529.557 189.48,-526.331"/>
<polygon fill="midnightblue" stroke="midnightblue" points="70.1869,-684.397 70.388,-694.99 76.8366,-686.584 70.1869,-684.397"/>
</g>
<!-- Node20 -->
<g id="node20" class="node"><title>Node20</title>
<g id="a_node20"><a xlink:href="classo2_1_1quality__control__modules_1_1phos_1_1RawCheck.html" target="_top" xlink:title="PHOS raw data check It is final because there is no reason to derive from it. Just remove it if neede...">
<polygon fill="none" stroke="black" points="189.5,-451 189.5,-481 329.5,-481 329.5,-451 189.5,-451"/>
<text text-anchor="start" x="197.5" y="-469" font-family="Helvetica,sans-Serif" font-size="10.00">o2::quality_control</text>
<text text-anchor="middle" x="259.5" y="-458" font-family="Helvetica,sans-Serif" font-size="10.00">_modules::phos::RawCheck</text>
</a>
</g>
</g>
<!-- Node1&#45;&gt;Node20 -->
<g id="edge19" class="edge"><title>Node1&#45;&gt;Node20</title>
<path fill="none" stroke="midnightblue" d="M70.2647,-684.923C79.365,-639.299 105.051,-542.672 166,-491 172.852,-485.191 180.929,-480.72 189.409,-477.282"/>
<polygon fill="midnightblue" stroke="midnightblue" points="66.8041,-684.387 68.3861,-694.863 73.6823,-685.687 66.8041,-684.387"/>
</g>
<!-- Node21 -->
<g id="node21" class="node"><title>Node21</title>
<g id="a_node21"><a xlink:href="classo2_1_1quality__control__modules_1_1skeleton_1_1SkeletonCheck.html" target="_top" xlink:title="Example QC Check. ">
<polygon fill="none" stroke="black" points="206,-391.5 206,-432.5 313,-432.5 313,-391.5 206,-391.5"/>
<text text-anchor="start" x="214" y="-420.5" font-family="Helvetica,sans-Serif" font-size="10.00">o2::quality_control</text>
<text text-anchor="start" x="214" y="-409.5" font-family="Helvetica,sans-Serif" font-size="10.00">_modules::skeleton::</text>
<text text-anchor="middle" x="259.5" y="-398.5" font-family="Helvetica,sans-Serif" font-size="10.00">SkeletonCheck</text>
</a>
</g>
</g>
<!-- Node1&#45;&gt;Node21 -->
<g id="edge20" class="edge"><title>Node1&#45;&gt;Node21</title>
<path fill="none" stroke="midnightblue" d="M68.2269,-684.628C74.2117,-631.875 95.3374,-509.653 166,-442 176.853,-431.609 191.34,-424.817 205.622,-420.378"/>
<polygon fill="midnightblue" stroke="midnightblue" points="64.7238,-684.477 67.1673,-694.786 71.686,-685.203 64.7238,-684.477"/>
</g>
<!-- Node22 -->
<g id="node22" class="node"><title>Node22</title>
<g id="a_node22"><a xlink:href="classo2_1_1quality__control__modules_1_1tof_1_1CheckCompressedData.html" target="_top" xlink:title="Checker for the data produced by the TOF compressor (i.e. checking raw data) ">
<polygon fill="none" stroke="black" points="166,-343 166,-373 353,-373 353,-343 166,-343"/>
<text text-anchor="start" x="174" y="-361" font-family="Helvetica,sans-Serif" font-size="10.00">o2::quality_control</text>
<text text-anchor="middle" x="259.5" y="-350" font-family="Helvetica,sans-Serif" font-size="10.00">_modules::tof::CheckCompressedData</text>
</a>
</g>
</g>
<!-- Node1&#45;&gt;Node22 -->
<g id="edge21" class="edge"><title>Node1&#45;&gt;Node22</title>
<path fill="none" stroke="midnightblue" d="M65.8613,-684.711C66.9608,-623.41 78.62,-465.78 166,-382 169.593,-378.555 173.614,-375.588 177.913,-373.035"/>
<polygon fill="midnightblue" stroke="midnightblue" points="62.3588,-684.964 65.763,-694.997 69.3585,-685.031 62.3588,-684.964"/>
</g>
<!-- Node23 -->
<g id="node23" class="node"><title>Node23</title>
<g id="a_node23"><a xlink:href="classo2_1_1quality__control__modules_1_1tof_1_1CheckDiagnostics.html" target="_top" xlink:title="Checker for diagnostic histogram of TOF Raw data. ">
<polygon fill="none" stroke="black" points="178.5,-294 178.5,-324 340.5,-324 340.5,-294 178.5,-294"/>
<text text-anchor="start" x="186.5" y="-312" font-family="Helvetica,sans-Serif" font-size="10.00">o2::quality_control</text>
<text text-anchor="middle" x="259.5" y="-301" font-family="Helvetica,sans-Serif" font-size="10.00">_modules::tof::CheckDiagnostics</text>
</a>
</g>
</g>
<!-- Node1&#45;&gt;Node23 -->
<g id="edge22" class="edge"><title>Node1&#45;&gt;Node23</title>
<path fill="none" stroke="midnightblue" d="M69.4307,-684.555C80.1881,-608.436 115.57,-384.633 166,-334 169.874,-330.11 174.286,-326.808 179.034,-324.007"/>
<polygon fill="midnightblue" stroke="midnightblue" points="65.9341,-684.289 68.0233,-694.676 72.8674,-685.253 65.9341,-684.289"/>
</g>
<!-- Node24 -->
<g id="node24" class="node"><title>Node24</title>
<g id="a_node24"><a xlink:href="classo2_1_1quality__control__modules_1_1tof_1_1CheckRawMultiplicity.html" target="_top" xlink:title="Check whether a plot is empty or not. ">
<polygon fill="none" stroke="black" points="171,-245 171,-275 348,-275 348,-245 171,-245"/>
<text text-anchor="start" x="179" y="-263" font-family="Helvetica,sans-Serif" font-size="10.00">o2::quality_control</text>
<text text-anchor="middle" x="259.5" y="-252" font-family="Helvetica,sans-Serif" font-size="10.00">_modules::tof::CheckRawMultiplicity</text>
</a>
</g>
</g>
<!-- Node1&#45;&gt;Node24 -->
<g id="edge23" class="edge"><title>Node1&#45;&gt;Node24</title>
<path fill="none" stroke="midnightblue" d="M68.5905,-684.576C77.5026,-602.015 109.501,-343.387 166,-285 169.702,-281.175 173.923,-277.915 178.477,-275.139"/>
<polygon fill="midnightblue" stroke="midnightblue" points="65.1019,-684.285 67.5296,-694.598 72.063,-685.022 65.1019,-684.285"/>
</g>
<!-- Node25 -->
<g id="node25" class="node"><title>Node25</title>
<g id="a_node25"><a xlink:href="classo2_1_1quality__control__modules_1_1tof_1_1CheckRawTime.html" target="_top" xlink:title="o2::quality_control\l_modules::tof::CheckRawTime">
<polygon fill="none" stroke="black" points="183.5,-196 183.5,-226 335.5,-226 335.5,-196 183.5,-196"/>
<text text-anchor="start" x="191.5" y="-214" font-family="Helvetica,sans-Serif" font-size="10.00">o2::quality_control</text>
<text text-anchor="middle" x="259.5" y="-203" font-family="Helvetica,sans-Serif" font-size="10.00">_modules::tof::CheckRawTime</text>
</a>
</g>
</g>
<!-- Node1&#45;&gt;Node25 -->
<g id="edge24" class="edge"><title>Node1&#45;&gt;Node25</title>
<path fill="none" stroke="midnightblue" d="M67.9173,-684.636C75.1168,-596.051 103.386,-302.225 166,-236 170.914,-230.802 176.788,-226.645 183.159,-223.326"/>
<polygon fill="midnightblue" stroke="midnightblue" points="64.4095,-684.597 67.1081,-694.843 71.3876,-685.15 64.4095,-684.597"/>
</g>
<!-- Node26 -->
<g id="node26" class="node"><title>Node26</title>
<g id="a_node26"><a xlink:href="classo2_1_1quality__control__modules_1_1tof_1_1CheckRawToT.html" target="_top" xlink:title="o2::quality_control\l_modules::tof::CheckRawToT">
<polygon fill="none" stroke="black" points="185.5,-147 185.5,-177 333.5,-177 333.5,-147 185.5,-147"/>
<text text-anchor="start" x="193.5" y="-165" font-family="Helvetica,sans-Serif" font-size="10.00">o2::quality_control</text>
<text text-anchor="middle" x="259.5" y="-154" font-family="Helvetica,sans-Serif" font-size="10.00">_modules::tof::CheckRawToT</text>
</a>
</g>
</g>
<!-- Node1&#45;&gt;Node26 -->
<g id="edge25" class="edge"><title>Node1&#45;&gt;Node26</title>
<path fill="none" stroke="midnightblue" d="M67.3614,-684.822C72.9541,-590.702 97.2097,-261.156 166,-187 171.43,-181.146 178.076,-176.608 185.291,-173.099"/>
<polygon fill="midnightblue" stroke="midnightblue" points="63.8639,-684.679 66.7832,-694.864 70.8523,-685.081 63.8639,-684.679"/>
</g>
<!-- Node27 -->
<g id="node27" class="node"><title>Node27</title>
<g id="a_node27"><a xlink:href="classo2_1_1quality__control__modules_1_1tpc_1_1PIDClusterCheck.html" target="_top" xlink:title="Check whether the cluster number for a track is smaller than 159 in PID task. ">
<polygon fill="none" stroke="black" points="179,-98 179,-128 340,-128 340,-98 179,-98"/>
<text text-anchor="start" x="187" y="-116" font-family="Helvetica,sans-Serif" font-size="10.00">o2::quality_control</text>
<text text-anchor="middle" x="259.5" y="-105" font-family="Helvetica,sans-Serif" font-size="10.00">_modules::tpc::PIDClusterCheck</text>
</a>
</g>
</g>
<!-- Node1&#45;&gt;Node27 -->
<g id="edge26" class="edge"><title>Node1&#45;&gt;Node27</title>
<path fill="none" stroke="midnightblue" d="M66.9132,-684.766C71.0301,-585.072 91.0653,-220.075 166,-138 169.701,-133.946 173.986,-130.522 178.641,-127.632"/>
<polygon fill="midnightblue" stroke="midnightblue" points="63.4132,-684.7 66.5153,-694.831 70.4077,-684.977 63.4132,-684.7"/>
</g>
<!-- Node28 -->
<g id="node28" class="node"><title>Node28</title>
<g id="a_node28"><a xlink:href="classo2_1_1quality__control__modules_1_1tpc_1_1TrackClusterCheck.html" target="_top" xlink:title="Check whether the cluster number for a track is smaller than 40 or 20 in Track task. ">
<polygon fill="none" stroke="black" points="189.5,-38.5 189.5,-79.5 329.5,-79.5 329.5,-38.5 189.5,-38.5"/>
<text text-anchor="start" x="197.5" y="-67.5" font-family="Helvetica,sans-Serif" font-size="10.00">o2::quality_control</text>
<text text-anchor="start" x="197.5" y="-56.5" font-family="Helvetica,sans-Serif" font-size="10.00">_modules::tpc::TrackCluster</text>
<text text-anchor="middle" x="259.5" y="-45.5" font-family="Helvetica,sans-Serif" font-size="10.00">Check</text>
</a>
</g>
</g>
<!-- Node1&#45;&gt;Node28 -->
<g id="edge27" class="edge"><title>Node1&#45;&gt;Node28</title>
<path fill="none" stroke="midnightblue" d="M66.6641,-684.455C69.901,-579.275 87.2507,-180.913 166,-89 172.261,-81.6923 180.32,-76.1516 189.065,-71.9532"/>
<polygon fill="midnightblue" stroke="midnightblue" points="63.1568,-684.658 66.3642,-694.756 70.1538,-684.862 63.1568,-684.658"/>
</g>
<!-- Node29 -->
<g id="node29" class="node"><title>Node29</title>
<g id="a_node29"><a xlink:href="classTestCheck.html" target="_top" xlink:title="TestCheck">
<polygon fill="none" stroke="black" points="227,-0.5 227,-19.5 292,-19.5 292,-0.5 227,-0.5"/>
<text text-anchor="middle" x="259.5" y="-7.5" font-family="Helvetica,sans-Serif" font-size="10.00">TestCheck</text>
</a>
</g>
</g>
<!-- Node1&#45;&gt;Node29 -->
<g id="edge28" class="edge"><title>Node1&#45;&gt;Node29</title>
<path fill="none" stroke="midnightblue" d="M65.9913,-684.661C66.489,-572.999 74.2637,-126.099 166,-29 181.312,-12.7929 206.461,-8.44357 226.674,-7.92717"/>
<polygon fill="midnightblue" stroke="midnightblue" points="62.4906,-684.941 65.9626,-694.951 69.4906,-684.961 62.4906,-684.941"/>
</g>
</g>
</svg>
