<?xml version="1.0" encoding="UTF-8" standalone="no"?>
<!DOCTYPE svg PUBLIC "-//W3C//DTD SVG 1.1//EN"
 "http://www.w3.org/Graphics/SVG/1.1/DTD/svg11.dtd">
<!-- Generated by graphviz version 2.38.0 (20140413.2041)
 -->
<!-- Title: Graphical Class Hierarchy Pages: 1 -->
<svg width="344pt" height="137pt"
 viewBox="0.00 0.00 344.00 137.00" xmlns="http://www.w3.org/2000/svg" xmlns:xlink="http://www.w3.org/1999/xlink">
<g id="graph0" class="graph" transform="scale(1 1) rotate(0) translate(4 133)">
<title>Graphical Class Hierarchy</title>
<!-- Node1 -->
<g id="node1" class="node"><title>Node1</title>
<g id="a_node1"><a xlink:href="classo2_1_1quality__control_1_1repository_1_1DatabaseInterface.html" target="_top" xlink:title="The interface to the MonitorObject&#39;s repository. ">
<polygon fill="none" stroke="black" points="0,-49.5 0,-79.5 152,-79.5 152,-49.5 0,-49.5"/>
<text text-anchor="start" x="8" y="-67.5" font-family="Helvetica,sans-Serif" font-size="10.00">o2::quality_control</text>
<text text-anchor="middle" x="76" y="-56.5" font-family="Helvetica,sans-Serif" font-size="10.00">::repository::DatabaseInterface</text>
</a>
</g>
</g>
<!-- Node2 -->
<g id="node2" class="node"><title>Node2</title>
<g id="a_node2"><a xlink:href="classo2_1_1quality__control_1_1repository_1_1CcdbDatabase.html" target="_top" xlink:title="o2::quality_control\l::repository::CcdbDatabase">
<polygon fill="none" stroke="black" points="193.5,-98.5 193.5,-128.5 330.5,-128.5 330.5,-98.5 193.5,-98.5"/>
<text text-anchor="start" x="201.5" y="-116.5" font-family="Helvetica,sans-Serif" font-size="10.00">o2::quality_control</text>
<text text-anchor="middle" x="262" y="-105.5" font-family="Helvetica,sans-Serif" font-size="10.00">::repository::CcdbDatabase</text>
</a>
</g>
</g>
<!-- Node1&#45;&gt;Node2 -->
<g id="edge1" class="edge"><title>Node1&#45;&gt;Node2</title>
<path fill="none" stroke="midnightblue" d="M143.176,-82.1229C163.306,-87.4837 185.232,-93.3225 204.65,-98.4938"/>
<polygon fill="midnightblue" stroke="midnightblue" points="144.02,-78.7259 133.457,-79.5346 142.219,-85.4902 144.02,-78.7259"/>
</g>
<!-- Node3 -->
<g id="node3" class="node"><title>Node3</title>
<g id="a_node3"><a xlink:href="classo2_1_1quality__control_1_1repository_1_1DummyDatabase.html" target="_top" xlink:title="Dummy database which does nothing. Use it to avoid writing to QC repository. ">
<polygon fill="none" stroke="black" points="188,-49.5 188,-79.5 336,-79.5 336,-49.5 188,-49.5"/>
<text text-anchor="start" x="196" y="-67.5" font-family="Helvetica,sans-Serif" font-size="10.00">o2::quality_control</text>
<text text-anchor="middle" x="262" y="-56.5" font-family="Helvetica,sans-Serif" font-size="10.00">::repository::DummyDatabase</text>
</a>
</g>
</g>
<!-- Node1&#45;&gt;Node3 -->
<g id="edge2" class="edge"><title>Node1&#45;&gt;Node3</title>
<path fill="none" stroke="midnightblue" d="M162.156,-64.5C170.765,-64.5 179.454,-64.5 187.92,-64.5"/>
<polygon fill="midnightblue" stroke="midnightblue" points="162.105,-61.0001 152.105,-64.5 162.105,-68.0001 162.105,-61.0001"/>
</g>
<!-- Node4 -->
<g id="node4" class="node"><title>Node4</title>
<g id="a_node4"><a xlink:href="classo2_1_1quality__control_1_1repository_1_1MySqlDatabase.html" target="_top" xlink:title="Implementation of the DatabaseInterface for MySQL. ">
<polygon fill="none" stroke="black" points="191.5,-0.5 191.5,-30.5 332.5,-30.5 332.5,-0.5 191.5,-0.5"/>
<text text-anchor="start" x="199.5" y="-18.5" font-family="Helvetica,sans-Serif" font-size="10.00">o2::quality_control</text>
<text text-anchor="middle" x="262" y="-7.5" font-family="Helvetica,sans-Serif" font-size="10.00">::repository::MySqlDatabase</text>
</a>
</g>
</g>
<!-- Node1&#45;&gt;Node4 -->
<g id="edge3" class="edge"><title>Node1&#45;&gt;Node4</title>
<path fill="none" stroke="midnightblue" d="M143.176,-46.8771C163.306,-41.5163 185.232,-35.6775 204.65,-30.5062"/>
<polygon fill="midnightblue" stroke="midnightblue" points="142.219,-43.5098 133.457,-49.4654 144.02,-50.2741 142.219,-43.5098"/>
</g>
</g>
</svg>
