<?xml version="1.0" encoding="UTF-8" standalone="no"?>
<!DOCTYPE svg PUBLIC "-//W3C//DTD SVG 1.1//EN"
 "http://www.w3.org/Graphics/SVG/1.1/DTD/svg11.dtd">
<!-- Generated by graphviz version 2.38.0 (20140413.2041)
 -->
<!-- Title: Graphical Class Hierarchy Pages: 1 -->
<svg width="357pt" height="452pt"
 viewBox="0.00 0.00 357.00 451.50" xmlns="http://www.w3.org/2000/svg" xmlns:xlink="http://www.w3.org/1999/xlink">
<g id="graph0" class="graph" transform="scale(1 1) rotate(0) translate(4 447.5)">
<title>Graphical Class Hierarchy</title>
<!-- Node1 -->
<g id="node1" class="node"><title>Node1</title>
<g id="a_node1"><a xlink:href="classo2_1_1quality__control_1_1postprocessing_1_1Reductor.html" target="_top" xlink:title="An interface for storing data derived from QC objects into a TTree. ">
<polygon fill="none" stroke="black" points="0,-222.5 0,-252.5 134,-252.5 134,-222.5 0,-222.5"/>
<text text-anchor="start" x="8" y="-240.5" font-family="Helvetica,sans-Serif" font-size="10.00">o2::quality_control</text>
<text text-anchor="middle" x="67" y="-229.5" font-family="Helvetica,sans-Serif" font-size="10.00">::postprocessing::Reductor</text>
</a>
</g>
</g>
<!-- Node2 -->
<g id="node2" class="node"><title>Node2</title>
<g id="a_node2"><a xlink:href="classMyReductor.html" target="_top" xlink:title="MyReductor">
<polygon fill="none" stroke="black" points="224.5,-424 224.5,-443 294.5,-443 294.5,-424 224.5,-424"/>
<text text-anchor="middle" x="259.5" y="-431" font-family="Helvetica,sans-Serif" font-size="10.00">MyReductor</text>
</a>
</g>
</g>
<!-- Node1&#45;&gt;Node2 -->
<g id="edge1" class="edge"><title>Node1&#45;&gt;Node2</title>
<path fill="none" stroke="midnightblue" d="M75.2069,-262.681C87.7283,-301.665 117.338,-376.124 170,-414.5 185.621,-425.884 206.662,-430.714 224.308,-432.661"/>
<polygon fill="midnightblue" stroke="midnightblue" points="78.4158,-261.209 72.1234,-252.686 71.7269,-263.273 78.4158,-261.209"/>
</g>
<!-- Node3 -->
<g id="node3" class="node"><title>Node3</title>
<g id="a_node3"><a xlink:href="classo2_1_1quality__control__modules_1_1common_1_1QualityReductor.html" target="_top" xlink:title="A Reductor of QualityObjects, stores a name and level of a Quality. ">
<polygon fill="none" stroke="black" points="170,-374.5 170,-404.5 349,-404.5 349,-374.5 170,-374.5"/>
<text text-anchor="start" x="178" y="-392.5" font-family="Helvetica,sans-Serif" font-size="10.00">o2::quality_control</text>
<text text-anchor="middle" x="259.5" y="-381.5" font-family="Helvetica,sans-Serif" font-size="10.00">_modules::common::QualityReductor</text>
</a>
</g>
</g>
<!-- Node1&#45;&gt;Node3 -->
<g id="edge2" class="edge"><title>Node1&#45;&gt;Node3</title>
<path fill="none" stroke="midnightblue" d="M80.9247,-261.789C97.6349,-290.835 129.464,-338.862 170,-365.5 175.189,-368.91 180.85,-371.837 186.72,-374.351"/>
<polygon fill="midnightblue" stroke="midnightblue" points="83.7876,-259.738 75.8466,-252.724 77.6806,-263.159 83.7876,-259.738"/>
</g>
<!-- Node4 -->
<g id="node4" class="node"><title>Node4</title>
<g id="a_node4"><a xlink:href="classo2_1_1quality__control__modules_1_1common_1_1TH1Reductor.html" target="_top" xlink:title="A Reductor which obtains the most popular characteristics of TH1. ">
<polygon fill="none" stroke="black" points="176,-325.5 176,-355.5 343,-355.5 343,-325.5 176,-325.5"/>
<text text-anchor="start" x="184" y="-343.5" font-family="Helvetica,sans-Serif" font-size="10.00">o2::quality_control</text>
<text text-anchor="middle" x="259.5" y="-332.5" font-family="Helvetica,sans-Serif" font-size="10.00">_modules::common::TH1Reductor</text>
</a>
</g>
</g>
<!-- Node1&#45;&gt;Node4 -->
<g id="edge3" class="edge"><title>Node1&#45;&gt;Node4</title>
<path fill="none" stroke="midnightblue" d="M90.7409,-259.424C110.307,-277.169 140.041,-301.585 170,-316.5 176.841,-319.905 184.227,-322.878 191.715,-325.459"/>
<polygon fill="midnightblue" stroke="midnightblue" points="92.9789,-256.726 83.2587,-252.511 88.2287,-261.868 92.9789,-256.726"/>
</g>
<!-- Node5 -->
<g id="node5" class="node"><title>Node5</title>
<g id="a_node5"><a xlink:href="classo2_1_1quality__control__modules_1_1common_1_1TH2Reductor.html" target="_top" xlink:title="A Reductor which obtains the most popular characteristics of TH2. ">
<polygon fill="none" stroke="black" points="176,-276.5 176,-306.5 343,-306.5 343,-276.5 176,-276.5"/>
<text text-anchor="start" x="184" y="-294.5" font-family="Helvetica,sans-Serif" font-size="10.00">o2::quality_control</text>
<text text-anchor="middle" x="259.5" y="-283.5" font-family="Helvetica,sans-Serif" font-size="10.00">_modules::common::TH2Reductor</text>
</a>
</g>
</g>
<!-- Node1&#45;&gt;Node5 -->
<g id="edge4" class="edge"><title>Node1&#45;&gt;Node5</title>
<path fill="none" stroke="midnightblue" d="M128.106,-255.409C141.857,-259.442 156.421,-263.662 170,-267.5 180.417,-270.444 191.545,-273.518 202.27,-276.444"/>
<polygon fill="midnightblue" stroke="midnightblue" points="128.844,-251.978 118.263,-252.513 126.869,-258.693 128.844,-251.978"/>
</g>
<!-- Node6 -->
<g id="node6" class="node"><title>Node6</title>
<g id="a_node6"><a xlink:href="classo2_1_1quality__control__modules_1_1common_1_1THnSparse5Reductor.html" target="_top" xlink:title="A Reductor which obtains the most popular characteristics of THnSparse up to 5 dimensions. ">
<polygon fill="none" stroke="black" points="178,-217 178,-258 341,-258 341,-217 178,-217"/>
<text text-anchor="start" x="186" y="-246" font-family="Helvetica,sans-Serif" font-size="10.00">o2::quality_control</text>
<text text-anchor="start" x="186" y="-235" font-family="Helvetica,sans-Serif" font-size="10.00">_modules::common::THnSparse5</text>
<text text-anchor="middle" x="259.5" y="-224" font-family="Helvetica,sans-Serif" font-size="10.00">Reductor</text>
</a>
</g>
</g>
<!-- Node1&#45;&gt;Node6 -->
<g id="edge5" class="edge"><title>Node1&#45;&gt;Node6</title>
<path fill="none" stroke="midnightblue" d="M144.128,-237.5C155.185,-237.5 166.6,-237.5 177.744,-237.5"/>
<polygon fill="midnightblue" stroke="midnightblue" points="144.093,-234 134.093,-237.5 144.093,-241 144.093,-234"/>
</g>
<!-- Node7 -->
<g id="node7" class="node"><title>Node7</title>
<g id="a_node7"><a xlink:href="classo2_1_1quality__control__modules_1_1emcal_1_1DigitOccupancyReductor.html" target="_top" xlink:title="A Reductor which obtains the most popular characteristics of TH2. ">
<polygon fill="none" stroke="black" points="176,-157 176,-198 343,-198 343,-157 176,-157"/>
<text text-anchor="start" x="184" y="-186" font-family="Helvetica,sans-Serif" font-size="10.00">o2::quality_control</text>
<text text-anchor="start" x="184" y="-175" font-family="Helvetica,sans-Serif" font-size="10.00">_modules::emcal::DigitOccupancy</text>
<text text-anchor="middle" x="259.5" y="-164" font-family="Helvetica,sans-Serif" font-size="10.00">Reductor</text>
</a>
</g>
</g>
<!-- Node1&#45;&gt;Node7 -->
<g id="edge6" class="edge"><title>Node1&#45;&gt;Node7</title>
<path fill="none" stroke="midnightblue" d="M125.631,-219.349C146.936,-212.638 171.234,-204.985 193.174,-198.075"/>
<polygon fill="midnightblue" stroke="midnightblue" points="124.558,-216.017 116.071,-222.359 126.661,-222.694 124.558,-216.017"/>
</g>
<!-- Node8 -->
<g id="node8" class="node"><title>Node8</title>
<g id="a_node8"><a xlink:href="classo2_1_1quality__control__modules_1_1its_1_1TH2XlineReductor.html" target="_top" xlink:title="A Reductor which obtains specific characteristics of TH2: mean and stddev of bin contents for each y ...">
<polygon fill="none" stroke="black" points="179,-108.5 179,-138.5 340,-138.5 340,-108.5 179,-108.5"/>
<text text-anchor="start" x="187" y="-126.5" font-family="Helvetica,sans-Serif" font-size="10.00">o2::quality_control</text>
<text text-anchor="middle" x="259.5" y="-115.5" font-family="Helvetica,sans-Serif" font-size="10.00">_modules::its::TH2XlineReductor</text>
</a>
</g>
</g>
<!-- Node1&#45;&gt;Node8 -->
<g id="edge7" class="edge"><title>Node1&#45;&gt;Node8</title>
<path fill="none" stroke="midnightblue" d="M87.9135,-214.779C107.028,-194.328 137.692,-164.895 170,-147.5 176.308,-144.104 183.132,-141.16 190.097,-138.615"/>
<polygon fill="midnightblue" stroke="midnightblue" points="85.1078,-212.66 80.9354,-222.399 90.2702,-217.388 85.1078,-212.66"/>
</g>
<!-- Node9 -->
<g id="node9" class="node"><title>Node9</title>
<g id="a_node9"><a xlink:href="classo2_1_1quality__control__modules_1_1muonchambers_1_1TH1MCHReductor.html" target="_top" xlink:title="A Reductor which obtains the most popular characteristics of TH1. ">
<polygon fill="none" stroke="black" points="194,-49 194,-90 325,-90 325,-49 194,-49"/>
<text text-anchor="start" x="202" y="-78" font-family="Helvetica,sans-Serif" font-size="10.00">o2::quality_control</text>
<text text-anchor="start" x="202" y="-67" font-family="Helvetica,sans-Serif" font-size="10.00">_modules::muonchambers</text>
<text text-anchor="middle" x="259.5" y="-56" font-family="Helvetica,sans-Serif" font-size="10.00">::TH1MCHReductor</text>
</a>
</g>
</g>
<!-- Node1&#45;&gt;Node9 -->
<g id="edge8" class="edge"><title>Node1&#45;&gt;Node9</title>
<path fill="none" stroke="midnightblue" d="M80.0148,-213.104C96.3322,-182.378 128.31,-129.932 170,-99.5 177.207,-94.2391 185.402,-89.8541 193.828,-86.2113"/>
<polygon fill="midnightblue" stroke="midnightblue" points="76.7634,-211.771 75.2747,-222.261 82.98,-214.989 76.7634,-211.771"/>
</g>
<!-- Node10 -->
<g id="node10" class="node"><title>Node10</title>
<g id="a_node10"><a xlink:href="classo2_1_1quality__control__modules_1_1tpc_1_1ROCReductor.html" target="_top" xlink:title="A Reductor of ROC, stores mean, standard deviation and median for each ROC. ">
<polygon fill="none" stroke="black" points="186.5,-0.5 186.5,-30.5 332.5,-30.5 332.5,-0.5 186.5,-0.5"/>
<text text-anchor="start" x="194.5" y="-18.5" font-family="Helvetica,sans-Serif" font-size="10.00">o2::quality_control</text>
<text text-anchor="middle" x="259.5" y="-7.5" font-family="Helvetica,sans-Serif" font-size="10.00">_modules::tpc::ROCReductor</text>
</a>
</g>
</g>
<!-- Node1&#45;&gt;Node10 -->
<g id="edge9" class="edge"><title>Node1&#45;&gt;Node10</title>
<path fill="none" stroke="midnightblue" d="M73.7906,-212.728C84.9411,-170.622 113.453,-85.2237 170,-39.5 174.952,-35.4962 180.516,-32.1576 186.382,-29.3741"/>
<polygon fill="midnightblue" stroke="midnightblue" points="70.3908,-211.896 71.3233,-222.45 77.1757,-213.618 70.3908,-211.896"/>
</g>
</g>
</svg>
