<?xml version="1.0" encoding="UTF-8" standalone="no"?>
<!DOCTYPE svg PUBLIC "-//W3C//DTD SVG 1.1//EN"
 "http://www.w3.org/Graphics/SVG/1.1/DTD/svg11.dtd">
<!-- Generated by graphviz version 2.38.0 (20140413.2041)
 -->
<!-- Title: Graphical Class Hierarchy Pages: 1 -->
<svg width="278pt" height="66pt"
 viewBox="0.00 0.00 278.00 66.00" xmlns="http://www.w3.org/2000/svg" xmlns:xlink="http://www.w3.org/1999/xlink">
<g id="graph0" class="graph" transform="scale(1 1) rotate(0) translate(4 62)">
<title>Graphical Class Hierarchy</title>
<!-- Node1 -->
<g id="node1" class="node"><title>Node1</title>
<polygon fill="none" stroke="#bfbfbf" points="0,-38.5 0,-57.5 82,-57.5 82,-38.5 0,-38.5"/>
<text text-anchor="middle" x="41" y="-45.5" font-family="Helvetica,sans-Serif" font-size="10.00">MergeInterface</text>
</g>
<!-- Node2 -->
<g id="node2" class="node"><title>Node2</title>
<g id="a_node2"><a xlink:href="classo2_1_1quality__control_1_1core_1_1MonitorObjectCollection.html" target="_top" xlink:title="o2::quality_control\l::core::MonitorObjectCollection">
<polygon fill="none" stroke="black" points="118,-14 118,-44 270,-44 270,-14 118,-14"/>
<text text-anchor="start" x="126" y="-32" font-family="Helvetica,sans-Serif" font-size="10.00">o2::quality_control</text>
<text text-anchor="middle" x="194" y="-21" font-family="Helvetica,sans-Serif" font-size="10.00">::core::MonitorObjectCollection</text>
</a>
</g>
</g>
<!-- Node1&#45;&gt;Node2 -->
<g id="edge1" class="edge"><title>Node1&#45;&gt;Node2</title>
<path fill="none" stroke="midnightblue" d="M92.2655,-41.6752C100.536,-40.6345 109.263,-39.5365 117.981,-38.4394"/>
<polygon fill="midnightblue" stroke="midnightblue" points="91.5536,-38.2371 82.0688,-42.9582 92.4275,-45.1823 91.5536,-38.2371"/>
</g>
<!-- Node3 -->
<g id="node3" class="node"><title>Node3</title>
<g id="a_node3"><a xlink:href="classTObjArray.html" target="_top" xlink:title="TObjArray">
<polygon fill="none" stroke="black" points="10.5,-0.5 10.5,-19.5 71.5,-19.5 71.5,-0.5 10.5,-0.5"/>
<text text-anchor="middle" x="41" y="-7.5" font-family="Helvetica,sans-Serif" font-size="10.00">TObjArray</text>
</a>
</g>
</g>
<!-- Node3&#45;&gt;Node2 -->
<g id="edge2" class="edge"><title>Node3&#45;&gt;Node2</title>
<path fill="none" stroke="midnightblue" d="M82.0033,-15.0335C93.0783,-16.4271 105.473,-17.9866 117.854,-19.5446"/>
<polygon fill="midnightblue" stroke="midnightblue" points="82.1915,-11.5297 71.8327,-13.7538 81.3175,-18.4749 82.1915,-11.5297"/>
</g>
</g>
</svg>
