<?xml version="1.0" encoding="UTF-8" standalone="no"?>
<!DOCTYPE svg PUBLIC "-//W3C//DTD SVG 1.1//EN"
 "http://www.w3.org/Graphics/SVG/1.1/DTD/svg11.dtd">
<!-- Generated by graphviz version 2.38.0 (20140413.2041)
 -->
<!-- Title: Graphical Class Hierarchy Pages: 1 -->
<svg width="240pt" height="78pt"
 viewBox="0.00 0.00 240.00 77.50" xmlns="http://www.w3.org/2000/svg" xmlns:xlink="http://www.w3.org/1999/xlink">
<g id="graph0" class="graph" transform="scale(1 1) rotate(0) translate(4 73.5)">
<title>Graphical Class Hierarchy</title>
<!-- Node1 -->
<g id="node1" class="node"><title>Node1</title>
<polygon fill="none" stroke="#bfbfbf" points="0,-28 0,-47 59,-47 59,-28 0,-28"/>
<text text-anchor="middle" x="29.5" y="-35" font-family="Helvetica,sans-Serif" font-size="10.00">TestCase</text>
</g>
<!-- Node2 -->
<g id="node2" class="node"><title>Node2</title>
<g id="a_node2"><a xlink:href="classtest__Ccdb_1_1TestCcdb.html" target="_top" xlink:title="test_Ccdb.TestCcdb">
<polygon fill="none" stroke="black" points="110,-50 110,-69 217,-69 217,-50 110,-50"/>
<text text-anchor="middle" x="163.5" y="-57" font-family="Helvetica,sans-Serif" font-size="10.00">test_Ccdb.TestCcdb</text>
</a>
</g>
</g>
<!-- Node1&#45;&gt;Node2 -->
<g id="edge1" class="edge"><title>Node1&#45;&gt;Node2</title>
<path fill="none" stroke="midnightblue" d="M69.3829,-43.9805C82.0923,-46.0987 96.4256,-48.4876 109.969,-50.7448"/>
<polygon fill="midnightblue" stroke="midnightblue" points="69.5814,-40.4654 59.142,-42.2737 68.4305,-47.3701 69.5814,-40.4654"/>
</g>
<!-- Node3 -->
<g id="node3" class="node"><title>Node3</title>
<g id="a_node3"><a xlink:href="classtest__repoCleaner_1_1TestRepoCleaner.html" target="_top" xlink:title="test_repoCleaner.TestRepo\lCleaner">
<polygon fill="none" stroke="black" points="95,-0.5 95,-30.5 232,-30.5 232,-0.5 95,-0.5"/>
<text text-anchor="start" x="103" y="-18.5" font-family="Helvetica,sans-Serif" font-size="10.00">test_repoCleaner.TestRepo</text>
<text text-anchor="middle" x="163.5" y="-7.5" font-family="Helvetica,sans-Serif" font-size="10.00">Cleaner</text>
</a>
</g>
</g>
<!-- Node1&#45;&gt;Node3 -->
<g id="edge2" class="edge"><title>Node1&#45;&gt;Node3</title>
<path fill="none" stroke="midnightblue" d="M69.0565,-31.0739C77.2088,-29.7152 86.0407,-28.2432 94.911,-26.7648"/>
<polygon fill="midnightblue" stroke="midnightblue" points="68.4305,-27.6299 59.142,-32.7263 69.5814,-34.5346 68.4305,-27.6299"/>
</g>
</g>
</svg>
