<?xml version="1.0" encoding="UTF-8" standalone="no"?>
<!DOCTYPE svg PUBLIC "-//W3C//DTD SVG 1.1//EN"
 "http://www.w3.org/Graphics/SVG/1.1/DTD/svg11.dtd">
<!-- Generated by graphviz version 2.38.0 (20140413.2041)
 -->
<!-- Title: Graphical Class Hierarchy Pages: 1 -->
<svg width="362pt" height="387pt"
 viewBox="0.00 0.00 362.00 386.50" xmlns="http://www.w3.org/2000/svg" xmlns:xlink="http://www.w3.org/1999/xlink">
<g id="graph0" class="graph" transform="scale(1 1) rotate(0) translate(4 382.5)">
<title>Graphical Class Hierarchy</title>
<!-- Node1 -->
<g id="node1" class="node"><title>Node1</title>
<g id="a_node1"><a xlink:href="classo2_1_1quality__control_1_1postprocessing_1_1PostProcessingInterface.html" target="_top" xlink:title="Skeleton of a post&#45;processing task. ">
<polygon fill="none" stroke="black" points="0,-168.5 0,-209.5 164,-209.5 164,-168.5 0,-168.5"/>
<text text-anchor="start" x="8" y="-197.5" font-family="Helvetica,sans-Serif" font-size="10.00">o2::quality_control</text>
<text text-anchor="start" x="8" y="-186.5" font-family="Helvetica,sans-Serif" font-size="10.00">::postprocessing::PostProcessing</text>
<text text-anchor="middle" x="82" y="-175.5" font-family="Helvetica,sans-Serif" font-size="10.00">Interface</text>
</a>
</g>
</g>
<!-- Node2 -->
<g id="node2" class="node"><title>Node2</title>
<g id="a_node2"><a xlink:href="classo2_1_1quality__control_1_1postprocessing_1_1TrendingTask.html" target="_top" xlink:title="A post&#45;processing task which trends values, stores them in a TTree and produces plots. ">
<polygon fill="none" stroke="black" points="200,-348 200,-378 354,-378 354,-348 200,-348"/>
<text text-anchor="start" x="208" y="-366" font-family="Helvetica,sans-Serif" font-size="10.00">o2::quality_control</text>
<text text-anchor="middle" x="277" y="-355" font-family="Helvetica,sans-Serif" font-size="10.00">::postprocessing::TrendingTask</text>
</a>
</g>
</g>
<!-- Node1&#45;&gt;Node2 -->
<g id="edge1" class="edge"><title>Node1&#45;&gt;Node2</title>
<path fill="none" stroke="midnightblue" d="M98.7517,-218.654C118.203,-252.516 154.38,-307.31 200,-339 204.887,-342.394 210.276,-345.326 215.861,-347.853"/>
<polygon fill="midnightblue" stroke="midnightblue" points="101.667,-216.696 93.7151,-209.694 95.5646,-220.126 101.667,-216.696"/>
</g>
<!-- Node3 -->
<g id="node3" class="node"><title>Node3</title>
<g id="a_node3"><a xlink:href="classo2_1_1quality__control_1_1postprocessing_1_1TrendingTaskITSFhr.html" target="_top" xlink:title="A post&#45;processing task which trends values, stores them in a TTree and produces plots. ">
<polygon fill="none" stroke="black" points="211,-288.5 211,-329.5 343,-329.5 343,-288.5 211,-288.5"/>
<text text-anchor="start" x="219" y="-317.5" font-family="Helvetica,sans-Serif" font-size="10.00">o2::quality_control</text>
<text text-anchor="start" x="219" y="-306.5" font-family="Helvetica,sans-Serif" font-size="10.00">::postprocessing::Trending</text>
<text text-anchor="middle" x="277" y="-295.5" font-family="Helvetica,sans-Serif" font-size="10.00">TaskITSFhr</text>
</a>
</g>
</g>
<!-- Node1&#45;&gt;Node3 -->
<g id="edge2" class="edge"><title>Node1&#45;&gt;Node3</title>
<path fill="none" stroke="midnightblue" d="M113.428,-216.24C136.113,-235.563 168.493,-261.134 200,-279 205.923,-282.359 212.297,-285.512 218.744,-288.42"/>
<polygon fill="midnightblue" stroke="midnightblue" points="115.685,-213.565 105.825,-209.689 111.116,-218.868 115.685,-213.565"/>
</g>
<!-- Node4 -->
<g id="node4" class="node"><title>Node4</title>
<g id="a_node4"><a xlink:href="classo2_1_1quality__control_1_1postprocessing_1_1TrendingTaskITSThr.html" target="_top" xlink:title="A post&#45;processing task which trends values, stores them in a TTree and produces plots. ">
<polygon fill="none" stroke="black" points="211,-228.5 211,-269.5 343,-269.5 343,-228.5 211,-228.5"/>
<text text-anchor="start" x="219" y="-257.5" font-family="Helvetica,sans-Serif" font-size="10.00">o2::quality_control</text>
<text text-anchor="start" x="219" y="-246.5" font-family="Helvetica,sans-Serif" font-size="10.00">::postprocessing::Trending</text>
<text text-anchor="middle" x="277" y="-235.5" font-family="Helvetica,sans-Serif" font-size="10.00">TaskITSThr</text>
</a>
</g>
</g>
<!-- Node1&#45;&gt;Node4 -->
<g id="edge3" class="edge"><title>Node1&#45;&gt;Node4</title>
<path fill="none" stroke="midnightblue" d="M159.117,-212.663C176.251,-217.99 194.283,-223.596 210.917,-228.767"/>
<polygon fill="midnightblue" stroke="midnightblue" points="159.738,-209.191 149.15,-209.565 157.66,-215.876 159.738,-209.191"/>
</g>
<!-- Node5 -->
<g id="node5" class="node"><title>Node5</title>
<g id="a_node5"><a xlink:href="classo2_1_1quality__control__modules_1_1ft0_1_1TreeReaderPostProcessing.html" target="_top" xlink:title="o2::quality_control\l_modules::ft0::TreeReaderPost\lProcessing">
<polygon fill="none" stroke="black" points="200.5,-168.5 200.5,-209.5 353.5,-209.5 353.5,-168.5 200.5,-168.5"/>
<text text-anchor="start" x="208.5" y="-197.5" font-family="Helvetica,sans-Serif" font-size="10.00">o2::quality_control</text>
<text text-anchor="start" x="208.5" y="-186.5" font-family="Helvetica,sans-Serif" font-size="10.00">_modules::ft0::TreeReaderPost</text>
<text text-anchor="middle" x="277" y="-175.5" font-family="Helvetica,sans-Serif" font-size="10.00">Processing</text>
</a>
</g>
</g>
<!-- Node1&#45;&gt;Node5 -->
<g id="edge4" class="edge"><title>Node1&#45;&gt;Node5</title>
<path fill="none" stroke="midnightblue" d="M174.255,-189C183.02,-189 191.843,-189 200.433,-189"/>
<polygon fill="midnightblue" stroke="midnightblue" points="174.011,-185.5 164.01,-189 174.01,-192.5 174.011,-185.5"/>
</g>
<!-- Node6 -->
<g id="node6" class="node"><title>Node6</title>
<g id="a_node6"><a xlink:href="classo2_1_1quality__control__modules_1_1skeleton_1_1SkeletonPostProcessing.html" target="_top" xlink:title="Example Quality Control Postprocessing Task. ">
<polygon fill="none" stroke="black" points="215,-108.5 215,-149.5 339,-149.5 339,-108.5 215,-108.5"/>
<text text-anchor="start" x="223" y="-137.5" font-family="Helvetica,sans-Serif" font-size="10.00">o2::quality_control</text>
<text text-anchor="start" x="223" y="-126.5" font-family="Helvetica,sans-Serif" font-size="10.00">_modules::skeleton::</text>
<text text-anchor="middle" x="277" y="-115.5" font-family="Helvetica,sans-Serif" font-size="10.00">SkeletonPostProcessing</text>
</a>
</g>
</g>
<!-- Node1&#45;&gt;Node6 -->
<g id="edge5" class="edge"><title>Node1&#45;&gt;Node6</title>
<path fill="none" stroke="midnightblue" d="M158.755,-165.449C177.339,-159.672 197.002,-153.559 214.805,-148.024"/>
<polygon fill="midnightblue" stroke="midnightblue" points="157.66,-162.124 149.15,-168.435 159.738,-168.809 157.66,-162.124"/>
</g>
<!-- Node7 -->
<g id="node7" class="node"><title>Node7</title>
<g id="a_node7"><a xlink:href="classo2_1_1quality__control__modules_1_1test_1_1TestTask.html" target="_top" xlink:title="o2::quality_control\l_modules::test::TestTask">
<polygon fill="none" stroke="black" points="213,-60 213,-90 341,-90 341,-60 213,-60"/>
<text text-anchor="start" x="221" y="-78" font-family="Helvetica,sans-Serif" font-size="10.00">o2::quality_control</text>
<text text-anchor="middle" x="277" y="-67" font-family="Helvetica,sans-Serif" font-size="10.00">_modules::test::TestTask</text>
</a>
</g>
</g>
<!-- Node1&#45;&gt;Node7 -->
<g id="edge6" class="edge"><title>Node1&#45;&gt;Node7</title>
<path fill="none" stroke="midnightblue" d="M112.636,-161.461C135.161,-141.764 167.683,-115.857 200,-99 206.379,-95.6724 213.303,-92.7065 220.286,-90.0925"/>
<polygon fill="midnightblue" stroke="midnightblue" points="110.261,-158.89 105.103,-168.145 114.906,-164.126 110.261,-158.89"/>
</g>
<!-- Node8 -->
<g id="node8" class="node"><title>Node8</title>
<g id="a_node8"><a xlink:href="classo2_1_1quality__control__modules_1_1tof_1_1PostProcessDiagnosticPerCrate.html" target="_top" xlink:title="Post processing to rearrange TOF information at the level of the crate (maybe we should do the opposi...">
<polygon fill="none" stroke="black" points="208,-0.5 208,-41.5 346,-41.5 346,-0.5 208,-0.5"/>
<text text-anchor="start" x="216" y="-29.5" font-family="Helvetica,sans-Serif" font-size="10.00">o2::quality_control</text>
<text text-anchor="start" x="216" y="-18.5" font-family="Helvetica,sans-Serif" font-size="10.00">_modules::tof::PostProcess</text>
<text text-anchor="middle" x="277" y="-7.5" font-family="Helvetica,sans-Serif" font-size="10.00">DiagnosticPerCrate</text>
</a>
</g>
</g>
<!-- Node1&#45;&gt;Node8 -->
<g id="edge7" class="edge"><title>Node1&#45;&gt;Node8</title>
<path fill="none" stroke="midnightblue" d="M101.313,-159.87C121.963,-129.1 158.172,-80.9731 200,-51 204.843,-47.5298 210.142,-44.3907 215.618,-41.5676"/>
<polygon fill="midnightblue" stroke="midnightblue" points="98.2441,-158.166 95.6614,-168.441 104.088,-162.019 98.2441,-158.166"/>
</g>
</g>
</svg>
