<?xml version="1.0" encoding="UTF-8" standalone="no"?>
<!DOCTYPE svg PUBLIC "-//W3C//DTD SVG 1.1//EN"
 "http://www.w3.org/Graphics/SVG/1.1/DTD/svg11.dtd">
<!-- Generated by graphviz version 2.38.0 (20140413.2041)
 -->
<!-- Title: Graphical Class Hierarchy Pages: 1 -->
<svg width="278pt" height="110pt"
 viewBox="0.00 0.00 278.00 110.00" xmlns="http://www.w3.org/2000/svg" xmlns:xlink="http://www.w3.org/1999/xlink">
<g id="graph0" class="graph" transform="scale(1 1) rotate(0) translate(4 106)">
<title>Graphical Class Hierarchy</title>
<!-- Node1 -->
<g id="node1" class="node"><title>Node1</title>
<g id="a_node1"><a xlink:href="classDecoderBase.html" target="_top" xlink:title="DecoderBase">
<polygon fill="none" stroke="black" points="0,-41.5 0,-60.5 76,-60.5 76,-41.5 0,-41.5"/>
<text text-anchor="middle" x="38" y="-48.5" font-family="Helvetica,sans-Serif" font-size="10.00">DecoderBase</text>
</a>
</g>
</g>
<!-- Node2 -->
<g id="node2" class="node"><title>Node2</title>
<g id="a_node2"><a xlink:href="classo2_1_1quality__control__modules_1_1tof_1_1CompressedDataDecoder.html" target="_top" xlink:title="TOF Quality Control class for Decoding Compressed data for TOF Compressed data QC Task...">
<polygon fill="none" stroke="black" points="112,-60.5 112,-101.5 270,-101.5 270,-60.5 112,-60.5"/>
<text text-anchor="start" x="120" y="-89.5" font-family="Helvetica,sans-Serif" font-size="10.00">o2::quality_control</text>
<text text-anchor="start" x="120" y="-78.5" font-family="Helvetica,sans-Serif" font-size="10.00">_modules::tof::CompressedData</text>
<text text-anchor="middle" x="191" y="-67.5" font-family="Helvetica,sans-Serif" font-size="10.00">Decoder</text>
</a>
</g>
</g>
<!-- Node1&#45;&gt;Node2 -->
<g id="edge1" class="edge"><title>Node1&#45;&gt;Node2</title>
<path fill="none" stroke="midnightblue" d="M86.3122,-60.3998C94.4383,-62.0142 103.073,-63.7298 111.756,-65.4549"/>
<polygon fill="midnightblue" stroke="midnightblue" points="86.8162,-56.9316 76.3259,-58.4157 85.4521,-63.7974 86.8162,-56.9316"/>
</g>
<!-- Node3 -->
<g id="node3" class="node"><title>Node3</title>
<g id="a_node3"><a xlink:href="classo2_1_1quality__control__modules_1_1tof_1_1DiagnosticsCounter.html" target="_top" xlink:title="TOF Quality Control class for Decoding Compressed data for TOF Compressed data QC Task...">
<polygon fill="none" stroke="black" points="124,-0.5 124,-41.5 258,-41.5 258,-0.5 124,-0.5"/>
<text text-anchor="start" x="132" y="-29.5" font-family="Helvetica,sans-Serif" font-size="10.00">o2::quality_control</text>
<text text-anchor="start" x="132" y="-18.5" font-family="Helvetica,sans-Serif" font-size="10.00">_modules::tof::Diagnostics</text>
<text text-anchor="middle" x="191" y="-7.5" font-family="Helvetica,sans-Serif" font-size="10.00">Counter</text>
</a>
</g>
</g>
<!-- Node1&#45;&gt;Node3 -->
<g id="edge2" class="edge"><title>Node1&#45;&gt;Node3</title>
<path fill="none" stroke="midnightblue" d="M86.4718,-41.5685C98.3757,-39.2035 111.363,-36.6232 123.991,-34.1145"/>
<polygon fill="midnightblue" stroke="midnightblue" points="85.4521,-38.2026 76.3259,-43.5843 86.8162,-45.0684 85.4521,-38.2026"/>
</g>
</g>
</svg>
