<?xml version="1.0" encoding="UTF-8" standalone="no"?>
<!DOCTYPE svg PUBLIC "-//W3C//DTD SVG 1.1//EN"
 "http://www.w3.org/Graphics/SVG/1.1/DTD/svg11.dtd">
<!-- Generated by graphviz version 2.38.0 (20140413.2041)
 -->
<!-- Title: Graphical Class Hierarchy Pages: 1 -->
<svg width="246pt" height="186pt"
 viewBox="0.00 0.00 246.00 185.50" xmlns="http://www.w3.org/2000/svg" xmlns:xlink="http://www.w3.org/1999/xlink">
<g id="graph0" class="graph" transform="scale(1 1) rotate(0) translate(4 181.5)">
<title>Graphical Class Hierarchy</title>
<!-- Node1 -->
<g id="node1" class="node"><title>Node1</title>
<polygon fill="none" stroke="#bfbfbf" points="0,-76.5 0,-95.5 38,-95.5 38,-76.5 0,-76.5"/>
<text text-anchor="middle" x="19" y="-83.5" font-family="Helvetica,sans-Serif" font-size="10.00">Task</text>
</g>
<!-- Node2 -->
<g id="node2" class="node"><title>Node2</title>
<g id="a_node2"><a xlink:href="classo2_1_1quality__control_1_1checker_1_1CheckRunner.html" target="_top" xlink:title="The class in charge of running the checks on a MonitorObject. ">
<polygon fill="none" stroke="black" points="94.5,-147 94.5,-177 217.5,-177 217.5,-147 94.5,-147"/>
<text text-anchor="start" x="102.5" y="-165" font-family="Helvetica,sans-Serif" font-size="10.00">o2::quality_control</text>
<text text-anchor="middle" x="156" y="-154" font-family="Helvetica,sans-Serif" font-size="10.00">::checker::CheckRunner</text>
</a>
</g>
</g>
<!-- Node1&#45;&gt;Node2 -->
<g id="edge1" class="edge"><title>Node1&#45;&gt;Node2</title>
<path fill="none" stroke="midnightblue" d="M34.2132,-103.497C44.2522,-114.808 58.6141,-129.041 74,-138 80.3373,-141.69 87.289,-144.854 94.3734,-147.557"/>
<polygon fill="midnightblue" stroke="midnightblue" points="36.8723,-101.221 27.7145,-95.893 31.5511,-105.769 36.8723,-101.221"/>
</g>
<!-- Node3 -->
<g id="node3" class="node"><title>Node3</title>
<g id="a_node3"><a xlink:href="classo2_1_1quality__control_1_1example_1_1ExamplePrinterSpec.html" target="_top" xlink:title="Example DPL task to be plugged after a QC task. ">
<polygon fill="none" stroke="black" points="78.5,-98 78.5,-128 233.5,-128 233.5,-98 78.5,-98"/>
<text text-anchor="start" x="86.5" y="-116" font-family="Helvetica,sans-Serif" font-size="10.00">o2::quality_control</text>
<text text-anchor="middle" x="156" y="-105" font-family="Helvetica,sans-Serif" font-size="10.00">::example::ExamplePrinterSpec</text>
</a>
</g>
</g>
<!-- Node1&#45;&gt;Node3 -->
<g id="edge2" class="edge"><title>Node1&#45;&gt;Node3</title>
<path fill="none" stroke="midnightblue" d="M48.1047,-91.6209C57.5249,-93.505 68.5199,-95.704 79.8056,-97.9611"/>
<polygon fill="midnightblue" stroke="midnightblue" points="48.6989,-88.1705 38.2067,-89.6413 47.3261,-95.0346 48.6989,-88.1705"/>
</g>
<!-- Node4 -->
<g id="node4" class="node"><title>Node4</title>
<g id="a_node4"><a xlink:href="classo2_1_1quality__control_1_1postprocessing_1_1PostProcessingDevice.html" target="_top" xlink:title="A class driving the execution of a QC PostProcessing task inside DPL. ">
<polygon fill="none" stroke="black" points="74,-38.5 74,-79.5 238,-79.5 238,-38.5 74,-38.5"/>
<text text-anchor="start" x="82" y="-67.5" font-family="Helvetica,sans-Serif" font-size="10.00">o2::quality_control</text>
<text text-anchor="start" x="82" y="-56.5" font-family="Helvetica,sans-Serif" font-size="10.00">::postprocessing::PostProcessing</text>
<text text-anchor="middle" x="156" y="-45.5" font-family="Helvetica,sans-Serif" font-size="10.00">Device</text>
</a>
</g>
</g>
<!-- Node1&#45;&gt;Node4 -->
<g id="edge3" class="edge"><title>Node1&#45;&gt;Node4</title>
<path fill="none" stroke="midnightblue" d="M48.0456,-80.3909C55.7962,-78.8408 64.6162,-77.0768 73.789,-75.2422"/>
<polygon fill="midnightblue" stroke="midnightblue" points="47.3261,-76.9654 38.2067,-82.3587 48.6989,-83.8295 47.3261,-76.9654"/>
</g>
<!-- Node5 -->
<g id="node5" class="node"><title>Node5</title>
<g id="a_node5"><a xlink:href="classReceiver.html" target="_top" xlink:title="Receiver">
<polygon fill="none" stroke="black" points="128,-0.5 128,-19.5 184,-19.5 184,-0.5 128,-0.5"/>
<text text-anchor="middle" x="156" y="-7.5" font-family="Helvetica,sans-Serif" font-size="10.00">Receiver</text>
</a>
</g>
</g>
<!-- Node1&#45;&gt;Node5 -->
<g id="edge4" class="edge"><title>Node1&#45;&gt;Node5</title>
<path fill="none" stroke="midnightblue" d="M32.3956,-68.1623C42.2286,-55.3573 57.0972,-38.7096 74,-29 90.4075,-19.5749 111.233,-14.8206 127.659,-12.4247"/>
<polygon fill="midnightblue" stroke="midnightblue" points="29.5309,-66.15 26.4297,-76.2808 35.1717,-70.2952 29.5309,-66.15"/>
</g>
</g>
</svg>
