<?xml version="1.0" encoding="UTF-8" standalone="no"?>
<!DOCTYPE svg PUBLIC "-//W3C//DTD SVG 1.1//EN"
 "http://www.w3.org/Graphics/SVG/1.1/DTD/svg11.dtd">
<!-- Generated by graphviz version 2.38.0 (20140413.2041)
 -->
<!-- Title: Graphical Class Hierarchy Pages: 1 -->
<svg width="335pt" height="99pt"
 viewBox="0.00 0.00 335.00 98.50" xmlns="http://www.w3.org/2000/svg" xmlns:xlink="http://www.w3.org/1999/xlink">
<g id="graph0" class="graph" transform="scale(1 1) rotate(0) translate(4 94.5)">
<title>Graphical Class Hierarchy</title>
<!-- Node1 -->
<g id="node1" class="node"><title>Node1</title>
<g id="a_node1"><a xlink:href="classo2_1_1quality__control_1_1checker_1_1AggregatorInterface.html" target="_top" xlink:title="Skeleton of a quality aggregator user algorithm. ">
<polygon fill="none" stroke="black" points="0,-33 0,-63 149,-63 149,-33 0,-33"/>
<text text-anchor="start" x="8" y="-51" font-family="Helvetica,sans-Serif" font-size="10.00">o2::quality_control</text>
<text text-anchor="middle" x="74.5" y="-40" font-family="Helvetica,sans-Serif" font-size="10.00">::checker::AggregatorInterface</text>
</a>
</g>
</g>
<!-- Node2 -->
<g id="node2" class="node"><title>Node2</title>
<g id="a_node2"><a xlink:href="classo2_1_1quality__control_1_1test_1_1SimpleTestAggregator.html" target="_top" xlink:title="o2::quality_control\l::test::SimpleTestAggregator">
<polygon fill="none" stroke="black" points="185,-60 185,-90 327,-90 327,-60 185,-60"/>
<text text-anchor="start" x="193" y="-78" font-family="Helvetica,sans-Serif" font-size="10.00">o2::quality_control</text>
<text text-anchor="middle" x="256" y="-67" font-family="Helvetica,sans-Serif" font-size="10.00">::test::SimpleTestAggregator</text>
</a>
</g>
</g>
<!-- Node1&#45;&gt;Node2 -->
<g id="edge1" class="edge"><title>Node1&#45;&gt;Node2</title>
<path fill="none" stroke="midnightblue" d="M159.067,-60.5699C167.665,-61.8632 176.339,-63.1679 184.771,-64.4363"/>
<polygon fill="midnightblue" stroke="midnightblue" points="159.437,-57.0863 149.027,-59.0598 158.396,-64.0084 159.437,-57.0863"/>
</g>
<!-- Node3 -->
<g id="node3" class="node"><title>Node3</title>
<g id="a_node3"><a xlink:href="classo2_1_1quality__control__modules_1_1skeleton_1_1SkeletonAggregator.html" target="_top" xlink:title="Example QC quality aggregator. ">
<polygon fill="none" stroke="black" points="202.5,-0.5 202.5,-41.5 309.5,-41.5 309.5,-0.5 202.5,-0.5"/>
<text text-anchor="start" x="210.5" y="-29.5" font-family="Helvetica,sans-Serif" font-size="10.00">o2::quality_control</text>
<text text-anchor="start" x="210.5" y="-18.5" font-family="Helvetica,sans-Serif" font-size="10.00">_modules::skeleton::</text>
<text text-anchor="middle" x="256" y="-7.5" font-family="Helvetica,sans-Serif" font-size="10.00">SkeletonAggregator</text>
</a>
</g>
</g>
<!-- Node1&#45;&gt;Node3 -->
<g id="edge2" class="edge"><title>Node1&#45;&gt;Node3</title>
<path fill="none" stroke="midnightblue" d="M159.177,-35.4135C173.917,-33.1964 188.876,-30.9463 202.454,-28.9038"/>
<polygon fill="midnightblue" stroke="midnightblue" points="158.396,-31.9916 149.027,-36.9402 159.437,-38.9137 158.396,-31.9916"/>
</g>
</g>
</svg>
