<?xml version="1.0" encoding="UTF-8" standalone="no"?>
<!DOCTYPE svg PUBLIC "-//W3C//DTD SVG 1.1//EN"
 "http://www.w3.org/Graphics/SVG/1.1/DTD/svg11.dtd">
<!-- Generated by graphviz version 2.38.0 (20140413.2041)
 -->
<!-- Title: Graphical Class Hierarchy Pages: 1 -->
<svg width="203pt" height="88pt"
 viewBox="0.00 0.00 203.00 88.00" xmlns="http://www.w3.org/2000/svg" xmlns:xlink="http://www.w3.org/1999/xlink">
<g id="graph0" class="graph" transform="scale(1 1) rotate(0) translate(4 84)">
<title>Graphical Class Hierarchy</title>
<!-- Node1 -->
<g id="node1" class="node"><title>Node1</title>
<g id="a_node1"><a xlink:href="classTObject.html" target="_top" xlink:title="TObject">
<polygon fill="none" stroke="black" points="0,-30 0,-49 51,-49 51,-30 0,-30"/>
<text text-anchor="middle" x="25.5" y="-37" font-family="Helvetica,sans-Serif" font-size="10.00">TObject</text>
</a>
</g>
</g>
<!-- Node2 -->
<g id="node2" class="node"><title>Node2</title>
<g id="a_node2"><a xlink:href="classo2_1_1quality__control_1_1core_1_1MonitorObject.html" target="_top" xlink:title="This class keeps the meta data about one published object. ">
<polygon fill="none" stroke="black" points="87,-49.5 87,-79.5 195,-79.5 195,-49.5 87,-49.5"/>
<text text-anchor="start" x="95" y="-67.5" font-family="Helvetica,sans-Serif" font-size="10.00">o2::quality_control</text>
<text text-anchor="middle" x="141" y="-56.5" font-family="Helvetica,sans-Serif" font-size="10.00">::core::MonitorObject</text>
</a>
</g>
</g>
<!-- Node1&#45;&gt;Node2 -->
<g id="edge1" class="edge"><title>Node1&#45;&gt;Node2</title>
<path fill="none" stroke="midnightblue" d="M61.0556,-47.1114C69.2537,-48.9171 78.1855,-50.8845 86.9962,-52.8252"/>
<polygon fill="midnightblue" stroke="midnightblue" points="61.6466,-43.6577 51.1278,-44.9246 60.1408,-50.4939 61.6466,-43.6577"/>
</g>
<!-- Node3 -->
<g id="node3" class="node"><title>Node3</title>
<g id="a_node3"><a xlink:href="classo2_1_1quality__control_1_1core_1_1QualityObject.html" target="_top" xlink:title="Encapsulation of a Quality into a TObject that can be streamed and stored. ">
<polygon fill="none" stroke="black" points="87.5,-0.5 87.5,-30.5 194.5,-30.5 194.5,-0.5 87.5,-0.5"/>
<text text-anchor="start" x="95.5" y="-18.5" font-family="Helvetica,sans-Serif" font-size="10.00">o2::quality_control</text>
<text text-anchor="middle" x="141" y="-7.5" font-family="Helvetica,sans-Serif" font-size="10.00">::core::QualityObject</text>
</a>
</g>
</g>
<!-- Node1&#45;&gt;Node3 -->
<g id="edge2" class="edge"><title>Node1&#45;&gt;Node3</title>
<path fill="none" stroke="midnightblue" d="M61.1838,-32.166C69.4909,-30.4094 78.5452,-28.4948 87.4602,-26.6097"/>
<polygon fill="midnightblue" stroke="midnightblue" points="60.1874,-28.7992 51.1278,-34.2924 61.6356,-35.6478 60.1874,-28.7992"/>
</g>
</g>
</svg>
