<?xml version="1.0" encoding="UTF-8" standalone="no"?>
<!DOCTYPE svg PUBLIC "-//W3C//DTD SVG 1.1//EN"
 "http://www.w3.org/Graphics/SVG/1.1/DTD/svg11.dtd">
<!-- Generated by graphviz version 2.38.0 (20140413.2041)
 -->
<!-- Title: Graphical Class Hierarchy Pages: 1 -->
<svg width="267pt" height="301pt"
 viewBox="0.00 0.00 267.00 301.00" xmlns="http://www.w3.org/2000/svg" xmlns:xlink="http://www.w3.org/1999/xlink">
<g id="graph0" class="graph" transform="scale(1 1) rotate(0) translate(4 297)">
<title>Graphical Class Hierarchy</title>
<!-- Node1 -->
<g id="node1" class="node"><title>Node1</title>
<g id="a_node1"><a xlink:href="classo2_1_1framework_1_1Task.html" target="_top" xlink:title="Task">
<polygon fill="none" stroke="black" points="0,-142.5 0,-161.5 38,-161.5 38,-142.5 0,-142.5"/>
<text text-anchor="middle" x="19" y="-149.5" font-family="Helvetica,sans-Serif" font-size="10.00">Task</text>
</a>
</g>
</g>
<!-- Node2 -->
<g id="node2" class="node"><title>Node2</title>
<g id="a_node2"><a xlink:href="classClustersRootFileReaderMFT.html" target="_top" xlink:title="ClustersRootFileReaderMFT">
<polygon fill="none" stroke="black" points="95.5,-273.5 95.5,-292.5 237.5,-292.5 237.5,-273.5 95.5,-273.5"/>
<text text-anchor="middle" x="166.5" y="-280.5" font-family="Helvetica,sans-Serif" font-size="10.00">ClustersRootFileReaderMFT</text>
</a>
</g>
</g>
<!-- Node1&#45;&gt;Node2 -->
<g id="edge1" class="edge"><title>Node1&#45;&gt;Node2</title>
<path fill="none" stroke="midnightblue" d="M23.8468,-171.519C29.9121,-196.901 44.2145,-240.733 74,-264 80.265,-268.894 87.484,-272.61 95.0621,-275.421"/>
<polygon fill="midnightblue" stroke="midnightblue" points="27.2304,-170.609 21.6717,-161.589 20.3925,-172.106 27.2304,-170.609"/>
</g>
<!-- Node3 -->
<g id="node3" class="node"><title>Node3</title>
<g id="a_node3"><a xlink:href="classDigitsRootFileReaderMFT.html" target="_top" xlink:title="DigitsRootFileReaderMFT">
<polygon fill="none" stroke="black" points="101,-235.5 101,-254.5 232,-254.5 232,-235.5 101,-235.5"/>
<text text-anchor="middle" x="166.5" y="-242.5" font-family="Helvetica,sans-Serif" font-size="10.00">DigitsRootFileReaderMFT</text>
</a>
</g>
</g>
<!-- Node1&#45;&gt;Node3 -->
<g id="edge2" class="edge"><title>Node1&#45;&gt;Node3</title>
<path fill="none" stroke="midnightblue" d="M28.6811,-170.794C37.5924,-187.919 53.1037,-212.53 74,-226 82.0457,-231.186 91.2429,-234.991 100.633,-237.776"/>
<polygon fill="midnightblue" stroke="midnightblue" points="31.7675,-169.139 24.2061,-161.718 25.4891,-172.235 31.7675,-169.139"/>
</g>
<!-- Node4 -->
<g id="node4" class="node"><title>Node4</title>
<g id="a_node4"><a xlink:href="classo2_1_1quality__control_1_1checker_1_1AggregatorRunner.html" target="_top" xlink:title="The class in charge of running the aggregators on the QualityObjects. ">
<polygon fill="none" stroke="black" points="95.5,-186 95.5,-216 237.5,-216 237.5,-186 95.5,-186"/>
<text text-anchor="start" x="103.5" y="-204" font-family="Helvetica,sans-Serif" font-size="10.00">o2::quality_control</text>
<text text-anchor="middle" x="166.5" y="-193" font-family="Helvetica,sans-Serif" font-size="10.00">::checker::AggregatorRunner</text>
</a>
</g>
</g>
<!-- Node1&#45;&gt;Node4 -->
<g id="edge3" class="edge"><title>Node1&#45;&gt;Node4</title>
<path fill="none" stroke="midnightblue" d="M47.2036,-165.735C55.6595,-169.693 65.0998,-173.801 74,-177 82.9638,-180.222 92.5626,-183.216 102.049,-185.92"/>
<polygon fill="midnightblue" stroke="midnightblue" points="48.6853,-162.564 38.1561,-161.387 45.6531,-168.873 48.6853,-162.564"/>
</g>
<!-- Node5 -->
<g id="node5" class="node"><title>Node5</title>
<g id="a_node5"><a xlink:href="classo2_1_1quality__control_1_1core_1_1TaskRunner.html" target="_top" xlink:title="A class driving the execution of a QC task inside DPL. ">
<polygon fill="none" stroke="black" points="116,-137 116,-167 217,-167 217,-137 116,-137"/>
<text text-anchor="start" x="124" y="-155" font-family="Helvetica,sans-Serif" font-size="10.00">o2::quality_control</text>
<text text-anchor="middle" x="166.5" y="-144" font-family="Helvetica,sans-Serif" font-size="10.00">::core::TaskRunner</text>
</a>
</g>
</g>
<!-- Node1&#45;&gt;Node5 -->
<g id="edge4" class="edge"><title>Node1&#45;&gt;Node5</title>
<path fill="none" stroke="midnightblue" d="M48.296,-152C67.4523,-152 93.2773,-152 115.81,-152"/>
<polygon fill="midnightblue" stroke="midnightblue" points="48.1335,-148.5 38.1335,-152 48.1335,-155.5 48.1335,-148.5"/>
</g>
<!-- Node6 -->
<g id="node6" class="node"><title>Node6</title>
<g id="a_node6"><a xlink:href="classo2_1_1quality__control_1_1example_1_1ExampleQualityPrinterSpec.html" target="_top" xlink:title="Example DPL task to be plugged after a QC check. ">
<polygon fill="none" stroke="black" points="74,-88 74,-118 259,-118 259,-88 74,-88"/>
<text text-anchor="start" x="82" y="-106" font-family="Helvetica,sans-Serif" font-size="10.00">o2::quality_control</text>
<text text-anchor="middle" x="166.5" y="-95" font-family="Helvetica,sans-Serif" font-size="10.00">::example::ExampleQualityPrinterSpec</text>
</a>
</g>
</g>
<!-- Node1&#45;&gt;Node6 -->
<g id="edge5" class="edge"><title>Node1&#45;&gt;Node6</title>
<path fill="none" stroke="midnightblue" d="M47.5432,-138.795C55.931,-135.036 65.2485,-131.12 74,-128 83.9273,-124.461 94.6097,-121.129 105.049,-118.121"/>
<polygon fill="midnightblue" stroke="midnightblue" points="45.8415,-135.724 38.2132,-143.077 48.7616,-142.086 45.8415,-135.724"/>
</g>
<!-- Node7 -->
<g id="node7" class="node"><title>Node7</title>
<g id="a_node7"><a xlink:href="classo2_1_1quality__control__modules_1_1ft0_1_1FT0DataProducer.html" target="_top" xlink:title="o2::quality_control\l_modules::ft0::FT0DataProducer">
<polygon fill="none" stroke="black" points="87,-39 87,-69 246,-69 246,-39 87,-39"/>
<text text-anchor="start" x="95" y="-57" font-family="Helvetica,sans-Serif" font-size="10.00">o2::quality_control</text>
<text text-anchor="middle" x="166.5" y="-46" font-family="Helvetica,sans-Serif" font-size="10.00">_modules::ft0::FT0DataProducer</text>
</a>
</g>
</g>
<!-- Node1&#45;&gt;Node7 -->
<g id="edge6" class="edge"><title>Node1&#45;&gt;Node7</title>
<path fill="none" stroke="midnightblue" d="M29.3404,-133.01C38.489,-116.355 53.9636,-92.7167 74,-79 79.7072,-75.0929 86.0045,-71.795 92.5448,-69.0114"/>
<polygon fill="midnightblue" stroke="midnightblue" points="26.0022,-131.841 24.4774,-142.326 32.2076,-135.081 26.0022,-131.841"/>
</g>
<!-- Node8 -->
<g id="node8" class="node"><title>Node8</title>
<g id="a_node8"><a xlink:href="classTracksRootFileReaderMFT.html" target="_top" xlink:title="TracksRootFileReaderMFT">
<polygon fill="none" stroke="black" points="99,-0.5 99,-19.5 234,-19.5 234,-0.5 99,-0.5"/>
<text text-anchor="middle" x="166.5" y="-7.5" font-family="Helvetica,sans-Serif" font-size="10.00">TracksRootFileReaderMFT</text>
</a>
</g>
</g>
<!-- Node1&#45;&gt;Node8 -->
<g id="edge7" class="edge"><title>Node1&#45;&gt;Node8</title>
<path fill="none" stroke="midnightblue" d="M23.052,-132.378C28.367,-105.1 41.9869,-56.1346 74,-30 81.1798,-24.1386 89.6985,-19.8959 98.6039,-16.8416"/>
<polygon fill="midnightblue" stroke="midnightblue" points="19.592,-131.845 21.3017,-142.301 26.4855,-133.061 19.592,-131.845"/>
</g>
</g>
</svg>
