<?xml version="1.0" encoding="UTF-8" standalone="no"?>
<!DOCTYPE svg PUBLIC "-//W3C//DTD SVG 1.1//EN"
 "http://www.w3.org/Graphics/SVG/1.1/DTD/svg11.dtd">
<!-- Generated by graphviz version 2.38.0 (20140413.2041)
 -->
<!-- Title: Graphical Class Hierarchy Pages: 1 -->
<svg width="331pt" height="1463pt"
 viewBox="0.00 0.00 331.00 1463.00" xmlns="http://www.w3.org/2000/svg" xmlns:xlink="http://www.w3.org/1999/xlink">
<g id="graph0" class="graph" transform="scale(1 1) rotate(0) translate(4 1459)">
<title>Graphical Class Hierarchy</title>
<!-- Node1 -->
<g id="node1" class="node"><title>Node1</title>
<g id="a_node1"><a xlink:href="classo2_1_1quality__control_1_1core_1_1TaskInterface.html" target="_top" xlink:title="Skeleton of a QC task. ">
<polygon fill="none" stroke="black" points="0,-728.5 0,-758.5 107,-758.5 107,-728.5 0,-728.5"/>
<text text-anchor="start" x="8" y="-746.5" font-family="Helvetica,sans-Serif" font-size="10.00">o2::quality_control</text>
<text text-anchor="middle" x="53.5" y="-735.5" font-family="Helvetica,sans-Serif" font-size="10.00">::core::TaskInterface</text>
</a>
</g>
</g>
<!-- Node2 -->
<g id="node2" class="node"><title>Node2</title>
<g id="a_node2"><a xlink:href="classo2_1_1quality__control_1_1test_1_1TestTask.html" target="_top" xlink:title="o2::quality_control\l::test::TestTask">
<polygon fill="none" stroke="black" points="185,-1424.5 185,-1454.5 281,-1454.5 281,-1424.5 185,-1424.5"/>
<text text-anchor="start" x="193" y="-1442.5" font-family="Helvetica,sans-Serif" font-size="10.00">o2::quality_control</text>
<text text-anchor="middle" x="233" y="-1431.5" font-family="Helvetica,sans-Serif" font-size="10.00">::test::TestTask</text>
</a>
</g>
</g>
<!-- Node1&#45;&gt;Node2 -->
<g id="edge1" class="edge"><title>Node1&#45;&gt;Node2</title>
<path fill="none" stroke="midnightblue" d="M54.2268,-768.709C53.5534,-878.841 56.4383,-1316.64 143,-1415.5 153.542,-1427.54 169.429,-1433.84 184.876,-1437.04"/>
<polygon fill="midnightblue" stroke="midnightblue" points="57.7279,-768.576 54.3056,-758.549 50.7281,-768.521 57.7279,-768.576"/>
</g>
<!-- Node3 -->
<g id="node3" class="node"><title>Node3</title>
<g id="a_node3"><a xlink:href="classo2_1_1quality__control__modules_1_1daq_1_1DaqTask.html" target="_top" xlink:title="Dataflow task It does only look at the header and plots sizes (e.g. payload). It also can print the h...">
<polygon fill="none" stroke="black" points="170,-1375.5 170,-1405.5 296,-1405.5 296,-1375.5 170,-1375.5"/>
<text text-anchor="start" x="178" y="-1393.5" font-family="Helvetica,sans-Serif" font-size="10.00">o2::quality_control</text>
<text text-anchor="middle" x="233" y="-1382.5" font-family="Helvetica,sans-Serif" font-size="10.00">_modules::daq::DaqTask</text>
</a>
</g>
</g>
<!-- Node1&#45;&gt;Node3 -->
<g id="edge2" class="edge"><title>Node1&#45;&gt;Node3</title>
<path fill="none" stroke="midnightblue" d="M54.5175,-768.865C55.1107,-874.181 62.6853,-1275.71 143,-1366.5 150.104,-1374.53 159.586,-1380 169.714,-1383.7"/>
<polygon fill="midnightblue" stroke="midnightblue" points="58.0164,-768.548 54.4773,-758.561 51.0165,-768.575 58.0164,-768.548"/>
</g>
<!-- Node4 -->
<g id="node4" class="node"><title>Node4</title>
<g id="a_node4"><a xlink:href="classo2_1_1quality__control__modules_1_1emcal_1_1DigitsQcTask.html" target="_top" xlink:title="QC Task for EMCAL digits. ">
<polygon fill="none" stroke="black" points="154.5,-1326.5 154.5,-1356.5 311.5,-1356.5 311.5,-1326.5 154.5,-1326.5"/>
<text text-anchor="start" x="162.5" y="-1344.5" font-family="Helvetica,sans-Serif" font-size="10.00">o2::quality_control</text>
<text text-anchor="middle" x="233" y="-1333.5" font-family="Helvetica,sans-Serif" font-size="10.00">_modules::emcal::DigitsQcTask</text>
</a>
</g>
</g>
<!-- Node1&#45;&gt;Node4 -->
<g id="edge3" class="edge"><title>Node1&#45;&gt;Node4</title>
<path fill="none" stroke="midnightblue" d="M54.8563,-768.795C56.7802,-868.738 68.8568,-1234.68 143,-1317.5 146.309,-1321.2 150.122,-1324.35 154.268,-1327.04"/>
<polygon fill="midnightblue" stroke="midnightblue" points="58.3543,-768.643 54.6801,-758.706 51.3554,-768.766 58.3543,-768.643"/>
</g>
<!-- Node5 -->
<g id="node5" class="node"><title>Node5</title>
<g id="a_node5"><a xlink:href="classo2_1_1quality__control__modules_1_1emcal_1_1RawTask.html" target="_top" xlink:title="Example Quality Control DPL Task It is final because there is no reason to derive from it...">
<polygon fill="none" stroke="black" points="163.5,-1277.5 163.5,-1307.5 302.5,-1307.5 302.5,-1277.5 163.5,-1277.5"/>
<text text-anchor="start" x="171.5" y="-1295.5" font-family="Helvetica,sans-Serif" font-size="10.00">o2::quality_control</text>
<text text-anchor="middle" x="233" y="-1284.5" font-family="Helvetica,sans-Serif" font-size="10.00">_modules::emcal::RawTask</text>
</a>
</g>
</g>
<!-- Node1&#45;&gt;Node5 -->
<g id="edge4" class="edge"><title>Node1&#45;&gt;Node5</title>
<path fill="none" stroke="midnightblue" d="M55.2555,-768.747C58.591,-863.128 75.0141,-1193.62 143,-1268.5 148.594,-1274.66 155.588,-1279.31 163.181,-1282.81"/>
<polygon fill="midnightblue" stroke="midnightblue" points="58.7511,-768.555 54.9184,-758.677 51.755,-768.789 58.7511,-768.555"/>
</g>
<!-- Node6 -->
<g id="node6" class="node"><title>Node6</title>
<g id="a_node6"><a xlink:href="classo2_1_1quality__control__modules_1_1example_1_1BenchmarkTask.html" target="_top" xlink:title="Quality Control Task for benchmarking It publishes a number of TH1F (configurable, see example.ini in module QualityControl). The histos are reset and refilled (1000 random) at EOC. They have 1000 bins. The monitoring of data blocks is empty (sleep 100 ms). ">
<polygon fill="none" stroke="black" points="143.5,-1228.5 143.5,-1258.5 322.5,-1258.5 322.5,-1228.5 143.5,-1228.5"/>
<text text-anchor="start" x="151.5" y="-1246.5" font-family="Helvetica,sans-Serif" font-size="10.00">o2::quality_control</text>
<text text-anchor="middle" x="233" y="-1235.5" font-family="Helvetica,sans-Serif" font-size="10.00">_modules::example::BenchmarkTask</text>
</a>
</g>
</g>
<!-- Node1&#45;&gt;Node6 -->
<g id="edge5" class="edge"><title>Node1&#45;&gt;Node6</title>
<path fill="none" stroke="midnightblue" d="M55.7463,-768.941C60.6105,-857.803 81.205,-1152.58 143,-1219.5 146.149,-1222.91 149.726,-1225.85 153.594,-1228.4"/>
<polygon fill="midnightblue" stroke="midnightblue" points="59.2282,-768.505 55.2065,-758.704 52.2379,-768.874 59.2282,-768.505"/>
</g>
<!-- Node7 -->
<g id="node7" class="node"><title>Node7</title>
<g id="a_node7"><a xlink:href="classo2_1_1quality__control__modules_1_1example_1_1ExampleTask.html" target="_top" xlink:title="Example Quality Control Task It is final because there is no reason to derive from it...">
<polygon fill="none" stroke="black" points="149.5,-1179.5 149.5,-1209.5 316.5,-1209.5 316.5,-1179.5 149.5,-1179.5"/>
<text text-anchor="start" x="157.5" y="-1197.5" font-family="Helvetica,sans-Serif" font-size="10.00">o2::quality_control</text>
<text text-anchor="middle" x="233" y="-1186.5" font-family="Helvetica,sans-Serif" font-size="10.00">_modules::example::ExampleTask</text>
</a>
</g>
</g>
<!-- Node1&#45;&gt;Node7 -->
<g id="edge6" class="edge"><title>Node1&#45;&gt;Node7</title>
<path fill="none" stroke="midnightblue" d="M56.3436,-769.012C62.8388,-851.867 87.3374,-1111.45 143,-1170.5 146.183,-1173.88 149.788,-1176.8 153.677,-1179.32"/>
<polygon fill="midnightblue" stroke="midnightblue" points="59.827,-768.66 55.5764,-758.955 52.8473,-769.193 59.827,-768.66"/>
</g>
<!-- Node8 -->
<g id="node8" class="node"><title>Node8</title>
<g id="a_node8"><a xlink:href="classo2_1_1quality__control__modules_1_1ft0_1_1BasicDigitQcTask.html" target="_top" xlink:title="o2::quality_control\l_modules::ft0::BasicDigitQcTask">
<polygon fill="none" stroke="black" points="152.5,-1130.5 152.5,-1160.5 313.5,-1160.5 313.5,-1130.5 152.5,-1130.5"/>
<text text-anchor="start" x="160.5" y="-1148.5" font-family="Helvetica,sans-Serif" font-size="10.00">o2::quality_control</text>
<text text-anchor="middle" x="233" y="-1137.5" font-family="Helvetica,sans-Serif" font-size="10.00">_modules::ft0::BasicDigitQcTask</text>
</a>
</g>
</g>
<!-- Node1&#45;&gt;Node8 -->
<g id="edge7" class="edge"><title>Node1&#45;&gt;Node8</title>
<path fill="none" stroke="midnightblue" d="M57.0901,-769.048C65.3421,-845.481 93.4279,-1070.24 143,-1121.5 146.338,-1124.95 150.115,-1127.92 154.184,-1130.48"/>
<polygon fill="midnightblue" stroke="midnightblue" points="60.5478,-768.463 56.0163,-758.886 53.5865,-769.198 60.5478,-768.463"/>
</g>
<!-- Node9 -->
<g id="node9" class="node"><title>Node9</title>
<g id="a_node9"><a xlink:href="classo2_1_1quality__control__modules_1_1hmpid_1_1HmpidTask.html" target="_top" xlink:title="Example Quality Control DPL Task. ">
<polygon fill="none" stroke="black" points="159.5,-1081.5 159.5,-1111.5 306.5,-1111.5 306.5,-1081.5 159.5,-1081.5"/>
<text text-anchor="start" x="167.5" y="-1099.5" font-family="Helvetica,sans-Serif" font-size="10.00">o2::quality_control</text>
<text text-anchor="middle" x="233" y="-1088.5" font-family="Helvetica,sans-Serif" font-size="10.00">_modules::hmpid::HmpidTask</text>
</a>
</g>
</g>
<!-- Node1&#45;&gt;Node9 -->
<g id="edge8" class="edge"><title>Node1&#45;&gt;Node9</title>
<path fill="none" stroke="midnightblue" d="M58.0293,-768.918C68.1636,-838.346 99.4423,-1028.92 143,-1072.5 147.751,-1077.25 153.339,-1081.09 159.361,-1084.19"/>
<polygon fill="midnightblue" stroke="midnightblue" points="61.4705,-768.258 56.5857,-758.857 54.5415,-769.253 61.4705,-768.258"/>
</g>
<!-- Node10 -->
<g id="node10" class="node"><title>Node10</title>
<g id="a_node10"><a xlink:href="classo2_1_1quality__control__modules_1_1its_1_1ITSClusterTask.html" target="_top" xlink:title="o2::quality_control\l_modules::its::ITSClusterTask">
<polygon fill="none" stroke="black" points="158,-1032.5 158,-1062.5 308,-1062.5 308,-1032.5 158,-1032.5"/>
<text text-anchor="start" x="166" y="-1050.5" font-family="Helvetica,sans-Serif" font-size="10.00">o2::quality_control</text>
<text text-anchor="middle" x="233" y="-1039.5" font-family="Helvetica,sans-Serif" font-size="10.00">_modules::its::ITSClusterTask</text>
</a>
</g>
</g>
<!-- Node1&#45;&gt;Node10 -->
<g id="edge9" class="edge"><title>Node1&#45;&gt;Node10</title>
<path fill="none" stroke="midnightblue" d="M54.8198,-768.685C56.9269,-823.307 69.8176,-953.38 143,-1023.5 147.391,-1027.71 152.439,-1031.19 157.853,-1034.08"/>
<polygon fill="midnightblue" stroke="midnightblue" points="58.3133,-768.407 54.5217,-758.514 51.3163,-768.612 58.3133,-768.407"/>
</g>
<!-- Node11 -->
<g id="node11" class="node"><title>Node11</title>
<g id="a_node11"><a xlink:href="classo2_1_1quality__control__modules_1_1its_1_1ITSFeeTask.html" target="_top" xlink:title="ITS FEE task aiming at 100% online data integrity checking. ">
<polygon fill="none" stroke="black" points="165.5,-983.5 165.5,-1013.5 300.5,-1013.5 300.5,-983.5 165.5,-983.5"/>
<text text-anchor="start" x="173.5" y="-1001.5" font-family="Helvetica,sans-Serif" font-size="10.00">o2::quality_control</text>
<text text-anchor="middle" x="233" y="-990.5" font-family="Helvetica,sans-Serif" font-size="10.00">_modules::its::ITSFeeTask</text>
</a>
</g>
</g>
<!-- Node1&#45;&gt;Node11 -->
<g id="edge10" class="edge"><title>Node1&#45;&gt;Node11</title>
<path fill="none" stroke="midnightblue" d="M56.764,-768.518C62.4184,-815.907 81.4753,-918.977 143,-974.5 149.416,-980.29 157.085,-984.705 165.193,-988.067"/>
<polygon fill="midnightblue" stroke="midnightblue" points="60.2358,-768.068 55.6729,-758.506 53.277,-768.826 60.2358,-768.068"/>
</g>
<!-- Node12 -->
<g id="node12" class="node"><title>Node12</title>
<g id="a_node12"><a xlink:href="classo2_1_1quality__control__modules_1_1its_1_1ITSFhrTask.html" target="_top" xlink:title="ITS Fake&#45;hit rate real&#45;time data processing task Working with the chain of &quot;Detector &#45;&gt; RU &#45;&gt; CRU &#45;&gt; ...">
<polygon fill="none" stroke="black" points="166.5,-934.5 166.5,-964.5 299.5,-964.5 299.5,-934.5 166.5,-934.5"/>
<text text-anchor="start" x="174.5" y="-952.5" font-family="Helvetica,sans-Serif" font-size="10.00">o2::quality_control</text>
<text text-anchor="middle" x="233" y="-941.5" font-family="Helvetica,sans-Serif" font-size="10.00">_modules::its::ITSFhrTask</text>
</a>
</g>
</g>
<!-- Node1&#45;&gt;Node12 -->
<g id="edge11" class="edge"><title>Node1&#45;&gt;Node12</title>
<path fill="none" stroke="midnightblue" d="M59.6505,-768.446C69.1034,-807.832 93.017,-884.18 143,-925.5 149.784,-931.108 157.761,-935.414 166.105,-938.719"/>
<polygon fill="midnightblue" stroke="midnightblue" points="63.0412,-767.573 57.4061,-758.601 56.2163,-769.128 63.0412,-767.573"/>
</g>
<!-- Node13 -->
<g id="node13" class="node"><title>Node13</title>
<g id="a_node13"><a xlink:href="classo2_1_1quality__control__modules_1_1its_1_1ITSRawTask.html" target="_top" xlink:title="o2::quality_control\l_modules::its::ITSRawTask">
<polygon fill="none" stroke="black" points="163.5,-885.5 163.5,-915.5 302.5,-915.5 302.5,-885.5 163.5,-885.5"/>
<text text-anchor="start" x="171.5" y="-903.5" font-family="Helvetica,sans-Serif" font-size="10.00">o2::quality_control</text>
<text text-anchor="middle" x="233" y="-892.5" font-family="Helvetica,sans-Serif" font-size="10.00">_modules::its::ITSRawTask</text>
</a>
</g>
</g>
<!-- Node1&#45;&gt;Node13 -->
<g id="edge12" class="edge"><title>Node1&#45;&gt;Node13</title>
<path fill="none" stroke="midnightblue" d="M64.4161,-768.274C77.7583,-798.416 104.362,-848.71 143,-876.5 149.106,-880.892 155.97,-884.48 163.108,-887.412"/>
<polygon fill="midnightblue" stroke="midnightblue" points="67.5517,-766.705 60.4016,-758.886 61.1155,-769.457 67.5517,-766.705"/>
</g>
<!-- Node14 -->
<g id="node14" class="node"><title>Node14</title>
<g id="a_node14"><a xlink:href="classo2_1_1quality__control__modules_1_1its_1_1ITSTrackTask.html" target="_top" xlink:title="o2::quality_control\l_modules::its::ITSTrackTask">
<polygon fill="none" stroke="black" points="161.5,-836.5 161.5,-866.5 304.5,-866.5 304.5,-836.5 161.5,-836.5"/>
<text text-anchor="start" x="169.5" y="-854.5" font-family="Helvetica,sans-Serif" font-size="10.00">o2::quality_control</text>
<text text-anchor="middle" x="233" y="-843.5" font-family="Helvetica,sans-Serif" font-size="10.00">_modules::its::ITSTrackTask</text>
</a>
</g>
</g>
<!-- Node1&#45;&gt;Node14 -->
<g id="edge13" class="edge"><title>Node1&#45;&gt;Node14</title>
<path fill="none" stroke="midnightblue" d="M72.7508,-766.26C89.1985,-785.303 115.035,-811.808 143,-827.5 149.141,-830.946 155.8,-833.916 162.617,-836.473"/>
<polygon fill="midnightblue" stroke="midnightblue" points="75.4204,-763.996 66.2978,-758.609 70.0694,-768.509 75.4204,-763.996"/>
</g>
<!-- Node15 -->
<g id="node15" class="node"><title>Node15</title>
<g id="a_node15"><a xlink:href="classo2_1_1quality__control__modules_1_1mft_1_1BasicClusterQcTask.html" target="_top" xlink:title="MFT Cluster QC task. ">
<polygon fill="none" stroke="black" points="162.5,-777 162.5,-818 303.5,-818 303.5,-777 162.5,-777"/>
<text text-anchor="start" x="170.5" y="-806" font-family="Helvetica,sans-Serif" font-size="10.00">o2::quality_control</text>
<text text-anchor="start" x="170.5" y="-795" font-family="Helvetica,sans-Serif" font-size="10.00">_modules::mft::BasicCluster</text>
<text text-anchor="middle" x="233" y="-784" font-family="Helvetica,sans-Serif" font-size="10.00">QcTask</text>
</a>
</g>
</g>
<!-- Node1&#45;&gt;Node15 -->
<g id="edge14" class="edge"><title>Node1&#45;&gt;Node15</title>
<path fill="none" stroke="midnightblue" d="M113.861,-761.559C130.133,-766.51 147.892,-771.912 164.58,-776.989"/>
<polygon fill="midnightblue" stroke="midnightblue" points="114.529,-758.104 103.944,-758.542 112.492,-764.801 114.529,-758.104"/>
</g>
<!-- Node16 -->
<g id="node16" class="node"><title>Node16</title>
<g id="a_node16"><a xlink:href="classo2_1_1quality__control__modules_1_1mft_1_1BasicDigitQcTask.html" target="_top" xlink:title="MFT Digit QC task. ">
<polygon fill="none" stroke="black" points="151,-728.5 151,-758.5 315,-758.5 315,-728.5 151,-728.5"/>
<text text-anchor="start" x="159" y="-746.5" font-family="Helvetica,sans-Serif" font-size="10.00">o2::quality_control</text>
<text text-anchor="middle" x="233" y="-735.5" font-family="Helvetica,sans-Serif" font-size="10.00">_modules::mft::BasicDigitQcTask</text>
</a>
</g>
</g>
<!-- Node1&#45;&gt;Node16 -->
<g id="edge15" class="edge"><title>Node1&#45;&gt;Node16</title>
<path fill="none" stroke="midnightblue" d="M117.443,-743.5C128.252,-743.5 139.619,-743.5 150.825,-743.5"/>
<polygon fill="midnightblue" stroke="midnightblue" points="117.275,-740 107.275,-743.5 117.275,-747 117.275,-740"/>
</g>
<!-- Node17 -->
<g id="node17" class="node"><title>Node17</title>
<g id="a_node17"><a xlink:href="classo2_1_1quality__control__modules_1_1mft_1_1BasicTrackQcTask.html" target="_top" xlink:title="MFT Track QC task. ">
<polygon fill="none" stroke="black" points="148.5,-679.5 148.5,-709.5 317.5,-709.5 317.5,-679.5 148.5,-679.5"/>
<text text-anchor="start" x="156.5" y="-697.5" font-family="Helvetica,sans-Serif" font-size="10.00">o2::quality_control</text>
<text text-anchor="middle" x="233" y="-686.5" font-family="Helvetica,sans-Serif" font-size="10.00">_modules::mft::BasicTrackQcTask</text>
</a>
</g>
</g>
<!-- Node1&#45;&gt;Node17 -->
<g id="edge16" class="edge"><title>Node1&#45;&gt;Node17</title>
<path fill="none" stroke="midnightblue" d="M117.095,-726.22C136.832,-720.772 158.464,-714.8 177.582,-709.522"/>
<polygon fill="midnightblue" stroke="midnightblue" points="115.983,-722.896 107.275,-728.931 117.846,-729.644 115.983,-722.896"/>
</g>
<!-- Node18 -->
<g id="node18" class="node"><title>Node18</title>
<g id="a_node18"><a xlink:href="classo2_1_1quality__control__modules_1_1mid_1_1RawQcTask.html" target="_top" xlink:title="Count number of digits per detector elements. ">
<polygon fill="none" stroke="black" points="162.5,-630.5 162.5,-660.5 303.5,-660.5 303.5,-630.5 162.5,-630.5"/>
<text text-anchor="start" x="170.5" y="-648.5" font-family="Helvetica,sans-Serif" font-size="10.00">o2::quality_control</text>
<text text-anchor="middle" x="233" y="-637.5" font-family="Helvetica,sans-Serif" font-size="10.00">_modules::mid::RawQcTask</text>
</a>
</g>
</g>
<!-- Node1&#45;&gt;Node18 -->
<g id="edge17" class="edge"><title>Node1&#45;&gt;Node18</title>
<path fill="none" stroke="midnightblue" d="M75.9185,-721.423C92.7752,-705.212 117.592,-683.785 143,-670.5 150.253,-666.707 158.149,-663.434 166.143,-660.623"/>
<polygon fill="midnightblue" stroke="midnightblue" points="73.4401,-718.952 68.7601,-728.457 78.3462,-723.945 73.4401,-718.952"/>
</g>
<!-- Node19 -->
<g id="node19" class="node"><title>Node19</title>
<g id="a_node19"><a xlink:href="classo2_1_1quality__control__modules_1_1muonchambers_1_1PedestalsTask.html" target="_top" xlink:title="Quality Control Task for the analysis of MCH pedestal data. ">
<polygon fill="none" stroke="black" points="167.5,-571 167.5,-612 298.5,-612 298.5,-571 167.5,-571"/>
<text text-anchor="start" x="175.5" y="-600" font-family="Helvetica,sans-Serif" font-size="10.00">o2::quality_control</text>
<text text-anchor="start" x="175.5" y="-589" font-family="Helvetica,sans-Serif" font-size="10.00">_modules::muonchambers</text>
<text text-anchor="middle" x="233" y="-578" font-family="Helvetica,sans-Serif" font-size="10.00">::PedestalsTask</text>
</a>
</g>
</g>
<!-- Node1&#45;&gt;Node19 -->
<g id="edge18" class="edge"><title>Node1&#45;&gt;Node19</title>
<path fill="none" stroke="midnightblue" d="M66.0854,-719.48C80.4849,-692.039 107.551,-647.573 143,-621.5 150.356,-616.09 158.752,-611.611 167.382,-607.915"/>
<polygon fill="midnightblue" stroke="midnightblue" points="62.9523,-717.92 61.5274,-728.419 69.1883,-721.1 62.9523,-717.92"/>
</g>
<!-- Node20 -->
<g id="node20" class="node"><title>Node20</title>
<g id="a_node20"><a xlink:href="classo2_1_1quality__control__modules_1_1muonchambers_1_1PhysicsTaskDigits.html" target="_top" xlink:title="Quality Control Task for the analysis of MCH physics data. ">
<polygon fill="none" stroke="black" points="167.5,-511 167.5,-552 298.5,-552 298.5,-511 167.5,-511"/>
<text text-anchor="start" x="175.5" y="-540" font-family="Helvetica,sans-Serif" font-size="10.00">o2::quality_control</text>
<text text-anchor="start" x="175.5" y="-529" font-family="Helvetica,sans-Serif" font-size="10.00">_modules::muonchambers</text>
<text text-anchor="middle" x="233" y="-518" font-family="Helvetica,sans-Serif" font-size="10.00">::PhysicsTaskDigits</text>
</a>
</g>
</g>
<!-- Node1&#45;&gt;Node20 -->
<g id="edge19" class="edge"><title>Node1&#45;&gt;Node20</title>
<path fill="none" stroke="midnightblue" d="M60.0912,-718.369C70.0543,-679.321 94.5401,-604.145 143,-561.5 150.1,-555.252 158.551,-550.296 167.376,-546.366"/>
<polygon fill="midnightblue" stroke="midnightblue" points="56.6219,-717.824 57.6583,-728.368 63.4234,-719.479 56.6219,-717.824"/>
</g>
<!-- Node21 -->
<g id="node21" class="node"><title>Node21</title>
<g id="a_node21"><a xlink:href="classo2_1_1quality__control__modules_1_1muonchambers_1_1PhysicsTaskPreclusters.html" target="_top" xlink:title="Quality Control Task for the analysis of MCH physics data. ">
<polygon fill="none" stroke="black" points="167.5,-451 167.5,-492 298.5,-492 298.5,-451 167.5,-451"/>
<text text-anchor="start" x="175.5" y="-480" font-family="Helvetica,sans-Serif" font-size="10.00">o2::quality_control</text>
<text text-anchor="start" x="175.5" y="-469" font-family="Helvetica,sans-Serif" font-size="10.00">_modules::muonchambers</text>
<text text-anchor="middle" x="233" y="-458" font-family="Helvetica,sans-Serif" font-size="10.00">::PhysicsTaskPreclusters</text>
</a>
</g>
</g>
<!-- Node1&#45;&gt;Node21 -->
<g id="edge20" class="edge"><title>Node1&#45;&gt;Node21</title>
<path fill="none" stroke="midnightblue" d="M56.6369,-718.332C62.1063,-669.642 80.9074,-562.03 143,-501.5 149.889,-494.785 158.329,-489.571 167.241,-485.524"/>
<polygon fill="midnightblue" stroke="midnightblue" points="53.1509,-718.017 55.6117,-728.322 60.1143,-718.731 53.1509,-718.017"/>
</g>
<!-- Node22 -->
<g id="node22" class="node"><title>Node22</title>
<g id="a_node22"><a xlink:href="classo2_1_1quality__control__modules_1_1phos_1_1DigitsQcTask.html" target="_top" xlink:title="QC Task for PHOS digits. ">
<polygon fill="none" stroke="black" points="157,-402.5 157,-432.5 309,-432.5 309,-402.5 157,-402.5"/>
<text text-anchor="start" x="165" y="-420.5" font-family="Helvetica,sans-Serif" font-size="10.00">o2::quality_control</text>
<text text-anchor="middle" x="233" y="-409.5" font-family="Helvetica,sans-Serif" font-size="10.00">_modules::phos::DigitsQcTask</text>
</a>
</g>
</g>
<!-- Node1&#45;&gt;Node22 -->
<g id="edge21" class="edge"><title>Node1&#45;&gt;Node22</title>
<path fill="none" stroke="midnightblue" d="M54.1306,-718.343C54.7123,-660.738 64.494,-518.323 143,-441.5 147.118,-437.471 151.837,-434.1 156.908,-431.282"/>
<polygon fill="midnightblue" stroke="midnightblue" points="50.6306,-718.379 54.1168,-728.384 57.6306,-718.389 50.6306,-718.379"/>
</g>
<!-- Node23 -->
<g id="node23" class="node"><title>Node23</title>
<g id="a_node23"><a xlink:href="classo2_1_1quality__control__modules_1_1phos_1_1RawTask.html" target="_top" xlink:title="PHOS Quality Control DPL Task. ">
<polygon fill="none" stroke="black" points="166,-353.5 166,-383.5 300,-383.5 300,-353.5 166,-353.5"/>
<text text-anchor="start" x="174" y="-371.5" font-family="Helvetica,sans-Serif" font-size="10.00">o2::quality_control</text>
<text text-anchor="middle" x="233" y="-360.5" font-family="Helvetica,sans-Serif" font-size="10.00">_modules::phos::RawTask</text>
</a>
</g>
</g>
<!-- Node1&#45;&gt;Node23 -->
<g id="edge22" class="edge"><title>Node1&#45;&gt;Node23</title>
<path fill="none" stroke="midnightblue" d="M57.5695,-718.441C66.8841,-646.369 97.0325,-440.687 143,-393.5 149.384,-386.947 157.337,-382.073 165.844,-378.455"/>
<polygon fill="midnightblue" stroke="midnightblue" points="54.0869,-718.083 56.3004,-728.444 61.0312,-718.964 54.0869,-718.083"/>
</g>
<!-- Node24 -->
<g id="node24" class="node"><title>Node24</title>
<g id="a_node24"><a xlink:href="classo2_1_1quality__control__modules_1_1skeleton_1_1SkeletonTask.html" target="_top" xlink:title="Example Quality Control DPL Task. ">
<polygon fill="none" stroke="black" points="179.5,-294 179.5,-335 286.5,-335 286.5,-294 179.5,-294"/>
<text text-anchor="start" x="187.5" y="-323" font-family="Helvetica,sans-Serif" font-size="10.00">o2::quality_control</text>
<text text-anchor="start" x="187.5" y="-312" font-family="Helvetica,sans-Serif" font-size="10.00">_modules::skeleton::</text>
<text text-anchor="middle" x="233" y="-301" font-family="Helvetica,sans-Serif" font-size="10.00">SkeletonTask</text>
</a>
</g>
</g>
<!-- Node1&#45;&gt;Node24 -->
<g id="edge23" class="edge"><title>Node1&#45;&gt;Node24</title>
<path fill="none" stroke="midnightblue" d="M56.8792,-718.248C64.772,-639.562 92.5001,-400.706 143,-344.5 152.481,-333.948 165.797,-327.103 179.246,-322.664"/>
<polygon fill="midnightblue" stroke="midnightblue" points="53.3909,-717.958 55.8968,-728.253 60.3574,-718.643 53.3909,-717.958"/>
</g>
<!-- Node25 -->
<g id="node25" class="node"><title>Node25</title>
<g id="a_node25"><a xlink:href="classo2_1_1quality__control__modules_1_1tof_1_1TaskCompressedData.html" target="_top" xlink:title="TOF Quality Control DPL Task for TOF Compressed data. ">
<polygon fill="none" stroke="black" points="143,-245.5 143,-275.5 323,-275.5 323,-245.5 143,-245.5"/>
<text text-anchor="start" x="151" y="-263.5" font-family="Helvetica,sans-Serif" font-size="10.00">o2::quality_control</text>
<text text-anchor="middle" x="233" y="-252.5" font-family="Helvetica,sans-Serif" font-size="10.00">_modules::tof::TaskCompressedData</text>
</a>
</g>
</g>
<!-- Node1&#45;&gt;Node25 -->
<g id="edge24" class="edge"><title>Node1&#45;&gt;Node25</title>
<path fill="none" stroke="midnightblue" d="M55.9336,-718.123C61.3407,-631.41 83.3158,-348.703 143,-284.5 146.16,-281.101 149.746,-278.164 153.621,-275.628"/>
<polygon fill="midnightblue" stroke="midnightblue" points="52.4246,-718.168 55.3163,-728.361 59.4119,-718.589 52.4246,-718.168"/>
</g>
<!-- Node26 -->
<g id="node26" class="node"><title>Node26</title>
<g id="a_node26"><a xlink:href="classo2_1_1quality__control__modules_1_1tof_1_1TaskDiagnostics.html" target="_top" xlink:title="TOF Quality Control DPL Task for TOF Compressed data. ">
<polygon fill="none" stroke="black" points="155.5,-196.5 155.5,-226.5 310.5,-226.5 310.5,-196.5 155.5,-196.5"/>
<text text-anchor="start" x="163.5" y="-214.5" font-family="Helvetica,sans-Serif" font-size="10.00">o2::quality_control</text>
<text text-anchor="middle" x="233" y="-203.5" font-family="Helvetica,sans-Serif" font-size="10.00">_modules::tof::TaskDiagnostics</text>
</a>
</g>
</g>
<!-- Node1&#45;&gt;Node26 -->
<g id="edge25" class="edge"><title>Node1&#45;&gt;Node26</title>
<path fill="none" stroke="midnightblue" d="M55.4472,-718.248C59.4146,-625.993 77.6578,-308.801 143,-236.5 146.551,-232.571 150.666,-229.239 155.139,-226.416"/>
<polygon fill="midnightblue" stroke="midnightblue" points="51.9456,-718.217 55.032,-728.352 58.9397,-718.504 51.9456,-718.217"/>
</g>
<!-- Node27 -->
<g id="node27" class="node"><title>Node27</title>
<g id="a_node27"><a xlink:href="classo2_1_1quality__control__modules_1_1tof_1_1TaskDigits.html" target="_top" xlink:title="TOF Quality Control DPL Task. ">
<polygon fill="none" stroke="black" points="168.5,-147.5 168.5,-177.5 297.5,-177.5 297.5,-147.5 168.5,-147.5"/>
<text text-anchor="start" x="176.5" y="-165.5" font-family="Helvetica,sans-Serif" font-size="10.00">o2::quality_control</text>
<text text-anchor="middle" x="233" y="-154.5" font-family="Helvetica,sans-Serif" font-size="10.00">_modules::tof::TaskDigits</text>
</a>
</g>
</g>
<!-- Node1&#45;&gt;Node27 -->
<g id="edge26" class="edge"><title>Node1&#45;&gt;Node27</title>
<path fill="none" stroke="midnightblue" d="M55.0244,-718.077C57.5615,-620 71.58,-267.725 143,-187.5 149.83,-179.828 158.807,-174.43 168.432,-170.647"/>
<polygon fill="midnightblue" stroke="midnightblue" points="51.5212,-718.173 54.7796,-728.254 58.5192,-718.341 51.5212,-718.173"/>
</g>
<!-- Node28 -->
<g id="node28" class="node"><title>Node28</title>
<g id="a_node28"><a xlink:href="classo2_1_1quality__control__modules_1_1tpc_1_1Clusters.html" target="_top" xlink:title="Example Quality Control DPL Task It is final because there is no reason to derive from it...">
<polygon fill="none" stroke="black" points="172.5,-98.5 172.5,-128.5 293.5,-128.5 293.5,-98.5 172.5,-98.5"/>
<text text-anchor="start" x="180.5" y="-116.5" font-family="Helvetica,sans-Serif" font-size="10.00">o2::quality_control</text>
<text text-anchor="middle" x="233" y="-105.5" font-family="Helvetica,sans-Serif" font-size="10.00">_modules::tpc::Clusters</text>
</a>
</g>
</g>
<!-- Node1&#45;&gt;Node28 -->
<g id="edge27" class="edge"><title>Node1&#45;&gt;Node28</title>
<path fill="none" stroke="midnightblue" d="M54.6608,-718.213C55.8318,-614.981 65.4067,-226.772 143,-138.5 150.735,-129.7 161.296,-123.886 172.441,-120.071"/>
<polygon fill="midnightblue" stroke="midnightblue" points="51.1599,-718.301 54.5634,-728.335 58.1596,-718.369 51.1599,-718.301"/>
</g>
<!-- Node29 -->
<g id="node29" class="node"><title>Node29</title>
<g id="a_node29"><a xlink:href="classo2_1_1quality__control__modules_1_1tpc_1_1PID.html" target="_top" xlink:title="TPC PID QC Task It is final because there is no reason to derive from it. Just remove it if needed...">
<polygon fill="none" stroke="black" points="182.5,-49.5 182.5,-79.5 283.5,-79.5 283.5,-49.5 182.5,-49.5"/>
<text text-anchor="start" x="190.5" y="-67.5" font-family="Helvetica,sans-Serif" font-size="10.00">o2::quality_control</text>
<text text-anchor="middle" x="233" y="-56.5" font-family="Helvetica,sans-Serif" font-size="10.00">_modules::tpc::PID</text>
</a>
</g>
</g>
<!-- Node1&#45;&gt;Node29 -->
<g id="edge28" class="edge"><title>Node1&#45;&gt;Node29</title>
<path fill="none" stroke="midnightblue" d="M54.3536,-718.282C54.2409,-610.028 59.2303,-185.838 143,-89.5 152.899,-78.1155 167.528,-71.7209 182.079,-68.1866"/>
<polygon fill="midnightblue" stroke="midnightblue" points="50.8535,-718.301 54.3802,-728.292 57.8535,-718.282 50.8535,-718.301"/>
</g>
<!-- Node30 -->
<g id="node30" class="node"><title>Node30</title>
<g id="a_node30"><a xlink:href="classo2_1_1quality__control__modules_1_1tpc_1_1Tracks.html" target="_top" xlink:title="Quality Control DPL Task for QC Module TPC for track related observables. ">
<polygon fill="none" stroke="black" points="176,-0.5 176,-30.5 290,-30.5 290,-0.5 176,-0.5"/>
<text text-anchor="start" x="184" y="-18.5" font-family="Helvetica,sans-Serif" font-size="10.00">o2::quality_control</text>
<text text-anchor="middle" x="233" y="-7.5" font-family="Helvetica,sans-Serif" font-size="10.00">_modules::tpc::Tracks</text>
</a>
</g>
</g>
<!-- Node1&#45;&gt;Node30 -->
<g id="edge29" class="edge"><title>Node1&#45;&gt;Node30</title>
<path fill="none" stroke="midnightblue" d="M54.0885,-718.246C52.7622,-604.993 53.0647,-144.902 143,-40.5 151.485,-30.6505 163.51,-24.5311 175.986,-20.7674"/>
<polygon fill="midnightblue" stroke="midnightblue" points="50.5905,-718.428 54.2231,-728.38 57.5899,-718.334 50.5905,-718.428"/>
</g>
</g>
</svg>
