<?xml version="1.0" encoding="UTF-8" standalone="no"?>
<!DOCTYPE svg PUBLIC "-//W3C//DTD SVG 1.1//EN"
 "http://www.w3.org/Graphics/SVG/1.1/DTD/svg11.dtd">
<!-- Generated by graphviz version 2.38.0 (20140413.2041)
 -->
<!-- Title: Modules/ITS/src/ITSClusterTask.cxx Pages: 1 -->
<!--zoomable 352 -->
<svg id="main" version="1.1" xmlns="http://www.w3.org/2000/svg" xmlns:xlink="http://www.w3.org/1999/xlink" xml:space="preserve" onload="init(evt)">
<style type="text/css"><![CDATA[
.edge:hover path { stroke: red; }
.edge:hover polygon { stroke: red; fill: red; }
]]></style>
<script type="text/javascript"><![CDATA[
var edges = document.getElementsByTagName('g');
if (edges && edges.length) {
  for (var i=0;i<edges.length;i++) {
    if (edges[i].id.substr(0,4)=='edge') {
      edges[i].setAttribute('class','edge');
    }
  }
}
]]></script>
        <defs>
                <circle id="rim" cx="0" cy="0" r="7"/>
                <circle id="rim2" cx="0" cy="0" r="3.5"/>
                <g id="zoomPlus">
                        <use xlink:href="#rim" fill="#404040">
                                <set attributeName="fill" to="#808080" begin="zoomplus.mouseover" end="zoomplus.mouseout"/>
                        </use>
                        <path d="M-4,0h8M0,-4v8" fill="none" stroke="white" stroke-width="1.5" pointer-events="none"/>
                </g>
                <g id="zoomMin">
                        <use xlink:href="#rim" fill="#404040">
                                <set attributeName="fill" to="#808080" begin="zoomminus.mouseover" end="zoomminus.mouseout"/>
                        </use>
                        <path d="M-4,0h8" fill="none" stroke="white" stroke-width="1.5" pointer-events="none"/>
                </g>
                <g id="dirArrow">
                        <path fill="none" stroke="white" stroke-width="1.5" d="M0,-3.0v7 M-2.5,-0.5L0,-3.0L2.5,-0.5"/>
                </g>
               <g id="resetDef">
                       <use xlink:href="#rim2" fill="#404040">
                               <set attributeName="fill" to="#808080" begin="reset.mouseover" end="reset.mouseout"/>
                       </use>
               </g>
        </defs>

<script type="text/javascript">
var viewWidth = 1627;
var viewHeight = 352;
var sectionId = 'dynsection-0';
</script>
<script xlink:href="svgpan.js"/>
<svg id="graph" class="graph">
<g id="viewport">
<title>Modules/ITS/src/ITSClusterTask.cxx</title>
<!-- Node1 -->
<g id="node1" class="node"><title>Node1</title>
<polygon fill="#bfbfbf" stroke="black" points="676.5,-313.5 676.5,-343.5 815.5,-343.5 815.5,-313.5 676.5,-313.5"/>
<text text-anchor="start" x="684.5" y="-331.5" font-family="Helvetica,sans-Serif" font-size="10.00">Modules/ITS/src/ITSCluster</text>
<text text-anchor="middle" x="746" y="-320.5" font-family="Helvetica,sans-Serif" font-size="10.00">Task.cxx</text>
</g>
<!-- Node2 -->
<g id="node2" class="node"><title>Node2</title>
<g id="a_node2"><a xlink:href="QcInfoLogger_8h.html" target="_top" xlink:title="QualityControl/QcInfoLogger.h">
<polygon fill="none" stroke="black" points="126.5,-123.5 126.5,-142.5 275.5,-142.5 275.5,-123.5 126.5,-123.5"/>
<text text-anchor="middle" x="201" y="-130.5" font-family="Helvetica,sans-Serif" font-size="10.00">QualityControl/QcInfoLogger.h</text>
</a>
</g>
</g>
<!-- Node1&#45;&gt;Node2 -->
<g id="edge1" class="edge"><title>Node1&#45;&gt;Node2</title>
<path fill="none" stroke="midnightblue" d="M676.367,-325.212C558.424,-320.545 324.777,-307.653 249,-277 204.407,-258.962 184.994,-253.28 164,-210 157.987,-197.604 159.352,-191.97 164,-179 167.941,-168.003 175.857,-157.769 183.36,-149.848"/>
<polygon fill="midnightblue" stroke="midnightblue" points="185.892,-152.266 190.562,-142.755 180.981,-147.278 185.892,-152.266"/>
</g>
<!-- Node5 -->
<g id="node5" class="node"><title>Node5</title>
<g id="a_node5"><a xlink:href="ITSClusterTask_8h.html" target="_top" xlink:title="ITS/ITSClusterTask.h">
<polygon fill="none" stroke="black" points="258.5,-252 258.5,-271 371.5,-271 371.5,-252 258.5,-252"/>
<text text-anchor="middle" x="315" y="-259" font-family="Helvetica,sans-Serif" font-size="10.00">ITS/ITSClusterTask.h</text>
</a>
</g>
</g>
<!-- Node1&#45;&gt;Node5 -->
<g id="edge4" class="edge"><title>Node1&#45;&gt;Node5</title>
<path fill="none" stroke="midnightblue" d="M676.45,-319.531C602.819,-310.709 483.332,-295.291 381,-277 374.71,-275.876 368.108,-274.573 361.613,-273.22"/>
<polygon fill="midnightblue" stroke="midnightblue" points="362.064,-269.737 351.553,-271.068 360.6,-276.582 362.064,-269.737"/>
</g>
<!-- Node28 -->
<g id="node28" class="node"><title>Node28</title>
<polygon fill="none" stroke="#bfbfbf" points="390,-252 390,-271 442,-271 442,-252 390,-252"/>
<text text-anchor="middle" x="416" y="-259" font-family="Helvetica,sans-Serif" font-size="10.00">sstream</text>
</g>
<!-- Node1&#45;&gt;Node28 -->
<g id="edge34" class="edge"><title>Node1&#45;&gt;Node28</title>
<path fill="none" stroke="midnightblue" d="M676.47,-320.044C616.06,-312.518 526.629,-298.842 451,-277 448.707,-276.338 446.362,-275.572 444.024,-274.746"/>
<polygon fill="midnightblue" stroke="midnightblue" points="445.204,-271.45 434.615,-271.114 442.684,-277.98 445.204,-271.45"/>
</g>
<!-- Node29 -->
<g id="node29" class="node"><title>Node29</title>
<polygon fill="none" stroke="#bfbfbf" points="460.5,-252 460.5,-271 525.5,-271 525.5,-252 460.5,-252"/>
<text text-anchor="middle" x="493" y="-259" font-family="Helvetica,sans-Serif" font-size="10.00">TCanvas.h</text>
</g>
<!-- Node1&#45;&gt;Node29 -->
<g id="edge35" class="edge"><title>Node1&#45;&gt;Node29</title>
<path fill="none" stroke="midnightblue" d="M679.986,-313.439C638.167,-304.104 583.094,-291.021 535,-277 532.059,-276.142 529.019,-275.202 525.982,-274.225"/>
<polygon fill="midnightblue" stroke="midnightblue" points="527.01,-270.878 516.417,-271.036 524.797,-277.519 527.01,-270.878"/>
</g>
<!-- Node30 -->
<g id="node30" class="node"><title>Node30</title>
<polygon fill="none" stroke="#bfbfbf" points="544,-246.5 544,-276.5 668,-276.5 668,-246.5 544,-246.5"/>
<text text-anchor="start" x="552" y="-264.5" font-family="Helvetica,sans-Serif" font-size="10.00">DataFormatsParameters</text>
<text text-anchor="middle" x="606" y="-253.5" font-family="Helvetica,sans-Serif" font-size="10.00">/GRPObject.h</text>
</g>
<!-- Node1&#45;&gt;Node30 -->
<g id="edge36" class="edge"><title>Node1&#45;&gt;Node30</title>
<path fill="none" stroke="midnightblue" d="M715.622,-313.396C695.075,-303.856 667.736,-291.163 645.501,-280.84"/>
<polygon fill="midnightblue" stroke="midnightblue" points="646.863,-277.613 636.319,-276.577 643.915,-283.962 646.863,-277.613"/>
</g>
<!-- Node31 -->
<g id="node31" class="node"><title>Node31</title>
<polygon fill="none" stroke="#bfbfbf" points="686.5,-246.5 686.5,-276.5 805.5,-276.5 805.5,-246.5 686.5,-246.5"/>
<text text-anchor="start" x="694.5" y="-264.5" font-family="Helvetica,sans-Serif" font-size="10.00">ITSMFTReconstruction</text>
<text text-anchor="middle" x="746" y="-253.5" font-family="Helvetica,sans-Serif" font-size="10.00">/DigitPixelReader.h</text>
</g>
<!-- Node1&#45;&gt;Node31 -->
<g id="edge37" class="edge"><title>Node1&#45;&gt;Node31</title>
<path fill="none" stroke="midnightblue" d="M746,-313.396C746,-305.645 746,-295.812 746,-286.86"/>
<polygon fill="midnightblue" stroke="midnightblue" points="749.5,-286.576 746,-276.577 742.5,-286.577 749.5,-286.576"/>
</g>
<!-- Node32 -->
<g id="node32" class="node"><title>Node32</title>
<polygon fill="none" stroke="#bfbfbf" points="824,-246.5 824,-276.5 980,-276.5 980,-246.5 824,-246.5"/>
<text text-anchor="start" x="832" y="-264.5" font-family="Helvetica,sans-Serif" font-size="10.00">DetectorsCommonDataFormats</text>
<text text-anchor="middle" x="902" y="-253.5" font-family="Helvetica,sans-Serif" font-size="10.00">/NameConf.h</text>
</g>
<!-- Node1&#45;&gt;Node32 -->
<g id="edge38" class="edge"><title>Node1&#45;&gt;Node32</title>
<path fill="none" stroke="midnightblue" d="M779.85,-313.396C803.052,-303.728 834.026,-290.823 858.977,-280.426"/>
<polygon fill="midnightblue" stroke="midnightblue" points="860.332,-283.653 868.216,-276.577 857.639,-277.192 860.332,-283.653"/>
</g>
<!-- Node33 -->
<g id="node33" class="node"><title>Node33</title>
<polygon fill="none" stroke="#bfbfbf" points="998.5,-252 998.5,-271 1171.5,-271 1171.5,-252 998.5,-252"/>
<text text-anchor="middle" x="1085" y="-259" font-family="Helvetica,sans-Serif" font-size="10.00">DataFormatsITSMFT/ROFRecord.h</text>
</g>
<!-- Node1&#45;&gt;Node33 -->
<g id="edge39" class="edge"><title>Node1&#45;&gt;Node33</title>
<path fill="none" stroke="midnightblue" d="M815.83,-314.111C879.46,-301.91 972.155,-284.137 1030.48,-272.953"/>
<polygon fill="midnightblue" stroke="midnightblue" points="1031.44,-276.333 1040.6,-271.013 1030.12,-269.459 1031.44,-276.333"/>
</g>
<!-- Node34 -->
<g id="node34" class="node"><title>Node34</title>
<polygon fill="none" stroke="#bfbfbf" points="1189.5,-246.5 1189.5,-276.5 1308.5,-276.5 1308.5,-246.5 1189.5,-246.5"/>
<text text-anchor="start" x="1197.5" y="-264.5" font-family="Helvetica,sans-Serif" font-size="10.00">ITSMFTReconstruction</text>
<text text-anchor="middle" x="1249" y="-253.5" font-family="Helvetica,sans-Serif" font-size="10.00">/ChipMappingITS.h</text>
</g>
<!-- Node1&#45;&gt;Node34 -->
<g id="edge40" class="edge"><title>Node1&#45;&gt;Node34</title>
<path fill="none" stroke="midnightblue" d="M815.594,-321.466C899.617,-313.722 1045.38,-298.826 1179.32,-277.188"/>
<polygon fill="midnightblue" stroke="midnightblue" points="1180.05,-280.616 1189.36,-275.551 1178.92,-273.708 1180.05,-280.616"/>
</g>
<!-- Node35 -->
<g id="node35" class="node"><title>Node35</title>
<polygon fill="none" stroke="#bfbfbf" points="1327,-246.5 1327,-276.5 1471,-276.5 1471,-246.5 1327,-246.5"/>
<text text-anchor="start" x="1335" y="-264.5" font-family="Helvetica,sans-Serif" font-size="10.00">DataFormatsITSMFT/Cluster</text>
<text text-anchor="middle" x="1399" y="-253.5" font-family="Helvetica,sans-Serif" font-size="10.00">Topology.h</text>
</g>
<!-- Node1&#45;&gt;Node35 -->
<g id="edge41" class="edge"><title>Node1&#45;&gt;Node35</title>
<path fill="none" stroke="midnightblue" d="M815.781,-323.35C921.849,-316.598 1130.17,-301.593 1316.64,-277.109"/>
<polygon fill="midnightblue" stroke="midnightblue" points="1317.17,-280.569 1326.63,-275.785 1316.25,-273.629 1317.17,-280.569"/>
</g>
<!-- Node36 -->
<g id="node36" class="node"><title>Node36</title>
<polygon fill="none" stroke="#bfbfbf" points="1489,-252 1489,-271 1619,-271 1619,-252 1489,-252"/>
<text text-anchor="middle" x="1554" y="-259" font-family="Helvetica,sans-Serif" font-size="10.00">Framework/InputRecord.h</text>
</g>
<!-- Node1&#45;&gt;Node36 -->
<g id="edge42" class="edge"><title>Node1&#45;&gt;Node36</title>
<path fill="none" stroke="midnightblue" d="M815.609,-325.604C946.313,-321.403 1237.18,-309.016 1480,-277 1488.21,-275.917 1496.89,-274.484 1505.29,-272.939"/>
<polygon fill="midnightblue" stroke="midnightblue" points="1506.19,-276.33 1515.36,-271.017 1504.88,-269.454 1506.19,-276.33"/>
</g>
<!-- Node3 -->
<g id="node3" class="node"><title>Node3</title>
<polygon fill="none" stroke="#bfbfbf" points="0,-62 0,-81 130,-81 130,-62 0,-62"/>
<text text-anchor="middle" x="65" y="-69" font-family="Helvetica,sans-Serif" font-size="10.00">InfoLogger/InfoLogger.hxx</text>
</g>
<!-- Node2&#45;&gt;Node3 -->
<g id="edge2" class="edge"><title>Node2&#45;&gt;Node3</title>
<path fill="none" stroke="midnightblue" d="M181.515,-123.475C158.59,-113.445 120.315,-96.7002 93.9248,-85.1546"/>
<polygon fill="midnightblue" stroke="midnightblue" points="95.0138,-81.8108 84.4493,-81.0091 92.208,-88.2239 95.0138,-81.8108"/>
</g>
<!-- Node4 -->
<g id="node4" class="node"><title>Node4</title>
<polygon fill="none" stroke="#bfbfbf" points="148,-62 148,-81 310,-81 310,-62 148,-62"/>
<text text-anchor="middle" x="229" y="-69" font-family="Helvetica,sans-Serif" font-size="10.00">InfoLogger/InfoLoggerMacros.hxx</text>
</g>
<!-- Node2&#45;&gt;Node4 -->
<g id="edge3" class="edge"><title>Node2&#45;&gt;Node4</title>
<path fill="none" stroke="midnightblue" d="M205.012,-123.475C209.087,-114.815 215.518,-101.149 220.696,-90.1453"/>
<polygon fill="midnightblue" stroke="midnightblue" points="223.905,-91.5476 224.996,-81.0091 217.571,-88.567 223.905,-91.5476"/>
</g>
<!-- Node6 -->
<g id="node6" class="node"><title>Node6</title>
<g id="a_node6"><a xlink:href="TaskInterface_8h.html" target="_top" xlink:title="QualityControl/TaskInterface.h">
<polygon fill="none" stroke="black" points="619,-185 619,-204 769,-204 769,-185 619,-185"/>
<text text-anchor="middle" x="694" y="-192" font-family="Helvetica,sans-Serif" font-size="10.00">QualityControl/TaskInterface.h</text>
</a>
</g>
</g>
<!-- Node5&#45;&gt;Node6 -->
<g id="edge5" class="edge"><title>Node5&#45;&gt;Node6</title>
<path fill="none" stroke="midnightblue" d="M351.922,-251.981C361.378,-249.912 371.547,-247.783 381,-246 481.811,-226.985 507.767,-226.626 609,-210 617.282,-208.64 626.013,-207.18 634.599,-205.729"/>
<polygon fill="midnightblue" stroke="midnightblue" points="635.302,-209.16 644.576,-204.037 634.132,-202.259 635.302,-209.16"/>
</g>
<!-- Node24 -->
<g id="node24" class="node"><title>Node24</title>
<polygon fill="none" stroke="#bfbfbf" points="173,-185 173,-204 217,-204 217,-185 173,-185"/>
<text text-anchor="middle" x="195" y="-192" font-family="Helvetica,sans-Serif" font-size="10.00">TH1.h</text>
</g>
<!-- Node5&#45;&gt;Node24 -->
<g id="edge30" class="edge"><title>Node5&#45;&gt;Node24</title>
<path fill="none" stroke="midnightblue" d="M298.816,-251.734C278.574,-240.769 243.703,-221.881 220.014,-209.049"/>
<polygon fill="midnightblue" stroke="midnightblue" points="221.387,-205.813 210.927,-204.127 218.053,-211.968 221.387,-205.813"/>
</g>
<!-- Node25 -->
<g id="node25" class="node"><title>Node25</title>
<polygon fill="none" stroke="#bfbfbf" points="235,-185 235,-204 279,-204 279,-185 235,-185"/>
<text text-anchor="middle" x="257" y="-192" font-family="Helvetica,sans-Serif" font-size="10.00">TH2.h</text>
</g>
<!-- Node5&#45;&gt;Node25 -->
<g id="edge31" class="edge"><title>Node5&#45;&gt;Node25</title>
<path fill="none" stroke="midnightblue" d="M307.178,-251.734C298.047,-241.5 282.756,-224.364 271.449,-211.692"/>
<polygon fill="midnightblue" stroke="midnightblue" points="273.968,-209.258 264.698,-204.127 268.745,-213.919 273.968,-209.258"/>
</g>
<!-- Node26 -->
<g id="node26" class="node"><title>Node26</title>
<polygon fill="none" stroke="#bfbfbf" points="297,-179.5 297,-209.5 449,-209.5 449,-179.5 297,-179.5"/>
<text text-anchor="start" x="305" y="-197.5" font-family="Helvetica,sans-Serif" font-size="10.00">DataFormatsITSMFT/Topology</text>
<text text-anchor="middle" x="373" y="-186.5" font-family="Helvetica,sans-Serif" font-size="10.00">Dictionary.h</text>
</g>
<!-- Node5&#45;&gt;Node26 -->
<g id="edge32" class="edge"><title>Node5&#45;&gt;Node26</title>
<path fill="none" stroke="midnightblue" d="M322.822,-251.734C330.661,-242.949 343.038,-229.078 353.538,-217.311"/>
<polygon fill="midnightblue" stroke="midnightblue" points="356.382,-219.381 360.428,-209.589 351.159,-214.72 356.382,-219.381"/>
</g>
<!-- Node27 -->
<g id="node27" class="node"><title>Node27</title>
<polygon fill="none" stroke="#bfbfbf" points="467.5,-185 467.5,-204 600.5,-204 600.5,-185 467.5,-185"/>
<text text-anchor="middle" x="534" y="-192" font-family="Helvetica,sans-Serif" font-size="10.00">ITSBase/GeometryTGeo.h</text>
</g>
<!-- Node5&#45;&gt;Node27 -->
<g id="edge33" class="edge"><title>Node5&#45;&gt;Node27</title>
<path fill="none" stroke="midnightblue" d="M344.082,-251.869C383.049,-240.303 452.3,-219.749 495.542,-206.914"/>
<polygon fill="midnightblue" stroke="midnightblue" points="496.556,-210.264 505.147,-204.064 494.564,-203.554 496.556,-210.264"/>
</g>
<!-- Node6&#45;&gt;Node2 -->
<g id="edge29" class="edge"><title>Node6&#45;&gt;Node2</title>
<path fill="none" stroke="midnightblue" d="M646.869,-184.95C634.566,-182.858 621.305,-180.727 609,-179 497.558,-163.363 368.356,-149.895 285.709,-141.869"/>
<polygon fill="midnightblue" stroke="midnightblue" points="285.906,-138.372 275.616,-140.894 285.232,-145.34 285.906,-138.372"/>
</g>
<!-- Node7 -->
<g id="node7" class="node"><title>Node7</title>
<polygon fill="none" stroke="#bfbfbf" points="1218.5,-0.5 1218.5,-19.5 1253.5,-19.5 1253.5,-0.5 1218.5,-0.5"/>
<text text-anchor="middle" x="1236" y="-7.5" font-family="Helvetica,sans-Serif" font-size="10.00">map</text>
</g>
<!-- Node6&#45;&gt;Node7 -->
<g id="edge6" class="edge"><title>Node6&#45;&gt;Node7</title>
<path fill="none" stroke="midnightblue" d="M769.244,-191.296C906.249,-186.556 1185.28,-173.269 1217,-143 1247.76,-113.648 1244.17,-58.4897 1239.68,-29.6477"/>
<polygon fill="midnightblue" stroke="midnightblue" points="1243.1,-28.9162 1237.92,-19.675 1236.21,-30.1305 1243.1,-28.9162"/>
</g>
<!-- Node8 -->
<g id="node8" class="node"><title>Node8</title>
<polygon fill="none" stroke="#bfbfbf" points="593,-62 593,-81 645,-81 645,-62 593,-62"/>
<text text-anchor="middle" x="619" y="-69" font-family="Helvetica,sans-Serif" font-size="10.00">memory</text>
</g>
<!-- Node6&#45;&gt;Node8 -->
<g id="edge7" class="edge"><title>Node6&#45;&gt;Node8</title>
<path fill="none" stroke="midnightblue" d="M647.511,-184.965C581.235,-172.577 466.887,-150.3 461,-143 425.852,-99.4179 525.653,-81.9256 582.519,-75.6355"/>
<polygon fill="midnightblue" stroke="midnightblue" points="583.011,-79.1034 592.595,-74.5876 582.286,-72.1409 583.011,-79.1034"/>
</g>
<!-- Node9 -->
<g id="node9" class="node"><title>Node9</title>
<polygon fill="none" stroke="#bfbfbf" points="873.5,-0.5 873.5,-19.5 914.5,-19.5 914.5,-0.5 873.5,-0.5"/>
<text text-anchor="middle" x="894" y="-7.5" font-family="Helvetica,sans-Serif" font-size="10.00">string</text>
</g>
<!-- Node6&#45;&gt;Node9 -->
<g id="edge8" class="edge"><title>Node6&#45;&gt;Node9</title>
<path fill="none" stroke="midnightblue" d="M645.034,-184.991C575.595,-172.692 456.18,-150.59 450,-143 444.388,-136.107 445.327,-130.561 450,-123 485.006,-66.3593 520.466,-75.9252 584,-56 682.962,-24.9641 806.517,-15.1958 863.103,-12.2319"/>
<polygon fill="midnightblue" stroke="midnightblue" points="863.368,-15.7232 873.185,-11.7397 863.027,-8.73156 863.368,-15.7232"/>
</g>
<!-- Node10 -->
<g id="node10" class="node"><title>Node10</title>
<polygon fill="none" stroke="#bfbfbf" points="548.5,-0.5 548.5,-19.5 631.5,-19.5 631.5,-0.5 548.5,-0.5"/>
<text text-anchor="middle" x="590" y="-7.5" font-family="Helvetica,sans-Serif" font-size="10.00">unordered_map</text>
</g>
<!-- Node6&#45;&gt;Node10 -->
<g id="edge9" class="edge"><title>Node6&#45;&gt;Node10</title>
<path fill="none" stroke="midnightblue" d="M644.118,-184.939C632.588,-182.975 620.369,-180.904 609,-179 560.358,-170.853 421.921,-180.597 390,-143 364.974,-113.524 365.845,-86.1936 390,-56 408.238,-33.2024 485.242,-21.1433 538.199,-15.422"/>
<polygon fill="midnightblue" stroke="midnightblue" points="538.859,-18.8724 548.446,-14.3609 538.138,-11.9097 538.859,-18.8724"/>
</g>
<!-- Node11 -->
<g id="node11" class="node"><title>Node11</title>
<polygon fill="none" stroke="#bfbfbf" points="470.5,-123.5 470.5,-142.5 595.5,-142.5 595.5,-123.5 470.5,-123.5"/>
<text text-anchor="middle" x="533" y="-130.5" font-family="Helvetica,sans-Serif" font-size="10.00">Framework/InitContext.h</text>
</g>
<!-- Node6&#45;&gt;Node11 -->
<g id="edge10" class="edge"><title>Node6&#45;&gt;Node11</title>
<path fill="none" stroke="midnightblue" d="M670.933,-184.975C643.315,-174.769 596.88,-157.608 565.604,-146.049"/>
<polygon fill="midnightblue" stroke="midnightblue" points="566.618,-142.693 556.025,-142.509 564.191,-149.259 566.618,-142.693"/>
</g>
<!-- Node12 -->
<g id="node12" class="node"><title>Node12</title>
<polygon fill="none" stroke="#bfbfbf" points="614,-123.5 614,-142.5 774,-142.5 774,-123.5 614,-123.5"/>
<text text-anchor="middle" x="694" y="-130.5" font-family="Helvetica,sans-Serif" font-size="10.00">Framework/ProcessingContext.h</text>
</g>
<!-- Node6&#45;&gt;Node12 -->
<g id="edge11" class="edge"><title>Node6&#45;&gt;Node12</title>
<path fill="none" stroke="midnightblue" d="M694,-184.975C694,-176.58 694,-163.481 694,-152.663"/>
<polygon fill="midnightblue" stroke="midnightblue" points="697.5,-152.509 694,-142.509 690.5,-152.509 697.5,-152.509"/>
</g>
<!-- Node13 -->
<g id="node13" class="node"><title>Node13</title>
<polygon fill="none" stroke="#bfbfbf" points="792.5,-123.5 792.5,-142.5 887.5,-142.5 887.5,-123.5 792.5,-123.5"/>
<text text-anchor="middle" x="840" y="-130.5" font-family="Helvetica,sans-Serif" font-size="10.00">CCDB/CcdbApi.h</text>
</g>
<!-- Node6&#45;&gt;Node13 -->
<g id="edge12" class="edge"><title>Node6&#45;&gt;Node13</title>
<path fill="none" stroke="midnightblue" d="M714.918,-184.975C739.746,-174.857 781.343,-157.905 809.694,-146.351"/>
<polygon fill="midnightblue" stroke="midnightblue" points="811.181,-149.524 819.121,-142.509 808.539,-143.042 811.181,-149.524"/>
</g>
<!-- Node14 -->
<g id="node14" class="node"><title>Node14</title>
<g id="a_node14"><a xlink:href="Activity_8h.html" target="_top" xlink:title="QualityControl/Activity.h">
<polygon fill="none" stroke="black" points="905.5,-123.5 905.5,-142.5 1028.5,-142.5 1028.5,-123.5 905.5,-123.5"/>
<text text-anchor="middle" x="967" y="-130.5" font-family="Helvetica,sans-Serif" font-size="10.00">QualityControl/Activity.h</text>
</a>
</g>
</g>
<!-- Node6&#45;&gt;Node14 -->
<g id="edge13" class="edge"><title>Node6&#45;&gt;Node14</title>
<path fill="none" stroke="midnightblue" d="M733.114,-184.975C781.869,-174.349 865.211,-156.185 918.124,-144.652"/>
<polygon fill="midnightblue" stroke="midnightblue" points="918.933,-148.058 927.958,-142.509 917.442,-141.219 918.933,-148.058"/>
</g>
<!-- Node15 -->
<g id="node15" class="node"><title>Node15</title>
<g id="a_node15"><a xlink:href="ObjectsManager_8h.html" target="_top" xlink:title="QualityControl/ObjectsManager.h">
<polygon fill="none" stroke="black" points="1046.5,-123.5 1046.5,-142.5 1207.5,-142.5 1207.5,-123.5 1046.5,-123.5"/>
<text text-anchor="middle" x="1127" y="-130.5" font-family="Helvetica,sans-Serif" font-size="10.00">QualityControl/ObjectsManager.h</text>
</a>
</g>
</g>
<!-- Node6&#45;&gt;Node15 -->
<g id="edge14" class="edge"><title>Node6&#45;&gt;Node15</title>
<path fill="none" stroke="midnightblue" d="M756.038,-184.975C835.136,-174.106 971.63,-155.35 1055.16,-143.872"/>
<polygon fill="midnightblue" stroke="midnightblue" points="1055.65,-147.338 1065.08,-142.509 1054.69,-140.403 1055.65,-147.338"/>
</g>
<!-- Node15&#45;&gt;Node8 -->
<g id="edge28" class="edge"><title>Node15&#45;&gt;Node8</title>
<path fill="none" stroke="midnightblue" d="M1054.22,-123.475C943.847,-110.548 738.228,-86.4647 655.18,-76.7376"/>
<polygon fill="midnightblue" stroke="midnightblue" points="655.553,-73.2574 645.214,-75.5703 654.738,-80.2099 655.553,-73.2574"/>
</g>
<!-- Node15&#45;&gt;Node9 -->
<g id="edge27" class="edge"><title>Node15&#45;&gt;Node9</title>
<path fill="none" stroke="midnightblue" d="M1108.7,-123.454C1089.85,-114.582 1059.69,-100.181 1034,-87 993.058,-65.9965 946.198,-40.1914 918.406,-24.6982"/>
<polygon fill="midnightblue" stroke="midnightblue" points="919.849,-21.4952 909.412,-19.6729 916.435,-27.606 919.849,-21.4952"/>
</g>
<!-- Node16 -->
<g id="node16" class="node"><title>Node16</title>
<g id="a_node16"><a xlink:href="MonitorObject_8h.html" target="_top" xlink:title="QualityControl/MonitorObject.h">
<polygon fill="none" stroke="black" points="1043.5,-62 1043.5,-81 1194.5,-81 1194.5,-62 1043.5,-62"/>
<text text-anchor="middle" x="1119" y="-69" font-family="Helvetica,sans-Serif" font-size="10.00">QualityControl/MonitorObject.h</text>
</a>
</g>
</g>
<!-- Node15&#45;&gt;Node16 -->
<g id="edge15" class="edge"><title>Node15&#45;&gt;Node16</title>
<path fill="none" stroke="midnightblue" d="M1125.85,-123.475C1124.73,-115.08 1122.96,-101.981 1121.51,-91.1631"/>
<polygon fill="midnightblue" stroke="midnightblue" points="1124.95,-90.4535 1120.14,-81.0091 1118.01,-91.3863 1124.95,-90.4535"/>
</g>
<!-- Node20 -->
<g id="node20" class="node"><title>Node20</title>
<g id="a_node20"><a xlink:href="MonitorObjectCollection_8h.html" target="_top" xlink:title="QualityControl/MonitorObject\lCollection.h">
<polygon fill="none" stroke="black" points="1264.5,-56.5 1264.5,-86.5 1407.5,-86.5 1407.5,-56.5 1264.5,-56.5"/>
<text text-anchor="start" x="1272.5" y="-74.5" font-family="Helvetica,sans-Serif" font-size="10.00">QualityControl/MonitorObject</text>
<text text-anchor="middle" x="1336" y="-63.5" font-family="Helvetica,sans-Serif" font-size="10.00">Collection.h</text>
</a>
</g>
</g>
<!-- Node15&#45;&gt;Node20 -->
<g id="edge21" class="edge"><title>Node15&#45;&gt;Node20</title>
<path fill="none" stroke="midnightblue" d="M1156.94,-123.475C1188.16,-114.588 1237.9,-100.429 1277.04,-89.2859"/>
<polygon fill="midnightblue" stroke="midnightblue" points="1278.08,-92.6274 1286.74,-86.523 1276.17,-85.8949 1278.08,-92.6274"/>
</g>
<!-- Node23 -->
<g id="node23" class="node"><title>Node23</title>
<g id="a_node23"><a xlink:href="TaskConfig_8h.html" target="_top" xlink:title="QualityControl/TaskConfig.h">
<polygon fill="none" stroke="black" points="824,-62 824,-81 964,-81 964,-62 824,-62"/>
<text text-anchor="middle" x="894" y="-69" font-family="Helvetica,sans-Serif" font-size="10.00">QualityControl/TaskConfig.h</text>
</a>
</g>
</g>
<!-- Node15&#45;&gt;Node23 -->
<g id="edge24" class="edge"><title>Node15&#45;&gt;Node23</title>
<path fill="none" stroke="midnightblue" d="M1093.62,-123.475C1052.44,-112.959 982.35,-95.0615 937.131,-83.5142"/>
<polygon fill="midnightblue" stroke="midnightblue" points="937.876,-80.0922 927.321,-81.0091 936.144,-86.8746 937.876,-80.0922"/>
</g>
<!-- Node16&#45;&gt;Node7 -->
<g id="edge17" class="edge"><title>Node16&#45;&gt;Node7</title>
<path fill="none" stroke="midnightblue" d="M1135.76,-61.9751C1155.22,-52.078 1187.55,-35.6416 1210.21,-24.1151"/>
<polygon fill="midnightblue" stroke="midnightblue" points="1211.94,-27.1619 1219.27,-19.5091 1208.77,-20.9224 1211.94,-27.1619"/>
</g>
<!-- Node16&#45;&gt;Node9 -->
<g id="edge16" class="edge"><title>Node16&#45;&gt;Node9</title>
<path fill="none" stroke="midnightblue" d="M1083.81,-61.9818C1046.47,-52.8225 985.533,-37.5319 924.372,-20.2978"/>
<polygon fill="midnightblue" stroke="midnightblue" points="925.134,-16.8758 914.558,-17.5158 923.225,-23.6104 925.134,-16.8758"/>
</g>
<!-- Node17 -->
<g id="node17" class="node"><title>Node17</title>
<polygon fill="none" stroke="#bfbfbf" points="1144,-0.5 1144,-19.5 1200,-19.5 1200,-0.5 1144,-0.5"/>
<text text-anchor="middle" x="1172" y="-7.5" font-family="Helvetica,sans-Serif" font-size="10.00">Rtypes.h</text>
</g>
<!-- Node16&#45;&gt;Node17 -->
<g id="edge18" class="edge"><title>Node16&#45;&gt;Node17</title>
<path fill="none" stroke="midnightblue" d="M1126.59,-61.9751C1134.7,-52.8733 1147.73,-38.241 1157.76,-26.983"/>
<polygon fill="midnightblue" stroke="midnightblue" points="1160.38,-29.3043 1164.42,-19.5091 1155.16,-24.6483 1160.38,-29.3043"/>
</g>
<!-- Node18 -->
<g id="node18" class="node"><title>Node18</title>
<polygon fill="none" stroke="#bfbfbf" points="932.5,-0.5 932.5,-19.5 991.5,-19.5 991.5,-0.5 932.5,-0.5"/>
<text text-anchor="middle" x="962" y="-7.5" font-family="Helvetica,sans-Serif" font-size="10.00">TObject.h</text>
</g>
<!-- Node16&#45;&gt;Node18 -->
<g id="edge19" class="edge"><title>Node16&#45;&gt;Node18</title>
<path fill="none" stroke="midnightblue" d="M1096.51,-61.9751C1069.69,-51.8129 1024.68,-34.7564 994.191,-23.1996"/>
<polygon fill="midnightblue" stroke="midnightblue" points="995.044,-19.7801 984.453,-19.5091 992.563,-26.3258 995.044,-19.7801"/>
</g>
<!-- Node19 -->
<g id="node19" class="node"><title>Node19</title>
<polygon fill="none" stroke="#bfbfbf" points="1010,-0.5 1010,-19.5 1126,-19.5 1126,-0.5 1010,-0.5"/>
<text text-anchor="middle" x="1068" y="-7.5" font-family="Helvetica,sans-Serif" font-size="10.00">Common/Exceptions.h</text>
</g>
<!-- Node16&#45;&gt;Node19 -->
<g id="edge20" class="edge"><title>Node16&#45;&gt;Node19</title>
<path fill="none" stroke="midnightblue" d="M1111.69,-61.9751C1103.97,-52.9617 1091.59,-38.5246 1081.98,-27.3118"/>
<polygon fill="midnightblue" stroke="midnightblue" points="1084.46,-24.8239 1075.29,-19.5091 1079.14,-29.3795 1084.46,-24.8239"/>
</g>
<!-- Node21 -->
<g id="node21" class="node"><title>Node21</title>
<polygon fill="none" stroke="#bfbfbf" points="1418.5,-0.5 1418.5,-19.5 1487.5,-19.5 1487.5,-0.5 1418.5,-0.5"/>
<text text-anchor="middle" x="1453" y="-7.5" font-family="Helvetica,sans-Serif" font-size="10.00">TObjArray.h</text>
</g>
<!-- Node20&#45;&gt;Node21 -->
<g id="edge22" class="edge"><title>Node20&#45;&gt;Node21</title>
<path fill="none" stroke="midnightblue" d="M1363.73,-56.3993C1382.83,-46.6837 1408.06,-33.8551 1426.82,-24.3137"/>
<polygon fill="midnightblue" stroke="midnightblue" points="1428.65,-27.3106 1435.98,-19.6578 1425.48,-21.071 1428.65,-27.3106"/>
</g>
<!-- Node22 -->
<g id="node22" class="node"><title>Node22</title>
<polygon fill="none" stroke="#bfbfbf" points="1272,-0.5 1272,-19.5 1400,-19.5 1400,-0.5 1272,-0.5"/>
<text text-anchor="middle" x="1336" y="-7.5" font-family="Helvetica,sans-Serif" font-size="10.00">Mergers/MergeInterface.h</text>
</g>
<!-- Node20&#45;&gt;Node22 -->
<g id="edge23" class="edge"><title>Node20&#45;&gt;Node22</title>
<path fill="none" stroke="midnightblue" d="M1336,-56.3993C1336,-48.4664 1336,-38.458 1336,-29.8583"/>
<polygon fill="midnightblue" stroke="midnightblue" points="1339.5,-29.6577 1336,-19.6578 1332.5,-29.6578 1339.5,-29.6577"/>
</g>
<!-- Node23&#45;&gt;Node9 -->
<g id="edge25" class="edge"><title>Node23&#45;&gt;Node9</title>
<path fill="none" stroke="midnightblue" d="M894,-61.9751C894,-53.5803 894,-40.4806 894,-29.6631"/>
<polygon fill="midnightblue" stroke="midnightblue" points="897.5,-29.5091 894,-19.5091 890.5,-29.5091 897.5,-29.5091"/>
</g>
<!-- Node23&#45;&gt;Node10 -->
<g id="edge26" class="edge"><title>Node23&#45;&gt;Node10</title>
<path fill="none" stroke="midnightblue" d="M850.444,-61.9751C795.308,-51.1836 700.448,-32.6173 641.699,-21.1186"/>
<polygon fill="midnightblue" stroke="midnightblue" points="642.009,-17.6131 631.523,-19.1271 640.665,-24.4828 642.009,-17.6131"/>
</g>
</g>
</svg>
        <g id="navigator" transform="translate(0 0)" fill="#404254">
                <rect fill="#f2f5e9" fill-opacity="0.5" stroke="#606060" stroke-width=".5" x="0" y="0" width="60" height="60"/>
                <use id="zoomplus" xlink:href="#zoomPlus" x="17" y="9" onmousedown="handleZoom(evt,'in')"/>
                <use id="zoomminus" xlink:href="#zoomMin" x="42" y="9" onmousedown="handleZoom(evt,'out')"/>
                <use id="reset" xlink:href="#resetDef" x="30" y="36" onmousedown="handleReset()"/>
                <g id="arrowUp" xlink:href="#dirArrow" transform="translate(30 24)" onmousedown="handlePan(0,-1)">
                  <use xlink:href="#rim" fill="#404040">
                        <set attributeName="fill" to="#808080" begin="arrowUp.mouseover" end="arrowUp.mouseout"/>
                  </use>
                  <path fill="none" stroke="white" stroke-width="1.5" d="M0,-3.0v7 M-2.5,-0.5L0,-3.0L2.5,-0.5"/>
                </g>
                <g id="arrowRight" xlink:href="#dirArrow" transform="rotate(90) translate(36 -43)" onmousedown="handlePan(1,0)">
                  <use xlink:href="#rim" fill="#404040">
                        <set attributeName="fill" to="#808080" begin="arrowRight.mouseover" end="arrowRight.mouseout"/>
                  </use>
                  <path fill="none" stroke="white" stroke-width="1.5" d="M0,-3.0v7 M-2.5,-0.5L0,-3.0L2.5,-0.5"/>
                </g>
                <g id="arrowDown" xlink:href="#dirArrow" transform="rotate(180) translate(-30 -48)" onmousedown="handlePan(0,1)">
                  <use xlink:href="#rim" fill="#404040">
                        <set attributeName="fill" to="#808080" begin="arrowDown.mouseover" end="arrowDown.mouseout"/>
                  </use>
                  <path fill="none" stroke="white" stroke-width="1.5" d="M0,-3.0v7 M-2.5,-0.5L0,-3.0L2.5,-0.5"/>
                </g>
                <g id="arrowLeft" xlink:href="#dirArrow" transform="rotate(270) translate(-36 17)" onmousedown="handlePan(-1,0)">
                  <use xlink:href="#rim" fill="#404040">
                        <set attributeName="fill" to="#808080" begin="arrowLeft.mouseover" end="arrowLeft.mouseout"/>
                  </use>
                  <path fill="none" stroke="white" stroke-width="1.5" d="M0,-3.0v7 M-2.5,-0.5L0,-3.0L2.5,-0.5"/>
                </g>
        </g>
        <svg viewBox="0 0 15 15" width="100%" height="30px" preserveAspectRatio="xMaxYMin meet">
         <g id="arrow_out" transform="scale(0.3 0.3)">
          <a xlink:href="ITSClusterTask_8cxx__incl_org.svg" target="_base">
           <rect id="button" ry="5" rx="5" y="6" x="6" height="38" width="38"
                fill="#f2f5e9" fill-opacity="0.5" stroke="#606060" stroke-width="1.0"/>
           <path id="arrow"
             d="M 11.500037,31.436501 C 11.940474,20.09759 22.043105,11.32322 32.158766,21.979434 L 37.068811,17.246167 C 37.068811,17.246167 37.088388,32 37.088388,32 L 22.160133,31.978069 C 22.160133,31.978069 26.997745,27.140456 26.997745,27.140456 C 18.528582,18.264221 13.291696,25.230495 11.500037,31.436501 z"
             style="fill:#404040;"/>
          </a>
         </g>
        </svg>
</svg>
