<?xml version="1.0" encoding="UTF-8" standalone="no"?>
<!DOCTYPE svg PUBLIC "-//W3C//DTD SVG 1.1//EN"
 "http://www.w3.org/Graphics/SVG/1.1/DTD/svg11.dtd">
<!-- Generated by graphviz version 2.38.0 (20140413.2041)
 -->
<!-- Title: Modules/ITS/src/ITSFhrTask.cxx Pages: 1 -->
<svg width="1826pt" height="330pt"
 viewBox="0.00 0.00 1825.50 330.00" xmlns="http://www.w3.org/2000/svg" xmlns:xlink="http://www.w3.org/1999/xlink">
<g id="graph0" class="graph" transform="scale(1 1) rotate(0) translate(4 326)">
<title>Modules/ITS/src/ITSFhrTask.cxx</title>
<!-- Node1 -->
<g id="node1" class="node"><title>Node1</title>
<polygon fill="#bfbfbf" stroke="black" points="1260.5,-302.5 1260.5,-321.5 1422.5,-321.5 1422.5,-302.5 1260.5,-302.5"/>
<text text-anchor="middle" x="1341.5" y="-309.5" font-family="Helvetica,sans-Serif" font-size="10.00">Modules/ITS/src/ITSFhrTask.cxx</text>
</g>
<!-- Node2 -->
<g id="node2" class="node"><title>Node2</title>
<g id="a_node2"><a xlink:href="ITSFhrTask_8h.html" target="_top" xlink:title="ITS/ITSFhrTask.h">
<polygon fill="none" stroke="black" points="573,-246.5 573,-265.5 668,-265.5 668,-246.5 573,-246.5"/>
<text text-anchor="middle" x="620.5" y="-253.5" font-family="Helvetica,sans-Serif" font-size="10.00">ITS/ITSFhrTask.h</text>
</a>
</g>
</g>
<!-- Node1&#45;&gt;Node2 -->
<g id="edge1" class="edge"><title>Node1&#45;&gt;Node2</title>
<path fill="none" stroke="midnightblue" d="M1260.19,-304.91C1113,-293.886 805.804,-270.879 678.102,-261.314"/>
<polygon fill="midnightblue" stroke="midnightblue" points="678.362,-257.824 668.128,-260.567 677.839,-264.804 678.362,-257.824"/>
</g>
<!-- Node21 -->
<g id="node21" class="node"><title>Node21</title>
<g id="a_node21"><a xlink:href="QcInfoLogger_8h.html" target="_top" xlink:title="QualityControl/QcInfoLogger.h">
<polygon fill="none" stroke="black" points="1422,-123.5 1422,-142.5 1571,-142.5 1571,-123.5 1422,-123.5"/>
<text text-anchor="middle" x="1496.5" y="-130.5" font-family="Helvetica,sans-Serif" font-size="10.00">QualityControl/QcInfoLogger.h</text>
</a>
</g>
</g>
<!-- Node1&#45;&gt;Node21 -->
<g id="edge37" class="edge"><title>Node1&#45;&gt;Node21</title>
<path fill="none" stroke="midnightblue" d="M1333.64,-302.223C1323.14,-289.381 1307.01,-264.941 1317.5,-246 1347.08,-192.599 1413.92,-161.28 1457.03,-145.911"/>
<polygon fill="midnightblue" stroke="midnightblue" points="1458.32,-149.167 1466.64,-142.607 1456.05,-142.547 1458.32,-149.167"/>
</g>
<!-- Node32 -->
<g id="node32" class="node"><title>Node32</title>
<polygon fill="none" stroke="#bfbfbf" points="1326.5,-246.5 1326.5,-265.5 1442.5,-265.5 1442.5,-246.5 1326.5,-246.5"/>
<text text-anchor="middle" x="1384.5" y="-253.5" font-family="Helvetica,sans-Serif" font-size="10.00">DPLUtils/RawParser.h</text>
</g>
<!-- Node1&#45;&gt;Node32 -->
<g id="edge38" class="edge"><title>Node1&#45;&gt;Node32</title>
<path fill="none" stroke="midnightblue" d="M1348.6,-302.083C1354.74,-294.377 1363.77,-283.033 1371.24,-273.653"/>
<polygon fill="midnightblue" stroke="midnightblue" points="1374.04,-275.754 1377.53,-265.751 1368.56,-271.394 1374.04,-275.754"/>
</g>
<!-- Node33 -->
<g id="node33" class="node"><title>Node33</title>
<polygon fill="none" stroke="#bfbfbf" points="1460.5,-246.5 1460.5,-265.5 1596.5,-265.5 1596.5,-246.5 1460.5,-246.5"/>
<text text-anchor="middle" x="1528.5" y="-253.5" font-family="Helvetica,sans-Serif" font-size="10.00">DPLUtils/DPLRawParser.h</text>
</g>
<!-- Node1&#45;&gt;Node33 -->
<g id="edge39" class="edge"><title>Node1&#45;&gt;Node33</title>
<path fill="none" stroke="midnightblue" d="M1371.13,-302.444C1403,-293.241 1453.83,-278.562 1489.06,-268.388"/>
<polygon fill="midnightblue" stroke="midnightblue" points="1490.37,-271.653 1499.01,-265.516 1488.43,-264.928 1490.37,-271.653"/>
</g>
<!-- Node3 -->
<g id="node3" class="node"><title>Node3</title>
<g id="a_node3"><a xlink:href="TaskInterface_8h.html" target="_top" xlink:title="QualityControl/TaskInterface.h">
<polygon fill="none" stroke="black" points="846.5,-185 846.5,-204 996.5,-204 996.5,-185 846.5,-185"/>
<text text-anchor="middle" x="921.5" y="-192" font-family="Helvetica,sans-Serif" font-size="10.00">QualityControl/TaskInterface.h</text>
</a>
</g>
</g>
<!-- Node2&#45;&gt;Node3 -->
<g id="edge2" class="edge"><title>Node2&#45;&gt;Node3</title>
<path fill="none" stroke="midnightblue" d="M663.626,-246.475C717.605,-235.805 810.036,-217.534 868.337,-206.009"/>
<polygon fill="midnightblue" stroke="midnightblue" points="869.323,-209.382 878.454,-204.009 867.965,-202.515 869.323,-209.382"/>
</g>
<!-- Node24 -->
<g id="node24" class="node"><title>Node24</title>
<polygon fill="none" stroke="#bfbfbf" points="0,-179.5 0,-209.5 119,-209.5 119,-179.5 0,-179.5"/>
<text text-anchor="start" x="8" y="-197.5" font-family="Helvetica,sans-Serif" font-size="10.00">ITSMFTReconstruction</text>
<text text-anchor="middle" x="59.5" y="-186.5" font-family="Helvetica,sans-Serif" font-size="10.00">/ChipMappingITS.h</text>
</g>
<!-- Node2&#45;&gt;Node24 -->
<g id="edge29" class="edge"><title>Node2&#45;&gt;Node24</title>
<path fill="none" stroke="midnightblue" d="M572.681,-252.532C486.075,-247.65 297.359,-235.124 129.157,-210.143"/>
<polygon fill="midnightblue" stroke="midnightblue" points="129.54,-206.661 119.13,-208.635 128.499,-213.583 129.54,-206.661"/>
</g>
<!-- Node25 -->
<g id="node25" class="node"><title>Node25</title>
<polygon fill="none" stroke="#bfbfbf" points="137,-179.5 137,-209.5 256,-209.5 256,-179.5 137,-179.5"/>
<text text-anchor="start" x="145" y="-197.5" font-family="Helvetica,sans-Serif" font-size="10.00">ITSMFTReconstruction</text>
<text text-anchor="middle" x="196.5" y="-186.5" font-family="Helvetica,sans-Serif" font-size="10.00">/PixelData.h</text>
</g>
<!-- Node2&#45;&gt;Node25 -->
<g id="edge30" class="edge"><title>Node2&#45;&gt;Node25</title>
<path fill="none" stroke="midnightblue" d="M572.806,-250.264C506.265,-243.372 381.606,-229.429 266.214,-210.211"/>
<polygon fill="midnightblue" stroke="midnightblue" points="266.592,-206.725 256.149,-208.517 265.43,-213.628 266.592,-206.725"/>
</g>
<!-- Node26 -->
<g id="node26" class="node"><title>Node26</title>
<polygon fill="none" stroke="#bfbfbf" points="274,-185 274,-204 407,-204 407,-185 274,-185"/>
<text text-anchor="middle" x="340.5" y="-192" font-family="Helvetica,sans-Serif" font-size="10.00">ITSBase/GeometryTGeo.h</text>
</g>
<!-- Node2&#45;&gt;Node26 -->
<g id="edge31" class="edge"><title>Node2&#45;&gt;Node26</title>
<path fill="none" stroke="midnightblue" d="M580.383,-246.475C530.378,-235.849 444.899,-217.685 390.629,-206.152"/>
<polygon fill="midnightblue" stroke="midnightblue" points="391.052,-202.664 380.543,-204.009 389.597,-209.511 391.052,-202.664"/>
</g>
<!-- Node27 -->
<g id="node27" class="node"><title>Node27</title>
<polygon fill="none" stroke="#bfbfbf" points="425,-179.5 425,-209.5 544,-209.5 544,-179.5 425,-179.5"/>
<text text-anchor="start" x="433" y="-197.5" font-family="Helvetica,sans-Serif" font-size="10.00">ITSMFTReconstruction</text>
<text text-anchor="middle" x="484.5" y="-186.5" font-family="Helvetica,sans-Serif" font-size="10.00">/RawPixelDecoder.h</text>
</g>
<!-- Node2&#45;&gt;Node27 -->
<g id="edge32" class="edge"><title>Node2&#45;&gt;Node27</title>
<path fill="none" stroke="midnightblue" d="M601.015,-246.475C581.476,-237.927 550.788,-224.501 525.811,-213.573"/>
<polygon fill="midnightblue" stroke="midnightblue" points="527.117,-210.325 516.553,-209.523 524.311,-216.738 527.117,-210.325"/>
</g>
<!-- Node28 -->
<g id="node28" class="node"><title>Node28</title>
<polygon fill="none" stroke="#bfbfbf" points="562.5,-185 562.5,-204 612.5,-204 612.5,-185 562.5,-185"/>
<text text-anchor="middle" x="587.5" y="-192" font-family="Helvetica,sans-Serif" font-size="10.00">TText.h</text>
</g>
<!-- Node2&#45;&gt;Node28 -->
<g id="edge33" class="edge"><title>Node2&#45;&gt;Node28</title>
<path fill="none" stroke="midnightblue" d="M615.772,-246.475C610.92,-237.727 603.234,-223.869 597.1,-212.809"/>
<polygon fill="midnightblue" stroke="midnightblue" points="600.13,-211.057 592.219,-204.009 594.009,-214.452 600.13,-211.057"/>
</g>
<!-- Node29 -->
<g id="node29" class="node"><title>Node29</title>
<polygon fill="none" stroke="#bfbfbf" points="630.5,-185 630.5,-204 674.5,-204 674.5,-185 630.5,-185"/>
<text text-anchor="middle" x="652.5" y="-192" font-family="Helvetica,sans-Serif" font-size="10.00">TH1.h</text>
</g>
<!-- Node2&#45;&gt;Node29 -->
<g id="edge34" class="edge"><title>Node2&#45;&gt;Node29</title>
<path fill="none" stroke="midnightblue" d="M625.085,-246.475C629.742,-237.815 637.092,-224.149 643.01,-213.145"/>
<polygon fill="midnightblue" stroke="midnightblue" points="646.27,-214.474 647.924,-204.009 640.105,-211.158 646.27,-214.474"/>
</g>
<!-- Node30 -->
<g id="node30" class="node"><title>Node30</title>
<polygon fill="none" stroke="#bfbfbf" points="692.5,-185 692.5,-204 736.5,-204 736.5,-185 692.5,-185"/>
<text text-anchor="middle" x="714.5" y="-192" font-family="Helvetica,sans-Serif" font-size="10.00">TH2.h</text>
</g>
<!-- Node2&#45;&gt;Node30 -->
<g id="edge35" class="edge"><title>Node2&#45;&gt;Node30</title>
<path fill="none" stroke="midnightblue" d="M633.968,-246.475C649.185,-236.843 674.187,-221.017 692.301,-209.552"/>
<polygon fill="midnightblue" stroke="midnightblue" points="694.479,-212.315 701.057,-204.009 690.736,-206.4 694.479,-212.315"/>
</g>
<!-- Node31 -->
<g id="node31" class="node"><title>Node31</title>
<polygon fill="none" stroke="#bfbfbf" points="754.5,-185 754.5,-204 828.5,-204 828.5,-185 754.5,-185"/>
<text text-anchor="middle" x="791.5" y="-192" font-family="Helvetica,sans-Serif" font-size="10.00">THnSparse.h</text>
</g>
<!-- Node2&#45;&gt;Node31 -->
<g id="edge36" class="edge"><title>Node2&#45;&gt;Node31</title>
<path fill="none" stroke="midnightblue" d="M645,-246.475C674.46,-236.225 724.079,-218.959 757.302,-207.399"/>
<polygon fill="midnightblue" stroke="midnightblue" points="758.751,-210.601 767.045,-204.009 756.45,-203.99 758.751,-210.601"/>
</g>
<!-- Node4 -->
<g id="node4" class="node"><title>Node4</title>
<polygon fill="none" stroke="#bfbfbf" points="1300,-0.5 1300,-19.5 1335,-19.5 1335,-0.5 1300,-0.5"/>
<text text-anchor="middle" x="1317.5" y="-7.5" font-family="Helvetica,sans-Serif" font-size="10.00">map</text>
</g>
<!-- Node3&#45;&gt;Node4 -->
<g id="edge3" class="edge"><title>Node3&#45;&gt;Node4</title>
<path fill="none" stroke="midnightblue" d="M996.842,-193.767C1094.5,-192.425 1257.21,-183.889 1298.5,-143 1328.71,-113.085 1325.36,-58.1717 1321.05,-29.5128"/>
<polygon fill="midnightblue" stroke="midnightblue" points="1324.49,-28.8762 1319.36,-19.6078 1317.59,-30.0542 1324.49,-28.8762"/>
</g>
<!-- Node5 -->
<g id="node5" class="node"><title>Node5</title>
<polygon fill="none" stroke="#bfbfbf" points="674.5,-62 674.5,-81 726.5,-81 726.5,-62 674.5,-62"/>
<text text-anchor="middle" x="700.5" y="-69" font-family="Helvetica,sans-Serif" font-size="10.00">memory</text>
</g>
<!-- Node3&#45;&gt;Node5 -->
<g id="edge4" class="edge"><title>Node3&#45;&gt;Node5</title>
<path fill="none" stroke="midnightblue" d="M874.473,-184.96C862.439,-182.891 849.506,-180.768 837.5,-179 772.163,-169.38 586.279,-192.446 542.5,-143 505.291,-100.974 606.593,-82.7376 664.017,-75.9527"/>
<polygon fill="midnightblue" stroke="midnightblue" points="664.637,-79.4054 674.186,-74.8159 663.859,-72.4487 664.637,-79.4054"/>
</g>
<!-- Node6 -->
<g id="node6" class="node"><title>Node6</title>
<polygon fill="none" stroke="#bfbfbf" points="955,-0.5 955,-19.5 996,-19.5 996,-0.5 955,-0.5"/>
<text text-anchor="middle" x="975.5" y="-7.5" font-family="Helvetica,sans-Serif" font-size="10.00">string</text>
</g>
<!-- Node3&#45;&gt;Node6 -->
<g id="edge5" class="edge"><title>Node3&#45;&gt;Node6</title>
<path fill="none" stroke="midnightblue" d="M874.918,-185C862.76,-182.907 849.656,-180.763 837.5,-179 769.74,-169.173 576.999,-194.165 531.5,-143 525.593,-136.358 526.827,-130.561 531.5,-123 566.506,-66.3593 601.966,-75.9252 665.5,-56 764.462,-24.9641 888.017,-15.1958 944.603,-12.2319"/>
<polygon fill="midnightblue" stroke="midnightblue" points="944.868,-15.7232 954.685,-11.7397 944.527,-8.73156 944.868,-15.7232"/>
</g>
<!-- Node7 -->
<g id="node7" class="node"><title>Node7</title>
<polygon fill="none" stroke="#bfbfbf" points="630,-0.5 630,-19.5 713,-19.5 713,-0.5 630,-0.5"/>
<text text-anchor="middle" x="671.5" y="-7.5" font-family="Helvetica,sans-Serif" font-size="10.00">unordered_map</text>
</g>
<!-- Node3&#45;&gt;Node7 -->
<g id="edge6" class="edge"><title>Node3&#45;&gt;Node7</title>
<path fill="none" stroke="midnightblue" d="M874.921,-184.978C862.763,-182.886 849.658,-180.747 837.5,-179 768.198,-169.041 571.093,-195.259 524.5,-143 500.748,-116.36 524.236,-89.1657 561.5,-56 579.197,-40.2496 603.146,-29.5754 624.18,-22.5924"/>
<polygon fill="midnightblue" stroke="midnightblue" points="625.418,-25.8723 633.918,-19.5469 623.329,-19.1915 625.418,-25.8723"/>
</g>
<!-- Node8 -->
<g id="node8" class="node"><title>Node8</title>
<polygon fill="none" stroke="#bfbfbf" points="552,-123.5 552,-142.5 677,-142.5 677,-123.5 552,-123.5"/>
<text text-anchor="middle" x="614.5" y="-130.5" font-family="Helvetica,sans-Serif" font-size="10.00">Framework/InitContext.h</text>
</g>
<!-- Node3&#45;&gt;Node8 -->
<g id="edge7" class="edge"><title>Node3&#45;&gt;Node8</title>
<path fill="none" stroke="midnightblue" d="M877.514,-184.975C822.345,-174.283 727.795,-155.958 668.353,-144.437"/>
<polygon fill="midnightblue" stroke="midnightblue" points="668.887,-140.976 658.404,-142.509 667.555,-147.848 668.887,-140.976"/>
</g>
<!-- Node9 -->
<g id="node9" class="node"><title>Node9</title>
<polygon fill="none" stroke="#bfbfbf" points="695.5,-123.5 695.5,-142.5 855.5,-142.5 855.5,-123.5 695.5,-123.5"/>
<text text-anchor="middle" x="775.5" y="-130.5" font-family="Helvetica,sans-Serif" font-size="10.00">Framework/ProcessingContext.h</text>
</g>
<!-- Node3&#45;&gt;Node9 -->
<g id="edge8" class="edge"><title>Node3&#45;&gt;Node9</title>
<path fill="none" stroke="midnightblue" d="M900.582,-184.975C875.754,-174.857 834.157,-157.905 805.806,-146.351"/>
<polygon fill="midnightblue" stroke="midnightblue" points="806.961,-143.042 796.379,-142.509 804.319,-149.524 806.961,-143.042"/>
</g>
<!-- Node10 -->
<g id="node10" class="node"><title>Node10</title>
<polygon fill="none" stroke="#bfbfbf" points="874,-123.5 874,-142.5 969,-142.5 969,-123.5 874,-123.5"/>
<text text-anchor="middle" x="921.5" y="-130.5" font-family="Helvetica,sans-Serif" font-size="10.00">CCDB/CcdbApi.h</text>
</g>
<!-- Node3&#45;&gt;Node10 -->
<g id="edge9" class="edge"><title>Node3&#45;&gt;Node10</title>
<path fill="none" stroke="midnightblue" d="M921.5,-184.975C921.5,-176.58 921.5,-163.481 921.5,-152.663"/>
<polygon fill="midnightblue" stroke="midnightblue" points="925,-152.509 921.5,-142.509 918,-152.509 925,-152.509"/>
</g>
<!-- Node11 -->
<g id="node11" class="node"><title>Node11</title>
<g id="a_node11"><a xlink:href="Activity_8h.html" target="_top" xlink:title="QualityControl/Activity.h">
<polygon fill="none" stroke="black" points="987,-123.5 987,-142.5 1110,-142.5 1110,-123.5 987,-123.5"/>
<text text-anchor="middle" x="1048.5" y="-130.5" font-family="Helvetica,sans-Serif" font-size="10.00">QualityControl/Activity.h</text>
</a>
</g>
</g>
<!-- Node3&#45;&gt;Node11 -->
<g id="edge10" class="edge"><title>Node3&#45;&gt;Node11</title>
<path fill="none" stroke="midnightblue" d="M939.696,-184.975C961.009,-174.99 996.531,-158.348 1021.16,-146.807"/>
<polygon fill="midnightblue" stroke="midnightblue" points="1022.77,-149.921 1030.34,-142.509 1019.8,-143.582 1022.77,-149.921"/>
</g>
<!-- Node12 -->
<g id="node12" class="node"><title>Node12</title>
<g id="a_node12"><a xlink:href="ObjectsManager_8h.html" target="_top" xlink:title="QualityControl/ObjectsManager.h">
<polygon fill="none" stroke="black" points="1128,-123.5 1128,-142.5 1289,-142.5 1289,-123.5 1128,-123.5"/>
<text text-anchor="middle" x="1208.5" y="-130.5" font-family="Helvetica,sans-Serif" font-size="10.00">QualityControl/ObjectsManager.h</text>
</a>
</g>
</g>
<!-- Node3&#45;&gt;Node12 -->
<g id="edge11" class="edge"><title>Node3&#45;&gt;Node12</title>
<path fill="none" stroke="midnightblue" d="M962.62,-184.975C1013.98,-174.327 1101.86,-156.109 1157.46,-144.581"/>
<polygon fill="midnightblue" stroke="midnightblue" points="1158.37,-147.966 1167.46,-142.509 1156.95,-141.112 1158.37,-147.966"/>
</g>
<!-- Node3&#45;&gt;Node21 -->
<g id="edge26" class="edge"><title>Node3&#45;&gt;Node21</title>
<path fill="none" stroke="midnightblue" d="M996.671,-185.721C1103.68,-174.648 1299.36,-154.4 1411.51,-142.794"/>
<polygon fill="midnightblue" stroke="midnightblue" points="1412.18,-146.244 1421.77,-141.733 1411.46,-139.281 1412.18,-146.244"/>
</g>
<!-- Node12&#45;&gt;Node5 -->
<g id="edge25" class="edge"><title>Node12&#45;&gt;Node5</title>
<path fill="none" stroke="midnightblue" d="M1135.72,-123.475C1025.35,-110.548 819.728,-86.4647 736.68,-76.7376"/>
<polygon fill="midnightblue" stroke="midnightblue" points="737.053,-73.2574 726.714,-75.5703 736.238,-80.2099 737.053,-73.2574"/>
</g>
<!-- Node12&#45;&gt;Node6 -->
<g id="edge24" class="edge"><title>Node12&#45;&gt;Node6</title>
<path fill="none" stroke="midnightblue" d="M1190.2,-123.454C1171.35,-114.582 1141.19,-100.181 1115.5,-87 1074.56,-65.9965 1027.7,-40.1914 999.906,-24.6982"/>
<polygon fill="midnightblue" stroke="midnightblue" points="1001.35,-21.4952 990.912,-19.6729 997.935,-27.606 1001.35,-21.4952"/>
</g>
<!-- Node13 -->
<g id="node13" class="node"><title>Node13</title>
<g id="a_node13"><a xlink:href="MonitorObject_8h.html" target="_top" xlink:title="QualityControl/MonitorObject.h">
<polygon fill="none" stroke="black" points="1125,-62 1125,-81 1276,-81 1276,-62 1125,-62"/>
<text text-anchor="middle" x="1200.5" y="-69" font-family="Helvetica,sans-Serif" font-size="10.00">QualityControl/MonitorObject.h</text>
</a>
</g>
</g>
<!-- Node12&#45;&gt;Node13 -->
<g id="edge12" class="edge"><title>Node12&#45;&gt;Node13</title>
<path fill="none" stroke="midnightblue" d="M1207.35,-123.475C1206.23,-115.08 1204.46,-101.981 1203.01,-91.1631"/>
<polygon fill="midnightblue" stroke="midnightblue" points="1206.45,-90.4535 1201.64,-81.0091 1199.51,-91.3863 1206.45,-90.4535"/>
</g>
<!-- Node17 -->
<g id="node17" class="node"><title>Node17</title>
<g id="a_node17"><a xlink:href="MonitorObjectCollection_8h.html" target="_top" xlink:title="QualityControl/MonitorObject\lCollection.h">
<polygon fill="none" stroke="black" points="1346,-56.5 1346,-86.5 1489,-86.5 1489,-56.5 1346,-56.5"/>
<text text-anchor="start" x="1354" y="-74.5" font-family="Helvetica,sans-Serif" font-size="10.00">QualityControl/MonitorObject</text>
<text text-anchor="middle" x="1417.5" y="-63.5" font-family="Helvetica,sans-Serif" font-size="10.00">Collection.h</text>
</a>
</g>
</g>
<!-- Node12&#45;&gt;Node17 -->
<g id="edge18" class="edge"><title>Node12&#45;&gt;Node17</title>
<path fill="none" stroke="midnightblue" d="M1238.44,-123.475C1269.66,-114.588 1319.4,-100.429 1358.54,-89.2859"/>
<polygon fill="midnightblue" stroke="midnightblue" points="1359.58,-92.6274 1368.24,-86.523 1357.67,-85.8949 1359.58,-92.6274"/>
</g>
<!-- Node20 -->
<g id="node20" class="node"><title>Node20</title>
<g id="a_node20"><a xlink:href="TaskConfig_8h.html" target="_top" xlink:title="QualityControl/TaskConfig.h">
<polygon fill="none" stroke="black" points="905.5,-62 905.5,-81 1045.5,-81 1045.5,-62 905.5,-62"/>
<text text-anchor="middle" x="975.5" y="-69" font-family="Helvetica,sans-Serif" font-size="10.00">QualityControl/TaskConfig.h</text>
</a>
</g>
</g>
<!-- Node12&#45;&gt;Node20 -->
<g id="edge21" class="edge"><title>Node12&#45;&gt;Node20</title>
<path fill="none" stroke="midnightblue" d="M1175.12,-123.475C1133.94,-112.959 1063.85,-95.0615 1018.63,-83.5142"/>
<polygon fill="midnightblue" stroke="midnightblue" points="1019.38,-80.0922 1008.82,-81.0091 1017.64,-86.8746 1019.38,-80.0922"/>
</g>
<!-- Node13&#45;&gt;Node4 -->
<g id="edge14" class="edge"><title>Node13&#45;&gt;Node4</title>
<path fill="none" stroke="midnightblue" d="M1217.26,-61.9751C1236.72,-52.078 1269.05,-35.6416 1291.71,-24.1151"/>
<polygon fill="midnightblue" stroke="midnightblue" points="1293.44,-27.1619 1300.77,-19.5091 1290.27,-20.9224 1293.44,-27.1619"/>
</g>
<!-- Node13&#45;&gt;Node6 -->
<g id="edge13" class="edge"><title>Node13&#45;&gt;Node6</title>
<path fill="none" stroke="midnightblue" d="M1165.31,-61.9818C1127.97,-52.8225 1067.03,-37.5319 1005.87,-20.2978"/>
<polygon fill="midnightblue" stroke="midnightblue" points="1006.63,-16.8758 996.058,-17.5158 1004.72,-23.6104 1006.63,-16.8758"/>
</g>
<!-- Node14 -->
<g id="node14" class="node"><title>Node14</title>
<polygon fill="none" stroke="#bfbfbf" points="1225.5,-0.5 1225.5,-19.5 1281.5,-19.5 1281.5,-0.5 1225.5,-0.5"/>
<text text-anchor="middle" x="1253.5" y="-7.5" font-family="Helvetica,sans-Serif" font-size="10.00">Rtypes.h</text>
</g>
<!-- Node13&#45;&gt;Node14 -->
<g id="edge15" class="edge"><title>Node13&#45;&gt;Node14</title>
<path fill="none" stroke="midnightblue" d="M1208.09,-61.9751C1216.2,-52.8733 1229.23,-38.241 1239.26,-26.983"/>
<polygon fill="midnightblue" stroke="midnightblue" points="1241.88,-29.3043 1245.92,-19.5091 1236.66,-24.6483 1241.88,-29.3043"/>
</g>
<!-- Node15 -->
<g id="node15" class="node"><title>Node15</title>
<polygon fill="none" stroke="#bfbfbf" points="1014,-0.5 1014,-19.5 1073,-19.5 1073,-0.5 1014,-0.5"/>
<text text-anchor="middle" x="1043.5" y="-7.5" font-family="Helvetica,sans-Serif" font-size="10.00">TObject.h</text>
</g>
<!-- Node13&#45;&gt;Node15 -->
<g id="edge16" class="edge"><title>Node13&#45;&gt;Node15</title>
<path fill="none" stroke="midnightblue" d="M1178.01,-61.9751C1151.19,-51.8129 1106.18,-34.7564 1075.69,-23.1996"/>
<polygon fill="midnightblue" stroke="midnightblue" points="1076.54,-19.7801 1065.95,-19.5091 1074.06,-26.3258 1076.54,-19.7801"/>
</g>
<!-- Node16 -->
<g id="node16" class="node"><title>Node16</title>
<polygon fill="none" stroke="#bfbfbf" points="1091.5,-0.5 1091.5,-19.5 1207.5,-19.5 1207.5,-0.5 1091.5,-0.5"/>
<text text-anchor="middle" x="1149.5" y="-7.5" font-family="Helvetica,sans-Serif" font-size="10.00">Common/Exceptions.h</text>
</g>
<!-- Node13&#45;&gt;Node16 -->
<g id="edge17" class="edge"><title>Node13&#45;&gt;Node16</title>
<path fill="none" stroke="midnightblue" d="M1193.19,-61.9751C1185.47,-52.9617 1173.09,-38.5246 1163.48,-27.3118"/>
<polygon fill="midnightblue" stroke="midnightblue" points="1165.96,-24.8239 1156.79,-19.5091 1160.64,-29.3795 1165.96,-24.8239"/>
</g>
<!-- Node18 -->
<g id="node18" class="node"><title>Node18</title>
<polygon fill="none" stroke="#bfbfbf" points="1500,-0.5 1500,-19.5 1569,-19.5 1569,-0.5 1500,-0.5"/>
<text text-anchor="middle" x="1534.5" y="-7.5" font-family="Helvetica,sans-Serif" font-size="10.00">TObjArray.h</text>
</g>
<!-- Node17&#45;&gt;Node18 -->
<g id="edge19" class="edge"><title>Node17&#45;&gt;Node18</title>
<path fill="none" stroke="midnightblue" d="M1445.23,-56.3993C1464.33,-46.6837 1489.56,-33.8551 1508.32,-24.3137"/>
<polygon fill="midnightblue" stroke="midnightblue" points="1510.15,-27.3106 1517.48,-19.6578 1506.98,-21.071 1510.15,-27.3106"/>
</g>
<!-- Node19 -->
<g id="node19" class="node"><title>Node19</title>
<polygon fill="none" stroke="#bfbfbf" points="1353.5,-0.5 1353.5,-19.5 1481.5,-19.5 1481.5,-0.5 1353.5,-0.5"/>
<text text-anchor="middle" x="1417.5" y="-7.5" font-family="Helvetica,sans-Serif" font-size="10.00">Mergers/MergeInterface.h</text>
</g>
<!-- Node17&#45;&gt;Node19 -->
<g id="edge20" class="edge"><title>Node17&#45;&gt;Node19</title>
<path fill="none" stroke="midnightblue" d="M1417.5,-56.3993C1417.5,-48.4664 1417.5,-38.458 1417.5,-29.8583"/>
<polygon fill="midnightblue" stroke="midnightblue" points="1421,-29.6577 1417.5,-19.6578 1414,-29.6578 1421,-29.6577"/>
</g>
<!-- Node20&#45;&gt;Node6 -->
<g id="edge22" class="edge"><title>Node20&#45;&gt;Node6</title>
<path fill="none" stroke="midnightblue" d="M975.5,-61.9751C975.5,-53.5803 975.5,-40.4806 975.5,-29.6631"/>
<polygon fill="midnightblue" stroke="midnightblue" points="979,-29.5091 975.5,-19.5091 972,-29.5091 979,-29.5091"/>
</g>
<!-- Node20&#45;&gt;Node7 -->
<g id="edge23" class="edge"><title>Node20&#45;&gt;Node7</title>
<path fill="none" stroke="midnightblue" d="M931.944,-61.9751C876.808,-51.1836 781.948,-32.6173 723.199,-21.1186"/>
<polygon fill="midnightblue" stroke="midnightblue" points="723.509,-17.6131 713.023,-19.1271 722.165,-24.4828 723.509,-17.6131"/>
</g>
<!-- Node22 -->
<g id="node22" class="node"><title>Node22</title>
<polygon fill="none" stroke="#bfbfbf" points="1507.5,-62 1507.5,-81 1637.5,-81 1637.5,-62 1507.5,-62"/>
<text text-anchor="middle" x="1572.5" y="-69" font-family="Helvetica,sans-Serif" font-size="10.00">InfoLogger/InfoLogger.hxx</text>
</g>
<!-- Node21&#45;&gt;Node22 -->
<g id="edge27" class="edge"><title>Node21&#45;&gt;Node22</title>
<path fill="none" stroke="midnightblue" d="M1507.39,-123.475C1519.47,-114.02 1539.17,-98.5961 1553.74,-87.1871"/>
<polygon fill="midnightblue" stroke="midnightblue" points="1555.91,-89.9295 1561.63,-81.0091 1551.6,-84.4177 1555.91,-89.9295"/>
</g>
<!-- Node23 -->
<g id="node23" class="node"><title>Node23</title>
<polygon fill="none" stroke="#bfbfbf" points="1655.5,-62 1655.5,-81 1817.5,-81 1817.5,-62 1655.5,-62"/>
<text text-anchor="middle" x="1736.5" y="-69" font-family="Helvetica,sans-Serif" font-size="10.00">InfoLogger/InfoLoggerMacros.hxx</text>
</g>
<!-- Node21&#45;&gt;Node23 -->
<g id="edge28" class="edge"><title>Node21&#45;&gt;Node23</title>
<path fill="none" stroke="midnightblue" d="M1530.89,-123.475C1573.39,-112.937 1645.8,-94.9863 1692.37,-83.4415"/>
<polygon fill="midnightblue" stroke="midnightblue" points="1693.31,-86.8126 1702.18,-81.0091 1691.63,-80.0183 1693.31,-86.8126"/>
</g>
</g>
</svg>
