<?xml version="1.0" encoding="UTF-8" standalone="no"?>
<!DOCTYPE svg PUBLIC "-//W3C//DTD SVG 1.1//EN"
 "http://www.w3.org/Graphics/SVG/1.1/DTD/svg11.dtd">
<!-- Generated by graphviz version 2.38.0 (20140413.2041)
 -->
<!-- Title: Modules/ITS/include/ITS/ITSFhrCheck.h Pages: 1 -->
<svg width="501pt" height="207pt"
 viewBox="0.00 0.00 501.00 207.00" xmlns="http://www.w3.org/2000/svg" xmlns:xlink="http://www.w3.org/1999/xlink">
<g id="graph0" class="graph" transform="scale(1 1) rotate(0) translate(4 203)">
<title>Modules/ITS/include/ITS/ITSFhrCheck.h</title>
<!-- Node1 -->
<g id="node1" class="node"><title>Node1</title>
<polygon fill="#bfbfbf" stroke="black" points="108.5,-168.5 108.5,-198.5 214.5,-198.5 214.5,-168.5 108.5,-168.5"/>
<text text-anchor="start" x="116.5" y="-186.5" font-family="Helvetica,sans-Serif" font-size="10.00">Modules/ITS/include</text>
<text text-anchor="middle" x="161.5" y="-175.5" font-family="Helvetica,sans-Serif" font-size="10.00">/ITS/ITSFhrCheck.h</text>
</g>
<!-- Node2 -->
<g id="node2" class="node"><title>Node2</title>
<g id="a_node2"><a xlink:href="CheckInterface_8h.html" target="_top" xlink:title="QualityControl/CheckInterface.h">
<polygon fill="none" stroke="black" points="83,-112.5 83,-131.5 240,-131.5 240,-112.5 83,-112.5"/>
<text text-anchor="middle" x="161.5" y="-119.5" font-family="Helvetica,sans-Serif" font-size="10.00">QualityControl/CheckInterface.h</text>
</a>
</g>
</g>
<!-- Node1&#45;&gt;Node2 -->
<g id="edge1" class="edge"><title>Node1&#45;&gt;Node2</title>
<path fill="none" stroke="midnightblue" d="M161.5,-168.399C161.5,-160.466 161.5,-150.458 161.5,-141.858"/>
<polygon fill="midnightblue" stroke="midnightblue" points="165,-141.658 161.5,-131.658 158,-141.658 165,-141.658"/>
</g>
<!-- Node3 -->
<g id="node3" class="node"><title>Node3</title>
<polygon fill="none" stroke="#bfbfbf" points="0,-56.5 0,-75.5 83,-75.5 83,-56.5 0,-56.5"/>
<text text-anchor="middle" x="41.5" y="-63.5" font-family="Helvetica,sans-Serif" font-size="10.00">unordered_map</text>
</g>
<!-- Node2&#45;&gt;Node3 -->
<g id="edge2" class="edge"><title>Node2&#45;&gt;Node3</title>
<path fill="none" stroke="midnightblue" d="M142.486,-112.444C122.912,-103.636 92.1924,-89.8116 69.7711,-79.722"/>
<polygon fill="midnightblue" stroke="midnightblue" points="70.9809,-76.4284 60.4254,-75.5164 68.1083,-82.8119 70.9809,-76.4284"/>
</g>
<!-- Node4 -->
<g id="node4" class="node"><title>Node4</title>
<g id="a_node4"><a xlink:href="MonitorObject_8h.html" target="_top" xlink:title="QualityControl/MonitorObject.h">
<polygon fill="none" stroke="black" points="240,-56.5 240,-75.5 391,-75.5 391,-56.5 240,-56.5"/>
<text text-anchor="middle" x="315.5" y="-63.5" font-family="Helvetica,sans-Serif" font-size="10.00">QualityControl/MonitorObject.h</text>
</a>
</g>
</g>
<!-- Node2&#45;&gt;Node4 -->
<g id="edge3" class="edge"><title>Node2&#45;&gt;Node4</title>
<path fill="none" stroke="midnightblue" d="M185.902,-112.444C211.697,-103.399 252.577,-89.064 281.518,-78.9158"/>
<polygon fill="midnightblue" stroke="midnightblue" points="282.934,-82.1283 291.212,-75.5164 280.618,-75.5226 282.934,-82.1283"/>
</g>
<!-- Node10 -->
<g id="node10" class="node"><title>Node10</title>
<g id="a_node10"><a xlink:href="Quality_8h.html" target="_top" xlink:title="QualityControl/Quality.h">
<polygon fill="none" stroke="black" points="101,-56.5 101,-75.5 222,-75.5 222,-56.5 101,-56.5"/>
<text text-anchor="middle" x="161.5" y="-63.5" font-family="Helvetica,sans-Serif" font-size="10.00">QualityControl/Quality.h</text>
</a>
</g>
</g>
<!-- Node2&#45;&gt;Node10 -->
<g id="edge9" class="edge"><title>Node2&#45;&gt;Node10</title>
<path fill="none" stroke="midnightblue" d="M161.5,-112.083C161.5,-105.006 161.5,-94.8611 161.5,-85.9865"/>
<polygon fill="midnightblue" stroke="midnightblue" points="165,-85.751 161.5,-75.7511 158,-85.7511 165,-85.751"/>
</g>
<!-- Node5 -->
<g id="node5" class="node"><title>Node5</title>
<polygon fill="none" stroke="#bfbfbf" points="113,-0.5 113,-19.5 154,-19.5 154,-0.5 113,-0.5"/>
<text text-anchor="middle" x="133.5" y="-7.5" font-family="Helvetica,sans-Serif" font-size="10.00">string</text>
</g>
<!-- Node4&#45;&gt;Node5 -->
<g id="edge4" class="edge"><title>Node4&#45;&gt;Node5</title>
<path fill="none" stroke="midnightblue" d="M286.634,-56.488C257.963,-48.0262 212.496,-34.587 163.909,-20.1141"/>
<polygon fill="midnightblue" stroke="midnightblue" points="164.737,-16.7088 154.154,-17.2069 162.738,-23.4172 164.737,-16.7088"/>
</g>
<!-- Node6 -->
<g id="node6" class="node"><title>Node6</title>
<polygon fill="none" stroke="#bfbfbf" points="172,-0.5 172,-19.5 207,-19.5 207,-0.5 172,-0.5"/>
<text text-anchor="middle" x="189.5" y="-7.5" font-family="Helvetica,sans-Serif" font-size="10.00">map</text>
</g>
<!-- Node4&#45;&gt;Node6 -->
<g id="edge5" class="edge"><title>Node4&#45;&gt;Node6</title>
<path fill="none" stroke="midnightblue" d="M295.535,-56.4435C274.284,-47.3359 240.518,-32.865 216.812,-22.7053"/>
<polygon fill="midnightblue" stroke="midnightblue" points="217.905,-19.3656 207.334,-18.6433 215.147,-25.7996 217.905,-19.3656"/>
</g>
<!-- Node7 -->
<g id="node7" class="node"><title>Node7</title>
<polygon fill="none" stroke="#bfbfbf" points="225.5,-0.5 225.5,-19.5 281.5,-19.5 281.5,-0.5 225.5,-0.5"/>
<text text-anchor="middle" x="253.5" y="-7.5" font-family="Helvetica,sans-Serif" font-size="10.00">Rtypes.h</text>
</g>
<!-- Node4&#45;&gt;Node7 -->
<g id="edge6" class="edge"><title>Node4&#45;&gt;Node7</title>
<path fill="none" stroke="midnightblue" d="M305.539,-56.324C296.373,-48.3414 282.563,-36.3128 271.472,-26.6529"/>
<polygon fill="midnightblue" stroke="midnightblue" points="273.482,-23.7624 263.643,-19.8339 268.885,-29.041 273.482,-23.7624"/>
</g>
<!-- Node8 -->
<g id="node8" class="node"><title>Node8</title>
<polygon fill="none" stroke="#bfbfbf" points="434,-0.5 434,-19.5 493,-19.5 493,-0.5 434,-0.5"/>
<text text-anchor="middle" x="463.5" y="-7.5" font-family="Helvetica,sans-Serif" font-size="10.00">TObject.h</text>
</g>
<!-- Node4&#45;&gt;Node8 -->
<g id="edge7" class="edge"><title>Node4&#45;&gt;Node8</title>
<path fill="none" stroke="midnightblue" d="M338.951,-56.4435C363.633,-47.4381 402.685,-33.1891 430.477,-23.049"/>
<polygon fill="midnightblue" stroke="midnightblue" points="431.964,-26.2321 440.159,-19.5164 429.565,-19.6561 431.964,-26.2321"/>
</g>
<!-- Node9 -->
<g id="node9" class="node"><title>Node9</title>
<polygon fill="none" stroke="#bfbfbf" points="299.5,-0.5 299.5,-19.5 415.5,-19.5 415.5,-0.5 299.5,-0.5"/>
<text text-anchor="middle" x="357.5" y="-7.5" font-family="Helvetica,sans-Serif" font-size="10.00">Common/Exceptions.h</text>
</g>
<!-- Node4&#45;&gt;Node9 -->
<g id="edge8" class="edge"><title>Node4&#45;&gt;Node9</title>
<path fill="none" stroke="midnightblue" d="M322.435,-56.083C328.429,-48.3768 337.252,-37.0333 344.548,-27.6531"/>
<polygon fill="midnightblue" stroke="midnightblue" points="347.317,-29.7934 350.694,-19.7511 341.791,-25.4958 347.317,-29.7934"/>
</g>
<!-- Node10&#45;&gt;Node5 -->
<g id="edge11" class="edge"><title>Node10&#45;&gt;Node5</title>
<path fill="none" stroke="midnightblue" d="M156.876,-56.083C153.044,-48.6913 147.476,-37.9533 142.735,-28.8111"/>
<polygon fill="midnightblue" stroke="midnightblue" points="145.748,-27.0175 138.038,-19.7511 139.534,-30.2398 145.748,-27.0175"/>
</g>
<!-- Node10&#45;&gt;Node6 -->
<g id="edge12" class="edge"><title>Node10&#45;&gt;Node6</title>
<path fill="none" stroke="midnightblue" d="M166.124,-56.083C169.956,-48.6913 175.524,-37.9533 180.265,-28.8111"/>
<polygon fill="midnightblue" stroke="midnightblue" points="183.466,-30.2398 184.962,-19.7511 177.252,-27.0175 183.466,-30.2398"/>
</g>
<!-- Node10&#45;&gt;Node7 -->
<g id="edge10" class="edge"><title>Node10&#45;&gt;Node7</title>
<path fill="none" stroke="midnightblue" d="M176.281,-56.324C190.767,-47.8215 213.073,-34.7288 229.993,-24.7975"/>
<polygon fill="midnightblue" stroke="midnightblue" points="231.903,-27.735 238.755,-19.6545 228.359,-21.6981 231.903,-27.735"/>
</g>
</g>
</svg>
