<?xml version="1.0" encoding="UTF-8" standalone="no"?>
<!DOCTYPE svg PUBLIC "-//W3C//DTD SVG 1.1//EN"
 "http://www.w3.org/Graphics/SVG/1.1/DTD/svg11.dtd">
<!-- Generated by graphviz version 2.38.0 (20140413.2041)
 -->
<!-- Title: Modules/ITS/src/ITSFeeTask.cxx Pages: 1 -->
<svg width="1311pt" height="319pt"
 viewBox="0.00 0.00 1310.78 319.00" xmlns="http://www.w3.org/2000/svg" xmlns:xlink="http://www.w3.org/1999/xlink">
<g id="graph0" class="graph" transform="scale(1 1) rotate(0) translate(4 315)">
<title>Modules/ITS/src/ITSFeeTask.cxx</title>
<!-- Node1 -->
<g id="node1" class="node"><title>Node1</title>
<polygon fill="#bfbfbf" stroke="black" points="744.782,-291.5 744.782,-310.5 908.782,-310.5 908.782,-291.5 744.782,-291.5"/>
<text text-anchor="middle" x="826.782" y="-298.5" font-family="Helvetica,sans-Serif" font-size="10.00">Modules/ITS/src/ITSFeeTask.cxx</text>
</g>
<!-- Node2 -->
<g id="node2" class="node"><title>Node2</title>
<g id="a_node2"><a xlink:href="ITSFeeTask_8h.html" target="_top" xlink:title="ITS/ITSFeeTask.h">
<polygon fill="none" stroke="black" points="300.782,-235.5 300.782,-254.5 398.782,-254.5 398.782,-235.5 300.782,-235.5"/>
<text text-anchor="middle" x="349.782" y="-242.5" font-family="Helvetica,sans-Serif" font-size="10.00">ITS/ITSFeeTask.h</text>
</a>
</g>
</g>
<!-- Node1&#45;&gt;Node2 -->
<g id="edge1" class="edge"><title>Node1&#45;&gt;Node2</title>
<path fill="none" stroke="midnightblue" d="M751.463,-291.473C656.607,-280.735 495.593,-262.507 409.033,-252.708"/>
<polygon fill="midnightblue" stroke="midnightblue" points="409.185,-249.203 398.855,-251.555 408.398,-256.158 409.185,-249.203"/>
</g>
<!-- Node21 -->
<g id="node21" class="node"><title>Node21</title>
<g id="a_node21"><a xlink:href="QcInfoLogger_8h.html" target="_top" xlink:title="QualityControl/QcInfoLogger.h">
<polygon fill="none" stroke="black" points="907.282,-123.5 907.282,-142.5 1056.28,-142.5 1056.28,-123.5 907.282,-123.5"/>
<text text-anchor="middle" x="981.782" y="-130.5" font-family="Helvetica,sans-Serif" font-size="10.00">QualityControl/QcInfoLogger.h</text>
</a>
</g>
</g>
<!-- Node1&#45;&gt;Node21 -->
<g id="edge31" class="edge"><title>Node1&#45;&gt;Node21</title>
<path fill="none" stroke="midnightblue" d="M818.805,-291.159C808.164,-278.237 791.863,-253.698 802.782,-235 831.327,-186.117 893.234,-159.033 936.192,-145.503"/>
<polygon fill="midnightblue" stroke="midnightblue" points="937.3,-148.824 945.861,-142.584 935.276,-142.123 937.3,-148.824"/>
</g>
<!-- Node26 -->
<g id="node26" class="node"><title>Node26</title>
<polygon fill="none" stroke="#bfbfbf" points="811.782,-235.5 811.782,-254.5 927.782,-254.5 927.782,-235.5 811.782,-235.5"/>
<text text-anchor="middle" x="869.782" y="-242.5" font-family="Helvetica,sans-Serif" font-size="10.00">DPLUtils/RawParser.h</text>
</g>
<!-- Node1&#45;&gt;Node26 -->
<g id="edge32" class="edge"><title>Node1&#45;&gt;Node26</title>
<path fill="none" stroke="midnightblue" d="M833.882,-291.083C840.019,-283.377 849.052,-272.033 856.521,-262.653"/>
<polygon fill="midnightblue" stroke="midnightblue" points="859.322,-264.754 862.813,-254.751 853.846,-260.394 859.322,-264.754"/>
</g>
<!-- Node27 -->
<g id="node27" class="node"><title>Node27</title>
<polygon fill="none" stroke="#bfbfbf" points="945.782,-235.5 945.782,-254.5 1081.78,-254.5 1081.78,-235.5 945.782,-235.5"/>
<text text-anchor="middle" x="1013.78" y="-242.5" font-family="Helvetica,sans-Serif" font-size="10.00">DPLUtils/DPLRawParser.h</text>
</g>
<!-- Node1&#45;&gt;Node27 -->
<g id="edge33" class="edge"><title>Node1&#45;&gt;Node27</title>
<path fill="none" stroke="midnightblue" d="M856.413,-291.444C888.282,-282.241 939.115,-267.562 974.346,-257.388"/>
<polygon fill="midnightblue" stroke="midnightblue" points="975.653,-260.653 984.29,-254.516 973.711,-253.928 975.653,-260.653"/>
</g>
<!-- Node3 -->
<g id="node3" class="node"><title>Node3</title>
<g id="a_node3"><a xlink:href="TaskInterface_8h.html" target="_top" xlink:title="QualityControl/TaskInterface.h">
<polygon fill="none" stroke="black" points="331.782,-179.5 331.782,-198.5 481.782,-198.5 481.782,-179.5 331.782,-179.5"/>
<text text-anchor="middle" x="406.782" y="-186.5" font-family="Helvetica,sans-Serif" font-size="10.00">QualityControl/TaskInterface.h</text>
</a>
</g>
</g>
<!-- Node2&#45;&gt;Node3 -->
<g id="edge2" class="edge"><title>Node2&#45;&gt;Node3</title>
<path fill="none" stroke="midnightblue" d="M358.94,-235.324C367.283,-227.42 379.814,-215.548 389.959,-205.938"/>
<polygon fill="midnightblue" stroke="midnightblue" points="392.605,-208.252 397.457,-198.834 387.791,-203.171 392.605,-208.252"/>
</g>
<!-- Node24 -->
<g id="node24" class="node"><title>Node24</title>
<polygon fill="none" stroke="#bfbfbf" points="207.782,-179.5 207.782,-198.5 251.782,-198.5 251.782,-179.5 207.782,-179.5"/>
<text text-anchor="middle" x="229.782" y="-186.5" font-family="Helvetica,sans-Serif" font-size="10.00">TH1.h</text>
</g>
<!-- Node2&#45;&gt;Node24 -->
<g id="edge29" class="edge"><title>Node2&#45;&gt;Node24</title>
<path fill="none" stroke="midnightblue" d="M330.768,-235.444C311.194,-226.636 280.474,-212.812 258.053,-202.722"/>
<polygon fill="midnightblue" stroke="midnightblue" points="259.263,-199.428 248.707,-198.516 256.39,-205.812 259.263,-199.428"/>
</g>
<!-- Node25 -->
<g id="node25" class="node"><title>Node25</title>
<polygon fill="none" stroke="#bfbfbf" points="269.782,-179.5 269.782,-198.5 313.782,-198.5 313.782,-179.5 269.782,-179.5"/>
<text text-anchor="middle" x="291.782" y="-186.5" font-family="Helvetica,sans-Serif" font-size="10.00">TH2.h</text>
</g>
<!-- Node2&#45;&gt;Node25 -->
<g id="edge30" class="edge"><title>Node2&#45;&gt;Node25</title>
<path fill="none" stroke="midnightblue" d="M340.463,-235.324C331.889,-227.341 318.97,-215.313 308.594,-205.653"/>
<polygon fill="midnightblue" stroke="midnightblue" points="310.974,-203.086 301.27,-198.834 306.204,-208.21 310.974,-203.086"/>
</g>
<!-- Node4 -->
<g id="node4" class="node"><title>Node4</title>
<polygon fill="none" stroke="#bfbfbf" points="785.282,-0.5 785.282,-19.5 820.282,-19.5 820.282,-0.5 785.282,-0.5"/>
<text text-anchor="middle" x="802.782" y="-7.5" font-family="Helvetica,sans-Serif" font-size="10.00">map</text>
</g>
<!-- Node3&#45;&gt;Node4 -->
<g id="edge3" class="edge"><title>Node3&#45;&gt;Node4</title>
<path fill="none" stroke="midnightblue" d="M481.987,-183.882C585.782,-177.473 762.615,-163.662 783.782,-143 814.205,-113.303 810.759,-58.2947 806.38,-29.565"/>
<polygon fill="midnightblue" stroke="midnightblue" points="809.815,-28.8915 804.663,-19.6338 802.917,-30.0838 809.815,-28.8915"/>
</g>
<!-- Node5 -->
<g id="node5" class="node"><title>Node5</title>
<polygon fill="none" stroke="#bfbfbf" points="159.782,-62 159.782,-81 211.782,-81 211.782,-62 159.782,-62"/>
<text text-anchor="middle" x="185.782" y="-69" font-family="Helvetica,sans-Serif" font-size="10.00">memory</text>
</g>
<!-- Node3&#45;&gt;Node5 -->
<g id="edge4" class="edge"><title>Node3&#45;&gt;Node5</title>
<path fill="none" stroke="midnightblue" d="M331.617,-179.7C221.836,-167.492 30.2915,-145.825 27.7819,-143 -9.4952,-101.035 91.8375,-82.7703 149.284,-75.966"/>
<polygon fill="midnightblue" stroke="midnightblue" points="149.909,-79.418 159.457,-74.8257 149.129,-72.4615 149.909,-79.418"/>
</g>
<!-- Node6 -->
<g id="node6" class="node"><title>Node6</title>
<polygon fill="none" stroke="#bfbfbf" points="440.282,-0.5 440.282,-19.5 481.282,-19.5 481.282,-0.5 440.282,-0.5"/>
<text text-anchor="middle" x="460.782" y="-7.5" font-family="Helvetica,sans-Serif" font-size="10.00">string</text>
</g>
<!-- Node3&#45;&gt;Node6 -->
<g id="edge5" class="edge"><title>Node3&#45;&gt;Node6</title>
<path fill="none" stroke="midnightblue" d="M331.746,-179.968C219.179,-167.833 19.3859,-145.922 16.7819,-143 10.8677,-136.364 12.1087,-130.561 16.7819,-123 51.7878,-66.3593 87.2479,-75.9252 150.782,-56 249.744,-24.9641 373.299,-15.1958 429.885,-12.2319"/>
<polygon fill="midnightblue" stroke="midnightblue" points="430.15,-15.7232 439.967,-11.7397 429.808,-8.73156 430.15,-15.7232"/>
</g>
<!-- Node7 -->
<g id="node7" class="node"><title>Node7</title>
<polygon fill="none" stroke="#bfbfbf" points="115.282,-0.5 115.282,-19.5 198.282,-19.5 198.282,-0.5 115.282,-0.5"/>
<text text-anchor="middle" x="156.782" y="-7.5" font-family="Helvetica,sans-Serif" font-size="10.00">unordered_map</text>
</g>
<!-- Node3&#45;&gt;Node7 -->
<g id="edge6" class="edge"><title>Node3&#45;&gt;Node7</title>
<path fill="none" stroke="midnightblue" d="M331.486,-179.779C216.733,-167.207 11.1138,-144.491 9.78188,-143 -13.9916,-116.38 9.43428,-89.2403 46.7819,-56 64.4784,-40.2496 88.428,-29.5754 109.462,-22.5924"/>
<polygon fill="midnightblue" stroke="midnightblue" points="110.7,-25.8723 119.2,-19.5469 108.611,-19.1915 110.7,-25.8723"/>
</g>
<!-- Node8 -->
<g id="node8" class="node"><title>Node8</title>
<polygon fill="none" stroke="#bfbfbf" points="37.2819,-123.5 37.2819,-142.5 162.282,-142.5 162.282,-123.5 37.2819,-123.5"/>
<text text-anchor="middle" x="99.7819" y="-130.5" font-family="Helvetica,sans-Serif" font-size="10.00">Framework/InitContext.h</text>
</g>
<!-- Node3&#45;&gt;Node8 -->
<g id="edge7" class="edge"><title>Node3&#45;&gt;Node8</title>
<path fill="none" stroke="midnightblue" d="M358.137,-179.444C303.908,-169.905 216.234,-154.483 158.299,-144.293"/>
<polygon fill="midnightblue" stroke="midnightblue" points="158.655,-140.802 148.199,-142.516 157.442,-147.696 158.655,-140.802"/>
</g>
<!-- Node9 -->
<g id="node9" class="node"><title>Node9</title>
<polygon fill="none" stroke="#bfbfbf" points="180.782,-123.5 180.782,-142.5 340.782,-142.5 340.782,-123.5 180.782,-123.5"/>
<text text-anchor="middle" x="260.782" y="-130.5" font-family="Helvetica,sans-Serif" font-size="10.00">Framework/ProcessingContext.h</text>
</g>
<!-- Node3&#45;&gt;Node9 -->
<g id="edge8" class="edge"><title>Node3&#45;&gt;Node9</title>
<path fill="none" stroke="midnightblue" d="M383.648,-179.444C359.3,-170.438 320.775,-156.189 293.359,-146.049"/>
<polygon fill="midnightblue" stroke="midnightblue" points="294.401,-142.703 283.808,-142.516 291.973,-149.268 294.401,-142.703"/>
</g>
<!-- Node10 -->
<g id="node10" class="node"><title>Node10</title>
<polygon fill="none" stroke="#bfbfbf" points="359.282,-123.5 359.282,-142.5 454.282,-142.5 454.282,-123.5 359.282,-123.5"/>
<text text-anchor="middle" x="406.782" y="-130.5" font-family="Helvetica,sans-Serif" font-size="10.00">CCDB/CcdbApi.h</text>
</g>
<!-- Node3&#45;&gt;Node10 -->
<g id="edge9" class="edge"><title>Node3&#45;&gt;Node10</title>
<path fill="none" stroke="midnightblue" d="M406.782,-179.083C406.782,-172.006 406.782,-161.861 406.782,-152.986"/>
<polygon fill="midnightblue" stroke="midnightblue" points="410.282,-152.751 406.782,-142.751 403.282,-152.751 410.282,-152.751"/>
</g>
<!-- Node11 -->
<g id="node11" class="node"><title>Node11</title>
<g id="a_node11"><a xlink:href="Activity_8h.html" target="_top" xlink:title="QualityControl/Activity.h">
<polygon fill="none" stroke="black" points="472.282,-123.5 472.282,-142.5 595.282,-142.5 595.282,-123.5 472.282,-123.5"/>
<text text-anchor="middle" x="533.782" y="-130.5" font-family="Helvetica,sans-Serif" font-size="10.00">QualityControl/Activity.h</text>
</a>
</g>
</g>
<!-- Node3&#45;&gt;Node11 -->
<g id="edge10" class="edge"><title>Node3&#45;&gt;Node11</title>
<path fill="none" stroke="midnightblue" d="M426.905,-179.444C447.806,-170.557 480.717,-156.563 504.498,-146.451"/>
<polygon fill="midnightblue" stroke="midnightblue" points="505.919,-149.65 513.752,-142.516 503.18,-143.208 505.919,-149.65"/>
</g>
<!-- Node12 -->
<g id="node12" class="node"><title>Node12</title>
<g id="a_node12"><a xlink:href="ObjectsManager_8h.html" target="_top" xlink:title="QualityControl/ObjectsManager.h">
<polygon fill="none" stroke="black" points="613.282,-123.5 613.282,-142.5 774.282,-142.5 774.282,-123.5 613.282,-123.5"/>
<text text-anchor="middle" x="693.782" y="-130.5" font-family="Helvetica,sans-Serif" font-size="10.00">QualityControl/ObjectsManager.h</text>
</a>
</g>
</g>
<!-- Node3&#45;&gt;Node12 -->
<g id="edge11" class="edge"><title>Node3&#45;&gt;Node12</title>
<path fill="none" stroke="midnightblue" d="M452.258,-179.444C502.744,-169.944 584.238,-154.611 638.402,-144.42"/>
<polygon fill="midnightblue" stroke="midnightblue" points="639.338,-147.805 648.519,-142.516 638.044,-140.926 639.338,-147.805"/>
</g>
<!-- Node3&#45;&gt;Node21 -->
<g id="edge26" class="edge"><title>Node3&#45;&gt;Node21</title>
<path fill="none" stroke="midnightblue" d="M481.953,-180.94C588.963,-170.891 784.644,-152.514 896.794,-141.981"/>
<polygon fill="midnightblue" stroke="midnightblue" points="897.419,-145.438 907.048,-141.018 896.765,-138.469 897.419,-145.438"/>
</g>
<!-- Node12&#45;&gt;Node5 -->
<g id="edge25" class="edge"><title>Node12&#45;&gt;Node5</title>
<path fill="none" stroke="midnightblue" d="M620.998,-123.475C510.629,-110.548 305.01,-86.4647 221.962,-76.7376"/>
<polygon fill="midnightblue" stroke="midnightblue" points="222.335,-73.2574 211.995,-75.5703 221.52,-80.2099 222.335,-73.2574"/>
</g>
<!-- Node12&#45;&gt;Node6 -->
<g id="edge24" class="edge"><title>Node12&#45;&gt;Node6</title>
<path fill="none" stroke="midnightblue" d="M675.481,-123.454C656.635,-114.582 626.476,-100.181 600.782,-87 559.84,-65.9965 512.979,-40.1914 485.188,-24.6982"/>
<polygon fill="midnightblue" stroke="midnightblue" points="486.631,-21.4952 476.194,-19.6729 483.216,-27.606 486.631,-21.4952"/>
</g>
<!-- Node13 -->
<g id="node13" class="node"><title>Node13</title>
<g id="a_node13"><a xlink:href="MonitorObject_8h.html" target="_top" xlink:title="QualityControl/MonitorObject.h">
<polygon fill="none" stroke="black" points="610.282,-62 610.282,-81 761.282,-81 761.282,-62 610.282,-62"/>
<text text-anchor="middle" x="685.782" y="-69" font-family="Helvetica,sans-Serif" font-size="10.00">QualityControl/MonitorObject.h</text>
</a>
</g>
</g>
<!-- Node12&#45;&gt;Node13 -->
<g id="edge12" class="edge"><title>Node12&#45;&gt;Node13</title>
<path fill="none" stroke="midnightblue" d="M692.636,-123.475C691.507,-115.08 689.746,-101.981 688.291,-91.1631"/>
<polygon fill="midnightblue" stroke="midnightblue" points="691.727,-90.4535 686.926,-81.0091 684.79,-91.3863 691.727,-90.4535"/>
</g>
<!-- Node17 -->
<g id="node17" class="node"><title>Node17</title>
<g id="a_node17"><a xlink:href="MonitorObjectCollection_8h.html" target="_top" xlink:title="QualityControl/MonitorObject\lCollection.h">
<polygon fill="none" stroke="black" points="831.282,-56.5 831.282,-86.5 974.282,-86.5 974.282,-56.5 831.282,-56.5"/>
<text text-anchor="start" x="839.282" y="-74.5" font-family="Helvetica,sans-Serif" font-size="10.00">QualityControl/MonitorObject</text>
<text text-anchor="middle" x="902.782" y="-63.5" font-family="Helvetica,sans-Serif" font-size="10.00">Collection.h</text>
</a>
</g>
</g>
<!-- Node12&#45;&gt;Node17 -->
<g id="edge18" class="edge"><title>Node12&#45;&gt;Node17</title>
<path fill="none" stroke="midnightblue" d="M723.726,-123.475C754.943,-114.588 804.679,-100.429 843.82,-89.2859"/>
<polygon fill="midnightblue" stroke="midnightblue" points="844.865,-92.6274 853.525,-86.523 842.949,-85.8949 844.865,-92.6274"/>
</g>
<!-- Node20 -->
<g id="node20" class="node"><title>Node20</title>
<g id="a_node20"><a xlink:href="TaskConfig_8h.html" target="_top" xlink:title="QualityControl/TaskConfig.h">
<polygon fill="none" stroke="black" points="390.782,-62 390.782,-81 530.782,-81 530.782,-62 390.782,-62"/>
<text text-anchor="middle" x="460.782" y="-69" font-family="Helvetica,sans-Serif" font-size="10.00">QualityControl/TaskConfig.h</text>
</a>
</g>
</g>
<!-- Node12&#45;&gt;Node20 -->
<g id="edge21" class="edge"><title>Node12&#45;&gt;Node20</title>
<path fill="none" stroke="midnightblue" d="M660.399,-123.475C619.22,-112.959 549.132,-95.0615 503.913,-83.5142"/>
<polygon fill="midnightblue" stroke="midnightblue" points="504.658,-80.0922 494.103,-81.0091 502.926,-86.8746 504.658,-80.0922"/>
</g>
<!-- Node13&#45;&gt;Node4 -->
<g id="edge14" class="edge"><title>Node13&#45;&gt;Node4</title>
<path fill="none" stroke="midnightblue" d="M702.545,-61.9751C722.007,-52.078 754.327,-35.6416 776.993,-24.1151"/>
<polygon fill="midnightblue" stroke="midnightblue" points="778.723,-27.1619 786.05,-19.5091 775.55,-20.9224 778.723,-27.1619"/>
</g>
<!-- Node13&#45;&gt;Node6 -->
<g id="edge13" class="edge"><title>Node13&#45;&gt;Node6</title>
<path fill="none" stroke="midnightblue" d="M650.591,-61.9818C613.251,-52.8225 552.315,-37.5319 491.154,-20.2978"/>
<polygon fill="midnightblue" stroke="midnightblue" points="491.916,-16.8758 481.34,-17.5158 490.006,-23.6104 491.916,-16.8758"/>
</g>
<!-- Node14 -->
<g id="node14" class="node"><title>Node14</title>
<polygon fill="none" stroke="#bfbfbf" points="710.782,-0.5 710.782,-19.5 766.782,-19.5 766.782,-0.5 710.782,-0.5"/>
<text text-anchor="middle" x="738.782" y="-7.5" font-family="Helvetica,sans-Serif" font-size="10.00">Rtypes.h</text>
</g>
<!-- Node13&#45;&gt;Node14 -->
<g id="edge15" class="edge"><title>Node13&#45;&gt;Node14</title>
<path fill="none" stroke="midnightblue" d="M693.375,-61.9751C701.483,-52.8733 714.517,-38.241 724.545,-26.983"/>
<polygon fill="midnightblue" stroke="midnightblue" points="727.164,-29.3043 731.202,-19.5091 721.937,-24.6483 727.164,-29.3043"/>
</g>
<!-- Node15 -->
<g id="node15" class="node"><title>Node15</title>
<polygon fill="none" stroke="#bfbfbf" points="499.282,-0.5 499.282,-19.5 558.282,-19.5 558.282,-0.5 499.282,-0.5"/>
<text text-anchor="middle" x="528.782" y="-7.5" font-family="Helvetica,sans-Serif" font-size="10.00">TObject.h</text>
</g>
<!-- Node13&#45;&gt;Node15 -->
<g id="edge16" class="edge"><title>Node13&#45;&gt;Node15</title>
<path fill="none" stroke="midnightblue" d="M663.288,-61.9751C636.473,-51.8129 591.467,-34.7564 560.972,-23.1996"/>
<polygon fill="midnightblue" stroke="midnightblue" points="561.826,-19.7801 551.234,-19.5091 559.345,-26.3258 561.826,-19.7801"/>
</g>
<!-- Node16 -->
<g id="node16" class="node"><title>Node16</title>
<polygon fill="none" stroke="#bfbfbf" points="576.782,-0.5 576.782,-19.5 692.782,-19.5 692.782,-0.5 576.782,-0.5"/>
<text text-anchor="middle" x="634.782" y="-7.5" font-family="Helvetica,sans-Serif" font-size="10.00">Common/Exceptions.h</text>
</g>
<!-- Node13&#45;&gt;Node16 -->
<g id="edge17" class="edge"><title>Node13&#45;&gt;Node16</title>
<path fill="none" stroke="midnightblue" d="M678.475,-61.9751C670.749,-52.9617 658.374,-38.5246 648.763,-27.3118"/>
<polygon fill="midnightblue" stroke="midnightblue" points="651.241,-24.8239 642.075,-19.5091 645.926,-29.3795 651.241,-24.8239"/>
</g>
<!-- Node18 -->
<g id="node18" class="node"><title>Node18</title>
<polygon fill="none" stroke="#bfbfbf" points="985.282,-0.5 985.282,-19.5 1054.28,-19.5 1054.28,-0.5 985.282,-0.5"/>
<text text-anchor="middle" x="1019.78" y="-7.5" font-family="Helvetica,sans-Serif" font-size="10.00">TObjArray.h</text>
</g>
<!-- Node17&#45;&gt;Node18 -->
<g id="edge19" class="edge"><title>Node17&#45;&gt;Node18</title>
<path fill="none" stroke="midnightblue" d="M930.509,-56.3993C949.614,-46.6837 974.84,-33.8551 993.602,-24.3137"/>
<polygon fill="midnightblue" stroke="midnightblue" points="995.43,-27.3106 1002.76,-19.6578 992.257,-21.071 995.43,-27.3106"/>
</g>
<!-- Node19 -->
<g id="node19" class="node"><title>Node19</title>
<polygon fill="none" stroke="#bfbfbf" points="838.782,-0.5 838.782,-19.5 966.782,-19.5 966.782,-0.5 838.782,-0.5"/>
<text text-anchor="middle" x="902.782" y="-7.5" font-family="Helvetica,sans-Serif" font-size="10.00">Mergers/MergeInterface.h</text>
</g>
<!-- Node17&#45;&gt;Node19 -->
<g id="edge20" class="edge"><title>Node17&#45;&gt;Node19</title>
<path fill="none" stroke="midnightblue" d="M902.782,-56.3993C902.782,-48.4664 902.782,-38.458 902.782,-29.8583"/>
<polygon fill="midnightblue" stroke="midnightblue" points="906.282,-29.6577 902.782,-19.6578 899.282,-29.6578 906.282,-29.6577"/>
</g>
<!-- Node20&#45;&gt;Node6 -->
<g id="edge22" class="edge"><title>Node20&#45;&gt;Node6</title>
<path fill="none" stroke="midnightblue" d="M460.782,-61.9751C460.782,-53.5803 460.782,-40.4806 460.782,-29.6631"/>
<polygon fill="midnightblue" stroke="midnightblue" points="464.282,-29.5091 460.782,-19.5091 457.282,-29.5091 464.282,-29.5091"/>
</g>
<!-- Node20&#45;&gt;Node7 -->
<g id="edge23" class="edge"><title>Node20&#45;&gt;Node7</title>
<path fill="none" stroke="midnightblue" d="M417.226,-61.9751C362.089,-51.1836 267.23,-32.6173 208.48,-21.1186"/>
<polygon fill="midnightblue" stroke="midnightblue" points="208.791,-17.6131 198.305,-19.1271 207.447,-24.4828 208.791,-17.6131"/>
</g>
<!-- Node22 -->
<g id="node22" class="node"><title>Node22</title>
<polygon fill="none" stroke="#bfbfbf" points="992.782,-62 992.782,-81 1122.78,-81 1122.78,-62 992.782,-62"/>
<text text-anchor="middle" x="1057.78" y="-69" font-family="Helvetica,sans-Serif" font-size="10.00">InfoLogger/InfoLogger.hxx</text>
</g>
<!-- Node21&#45;&gt;Node22 -->
<g id="edge27" class="edge"><title>Node21&#45;&gt;Node22</title>
<path fill="none" stroke="midnightblue" d="M992.671,-123.475C1004.75,-114.02 1024.45,-98.5961 1039.02,-87.1871"/>
<polygon fill="midnightblue" stroke="midnightblue" points="1041.2,-89.9295 1046.91,-81.0091 1036.88,-84.4177 1041.2,-89.9295"/>
</g>
<!-- Node23 -->
<g id="node23" class="node"><title>Node23</title>
<polygon fill="none" stroke="#bfbfbf" points="1140.78,-62 1140.78,-81 1302.78,-81 1302.78,-62 1140.78,-62"/>
<text text-anchor="middle" x="1221.78" y="-69" font-family="Helvetica,sans-Serif" font-size="10.00">InfoLogger/InfoLoggerMacros.hxx</text>
</g>
<!-- Node21&#45;&gt;Node23 -->
<g id="edge28" class="edge"><title>Node21&#45;&gt;Node23</title>
<path fill="none" stroke="midnightblue" d="M1016.17,-123.475C1058.67,-112.937 1131.08,-94.9863 1177.65,-83.4415"/>
<polygon fill="midnightblue" stroke="midnightblue" points="1178.6,-86.8126 1187.46,-81.0091 1176.91,-80.0183 1178.6,-86.8126"/>
</g>
</g>
</svg>
