<?xml version="1.0" encoding="UTF-8" standalone="no"?>
<!DOCTYPE svg PUBLIC "-//W3C//DTD SVG 1.1//EN"
 "http://www.w3.org/Graphics/SVG/1.1/DTD/svg11.dtd">
<!-- Generated by graphviz version 2.38.0 (20140413.2041)
 -->
<!-- Title: Modules/ITS/src/ITSTrackTask.cxx Pages: 1 -->
<!--zoomable 352 -->
<svg id="main" version="1.1" xmlns="http://www.w3.org/2000/svg" xmlns:xlink="http://www.w3.org/1999/xlink" xml:space="preserve" onload="init(evt)">
<style type="text/css"><![CDATA[
.edge:hover path { stroke: red; }
.edge:hover polygon { stroke: red; fill: red; }
]]></style>
<script type="text/javascript"><![CDATA[
var edges = document.getElementsByTagName('g');
if (edges && edges.length) {
  for (var i=0;i<edges.length;i++) {
    if (edges[i].id.substr(0,4)=='edge') {
      edges[i].setAttribute('class','edge');
    }
  }
}
]]></script>
        <defs>
                <circle id="rim" cx="0" cy="0" r="7"/>
                <circle id="rim2" cx="0" cy="0" r="3.5"/>
                <g id="zoomPlus">
                        <use xlink:href="#rim" fill="#404040">
                                <set attributeName="fill" to="#808080" begin="zoomplus.mouseover" end="zoomplus.mouseout"/>
                        </use>
                        <path d="M-4,0h8M0,-4v8" fill="none" stroke="white" stroke-width="1.5" pointer-events="none"/>
                </g>
                <g id="zoomMin">
                        <use xlink:href="#rim" fill="#404040">
                                <set attributeName="fill" to="#808080" begin="zoomminus.mouseover" end="zoomminus.mouseout"/>
                        </use>
                        <path d="M-4,0h8" fill="none" stroke="white" stroke-width="1.5" pointer-events="none"/>
                </g>
                <g id="dirArrow">
                        <path fill="none" stroke="white" stroke-width="1.5" d="M0,-3.0v7 M-2.5,-0.5L0,-3.0L2.5,-0.5"/>
                </g>
               <g id="resetDef">
                       <use xlink:href="#rim2" fill="#404040">
                               <set attributeName="fill" to="#808080" begin="reset.mouseover" end="reset.mouseout"/>
                       </use>
               </g>
        </defs>

<script type="text/javascript">
var viewWidth = 1500;
var viewHeight = 352;
var sectionId = 'dynsection-0';
</script>
<script xlink:href="svgpan.js"/>
<svg id="graph" class="graph">
<g id="viewport">
<title>Modules/ITS/src/ITSTrackTask.cxx</title>
<!-- Node1 -->
<g id="node1" class="node"><title>Node1</title>
<polygon fill="#bfbfbf" stroke="black" points="483,-313.5 483,-343.5 615,-343.5 615,-313.5 483,-313.5"/>
<text text-anchor="start" x="491" y="-331.5" font-family="Helvetica,sans-Serif" font-size="10.00">Modules/ITS/src/ITSTrack</text>
<text text-anchor="middle" x="549" y="-320.5" font-family="Helvetica,sans-Serif" font-size="10.00">Task.cxx</text>
</g>
<!-- Node2 -->
<g id="node2" class="node"><title>Node2</title>
<g id="a_node2"><a xlink:href="QcInfoLogger_8h.html" target="_top" xlink:title="QualityControl/QcInfoLogger.h">
<polygon fill="none" stroke="black" points="122.5,-123.5 122.5,-142.5 271.5,-142.5 271.5,-123.5 122.5,-123.5"/>
<text text-anchor="middle" x="197" y="-130.5" font-family="Helvetica,sans-Serif" font-size="10.00">QualityControl/QcInfoLogger.h</text>
</a>
</g>
</g>
<!-- Node1&#45;&gt;Node2 -->
<g id="edge1" class="edge"><title>Node1&#45;&gt;Node2</title>
<path fill="none" stroke="midnightblue" d="M482.988,-323.898C421.999,-318.791 329.796,-306.498 255,-277 204.543,-257.101 178.756,-257.733 153,-210 146.457,-197.875 147.799,-191.758 153,-179 157.8,-167.225 167.329,-156.856 176.295,-149.049"/>
<polygon fill="midnightblue" stroke="midnightblue" points="178.65,-151.645 184.219,-142.631 174.245,-146.205 178.65,-151.645"/>
</g>
<!-- Node5 -->
<g id="node5" class="node"><title>Node5</title>
<g id="a_node5"><a xlink:href="ITSTrackTask_8h.html" target="_top" xlink:title="ITS/ITSTrackTask.h">
<polygon fill="none" stroke="black" points="264,-252 264,-271 370,-271 370,-252 264,-252"/>
<text text-anchor="middle" x="317" y="-259" font-family="Helvetica,sans-Serif" font-size="10.00">ITS/ITSTrackTask.h</text>
</a>
</g>
</g>
<!-- Node1&#45;&gt;Node5 -->
<g id="edge4" class="edge"><title>Node1&#45;&gt;Node5</title>
<path fill="none" stroke="midnightblue" d="M498.945,-313.476C456.546,-301.597 396.547,-284.787 357.217,-273.768"/>
<polygon fill="midnightblue" stroke="midnightblue" points="358.014,-270.356 347.441,-271.029 356.126,-277.097 358.014,-270.356"/>
</g>
<!-- Node28 -->
<g id="node28" class="node"><title>Node28</title>
<polygon fill="none" stroke="#bfbfbf" points="388,-246.5 388,-276.5 544,-276.5 544,-246.5 388,-246.5"/>
<text text-anchor="start" x="396" y="-264.5" font-family="Helvetica,sans-Serif" font-size="10.00">DetectorsCommonDataFormats</text>
<text text-anchor="middle" x="466" y="-253.5" font-family="Helvetica,sans-Serif" font-size="10.00">/NameConf.h</text>
</g>
<!-- Node1&#45;&gt;Node28 -->
<g id="edge34" class="edge"><title>Node1&#45;&gt;Node28</title>
<path fill="none" stroke="midnightblue" d="M530.99,-313.396C519.57,-304.452 504.611,-292.737 491.924,-282.802"/>
<polygon fill="midnightblue" stroke="midnightblue" points="494.006,-279.987 483.975,-276.577 489.69,-285.498 494.006,-279.987"/>
</g>
<!-- Node29 -->
<g id="node29" class="node"><title>Node29</title>
<polygon fill="none" stroke="#bfbfbf" points="562.5,-252 562.5,-271 703.5,-271 703.5,-252 562.5,-252"/>
<text text-anchor="middle" x="633" y="-259" font-family="Helvetica,sans-Serif" font-size="10.00">DataFormatsITS/TrackITS.h</text>
</g>
<!-- Node1&#45;&gt;Node29 -->
<g id="edge35" class="edge"><title>Node1&#45;&gt;Node29</title>
<path fill="none" stroke="midnightblue" d="M567.227,-313.396C580.973,-302.759 599.784,-288.203 613.769,-277.381"/>
<polygon fill="midnightblue" stroke="midnightblue" points="615.997,-280.082 621.764,-271.195 611.713,-274.546 615.997,-280.082"/>
</g>
<!-- Node30 -->
<g id="node30" class="node"><title>Node30</title>
<polygon fill="none" stroke="#bfbfbf" points="721.5,-252 721.5,-271 894.5,-271 894.5,-252 721.5,-252"/>
<text text-anchor="middle" x="808" y="-259" font-family="Helvetica,sans-Serif" font-size="10.00">DataFormatsITSMFT/ROFRecord.h</text>
</g>
<!-- Node1&#45;&gt;Node30 -->
<g id="edge36" class="edge"><title>Node1&#45;&gt;Node30</title>
<path fill="none" stroke="midnightblue" d="M604.88,-313.476C652.615,-301.496 720.334,-284.501 764.217,-273.488"/>
<polygon fill="midnightblue" stroke="midnightblue" points="765.169,-276.858 774.017,-271.029 763.465,-270.068 765.169,-276.858"/>
</g>
<!-- Node31 -->
<g id="node31" class="node"><title>Node31</title>
<polygon fill="none" stroke="#bfbfbf" points="913,-252 913,-271 1043,-271 1043,-252 913,-252"/>
<text text-anchor="middle" x="978" y="-259" font-family="Helvetica,sans-Serif" font-size="10.00">Framework/InputRecord.h</text>
</g>
<!-- Node1&#45;&gt;Node31 -->
<g id="edge37" class="edge"><title>Node1&#45;&gt;Node31</title>
<path fill="none" stroke="midnightblue" d="M615.046,-319.067C686.264,-309.744 802.899,-293.806 903,-277 910.366,-275.763 918.121,-274.369 925.737,-272.946"/>
<polygon fill="midnightblue" stroke="midnightblue" points="926.453,-276.373 935.626,-271.07 925.148,-269.496 926.453,-276.373"/>
</g>
<!-- Node3 -->
<g id="node3" class="node"><title>Node3</title>
<polygon fill="none" stroke="#bfbfbf" points="0,-62 0,-81 130,-81 130,-62 0,-62"/>
<text text-anchor="middle" x="65" y="-69" font-family="Helvetica,sans-Serif" font-size="10.00">InfoLogger/InfoLogger.hxx</text>
</g>
<!-- Node2&#45;&gt;Node3 -->
<g id="edge2" class="edge"><title>Node2&#45;&gt;Node3</title>
<path fill="none" stroke="midnightblue" d="M178.088,-123.475C155.837,-113.445 118.688,-96.7002 93.0741,-85.1546"/>
<polygon fill="midnightblue" stroke="midnightblue" points="94.4322,-81.9277 83.8773,-81.0091 91.5556,-88.3094 94.4322,-81.9277"/>
</g>
<!-- Node4 -->
<g id="node4" class="node"><title>Node4</title>
<polygon fill="none" stroke="#bfbfbf" points="148,-62 148,-81 310,-81 310,-62 148,-62"/>
<text text-anchor="middle" x="229" y="-69" font-family="Helvetica,sans-Serif" font-size="10.00">InfoLogger/InfoLoggerMacros.hxx</text>
</g>
<!-- Node2&#45;&gt;Node4 -->
<g id="edge3" class="edge"><title>Node2&#45;&gt;Node4</title>
<path fill="none" stroke="midnightblue" d="M201.585,-123.475C206.242,-114.815 213.592,-101.149 219.51,-90.1453"/>
<polygon fill="midnightblue" stroke="midnightblue" points="222.77,-91.474 224.424,-81.0091 216.605,-88.1584 222.77,-91.474"/>
</g>
<!-- Node6 -->
<g id="node6" class="node"><title>Node6</title>
<g id="a_node6"><a xlink:href="TaskInterface_8h.html" target="_top" xlink:title="QualityControl/TaskInterface.h">
<polygon fill="none" stroke="black" points="623,-185 623,-204 773,-204 773,-185 623,-185"/>
<text text-anchor="middle" x="698" y="-192" font-family="Helvetica,sans-Serif" font-size="10.00">QualityControl/TaskInterface.h</text>
</a>
</g>
</g>
<!-- Node5&#45;&gt;Node6 -->
<g id="edge5" class="edge"><title>Node5&#45;&gt;Node6</title>
<path fill="none" stroke="midnightblue" d="M351.333,-251.973C360.308,-249.881 369.992,-247.744 379,-246 482.306,-226.004 509.134,-226.848 613,-210 621.284,-208.656 630.017,-207.206 638.604,-205.759"/>
<polygon fill="midnightblue" stroke="midnightblue" points="639.306,-209.19 648.581,-204.07 638.137,-202.289 639.306,-209.19"/>
</g>
<!-- Node24 -->
<g id="node24" class="node"><title>Node24</title>
<polygon fill="none" stroke="#bfbfbf" points="162.5,-185 162.5,-204 213.5,-204 213.5,-185 162.5,-185"/>
<text text-anchor="middle" x="188" y="-192" font-family="Helvetica,sans-Serif" font-size="10.00">TH1D.h</text>
</g>
<!-- Node5&#45;&gt;Node24 -->
<g id="edge30" class="edge"><title>Node5&#45;&gt;Node24</title>
<path fill="none" stroke="midnightblue" d="M299.87,-251.869C277.992,-240.845 239.908,-221.655 214.331,-208.768"/>
<polygon fill="midnightblue" stroke="midnightblue" points="215.706,-205.541 205.201,-204.167 212.556,-211.793 215.706,-205.541"/>
</g>
<!-- Node25 -->
<g id="node25" class="node"><title>Node25</title>
<polygon fill="none" stroke="#bfbfbf" points="231.5,-185 231.5,-204 282.5,-204 282.5,-185 231.5,-185"/>
<text text-anchor="middle" x="257" y="-192" font-family="Helvetica,sans-Serif" font-size="10.00">TH2D.h</text>
</g>
<!-- Node5&#45;&gt;Node25 -->
<g id="edge31" class="edge"><title>Node5&#45;&gt;Node25</title>
<path fill="none" stroke="midnightblue" d="M308.908,-251.734C299.462,-241.5 283.644,-224.364 271.947,-211.692"/>
<polygon fill="midnightblue" stroke="midnightblue" points="274.318,-209.101 264.964,-204.127 269.175,-213.849 274.318,-209.101"/>
</g>
<!-- Node26 -->
<g id="node26" class="node"><title>Node26</title>
<polygon fill="none" stroke="#bfbfbf" points="301,-179.5 301,-209.5 453,-209.5 453,-179.5 301,-179.5"/>
<text text-anchor="start" x="309" y="-197.5" font-family="Helvetica,sans-Serif" font-size="10.00">DataFormatsITSMFT/Topology</text>
<text text-anchor="middle" x="377" y="-186.5" font-family="Helvetica,sans-Serif" font-size="10.00">Dictionary.h</text>
</g>
<!-- Node5&#45;&gt;Node26 -->
<g id="edge32" class="edge"><title>Node5&#45;&gt;Node26</title>
<path fill="none" stroke="midnightblue" d="M325.092,-251.734C333.279,-242.865 346.251,-228.811 357.179,-216.972"/>
<polygon fill="midnightblue" stroke="midnightblue" points="359.784,-219.311 363.995,-209.589 354.64,-214.563 359.784,-219.311"/>
</g>
<!-- Node27 -->
<g id="node27" class="node"><title>Node27</title>
<polygon fill="none" stroke="#bfbfbf" points="471.5,-185 471.5,-204 604.5,-204 604.5,-185 471.5,-185"/>
<text text-anchor="middle" x="538" y="-192" font-family="Helvetica,sans-Serif" font-size="10.00">ITSBase/GeometryTGeo.h</text>
</g>
<!-- Node5&#45;&gt;Node27 -->
<g id="edge33" class="edge"><title>Node5&#45;&gt;Node27</title>
<path fill="none" stroke="midnightblue" d="M346.347,-251.869C385.671,-240.303 455.554,-219.749 499.191,-206.914"/>
<polygon fill="midnightblue" stroke="midnightblue" points="500.277,-210.243 508.884,-204.064 498.302,-203.528 500.277,-210.243"/>
</g>
<!-- Node6&#45;&gt;Node2 -->
<g id="edge29" class="edge"><title>Node6&#45;&gt;Node2</title>
<path fill="none" stroke="midnightblue" d="M650.872,-184.932C638.568,-182.84 625.306,-180.714 613,-179 498.575,-163.067 365.773,-149.563 281.586,-141.62"/>
<polygon fill="midnightblue" stroke="midnightblue" points="281.848,-138.129 271.565,-140.679 281.194,-145.098 281.848,-138.129"/>
</g>
<!-- Node7 -->
<g id="node7" class="node"><title>Node7</title>
<polygon fill="none" stroke="#bfbfbf" points="1222.5,-0.5 1222.5,-19.5 1257.5,-19.5 1257.5,-0.5 1222.5,-0.5"/>
<text text-anchor="middle" x="1240" y="-7.5" font-family="Helvetica,sans-Serif" font-size="10.00">map</text>
</g>
<!-- Node6&#45;&gt;Node7 -->
<g id="edge6" class="edge"><title>Node6&#45;&gt;Node7</title>
<path fill="none" stroke="midnightblue" d="M773.244,-191.296C910.249,-186.556 1189.28,-173.269 1221,-143 1251.76,-113.648 1248.17,-58.4897 1243.68,-29.6477"/>
<polygon fill="midnightblue" stroke="midnightblue" points="1247.1,-28.9162 1241.92,-19.675 1240.21,-30.1305 1247.1,-28.9162"/>
</g>
<!-- Node8 -->
<g id="node8" class="node"><title>Node8</title>
<polygon fill="none" stroke="#bfbfbf" points="597,-62 597,-81 649,-81 649,-62 597,-62"/>
<text text-anchor="middle" x="623" y="-69" font-family="Helvetica,sans-Serif" font-size="10.00">memory</text>
</g>
<!-- Node6&#45;&gt;Node8 -->
<g id="edge7" class="edge"><title>Node6&#45;&gt;Node8</title>
<path fill="none" stroke="midnightblue" d="M651.511,-184.965C585.235,-172.577 470.887,-150.3 465,-143 429.852,-99.4179 529.653,-81.9256 586.519,-75.6355"/>
<polygon fill="midnightblue" stroke="midnightblue" points="587.011,-79.1034 596.595,-74.5876 586.286,-72.1409 587.011,-79.1034"/>
</g>
<!-- Node9 -->
<g id="node9" class="node"><title>Node9</title>
<polygon fill="none" stroke="#bfbfbf" points="877.5,-0.5 877.5,-19.5 918.5,-19.5 918.5,-0.5 877.5,-0.5"/>
<text text-anchor="middle" x="898" y="-7.5" font-family="Helvetica,sans-Serif" font-size="10.00">string</text>
</g>
<!-- Node6&#45;&gt;Node9 -->
<g id="edge8" class="edge"><title>Node6&#45;&gt;Node9</title>
<path fill="none" stroke="midnightblue" d="M649.034,-184.991C579.595,-172.692 460.18,-150.59 454,-143 448.388,-136.107 449.327,-130.561 454,-123 489.006,-66.3593 524.466,-75.9252 588,-56 686.962,-24.9641 810.517,-15.1958 867.103,-12.2319"/>
<polygon fill="midnightblue" stroke="midnightblue" points="867.368,-15.7232 877.185,-11.7397 867.027,-8.73156 867.368,-15.7232"/>
</g>
<!-- Node10 -->
<g id="node10" class="node"><title>Node10</title>
<polygon fill="none" stroke="#bfbfbf" points="552.5,-0.5 552.5,-19.5 635.5,-19.5 635.5,-0.5 552.5,-0.5"/>
<text text-anchor="middle" x="594" y="-7.5" font-family="Helvetica,sans-Serif" font-size="10.00">unordered_map</text>
</g>
<!-- Node6&#45;&gt;Node10 -->
<g id="edge9" class="edge"><title>Node6&#45;&gt;Node10</title>
<path fill="none" stroke="midnightblue" d="M648.118,-184.939C636.588,-182.975 624.369,-180.904 613,-179 564.358,-170.853 425.921,-180.597 394,-143 368.974,-113.524 369.845,-86.1936 394,-56 412.238,-33.2024 489.242,-21.1433 542.199,-15.422"/>
<polygon fill="midnightblue" stroke="midnightblue" points="542.859,-18.8724 552.446,-14.3609 542.138,-11.9097 542.859,-18.8724"/>
</g>
<!-- Node11 -->
<g id="node11" class="node"><title>Node11</title>
<polygon fill="none" stroke="#bfbfbf" points="474.5,-123.5 474.5,-142.5 599.5,-142.5 599.5,-123.5 474.5,-123.5"/>
<text text-anchor="middle" x="537" y="-130.5" font-family="Helvetica,sans-Serif" font-size="10.00">Framework/InitContext.h</text>
</g>
<!-- Node6&#45;&gt;Node11 -->
<g id="edge10" class="edge"><title>Node6&#45;&gt;Node11</title>
<path fill="none" stroke="midnightblue" d="M674.933,-184.975C647.315,-174.769 600.88,-157.608 569.604,-146.049"/>
<polygon fill="midnightblue" stroke="midnightblue" points="570.618,-142.693 560.025,-142.509 568.191,-149.259 570.618,-142.693"/>
</g>
<!-- Node12 -->
<g id="node12" class="node"><title>Node12</title>
<polygon fill="none" stroke="#bfbfbf" points="618,-123.5 618,-142.5 778,-142.5 778,-123.5 618,-123.5"/>
<text text-anchor="middle" x="698" y="-130.5" font-family="Helvetica,sans-Serif" font-size="10.00">Framework/ProcessingContext.h</text>
</g>
<!-- Node6&#45;&gt;Node12 -->
<g id="edge11" class="edge"><title>Node6&#45;&gt;Node12</title>
<path fill="none" stroke="midnightblue" d="M698,-184.975C698,-176.58 698,-163.481 698,-152.663"/>
<polygon fill="midnightblue" stroke="midnightblue" points="701.5,-152.509 698,-142.509 694.5,-152.509 701.5,-152.509"/>
</g>
<!-- Node13 -->
<g id="node13" class="node"><title>Node13</title>
<polygon fill="none" stroke="#bfbfbf" points="796.5,-123.5 796.5,-142.5 891.5,-142.5 891.5,-123.5 796.5,-123.5"/>
<text text-anchor="middle" x="844" y="-130.5" font-family="Helvetica,sans-Serif" font-size="10.00">CCDB/CcdbApi.h</text>
</g>
<!-- Node6&#45;&gt;Node13 -->
<g id="edge12" class="edge"><title>Node6&#45;&gt;Node13</title>
<path fill="none" stroke="midnightblue" d="M718.918,-184.975C743.746,-174.857 785.343,-157.905 813.694,-146.351"/>
<polygon fill="midnightblue" stroke="midnightblue" points="815.181,-149.524 823.121,-142.509 812.539,-143.042 815.181,-149.524"/>
</g>
<!-- Node14 -->
<g id="node14" class="node"><title>Node14</title>
<g id="a_node14"><a xlink:href="Activity_8h.html" target="_top" xlink:title="QualityControl/Activity.h">
<polygon fill="none" stroke="black" points="909.5,-123.5 909.5,-142.5 1032.5,-142.5 1032.5,-123.5 909.5,-123.5"/>
<text text-anchor="middle" x="971" y="-130.5" font-family="Helvetica,sans-Serif" font-size="10.00">QualityControl/Activity.h</text>
</a>
</g>
</g>
<!-- Node6&#45;&gt;Node14 -->
<g id="edge13" class="edge"><title>Node6&#45;&gt;Node14</title>
<path fill="none" stroke="midnightblue" d="M737.114,-184.975C785.869,-174.349 869.211,-156.185 922.124,-144.652"/>
<polygon fill="midnightblue" stroke="midnightblue" points="922.933,-148.058 931.958,-142.509 921.442,-141.219 922.933,-148.058"/>
</g>
<!-- Node15 -->
<g id="node15" class="node"><title>Node15</title>
<g id="a_node15"><a xlink:href="ObjectsManager_8h.html" target="_top" xlink:title="QualityControl/ObjectsManager.h">
<polygon fill="none" stroke="black" points="1050.5,-123.5 1050.5,-142.5 1211.5,-142.5 1211.5,-123.5 1050.5,-123.5"/>
<text text-anchor="middle" x="1131" y="-130.5" font-family="Helvetica,sans-Serif" font-size="10.00">QualityControl/ObjectsManager.h</text>
</a>
</g>
</g>
<!-- Node6&#45;&gt;Node15 -->
<g id="edge14" class="edge"><title>Node6&#45;&gt;Node15</title>
<path fill="none" stroke="midnightblue" d="M760.038,-184.975C839.136,-174.106 975.63,-155.35 1059.16,-143.872"/>
<polygon fill="midnightblue" stroke="midnightblue" points="1059.65,-147.338 1069.08,-142.509 1058.69,-140.403 1059.65,-147.338"/>
</g>
<!-- Node15&#45;&gt;Node8 -->
<g id="edge28" class="edge"><title>Node15&#45;&gt;Node8</title>
<path fill="none" stroke="midnightblue" d="M1058.22,-123.475C947.847,-110.548 742.228,-86.4647 659.18,-76.7376"/>
<polygon fill="midnightblue" stroke="midnightblue" points="659.553,-73.2574 649.214,-75.5703 658.738,-80.2099 659.553,-73.2574"/>
</g>
<!-- Node15&#45;&gt;Node9 -->
<g id="edge27" class="edge"><title>Node15&#45;&gt;Node9</title>
<path fill="none" stroke="midnightblue" d="M1112.7,-123.454C1093.85,-114.582 1063.69,-100.181 1038,-87 997.058,-65.9965 950.198,-40.1914 922.406,-24.6982"/>
<polygon fill="midnightblue" stroke="midnightblue" points="923.849,-21.4952 913.412,-19.6729 920.435,-27.606 923.849,-21.4952"/>
</g>
<!-- Node16 -->
<g id="node16" class="node"><title>Node16</title>
<g id="a_node16"><a xlink:href="MonitorObject_8h.html" target="_top" xlink:title="QualityControl/MonitorObject.h">
<polygon fill="none" stroke="black" points="1047.5,-62 1047.5,-81 1198.5,-81 1198.5,-62 1047.5,-62"/>
<text text-anchor="middle" x="1123" y="-69" font-family="Helvetica,sans-Serif" font-size="10.00">QualityControl/MonitorObject.h</text>
</a>
</g>
</g>
<!-- Node15&#45;&gt;Node16 -->
<g id="edge15" class="edge"><title>Node15&#45;&gt;Node16</title>
<path fill="none" stroke="midnightblue" d="M1129.85,-123.475C1128.73,-115.08 1126.96,-101.981 1125.51,-91.1631"/>
<polygon fill="midnightblue" stroke="midnightblue" points="1128.95,-90.4535 1124.14,-81.0091 1122.01,-91.3863 1128.95,-90.4535"/>
</g>
<!-- Node20 -->
<g id="node20" class="node"><title>Node20</title>
<g id="a_node20"><a xlink:href="MonitorObjectCollection_8h.html" target="_top" xlink:title="QualityControl/MonitorObject\lCollection.h">
<polygon fill="none" stroke="black" points="1268.5,-56.5 1268.5,-86.5 1411.5,-86.5 1411.5,-56.5 1268.5,-56.5"/>
<text text-anchor="start" x="1276.5" y="-74.5" font-family="Helvetica,sans-Serif" font-size="10.00">QualityControl/MonitorObject</text>
<text text-anchor="middle" x="1340" y="-63.5" font-family="Helvetica,sans-Serif" font-size="10.00">Collection.h</text>
</a>
</g>
</g>
<!-- Node15&#45;&gt;Node20 -->
<g id="edge21" class="edge"><title>Node15&#45;&gt;Node20</title>
<path fill="none" stroke="midnightblue" d="M1160.94,-123.475C1192.16,-114.588 1241.9,-100.429 1281.04,-89.2859"/>
<polygon fill="midnightblue" stroke="midnightblue" points="1282.08,-92.6274 1290.74,-86.523 1280.17,-85.8949 1282.08,-92.6274"/>
</g>
<!-- Node23 -->
<g id="node23" class="node"><title>Node23</title>
<g id="a_node23"><a xlink:href="TaskConfig_8h.html" target="_top" xlink:title="QualityControl/TaskConfig.h">
<polygon fill="none" stroke="black" points="828,-62 828,-81 968,-81 968,-62 828,-62"/>
<text text-anchor="middle" x="898" y="-69" font-family="Helvetica,sans-Serif" font-size="10.00">QualityControl/TaskConfig.h</text>
</a>
</g>
</g>
<!-- Node15&#45;&gt;Node23 -->
<g id="edge24" class="edge"><title>Node15&#45;&gt;Node23</title>
<path fill="none" stroke="midnightblue" d="M1097.62,-123.475C1056.44,-112.959 986.35,-95.0615 941.131,-83.5142"/>
<polygon fill="midnightblue" stroke="midnightblue" points="941.876,-80.0922 931.321,-81.0091 940.144,-86.8746 941.876,-80.0922"/>
</g>
<!-- Node16&#45;&gt;Node7 -->
<g id="edge17" class="edge"><title>Node16&#45;&gt;Node7</title>
<path fill="none" stroke="midnightblue" d="M1139.76,-61.9751C1159.22,-52.078 1191.55,-35.6416 1214.21,-24.1151"/>
<polygon fill="midnightblue" stroke="midnightblue" points="1215.94,-27.1619 1223.27,-19.5091 1212.77,-20.9224 1215.94,-27.1619"/>
</g>
<!-- Node16&#45;&gt;Node9 -->
<g id="edge16" class="edge"><title>Node16&#45;&gt;Node9</title>
<path fill="none" stroke="midnightblue" d="M1087.81,-61.9818C1050.47,-52.8225 989.533,-37.5319 928.372,-20.2978"/>
<polygon fill="midnightblue" stroke="midnightblue" points="929.134,-16.8758 918.558,-17.5158 927.225,-23.6104 929.134,-16.8758"/>
</g>
<!-- Node17 -->
<g id="node17" class="node"><title>Node17</title>
<polygon fill="none" stroke="#bfbfbf" points="1148,-0.5 1148,-19.5 1204,-19.5 1204,-0.5 1148,-0.5"/>
<text text-anchor="middle" x="1176" y="-7.5" font-family="Helvetica,sans-Serif" font-size="10.00">Rtypes.h</text>
</g>
<!-- Node16&#45;&gt;Node17 -->
<g id="edge18" class="edge"><title>Node16&#45;&gt;Node17</title>
<path fill="none" stroke="midnightblue" d="M1130.59,-61.9751C1138.7,-52.8733 1151.73,-38.241 1161.76,-26.983"/>
<polygon fill="midnightblue" stroke="midnightblue" points="1164.38,-29.3043 1168.42,-19.5091 1159.16,-24.6483 1164.38,-29.3043"/>
</g>
<!-- Node18 -->
<g id="node18" class="node"><title>Node18</title>
<polygon fill="none" stroke="#bfbfbf" points="936.5,-0.5 936.5,-19.5 995.5,-19.5 995.5,-0.5 936.5,-0.5"/>
<text text-anchor="middle" x="966" y="-7.5" font-family="Helvetica,sans-Serif" font-size="10.00">TObject.h</text>
</g>
<!-- Node16&#45;&gt;Node18 -->
<g id="edge19" class="edge"><title>Node16&#45;&gt;Node18</title>
<path fill="none" stroke="midnightblue" d="M1100.51,-61.9751C1073.69,-51.8129 1028.68,-34.7564 998.191,-23.1996"/>
<polygon fill="midnightblue" stroke="midnightblue" points="999.044,-19.7801 988.453,-19.5091 996.563,-26.3258 999.044,-19.7801"/>
</g>
<!-- Node19 -->
<g id="node19" class="node"><title>Node19</title>
<polygon fill="none" stroke="#bfbfbf" points="1014,-0.5 1014,-19.5 1130,-19.5 1130,-0.5 1014,-0.5"/>
<text text-anchor="middle" x="1072" y="-7.5" font-family="Helvetica,sans-Serif" font-size="10.00">Common/Exceptions.h</text>
</g>
<!-- Node16&#45;&gt;Node19 -->
<g id="edge20" class="edge"><title>Node16&#45;&gt;Node19</title>
<path fill="none" stroke="midnightblue" d="M1115.69,-61.9751C1107.97,-52.9617 1095.59,-38.5246 1085.98,-27.3118"/>
<polygon fill="midnightblue" stroke="midnightblue" points="1088.46,-24.8239 1079.29,-19.5091 1083.14,-29.3795 1088.46,-24.8239"/>
</g>
<!-- Node21 -->
<g id="node21" class="node"><title>Node21</title>
<polygon fill="none" stroke="#bfbfbf" points="1422.5,-0.5 1422.5,-19.5 1491.5,-19.5 1491.5,-0.5 1422.5,-0.5"/>
<text text-anchor="middle" x="1457" y="-7.5" font-family="Helvetica,sans-Serif" font-size="10.00">TObjArray.h</text>
</g>
<!-- Node20&#45;&gt;Node21 -->
<g id="edge22" class="edge"><title>Node20&#45;&gt;Node21</title>
<path fill="none" stroke="midnightblue" d="M1367.73,-56.3993C1386.83,-46.6837 1412.06,-33.8551 1430.82,-24.3137"/>
<polygon fill="midnightblue" stroke="midnightblue" points="1432.65,-27.3106 1439.98,-19.6578 1429.48,-21.071 1432.65,-27.3106"/>
</g>
<!-- Node22 -->
<g id="node22" class="node"><title>Node22</title>
<polygon fill="none" stroke="#bfbfbf" points="1276,-0.5 1276,-19.5 1404,-19.5 1404,-0.5 1276,-0.5"/>
<text text-anchor="middle" x="1340" y="-7.5" font-family="Helvetica,sans-Serif" font-size="10.00">Mergers/MergeInterface.h</text>
</g>
<!-- Node20&#45;&gt;Node22 -->
<g id="edge23" class="edge"><title>Node20&#45;&gt;Node22</title>
<path fill="none" stroke="midnightblue" d="M1340,-56.3993C1340,-48.4664 1340,-38.458 1340,-29.8583"/>
<polygon fill="midnightblue" stroke="midnightblue" points="1343.5,-29.6577 1340,-19.6578 1336.5,-29.6578 1343.5,-29.6577"/>
</g>
<!-- Node23&#45;&gt;Node9 -->
<g id="edge25" class="edge"><title>Node23&#45;&gt;Node9</title>
<path fill="none" stroke="midnightblue" d="M898,-61.9751C898,-53.5803 898,-40.4806 898,-29.6631"/>
<polygon fill="midnightblue" stroke="midnightblue" points="901.5,-29.5091 898,-19.5091 894.5,-29.5091 901.5,-29.5091"/>
</g>
<!-- Node23&#45;&gt;Node10 -->
<g id="edge26" class="edge"><title>Node23&#45;&gt;Node10</title>
<path fill="none" stroke="midnightblue" d="M854.444,-61.9751C799.308,-51.1836 704.448,-32.6173 645.699,-21.1186"/>
<polygon fill="midnightblue" stroke="midnightblue" points="646.009,-17.6131 635.523,-19.1271 644.665,-24.4828 646.009,-17.6131"/>
</g>
</g>
</svg>
        <g id="navigator" transform="translate(0 0)" fill="#404254">
                <rect fill="#f2f5e9" fill-opacity="0.5" stroke="#606060" stroke-width=".5" x="0" y="0" width="60" height="60"/>
                <use id="zoomplus" xlink:href="#zoomPlus" x="17" y="9" onmousedown="handleZoom(evt,'in')"/>
                <use id="zoomminus" xlink:href="#zoomMin" x="42" y="9" onmousedown="handleZoom(evt,'out')"/>
                <use id="reset" xlink:href="#resetDef" x="30" y="36" onmousedown="handleReset()"/>
                <g id="arrowUp" xlink:href="#dirArrow" transform="translate(30 24)" onmousedown="handlePan(0,-1)">
                  <use xlink:href="#rim" fill="#404040">
                        <set attributeName="fill" to="#808080" begin="arrowUp.mouseover" end="arrowUp.mouseout"/>
                  </use>
                  <path fill="none" stroke="white" stroke-width="1.5" d="M0,-3.0v7 M-2.5,-0.5L0,-3.0L2.5,-0.5"/>
                </g>
                <g id="arrowRight" xlink:href="#dirArrow" transform="rotate(90) translate(36 -43)" onmousedown="handlePan(1,0)">
                  <use xlink:href="#rim" fill="#404040">
                        <set attributeName="fill" to="#808080" begin="arrowRight.mouseover" end="arrowRight.mouseout"/>
                  </use>
                  <path fill="none" stroke="white" stroke-width="1.5" d="M0,-3.0v7 M-2.5,-0.5L0,-3.0L2.5,-0.5"/>
                </g>
                <g id="arrowDown" xlink:href="#dirArrow" transform="rotate(180) translate(-30 -48)" onmousedown="handlePan(0,1)">
                  <use xlink:href="#rim" fill="#404040">
                        <set attributeName="fill" to="#808080" begin="arrowDown.mouseover" end="arrowDown.mouseout"/>
                  </use>
                  <path fill="none" stroke="white" stroke-width="1.5" d="M0,-3.0v7 M-2.5,-0.5L0,-3.0L2.5,-0.5"/>
                </g>
                <g id="arrowLeft" xlink:href="#dirArrow" transform="rotate(270) translate(-36 17)" onmousedown="handlePan(-1,0)">
                  <use xlink:href="#rim" fill="#404040">
                        <set attributeName="fill" to="#808080" begin="arrowLeft.mouseover" end="arrowLeft.mouseout"/>
                  </use>
                  <path fill="none" stroke="white" stroke-width="1.5" d="M0,-3.0v7 M-2.5,-0.5L0,-3.0L2.5,-0.5"/>
                </g>
        </g>
        <svg viewBox="0 0 15 15" width="100%" height="30px" preserveAspectRatio="xMaxYMin meet">
         <g id="arrow_out" transform="scale(0.3 0.3)">
          <a xlink:href="ITSTrackTask_8cxx__incl_org.svg" target="_base">
           <rect id="button" ry="5" rx="5" y="6" x="6" height="38" width="38"
                fill="#f2f5e9" fill-opacity="0.5" stroke="#606060" stroke-width="1.0"/>
           <path id="arrow"
             d="M 11.500037,31.436501 C 11.940474,20.09759 22.043105,11.32322 32.158766,21.979434 L 37.068811,17.246167 C 37.068811,17.246167 37.088388,32 37.088388,32 L 22.160133,31.978069 C 22.160133,31.978069 26.997745,27.140456 26.997745,27.140456 C 18.528582,18.264221 13.291696,25.230495 11.500037,31.436501 z"
             style="fill:#404040;"/>
          </a>
         </g>
        </svg>
</svg>
