<?xml version="1.0" encoding="UTF-8" standalone="no"?>
<!DOCTYPE svg PUBLIC "-//W3C//DTD SVG 1.1//EN"
 "http://www.w3.org/Graphics/SVG/1.1/DTD/svg11.dtd">
<!-- Generated by graphviz version 2.38.0 (20140413.2041)
 -->
<!-- Title: Modules/MUON/MCH/src/Mapping.cxx Pages: 1 -->
<!--zoomable 341 -->
<svg id="main" version="1.1" xmlns="http://www.w3.org/2000/svg" xmlns:xlink="http://www.w3.org/1999/xlink" xml:space="preserve" onload="init(evt)">
<style type="text/css"><![CDATA[
.edge:hover path { stroke: red; }
.edge:hover polygon { stroke: red; fill: red; }
]]></style>
<script type="text/javascript"><![CDATA[
var edges = document.getElementsByTagName('g');
if (edges && edges.length) {
  for (var i=0;i<edges.length;i++) {
    if (edges[i].id.substr(0,4)=='edge') {
      edges[i].setAttribute('class','edge');
    }
  }
}
]]></script>
        <defs>
                <circle id="rim" cx="0" cy="0" r="7"/>
                <circle id="rim2" cx="0" cy="0" r="3.5"/>
                <g id="zoomPlus">
                        <use xlink:href="#rim" fill="#404040">
                                <set attributeName="fill" to="#808080" begin="zoomplus.mouseover" end="zoomplus.mouseout"/>
                        </use>
                        <path d="M-4,0h8M0,-4v8" fill="none" stroke="white" stroke-width="1.5" pointer-events="none"/>
                </g>
                <g id="zoomMin">
                        <use xlink:href="#rim" fill="#404040">
                                <set attributeName="fill" to="#808080" begin="zoomminus.mouseover" end="zoomminus.mouseout"/>
                        </use>
                        <path d="M-4,0h8" fill="none" stroke="white" stroke-width="1.5" pointer-events="none"/>
                </g>
                <g id="dirArrow">
                        <path fill="none" stroke="white" stroke-width="1.5" d="M0,-3.0v7 M-2.5,-0.5L0,-3.0L2.5,-0.5"/>
                </g>
               <g id="resetDef">
                       <use xlink:href="#rim2" fill="#404040">
                               <set attributeName="fill" to="#808080" begin="reset.mouseover" end="reset.mouseout"/>
                       </use>
               </g>
        </defs>

<script type="text/javascript">
var viewWidth = 1468;
var viewHeight = 341;
var sectionId = 'dynsection-0';
</script>
<script xlink:href="svgpan.js"/>
<svg id="graph" class="graph">
<g id="viewport">
<title>Modules/MUON/MCH/src/Mapping.cxx</title>
<!-- Node1 -->
<g id="node1" class="node"><title>Node1</title>
<polygon fill="#bfbfbf" stroke="black" points="274,-302.5 274,-332.5 404,-332.5 404,-302.5 274,-302.5"/>
<text text-anchor="start" x="282" y="-320.5" font-family="Helvetica,sans-Serif" font-size="10.00">Modules/MUON/MCH/src</text>
<text text-anchor="middle" x="339" y="-309.5" font-family="Helvetica,sans-Serif" font-size="10.00">/Mapping.cxx</text>
</g>
<!-- Node2 -->
<g id="node2" class="node"><title>Node2</title>
<g id="a_node2"><a xlink:href="QcInfoLogger_8h.html" target="_top" xlink:title="QualityControl/QcInfoLogger.h">
<polygon fill="none" stroke="black" points="158.5,-123.5 158.5,-142.5 307.5,-142.5 307.5,-123.5 158.5,-123.5"/>
<text text-anchor="middle" x="233" y="-130.5" font-family="Helvetica,sans-Serif" font-size="10.00">QualityControl/QcInfoLogger.h</text>
</a>
</g>
</g>
<!-- Node1&#45;&gt;Node2 -->
<g id="edge1" class="edge"><title>Node1&#45;&gt;Node2</title>
<path fill="none" stroke="midnightblue" d="M329.491,-302.273C316.12,-282.076 291.247,-243.785 272,-210 260.799,-190.339 249.096,-167.117 241.468,-151.563"/>
<polygon fill="midnightblue" stroke="midnightblue" points="244.612,-150.025 237.091,-142.563 238.318,-153.087 244.612,-150.025"/>
</g>
<!-- Node5 -->
<g id="node5" class="node"><title>Node5</title>
<g id="a_node5"><a xlink:href="Mapping_8h_source.html" target="_top" xlink:title="MCH/Mapping.h">
<polygon fill="none" stroke="black" points="331,-246.5 331,-265.5 419,-265.5 419,-246.5 331,-246.5"/>
<text text-anchor="middle" x="375" y="-253.5" font-family="Helvetica,sans-Serif" font-size="10.00">MCH/Mapping.h</text>
</a>
</g>
</g>
<!-- Node1&#45;&gt;Node5 -->
<g id="edge4" class="edge"><title>Node1&#45;&gt;Node5</title>
<path fill="none" stroke="midnightblue" d="M347.531,-302.399C352.601,-294.021 359.071,-283.327 364.458,-274.423"/>
<polygon fill="midnightblue" stroke="midnightblue" points="367.58,-276.025 369.762,-265.658 361.59,-272.402 367.58,-276.025"/>
</g>
<!-- Node6 -->
<g id="node6" class="node"><title>Node6</title>
<polygon fill="none" stroke="#bfbfbf" points="281.5,-179.5 281.5,-209.5 396.5,-209.5 396.5,-179.5 281.5,-179.5"/>
<text text-anchor="start" x="289.5" y="-197.5" font-family="Helvetica,sans-Serif" font-size="10.00">MCHMappingInterface</text>
<text text-anchor="middle" x="339" y="-186.5" font-family="Helvetica,sans-Serif" font-size="10.00">/Segmentation.h</text>
</g>
<!-- Node1&#45;&gt;Node6 -->
<g id="edge32" class="edge"><title>Node1&#45;&gt;Node6</title>
<path fill="none" stroke="midnightblue" d="M332.809,-302.233C328.842,-292.289 324.064,-278.598 322,-266 319.421,-250.257 323.56,-232.828 328.397,-219.238"/>
<polygon fill="midnightblue" stroke="midnightblue" points="331.751,-220.274 332.134,-209.686 325.232,-217.724 331.751,-220.274"/>
</g>
<!-- Node25 -->
<g id="node25" class="node"><title>Node25</title>
<polygon fill="none" stroke="#bfbfbf" points="437,-246.5 437,-265.5 487,-265.5 487,-246.5 437,-246.5"/>
<text text-anchor="middle" x="462" y="-253.5" font-family="Helvetica,sans-Serif" font-size="10.00">fstream</text>
</g>
<!-- Node1&#45;&gt;Node25 -->
<g id="edge31" class="edge"><title>Node1&#45;&gt;Node25</title>
<path fill="none" stroke="midnightblue" d="M368.149,-302.399C388.418,-292.595 415.241,-279.619 435.019,-270.052"/>
<polygon fill="midnightblue" stroke="midnightblue" points="436.624,-273.163 444.102,-265.658 433.576,-266.862 436.624,-273.163"/>
</g>
<!-- Node3 -->
<g id="node3" class="node"><title>Node3</title>
<polygon fill="none" stroke="#bfbfbf" points="0,-62 0,-81 130,-81 130,-62 0,-62"/>
<text text-anchor="middle" x="65" y="-69" font-family="Helvetica,sans-Serif" font-size="10.00">InfoLogger/InfoLogger.hxx</text>
</g>
<!-- Node2&#45;&gt;Node3 -->
<g id="edge2" class="edge"><title>Node2&#45;&gt;Node3</title>
<path fill="none" stroke="midnightblue" d="M208.93,-123.475C179.987,-113.225 131.238,-95.9593 98.5983,-84.3994"/>
<polygon fill="midnightblue" stroke="midnightblue" points="99.6204,-81.0484 89.0257,-81.0091 97.2834,-87.6468 99.6204,-81.0484"/>
</g>
<!-- Node4 -->
<g id="node4" class="node"><title>Node4</title>
<polygon fill="none" stroke="#bfbfbf" points="148,-62 148,-81 310,-81 310,-62 148,-62"/>
<text text-anchor="middle" x="229" y="-69" font-family="Helvetica,sans-Serif" font-size="10.00">InfoLogger/InfoLoggerMacros.hxx</text>
</g>
<!-- Node2&#45;&gt;Node4 -->
<g id="edge3" class="edge"><title>Node2&#45;&gt;Node4</title>
<path fill="none" stroke="midnightblue" d="M232.427,-123.475C231.863,-115.08 230.982,-101.981 230.255,-91.1631"/>
<polygon fill="midnightblue" stroke="midnightblue" points="233.735,-90.7518 229.572,-81.0091 226.751,-91.2214 233.735,-90.7518"/>
</g>
<!-- Node5&#45;&gt;Node6 -->
<g id="edge5" class="edge"><title>Node5&#45;&gt;Node6</title>
<path fill="none" stroke="midnightblue" d="M369.842,-246.475C365.376,-239.094 358.711,-228.077 352.717,-218.171"/>
<polygon fill="midnightblue" stroke="midnightblue" points="355.656,-216.267 347.484,-209.523 349.667,-219.891 355.656,-216.267"/>
</g>
<!-- Node7 -->
<g id="node7" class="node"><title>Node7</title>
<g id="a_node7"><a xlink:href="TaskInterface_8h.html" target="_top" xlink:title="QualityControl/TaskInterface.h">
<polygon fill="none" stroke="black" points="430,-185 430,-204 580,-204 580,-185 430,-185"/>
<text text-anchor="middle" x="505" y="-192" font-family="Helvetica,sans-Serif" font-size="10.00">QualityControl/TaskInterface.h</text>
</a>
</g>
</g>
<!-- Node5&#45;&gt;Node7 -->
<g id="edge6" class="edge"><title>Node5&#45;&gt;Node7</title>
<path fill="none" stroke="midnightblue" d="M393.626,-246.475C415.443,-236.49 451.804,-219.848 477.017,-208.307"/>
<polygon fill="midnightblue" stroke="midnightblue" points="478.772,-211.353 486.409,-204.009 475.859,-204.988 478.772,-211.353"/>
</g>
<!-- Node7&#45;&gt;Node2 -->
<g id="edge30" class="edge"><title>Node7&#45;&gt;Node2</title>
<path fill="none" stroke="midnightblue" d="M466.029,-184.975C417.453,-174.349 334.416,-156.185 281.697,-144.652"/>
<polygon fill="midnightblue" stroke="midnightblue" points="282.416,-141.227 271.899,-142.509 280.92,-148.065 282.416,-141.227"/>
</g>
<!-- Node8 -->
<g id="node8" class="node"><title>Node8</title>
<polygon fill="none" stroke="#bfbfbf" points="1190.5,-0.5 1190.5,-19.5 1225.5,-19.5 1225.5,-0.5 1190.5,-0.5"/>
<text text-anchor="middle" x="1208" y="-7.5" font-family="Helvetica,sans-Serif" font-size="10.00">map</text>
</g>
<!-- Node7&#45;&gt;Node8 -->
<g id="edge7" class="edge"><title>Node7&#45;&gt;Node8</title>
<path fill="none" stroke="midnightblue" d="M580.092,-193.161C748.536,-191.671 1145.25,-183.819 1189,-143 1220.09,-113.997 1216.35,-58.6869 1211.76,-29.7313"/>
<polygon fill="midnightblue" stroke="midnightblue" points="1215.17,-28.9417 1209.96,-19.7166 1208.28,-30.1775 1215.17,-28.9417"/>
</g>
<!-- Node9 -->
<g id="node9" class="node"><title>Node9</title>
<polygon fill="none" stroke="#bfbfbf" points="565,-62 565,-81 617,-81 617,-62 565,-62"/>
<text text-anchor="middle" x="591" y="-69" font-family="Helvetica,sans-Serif" font-size="10.00">memory</text>
</g>
<!-- Node7&#45;&gt;Node9 -->
<g id="edge8" class="edge"><title>Node7&#45;&gt;Node9</title>
<path fill="none" stroke="midnightblue" d="M483.906,-184.858C456.618,-172.409 414.636,-148.149 433,-123 460.668,-85.1101 517.111,-74.9937 554.498,-72.6463"/>
<polygon fill="midnightblue" stroke="midnightblue" points="555.14,-76.1203 564.967,-72.159 554.815,-69.1278 555.14,-76.1203"/>
</g>
<!-- Node10 -->
<g id="node10" class="node"><title>Node10</title>
<polygon fill="none" stroke="#bfbfbf" points="845.5,-0.5 845.5,-19.5 886.5,-19.5 886.5,-0.5 845.5,-0.5"/>
<text text-anchor="middle" x="866" y="-7.5" font-family="Helvetica,sans-Serif" font-size="10.00">string</text>
</g>
<!-- Node7&#45;&gt;Node10 -->
<g id="edge9" class="edge"><title>Node7&#45;&gt;Node10</title>
<path fill="none" stroke="midnightblue" d="M480.712,-184.992C451.437,-173.303 408.142,-150.557 425,-123 459.126,-67.2153 493.691,-75.8535 556,-56 654.819,-24.5132 778.444,-14.9658 835.076,-12.1439"/>
<polygon fill="midnightblue" stroke="midnightblue" points="835.338,-15.6356 845.166,-11.678 835.015,-8.64306 835.338,-15.6356"/>
</g>
<!-- Node11 -->
<g id="node11" class="node"><title>Node11</title>
<polygon fill="none" stroke="#bfbfbf" points="520.5,-0.5 520.5,-19.5 603.5,-19.5 603.5,-0.5 520.5,-0.5"/>
<text text-anchor="middle" x="562" y="-7.5" font-family="Helvetica,sans-Serif" font-size="10.00">unordered_map</text>
</g>
<!-- Node7&#45;&gt;Node11 -->
<g id="edge10" class="edge"><title>Node7&#45;&gt;Node11</title>
<path fill="none" stroke="midnightblue" d="M430.725,-184.975C404.634,-178.001 377.889,-165.462 362,-143 339.67,-111.433 337.845,-86.1936 362,-56 380.238,-33.2024 457.242,-21.1433 510.199,-15.422"/>
<polygon fill="midnightblue" stroke="midnightblue" points="510.859,-18.8724 520.446,-14.3609 510.138,-11.9097 510.859,-18.8724"/>
</g>
<!-- Node12 -->
<g id="node12" class="node"><title>Node12</title>
<polygon fill="none" stroke="#bfbfbf" points="442.5,-123.5 442.5,-142.5 567.5,-142.5 567.5,-123.5 442.5,-123.5"/>
<text text-anchor="middle" x="505" y="-130.5" font-family="Helvetica,sans-Serif" font-size="10.00">Framework/InitContext.h</text>
</g>
<!-- Node7&#45;&gt;Node12 -->
<g id="edge11" class="edge"><title>Node7&#45;&gt;Node12</title>
<path fill="none" stroke="midnightblue" d="M505,-184.975C505,-176.58 505,-163.481 505,-152.663"/>
<polygon fill="midnightblue" stroke="midnightblue" points="508.5,-152.509 505,-142.509 501.5,-152.509 508.5,-152.509"/>
</g>
<!-- Node13 -->
<g id="node13" class="node"><title>Node13</title>
<polygon fill="none" stroke="#bfbfbf" points="586,-123.5 586,-142.5 746,-142.5 746,-123.5 586,-123.5"/>
<text text-anchor="middle" x="666" y="-130.5" font-family="Helvetica,sans-Serif" font-size="10.00">Framework/ProcessingContext.h</text>
</g>
<!-- Node7&#45;&gt;Node13 -->
<g id="edge12" class="edge"><title>Node7&#45;&gt;Node13</title>
<path fill="none" stroke="midnightblue" d="M528.067,-184.975C555.685,-174.769 602.12,-157.608 633.396,-146.049"/>
<polygon fill="midnightblue" stroke="midnightblue" points="634.809,-149.259 642.975,-142.509 632.382,-142.693 634.809,-149.259"/>
</g>
<!-- Node14 -->
<g id="node14" class="node"><title>Node14</title>
<polygon fill="none" stroke="#bfbfbf" points="764.5,-123.5 764.5,-142.5 859.5,-142.5 859.5,-123.5 764.5,-123.5"/>
<text text-anchor="middle" x="812" y="-130.5" font-family="Helvetica,sans-Serif" font-size="10.00">CCDB/CcdbApi.h</text>
</g>
<!-- Node7&#45;&gt;Node14 -->
<g id="edge13" class="edge"><title>Node7&#45;&gt;Node14</title>
<path fill="none" stroke="midnightblue" d="M548.986,-184.975C604.155,-174.283 698.705,-155.958 758.147,-144.437"/>
<polygon fill="midnightblue" stroke="midnightblue" points="758.945,-147.848 768.096,-142.509 757.613,-140.976 758.945,-147.848"/>
</g>
<!-- Node15 -->
<g id="node15" class="node"><title>Node15</title>
<g id="a_node15"><a xlink:href="Activity_8h.html" target="_top" xlink:title="QualityControl/Activity.h">
<polygon fill="none" stroke="black" points="877.5,-123.5 877.5,-142.5 1000.5,-142.5 1000.5,-123.5 877.5,-123.5"/>
<text text-anchor="middle" x="939" y="-130.5" font-family="Helvetica,sans-Serif" font-size="10.00">QualityControl/Activity.h</text>
</a>
</g>
</g>
<!-- Node7&#45;&gt;Node15 -->
<g id="edge14" class="edge"><title>Node7&#45;&gt;Node15</title>
<path fill="none" stroke="midnightblue" d="M567.182,-184.975C646.575,-174.091 783.66,-155.297 867.351,-143.823"/>
<polygon fill="midnightblue" stroke="midnightblue" points="867.853,-147.287 877.285,-142.461 866.902,-140.352 867.853,-147.287"/>
</g>
<!-- Node16 -->
<g id="node16" class="node"><title>Node16</title>
<g id="a_node16"><a xlink:href="ObjectsManager_8h.html" target="_top" xlink:title="QualityControl/ObjectsManager.h">
<polygon fill="none" stroke="black" points="1018.5,-123.5 1018.5,-142.5 1179.5,-142.5 1179.5,-123.5 1018.5,-123.5"/>
<text text-anchor="middle" x="1099" y="-130.5" font-family="Helvetica,sans-Serif" font-size="10.00">QualityControl/ObjectsManager.h</text>
</a>
</g>
</g>
<!-- Node7&#45;&gt;Node16 -->
<g id="edge15" class="edge"><title>Node7&#45;&gt;Node16</title>
<path fill="none" stroke="midnightblue" d="M580.231,-185.964C689.282,-175.041 891.008,-154.834 1008.19,-143.096"/>
<polygon fill="midnightblue" stroke="midnightblue" points="1008.62,-146.571 1018.22,-142.092 1007.92,-139.606 1008.62,-146.571"/>
</g>
<!-- Node16&#45;&gt;Node9 -->
<g id="edge29" class="edge"><title>Node16&#45;&gt;Node9</title>
<path fill="none" stroke="midnightblue" d="M1026.22,-123.475C915.847,-110.548 710.228,-86.4647 627.18,-76.7376"/>
<polygon fill="midnightblue" stroke="midnightblue" points="627.553,-73.2574 617.214,-75.5703 626.738,-80.2099 627.553,-73.2574"/>
</g>
<!-- Node16&#45;&gt;Node10 -->
<g id="edge28" class="edge"><title>Node16&#45;&gt;Node10</title>
<path fill="none" stroke="midnightblue" d="M1080.7,-123.454C1061.85,-114.582 1031.69,-100.181 1006,-87 965.058,-65.9965 918.198,-40.1914 890.406,-24.6982"/>
<polygon fill="midnightblue" stroke="midnightblue" points="891.849,-21.4952 881.412,-19.6729 888.435,-27.606 891.849,-21.4952"/>
</g>
<!-- Node17 -->
<g id="node17" class="node"><title>Node17</title>
<g id="a_node17"><a xlink:href="MonitorObject_8h.html" target="_top" xlink:title="QualityControl/MonitorObject.h">
<polygon fill="none" stroke="black" points="1015.5,-62 1015.5,-81 1166.5,-81 1166.5,-62 1015.5,-62"/>
<text text-anchor="middle" x="1091" y="-69" font-family="Helvetica,sans-Serif" font-size="10.00">QualityControl/MonitorObject.h</text>
</a>
</g>
</g>
<!-- Node16&#45;&gt;Node17 -->
<g id="edge16" class="edge"><title>Node16&#45;&gt;Node17</title>
<path fill="none" stroke="midnightblue" d="M1097.85,-123.475C1096.73,-115.08 1094.96,-101.981 1093.51,-91.1631"/>
<polygon fill="midnightblue" stroke="midnightblue" points="1096.95,-90.4535 1092.14,-81.0091 1090.01,-91.3863 1096.95,-90.4535"/>
</g>
<!-- Node21 -->
<g id="node21" class="node"><title>Node21</title>
<g id="a_node21"><a xlink:href="MonitorObjectCollection_8h.html" target="_top" xlink:title="QualityControl/MonitorObject\lCollection.h">
<polygon fill="none" stroke="black" points="1236.5,-56.5 1236.5,-86.5 1379.5,-86.5 1379.5,-56.5 1236.5,-56.5"/>
<text text-anchor="start" x="1244.5" y="-74.5" font-family="Helvetica,sans-Serif" font-size="10.00">QualityControl/MonitorObject</text>
<text text-anchor="middle" x="1308" y="-63.5" font-family="Helvetica,sans-Serif" font-size="10.00">Collection.h</text>
</a>
</g>
</g>
<!-- Node16&#45;&gt;Node21 -->
<g id="edge22" class="edge"><title>Node16&#45;&gt;Node21</title>
<path fill="none" stroke="midnightblue" d="M1128.94,-123.475C1160.16,-114.588 1209.9,-100.429 1249.04,-89.2859"/>
<polygon fill="midnightblue" stroke="midnightblue" points="1250.08,-92.6274 1258.74,-86.523 1248.17,-85.8949 1250.08,-92.6274"/>
</g>
<!-- Node24 -->
<g id="node24" class="node"><title>Node24</title>
<g id="a_node24"><a xlink:href="TaskConfig_8h.html" target="_top" xlink:title="QualityControl/TaskConfig.h">
<polygon fill="none" stroke="black" points="796,-62 796,-81 936,-81 936,-62 796,-62"/>
<text text-anchor="middle" x="866" y="-69" font-family="Helvetica,sans-Serif" font-size="10.00">QualityControl/TaskConfig.h</text>
</a>
</g>
</g>
<!-- Node16&#45;&gt;Node24 -->
<g id="edge25" class="edge"><title>Node16&#45;&gt;Node24</title>
<path fill="none" stroke="midnightblue" d="M1065.62,-123.475C1024.44,-112.959 954.35,-95.0615 909.131,-83.5142"/>
<polygon fill="midnightblue" stroke="midnightblue" points="909.876,-80.0922 899.321,-81.0091 908.144,-86.8746 909.876,-80.0922"/>
</g>
<!-- Node17&#45;&gt;Node8 -->
<g id="edge18" class="edge"><title>Node17&#45;&gt;Node8</title>
<path fill="none" stroke="midnightblue" d="M1107.76,-61.9751C1127.22,-52.078 1159.55,-35.6416 1182.21,-24.1151"/>
<polygon fill="midnightblue" stroke="midnightblue" points="1183.94,-27.1619 1191.27,-19.5091 1180.77,-20.9224 1183.94,-27.1619"/>
</g>
<!-- Node17&#45;&gt;Node10 -->
<g id="edge17" class="edge"><title>Node17&#45;&gt;Node10</title>
<path fill="none" stroke="midnightblue" d="M1055.81,-61.9818C1018.47,-52.8225 957.533,-37.5319 896.372,-20.2978"/>
<polygon fill="midnightblue" stroke="midnightblue" points="897.134,-16.8758 886.558,-17.5158 895.225,-23.6104 897.134,-16.8758"/>
</g>
<!-- Node18 -->
<g id="node18" class="node"><title>Node18</title>
<polygon fill="none" stroke="#bfbfbf" points="1116,-0.5 1116,-19.5 1172,-19.5 1172,-0.5 1116,-0.5"/>
<text text-anchor="middle" x="1144" y="-7.5" font-family="Helvetica,sans-Serif" font-size="10.00">Rtypes.h</text>
</g>
<!-- Node17&#45;&gt;Node18 -->
<g id="edge19" class="edge"><title>Node17&#45;&gt;Node18</title>
<path fill="none" stroke="midnightblue" d="M1098.59,-61.9751C1106.7,-52.8733 1119.73,-38.241 1129.76,-26.983"/>
<polygon fill="midnightblue" stroke="midnightblue" points="1132.38,-29.3043 1136.42,-19.5091 1127.16,-24.6483 1132.38,-29.3043"/>
</g>
<!-- Node19 -->
<g id="node19" class="node"><title>Node19</title>
<polygon fill="none" stroke="#bfbfbf" points="904.5,-0.5 904.5,-19.5 963.5,-19.5 963.5,-0.5 904.5,-0.5"/>
<text text-anchor="middle" x="934" y="-7.5" font-family="Helvetica,sans-Serif" font-size="10.00">TObject.h</text>
</g>
<!-- Node17&#45;&gt;Node19 -->
<g id="edge20" class="edge"><title>Node17&#45;&gt;Node19</title>
<path fill="none" stroke="midnightblue" d="M1068.51,-61.9751C1041.69,-51.8129 996.685,-34.7564 966.191,-23.1996"/>
<polygon fill="midnightblue" stroke="midnightblue" points="967.044,-19.7801 956.453,-19.5091 964.563,-26.3258 967.044,-19.7801"/>
</g>
<!-- Node20 -->
<g id="node20" class="node"><title>Node20</title>
<polygon fill="none" stroke="#bfbfbf" points="982,-0.5 982,-19.5 1098,-19.5 1098,-0.5 982,-0.5"/>
<text text-anchor="middle" x="1040" y="-7.5" font-family="Helvetica,sans-Serif" font-size="10.00">Common/Exceptions.h</text>
</g>
<!-- Node17&#45;&gt;Node20 -->
<g id="edge21" class="edge"><title>Node17&#45;&gt;Node20</title>
<path fill="none" stroke="midnightblue" d="M1083.69,-61.9751C1075.97,-52.9617 1063.59,-38.5246 1053.98,-27.3118"/>
<polygon fill="midnightblue" stroke="midnightblue" points="1056.46,-24.8239 1047.29,-19.5091 1051.14,-29.3795 1056.46,-24.8239"/>
</g>
<!-- Node22 -->
<g id="node22" class="node"><title>Node22</title>
<polygon fill="none" stroke="#bfbfbf" points="1390.5,-0.5 1390.5,-19.5 1459.5,-19.5 1459.5,-0.5 1390.5,-0.5"/>
<text text-anchor="middle" x="1425" y="-7.5" font-family="Helvetica,sans-Serif" font-size="10.00">TObjArray.h</text>
</g>
<!-- Node21&#45;&gt;Node22 -->
<g id="edge23" class="edge"><title>Node21&#45;&gt;Node22</title>
<path fill="none" stroke="midnightblue" d="M1335.73,-56.3993C1354.83,-46.6837 1380.06,-33.8551 1398.82,-24.3137"/>
<polygon fill="midnightblue" stroke="midnightblue" points="1400.65,-27.3106 1407.98,-19.6578 1397.48,-21.071 1400.65,-27.3106"/>
</g>
<!-- Node23 -->
<g id="node23" class="node"><title>Node23</title>
<polygon fill="none" stroke="#bfbfbf" points="1244,-0.5 1244,-19.5 1372,-19.5 1372,-0.5 1244,-0.5"/>
<text text-anchor="middle" x="1308" y="-7.5" font-family="Helvetica,sans-Serif" font-size="10.00">Mergers/MergeInterface.h</text>
</g>
<!-- Node21&#45;&gt;Node23 -->
<g id="edge24" class="edge"><title>Node21&#45;&gt;Node23</title>
<path fill="none" stroke="midnightblue" d="M1308,-56.3993C1308,-48.4664 1308,-38.458 1308,-29.8583"/>
<polygon fill="midnightblue" stroke="midnightblue" points="1311.5,-29.6577 1308,-19.6578 1304.5,-29.6578 1311.5,-29.6577"/>
</g>
<!-- Node24&#45;&gt;Node10 -->
<g id="edge26" class="edge"><title>Node24&#45;&gt;Node10</title>
<path fill="none" stroke="midnightblue" d="M866,-61.9751C866,-53.5803 866,-40.4806 866,-29.6631"/>
<polygon fill="midnightblue" stroke="midnightblue" points="869.5,-29.5091 866,-19.5091 862.5,-29.5091 869.5,-29.5091"/>
</g>
<!-- Node24&#45;&gt;Node11 -->
<g id="edge27" class="edge"><title>Node24&#45;&gt;Node11</title>
<path fill="none" stroke="midnightblue" d="M822.444,-61.9751C767.308,-51.1836 672.448,-32.6173 613.699,-21.1186"/>
<polygon fill="midnightblue" stroke="midnightblue" points="614.009,-17.6131 603.523,-19.1271 612.665,-24.4828 614.009,-17.6131"/>
</g>
</g>
</svg>
        <g id="navigator" transform="translate(0 0)" fill="#404254">
                <rect fill="#f2f5e9" fill-opacity="0.5" stroke="#606060" stroke-width=".5" x="0" y="0" width="60" height="60"/>
                <use id="zoomplus" xlink:href="#zoomPlus" x="17" y="9" onmousedown="handleZoom(evt,'in')"/>
                <use id="zoomminus" xlink:href="#zoomMin" x="42" y="9" onmousedown="handleZoom(evt,'out')"/>
                <use id="reset" xlink:href="#resetDef" x="30" y="36" onmousedown="handleReset()"/>
                <g id="arrowUp" xlink:href="#dirArrow" transform="translate(30 24)" onmousedown="handlePan(0,-1)">
                  <use xlink:href="#rim" fill="#404040">
                        <set attributeName="fill" to="#808080" begin="arrowUp.mouseover" end="arrowUp.mouseout"/>
                  </use>
                  <path fill="none" stroke="white" stroke-width="1.5" d="M0,-3.0v7 M-2.5,-0.5L0,-3.0L2.5,-0.5"/>
                </g>
                <g id="arrowRight" xlink:href="#dirArrow" transform="rotate(90) translate(36 -43)" onmousedown="handlePan(1,0)">
                  <use xlink:href="#rim" fill="#404040">
                        <set attributeName="fill" to="#808080" begin="arrowRight.mouseover" end="arrowRight.mouseout"/>
                  </use>
                  <path fill="none" stroke="white" stroke-width="1.5" d="M0,-3.0v7 M-2.5,-0.5L0,-3.0L2.5,-0.5"/>
                </g>
                <g id="arrowDown" xlink:href="#dirArrow" transform="rotate(180) translate(-30 -48)" onmousedown="handlePan(0,1)">
                  <use xlink:href="#rim" fill="#404040">
                        <set attributeName="fill" to="#808080" begin="arrowDown.mouseover" end="arrowDown.mouseout"/>
                  </use>
                  <path fill="none" stroke="white" stroke-width="1.5" d="M0,-3.0v7 M-2.5,-0.5L0,-3.0L2.5,-0.5"/>
                </g>
                <g id="arrowLeft" xlink:href="#dirArrow" transform="rotate(270) translate(-36 17)" onmousedown="handlePan(-1,0)">
                  <use xlink:href="#rim" fill="#404040">
                        <set attributeName="fill" to="#808080" begin="arrowLeft.mouseover" end="arrowLeft.mouseout"/>
                  </use>
                  <path fill="none" stroke="white" stroke-width="1.5" d="M0,-3.0v7 M-2.5,-0.5L0,-3.0L2.5,-0.5"/>
                </g>
        </g>
        <svg viewBox="0 0 15 15" width="100%" height="30px" preserveAspectRatio="xMaxYMin meet">
         <g id="arrow_out" transform="scale(0.3 0.3)">
          <a xlink:href="Mapping_8cxx__incl_org.svg" target="_base">
           <rect id="button" ry="5" rx="5" y="6" x="6" height="38" width="38"
                fill="#f2f5e9" fill-opacity="0.5" stroke="#606060" stroke-width="1.0"/>
           <path id="arrow"
             d="M 11.500037,31.436501 C 11.940474,20.09759 22.043105,11.32322 32.158766,21.979434 L 37.068811,17.246167 C 37.068811,17.246167 37.088388,32 37.088388,32 L 22.160133,31.978069 C 22.160133,31.978069 26.997745,27.140456 26.997745,27.140456 C 18.528582,18.264221 13.291696,25.230495 11.500037,31.436501 z"
             style="fill:#404040;"/>
          </a>
         </g>
        </svg>
</svg>
