<?xml version="1.0" encoding="UTF-8" standalone="no"?>
<!DOCTYPE svg PUBLIC "-//W3C//DTD SVG 1.1//EN"
 "http://www.w3.org/Graphics/SVG/1.1/DTD/svg11.dtd">
<!-- Generated by graphviz version 2.38.0 (20140413.2041)
 -->
<!-- Title: Modules/Common/src/MeanIsAbove.cxx Pages: 1 -->
<svg width="901pt" height="263pt"
 viewBox="0.00 0.00 900.50 263.00" xmlns="http://www.w3.org/2000/svg" xmlns:xlink="http://www.w3.org/1999/xlink">
<g id="graph0" class="graph" transform="scale(1 1) rotate(0) translate(4 259)">
<title>Modules/Common/src/MeanIsAbove.cxx</title>
<!-- Node1 -->
<g id="node1" class="node"><title>Node1</title>
<polygon fill="#bfbfbf" stroke="black" points="408,-224.5 408,-254.5 521,-254.5 521,-224.5 408,-224.5"/>
<text text-anchor="start" x="416" y="-242.5" font-family="Helvetica,sans-Serif" font-size="10.00">Modules/Common/src</text>
<text text-anchor="middle" x="464.5" y="-231.5" font-family="Helvetica,sans-Serif" font-size="10.00">/MeanIsAbove.cxx</text>
</g>
<!-- Node2 -->
<g id="node2" class="node"><title>Node2</title>
<g id="a_node2"><a xlink:href="MeanIsAbove_8h.html" target="_top" xlink:title="Common/MeanIsAbove.h">
<polygon fill="none" stroke="black" points="210.5,-168.5 210.5,-187.5 338.5,-187.5 338.5,-168.5 210.5,-168.5"/>
<text text-anchor="middle" x="274.5" y="-175.5" font-family="Helvetica,sans-Serif" font-size="10.00">Common/MeanIsAbove.h</text>
</a>
</g>
</g>
<!-- Node1&#45;&gt;Node2 -->
<g id="edge1" class="edge"><title>Node1&#45;&gt;Node2</title>
<path fill="none" stroke="midnightblue" d="M419.473,-224.399C386.641,-214.118 342.679,-200.351 311.803,-190.682"/>
<polygon fill="midnightblue" stroke="midnightblue" points="312.458,-187.219 301.869,-187.571 310.366,-193.9 312.458,-187.219"/>
</g>
<!-- Node5 -->
<g id="node5" class="node"><title>Node5</title>
<g id="a_node5"><a xlink:href="MonitorObject_8h.html" target="_top" xlink:title="QualityControl/MonitorObject.h">
<polygon fill="none" stroke="black" points="57,-56.5 57,-75.5 208,-75.5 208,-56.5 57,-56.5"/>
<text text-anchor="middle" x="132.5" y="-63.5" font-family="Helvetica,sans-Serif" font-size="10.00">QualityControl/MonitorObject.h</text>
</a>
</g>
</g>
<!-- Node1&#45;&gt;Node5 -->
<g id="edge18" class="edge"><title>Node1&#45;&gt;Node5</title>
<path fill="none" stroke="midnightblue" d="M407.757,-233.178C340.625,-225.938 233.875,-211.168 201.5,-188 165.894,-162.52 146.139,-112.558 137.624,-85.4879"/>
<polygon fill="midnightblue" stroke="midnightblue" points="140.928,-84.3206 134.732,-75.7266 134.217,-86.3089 140.928,-84.3206"/>
</g>
<!-- Node11 -->
<g id="node11" class="node"><title>Node11</title>
<g id="a_node11"><a xlink:href="Quality_8h.html" target="_top" xlink:title="QualityControl/Quality.h">
<polygon fill="none" stroke="black" points="327,-56.5 327,-75.5 448,-75.5 448,-56.5 327,-56.5"/>
<text text-anchor="middle" x="387.5" y="-63.5" font-family="Helvetica,sans-Serif" font-size="10.00">QualityControl/Quality.h</text>
</a>
</g>
</g>
<!-- Node1&#45;&gt;Node11 -->
<g id="edge19" class="edge"><title>Node1&#45;&gt;Node11</title>
<path fill="none" stroke="midnightblue" d="M433.058,-224.365C418.365,-216.012 402.219,-203.92 393.5,-188 375.715,-155.525 379.553,-110.496 383.685,-85.5354"/>
<polygon fill="midnightblue" stroke="midnightblue" points="387.146,-86.0666 385.528,-75.5961 380.263,-84.7905 387.146,-86.0666"/>
</g>
<!-- Node12 -->
<g id="node12" class="node"><title>Node12</title>
<polygon fill="none" stroke="#bfbfbf" points="402.5,-168.5 402.5,-187.5 458.5,-187.5 458.5,-168.5 402.5,-168.5"/>
<text text-anchor="middle" x="430.5" y="-175.5" font-family="Helvetica,sans-Serif" font-size="10.00">TClass.h</text>
</g>
<!-- Node1&#45;&gt;Node12 -->
<g id="edge14" class="edge"><title>Node1&#45;&gt;Node12</title>
<path fill="none" stroke="midnightblue" d="M456.442,-224.399C451.655,-216.021 445.544,-205.327 440.456,-196.423"/>
<polygon fill="midnightblue" stroke="midnightblue" points="443.448,-194.604 435.447,-187.658 437.37,-198.077 443.448,-194.604"/>
</g>
<!-- Node13 -->
<g id="node13" class="node"><title>Node13</title>
<polygon fill="none" stroke="#bfbfbf" points="476.5,-168.5 476.5,-187.5 520.5,-187.5 520.5,-168.5 476.5,-168.5"/>
<text text-anchor="middle" x="498.5" y="-175.5" font-family="Helvetica,sans-Serif" font-size="10.00">TH1.h</text>
</g>
<!-- Node1&#45;&gt;Node13 -->
<g id="edge15" class="edge"><title>Node1&#45;&gt;Node13</title>
<path fill="none" stroke="midnightblue" d="M472.558,-224.399C477.345,-216.021 483.456,-205.327 488.544,-196.423"/>
<polygon fill="midnightblue" stroke="midnightblue" points="491.63,-198.077 493.553,-187.658 485.552,-194.604 491.63,-198.077"/>
</g>
<!-- Node14 -->
<g id="node14" class="node"><title>Node14</title>
<polygon fill="none" stroke="#bfbfbf" points="539,-168.5 539,-187.5 588,-187.5 588,-168.5 539,-168.5"/>
<text text-anchor="middle" x="563.5" y="-175.5" font-family="Helvetica,sans-Serif" font-size="10.00">TLine.h</text>
</g>
<!-- Node1&#45;&gt;Node14 -->
<g id="edge16" class="edge"><title>Node1&#45;&gt;Node14</title>
<path fill="none" stroke="midnightblue" d="M487.962,-224.399C503.831,-214.862 524.691,-202.325 540.468,-192.842"/>
<polygon fill="midnightblue" stroke="midnightblue" points="542.326,-195.809 549.095,-187.658 538.721,-189.809 542.326,-195.809"/>
</g>
<!-- Node15 -->
<g id="node15" class="node"><title>Node15</title>
<polygon fill="none" stroke="#bfbfbf" points="606,-168.5 606,-187.5 653,-187.5 653,-168.5 606,-168.5"/>
<text text-anchor="middle" x="629.5" y="-175.5" font-family="Helvetica,sans-Serif" font-size="10.00">TList.h</text>
</g>
<!-- Node1&#45;&gt;Node15 -->
<g id="edge17" class="edge"><title>Node1&#45;&gt;Node15</title>
<path fill="none" stroke="midnightblue" d="M503.603,-224.399C531.827,-214.222 569.524,-200.628 596.291,-190.975"/>
<polygon fill="midnightblue" stroke="midnightblue" points="597.752,-194.169 605.972,-187.484 595.377,-187.584 597.752,-194.169"/>
</g>
<!-- Node16 -->
<g id="node16" class="node"><title>Node16</title>
<g id="a_node16"><a xlink:href="QcInfoLogger_8h.html" target="_top" xlink:title="QualityControl/QcInfoLogger.h">
<polygon fill="none" stroke="black" points="671,-168.5 671,-187.5 820,-187.5 820,-168.5 671,-168.5"/>
<text text-anchor="middle" x="745.5" y="-175.5" font-family="Helvetica,sans-Serif" font-size="10.00">QualityControl/QcInfoLogger.h</text>
</a>
</g>
</g>
<!-- Node1&#45;&gt;Node16 -->
<g id="edge20" class="edge"><title>Node1&#45;&gt;Node16</title>
<path fill="none" stroke="midnightblue" d="M521.027,-226.531C571.899,-215.759 645.971,-200.075 694.923,-189.709"/>
<polygon fill="midnightblue" stroke="midnightblue" points="695.913,-193.077 704.971,-187.582 694.463,-186.229 695.913,-193.077"/>
</g>
<!-- Node3 -->
<g id="node3" class="node"><title>Node3</title>
<g id="a_node3"><a xlink:href="CheckInterface_8h.html" target="_top" xlink:title="QualityControl/CheckInterface.h">
<polygon fill="none" stroke="black" points="189,-112.5 189,-131.5 346,-131.5 346,-112.5 189,-112.5"/>
<text text-anchor="middle" x="267.5" y="-119.5" font-family="Helvetica,sans-Serif" font-size="10.00">QualityControl/CheckInterface.h</text>
</a>
</g>
</g>
<!-- Node2&#45;&gt;Node3 -->
<g id="edge2" class="edge"><title>Node2&#45;&gt;Node3</title>
<path fill="none" stroke="midnightblue" d="M273.344,-168.083C272.416,-160.927 271.082,-150.635 269.923,-141.691"/>
<polygon fill="midnightblue" stroke="midnightblue" points="273.391,-141.218 268.634,-131.751 266.449,-142.118 273.391,-141.218"/>
</g>
<!-- Node4 -->
<g id="node4" class="node"><title>Node4</title>
<polygon fill="none" stroke="#bfbfbf" points="226,-56.5 226,-75.5 309,-75.5 309,-56.5 226,-56.5"/>
<text text-anchor="middle" x="267.5" y="-63.5" font-family="Helvetica,sans-Serif" font-size="10.00">unordered_map</text>
</g>
<!-- Node3&#45;&gt;Node4 -->
<g id="edge3" class="edge"><title>Node3&#45;&gt;Node4</title>
<path fill="none" stroke="midnightblue" d="M267.5,-112.083C267.5,-105.006 267.5,-94.8611 267.5,-85.9865"/>
<polygon fill="midnightblue" stroke="midnightblue" points="271,-85.751 267.5,-75.7511 264,-85.7511 271,-85.751"/>
</g>
<!-- Node3&#45;&gt;Node5 -->
<g id="edge4" class="edge"><title>Node3&#45;&gt;Node5</title>
<path fill="none" stroke="midnightblue" d="M246.109,-112.444C223.793,-103.517 188.597,-89.4387 163.292,-79.3168"/>
<polygon fill="midnightblue" stroke="midnightblue" points="164.376,-75.9807 153.791,-75.5164 161.776,-82.4801 164.376,-75.9807"/>
</g>
<!-- Node3&#45;&gt;Node11 -->
<g id="edge10" class="edge"><title>Node3&#45;&gt;Node11</title>
<path fill="none" stroke="midnightblue" d="M286.514,-112.444C306.088,-103.636 336.808,-89.8116 359.229,-79.722"/>
<polygon fill="midnightblue" stroke="midnightblue" points="360.892,-82.8119 368.575,-75.5164 358.019,-76.4284 360.892,-82.8119"/>
</g>
<!-- Node6 -->
<g id="node6" class="node"><title>Node6</title>
<polygon fill="none" stroke="#bfbfbf" points="221,-0.5 221,-19.5 262,-19.5 262,-0.5 221,-0.5"/>
<text text-anchor="middle" x="241.5" y="-7.5" font-family="Helvetica,sans-Serif" font-size="10.00">string</text>
</g>
<!-- Node5&#45;&gt;Node6 -->
<g id="edge5" class="edge"><title>Node5&#45;&gt;Node6</title>
<path fill="none" stroke="midnightblue" d="M150.013,-56.324C167.572,-47.6247 194.831,-34.1202 215.031,-24.113"/>
<polygon fill="midnightblue" stroke="midnightblue" points="216.624,-27.23 224.031,-19.6545 213.516,-20.9575 216.624,-27.23"/>
</g>
<!-- Node7 -->
<g id="node7" class="node"><title>Node7</title>
<polygon fill="none" stroke="#bfbfbf" points="285,-0.5 285,-19.5 320,-19.5 320,-0.5 285,-0.5"/>
<text text-anchor="middle" x="302.5" y="-7.5" font-family="Helvetica,sans-Serif" font-size="10.00">map</text>
</g>
<!-- Node5&#45;&gt;Node7 -->
<g id="edge6" class="edge"><title>Node5&#45;&gt;Node7</title>
<path fill="none" stroke="midnightblue" d="M159.437,-56.4435C191.033,-46.4072 243.132,-29.8582 274.978,-19.7423"/>
<polygon fill="midnightblue" stroke="midnightblue" points="276.083,-23.0636 284.554,-16.7003 273.964,-16.3921 276.083,-23.0636"/>
</g>
<!-- Node8 -->
<g id="node8" class="node"><title>Node8</title>
<polygon fill="none" stroke="#bfbfbf" points="340.5,-0.5 340.5,-19.5 396.5,-19.5 396.5,-0.5 340.5,-0.5"/>
<text text-anchor="middle" x="368.5" y="-7.5" font-family="Helvetica,sans-Serif" font-size="10.00">Rtypes.h</text>
</g>
<!-- Node5&#45;&gt;Node8 -->
<g id="edge7" class="edge"><title>Node5&#45;&gt;Node8</title>
<path fill="none" stroke="midnightblue" d="M169.895,-56.4435C213.786,-46.4007 286.177,-29.8367 330.379,-19.7226"/>
<polygon fill="midnightblue" stroke="midnightblue" points="331.201,-23.125 340.168,-17.4826 329.64,-16.3014 331.201,-23.125"/>
</g>
<!-- Node9 -->
<g id="node9" class="node"><title>Node9</title>
<polygon fill="none" stroke="#bfbfbf" points="0,-0.5 0,-19.5 59,-19.5 59,-0.5 0,-0.5"/>
<text text-anchor="middle" x="29.5" y="-7.5" font-family="Helvetica,sans-Serif" font-size="10.00">TObject.h</text>
</g>
<!-- Node5&#45;&gt;Node9 -->
<g id="edge8" class="edge"><title>Node5&#45;&gt;Node9</title>
<path fill="none" stroke="midnightblue" d="M115.951,-56.324C99.5084,-47.7034 74.0652,-34.3643 55.0316,-24.3855"/>
<polygon fill="midnightblue" stroke="midnightblue" points="56.4895,-21.198 46.0077,-19.6545 53.2391,-27.3977 56.4895,-21.198"/>
</g>
<!-- Node10 -->
<g id="node10" class="node"><title>Node10</title>
<polygon fill="none" stroke="#bfbfbf" points="77.5,-0.5 77.5,-19.5 193.5,-19.5 193.5,-0.5 77.5,-0.5"/>
<text text-anchor="middle" x="135.5" y="-7.5" font-family="Helvetica,sans-Serif" font-size="10.00">Common/Exceptions.h</text>
</g>
<!-- Node5&#45;&gt;Node10 -->
<g id="edge9" class="edge"><title>Node5&#45;&gt;Node10</title>
<path fill="none" stroke="midnightblue" d="M132.995,-56.083C133.389,-49.0059 133.952,-38.8611 134.445,-29.9865"/>
<polygon fill="midnightblue" stroke="midnightblue" points="137.954,-29.9299 135.014,-19.7511 130.964,-29.5415 137.954,-29.9299"/>
</g>
<!-- Node11&#45;&gt;Node6 -->
<g id="edge12" class="edge"><title>Node11&#45;&gt;Node6</title>
<path fill="none" stroke="midnightblue" d="M364.366,-56.4435C339.302,-47.1732 299.214,-32.3464 271.687,-22.1652"/>
<polygon fill="midnightblue" stroke="midnightblue" points="272.758,-18.8297 262.165,-18.6433 270.33,-25.395 272.758,-18.8297"/>
</g>
<!-- Node11&#45;&gt;Node7 -->
<g id="edge13" class="edge"><title>Node11&#45;&gt;Node7</title>
<path fill="none" stroke="midnightblue" d="M373.843,-56.324C360.584,-47.9002 340.232,-34.9709 324.654,-25.0741"/>
<polygon fill="midnightblue" stroke="midnightblue" points="326.44,-22.0626 316.123,-19.6545 322.687,-27.9711 326.44,-22.0626"/>
</g>
<!-- Node11&#45;&gt;Node8 -->
<g id="edge11" class="edge"><title>Node11&#45;&gt;Node8</title>
<path fill="none" stroke="midnightblue" d="M384.363,-56.083C381.817,-48.8486 378.144,-38.4087 374.973,-29.3968"/>
<polygon fill="midnightblue" stroke="midnightblue" points="378.2,-28.0225 371.579,-19.7511 371.597,-30.3459 378.2,-28.0225"/>
</g>
<!-- Node17 -->
<g id="node17" class="node"><title>Node17</title>
<polygon fill="none" stroke="#bfbfbf" points="762.5,-112.5 762.5,-131.5 892.5,-131.5 892.5,-112.5 762.5,-112.5"/>
<text text-anchor="middle" x="827.5" y="-119.5" font-family="Helvetica,sans-Serif" font-size="10.00">InfoLogger/InfoLogger.hxx</text>
</g>
<!-- Node16&#45;&gt;Node17 -->
<g id="edge21" class="edge"><title>Node16&#45;&gt;Node17</title>
<path fill="none" stroke="midnightblue" d="M758.675,-168.324C771.347,-159.979 790.733,-147.212 805.706,-137.352"/>
<polygon fill="midnightblue" stroke="midnightblue" points="807.931,-140.078 814.358,-131.655 804.081,-134.231 807.931,-140.078"/>
</g>
<!-- Node18 -->
<g id="node18" class="node"><title>Node18</title>
<polygon fill="none" stroke="#bfbfbf" points="582.5,-112.5 582.5,-131.5 744.5,-131.5 744.5,-112.5 582.5,-112.5"/>
<text text-anchor="middle" x="663.5" y="-119.5" font-family="Helvetica,sans-Serif" font-size="10.00">InfoLogger/InfoLoggerMacros.hxx</text>
</g>
<!-- Node16&#45;&gt;Node18 -->
<g id="edge22" class="edge"><title>Node16&#45;&gt;Node18</title>
<path fill="none" stroke="midnightblue" d="M732.325,-168.324C719.653,-159.979 700.267,-147.212 685.294,-137.352"/>
<polygon fill="midnightblue" stroke="midnightblue" points="686.919,-134.231 676.642,-131.655 683.069,-140.078 686.919,-134.231"/>
</g>
</g>
</svg>
