<?xml version="1.0" encoding="UTF-8" standalone="no"?>
<!DOCTYPE svg PUBLIC "-//W3C//DTD SVG 1.1//EN"
 "http://www.w3.org/Graphics/SVG/1.1/DTD/svg11.dtd">
<!-- Generated by graphviz version 2.38.0 (20140413.2041)
 -->
<!-- Title: Modules/FT0/src/MergedTreeCheck.cxx Pages: 1 -->
<!--zoomable 263 -->
<svg id="main" version="1.1" xmlns="http://www.w3.org/2000/svg" xmlns:xlink="http://www.w3.org/1999/xlink" xml:space="preserve" onload="init(evt)">
<style type="text/css"><![CDATA[
.edge:hover path { stroke: red; }
.edge:hover polygon { stroke: red; fill: red; }
]]></style>
<script type="text/javascript"><![CDATA[
var edges = document.getElementsByTagName('g');
if (edges && edges.length) {
  for (var i=0;i<edges.length;i++) {
    if (edges[i].id.substr(0,4)=='edge') {
      edges[i].setAttribute('class','edge');
    }
  }
}
]]></script>
        <defs>
                <circle id="rim" cx="0" cy="0" r="7"/>
                <circle id="rim2" cx="0" cy="0" r="3.5"/>
                <g id="zoomPlus">
                        <use xlink:href="#rim" fill="#404040">
                                <set attributeName="fill" to="#808080" begin="zoomplus.mouseover" end="zoomplus.mouseout"/>
                        </use>
                        <path d="M-4,0h8M0,-4v8" fill="none" stroke="white" stroke-width="1.5" pointer-events="none"/>
                </g>
                <g id="zoomMin">
                        <use xlink:href="#rim" fill="#404040">
                                <set attributeName="fill" to="#808080" begin="zoomminus.mouseover" end="zoomminus.mouseout"/>
                        </use>
                        <path d="M-4,0h8" fill="none" stroke="white" stroke-width="1.5" pointer-events="none"/>
                </g>
                <g id="dirArrow">
                        <path fill="none" stroke="white" stroke-width="1.5" d="M0,-3.0v7 M-2.5,-0.5L0,-3.0L2.5,-0.5"/>
                </g>
               <g id="resetDef">
                       <use xlink:href="#rim2" fill="#404040">
                               <set attributeName="fill" to="#808080" begin="reset.mouseover" end="reset.mouseout"/>
                       </use>
               </g>
        </defs>

<script type="text/javascript">
var viewWidth = 1259;
var viewHeight = 263;
var sectionId = 'dynsection-0';
</script>
<script xlink:href="svgpan.js"/>
<svg id="graph" class="graph">
<g id="viewport">
<title>Modules/FT0/src/MergedTreeCheck.cxx</title>
<!-- Node1 -->
<g id="node1" class="node"><title>Node1</title>
<polygon fill="#bfbfbf" stroke="black" points="334,-224.5 334,-254.5 479,-254.5 479,-224.5 334,-224.5"/>
<text text-anchor="start" x="342" y="-242.5" font-family="Helvetica,sans-Serif" font-size="10.00">Modules/FT0/src/MergedTree</text>
<text text-anchor="middle" x="406.5" y="-231.5" font-family="Helvetica,sans-Serif" font-size="10.00">Check.cxx</text>
</g>
<!-- Node2 -->
<g id="node2" class="node"><title>Node2</title>
<polygon fill="none" stroke="#bfbfbf" points="0,-168.5 0,-187.5 97,-187.5 97,-168.5 0,-168.5"/>
<text text-anchor="middle" x="48.5" y="-175.5" font-family="Helvetica,sans-Serif" font-size="10.00">fairlogger/Logger.h</text>
</g>
<!-- Node1&#45;&gt;Node2 -->
<g id="edge1" class="edge"><title>Node1&#45;&gt;Node2</title>
<path fill="none" stroke="midnightblue" d="M333.622,-226.388C266.809,-215.283 169.125,-199.048 107.2,-188.756"/>
<polygon fill="midnightblue" stroke="midnightblue" points="107.64,-185.281 97.2014,-187.094 106.492,-192.186 107.64,-185.281"/>
</g>
<!-- Node3 -->
<g id="node3" class="node"><title>Node3</title>
<polygon fill="none" stroke="#bfbfbf" points="114.5,-168.5 114.5,-187.5 158.5,-187.5 158.5,-168.5 114.5,-168.5"/>
<text text-anchor="middle" x="136.5" y="-175.5" font-family="Helvetica,sans-Serif" font-size="10.00">TH1.h</text>
</g>
<!-- Node1&#45;&gt;Node3 -->
<g id="edge2" class="edge"><title>Node1&#45;&gt;Node3</title>
<path fill="none" stroke="midnightblue" d="M333.75,-224.589C288.642,-215.622 229.322,-203.22 168.56,-188.133"/>
<polygon fill="midnightblue" stroke="midnightblue" points="169.348,-184.722 158.797,-185.688 167.648,-191.512 169.348,-184.722"/>
</g>
<!-- Node4 -->
<g id="node4" class="node"><title>Node4</title>
<polygon fill="none" stroke="#bfbfbf" points="176.5,-168.5 176.5,-187.5 226.5,-187.5 226.5,-168.5 176.5,-168.5"/>
<text text-anchor="middle" x="201.5" y="-175.5" font-family="Helvetica,sans-Serif" font-size="10.00">TTree.h</text>
</g>
<!-- Node1&#45;&gt;Node4 -->
<g id="edge3" class="edge"><title>Node1&#45;&gt;Node4</title>
<path fill="none" stroke="midnightblue" d="M358.177,-224.475C320.846,-213.639 270.058,-198.899 236.556,-189.175"/>
<polygon fill="midnightblue" stroke="midnightblue" points="237.327,-185.754 226.748,-186.328 235.376,-192.477 237.327,-185.754"/>
</g>
<!-- Node5 -->
<g id="node5" class="node"><title>Node5</title>
<g id="a_node5"><a xlink:href="MergedTreeCheck_8h.html" target="_top" xlink:title="FT0/MergedTreeCheck.h">
<polygon fill="none" stroke="black" points="295,-168.5 295,-187.5 420,-187.5 420,-168.5 295,-168.5"/>
<text text-anchor="middle" x="357.5" y="-175.5" font-family="Helvetica,sans-Serif" font-size="10.00">FT0/MergedTreeCheck.h</text>
</a>
</g>
</g>
<!-- Node1&#45;&gt;Node5 -->
<g id="edge4" class="edge"><title>Node1&#45;&gt;Node5</title>
<path fill="none" stroke="midnightblue" d="M394.888,-224.399C387.767,-215.753 378.617,-204.642 371.151,-195.576"/>
<polygon fill="midnightblue" stroke="midnightblue" points="373.689,-193.152 364.63,-187.658 368.285,-197.602 373.689,-193.152"/>
</g>
<!-- Node8 -->
<g id="node8" class="node"><title>Node8</title>
<g id="a_node8"><a xlink:href="MonitorObject_8h.html" target="_top" xlink:title="QualityControl/MonitorObject.h">
<polygon fill="none" stroke="black" points="315,-56.5 315,-75.5 466,-75.5 466,-56.5 315,-56.5"/>
<text text-anchor="middle" x="390.5" y="-63.5" font-family="Helvetica,sans-Serif" font-size="10.00">QualityControl/MonitorObject.h</text>
</a>
</g>
</g>
<!-- Node1&#45;&gt;Node8 -->
<g id="edge17" class="edge"><title>Node1&#45;&gt;Node8</title>
<path fill="none" stroke="midnightblue" d="M415.661,-224.359C429.91,-200.461 454.105,-150.887 437.5,-112 432.353,-99.9469 422.219,-89.5764 412.674,-81.8389"/>
<polygon fill="midnightblue" stroke="midnightblue" points="414.672,-78.9619 404.578,-75.7409 410.46,-84.5532 414.672,-78.9619"/>
</g>
<!-- Node14 -->
<g id="node14" class="node"><title>Node14</title>
<g id="a_node14"><a xlink:href="Quality_8h.html" target="_top" xlink:title="QualityControl/Quality.h">
<polygon fill="none" stroke="black" points="75,-56.5 75,-75.5 196,-75.5 196,-56.5 75,-56.5"/>
<text text-anchor="middle" x="135.5" y="-63.5" font-family="Helvetica,sans-Serif" font-size="10.00">QualityControl/Quality.h</text>
</a>
</g>
</g>
<!-- Node1&#45;&gt;Node14 -->
<g id="edge18" class="edge"><title>Node1&#45;&gt;Node14</title>
<path fill="none" stroke="midnightblue" d="M365.424,-224.454C341.595,-215.523 311.458,-202.857 286.5,-188 233.364,-156.369 178.57,-107.665 151.976,-82.7953"/>
<polygon fill="midnightblue" stroke="midnightblue" points="154.043,-79.9332 144.371,-75.6101 149.236,-85.0216 154.043,-79.9332"/>
</g>
<!-- Node15 -->
<g id="node15" class="node"><title>Node15</title>
<g id="a_node15"><a xlink:href="QcInfoLogger_8h.html" target="_top" xlink:title="QualityControl/QcInfoLogger.h">
<polygon fill="none" stroke="black" points="931,-168.5 931,-187.5 1080,-187.5 1080,-168.5 931,-168.5"/>
<text text-anchor="middle" x="1005.5" y="-175.5" font-family="Helvetica,sans-Serif" font-size="10.00">QualityControl/QcInfoLogger.h</text>
</a>
</g>
</g>
<!-- Node1&#45;&gt;Node15 -->
<g id="edge19" class="edge"><title>Node1&#45;&gt;Node15</title>
<path fill="none" stroke="midnightblue" d="M479.052,-231.293C590.277,-220.245 802.436,-199.171 920.633,-187.43"/>
<polygon fill="midnightblue" stroke="midnightblue" points="921.119,-190.899 930.724,-186.428 920.427,-183.933 921.119,-190.899"/>
</g>
<!-- Node18 -->
<g id="node18" class="node"><title>Node18</title>
<polygon fill="none" stroke="#bfbfbf" points="622.5,-112.5 622.5,-131.5 744.5,-131.5 744.5,-112.5 622.5,-112.5"/>
<text text-anchor="middle" x="683.5" y="-119.5" font-family="Helvetica,sans-Serif" font-size="10.00">DataFormatsFT0/Digit.h</text>
</g>
<!-- Node1&#45;&gt;Node18 -->
<g id="edge22" class="edge"><title>Node1&#45;&gt;Node18</title>
<path fill="none" stroke="midnightblue" d="M479.258,-228.084C518.207,-220.557 566.127,-208.081 605.5,-188 630.144,-175.431 653.886,-153.845 668.571,-139.02"/>
<polygon fill="midnightblue" stroke="midnightblue" points="671.323,-141.209 675.745,-131.581 666.284,-136.349 671.323,-141.209"/>
</g>
<!-- Node19 -->
<g id="node19" class="node"><title>Node19</title>
<polygon fill="none" stroke="#bfbfbf" points="763,-112.5 763,-131.5 922,-131.5 922,-112.5 763,-112.5"/>
<text text-anchor="middle" x="842.5" y="-119.5" font-family="Helvetica,sans-Serif" font-size="10.00">DataFormatsFT0/ChannelData.h</text>
</g>
<!-- Node1&#45;&gt;Node19 -->
<g id="edge23" class="edge"><title>Node1&#45;&gt;Node19</title>
<path fill="none" stroke="midnightblue" d="M477.231,-224.45C522.444,-215.071 582.201,-201.937 634.5,-188 696.136,-171.575 766.804,-148.592 807.873,-134.813"/>
<polygon fill="midnightblue" stroke="midnightblue" points="809.048,-138.11 817.407,-131.601 806.813,-131.477 809.048,-138.11"/>
</g>
<!-- Node20 -->
<g id="node20" class="node"><title>Node20</title>
<g id="a_node20"><a xlink:href="Utilities_8h.html" target="_top" xlink:title="FT0/Utilities.h">
<polygon fill="none" stroke="black" points="518.5,-168.5 518.5,-187.5 596.5,-187.5 596.5,-168.5 518.5,-168.5"/>
<text text-anchor="middle" x="557.5" y="-175.5" font-family="Helvetica,sans-Serif" font-size="10.00">FT0/Utilities.h</text>
</a>
</g>
</g>
<!-- Node1&#45;&gt;Node20 -->
<g id="edge24" class="edge"><title>Node1&#45;&gt;Node20</title>
<path fill="none" stroke="midnightblue" d="M442.285,-224.399C467.733,-214.372 501.597,-201.028 526.018,-191.405"/>
<polygon fill="midnightblue" stroke="midnightblue" points="527.508,-194.58 535.528,-187.658 524.941,-188.068 527.508,-194.58"/>
</g>
<!-- Node6 -->
<g id="node6" class="node"><title>Node6</title>
<g id="a_node6"><a xlink:href="CheckInterface_8h.html" target="_top" xlink:title="QualityControl/CheckInterface.h">
<polygon fill="none" stroke="black" points="271,-112.5 271,-131.5 428,-131.5 428,-112.5 271,-112.5"/>
<text text-anchor="middle" x="349.5" y="-119.5" font-family="Helvetica,sans-Serif" font-size="10.00">QualityControl/CheckInterface.h</text>
</a>
</g>
</g>
<!-- Node5&#45;&gt;Node6 -->
<g id="edge5" class="edge"><title>Node5&#45;&gt;Node6</title>
<path fill="none" stroke="midnightblue" d="M356.179,-168.083C355.119,-160.927 353.594,-150.635 352.269,-141.691"/>
<polygon fill="midnightblue" stroke="midnightblue" points="355.724,-141.13 350.796,-131.751 348.8,-142.156 355.724,-141.13"/>
</g>
<!-- Node7 -->
<g id="node7" class="node"><title>Node7</title>
<polygon fill="none" stroke="#bfbfbf" points="214,-56.5 214,-75.5 297,-75.5 297,-56.5 214,-56.5"/>
<text text-anchor="middle" x="255.5" y="-63.5" font-family="Helvetica,sans-Serif" font-size="10.00">unordered_map</text>
</g>
<!-- Node6&#45;&gt;Node7 -->
<g id="edge6" class="edge"><title>Node6&#45;&gt;Node7</title>
<path fill="none" stroke="midnightblue" d="M334.397,-112.324C319.597,-103.822 296.806,-90.7288 279.518,-80.7975"/>
<polygon fill="midnightblue" stroke="midnightblue" points="280.98,-77.6009 270.565,-75.6545 277.493,-83.6707 280.98,-77.6009"/>
</g>
<!-- Node6&#45;&gt;Node8 -->
<g id="edge7" class="edge"><title>Node6&#45;&gt;Node8</title>
<path fill="none" stroke="midnightblue" d="M356.27,-112.083C362.062,-104.455 370.558,-93.2645 377.638,-83.9408"/>
<polygon fill="midnightblue" stroke="midnightblue" points="380.596,-85.8321 383.856,-75.7511 375.021,-81.5991 380.596,-85.8321"/>
</g>
<!-- Node6&#45;&gt;Node14 -->
<g id="edge13" class="edge"><title>Node6&#45;&gt;Node14</title>
<path fill="none" stroke="midnightblue" d="M315.591,-112.444C278.651,-103.122 219.446,-88.1828 179.082,-77.9972"/>
<polygon fill="midnightblue" stroke="midnightblue" points="179.803,-74.5695 169.25,-75.5164 178.09,-81.3568 179.803,-74.5695"/>
</g>
<!-- Node9 -->
<g id="node9" class="node"><title>Node9</title>
<polygon fill="none" stroke="#bfbfbf" points="219,-0.5 219,-19.5 260,-19.5 260,-0.5 219,-0.5"/>
<text text-anchor="middle" x="239.5" y="-7.5" font-family="Helvetica,sans-Serif" font-size="10.00">string</text>
</g>
<!-- Node8&#45;&gt;Node9 -->
<g id="edge8" class="edge"><title>Node8&#45;&gt;Node9</title>
<path fill="none" stroke="midnightblue" d="M366.574,-56.4435C340.389,-47.0794 298.35,-32.0456 269.86,-21.8574"/>
<polygon fill="midnightblue" stroke="midnightblue" points="270.991,-18.5448 260.397,-18.473 268.634,-25.136 270.991,-18.5448"/>
</g>
<!-- Node10 -->
<g id="node10" class="node"><title>Node10</title>
<polygon fill="none" stroke="#bfbfbf" points="150,-0.5 150,-19.5 185,-19.5 185,-0.5 150,-0.5"/>
<text text-anchor="middle" x="167.5" y="-7.5" font-family="Helvetica,sans-Serif" font-size="10.00">map</text>
</g>
<!-- Node8&#45;&gt;Node10 -->
<g id="edge9" class="edge"><title>Node8&#45;&gt;Node10</title>
<path fill="none" stroke="midnightblue" d="M355.165,-56.4435C310.746,-45.6874 235.436,-27.4509 195.044,-17.6698"/>
<polygon fill="midnightblue" stroke="midnightblue" points="195.642,-14.2135 185.099,-15.2616 193.994,-21.0169 195.642,-14.2135"/>
</g>
<!-- Node11 -->
<g id="node11" class="node"><title>Node11</title>
<polygon fill="none" stroke="#bfbfbf" points="420.5,-0.5 420.5,-19.5 476.5,-19.5 476.5,-0.5 420.5,-0.5"/>
<text text-anchor="middle" x="448.5" y="-7.5" font-family="Helvetica,sans-Serif" font-size="10.00">Rtypes.h</text>
</g>
<!-- Node8&#45;&gt;Node11 -->
<g id="edge10" class="edge"><title>Node8&#45;&gt;Node11</title>
<path fill="none" stroke="midnightblue" d="M399.819,-56.324C408.393,-48.3414 421.312,-36.3128 431.688,-26.6529"/>
<polygon fill="midnightblue" stroke="midnightblue" points="434.078,-29.2098 439.012,-19.8339 429.308,-24.0865 434.078,-29.2098"/>
</g>
<!-- Node12 -->
<g id="node12" class="node"><title>Node12</title>
<polygon fill="none" stroke="#bfbfbf" points="499,-0.5 499,-19.5 558,-19.5 558,-0.5 499,-0.5"/>
<text text-anchor="middle" x="528.5" y="-7.5" font-family="Helvetica,sans-Serif" font-size="10.00">TObject.h</text>
</g>
<!-- Node8&#45;&gt;Node12 -->
<g id="edge11" class="edge"><title>Node8&#45;&gt;Node12</title>
<path fill="none" stroke="midnightblue" d="M412.367,-56.4435C435.279,-47.4776 471.475,-33.314 497.366,-23.1827"/>
<polygon fill="midnightblue" stroke="midnightblue" points="498.699,-26.4198 506.736,-19.5164 496.148,-19.9011 498.699,-26.4198"/>
</g>
<!-- Node13 -->
<g id="node13" class="node"><title>Node13</title>
<polygon fill="none" stroke="#bfbfbf" points="286.5,-0.5 286.5,-19.5 402.5,-19.5 402.5,-0.5 286.5,-0.5"/>
<text text-anchor="middle" x="344.5" y="-7.5" font-family="Helvetica,sans-Serif" font-size="10.00">Common/Exceptions.h</text>
</g>
<!-- Node8&#45;&gt;Node13 -->
<g id="edge12" class="edge"><title>Node8&#45;&gt;Node13</title>
<path fill="none" stroke="midnightblue" d="M382.904,-56.083C376.273,-48.2982 366.479,-36.8015 358.442,-27.3665"/>
<polygon fill="midnightblue" stroke="midnightblue" points="361.104,-25.0939 351.955,-19.7511 355.775,-29.6332 361.104,-25.0939"/>
</g>
<!-- Node14&#45;&gt;Node9 -->
<g id="edge15" class="edge"><title>Node14&#45;&gt;Node9</title>
<path fill="none" stroke="midnightblue" d="M152.209,-56.324C168.812,-47.7034 194.502,-34.3643 213.72,-24.3855"/>
<polygon fill="midnightblue" stroke="midnightblue" points="215.57,-27.3689 222.832,-19.6545 212.344,-21.1565 215.57,-27.3689"/>
</g>
<!-- Node14&#45;&gt;Node10 -->
<g id="edge16" class="edge"><title>Node14&#45;&gt;Node10</title>
<path fill="none" stroke="midnightblue" d="M140.784,-56.083C145.211,-48.6127 151.663,-37.7244 157.118,-28.5199"/>
<polygon fill="midnightblue" stroke="midnightblue" points="160.227,-30.1383 162.314,-19.7511 154.205,-26.5697 160.227,-30.1383"/>
</g>
<!-- Node14&#45;&gt;Node11 -->
<g id="edge14" class="edge"><title>Node14&#45;&gt;Node11</title>
<path fill="none" stroke="midnightblue" d="M196.045,-56.4987C249.827,-48.6363 330.776,-36.0444 410.101,-20.1602"/>
<polygon fill="midnightblue" stroke="midnightblue" points="411.161,-23.517 420.268,-18.1042 409.773,-16.6558 411.161,-23.517"/>
</g>
<!-- Node16 -->
<g id="node16" class="node"><title>Node16</title>
<polygon fill="none" stroke="#bfbfbf" points="940.5,-112.5 940.5,-131.5 1070.5,-131.5 1070.5,-112.5 940.5,-112.5"/>
<text text-anchor="middle" x="1005.5" y="-119.5" font-family="Helvetica,sans-Serif" font-size="10.00">InfoLogger/InfoLogger.hxx</text>
</g>
<!-- Node15&#45;&gt;Node16 -->
<g id="edge20" class="edge"><title>Node15&#45;&gt;Node16</title>
<path fill="none" stroke="midnightblue" d="M1005.5,-168.083C1005.5,-161.006 1005.5,-150.861 1005.5,-141.986"/>
<polygon fill="midnightblue" stroke="midnightblue" points="1009,-141.751 1005.5,-131.751 1002,-141.751 1009,-141.751"/>
</g>
<!-- Node17 -->
<g id="node17" class="node"><title>Node17</title>
<polygon fill="none" stroke="#bfbfbf" points="1088.5,-112.5 1088.5,-131.5 1250.5,-131.5 1250.5,-112.5 1088.5,-112.5"/>
<text text-anchor="middle" x="1169.5" y="-119.5" font-family="Helvetica,sans-Serif" font-size="10.00">InfoLogger/InfoLoggerMacros.hxx</text>
</g>
<!-- Node15&#45;&gt;Node17 -->
<g id="edge21" class="edge"><title>Node15&#45;&gt;Node17</title>
<path fill="none" stroke="midnightblue" d="M1031.49,-168.444C1059.2,-159.32 1103.25,-144.813 1134.12,-134.651"/>
<polygon fill="midnightblue" stroke="midnightblue" points="1135.23,-137.968 1143.64,-131.516 1133.04,-131.32 1135.23,-137.968"/>
</g>
<!-- Node20&#45;&gt;Node11 -->
<g id="edge28" class="edge"><title>Node20&#45;&gt;Node11</title>
<path fill="none" stroke="midnightblue" d="M551.64,-168.075C534.259,-141.606 482.782,-63.2089 459.8,-28.2097"/>
<polygon fill="midnightblue" stroke="midnightblue" points="462.541,-26.0061 454.126,-19.5681 456.689,-29.8482 462.541,-26.0061"/>
</g>
<!-- Node20&#45;&gt;Node12 -->
<g id="edge29" class="edge"><title>Node20&#45;&gt;Node12</title>
<path fill="none" stroke="midnightblue" d="M555.941,-168.075C551.376,-141.945 537.971,-65.2106 531.745,-29.577"/>
<polygon fill="midnightblue" stroke="midnightblue" points="535.166,-28.8166 529.997,-19.5681 528.27,-30.0213 535.166,-28.8166"/>
</g>
<!-- Node20&#45;&gt;Node18 -->
<g id="edge26" class="edge"><title>Node20&#45;&gt;Node18</title>
<path fill="none" stroke="midnightblue" d="M577.465,-168.444C598.109,-159.596 630.563,-145.687 654.132,-135.586"/>
<polygon fill="midnightblue" stroke="midnightblue" points="655.816,-138.673 663.628,-131.516 653.058,-132.239 655.816,-138.673"/>
</g>
<!-- Node20&#45;&gt;Node19 -->
<g id="edge27" class="edge"><title>Node20&#45;&gt;Node19</title>
<path fill="none" stroke="midnightblue" d="M596.53,-169.605C645.9,-160.25 731.221,-144.085 787.262,-133.466"/>
<polygon fill="midnightblue" stroke="midnightblue" points="788.197,-136.851 797.37,-131.551 786.894,-129.974 788.197,-136.851"/>
</g>
<!-- Node21 -->
<g id="node21" class="node"><title>Node21</title>
<polygon fill="none" stroke="#bfbfbf" points="560.5,-112.5 560.5,-131.5 604.5,-131.5 604.5,-112.5 560.5,-112.5"/>
<text text-anchor="middle" x="582.5" y="-119.5" font-family="Helvetica,sans-Serif" font-size="10.00">vector</text>
</g>
<!-- Node20&#45;&gt;Node21 -->
<g id="edge25" class="edge"><title>Node20&#45;&gt;Node21</title>
<path fill="none" stroke="midnightblue" d="M561.628,-168.083C565.014,-160.77 569.916,-150.181 574.119,-141.103"/>
<polygon fill="midnightblue" stroke="midnightblue" points="577.423,-142.296 578.449,-131.751 571.071,-139.355 577.423,-142.296"/>
</g>
</g>
</svg>
        <g id="navigator" transform="translate(0 0)" fill="#404254">
                <rect fill="#f2f5e9" fill-opacity="0.5" stroke="#606060" stroke-width=".5" x="0" y="0" width="60" height="60"/>
                <use id="zoomplus" xlink:href="#zoomPlus" x="17" y="9" onmousedown="handleZoom(evt,'in')"/>
                <use id="zoomminus" xlink:href="#zoomMin" x="42" y="9" onmousedown="handleZoom(evt,'out')"/>
                <use id="reset" xlink:href="#resetDef" x="30" y="36" onmousedown="handleReset()"/>
                <g id="arrowUp" xlink:href="#dirArrow" transform="translate(30 24)" onmousedown="handlePan(0,-1)">
                  <use xlink:href="#rim" fill="#404040">
                        <set attributeName="fill" to="#808080" begin="arrowUp.mouseover" end="arrowUp.mouseout"/>
                  </use>
                  <path fill="none" stroke="white" stroke-width="1.5" d="M0,-3.0v7 M-2.5,-0.5L0,-3.0L2.5,-0.5"/>
                </g>
                <g id="arrowRight" xlink:href="#dirArrow" transform="rotate(90) translate(36 -43)" onmousedown="handlePan(1,0)">
                  <use xlink:href="#rim" fill="#404040">
                        <set attributeName="fill" to="#808080" begin="arrowRight.mouseover" end="arrowRight.mouseout"/>
                  </use>
                  <path fill="none" stroke="white" stroke-width="1.5" d="M0,-3.0v7 M-2.5,-0.5L0,-3.0L2.5,-0.5"/>
                </g>
                <g id="arrowDown" xlink:href="#dirArrow" transform="rotate(180) translate(-30 -48)" onmousedown="handlePan(0,1)">
                  <use xlink:href="#rim" fill="#404040">
                        <set attributeName="fill" to="#808080" begin="arrowDown.mouseover" end="arrowDown.mouseout"/>
                  </use>
                  <path fill="none" stroke="white" stroke-width="1.5" d="M0,-3.0v7 M-2.5,-0.5L0,-3.0L2.5,-0.5"/>
                </g>
                <g id="arrowLeft" xlink:href="#dirArrow" transform="rotate(270) translate(-36 17)" onmousedown="handlePan(-1,0)">
                  <use xlink:href="#rim" fill="#404040">
                        <set attributeName="fill" to="#808080" begin="arrowLeft.mouseover" end="arrowLeft.mouseout"/>
                  </use>
                  <path fill="none" stroke="white" stroke-width="1.5" d="M0,-3.0v7 M-2.5,-0.5L0,-3.0L2.5,-0.5"/>
                </g>
        </g>
        <svg viewBox="0 0 15 15" width="100%" height="30px" preserveAspectRatio="xMaxYMin meet">
         <g id="arrow_out" transform="scale(0.3 0.3)">
          <a xlink:href="MergedTreeCheck_8cxx__incl_org.svg" target="_base">
           <rect id="button" ry="5" rx="5" y="6" x="6" height="38" width="38"
                fill="#f2f5e9" fill-opacity="0.5" stroke="#606060" stroke-width="1.0"/>
           <path id="arrow"
             d="M 11.500037,31.436501 C 11.940474,20.09759 22.043105,11.32322 32.158766,21.979434 L 37.068811,17.246167 C 37.068811,17.246167 37.088388,32 37.088388,32 L 22.160133,31.978069 C 22.160133,31.978069 26.997745,27.140456 26.997745,27.140456 C 18.528582,18.264221 13.291696,25.230495 11.500037,31.436501 z"
             style="fill:#404040;"/>
          </a>
         </g>
        </svg>
</svg>
