<?xml version="1.0" encoding="UTF-8" standalone="no"?>
<!DOCTYPE svg PUBLIC "-//W3C//DTD SVG 1.1//EN"
 "http://www.w3.org/Graphics/SVG/1.1/DTD/svg11.dtd">
<!-- Generated by graphviz version 2.38.0 (20140413.2041)
 -->
<!-- Title: Framework/src/MonitorObject.cxx Pages: 1 -->
<svg width="559pt" height="252pt"
 viewBox="0.00 0.00 558.58 252.00" xmlns="http://www.w3.org/2000/svg" xmlns:xlink="http://www.w3.org/1999/xlink">
<g id="graph0" class="graph" transform="scale(1 1) rotate(0) translate(4 248)">
<title>Framework/src/MonitorObject.cxx</title>
<!-- Node1 -->
<g id="node1" class="node"><title>Node1</title>
<polygon fill="#bfbfbf" stroke="black" points="287.577,-224.5 287.577,-243.5 451.577,-243.5 451.577,-224.5 287.577,-224.5"/>
<text text-anchor="middle" x="369.577" y="-231.5" font-family="Helvetica,sans-Serif" font-size="10.00">Framework/src/MonitorObject.cxx</text>
</g>
<!-- Node2 -->
<g id="node2" class="node"><title>Node2</title>
<g id="a_node2"><a xlink:href="MonitorObject_8h.html" target="_top" xlink:title="QualityControl/MonitorObject.h">
<polygon fill="none" stroke="black" points="23.0772,-112.5 23.0772,-131.5 174.077,-131.5 174.077,-112.5 23.0772,-112.5"/>
<text text-anchor="middle" x="98.5772" y="-119.5" font-family="Helvetica,sans-Serif" font-size="10.00">QualityControl/MonitorObject.h</text>
</a>
</g>
</g>
<!-- Node1&#45;&gt;Node2 -->
<g id="edge1" class="edge"><title>Node1&#45;&gt;Node2</title>
<path fill="none" stroke="midnightblue" d="M308.68,-224.437C271.809,-217.732 224.54,-206.379 185.577,-188 158.568,-175.26 131.677,-153.402 115.096,-138.586"/>
<polygon fill="midnightblue" stroke="midnightblue" points="117.162,-135.732 107.42,-131.566 112.437,-140.898 117.162,-135.732"/>
</g>
<!-- Node7 -->
<g id="node7" class="node"><title>Node7</title>
<polygon fill="none" stroke="#bfbfbf" points="382.577,-56.5 382.577,-75.5 498.577,-75.5 498.577,-56.5 382.577,-56.5"/>
<text text-anchor="middle" x="440.577" y="-63.5" font-family="Helvetica,sans-Serif" font-size="10.00">Common/Exceptions.h</text>
</g>
<!-- Node1&#45;&gt;Node7 -->
<g id="edge8" class="edge"><title>Node1&#45;&gt;Node7</title>
<path fill="none" stroke="midnightblue" d="M377.113,-224.274C391.006,-207.626 420.434,-169.627 433.577,-132 438.788,-117.083 440.401,-99.1666 440.789,-85.9253"/>
<polygon fill="midnightblue" stroke="midnightblue" points="444.291,-85.7139 440.874,-75.6852 437.291,-85.6558 444.291,-85.7139"/>
</g>
<!-- Node8 -->
<g id="node8" class="node"><title>Node8</title>
<polygon fill="none" stroke="#bfbfbf" points="496.577,-168.5 496.577,-187.5 550.577,-187.5 550.577,-168.5 496.577,-168.5"/>
<text text-anchor="middle" x="523.577" y="-175.5" font-family="Helvetica,sans-Serif" font-size="10.00">iostream</text>
</g>
<!-- Node1&#45;&gt;Node8 -->
<g id="edge7" class="edge"><title>Node1&#45;&gt;Node8</title>
<path fill="none" stroke="midnightblue" d="M393.979,-224.444C419.774,-215.399 460.654,-201.064 489.595,-190.916"/>
<polygon fill="midnightblue" stroke="midnightblue" points="491.011,-194.128 499.29,-187.516 488.695,-187.523 491.011,-194.128"/>
</g>
<!-- Node9 -->
<g id="node9" class="node"><title>Node9</title>
<g id="a_node9"><a xlink:href="RepoPathUtils_8h.html" target="_top" xlink:title="QualityControl/RepoPathUtils.h">
<polygon fill="none" stroke="black" points="194.577,-168.5 194.577,-187.5 348.577,-187.5 348.577,-168.5 194.577,-168.5"/>
<text text-anchor="middle" x="271.577" y="-175.5" font-family="Helvetica,sans-Serif" font-size="10.00">QualityControl/RepoPathUtils.h</text>
</a>
</g>
</g>
<!-- Node1&#45;&gt;Node9 -->
<g id="edge9" class="edge"><title>Node1&#45;&gt;Node9</title>
<path fill="none" stroke="midnightblue" d="M353.832,-224.324C338.259,-215.743 314.2,-202.486 296.118,-192.522"/>
<polygon fill="midnightblue" stroke="midnightblue" points="297.731,-189.415 287.284,-187.655 294.353,-195.546 297.731,-189.415"/>
</g>
<!-- Node3 -->
<g id="node3" class="node"><title>Node3</title>
<polygon fill="none" stroke="#bfbfbf" points="3.07719,-0.5 3.07719,-19.5 44.0772,-19.5 44.0772,-0.5 3.07719,-0.5"/>
<text text-anchor="middle" x="23.5772" y="-7.5" font-family="Helvetica,sans-Serif" font-size="10.00">string</text>
</g>
<!-- Node2&#45;&gt;Node3 -->
<g id="edge2" class="edge"><title>Node2&#45;&gt;Node3</title>
<path fill="none" stroke="midnightblue" d="M92.6921,-112.368C80.3149,-94.2153 51.3964,-51.8015 35.1614,-27.9902"/>
<polygon fill="midnightblue" stroke="midnightblue" points="37.9602,-25.882 29.435,-19.5914 32.1766,-29.8254 37.9602,-25.882"/>
</g>
<!-- Node4 -->
<g id="node4" class="node"><title>Node4</title>
<polygon fill="none" stroke="#bfbfbf" points="299.077,-0.5 299.077,-19.5 334.077,-19.5 334.077,-0.5 299.077,-0.5"/>
<text text-anchor="middle" x="316.577" y="-7.5" font-family="Helvetica,sans-Serif" font-size="10.00">map</text>
</g>
<!-- Node2&#45;&gt;Node4 -->
<g id="edge3" class="edge"><title>Node2&#45;&gt;Node4</title>
<path fill="none" stroke="midnightblue" d="M169.196,-112.495C218.274,-105.216 278.066,-93.1716 296.577,-76 309.281,-64.2151 313.992,-44.5789 315.7,-29.9671"/>
<polygon fill="midnightblue" stroke="midnightblue" points="319.222,-29.8164 316.52,-19.572 312.244,-29.2655 319.222,-29.8164"/>
</g>
<!-- Node5 -->
<g id="node5" class="node"><title>Node5</title>
<polygon fill="none" stroke="#bfbfbf" points="130.577,-0.5 130.577,-19.5 186.577,-19.5 186.577,-0.5 130.577,-0.5"/>
<text text-anchor="middle" x="158.577" y="-7.5" font-family="Helvetica,sans-Serif" font-size="10.00">Rtypes.h</text>
</g>
<!-- Node2&#45;&gt;Node5 -->
<g id="edge4" class="edge"><title>Node2&#45;&gt;Node5</title>
<path fill="none" stroke="midnightblue" d="M92.2628,-112.472C83.513,-99.522 69.9187,-74.4543 80.5772,-56 89.3834,-40.7529 105.538,-30.2118 120.871,-23.187"/>
<polygon fill="midnightblue" stroke="midnightblue" points="122.371,-26.3532 130.238,-19.2568 119.663,-19.8982 122.371,-26.3532"/>
</g>
<!-- Node6 -->
<g id="node6" class="node"><title>Node6</title>
<polygon fill="none" stroke="#bfbfbf" points="90.0772,-56.5 90.0772,-75.5 149.077,-75.5 149.077,-56.5 90.0772,-56.5"/>
<text text-anchor="middle" x="119.577" y="-63.5" font-family="Helvetica,sans-Serif" font-size="10.00">TObject.h</text>
</g>
<!-- Node2&#45;&gt;Node6 -->
<g id="edge5" class="edge"><title>Node2&#45;&gt;Node6</title>
<path fill="none" stroke="midnightblue" d="M102.045,-112.083C104.889,-104.77 109.007,-94.1814 112.537,-85.1034"/>
<polygon fill="midnightblue" stroke="midnightblue" points="115.811,-86.3397 116.174,-75.7511 109.287,-83.8025 115.811,-86.3397"/>
</g>
<!-- Node2&#45;&gt;Node7 -->
<g id="edge6" class="edge"><title>Node2&#45;&gt;Node7</title>
<path fill="none" stroke="midnightblue" d="M152.768,-112.444C213.555,-102.846 312.064,-87.2916 376.587,-77.1037"/>
<polygon fill="midnightblue" stroke="midnightblue" points="377.308,-80.5333 386.64,-75.5164 376.216,-73.619 377.308,-80.5333"/>
</g>
<!-- Node9&#45;&gt;Node2 -->
<g id="edge13" class="edge"><title>Node9&#45;&gt;Node2</title>
<path fill="none" stroke="midnightblue" d="M244.165,-168.444C214.808,-159.28 168.058,-144.688 135.481,-134.519"/>
<polygon fill="midnightblue" stroke="midnightblue" points="136.45,-131.155 125.861,-131.516 134.364,-137.837 136.45,-131.155"/>
</g>
<!-- Node9&#45;&gt;Node3 -->
<g id="edge10" class="edge"><title>Node9&#45;&gt;Node3</title>
<path fill="none" stroke="midnightblue" d="M194.353,-174.171C126.921,-169.884 36.3622,-159.103 13.5772,-132 -10.8618,-102.929 4.0536,-54.8418 15.0331,-28.9061"/>
<polygon fill="midnightblue" stroke="midnightblue" points="18.3286,-30.1113 19.234,-19.5552 11.9434,-27.2427 18.3286,-30.1113"/>
</g>
<!-- Node9&#45;&gt;Node7 -->
<g id="edge12" class="edge"><title>Node9&#45;&gt;Node7</title>
<path fill="none" stroke="midnightblue" d="M334.428,-168.425C360.832,-162.091 390.29,-151.091 411.577,-132 425.066,-119.903 432.616,-100.34 436.606,-85.832"/>
<polygon fill="midnightblue" stroke="midnightblue" points="440.052,-86.473 439.002,-75.9302 433.248,-84.8264 440.052,-86.473"/>
</g>
<!-- Node10 -->
<g id="node10" class="node"><title>Node10</title>
<polygon fill="none" stroke="#bfbfbf" points="192.577,-112.5 192.577,-131.5 236.577,-131.5 236.577,-112.5 192.577,-112.5"/>
<text text-anchor="middle" x="214.577" y="-119.5" font-family="Helvetica,sans-Serif" font-size="10.00">vector</text>
</g>
<!-- Node9&#45;&gt;Node10 -->
<g id="edge11" class="edge"><title>Node9&#45;&gt;Node10</title>
<path fill="none" stroke="midnightblue" d="M262.419,-168.324C254.076,-160.42 241.545,-148.548 231.4,-138.938"/>
<polygon fill="midnightblue" stroke="midnightblue" points="233.569,-136.171 223.902,-131.834 228.754,-141.252 233.569,-136.171"/>
</g>
<!-- Node11 -->
<g id="node11" class="node"><title>Node11</title>
<g id="a_node11"><a xlink:href="QualityObject_8h_source.html" target="_top" xlink:title="QualityControl/QualityObject.h">
<polygon fill="none" stroke="black" points="254.077,-112.5 254.077,-131.5 403.077,-131.5 403.077,-112.5 254.077,-112.5"/>
<text text-anchor="middle" x="328.577" y="-119.5" font-family="Helvetica,sans-Serif" font-size="10.00">QualityControl/QualityObject.h</text>
</a>
</g>
</g>
<!-- Node9&#45;&gt;Node11 -->
<g id="edge14" class="edge"><title>Node9&#45;&gt;Node11</title>
<path fill="none" stroke="midnightblue" d="M280.735,-168.324C289.079,-160.42 301.61,-148.548 311.754,-138.938"/>
<polygon fill="midnightblue" stroke="midnightblue" points="314.4,-141.252 319.253,-131.834 309.586,-136.171 314.4,-141.252"/>
</g>
<!-- Node11&#45;&gt;Node4 -->
<g id="edge15" class="edge"><title>Node11&#45;&gt;Node4</title>
<path fill="none" stroke="midnightblue" d="M329.862,-112.108C331.45,-99.5321 333.596,-75.8682 330.577,-56 329.21,-47.001 326.387,-37.3251 323.632,-29.2601"/>
<polygon fill="midnightblue" stroke="midnightblue" points="326.889,-27.9759 320.177,-19.7782 320.312,-30.3722 326.889,-27.9759"/>
</g>
<!-- Node11&#45;&gt;Node6 -->
<g id="edge16" class="edge"><title>Node11&#45;&gt;Node6</title>
<path fill="none" stroke="midnightblue" d="M295.461,-112.444C258.401,-102.868 198.397,-87.365 158.962,-77.1759"/>
<polygon fill="midnightblue" stroke="midnightblue" points="159.717,-73.7563 149.16,-74.6433 157.966,-80.5337 159.717,-73.7563"/>
</g>
<!-- Node11&#45;&gt;Node7 -->
<g id="edge17" class="edge"><title>Node11&#45;&gt;Node7</title>
<path fill="none" stroke="midnightblue" d="M346.572,-112.324C364.615,-103.625 392.624,-90.1202 413.38,-80.113"/>
<polygon fill="midnightblue" stroke="midnightblue" points="415.139,-83.1502 422.627,-75.6545 412.099,-76.8449 415.139,-83.1502"/>
</g>
<!-- Node12 -->
<g id="node12" class="node"><title>Node12</title>
<g id="a_node12"><a xlink:href="Quality_8h.html" target="_top" xlink:title="QualityControl/Quality.h">
<polygon fill="none" stroke="black" points="167.077,-56.5 167.077,-75.5 288.077,-75.5 288.077,-56.5 167.077,-56.5"/>
<text text-anchor="middle" x="227.577" y="-63.5" font-family="Helvetica,sans-Serif" font-size="10.00">QualityControl/Quality.h</text>
</a>
</g>
</g>
<!-- Node11&#45;&gt;Node12 -->
<g id="edge18" class="edge"><title>Node11&#45;&gt;Node12</title>
<path fill="none" stroke="midnightblue" d="M312.35,-112.324C296.226,-103.703 271.277,-90.3643 252.613,-80.3855"/>
<polygon fill="midnightblue" stroke="midnightblue" points="254.233,-77.283 243.764,-75.6545 250.933,-83.456 254.233,-77.283"/>
</g>
<!-- Node12&#45;&gt;Node3 -->
<g id="edge20" class="edge"><title>Node12&#45;&gt;Node3</title>
<path fill="none" stroke="midnightblue" d="M195.253,-56.4435C156.537,-46.1953 92.1683,-29.1565 54.216,-19.1103"/>
<polygon fill="midnightblue" stroke="midnightblue" points="54.818,-15.6491 44.2553,-16.4736 53.0267,-22.4161 54.818,-15.6491"/>
</g>
<!-- Node12&#45;&gt;Node4 -->
<g id="edge21" class="edge"><title>Node12&#45;&gt;Node4</title>
<path fill="none" stroke="midnightblue" d="M241.877,-56.324C255.76,-47.9002 277.07,-34.9709 293.381,-25.0741"/>
<polygon fill="midnightblue" stroke="midnightblue" points="295.579,-27.8341 302.313,-19.6545 291.948,-21.8495 295.579,-27.8341"/>
</g>
<!-- Node12&#45;&gt;Node5 -->
<g id="edge19" class="edge"><title>Node12&#45;&gt;Node5</title>
<path fill="none" stroke="midnightblue" d="M216.491,-56.324C206.091,-48.1849 190.317,-35.8395 177.856,-26.0874"/>
<polygon fill="midnightblue" stroke="midnightblue" points="179.897,-23.2407 169.865,-19.8339 175.583,-28.7533 179.897,-23.2407"/>
</g>
</g>
</svg>
