<?xml version="1.0" encoding="UTF-8" standalone="no"?>
<!DOCTYPE svg PUBLIC "-//W3C//DTD SVG 1.1//EN"
 "http://www.w3.org/Graphics/SVG/1.1/DTD/svg11.dtd">
<!-- Generated by graphviz version 2.38.0 (20140413.2041)
 -->
<!-- Title: Framework/src/MySqlDatabase.cxx Pages: 1 -->
<!--zoomable 308 -->
<svg id="main" version="1.1" xmlns="http://www.w3.org/2000/svg" xmlns:xlink="http://www.w3.org/1999/xlink" xml:space="preserve" onload="init(evt)">
<style type="text/css"><![CDATA[
.edge:hover path { stroke: red; }
.edge:hover polygon { stroke: red; fill: red; }
]]></style>
<script type="text/javascript"><![CDATA[
var edges = document.getElementsByTagName('g');
if (edges && edges.length) {
  for (var i=0;i<edges.length;i++) {
    if (edges[i].id.substr(0,4)=='edge') {
      edges[i].setAttribute('class','edge');
    }
  }
}
]]></script>
        <defs>
                <circle id="rim" cx="0" cy="0" r="7"/>
                <circle id="rim2" cx="0" cy="0" r="3.5"/>
                <g id="zoomPlus">
                        <use xlink:href="#rim" fill="#404040">
                                <set attributeName="fill" to="#808080" begin="zoomplus.mouseover" end="zoomplus.mouseout"/>
                        </use>
                        <path d="M-4,0h8M0,-4v8" fill="none" stroke="white" stroke-width="1.5" pointer-events="none"/>
                </g>
                <g id="zoomMin">
                        <use xlink:href="#rim" fill="#404040">
                                <set attributeName="fill" to="#808080" begin="zoomminus.mouseover" end="zoomminus.mouseout"/>
                        </use>
                        <path d="M-4,0h8" fill="none" stroke="white" stroke-width="1.5" pointer-events="none"/>
                </g>
                <g id="dirArrow">
                        <path fill="none" stroke="white" stroke-width="1.5" d="M0,-3.0v7 M-2.5,-0.5L0,-3.0L2.5,-0.5"/>
                </g>
               <g id="resetDef">
                       <use xlink:href="#rim2" fill="#404040">
                               <set attributeName="fill" to="#808080" begin="reset.mouseover" end="reset.mouseout"/>
                       </use>
               </g>
        </defs>

<script type="text/javascript">
var viewWidth = 1622;
var viewHeight = 308;
var sectionId = 'dynsection-0';
</script>
<script xlink:href="svgpan.js"/>
<svg id="graph" class="graph">
<g id="viewport">
<title>Framework/src/MySqlDatabase.cxx</title>
<!-- Node1 -->
<g id="node1" class="node"><title>Node1</title>
<polygon fill="#bfbfbf" stroke="black" points="392.5,-280.5 392.5,-299.5 565.5,-299.5 565.5,-280.5 392.5,-280.5"/>
<text text-anchor="middle" x="479" y="-287.5" font-family="Helvetica,sans-Serif" font-size="10.00">Framework/src/MySqlDatabase.cxx</text>
</g>
<!-- Node2 -->
<g id="node2" class="node"><title>Node2</title>
<polygon fill="none" stroke="#bfbfbf" points="0,-224.5 0,-243.5 52,-243.5 52,-224.5 0,-224.5"/>
<text text-anchor="middle" x="26" y="-231.5" font-family="Helvetica,sans-Serif" font-size="10.00">sstream</text>
</g>
<!-- Node1&#45;&gt;Node2 -->
<g id="edge1" class="edge"><title>Node1&#45;&gt;Node2</title>
<path fill="none" stroke="midnightblue" d="M392.419,-283.346C309.841,-277.116 181.88,-265.288 62.3435,-244.01"/>
<polygon fill="midnightblue" stroke="midnightblue" points="62.7462,-240.526 52.2833,-242.193 61.5019,-247.414 62.7462,-240.526"/>
</g>
<!-- Node3 -->
<g id="node3" class="node"><title>Node3</title>
<polygon fill="none" stroke="#bfbfbf" points="70.5,-224.5 70.5,-243.5 141.5,-243.5 141.5,-224.5 70.5,-224.5"/>
<text text-anchor="middle" x="106" y="-231.5" font-family="Helvetica,sans-Serif" font-size="10.00">TMessage.h</text>
</g>
<!-- Node1&#45;&gt;Node3 -->
<g id="edge2" class="edge"><title>Node1&#45;&gt;Node3</title>
<path fill="none" stroke="midnightblue" d="M407.467,-280.463C343.168,-272.498 245.919,-259.731 151.804,-244.046"/>
<polygon fill="midnightblue" stroke="midnightblue" points="152.267,-240.575 141.825,-242.37 151.107,-247.478 152.267,-240.575"/>
</g>
<!-- Node4 -->
<g id="node4" class="node"><title>Node4</title>
<polygon fill="none" stroke="#bfbfbf" points="160,-224.5 160,-243.5 252,-243.5 252,-224.5 160,-224.5"/>
<text text-anchor="middle" x="206" y="-231.5" font-family="Helvetica,sans-Serif" font-size="10.00">TMySQLServer.h</text>
</g>
<!-- Node1&#45;&gt;Node4 -->
<g id="edge3" class="edge"><title>Node1&#45;&gt;Node4</title>
<path fill="none" stroke="midnightblue" d="M435.742,-280.444C387.819,-270.964 310.522,-255.675 259,-245.483"/>
<polygon fill="midnightblue" stroke="midnightblue" points="259.544,-242.023 249.055,-243.516 258.186,-248.89 259.544,-242.023"/>
</g>
<!-- Node5 -->
<g id="node5" class="node"><title>Node5</title>
<polygon fill="none" stroke="#bfbfbf" points="270,-224.5 270,-243.5 362,-243.5 362,-224.5 270,-224.5"/>
<text text-anchor="middle" x="316" y="-231.5" font-family="Helvetica,sans-Serif" font-size="10.00">TMySQLResult.h</text>
</g>
<!-- Node1&#45;&gt;Node5 -->
<g id="edge4" class="edge"><title>Node1&#45;&gt;Node5</title>
<path fill="none" stroke="midnightblue" d="M453.172,-280.444C425.751,-271.359 382.223,-256.939 351.568,-246.783"/>
<polygon fill="midnightblue" stroke="midnightblue" points="352.3,-243.339 341.707,-243.516 350.099,-249.984 352.3,-243.339"/>
</g>
<!-- Node6 -->
<g id="node6" class="node"><title>Node6</title>
<polygon fill="none" stroke="#bfbfbf" points="380,-224.5 380,-243.5 464,-243.5 464,-224.5 380,-224.5"/>
<text text-anchor="middle" x="422" y="-231.5" font-family="Helvetica,sans-Serif" font-size="10.00">TMySQLRow.h</text>
</g>
<!-- Node1&#45;&gt;Node6 -->
<g id="edge5" class="edge"><title>Node1&#45;&gt;Node6</title>
<path fill="none" stroke="midnightblue" d="M469.842,-280.324C461.499,-272.42 448.968,-260.548 438.823,-250.938"/>
<polygon fill="midnightblue" stroke="midnightblue" points="440.991,-248.171 431.325,-243.834 436.177,-253.252 440.991,-248.171"/>
</g>
<!-- Node7 -->
<g id="node7" class="node"><title>Node7</title>
<polygon fill="none" stroke="#bfbfbf" points="482.5,-224.5 482.5,-243.5 591.5,-243.5 591.5,-224.5 482.5,-224.5"/>
<text text-anchor="middle" x="537" y="-231.5" font-family="Helvetica,sans-Serif" font-size="10.00">TMySQLStatement.h</text>
</g>
<!-- Node1&#45;&gt;Node7 -->
<g id="edge6" class="edge"><title>Node1&#45;&gt;Node7</title>
<path fill="none" stroke="midnightblue" d="M488.319,-280.324C496.893,-272.341 509.812,-260.313 520.188,-250.653"/>
<polygon fill="midnightblue" stroke="midnightblue" points="522.578,-253.21 527.512,-243.834 517.808,-248.086 522.578,-253.21"/>
</g>
<!-- Node8 -->
<g id="node8" class="node"><title>Node8</title>
<polygon fill="none" stroke="#bfbfbf" points="610,-224.5 610,-243.5 694,-243.5 694,-224.5 610,-224.5"/>
<text text-anchor="middle" x="652" y="-231.5" font-family="Helvetica,sans-Serif" font-size="10.00">TBufferJSON.h</text>
</g>
<!-- Node1&#45;&gt;Node8 -->
<g id="edge7" class="edge"><title>Node1&#45;&gt;Node8</title>
<path fill="none" stroke="midnightblue" d="M506.412,-280.444C535.769,-271.28 582.519,-256.688 615.096,-246.519"/>
<polygon fill="midnightblue" stroke="midnightblue" points="616.213,-249.837 624.716,-243.516 614.127,-243.155 616.213,-249.837"/>
</g>
<!-- Node9 -->
<g id="node9" class="node"><title>Node9</title>
<polygon fill="none" stroke="#bfbfbf" points="849,-56.5 849,-75.5 965,-75.5 965,-56.5 849,-56.5"/>
<text text-anchor="middle" x="907" y="-63.5" font-family="Helvetica,sans-Serif" font-size="10.00">Common/Exceptions.h</text>
</g>
<!-- Node1&#45;&gt;Node9 -->
<g id="edge8" class="edge"><title>Node1&#45;&gt;Node9</title>
<path fill="none" stroke="midnightblue" d="M565.62,-280.832C619.75,-274.022 682.878,-262.406 703,-244 748.138,-202.711 698.291,-154.799 742,-112 767.571,-86.9614 805.639,-75.525 838.769,-70.4327"/>
<polygon fill="midnightblue" stroke="midnightblue" points="839.44,-73.8734 848.873,-69.048 838.49,-66.9383 839.44,-73.8734"/>
</g>
<!-- Node10 -->
<g id="node10" class="node"><title>Node10</title>
<g id="a_node10"><a xlink:href="MySqlDatabase_8h.html" target="_top" xlink:title="QualityControl/MySqlDatabase.h">
<polygon fill="none" stroke="black" points="1011,-224.5 1011,-243.5 1171,-243.5 1171,-224.5 1011,-224.5"/>
<text text-anchor="middle" x="1091" y="-231.5" font-family="Helvetica,sans-Serif" font-size="10.00">QualityControl/MySqlDatabase.h</text>
</a>
</g>
</g>
<!-- Node1&#45;&gt;Node10 -->
<g id="edge9" class="edge"><title>Node1&#45;&gt;Node10</title>
<path fill="none" stroke="midnightblue" d="M565.71,-281.349C681.058,-271.171 883.986,-253.266 1000.98,-242.943"/>
<polygon fill="midnightblue" stroke="midnightblue" points="1001.33,-246.425 1010.99,-242.06 1000.72,-239.453 1001.33,-246.425"/>
</g>
<!-- Node24 -->
<g id="node24" class="node"><title>Node24</title>
<g id="a_node24"><a xlink:href="QcInfoLogger_8h.html" target="_top" xlink:title="QualityControl/QcInfoLogger.h">
<polygon fill="none" stroke="black" points="1310.5,-224.5 1310.5,-243.5 1459.5,-243.5 1459.5,-224.5 1310.5,-224.5"/>
<text text-anchor="middle" x="1385" y="-231.5" font-family="Helvetica,sans-Serif" font-size="10.00">QualityControl/QcInfoLogger.h</text>
</a>
</g>
</g>
<!-- Node1&#45;&gt;Node24 -->
<g id="edge31" class="edge"><title>Node1&#45;&gt;Node24</title>
<path fill="none" stroke="midnightblue" d="M565.871,-283.822C739.679,-273.463 1128.27,-250.302 1300.28,-240.049"/>
<polygon fill="midnightblue" stroke="midnightblue" points="1300.53,-243.541 1310.3,-239.452 1300.11,-236.553 1300.53,-243.541"/>
</g>
<!-- Node11 -->
<g id="node11" class="node"><title>Node11</title>
<polygon fill="none" stroke="#bfbfbf" points="1194,-168.5 1194,-187.5 1286,-187.5 1286,-168.5 1194,-168.5"/>
<text text-anchor="middle" x="1240" y="-175.5" font-family="Helvetica,sans-Serif" font-size="10.00">Common/Timer.h</text>
</g>
<!-- Node10&#45;&gt;Node11 -->
<g id="edge10" class="edge"><title>Node10&#45;&gt;Node11</title>
<path fill="none" stroke="midnightblue" d="M1114.61,-224.444C1139.46,-215.438 1178.77,-201.189 1206.75,-191.049"/>
<polygon fill="midnightblue" stroke="midnightblue" points="1208.29,-194.214 1216.5,-187.516 1205.91,-187.633 1208.29,-194.214"/>
</g>
<!-- Node12 -->
<g id="node12" class="node"><title>Node12</title>
<g id="a_node12"><a xlink:href="DatabaseInterface_8h.html" target="_top" xlink:title="QualityControl/DatabaseInterface.h">
<polygon fill="none" stroke="black" points="1006,-168.5 1006,-187.5 1176,-187.5 1176,-168.5 1006,-168.5"/>
<text text-anchor="middle" x="1091" y="-175.5" font-family="Helvetica,sans-Serif" font-size="10.00">QualityControl/DatabaseInterface.h</text>
</a>
</g>
</g>
<!-- Node10&#45;&gt;Node12 -->
<g id="edge11" class="edge"><title>Node10&#45;&gt;Node12</title>
<path fill="none" stroke="midnightblue" d="M1091,-224.083C1091,-217.006 1091,-206.861 1091,-197.986"/>
<polygon fill="midnightblue" stroke="midnightblue" points="1094.5,-197.751 1091,-187.751 1087.5,-197.751 1094.5,-197.751"/>
</g>
<!-- Node13 -->
<g id="node13" class="node"><title>Node13</title>
<polygon fill="none" stroke="#bfbfbf" points="1304.5,-0.5 1304.5,-19.5 1345.5,-19.5 1345.5,-0.5 1304.5,-0.5"/>
<text text-anchor="middle" x="1325" y="-7.5" font-family="Helvetica,sans-Serif" font-size="10.00">string</text>
</g>
<!-- Node12&#45;&gt;Node13 -->
<g id="edge12" class="edge"><title>Node12&#45;&gt;Node13</title>
<path fill="none" stroke="midnightblue" d="M1166.55,-168.492C1236.88,-159.793 1332.56,-145.657 1344,-132 1368.71,-102.501 1348.99,-54.2389 1335.31,-28.4847"/>
<polygon fill="midnightblue" stroke="midnightblue" points="1338.23,-26.5375 1330.3,-19.5149 1332.12,-29.9519 1338.23,-26.5375"/>
</g>
<!-- Node14 -->
<g id="node14" class="node"><title>Node14</title>
<polygon fill="none" stroke="#bfbfbf" points="1391,-112.5 1391,-131.5 1443,-131.5 1443,-112.5 1391,-112.5"/>
<text text-anchor="middle" x="1417" y="-119.5" font-family="Helvetica,sans-Serif" font-size="10.00">memory</text>
</g>
<!-- Node12&#45;&gt;Node14 -->
<g id="edge13" class="edge"><title>Node12&#45;&gt;Node14</title>
<path fill="none" stroke="midnightblue" d="M1152.57,-168.498C1210.63,-160.201 1299.98,-146.708 1377,-132 1378.26,-131.76 1379.54,-131.509 1380.83,-131.25"/>
<polygon fill="midnightblue" stroke="midnightblue" points="1381.74,-134.635 1390.8,-129.152 1380.29,-127.785 1381.74,-134.635"/>
</g>
<!-- Node15 -->
<g id="node15" class="node"><title>Node15</title>
<polygon fill="none" stroke="#bfbfbf" points="1461,-112.5 1461,-131.5 1505,-131.5 1505,-112.5 1461,-112.5"/>
<text text-anchor="middle" x="1483" y="-119.5" font-family="Helvetica,sans-Serif" font-size="10.00">vector</text>
</g>
<!-- Node12&#45;&gt;Node15 -->
<g id="edge14" class="edge"><title>Node12&#45;&gt;Node15</title>
<path fill="none" stroke="midnightblue" d="M1171.63,-168.457C1256.67,-159.192 1386.14,-144.304 1450.93,-131.887"/>
<polygon fill="midnightblue" stroke="midnightblue" points="1451.64,-135.314 1460.75,-129.916 1450.26,-128.451 1451.64,-135.314"/>
</g>
<!-- Node16 -->
<g id="node16" class="node"><title>Node16</title>
<polygon fill="none" stroke="#bfbfbf" points="750.5,-112.5 750.5,-131.5 833.5,-131.5 833.5,-112.5 750.5,-112.5"/>
<text text-anchor="middle" x="792" y="-119.5" font-family="Helvetica,sans-Serif" font-size="10.00">unordered_map</text>
</g>
<!-- Node12&#45;&gt;Node16 -->
<g id="edge15" class="edge"><title>Node12&#45;&gt;Node16</title>
<path fill="none" stroke="midnightblue" d="M1043.62,-168.444C989.211,-158.617 900.227,-142.546 843.959,-132.384"/>
<polygon fill="midnightblue" stroke="midnightblue" points="844.312,-128.891 833.849,-130.558 843.068,-135.78 844.312,-128.891"/>
</g>
<!-- Node17 -->
<g id="node17" class="node"><title>Node17</title>
<polygon fill="none" stroke="#bfbfbf" points="852,-112.5 852,-131.5 998,-131.5 998,-112.5 852,-112.5"/>
<text text-anchor="middle" x="925" y="-119.5" font-family="Helvetica,sans-Serif" font-size="10.00">Framework/ServiceRegistry.h</text>
</g>
<!-- Node12&#45;&gt;Node17 -->
<g id="edge16" class="edge"><title>Node12&#45;&gt;Node17</title>
<path fill="none" stroke="midnightblue" d="M1064.7,-168.444C1036.65,-159.32 992.056,-144.813 960.816,-134.651"/>
<polygon fill="midnightblue" stroke="midnightblue" points="961.772,-131.282 951.18,-131.516 959.607,-137.938 961.772,-131.282"/>
</g>
<!-- Node18 -->
<g id="node18" class="node"><title>Node18</title>
<g id="a_node18"><a xlink:href="QualityObject_8h_source.html" target="_top" xlink:title="QualityControl/QualityObject.h">
<polygon fill="none" stroke="black" points="1016.5,-112.5 1016.5,-131.5 1165.5,-131.5 1165.5,-112.5 1016.5,-112.5"/>
<text text-anchor="middle" x="1091" y="-119.5" font-family="Helvetica,sans-Serif" font-size="10.00">QualityControl/QualityObject.h</text>
</a>
</g>
</g>
<!-- Node12&#45;&gt;Node18 -->
<g id="edge17" class="edge"><title>Node12&#45;&gt;Node18</title>
<path fill="none" stroke="midnightblue" d="M1091,-168.083C1091,-161.006 1091,-150.861 1091,-141.986"/>
<polygon fill="midnightblue" stroke="midnightblue" points="1094.5,-141.751 1091,-131.751 1087.5,-141.751 1094.5,-141.751"/>
</g>
<!-- Node23 -->
<g id="node23" class="node"><title>Node23</title>
<g id="a_node23"><a xlink:href="MonitorObject_8h.html" target="_top" xlink:title="QualityControl/MonitorObject.h">
<polygon fill="none" stroke="black" points="1183.5,-112.5 1183.5,-131.5 1334.5,-131.5 1334.5,-112.5 1183.5,-112.5"/>
<text text-anchor="middle" x="1259" y="-119.5" font-family="Helvetica,sans-Serif" font-size="10.00">QualityControl/MonitorObject.h</text>
</a>
</g>
</g>
<!-- Node12&#45;&gt;Node23 -->
<g id="edge25" class="edge"><title>Node12&#45;&gt;Node23</title>
<path fill="none" stroke="midnightblue" d="M1117.62,-168.444C1146.01,-159.32 1191.14,-144.813 1222.75,-134.651"/>
<polygon fill="midnightblue" stroke="midnightblue" points="1224.06,-137.909 1232.5,-131.516 1221.91,-131.244 1224.06,-137.909"/>
</g>
<!-- Node18&#45;&gt;Node9 -->
<g id="edge20" class="edge"><title>Node18&#45;&gt;Node9</title>
<path fill="none" stroke="midnightblue" d="M1061.84,-112.444C1030.49,-103.241 980.469,-88.5617 945.803,-78.3879"/>
<polygon fill="midnightblue" stroke="midnightblue" points="946.6,-74.9742 936.019,-75.5164 944.629,-81.6909 946.6,-74.9742"/>
</g>
<!-- Node19 -->
<g id="node19" class="node"><title>Node19</title>
<polygon fill="none" stroke="#bfbfbf" points="1091.5,-0.5 1091.5,-19.5 1126.5,-19.5 1126.5,-0.5 1091.5,-0.5"/>
<text text-anchor="middle" x="1109" y="-7.5" font-family="Helvetica,sans-Serif" font-size="10.00">map</text>
</g>
<!-- Node18&#45;&gt;Node19 -->
<g id="edge18" class="edge"><title>Node18&#45;&gt;Node19</title>
<path fill="none" stroke="midnightblue" d="M1065.06,-112.484C1036.6,-101.655 996.924,-81.2895 1013,-56 1027.92,-32.532 1058.66,-21.0909 1081.36,-15.6547"/>
<polygon fill="midnightblue" stroke="midnightblue" points="1082.39,-19.0126 1091.44,-13.4998 1080.93,-12.1672 1082.39,-19.0126"/>
</g>
<!-- Node20 -->
<g id="node20" class="node"><title>Node20</title>
<polygon fill="none" stroke="#bfbfbf" points="1021.5,-56.5 1021.5,-75.5 1080.5,-75.5 1080.5,-56.5 1021.5,-56.5"/>
<text text-anchor="middle" x="1051" y="-63.5" font-family="Helvetica,sans-Serif" font-size="10.00">TObject.h</text>
</g>
<!-- Node18&#45;&gt;Node20 -->
<g id="edge19" class="edge"><title>Node18&#45;&gt;Node20</title>
<path fill="none" stroke="midnightblue" d="M1084.39,-112.083C1078.74,-104.455 1070.46,-93.2645 1063.55,-83.9408"/>
<polygon fill="midnightblue" stroke="midnightblue" points="1066.25,-81.7034 1057.48,-75.7511 1060.62,-85.87 1066.25,-81.7034"/>
</g>
<!-- Node21 -->
<g id="node21" class="node"><title>Node21</title>
<g id="a_node21"><a xlink:href="Quality_8h.html" target="_top" xlink:title="QualityControl/Quality.h">
<polygon fill="none" stroke="black" points="1137.5,-56.5 1137.5,-75.5 1258.5,-75.5 1258.5,-56.5 1137.5,-56.5"/>
<text text-anchor="middle" x="1198" y="-63.5" font-family="Helvetica,sans-Serif" font-size="10.00">QualityControl/Quality.h</text>
</a>
</g>
</g>
<!-- Node18&#45;&gt;Node21 -->
<g id="edge21" class="edge"><title>Node18&#45;&gt;Node21</title>
<path fill="none" stroke="midnightblue" d="M1108.19,-112.324C1125.35,-103.664 1151.95,-90.2424 1171.75,-80.249"/>
<polygon fill="midnightblue" stroke="midnightblue" points="1173.5,-83.2847 1180.85,-75.6545 1170.35,-77.0354 1173.5,-83.2847"/>
</g>
<!-- Node21&#45;&gt;Node13 -->
<g id="edge23" class="edge"><title>Node21&#45;&gt;Node13</title>
<path fill="none" stroke="midnightblue" d="M1218.12,-56.4435C1239.02,-47.5566 1271.93,-33.5632 1295.72,-23.4514"/>
<polygon fill="midnightblue" stroke="midnightblue" points="1297.14,-26.6504 1304.97,-19.5164 1294.4,-20.2085 1297.14,-26.6504"/>
</g>
<!-- Node21&#45;&gt;Node19 -->
<g id="edge24" class="edge"><title>Node21&#45;&gt;Node19</title>
<path fill="none" stroke="midnightblue" d="M1183.7,-56.324C1169.82,-47.9002 1148.51,-34.9709 1132.2,-25.0741"/>
<polygon fill="midnightblue" stroke="midnightblue" points="1133.63,-21.8495 1123.26,-19.6545 1130,-27.8341 1133.63,-21.8495"/>
</g>
<!-- Node22 -->
<g id="node22" class="node"><title>Node22</title>
<polygon fill="none" stroke="#bfbfbf" points="1200,-0.5 1200,-19.5 1256,-19.5 1256,-0.5 1200,-0.5"/>
<text text-anchor="middle" x="1228" y="-7.5" font-family="Helvetica,sans-Serif" font-size="10.00">Rtypes.h</text>
</g>
<!-- Node21&#45;&gt;Node22 -->
<g id="edge22" class="edge"><title>Node21&#45;&gt;Node22</title>
<path fill="none" stroke="midnightblue" d="M1202.95,-56.083C1207.1,-48.6127 1213.15,-37.7244 1218.27,-28.5199"/>
<polygon fill="midnightblue" stroke="midnightblue" points="1221.34,-30.1924 1223.14,-19.7511 1215.22,-26.7929 1221.34,-30.1924"/>
</g>
<!-- Node23&#45;&gt;Node9 -->
<g id="edge30" class="edge"><title>Node23&#45;&gt;Node9</title>
<path fill="none" stroke="midnightblue" d="M1203.22,-112.444C1140.53,-102.826 1038.85,-87.2275 972.452,-77.0409"/>
<polygon fill="midnightblue" stroke="midnightblue" points="972.93,-73.5733 962.514,-75.5164 971.868,-80.4924 972.93,-73.5733"/>
</g>
<!-- Node23&#45;&gt;Node13 -->
<g id="edge26" class="edge"><title>Node23&#45;&gt;Node13</title>
<path fill="none" stroke="midnightblue" d="M1264.18,-112.368C1275.02,-94.2957 1300.29,-52.1764 1314.62,-28.3074"/>
<polygon fill="midnightblue" stroke="midnightblue" points="1317.7,-29.9671 1319.85,-19.5914 1311.7,-26.3656 1317.7,-29.9671"/>
</g>
<!-- Node23&#45;&gt;Node19 -->
<g id="edge27" class="edge"><title>Node23&#45;&gt;Node19</title>
<path fill="none" stroke="midnightblue" d="M1199.18,-112.482C1174.55,-106.16 1147.5,-95.1545 1129,-76 1117.09,-63.67 1112.26,-44.4186 1110.3,-30.0625"/>
<polygon fill="midnightblue" stroke="midnightblue" points="1113.76,-29.4242 1109.27,-19.8245 1106.79,-30.1245 1113.76,-29.4242"/>
</g>
<!-- Node23&#45;&gt;Node20 -->
<g id="edge29" class="edge"><title>Node23&#45;&gt;Node20</title>
<path fill="none" stroke="midnightblue" d="M1226.04,-112.444C1189.26,-102.896 1129.78,-87.4535 1090.53,-77.2634"/>
<polygon fill="midnightblue" stroke="midnightblue" points="1091.33,-73.8543 1080.77,-74.729 1089.57,-80.6297 1091.33,-73.8543"/>
</g>
<!-- Node23&#45;&gt;Node22 -->
<g id="edge28" class="edge"><title>Node23&#45;&gt;Node22</title>
<path fill="none" stroke="midnightblue" d="M1262.84,-112.283C1267.88,-99.5158 1275.29,-75.1677 1268,-56 1263.66,-44.5976 1254.97,-34.2394 1246.79,-26.343"/>
<polygon fill="midnightblue" stroke="midnightblue" points="1249.04,-23.6595 1239.27,-19.5728 1244.36,-28.8633 1249.04,-23.6595"/>
</g>
<!-- Node25 -->
<g id="node25" class="node"><title>Node25</title>
<polygon fill="none" stroke="#bfbfbf" points="1484,-168.5 1484,-187.5 1614,-187.5 1614,-168.5 1484,-168.5"/>
<text text-anchor="middle" x="1549" y="-175.5" font-family="Helvetica,sans-Serif" font-size="10.00">InfoLogger/InfoLogger.hxx</text>
</g>
<!-- Node24&#45;&gt;Node25 -->
<g id="edge32" class="edge"><title>Node24&#45;&gt;Node25</title>
<path fill="none" stroke="midnightblue" d="M1410.99,-224.444C1438.7,-215.32 1482.75,-200.813 1513.62,-190.651"/>
<polygon fill="midnightblue" stroke="midnightblue" points="1514.73,-193.968 1523.14,-187.516 1512.54,-187.32 1514.73,-193.968"/>
</g>
<!-- Node26 -->
<g id="node26" class="node"><title>Node26</title>
<polygon fill="none" stroke="#bfbfbf" points="1304,-168.5 1304,-187.5 1466,-187.5 1466,-168.5 1304,-168.5"/>
<text text-anchor="middle" x="1385" y="-175.5" font-family="Helvetica,sans-Serif" font-size="10.00">InfoLogger/InfoLoggerMacros.hxx</text>
</g>
<!-- Node24&#45;&gt;Node26 -->
<g id="edge33" class="edge"><title>Node24&#45;&gt;Node26</title>
<path fill="none" stroke="midnightblue" d="M1385,-224.083C1385,-217.006 1385,-206.861 1385,-197.986"/>
<polygon fill="midnightblue" stroke="midnightblue" points="1388.5,-197.751 1385,-187.751 1381.5,-197.751 1388.5,-197.751"/>
</g>
</g>
</svg>
        <g id="navigator" transform="translate(0 0)" fill="#404254">
                <rect fill="#f2f5e9" fill-opacity="0.5" stroke="#606060" stroke-width=".5" x="0" y="0" width="60" height="60"/>
                <use id="zoomplus" xlink:href="#zoomPlus" x="17" y="9" onmousedown="handleZoom(evt,'in')"/>
                <use id="zoomminus" xlink:href="#zoomMin" x="42" y="9" onmousedown="handleZoom(evt,'out')"/>
                <use id="reset" xlink:href="#resetDef" x="30" y="36" onmousedown="handleReset()"/>
                <g id="arrowUp" xlink:href="#dirArrow" transform="translate(30 24)" onmousedown="handlePan(0,-1)">
                  <use xlink:href="#rim" fill="#404040">
                        <set attributeName="fill" to="#808080" begin="arrowUp.mouseover" end="arrowUp.mouseout"/>
                  </use>
                  <path fill="none" stroke="white" stroke-width="1.5" d="M0,-3.0v7 M-2.5,-0.5L0,-3.0L2.5,-0.5"/>
                </g>
                <g id="arrowRight" xlink:href="#dirArrow" transform="rotate(90) translate(36 -43)" onmousedown="handlePan(1,0)">
                  <use xlink:href="#rim" fill="#404040">
                        <set attributeName="fill" to="#808080" begin="arrowRight.mouseover" end="arrowRight.mouseout"/>
                  </use>
                  <path fill="none" stroke="white" stroke-width="1.5" d="M0,-3.0v7 M-2.5,-0.5L0,-3.0L2.5,-0.5"/>
                </g>
                <g id="arrowDown" xlink:href="#dirArrow" transform="rotate(180) translate(-30 -48)" onmousedown="handlePan(0,1)">
                  <use xlink:href="#rim" fill="#404040">
                        <set attributeName="fill" to="#808080" begin="arrowDown.mouseover" end="arrowDown.mouseout"/>
                  </use>
                  <path fill="none" stroke="white" stroke-width="1.5" d="M0,-3.0v7 M-2.5,-0.5L0,-3.0L2.5,-0.5"/>
                </g>
                <g id="arrowLeft" xlink:href="#dirArrow" transform="rotate(270) translate(-36 17)" onmousedown="handlePan(-1,0)">
                  <use xlink:href="#rim" fill="#404040">
                        <set attributeName="fill" to="#808080" begin="arrowLeft.mouseover" end="arrowLeft.mouseout"/>
                  </use>
                  <path fill="none" stroke="white" stroke-width="1.5" d="M0,-3.0v7 M-2.5,-0.5L0,-3.0L2.5,-0.5"/>
                </g>
        </g>
        <svg viewBox="0 0 15 15" width="100%" height="30px" preserveAspectRatio="xMaxYMin meet">
         <g id="arrow_out" transform="scale(0.3 0.3)">
          <a xlink:href="MySqlDatabase_8cxx__incl_org.svg" target="_base">
           <rect id="button" ry="5" rx="5" y="6" x="6" height="38" width="38"
                fill="#f2f5e9" fill-opacity="0.5" stroke="#606060" stroke-width="1.0"/>
           <path id="arrow"
             d="M 11.500037,31.436501 C 11.940474,20.09759 22.043105,11.32322 32.158766,21.979434 L 37.068811,17.246167 C 37.068811,17.246167 37.088388,32 37.088388,32 L 22.160133,31.978069 C 22.160133,31.978069 26.997745,27.140456 26.997745,27.140456 C 18.528582,18.264221 13.291696,25.230495 11.500037,31.436501 z"
             style="fill:#404040;"/>
          </a>
         </g>
        </svg>
</svg>
