<?xml version="1.0" encoding="UTF-8" standalone="no"?>
<!DOCTYPE svg PUBLIC "-//W3C//DTD SVG 1.1//EN"
 "http://www.w3.org/Graphics/SVG/1.1/DTD/svg11.dtd">
<!-- Generated by graphviz version 2.38.0 (20140413.2041)
 -->
<!-- Title: Framework/include/QualityControl/ObjectsManager.h Pages: 1 -->
<svg width="756pt" height="162pt"
 viewBox="0.00 0.00 755.50 162.00" xmlns="http://www.w3.org/2000/svg" xmlns:xlink="http://www.w3.org/1999/xlink">
<g id="graph0" class="graph" transform="scale(1 1) rotate(0) translate(4 158)">
<title>Framework/include/QualityControl/ObjectsManager.h</title>
<!-- Node1 -->
<g id="node1" class="node"><title>Node1</title>
<polygon fill="#bfbfbf" stroke="black" points="371,-123.5 371,-153.5 504,-153.5 504,-123.5 371,-123.5"/>
<text text-anchor="start" x="379" y="-141.5" font-family="Helvetica,sans-Serif" font-size="10.00">Framework/include/Quality</text>
<text text-anchor="middle" x="437.5" y="-130.5" font-family="Helvetica,sans-Serif" font-size="10.00">Control/ObjectsManager.h</text>
</g>
<!-- Node2 -->
<g id="node2" class="node"><title>Node2</title>
<g id="a_node2"><a xlink:href="MonitorObject_8h.html" target="_top" xlink:title="QualityControl/MonitorObject.h">
<polygon fill="none" stroke="black" points="156,-62 156,-81 307,-81 307,-62 156,-62"/>
<text text-anchor="middle" x="231.5" y="-69" font-family="Helvetica,sans-Serif" font-size="10.00">QualityControl/MonitorObject.h</text>
</a>
</g>
</g>
<!-- Node1&#45;&gt;Node2 -->
<g id="edge1" class="edge"><title>Node1&#45;&gt;Node2</title>
<path fill="none" stroke="midnightblue" d="M393.055,-123.476C355.807,-111.723 303.262,-95.1433 268.328,-84.1205"/>
<polygon fill="midnightblue" stroke="midnightblue" points="269.119,-80.7 258.529,-81.0287 267.013,-87.3756 269.119,-80.7"/>
</g>
<!-- Node3 -->
<g id="node3" class="node"><title>Node3</title>
<polygon fill="none" stroke="#bfbfbf" points="340,-0.5 340,-19.5 381,-19.5 381,-0.5 340,-0.5"/>
<text text-anchor="middle" x="360.5" y="-7.5" font-family="Helvetica,sans-Serif" font-size="10.00">string</text>
</g>
<!-- Node1&#45;&gt;Node3 -->
<g id="edge13" class="edge"><title>Node1&#45;&gt;Node3</title>
<path fill="none" stroke="midnightblue" d="M400.186,-123.359C384.347,-115.277 367.491,-103.419 358.5,-87 348.816,-69.3164 351.401,-45.6777 355.061,-29.4862"/>
<polygon fill="midnightblue" stroke="midnightblue" points="358.494,-30.1908 357.629,-19.6313 351.72,-28.4255 358.494,-30.1908"/>
</g>
<!-- Node8 -->
<g id="node8" class="node"><title>Node8</title>
<g id="a_node8"><a xlink:href="MonitorObjectCollection_8h.html" target="_top" xlink:title="QualityControl/MonitorObject\lCollection.h">
<polygon fill="none" stroke="black" points="526,-56.5 526,-86.5 669,-86.5 669,-56.5 526,-56.5"/>
<text text-anchor="start" x="534" y="-74.5" font-family="Helvetica,sans-Serif" font-size="10.00">QualityControl/MonitorObject</text>
<text text-anchor="middle" x="597.5" y="-63.5" font-family="Helvetica,sans-Serif" font-size="10.00">Collection.h</text>
</a>
</g>
</g>
<!-- Node1&#45;&gt;Node8 -->
<g id="edge7" class="edge"><title>Node1&#45;&gt;Node8</title>
<path fill="none" stroke="midnightblue" d="M472.218,-123.396C496.015,-113.728 527.783,-100.823 553.374,-90.4262"/>
<polygon fill="midnightblue" stroke="midnightblue" points="554.903,-93.583 562.85,-86.5765 552.268,-87.0977 554.903,-93.583"/>
</g>
<!-- Node11 -->
<g id="node11" class="node"><title>Node11</title>
<g id="a_node11"><a xlink:href="TaskConfig_8h.html" target="_top" xlink:title="QualityControl/TaskConfig.h">
<polygon fill="none" stroke="black" points="367.5,-62 367.5,-81 507.5,-81 507.5,-62 367.5,-62"/>
<text text-anchor="middle" x="437.5" y="-69" font-family="Helvetica,sans-Serif" font-size="10.00">QualityControl/TaskConfig.h</text>
</a>
</g>
</g>
<!-- Node1&#45;&gt;Node11 -->
<g id="edge10" class="edge"><title>Node1&#45;&gt;Node11</title>
<path fill="none" stroke="midnightblue" d="M437.5,-123.396C437.5,-114.064 437.5,-101.714 437.5,-91.5173"/>
<polygon fill="midnightblue" stroke="midnightblue" points="441,-91.1945 437.5,-81.1945 434,-91.1946 441,-91.1945"/>
</g>
<!-- Node13 -->
<g id="node13" class="node"><title>Node13</title>
<polygon fill="none" stroke="#bfbfbf" points="687.5,-62 687.5,-81 739.5,-81 739.5,-62 687.5,-62"/>
<text text-anchor="middle" x="713.5" y="-69" font-family="Helvetica,sans-Serif" font-size="10.00">memory</text>
</g>
<!-- Node1&#45;&gt;Node13 -->
<g id="edge14" class="edge"><title>Node1&#45;&gt;Node13</title>
<path fill="none" stroke="midnightblue" d="M504.064,-126.991C552.933,-118.449 620.604,-104.888 678.5,-87 680.644,-86.3374 682.839,-85.5939 685.032,-84.8027"/>
<polygon fill="midnightblue" stroke="midnightblue" points="686.427,-88.016 694.481,-81.1324 683.892,-81.491 686.427,-88.016"/>
</g>
<!-- Node2&#45;&gt;Node3 -->
<g id="edge2" class="edge"><title>Node2&#45;&gt;Node3</title>
<path fill="none" stroke="midnightblue" d="M249.983,-61.9751C271.632,-51.9897 307.713,-35.3476 332.732,-23.8075"/>
<polygon fill="midnightblue" stroke="midnightblue" points="334.437,-26.8757 342.052,-19.5091 331.505,-20.5193 334.437,-26.8757"/>
</g>
<!-- Node4 -->
<g id="node4" class="node"><title>Node4</title>
<polygon fill="none" stroke="#bfbfbf" points="212,-0.5 212,-19.5 247,-19.5 247,-0.5 212,-0.5"/>
<text text-anchor="middle" x="229.5" y="-7.5" font-family="Helvetica,sans-Serif" font-size="10.00">map</text>
</g>
<!-- Node2&#45;&gt;Node4 -->
<g id="edge3" class="edge"><title>Node2&#45;&gt;Node4</title>
<path fill="none" stroke="midnightblue" d="M231.213,-61.9751C230.931,-53.5803 230.491,-40.4806 230.127,-29.6631"/>
<polygon fill="midnightblue" stroke="midnightblue" points="233.62,-29.3858 229.786,-19.5091 226.624,-29.6211 233.62,-29.3858"/>
</g>
<!-- Node5 -->
<g id="node5" class="node"><title>Node5</title>
<polygon fill="none" stroke="#bfbfbf" points="265.5,-0.5 265.5,-19.5 321.5,-19.5 321.5,-0.5 265.5,-0.5"/>
<text text-anchor="middle" x="293.5" y="-7.5" font-family="Helvetica,sans-Serif" font-size="10.00">Rtypes.h</text>
</g>
<!-- Node2&#45;&gt;Node5 -->
<g id="edge4" class="edge"><title>Node2&#45;&gt;Node5</title>
<path fill="none" stroke="midnightblue" d="M240.383,-61.9751C249.959,-52.785 265.411,-37.9563 277.186,-26.656"/>
<polygon fill="midnightblue" stroke="midnightblue" points="279.842,-28.9585 284.633,-19.5091 274.995,-23.908 279.842,-28.9585"/>
</g>
<!-- Node6 -->
<g id="node6" class="node"><title>Node6</title>
<polygon fill="none" stroke="#bfbfbf" points="0,-0.5 0,-19.5 59,-19.5 59,-0.5 0,-0.5"/>
<text text-anchor="middle" x="29.5" y="-7.5" font-family="Helvetica,sans-Serif" font-size="10.00">TObject.h</text>
</g>
<!-- Node2&#45;&gt;Node6 -->
<g id="edge5" class="edge"><title>Node2&#45;&gt;Node6</title>
<path fill="none" stroke="midnightblue" d="M202.558,-61.9751C167.233,-51.5699 107.369,-33.9367 68.1351,-22.3801"/>
<polygon fill="midnightblue" stroke="midnightblue" points="68.9695,-18.9773 58.388,-19.5091 66.9916,-25.6921 68.9695,-18.9773"/>
</g>
<!-- Node7 -->
<g id="node7" class="node"><title>Node7</title>
<polygon fill="none" stroke="#bfbfbf" points="77.5,-0.5 77.5,-19.5 193.5,-19.5 193.5,-0.5 77.5,-0.5"/>
<text text-anchor="middle" x="135.5" y="-7.5" font-family="Helvetica,sans-Serif" font-size="10.00">Common/Exceptions.h</text>
</g>
<!-- Node2&#45;&gt;Node7 -->
<g id="edge6" class="edge"><title>Node2&#45;&gt;Node7</title>
<path fill="none" stroke="midnightblue" d="M217.746,-61.9751C202.134,-52.2989 176.437,-36.3721 157.917,-24.8941"/>
<polygon fill="midnightblue" stroke="midnightblue" points="159.573,-21.8023 149.229,-19.5091 155.885,-27.7522 159.573,-21.8023"/>
</g>
<!-- Node9 -->
<g id="node9" class="node"><title>Node9</title>
<polygon fill="none" stroke="#bfbfbf" points="532,-0.5 532,-19.5 601,-19.5 601,-0.5 532,-0.5"/>
<text text-anchor="middle" x="566.5" y="-7.5" font-family="Helvetica,sans-Serif" font-size="10.00">TObjArray.h</text>
</g>
<!-- Node8&#45;&gt;Node9 -->
<g id="edge8" class="edge"><title>Node8&#45;&gt;Node9</title>
<path fill="none" stroke="midnightblue" d="M590.153,-56.3993C585.835,-48.1098 580.335,-37.5542 575.726,-28.7077"/>
<polygon fill="midnightblue" stroke="midnightblue" points="578.735,-26.9091 571.011,-19.6578 572.527,-30.1435 578.735,-26.9091"/>
</g>
<!-- Node10 -->
<g id="node10" class="node"><title>Node10</title>
<polygon fill="none" stroke="#bfbfbf" points="619.5,-0.5 619.5,-19.5 747.5,-19.5 747.5,-0.5 619.5,-0.5"/>
<text text-anchor="middle" x="683.5" y="-7.5" font-family="Helvetica,sans-Serif" font-size="10.00">Mergers/MergeInterface.h</text>
</g>
<!-- Node8&#45;&gt;Node10 -->
<g id="edge9" class="edge"><title>Node8&#45;&gt;Node10</title>
<path fill="none" stroke="midnightblue" d="M617.881,-56.3993C631.408,-47.0402 649.111,-34.7924 662.72,-25.3771"/>
<polygon fill="midnightblue" stroke="midnightblue" points="664.754,-28.2257 670.986,-19.6578 660.771,-22.4692 664.754,-28.2257"/>
</g>
<!-- Node11&#45;&gt;Node3 -->
<g id="edge11" class="edge"><title>Node11&#45;&gt;Node3</title>
<path fill="none" stroke="midnightblue" d="M426.468,-61.9751C414.232,-52.5199 394.271,-37.0961 379.507,-25.6871"/>
<polygon fill="midnightblue" stroke="midnightblue" points="381.565,-22.8541 371.512,-19.5091 377.285,-28.3931 381.565,-22.8541"/>
</g>
<!-- Node12 -->
<g id="node12" class="node"><title>Node12</title>
<polygon fill="none" stroke="#bfbfbf" points="399,-0.5 399,-19.5 482,-19.5 482,-0.5 399,-0.5"/>
<text text-anchor="middle" x="440.5" y="-7.5" font-family="Helvetica,sans-Serif" font-size="10.00">unordered_map</text>
</g>
<!-- Node11&#45;&gt;Node12 -->
<g id="edge12" class="edge"><title>Node11&#45;&gt;Node12</title>
<path fill="none" stroke="midnightblue" d="M437.93,-61.9751C438.353,-53.5803 439.014,-40.4806 439.559,-29.6631"/>
<polygon fill="midnightblue" stroke="midnightblue" points="443.063,-29.6727 440.071,-19.5091 436.072,-29.3201 443.063,-29.6727"/>
</g>
</g>
</svg>
