<?xml version="1.0" encoding="UTF-8" standalone="no"?>
<!DOCTYPE svg PUBLIC "-//W3C//DTD SVG 1.1//EN"
 "http://www.w3.org/Graphics/SVG/1.1/DTD/svg11.dtd">
<!-- Generated by graphviz version 2.38.0 (20140413.2041)
 -->
<!-- Title: Modules/MUON/MCH/src/PedestalsCheck.cxx Pages: 1 -->
<!--zoomable 274 -->
<svg id="main" version="1.1" xmlns="http://www.w3.org/2000/svg" xmlns:xlink="http://www.w3.org/1999/xlink" xml:space="preserve" onload="init(evt)">
<style type="text/css"><![CDATA[
.edge:hover path { stroke: red; }
.edge:hover polygon { stroke: red; fill: red; }
]]></style>
<script type="text/javascript"><![CDATA[
var edges = document.getElementsByTagName('g');
if (edges && edges.length) {
  for (var i=0;i<edges.length;i++) {
    if (edges[i].id.substr(0,4)=='edge') {
      edges[i].setAttribute('class','edge');
    }
  }
}
]]></script>
        <defs>
                <circle id="rim" cx="0" cy="0" r="7"/>
                <circle id="rim2" cx="0" cy="0" r="3.5"/>
                <g id="zoomPlus">
                        <use xlink:href="#rim" fill="#404040">
                                <set attributeName="fill" to="#808080" begin="zoomplus.mouseover" end="zoomplus.mouseout"/>
                        </use>
                        <path d="M-4,0h8M0,-4v8" fill="none" stroke="white" stroke-width="1.5" pointer-events="none"/>
                </g>
                <g id="zoomMin">
                        <use xlink:href="#rim" fill="#404040">
                                <set attributeName="fill" to="#808080" begin="zoomminus.mouseover" end="zoomminus.mouseout"/>
                        </use>
                        <path d="M-4,0h8" fill="none" stroke="white" stroke-width="1.5" pointer-events="none"/>
                </g>
                <g id="dirArrow">
                        <path fill="none" stroke="white" stroke-width="1.5" d="M0,-3.0v7 M-2.5,-0.5L0,-3.0L2.5,-0.5"/>
                </g>
               <g id="resetDef">
                       <use xlink:href="#rim2" fill="#404040">
                               <set attributeName="fill" to="#808080" begin="reset.mouseover" end="reset.mouseout"/>
                       </use>
               </g>
        </defs>

<script type="text/javascript">
var viewWidth = 913;
var viewHeight = 274;
var sectionId = 'dynsection-0';
</script>
<script xlink:href="svgpan.js"/>
<svg id="graph" class="graph">
<g id="viewport">
<title>Modules/MUON/MCH/src/PedestalsCheck.cxx</title>
<!-- Node1 -->
<g id="node1" class="node"><title>Node1</title>
<polygon fill="#bfbfbf" stroke="black" points="528.5,-235.5 528.5,-265.5 658.5,-265.5 658.5,-235.5 528.5,-235.5"/>
<text text-anchor="start" x="536.5" y="-253.5" font-family="Helvetica,sans-Serif" font-size="10.00">Modules/MUON/MCH/src</text>
<text text-anchor="middle" x="593.5" y="-242.5" font-family="Helvetica,sans-Serif" font-size="10.00">/PedestalsCheck.cxx</text>
</g>
<!-- Node2 -->
<g id="node2" class="node"><title>Node2</title>
<polygon fill="none" stroke="#bfbfbf" points="0,-168.5 0,-198.5 115,-198.5 115,-168.5 0,-168.5"/>
<text text-anchor="start" x="8" y="-186.5" font-family="Helvetica,sans-Serif" font-size="10.00">MCHMappingInterface</text>
<text text-anchor="middle" x="57.5" y="-175.5" font-family="Helvetica,sans-Serif" font-size="10.00">/Segmentation.h</text>
</g>
<!-- Node1&#45;&gt;Node2 -->
<g id="edge1" class="edge"><title>Node1&#45;&gt;Node2</title>
<path fill="none" stroke="midnightblue" d="M528.343,-244.677C439.539,-237.617 275.382,-222.838 125.479,-199.041"/>
<polygon fill="midnightblue" stroke="midnightblue" points="125.598,-195.515 115.17,-197.386 124.489,-202.427 125.598,-195.515"/>
</g>
<!-- Node3 -->
<g id="node3" class="node"><title>Node3</title>
<polygon fill="none" stroke="#bfbfbf" points="133.5,-168.5 133.5,-198.5 297.5,-198.5 297.5,-168.5 133.5,-168.5"/>
<text text-anchor="start" x="141.5" y="-186.5" font-family="Helvetica,sans-Serif" font-size="10.00">MCHMappingSegContour</text>
<text text-anchor="middle" x="215.5" y="-175.5" font-family="Helvetica,sans-Serif" font-size="10.00">/CathodeSegmentationContours.h</text>
</g>
<!-- Node1&#45;&gt;Node3 -->
<g id="edge2" class="edge"><title>Node1&#45;&gt;Node3</title>
<path fill="none" stroke="midnightblue" d="M528.089,-238.252C467.065,-227.758 375.429,-212.001 307.131,-200.257"/>
<polygon fill="midnightblue" stroke="midnightblue" points="307.679,-196.8 297.23,-198.554 306.492,-203.698 307.679,-196.8"/>
</g>
<!-- Node4 -->
<g id="node4" class="node"><title>Node4</title>
<g id="a_node4"><a xlink:href="PedestalsCheck_8h.html" target="_top" xlink:title="MCH/PedestalsCheck.h">
<polygon fill="none" stroke="black" points="316,-174 316,-193 439,-193 439,-174 316,-174"/>
<text text-anchor="middle" x="377.5" y="-181" font-family="Helvetica,sans-Serif" font-size="10.00">MCH/PedestalsCheck.h</text>
</a>
</g>
</g>
<!-- Node1&#45;&gt;Node4 -->
<g id="edge3" class="edge"><title>Node1&#45;&gt;Node4</title>
<path fill="none" stroke="midnightblue" d="M546.897,-235.476C507.674,-223.673 452.272,-207.001 415.645,-195.979"/>
<polygon fill="midnightblue" stroke="midnightblue" points="416.426,-192.559 405.841,-193.029 414.409,-199.262 416.426,-192.559"/>
</g>
<!-- Node14 -->
<g id="node14" class="node"><title>Node14</title>
<polygon fill="none" stroke="#bfbfbf" points="457,-174 457,-193 554,-193 554,-174 457,-174"/>
<text text-anchor="middle" x="505.5" y="-181" font-family="Helvetica,sans-Serif" font-size="10.00">fairlogger/Logger.h</text>
</g>
<!-- Node1&#45;&gt;Node14 -->
<g id="edge18" class="edge"><title>Node1&#45;&gt;Node14</title>
<path fill="none" stroke="midnightblue" d="M574.405,-235.396C559.921,-224.697 540.068,-210.033 525.392,-199.193"/>
<polygon fill="midnightblue" stroke="midnightblue" points="527.14,-196.133 517.017,-193.007 522.981,-201.764 527.14,-196.133"/>
</g>
<!-- Node15 -->
<g id="node15" class="node"><title>Node15</title>
<polygon fill="none" stroke="#bfbfbf" points="571.5,-174 571.5,-193 615.5,-193 615.5,-174 571.5,-174"/>
<text text-anchor="middle" x="593.5" y="-181" font-family="Helvetica,sans-Serif" font-size="10.00">TH1.h</text>
</g>
<!-- Node1&#45;&gt;Node15 -->
<g id="edge19" class="edge"><title>Node1&#45;&gt;Node15</title>
<path fill="none" stroke="midnightblue" d="M593.5,-235.396C593.5,-226.064 593.5,-213.714 593.5,-203.517"/>
<polygon fill="midnightblue" stroke="midnightblue" points="597,-203.195 593.5,-193.195 590,-203.195 597,-203.195"/>
</g>
<!-- Node16 -->
<g id="node16" class="node"><title>Node16</title>
<polygon fill="none" stroke="#bfbfbf" points="633.5,-174 633.5,-193 677.5,-193 677.5,-174 633.5,-174"/>
<text text-anchor="middle" x="655.5" y="-181" font-family="Helvetica,sans-Serif" font-size="10.00">TH2.h</text>
</g>
<!-- Node1&#45;&gt;Node16 -->
<g id="edge20" class="edge"><title>Node1&#45;&gt;Node16</title>
<path fill="none" stroke="midnightblue" d="M606.953,-235.396C616.716,-225.161 629.941,-211.296 640.122,-200.622"/>
<polygon fill="midnightblue" stroke="midnightblue" points="642.837,-202.846 647.207,-193.195 637.772,-198.015 642.837,-202.846"/>
</g>
<!-- Node17 -->
<g id="node17" class="node"><title>Node17</title>
<polygon fill="none" stroke="#bfbfbf" points="696,-174 696,-193 743,-193 743,-174 696,-174"/>
<text text-anchor="middle" x="719.5" y="-181" font-family="Helvetica,sans-Serif" font-size="10.00">TList.h</text>
</g>
<!-- Node1&#45;&gt;Node17 -->
<g id="edge21" class="edge"><title>Node1&#45;&gt;Node17</title>
<path fill="none" stroke="midnightblue" d="M620.84,-235.396C642.557,-224.193 672.703,-208.641 693.941,-197.685"/>
<polygon fill="midnightblue" stroke="midnightblue" points="695.727,-200.702 703.01,-193.007 692.518,-194.481 695.727,-200.702"/>
</g>
<!-- Node18 -->
<g id="node18" class="node"><title>Node18</title>
<polygon fill="none" stroke="#bfbfbf" points="761,-174 761,-193 814,-193 814,-174 761,-174"/>
<text text-anchor="middle" x="787.5" y="-181" font-family="Helvetica,sans-Serif" font-size="10.00">TMath.h</text>
</g>
<!-- Node1&#45;&gt;Node18 -->
<g id="edge22" class="edge"><title>Node1&#45;&gt;Node18</title>
<path fill="none" stroke="midnightblue" d="M641.518,-235.415C673.252,-225.821 715.636,-212.462 752.5,-199 754.353,-198.323 756.253,-197.606 758.163,-196.867"/>
<polygon fill="midnightblue" stroke="midnightblue" points="759.644,-200.044 767.626,-193.078 757.041,-193.546 759.644,-200.044"/>
</g>
<!-- Node19 -->
<g id="node19" class="node"><title>Node19</title>
<polygon fill="none" stroke="#bfbfbf" points="832,-174 832,-193 905,-193 905,-174 832,-174"/>
<text text-anchor="middle" x="868.5" y="-181" font-family="Helvetica,sans-Serif" font-size="10.00">TPaveText.h</text>
</g>
<!-- Node1&#45;&gt;Node19 -->
<g id="edge23" class="edge"><title>Node1&#45;&gt;Node19</title>
<path fill="none" stroke="midnightblue" d="M658.838,-236.887C705.095,-227.536 768.445,-213.878 823.5,-199 826.85,-198.095 830.321,-197.093 833.782,-196.051"/>
<polygon fill="midnightblue" stroke="midnightblue" points="834.891,-199.372 843.398,-193.056 832.81,-192.688 834.891,-199.372"/>
</g>
<!-- Node5 -->
<g id="node5" class="node"><title>Node5</title>
<g id="a_node5"><a xlink:href="CheckInterface_8h.html" target="_top" xlink:title="QualityControl/CheckInterface.h">
<polygon fill="none" stroke="black" points="299,-112.5 299,-131.5 456,-131.5 456,-112.5 299,-112.5"/>
<text text-anchor="middle" x="377.5" y="-119.5" font-family="Helvetica,sans-Serif" font-size="10.00">QualityControl/CheckInterface.h</text>
</a>
</g>
</g>
<!-- Node4&#45;&gt;Node5 -->
<g id="edge4" class="edge"><title>Node4&#45;&gt;Node5</title>
<path fill="none" stroke="midnightblue" d="M377.5,-173.975C377.5,-165.58 377.5,-152.481 377.5,-141.663"/>
<polygon fill="midnightblue" stroke="midnightblue" points="381,-141.509 377.5,-131.509 374,-141.509 381,-141.509"/>
</g>
<!-- Node7 -->
<g id="node7" class="node"><title>Node7</title>
<g id="a_node7"><a xlink:href="MonitorObject_8h.html" target="_top" xlink:title="QualityControl/MonitorObject.h">
<polygon fill="none" stroke="black" points="437,-56.5 437,-75.5 588,-75.5 588,-56.5 437,-56.5"/>
<text text-anchor="middle" x="512.5" y="-63.5" font-family="Helvetica,sans-Serif" font-size="10.00">QualityControl/MonitorObject.h</text>
</a>
</g>
</g>
<!-- Node4&#45;&gt;Node7 -->
<g id="edge16" class="edge"><title>Node4&#45;&gt;Node7</title>
<path fill="none" stroke="midnightblue" d="M397.581,-173.985C416.504,-165.303 444.945,-150.501 465.5,-132 480.806,-118.223 494.111,-98.6744 502.621,-84.6184"/>
<polygon fill="midnightblue" stroke="midnightblue" points="505.69,-86.3036 507.711,-75.9034 499.645,-82.7731 505.69,-86.3036"/>
</g>
<!-- Node13 -->
<g id="node13" class="node"><title>Node13</title>
<g id="a_node13"><a xlink:href="Quality_8h.html" target="_top" xlink:title="QualityControl/Quality.h">
<polygon fill="none" stroke="black" points="197,-56.5 197,-75.5 318,-75.5 318,-56.5 197,-56.5"/>
<text text-anchor="middle" x="257.5" y="-63.5" font-family="Helvetica,sans-Serif" font-size="10.00">QualityControl/Quality.h</text>
</a>
</g>
</g>
<!-- Node4&#45;&gt;Node13 -->
<g id="edge17" class="edge"><title>Node4&#45;&gt;Node13</title>
<path fill="none" stroke="midnightblue" d="M355.497,-173.983C336.347,-165.663 308.856,-151.417 290.5,-132 277.752,-118.515 268.781,-99.1545 263.443,-85.0722"/>
<polygon fill="midnightblue" stroke="midnightblue" points="266.698,-83.7794 260.066,-75.517 260.098,-86.1118 266.698,-83.7794"/>
</g>
<!-- Node6 -->
<g id="node6" class="node"><title>Node6</title>
<polygon fill="none" stroke="#bfbfbf" points="336,-56.5 336,-75.5 419,-75.5 419,-56.5 336,-56.5"/>
<text text-anchor="middle" x="377.5" y="-63.5" font-family="Helvetica,sans-Serif" font-size="10.00">unordered_map</text>
</g>
<!-- Node5&#45;&gt;Node6 -->
<g id="edge5" class="edge"><title>Node5&#45;&gt;Node6</title>
<path fill="none" stroke="midnightblue" d="M377.5,-112.083C377.5,-105.006 377.5,-94.8611 377.5,-85.9865"/>
<polygon fill="midnightblue" stroke="midnightblue" points="381,-85.751 377.5,-75.7511 374,-85.7511 381,-85.751"/>
</g>
<!-- Node5&#45;&gt;Node7 -->
<g id="edge6" class="edge"><title>Node5&#45;&gt;Node7</title>
<path fill="none" stroke="midnightblue" d="M398.891,-112.444C421.207,-103.517 456.403,-89.4387 481.708,-79.3168"/>
<polygon fill="midnightblue" stroke="midnightblue" points="483.224,-82.4801 491.209,-75.5164 480.624,-75.9807 483.224,-82.4801"/>
</g>
<!-- Node5&#45;&gt;Node13 -->
<g id="edge12" class="edge"><title>Node5&#45;&gt;Node13</title>
<path fill="none" stroke="midnightblue" d="M358.486,-112.444C338.912,-103.636 308.192,-89.8116 285.771,-79.722"/>
<polygon fill="midnightblue" stroke="midnightblue" points="286.981,-76.4284 276.425,-75.5164 284.108,-82.8119 286.981,-76.4284"/>
</g>
<!-- Node8 -->
<g id="node8" class="node"><title>Node8</title>
<polygon fill="none" stroke="#bfbfbf" points="252,-0.5 252,-19.5 293,-19.5 293,-0.5 252,-0.5"/>
<text text-anchor="middle" x="272.5" y="-7.5" font-family="Helvetica,sans-Serif" font-size="10.00">string</text>
</g>
<!-- Node7&#45;&gt;Node8 -->
<g id="edge7" class="edge"><title>Node7&#45;&gt;Node8</title>
<path fill="none" stroke="midnightblue" d="M473.363,-56.4438C432.644,-47.5035 367.052,-32.9953 310.5,-20 308.158,-19.4619 305.737,-18.9004 303.303,-18.3321"/>
<polygon fill="midnightblue" stroke="midnightblue" points="303.93,-14.8843 293.394,-16.0017 302.327,-21.6983 303.93,-14.8843"/>
</g>
<!-- Node9 -->
<g id="node9" class="node"><title>Node9</title>
<polygon fill="none" stroke="#bfbfbf" points="319,-0.5 319,-19.5 354,-19.5 354,-0.5 319,-0.5"/>
<text text-anchor="middle" x="336.5" y="-7.5" font-family="Helvetica,sans-Serif" font-size="10.00">map</text>
</g>
<!-- Node7&#45;&gt;Node9 -->
<g id="edge8" class="edge"><title>Node7&#45;&gt;Node9</title>
<path fill="none" stroke="midnightblue" d="M484.612,-56.4435C451.551,-46.2999 396.807,-29.5034 363.943,-19.4199"/>
<polygon fill="midnightblue" stroke="midnightblue" points="364.683,-15.9861 354.096,-16.3989 362.63,-22.6782 364.683,-15.9861"/>
</g>
<!-- Node10 -->
<g id="node10" class="node"><title>Node10</title>
<polygon fill="none" stroke="#bfbfbf" points="376.5,-0.5 376.5,-19.5 432.5,-19.5 432.5,-0.5 376.5,-0.5"/>
<text text-anchor="middle" x="404.5" y="-7.5" font-family="Helvetica,sans-Serif" font-size="10.00">Rtypes.h</text>
</g>
<!-- Node7&#45;&gt;Node10 -->
<g id="edge9" class="edge"><title>Node7&#45;&gt;Node10</title>
<path fill="none" stroke="midnightblue" d="M495.148,-56.324C477.828,-47.6641 450.985,-34.2424 430.998,-24.249"/>
<polygon fill="midnightblue" stroke="midnightblue" points="432.319,-20.9962 421.809,-19.6545 429.188,-27.2572 432.319,-20.9962"/>
</g>
<!-- Node11 -->
<g id="node11" class="node"><title>Node11</title>
<polygon fill="none" stroke="#bfbfbf" points="587,-0.5 587,-19.5 646,-19.5 646,-0.5 587,-0.5"/>
<text text-anchor="middle" x="616.5" y="-7.5" font-family="Helvetica,sans-Serif" font-size="10.00">TObject.h</text>
</g>
<!-- Node7&#45;&gt;Node11 -->
<g id="edge10" class="edge"><title>Node7&#45;&gt;Node11</title>
<path fill="none" stroke="midnightblue" d="M529.209,-56.324C545.812,-47.7034 571.502,-34.3643 590.72,-24.3855"/>
<polygon fill="midnightblue" stroke="midnightblue" points="592.57,-27.3689 599.832,-19.6545 589.344,-21.1565 592.57,-27.3689"/>
</g>
<!-- Node12 -->
<g id="node12" class="node"><title>Node12</title>
<polygon fill="none" stroke="#bfbfbf" points="452.5,-0.5 452.5,-19.5 568.5,-19.5 568.5,-0.5 452.5,-0.5"/>
<text text-anchor="middle" x="510.5" y="-7.5" font-family="Helvetica,sans-Serif" font-size="10.00">Common/Exceptions.h</text>
</g>
<!-- Node7&#45;&gt;Node12 -->
<g id="edge11" class="edge"><title>Node7&#45;&gt;Node12</title>
<path fill="none" stroke="midnightblue" d="M512.17,-56.083C511.908,-49.0059 511.532,-38.8611 511.203,-29.9865"/>
<polygon fill="midnightblue" stroke="midnightblue" points="514.692,-29.6147 510.824,-19.7511 507.697,-29.8738 514.692,-29.6147"/>
</g>
<!-- Node13&#45;&gt;Node8 -->
<g id="edge14" class="edge"><title>Node13&#45;&gt;Node8</title>
<path fill="none" stroke="midnightblue" d="M259.977,-56.083C261.986,-48.8486 264.886,-38.4087 267.39,-29.3968"/>
<polygon fill="midnightblue" stroke="midnightblue" points="270.765,-30.323 270.069,-19.7511 264.02,-28.4495 270.765,-30.323"/>
</g>
<!-- Node13&#45;&gt;Node9 -->
<g id="edge15" class="edge"><title>Node13&#45;&gt;Node9</title>
<path fill="none" stroke="midnightblue" d="M270.193,-56.324C282.401,-47.979 301.078,-35.2122 315.503,-25.3524"/>
<polygon fill="midnightblue" stroke="midnightblue" points="317.558,-28.1871 323.839,-19.6545 313.608,-22.4082 317.558,-28.1871"/>
</g>
<!-- Node13&#45;&gt;Node10 -->
<g id="edge13" class="edge"><title>Node13&#45;&gt;Node10</title>
<path fill="none" stroke="midnightblue" d="M280.793,-56.4435C305.307,-47.4381 344.096,-33.1891 371.7,-23.049"/>
<polygon fill="midnightblue" stroke="midnightblue" points="373.137,-26.25 381.316,-19.5164 370.723,-19.6793 373.137,-26.25"/>
</g>
</g>
</svg>
        <g id="navigator" transform="translate(0 0)" fill="#404254">
                <rect fill="#f2f5e9" fill-opacity="0.5" stroke="#606060" stroke-width=".5" x="0" y="0" width="60" height="60"/>
                <use id="zoomplus" xlink:href="#zoomPlus" x="17" y="9" onmousedown="handleZoom(evt,'in')"/>
                <use id="zoomminus" xlink:href="#zoomMin" x="42" y="9" onmousedown="handleZoom(evt,'out')"/>
                <use id="reset" xlink:href="#resetDef" x="30" y="36" onmousedown="handleReset()"/>
                <g id="arrowUp" xlink:href="#dirArrow" transform="translate(30 24)" onmousedown="handlePan(0,-1)">
                  <use xlink:href="#rim" fill="#404040">
                        <set attributeName="fill" to="#808080" begin="arrowUp.mouseover" end="arrowUp.mouseout"/>
                  </use>
                  <path fill="none" stroke="white" stroke-width="1.5" d="M0,-3.0v7 M-2.5,-0.5L0,-3.0L2.5,-0.5"/>
                </g>
                <g id="arrowRight" xlink:href="#dirArrow" transform="rotate(90) translate(36 -43)" onmousedown="handlePan(1,0)">
                  <use xlink:href="#rim" fill="#404040">
                        <set attributeName="fill" to="#808080" begin="arrowRight.mouseover" end="arrowRight.mouseout"/>
                  </use>
                  <path fill="none" stroke="white" stroke-width="1.5" d="M0,-3.0v7 M-2.5,-0.5L0,-3.0L2.5,-0.5"/>
                </g>
                <g id="arrowDown" xlink:href="#dirArrow" transform="rotate(180) translate(-30 -48)" onmousedown="handlePan(0,1)">
                  <use xlink:href="#rim" fill="#404040">
                        <set attributeName="fill" to="#808080" begin="arrowDown.mouseover" end="arrowDown.mouseout"/>
                  </use>
                  <path fill="none" stroke="white" stroke-width="1.5" d="M0,-3.0v7 M-2.5,-0.5L0,-3.0L2.5,-0.5"/>
                </g>
                <g id="arrowLeft" xlink:href="#dirArrow" transform="rotate(270) translate(-36 17)" onmousedown="handlePan(-1,0)">
                  <use xlink:href="#rim" fill="#404040">
                        <set attributeName="fill" to="#808080" begin="arrowLeft.mouseover" end="arrowLeft.mouseout"/>
                  </use>
                  <path fill="none" stroke="white" stroke-width="1.5" d="M0,-3.0v7 M-2.5,-0.5L0,-3.0L2.5,-0.5"/>
                </g>
        </g>
        <svg viewBox="0 0 15 15" width="100%" height="30px" preserveAspectRatio="xMaxYMin meet">
         <g id="arrow_out" transform="scale(0.3 0.3)">
          <a xlink:href="PedestalsCheck_8cxx__incl_org.svg" target="_base">
           <rect id="button" ry="5" rx="5" y="6" x="6" height="38" width="38"
                fill="#f2f5e9" fill-opacity="0.5" stroke="#606060" stroke-width="1.0"/>
           <path id="arrow"
             d="M 11.500037,31.436501 C 11.940474,20.09759 22.043105,11.32322 32.158766,21.979434 L 37.068811,17.246167 C 37.068811,17.246167 37.088388,32 37.088388,32 L 22.160133,31.978069 C 22.160133,31.978069 26.997745,27.140456 26.997745,27.140456 C 18.528582,18.264221 13.291696,25.230495 11.500037,31.436501 z"
             style="fill:#404040;"/>
          </a>
         </g>
        </svg>
</svg>
