<?xml version="1.0" encoding="UTF-8" standalone="no"?>
<!DOCTYPE svg PUBLIC "-//W3C//DTD SVG 1.1//EN"
 "http://www.w3.org/Graphics/SVG/1.1/DTD/svg11.dtd">
<!-- Generated by graphviz version 2.38.0 (20140413.2041)
 -->
<!-- Title: Modules/MUON/MCH/src/PhysicsTaskPreclusters.cxx Pages: 1 -->
<!--zoomable 341 -->
<svg id="main" version="1.1" xmlns="http://www.w3.org/2000/svg" xmlns:xlink="http://www.w3.org/1999/xlink" xml:space="preserve" onload="init(evt)">
<style type="text/css"><![CDATA[
.edge:hover path { stroke: red; }
.edge:hover polygon { stroke: red; fill: red; }
]]></style>
<script type="text/javascript"><![CDATA[
var edges = document.getElementsByTagName('g');
if (edges && edges.length) {
  for (var i=0;i<edges.length;i++) {
    if (edges[i].id.substr(0,4)=='edge') {
      edges[i].setAttribute('class','edge');
    }
  }
}
]]></script>
        <defs>
                <circle id="rim" cx="0" cy="0" r="7"/>
                <circle id="rim2" cx="0" cy="0" r="3.5"/>
                <g id="zoomPlus">
                        <use xlink:href="#rim" fill="#404040">
                                <set attributeName="fill" to="#808080" begin="zoomplus.mouseover" end="zoomplus.mouseout"/>
                        </use>
                        <path d="M-4,0h8M0,-4v8" fill="none" stroke="white" stroke-width="1.5" pointer-events="none"/>
                </g>
                <g id="zoomMin">
                        <use xlink:href="#rim" fill="#404040">
                                <set attributeName="fill" to="#808080" begin="zoomminus.mouseover" end="zoomminus.mouseout"/>
                        </use>
                        <path d="M-4,0h8" fill="none" stroke="white" stroke-width="1.5" pointer-events="none"/>
                </g>
                <g id="dirArrow">
                        <path fill="none" stroke="white" stroke-width="1.5" d="M0,-3.0v7 M-2.5,-0.5L0,-3.0L2.5,-0.5"/>
                </g>
               <g id="resetDef">
                       <use xlink:href="#rim2" fill="#404040">
                               <set attributeName="fill" to="#808080" begin="reset.mouseover" end="reset.mouseout"/>
                       </use>
               </g>
        </defs>

<script type="text/javascript">
var viewWidth = 1875;
var viewHeight = 341;
var sectionId = 'dynsection-0';
</script>
<script xlink:href="svgpan.js"/>
<svg id="graph" class="graph">
<g id="viewport">
<title>Modules/MUON/MCH/src/PhysicsTaskPreclusters.cxx</title>
<!-- Node1 -->
<g id="node1" class="node"><title>Node1</title>
<polygon fill="#bfbfbf" stroke="black" points="544,-302.5 544,-332.5 689,-332.5 689,-302.5 544,-302.5"/>
<text text-anchor="start" x="552" y="-320.5" font-family="Helvetica,sans-Serif" font-size="10.00">Modules/MUON/MCH/src</text>
<text text-anchor="middle" x="616.5" y="-309.5" font-family="Helvetica,sans-Serif" font-size="10.00">/PhysicsTaskPreclusters.cxx</text>
</g>
<!-- Node2 -->
<g id="node2" class="node"><title>Node2</title>
<polygon fill="none" stroke="#bfbfbf" points="0,-241 0,-260 65,-260 65,-241 0,-241"/>
<text text-anchor="middle" x="32.5" y="-248" font-family="Helvetica,sans-Serif" font-size="10.00">TCanvas.h</text>
</g>
<!-- Node1&#45;&gt;Node2 -->
<g id="edge1" class="edge"><title>Node1&#45;&gt;Node2</title>
<path fill="none" stroke="midnightblue" d="M543.772,-315.233C438.957,-312.168 239.853,-301.705 74.5,-266 71.0009,-265.244 67.3902,-264.286 63.8234,-263.224"/>
<polygon fill="midnightblue" stroke="midnightblue" points="64.6089,-259.799 54.0167,-260.035 62.4443,-266.456 64.6089,-259.799"/>
</g>
<!-- Node3 -->
<g id="node3" class="node"><title>Node3</title>
<polygon fill="none" stroke="#bfbfbf" points="83.5,-241 83.5,-260 127.5,-260 127.5,-241 83.5,-241"/>
<text text-anchor="middle" x="105.5" y="-248" font-family="Helvetica,sans-Serif" font-size="10.00">TH1.h</text>
</g>
<!-- Node1&#45;&gt;Node3 -->
<g id="edge2" class="edge"><title>Node1&#45;&gt;Node3</title>
<path fill="none" stroke="midnightblue" d="M543.953,-316.304C448.731,-314.375 277.174,-305.109 136.5,-266 134.568,-265.463 132.607,-264.815 130.657,-264.096"/>
<polygon fill="midnightblue" stroke="midnightblue" points="131.773,-260.767 121.201,-260.077 129.035,-267.21 131.773,-260.767"/>
</g>
<!-- Node4 -->
<g id="node4" class="node"><title>Node4</title>
<polygon fill="none" stroke="#bfbfbf" points="145.5,-241 145.5,-260 187.5,-260 187.5,-241 145.5,-241"/>
<text text-anchor="middle" x="166.5" y="-248" font-family="Helvetica,sans-Serif" font-size="10.00">TF1.h</text>
</g>
<!-- Node1&#45;&gt;Node4 -->
<g id="edge3" class="edge"><title>Node1&#45;&gt;Node4</title>
<path fill="none" stroke="midnightblue" d="M543.782,-313.622C460.038,-308.942 318.906,-296.846 201.5,-266 199.051,-265.357 196.547,-264.579 194.06,-263.721"/>
<polygon fill="midnightblue" stroke="midnightblue" points="195.294,-260.446 184.704,-260.138 192.79,-266.983 195.294,-260.446"/>
</g>
<!-- Node5 -->
<g id="node5" class="node"><title>Node5</title>
<polygon fill="none" stroke="#bfbfbf" points="163.5,-123.5 163.5,-142.5 207.5,-142.5 207.5,-123.5 163.5,-123.5"/>
<text text-anchor="middle" x="185.5" y="-130.5" font-family="Helvetica,sans-Serif" font-size="10.00">TH2.h</text>
</g>
<!-- Node1&#45;&gt;Node5 -->
<g id="edge4" class="edge"><title>Node1&#45;&gt;Node5</title>
<path fill="none" stroke="midnightblue" d="M543.905,-307.426C433.137,-291.893 230.333,-256.231 188.5,-199 178.821,-185.759 179.156,-166.63 181.259,-152.55"/>
<polygon fill="midnightblue" stroke="midnightblue" points="184.731,-153.029 183.168,-142.55 177.855,-151.717 184.731,-153.029"/>
</g>
<!-- Node6 -->
<g id="node6" class="node"><title>Node6</title>
<polygon fill="none" stroke="#bfbfbf" points="593,-241 593,-260 640,-260 640,-241 593,-241"/>
<text text-anchor="middle" x="616.5" y="-248" font-family="Helvetica,sans-Serif" font-size="10.00">TFile.h</text>
</g>
<!-- Node1&#45;&gt;Node6 -->
<g id="edge5" class="edge"><title>Node1&#45;&gt;Node6</title>
<path fill="none" stroke="midnightblue" d="M616.5,-302.396C616.5,-293.064 616.5,-280.714 616.5,-270.517"/>
<polygon fill="midnightblue" stroke="midnightblue" points="620,-270.195 616.5,-260.195 613,-270.195 620,-270.195"/>
</g>
<!-- Node7 -->
<g id="node7" class="node"><title>Node7</title>
<polygon fill="none" stroke="#bfbfbf" points="658.5,-241 658.5,-260 714.5,-260 714.5,-241 658.5,-241"/>
<text text-anchor="middle" x="686.5" y="-248" font-family="Helvetica,sans-Serif" font-size="10.00">algorithm</text>
</g>
<!-- Node1&#45;&gt;Node7 -->
<g id="edge6" class="edge"><title>Node1&#45;&gt;Node7</title>
<path fill="none" stroke="midnightblue" d="M631.689,-302.396C642.82,-292.06 657.936,-278.024 669.475,-267.309"/>
<polygon fill="midnightblue" stroke="midnightblue" points="672.19,-269.564 677.137,-260.195 667.427,-264.434 672.19,-269.564"/>
</g>
<!-- Node8 -->
<g id="node8" class="node"><title>Node8</title>
<g id="a_node8"><a xlink:href="PhysicsTaskPreclusters_8h.html" target="_top" xlink:title="MCH/PhysicsTaskPreclusters.h">
<polygon fill="none" stroke="black" points="378.5,-241 378.5,-260 536.5,-260 536.5,-241 378.5,-241"/>
<text text-anchor="middle" x="457.5" y="-248" font-family="Helvetica,sans-Serif" font-size="10.00">MCH/PhysicsTaskPreclusters.h</text>
</a>
</g>
</g>
<!-- Node1&#45;&gt;Node8 -->
<g id="edge7" class="edge"><title>Node1&#45;&gt;Node8</title>
<path fill="none" stroke="midnightblue" d="M581.999,-302.396C553.854,-290.89 514.489,-274.797 487.605,-263.807"/>
<polygon fill="midnightblue" stroke="midnightblue" points="488.89,-260.551 478.309,-260.007 486.241,-267.031 488.89,-260.551"/>
</g>
<!-- Node28 -->
<g id="node28" class="node"><title>Node28</title>
<g id="a_node28"><a xlink:href="QcInfoLogger_8h.html" target="_top" xlink:title="QualityControl/QcInfoLogger.h">
<polygon fill="none" stroke="black" points="603,-123.5 603,-142.5 752,-142.5 752,-123.5 603,-123.5"/>
<text text-anchor="middle" x="677.5" y="-130.5" font-family="Helvetica,sans-Serif" font-size="10.00">QualityControl/QcInfoLogger.h</text>
</a>
</g>
</g>
<!-- Node1&#45;&gt;Node28 -->
<g id="edge46" class="edge"><title>Node1&#45;&gt;Node28</title>
<path fill="none" stroke="midnightblue" d="M603.204,-302.206C589.186,-285.321 570.876,-256.779 584.5,-235 603.897,-203.993 634.905,-226.945 658.5,-199 669.512,-185.958 674.145,-166.802 676.092,-152.662"/>
<polygon fill="midnightblue" stroke="midnightblue" points="679.584,-152.921 677.148,-142.61 672.622,-152.19 679.584,-152.921"/>
</g>
<!-- Node34 -->
<g id="node34" class="node"><title>Node34</title>
<polygon fill="none" stroke="#bfbfbf" points="732,-235.5 732,-265.5 847,-265.5 847,-235.5 732,-235.5"/>
<text text-anchor="start" x="740" y="-253.5" font-family="Helvetica,sans-Serif" font-size="10.00">MCHMappingInterface</text>
<text text-anchor="middle" x="789.5" y="-242.5" font-family="Helvetica,sans-Serif" font-size="10.00">/Segmentation.h</text>
</g>
<!-- Node1&#45;&gt;Node34 -->
<g id="edge42" class="edge"><title>Node1&#45;&gt;Node34</title>
<path fill="none" stroke="midnightblue" d="M654.038,-302.396C679.996,-292.643 714.724,-279.595 742.519,-269.152"/>
<polygon fill="midnightblue" stroke="midnightblue" points="743.905,-272.37 752.035,-265.577 741.443,-265.817 743.905,-272.37"/>
</g>
<!-- Node35 -->
<g id="node35" class="node"><title>Node35</title>
<polygon fill="none" stroke="#bfbfbf" points="865,-235.5 865,-265.5 990,-265.5 990,-235.5 865,-235.5"/>
<text text-anchor="start" x="873" y="-253.5" font-family="Helvetica,sans-Serif" font-size="10.00">MCHMappingInterface</text>
<text text-anchor="middle" x="927.5" y="-242.5" font-family="Helvetica,sans-Serif" font-size="10.00">/CathodeSegmentation.h</text>
</g>
<!-- Node1&#45;&gt;Node35 -->
<g id="edge43" class="edge"><title>Node1&#45;&gt;Node35</title>
<path fill="none" stroke="midnightblue" d="M683.599,-302.476C733.988,-291.945 802.922,-277.537 854.652,-266.725"/>
<polygon fill="midnightblue" stroke="midnightblue" points="855.686,-270.085 864.758,-264.613 854.254,-263.233 855.686,-270.085"/>
</g>
<!-- Node36 -->
<g id="node36" class="node"><title>Node36</title>
<polygon fill="none" stroke="#bfbfbf" points="1008.5,-235.5 1008.5,-265.5 1172.5,-265.5 1172.5,-235.5 1008.5,-235.5"/>
<text text-anchor="start" x="1016.5" y="-253.5" font-family="Helvetica,sans-Serif" font-size="10.00">MCHMappingSegContour</text>
<text text-anchor="middle" x="1090.5" y="-242.5" font-family="Helvetica,sans-Serif" font-size="10.00">/CathodeSegmentationContours.h</text>
</g>
<!-- Node1&#45;&gt;Node36 -->
<g id="edge44" class="edge"><title>Node1&#45;&gt;Node36</title>
<path fill="none" stroke="midnightblue" d="M689.292,-307.494C764.214,-298.09 884.595,-282.607 998.255,-266.16"/>
<polygon fill="midnightblue" stroke="midnightblue" points="998.782,-269.62 1008.18,-264.719 997.776,-262.693 998.782,-269.62"/>
</g>
<!-- Node37 -->
<g id="node37" class="node"><title>Node37</title>
<polygon fill="none" stroke="#bfbfbf" points="1191,-241 1191,-260 1358,-260 1358,-241 1191,-241"/>
<text text-anchor="middle" x="1274.5" y="-248" font-family="Helvetica,sans-Serif" font-size="10.00">MCHRawDecoder/PageDecoder.h</text>
</g>
<!-- Node1&#45;&gt;Node37 -->
<g id="edge45" class="edge"><title>Node1&#45;&gt;Node37</title>
<path fill="none" stroke="midnightblue" d="M689.351,-311.522C797.124,-303.811 1005.3,-287.586 1181.5,-266 1191.95,-264.72 1203.03,-263.166 1213.76,-261.557"/>
<polygon fill="midnightblue" stroke="midnightblue" points="1214.55,-264.977 1223.9,-260.005 1213.49,-258.057 1214.55,-264.977"/>
</g>
<!-- Node38 -->
<g id="node38" class="node"><title>Node38</title>
<polygon fill="none" stroke="#bfbfbf" points="1376.5,-241 1376.5,-260 1506.5,-260 1506.5,-241 1376.5,-241"/>
<text text-anchor="middle" x="1441.5" y="-248" font-family="Helvetica,sans-Serif" font-size="10.00">Framework/InputRecord.h</text>
</g>
<!-- Node1&#45;&gt;Node38 -->
<g id="edge47" class="edge"><title>Node1&#45;&gt;Node38</title>
<path fill="none" stroke="midnightblue" d="M689.034,-314.667C823.393,-310.598 1119.86,-298.456 1367.5,-266 1375.71,-264.924 1384.39,-263.493 1392.79,-261.95"/>
<polygon fill="midnightblue" stroke="midnightblue" points="1393.7,-265.341 1402.86,-260.028 1392.38,-258.465 1393.7,-265.341"/>
</g>
<!-- Node8&#45;&gt;Node5 -->
<g id="edge9" class="edge"><title>Node8&#45;&gt;Node5</title>
<path fill="none" stroke="midnightblue" d="M378.269,-242.619C313.807,-235.443 229.557,-221.958 204.5,-199 191.652,-187.228 187.312,-167.298 185.935,-152.603"/>
<polygon fill="midnightblue" stroke="midnightblue" points="189.429,-152.394 185.368,-142.608 182.44,-152.791 189.429,-152.394"/>
</g>
<!-- Node9 -->
<g id="node9" class="node"><title>Node9</title>
<polygon fill="none" stroke="#bfbfbf" points="605.5,-179.5 605.5,-198.5 649.5,-198.5 649.5,-179.5 605.5,-179.5"/>
<text text-anchor="middle" x="627.5" y="-186.5" font-family="Helvetica,sans-Serif" font-size="10.00">vector</text>
</g>
<!-- Node8&#45;&gt;Node9 -->
<g id="edge8" class="edge"><title>Node8&#45;&gt;Node9</title>
<path fill="none" stroke="midnightblue" d="M481.857,-240.975C511.81,-230.492 562.726,-212.671 595.728,-201.12"/>
<polygon fill="midnightblue" stroke="midnightblue" points="597.069,-204.359 605.352,-197.752 594.757,-197.752 597.069,-204.359"/>
</g>
<!-- Node10 -->
<g id="node10" class="node"><title>Node10</title>
<g id="a_node10"><a xlink:href="TaskInterface_8h.html" target="_top" xlink:title="QualityControl/TaskInterface.h">
<polygon fill="none" stroke="black" points="1102.5,-179.5 1102.5,-198.5 1252.5,-198.5 1252.5,-179.5 1102.5,-179.5"/>
<text text-anchor="middle" x="1177.5" y="-186.5" font-family="Helvetica,sans-Serif" font-size="10.00">QualityControl/TaskInterface.h</text>
</a>
</g>
</g>
<!-- Node8&#45;&gt;Node10 -->
<g id="edge10" class="edge"><title>Node8&#45;&gt;Node10</title>
<path fill="none" stroke="midnightblue" d="M527.985,-240.971C546.367,-238.878 566.163,-236.742 584.5,-235 764.84,-217.869 976.532,-203.082 1091.89,-195.473"/>
<polygon fill="midnightblue" stroke="midnightblue" points="1092.32,-198.953 1102.07,-194.804 1091.86,-191.968 1092.32,-198.953"/>
</g>
<!-- Node31 -->
<g id="node31" class="node"><title>Node31</title>
<g id="a_node31"><a xlink:href="GlobalHistogram_8h_source.html" target="_top" xlink:title="MCH/GlobalHistogram.h">
<polygon fill="none" stroke="black" points="463.5,-179.5 463.5,-198.5 587.5,-198.5 587.5,-179.5 463.5,-179.5"/>
<text text-anchor="middle" x="525.5" y="-186.5" font-family="Helvetica,sans-Serif" font-size="10.00">MCH/GlobalHistogram.h</text>
</a>
</g>
</g>
<!-- Node8&#45;&gt;Node31 -->
<g id="edge37" class="edge"><title>Node8&#45;&gt;Node31</title>
<path fill="none" stroke="midnightblue" d="M467.243,-240.975C477.847,-231.697 495.019,-216.671 507.979,-205.331"/>
<polygon fill="midnightblue" stroke="midnightblue" points="510.554,-207.728 515.775,-198.509 505.945,-202.46 510.554,-207.728"/>
</g>
<!-- Node32 -->
<g id="node32" class="node"><title>Node32</title>
<polygon fill="none" stroke="#bfbfbf" points="213.5,-179.5 213.5,-198.5 307.5,-198.5 307.5,-179.5 213.5,-179.5"/>
<text text-anchor="middle" x="260.5" y="-186.5" font-family="Helvetica,sans-Serif" font-size="10.00">MCHBase/Digit.h</text>
</g>
<!-- Node8&#45;&gt;Node32 -->
<g id="edge40" class="edge"><title>Node8&#45;&gt;Node32</title>
<path fill="none" stroke="midnightblue" d="M429.275,-240.975C394.897,-230.592 336.69,-213.012 298.423,-201.454"/>
<polygon fill="midnightblue" stroke="midnightblue" points="299.258,-198.05 288.673,-198.509 297.234,-204.751 299.258,-198.05"/>
</g>
<!-- Node33 -->
<g id="node33" class="node"><title>Node33</title>
<polygon fill="none" stroke="#bfbfbf" points="325.5,-179.5 325.5,-198.5 445.5,-198.5 445.5,-179.5 325.5,-179.5"/>
<text text-anchor="middle" x="385.5" y="-186.5" font-family="Helvetica,sans-Serif" font-size="10.00">MCHBase/PreCluster.h</text>
</g>
<!-- Node8&#45;&gt;Node33 -->
<g id="edge41" class="edge"><title>Node8&#45;&gt;Node33</title>
<path fill="none" stroke="midnightblue" d="M447.184,-240.975C435.849,-231.608 417.427,-216.384 403.661,-205.008"/>
<polygon fill="midnightblue" stroke="midnightblue" points="405.735,-202.181 395.797,-198.509 401.276,-207.577 405.735,-202.181"/>
</g>
<!-- Node11 -->
<g id="node11" class="node"><title>Node11</title>
<polygon fill="none" stroke="#bfbfbf" points="762,-0.5 762,-19.5 797,-19.5 797,-0.5 762,-0.5"/>
<text text-anchor="middle" x="779.5" y="-7.5" font-family="Helvetica,sans-Serif" font-size="10.00">map</text>
</g>
<!-- Node10&#45;&gt;Node11 -->
<g id="edge11" class="edge"><title>Node10&#45;&gt;Node11</title>
<path fill="none" stroke="midnightblue" d="M1102.12,-183.874C998.072,-177.456 820.802,-163.634 799.5,-143 768.929,-113.388 771.924,-58.343 776.061,-29.5855"/>
<polygon fill="midnightblue" stroke="midnightblue" points="779.527,-30.0789 777.693,-19.644 772.62,-28.9449 779.527,-30.0789"/>
</g>
<!-- Node12 -->
<g id="node12" class="node"><title>Node12</title>
<polygon fill="none" stroke="#bfbfbf" points="1814.5,-62 1814.5,-81 1866.5,-81 1866.5,-62 1814.5,-62"/>
<text text-anchor="middle" x="1840.5" y="-69" font-family="Helvetica,sans-Serif" font-size="10.00">memory</text>
</g>
<!-- Node10&#45;&gt;Node12 -->
<g id="edge12" class="edge"><title>Node10&#45;&gt;Node12</title>
<path fill="none" stroke="midnightblue" d="M1252.55,-185.878C1344.45,-182.091 1504.42,-171.639 1638.5,-143 1702.02,-129.432 1773.02,-101.504 1811.64,-85.1653"/>
<polygon fill="midnightblue" stroke="midnightblue" points="1813.37,-88.2317 1821.19,-81.0813 1810.61,-81.7957 1813.37,-88.2317"/>
</g>
<!-- Node13 -->
<g id="node13" class="node"><title>Node13</title>
<polygon fill="none" stroke="#bfbfbf" points="1554,-0.5 1554,-19.5 1595,-19.5 1595,-0.5 1554,-0.5"/>
<text text-anchor="middle" x="1574.5" y="-7.5" font-family="Helvetica,sans-Serif" font-size="10.00">string</text>
</g>
<!-- Node10&#45;&gt;Node13 -->
<g id="edge13" class="edge"><title>Node10&#45;&gt;Node13</title>
<path fill="none" stroke="midnightblue" d="M1252.91,-185.371C1368.51,-180.554 1578.67,-168.385 1601.5,-143 1630.47,-110.797 1603.4,-56.1201 1586.21,-28.3282"/>
<polygon fill="midnightblue" stroke="midnightblue" points="1589.01,-26.2088 1580.65,-19.7001 1583.12,-30.0015 1589.01,-26.2088"/>
</g>
<!-- Node14 -->
<g id="node14" class="node"><title>Node14</title>
<polygon fill="none" stroke="#bfbfbf" points="1442,-0.5 1442,-19.5 1525,-19.5 1525,-0.5 1442,-0.5"/>
<text text-anchor="middle" x="1483.5" y="-7.5" font-family="Helvetica,sans-Serif" font-size="10.00">unordered_map</text>
</g>
<!-- Node10&#45;&gt;Node14 -->
<g id="edge14" class="edge"><title>Node10&#45;&gt;Node14</title>
<path fill="none" stroke="midnightblue" d="M1245.21,-179.477C1294.55,-172.024 1356.03,-159.762 1375.5,-143 1406.96,-115.912 1382.8,-87.7923 1409.5,-56 1421,-42.3036 1437.79,-31.6201 1452.47,-24.1065"/>
<polygon fill="midnightblue" stroke="midnightblue" points="1454.26,-27.1307 1461.74,-19.6269 1451.21,-20.8286 1454.26,-27.1307"/>
</g>
<!-- Node15 -->
<g id="node15" class="node"><title>Node15</title>
<polygon fill="none" stroke="#bfbfbf" points="808,-123.5 808,-142.5 933,-142.5 933,-123.5 808,-123.5"/>
<text text-anchor="middle" x="870.5" y="-130.5" font-family="Helvetica,sans-Serif" font-size="10.00">Framework/InitContext.h</text>
</g>
<!-- Node10&#45;&gt;Node15 -->
<g id="edge15" class="edge"><title>Node10&#45;&gt;Node15</title>
<path fill="none" stroke="midnightblue" d="M1128.85,-179.444C1074.63,-169.905 986.952,-154.483 929.018,-144.293"/>
<polygon fill="midnightblue" stroke="midnightblue" points="929.373,-140.802 918.917,-142.516 928.16,-147.696 929.373,-140.802"/>
</g>
<!-- Node16 -->
<g id="node16" class="node"><title>Node16</title>
<polygon fill="none" stroke="#bfbfbf" points="951.5,-123.5 951.5,-142.5 1111.5,-142.5 1111.5,-123.5 951.5,-123.5"/>
<text text-anchor="middle" x="1031.5" y="-130.5" font-family="Helvetica,sans-Serif" font-size="10.00">Framework/ProcessingContext.h</text>
</g>
<!-- Node10&#45;&gt;Node16 -->
<g id="edge16" class="edge"><title>Node10&#45;&gt;Node16</title>
<path fill="none" stroke="midnightblue" d="M1154.37,-179.444C1130.02,-170.438 1091.49,-156.189 1064.08,-146.049"/>
<polygon fill="midnightblue" stroke="midnightblue" points="1065.12,-142.703 1054.53,-142.516 1062.69,-149.268 1065.12,-142.703"/>
</g>
<!-- Node17 -->
<g id="node17" class="node"><title>Node17</title>
<polygon fill="none" stroke="#bfbfbf" points="1130,-123.5 1130,-142.5 1225,-142.5 1225,-123.5 1130,-123.5"/>
<text text-anchor="middle" x="1177.5" y="-130.5" font-family="Helvetica,sans-Serif" font-size="10.00">CCDB/CcdbApi.h</text>
</g>
<!-- Node10&#45;&gt;Node17 -->
<g id="edge17" class="edge"><title>Node10&#45;&gt;Node17</title>
<path fill="none" stroke="midnightblue" d="M1177.5,-179.083C1177.5,-172.006 1177.5,-161.861 1177.5,-152.986"/>
<polygon fill="midnightblue" stroke="midnightblue" points="1181,-152.751 1177.5,-142.751 1174,-152.751 1181,-152.751"/>
</g>
<!-- Node18 -->
<g id="node18" class="node"><title>Node18</title>
<g id="a_node18"><a xlink:href="Activity_8h.html" target="_top" xlink:title="QualityControl/Activity.h">
<polygon fill="none" stroke="black" points="1243,-123.5 1243,-142.5 1366,-142.5 1366,-123.5 1243,-123.5"/>
<text text-anchor="middle" x="1304.5" y="-130.5" font-family="Helvetica,sans-Serif" font-size="10.00">QualityControl/Activity.h</text>
</a>
</g>
</g>
<!-- Node10&#45;&gt;Node18 -->
<g id="edge18" class="edge"><title>Node10&#45;&gt;Node18</title>
<path fill="none" stroke="midnightblue" d="M1197.62,-179.444C1218.52,-170.557 1251.43,-156.563 1275.22,-146.451"/>
<polygon fill="midnightblue" stroke="midnightblue" points="1276.64,-149.65 1284.47,-142.516 1273.9,-143.208 1276.64,-149.65"/>
</g>
<!-- Node19 -->
<g id="node19" class="node"><title>Node19</title>
<g id="a_node19"><a xlink:href="ObjectsManager_8h.html" target="_top" xlink:title="QualityControl/ObjectsManager.h">
<polygon fill="none" stroke="black" points="1431,-123.5 1431,-142.5 1592,-142.5 1592,-123.5 1431,-123.5"/>
<text text-anchor="middle" x="1511.5" y="-130.5" font-family="Helvetica,sans-Serif" font-size="10.00">QualityControl/ObjectsManager.h</text>
</a>
</g>
</g>
<!-- Node10&#45;&gt;Node19 -->
<g id="edge19" class="edge"><title>Node10&#45;&gt;Node19</title>
<path fill="none" stroke="midnightblue" d="M1230.42,-179.444C1289.67,-169.865 1385.6,-154.356 1448.62,-144.167"/>
<polygon fill="midnightblue" stroke="midnightblue" points="1449.51,-147.568 1458.82,-142.516 1448.39,-140.657 1449.51,-147.568"/>
</g>
<!-- Node10&#45;&gt;Node28 -->
<g id="edge34" class="edge"><title>Node10&#45;&gt;Node28</title>
<path fill="none" stroke="midnightblue" d="M1102.37,-179.886C1011.23,-170.043 857.964,-153.49 762.562,-143.187"/>
<polygon fill="midnightblue" stroke="midnightblue" points="762.688,-139.68 752.37,-142.086 761.936,-146.64 762.688,-139.68"/>
</g>
<!-- Node19&#45;&gt;Node12 -->
<g id="edge33" class="edge"><title>Node19&#45;&gt;Node12</title>
<path fill="none" stroke="midnightblue" d="M1592.15,-124.944C1651.85,-118.451 1734.75,-106.756 1805.5,-87 1807.94,-86.3189 1810.44,-85.5147 1812.92,-84.6399"/>
<polygon fill="midnightblue" stroke="midnightblue" points="1814.2,-87.8966 1822.27,-81.0265 1811.68,-81.3674 1814.2,-87.8966"/>
</g>
<!-- Node19&#45;&gt;Node13 -->
<g id="edge32" class="edge"><title>Node19&#45;&gt;Node13</title>
<path fill="none" stroke="midnightblue" d="M1528.33,-123.413C1541.41,-115.761 1558.77,-103.262 1567.5,-87 1576.98,-69.3405 1577.7,-46.0123 1576.71,-29.8821"/>
<polygon fill="midnightblue" stroke="midnightblue" points="1580.16,-29.2373 1575.78,-19.5929 1573.19,-29.8674 1580.16,-29.2373"/>
</g>
<!-- Node20 -->
<g id="node20" class="node"><title>Node20</title>
<g id="a_node20"><a xlink:href="MonitorObject_8h.html" target="_top" xlink:title="QualityControl/MonitorObject.h">
<polygon fill="none" stroke="black" points="1211,-62 1211,-81 1362,-81 1362,-62 1211,-62"/>
<text text-anchor="middle" x="1286.5" y="-69" font-family="Helvetica,sans-Serif" font-size="10.00">QualityControl/MonitorObject.h</text>
</a>
</g>
</g>
<!-- Node19&#45;&gt;Node20 -->
<g id="edge20" class="edge"><title>Node19&#45;&gt;Node20</title>
<path fill="none" stroke="midnightblue" d="M1479.26,-123.475C1439.58,-112.982 1372.1,-95.1367 1328.43,-83.587"/>
<polygon fill="midnightblue" stroke="midnightblue" points="1329.24,-80.182 1318.68,-81.0091 1327.45,-86.9494 1329.24,-80.182"/>
</g>
<!-- Node24 -->
<g id="node24" class="node"><title>Node24</title>
<g id="a_node24"><a xlink:href="MonitorObjectCollection_8h.html" target="_top" xlink:title="QualityControl/MonitorObject\lCollection.h">
<polygon fill="none" stroke="black" points="1653,-56.5 1653,-86.5 1796,-86.5 1796,-56.5 1653,-56.5"/>
<text text-anchor="start" x="1661" y="-74.5" font-family="Helvetica,sans-Serif" font-size="10.00">QualityControl/MonitorObject</text>
<text text-anchor="middle" x="1724.5" y="-63.5" font-family="Helvetica,sans-Serif" font-size="10.00">Collection.h</text>
</a>
</g>
</g>
<!-- Node19&#45;&gt;Node24 -->
<g id="edge26" class="edge"><title>Node19&#45;&gt;Node24</title>
<path fill="none" stroke="midnightblue" d="M1542.02,-123.475C1573.9,-114.569 1624.73,-100.369 1664.66,-89.2151"/>
<polygon fill="midnightblue" stroke="midnightblue" points="1665.61,-92.5844 1674.3,-86.523 1663.73,-85.8425 1665.61,-92.5844"/>
</g>
<!-- Node27 -->
<g id="node27" class="node"><title>Node27</title>
<g id="a_node27"><a xlink:href="TaskConfig_8h.html" target="_top" xlink:title="QualityControl/TaskConfig.h">
<polygon fill="none" stroke="black" points="1418.5,-62 1418.5,-81 1558.5,-81 1558.5,-62 1418.5,-62"/>
<text text-anchor="middle" x="1488.5" y="-69" font-family="Helvetica,sans-Serif" font-size="10.00">QualityControl/TaskConfig.h</text>
</a>
</g>
</g>
<!-- Node19&#45;&gt;Node27 -->
<g id="edge29" class="edge"><title>Node19&#45;&gt;Node27</title>
<path fill="none" stroke="midnightblue" d="M1508.2,-123.475C1504.89,-114.904 1499.68,-101.427 1495.45,-90.483"/>
<polygon fill="midnightblue" stroke="midnightblue" points="1498.66,-89.0745 1491.79,-81.0091 1492.13,-91.5984 1498.66,-89.0745"/>
</g>
<!-- Node20&#45;&gt;Node11 -->
<g id="edge22" class="edge"><title>Node20&#45;&gt;Node11</title>
<path fill="none" stroke="midnightblue" d="M1213.86,-61.9751C1099.81,-48.5911 883.866,-23.248 807.287,-14.2609"/>
<polygon fill="midnightblue" stroke="midnightblue" points="807.368,-10.7465 797.028,-13.057 806.552,-17.6988 807.368,-10.7465"/>
</g>
<!-- Node20&#45;&gt;Node13 -->
<g id="edge21" class="edge"><title>Node20&#45;&gt;Node13</title>
<path fill="none" stroke="midnightblue" d="M1330.01,-61.9195C1379.58,-52.0804 1462.97,-35.3292 1534.5,-20 1537.53,-19.3498 1540.69,-18.6601 1543.85,-17.9631"/>
<polygon fill="midnightblue" stroke="midnightblue" points="1544.76,-21.3465 1553.76,-15.7518 1543.23,-14.5147 1544.76,-21.3465"/>
</g>
<!-- Node21 -->
<g id="node21" class="node"><title>Node21</title>
<polygon fill="none" stroke="#bfbfbf" points="1362.5,-0.5 1362.5,-19.5 1418.5,-19.5 1418.5,-0.5 1362.5,-0.5"/>
<text text-anchor="middle" x="1390.5" y="-7.5" font-family="Helvetica,sans-Serif" font-size="10.00">Rtypes.h</text>
</g>
<!-- Node20&#45;&gt;Node21 -->
<g id="edge23" class="edge"><title>Node20&#45;&gt;Node21</title>
<path fill="none" stroke="midnightblue" d="M1301.4,-61.9751C1318.47,-52.2106 1346.66,-36.0807 1366.76,-24.5808"/>
<polygon fill="midnightblue" stroke="midnightblue" points="1368.69,-27.513 1375.63,-19.5091 1365.21,-21.4371 1368.69,-27.513"/>
</g>
<!-- Node22 -->
<g id="node22" class="node"><title>Node22</title>
<polygon fill="none" stroke="#bfbfbf" points="1151,-0.5 1151,-19.5 1210,-19.5 1210,-0.5 1151,-0.5"/>
<text text-anchor="middle" x="1180.5" y="-7.5" font-family="Helvetica,sans-Serif" font-size="10.00">TObject.h</text>
</g>
<!-- Node20&#45;&gt;Node22 -->
<g id="edge24" class="edge"><title>Node20&#45;&gt;Node22</title>
<path fill="none" stroke="midnightblue" d="M1271.31,-61.9751C1253.84,-52.1664 1224.92,-35.9346 1204.42,-24.425"/>
<polygon fill="midnightblue" stroke="midnightblue" points="1206.09,-21.3519 1195.66,-19.5091 1202.67,-27.456 1206.09,-21.3519"/>
</g>
<!-- Node23 -->
<g id="node23" class="node"><title>Node23</title>
<polygon fill="none" stroke="#bfbfbf" points="1228.5,-0.5 1228.5,-19.5 1344.5,-19.5 1344.5,-0.5 1228.5,-0.5"/>
<text text-anchor="middle" x="1286.5" y="-7.5" font-family="Helvetica,sans-Serif" font-size="10.00">Common/Exceptions.h</text>
</g>
<!-- Node20&#45;&gt;Node23 -->
<g id="edge25" class="edge"><title>Node20&#45;&gt;Node23</title>
<path fill="none" stroke="midnightblue" d="M1286.5,-61.9751C1286.5,-53.5803 1286.5,-40.4806 1286.5,-29.6631"/>
<polygon fill="midnightblue" stroke="midnightblue" points="1290,-29.5091 1286.5,-19.5091 1283,-29.5091 1290,-29.5091"/>
</g>
<!-- Node25 -->
<g id="node25" class="node"><title>Node25</title>
<polygon fill="none" stroke="#bfbfbf" points="1651,-0.5 1651,-19.5 1720,-19.5 1720,-0.5 1651,-0.5"/>
<text text-anchor="middle" x="1685.5" y="-7.5" font-family="Helvetica,sans-Serif" font-size="10.00">TObjArray.h</text>
</g>
<!-- Node24&#45;&gt;Node25 -->
<g id="edge27" class="edge"><title>Node24&#45;&gt;Node25</title>
<path fill="none" stroke="midnightblue" d="M1715.26,-56.3993C1709.71,-47.9315 1702.61,-37.0991 1696.73,-28.1393"/>
<polygon fill="midnightblue" stroke="midnightblue" points="1699.58,-26.1026 1691.17,-19.6578 1693.73,-29.94 1699.58,-26.1026"/>
</g>
<!-- Node26 -->
<g id="node26" class="node"><title>Node26</title>
<polygon fill="none" stroke="#bfbfbf" points="1738.5,-0.5 1738.5,-19.5 1866.5,-19.5 1866.5,-0.5 1738.5,-0.5"/>
<text text-anchor="middle" x="1802.5" y="-7.5" font-family="Helvetica,sans-Serif" font-size="10.00">Mergers/MergeInterface.h</text>
</g>
<!-- Node24&#45;&gt;Node26 -->
<g id="edge28" class="edge"><title>Node24&#45;&gt;Node26</title>
<path fill="none" stroke="midnightblue" d="M1742.98,-56.3993C1755.02,-47.2185 1770.7,-35.2579 1782.94,-25.9182"/>
<polygon fill="midnightblue" stroke="midnightblue" points="1785.32,-28.5056 1791.15,-19.6578 1781.08,-22.9401 1785.32,-28.5056"/>
</g>
<!-- Node27&#45;&gt;Node13 -->
<g id="edge30" class="edge"><title>Node27&#45;&gt;Node13</title>
<path fill="none" stroke="midnightblue" d="M1500.82,-61.9751C1514.62,-52.4315 1537.2,-36.8073 1553.73,-25.3683"/>
<polygon fill="midnightblue" stroke="midnightblue" points="1555.97,-28.077 1562.2,-19.5091 1551.99,-22.3205 1555.97,-28.077"/>
</g>
<!-- Node27&#45;&gt;Node14 -->
<g id="edge31" class="edge"><title>Node27&#45;&gt;Node14</title>
<path fill="none" stroke="midnightblue" d="M1487.78,-61.9751C1487.08,-53.5803 1485.98,-40.4806 1485.07,-29.6631"/>
<polygon fill="midnightblue" stroke="midnightblue" points="1488.54,-29.1808 1484.22,-19.5091 1481.56,-29.7671 1488.54,-29.1808"/>
</g>
<!-- Node29 -->
<g id="node29" class="node"><title>Node29</title>
<polygon fill="none" stroke="#bfbfbf" points="621.5,-62 621.5,-81 751.5,-81 751.5,-62 621.5,-62"/>
<text text-anchor="middle" x="686.5" y="-69" font-family="Helvetica,sans-Serif" font-size="10.00">InfoLogger/InfoLogger.hxx</text>
</g>
<!-- Node28&#45;&gt;Node29 -->
<g id="edge35" class="edge"><title>Node28&#45;&gt;Node29</title>
<path fill="none" stroke="midnightblue" d="M678.789,-123.475C680.059,-115.08 682.041,-101.981 683.677,-91.1631"/>
<polygon fill="midnightblue" stroke="midnightblue" points="687.178,-91.4201 685.213,-81.0091 680.257,-90.3731 687.178,-91.4201"/>
</g>
<!-- Node30 -->
<g id="node30" class="node"><title>Node30</title>
<polygon fill="none" stroke="#bfbfbf" points="441.5,-62 441.5,-81 603.5,-81 603.5,-62 441.5,-62"/>
<text text-anchor="middle" x="522.5" y="-69" font-family="Helvetica,sans-Serif" font-size="10.00">InfoLogger/InfoLoggerMacros.hxx</text>
</g>
<!-- Node28&#45;&gt;Node30 -->
<g id="edge36" class="edge"><title>Node28&#45;&gt;Node30</title>
<path fill="none" stroke="midnightblue" d="M655.292,-123.475C628.819,-113.313 584.386,-96.2564 554.28,-84.6996"/>
<polygon fill="midnightblue" stroke="midnightblue" points="555.257,-81.3254 544.667,-81.0091 552.748,-87.8604 555.257,-81.3254"/>
</g>
<!-- Node31&#45;&gt;Node5 -->
<g id="edge39" class="edge"><title>Node31&#45;&gt;Node5</title>
<path fill="none" stroke="midnightblue" d="M471.626,-179.444C400.234,-168.105 276.503,-148.453 217.973,-139.157"/>
<polygon fill="midnightblue" stroke="midnightblue" points="218.255,-135.658 207.83,-137.547 217.157,-142.572 218.255,-135.658"/>
</g>
<!-- Node31&#45;&gt;Node11 -->
<g id="edge38" class="edge"><title>Node31&#45;&gt;Node11</title>
<path fill="none" stroke="midnightblue" d="M510.875,-179.191C476.221,-157.274 394.752,-98.9595 432.5,-56 453.515,-32.0835 672.812,-17.1604 751.549,-12.5398"/>
<polygon fill="midnightblue" stroke="midnightblue" points="751.909,-16.025 761.691,-11.9563 751.507,-9.03655 751.909,-16.025"/>
</g>
</g>
</svg>
        <g id="navigator" transform="translate(0 0)" fill="#404254">
                <rect fill="#f2f5e9" fill-opacity="0.5" stroke="#606060" stroke-width=".5" x="0" y="0" width="60" height="60"/>
                <use id="zoomplus" xlink:href="#zoomPlus" x="17" y="9" onmousedown="handleZoom(evt,'in')"/>
                <use id="zoomminus" xlink:href="#zoomMin" x="42" y="9" onmousedown="handleZoom(evt,'out')"/>
                <use id="reset" xlink:href="#resetDef" x="30" y="36" onmousedown="handleReset()"/>
                <g id="arrowUp" xlink:href="#dirArrow" transform="translate(30 24)" onmousedown="handlePan(0,-1)">
                  <use xlink:href="#rim" fill="#404040">
                        <set attributeName="fill" to="#808080" begin="arrowUp.mouseover" end="arrowUp.mouseout"/>
                  </use>
                  <path fill="none" stroke="white" stroke-width="1.5" d="M0,-3.0v7 M-2.5,-0.5L0,-3.0L2.5,-0.5"/>
                </g>
                <g id="arrowRight" xlink:href="#dirArrow" transform="rotate(90) translate(36 -43)" onmousedown="handlePan(1,0)">
                  <use xlink:href="#rim" fill="#404040">
                        <set attributeName="fill" to="#808080" begin="arrowRight.mouseover" end="arrowRight.mouseout"/>
                  </use>
                  <path fill="none" stroke="white" stroke-width="1.5" d="M0,-3.0v7 M-2.5,-0.5L0,-3.0L2.5,-0.5"/>
                </g>
                <g id="arrowDown" xlink:href="#dirArrow" transform="rotate(180) translate(-30 -48)" onmousedown="handlePan(0,1)">
                  <use xlink:href="#rim" fill="#404040">
                        <set attributeName="fill" to="#808080" begin="arrowDown.mouseover" end="arrowDown.mouseout"/>
                  </use>
                  <path fill="none" stroke="white" stroke-width="1.5" d="M0,-3.0v7 M-2.5,-0.5L0,-3.0L2.5,-0.5"/>
                </g>
                <g id="arrowLeft" xlink:href="#dirArrow" transform="rotate(270) translate(-36 17)" onmousedown="handlePan(-1,0)">
                  <use xlink:href="#rim" fill="#404040">
                        <set attributeName="fill" to="#808080" begin="arrowLeft.mouseover" end="arrowLeft.mouseout"/>
                  </use>
                  <path fill="none" stroke="white" stroke-width="1.5" d="M0,-3.0v7 M-2.5,-0.5L0,-3.0L2.5,-0.5"/>
                </g>
        </g>
        <svg viewBox="0 0 15 15" width="100%" height="30px" preserveAspectRatio="xMaxYMin meet">
         <g id="arrow_out" transform="scale(0.3 0.3)">
          <a xlink:href="PhysicsTaskPreclusters_8cxx__incl_org.svg" target="_base">
           <rect id="button" ry="5" rx="5" y="6" x="6" height="38" width="38"
                fill="#f2f5e9" fill-opacity="0.5" stroke="#606060" stroke-width="1.0"/>
           <path id="arrow"
             d="M 11.500037,31.436501 C 11.940474,20.09759 22.043105,11.32322 32.158766,21.979434 L 37.068811,17.246167 C 37.068811,17.246167 37.088388,32 37.088388,32 L 22.160133,31.978069 C 22.160133,31.978069 26.997745,27.140456 26.997745,27.140456 C 18.528582,18.264221 13.291696,25.230495 11.500037,31.436501 z"
             style="fill:#404040;"/>
          </a>
         </g>
        </svg>
</svg>
