<?xml version="1.0" encoding="UTF-8" standalone="no"?>
<!DOCTYPE svg PUBLIC "-//W3C//DTD SVG 1.1//EN"
 "http://www.w3.org/Graphics/SVG/1.1/DTD/svg11.dtd">
<!-- Generated by graphviz version 2.38.0 (20140413.2041)
 -->
<!-- Title: Modules/MUON/MCH/src/PhysicsTaskDigits.cxx Pages: 1 -->
<!--zoomable 341 -->
<svg id="main" version="1.1" xmlns="http://www.w3.org/2000/svg" xmlns:xlink="http://www.w3.org/1999/xlink" xml:space="preserve" onload="init(evt)">
<style type="text/css"><![CDATA[
.edge:hover path { stroke: red; }
.edge:hover polygon { stroke: red; fill: red; }
]]></style>
<script type="text/javascript"><![CDATA[
var edges = document.getElementsByTagName('g');
if (edges && edges.length) {
  for (var i=0;i<edges.length;i++) {
    if (edges[i].id.substr(0,4)=='edge') {
      edges[i].setAttribute('class','edge');
    }
  }
}
]]></script>
        <defs>
                <circle id="rim" cx="0" cy="0" r="7"/>
                <circle id="rim2" cx="0" cy="0" r="3.5"/>
                <g id="zoomPlus">
                        <use xlink:href="#rim" fill="#404040">
                                <set attributeName="fill" to="#808080" begin="zoomplus.mouseover" end="zoomplus.mouseout"/>
                        </use>
                        <path d="M-4,0h8M0,-4v8" fill="none" stroke="white" stroke-width="1.5" pointer-events="none"/>
                </g>
                <g id="zoomMin">
                        <use xlink:href="#rim" fill="#404040">
                                <set attributeName="fill" to="#808080" begin="zoomminus.mouseover" end="zoomminus.mouseout"/>
                        </use>
                        <path d="M-4,0h8" fill="none" stroke="white" stroke-width="1.5" pointer-events="none"/>
                </g>
                <g id="dirArrow">
                        <path fill="none" stroke="white" stroke-width="1.5" d="M0,-3.0v7 M-2.5,-0.5L0,-3.0L2.5,-0.5"/>
                </g>
               <g id="resetDef">
                       <use xlink:href="#rim2" fill="#404040">
                               <set attributeName="fill" to="#808080" begin="reset.mouseover" end="reset.mouseout"/>
                       </use>
               </g>
        </defs>

<script type="text/javascript">
var viewWidth = 1617;
var viewHeight = 341;
var sectionId = 'dynsection-0';
</script>
<script xlink:href="svgpan.js"/>
<svg id="graph" class="graph">
<g id="viewport">
<title>Modules/MUON/MCH/src/PhysicsTaskDigits.cxx</title>
<!-- Node1 -->
<g id="node1" class="node"><title>Node1</title>
<polygon fill="#bfbfbf" stroke="black" points="840,-302.5 840,-332.5 970,-332.5 970,-302.5 840,-302.5"/>
<text text-anchor="start" x="848" y="-320.5" font-family="Helvetica,sans-Serif" font-size="10.00">Modules/MUON/MCH/src</text>
<text text-anchor="middle" x="905" y="-309.5" font-family="Helvetica,sans-Serif" font-size="10.00">/PhysicsTaskDigits.cxx</text>
</g>
<!-- Node2 -->
<g id="node2" class="node"><title>Node2</title>
<polygon fill="none" stroke="#bfbfbf" points="135.5,-241 135.5,-260 200.5,-260 200.5,-241 135.5,-241"/>
<text text-anchor="middle" x="168" y="-248" font-family="Helvetica,sans-Serif" font-size="10.00">TCanvas.h</text>
</g>
<!-- Node1&#45;&gt;Node2 -->
<g id="edge1" class="edge"><title>Node1&#45;&gt;Node2</title>
<path fill="none" stroke="midnightblue" d="M839.554,-317.366C715.425,-317.775 437.828,-312.772 210,-266 206.493,-265.28 202.878,-264.345 199.308,-263.296"/>
<polygon fill="midnightblue" stroke="midnightblue" points="200.09,-259.87 189.498,-260.123 197.936,-266.53 200.09,-259.87"/>
</g>
<!-- Node3 -->
<g id="node3" class="node"><title>Node3</title>
<polygon fill="none" stroke="#bfbfbf" points="219,-241 219,-260 263,-260 263,-241 219,-241"/>
<text text-anchor="middle" x="241" y="-248" font-family="Helvetica,sans-Serif" font-size="10.00">TH1.h</text>
</g>
<!-- Node1&#45;&gt;Node3 -->
<g id="edge2" class="edge"><title>Node1&#45;&gt;Node3</title>
<path fill="none" stroke="midnightblue" d="M839.916,-313.76C701.636,-307.533 382.595,-290.899 277,-266 274.326,-265.369 271.59,-264.572 268.88,-263.676"/>
<polygon fill="midnightblue" stroke="midnightblue" points="269.928,-260.332 259.335,-260.128 267.489,-266.893 269.928,-260.332"/>
</g>
<!-- Node4 -->
<g id="node4" class="node"><title>Node4</title>
<polygon fill="none" stroke="#bfbfbf" points="0,-123.5 0,-142.5 44,-142.5 44,-123.5 0,-123.5"/>
<text text-anchor="middle" x="22" y="-130.5" font-family="Helvetica,sans-Serif" font-size="10.00">TH2.h</text>
</g>
<!-- Node1&#45;&gt;Node4 -->
<g id="edge3" class="edge"><title>Node1&#45;&gt;Node4</title>
<path fill="none" stroke="midnightblue" d="M839.874,-305.412C782.849,-295.556 697.806,-280.502 624,-266 405.103,-222.988 143.452,-162.481 53.8829,-141.506"/>
<polygon fill="midnightblue" stroke="midnightblue" points="54.6014,-138.08 44.0664,-139.204 53.0031,-144.895 54.6014,-138.08"/>
</g>
<!-- Node5 -->
<g id="node5" class="node"><title>Node5</title>
<polygon fill="none" stroke="#bfbfbf" points="881.5,-241 881.5,-260 928.5,-260 928.5,-241 881.5,-241"/>
<text text-anchor="middle" x="905" y="-248" font-family="Helvetica,sans-Serif" font-size="10.00">TFile.h</text>
</g>
<!-- Node1&#45;&gt;Node5 -->
<g id="edge4" class="edge"><title>Node1&#45;&gt;Node5</title>
<path fill="none" stroke="midnightblue" d="M905,-302.396C905,-293.064 905,-280.714 905,-270.517"/>
<polygon fill="midnightblue" stroke="midnightblue" points="908.5,-270.195 905,-260.195 901.5,-270.195 908.5,-270.195"/>
</g>
<!-- Node6 -->
<g id="node6" class="node"><title>Node6</title>
<polygon fill="none" stroke="#bfbfbf" points="947,-241 947,-260 1003,-260 1003,-241 947,-241"/>
<text text-anchor="middle" x="975" y="-248" font-family="Helvetica,sans-Serif" font-size="10.00">algorithm</text>
</g>
<!-- Node1&#45;&gt;Node6 -->
<g id="edge5" class="edge"><title>Node1&#45;&gt;Node6</title>
<path fill="none" stroke="midnightblue" d="M920.189,-302.396C931.32,-292.06 946.436,-278.024 957.975,-267.309"/>
<polygon fill="midnightblue" stroke="midnightblue" points="960.69,-269.564 965.637,-260.195 955.927,-264.434 960.69,-269.564"/>
</g>
<!-- Node7 -->
<g id="node7" class="node"><title>Node7</title>
<g id="a_node7"><a xlink:href="PhysicsTaskDigits_8h.html" target="_top" xlink:title="MCH/PhysicsTaskDigits.h">
<polygon fill="none" stroke="black" points="633,-241 633,-260 767,-260 767,-241 633,-241"/>
<text text-anchor="middle" x="700" y="-248" font-family="Helvetica,sans-Serif" font-size="10.00">MCH/PhysicsTaskDigits.h</text>
</a>
</g>
</g>
<!-- Node1&#45;&gt;Node7 -->
<g id="edge6" class="edge"><title>Node1&#45;&gt;Node7</title>
<path fill="none" stroke="midnightblue" d="M860.77,-302.476C823.704,-290.723 771.414,-274.143 736.649,-263.12"/>
<polygon fill="midnightblue" stroke="midnightblue" points="737.488,-259.715 726.898,-260.029 735.373,-266.387 737.488,-259.715"/>
</g>
<!-- Node26 -->
<g id="node26" class="node"><title>Node26</title>
<g id="a_node26"><a xlink:href="QcInfoLogger_8h.html" target="_top" xlink:title="QualityControl/QcInfoLogger.h">
<polygon fill="none" stroke="black" points="1048.5,-123.5 1048.5,-142.5 1197.5,-142.5 1197.5,-123.5 1048.5,-123.5"/>
<text text-anchor="middle" x="1123" y="-130.5" font-family="Helvetica,sans-Serif" font-size="10.00">QualityControl/QcInfoLogger.h</text>
</a>
</g>
</g>
<!-- Node1&#45;&gt;Node26 -->
<g id="edge42" class="edge"><title>Node1&#45;&gt;Node26</title>
<path fill="none" stroke="midnightblue" d="M891.7,-302.34C877.402,-285.334 858.549,-256.423 873,-235 909.671,-180.635 981.07,-155.524 1038.21,-143.931"/>
<polygon fill="midnightblue" stroke="midnightblue" points="1039.18,-147.309 1048.34,-141.986 1037.86,-140.435 1039.18,-147.309"/>
</g>
<!-- Node32 -->
<g id="node32" class="node"><title>Node32</title>
<polygon fill="none" stroke="#bfbfbf" points="1020.5,-235.5 1020.5,-265.5 1135.5,-265.5 1135.5,-235.5 1020.5,-235.5"/>
<text text-anchor="start" x="1028.5" y="-253.5" font-family="Helvetica,sans-Serif" font-size="10.00">MCHMappingInterface</text>
<text text-anchor="middle" x="1078" y="-242.5" font-family="Helvetica,sans-Serif" font-size="10.00">/Segmentation.h</text>
</g>
<!-- Node1&#45;&gt;Node32 -->
<g id="edge39" class="edge"><title>Node1&#45;&gt;Node32</title>
<path fill="none" stroke="midnightblue" d="M942.538,-302.396C968.496,-292.643 1003.22,-279.595 1031.02,-269.152"/>
<polygon fill="midnightblue" stroke="midnightblue" points="1032.4,-272.37 1040.53,-265.577 1029.94,-265.817 1032.4,-272.37"/>
</g>
<!-- Node33 -->
<g id="node33" class="node"><title>Node33</title>
<polygon fill="none" stroke="#bfbfbf" points="1153.5,-235.5 1153.5,-265.5 1278.5,-265.5 1278.5,-235.5 1153.5,-235.5"/>
<text text-anchor="start" x="1161.5" y="-253.5" font-family="Helvetica,sans-Serif" font-size="10.00">MCHMappingInterface</text>
<text text-anchor="middle" x="1216" y="-242.5" font-family="Helvetica,sans-Serif" font-size="10.00">/CathodeSegmentation.h</text>
</g>
<!-- Node1&#45;&gt;Node33 -->
<g id="edge40" class="edge"><title>Node1&#45;&gt;Node33</title>
<path fill="none" stroke="midnightblue" d="M970.196,-302.874C1020.81,-292.295 1090.97,-277.632 1143.38,-266.679"/>
<polygon fill="midnightblue" stroke="midnightblue" points="1144.21,-270.081 1153.28,-264.609 1142.77,-263.229 1144.21,-270.081"/>
</g>
<!-- Node34 -->
<g id="node34" class="node"><title>Node34</title>
<polygon fill="none" stroke="#bfbfbf" points="1297,-235.5 1297,-265.5 1461,-265.5 1461,-235.5 1297,-235.5"/>
<text text-anchor="start" x="1305" y="-253.5" font-family="Helvetica,sans-Serif" font-size="10.00">MCHMappingSegContour</text>
<text text-anchor="middle" x="1379" y="-242.5" font-family="Helvetica,sans-Serif" font-size="10.00">/CathodeSegmentationContours.h</text>
</g>
<!-- Node1&#45;&gt;Node34 -->
<g id="edge41" class="edge"><title>Node1&#45;&gt;Node34</title>
<path fill="none" stroke="midnightblue" d="M970.131,-308.454C1044.24,-299.178 1169.17,-283.17 1286.44,-266.205"/>
<polygon fill="midnightblue" stroke="midnightblue" points="1287.28,-269.62 1296.68,-264.719 1286.28,-262.693 1287.28,-269.62"/>
</g>
<!-- Node35 -->
<g id="node35" class="node"><title>Node35</title>
<polygon fill="none" stroke="#bfbfbf" points="1479,-241 1479,-260 1609,-260 1609,-241 1479,-241"/>
<text text-anchor="middle" x="1544" y="-248" font-family="Helvetica,sans-Serif" font-size="10.00">Framework/InputRecord.h</text>
</g>
<!-- Node1&#45;&gt;Node35 -->
<g id="edge43" class="edge"><title>Node1&#45;&gt;Node35</title>
<path fill="none" stroke="midnightblue" d="M970.077,-312.897C1075.47,-306.566 1289.87,-291.627 1470,-266 1478.02,-264.859 1486.48,-263.424 1494.7,-261.902"/>
<polygon fill="midnightblue" stroke="midnightblue" points="1495.41,-265.331 1504.57,-260.017 1494.09,-258.455 1495.41,-265.331"/>
</g>
<!-- Node8 -->
<g id="node8" class="node"><title>Node8</title>
<g id="a_node8"><a xlink:href="TaskInterface_8h.html" target="_top" xlink:title="QualityControl/TaskInterface.h">
<polygon fill="none" stroke="black" points="461,-179.5 461,-198.5 611,-198.5 611,-179.5 461,-179.5"/>
<text text-anchor="middle" x="536" y="-186.5" font-family="Helvetica,sans-Serif" font-size="10.00">QualityControl/TaskInterface.h</text>
</a>
</g>
</g>
<!-- Node7&#45;&gt;Node8 -->
<g id="edge7" class="edge"><title>Node7&#45;&gt;Node8</title>
<path fill="none" stroke="midnightblue" d="M676.503,-240.975C648.371,-230.769 601.071,-213.608 569.211,-202.049"/>
<polygon fill="midnightblue" stroke="midnightblue" points="570.048,-198.63 559.454,-198.509 567.66,-205.21 570.048,-198.63"/>
</g>
<!-- Node29 -->
<g id="node29" class="node"><title>Node29</title>
<polygon fill="none" stroke="#bfbfbf" points="629,-179.5 629,-198.5 771,-198.5 771,-179.5 629,-179.5"/>
<text text-anchor="middle" x="700" y="-186.5" font-family="Helvetica,sans-Serif" font-size="10.00">MCHRawElecMap/Mapper.h</text>
</g>
<!-- Node7&#45;&gt;Node29 -->
<g id="edge34" class="edge"><title>Node7&#45;&gt;Node29</title>
<path fill="none" stroke="midnightblue" d="M700,-240.975C700,-232.58 700,-219.481 700,-208.663"/>
<polygon fill="midnightblue" stroke="midnightblue" points="703.5,-208.509 700,-198.509 696.5,-208.509 703.5,-208.509"/>
</g>
<!-- Node30 -->
<g id="node30" class="node"><title>Node30</title>
<polygon fill="none" stroke="#bfbfbf" points="789,-179.5 789,-198.5 883,-198.5 883,-179.5 789,-179.5"/>
<text text-anchor="middle" x="836" y="-186.5" font-family="Helvetica,sans-Serif" font-size="10.00">MCHBase/Digit.h</text>
</g>
<!-- Node7&#45;&gt;Node30 -->
<g id="edge35" class="edge"><title>Node7&#45;&gt;Node30</title>
<path fill="none" stroke="midnightblue" d="M719.485,-240.975C742.41,-230.945 780.685,-214.2 807.075,-202.655"/>
<polygon fill="midnightblue" stroke="midnightblue" points="808.792,-205.724 816.551,-198.509 805.986,-199.311 808.792,-205.724"/>
</g>
<!-- Node31 -->
<g id="node31" class="node"><title>Node31</title>
<g id="a_node31"><a xlink:href="GlobalHistogram_8h_source.html" target="_top" xlink:title="MCH/GlobalHistogram.h">
<polygon fill="none" stroke="black" points="319,-179.5 319,-198.5 443,-198.5 443,-179.5 319,-179.5"/>
<text text-anchor="middle" x="381" y="-186.5" font-family="Helvetica,sans-Serif" font-size="10.00">MCH/GlobalHistogram.h</text>
</a>
</g>
</g>
<!-- Node7&#45;&gt;Node31 -->
<g id="edge36" class="edge"><title>Node7&#45;&gt;Node31</title>
<path fill="none" stroke="midnightblue" d="M654.295,-240.975C596.851,-230.261 498.317,-211.882 436.576,-200.366"/>
<polygon fill="midnightblue" stroke="midnightblue" points="437.092,-196.902 426.62,-198.509 435.809,-203.783 437.092,-196.902"/>
</g>
<!-- Node9 -->
<g id="node9" class="node"><title>Node9</title>
<polygon fill="none" stroke="#bfbfbf" points="54.5,-0.5 54.5,-19.5 89.5,-19.5 89.5,-0.5 54.5,-0.5"/>
<text text-anchor="middle" x="72" y="-7.5" font-family="Helvetica,sans-Serif" font-size="10.00">map</text>
</g>
<!-- Node8&#45;&gt;Node9 -->
<g id="edge8" class="edge"><title>Node8&#45;&gt;Node9</title>
<path fill="none" stroke="midnightblue" d="M460.777,-179.92C343.611,-167.302 130.657,-144.225 129,-143 109.795,-128.801 87.4508,-62.0688 77.3927,-29.278"/>
<polygon fill="midnightblue" stroke="midnightblue" points="80.7086,-28.1507 74.4749,-19.5838 74.0056,-30.1682 80.7086,-28.1507"/>
</g>
<!-- Node10 -->
<g id="node10" class="node"><title>Node10</title>
<polygon fill="none" stroke="#bfbfbf" points="805,-62 805,-81 857,-81 857,-62 805,-62"/>
<text text-anchor="middle" x="831" y="-69" font-family="Helvetica,sans-Serif" font-size="10.00">memory</text>
</g>
<!-- Node8&#45;&gt;Node10 -->
<g id="edge9" class="edge"><title>Node8&#45;&gt;Node10</title>
<path fill="none" stroke="midnightblue" d="M594.868,-179.487C662.002,-169.414 764.523,-152.778 780,-143 800.095,-130.305 814.754,-106.583 823.068,-90.1846"/>
<polygon fill="midnightblue" stroke="midnightblue" points="826.263,-91.6166 827.417,-81.0848 819.947,-88.5982 826.263,-91.6166"/>
</g>
<!-- Node11 -->
<g id="node11" class="node"><title>Node11</title>
<polygon fill="none" stroke="#bfbfbf" points="627.5,-0.5 627.5,-19.5 668.5,-19.5 668.5,-0.5 627.5,-0.5"/>
<text text-anchor="middle" x="648" y="-7.5" font-family="Helvetica,sans-Serif" font-size="10.00">string</text>
</g>
<!-- Node8&#45;&gt;Node11 -->
<g id="edge10" class="edge"><title>Node8&#45;&gt;Node11</title>
<path fill="none" stroke="midnightblue" d="M541.402,-179.463C558.73,-152.078 613.165,-66.0524 636.83,-28.6531"/>
<polygon fill="midnightblue" stroke="midnightblue" points="639.999,-30.1902 642.388,-19.8684 634.084,-26.4472 639.999,-30.1902"/>
</g>
<!-- Node12 -->
<g id="node12" class="node"><title>Node12</title>
<polygon fill="none" stroke="#bfbfbf" points="764.5,-0.5 764.5,-19.5 847.5,-19.5 847.5,-0.5 764.5,-0.5"/>
<text text-anchor="middle" x="806" y="-7.5" font-family="Helvetica,sans-Serif" font-size="10.00">unordered_map</text>
</g>
<!-- Node8&#45;&gt;Node12 -->
<g id="edge11" class="edge"><title>Node8&#45;&gt;Node12</title>
<path fill="none" stroke="midnightblue" d="M597.729,-179.498C671.035,-169.11 785.737,-151.833 804,-143 846.744,-122.327 887.234,-98.4681 866,-56 859.272,-42.5432 846.394,-32.0665 834.288,-24.6212"/>
<polygon fill="midnightblue" stroke="midnightblue" points="835.721,-21.4101 825.296,-19.5195 832.267,-27.4985 835.721,-21.4101"/>
</g>
<!-- Node13 -->
<g id="node13" class="node"><title>Node13</title>
<polygon fill="none" stroke="#bfbfbf" points="905.5,-123.5 905.5,-142.5 1030.5,-142.5 1030.5,-123.5 905.5,-123.5"/>
<text text-anchor="middle" x="968" y="-130.5" font-family="Helvetica,sans-Serif" font-size="10.00">Framework/InitContext.h</text>
</g>
<!-- Node8&#45;&gt;Node13 -->
<g id="edge12" class="edge"><title>Node8&#45;&gt;Node13</title>
<path fill="none" stroke="midnightblue" d="M604.452,-179.444C683.85,-169.519 814.199,-153.225 895.345,-143.082"/>
<polygon fill="midnightblue" stroke="midnightblue" points="895.991,-146.529 905.479,-141.815 895.122,-139.583 895.991,-146.529"/>
</g>
<!-- Node14 -->
<g id="node14" class="node"><title>Node14</title>
<polygon fill="none" stroke="#bfbfbf" points="138,-123.5 138,-142.5 298,-142.5 298,-123.5 138,-123.5"/>
<text text-anchor="middle" x="218" y="-130.5" font-family="Helvetica,sans-Serif" font-size="10.00">Framework/ProcessingContext.h</text>
</g>
<!-- Node8&#45;&gt;Node14 -->
<g id="edge13" class="edge"><title>Node8&#45;&gt;Node14</title>
<path fill="none" stroke="midnightblue" d="M485.612,-179.444C429.324,-169.885 338.248,-154.419 278.242,-144.23"/>
<polygon fill="midnightblue" stroke="midnightblue" points="278.597,-140.74 268.152,-142.516 277.425,-147.641 278.597,-140.74"/>
</g>
<!-- Node15 -->
<g id="node15" class="node"><title>Node15</title>
<polygon fill="none" stroke="#bfbfbf" points="316.5,-123.5 316.5,-142.5 411.5,-142.5 411.5,-123.5 316.5,-123.5"/>
<text text-anchor="middle" x="364" y="-130.5" font-family="Helvetica,sans-Serif" font-size="10.00">CCDB/CcdbApi.h</text>
</g>
<!-- Node8&#45;&gt;Node15 -->
<g id="edge14" class="edge"><title>Node8&#45;&gt;Node15</title>
<path fill="none" stroke="midnightblue" d="M508.746,-179.444C479.559,-170.28 433.079,-155.688 400.691,-145.519"/>
<polygon fill="midnightblue" stroke="midnightblue" points="401.716,-142.173 391.126,-142.516 399.619,-148.851 401.716,-142.173"/>
</g>
<!-- Node16 -->
<g id="node16" class="node"><title>Node16</title>
<g id="a_node16"><a xlink:href="Activity_8h.html" target="_top" xlink:title="QualityControl/Activity.h">
<polygon fill="none" stroke="black" points="429.5,-123.5 429.5,-142.5 552.5,-142.5 552.5,-123.5 429.5,-123.5"/>
<text text-anchor="middle" x="491" y="-130.5" font-family="Helvetica,sans-Serif" font-size="10.00">QualityControl/Activity.h</text>
</a>
</g>
</g>
<!-- Node8&#45;&gt;Node16 -->
<g id="edge15" class="edge"><title>Node8&#45;&gt;Node16</title>
<path fill="none" stroke="midnightblue" d="M528.569,-179.083C522.147,-171.377 512.694,-160.033 504.878,-150.653"/>
<polygon fill="midnightblue" stroke="midnightblue" points="507.383,-148.193 498.293,-142.751 502.006,-152.674 507.383,-148.193"/>
</g>
<!-- Node17 -->
<g id="node17" class="node"><title>Node17</title>
<g id="a_node17"><a xlink:href="ObjectsManager_8h.html" target="_top" xlink:title="QualityControl/ObjectsManager.h">
<polygon fill="none" stroke="black" points="609.5,-123.5 609.5,-142.5 770.5,-142.5 770.5,-123.5 609.5,-123.5"/>
<text text-anchor="middle" x="690" y="-130.5" font-family="Helvetica,sans-Serif" font-size="10.00">QualityControl/ObjectsManager.h</text>
</a>
</g>
</g>
<!-- Node8&#45;&gt;Node17 -->
<g id="edge16" class="edge"><title>Node8&#45;&gt;Node17</title>
<path fill="none" stroke="midnightblue" d="M560.402,-179.444C586.197,-170.399 627.077,-156.064 656.018,-145.916"/>
<polygon fill="midnightblue" stroke="midnightblue" points="657.434,-149.128 665.712,-142.516 655.118,-142.523 657.434,-149.128"/>
</g>
<!-- Node8&#45;&gt;Node26 -->
<g id="edge31" class="edge"><title>Node8&#45;&gt;Node26</title>
<path fill="none" stroke="midnightblue" d="M611.098,-179.874C614.104,-179.574 617.08,-179.282 620,-179 803.208,-161.336 851.828,-161.102 1038.21,-143.155"/>
<polygon fill="midnightblue" stroke="midnightblue" points="1038.73,-146.621 1048.35,-142.175 1038.06,-139.654 1038.73,-146.621"/>
</g>
<!-- Node17&#45;&gt;Node10 -->
<g id="edge30" class="edge"><title>Node17&#45;&gt;Node10</title>
<path fill="none" stroke="midnightblue" d="M710.202,-123.475C734.074,-113.401 774.002,-96.5525 801.373,-85.0023"/>
<polygon fill="midnightblue" stroke="midnightblue" points="802.983,-88.1217 810.836,-81.0091 800.262,-81.6724 802.983,-88.1217"/>
</g>
<!-- Node17&#45;&gt;Node11 -->
<g id="edge29" class="edge"><title>Node17&#45;&gt;Node11</title>
<path fill="none" stroke="midnightblue" d="M674.217,-123.467C661.797,-115.769 645.395,-103.179 638,-87 629.639,-68.7082 634.635,-45.5275 640.131,-29.6046"/>
<polygon fill="midnightblue" stroke="midnightblue" points="643.544,-30.48 643.858,-19.8898 637.008,-27.9726 643.544,-30.48"/>
</g>
<!-- Node18 -->
<g id="node18" class="node"><title>Node18</title>
<g id="a_node18"><a xlink:href="MonitorObject_8h.html" target="_top" xlink:title="QualityControl/MonitorObject.h">
<polygon fill="none" stroke="black" points="401.5,-62 401.5,-81 552.5,-81 552.5,-62 401.5,-62"/>
<text text-anchor="middle" x="477" y="-69" font-family="Helvetica,sans-Serif" font-size="10.00">QualityControl/MonitorObject.h</text>
</a>
</g>
</g>
<!-- Node17&#45;&gt;Node18 -->
<g id="edge17" class="edge"><title>Node17&#45;&gt;Node18</title>
<path fill="none" stroke="midnightblue" d="M659.482,-123.475C622.075,-113.026 558.573,-95.2868 517.213,-83.7332"/>
<polygon fill="midnightblue" stroke="midnightblue" points="518.034,-80.3286 507.461,-81.0091 516.151,-87.0705 518.034,-80.3286"/>
</g>
<!-- Node22 -->
<g id="node22" class="node"><title>Node22</title>
<g id="a_node22"><a xlink:href="MonitorObjectCollection_8h.html" target="_top" xlink:title="QualityControl/MonitorObject\lCollection.h">
<polygon fill="none" stroke="black" points="217.5,-56.5 217.5,-86.5 360.5,-86.5 360.5,-56.5 217.5,-56.5"/>
<text text-anchor="start" x="225.5" y="-74.5" font-family="Helvetica,sans-Serif" font-size="10.00">QualityControl/MonitorObject</text>
<text text-anchor="middle" x="289" y="-63.5" font-family="Helvetica,sans-Serif" font-size="10.00">Collection.h</text>
</a>
</g>
</g>
<!-- Node17&#45;&gt;Node22 -->
<g id="edge23" class="edge"><title>Node17&#45;&gt;Node22</title>
<path fill="none" stroke="midnightblue" d="M632.546,-123.475C563.944,-113.296 448.723,-96.1995 370.83,-84.6418"/>
<polygon fill="midnightblue" stroke="midnightblue" points="370.977,-81.1254 360.572,-83.1197 369.95,-88.0496 370.977,-81.1254"/>
</g>
<!-- Node25 -->
<g id="node25" class="node"><title>Node25</title>
<g id="a_node25"><a xlink:href="TaskConfig_8h.html" target="_top" xlink:title="QualityControl/TaskConfig.h">
<polygon fill="none" stroke="black" points="647,-62 647,-81 787,-81 787,-62 647,-62"/>
<text text-anchor="middle" x="717" y="-69" font-family="Helvetica,sans-Serif" font-size="10.00">QualityControl/TaskConfig.h</text>
</a>
</g>
</g>
<!-- Node17&#45;&gt;Node25 -->
<g id="edge26" class="edge"><title>Node17&#45;&gt;Node25</title>
<path fill="none" stroke="midnightblue" d="M693.868,-123.475C697.798,-114.815 704,-101.149 708.993,-90.1453"/>
<polygon fill="midnightblue" stroke="midnightblue" points="712.194,-91.5617 713.139,-81.0091 705.819,-88.6691 712.194,-91.5617"/>
</g>
<!-- Node18&#45;&gt;Node9 -->
<g id="edge19" class="edge"><title>Node18&#45;&gt;Node9</title>
<path fill="none" stroke="midnightblue" d="M413.611,-61.9797C398.962,-60.0133 383.438,-57.9318 369,-56 252.171,-40.3687 218.704,-46.8938 99.4617,-19.6784"/>
<polygon fill="midnightblue" stroke="midnightblue" points="100.114,-16.2369 89.582,-17.392 98.5353,-23.0566 100.114,-16.2369"/>
</g>
<!-- Node18&#45;&gt;Node11 -->
<g id="edge18" class="edge"><title>Node18&#45;&gt;Node11</title>
<path fill="none" stroke="midnightblue" d="M501.5,-61.9751C532.131,-51.3169 584.558,-33.0748 617.686,-21.548"/>
<polygon fill="midnightblue" stroke="midnightblue" points="619.007,-24.794 627.302,-18.2021 616.707,-18.1828 619.007,-24.794"/>
</g>
<!-- Node19 -->
<g id="node19" class="node"><title>Node19</title>
<polygon fill="none" stroke="#bfbfbf" points="476,-0.5 476,-19.5 532,-19.5 532,-0.5 476,-0.5"/>
<text text-anchor="middle" x="504" y="-7.5" font-family="Helvetica,sans-Serif" font-size="10.00">Rtypes.h</text>
</g>
<!-- Node18&#45;&gt;Node19 -->
<g id="edge20" class="edge"><title>Node18&#45;&gt;Node19</title>
<path fill="none" stroke="midnightblue" d="M480.868,-61.9751C484.798,-53.3152 491,-39.6486 495.993,-28.6453"/>
<polygon fill="midnightblue" stroke="midnightblue" points="499.194,-30.0617 500.139,-19.5091 492.819,-27.1691 499.194,-30.0617"/>
</g>
<!-- Node20 -->
<g id="node20" class="node"><title>Node20</title>
<polygon fill="none" stroke="#bfbfbf" points="550.5,-0.5 550.5,-19.5 609.5,-19.5 609.5,-0.5 550.5,-0.5"/>
<text text-anchor="middle" x="580" y="-7.5" font-family="Helvetica,sans-Serif" font-size="10.00">TObject.h</text>
</g>
<!-- Node18&#45;&gt;Node20 -->
<g id="edge21" class="edge"><title>Node18&#45;&gt;Node20</title>
<path fill="none" stroke="midnightblue" d="M491.757,-61.9751C508.661,-52.2106 536.583,-36.0807 556.49,-24.5808"/>
<polygon fill="midnightblue" stroke="midnightblue" points="558.362,-27.5419 565.27,-19.5091 554.86,-21.4805 558.362,-27.5419"/>
</g>
<!-- Node21 -->
<g id="node21" class="node"><title>Node21</title>
<polygon fill="none" stroke="#bfbfbf" points="342,-0.5 342,-19.5 458,-19.5 458,-0.5 342,-0.5"/>
<text text-anchor="middle" x="400" y="-7.5" font-family="Helvetica,sans-Serif" font-size="10.00">Common/Exceptions.h</text>
</g>
<!-- Node18&#45;&gt;Node21 -->
<g id="edge22" class="edge"><title>Node18&#45;&gt;Node21</title>
<path fill="none" stroke="midnightblue" d="M465.968,-61.9751C453.732,-52.5199 433.771,-37.0961 419.007,-25.6871"/>
<polygon fill="midnightblue" stroke="midnightblue" points="421.065,-22.8541 411.012,-19.5091 416.785,-28.3931 421.065,-22.8541"/>
</g>
<!-- Node23 -->
<g id="node23" class="node"><title>Node23</title>
<polygon fill="none" stroke="#bfbfbf" points="254.5,-0.5 254.5,-19.5 323.5,-19.5 323.5,-0.5 254.5,-0.5"/>
<text text-anchor="middle" x="289" y="-7.5" font-family="Helvetica,sans-Serif" font-size="10.00">TObjArray.h</text>
</g>
<!-- Node22&#45;&gt;Node23 -->
<g id="edge24" class="edge"><title>Node22&#45;&gt;Node23</title>
<path fill="none" stroke="midnightblue" d="M289,-56.3993C289,-48.4664 289,-38.458 289,-29.8583"/>
<polygon fill="midnightblue" stroke="midnightblue" points="292.5,-29.6577 289,-19.6578 285.5,-29.6578 292.5,-29.6577"/>
</g>
<!-- Node24 -->
<g id="node24" class="node"><title>Node24</title>
<polygon fill="none" stroke="#bfbfbf" points="108,-0.5 108,-19.5 236,-19.5 236,-0.5 108,-0.5"/>
<text text-anchor="middle" x="172" y="-7.5" font-family="Helvetica,sans-Serif" font-size="10.00">Mergers/MergeInterface.h</text>
</g>
<!-- Node22&#45;&gt;Node24 -->
<g id="edge25" class="edge"><title>Node22&#45;&gt;Node24</title>
<path fill="none" stroke="midnightblue" d="M261.273,-56.3993C242.168,-46.6837 216.942,-33.8551 198.18,-24.3137"/>
<polygon fill="midnightblue" stroke="midnightblue" points="199.525,-21.071 189.025,-19.6578 196.352,-27.3106 199.525,-21.071"/>
</g>
<!-- Node25&#45;&gt;Node11 -->
<g id="edge27" class="edge"><title>Node25&#45;&gt;Node11</title>
<path fill="none" stroke="midnightblue" d="M707.114,-61.9751C696.354,-52.6966 678.929,-37.6706 665.779,-26.331"/>
<polygon fill="midnightblue" stroke="midnightblue" points="667.727,-23.389 657.868,-19.5091 663.155,-28.6902 667.727,-23.389"/>
</g>
<!-- Node25&#45;&gt;Node12 -->
<g id="edge28" class="edge"><title>Node25&#45;&gt;Node12</title>
<path fill="none" stroke="midnightblue" d="M729.752,-61.9751C744.027,-52.4315 767.397,-36.8073 784.508,-25.3683"/>
<polygon fill="midnightblue" stroke="midnightblue" points="786.904,-27.9766 793.272,-19.5091 783.014,-22.1572 786.904,-27.9766"/>
</g>
<!-- Node27 -->
<g id="node27" class="node"><title>Node27</title>
<polygon fill="none" stroke="#bfbfbf" points="989,-62 989,-81 1119,-81 1119,-62 989,-62"/>
<text text-anchor="middle" x="1054" y="-69" font-family="Helvetica,sans-Serif" font-size="10.00">InfoLogger/InfoLogger.hxx</text>
</g>
<!-- Node26&#45;&gt;Node27 -->
<g id="edge32" class="edge"><title>Node26&#45;&gt;Node27</title>
<path fill="none" stroke="midnightblue" d="M1113.11,-123.475C1102.35,-114.197 1084.93,-99.1706 1071.78,-87.831"/>
<polygon fill="midnightblue" stroke="midnightblue" points="1073.73,-84.889 1063.87,-81.0091 1069.16,-90.1902 1073.73,-84.889"/>
</g>
<!-- Node28 -->
<g id="node28" class="node"><title>Node28</title>
<polygon fill="none" stroke="#bfbfbf" points="1137,-62 1137,-81 1299,-81 1299,-62 1137,-62"/>
<text text-anchor="middle" x="1218" y="-69" font-family="Helvetica,sans-Serif" font-size="10.00">InfoLogger/InfoLoggerMacros.hxx</text>
</g>
<!-- Node26&#45;&gt;Node28 -->
<g id="edge33" class="edge"><title>Node26&#45;&gt;Node28</title>
<path fill="none" stroke="midnightblue" d="M1136.61,-123.475C1152.06,-113.799 1177.49,-97.8721 1195.82,-86.3941"/>
<polygon fill="midnightblue" stroke="midnightblue" points="1197.8,-89.2834 1204.41,-81.0091 1194.08,-83.3509 1197.8,-89.2834"/>
</g>
<!-- Node31&#45;&gt;Node4 -->
<g id="edge38" class="edge"><title>Node31&#45;&gt;Node4</title>
<path fill="none" stroke="midnightblue" d="M318.72,-180.127C239.334,-169.952 106.564,-152.426 58,-143 56.7193,-142.751 55.416,-142.486 54.1016,-142.208"/>
<polygon fill="midnightblue" stroke="midnightblue" points="54.5307,-138.715 44.0018,-139.895 52.9683,-145.539 54.5307,-138.715"/>
</g>
<!-- Node31&#45;&gt;Node9 -->
<g id="edge37" class="edge"><title>Node31&#45;&gt;Node9</title>
<path fill="none" stroke="midnightblue" d="M318.939,-180.047C237.511,-169.345 103.939,-150.756 96,-143 65.5424,-113.242 66.3461,-58.6713 69.295,-29.9008"/>
<polygon fill="midnightblue" stroke="midnightblue" points="72.8136,-29.9631 70.5599,-19.6107 65.8659,-29.109 72.8136,-29.9631"/>
</g>
</g>
</svg>
        <g id="navigator" transform="translate(0 0)" fill="#404254">
                <rect fill="#f2f5e9" fill-opacity="0.5" stroke="#606060" stroke-width=".5" x="0" y="0" width="60" height="60"/>
                <use id="zoomplus" xlink:href="#zoomPlus" x="17" y="9" onmousedown="handleZoom(evt,'in')"/>
                <use id="zoomminus" xlink:href="#zoomMin" x="42" y="9" onmousedown="handleZoom(evt,'out')"/>
                <use id="reset" xlink:href="#resetDef" x="30" y="36" onmousedown="handleReset()"/>
                <g id="arrowUp" xlink:href="#dirArrow" transform="translate(30 24)" onmousedown="handlePan(0,-1)">
                  <use xlink:href="#rim" fill="#404040">
                        <set attributeName="fill" to="#808080" begin="arrowUp.mouseover" end="arrowUp.mouseout"/>
                  </use>
                  <path fill="none" stroke="white" stroke-width="1.5" d="M0,-3.0v7 M-2.5,-0.5L0,-3.0L2.5,-0.5"/>
                </g>
                <g id="arrowRight" xlink:href="#dirArrow" transform="rotate(90) translate(36 -43)" onmousedown="handlePan(1,0)">
                  <use xlink:href="#rim" fill="#404040">
                        <set attributeName="fill" to="#808080" begin="arrowRight.mouseover" end="arrowRight.mouseout"/>
                  </use>
                  <path fill="none" stroke="white" stroke-width="1.5" d="M0,-3.0v7 M-2.5,-0.5L0,-3.0L2.5,-0.5"/>
                </g>
                <g id="arrowDown" xlink:href="#dirArrow" transform="rotate(180) translate(-30 -48)" onmousedown="handlePan(0,1)">
                  <use xlink:href="#rim" fill="#404040">
                        <set attributeName="fill" to="#808080" begin="arrowDown.mouseover" end="arrowDown.mouseout"/>
                  </use>
                  <path fill="none" stroke="white" stroke-width="1.5" d="M0,-3.0v7 M-2.5,-0.5L0,-3.0L2.5,-0.5"/>
                </g>
                <g id="arrowLeft" xlink:href="#dirArrow" transform="rotate(270) translate(-36 17)" onmousedown="handlePan(-1,0)">
                  <use xlink:href="#rim" fill="#404040">
                        <set attributeName="fill" to="#808080" begin="arrowLeft.mouseover" end="arrowLeft.mouseout"/>
                  </use>
                  <path fill="none" stroke="white" stroke-width="1.5" d="M0,-3.0v7 M-2.5,-0.5L0,-3.0L2.5,-0.5"/>
                </g>
        </g>
        <svg viewBox="0 0 15 15" width="100%" height="30px" preserveAspectRatio="xMaxYMin meet">
         <g id="arrow_out" transform="scale(0.3 0.3)">
          <a xlink:href="PhysicsTaskDigits_8cxx__incl_org.svg" target="_base">
           <rect id="button" ry="5" rx="5" y="6" x="6" height="38" width="38"
                fill="#f2f5e9" fill-opacity="0.5" stroke="#606060" stroke-width="1.0"/>
           <path id="arrow"
             d="M 11.500037,31.436501 C 11.940474,20.09759 22.043105,11.32322 32.158766,21.979434 L 37.068811,17.246167 C 37.068811,17.246167 37.088388,32 37.088388,32 L 22.160133,31.978069 C 22.160133,31.978069 26.997745,27.140456 26.997745,27.140456 C 18.528582,18.264221 13.291696,25.230495 11.500037,31.436501 z"
             style="fill:#404040;"/>
          </a>
         </g>
        </svg>
</svg>
