<?xml version="1.0" encoding="UTF-8" standalone="no"?>
<!DOCTYPE svg PUBLIC "-//W3C//DTD SVG 1.1//EN"
 "http://www.w3.org/Graphics/SVG/1.1/DTD/svg11.dtd">
<!-- Generated by graphviz version 2.38.0 (20140413.2041)
 -->
<!-- Title: Modules/MUON/MCH/src/PhysicsCheck.cxx Pages: 1 -->
<svg width="1084pt" height="274pt"
 viewBox="0.00 0.00 1083.50 274.00" xmlns="http://www.w3.org/2000/svg" xmlns:xlink="http://www.w3.org/1999/xlink">
<g id="graph0" class="graph" transform="scale(1 1) rotate(0) translate(4 270)">
<title>Modules/MUON/MCH/src/PhysicsCheck.cxx</title>
<!-- Node1 -->
<g id="node1" class="node"><title>Node1</title>
<polygon fill="#bfbfbf" stroke="black" points="589.5,-235.5 589.5,-265.5 719.5,-265.5 719.5,-235.5 589.5,-235.5"/>
<text text-anchor="start" x="597.5" y="-253.5" font-family="Helvetica,sans-Serif" font-size="10.00">Modules/MUON/MCH/src</text>
<text text-anchor="middle" x="654.5" y="-242.5" font-family="Helvetica,sans-Serif" font-size="10.00">/PhysicsCheck.cxx</text>
</g>
<!-- Node2 -->
<g id="node2" class="node"><title>Node2</title>
<polygon fill="none" stroke="#bfbfbf" points="0,-168.5 0,-198.5 115,-198.5 115,-168.5 0,-168.5"/>
<text text-anchor="start" x="8" y="-186.5" font-family="Helvetica,sans-Serif" font-size="10.00">MCHMappingInterface</text>
<text text-anchor="middle" x="57.5" y="-175.5" font-family="Helvetica,sans-Serif" font-size="10.00">/Segmentation.h</text>
</g>
<!-- Node1&#45;&gt;Node2 -->
<g id="edge1" class="edge"><title>Node1&#45;&gt;Node2</title>
<path fill="none" stroke="midnightblue" d="M589.329,-245.778C490.935,-239.608 298.468,-225.405 125.229,-198.984"/>
<polygon fill="midnightblue" stroke="midnightblue" points="125.579,-195.497 115.163,-197.432 124.512,-202.415 125.579,-195.497"/>
</g>
<!-- Node3 -->
<g id="node3" class="node"><title>Node3</title>
<polygon fill="none" stroke="#bfbfbf" points="133.5,-168.5 133.5,-198.5 297.5,-198.5 297.5,-168.5 133.5,-168.5"/>
<text text-anchor="start" x="141.5" y="-186.5" font-family="Helvetica,sans-Serif" font-size="10.00">MCHMappingSegContour</text>
<text text-anchor="middle" x="215.5" y="-175.5" font-family="Helvetica,sans-Serif" font-size="10.00">/CathodeSegmentationContours.h</text>
</g>
<!-- Node1&#45;&gt;Node3 -->
<g id="edge2" class="edge"><title>Node1&#45;&gt;Node3</title>
<path fill="none" stroke="midnightblue" d="M589.372,-239.985C520.369,-229.887 408.24,-213.427 311.5,-199 310.234,-198.811 308.959,-198.621 307.676,-198.429"/>
<polygon fill="midnightblue" stroke="midnightblue" points="308.124,-194.957 297.716,-196.939 307.088,-201.88 308.124,-194.957"/>
</g>
<!-- Node4 -->
<g id="node4" class="node"><title>Node4</title>
<g id="a_node4"><a xlink:href="PhysicsCheck_8h.html" target="_top" xlink:title="MCH/PhysicsCheck.h">
<polygon fill="none" stroke="black" points="354,-174 354,-193 469,-193 469,-174 354,-174"/>
<text text-anchor="middle" x="411.5" y="-181" font-family="Helvetica,sans-Serif" font-size="10.00">MCH/PhysicsCheck.h</text>
</a>
</g>
</g>
<!-- Node1&#45;&gt;Node4 -->
<g id="edge3" class="edge"><title>Node1&#45;&gt;Node4</title>
<path fill="none" stroke="midnightblue" d="M602.072,-235.476C557.474,-223.547 494.285,-206.644 453.1,-195.628"/>
<polygon fill="midnightblue" stroke="midnightblue" points="453.949,-192.232 443.384,-193.029 452.14,-198.994 453.949,-192.232"/>
</g>
<!-- Node8 -->
<g id="node8" class="node"><title>Node8</title>
<polygon fill="none" stroke="#bfbfbf" points="360,-0.5 360,-19.5 401,-19.5 401,-0.5 360,-0.5"/>
<text text-anchor="middle" x="380.5" y="-7.5" font-family="Helvetica,sans-Serif" font-size="10.00">string</text>
</g>
<!-- Node1&#45;&gt;Node8 -->
<g id="edge27" class="edge"><title>Node1&#45;&gt;Node8</title>
<path fill="none" stroke="midnightblue" d="M589.476,-248.38C508.248,-245.445 376.169,-235.088 345.5,-199 303.068,-149.071 346.865,-64.3869 369.154,-28.2128"/>
<polygon fill="midnightblue" stroke="midnightblue" points="372.131,-30.0545 374.537,-19.7366 366.222,-26.3016 372.131,-30.0545"/>
</g>
<!-- Node14 -->
<g id="node14" class="node"><title>Node14</title>
<polygon fill="none" stroke="#bfbfbf" points="487,-174 487,-193 584,-193 584,-174 487,-174"/>
<text text-anchor="middle" x="535.5" y="-181" font-family="Helvetica,sans-Serif" font-size="10.00">fairlogger/Logger.h</text>
</g>
<!-- Node1&#45;&gt;Node14 -->
<g id="edge19" class="edge"><title>Node1&#45;&gt;Node14</title>
<path fill="none" stroke="midnightblue" d="M628.679,-235.396C608.261,-224.243 579.953,-208.781 559.911,-197.834"/>
<polygon fill="midnightblue" stroke="midnightblue" points="561.528,-194.729 551.074,-193.007 558.173,-200.872 561.528,-194.729"/>
</g>
<!-- Node15 -->
<g id="node15" class="node"><title>Node15</title>
<polygon fill="none" stroke="#bfbfbf" points="601.5,-174 601.5,-193 645.5,-193 645.5,-174 601.5,-174"/>
<text text-anchor="middle" x="623.5" y="-181" font-family="Helvetica,sans-Serif" font-size="10.00">TH1.h</text>
</g>
<!-- Node1&#45;&gt;Node15 -->
<g id="edge20" class="edge"><title>Node1&#45;&gt;Node15</title>
<path fill="none" stroke="midnightblue" d="M647.773,-235.396C643.179,-225.763 637.052,-212.914 632.102,-202.537"/>
<polygon fill="midnightblue" stroke="midnightblue" points="635.111,-200.714 627.647,-193.195 628.792,-203.727 635.111,-200.714"/>
</g>
<!-- Node16 -->
<g id="node16" class="node"><title>Node16</title>
<polygon fill="none" stroke="#bfbfbf" points="663.5,-174 663.5,-193 707.5,-193 707.5,-174 663.5,-174"/>
<text text-anchor="middle" x="685.5" y="-181" font-family="Helvetica,sans-Serif" font-size="10.00">TH2.h</text>
</g>
<!-- Node1&#45;&gt;Node16 -->
<g id="edge21" class="edge"><title>Node1&#45;&gt;Node16</title>
<path fill="none" stroke="midnightblue" d="M661.227,-235.396C665.821,-225.763 671.948,-212.914 676.898,-202.537"/>
<polygon fill="midnightblue" stroke="midnightblue" points="680.208,-203.727 681.353,-193.195 673.889,-200.714 680.208,-203.727"/>
</g>
<!-- Node17 -->
<g id="node17" class="node"><title>Node17</title>
<polygon fill="none" stroke="#bfbfbf" points="726,-174 726,-193 773,-193 773,-174 726,-174"/>
<text text-anchor="middle" x="749.5" y="-181" font-family="Helvetica,sans-Serif" font-size="10.00">TList.h</text>
</g>
<!-- Node1&#45;&gt;Node17 -->
<g id="edge22" class="edge"><title>Node1&#45;&gt;Node17</title>
<path fill="none" stroke="midnightblue" d="M675.114,-235.396C690.897,-224.597 712.587,-209.756 728.473,-198.887"/>
<polygon fill="midnightblue" stroke="midnightblue" points="730.79,-201.542 737.067,-193.007 726.837,-195.765 730.79,-201.542"/>
</g>
<!-- Node18 -->
<g id="node18" class="node"><title>Node18</title>
<polygon fill="none" stroke="#bfbfbf" points="791,-174 791,-193 844,-193 844,-174 791,-174"/>
<text text-anchor="middle" x="817.5" y="-181" font-family="Helvetica,sans-Serif" font-size="10.00">TMath.h</text>
</g>
<!-- Node1&#45;&gt;Node18 -->
<g id="edge23" class="edge"><title>Node1&#45;&gt;Node18</title>
<path fill="none" stroke="midnightblue" d="M690.703,-235.406C716.372,-225.366 751.605,-211.493 782.5,-199 784.093,-198.356 785.725,-197.692 787.372,-197.02"/>
<polygon fill="midnightblue" stroke="midnightblue" points="788.878,-200.185 796.796,-193.146 786.216,-193.711 788.878,-200.185"/>
</g>
<!-- Node19 -->
<g id="node19" class="node"><title>Node19</title>
<polygon fill="none" stroke="#bfbfbf" points="862,-174 862,-193 935,-193 935,-174 862,-174"/>
<text text-anchor="middle" x="898.5" y="-181" font-family="Helvetica,sans-Serif" font-size="10.00">TPaveText.h</text>
</g>
<!-- Node1&#45;&gt;Node19 -->
<g id="edge24" class="edge"><title>Node1&#45;&gt;Node19</title>
<path fill="none" stroke="midnightblue" d="M713.975,-235.448C753.663,-225.817 806.914,-212.402 853.5,-199 856.655,-198.092 859.923,-197.114 863.191,-196.11"/>
<polygon fill="midnightblue" stroke="midnightblue" points="864.395,-199.401 872.885,-193.063 862.296,-192.723 864.395,-199.401"/>
</g>
<!-- Node20 -->
<g id="node20" class="node"><title>Node20</title>
<polygon fill="none" stroke="#bfbfbf" points="953.5,-174 953.5,-193 1007.5,-193 1007.5,-174 953.5,-174"/>
<text text-anchor="middle" x="980.5" y="-181" font-family="Helvetica,sans-Serif" font-size="10.00">iostream</text>
</g>
<!-- Node1&#45;&gt;Node20 -->
<g id="edge25" class="edge"><title>Node1&#45;&gt;Node20</title>
<path fill="none" stroke="midnightblue" d="M719.592,-242.149C778.951,-234.51 868.69,-220.607 944.5,-199 946.938,-198.305 949.437,-197.501 951.927,-196.636"/>
<polygon fill="midnightblue" stroke="midnightblue" points="953.209,-199.893 961.331,-193.089 950.739,-193.343 953.209,-199.893"/>
</g>
<!-- Node21 -->
<g id="node21" class="node"><title>Node21</title>
<polygon fill="none" stroke="#bfbfbf" points="1025.5,-174 1025.5,-193 1075.5,-193 1075.5,-174 1025.5,-174"/>
<text text-anchor="middle" x="1050.5" y="-181" font-family="Helvetica,sans-Serif" font-size="10.00">fstream</text>
</g>
<!-- Node1&#45;&gt;Node21 -->
<g id="edge26" class="edge"><title>Node1&#45;&gt;Node21</title>
<path fill="none" stroke="midnightblue" d="M719.633,-245.614C792.925,-240.051 915.004,-227.184 1016.5,-199 1018.8,-198.363 1021.14,-197.605 1023.47,-196.776"/>
<polygon fill="midnightblue" stroke="midnightblue" points="1024.8,-200.013 1032.82,-193.086 1022.23,-193.502 1024.8,-200.013"/>
</g>
<!-- Node5 -->
<g id="node5" class="node"><title>Node5</title>
<g id="a_node5"><a xlink:href="CheckInterface_8h.html" target="_top" xlink:title="QualityControl/CheckInterface.h">
<polygon fill="none" stroke="black" points="470,-112.5 470,-131.5 627,-131.5 627,-112.5 470,-112.5"/>
<text text-anchor="middle" x="548.5" y="-119.5" font-family="Helvetica,sans-Serif" font-size="10.00">QualityControl/CheckInterface.h</text>
</a>
</g>
</g>
<!-- Node4&#45;&gt;Node5 -->
<g id="edge4" class="edge"><title>Node4&#45;&gt;Node5</title>
<path fill="none" stroke="midnightblue" d="M431.129,-173.975C454.324,-163.901 493.119,-147.053 519.713,-135.502"/>
<polygon fill="midnightblue" stroke="midnightblue" points="521.13,-138.703 528.908,-131.509 518.341,-132.282 521.13,-138.703"/>
</g>
<!-- Node7 -->
<g id="node7" class="node"><title>Node7</title>
<g id="a_node7"><a xlink:href="MonitorObject_8h.html" target="_top" xlink:title="QualityControl/MonitorObject.h">
<polygon fill="none" stroke="black" points="632,-56.5 632,-75.5 783,-75.5 783,-56.5 632,-56.5"/>
<text text-anchor="middle" x="707.5" y="-63.5" font-family="Helvetica,sans-Serif" font-size="10.00">QualityControl/MonitorObject.h</text>
</a>
</g>
</g>
<!-- Node4&#45;&gt;Node7 -->
<g id="edge16" class="edge"><title>Node4&#45;&gt;Node7</title>
<path fill="none" stroke="midnightblue" d="M450.568,-173.999C513.891,-160.183 632.346,-134.168 636.5,-132 659.535,-119.977 680.78,-98.5808 693.912,-83.6325"/>
<polygon fill="midnightblue" stroke="midnightblue" points="696.849,-85.582 700.658,-75.6959 691.515,-81.0483 696.849,-85.582"/>
</g>
<!-- Node4&#45;&gt;Node8 -->
<g id="edge18" class="edge"><title>Node4&#45;&gt;Node8</title>
<path fill="none" stroke="midnightblue" d="M408.539,-173.796C402.566,-155.791 389.159,-113.041 383.5,-76 381.151,-60.626 380.461,-42.9891 380.325,-29.9696"/>
<polygon fill="midnightblue" stroke="midnightblue" points="383.825,-29.8879 380.32,-19.8896 376.825,-29.8914 383.825,-29.8879"/>
</g>
<!-- Node13 -->
<g id="node13" class="node"><title>Node13</title>
<g id="a_node13"><a xlink:href="Quality_8h.html" target="_top" xlink:title="QualityControl/Quality.h">
<polygon fill="none" stroke="black" points="392,-56.5 392,-75.5 513,-75.5 513,-56.5 392,-56.5"/>
<text text-anchor="middle" x="452.5" y="-63.5" font-family="Helvetica,sans-Serif" font-size="10.00">QualityControl/Quality.h</text>
</a>
</g>
</g>
<!-- Node4&#45;&gt;Node13 -->
<g id="edge17" class="edge"><title>Node4&#45;&gt;Node13</title>
<path fill="none" stroke="midnightblue" d="M414.582,-173.819C421.23,-155.09 437.042,-110.546 446.007,-85.2924"/>
<polygon fill="midnightblue" stroke="midnightblue" points="449.336,-86.3767 449.383,-75.782 442.739,-84.035 449.336,-86.3767"/>
</g>
<!-- Node6 -->
<g id="node6" class="node"><title>Node6</title>
<polygon fill="none" stroke="#bfbfbf" points="531,-56.5 531,-75.5 614,-75.5 614,-56.5 531,-56.5"/>
<text text-anchor="middle" x="572.5" y="-63.5" font-family="Helvetica,sans-Serif" font-size="10.00">unordered_map</text>
</g>
<!-- Node5&#45;&gt;Node6 -->
<g id="edge5" class="edge"><title>Node5&#45;&gt;Node6</title>
<path fill="none" stroke="midnightblue" d="M552.463,-112.083C555.713,-104.77 560.419,-94.1814 564.454,-85.1034"/>
<polygon fill="midnightblue" stroke="midnightblue" points="567.748,-86.3107 568.611,-75.7511 561.351,-83.4677 567.748,-86.3107"/>
</g>
<!-- Node5&#45;&gt;Node7 -->
<g id="edge6" class="edge"><title>Node5&#45;&gt;Node7</title>
<path fill="none" stroke="midnightblue" d="M573.694,-112.444C600.443,-103.359 642.903,-88.9388 672.805,-78.7831"/>
<polygon fill="midnightblue" stroke="midnightblue" points="674.081,-82.0464 682.424,-75.5164 671.829,-75.4182 674.081,-82.0464"/>
</g>
<!-- Node5&#45;&gt;Node13 -->
<g id="edge12" class="edge"><title>Node5&#45;&gt;Node13</title>
<path fill="none" stroke="midnightblue" d="M533.076,-112.324C517.96,-103.822 494.685,-90.7288 477.029,-80.7975"/>
<polygon fill="midnightblue" stroke="midnightblue" points="478.317,-77.5066 467.886,-75.6545 474.886,-83.6077 478.317,-77.5066"/>
</g>
<!-- Node7&#45;&gt;Node8 -->
<g id="edge7" class="edge"><title>Node7&#45;&gt;Node8</title>
<path fill="none" stroke="midnightblue" d="M651.371,-56.4834C594.781,-47.7783 504.961,-33.638 427.5,-20 422.215,-19.0695 416.605,-18.0356 411.17,-17.0097"/>
<polygon fill="midnightblue" stroke="midnightblue" points="411.546,-13.5182 401.066,-15.076 410.23,-20.3934 411.546,-13.5182"/>
</g>
<!-- Node9 -->
<g id="node9" class="node"><title>Node9</title>
<polygon fill="none" stroke="#bfbfbf" points="559,-0.5 559,-19.5 594,-19.5 594,-0.5 559,-0.5"/>
<text text-anchor="middle" x="576.5" y="-7.5" font-family="Helvetica,sans-Serif" font-size="10.00">map</text>
</g>
<!-- Node7&#45;&gt;Node9 -->
<g id="edge8" class="edge"><title>Node7&#45;&gt;Node9</title>
<path fill="none" stroke="midnightblue" d="M686.743,-56.4435C664.296,-47.1907 628.42,-32.4021 603.725,-22.2227"/>
<polygon fill="midnightblue" stroke="midnightblue" points="604.799,-18.8794 594.219,-18.3042 602.131,-25.3511 604.799,-18.8794"/>
</g>
<!-- Node10 -->
<g id="node10" class="node"><title>Node10</title>
<polygon fill="none" stroke="#bfbfbf" points="436.5,-0.5 436.5,-19.5 492.5,-19.5 492.5,-0.5 436.5,-0.5"/>
<text text-anchor="middle" x="464.5" y="-7.5" font-family="Helvetica,sans-Serif" font-size="10.00">Rtypes.h</text>
</g>
<!-- Node7&#45;&gt;Node10 -->
<g id="edge9" class="edge"><title>Node7&#45;&gt;Node10</title>
<path fill="none" stroke="midnightblue" d="M668.996,-56.4435C623.431,-46.3179 548.035,-29.5632 502.632,-19.4738"/>
<polygon fill="midnightblue" stroke="midnightblue" points="503.118,-15.9965 492.597,-17.2437 501.599,-22.8298 503.118,-15.9965"/>
</g>
<!-- Node11 -->
<g id="node11" class="node"><title>Node11</title>
<polygon fill="none" stroke="#bfbfbf" points="771,-0.5 771,-19.5 830,-19.5 830,-0.5 771,-0.5"/>
<text text-anchor="middle" x="800.5" y="-7.5" font-family="Helvetica,sans-Serif" font-size="10.00">TObject.h</text>
</g>
<!-- Node7&#45;&gt;Node11 -->
<g id="edge10" class="edge"><title>Node7&#45;&gt;Node11</title>
<path fill="none" stroke="midnightblue" d="M722.442,-56.324C737.085,-47.8215 759.634,-34.7288 776.738,-24.7975"/>
<polygon fill="midnightblue" stroke="midnightblue" points="778.705,-27.7027 785.595,-19.6545 775.19,-21.6491 778.705,-27.7027"/>
</g>
<!-- Node12 -->
<g id="node12" class="node"><title>Node12</title>
<polygon fill="none" stroke="#bfbfbf" points="636.5,-0.5 636.5,-19.5 752.5,-19.5 752.5,-0.5 636.5,-0.5"/>
<text text-anchor="middle" x="694.5" y="-7.5" font-family="Helvetica,sans-Serif" font-size="10.00">Common/Exceptions.h</text>
</g>
<!-- Node7&#45;&gt;Node12 -->
<g id="edge11" class="edge"><title>Node7&#45;&gt;Node12</title>
<path fill="none" stroke="midnightblue" d="M705.353,-56.083C703.631,-48.9272 701.153,-38.6353 699,-29.6911"/>
<polygon fill="midnightblue" stroke="midnightblue" points="702.35,-28.6541 696.607,-19.7511 695.545,-30.2925 702.35,-28.6541"/>
</g>
<!-- Node13&#45;&gt;Node8 -->
<g id="edge14" class="edge"><title>Node13&#45;&gt;Node8</title>
<path fill="none" stroke="midnightblue" d="M440.932,-56.324C430.08,-48.1849 413.619,-35.8395 400.617,-26.0874"/>
<polygon fill="midnightblue" stroke="midnightblue" points="402.379,-23.0339 392.279,-19.8339 398.179,-28.6339 402.379,-23.0339"/>
</g>
<!-- Node13&#45;&gt;Node9 -->
<g id="edge15" class="edge"><title>Node13&#45;&gt;Node9</title>
<path fill="none" stroke="midnightblue" d="M472.148,-56.4435C493.062,-47.3359 526.292,-32.865 549.621,-22.7053"/>
<polygon fill="midnightblue" stroke="midnightblue" points="551.178,-25.845 558.949,-18.6433 548.383,-19.4271 551.178,-25.845"/>
</g>
<!-- Node13&#45;&gt;Node10 -->
<g id="edge13" class="edge"><title>Node13&#45;&gt;Node10</title>
<path fill="none" stroke="midnightblue" d="M454.482,-56.083C456.072,-48.9272 458.359,-38.6353 460.346,-29.6911"/>
<polygon fill="midnightblue" stroke="midnightblue" points="463.803,-30.2722 462.555,-19.7511 456.969,-28.7537 463.803,-30.2722"/>
</g>
</g>
</svg>
