<?xml version="1.0" encoding="UTF-8" standalone="no"?>
<!DOCTYPE svg PUBLIC "-//W3C//DTD SVG 1.1//EN"
 "http://www.w3.org/Graphics/SVG/1.1/DTD/svg11.dtd">
<!-- Generated by graphviz version 2.38.0 (20140413.2041)
 -->
<!-- Title: Modules/TPC/src/PID.cxx Pages: 1 -->
<!--zoomable 319 -->
<svg id="main" version="1.1" xmlns="http://www.w3.org/2000/svg" xmlns:xlink="http://www.w3.org/1999/xlink" xml:space="preserve" onload="init(evt)">
<style type="text/css"><![CDATA[
.edge:hover path { stroke: red; }
.edge:hover polygon { stroke: red; fill: red; }
]]></style>
<script type="text/javascript"><![CDATA[
var edges = document.getElementsByTagName('g');
if (edges && edges.length) {
  for (var i=0;i<edges.length;i++) {
    if (edges[i].id.substr(0,4)=='edge') {
      edges[i].setAttribute('class','edge');
    }
  }
}
]]></script>
        <defs>
                <circle id="rim" cx="0" cy="0" r="7"/>
                <circle id="rim2" cx="0" cy="0" r="3.5"/>
                <g id="zoomPlus">
                        <use xlink:href="#rim" fill="#404040">
                                <set attributeName="fill" to="#808080" begin="zoomplus.mouseover" end="zoomplus.mouseout"/>
                        </use>
                        <path d="M-4,0h8M0,-4v8" fill="none" stroke="white" stroke-width="1.5" pointer-events="none"/>
                </g>
                <g id="zoomMin">
                        <use xlink:href="#rim" fill="#404040">
                                <set attributeName="fill" to="#808080" begin="zoomminus.mouseover" end="zoomminus.mouseout"/>
                        </use>
                        <path d="M-4,0h8" fill="none" stroke="white" stroke-width="1.5" pointer-events="none"/>
                </g>
                <g id="dirArrow">
                        <path fill="none" stroke="white" stroke-width="1.5" d="M0,-3.0v7 M-2.5,-0.5L0,-3.0L2.5,-0.5"/>
                </g>
               <g id="resetDef">
                       <use xlink:href="#rim2" fill="#404040">
                               <set attributeName="fill" to="#808080" begin="reset.mouseover" end="reset.mouseout"/>
                       </use>
               </g>
        </defs>

<script type="text/javascript">
var viewWidth = 1432;
var viewHeight = 319;
var sectionId = 'dynsection-0';
</script>
<script xlink:href="svgpan.js"/>
<svg id="graph" class="graph">
<g id="viewport">
<title>Modules/TPC/src/PID.cxx</title>
<!-- Node1 -->
<g id="node1" class="node"><title>Node1</title>
<polygon fill="#bfbfbf" stroke="black" points="254.5,-291.5 254.5,-310.5 386.5,-310.5 386.5,-291.5 254.5,-291.5"/>
<text text-anchor="middle" x="320.5" y="-298.5" font-family="Helvetica,sans-Serif" font-size="10.00">Modules/TPC/src/PID.cxx</text>
</g>
<!-- Node2 -->
<g id="node2" class="node"><title>Node2</title>
<polygon fill="none" stroke="#bfbfbf" points="0,-235.5 0,-254.5 65,-254.5 65,-235.5 0,-235.5"/>
<text text-anchor="middle" x="32.5" y="-242.5" font-family="Helvetica,sans-Serif" font-size="10.00">TCanvas.h</text>
</g>
<!-- Node1&#45;&gt;Node2 -->
<g id="edge1" class="edge"><title>Node1&#45;&gt;Node2</title>
<path fill="none" stroke="midnightblue" d="M271.409,-291.469C223.833,-283.101 149.377,-269.739 75.0478,-255.059"/>
<polygon fill="midnightblue" stroke="midnightblue" points="75.5292,-251.586 65.0393,-253.074 74.1673,-258.453 75.5292,-251.586"/>
</g>
<!-- Node3 -->
<g id="node3" class="node"><title>Node3</title>
<polygon fill="none" stroke="#bfbfbf" points="83.5,-235.5 83.5,-254.5 127.5,-254.5 127.5,-235.5 83.5,-235.5"/>
<text text-anchor="middle" x="105.5" y="-242.5" font-family="Helvetica,sans-Serif" font-size="10.00">TH1.h</text>
</g>
<!-- Node1&#45;&gt;Node3 -->
<g id="edge2" class="edge"><title>Node1&#45;&gt;Node3</title>
<path fill="none" stroke="midnightblue" d="M283.726,-291.494C248.535,-283.246 193.738,-270.123 137.576,-255.209"/>
<polygon fill="midnightblue" stroke="midnightblue" points="138.384,-251.802 127.819,-252.603 136.578,-258.565 138.384,-251.802"/>
</g>
<!-- Node4 -->
<g id="node4" class="node"><title>Node4</title>
<polygon fill="none" stroke="#bfbfbf" points="145.5,-235.5 145.5,-254.5 189.5,-254.5 189.5,-235.5 145.5,-235.5"/>
<text text-anchor="middle" x="167.5" y="-242.5" font-family="Helvetica,sans-Serif" font-size="10.00">TH2.h</text>
</g>
<!-- Node1&#45;&gt;Node4 -->
<g id="edge3" class="edge"><title>Node1&#45;&gt;Node4</title>
<path fill="none" stroke="midnightblue" d="M296.257,-291.444C270.026,-282.186 228.095,-267.387 199.252,-257.207"/>
<polygon fill="midnightblue" stroke="midnightblue" points="200.238,-253.843 189.643,-253.815 197.908,-260.444 200.238,-253.843"/>
</g>
<!-- Node5 -->
<g id="node5" class="node"><title>Node5</title>
<polygon fill="none" stroke="#bfbfbf" points="159.5,-123.5 159.5,-142.5 319.5,-142.5 319.5,-123.5 159.5,-123.5"/>
<text text-anchor="middle" x="239.5" y="-130.5" font-family="Helvetica,sans-Serif" font-size="10.00">Framework/ProcessingContext.h</text>
</g>
<!-- Node1&#45;&gt;Node5 -->
<g id="edge4" class="edge"><title>Node1&#45;&gt;Node5</title>
<path fill="none" stroke="midnightblue" d="M287.514,-291.438C269.037,-284.769 247.548,-273.453 236.5,-255 217.412,-223.119 226.125,-177.548 233.34,-152.412"/>
<polygon fill="midnightblue" stroke="midnightblue" points="236.731,-153.293 236.35,-142.705 230.045,-151.22 236.731,-153.293"/>
</g>
<!-- Node6 -->
<g id="node6" class="node"><title>Node6</title>
<polygon fill="none" stroke="#bfbfbf" points="245.5,-235.5 245.5,-254.5 395.5,-254.5 395.5,-235.5 245.5,-235.5"/>
<text text-anchor="middle" x="320.5" y="-242.5" font-family="Helvetica,sans-Serif" font-size="10.00">DataFormatsTPC/TrackTPC.h</text>
</g>
<!-- Node1&#45;&gt;Node6 -->
<g id="edge5" class="edge"><title>Node1&#45;&gt;Node6</title>
<path fill="none" stroke="midnightblue" d="M320.5,-291.083C320.5,-284.006 320.5,-273.861 320.5,-264.986"/>
<polygon fill="midnightblue" stroke="midnightblue" points="324,-264.751 320.5,-254.751 317,-264.751 324,-264.751"/>
</g>
<!-- Node7 -->
<g id="node7" class="node"><title>Node7</title>
<polygon fill="none" stroke="#bfbfbf" points="413,-235.5 413,-254.5 510,-254.5 510,-235.5 413,-235.5"/>
<text text-anchor="middle" x="461.5" y="-242.5" font-family="Helvetica,sans-Serif" font-size="10.00">TPCQC/Helpers.h</text>
</g>
<!-- Node1&#45;&gt;Node7 -->
<g id="edge6" class="edge"><title>Node1&#45;&gt;Node7</title>
<path fill="none" stroke="midnightblue" d="M342.842,-291.444C366.253,-282.478 403.236,-268.314 429.69,-258.183"/>
<polygon fill="midnightblue" stroke="midnightblue" points="431.176,-261.361 439.263,-254.516 428.672,-254.824 431.176,-261.361"/>
</g>
<!-- Node8 -->
<g id="node8" class="node"><title>Node8</title>
<polygon fill="none" stroke="#bfbfbf" points="528.5,-235.5 528.5,-254.5 658.5,-254.5 658.5,-235.5 528.5,-235.5"/>
<text text-anchor="middle" x="593.5" y="-242.5" font-family="Helvetica,sans-Serif" font-size="10.00">Framework/InputRecord.h</text>
</g>
<!-- Node1&#45;&gt;Node8 -->
<g id="edge7" class="edge"><title>Node1&#45;&gt;Node8</title>
<path fill="none" stroke="midnightblue" d="M363.758,-291.444C411.681,-281.964 488.978,-266.675 540.5,-256.483"/>
<polygon fill="midnightblue" stroke="midnightblue" points="541.314,-259.89 550.445,-254.516 539.956,-253.023 541.314,-259.89"/>
</g>
<!-- Node9 -->
<g id="node9" class="node"><title>Node9</title>
<g id="a_node9"><a xlink:href="QcInfoLogger_8h.html" target="_top" xlink:title="QualityControl/QcInfoLogger.h">
<polygon fill="none" stroke="black" points="381,-123.5 381,-142.5 530,-142.5 530,-123.5 381,-123.5"/>
<text text-anchor="middle" x="455.5" y="-130.5" font-family="Helvetica,sans-Serif" font-size="10.00">QualityControl/QcInfoLogger.h</text>
</a>
</g>
</g>
<!-- Node1&#45;&gt;Node9 -->
<g id="edge8" class="edge"><title>Node1&#45;&gt;Node9</title>
<path fill="none" stroke="midnightblue" d="M386.541,-296.072C482.028,-289.71 649.281,-275.735 667.5,-255 717.798,-197.758 592.851,-161.233 514.023,-144.563"/>
<polygon fill="midnightblue" stroke="midnightblue" points="514.68,-141.125 504.179,-142.533 513.266,-147.98 514.68,-141.125"/>
</g>
<!-- Node12 -->
<g id="node12" class="node"><title>Node12</title>
<g id="a_node12"><a xlink:href="PID_8h.html" target="_top" xlink:title="TPC/PID.h">
<polygon fill="none" stroke="black" points="722,-235.5 722,-254.5 787,-254.5 787,-235.5 722,-235.5"/>
<text text-anchor="middle" x="754.5" y="-242.5" font-family="Helvetica,sans-Serif" font-size="10.00">TPC/PID.h</text>
</a>
</g>
</g>
<!-- Node1&#45;&gt;Node12 -->
<g id="edge11" class="edge"><title>Node1&#45;&gt;Node12</title>
<path fill="none" stroke="midnightblue" d="M386.526,-293.139C462.421,-285.03 590.666,-270.647 700.5,-255 704.199,-254.473 708.035,-253.896 711.88,-253.296"/>
<polygon fill="midnightblue" stroke="midnightblue" points="712.666,-256.714 721.986,-251.675 711.557,-249.803 712.666,-256.714"/>
</g>
<!-- Node10 -->
<g id="node10" class="node"><title>Node10</title>
<polygon fill="none" stroke="#bfbfbf" points="308.5,-62 308.5,-81 438.5,-81 438.5,-62 308.5,-62"/>
<text text-anchor="middle" x="373.5" y="-69" font-family="Helvetica,sans-Serif" font-size="10.00">InfoLogger/InfoLogger.hxx</text>
</g>
<!-- Node9&#45;&gt;Node10 -->
<g id="edge9" class="edge"><title>Node9&#45;&gt;Node10</title>
<path fill="none" stroke="midnightblue" d="M443.751,-123.475C430.721,-114.02 409.464,-98.5961 393.741,-87.1871"/>
<polygon fill="midnightblue" stroke="midnightblue" points="395.376,-84.0492 385.227,-81.0091 391.265,-89.7149 395.376,-84.0492"/>
</g>
<!-- Node11 -->
<g id="node11" class="node"><title>Node11</title>
<polygon fill="none" stroke="#bfbfbf" points="456.5,-62 456.5,-81 618.5,-81 618.5,-62 456.5,-62"/>
<text text-anchor="middle" x="537.5" y="-69" font-family="Helvetica,sans-Serif" font-size="10.00">InfoLogger/InfoLoggerMacros.hxx</text>
</g>
<!-- Node9&#45;&gt;Node11 -->
<g id="edge10" class="edge"><title>Node9&#45;&gt;Node11</title>
<path fill="none" stroke="midnightblue" d="M467.249,-123.475C480.279,-114.02 501.536,-98.5961 517.259,-87.1871"/>
<polygon fill="midnightblue" stroke="midnightblue" points="519.735,-89.7149 525.773,-81.0091 515.624,-84.0492 519.735,-89.7149"/>
</g>
<!-- Node13 -->
<g id="node13" class="node"><title>Node13</title>
<polygon fill="none" stroke="#bfbfbf" points="714.5,-179.5 714.5,-198.5 794.5,-198.5 794.5,-179.5 714.5,-179.5"/>
<text text-anchor="middle" x="754.5" y="-186.5" font-family="Helvetica,sans-Serif" font-size="10.00">TPCQC/PID.h</text>
</g>
<!-- Node12&#45;&gt;Node13 -->
<g id="edge12" class="edge"><title>Node12&#45;&gt;Node13</title>
<path fill="none" stroke="midnightblue" d="M754.5,-235.083C754.5,-228.006 754.5,-217.861 754.5,-208.986"/>
<polygon fill="midnightblue" stroke="midnightblue" points="758,-208.751 754.5,-198.751 751,-208.751 758,-208.751"/>
</g>
<!-- Node14 -->
<g id="node14" class="node"><title>Node14</title>
<g id="a_node14"><a xlink:href="TaskInterface_8h.html" target="_top" xlink:title="QualityControl/TaskInterface.h">
<polygon fill="none" stroke="black" points="812.5,-179.5 812.5,-198.5 962.5,-198.5 962.5,-179.5 812.5,-179.5"/>
<text text-anchor="middle" x="887.5" y="-186.5" font-family="Helvetica,sans-Serif" font-size="10.00">QualityControl/TaskInterface.h</text>
</a>
</g>
</g>
<!-- Node12&#45;&gt;Node14 -->
<g id="edge13" class="edge"><title>Node12&#45;&gt;Node14</title>
<path fill="none" stroke="midnightblue" d="M775.574,-235.444C797.56,-226.517 832.234,-212.439 857.164,-202.317"/>
<polygon fill="midnightblue" stroke="midnightblue" points="858.576,-205.521 866.524,-198.516 855.942,-199.035 858.576,-205.521"/>
</g>
<!-- Node14&#45;&gt;Node5 -->
<g id="edge19" class="edge"><title>Node14&#45;&gt;Node5</title>
<path fill="none" stroke="midnightblue" d="M812.404,-179.852C809.398,-179.558 806.421,-179.273 803.5,-179 636.58,-163.402 441.545,-148.601 330.074,-140.467"/>
<polygon fill="midnightblue" stroke="midnightblue" points="330.109,-136.96 319.882,-139.725 329.601,-143.942 330.109,-136.96"/>
</g>
<!-- Node14&#45;&gt;Node9 -->
<g id="edge37" class="edge"><title>Node14&#45;&gt;Node9</title>
<path fill="none" stroke="midnightblue" d="M819.048,-179.444C741.475,-169.747 615.267,-153.971 533.828,-143.791"/>
<polygon fill="midnightblue" stroke="midnightblue" points="533.988,-140.284 523.631,-142.516 533.12,-147.23 533.988,-140.284"/>
</g>
<!-- Node15 -->
<g id="node15" class="node"><title>Node15</title>
<polygon fill="none" stroke="#bfbfbf" points="880,-0.5 880,-19.5 915,-19.5 915,-0.5 880,-0.5"/>
<text text-anchor="middle" x="897.5" y="-7.5" font-family="Helvetica,sans-Serif" font-size="10.00">map</text>
</g>
<!-- Node14&#45;&gt;Node15 -->
<g id="edge14" class="edge"><title>Node14&#45;&gt;Node15</title>
<path fill="none" stroke="midnightblue" d="M902.161,-179.402C913.906,-171.585 929.531,-158.862 936.5,-143 953.964,-103.251 926.995,-53.435 909.866,-27.8629"/>
<polygon fill="midnightblue" stroke="midnightblue" points="912.694,-25.7996 904.101,-19.602 906.953,-29.8056 912.694,-25.7996"/>
</g>
<!-- Node16 -->
<g id="node16" class="node"><title>Node16</title>
<polygon fill="none" stroke="#bfbfbf" points="1324.5,-62 1324.5,-81 1376.5,-81 1376.5,-62 1324.5,-62"/>
<text text-anchor="middle" x="1350.5" y="-69" font-family="Helvetica,sans-Serif" font-size="10.00">memory</text>
</g>
<!-- Node14&#45;&gt;Node16 -->
<g id="edge15" class="edge"><title>Node14&#45;&gt;Node16</title>
<path fill="none" stroke="midnightblue" d="M962.636,-183.775C1027.55,-178.606 1123.29,-167.314 1203.5,-143 1249.74,-128.984 1299.67,-102.313 1327.82,-86.0964"/>
<polygon fill="midnightblue" stroke="midnightblue" points="1329.62,-89.097 1336.49,-81.0309 1326.09,-83.0526 1329.62,-89.097"/>
</g>
<!-- Node17 -->
<g id="node17" class="node"><title>Node17</title>
<polygon fill="none" stroke="#bfbfbf" points="1219,-0.5 1219,-19.5 1260,-19.5 1260,-0.5 1219,-0.5"/>
<text text-anchor="middle" x="1239.5" y="-7.5" font-family="Helvetica,sans-Serif" font-size="10.00">string</text>
</g>
<!-- Node14&#45;&gt;Node17 -->
<g id="edge16" class="edge"><title>Node14&#45;&gt;Node17</title>
<path fill="none" stroke="midnightblue" d="M962.576,-185.004C1089.79,-178.067 1338.54,-155.818 1385.5,-87 1416.01,-42.2819 1321.41,-22.1282 1270.16,-14.6718"/>
<polygon fill="midnightblue" stroke="midnightblue" points="1270.62,-11.2027 1260.24,-13.3077 1269.67,-18.1375 1270.62,-11.2027"/>
</g>
<!-- Node18 -->
<g id="node18" class="node"><title>Node18</title>
<polygon fill="none" stroke="#bfbfbf" points="1341,-0.5 1341,-19.5 1424,-19.5 1424,-0.5 1341,-0.5"/>
<text text-anchor="middle" x="1382.5" y="-7.5" font-family="Helvetica,sans-Serif" font-size="10.00">unordered_map</text>
</g>
<!-- Node14&#45;&gt;Node18 -->
<g id="edge17" class="edge"><title>Node14&#45;&gt;Node18</title>
<path fill="none" stroke="midnightblue" d="M962.651,-184.756C1069.01,-179.394 1257.62,-166.827 1321.5,-143 1362.16,-127.832 1381.46,-125.496 1401.5,-87 1411.17,-68.4186 1402.33,-44.6837 1393.75,-28.7237"/>
<polygon fill="midnightblue" stroke="midnightblue" points="1396.67,-26.7822 1388.61,-19.9067 1390.62,-30.3084 1396.67,-26.7822"/>
</g>
<!-- Node19 -->
<g id="node19" class="node"><title>Node19</title>
<polygon fill="none" stroke="#bfbfbf" points="548,-123.5 548,-142.5 673,-142.5 673,-123.5 548,-123.5"/>
<text text-anchor="middle" x="610.5" y="-130.5" font-family="Helvetica,sans-Serif" font-size="10.00">Framework/InitContext.h</text>
</g>
<!-- Node14&#45;&gt;Node19 -->
<g id="edge18" class="edge"><title>Node14&#45;&gt;Node19</title>
<path fill="none" stroke="midnightblue" d="M843.609,-179.444C794.983,-169.964 716.554,-154.675 664.276,-144.483"/>
<polygon fill="midnightblue" stroke="midnightblue" points="664.671,-140.995 654.186,-142.516 663.332,-147.865 664.671,-140.995"/>
</g>
<!-- Node20 -->
<g id="node20" class="node"><title>Node20</title>
<polygon fill="none" stroke="#bfbfbf" points="691,-123.5 691,-142.5 786,-142.5 786,-123.5 691,-123.5"/>
<text text-anchor="middle" x="738.5" y="-130.5" font-family="Helvetica,sans-Serif" font-size="10.00">CCDB/CcdbApi.h</text>
</g>
<!-- Node14&#45;&gt;Node20 -->
<g id="edge20" class="edge"><title>Node14&#45;&gt;Node20</title>
<path fill="none" stroke="midnightblue" d="M863.891,-179.444C839.042,-170.438 799.726,-156.189 771.746,-146.049"/>
<polygon fill="midnightblue" stroke="midnightblue" points="772.593,-142.633 761.999,-142.516 770.208,-149.214 772.593,-142.633"/>
</g>
<!-- Node21 -->
<g id="node21" class="node"><title>Node21</title>
<g id="a_node21"><a xlink:href="Activity_8h.html" target="_top" xlink:title="QualityControl/Activity.h">
<polygon fill="none" stroke="black" points="804,-123.5 804,-142.5 927,-142.5 927,-123.5 804,-123.5"/>
<text text-anchor="middle" x="865.5" y="-130.5" font-family="Helvetica,sans-Serif" font-size="10.00">QualityControl/Activity.h</text>
</a>
</g>
</g>
<!-- Node14&#45;&gt;Node21 -->
<g id="edge21" class="edge"><title>Node14&#45;&gt;Node21</title>
<path fill="none" stroke="midnightblue" d="M883.867,-179.083C880.888,-171.77 876.574,-161.181 872.875,-152.103"/>
<polygon fill="midnightblue" stroke="midnightblue" points="876.08,-150.691 869.065,-142.751 869.597,-153.333 876.08,-150.691"/>
</g>
<!-- Node22 -->
<g id="node22" class="node"><title>Node22</title>
<g id="a_node22"><a xlink:href="ObjectsManager_8h.html" target="_top" xlink:title="QualityControl/ObjectsManager.h">
<polygon fill="none" stroke="black" points="1033,-123.5 1033,-142.5 1194,-142.5 1194,-123.5 1033,-123.5"/>
<text text-anchor="middle" x="1113.5" y="-130.5" font-family="Helvetica,sans-Serif" font-size="10.00">QualityControl/ObjectsManager.h</text>
</a>
</g>
</g>
<!-- Node14&#45;&gt;Node22 -->
<g id="edge22" class="edge"><title>Node14&#45;&gt;Node22</title>
<path fill="none" stroke="midnightblue" d="M923.31,-179.444C962.488,-170.083 1025.38,-155.056 1068.02,-144.868"/>
<polygon fill="midnightblue" stroke="midnightblue" points="1068.94,-148.245 1077.86,-142.516 1067.32,-141.436 1068.94,-148.245"/>
</g>
<!-- Node22&#45;&gt;Node16 -->
<g id="edge36" class="edge"><title>Node22&#45;&gt;Node16</title>
<path fill="none" stroke="midnightblue" d="M1163.11,-123.439C1204.4,-115.724 1264.45,-103.126 1315.5,-87 1317.64,-86.3239 1319.83,-85.5704 1322.02,-84.7722"/>
<polygon fill="midnightblue" stroke="midnightblue" points="1323.42,-87.983 1331.47,-81.0873 1320.88,-81.4619 1323.42,-87.983"/>
</g>
<!-- Node22&#45;&gt;Node17 -->
<g id="edge35" class="edge"><title>Node22&#45;&gt;Node17</title>
<path fill="none" stroke="midnightblue" d="M1116.63,-123.488C1122.58,-108.304 1136.78,-76.2475 1157.5,-56 1172.35,-41.4829 1192.83,-30.2392 1209.61,-22.6217"/>
<polygon fill="midnightblue" stroke="midnightblue" points="1211.2,-25.7452 1218.99,-18.5583 1208.42,-19.3221 1211.2,-25.7452"/>
</g>
<!-- Node23 -->
<g id="node23" class="node"><title>Node23</title>
<g id="a_node23"><a xlink:href="MonitorObject_8h.html" target="_top" xlink:title="QualityControl/MonitorObject.h">
<polygon fill="none" stroke="black" points="959,-62 959,-81 1110,-81 1110,-62 959,-62"/>
<text text-anchor="middle" x="1034.5" y="-69" font-family="Helvetica,sans-Serif" font-size="10.00">QualityControl/MonitorObject.h</text>
</a>
</g>
</g>
<!-- Node22&#45;&gt;Node23 -->
<g id="edge23" class="edge"><title>Node22&#45;&gt;Node23</title>
<path fill="none" stroke="midnightblue" d="M1102.18,-123.475C1089.63,-114.02 1069.15,-98.5961 1054,-87.1871"/>
<polygon fill="midnightblue" stroke="midnightblue" points="1055.89,-84.2295 1045.8,-81.0091 1051.68,-89.821 1055.89,-84.2295"/>
</g>
<!-- Node27 -->
<g id="node27" class="node"><title>Node27</title>
<g id="a_node27"><a xlink:href="MonitorObjectCollection_8h.html" target="_top" xlink:title="QualityControl/MonitorObject\lCollection.h">
<polygon fill="none" stroke="black" points="756,-56.5 756,-86.5 899,-86.5 899,-56.5 756,-56.5"/>
<text text-anchor="start" x="764" y="-74.5" font-family="Helvetica,sans-Serif" font-size="10.00">QualityControl/MonitorObject</text>
<text text-anchor="middle" x="827.5" y="-63.5" font-family="Helvetica,sans-Serif" font-size="10.00">Collection.h</text>
</a>
</g>
</g>
<!-- Node22&#45;&gt;Node27 -->
<g id="edge29" class="edge"><title>Node22&#45;&gt;Node27</title>
<path fill="none" stroke="midnightblue" d="M1072.52,-123.475C1028.9,-114.4 958.851,-99.8265 904.801,-88.5818"/>
<polygon fill="midnightblue" stroke="midnightblue" points="905.408,-85.1332 894.905,-86.523 903.982,-91.9865 905.408,-85.1332"/>
</g>
<!-- Node30 -->
<g id="node30" class="node"><title>Node30</title>
<g id="a_node30"><a xlink:href="TaskConfig_8h.html" target="_top" xlink:title="QualityControl/TaskConfig.h">
<polygon fill="none" stroke="black" points="1166.5,-62 1166.5,-81 1306.5,-81 1306.5,-62 1166.5,-62"/>
<text text-anchor="middle" x="1236.5" y="-69" font-family="Helvetica,sans-Serif" font-size="10.00">QualityControl/TaskConfig.h</text>
</a>
</g>
</g>
<!-- Node22&#45;&gt;Node30 -->
<g id="edge32" class="edge"><title>Node22&#45;&gt;Node30</title>
<path fill="none" stroke="midnightblue" d="M1131.12,-123.475C1151.67,-113.534 1185.86,-96.9947 1209.71,-85.461"/>
<polygon fill="midnightblue" stroke="midnightblue" points="1211.43,-88.5145 1218.91,-81.0091 1208.38,-82.2131 1211.43,-88.5145"/>
</g>
<!-- Node23&#45;&gt;Node15 -->
<g id="edge25" class="edge"><title>Node23&#45;&gt;Node15</title>
<path fill="none" stroke="midnightblue" d="M1014.87,-61.9751C991.253,-51.7175 951.461,-34.4356 924.844,-22.8756"/>
<polygon fill="midnightblue" stroke="midnightblue" points="925.915,-19.5252 915.349,-18.7519 923.127,-25.9458 925.915,-19.5252"/>
</g>
<!-- Node23&#45;&gt;Node17 -->
<g id="edge24" class="edge"><title>Node23&#45;&gt;Node17</title>
<path fill="none" stroke="midnightblue" d="M1064.57,-61.928C1097.54,-52.5029 1152.28,-36.7916 1208.99,-20.1264"/>
<polygon fill="midnightblue" stroke="midnightblue" points="1210.25,-23.4061 1218.85,-17.2256 1208.27,-16.6908 1210.25,-23.4061"/>
</g>
<!-- Node24 -->
<g id="node24" class="node"><title>Node24</title>
<polygon fill="none" stroke="#bfbfbf" points="1144.5,-0.5 1144.5,-19.5 1200.5,-19.5 1200.5,-0.5 1144.5,-0.5"/>
<text text-anchor="middle" x="1172.5" y="-7.5" font-family="Helvetica,sans-Serif" font-size="10.00">Rtypes.h</text>
</g>
<!-- Node23&#45;&gt;Node24 -->
<g id="edge26" class="edge"><title>Node23&#45;&gt;Node24</title>
<path fill="none" stroke="midnightblue" d="M1054.27,-61.9751C1077.64,-51.9013 1116.71,-35.0525 1143.5,-23.5023"/>
<polygon fill="midnightblue" stroke="midnightblue" points="1144.97,-26.6824 1152.76,-19.5091 1142.2,-20.2544 1144.97,-26.6824"/>
</g>
<!-- Node25 -->
<g id="node25" class="node"><title>Node25</title>
<polygon fill="none" stroke="#bfbfbf" points="933,-0.5 933,-19.5 992,-19.5 992,-0.5 933,-0.5"/>
<text text-anchor="middle" x="962.5" y="-7.5" font-family="Helvetica,sans-Serif" font-size="10.00">TObject.h</text>
</g>
<!-- Node23&#45;&gt;Node25 -->
<g id="edge27" class="edge"><title>Node23&#45;&gt;Node25</title>
<path fill="none" stroke="midnightblue" d="M1024.18,-61.9751C1012.85,-52.6082 994.427,-37.3839 980.661,-26.0081"/>
<polygon fill="midnightblue" stroke="midnightblue" points="982.735,-23.1813 972.797,-19.5091 978.276,-28.5773 982.735,-23.1813"/>
</g>
<!-- Node26 -->
<g id="node26" class="node"><title>Node26</title>
<polygon fill="none" stroke="#bfbfbf" points="1010.5,-0.5 1010.5,-19.5 1126.5,-19.5 1126.5,-0.5 1010.5,-0.5"/>
<text text-anchor="middle" x="1068.5" y="-7.5" font-family="Helvetica,sans-Serif" font-size="10.00">Common/Exceptions.h</text>
</g>
<!-- Node23&#45;&gt;Node26 -->
<g id="edge28" class="edge"><title>Node23&#45;&gt;Node26</title>
<path fill="none" stroke="midnightblue" d="M1039.37,-61.9751C1044.37,-53.2268 1052.29,-39.3691 1058.61,-28.3093"/>
<polygon fill="midnightblue" stroke="midnightblue" points="1061.72,-29.928 1063.64,-19.5091 1055.64,-26.455 1061.72,-29.928"/>
</g>
<!-- Node28 -->
<g id="node28" class="node"><title>Node28</title>
<polygon fill="none" stroke="#bfbfbf" points="793,-0.5 793,-19.5 862,-19.5 862,-0.5 793,-0.5"/>
<text text-anchor="middle" x="827.5" y="-7.5" font-family="Helvetica,sans-Serif" font-size="10.00">TObjArray.h</text>
</g>
<!-- Node27&#45;&gt;Node28 -->
<g id="edge30" class="edge"><title>Node27&#45;&gt;Node28</title>
<path fill="none" stroke="midnightblue" d="M827.5,-56.3993C827.5,-48.4664 827.5,-38.458 827.5,-29.8583"/>
<polygon fill="midnightblue" stroke="midnightblue" points="831,-29.6577 827.5,-19.6578 824,-29.6578 831,-29.6577"/>
</g>
<!-- Node29 -->
<g id="node29" class="node"><title>Node29</title>
<polygon fill="none" stroke="#bfbfbf" points="646.5,-0.5 646.5,-19.5 774.5,-19.5 774.5,-0.5 646.5,-0.5"/>
<text text-anchor="middle" x="710.5" y="-7.5" font-family="Helvetica,sans-Serif" font-size="10.00">Mergers/MergeInterface.h</text>
</g>
<!-- Node27&#45;&gt;Node29 -->
<g id="edge31" class="edge"><title>Node27&#45;&gt;Node29</title>
<path fill="none" stroke="midnightblue" d="M799.773,-56.3993C780.668,-46.6837 755.442,-33.8551 736.68,-24.3137"/>
<polygon fill="midnightblue" stroke="midnightblue" points="738.025,-21.071 727.525,-19.6578 734.852,-27.3106 738.025,-21.071"/>
</g>
<!-- Node30&#45;&gt;Node17 -->
<g id="edge33" class="edge"><title>Node30&#45;&gt;Node17</title>
<path fill="none" stroke="midnightblue" d="M1236.93,-61.9751C1237.35,-53.5803 1238.01,-40.4806 1238.56,-29.6631"/>
<polygon fill="midnightblue" stroke="midnightblue" points="1242.06,-29.6727 1239.07,-19.5091 1235.07,-29.3201 1242.06,-29.6727"/>
</g>
<!-- Node30&#45;&gt;Node18 -->
<g id="edge34" class="edge"><title>Node30&#45;&gt;Node18</title>
<path fill="none" stroke="midnightblue" d="M1257.42,-61.9751C1282.25,-51.8571 1323.84,-34.9046 1352.19,-23.3507"/>
<polygon fill="midnightblue" stroke="midnightblue" points="1353.68,-26.5243 1361.62,-19.5091 1351.04,-20.0419 1353.68,-26.5243"/>
</g>
</g>
</svg>
        <g id="navigator" transform="translate(0 0)" fill="#404254">
                <rect fill="#f2f5e9" fill-opacity="0.5" stroke="#606060" stroke-width=".5" x="0" y="0" width="60" height="60"/>
                <use id="zoomplus" xlink:href="#zoomPlus" x="17" y="9" onmousedown="handleZoom(evt,'in')"/>
                <use id="zoomminus" xlink:href="#zoomMin" x="42" y="9" onmousedown="handleZoom(evt,'out')"/>
                <use id="reset" xlink:href="#resetDef" x="30" y="36" onmousedown="handleReset()"/>
                <g id="arrowUp" xlink:href="#dirArrow" transform="translate(30 24)" onmousedown="handlePan(0,-1)">
                  <use xlink:href="#rim" fill="#404040">
                        <set attributeName="fill" to="#808080" begin="arrowUp.mouseover" end="arrowUp.mouseout"/>
                  </use>
                  <path fill="none" stroke="white" stroke-width="1.5" d="M0,-3.0v7 M-2.5,-0.5L0,-3.0L2.5,-0.5"/>
                </g>
                <g id="arrowRight" xlink:href="#dirArrow" transform="rotate(90) translate(36 -43)" onmousedown="handlePan(1,0)">
                  <use xlink:href="#rim" fill="#404040">
                        <set attributeName="fill" to="#808080" begin="arrowRight.mouseover" end="arrowRight.mouseout"/>
                  </use>
                  <path fill="none" stroke="white" stroke-width="1.5" d="M0,-3.0v7 M-2.5,-0.5L0,-3.0L2.5,-0.5"/>
                </g>
                <g id="arrowDown" xlink:href="#dirArrow" transform="rotate(180) translate(-30 -48)" onmousedown="handlePan(0,1)">
                  <use xlink:href="#rim" fill="#404040">
                        <set attributeName="fill" to="#808080" begin="arrowDown.mouseover" end="arrowDown.mouseout"/>
                  </use>
                  <path fill="none" stroke="white" stroke-width="1.5" d="M0,-3.0v7 M-2.5,-0.5L0,-3.0L2.5,-0.5"/>
                </g>
                <g id="arrowLeft" xlink:href="#dirArrow" transform="rotate(270) translate(-36 17)" onmousedown="handlePan(-1,0)">
                  <use xlink:href="#rim" fill="#404040">
                        <set attributeName="fill" to="#808080" begin="arrowLeft.mouseover" end="arrowLeft.mouseout"/>
                  </use>
                  <path fill="none" stroke="white" stroke-width="1.5" d="M0,-3.0v7 M-2.5,-0.5L0,-3.0L2.5,-0.5"/>
                </g>
        </g>
        <svg viewBox="0 0 15 15" width="100%" height="30px" preserveAspectRatio="xMaxYMin meet">
         <g id="arrow_out" transform="scale(0.3 0.3)">
          <a xlink:href="PID_8cxx__incl_org.svg" target="_base">
           <rect id="button" ry="5" rx="5" y="6" x="6" height="38" width="38"
                fill="#f2f5e9" fill-opacity="0.5" stroke="#606060" stroke-width="1.0"/>
           <path id="arrow"
             d="M 11.500037,31.436501 C 11.940474,20.09759 22.043105,11.32322 32.158766,21.979434 L 37.068811,17.246167 C 37.068811,17.246167 37.088388,32 37.088388,32 L 22.160133,31.978069 C 22.160133,31.978069 26.997745,27.140456 26.997745,27.140456 C 18.528582,18.264221 13.291696,25.230495 11.500037,31.436501 z"
             style="fill:#404040;"/>
          </a>
         </g>
        </svg>
</svg>
