<?xml version="1.0" encoding="UTF-8" standalone="no"?>
<!DOCTYPE svg PUBLIC "-//W3C//DTD SVG 1.1//EN"
 "http://www.w3.org/Graphics/SVG/1.1/DTD/svg11.dtd">
<!-- Generated by graphviz version 2.38.0 (20140413.2041)
 -->
<!-- Title: Modules/TPC/src/PIDClusterCheck.cxx Pages: 1 -->
<!--zoomable 263 -->
<svg id="main" version="1.1" xmlns="http://www.w3.org/2000/svg" xmlns:xlink="http://www.w3.org/1999/xlink" xml:space="preserve" onload="init(evt)">
<style type="text/css"><![CDATA[
.edge:hover path { stroke: red; }
.edge:hover polygon { stroke: red; fill: red; }
]]></style>
<script type="text/javascript"><![CDATA[
var edges = document.getElementsByTagName('g');
if (edges && edges.length) {
  for (var i=0;i<edges.length;i++) {
    if (edges[i].id.substr(0,4)=='edge') {
      edges[i].setAttribute('class','edge');
    }
  }
}
]]></script>
        <defs>
                <circle id="rim" cx="0" cy="0" r="7"/>
                <circle id="rim2" cx="0" cy="0" r="3.5"/>
                <g id="zoomPlus">
                        <use xlink:href="#rim" fill="#404040">
                                <set attributeName="fill" to="#808080" begin="zoomplus.mouseover" end="zoomplus.mouseout"/>
                        </use>
                        <path d="M-4,0h8M0,-4v8" fill="none" stroke="white" stroke-width="1.5" pointer-events="none"/>
                </g>
                <g id="zoomMin">
                        <use xlink:href="#rim" fill="#404040">
                                <set attributeName="fill" to="#808080" begin="zoomminus.mouseover" end="zoomminus.mouseout"/>
                        </use>
                        <path d="M-4,0h8" fill="none" stroke="white" stroke-width="1.5" pointer-events="none"/>
                </g>
                <g id="dirArrow">
                        <path fill="none" stroke="white" stroke-width="1.5" d="M0,-3.0v7 M-2.5,-0.5L0,-3.0L2.5,-0.5"/>
                </g>
               <g id="resetDef">
                       <use xlink:href="#rim2" fill="#404040">
                               <set attributeName="fill" to="#808080" begin="reset.mouseover" end="reset.mouseout"/>
                       </use>
               </g>
        </defs>

<script type="text/javascript">
var viewWidth = 726;
var viewHeight = 263;
var sectionId = 'dynsection-0';
</script>
<script xlink:href="svgpan.js"/>
<svg id="graph" class="graph">
<g id="viewport">
<title>Modules/TPC/src/PIDClusterCheck.cxx</title>
<!-- Node1 -->
<g id="node1" class="node"><title>Node1</title>
<polygon fill="#bfbfbf" stroke="black" points="340,-224.5 340,-254.5 485,-254.5 485,-224.5 340,-224.5"/>
<text text-anchor="start" x="348" y="-242.5" font-family="Helvetica,sans-Serif" font-size="10.00">Modules/TPC/src/PIDCluster</text>
<text text-anchor="middle" x="412.5" y="-231.5" font-family="Helvetica,sans-Serif" font-size="10.00">Check.cxx</text>
</g>
<!-- Node2 -->
<g id="node2" class="node"><title>Node2</title>
<polygon fill="none" stroke="#bfbfbf" points="78.5,-168.5 78.5,-187.5 132.5,-187.5 132.5,-168.5 78.5,-168.5"/>
<text text-anchor="middle" x="105.5" y="-175.5" font-family="Helvetica,sans-Serif" font-size="10.00">iostream</text>
</g>
<!-- Node1&#45;&gt;Node2 -->
<g id="edge1" class="edge"><title>Node1&#45;&gt;Node2</title>
<path fill="none" stroke="midnightblue" d="M339.853,-225.285C286.32,-215.406 211.777,-201.358 146.5,-188 145.255,-187.745 143.989,-187.483 142.712,-187.217"/>
<polygon fill="midnightblue" stroke="midnightblue" points="143.334,-183.771 132.824,-185.111 141.876,-190.617 143.334,-183.771"/>
</g>
<!-- Node3 -->
<g id="node3" class="node"><title>Node3</title>
<g id="a_node3"><a xlink:href="PIDClusterCheck_8h.html" target="_top" xlink:title="TPC/PIDClusterCheck.h">
<polygon fill="none" stroke="black" points="213,-168.5 213,-187.5 338,-187.5 338,-168.5 213,-168.5"/>
<text text-anchor="middle" x="275.5" y="-175.5" font-family="Helvetica,sans-Serif" font-size="10.00">TPC/PIDClusterCheck.h</text>
</a>
</g>
</g>
<!-- Node1&#45;&gt;Node3 -->
<g id="edge2" class="edge"><title>Node1&#45;&gt;Node3</title>
<path fill="none" stroke="midnightblue" d="M380.033,-224.399C357.149,-214.461 326.766,-201.265 304.656,-191.662"/>
<polygon fill="midnightblue" stroke="midnightblue" points="306.001,-188.431 295.435,-187.658 303.213,-194.852 306.001,-188.431"/>
</g>
<!-- Node6 -->
<g id="node6" class="node"><title>Node6</title>
<g id="a_node6"><a xlink:href="MonitorObject_8h.html" target="_top" xlink:title="QualityControl/MonitorObject.h">
<polygon fill="none" stroke="black" points="57,-56.5 57,-75.5 208,-75.5 208,-56.5 57,-56.5"/>
<text text-anchor="middle" x="132.5" y="-63.5" font-family="Helvetica,sans-Serif" font-size="10.00">QualityControl/MonitorObject.h</text>
</a>
</g>
</g>
<!-- Node1&#45;&gt;Node6 -->
<g id="edge15" class="edge"><title>Node1&#45;&gt;Node6</title>
<path fill="none" stroke="midnightblue" d="M339.757,-234.987C296.571,-229.69 242.763,-217.149 203.5,-188 168.093,-161.714 147.255,-112.085 138.089,-85.2805"/>
<polygon fill="midnightblue" stroke="midnightblue" points="141.371,-84.0547 134.957,-75.6216 134.712,-86.2136 141.371,-84.0547"/>
</g>
<!-- Node12 -->
<g id="node12" class="node"><title>Node12</title>
<g id="a_node12"><a xlink:href="Quality_8h.html" target="_top" xlink:title="QualityControl/Quality.h">
<polygon fill="none" stroke="black" points="327,-56.5 327,-75.5 448,-75.5 448,-56.5 327,-56.5"/>
<text text-anchor="middle" x="387.5" y="-63.5" font-family="Helvetica,sans-Serif" font-size="10.00">QualityControl/Quality.h</text>
</a>
</g>
</g>
<!-- Node1&#45;&gt;Node12 -->
<g id="edge16" class="edge"><title>Node1&#45;&gt;Node12</title>
<path fill="none" stroke="midnightblue" d="M406.18,-224.227C402.084,-214.28 397.053,-200.588 394.5,-188 387.276,-152.378 386.614,-109.739 386.947,-85.7699"/>
<polygon fill="midnightblue" stroke="midnightblue" points="390.45,-85.6889 387.166,-75.6156 383.451,-85.5377 390.45,-85.6889"/>
</g>
<!-- Node13 -->
<g id="node13" class="node"><title>Node13</title>
<polygon fill="none" stroke="#bfbfbf" points="403,-168.5 403,-187.5 500,-187.5 500,-168.5 403,-168.5"/>
<text text-anchor="middle" x="451.5" y="-175.5" font-family="Helvetica,sans-Serif" font-size="10.00">fairlogger/Logger.h</text>
</g>
<!-- Node1&#45;&gt;Node13 -->
<g id="edge17" class="edge"><title>Node1&#45;&gt;Node13</title>
<path fill="none" stroke="midnightblue" d="M421.742,-224.399C427.293,-215.932 434.393,-205.099 440.266,-196.139"/>
<polygon fill="midnightblue" stroke="midnightblue" points="443.27,-197.94 445.825,-187.658 437.416,-194.103 443.27,-197.94"/>
</g>
<!-- Node14 -->
<g id="node14" class="node"><title>Node14</title>
<polygon fill="none" stroke="#bfbfbf" points="517.5,-168.5 517.5,-187.5 561.5,-187.5 561.5,-168.5 517.5,-168.5"/>
<text text-anchor="middle" x="539.5" y="-175.5" font-family="Helvetica,sans-Serif" font-size="10.00">TH1.h</text>
</g>
<!-- Node1&#45;&gt;Node14 -->
<g id="edge18" class="edge"><title>Node1&#45;&gt;Node14</title>
<path fill="none" stroke="midnightblue" d="M442.597,-224.399C463.62,-214.55 491.472,-201.501 511.919,-191.922"/>
<polygon fill="midnightblue" stroke="midnightblue" points="513.45,-195.07 521.02,-187.658 510.48,-188.731 513.45,-195.07"/>
</g>
<!-- Node15 -->
<g id="node15" class="node"><title>Node15</title>
<polygon fill="none" stroke="#bfbfbf" points="580,-168.5 580,-187.5 627,-187.5 627,-168.5 580,-168.5"/>
<text text-anchor="middle" x="603.5" y="-175.5" font-family="Helvetica,sans-Serif" font-size="10.00">TList.h</text>
</g>
<!-- Node1&#45;&gt;Node15 -->
<g id="edge19" class="edge"><title>Node1&#45;&gt;Node15</title>
<path fill="none" stroke="midnightblue" d="M457.764,-224.399C492.156,-213.686 538.698,-199.187 569.843,-189.485"/>
<polygon fill="midnightblue" stroke="midnightblue" points="571.269,-192.706 579.776,-186.391 569.187,-186.023 571.269,-192.706"/>
</g>
<!-- Node16 -->
<g id="node16" class="node"><title>Node16</title>
<polygon fill="none" stroke="#bfbfbf" points="645,-168.5 645,-187.5 718,-187.5 718,-168.5 645,-168.5"/>
<text text-anchor="middle" x="681.5" y="-175.5" font-family="Helvetica,sans-Serif" font-size="10.00">TPaveText.h</text>
</g>
<!-- Node1&#45;&gt;Node16 -->
<g id="edge20" class="edge"><title>Node1&#45;&gt;Node16</title>
<path fill="none" stroke="midnightblue" d="M475.909,-224.475C524.76,-213.669 591.169,-198.98 635.134,-189.256"/>
<polygon fill="midnightblue" stroke="midnightblue" points="635.972,-192.655 644.98,-187.078 634.46,-185.82 635.972,-192.655"/>
</g>
<!-- Node4 -->
<g id="node4" class="node"><title>Node4</title>
<g id="a_node4"><a xlink:href="CheckInterface_8h.html" target="_top" xlink:title="QualityControl/CheckInterface.h">
<polygon fill="none" stroke="black" points="189,-112.5 189,-131.5 346,-131.5 346,-112.5 189,-112.5"/>
<text text-anchor="middle" x="267.5" y="-119.5" font-family="Helvetica,sans-Serif" font-size="10.00">QualityControl/CheckInterface.h</text>
</a>
</g>
</g>
<!-- Node3&#45;&gt;Node4 -->
<g id="edge3" class="edge"><title>Node3&#45;&gt;Node4</title>
<path fill="none" stroke="midnightblue" d="M274.179,-168.083C273.119,-160.927 271.594,-150.635 270.269,-141.691"/>
<polygon fill="midnightblue" stroke="midnightblue" points="273.724,-141.13 268.796,-131.751 266.8,-142.156 273.724,-141.13"/>
</g>
<!-- Node5 -->
<g id="node5" class="node"><title>Node5</title>
<polygon fill="none" stroke="#bfbfbf" points="226,-56.5 226,-75.5 309,-75.5 309,-56.5 226,-56.5"/>
<text text-anchor="middle" x="267.5" y="-63.5" font-family="Helvetica,sans-Serif" font-size="10.00">unordered_map</text>
</g>
<!-- Node4&#45;&gt;Node5 -->
<g id="edge4" class="edge"><title>Node4&#45;&gt;Node5</title>
<path fill="none" stroke="midnightblue" d="M267.5,-112.083C267.5,-105.006 267.5,-94.8611 267.5,-85.9865"/>
<polygon fill="midnightblue" stroke="midnightblue" points="271,-85.751 267.5,-75.7511 264,-85.7511 271,-85.751"/>
</g>
<!-- Node4&#45;&gt;Node6 -->
<g id="edge5" class="edge"><title>Node4&#45;&gt;Node6</title>
<path fill="none" stroke="midnightblue" d="M246.109,-112.444C223.793,-103.517 188.597,-89.4387 163.292,-79.3168"/>
<polygon fill="midnightblue" stroke="midnightblue" points="164.376,-75.9807 153.791,-75.5164 161.776,-82.4801 164.376,-75.9807"/>
</g>
<!-- Node4&#45;&gt;Node12 -->
<g id="edge11" class="edge"><title>Node4&#45;&gt;Node12</title>
<path fill="none" stroke="midnightblue" d="M286.514,-112.444C306.088,-103.636 336.808,-89.8116 359.229,-79.722"/>
<polygon fill="midnightblue" stroke="midnightblue" points="360.892,-82.8119 368.575,-75.5164 358.019,-76.4284 360.892,-82.8119"/>
</g>
<!-- Node7 -->
<g id="node7" class="node"><title>Node7</title>
<polygon fill="none" stroke="#bfbfbf" points="221,-0.5 221,-19.5 262,-19.5 262,-0.5 221,-0.5"/>
<text text-anchor="middle" x="241.5" y="-7.5" font-family="Helvetica,sans-Serif" font-size="10.00">string</text>
</g>
<!-- Node6&#45;&gt;Node7 -->
<g id="edge6" class="edge"><title>Node6&#45;&gt;Node7</title>
<path fill="none" stroke="midnightblue" d="M150.013,-56.324C167.572,-47.6247 194.831,-34.1202 215.031,-24.113"/>
<polygon fill="midnightblue" stroke="midnightblue" points="216.624,-27.23 224.031,-19.6545 213.516,-20.9575 216.624,-27.23"/>
</g>
<!-- Node8 -->
<g id="node8" class="node"><title>Node8</title>
<polygon fill="none" stroke="#bfbfbf" points="285,-0.5 285,-19.5 320,-19.5 320,-0.5 285,-0.5"/>
<text text-anchor="middle" x="302.5" y="-7.5" font-family="Helvetica,sans-Serif" font-size="10.00">map</text>
</g>
<!-- Node6&#45;&gt;Node8 -->
<g id="edge7" class="edge"><title>Node6&#45;&gt;Node8</title>
<path fill="none" stroke="midnightblue" d="M159.437,-56.4435C191.033,-46.4072 243.132,-29.8582 274.978,-19.7423"/>
<polygon fill="midnightblue" stroke="midnightblue" points="276.083,-23.0636 284.554,-16.7003 273.964,-16.3921 276.083,-23.0636"/>
</g>
<!-- Node9 -->
<g id="node9" class="node"><title>Node9</title>
<polygon fill="none" stroke="#bfbfbf" points="340.5,-0.5 340.5,-19.5 396.5,-19.5 396.5,-0.5 340.5,-0.5"/>
<text text-anchor="middle" x="368.5" y="-7.5" font-family="Helvetica,sans-Serif" font-size="10.00">Rtypes.h</text>
</g>
<!-- Node6&#45;&gt;Node9 -->
<g id="edge8" class="edge"><title>Node6&#45;&gt;Node9</title>
<path fill="none" stroke="midnightblue" d="M169.895,-56.4435C213.786,-46.4007 286.177,-29.8367 330.379,-19.7226"/>
<polygon fill="midnightblue" stroke="midnightblue" points="331.201,-23.125 340.168,-17.4826 329.64,-16.3014 331.201,-23.125"/>
</g>
<!-- Node10 -->
<g id="node10" class="node"><title>Node10</title>
<polygon fill="none" stroke="#bfbfbf" points="0,-0.5 0,-19.5 59,-19.5 59,-0.5 0,-0.5"/>
<text text-anchor="middle" x="29.5" y="-7.5" font-family="Helvetica,sans-Serif" font-size="10.00">TObject.h</text>
</g>
<!-- Node6&#45;&gt;Node10 -->
<g id="edge9" class="edge"><title>Node6&#45;&gt;Node10</title>
<path fill="none" stroke="midnightblue" d="M115.951,-56.324C99.5084,-47.7034 74.0652,-34.3643 55.0316,-24.3855"/>
<polygon fill="midnightblue" stroke="midnightblue" points="56.4895,-21.198 46.0077,-19.6545 53.2391,-27.3977 56.4895,-21.198"/>
</g>
<!-- Node11 -->
<g id="node11" class="node"><title>Node11</title>
<polygon fill="none" stroke="#bfbfbf" points="77.5,-0.5 77.5,-19.5 193.5,-19.5 193.5,-0.5 77.5,-0.5"/>
<text text-anchor="middle" x="135.5" y="-7.5" font-family="Helvetica,sans-Serif" font-size="10.00">Common/Exceptions.h</text>
</g>
<!-- Node6&#45;&gt;Node11 -->
<g id="edge10" class="edge"><title>Node6&#45;&gt;Node11</title>
<path fill="none" stroke="midnightblue" d="M132.995,-56.083C133.389,-49.0059 133.952,-38.8611 134.445,-29.9865"/>
<polygon fill="midnightblue" stroke="midnightblue" points="137.954,-29.9299 135.014,-19.7511 130.964,-29.5415 137.954,-29.9299"/>
</g>
<!-- Node12&#45;&gt;Node7 -->
<g id="edge13" class="edge"><title>Node12&#45;&gt;Node7</title>
<path fill="none" stroke="midnightblue" d="M364.366,-56.4435C339.302,-47.1732 299.214,-32.3464 271.687,-22.1652"/>
<polygon fill="midnightblue" stroke="midnightblue" points="272.758,-18.8297 262.165,-18.6433 270.33,-25.395 272.758,-18.8297"/>
</g>
<!-- Node12&#45;&gt;Node8 -->
<g id="edge14" class="edge"><title>Node12&#45;&gt;Node8</title>
<path fill="none" stroke="midnightblue" d="M373.843,-56.324C360.584,-47.9002 340.232,-34.9709 324.654,-25.0741"/>
<polygon fill="midnightblue" stroke="midnightblue" points="326.44,-22.0626 316.123,-19.6545 322.687,-27.9711 326.44,-22.0626"/>
</g>
<!-- Node12&#45;&gt;Node9 -->
<g id="edge12" class="edge"><title>Node12&#45;&gt;Node9</title>
<path fill="none" stroke="midnightblue" d="M384.363,-56.083C381.817,-48.8486 378.144,-38.4087 374.973,-29.3968"/>
<polygon fill="midnightblue" stroke="midnightblue" points="378.2,-28.0225 371.579,-19.7511 371.597,-30.3459 378.2,-28.0225"/>
</g>
</g>
</svg>
        <g id="navigator" transform="translate(0 0)" fill="#404254">
                <rect fill="#f2f5e9" fill-opacity="0.5" stroke="#606060" stroke-width=".5" x="0" y="0" width="60" height="60"/>
                <use id="zoomplus" xlink:href="#zoomPlus" x="17" y="9" onmousedown="handleZoom(evt,'in')"/>
                <use id="zoomminus" xlink:href="#zoomMin" x="42" y="9" onmousedown="handleZoom(evt,'out')"/>
                <use id="reset" xlink:href="#resetDef" x="30" y="36" onmousedown="handleReset()"/>
                <g id="arrowUp" xlink:href="#dirArrow" transform="translate(30 24)" onmousedown="handlePan(0,-1)">
                  <use xlink:href="#rim" fill="#404040">
                        <set attributeName="fill" to="#808080" begin="arrowUp.mouseover" end="arrowUp.mouseout"/>
                  </use>
                  <path fill="none" stroke="white" stroke-width="1.5" d="M0,-3.0v7 M-2.5,-0.5L0,-3.0L2.5,-0.5"/>
                </g>
                <g id="arrowRight" xlink:href="#dirArrow" transform="rotate(90) translate(36 -43)" onmousedown="handlePan(1,0)">
                  <use xlink:href="#rim" fill="#404040">
                        <set attributeName="fill" to="#808080" begin="arrowRight.mouseover" end="arrowRight.mouseout"/>
                  </use>
                  <path fill="none" stroke="white" stroke-width="1.5" d="M0,-3.0v7 M-2.5,-0.5L0,-3.0L2.5,-0.5"/>
                </g>
                <g id="arrowDown" xlink:href="#dirArrow" transform="rotate(180) translate(-30 -48)" onmousedown="handlePan(0,1)">
                  <use xlink:href="#rim" fill="#404040">
                        <set attributeName="fill" to="#808080" begin="arrowDown.mouseover" end="arrowDown.mouseout"/>
                  </use>
                  <path fill="none" stroke="white" stroke-width="1.5" d="M0,-3.0v7 M-2.5,-0.5L0,-3.0L2.5,-0.5"/>
                </g>
                <g id="arrowLeft" xlink:href="#dirArrow" transform="rotate(270) translate(-36 17)" onmousedown="handlePan(-1,0)">
                  <use xlink:href="#rim" fill="#404040">
                        <set attributeName="fill" to="#808080" begin="arrowLeft.mouseover" end="arrowLeft.mouseout"/>
                  </use>
                  <path fill="none" stroke="white" stroke-width="1.5" d="M0,-3.0v7 M-2.5,-0.5L0,-3.0L2.5,-0.5"/>
                </g>
        </g>
        <svg viewBox="0 0 15 15" width="100%" height="30px" preserveAspectRatio="xMaxYMin meet">
         <g id="arrow_out" transform="scale(0.3 0.3)">
          <a xlink:href="PIDClusterCheck_8cxx__incl_org.svg" target="_base">
           <rect id="button" ry="5" rx="5" y="6" x="6" height="38" width="38"
                fill="#f2f5e9" fill-opacity="0.5" stroke="#606060" stroke-width="1.0"/>
           <path id="arrow"
             d="M 11.500037,31.436501 C 11.940474,20.09759 22.043105,11.32322 32.158766,21.979434 L 37.068811,17.246167 C 37.068811,17.246167 37.088388,32 37.088388,32 L 22.160133,31.978069 C 22.160133,31.978069 26.997745,27.140456 26.997745,27.140456 C 18.528582,18.264221 13.291696,25.230495 11.500037,31.436501 z"
             style="fill:#404040;"/>
          </a>
         </g>
        </svg>
</svg>
