<?xml version="1.0" encoding="UTF-8" standalone="no"?>
<!DOCTYPE svg PUBLIC "-//W3C//DTD SVG 1.1//EN"
 "http://www.w3.org/Graphics/SVG/1.1/DTD/svg11.dtd">
<!-- Generated by graphviz version 2.38.0 (20140413.2041)
 -->
<!-- Title: Framework/include/QualityControl/PostProcessingInterface.h Pages: 1 -->
<svg width="2299pt" height="184pt"
 viewBox="0.00 0.00 2299.00 184.00" xmlns="http://www.w3.org/2000/svg" xmlns:xlink="http://www.w3.org/1999/xlink">
<g id="graph0" class="graph" transform="scale(1 1) rotate(0) translate(4 180)">
<title>Framework/include/QualityControl/PostProcessingInterface.h</title>
<!-- Node1 -->
<g id="node1" class="node"><title>Node1</title>
<polygon fill="#bfbfbf" stroke="black" points="1454.5,-145.5 1454.5,-175.5 1621.5,-175.5 1621.5,-145.5 1454.5,-145.5"/>
<text text-anchor="start" x="1462.5" y="-163.5" font-family="Helvetica,sans-Serif" font-size="10.00">Framework/include/Quality</text>
<text text-anchor="middle" x="1538" y="-152.5" font-family="Helvetica,sans-Serif" font-size="10.00">Control/PostProcessingInterface.h</text>
</g>
<!-- Node2 -->
<g id="node2" class="node"><title>Node2</title>
<g id="a_node2"><a xlink:href="PostProcessingRunner_8h.html" target="_top" xlink:title="Framework/include/Quality\lControl/PostProcessingRunner.h">
<polygon fill="none" stroke="black" points="454,-73 454,-103 614,-103 614,-73 454,-73"/>
<text text-anchor="start" x="462" y="-91" font-family="Helvetica,sans-Serif" font-size="10.00">Framework/include/Quality</text>
<text text-anchor="middle" x="534" y="-80" font-family="Helvetica,sans-Serif" font-size="10.00">Control/PostProcessingRunner.h</text>
</a>
</g>
</g>
<!-- Node1&#45;&gt;Node2 -->
<g id="edge1" class="edge"><title>Node1&#45;&gt;Node2</title>
<path fill="none" stroke="midnightblue" d="M1444.13,-152.908C1247.99,-139.136 797.72,-107.518 614.135,-94.627"/>
<polygon fill="midnightblue" stroke="midnightblue" points="1443.91,-156.401 1454.13,-153.61 1444.4,-149.419 1443.91,-156.401"/>
</g>
<!-- Node8 -->
<g id="node8" class="node"><title>Node8</title>
<g id="a_node8"><a xlink:href="TrendingTask_8h.html" target="_top" xlink:title="Framework/include/Quality\lControl/TrendingTask.h">
<polygon fill="none" stroke="black" points="938.5,-73 938.5,-103 1071.5,-103 1071.5,-73 938.5,-73"/>
<text text-anchor="start" x="946.5" y="-91" font-family="Helvetica,sans-Serif" font-size="10.00">Framework/include/Quality</text>
<text text-anchor="middle" x="1005" y="-80" font-family="Helvetica,sans-Serif" font-size="10.00">Control/TrendingTask.h</text>
</a>
</g>
</g>
<!-- Node1&#45;&gt;Node8 -->
<g id="edge7" class="edge"><title>Node1&#45;&gt;Node8</title>
<path fill="none" stroke="midnightblue" d="M1444.28,-153.201C1351.48,-146.014 1205.62,-132.153 1081,-109 1072.28,-107.38 1063.09,-105.293 1054.23,-103.081"/>
<polygon fill="midnightblue" stroke="midnightblue" points="1444.25,-156.709 1454.49,-153.981 1444.78,-149.729 1444.25,-156.709"/>
</g>
<!-- Node11 -->
<g id="node11" class="node"><title>Node11</title>
<g id="a_node11"><a xlink:href="PostProcessingInterface_8cxx.html" target="_top" xlink:title="Framework/src/PostProcessing\lInterface.cxx">
<polygon fill="none" stroke="black" points="1090,-73 1090,-103 1244,-103 1244,-73 1090,-73"/>
<text text-anchor="start" x="1098" y="-91" font-family="Helvetica,sans-Serif" font-size="10.00">Framework/src/PostProcessing</text>
<text text-anchor="middle" x="1167" y="-80" font-family="Helvetica,sans-Serif" font-size="10.00">Interface.cxx</text>
</a>
</g>
</g>
<!-- Node1&#45;&gt;Node11 -->
<g id="edge10" class="edge"><title>Node1&#45;&gt;Node11</title>
<path fill="none" stroke="midnightblue" d="M1444.02,-144.139C1388.35,-134.717 1316.49,-121.998 1253,-109 1244.14,-107.186 1234.8,-105.146 1225.66,-103.08"/>
<polygon fill="midnightblue" stroke="midnightblue" points="1443.78,-147.648 1454.22,-145.859 1444.95,-140.745 1443.78,-147.648"/>
</g>
<!-- Node12 -->
<g id="node12" class="node"><title>Node12</title>
<g id="a_node12"><a xlink:href="testPostProcessingInterface_8cxx.html" target="_top" xlink:title="Framework/test/testPostProcessing\lInterface.cxx">
<polygon fill="none" stroke="black" points="1262.5,-73 1262.5,-103 1435.5,-103 1435.5,-73 1262.5,-73"/>
<text text-anchor="start" x="1270.5" y="-91" font-family="Helvetica,sans-Serif" font-size="10.00">Framework/test/testPostProcessing</text>
<text text-anchor="middle" x="1349" y="-80" font-family="Helvetica,sans-Serif" font-size="10.00">Interface.cxx</text>
</a>
</g>
</g>
<!-- Node1&#45;&gt;Node12 -->
<g id="edge11" class="edge"><title>Node1&#45;&gt;Node12</title>
<path fill="none" stroke="midnightblue" d="M1490.58,-141.81C1458.45,-129.827 1416.58,-114.21 1386.73,-103.073"/>
<polygon fill="midnightblue" stroke="midnightblue" points="1489.61,-145.187 1500.21,-145.403 1492.06,-138.628 1489.61,-145.187"/>
</g>
<!-- Node13 -->
<g id="node13" class="node"><title>Node13</title>
<g id="a_node13"><a xlink:href="TreeReaderPostProcessing_8h.html" target="_top" xlink:title="Modules/FT0/include\l/FT0/TreeReaderPostProcessing.h">
<polygon fill="none" stroke="black" points="1454,-73 1454,-103 1622,-103 1622,-73 1454,-73"/>
<text text-anchor="start" x="1462" y="-91" font-family="Helvetica,sans-Serif" font-size="10.00">Modules/FT0/include</text>
<text text-anchor="middle" x="1538" y="-80" font-family="Helvetica,sans-Serif" font-size="10.00">/FT0/TreeReaderPostProcessing.h</text>
</a>
</g>
</g>
<!-- Node1&#45;&gt;Node13 -->
<g id="edge12" class="edge"><title>Node1&#45;&gt;Node13</title>
<path fill="none" stroke="midnightblue" d="M1538,-135.232C1538,-124.568 1538,-112.414 1538,-103.246"/>
<polygon fill="midnightblue" stroke="midnightblue" points="1534.5,-135.233 1538,-145.233 1541.5,-135.233 1534.5,-135.233"/>
</g>
<!-- Node15 -->
<g id="node15" class="node"><title>Node15</title>
<g id="a_node15"><a xlink:href="TrendingTaskITSFhr_8h.html" target="_top" xlink:title="Modules/ITS/include\l/ITS/TrendingTaskITSFhr.h">
<polygon fill="none" stroke="black" points="1640,-73 1640,-103 1776,-103 1776,-73 1640,-73"/>
<text text-anchor="start" x="1648" y="-91" font-family="Helvetica,sans-Serif" font-size="10.00">Modules/ITS/include</text>
<text text-anchor="middle" x="1708" y="-80" font-family="Helvetica,sans-Serif" font-size="10.00">/ITS/TrendingTaskITSFhr.h</text>
</a>
</g>
</g>
<!-- Node1&#45;&gt;Node15 -->
<g id="edge14" class="edge"><title>Node1&#45;&gt;Node15</title>
<path fill="none" stroke="midnightblue" d="M1581.41,-141.499C1610.2,-129.559 1647.44,-114.114 1674.07,-103.073"/>
<polygon fill="midnightblue" stroke="midnightblue" points="1579.89,-138.339 1571.99,-145.403 1582.57,-144.805 1579.89,-138.339"/>
</g>
<!-- Node17 -->
<g id="node17" class="node"><title>Node17</title>
<g id="a_node17"><a xlink:href="TrendingTaskITSThr_8h.html" target="_top" xlink:title="Modules/ITS/include\l/ITS/TrendingTaskITSThr.h">
<polygon fill="none" stroke="black" points="1794,-73 1794,-103 1930,-103 1930,-73 1794,-73"/>
<text text-anchor="start" x="1802" y="-91" font-family="Helvetica,sans-Serif" font-size="10.00">Modules/ITS/include</text>
<text text-anchor="middle" x="1862" y="-80" font-family="Helvetica,sans-Serif" font-size="10.00">/ITS/TrendingTaskITSThr.h</text>
</a>
</g>
</g>
<!-- Node1&#45;&gt;Node17 -->
<g id="edge16" class="edge"><title>Node1&#45;&gt;Node17</title>
<path fill="none" stroke="midnightblue" d="M1621.73,-143.514C1669.67,-134.079 1730.86,-121.556 1785,-109 1792.94,-107.159 1801.31,-105.104 1809.49,-103.032"/>
<polygon fill="midnightblue" stroke="midnightblue" points="1620.85,-140.12 1611.71,-145.479 1622.2,-146.989 1620.85,-140.12"/>
</g>
<!-- Node19 -->
<g id="node19" class="node"><title>Node19</title>
<g id="a_node19"><a xlink:href="SkeletonPostProcessing_8h.html" target="_top" xlink:title="Modules/Skeleton/include\l/Skeleton/SkeletonPostProcessing.h">
<polygon fill="none" stroke="black" points="1948,-73 1948,-103 2124,-103 2124,-73 1948,-73"/>
<text text-anchor="start" x="1956" y="-91" font-family="Helvetica,sans-Serif" font-size="10.00">Modules/Skeleton/include</text>
<text text-anchor="middle" x="2036" y="-80" font-family="Helvetica,sans-Serif" font-size="10.00">/Skeleton/SkeletonPostProcessing.h</text>
</a>
</g>
</g>
<!-- Node1&#45;&gt;Node19 -->
<g id="edge18" class="edge"><title>Node1&#45;&gt;Node19</title>
<path fill="none" stroke="midnightblue" d="M1631.84,-149.779C1713.29,-140.84 1834.28,-126.363 1939,-109 1949.52,-107.256 1960.63,-105.184 1971.43,-103.045"/>
<polygon fill="midnightblue" stroke="midnightblue" points="1631.17,-146.331 1621.6,-150.895 1631.93,-153.289 1631.17,-146.331"/>
</g>
<!-- Node21 -->
<g id="node21" class="node"><title>Node21</title>
<g id="a_node21"><a xlink:href="PostProcessDiagnosticPerCrate_8h.html" target="_top" xlink:title="Post processing to rearrange TOF information at the level of the crate (maybe we should do the opposi...">
<polygon fill="none" stroke="black" points="2142.5,-67.5 2142.5,-108.5 2287.5,-108.5 2287.5,-67.5 2142.5,-67.5"/>
<text text-anchor="start" x="2150.5" y="-96.5" font-family="Helvetica,sans-Serif" font-size="10.00">Modules/TOF/include</text>
<text text-anchor="start" x="2150.5" y="-85.5" font-family="Helvetica,sans-Serif" font-size="10.00">/TOF/PostProcessDiagnostic</text>
<text text-anchor="middle" x="2215" y="-74.5" font-family="Helvetica,sans-Serif" font-size="10.00">PerCrate.h</text>
</a>
</g>
</g>
<!-- Node1&#45;&gt;Node21 -->
<g id="edge20" class="edge"><title>Node1&#45;&gt;Node21</title>
<path fill="none" stroke="midnightblue" d="M1631.83,-156.019C1749.54,-150.626 1957.28,-137.709 2133,-109 2136.04,-108.504 2139.13,-107.954 2142.24,-107.364"/>
<polygon fill="midnightblue" stroke="midnightblue" points="1631.6,-152.526 1621.77,-156.472 1631.91,-159.519 1631.6,-152.526"/>
</g>
<!-- Node3 -->
<g id="node3" class="node"><title>Node3</title>
<g id="a_node3"><a xlink:href="PostProcessingDevice_8cxx.html" target="_top" xlink:title="Framework/src/PostProcessing\lDevice.cxx">
<polygon fill="none" stroke="black" points="0,-0.5 0,-30.5 154,-30.5 154,-0.5 0,-0.5"/>
<text text-anchor="start" x="8" y="-18.5" font-family="Helvetica,sans-Serif" font-size="10.00">Framework/src/PostProcessing</text>
<text text-anchor="middle" x="77" y="-7.5" font-family="Helvetica,sans-Serif" font-size="10.00">Device.cxx</text>
</a>
</g>
</g>
<!-- Node2&#45;&gt;Node3 -->
<g id="edge2" class="edge"><title>Node2&#45;&gt;Node3</title>
<path fill="none" stroke="midnightblue" d="M444.058,-73.8665C368.883,-62.7831 258.879,-46.3178 163,-31 160.159,-30.5461 157.266,-30.0798 154.345,-29.6053"/>
<polygon fill="midnightblue" stroke="midnightblue" points="443.566,-77.3316 453.969,-75.3263 444.586,-70.4064 443.566,-77.3316"/>
</g>
<!-- Node4 -->
<g id="node4" class="node"><title>Node4</title>
<polygon fill="none" stroke="#bfbfbf" points="172,-0.5 172,-30.5 326,-30.5 326,-0.5 172,-0.5"/>
<text text-anchor="start" x="180" y="-18.5" font-family="Helvetica,sans-Serif" font-size="10.00">Framework/src/PostProcessing</text>
<text text-anchor="middle" x="249" y="-7.5" font-family="Helvetica,sans-Serif" font-size="10.00">Runner.cxx</text>
</g>
<!-- Node2&#45;&gt;Node4 -->
<g id="edge3" class="edge"><title>Node2&#45;&gt;Node4</title>
<path fill="none" stroke="midnightblue" d="M467.483,-70.5457C418.506,-58.4305 352.606,-42.1288 306.028,-30.6069"/>
<polygon fill="midnightblue" stroke="midnightblue" points="466.805,-73.9834 477.352,-72.9872 468.485,-67.1882 466.805,-73.9834"/>
</g>
<!-- Node5 -->
<g id="node5" class="node"><title>Node5</title>
<g id="a_node5"><a xlink:href="runPostProcessing_8cxx.html" target="_top" xlink:title="This is a standalone executable to run postprocessing. ">
<polygon fill="none" stroke="black" points="344,-6 344,-25 530,-25 530,-6 344,-6"/>
<text text-anchor="middle" x="437" y="-13" font-family="Helvetica,sans-Serif" font-size="10.00">Framework/src/runPostProcessing.cxx</text>
</a>
</g>
</g>
<!-- Node2&#45;&gt;Node5 -->
<g id="edge4" class="edge"><title>Node2&#45;&gt;Node5</title>
<path fill="none" stroke="midnightblue" d="M506.093,-66.7172C487.174,-52.9665 463.12,-35.4842 448.958,-25.1911"/>
<polygon fill="midnightblue" stroke="midnightblue" points="504.224,-69.6852 514.371,-72.7333 508.339,-64.0228 504.224,-69.6852"/>
</g>
<!-- Node6 -->
<g id="node6" class="node"><title>Node6</title>
<g id="a_node6"><a xlink:href="runPostProcessingOCC_8cxx.html" target="_top" xlink:title="This is an OCC executable to run postprocessing. ">
<polygon fill="none" stroke="black" points="547.5,-0.5 547.5,-30.5 714.5,-30.5 714.5,-0.5 547.5,-0.5"/>
<text text-anchor="start" x="555.5" y="-18.5" font-family="Helvetica,sans-Serif" font-size="10.00">Framework/src/runPostProcessing</text>
<text text-anchor="middle" x="631" y="-7.5" font-family="Helvetica,sans-Serif" font-size="10.00">OCC.cxx</text>
</a>
</g>
</g>
<!-- Node2&#45;&gt;Node6 -->
<g id="edge5" class="edge"><title>Node2&#45;&gt;Node6</title>
<path fill="none" stroke="midnightblue" d="M562.054,-66.6101C577.989,-55.0289 597.527,-40.8282 611.731,-30.5049"/>
<polygon fill="midnightblue" stroke="midnightblue" points="559.661,-64.0228 553.629,-72.7333 563.776,-69.6852 559.661,-64.0228"/>
</g>
<!-- Node7 -->
<g id="node7" class="node"><title>Node7</title>
<g id="a_node7"><a xlink:href="testPostProcessingRunner_8cxx.html" target="_top" xlink:title="Framework/test/testPostProcessing\lRunner.cxx">
<polygon fill="none" stroke="black" points="732.5,-0.5 732.5,-30.5 905.5,-30.5 905.5,-0.5 732.5,-0.5"/>
<text text-anchor="start" x="740.5" y="-18.5" font-family="Helvetica,sans-Serif" font-size="10.00">Framework/test/testPostProcessing</text>
<text text-anchor="middle" x="819" y="-7.5" font-family="Helvetica,sans-Serif" font-size="10.00">Runner.cxx</text>
</a>
</g>
</g>
<!-- Node2&#45;&gt;Node7 -->
<g id="edge6" class="edge"><title>Node2&#45;&gt;Node7</title>
<path fill="none" stroke="midnightblue" d="M600.517,-70.5457C649.494,-58.4305 715.394,-42.1288 761.972,-30.6069"/>
<polygon fill="midnightblue" stroke="midnightblue" points="599.515,-67.1882 590.648,-72.9872 601.195,-73.9834 599.515,-67.1882"/>
</g>
<!-- Node9 -->
<g id="node9" class="node"><title>Node9</title>
<g id="a_node9"><a xlink:href="TrendingTask_8cxx.html" target="_top" xlink:title="Framework/src/TrendingTask.cxx">
<polygon fill="none" stroke="black" points="923.5,-6 923.5,-25 1086.5,-25 1086.5,-6 923.5,-6"/>
<text text-anchor="middle" x="1005" y="-13" font-family="Helvetica,sans-Serif" font-size="10.00">Framework/src/TrendingTask.cxx</text>
</a>
</g>
</g>
<!-- Node8&#45;&gt;Node9 -->
<g id="edge8" class="edge"><title>Node8&#45;&gt;Node9</title>
<path fill="none" stroke="midnightblue" d="M1005,-62.5913C1005,-49.7136 1005,-34.6974 1005,-25.3932"/>
<polygon fill="midnightblue" stroke="midnightblue" points="1001.5,-62.7332 1005,-72.7333 1008.5,-62.7333 1001.5,-62.7332"/>
</g>
<!-- Node10 -->
<g id="node10" class="node"><title>Node10</title>
<g id="a_node10"><a xlink:href="testTrendingTask_8cxx.html" target="_top" xlink:title="Framework/test/testTrending\lTask.cxx">
<polygon fill="none" stroke="black" points="1105,-0.5 1105,-30.5 1247,-30.5 1247,-0.5 1105,-0.5"/>
<text text-anchor="start" x="1113" y="-18.5" font-family="Helvetica,sans-Serif" font-size="10.00">Framework/test/testTrending</text>
<text text-anchor="middle" x="1176" y="-7.5" font-family="Helvetica,sans-Serif" font-size="10.00">Task.cxx</text>
</a>
</g>
</g>
<!-- Node8&#45;&gt;Node10 -->
<g id="edge9" class="edge"><title>Node8&#45;&gt;Node10</title>
<path fill="none" stroke="midnightblue" d="M1048.66,-68.9991C1077.62,-57.0585 1115.09,-41.6135 1141.87,-30.5729"/>
<polygon fill="midnightblue" stroke="midnightblue" points="1047.1,-65.8553 1039.19,-72.9027 1049.77,-72.3269 1047.1,-65.8553"/>
</g>
<!-- Node14 -->
<g id="node14" class="node"><title>Node14</title>
<g id="a_node14"><a xlink:href="TreeReaderPostProcessing_8cxx.html" target="_top" xlink:title="Modules/FT0/src/TreeReader\lPostProcessing.cxx">
<polygon fill="none" stroke="black" points="1466,-0.5 1466,-30.5 1610,-30.5 1610,-0.5 1466,-0.5"/>
<text text-anchor="start" x="1474" y="-18.5" font-family="Helvetica,sans-Serif" font-size="10.00">Modules/FT0/src/TreeReader</text>
<text text-anchor="middle" x="1538" y="-7.5" font-family="Helvetica,sans-Serif" font-size="10.00">PostProcessing.cxx</text>
</a>
</g>
</g>
<!-- Node13&#45;&gt;Node14 -->
<g id="edge13" class="edge"><title>Node13&#45;&gt;Node14</title>
<path fill="none" stroke="midnightblue" d="M1538,-62.7317C1538,-52.0679 1538,-39.9145 1538,-30.7455"/>
<polygon fill="midnightblue" stroke="midnightblue" points="1534.5,-62.7332 1538,-72.7333 1541.5,-62.7333 1534.5,-62.7332"/>
</g>
<!-- Node16 -->
<g id="node16" class="node"><title>Node16</title>
<g id="a_node16"><a xlink:href="TrendingTaskITSFhr_8cxx.html" target="_top" xlink:title="Modules/ITS/src/Trending\lTaskITSFhr.cxx">
<polygon fill="none" stroke="black" points="1643.5,-0.5 1643.5,-30.5 1772.5,-30.5 1772.5,-0.5 1643.5,-0.5"/>
<text text-anchor="start" x="1651.5" y="-18.5" font-family="Helvetica,sans-Serif" font-size="10.00">Modules/ITS/src/Trending</text>
<text text-anchor="middle" x="1708" y="-7.5" font-family="Helvetica,sans-Serif" font-size="10.00">TaskITSFhr.cxx</text>
</a>
</g>
</g>
<!-- Node15&#45;&gt;Node16 -->
<g id="edge15" class="edge"><title>Node15&#45;&gt;Node16</title>
<path fill="none" stroke="midnightblue" d="M1708,-62.7317C1708,-52.0679 1708,-39.9145 1708,-30.7455"/>
<polygon fill="midnightblue" stroke="midnightblue" points="1704.5,-62.7332 1708,-72.7333 1711.5,-62.7333 1704.5,-62.7332"/>
</g>
<!-- Node18 -->
<g id="node18" class="node"><title>Node18</title>
<g id="a_node18"><a xlink:href="TrendingTaskITSThr_8cxx.html" target="_top" xlink:title="Modules/ITS/src/Trending\lTaskITSThr.cxx">
<polygon fill="none" stroke="black" points="1797.5,-0.5 1797.5,-30.5 1926.5,-30.5 1926.5,-0.5 1797.5,-0.5"/>
<text text-anchor="start" x="1805.5" y="-18.5" font-family="Helvetica,sans-Serif" font-size="10.00">Modules/ITS/src/Trending</text>
<text text-anchor="middle" x="1862" y="-7.5" font-family="Helvetica,sans-Serif" font-size="10.00">TaskITSThr.cxx</text>
</a>
</g>
</g>
<!-- Node17&#45;&gt;Node18 -->
<g id="edge17" class="edge"><title>Node17&#45;&gt;Node18</title>
<path fill="none" stroke="midnightblue" d="M1862,-62.7317C1862,-52.0679 1862,-39.9145 1862,-30.7455"/>
<polygon fill="midnightblue" stroke="midnightblue" points="1858.5,-62.7332 1862,-72.7333 1865.5,-62.7333 1858.5,-62.7332"/>
</g>
<!-- Node20 -->
<g id="node20" class="node"><title>Node20</title>
<polygon fill="none" stroke="#bfbfbf" points="1963,-0.5 1963,-30.5 2109,-30.5 2109,-0.5 1963,-0.5"/>
<text text-anchor="start" x="1971" y="-18.5" font-family="Helvetica,sans-Serif" font-size="10.00">Modules/Skeleton/src</text>
<text text-anchor="middle" x="2036" y="-7.5" font-family="Helvetica,sans-Serif" font-size="10.00">/SkeletonPostProcessing.cxx</text>
</g>
<!-- Node19&#45;&gt;Node20 -->
<g id="edge19" class="edge"><title>Node19&#45;&gt;Node20</title>
<path fill="none" stroke="midnightblue" d="M2036,-62.7317C2036,-52.0679 2036,-39.9145 2036,-30.7455"/>
<polygon fill="midnightblue" stroke="midnightblue" points="2032.5,-62.7332 2036,-72.7333 2039.5,-62.7333 2032.5,-62.7332"/>
</g>
<!-- Node22 -->
<g id="node22" class="node"><title>Node22</title>
<g id="a_node22"><a xlink:href="PostProcessDiagnosticPerCrate_8cxx.html" target="_top" xlink:title="Post processing to rearrange TOF information at the level of the crate (maybe we should do the opposi...">
<polygon fill="none" stroke="black" points="2139,-0.5 2139,-30.5 2291,-30.5 2291,-0.5 2139,-0.5"/>
<text text-anchor="start" x="2147" y="-18.5" font-family="Helvetica,sans-Serif" font-size="10.00">Modules/TOF/src/PostProcess</text>
<text text-anchor="middle" x="2215" y="-7.5" font-family="Helvetica,sans-Serif" font-size="10.00">DiagnosticPerCrate.cxx</text>
</a>
</g>
</g>
<!-- Node21&#45;&gt;Node22 -->
<g id="edge21" class="edge"><title>Node21&#45;&gt;Node22</title>
<path fill="none" stroke="midnightblue" d="M2215,-57.08C2215,-48.0061 2215,-38.4498 2215,-30.8916"/>
<polygon fill="midnightblue" stroke="midnightblue" points="2211.5,-57.3618 2215,-67.3618 2218.5,-57.3619 2211.5,-57.3618"/>
</g>
</g>
</svg>
