<?xml version="1.0" encoding="UTF-8" standalone="no"?>
<!DOCTYPE svg PUBLIC "-//W3C//DTD SVG 1.1//EN"
 "http://www.w3.org/Graphics/SVG/1.1/DTD/svg11.dtd">
<!-- Generated by graphviz version 2.38.0 (20140413.2041)
 -->
<!-- Title: Modules/TOF/src/PostProcessDiagnosticPerCrate.cxx Pages: 1 -->
<svg width="1584pt" height="363pt"
 viewBox="0.00 0.00 1583.50 363.00" xmlns="http://www.w3.org/2000/svg" xmlns:xlink="http://www.w3.org/1999/xlink">
<g id="graph0" class="graph" transform="scale(1 1) rotate(0) translate(4 359)">
<title>Modules/TOF/src/PostProcessDiagnosticPerCrate.cxx</title>
<!-- Node1 -->
<g id="node1" class="node"><title>Node1</title>
<polygon fill="#bfbfbf" stroke="black" points="1101.5,-324.5 1101.5,-354.5 1253.5,-354.5 1253.5,-324.5 1101.5,-324.5"/>
<text text-anchor="start" x="1109.5" y="-342.5" font-family="Helvetica,sans-Serif" font-size="10.00">Modules/TOF/src/PostProcess</text>
<text text-anchor="middle" x="1177.5" y="-331.5" font-family="Helvetica,sans-Serif" font-size="10.00">DiagnosticPerCrate.cxx</text>
</g>
<!-- Node2 -->
<g id="node2" class="node"><title>Node2</title>
<g id="a_node2"><a xlink:href="PostProcessDiagnosticPerCrate_8h.html" target="_top" xlink:title="Post processing to rearrange TOF information at the level of the crate (maybe we should do the opposi...">
<polygon fill="none" stroke="black" points="637.5,-257.5 637.5,-287.5 779.5,-287.5 779.5,-257.5 637.5,-257.5"/>
<text text-anchor="start" x="645.5" y="-275.5" font-family="Helvetica,sans-Serif" font-size="10.00">TOF/PostProcessDiagnostic</text>
<text text-anchor="middle" x="708.5" y="-264.5" font-family="Helvetica,sans-Serif" font-size="10.00">PerCrate.h</text>
</a>
</g>
</g>
<!-- Node1&#45;&gt;Node2 -->
<g id="edge1" class="edge"><title>Node1&#45;&gt;Node2</title>
<path fill="none" stroke="midnightblue" d="M1101.36,-327.948C1015.78,-316.086 877.354,-296.902 789.733,-284.758"/>
<polygon fill="midnightblue" stroke="midnightblue" points="789.956,-281.256 779.57,-283.35 788.995,-288.19 789.956,-281.256"/>
</g>
<!-- Node11 -->
<g id="node11" class="node"><title>Node11</title>
<g id="a_node11"><a xlink:href="MonitorObject_8h.html" target="_top" xlink:title="QualityControl/MonitorObject.h">
<polygon fill="none" stroke="black" points="134,-62 134,-81 285,-81 285,-62 134,-62"/>
<text text-anchor="middle" x="209.5" y="-69" font-family="Helvetica,sans-Serif" font-size="10.00">QualityControl/MonitorObject.h</text>
</a>
</g>
</g>
<!-- Node1&#45;&gt;Node11 -->
<g id="edge43" class="edge"><title>Node1&#45;&gt;Node11</title>
<path fill="none" stroke="midnightblue" d="M1101.42,-337.496C911.193,-333.587 420.966,-314.465 292.5,-221 247.422,-188.204 223.697,-123.044 214.342,-91.0715"/>
<polygon fill="midnightblue" stroke="midnightblue" points="217.665,-89.9557 211.621,-81.2538 210.919,-91.8254 217.665,-89.9557"/>
</g>
<!-- Node27 -->
<g id="node27" class="node"><title>Node27</title>
<g id="a_node27"><a xlink:href="QcInfoLogger_8h.html" target="_top" xlink:title="QualityControl/QcInfoLogger.h">
<polygon fill="none" stroke="black" points="1103,-263 1103,-282 1252,-282 1252,-263 1103,-263"/>
<text text-anchor="middle" x="1177.5" y="-270" font-family="Helvetica,sans-Serif" font-size="10.00">QualityControl/QcInfoLogger.h</text>
</a>
</g>
</g>
<!-- Node1&#45;&gt;Node27 -->
<g id="edge44" class="edge"><title>Node1&#45;&gt;Node27</title>
<path fill="none" stroke="midnightblue" d="M1177.5,-324.396C1177.5,-315.064 1177.5,-302.714 1177.5,-292.517"/>
<polygon fill="midnightblue" stroke="midnightblue" points="1181,-292.195 1177.5,-282.195 1174,-292.195 1181,-292.195"/>
</g>
<!-- Node30 -->
<g id="node30" class="node"><title>Node30</title>
<polygon fill="none" stroke="#bfbfbf" points="1269.5,-263 1269.5,-282 1319.5,-282 1319.5,-263 1269.5,-263"/>
<text text-anchor="middle" x="1294.5" y="-270" font-family="Helvetica,sans-Serif" font-size="10.00">TH2F.h</text>
</g>
<!-- Node1&#45;&gt;Node30 -->
<g id="edge47" class="edge"><title>Node1&#45;&gt;Node30</title>
<path fill="none" stroke="midnightblue" d="M1202.89,-324.396C1222.87,-313.294 1250.54,-297.921 1270.23,-286.983"/>
<polygon fill="midnightblue" stroke="midnightblue" points="1272.15,-289.923 1279.19,-282.007 1268.75,-283.804 1272.15,-289.923"/>
</g>
<!-- Node31 -->
<g id="node31" class="node"><title>Node31</title>
<polygon fill="none" stroke="#bfbfbf" points="1338,-263 1338,-282 1403,-282 1403,-263 1338,-263"/>
<text text-anchor="middle" x="1370.5" y="-270" font-family="Helvetica,sans-Serif" font-size="10.00">TCanvas.h</text>
</g>
<!-- Node1&#45;&gt;Node31 -->
<g id="edge48" class="edge"><title>Node1&#45;&gt;Node31</title>
<path fill="none" stroke="midnightblue" d="M1219.84,-324.46C1250.13,-314.388 1291.86,-300.452 1328.5,-288 1330.93,-287.175 1333.43,-286.319 1335.96,-285.455"/>
<polygon fill="midnightblue" stroke="midnightblue" points="1337.32,-288.688 1345.64,-282.127 1335.05,-282.068 1337.32,-288.688"/>
</g>
<!-- Node3 -->
<g id="node3" class="node"><title>Node3</title>
<g id="a_node3"><a xlink:href="PostProcessingInterface_8h.html" target="_top" xlink:title="QualityControl/PostProcessing\lInterface.h">
<polygon fill="none" stroke="black" points="833,-190.5 833,-220.5 984,-220.5 984,-190.5 833,-190.5"/>
<text text-anchor="start" x="841" y="-208.5" font-family="Helvetica,sans-Serif" font-size="10.00">QualityControl/PostProcessing</text>
<text text-anchor="middle" x="908.5" y="-197.5" font-family="Helvetica,sans-Serif" font-size="10.00">Interface.h</text>
</a>
</g>
</g>
<!-- Node2&#45;&gt;Node3 -->
<g id="edge2" class="edge"><title>Node2&#45;&gt;Node3</title>
<path fill="none" stroke="midnightblue" d="M751.897,-257.396C782.299,-247.515 823.108,-234.252 855.445,-223.743"/>
<polygon fill="midnightblue" stroke="midnightblue" points="856.759,-226.996 865.188,-220.577 854.596,-220.339 856.759,-226.996"/>
</g>
<!-- Node4 -->
<g id="node4" class="node"><title>Node4</title>
<polygon fill="none" stroke="#bfbfbf" points="759,-0.5 759,-19.5 800,-19.5 800,-0.5 759,-0.5"/>
<text text-anchor="middle" x="779.5" y="-7.5" font-family="Helvetica,sans-Serif" font-size="10.00">string</text>
</g>
<!-- Node2&#45;&gt;Node4 -->
<g id="edge42" class="edge"><title>Node2&#45;&gt;Node4</title>
<path fill="none" stroke="midnightblue" d="M779.538,-265.487C903.029,-253.347 1148.8,-221.147 1197.5,-154 1295.77,-18.5006 922.73,-10.1008 810.525,-10.5714"/>
<polygon fill="midnightblue" stroke="midnightblue" points="810.185,-7.07363 800.21,-10.6436 810.234,-14.0735 810.185,-7.07363"/>
</g>
<!-- Node21 -->
<g id="node21" class="node"><title>Node21</title>
<polygon fill="none" stroke="#bfbfbf" points="529.5,-62 529.5,-81 581.5,-81 581.5,-62 529.5,-62"/>
<text text-anchor="middle" x="555.5" y="-69" font-family="Helvetica,sans-Serif" font-size="10.00">memory</text>
</g>
<!-- Node2&#45;&gt;Node21 -->
<g id="edge41" class="edge"><title>Node2&#45;&gt;Node21</title>
<path fill="none" stroke="midnightblue" d="M684.844,-257.437C654.435,-238.081 602.258,-200.31 574.5,-154 562.858,-134.577 558.349,-108.595 556.603,-91.2402"/>
<polygon fill="midnightblue" stroke="midnightblue" points="560.09,-90.9278 555.808,-81.2368 553.112,-91.4829 560.09,-90.9278"/>
</g>
<!-- Node22 -->
<g id="node22" class="node"><title>Node22</title>
<g id="a_node22"><a xlink:href="DatabaseInterface_8h.html" target="_top" xlink:title="QualityControl/DatabaseInterface.h">
<polygon fill="none" stroke="black" points="357.5,-196 357.5,-215 527.5,-215 527.5,-196 357.5,-196"/>
<text text-anchor="middle" x="442.5" y="-203" font-family="Helvetica,sans-Serif" font-size="10.00">QualityControl/DatabaseInterface.h</text>
</a>
</g>
</g>
<!-- Node2&#45;&gt;Node22 -->
<g id="edge25" class="edge"><title>Node2&#45;&gt;Node22</title>
<path fill="none" stroke="midnightblue" d="M651.109,-257.476C601.981,-245.471 532.242,-228.43 487.182,-217.419"/>
<polygon fill="midnightblue" stroke="midnightblue" points="487.947,-214.003 477.402,-215.029 486.285,-220.802 487.947,-214.003"/>
</g>
<!-- Node26 -->
<g id="node26" class="node"><title>Node26</title>
<polygon fill="none" stroke="#bfbfbf" points="301.5,-196 301.5,-215 339.5,-215 339.5,-196 301.5,-196"/>
<text text-anchor="middle" x="320.5" y="-203" font-family="Helvetica,sans-Serif" font-size="10.00">array</text>
</g>
<!-- Node2&#45;&gt;Node26 -->
<g id="edge40" class="edge"><title>Node2&#45;&gt;Node26</title>
<path fill="none" stroke="midnightblue" d="M637.249,-268.591C563.469,-263.953 445.611,-251.957 348.5,-221 347.066,-220.543 345.616,-220.016 344.172,-219.441"/>
<polygon fill="midnightblue" stroke="midnightblue" points="345.463,-216.182 334.919,-215.147 342.517,-222.532 345.463,-216.182"/>
</g>
<!-- Node3&#45;&gt;Node4 -->
<g id="edge3" class="edge"><title>Node3&#45;&gt;Node4</title>
<path fill="none" stroke="midnightblue" d="M984.258,-200.921C1055.6,-195.774 1155.07,-183.402 1179.5,-154 1188.3,-143.403 1187.11,-134.488 1179.5,-123 1137.79,-60.0117 896.438,-25.1072 810.155,-14.5074"/>
<polygon fill="midnightblue" stroke="midnightblue" points="810.541,-11.0286 800.194,-13.3076 809.704,-17.9784 810.541,-11.0286"/>
</g>
<!-- Node5 -->
<g id="node5" class="node"><title>Node5</title>
<polygon fill="none" stroke="#bfbfbf" points="583.5,-129 583.5,-148 729.5,-148 729.5,-129 583.5,-129"/>
<text text-anchor="middle" x="656.5" y="-136" font-family="Helvetica,sans-Serif" font-size="10.00">Framework/ServiceRegistry.h</text>
</g>
<!-- Node3&#45;&gt;Node5 -->
<g id="edge4" class="edge"><title>Node3&#45;&gt;Node5</title>
<path fill="none" stroke="midnightblue" d="M854.13,-190.476C807.783,-178.521 742.074,-161.573 699.37,-150.558"/>
<polygon fill="midnightblue" stroke="midnightblue" points="700.122,-147.137 689.565,-148.029 698.374,-153.915 700.122,-147.137"/>
</g>
<!-- Node6 -->
<g id="node6" class="node"><title>Node6</title>
<polygon fill="none" stroke="#bfbfbf" points="1070,-123.5 1070,-153.5 1171,-153.5 1171,-123.5 1070,-123.5"/>
<text text-anchor="start" x="1078" y="-141.5" font-family="Helvetica,sans-Serif" font-size="10.00">boost/property_tree</text>
<text text-anchor="middle" x="1120.5" y="-130.5" font-family="Helvetica,sans-Serif" font-size="10.00">/ptree_fwd.hpp</text>
</g>
<!-- Node3&#45;&gt;Node6 -->
<g id="edge5" class="edge"><title>Node3&#45;&gt;Node6</title>
<path fill="none" stroke="midnightblue" d="M954.24,-190.476C986.59,-180.557 1030.15,-167.201 1064.57,-156.648"/>
<polygon fill="midnightblue" stroke="midnightblue" points="1065.94,-159.889 1074.48,-153.611 1063.89,-153.196 1065.94,-159.889"/>
</g>
<!-- Node7 -->
<g id="node7" class="node"><title>Node7</title>
<g id="a_node7"><a xlink:href="Triggers_8h.html" target="_top" xlink:title="QualityControl/Triggers.h">
<polygon fill="none" stroke="black" points="927,-129 927,-148 1052,-148 1052,-129 927,-129"/>
<text text-anchor="middle" x="989.5" y="-136" font-family="Helvetica,sans-Serif" font-size="10.00">QualityControl/Triggers.h</text>
</a>
</g>
</g>
<!-- Node3&#45;&gt;Node7 -->
<g id="edge6" class="edge"><title>Node3&#45;&gt;Node7</title>
<path fill="none" stroke="midnightblue" d="M926.076,-190.396C939.206,-179.86 957.128,-165.477 970.573,-154.689"/>
<polygon fill="midnightblue" stroke="midnightblue" points="973.057,-157.183 978.665,-148.195 968.675,-151.723 973.057,-157.183"/>
</g>
<!-- Node10 -->
<g id="node10" class="node"><title>Node10</title>
<g id="a_node10"><a xlink:href="ObjectsManager_8h.html" target="_top" xlink:title="QualityControl/ObjectsManager.h">
<polygon fill="none" stroke="black" points="748,-129 748,-148 909,-148 909,-129 748,-129"/>
<text text-anchor="middle" x="828.5" y="-136" font-family="Helvetica,sans-Serif" font-size="10.00">QualityControl/ObjectsManager.h</text>
</a>
</g>
</g>
<!-- Node3&#45;&gt;Node10 -->
<g id="edge10" class="edge"><title>Node3&#45;&gt;Node10</title>
<path fill="none" stroke="midnightblue" d="M891.141,-190.396C878.173,-179.86 860.472,-165.477 847.194,-154.689"/>
<polygon fill="midnightblue" stroke="midnightblue" points="849.169,-151.784 839.201,-148.195 844.755,-157.217 849.169,-151.784"/>
</g>
<!-- Node7&#45;&gt;Node4 -->
<g id="edge7" class="edge"><title>Node7&#45;&gt;Node4</title>
<path fill="none" stroke="midnightblue" d="M994.962,-128.764C1004.36,-112.506 1020.97,-77.3243 1003.5,-56 979.465,-26.6564 866.324,-16.0412 810.628,-12.5485"/>
<polygon fill="midnightblue" stroke="midnightblue" points="810.487,-9.03424 800.299,-11.9415 810.076,-16.0222 810.487,-9.03424"/>
</g>
<!-- Node8 -->
<g id="node8" class="node"><title>Node8</title>
<polygon fill="none" stroke="#bfbfbf" points="873,-62 873,-81 932,-81 932,-62 873,-62"/>
<text text-anchor="middle" x="902.5" y="-69" font-family="Helvetica,sans-Serif" font-size="10.00">functional</text>
</g>
<!-- Node7&#45;&gt;Node8 -->
<g id="edge8" class="edge"><title>Node7&#45;&gt;Node8</title>
<path fill="none" stroke="midnightblue" d="M977.767,-128.734C963.548,-118.111 939.373,-100.049 922.261,-87.2642"/>
<polygon fill="midnightblue" stroke="midnightblue" points="924.153,-84.3087 914.047,-81.1273 919.964,-89.9165 924.153,-84.3087"/>
</g>
<!-- Node9 -->
<g id="node9" class="node"><title>Node9</title>
<polygon fill="none" stroke="#bfbfbf" points="950,-62 950,-81 995,-81 995,-62 950,-62"/>
<text text-anchor="middle" x="972.5" y="-69" font-family="Helvetica,sans-Serif" font-size="10.00">iosfwd</text>
</g>
<!-- Node7&#45;&gt;Node9 -->
<g id="edge9" class="edge"><title>Node7&#45;&gt;Node9</title>
<path fill="none" stroke="midnightblue" d="M987.207,-128.734C984.684,-119.085 980.555,-103.3 977.314,-90.9063"/>
<polygon fill="midnightblue" stroke="midnightblue" points="980.673,-89.9163 974.756,-81.1273 973.901,-91.6875 980.673,-89.9163"/>
</g>
<!-- Node10&#45;&gt;Node4 -->
<g id="edge23" class="edge"><title>Node10&#45;&gt;Node4</title>
<path fill="none" stroke="midnightblue" d="M827.487,-128.61C825.511,-113.27 820.351,-81.0663 809.5,-56 805.218,-46.1082 798.744,-36.039 792.905,-27.9407"/>
<polygon fill="midnightblue" stroke="midnightblue" points="795.545,-25.6295 786.732,-19.7492 789.955,-29.8421 795.545,-25.6295"/>
</g>
<!-- Node10&#45;&gt;Node11 -->
<g id="edge11" class="edge"><title>Node10&#45;&gt;Node11</title>
<path fill="none" stroke="midnightblue" d="M780.023,-128.969C766.603,-126.805 752.013,-124.632 738.5,-123 541.509,-99.2008 490.355,-111.902 293.5,-87 284.02,-85.8008 273.978,-84.284 264.261,-82.6862"/>
<polygon fill="midnightblue" stroke="midnightblue" points="264.733,-79.2164 254.289,-81.0017 263.567,-86.1187 264.733,-79.2164"/>
</g>
<!-- Node16 -->
<g id="node16" class="node"><title>Node16</title>
<g id="a_node16"><a xlink:href="MonitorObjectCollection_8h.html" target="_top" xlink:title="QualityControl/MonitorObject\lCollection.h">
<polygon fill="none" stroke="black" points="1266,-56.5 1266,-86.5 1409,-86.5 1409,-56.5 1266,-56.5"/>
<text text-anchor="start" x="1274" y="-74.5" font-family="Helvetica,sans-Serif" font-size="10.00">QualityControl/MonitorObject</text>
<text text-anchor="middle" x="1337.5" y="-63.5" font-family="Helvetica,sans-Serif" font-size="10.00">Collection.h</text>
</a>
</g>
</g>
<!-- Node10&#45;&gt;Node16 -->
<g id="edge17" class="edge"><title>Node10&#45;&gt;Node16</title>
<path fill="none" stroke="midnightblue" d="M878.807,-128.927C891.424,-126.881 904.944,-124.777 917.5,-123 1034.72,-106.412 1170.84,-90.691 1255.59,-81.3225"/>
<polygon fill="midnightblue" stroke="midnightblue" points="1256.11,-84.7866 1265.67,-80.2118 1255.34,-77.8287 1256.11,-84.7866"/>
</g>
<!-- Node19 -->
<g id="node19" class="node"><title>Node19</title>
<g id="a_node19"><a xlink:href="TaskConfig_8h.html" target="_top" xlink:title="QualityControl/TaskConfig.h">
<polygon fill="none" stroke="black" points="660.5,-62 660.5,-81 800.5,-81 800.5,-62 660.5,-62"/>
<text text-anchor="middle" x="730.5" y="-69" font-family="Helvetica,sans-Serif" font-size="10.00">QualityControl/TaskConfig.h</text>
</a>
</g>
</g>
<!-- Node10&#45;&gt;Node19 -->
<g id="edge20" class="edge"><title>Node10&#45;&gt;Node19</title>
<path fill="none" stroke="midnightblue" d="M815.283,-128.734C799.046,-117.964 771.283,-99.55 751.969,-86.7395"/>
<polygon fill="midnightblue" stroke="midnightblue" points="753.775,-83.738 743.507,-81.1273 749.906,-89.5715 753.775,-83.738"/>
</g>
<!-- Node10&#45;&gt;Node21 -->
<g id="edge24" class="edge"><title>Node10&#45;&gt;Node21</title>
<path fill="none" stroke="midnightblue" d="M792.529,-128.936C740.27,-116.493 643.897,-93.5469 591.578,-81.0899"/>
<polygon fill="midnightblue" stroke="midnightblue" points="592.266,-77.656 581.727,-78.7446 590.645,-84.4657 592.266,-77.656"/>
</g>
<!-- Node11&#45;&gt;Node4 -->
<g id="edge12" class="edge"><title>Node11&#45;&gt;Node4</title>
<path fill="none" stroke="midnightblue" d="M255.176,-61.9441C267.58,-59.8042 281.03,-57.651 293.5,-56 464.79,-33.3217 671.548,-18.2208 748.598,-13.0144"/>
<polygon fill="midnightblue" stroke="midnightblue" points="748.848,-16.5056 758.592,-12.3456 748.381,-9.52119 748.848,-16.5056"/>
</g>
<!-- Node12 -->
<g id="node12" class="node"><title>Node12</title>
<polygon fill="none" stroke="#bfbfbf" points="212,-0.5 212,-19.5 247,-19.5 247,-0.5 212,-0.5"/>
<text text-anchor="middle" x="229.5" y="-7.5" font-family="Helvetica,sans-Serif" font-size="10.00">map</text>
</g>
<!-- Node11&#45;&gt;Node12 -->
<g id="edge13" class="edge"><title>Node11&#45;&gt;Node12</title>
<path fill="none" stroke="midnightblue" d="M212.366,-61.9751C215.217,-53.4919 219.683,-40.2043 223.341,-29.3222"/>
<polygon fill="midnightblue" stroke="midnightblue" points="226.771,-30.1031 226.64,-19.5091 220.136,-27.8727 226.771,-30.1031"/>
</g>
<!-- Node13 -->
<g id="node13" class="node"><title>Node13</title>
<polygon fill="none" stroke="#bfbfbf" points="300.5,-0.5 300.5,-19.5 356.5,-19.5 356.5,-0.5 300.5,-0.5"/>
<text text-anchor="middle" x="328.5" y="-7.5" font-family="Helvetica,sans-Serif" font-size="10.00">Rtypes.h</text>
</g>
<!-- Node11&#45;&gt;Node13 -->
<g id="edge14" class="edge"><title>Node11&#45;&gt;Node13</title>
<path fill="none" stroke="midnightblue" d="M226.55,-61.9751C246.344,-52.078 279.217,-35.6416 302.27,-24.1151"/>
<polygon fill="midnightblue" stroke="midnightblue" points="304.103,-27.1118 311.482,-19.5091 300.972,-20.8508 304.103,-27.1118"/>
</g>
<!-- Node14 -->
<g id="node14" class="node"><title>Node14</title>
<polygon fill="none" stroke="#bfbfbf" points="0,-0.5 0,-19.5 59,-19.5 59,-0.5 0,-0.5"/>
<text text-anchor="middle" x="29.5" y="-7.5" font-family="Helvetica,sans-Serif" font-size="10.00">TObject.h</text>
</g>
<!-- Node11&#45;&gt;Node14 -->
<g id="edge15" class="edge"><title>Node11&#45;&gt;Node14</title>
<path fill="none" stroke="midnightblue" d="M183.71,-61.9751C152.567,-51.6804 100.019,-34.3103 65.0469,-22.7502"/>
<polygon fill="midnightblue" stroke="midnightblue" points="65.835,-19.3245 55.2418,-19.5091 63.638,-25.9708 65.835,-19.3245"/>
</g>
<!-- Node15 -->
<g id="node15" class="node"><title>Node15</title>
<polygon fill="none" stroke="#bfbfbf" points="77.5,-0.5 77.5,-19.5 193.5,-19.5 193.5,-0.5 77.5,-0.5"/>
<text text-anchor="middle" x="135.5" y="-7.5" font-family="Helvetica,sans-Serif" font-size="10.00">Common/Exceptions.h</text>
</g>
<!-- Node11&#45;&gt;Node15 -->
<g id="edge16" class="edge"><title>Node11&#45;&gt;Node15</title>
<path fill="none" stroke="midnightblue" d="M198.898,-61.9751C187.248,-52.6082 168.314,-37.3839 154.165,-26.0081"/>
<polygon fill="midnightblue" stroke="midnightblue" points="156.069,-23.0477 146.083,-19.5091 151.683,-28.503 156.069,-23.0477"/>
</g>
<!-- Node17 -->
<g id="node17" class="node"><title>Node17</title>
<polygon fill="none" stroke="#bfbfbf" points="1361,-0.5 1361,-19.5 1430,-19.5 1430,-0.5 1361,-0.5"/>
<text text-anchor="middle" x="1395.5" y="-7.5" font-family="Helvetica,sans-Serif" font-size="10.00">TObjArray.h</text>
</g>
<!-- Node16&#45;&gt;Node17 -->
<g id="edge18" class="edge"><title>Node16&#45;&gt;Node17</title>
<path fill="none" stroke="midnightblue" d="M1351.25,-56.3993C1359.85,-47.575 1370.95,-36.1827 1379.89,-27.0178"/>
<polygon fill="midnightblue" stroke="midnightblue" points="1382.59,-29.2616 1387.06,-19.6578 1377.57,-24.3755 1382.59,-29.2616"/>
</g>
<!-- Node18 -->
<g id="node18" class="node"><title>Node18</title>
<polygon fill="none" stroke="#bfbfbf" points="1214.5,-0.5 1214.5,-19.5 1342.5,-19.5 1342.5,-0.5 1214.5,-0.5"/>
<text text-anchor="middle" x="1278.5" y="-7.5" font-family="Helvetica,sans-Serif" font-size="10.00">Mergers/MergeInterface.h</text>
</g>
<!-- Node16&#45;&gt;Node18 -->
<g id="edge19" class="edge"><title>Node16&#45;&gt;Node18</title>
<path fill="none" stroke="midnightblue" d="M1323.52,-56.3993C1314.77,-47.575 1303.47,-36.1827 1294.38,-27.0178"/>
<polygon fill="midnightblue" stroke="midnightblue" points="1296.61,-24.2942 1287.09,-19.6578 1291.64,-29.2231 1296.61,-24.2942"/>
</g>
<!-- Node19&#45;&gt;Node4 -->
<g id="edge21" class="edge"><title>Node19&#45;&gt;Node4</title>
<path fill="none" stroke="midnightblue" d="M737.521,-61.9751C744.943,-52.9617 756.833,-38.5246 766.067,-27.3118"/>
<polygon fill="midnightblue" stroke="midnightblue" points="768.837,-29.4534 772.493,-19.5091 763.434,-25.0034 768.837,-29.4534"/>
</g>
<!-- Node20 -->
<g id="node20" class="node"><title>Node20</title>
<polygon fill="none" stroke="#bfbfbf" points="534,-0.5 534,-19.5 617,-19.5 617,-0.5 534,-0.5"/>
<text text-anchor="middle" x="575.5" y="-7.5" font-family="Helvetica,sans-Serif" font-size="10.00">unordered_map</text>
</g>
<!-- Node19&#45;&gt;Node20 -->
<g id="edge22" class="edge"><title>Node19&#45;&gt;Node20</title>
<path fill="none" stroke="midnightblue" d="M708.292,-61.9751C681.819,-51.8129 637.386,-34.7564 607.28,-23.1996"/>
<polygon fill="midnightblue" stroke="midnightblue" points="608.257,-19.8254 597.667,-19.5091 605.748,-26.3604 608.257,-19.8254"/>
</g>
<!-- Node22&#45;&gt;Node4 -->
<g id="edge26" class="edge"><title>Node22&#45;&gt;Node4</title>
<path fill="none" stroke="midnightblue" d="M445.914,-195.711C457.379,-166.647 495.197,-74.433 520.5,-56 556.517,-29.762 688.287,-17.3689 748.774,-12.9658"/>
<polygon fill="midnightblue" stroke="midnightblue" points="749.132,-16.4494 758.862,-12.2579 748.642,-9.46659 749.132,-16.4494"/>
</g>
<!-- Node22&#45;&gt;Node5 -->
<g id="edge30" class="edge"><title>Node22&#45;&gt;Node5</title>
<path fill="none" stroke="midnightblue" d="M470.918,-195.869C508.915,-184.327 576.38,-163.835 618.653,-150.996"/>
<polygon fill="midnightblue" stroke="midnightblue" points="619.755,-154.319 628.306,-148.064 617.72,-147.621 619.755,-154.319"/>
</g>
<!-- Node22&#45;&gt;Node11 -->
<g id="edge39" class="edge"><title>Node22&#45;&gt;Node11</title>
<path fill="none" stroke="midnightblue" d="M427.212,-195.839C387.538,-173.363 281.058,-113.039 233.277,-85.9705"/>
<polygon fill="midnightblue" stroke="midnightblue" points="234.967,-82.9051 224.541,-81.0212 231.517,-88.9957 234.967,-82.9051"/>
</g>
<!-- Node22&#45;&gt;Node20 -->
<g id="edge29" class="edge"><title>Node22&#45;&gt;Node20</title>
<path fill="none" stroke="midnightblue" d="M441.983,-195.652C441.003,-170.701 441.544,-98.8208 476.5,-56 489.412,-40.1829 509.083,-29.6988 527.498,-22.8646"/>
<polygon fill="midnightblue" stroke="midnightblue" points="528.647,-26.1704 536.97,-19.6145 526.376,-19.5493 528.647,-26.1704"/>
</g>
<!-- Node22&#45;&gt;Node21 -->
<g id="edge27" class="edge"><title>Node22&#45;&gt;Node21</title>
<path fill="none" stroke="midnightblue" d="M451.919,-195.928C462.462,-186.165 479.856,-169.546 493.5,-154 512.102,-132.805 531.456,-106.585 543.487,-89.7047"/>
<polygon fill="midnightblue" stroke="midnightblue" points="546.457,-91.5665 549.367,-81.379 540.739,-87.5284 546.457,-91.5665"/>
</g>
<!-- Node23 -->
<g id="node23" class="node"><title>Node23</title>
<polygon fill="none" stroke="#bfbfbf" points="369.5,-129 369.5,-148 413.5,-148 413.5,-129 369.5,-129"/>
<text text-anchor="middle" x="391.5" y="-136" font-family="Helvetica,sans-Serif" font-size="10.00">vector</text>
</g>
<!-- Node22&#45;&gt;Node23 -->
<g id="edge28" class="edge"><title>Node22&#45;&gt;Node23</title>
<path fill="none" stroke="midnightblue" d="M435.622,-195.734C427.669,-185.598 414.403,-168.69 404.49,-156.056"/>
<polygon fill="midnightblue" stroke="midnightblue" points="407.196,-153.834 398.269,-148.127 401.688,-158.155 407.196,-153.834"/>
</g>
<!-- Node24 -->
<g id="node24" class="node"><title>Node24</title>
<g id="a_node24"><a xlink:href="QualityObject_8h_source.html" target="_top" xlink:title="QualityControl/QualityObject.h">
<polygon fill="none" stroke="black" points="31,-129 31,-148 180,-148 180,-129 31,-129"/>
<text text-anchor="middle" x="105.5" y="-136" font-family="Helvetica,sans-Serif" font-size="10.00">QualityControl/QualityObject.h</text>
</a>
</g>
</g>
<!-- Node22&#45;&gt;Node24 -->
<g id="edge31" class="edge"><title>Node22&#45;&gt;Node24</title>
<path fill="none" stroke="midnightblue" d="M398.097,-195.936C336.64,-184.082 225.763,-162.696 159.563,-149.928"/>
<polygon fill="midnightblue" stroke="midnightblue" points="160.216,-146.489 149.734,-148.032 158.89,-153.362 160.216,-146.489"/>
</g>
<!-- Node24&#45;&gt;Node12 -->
<g id="edge32" class="edge"><title>Node24&#45;&gt;Node12</title>
<path fill="none" stroke="midnightblue" d="M105.109,-128.775C104.854,-112.534 106.583,-77.3808 124.5,-56 129.799,-49.677 172.563,-32.5645 201.855,-21.3583"/>
<polygon fill="midnightblue" stroke="midnightblue" points="203.464,-24.4909 211.57,-17.6682 200.979,-17.947 203.464,-24.4909"/>
</g>
<!-- Node24&#45;&gt;Node14 -->
<g id="edge33" class="edge"><title>Node24&#45;&gt;Node14</title>
<path fill="none" stroke="midnightblue" d="M100.276,-128.805C87.9108,-108.223 56.6493,-56.1893 40.1209,-28.6782"/>
<polygon fill="midnightblue" stroke="midnightblue" points="42.9105,-26.5252 34.7603,-19.7557 36.9101,-30.1301 42.9105,-26.5252"/>
</g>
<!-- Node24&#45;&gt;Node15 -->
<g id="edge34" class="edge"><title>Node24&#45;&gt;Node15</title>
<path fill="none" stroke="midnightblue" d="M100.905,-128.594C93.6377,-113.231 81.3115,-80.9934 91.5,-56 96.3,-44.2251 105.829,-33.8564 114.795,-26.0486"/>
<polygon fill="midnightblue" stroke="midnightblue" points="117.15,-28.6448 122.719,-19.6314 112.745,-23.2048 117.15,-28.6448"/>
</g>
<!-- Node25 -->
<g id="node25" class="node"><title>Node25</title>
<g id="a_node25"><a xlink:href="Quality_8h.html" target="_top" xlink:title="QualityControl/Quality.h">
<polygon fill="none" stroke="black" points="303,-62 303,-81 424,-81 424,-62 303,-62"/>
<text text-anchor="middle" x="363.5" y="-69" font-family="Helvetica,sans-Serif" font-size="10.00">QualityControl/Quality.h</text>
</a>
</g>
</g>
<!-- Node24&#45;&gt;Node25 -->
<g id="edge35" class="edge"><title>Node24&#45;&gt;Node25</title>
<path fill="none" stroke="midnightblue" d="M139.494,-128.936C185.803,-117.268 268.767,-96.3669 319.693,-83.5367"/>
<polygon fill="midnightblue" stroke="midnightblue" points="320.589,-86.9205 329.43,-81.0834 318.878,-80.1326 320.589,-86.9205"/>
</g>
<!-- Node25&#45;&gt;Node4 -->
<g id="edge37" class="edge"><title>Node25&#45;&gt;Node4</title>
<path fill="none" stroke="midnightblue" d="M423.103,-61.9751C512.883,-49.1339 679.63,-25.2843 748.504,-15.4334"/>
<polygon fill="midnightblue" stroke="midnightblue" points="749.287,-18.8571 758.69,-13.9764 748.295,-11.9276 749.287,-18.8571"/>
</g>
<!-- Node25&#45;&gt;Node12 -->
<g id="edge38" class="edge"><title>Node25&#45;&gt;Node12</title>
<path fill="none" stroke="midnightblue" d="M344.301,-61.9751C321.328,-51.7745 282.711,-34.6274 256.68,-23.0688"/>
<polygon fill="midnightblue" stroke="midnightblue" points="257.939,-19.7981 247.379,-18.9386 255.098,-26.1957 257.939,-19.7981"/>
</g>
<!-- Node25&#45;&gt;Node13 -->
<g id="edge36" class="edge"><title>Node25&#45;&gt;Node13</title>
<path fill="none" stroke="midnightblue" d="M358.485,-61.9751C353.339,-53.2268 345.188,-39.3691 338.682,-28.3093"/>
<polygon fill="midnightblue" stroke="midnightblue" points="341.592,-26.3539 333.505,-19.5091 335.559,-29.903 341.592,-26.3539"/>
</g>
<!-- Node28 -->
<g id="node28" class="node"><title>Node28</title>
<polygon fill="none" stroke="#bfbfbf" points="1265.5,-196 1265.5,-215 1395.5,-215 1395.5,-196 1265.5,-196"/>
<text text-anchor="middle" x="1330.5" y="-203" font-family="Helvetica,sans-Serif" font-size="10.00">InfoLogger/InfoLogger.hxx</text>
</g>
<!-- Node27&#45;&gt;Node28 -->
<g id="edge45" class="edge"><title>Node27&#45;&gt;Node28</title>
<path fill="none" stroke="midnightblue" d="M1197.82,-262.869C1224.22,-251.65 1270.53,-231.977 1300.86,-219.092"/>
<polygon fill="midnightblue" stroke="midnightblue" points="1302.26,-222.299 1310.1,-215.167 1299.53,-215.856 1302.26,-222.299"/>
</g>
<!-- Node29 -->
<g id="node29" class="node"><title>Node29</title>
<polygon fill="none" stroke="#bfbfbf" points="1413.5,-196 1413.5,-215 1575.5,-215 1575.5,-196 1413.5,-196"/>
<text text-anchor="middle" x="1494.5" y="-203" font-family="Helvetica,sans-Serif" font-size="10.00">InfoLogger/InfoLoggerMacros.hxx</text>
</g>
<!-- Node27&#45;&gt;Node29 -->
<g id="edge46" class="edge"><title>Node27&#45;&gt;Node29</title>
<path fill="none" stroke="midnightblue" d="M1219.27,-262.936C1276.84,-251.131 1380.52,-229.872 1442.88,-217.085"/>
<polygon fill="midnightblue" stroke="midnightblue" points="1443.8,-220.469 1452.89,-215.032 1442.39,-213.612 1443.8,-220.469"/>
</g>
</g>
</svg>
