<?xml version="1.0" encoding="UTF-8" standalone="no"?>
<!DOCTYPE svg PUBLIC "-//W3C//DTD SVG 1.1//EN"
 "http://www.w3.org/Graphics/SVG/1.1/DTD/svg11.dtd">
<!-- Generated by graphviz version 2.38.0 (20140413.2041)
 -->
<!-- Title: Framework/src/PostProcessingDevice.cxx Pages: 1 -->
<svg width="2546pt" height="363pt"
 viewBox="0.00 0.00 2545.50 363.00" xmlns="http://www.w3.org/2000/svg" xmlns:xlink="http://www.w3.org/1999/xlink">
<g id="graph0" class="graph" transform="scale(1 1) rotate(0) translate(4 359)">
<title>Framework/src/PostProcessingDevice.cxx</title>
<!-- Node1 -->
<g id="node1" class="node"><title>Node1</title>
<polygon fill="#bfbfbf" stroke="black" points="1907,-324.5 1907,-354.5 2061,-354.5 2061,-324.5 1907,-324.5"/>
<text text-anchor="start" x="1915" y="-342.5" font-family="Helvetica,sans-Serif" font-size="10.00">Framework/src/PostProcessing</text>
<text text-anchor="middle" x="1984" y="-331.5" font-family="Helvetica,sans-Serif" font-size="10.00">Device.cxx</text>
</g>
<!-- Node2 -->
<g id="node2" class="node"><title>Node2</title>
<g id="a_node2"><a xlink:href="PostProcessingDevice_8h.html" target="_top" xlink:title="QualityControl/PostProcessing\lDevice.h">
<polygon fill="none" stroke="black" points="298.5,-123.5 298.5,-153.5 449.5,-153.5 449.5,-123.5 298.5,-123.5"/>
<text text-anchor="start" x="306.5" y="-141.5" font-family="Helvetica,sans-Serif" font-size="10.00">QualityControl/PostProcessing</text>
<text text-anchor="middle" x="374" y="-130.5" font-family="Helvetica,sans-Serif" font-size="10.00">Device.h</text>
</a>
</g>
</g>
<!-- Node1&#45;&gt;Node2 -->
<g id="edge1" class="edge"><title>Node1&#45;&gt;Node2</title>
<path fill="none" stroke="midnightblue" d="M1906.94,-337.362C1679.54,-333.666 1013.83,-320.31 799,-288 682.698,-270.508 653.372,-261.622 543,-221 494.66,-203.209 441.556,-176.3 408.018,-158.326"/>
<polygon fill="midnightblue" stroke="midnightblue" points="409.56,-155.181 399.098,-153.508 406.234,-161.34 409.56,-155.181"/>
</g>
<!-- Node8 -->
<g id="node8" class="node"><title>Node8</title>
<g id="a_node8"><a xlink:href="PostProcessingRunner_8h.html" target="_top" xlink:title="QualityControl/PostProcessing\lRunner.h">
<polygon fill="none" stroke="black" points="808.5,-257.5 808.5,-287.5 959.5,-287.5 959.5,-257.5 808.5,-257.5"/>
<text text-anchor="start" x="816.5" y="-275.5" font-family="Helvetica,sans-Serif" font-size="10.00">QualityControl/PostProcessing</text>
<text text-anchor="middle" x="884" y="-264.5" font-family="Helvetica,sans-Serif" font-size="10.00">Runner.h</text>
</a>
</g>
</g>
<!-- Node1&#45;&gt;Node8 -->
<g id="edge7" class="edge"><title>Node1&#45;&gt;Node8</title>
<path fill="none" stroke="midnightblue" d="M1906.65,-333.929C1707.55,-322.164 1178.47,-290.901 970.081,-278.587"/>
<polygon fill="midnightblue" stroke="midnightblue" points="969.993,-275.075 959.804,-277.979 969.58,-282.063 969.993,-275.075"/>
</g>
<!-- Node20 -->
<g id="node20" class="node"><title>Node20</title>
<polygon fill="none" stroke="#bfbfbf" points="1786,-0.5 1786,-19.5 1902,-19.5 1902,-0.5 1786,-0.5"/>
<text text-anchor="middle" x="1844" y="-7.5" font-family="Helvetica,sans-Serif" font-size="10.00">Common/Exceptions.h</text>
</g>
<!-- Node1&#45;&gt;Node20 -->
<g id="edge60" class="edge"><title>Node1&#45;&gt;Node20</title>
<path fill="none" stroke="midnightblue" d="M1946.88,-324.299C1930.17,-316.101 1911.62,-304.163 1900,-288 1878.34,-257.883 1882,-243.595 1882,-206.5 1882,-206.5 1882,-206.5 1882,-137.5 1882,-97.3496 1864.22,-52.9463 1852.99,-28.8892"/>
<polygon fill="midnightblue" stroke="midnightblue" points="1856.01,-27.1043 1848.51,-19.6255 1849.71,-30.1518 1856.01,-27.1043"/>
</g>
<!-- Node31 -->
<g id="node31" class="node"><title>Node31</title>
<g id="a_node31"><a xlink:href="QcInfoLogger_8h.html" target="_top" xlink:title="QualityControl/QcInfoLogger.h">
<polygon fill="none" stroke="black" points="1909.5,-263 1909.5,-282 2058.5,-282 2058.5,-263 1909.5,-263"/>
<text text-anchor="middle" x="1984" y="-270" font-family="Helvetica,sans-Serif" font-size="10.00">QualityControl/QcInfoLogger.h</text>
</a>
</g>
</g>
<!-- Node1&#45;&gt;Node31 -->
<g id="edge57" class="edge"><title>Node1&#45;&gt;Node31</title>
<path fill="none" stroke="midnightblue" d="M1984,-324.396C1984,-315.064 1984,-302.714 1984,-292.517"/>
<polygon fill="midnightblue" stroke="midnightblue" points="1987.5,-292.195 1984,-282.195 1980.5,-292.195 1987.5,-292.195"/>
</g>
<!-- Node34 -->
<g id="node34" class="node"><title>Node34</title>
<polygon fill="none" stroke="#bfbfbf" points="2076.5,-257.5 2076.5,-287.5 2211.5,-287.5 2211.5,-257.5 2076.5,-257.5"/>
<text text-anchor="start" x="2084.5" y="-275.5" font-family="Helvetica,sans-Serif" font-size="10.00">Configuration/Configuration</text>
<text text-anchor="middle" x="2144" y="-264.5" font-family="Helvetica,sans-Serif" font-size="10.00">Factory.h</text>
</g>
<!-- Node1&#45;&gt;Node34 -->
<g id="edge61" class="edge"><title>Node1&#45;&gt;Node34</title>
<path fill="none" stroke="midnightblue" d="M2018.72,-324.396C2042.51,-314.728 2074.28,-301.823 2099.87,-291.426"/>
<polygon fill="midnightblue" stroke="midnightblue" points="2101.4,-294.583 2109.35,-287.577 2098.77,-288.098 2101.4,-294.583"/>
</g>
<!-- Node35 -->
<g id="node35" class="node"><title>Node35</title>
<polygon fill="none" stroke="#bfbfbf" points="2230,-263 2230,-282 2378,-282 2378,-263 2230,-263"/>
<text text-anchor="middle" x="2304" y="-270" font-family="Helvetica,sans-Serif" font-size="10.00">Framework/CallbackService.h</text>
</g>
<!-- Node1&#45;&gt;Node35 -->
<g id="edge62" class="edge"><title>Node1&#45;&gt;Node35</title>
<path fill="none" stroke="midnightblue" d="M2053.04,-324.476C2112.76,-312.345 2197.8,-295.071 2251.94,-284.074"/>
<polygon fill="midnightblue" stroke="midnightblue" points="2252.91,-287.449 2262.01,-282.029 2251.52,-280.589 2252.91,-287.449"/>
</g>
<!-- Node36 -->
<g id="node36" class="node"><title>Node36</title>
<polygon fill="none" stroke="#bfbfbf" points="2396.5,-263 2396.5,-282 2537.5,-282 2537.5,-263 2396.5,-263"/>
<text text-anchor="middle" x="2467" y="-270" font-family="Helvetica,sans-Serif" font-size="10.00">Framework/ControlService.h</text>
</g>
<!-- Node1&#45;&gt;Node36 -->
<g id="edge63" class="edge"><title>Node1&#45;&gt;Node36</title>
<path fill="none" stroke="midnightblue" d="M2061.06,-330.111C2142.29,-320.971 2273.91,-305.321 2387,-288 2395.13,-286.754 2403.71,-285.324 2412.11,-283.858"/>
<polygon fill="midnightblue" stroke="midnightblue" points="2412.99,-287.256 2422.22,-282.061 2411.76,-280.364 2412.99,-287.256"/>
</g>
<!-- Node3 -->
<g id="node3" class="node"><title>Node3</title>
<polygon fill="none" stroke="#bfbfbf" points="318,-62 318,-81 416,-81 416,-62 318,-62"/>
<text text-anchor="middle" x="367" y="-69" font-family="Helvetica,sans-Serif" font-size="10.00">Framework/Task.h</text>
</g>
<!-- Node2&#45;&gt;Node3 -->
<g id="edge2" class="edge"><title>Node2&#45;&gt;Node3</title>
<path fill="none" stroke="midnightblue" d="M372.481,-123.396C371.465,-113.963 370.118,-101.448 369.013,-91.1891"/>
<polygon fill="midnightblue" stroke="midnightblue" points="372.487,-90.7623 367.936,-81.1945 365.527,-91.5118 372.487,-90.7623"/>
</g>
<!-- Node4 -->
<g id="node4" class="node"><title>Node4</title>
<polygon fill="none" stroke="#bfbfbf" points="0,-62 0,-81 164,-81 164,-62 0,-62"/>
<text text-anchor="middle" x="82" y="-69" font-family="Helvetica,sans-Serif" font-size="10.00">Framework/DataProcessorSpec.h</text>
</g>
<!-- Node2&#45;&gt;Node4 -->
<g id="edge3" class="edge"><title>Node2&#45;&gt;Node4</title>
<path fill="none" stroke="midnightblue" d="M311,-123.476C256.73,-111.395 179.548,-94.2145 130.118,-83.2112"/>
<polygon fill="midnightblue" stroke="midnightblue" points="130.835,-79.7852 120.313,-81.0287 129.314,-86.618 130.835,-79.7852"/>
</g>
<!-- Node5 -->
<g id="node5" class="node"><title>Node5</title>
<polygon fill="none" stroke="#bfbfbf" points="182.5,-62 182.5,-81 299.5,-81 299.5,-62 182.5,-62"/>
<text text-anchor="middle" x="241" y="-69" font-family="Helvetica,sans-Serif" font-size="10.00">Headers/DataHeader.h</text>
</g>
<!-- Node2&#45;&gt;Node5 -->
<g id="edge4" class="edge"><title>Node2&#45;&gt;Node5</title>
<path fill="none" stroke="midnightblue" d="M345.141,-123.396C322.114,-112.142 290.11,-96.501 267.677,-85.5375"/>
<polygon fill="midnightblue" stroke="midnightblue" points="268.928,-82.2534 258.407,-81.007 265.854,-88.5425 268.928,-82.2534"/>
</g>
<!-- Node6 -->
<g id="node6" class="node"><title>Node6</title>
<polygon fill="none" stroke="#bfbfbf" points="1166.5,-0.5 1166.5,-19.5 1207.5,-19.5 1207.5,-0.5 1166.5,-0.5"/>
<text text-anchor="middle" x="1187" y="-7.5" font-family="Helvetica,sans-Serif" font-size="10.00">string</text>
</g>
<!-- Node2&#45;&gt;Node6 -->
<g id="edge5" class="edge"><title>Node2&#45;&gt;Node6</title>
<path fill="none" stroke="midnightblue" d="M388.313,-123.406C411.114,-101.107 454.033,-59.8096 463,-56 527.473,-28.6076 1026.77,-14.8381 1156.35,-11.703"/>
<polygon fill="midnightblue" stroke="midnightblue" points="1156.48,-15.2013 1166.39,-11.4638 1156.31,-8.20324 1156.48,-15.2013"/>
</g>
<!-- Node7 -->
<g id="node7" class="node"><title>Node7</title>
<polygon fill="none" stroke="#bfbfbf" points="472,-62 472,-81 524,-81 524,-62 472,-62"/>
<text text-anchor="middle" x="498" y="-69" font-family="Helvetica,sans-Serif" font-size="10.00">memory</text>
</g>
<!-- Node2&#45;&gt;Node7 -->
<g id="edge6" class="edge"><title>Node2&#45;&gt;Node7</title>
<path fill="none" stroke="midnightblue" d="M400.906,-123.396C422.278,-112.193 451.946,-96.6412 472.847,-85.6853"/>
<polygon fill="midnightblue" stroke="midnightblue" points="474.539,-88.7497 481.771,-81.007 471.289,-82.5499 474.539,-88.7497"/>
</g>
<!-- Node8&#45;&gt;Node7 -->
<g id="edge8" class="edge"><title>Node8&#45;&gt;Node7</title>
<path fill="none" stroke="midnightblue" d="M808.299,-266.778C729.37,-260.529 612.202,-247.11 576,-221 531.42,-188.847 510.176,-123.382 502.091,-91.2047"/>
<polygon fill="midnightblue" stroke="midnightblue" points="505.463,-90.2519 499.763,-81.3205 498.649,-91.8566 505.463,-90.2519"/>
</g>
<!-- Node9 -->
<g id="node9" class="node"><title>Node9</title>
<polygon fill="none" stroke="#bfbfbf" points="703.5,-62 703.5,-81 762.5,-81 762.5,-62 703.5,-62"/>
<text text-anchor="middle" x="733" y="-69" font-family="Helvetica,sans-Serif" font-size="10.00">functional</text>
</g>
<!-- Node8&#45;&gt;Node9 -->
<g id="edge9" class="edge"><title>Node8&#45;&gt;Node9</title>
<path fill="none" stroke="midnightblue" d="M808.217,-269.269C732.123,-262.221 621.25,-237.363 586,-154 580.634,-141.31 577.944,-134.177 586,-123 615.584,-81.954 646.281,-103.819 694,-87 696.242,-86.2099 698.552,-85.3833 700.875,-84.5427"/>
<polygon fill="midnightblue" stroke="midnightblue" points="702.178,-87.793 710.363,-81.0655 699.769,-81.2204 702.178,-87.793"/>
</g>
<!-- Node10 -->
<g id="node10" class="node"><title>Node10</title>
<polygon fill="none" stroke="#bfbfbf" points="815,-129 815,-148 961,-148 961,-129 815,-129"/>
<text text-anchor="middle" x="888" y="-136" font-family="Helvetica,sans-Serif" font-size="10.00">Framework/ServiceRegistry.h</text>
</g>
<!-- Node8&#45;&gt;Node10 -->
<g id="edge10" class="edge"><title>Node8&#45;&gt;Node10</title>
<path fill="none" stroke="midnightblue" d="M884.428,-257.374C885.151,-233.504 886.616,-185.181 887.427,-158.415"/>
<polygon fill="midnightblue" stroke="midnightblue" points="890.935,-158.199 887.739,-148.097 883.938,-157.987 890.935,-158.199"/>
</g>
<!-- Node11 -->
<g id="node11" class="node"><title>Node11</title>
<polygon fill="none" stroke="#bfbfbf" points="595.5,-123.5 595.5,-153.5 696.5,-153.5 696.5,-123.5 595.5,-123.5"/>
<text text-anchor="start" x="603.5" y="-141.5" font-family="Helvetica,sans-Serif" font-size="10.00">boost/property_tree</text>
<text text-anchor="middle" x="646" y="-130.5" font-family="Helvetica,sans-Serif" font-size="10.00">/ptree_fwd.hpp</text>
</g>
<!-- Node8&#45;&gt;Node11 -->
<g id="edge11" class="edge"><title>Node8&#45;&gt;Node11</title>
<path fill="none" stroke="midnightblue" d="M808.11,-269.577C765.383,-264.75 713.619,-252.148 678,-221 661.26,-206.362 653.203,-181.84 649.371,-163.51"/>
<polygon fill="midnightblue" stroke="midnightblue" points="652.794,-162.772 647.569,-153.555 645.906,-164.019 652.794,-162.772"/>
</g>
<!-- Node12 -->
<g id="node12" class="node"><title>Node12</title>
<g id="a_node12"><a xlink:href="PostProcessingInterface_8h.html" target="_top" xlink:title="QualityControl/PostProcessing\lInterface.h">
<polygon fill="none" stroke="black" points="912.5,-190.5 912.5,-220.5 1063.5,-220.5 1063.5,-190.5 912.5,-190.5"/>
<text text-anchor="start" x="920.5" y="-208.5" font-family="Helvetica,sans-Serif" font-size="10.00">QualityControl/PostProcessing</text>
<text text-anchor="middle" x="988" y="-197.5" font-family="Helvetica,sans-Serif" font-size="10.00">Interface.h</text>
</a>
</g>
</g>
<!-- Node8&#45;&gt;Node12 -->
<g id="edge12" class="edge"><title>Node8&#45;&gt;Node12</title>
<path fill="none" stroke="midnightblue" d="M906.566,-257.396C921.285,-248.197 940.695,-236.066 956.873,-225.955"/>
<polygon fill="midnightblue" stroke="midnightblue" points="958.853,-228.845 965.478,-220.577 955.143,-222.909 958.853,-228.845"/>
</g>
<!-- Node13 -->
<g id="node13" class="node"><title>Node13</title>
<g id="a_node13"><a xlink:href="Triggers_8h.html" target="_top" xlink:title="QualityControl/Triggers.h">
<polygon fill="none" stroke="black" points="1055.5,-129 1055.5,-148 1180.5,-148 1180.5,-129 1055.5,-129"/>
<text text-anchor="middle" x="1118" y="-136" font-family="Helvetica,sans-Serif" font-size="10.00">QualityControl/Triggers.h</text>
</a>
</g>
</g>
<!-- Node8&#45;&gt;Node13 -->
<g id="edge39" class="edge"><title>Node8&#45;&gt;Node13</title>
<path fill="none" stroke="midnightblue" d="M959.668,-264.93C996.643,-258.505 1039.95,-245.855 1072,-221 1092.82,-204.852 1105.72,-176.457 1112.38,-157.811"/>
<polygon fill="midnightblue" stroke="midnightblue" points="1115.77,-158.72 1115.6,-148.126 1109.12,-156.516 1115.77,-158.72"/>
</g>
<!-- Node15 -->
<g id="node15" class="node"><title>Node15</title>
<g id="a_node15"><a xlink:href="ObjectsManager_8h.html" target="_top" xlink:title="QualityControl/ObjectsManager.h">
<polygon fill="none" stroke="black" points="1237.5,-129 1237.5,-148 1398.5,-148 1398.5,-129 1237.5,-129"/>
<text text-anchor="middle" x="1318" y="-136" font-family="Helvetica,sans-Serif" font-size="10.00">QualityControl/ObjectsManager.h</text>
</a>
</g>
</g>
<!-- Node8&#45;&gt;Node15 -->
<g id="edge55" class="edge"><title>Node8&#45;&gt;Node15</title>
<path fill="none" stroke="midnightblue" d="M959.598,-272.324C1065.48,-271.852 1250.45,-264.57 1299,-221 1316.45,-205.336 1319.45,-177.024 1319.28,-158.241"/>
<polygon fill="midnightblue" stroke="midnightblue" points="1322.78,-158.067 1318.89,-148.213 1315.78,-158.343 1322.78,-158.067"/>
</g>
<!-- Node21 -->
<g id="node21" class="node"><title>Node21</title>
<g id="a_node21"><a xlink:href="MonitorObjectCollection_8h.html" target="_top" xlink:title="QualityControl/MonitorObject\lCollection.h">
<polygon fill="none" stroke="black" points="542.5,-56.5 542.5,-86.5 685.5,-86.5 685.5,-56.5 542.5,-56.5"/>
<text text-anchor="start" x="550.5" y="-74.5" font-family="Helvetica,sans-Serif" font-size="10.00">QualityControl/MonitorObject</text>
<text text-anchor="middle" x="614" y="-63.5" font-family="Helvetica,sans-Serif" font-size="10.00">Collection.h</text>
</a>
</g>
</g>
<!-- Node8&#45;&gt;Node21 -->
<g id="edge56" class="edge"><title>Node8&#45;&gt;Node21</title>
<path fill="none" stroke="midnightblue" d="M808.338,-265.46C737.667,-258.456 638.612,-244.719 608,-221 571.889,-193.02 562.796,-166.419 577,-123 580.396,-112.618 586.828,-102.605 593.389,-94.2707"/>
<polygon fill="midnightblue" stroke="midnightblue" points="596.128,-96.4512 599.885,-86.5447 590.771,-91.9463 596.128,-96.4512"/>
</g>
<!-- Node26 -->
<g id="node26" class="node"><title>Node26</title>
<g id="a_node26"><a xlink:href="PostProcessingConfig_8h.html" target="_top" xlink:title="QualityControl/PostProcessing\lConfig.h">
<polygon fill="none" stroke="black" points="687.5,-190.5 687.5,-220.5 838.5,-220.5 838.5,-190.5 687.5,-190.5"/>
<text text-anchor="start" x="695.5" y="-208.5" font-family="Helvetica,sans-Serif" font-size="10.00">QualityControl/PostProcessing</text>
<text text-anchor="middle" x="763" y="-197.5" font-family="Helvetica,sans-Serif" font-size="10.00">Config.h</text>
</a>
</g>
</g>
<!-- Node8&#45;&gt;Node26 -->
<g id="edge35" class="edge"><title>Node8&#45;&gt;Node26</title>
<path fill="none" stroke="midnightblue" d="M857.745,-257.396C840.303,-248.026 817.2,-235.615 798.174,-225.395"/>
<polygon fill="midnightblue" stroke="midnightblue" points="799.67,-222.226 789.204,-220.577 796.357,-228.392 799.67,-222.226"/>
</g>
<!-- Node28 -->
<g id="node28" class="node"><title>Node28</title>
<g id="a_node28"><a xlink:href="DatabaseInterface_8h.html" target="_top" xlink:title="QualityControl/DatabaseInterface.h">
<polygon fill="none" stroke="black" points="1120,-196 1120,-215 1290,-215 1290,-196 1120,-196"/>
<text text-anchor="middle" x="1205" y="-203" font-family="Helvetica,sans-Serif" font-size="10.00">QualityControl/DatabaseInterface.h</text>
</a>
</g>
</g>
<!-- Node8&#45;&gt;Node28 -->
<g id="edge40" class="edge"><title>Node8&#45;&gt;Node28</title>
<path fill="none" stroke="midnightblue" d="M953.257,-257.476C1013.17,-245.345 1098.47,-228.071 1152.78,-217.074"/>
<polygon fill="midnightblue" stroke="midnightblue" points="1153.78,-220.444 1162.88,-215.029 1152.39,-213.583 1153.78,-220.444"/>
</g>
<!-- Node12&#45;&gt;Node6 -->
<g id="edge13" class="edge"><title>Node12&#45;&gt;Node6</title>
<path fill="none" stroke="midnightblue" d="M995.009,-190.441C1009.9,-161.792 1047.25,-95.9864 1095,-56 1113.34,-40.6409 1137.82,-28.9962 1156.91,-21.4042"/>
<polygon fill="midnightblue" stroke="midnightblue" points="1158.25,-24.6398 1166.34,-17.8052 1155.75,-18.0995 1158.25,-24.6398"/>
</g>
<!-- Node12&#45;&gt;Node10 -->
<g id="edge14" class="edge"><title>Node12&#45;&gt;Node10</title>
<path fill="none" stroke="midnightblue" d="M966.301,-190.396C949.532,-179.496 926.429,-164.479 909.667,-153.584"/>
<polygon fill="midnightblue" stroke="midnightblue" points="911.38,-150.522 901.088,-148.007 907.565,-156.391 911.38,-150.522"/>
</g>
<!-- Node12&#45;&gt;Node11 -->
<g id="edge15" class="edge"><title>Node12&#45;&gt;Node11</title>
<path fill="none" stroke="midnightblue" d="M914.212,-190.476C852.249,-178.699 764.784,-162.076 706.789,-151.053"/>
<polygon fill="midnightblue" stroke="midnightblue" points="707.151,-147.56 696.673,-149.131 705.843,-154.436 707.151,-147.56"/>
</g>
<!-- Node12&#45;&gt;Node13 -->
<g id="edge16" class="edge"><title>Node12&#45;&gt;Node13</title>
<path fill="none" stroke="midnightblue" d="M1016.21,-190.396C1038.72,-179.142 1070,-163.501 1091.92,-152.538"/>
<polygon fill="midnightblue" stroke="midnightblue" points="1093.61,-155.61 1100.99,-148.007 1090.48,-149.349 1093.61,-155.61"/>
</g>
<!-- Node12&#45;&gt;Node15 -->
<g id="edge20" class="edge"><title>Node12&#45;&gt;Node15</title>
<path fill="none" stroke="midnightblue" d="M1059.2,-190.476C1120.92,-178.32 1208.85,-160.999 1264.67,-150.005"/>
<polygon fill="midnightblue" stroke="midnightblue" points="1265.57,-153.395 1274.7,-148.029 1264.21,-146.527 1265.57,-153.395"/>
</g>
<!-- Node13&#45;&gt;Node6 -->
<g id="edge17" class="edge"><title>Node13&#45;&gt;Node6</title>
<path fill="none" stroke="midnightblue" d="M1113.04,-128.963C1104.67,-113.332 1089.97,-79.5615 1104,-56 1115.37,-36.8982 1137.99,-25.4059 1156.75,-18.8216"/>
<polygon fill="midnightblue" stroke="midnightblue" points="1157.94,-22.1142 1166.4,-15.7314 1155.81,-15.4476 1157.94,-22.1142"/>
</g>
<!-- Node13&#45;&gt;Node9 -->
<g id="edge18" class="edge"><title>Node13&#45;&gt;Node9</title>
<path fill="none" stroke="midnightblue" d="M1067.27,-128.936C989.779,-115.852 843.505,-91.1567 772.995,-79.2524"/>
<polygon fill="midnightblue" stroke="midnightblue" points="773.198,-75.7372 762.755,-77.5235 772.032,-82.6395 773.198,-75.7372"/>
</g>
<!-- Node14 -->
<g id="node14" class="node"><title>Node14</title>
<polygon fill="none" stroke="#bfbfbf" points="1113.5,-62 1113.5,-81 1158.5,-81 1158.5,-62 1113.5,-62"/>
<text text-anchor="middle" x="1136" y="-69" font-family="Helvetica,sans-Serif" font-size="10.00">iosfwd</text>
</g>
<!-- Node13&#45;&gt;Node14 -->
<g id="edge19" class="edge"><title>Node13&#45;&gt;Node14</title>
<path fill="none" stroke="midnightblue" d="M1120.43,-128.734C1123.1,-119.085 1127.47,-103.3 1130.9,-90.9063"/>
<polygon fill="midnightblue" stroke="midnightblue" points="1134.32,-91.6987 1133.61,-81.1273 1127.57,-89.8305 1134.32,-91.6987"/>
</g>
<!-- Node15&#45;&gt;Node6 -->
<g id="edge33" class="edge"><title>Node15&#45;&gt;Node6</title>
<path fill="none" stroke="midnightblue" d="M1302.47,-128.948C1286.7,-119.819 1262.1,-104.307 1244,-87 1225.27,-69.0857 1208.05,-44.5247 1197.55,-28.2289"/>
<polygon fill="midnightblue" stroke="midnightblue" points="1200.47,-26.3005 1192.19,-19.7021 1194.55,-30.0296 1200.47,-26.3005"/>
</g>
<!-- Node15&#45;&gt;Node7 -->
<g id="edge34" class="edge"><title>Node15&#45;&gt;Node7</title>
<path fill="none" stroke="midnightblue" d="M1248.78,-128.983C1229.45,-126.805 1208.43,-124.624 1189,-123 898.02,-98.6823 817.713,-151.802 533,-87 530.327,-86.3915 527.596,-85.5967 524.897,-84.6923"/>
<polygon fill="midnightblue" stroke="midnightblue" points="526.015,-81.3727 515.424,-81.0746 523.517,-87.912 526.015,-81.3727"/>
</g>
<!-- Node16 -->
<g id="node16" class="node"><title>Node16</title>
<g id="a_node16"><a xlink:href="MonitorObject_8h.html" target="_top" xlink:title="QualityControl/MonitorObject.h">
<polygon fill="none" stroke="black" points="1588.5,-62 1588.5,-81 1739.5,-81 1739.5,-62 1588.5,-62"/>
<text text-anchor="middle" x="1664" y="-69" font-family="Helvetica,sans-Serif" font-size="10.00">QualityControl/MonitorObject.h</text>
</a>
</g>
</g>
<!-- Node15&#45;&gt;Node16 -->
<g id="edge21" class="edge"><title>Node15&#45;&gt;Node16</title>
<path fill="none" stroke="midnightblue" d="M1363.59,-128.936C1426.69,-117.082 1540.53,-95.6961 1608.49,-82.9276"/>
<polygon fill="midnightblue" stroke="midnightblue" points="1609.4,-86.318 1618.58,-81.0317 1608.11,-79.4383 1609.4,-86.318"/>
</g>
<!-- Node15&#45;&gt;Node21 -->
<g id="edge27" class="edge"><title>Node15&#45;&gt;Node21</title>
<path fill="none" stroke="midnightblue" d="M1246.74,-128.983C1227.98,-126.879 1207.74,-124.734 1189,-123 972.682,-102.984 914.582,-114.352 696.091,-87.1861"/>
<polygon fill="midnightblue" stroke="midnightblue" points="696.261,-83.68 685.902,-85.906 695.388,-90.6254 696.261,-83.68"/>
</g>
<!-- Node24 -->
<g id="node24" class="node"><title>Node24</title>
<g id="a_node24"><a xlink:href="TaskConfig_8h.html" target="_top" xlink:title="QualityControl/TaskConfig.h">
<polygon fill="none" stroke="black" points="1253,-62 1253,-81 1393,-81 1393,-62 1253,-62"/>
<text text-anchor="middle" x="1323" y="-69" font-family="Helvetica,sans-Serif" font-size="10.00">QualityControl/TaskConfig.h</text>
</a>
</g>
</g>
<!-- Node15&#45;&gt;Node24 -->
<g id="edge30" class="edge"><title>Node15&#45;&gt;Node24</title>
<path fill="none" stroke="midnightblue" d="M1318.67,-128.734C1319.41,-119.183 1320.61,-103.618 1321.56,-91.2829"/>
<polygon fill="midnightblue" stroke="midnightblue" points="1325.06,-91.3663 1322.34,-81.1273 1318.08,-90.8294 1325.06,-91.3663"/>
</g>
<!-- Node16&#45;&gt;Node6 -->
<g id="edge22" class="edge"><title>Node16&#45;&gt;Node6</title>
<path fill="none" stroke="midnightblue" d="M1616.86,-61.9872C1604.56,-59.8947 1591.3,-57.7539 1579,-56 1445.06,-36.9022 1284.46,-20.4877 1218.07,-13.9834"/>
<polygon fill="midnightblue" stroke="midnightblue" points="1218.17,-10.4767 1207.87,-12.9905 1217.49,-17.4437 1218.17,-10.4767"/>
</g>
<!-- Node17 -->
<g id="node17" class="node"><title>Node17</title>
<polygon fill="none" stroke="#bfbfbf" points="1646.5,-0.5 1646.5,-19.5 1681.5,-19.5 1681.5,-0.5 1646.5,-0.5"/>
<text text-anchor="middle" x="1664" y="-7.5" font-family="Helvetica,sans-Serif" font-size="10.00">map</text>
</g>
<!-- Node16&#45;&gt;Node17 -->
<g id="edge23" class="edge"><title>Node16&#45;&gt;Node17</title>
<path fill="none" stroke="midnightblue" d="M1664,-61.9751C1664,-53.5803 1664,-40.4806 1664,-29.6631"/>
<polygon fill="midnightblue" stroke="midnightblue" points="1667.5,-29.5091 1664,-19.5091 1660.5,-29.5091 1667.5,-29.5091"/>
</g>
<!-- Node18 -->
<g id="node18" class="node"><title>Node18</title>
<polygon fill="none" stroke="#bfbfbf" points="1527,-0.5 1527,-19.5 1583,-19.5 1583,-0.5 1527,-0.5"/>
<text text-anchor="middle" x="1555" y="-7.5" font-family="Helvetica,sans-Serif" font-size="10.00">Rtypes.h</text>
</g>
<!-- Node16&#45;&gt;Node18 -->
<g id="edge24" class="edge"><title>Node16&#45;&gt;Node18</title>
<path fill="none" stroke="midnightblue" d="M1648.38,-61.9751C1630.41,-52.1664 1600.68,-35.9346 1579.59,-24.425"/>
<polygon fill="midnightblue" stroke="midnightblue" points="1581.04,-21.2284 1570.59,-19.5091 1577.69,-27.3726 1581.04,-21.2284"/>
</g>
<!-- Node19 -->
<g id="node19" class="node"><title>Node19</title>
<polygon fill="none" stroke="#bfbfbf" points="1704.5,-0.5 1704.5,-19.5 1763.5,-19.5 1763.5,-0.5 1704.5,-0.5"/>
<text text-anchor="middle" x="1734" y="-7.5" font-family="Helvetica,sans-Serif" font-size="10.00">TObject.h</text>
</g>
<!-- Node16&#45;&gt;Node19 -->
<g id="edge25" class="edge"><title>Node16&#45;&gt;Node19</title>
<path fill="none" stroke="midnightblue" d="M1674.03,-61.9751C1685.05,-52.6082 1702.96,-37.3839 1716.34,-26.0081"/>
<polygon fill="midnightblue" stroke="midnightblue" points="1718.64,-28.6524 1723.99,-19.5091 1714.1,-23.3188 1718.64,-28.6524"/>
</g>
<!-- Node16&#45;&gt;Node20 -->
<g id="edge26" class="edge"><title>Node16&#45;&gt;Node20</title>
<path fill="none" stroke="midnightblue" d="M1689.79,-61.9751C1720.93,-51.6804 1773.48,-34.3103 1808.45,-22.7502"/>
<polygon fill="midnightblue" stroke="midnightblue" points="1809.86,-25.9708 1818.26,-19.5091 1807.66,-19.3245 1809.86,-25.9708"/>
</g>
<!-- Node22 -->
<g id="node22" class="node"><title>Node22</title>
<polygon fill="none" stroke="#bfbfbf" points="520.5,-0.5 520.5,-19.5 589.5,-19.5 589.5,-0.5 520.5,-0.5"/>
<text text-anchor="middle" x="555" y="-7.5" font-family="Helvetica,sans-Serif" font-size="10.00">TObjArray.h</text>
</g>
<!-- Node21&#45;&gt;Node22 -->
<g id="edge28" class="edge"><title>Node21&#45;&gt;Node22</title>
<path fill="none" stroke="midnightblue" d="M600.018,-56.3993C591.268,-47.575 579.971,-36.1827 570.883,-27.0178"/>
<polygon fill="midnightblue" stroke="midnightblue" points="573.112,-24.2942 563.585,-19.6578 568.141,-29.2231 573.112,-24.2942"/>
</g>
<!-- Node23 -->
<g id="node23" class="node"><title>Node23</title>
<polygon fill="none" stroke="#bfbfbf" points="608,-0.5 608,-19.5 736,-19.5 736,-0.5 608,-0.5"/>
<text text-anchor="middle" x="672" y="-7.5" font-family="Helvetica,sans-Serif" font-size="10.00">Mergers/MergeInterface.h</text>
</g>
<!-- Node21&#45;&gt;Node23 -->
<g id="edge29" class="edge"><title>Node21&#45;&gt;Node23</title>
<path fill="none" stroke="midnightblue" d="M627.745,-56.3993C636.347,-47.575 647.452,-36.1827 656.386,-27.0178"/>
<polygon fill="midnightblue" stroke="midnightblue" points="659.086,-29.2616 663.56,-19.6578 654.074,-24.3755 659.086,-29.2616"/>
</g>
<!-- Node24&#45;&gt;Node6 -->
<g id="edge31" class="edge"><title>Node24&#45;&gt;Node6</title>
<path fill="none" stroke="midnightblue" d="M1303.51,-61.9751C1280.59,-51.9455 1242.31,-35.2002 1215.92,-23.6546"/>
<polygon fill="midnightblue" stroke="midnightblue" points="1217.01,-20.3108 1206.45,-19.5091 1214.21,-26.7239 1217.01,-20.3108"/>
</g>
<!-- Node25 -->
<g id="node25" class="node"><title>Node25</title>
<polygon fill="none" stroke="#bfbfbf" points="1330.5,-0.5 1330.5,-19.5 1413.5,-19.5 1413.5,-0.5 1330.5,-0.5"/>
<text text-anchor="middle" x="1372" y="-7.5" font-family="Helvetica,sans-Serif" font-size="10.00">unordered_map</text>
</g>
<!-- Node24&#45;&gt;Node25 -->
<g id="edge32" class="edge"><title>Node24&#45;&gt;Node25</title>
<path fill="none" stroke="midnightblue" d="M1330.02,-61.9751C1337.44,-52.9617 1349.33,-38.5246 1358.57,-27.3118"/>
<polygon fill="midnightblue" stroke="midnightblue" points="1361.34,-29.4534 1364.99,-19.5091 1355.93,-25.0034 1361.34,-29.4534"/>
</g>
<!-- Node26&#45;&gt;Node6 -->
<g id="edge37" class="edge"><title>Node26&#45;&gt;Node6</title>
<path fill="none" stroke="midnightblue" d="M753.247,-190.303C742.502,-172.73 728.647,-142.717 744,-123 795.569,-56.7702 1064.6,-23.5032 1156.33,-13.9595"/>
<polygon fill="midnightblue" stroke="midnightblue" points="1156.77,-17.4325 1166.36,-12.9369 1156.06,-10.4686 1156.77,-17.4325"/>
</g>
<!-- Node26&#45;&gt;Node11 -->
<g id="edge38" class="edge"><title>Node26&#45;&gt;Node11</title>
<path fill="none" stroke="midnightblue" d="M737.613,-190.396C720.824,-181.069 698.611,-168.728 680.262,-158.534"/>
<polygon fill="midnightblue" stroke="midnightblue" points="681.779,-155.373 671.338,-153.577 678.38,-161.493 681.779,-155.373"/>
</g>
<!-- Node27 -->
<g id="node27" class="node"><title>Node27</title>
<polygon fill="none" stroke="#bfbfbf" points="753,-129 753,-148 797,-148 797,-129 753,-129"/>
<text text-anchor="middle" x="775" y="-136" font-family="Helvetica,sans-Serif" font-size="10.00">vector</text>
</g>
<!-- Node26&#45;&gt;Node27 -->
<g id="edge36" class="edge"><title>Node26&#45;&gt;Node27</title>
<path fill="none" stroke="midnightblue" d="M765.604,-190.396C767.345,-180.963 769.656,-168.448 771.55,-158.189"/>
<polygon fill="midnightblue" stroke="midnightblue" points="775.021,-158.664 773.395,-148.195 768.137,-157.393 775.021,-158.664"/>
</g>
<!-- Node28&#45;&gt;Node6 -->
<g id="edge41" class="edge"><title>Node28&#45;&gt;Node6</title>
<path fill="none" stroke="midnightblue" d="M1204.2,-195.936C1201.49,-166.787 1192.58,-70.9675 1188.76,-29.9284"/>
<polygon fill="midnightblue" stroke="midnightblue" points="1192.24,-29.5396 1187.83,-19.9068 1185.27,-30.1881 1192.24,-29.5396"/>
</g>
<!-- Node28&#45;&gt;Node7 -->
<g id="edge42" class="edge"><title>Node28&#45;&gt;Node7</title>
<path fill="none" stroke="midnightblue" d="M1175.75,-195.974C1143.68,-186.447 1090.8,-170.221 1046,-154 1011.7,-141.58 1005.48,-131.485 970,-123 780.465,-77.6721 722.411,-132.846 533,-87 530.483,-86.3908 527.912,-85.6259 525.364,-84.7677"/>
<polygon fill="midnightblue" stroke="midnightblue" points="526.398,-81.4162 515.807,-81.1271 523.906,-87.9577 526.398,-81.4162"/>
</g>
<!-- Node28&#45;&gt;Node10 -->
<g id="edge45" class="edge"><title>Node28&#45;&gt;Node10</title>
<path fill="none" stroke="midnightblue" d="M1163.23,-195.936C1105.66,-184.131 1001.98,-162.872 939.624,-150.085"/>
<polygon fill="midnightblue" stroke="midnightblue" points="940.108,-146.612 929.609,-148.032 938.702,-153.469 940.108,-146.612"/>
</g>
<!-- Node28&#45;&gt;Node16 -->
<g id="edge54" class="edge"><title>Node28&#45;&gt;Node16</title>
<path fill="none" stroke="midnightblue" d="M1254.77,-195.941C1302.87,-187.178 1377.59,-172.275 1441,-154 1511.4,-133.71 1591.55,-102.305 1633.97,-85.0016"/>
<polygon fill="midnightblue" stroke="midnightblue" points="1635.49,-88.1586 1643.42,-81.125 1632.83,-81.6823 1635.49,-88.1586"/>
</g>
<!-- Node28&#45;&gt;Node25 -->
<g id="edge44" class="edge"><title>Node28&#45;&gt;Node25</title>
<path fill="none" stroke="midnightblue" d="M1276.37,-195.982C1327.78,-188.208 1390.82,-174.728 1407,-154 1415.11,-143.617 1411.88,-84.7223 1402,-56 1398.46,-45.6976 1391.96,-35.4897 1385.92,-27.4072"/>
<polygon fill="midnightblue" stroke="midnightblue" points="1388.66,-25.2271 1379.7,-19.5671 1383.17,-29.5769 1388.66,-25.2271"/>
</g>
<!-- Node28&#45;&gt;Node27 -->
<g id="edge43" class="edge"><title>Node28&#45;&gt;Node27</title>
<path fill="none" stroke="midnightblue" d="M1127.47,-196C1020.15,-184.034 836.098,-162.71 806,-154 804.074,-153.443 802.117,-152.78 800.17,-152.05"/>
<polygon fill="midnightblue" stroke="midnightblue" points="801.291,-148.723 790.72,-148.009 798.538,-155.159 801.291,-148.723"/>
</g>
<!-- Node29 -->
<g id="node29" class="node"><title>Node29</title>
<g id="a_node29"><a xlink:href="QualityObject_8h_source.html" target="_top" xlink:title="QualityControl/QualityObject.h">
<polygon fill="none" stroke="black" points="1693.5,-129 1693.5,-148 1842.5,-148 1842.5,-129 1693.5,-129"/>
<text text-anchor="middle" x="1768" y="-136" font-family="Helvetica,sans-Serif" font-size="10.00">QualityControl/QualityObject.h</text>
</a>
</g>
</g>
<!-- Node28&#45;&gt;Node29 -->
<g id="edge46" class="edge"><title>Node28&#45;&gt;Node29</title>
<path fill="none" stroke="midnightblue" d="M1278.89,-195.969C1383.47,-183.895 1574.13,-161.883 1683.97,-149.201"/>
<polygon fill="midnightblue" stroke="midnightblue" points="1684.48,-152.665 1694.02,-148.042 1683.68,-145.712 1684.48,-152.665"/>
</g>
<!-- Node29&#45;&gt;Node17 -->
<g id="edge47" class="edge"><title>Node29&#45;&gt;Node17</title>
<path fill="none" stroke="midnightblue" d="M1768.09,-128.91C1767.82,-112.894 1765.15,-78.1014 1748,-56 1733.73,-37.6068 1709.77,-25.838 1691.08,-18.9683"/>
<polygon fill="midnightblue" stroke="midnightblue" points="1692.2,-15.6513 1681.6,-15.7291 1689.94,-22.2751 1692.2,-15.6513"/>
</g>
<!-- Node29&#45;&gt;Node19 -->
<g id="edge48" class="edge"><title>Node29&#45;&gt;Node19</title>
<path fill="none" stroke="midnightblue" d="M1772.71,-128.546C1780.15,-113.11 1792.73,-80.766 1782,-56 1776.73,-43.8399 1766.38,-33.4594 1756.64,-25.7429"/>
<polygon fill="midnightblue" stroke="midnightblue" points="1758.5,-22.7707 1748.37,-19.6698 1754.36,-28.4116 1758.5,-22.7707"/>
</g>
<!-- Node29&#45;&gt;Node20 -->
<g id="edge49" class="edge"><title>Node29&#45;&gt;Node20</title>
<path fill="none" stroke="midnightblue" d="M1773.31,-128.947C1779.51,-118.924 1790.08,-101.801 1799,-87 1810.95,-67.1793 1824.45,-44.3115 1833.52,-28.8799"/>
<polygon fill="midnightblue" stroke="midnightblue" points="1836.74,-30.3157 1838.78,-19.9197 1830.7,-26.7723 1836.74,-30.3157"/>
</g>
<!-- Node30 -->
<g id="node30" class="node"><title>Node30</title>
<g id="a_node30"><a xlink:href="Quality_8h.html" target="_top" xlink:title="QualityControl/Quality.h">
<polygon fill="none" stroke="black" points="1449.5,-62 1449.5,-81 1570.5,-81 1570.5,-62 1449.5,-62"/>
<text text-anchor="middle" x="1510" y="-69" font-family="Helvetica,sans-Serif" font-size="10.00">QualityControl/Quality.h</text>
</a>
</g>
</g>
<!-- Node29&#45;&gt;Node30 -->
<g id="edge50" class="edge"><title>Node29&#45;&gt;Node30</title>
<path fill="none" stroke="midnightblue" d="M1734.01,-128.936C1687.7,-117.268 1604.73,-96.3669 1553.81,-83.5367"/>
<polygon fill="midnightblue" stroke="midnightblue" points="1554.62,-80.1326 1544.07,-81.0834 1552.91,-86.9205 1554.62,-80.1326"/>
</g>
<!-- Node30&#45;&gt;Node6 -->
<g id="edge52" class="edge"><title>Node30&#45;&gt;Node6</title>
<path fill="none" stroke="midnightblue" d="M1463.72,-61.9751C1396.86,-49.6585 1275.02,-27.2144 1217.99,-16.709"/>
<polygon fill="midnightblue" stroke="midnightblue" points="1218.27,-13.202 1207.8,-14.8324 1217.01,-20.0862 1218.27,-13.202"/>
</g>
<!-- Node30&#45;&gt;Node17 -->
<g id="edge53" class="edge"><title>Node30&#45;&gt;Node17</title>
<path fill="none" stroke="midnightblue" d="M1532.06,-61.9751C1559.71,-51.2933 1607.07,-32.994 1636.9,-21.4715"/>
<polygon fill="midnightblue" stroke="midnightblue" points="1638.22,-24.7133 1646.28,-17.8445 1635.7,-18.1837 1638.22,-24.7133"/>
</g>
<!-- Node30&#45;&gt;Node18 -->
<g id="edge51" class="edge"><title>Node30&#45;&gt;Node18</title>
<path fill="none" stroke="midnightblue" d="M1516.45,-61.9751C1523.2,-53.0501 1533.97,-38.8071 1542.41,-27.6425"/>
<polygon fill="midnightblue" stroke="midnightblue" points="1545.32,-29.5962 1548.56,-19.5091 1539.74,-25.3737 1545.32,-29.5962"/>
</g>
<!-- Node32 -->
<g id="node32" class="node"><title>Node32</title>
<polygon fill="none" stroke="#bfbfbf" points="1914,-196 1914,-215 2044,-215 2044,-196 1914,-196"/>
<text text-anchor="middle" x="1979" y="-203" font-family="Helvetica,sans-Serif" font-size="10.00">InfoLogger/InfoLogger.hxx</text>
</g>
<!-- Node31&#45;&gt;Node32 -->
<g id="edge58" class="edge"><title>Node31&#45;&gt;Node32</title>
<path fill="none" stroke="midnightblue" d="M1983.33,-262.734C1982.59,-253.183 1981.39,-237.618 1980.44,-225.283"/>
<polygon fill="midnightblue" stroke="midnightblue" points="1983.92,-224.829 1979.66,-215.127 1976.94,-225.366 1983.92,-224.829"/>
</g>
<!-- Node33 -->
<g id="node33" class="node"><title>Node33</title>
<polygon fill="none" stroke="#bfbfbf" points="2062,-196 2062,-215 2224,-215 2224,-196 2062,-196"/>
<text text-anchor="middle" x="2143" y="-203" font-family="Helvetica,sans-Serif" font-size="10.00">InfoLogger/InfoLoggerMacros.hxx</text>
</g>
<!-- Node31&#45;&gt;Node33 -->
<g id="edge59" class="edge"><title>Node31&#45;&gt;Node33</title>
<path fill="none" stroke="midnightblue" d="M2005.11,-262.869C2032.63,-251.619 2080.95,-231.867 2112.46,-218.985"/>
<polygon fill="midnightblue" stroke="midnightblue" points="2114.12,-222.088 2122.05,-215.064 2111.47,-215.608 2114.12,-222.088"/>
</g>
</g>
</svg>
