<?xml version="1.0" encoding="UTF-8" standalone="no"?>
<!DOCTYPE svg PUBLIC "-//W3C//DTD SVG 1.1//EN"
 "http://www.w3.org/Graphics/SVG/1.1/DTD/svg11.dtd">
<!-- Generated by graphviz version 2.38.0 (20140413.2041)
 -->
<!-- Title: Framework/include/QualityControl/PostProcessingConfig.h Pages: 1 -->
<svg width="2391pt" height="240pt"
 viewBox="0.00 0.00 2390.50 240.00" xmlns="http://www.w3.org/2000/svg" xmlns:xlink="http://www.w3.org/1999/xlink">
<g id="graph0" class="graph" transform="scale(1 1) rotate(0) translate(4 236)">
<title>Framework/include/QualityControl/PostProcessingConfig.h</title>
<!-- Node1 -->
<g id="node1" class="node"><title>Node1</title>
<polygon fill="#bfbfbf" stroke="black" points="1506.5,-201.5 1506.5,-231.5 1663.5,-231.5 1663.5,-201.5 1506.5,-201.5"/>
<text text-anchor="start" x="1514.5" y="-219.5" font-family="Helvetica,sans-Serif" font-size="10.00">Framework/include/Quality</text>
<text text-anchor="middle" x="1585" y="-208.5" font-family="Helvetica,sans-Serif" font-size="10.00">Control/PostProcessingConfig.h</text>
</g>
<!-- Node2 -->
<g id="node2" class="node"><title>Node2</title>
<g id="a_node2"><a xlink:href="PostProcessingFactory_8h.html" target="_top" xlink:title="Framework/include/Quality\lControl/PostProcessingFactory.h">
<polygon fill="none" stroke="black" points="368.5,-134.5 368.5,-164.5 529.5,-164.5 529.5,-134.5 368.5,-134.5"/>
<text text-anchor="start" x="376.5" y="-152.5" font-family="Helvetica,sans-Serif" font-size="10.00">Framework/include/Quality</text>
<text text-anchor="middle" x="449" y="-141.5" font-family="Helvetica,sans-Serif" font-size="10.00">Control/PostProcessingFactory.h</text>
</a>
</g>
</g>
<!-- Node1&#45;&gt;Node2 -->
<g id="edge1" class="edge"><title>Node1&#45;&gt;Node2</title>
<path fill="none" stroke="midnightblue" d="M1496.18,-210.418C1281.36,-198.126 736.172,-166.932 529.816,-155.124"/>
<polygon fill="midnightblue" stroke="midnightblue" points="1496.29,-213.93 1506.47,-211.007 1496.69,-206.941 1496.29,-213.93"/>
</g>
<!-- Node6 -->
<g id="node6" class="node"><title>Node6</title>
<g id="a_node6"><a xlink:href="PostProcessingRunner_8h.html" target="_top" xlink:title="Framework/include/Quality\lControl/PostProcessingRunner.h">
<polygon fill="none" stroke="black" points="823,-134.5 823,-164.5 983,-164.5 983,-134.5 823,-134.5"/>
<text text-anchor="start" x="831" y="-152.5" font-family="Helvetica,sans-Serif" font-size="10.00">Framework/include/Quality</text>
<text text-anchor="middle" x="903" y="-141.5" font-family="Helvetica,sans-Serif" font-size="10.00">Control/PostProcessingRunner.h</text>
</a>
</g>
</g>
<!-- Node1&#45;&gt;Node6 -->
<g id="edge5" class="edge"><title>Node1&#45;&gt;Node6</title>
<path fill="none" stroke="midnightblue" d="M1496.23,-207.039C1362.54,-194.298 1111.54,-170.375 983.125,-158.137"/>
<polygon fill="midnightblue" stroke="midnightblue" points="1496.15,-210.547 1506.43,-208.012 1496.81,-203.579 1496.15,-210.547"/>
</g>
<!-- Node11 -->
<g id="node11" class="node"><title>Node11</title>
<g id="a_node11"><a xlink:href="TrendingTaskConfig_8h.html" target="_top" xlink:title="Framework/include/Quality\lControl/TrendingTaskConfig.h">
<polygon fill="none" stroke="black" points="1562.5,-134.5 1562.5,-164.5 1709.5,-164.5 1709.5,-134.5 1562.5,-134.5"/>
<text text-anchor="start" x="1570.5" y="-152.5" font-family="Helvetica,sans-Serif" font-size="10.00">Framework/include/Quality</text>
<text text-anchor="middle" x="1636" y="-141.5" font-family="Helvetica,sans-Serif" font-size="10.00">Control/TrendingTaskConfig.h</text>
</a>
</g>
</g>
<!-- Node1&#45;&gt;Node11 -->
<g id="edge11" class="edge"><title>Node1&#45;&gt;Node11</title>
<path fill="none" stroke="midnightblue" d="M1602.3,-193.447C1609.79,-183.899 1618.34,-173.004 1624.96,-164.577"/>
<polygon fill="midnightblue" stroke="midnightblue" points="1599.49,-191.368 1596.07,-201.396 1604.99,-195.689 1599.49,-191.368"/>
</g>
<!-- Node16 -->
<g id="node16" class="node"><title>Node16</title>
<g id="a_node16"><a xlink:href="TriggerHelpers_8h.html" target="_top" xlink:title="Framework/include/Quality\lControl/TriggerHelpers.h">
<polygon fill="none" stroke="black" points="1338.5,-134.5 1338.5,-164.5 1471.5,-164.5 1471.5,-134.5 1338.5,-134.5"/>
<text text-anchor="start" x="1346.5" y="-152.5" font-family="Helvetica,sans-Serif" font-size="10.00">Framework/include/Quality</text>
<text text-anchor="middle" x="1405" y="-141.5" font-family="Helvetica,sans-Serif" font-size="10.00">Control/TriggerHelpers.h</text>
</a>
</g>
</g>
<!-- Node1&#45;&gt;Node16 -->
<g id="edge16" class="edge"><title>Node1&#45;&gt;Node16</title>
<path fill="none" stroke="midnightblue" d="M1536.41,-197.955C1507.42,-187.485 1471.09,-174.366 1443.98,-164.577"/>
<polygon fill="midnightblue" stroke="midnightblue" points="1535.35,-201.291 1545.94,-201.396 1537.73,-194.708 1535.35,-201.291"/>
</g>
<!-- Node18 -->
<g id="node18" class="node"><title>Node18</title>
<g id="a_node18"><a xlink:href="testTriggerHelpers_8cxx.html" target="_top" xlink:title="Framework/test/testTrigger\lHelpers.cxx">
<polygon fill="none" stroke="black" points="1473,-67.5 1473,-97.5 1607,-97.5 1607,-67.5 1473,-67.5"/>
<text text-anchor="start" x="1481" y="-85.5" font-family="Helvetica,sans-Serif" font-size="10.00">Framework/test/testTrigger</text>
<text text-anchor="middle" x="1540" y="-74.5" font-family="Helvetica,sans-Serif" font-size="10.00">Helpers.cxx</text>
</a>
</g>
</g>
<!-- Node1&#45;&gt;Node18 -->
<g id="edge22" class="edge"><title>Node1&#45;&gt;Node18</title>
<path fill="none" stroke="midnightblue" d="M1568.52,-192.79C1563.14,-184.414 1557.62,-174.615 1554,-165 1545.5,-142.43 1542.12,-114.384 1540.81,-97.7693"/>
<polygon fill="midnightblue" stroke="midnightblue" points="1565.72,-194.901 1574.2,-201.244 1571.53,-190.993 1565.72,-194.901"/>
</g>
<!-- Node19 -->
<g id="node19" class="node"><title>Node19</title>
<g id="a_node19"><a xlink:href="PostProcessingConfig_8cxx.html" target="_top" xlink:title="Framework/src/PostProcessing\lConfig.cxx">
<polygon fill="none" stroke="black" points="1728,-134.5 1728,-164.5 1882,-164.5 1882,-134.5 1728,-134.5"/>
<text text-anchor="start" x="1736" y="-152.5" font-family="Helvetica,sans-Serif" font-size="10.00">Framework/src/PostProcessing</text>
<text text-anchor="middle" x="1805" y="-141.5" font-family="Helvetica,sans-Serif" font-size="10.00">Config.cxx</text>
</a>
</g>
</g>
<!-- Node1&#45;&gt;Node19 -->
<g id="edge20" class="edge"><title>Node1&#45;&gt;Node19</title>
<path fill="none" stroke="midnightblue" d="M1642.27,-198.58C1678,-188.022 1723.46,-174.592 1757.24,-164.611"/>
<polygon fill="midnightblue" stroke="midnightblue" points="1641.06,-195.286 1632.47,-201.476 1643.05,-201.999 1641.06,-195.286"/>
</g>
<!-- Node20 -->
<g id="node20" class="node"><title>Node20</title>
<g id="a_node20"><a xlink:href="testPostProcessingConfig_8cxx.html" target="_top" xlink:title="Framework/test/testPostProcessing\lConfig.cxx">
<polygon fill="none" stroke="black" points="1900.5,-134.5 1900.5,-164.5 2073.5,-164.5 2073.5,-134.5 1900.5,-134.5"/>
<text text-anchor="start" x="1908.5" y="-152.5" font-family="Helvetica,sans-Serif" font-size="10.00">Framework/test/testPostProcessing</text>
<text text-anchor="middle" x="1987" y="-141.5" font-family="Helvetica,sans-Serif" font-size="10.00">Config.cxx</text>
</a>
</g>
</g>
<!-- Node1&#45;&gt;Node20 -->
<g id="edge21" class="edge"><title>Node1&#45;&gt;Node20</title>
<path fill="none" stroke="midnightblue" d="M1674.12,-201.091C1741.48,-190.199 1833.44,-175.329 1900.22,-164.531"/>
<polygon fill="midnightblue" stroke="midnightblue" points="1673.26,-197.684 1663.94,-202.736 1674.37,-204.595 1673.26,-197.684"/>
</g>
<!-- Node21 -->
<g id="node21" class="node"><title>Node21</title>
<g id="a_node21"><a xlink:href="TrendingTaskConfigITS_8h_source.html" target="_top" xlink:title="Modules/ITS/include\l/ITS/TrendingTaskConfigITS.h">
<polygon fill="none" stroke="black" points="2092,-134.5 2092,-164.5 2242,-164.5 2242,-134.5 2092,-134.5"/>
<text text-anchor="start" x="2100" y="-152.5" font-family="Helvetica,sans-Serif" font-size="10.00">Modules/ITS/include</text>
<text text-anchor="middle" x="2167" y="-141.5" font-family="Helvetica,sans-Serif" font-size="10.00">/ITS/TrendingTaskConfigITS.h</text>
</a>
</g>
</g>
<!-- Node1&#45;&gt;Node21 -->
<g id="edge23" class="edge"><title>Node1&#45;&gt;Node21</title>
<path fill="none" stroke="midnightblue" d="M1673.73,-208.386C1773.5,-199.949 1940.24,-184.535 2083,-165 2085.93,-164.599 2088.92,-164.172 2091.93,-163.725"/>
<polygon fill="midnightblue" stroke="midnightblue" points="1673.36,-204.905 1663.69,-209.231 1673.95,-211.88 1673.36,-204.905"/>
</g>
<!-- Node3 -->
<g id="node3" class="node"><title>Node3</title>
<g id="a_node3"><a xlink:href="PostProcessingFactory_8cxx.html" target="_top" xlink:title="Framework/src/PostProcessing\lFactory.cxx">
<polygon fill="none" stroke="black" points="0,-67.5 0,-97.5 154,-97.5 154,-67.5 0,-67.5"/>
<text text-anchor="start" x="8" y="-85.5" font-family="Helvetica,sans-Serif" font-size="10.00">Framework/src/PostProcessing</text>
<text text-anchor="middle" x="77" y="-74.5" font-family="Helvetica,sans-Serif" font-size="10.00">Factory.cxx</text>
</a>
</g>
</g>
<!-- Node2&#45;&gt;Node3 -->
<g id="edge2" class="edge"><title>Node2&#45;&gt;Node3</title>
<path fill="none" stroke="midnightblue" d="M358.875,-132.752C296.305,-121.819 213.813,-107.405 154.252,-96.9983"/>
<polygon fill="midnightblue" stroke="midnightblue" points="358.286,-136.202 368.74,-134.476 359.491,-129.307 358.286,-136.202"/>
</g>
<!-- Node4 -->
<g id="node4" class="node"><title>Node4</title>
<polygon fill="none" stroke="#bfbfbf" points="740,-67.5 740,-97.5 894,-97.5 894,-67.5 740,-67.5"/>
<text text-anchor="start" x="748" y="-85.5" font-family="Helvetica,sans-Serif" font-size="10.00">Framework/src/PostProcessing</text>
<text text-anchor="middle" x="817" y="-74.5" font-family="Helvetica,sans-Serif" font-size="10.00">Runner.cxx</text>
</g>
<!-- Node2&#45;&gt;Node4 -->
<g id="edge3" class="edge"><title>Node2&#45;&gt;Node4</title>
<path fill="none" stroke="midnightblue" d="M538.504,-132.691C600.139,-121.804 681.191,-107.488 739.952,-97.109"/>
<polygon fill="midnightblue" stroke="midnightblue" points="537.636,-129.29 528.397,-134.476 538.854,-136.183 537.636,-129.29"/>
</g>
<!-- Node5 -->
<g id="node5" class="node"><title>Node5</title>
<g id="a_node5"><a xlink:href="testPostProcessingInterface_8cxx.html" target="_top" xlink:title="Framework/test/testPostProcessing\lInterface.cxx">
<polygon fill="none" stroke="black" points="172.5,-67.5 172.5,-97.5 345.5,-97.5 345.5,-67.5 172.5,-67.5"/>
<text text-anchor="start" x="180.5" y="-85.5" font-family="Helvetica,sans-Serif" font-size="10.00">Framework/test/testPostProcessing</text>
<text text-anchor="middle" x="259" y="-74.5" font-family="Helvetica,sans-Serif" font-size="10.00">Interface.cxx</text>
</a>
</g>
</g>
<!-- Node2&#45;&gt;Node5 -->
<g id="edge4" class="edge"><title>Node2&#45;&gt;Node5</title>
<path fill="none" stroke="midnightblue" d="M398.114,-131.092C367.443,-120.599 328.886,-107.408 300.147,-97.5765"/>
<polygon fill="midnightblue" stroke="midnightblue" points="397.178,-134.471 407.773,-134.396 399.444,-127.847 397.178,-134.471"/>
</g>
<!-- Node6&#45;&gt;Node4 -->
<g id="edge7" class="edge"><title>Node6&#45;&gt;Node4</title>
<path fill="none" stroke="midnightblue" d="M876.099,-128.168C862.948,-118.228 847.45,-106.514 835.624,-97.5765"/>
<polygon fill="midnightblue" stroke="midnightblue" points="874.251,-131.158 884.339,-134.396 878.472,-125.574 874.251,-131.158"/>
</g>
<!-- Node7 -->
<g id="node7" class="node"><title>Node7</title>
<g id="a_node7"><a xlink:href="PostProcessingDevice_8cxx.html" target="_top" xlink:title="Framework/src/PostProcessing\lDevice.cxx">
<polygon fill="none" stroke="black" points="912,-67.5 912,-97.5 1066,-97.5 1066,-67.5 912,-67.5"/>
<text text-anchor="start" x="920" y="-85.5" font-family="Helvetica,sans-Serif" font-size="10.00">Framework/src/PostProcessing</text>
<text text-anchor="middle" x="989" y="-74.5" font-family="Helvetica,sans-Serif" font-size="10.00">Device.cxx</text>
</a>
</g>
</g>
<!-- Node6&#45;&gt;Node7 -->
<g id="edge6" class="edge"><title>Node6&#45;&gt;Node7</title>
<path fill="none" stroke="midnightblue" d="M929.901,-128.168C943.052,-118.228 958.55,-106.514 970.376,-97.5765"/>
<polygon fill="midnightblue" stroke="midnightblue" points="927.528,-125.574 921.661,-134.396 931.749,-131.158 927.528,-125.574"/>
</g>
<!-- Node8 -->
<g id="node8" class="node"><title>Node8</title>
<g id="a_node8"><a xlink:href="runPostProcessing_8cxx.html" target="_top" xlink:title="This is a standalone executable to run postprocessing. ">
<polygon fill="none" stroke="black" points="1084,-73 1084,-92 1270,-92 1270,-73 1084,-73"/>
<text text-anchor="middle" x="1177" y="-80" font-family="Helvetica,sans-Serif" font-size="10.00">Framework/src/runPostProcessing.cxx</text>
</a>
</g>
</g>
<!-- Node6&#45;&gt;Node8 -->
<g id="edge8" class="edge"><title>Node6&#45;&gt;Node8</title>
<path fill="none" stroke="midnightblue" d="M971.926,-132.149C1025.69,-119.394 1098.21,-102.191 1141.05,-92.0287"/>
<polygon fill="midnightblue" stroke="midnightblue" points="971.039,-128.762 962.117,-134.476 972.654,-135.573 971.039,-128.762"/>
</g>
<!-- Node9 -->
<g id="node9" class="node"><title>Node9</title>
<g id="a_node9"><a xlink:href="runPostProcessingOCC_8cxx.html" target="_top" xlink:title="This is an OCC executable to run postprocessing. ">
<polygon fill="none" stroke="black" points="363.5,-67.5 363.5,-97.5 530.5,-97.5 530.5,-67.5 363.5,-67.5"/>
<text text-anchor="start" x="371.5" y="-85.5" font-family="Helvetica,sans-Serif" font-size="10.00">Framework/src/runPostProcessing</text>
<text text-anchor="middle" x="447" y="-74.5" font-family="Helvetica,sans-Serif" font-size="10.00">OCC.cxx</text>
</a>
</g>
</g>
<!-- Node6&#45;&gt;Node9 -->
<g id="edge9" class="edge"><title>Node6&#45;&gt;Node9</title>
<path fill="none" stroke="midnightblue" d="M812.522,-136.42C738.832,-126.467 632.126,-111.798 539,-98 536.281,-97.5971 533.517,-97.1838 530.727,-96.7633"/>
<polygon fill="midnightblue" stroke="midnightblue" points="812.318,-139.924 822.696,-137.792 813.254,-132.987 812.318,-139.924"/>
</g>
<!-- Node10 -->
<g id="node10" class="node"><title>Node10</title>
<g id="a_node10"><a xlink:href="testPostProcessingRunner_8cxx.html" target="_top" xlink:title="Framework/test/testPostProcessing\lRunner.cxx">
<polygon fill="none" stroke="black" points="548.5,-67.5 548.5,-97.5 721.5,-97.5 721.5,-67.5 548.5,-67.5"/>
<text text-anchor="start" x="556.5" y="-85.5" font-family="Helvetica,sans-Serif" font-size="10.00">Framework/test/testPostProcessing</text>
<text text-anchor="middle" x="635" y="-74.5" font-family="Helvetica,sans-Serif" font-size="10.00">Runner.cxx</text>
</a>
</g>
</g>
<!-- Node6&#45;&gt;Node10 -->
<g id="edge10" class="edge"><title>Node6&#45;&gt;Node10</title>
<path fill="none" stroke="midnightblue" d="M835.458,-132.119C791.605,-121.483 735.037,-107.763 693.18,-97.6109"/>
<polygon fill="midnightblue" stroke="midnightblue" points="834.635,-135.52 845.178,-134.476 836.285,-128.717 834.635,-135.52"/>
</g>
<!-- Node12 -->
<g id="node12" class="node"><title>Node12</title>
<g id="a_node12"><a xlink:href="TrendingTask_8h.html" target="_top" xlink:title="Framework/include/Quality\lControl/TrendingTask.h">
<polygon fill="none" stroke="black" points="1625.5,-67.5 1625.5,-97.5 1758.5,-97.5 1758.5,-67.5 1625.5,-67.5"/>
<text text-anchor="start" x="1633.5" y="-85.5" font-family="Helvetica,sans-Serif" font-size="10.00">Framework/include/Quality</text>
<text text-anchor="middle" x="1692" y="-74.5" font-family="Helvetica,sans-Serif" font-size="10.00">Control/TrendingTask.h</text>
</a>
</g>
</g>
<!-- Node11&#45;&gt;Node12 -->
<g id="edge12" class="edge"><title>Node11&#45;&gt;Node12</title>
<path fill="none" stroke="midnightblue" d="M1654.75,-126.736C1663.04,-117.119 1672.54,-106.089 1679.87,-97.5765"/>
<polygon fill="midnightblue" stroke="midnightblue" points="1652.03,-124.535 1648.15,-134.396 1657.33,-129.104 1652.03,-124.535"/>
</g>
<!-- Node15 -->
<g id="node15" class="node"><title>Node15</title>
<g id="a_node15"><a xlink:href="TrendingTaskConfig_8cxx.html" target="_top" xlink:title="Framework/src/TrendingTask\lConfig.cxx">
<polygon fill="none" stroke="black" points="1777,-67.5 1777,-97.5 1921,-97.5 1921,-67.5 1777,-67.5"/>
<text text-anchor="start" x="1785" y="-85.5" font-family="Helvetica,sans-Serif" font-size="10.00">Framework/src/TrendingTask</text>
<text text-anchor="middle" x="1849" y="-74.5" font-family="Helvetica,sans-Serif" font-size="10.00">Config.cxx</text>
</a>
</g>
</g>
<!-- Node11&#45;&gt;Node15 -->
<g id="edge15" class="edge"><title>Node11&#45;&gt;Node15</title>
<path fill="none" stroke="midnightblue" d="M1691.89,-131.444C1726.42,-120.908 1770.19,-107.549 1802.76,-97.6109"/>
<polygon fill="midnightblue" stroke="midnightblue" points="1690.5,-128.21 1681.96,-134.476 1692.54,-134.905 1690.5,-128.21"/>
</g>
<!-- Node13 -->
<g id="node13" class="node"><title>Node13</title>
<g id="a_node13"><a xlink:href="TrendingTask_8cxx.html" target="_top" xlink:title="Framework/src/TrendingTask.cxx">
<polygon fill="none" stroke="black" points="1519.5,-6 1519.5,-25 1682.5,-25 1682.5,-6 1519.5,-6"/>
<text text-anchor="middle" x="1601" y="-13" font-family="Helvetica,sans-Serif" font-size="10.00">Framework/src/TrendingTask.cxx</text>
</a>
</g>
</g>
<!-- Node12&#45;&gt;Node13 -->
<g id="edge13" class="edge"><title>Node12&#45;&gt;Node13</title>
<path fill="none" stroke="midnightblue" d="M1663.73,-61.3056C1646.64,-49.0999 1625.75,-34.1772 1612.91,-25.007"/>
<polygon fill="midnightblue" stroke="midnightblue" points="1662.08,-64.4316 1672.25,-67.396 1666.15,-58.7355 1662.08,-64.4316"/>
</g>
<!-- Node14 -->
<g id="node14" class="node"><title>Node14</title>
<g id="a_node14"><a xlink:href="testTrendingTask_8cxx.html" target="_top" xlink:title="Framework/test/testTrending\lTask.cxx">
<polygon fill="none" stroke="black" points="1701,-0.5 1701,-30.5 1843,-30.5 1843,-0.5 1701,-0.5"/>
<text text-anchor="start" x="1709" y="-18.5" font-family="Helvetica,sans-Serif" font-size="10.00">Framework/test/testTrending</text>
<text text-anchor="middle" x="1772" y="-7.5" font-family="Helvetica,sans-Serif" font-size="10.00">Task.cxx</text>
</a>
</g>
</g>
<!-- Node12&#45;&gt;Node14 -->
<g id="edge14" class="edge"><title>Node12&#45;&gt;Node14</title>
<path fill="none" stroke="midnightblue" d="M1717.37,-60.8832C1729.53,-51.0054 1743.78,-39.4293 1754.68,-30.5765"/>
<polygon fill="midnightblue" stroke="midnightblue" points="1714.91,-58.3736 1709.36,-67.396 1719.33,-63.8064 1714.91,-58.3736"/>
</g>
<!-- Node16&#45;&gt;Node4 -->
<g id="edge17" class="edge"><title>Node16&#45;&gt;Node4</title>
<path fill="none" stroke="midnightblue" d="M1328.07,-142.368C1229.4,-134.134 1053.08,-118.178 903,-98 900.149,-97.6167 897.247,-97.2104 894.318,-96.7866"/>
<polygon fill="midnightblue" stroke="midnightblue" points="1327.99,-145.873 1338.25,-143.213 1328.57,-138.897 1327.99,-145.873"/>
</g>
<!-- Node17 -->
<g id="node17" class="node"><title>Node17</title>
<g id="a_node17"><a xlink:href="TriggerHelpers_8cxx.html" target="_top" xlink:title="Framework/src/TriggerHelpers.cxx">
<polygon fill="none" stroke="black" points="1287.5,-73 1287.5,-92 1454.5,-92 1454.5,-73 1287.5,-73"/>
<text text-anchor="middle" x="1371" y="-80" font-family="Helvetica,sans-Serif" font-size="10.00">Framework/src/TriggerHelpers.cxx</text>
</a>
</g>
</g>
<!-- Node16&#45;&gt;Node17 -->
<g id="edge18" class="edge"><title>Node16&#45;&gt;Node17</title>
<path fill="none" stroke="midnightblue" d="M1392.86,-125.287C1386.85,-113.803 1379.96,-100.63 1375.55,-92.1945"/>
<polygon fill="midnightblue" stroke="midnightblue" points="1389.89,-127.157 1397.62,-134.396 1396.09,-123.913 1389.89,-127.157"/>
</g>
<!-- Node16&#45;&gt;Node18 -->
<g id="edge19" class="edge"><title>Node16&#45;&gt;Node18</title>
<path fill="none" stroke="midnightblue" d="M1443.44,-129.992C1464.84,-119.689 1491.05,-107.068 1510.76,-97.5765"/>
<polygon fill="midnightblue" stroke="midnightblue" points="1441.78,-126.904 1434.29,-134.396 1444.82,-133.211 1441.78,-126.904"/>
</g>
<!-- Node22 -->
<g id="node22" class="node"><title>Node22</title>
<g id="a_node22"><a xlink:href="TrendingTaskITSFhr_8h.html" target="_top" xlink:title="Modules/ITS/include\l/ITS/TrendingTaskITSFhr.h">
<polygon fill="none" stroke="black" points="1945,-67.5 1945,-97.5 2081,-97.5 2081,-67.5 1945,-67.5"/>
<text text-anchor="start" x="1953" y="-85.5" font-family="Helvetica,sans-Serif" font-size="10.00">Modules/ITS/include</text>
<text text-anchor="middle" x="2013" y="-74.5" font-family="Helvetica,sans-Serif" font-size="10.00">/ITS/TrendingTaskITSFhr.h</text>
</a>
</g>
</g>
<!-- Node21&#45;&gt;Node22 -->
<g id="edge24" class="edge"><title>Node21&#45;&gt;Node22</title>
<path fill="none" stroke="midnightblue" d="M2124.13,-130.407C2099.55,-120.029 2069.14,-107.195 2046.35,-97.5765"/>
<polygon fill="midnightblue" stroke="midnightblue" points="2123.01,-133.732 2133.58,-134.396 2125.73,-127.283 2123.01,-133.732"/>
</g>
<!-- Node24 -->
<g id="node24" class="node"><title>Node24</title>
<g id="a_node24"><a xlink:href="TrendingTaskITSThr_8h.html" target="_top" xlink:title="Modules/ITS/include\l/ITS/TrendingTaskITSThr.h">
<polygon fill="none" stroke="black" points="2099,-67.5 2099,-97.5 2235,-97.5 2235,-67.5 2099,-67.5"/>
<text text-anchor="start" x="2107" y="-85.5" font-family="Helvetica,sans-Serif" font-size="10.00">Modules/ITS/include</text>
<text text-anchor="middle" x="2167" y="-74.5" font-family="Helvetica,sans-Serif" font-size="10.00">/ITS/TrendingTaskITSThr.h</text>
</a>
</g>
</g>
<!-- Node21&#45;&gt;Node24 -->
<g id="edge26" class="edge"><title>Node21&#45;&gt;Node24</title>
<path fill="none" stroke="midnightblue" d="M2167,-124.108C2167,-115.154 2167,-105.323 2167,-97.5765"/>
<polygon fill="midnightblue" stroke="midnightblue" points="2163.5,-124.396 2167,-134.396 2170.5,-124.396 2163.5,-124.396"/>
</g>
<!-- Node26 -->
<g id="node26" class="node"><title>Node26</title>
<polygon fill="none" stroke="#bfbfbf" points="2253.5,-67.5 2253.5,-97.5 2382.5,-97.5 2382.5,-67.5 2253.5,-67.5"/>
<text text-anchor="start" x="2261.5" y="-85.5" font-family="Helvetica,sans-Serif" font-size="10.00">Modules/ITS/src/Trending</text>
<text text-anchor="middle" x="2318" y="-74.5" font-family="Helvetica,sans-Serif" font-size="10.00">TaskConfigITS.cxx</text>
</g>
<!-- Node21&#45;&gt;Node26 -->
<g id="edge28" class="edge"><title>Node21&#45;&gt;Node26</title>
<path fill="none" stroke="midnightblue" d="M2209.03,-130.407C2233.14,-120.029 2262.95,-107.195 2285.3,-97.5765"/>
<polygon fill="midnightblue" stroke="midnightblue" points="2207.57,-127.227 2199.76,-134.396 2210.33,-133.657 2207.57,-127.227"/>
</g>
<!-- Node23 -->
<g id="node23" class="node"><title>Node23</title>
<g id="a_node23"><a xlink:href="TrendingTaskITSFhr_8cxx.html" target="_top" xlink:title="Modules/ITS/src/Trending\lTaskITSFhr.cxx">
<polygon fill="none" stroke="black" points="1948.5,-0.5 1948.5,-30.5 2077.5,-30.5 2077.5,-0.5 1948.5,-0.5"/>
<text text-anchor="start" x="1956.5" y="-18.5" font-family="Helvetica,sans-Serif" font-size="10.00">Modules/ITS/src/Trending</text>
<text text-anchor="middle" x="2013" y="-7.5" font-family="Helvetica,sans-Serif" font-size="10.00">TaskITSFhr.cxx</text>
</a>
</g>
</g>
<!-- Node22&#45;&gt;Node23 -->
<g id="edge25" class="edge"><title>Node22&#45;&gt;Node23</title>
<path fill="none" stroke="midnightblue" d="M2013,-57.1081C2013,-48.1539 2013,-38.3227 2013,-30.5765"/>
<polygon fill="midnightblue" stroke="midnightblue" points="2009.5,-57.3959 2013,-67.396 2016.5,-57.396 2009.5,-57.3959"/>
</g>
<!-- Node25 -->
<g id="node25" class="node"><title>Node25</title>
<g id="a_node25"><a xlink:href="TrendingTaskITSThr_8cxx.html" target="_top" xlink:title="Modules/ITS/src/Trending\lTaskITSThr.cxx">
<polygon fill="none" stroke="black" points="2102.5,-0.5 2102.5,-30.5 2231.5,-30.5 2231.5,-0.5 2102.5,-0.5"/>
<text text-anchor="start" x="2110.5" y="-18.5" font-family="Helvetica,sans-Serif" font-size="10.00">Modules/ITS/src/Trending</text>
<text text-anchor="middle" x="2167" y="-7.5" font-family="Helvetica,sans-Serif" font-size="10.00">TaskITSThr.cxx</text>
</a>
</g>
</g>
<!-- Node24&#45;&gt;Node25 -->
<g id="edge27" class="edge"><title>Node24&#45;&gt;Node25</title>
<path fill="none" stroke="midnightblue" d="M2167,-57.1081C2167,-48.1539 2167,-38.3227 2167,-30.5765"/>
<polygon fill="midnightblue" stroke="midnightblue" points="2163.5,-57.3959 2167,-67.396 2170.5,-57.396 2163.5,-57.3959"/>
</g>
</g>
</svg>
