<?xml version="1.0" encoding="UTF-8" standalone="no"?>
<!DOCTYPE svg PUBLIC "-//W3C//DTD SVG 1.1//EN"
 "http://www.w3.org/Graphics/SVG/1.1/DTD/svg11.dtd">
<!-- Generated by graphviz version 2.38.0 (20140413.2041)
 -->
<!-- Title: Modules/TOF/include/TOF/PostProcessDiagnosticPerCrate.h Pages: 1 -->
<svg width="1430pt" height="307pt"
 viewBox="0.00 0.00 1429.50 307.00" xmlns="http://www.w3.org/2000/svg" xmlns:xlink="http://www.w3.org/1999/xlink">
<g id="graph0" class="graph" transform="scale(1 1) rotate(0) translate(4 303)">
<title>Modules/TOF/include/TOF/PostProcessDiagnosticPerCrate.h</title>
<!-- Node1 -->
<g id="node1" class="node"><title>Node1</title>
<polygon fill="#bfbfbf" stroke="black" points="757,-257.5 757,-298.5 902,-298.5 902,-257.5 757,-257.5"/>
<text text-anchor="start" x="765" y="-286.5" font-family="Helvetica,sans-Serif" font-size="10.00">Modules/TOF/include</text>
<text text-anchor="start" x="765" y="-275.5" font-family="Helvetica,sans-Serif" font-size="10.00">/TOF/PostProcessDiagnostic</text>
<text text-anchor="middle" x="829.5" y="-264.5" font-family="Helvetica,sans-Serif" font-size="10.00">PerCrate.h</text>
</g>
<!-- Node2 -->
<g id="node2" class="node"><title>Node2</title>
<g id="a_node2"><a xlink:href="PostProcessingInterface_8h.html" target="_top" xlink:title="QualityControl/PostProcessing\lInterface.h">
<polygon fill="none" stroke="black" points="427,-190.5 427,-220.5 578,-220.5 578,-190.5 427,-190.5"/>
<text text-anchor="start" x="435" y="-208.5" font-family="Helvetica,sans-Serif" font-size="10.00">QualityControl/PostProcessing</text>
<text text-anchor="middle" x="502.5" y="-197.5" font-family="Helvetica,sans-Serif" font-size="10.00">Interface.h</text>
</a>
</g>
</g>
<!-- Node1&#45;&gt;Node2 -->
<g id="edge1" class="edge"><title>Node1&#45;&gt;Node2</title>
<path fill="none" stroke="midnightblue" d="M756.928,-261.354C703.611,-249.859 631.379,-234.286 577.499,-222.67"/>
<polygon fill="midnightblue" stroke="midnightblue" points="578.174,-219.235 567.661,-220.548 576.699,-226.077 578.174,-219.235"/>
</g>
<!-- Node3 -->
<g id="node3" class="node"><title>Node3</title>
<polygon fill="none" stroke="#bfbfbf" points="585,-0.5 585,-19.5 626,-19.5 626,-0.5 585,-0.5"/>
<text text-anchor="middle" x="605.5" y="-7.5" font-family="Helvetica,sans-Serif" font-size="10.00">string</text>
</g>
<!-- Node1&#45;&gt;Node3 -->
<g id="edge41" class="edge"><title>Node1&#45;&gt;Node3</title>
<path fill="none" stroke="midnightblue" d="M756.652,-276.134C672.604,-273.098 531.363,-261.677 417.5,-221 363.95,-201.869 336.251,-203.633 308.5,-154 301.776,-141.974 300.663,-134.332 308.5,-123 370.136,-33.8842 512.299,-15.5904 574.928,-11.8983"/>
<polygon fill="midnightblue" stroke="midnightblue" points="575.157,-15.3913 584.968,-11.3933 574.805,-8.40018 575.157,-15.3913"/>
</g>
<!-- Node20 -->
<g id="node20" class="node"><title>Node20</title>
<polygon fill="none" stroke="#bfbfbf" points="803.5,-62 803.5,-81 855.5,-81 855.5,-62 803.5,-62"/>
<text text-anchor="middle" x="829.5" y="-69" font-family="Helvetica,sans-Serif" font-size="10.00">memory</text>
</g>
<!-- Node1&#45;&gt;Node20 -->
<g id="edge40" class="edge"><title>Node1&#45;&gt;Node20</title>
<path fill="none" stroke="midnightblue" d="M829.5,-257.392C829.5,-218.072 829.5,-130.055 829.5,-91.3614"/>
<polygon fill="midnightblue" stroke="midnightblue" points="833,-91.0449 829.5,-81.0449 826,-91.045 833,-91.0449"/>
</g>
<!-- Node21 -->
<g id="node21" class="node"><title>Node21</title>
<g id="a_node21"><a xlink:href="DatabaseInterface_8h.html" target="_top" xlink:title="QualityControl/DatabaseInterface.h">
<polygon fill="none" stroke="black" points="857.5,-196 857.5,-215 1027.5,-215 1027.5,-196 857.5,-196"/>
<text text-anchor="middle" x="942.5" y="-203" font-family="Helvetica,sans-Serif" font-size="10.00">QualityControl/DatabaseInterface.h</text>
</a>
</g>
</g>
<!-- Node1&#45;&gt;Node21 -->
<g id="edge24" class="edge"><title>Node1&#45;&gt;Node21</title>
<path fill="none" stroke="midnightblue" d="M860.977,-257.362C879.711,-245.674 903.045,-231.116 919.943,-220.573"/>
<polygon fill="midnightblue" stroke="midnightblue" points="921.966,-223.436 928.598,-215.173 918.261,-217.497 921.966,-223.436"/>
</g>
<!-- Node25 -->
<g id="node25" class="node"><title>Node25</title>
<polygon fill="none" stroke="#bfbfbf" points="1045.5,-196 1045.5,-215 1083.5,-215 1083.5,-196 1045.5,-196"/>
<text text-anchor="middle" x="1064.5" y="-203" font-family="Helvetica,sans-Serif" font-size="10.00">array</text>
</g>
<!-- Node1&#45;&gt;Node25 -->
<g id="edge39" class="edge"><title>Node1&#45;&gt;Node25</title>
<path fill="none" stroke="midnightblue" d="M902.086,-261.386C942.358,-251.729 992.956,-237.94 1036.5,-221 1037.71,-220.531 1038.93,-220.025 1040.15,-219.493"/>
<polygon fill="midnightblue" stroke="midnightblue" points="1041.86,-222.556 1049.37,-215.083 1038.84,-216.241 1041.86,-222.556"/>
</g>
<!-- Node2&#45;&gt;Node3 -->
<g id="edge2" class="edge"><title>Node2&#45;&gt;Node3</title>
<path fill="none" stroke="midnightblue" d="M488.429,-190.247C474.068,-173.885 455.351,-146.302 466.5,-123 489.327,-75.2925 543.489,-41.4198 577.065,-24.1371"/>
<polygon fill="midnightblue" stroke="midnightblue" points="578.968,-27.0996 586.357,-19.5067 575.845,-20.8345 578.968,-27.0996"/>
</g>
<!-- Node4 -->
<g id="node4" class="node"><title>Node4</title>
<polygon fill="none" stroke="#bfbfbf" points="655.5,-129 655.5,-148 801.5,-148 801.5,-129 655.5,-129"/>
<text text-anchor="middle" x="728.5" y="-136" font-family="Helvetica,sans-Serif" font-size="10.00">Framework/ServiceRegistry.h</text>
</g>
<!-- Node2&#45;&gt;Node4 -->
<g id="edge3" class="edge"><title>Node2&#45;&gt;Node4</title>
<path fill="none" stroke="midnightblue" d="M551.26,-190.476C592.475,-178.622 650.762,-161.858 689.079,-150.838"/>
<polygon fill="midnightblue" stroke="midnightblue" points="690.204,-154.156 698.847,-148.029 688.269,-147.429 690.204,-154.156"/>
</g>
<!-- Node5 -->
<g id="node5" class="node"><title>Node5</title>
<polygon fill="none" stroke="#bfbfbf" points="318,-123.5 318,-153.5 419,-153.5 419,-123.5 318,-123.5"/>
<text text-anchor="start" x="326" y="-141.5" font-family="Helvetica,sans-Serif" font-size="10.00">boost/property_tree</text>
<text text-anchor="middle" x="368.5" y="-130.5" font-family="Helvetica,sans-Serif" font-size="10.00">/ptree_fwd.hpp</text>
</g>
<!-- Node2&#45;&gt;Node5 -->
<g id="edge4" class="edge"><title>Node2&#45;&gt;Node5</title>
<path fill="none" stroke="midnightblue" d="M473.424,-190.396C453.845,-180.899 427.824,-168.276 406.593,-157.978"/>
<polygon fill="midnightblue" stroke="midnightblue" points="408.044,-154.792 397.519,-153.577 404.989,-161.09 408.044,-154.792"/>
</g>
<!-- Node6 -->
<g id="node6" class="node"><title>Node6</title>
<g id="a_node6"><a xlink:href="Triggers_8h.html" target="_top" xlink:title="QualityControl/Triggers.h">
<polygon fill="none" stroke="black" points="83,-129 83,-148 208,-148 208,-129 83,-129"/>
<text text-anchor="middle" x="145.5" y="-136" font-family="Helvetica,sans-Serif" font-size="10.00">QualityControl/Triggers.h</text>
</a>
</g>
</g>
<!-- Node2&#45;&gt;Node6 -->
<g id="edge5" class="edge"><title>Node2&#45;&gt;Node6</title>
<path fill="none" stroke="midnightblue" d="M426.789,-190.715C359.748,-178.509 263.36,-160.959 202.613,-149.899"/>
<polygon fill="midnightblue" stroke="midnightblue" points="202.906,-146.395 192.441,-148.047 201.652,-153.281 202.906,-146.395"/>
</g>
<!-- Node9 -->
<g id="node9" class="node"><title>Node9</title>
<g id="a_node9"><a xlink:href="ObjectsManager_8h.html" target="_top" xlink:title="QualityControl/ObjectsManager.h">
<polygon fill="none" stroke="black" points="476,-129 476,-148 637,-148 637,-129 476,-129"/>
<text text-anchor="middle" x="556.5" y="-136" font-family="Helvetica,sans-Serif" font-size="10.00">QualityControl/ObjectsManager.h</text>
</a>
</g>
</g>
<!-- Node2&#45;&gt;Node9 -->
<g id="edge9" class="edge"><title>Node2&#45;&gt;Node9</title>
<path fill="none" stroke="midnightblue" d="M514.217,-190.396C522.637,-180.261 534.013,-166.567 542.845,-155.937"/>
<polygon fill="midnightblue" stroke="midnightblue" points="545.579,-158.123 549.277,-148.195 540.194,-153.65 545.579,-158.123"/>
</g>
<!-- Node6&#45;&gt;Node3 -->
<g id="edge6" class="edge"><title>Node6&#45;&gt;Node3</title>
<path fill="none" stroke="midnightblue" d="M178.467,-128.971C208.782,-120.468 254.5,-105.953 291.5,-87 312.791,-76.094 313.37,-65.0828 335.5,-56 417.382,-22.3938 523.035,-13.8682 574.529,-11.7171"/>
<polygon fill="midnightblue" stroke="midnightblue" points="574.801,-15.2096 584.667,-11.3481 574.546,-8.21427 574.801,-15.2096"/>
</g>
<!-- Node7 -->
<g id="node7" class="node"><title>Node7</title>
<polygon fill="none" stroke="#bfbfbf" points="63,-62 63,-81 122,-81 122,-62 63,-62"/>
<text text-anchor="middle" x="92.5" y="-69" font-family="Helvetica,sans-Serif" font-size="10.00">functional</text>
</g>
<!-- Node6&#45;&gt;Node7 -->
<g id="edge7" class="edge"><title>Node6&#45;&gt;Node7</title>
<path fill="none" stroke="midnightblue" d="M138.352,-128.734C130.087,-118.598 116.301,-101.69 105.999,-89.0556"/>
<polygon fill="midnightblue" stroke="midnightblue" points="108.567,-86.6657 99.5346,-81.1273 103.141,-91.0893 108.567,-86.6657"/>
</g>
<!-- Node8 -->
<g id="node8" class="node"><title>Node8</title>
<polygon fill="none" stroke="#bfbfbf" points="0,-62 0,-81 45,-81 45,-62 0,-62"/>
<text text-anchor="middle" x="22.5" y="-69" font-family="Helvetica,sans-Serif" font-size="10.00">iosfwd</text>
</g>
<!-- Node6&#45;&gt;Node8 -->
<g id="edge8" class="edge"><title>Node6&#45;&gt;Node8</title>
<path fill="none" stroke="midnightblue" d="M129.167,-128.869C108.398,-117.893 72.3138,-98.8243 47.9298,-85.9385"/>
<polygon fill="midnightblue" stroke="midnightblue" points="49.3777,-82.745 38.901,-81.1672 46.1071,-88.934 49.3777,-82.745"/>
</g>
<!-- Node9&#45;&gt;Node3 -->
<g id="edge22" class="edge"><title>Node9&#45;&gt;Node3</title>
<path fill="none" stroke="midnightblue" d="M557.513,-128.61C559.489,-113.27 564.649,-81.0663 575.5,-56 579.782,-46.1082 586.256,-36.039 592.095,-27.9407"/>
<polygon fill="midnightblue" stroke="midnightblue" points="595.045,-29.8421 598.268,-19.7492 589.455,-25.6295 595.045,-29.8421"/>
</g>
<!-- Node10 -->
<g id="node10" class="node"><title>Node10</title>
<g id="a_node10"><a xlink:href="MonitorObject_8h.html" target="_top" xlink:title="QualityControl/MonitorObject.h">
<polygon fill="none" stroke="black" points="1111,-62 1111,-81 1262,-81 1262,-62 1111,-62"/>
<text text-anchor="middle" x="1186.5" y="-69" font-family="Helvetica,sans-Serif" font-size="10.00">QualityControl/MonitorObject.h</text>
</a>
</g>
</g>
<!-- Node9&#45;&gt;Node10 -->
<g id="edge10" class="edge"><title>Node9&#45;&gt;Node10</title>
<path fill="none" stroke="midnightblue" d="M604.975,-128.952C618.395,-126.787 632.986,-124.619 646.5,-123 848.353,-98.812 900.785,-112.318 1102.5,-87 1111.98,-85.81 1122.02,-84.2978 1131.74,-82.7017"/>
<polygon fill="midnightblue" stroke="midnightblue" points="1132.43,-86.1341 1141.71,-81.0179 1131.27,-79.2318 1132.43,-86.1341"/>
</g>
<!-- Node15 -->
<g id="node15" class="node"><title>Node15</title>
<g id="a_node15"><a xlink:href="MonitorObjectCollection_8h.html" target="_top" xlink:title="QualityControl/MonitorObject\lCollection.h">
<polygon fill="none" stroke="black" points="140,-56.5 140,-86.5 283,-86.5 283,-56.5 140,-56.5"/>
<text text-anchor="start" x="148" y="-74.5" font-family="Helvetica,sans-Serif" font-size="10.00">QualityControl/MonitorObject</text>
<text text-anchor="middle" x="211.5" y="-63.5" font-family="Helvetica,sans-Serif" font-size="10.00">Collection.h</text>
</a>
</g>
</g>
<!-- Node9&#45;&gt;Node15 -->
<g id="edge16" class="edge"><title>Node9&#45;&gt;Node15</title>
<path fill="none" stroke="midnightblue" d="M511.043,-128.936C455.672,-118.503 361.113,-100.688 293.033,-87.8613"/>
<polygon fill="midnightblue" stroke="midnightblue" points="293.664,-84.4186 283.188,-86.0065 292.367,-91.2976 293.664,-84.4186"/>
</g>
<!-- Node18 -->
<g id="node18" class="node"><title>Node18</title>
<g id="a_node18"><a xlink:href="TaskConfig_8h.html" target="_top" xlink:title="QualityControl/TaskConfig.h">
<polygon fill="none" stroke="black" points="584.5,-62 584.5,-81 724.5,-81 724.5,-62 584.5,-62"/>
<text text-anchor="middle" x="654.5" y="-69" font-family="Helvetica,sans-Serif" font-size="10.00">QualityControl/TaskConfig.h</text>
</a>
</g>
</g>
<!-- Node9&#45;&gt;Node18 -->
<g id="edge19" class="edge"><title>Node9&#45;&gt;Node18</title>
<path fill="none" stroke="midnightblue" d="M569.717,-128.734C585.954,-117.964 613.717,-99.55 633.031,-86.7395"/>
<polygon fill="midnightblue" stroke="midnightblue" points="635.094,-89.5715 641.493,-81.1273 631.225,-83.738 635.094,-89.5715"/>
</g>
<!-- Node9&#45;&gt;Node20 -->
<g id="edge23" class="edge"><title>Node9&#45;&gt;Node20</title>
<path fill="none" stroke="midnightblue" d="M592.471,-128.936C644.73,-116.493 741.103,-93.5469 793.422,-81.0899"/>
<polygon fill="midnightblue" stroke="midnightblue" points="794.355,-84.4657 803.273,-78.7446 792.734,-77.656 794.355,-84.4657"/>
</g>
<!-- Node10&#45;&gt;Node3 -->
<g id="edge11" class="edge"><title>Node10&#45;&gt;Node3</title>
<path fill="none" stroke="midnightblue" d="M1140.83,-61.9271C1128.42,-59.7873 1114.97,-57.6384 1102.5,-56 926.932,-32.9368 714.909,-18.0164 636.551,-12.9375"/>
<polygon fill="midnightblue" stroke="midnightblue" points="636.603,-9.43373 626.399,-12.2864 636.155,-16.4194 636.603,-9.43373"/>
</g>
<!-- Node11 -->
<g id="node11" class="node"><title>Node11</title>
<polygon fill="none" stroke="#bfbfbf" points="1169,-0.5 1169,-19.5 1204,-19.5 1204,-0.5 1169,-0.5"/>
<text text-anchor="middle" x="1186.5" y="-7.5" font-family="Helvetica,sans-Serif" font-size="10.00">map</text>
</g>
<!-- Node10&#45;&gt;Node11 -->
<g id="edge12" class="edge"><title>Node10&#45;&gt;Node11</title>
<path fill="none" stroke="midnightblue" d="M1186.5,-61.9751C1186.5,-53.5803 1186.5,-40.4806 1186.5,-29.6631"/>
<polygon fill="midnightblue" stroke="midnightblue" points="1190,-29.5091 1186.5,-19.5091 1183,-29.5091 1190,-29.5091"/>
</g>
<!-- Node12 -->
<g id="node12" class="node"><title>Node12</title>
<polygon fill="none" stroke="#bfbfbf" points="1049.5,-0.5 1049.5,-19.5 1105.5,-19.5 1105.5,-0.5 1049.5,-0.5"/>
<text text-anchor="middle" x="1077.5" y="-7.5" font-family="Helvetica,sans-Serif" font-size="10.00">Rtypes.h</text>
</g>
<!-- Node10&#45;&gt;Node12 -->
<g id="edge13" class="edge"><title>Node10&#45;&gt;Node12</title>
<path fill="none" stroke="midnightblue" d="M1170.88,-61.9751C1152.91,-52.1664 1123.18,-35.9346 1102.09,-24.425"/>
<polygon fill="midnightblue" stroke="midnightblue" points="1103.54,-21.2284 1093.09,-19.5091 1100.19,-27.3726 1103.54,-21.2284"/>
</g>
<!-- Node13 -->
<g id="node13" class="node"><title>Node13</title>
<polygon fill="none" stroke="#bfbfbf" points="1226,-0.5 1226,-19.5 1285,-19.5 1285,-0.5 1226,-0.5"/>
<text text-anchor="middle" x="1255.5" y="-7.5" font-family="Helvetica,sans-Serif" font-size="10.00">TObject.h</text>
</g>
<!-- Node10&#45;&gt;Node13 -->
<g id="edge14" class="edge"><title>Node10&#45;&gt;Node13</title>
<path fill="none" stroke="midnightblue" d="M1196.39,-61.9751C1207.15,-52.6966 1224.57,-37.6706 1237.72,-26.331"/>
<polygon fill="midnightblue" stroke="midnightblue" points="1240.34,-28.6902 1245.63,-19.5091 1235.77,-23.389 1240.34,-28.6902"/>
</g>
<!-- Node14 -->
<g id="node14" class="node"><title>Node14</title>
<polygon fill="none" stroke="#bfbfbf" points="1305.5,-0.5 1305.5,-19.5 1421.5,-19.5 1421.5,-0.5 1305.5,-0.5"/>
<text text-anchor="middle" x="1363.5" y="-7.5" font-family="Helvetica,sans-Serif" font-size="10.00">Common/Exceptions.h</text>
</g>
<!-- Node10&#45;&gt;Node14 -->
<g id="edge15" class="edge"><title>Node10&#45;&gt;Node14</title>
<path fill="none" stroke="midnightblue" d="M1211.86,-61.9751C1242.48,-51.6804 1294.16,-34.3103 1328.55,-22.7502"/>
<polygon fill="midnightblue" stroke="midnightblue" points="1329.82,-26.0131 1338.19,-19.5091 1327.59,-19.3779 1329.82,-26.0131"/>
</g>
<!-- Node16 -->
<g id="node16" class="node"><title>Node16</title>
<polygon fill="none" stroke="#bfbfbf" points="235,-0.5 235,-19.5 304,-19.5 304,-0.5 235,-0.5"/>
<text text-anchor="middle" x="269.5" y="-7.5" font-family="Helvetica,sans-Serif" font-size="10.00">TObjArray.h</text>
</g>
<!-- Node15&#45;&gt;Node16 -->
<g id="edge17" class="edge"><title>Node15&#45;&gt;Node16</title>
<path fill="none" stroke="midnightblue" d="M225.245,-56.3993C233.847,-47.575 244.952,-36.1827 253.886,-27.0178"/>
<polygon fill="midnightblue" stroke="midnightblue" points="256.586,-29.2616 261.06,-19.6578 251.574,-24.3755 256.586,-29.2616"/>
</g>
<!-- Node17 -->
<g id="node17" class="node"><title>Node17</title>
<polygon fill="none" stroke="#bfbfbf" points="88.5,-0.5 88.5,-19.5 216.5,-19.5 216.5,-0.5 88.5,-0.5"/>
<text text-anchor="middle" x="152.5" y="-7.5" font-family="Helvetica,sans-Serif" font-size="10.00">Mergers/MergeInterface.h</text>
</g>
<!-- Node15&#45;&gt;Node17 -->
<g id="edge18" class="edge"><title>Node15&#45;&gt;Node17</title>
<path fill="none" stroke="midnightblue" d="M197.518,-56.3993C188.768,-47.575 177.471,-36.1827 168.383,-27.0178"/>
<polygon fill="midnightblue" stroke="midnightblue" points="170.612,-24.2942 161.085,-19.6578 165.641,-29.2231 170.612,-24.2942"/>
</g>
<!-- Node18&#45;&gt;Node3 -->
<g id="edge20" class="edge"><title>Node18&#45;&gt;Node3</title>
<path fill="none" stroke="midnightblue" d="M647.479,-61.9751C640.057,-52.9617 628.167,-38.5246 618.933,-27.3118"/>
<polygon fill="midnightblue" stroke="midnightblue" points="621.566,-25.0034 612.507,-19.5091 616.163,-29.4534 621.566,-25.0034"/>
</g>
<!-- Node19 -->
<g id="node19" class="node"><title>Node19</title>
<polygon fill="none" stroke="#bfbfbf" points="757,-0.5 757,-19.5 840,-19.5 840,-0.5 757,-0.5"/>
<text text-anchor="middle" x="798.5" y="-7.5" font-family="Helvetica,sans-Serif" font-size="10.00">unordered_map</text>
</g>
<!-- Node18&#45;&gt;Node19 -->
<g id="edge21" class="edge"><title>Node18&#45;&gt;Node19</title>
<path fill="none" stroke="midnightblue" d="M675.132,-61.9751C699.619,-51.8571 740.647,-34.9046 768.609,-23.3507"/>
<polygon fill="midnightblue" stroke="midnightblue" points="770.001,-26.5627 777.907,-19.5091 767.328,-20.0932 770.001,-26.5627"/>
</g>
<!-- Node21&#45;&gt;Node3 -->
<g id="edge25" class="edge"><title>Node21&#45;&gt;Node3</title>
<path fill="none" stroke="midnightblue" d="M939.086,-195.711C927.621,-166.647 889.803,-74.433 864.5,-56 828.483,-29.762 696.713,-17.3689 636.226,-12.9658"/>
<polygon fill="midnightblue" stroke="midnightblue" points="636.358,-9.46659 626.138,-12.2579 635.868,-16.4494 636.358,-9.46659"/>
</g>
<!-- Node21&#45;&gt;Node4 -->
<g id="edge29" class="edge"><title>Node21&#45;&gt;Node4</title>
<path fill="none" stroke="midnightblue" d="M914.082,-195.869C876.085,-184.327 808.62,-163.835 766.347,-150.996"/>
<polygon fill="midnightblue" stroke="midnightblue" points="767.28,-147.621 756.694,-148.064 765.245,-154.319 767.28,-147.621"/>
</g>
<!-- Node21&#45;&gt;Node10 -->
<g id="edge38" class="edge"><title>Node21&#45;&gt;Node10</title>
<path fill="none" stroke="midnightblue" d="M958.51,-195.839C1000.14,-173.316 1112.03,-112.788 1161.91,-85.8017"/>
<polygon fill="midnightblue" stroke="midnightblue" points="1163.62,-88.8578 1170.75,-81.0212 1160.29,-82.701 1163.62,-88.8578"/>
</g>
<!-- Node21&#45;&gt;Node19 -->
<g id="edge28" class="edge"><title>Node21&#45;&gt;Node19</title>
<path fill="none" stroke="midnightblue" d="M953.669,-195.872C964.418,-186.794 979.974,-171.423 986.5,-154 991.332,-141.097 991.773,-135.729 986.5,-123 963.018,-66.3095 894.334,-36.571 846.831,-22.3414"/>
<polygon fill="midnightblue" stroke="midnightblue" points="847.617,-18.9259 837.04,-19.5362 845.689,-25.6551 847.617,-18.9259"/>
</g>
<!-- Node21&#45;&gt;Node20 -->
<g id="edge26" class="edge"><title>Node21&#45;&gt;Node20</title>
<path fill="none" stroke="midnightblue" d="M933.081,-195.928C922.538,-186.165 905.144,-169.546 891.5,-154 872.898,-132.805 853.544,-106.585 841.513,-89.7047"/>
<polygon fill="midnightblue" stroke="midnightblue" points="844.261,-87.5284 835.633,-81.379 838.543,-91.5665 844.261,-87.5284"/>
</g>
<!-- Node22 -->
<g id="node22" class="node"><title>Node22</title>
<polygon fill="none" stroke="#bfbfbf" points="933.5,-129 933.5,-148 977.5,-148 977.5,-129 933.5,-129"/>
<text text-anchor="middle" x="955.5" y="-136" font-family="Helvetica,sans-Serif" font-size="10.00">vector</text>
</g>
<!-- Node21&#45;&gt;Node22 -->
<g id="edge27" class="edge"><title>Node21&#45;&gt;Node22</title>
<path fill="none" stroke="midnightblue" d="M944.253,-195.734C946.163,-186.183 949.276,-170.618 951.743,-158.283"/>
<polygon fill="midnightblue" stroke="midnightblue" points="955.245,-158.62 953.775,-148.127 948.381,-157.247 955.245,-158.62"/>
</g>
<!-- Node23 -->
<g id="node23" class="node"><title>Node23</title>
<g id="a_node23"><a xlink:href="QualityObject_8h_source.html" target="_top" xlink:title="QualityControl/QualityObject.h">
<polygon fill="none" stroke="black" points="1216,-129 1216,-148 1365,-148 1365,-129 1216,-129"/>
<text text-anchor="middle" x="1290.5" y="-136" font-family="Helvetica,sans-Serif" font-size="10.00">QualityControl/QualityObject.h</text>
</a>
</g>
</g>
<!-- Node21&#45;&gt;Node23 -->
<g id="edge30" class="edge"><title>Node21&#45;&gt;Node23</title>
<path fill="none" stroke="midnightblue" d="M988.353,-195.936C1051.82,-184.082 1166.31,-162.696 1234.67,-149.928"/>
<polygon fill="midnightblue" stroke="midnightblue" points="1235.64,-153.308 1244.82,-148.032 1234.35,-146.427 1235.64,-153.308"/>
</g>
<!-- Node23&#45;&gt;Node11 -->
<g id="edge31" class="edge"><title>Node23&#45;&gt;Node11</title>
<path fill="none" stroke="midnightblue" d="M1290.72,-128.909C1290.7,-112.892 1288.53,-78.0972 1271.5,-56 1257.07,-37.2762 1232.61,-25.5 1213.62,-18.713"/>
<polygon fill="midnightblue" stroke="midnightblue" points="1214.6,-15.3493 1204.01,-15.5257 1212.4,-21.9939 1214.6,-15.3493"/>
</g>
<!-- Node23&#45;&gt;Node13 -->
<g id="edge32" class="edge"><title>Node23&#45;&gt;Node13</title>
<path fill="none" stroke="midnightblue" d="M1295.24,-128.534C1302.72,-113.081 1315.36,-80.7105 1304.5,-56 1299.11,-43.732 1288.54,-33.3414 1278.6,-25.6461"/>
<polygon fill="midnightblue" stroke="midnightblue" points="1280.33,-22.5811 1270.16,-19.598 1276.25,-28.2697 1280.33,-22.5811"/>
</g>
<!-- Node23&#45;&gt;Node14 -->
<g id="edge33" class="edge"><title>Node23&#45;&gt;Node14</title>
<path fill="none" stroke="midnightblue" d="M1295.65,-128.955C1301.67,-118.938 1311.91,-101.821 1320.5,-87 1331.98,-67.2049 1344.87,-44.3325 1353.52,-28.8928"/>
<polygon fill="midnightblue" stroke="midnightblue" points="1356.7,-30.3636 1358.53,-19.9271 1350.59,-26.9476 1356.7,-30.3636"/>
</g>
<!-- Node24 -->
<g id="node24" class="node"><title>Node24</title>
<g id="a_node24"><a xlink:href="Quality_8h.html" target="_top" xlink:title="QualityControl/Quality.h">
<polygon fill="none" stroke="black" points="972,-62 972,-81 1093,-81 1093,-62 972,-62"/>
<text text-anchor="middle" x="1032.5" y="-69" font-family="Helvetica,sans-Serif" font-size="10.00">QualityControl/Quality.h</text>
</a>
</g>
</g>
<!-- Node23&#45;&gt;Node24 -->
<g id="edge34" class="edge"><title>Node23&#45;&gt;Node24</title>
<path fill="none" stroke="midnightblue" d="M1256.51,-128.936C1210.2,-117.268 1127.23,-96.3669 1076.31,-83.5367"/>
<polygon fill="midnightblue" stroke="midnightblue" points="1077.12,-80.1326 1066.57,-81.0834 1075.41,-86.9205 1077.12,-80.1326"/>
</g>
<!-- Node24&#45;&gt;Node3 -->
<g id="edge36" class="edge"><title>Node24&#45;&gt;Node3</title>
<path fill="none" stroke="midnightblue" d="M971.775,-62.0383C879.135,-49.1295 705.908,-24.9913 635.957,-15.244"/>
<polygon fill="midnightblue" stroke="midnightblue" points="636.413,-11.7739 626.026,-13.8602 635.447,-18.7069 636.413,-11.7739"/>
</g>
<!-- Node24&#45;&gt;Node11 -->
<g id="edge37" class="edge"><title>Node24&#45;&gt;Node11</title>
<path fill="none" stroke="midnightblue" d="M1054.56,-61.9751C1082.21,-51.2933 1129.57,-32.994 1159.4,-21.4715"/>
<polygon fill="midnightblue" stroke="midnightblue" points="1160.72,-24.7133 1168.78,-17.8445 1158.2,-18.1837 1160.72,-24.7133"/>
</g>
<!-- Node24&#45;&gt;Node12 -->
<g id="edge35" class="edge"><title>Node24&#45;&gt;Node12</title>
<path fill="none" stroke="midnightblue" d="M1038.95,-61.9751C1045.7,-53.0501 1056.47,-38.8071 1064.91,-27.6425"/>
<polygon fill="midnightblue" stroke="midnightblue" points="1067.82,-29.5962 1071.06,-19.5091 1062.24,-25.3737 1067.82,-29.5962"/>
</g>
</g>
</svg>
