<?xml version="1.0" encoding="UTF-8" standalone="no"?>
<!DOCTYPE svg PUBLIC "-//W3C//DTD SVG 1.1//EN"
 "http://www.w3.org/Graphics/SVG/1.1/DTD/svg11.dtd">
<!-- Generated by graphviz version 2.38.0 (20140413.2041)
 -->
<!-- Title: Modules/Common/src/QualityReductor.cxx Pages: 1 -->
<svg width="488pt" height="207pt"
 viewBox="0.00 0.00 488.00 207.00" xmlns="http://www.w3.org/2000/svg" xmlns:xlink="http://www.w3.org/1999/xlink">
<g id="graph0" class="graph" transform="scale(1 1) rotate(0) translate(4 203)">
<title>Modules/Common/src/QualityReductor.cxx</title>
<!-- Node1 -->
<g id="node1" class="node"><title>Node1</title>
<polygon fill="#bfbfbf" stroke="black" points="153.5,-168.5 153.5,-198.5 266.5,-198.5 266.5,-168.5 153.5,-168.5"/>
<text text-anchor="start" x="161.5" y="-186.5" font-family="Helvetica,sans-Serif" font-size="10.00">Modules/Common/src</text>
<text text-anchor="middle" x="210" y="-175.5" font-family="Helvetica,sans-Serif" font-size="10.00">/QualityReductor.cxx</text>
</g>
<!-- Node2 -->
<g id="node2" class="node"><title>Node2</title>
<g id="a_node2"><a xlink:href="QualityReductor_8h.html" target="_top" xlink:title="Common/QualityReductor.h">
<polygon fill="none" stroke="black" points="60,-112.5 60,-131.5 198,-131.5 198,-112.5 60,-112.5"/>
<text text-anchor="middle" x="129" y="-119.5" font-family="Helvetica,sans-Serif" font-size="10.00">Common/QualityReductor.h</text>
</a>
</g>
</g>
<!-- Node1&#45;&gt;Node2 -->
<g id="edge1" class="edge"><title>Node1&#45;&gt;Node2</title>
<path fill="none" stroke="midnightblue" d="M190.804,-168.399C178.184,-159.129 161.707,-147.025 148.939,-137.647"/>
<polygon fill="midnightblue" stroke="midnightblue" points="150.918,-134.757 140.786,-131.658 146.773,-140.399 150.918,-134.757"/>
</g>
<!-- Node9 -->
<g id="node9" class="node"><title>Node9</title>
<g id="a_node9"><a xlink:href="QualityObject_8h_source.html" target="_top" xlink:title="QualityControl/QualityObject.h">
<polygon fill="none" stroke="black" points="216.5,-112.5 216.5,-131.5 365.5,-131.5 365.5,-112.5 216.5,-112.5"/>
<text text-anchor="middle" x="291" y="-119.5" font-family="Helvetica,sans-Serif" font-size="10.00">QualityControl/QualityObject.h</text>
</a>
</g>
</g>
<!-- Node1&#45;&gt;Node9 -->
<g id="edge8" class="edge"><title>Node1&#45;&gt;Node9</title>
<path fill="none" stroke="midnightblue" d="M229.196,-168.399C241.816,-159.129 258.293,-147.025 271.061,-137.647"/>
<polygon fill="midnightblue" stroke="midnightblue" points="273.227,-140.399 279.214,-131.658 269.082,-134.757 273.227,-140.399"/>
</g>
<!-- Node3 -->
<g id="node3" class="node"><title>Node3</title>
<g id="a_node3"><a xlink:href="Reductor_8h.html" target="_top" xlink:title="QualityControl/Reductor.h">
<polygon fill="none" stroke="black" points="0,-56.5 0,-75.5 130,-75.5 130,-56.5 0,-56.5"/>
<text text-anchor="middle" x="65" y="-63.5" font-family="Helvetica,sans-Serif" font-size="10.00">QualityControl/Reductor.h</text>
</a>
</g>
</g>
<!-- Node2&#45;&gt;Node3 -->
<g id="edge2" class="edge"><title>Node2&#45;&gt;Node3</title>
<path fill="none" stroke="midnightblue" d="M118.717,-112.324C109.164,-104.263 94.7203,-92.0765 83.2157,-82.3695"/>
<polygon fill="midnightblue" stroke="midnightblue" points="85.3698,-79.6076 75.4698,-75.8339 80.8557,-84.9577 85.3698,-79.6076"/>
</g>
<!-- Node5 -->
<g id="node5" class="node"><title>Node5</title>
<g id="a_node5"><a xlink:href="Quality_8h.html" target="_top" xlink:title="QualityControl/Quality.h">
<polygon fill="none" stroke="black" points="186.5,-56.5 186.5,-75.5 307.5,-75.5 307.5,-56.5 186.5,-56.5"/>
<text text-anchor="middle" x="247" y="-63.5" font-family="Helvetica,sans-Serif" font-size="10.00">QualityControl/Quality.h</text>
</a>
</g>
</g>
<!-- Node2&#45;&gt;Node5 -->
<g id="edge4" class="edge"><title>Node2&#45;&gt;Node5</title>
<path fill="none" stroke="midnightblue" d="M147.697,-112.444C166.944,-103.636 197.152,-89.8116 219.2,-79.722"/>
<polygon fill="midnightblue" stroke="midnightblue" points="220.753,-82.8603 228.39,-75.5164 217.84,-76.4951 220.753,-82.8603"/>
</g>
<!-- Node4 -->
<g id="node4" class="node"><title>Node4</title>
<polygon fill="none" stroke="#bfbfbf" points="54.5,-0.5 54.5,-19.5 113.5,-19.5 113.5,-0.5 54.5,-0.5"/>
<text text-anchor="middle" x="84" y="-7.5" font-family="Helvetica,sans-Serif" font-size="10.00">TObject.h</text>
</g>
<!-- Node3&#45;&gt;Node4 -->
<g id="edge3" class="edge"><title>Node3&#45;&gt;Node4</title>
<path fill="none" stroke="midnightblue" d="M68.1375,-56.083C70.6829,-48.8486 74.3562,-38.4087 77.5271,-29.3968"/>
<polygon fill="midnightblue" stroke="midnightblue" points="80.9034,-30.3459 80.9209,-19.7511 74.3002,-28.0225 80.9034,-30.3459"/>
</g>
<!-- Node6 -->
<g id="node6" class="node"><title>Node6</title>
<polygon fill="none" stroke="#bfbfbf" points="160,-0.5 160,-19.5 216,-19.5 216,-0.5 160,-0.5"/>
<text text-anchor="middle" x="188" y="-7.5" font-family="Helvetica,sans-Serif" font-size="10.00">Rtypes.h</text>
</g>
<!-- Node5&#45;&gt;Node6 -->
<g id="edge5" class="edge"><title>Node5&#45;&gt;Node6</title>
<path fill="none" stroke="midnightblue" d="M237.521,-56.324C228.799,-48.3414 215.657,-36.3128 205.102,-26.6529"/>
<polygon fill="midnightblue" stroke="midnightblue" points="207.392,-24.0036 197.652,-19.8339 202.666,-29.1674 207.392,-24.0036"/>
</g>
<!-- Node7 -->
<g id="node7" class="node"><title>Node7</title>
<polygon fill="none" stroke="#bfbfbf" points="234.5,-0.5 234.5,-19.5 275.5,-19.5 275.5,-0.5 234.5,-0.5"/>
<text text-anchor="middle" x="255" y="-7.5" font-family="Helvetica,sans-Serif" font-size="10.00">string</text>
</g>
<!-- Node5&#45;&gt;Node7 -->
<g id="edge6" class="edge"><title>Node5&#45;&gt;Node7</title>
<path fill="none" stroke="midnightblue" d="M248.321,-56.083C249.381,-48.9272 250.906,-38.6353 252.231,-29.6911"/>
<polygon fill="midnightblue" stroke="midnightblue" points="255.7,-30.1561 253.704,-19.7511 248.776,-29.1302 255.7,-30.1561"/>
</g>
<!-- Node8 -->
<g id="node8" class="node"><title>Node8</title>
<polygon fill="none" stroke="#bfbfbf" points="309.5,-0.5 309.5,-19.5 344.5,-19.5 344.5,-0.5 309.5,-0.5"/>
<text text-anchor="middle" x="327" y="-7.5" font-family="Helvetica,sans-Serif" font-size="10.00">map</text>
</g>
<!-- Node5&#45;&gt;Node8 -->
<g id="edge7" class="edge"><title>Node5&#45;&gt;Node8</title>
<path fill="none" stroke="midnightblue" d="M259.853,-56.324C272.216,-47.979 291.13,-35.2122 305.737,-25.3524"/>
<polygon fill="midnightblue" stroke="midnightblue" points="307.848,-28.1503 314.179,-19.6545 303.932,-22.3483 307.848,-28.1503"/>
</g>
<!-- Node9&#45;&gt;Node4 -->
<g id="edge10" class="edge"><title>Node9&#45;&gt;Node4</title>
<path fill="none" stroke="midnightblue" d="M264.414,-112.49C240.797,-104.471 205.679,-91.4069 177,-76 149.71,-61.339 120.852,-40.1609 102.652,-26.0057"/>
<polygon fill="midnightblue" stroke="midnightblue" points="104.647,-23.1219 94.6272,-19.6802 100.314,-28.6194 104.647,-23.1219"/>
</g>
<!-- Node9&#45;&gt;Node5 -->
<g id="edge12" class="edge"><title>Node9&#45;&gt;Node5</title>
<path fill="none" stroke="midnightblue" d="M283.734,-112.083C277.455,-104.377 268.212,-93.0333 260.569,-83.6531"/>
<polygon fill="midnightblue" stroke="midnightblue" points="263.161,-81.2926 254.131,-75.7511 257.734,-85.7143 263.161,-81.2926"/>
</g>
<!-- Node9&#45;&gt;Node8 -->
<g id="edge9" class="edge"><title>Node9&#45;&gt;Node8</title>
<path fill="none" stroke="midnightblue" d="M296.913,-112.454C302.684,-103.698 311.267,-89.4934 316,-76 321.274,-60.9644 324.065,-43.0589 325.514,-29.8516"/>
<polygon fill="midnightblue" stroke="midnightblue" points="329.022,-29.9277 326.47,-19.6448 322.053,-29.2747 329.022,-29.9277"/>
</g>
<!-- Node10 -->
<g id="node10" class="node"><title>Node10</title>
<polygon fill="none" stroke="#bfbfbf" points="364,-56.5 364,-75.5 480,-75.5 480,-56.5 364,-56.5"/>
<text text-anchor="middle" x="422" y="-63.5" font-family="Helvetica,sans-Serif" font-size="10.00">Common/Exceptions.h</text>
</g>
<!-- Node9&#45;&gt;Node10 -->
<g id="edge11" class="edge"><title>Node9&#45;&gt;Node10</title>
<path fill="none" stroke="midnightblue" d="M311.757,-112.444C333.316,-103.557 367.263,-89.5632 391.794,-79.4514"/>
<polygon fill="midnightblue" stroke="midnightblue" points="393.428,-82.5634 401.34,-75.5164 390.761,-76.0917 393.428,-82.5634"/>
</g>
</g>
</svg>
