<?xml version="1.0" encoding="UTF-8" standalone="no"?>
<!DOCTYPE svg PUBLIC "-//W3C//DTD SVG 1.1//EN"
 "http://www.w3.org/Graphics/SVG/1.1/DTD/svg11.dtd">
<!-- Generated by graphviz version 2.38.0 (20140413.2041)
 -->
<!-- Title: Modules/Common/include/Common/QualityReductor.h Pages: 1 -->
<svg width="291pt" height="151pt"
 viewBox="0.00 0.00 290.50 151.00" xmlns="http://www.w3.org/2000/svg" xmlns:xlink="http://www.w3.org/1999/xlink">
<g id="graph0" class="graph" transform="scale(1 1) rotate(0) translate(4 147)">
<title>Modules/Common/include/Common/QualityReductor.h</title>
<!-- Node1 -->
<g id="node1" class="node"><title>Node1</title>
<polygon fill="#bfbfbf" stroke="black" points="66.5,-112.5 66.5,-142.5 207.5,-142.5 207.5,-112.5 66.5,-112.5"/>
<text text-anchor="start" x="74.5" y="-130.5" font-family="Helvetica,sans-Serif" font-size="10.00">Modules/Common/include</text>
<text text-anchor="middle" x="137" y="-119.5" font-family="Helvetica,sans-Serif" font-size="10.00">/Common/QualityReductor.h</text>
</g>
<!-- Node2 -->
<g id="node2" class="node"><title>Node2</title>
<g id="a_node2"><a xlink:href="Reductor_8h.html" target="_top" xlink:title="QualityControl/Reductor.h">
<polygon fill="none" stroke="black" points="0,-56.5 0,-75.5 130,-75.5 130,-56.5 0,-56.5"/>
<text text-anchor="middle" x="65" y="-63.5" font-family="Helvetica,sans-Serif" font-size="10.00">QualityControl/Reductor.h</text>
</a>
</g>
</g>
<!-- Node1&#45;&gt;Node2 -->
<g id="edge1" class="edge"><title>Node1&#45;&gt;Node2</title>
<path fill="none" stroke="midnightblue" d="M119.937,-112.399C108.935,-103.308 94.6349,-91.4899 83.3823,-82.1909"/>
<polygon fill="midnightblue" stroke="midnightblue" points="85.4147,-79.33 75.4766,-75.6578 80.9556,-84.726 85.4147,-79.33"/>
</g>
<!-- Node4 -->
<g id="node4" class="node"><title>Node4</title>
<g id="a_node4"><a xlink:href="Quality_8h.html" target="_top" xlink:title="QualityControl/Quality.h">
<polygon fill="none" stroke="black" points="148.5,-56.5 148.5,-75.5 269.5,-75.5 269.5,-56.5 148.5,-56.5"/>
<text text-anchor="middle" x="209" y="-63.5" font-family="Helvetica,sans-Serif" font-size="10.00">QualityControl/Quality.h</text>
</a>
</g>
</g>
<!-- Node1&#45;&gt;Node4 -->
<g id="edge3" class="edge"><title>Node1&#45;&gt;Node4</title>
<path fill="none" stroke="midnightblue" d="M154.063,-112.399C165.065,-103.308 179.365,-91.4899 190.618,-82.1909"/>
<polygon fill="midnightblue" stroke="midnightblue" points="193.044,-84.726 198.523,-75.6578 188.585,-79.33 193.044,-84.726"/>
</g>
<!-- Node3 -->
<g id="node3" class="node"><title>Node3</title>
<polygon fill="none" stroke="#bfbfbf" points="35.5,-0.5 35.5,-19.5 94.5,-19.5 94.5,-0.5 35.5,-0.5"/>
<text text-anchor="middle" x="65" y="-7.5" font-family="Helvetica,sans-Serif" font-size="10.00">TObject.h</text>
</g>
<!-- Node2&#45;&gt;Node3 -->
<g id="edge2" class="edge"><title>Node2&#45;&gt;Node3</title>
<path fill="none" stroke="midnightblue" d="M65,-56.083C65,-49.0059 65,-38.8611 65,-29.9865"/>
<polygon fill="midnightblue" stroke="midnightblue" points="68.5001,-29.751 65,-19.7511 61.5001,-29.7511 68.5001,-29.751"/>
</g>
<!-- Node5 -->
<g id="node5" class="node"><title>Node5</title>
<polygon fill="none" stroke="#bfbfbf" points="114,-0.5 114,-19.5 170,-19.5 170,-0.5 114,-0.5"/>
<text text-anchor="middle" x="142" y="-7.5" font-family="Helvetica,sans-Serif" font-size="10.00">Rtypes.h</text>
</g>
<!-- Node4&#45;&gt;Node5 -->
<g id="edge4" class="edge"><title>Node4&#45;&gt;Node5</title>
<path fill="none" stroke="midnightblue" d="M198.235,-56.324C188.234,-48.2631 173.113,-36.0765 161.07,-26.3695"/>
<polygon fill="midnightblue" stroke="midnightblue" points="162.943,-23.3841 152.961,-19.8339 158.55,-28.8343 162.943,-23.3841"/>
</g>
<!-- Node6 -->
<g id="node6" class="node"><title>Node6</title>
<polygon fill="none" stroke="#bfbfbf" points="188.5,-0.5 188.5,-19.5 229.5,-19.5 229.5,-0.5 188.5,-0.5"/>
<text text-anchor="middle" x="209" y="-7.5" font-family="Helvetica,sans-Serif" font-size="10.00">string</text>
</g>
<!-- Node4&#45;&gt;Node6 -->
<g id="edge5" class="edge"><title>Node4&#45;&gt;Node6</title>
<path fill="none" stroke="midnightblue" d="M209,-56.083C209,-49.0059 209,-38.8611 209,-29.9865"/>
<polygon fill="midnightblue" stroke="midnightblue" points="212.5,-29.751 209,-19.7511 205.5,-29.7511 212.5,-29.751"/>
</g>
<!-- Node7 -->
<g id="node7" class="node"><title>Node7</title>
<polygon fill="none" stroke="#bfbfbf" points="247.5,-0.5 247.5,-19.5 282.5,-19.5 282.5,-0.5 247.5,-0.5"/>
<text text-anchor="middle" x="265" y="-7.5" font-family="Helvetica,sans-Serif" font-size="10.00">map</text>
</g>
<!-- Node4&#45;&gt;Node7 -->
<g id="edge6" class="edge"><title>Node4&#45;&gt;Node7</title>
<path fill="none" stroke="midnightblue" d="M217.997,-56.324C226.194,-48.4196 238.506,-36.5482 248.472,-26.9377"/>
<polygon fill="midnightblue" stroke="midnightblue" points="251.07,-29.2947 255.839,-19.8339 246.211,-24.2558 251.07,-29.2947"/>
</g>
</g>
</svg>
