<?xml version="1.0" encoding="UTF-8" standalone="no"?>
<!DOCTYPE svg PUBLIC "-//W3C//DTD SVG 1.1//EN"
 "http://www.w3.org/Graphics/SVG/1.1/DTD/svg11.dtd">
<!-- Generated by graphviz version 2.38.0 (20140413.2041)
 -->
<!-- Title: Modules/MID/src/RawQcCheck.cxx Pages: 1 -->
<svg width="721pt" height="252pt"
 viewBox="0.00 0.00 720.50 252.00" xmlns="http://www.w3.org/2000/svg" xmlns:xlink="http://www.w3.org/1999/xlink">
<g id="graph0" class="graph" transform="scale(1 1) rotate(0) translate(4 248)">
<title>Modules/MID/src/RawQcCheck.cxx</title>
<!-- Node1 -->
<g id="node1" class="node"><title>Node1</title>
<polygon fill="#bfbfbf" stroke="black" points="287,-224.5 287,-243.5 462,-243.5 462,-224.5 287,-224.5"/>
<text text-anchor="middle" x="374.5" y="-231.5" font-family="Helvetica,sans-Serif" font-size="10.00">Modules/MID/src/RawQcCheck.cxx</text>
</g>
<!-- Node2 -->
<g id="node2" class="node"><title>Node2</title>
<g id="a_node2"><a xlink:href="RawQcCheck_8h.html" target="_top" xlink:title="MID/RawQcCheck.h">
<polygon fill="none" stroke="black" points="225.5,-168.5 225.5,-187.5 333.5,-187.5 333.5,-168.5 225.5,-168.5"/>
<text text-anchor="middle" x="279.5" y="-175.5" font-family="Helvetica,sans-Serif" font-size="10.00">MID/RawQcCheck.h</text>
</a>
</g>
</g>
<!-- Node1&#45;&gt;Node2 -->
<g id="edge1" class="edge"><title>Node1&#45;&gt;Node2</title>
<path fill="none" stroke="midnightblue" d="M359.237,-224.324C344.279,-215.822 321.245,-202.729 303.773,-192.797"/>
<polygon fill="midnightblue" stroke="midnightblue" points="305.149,-189.553 294.726,-187.655 301.69,-195.639 305.149,-189.553"/>
</g>
<!-- Node5 -->
<g id="node5" class="node"><title>Node5</title>
<g id="a_node5"><a xlink:href="MonitorObject_8h.html" target="_top" xlink:title="QualityControl/MonitorObject.h">
<polygon fill="none" stroke="black" points="57,-56.5 57,-75.5 208,-75.5 208,-56.5 57,-56.5"/>
<text text-anchor="middle" x="132.5" y="-63.5" font-family="Helvetica,sans-Serif" font-size="10.00">QualityControl/MonitorObject.h</text>
</a>
</g>
</g>
<!-- Node1&#45;&gt;Node5 -->
<g id="edge14" class="edge"><title>Node1&#45;&gt;Node5</title>
<path fill="none" stroke="midnightblue" d="M307.788,-224.445C277.775,-218.095 243.181,-207.077 216.5,-188 178.669,-160.951 152.197,-111.27 140.036,-84.762"/>
<polygon fill="midnightblue" stroke="midnightblue" points="143.203,-83.268 135.957,-75.5379 136.801,-86.0991 143.203,-83.268"/>
</g>
<!-- Node11 -->
<g id="node11" class="node"><title>Node11</title>
<g id="a_node11"><a xlink:href="Quality_8h.html" target="_top" xlink:title="QualityControl/Quality.h">
<polygon fill="none" stroke="black" points="327,-56.5 327,-75.5 448,-75.5 448,-56.5 327,-56.5"/>
<text text-anchor="middle" x="387.5" y="-63.5" font-family="Helvetica,sans-Serif" font-size="10.00">QualityControl/Quality.h</text>
</a>
</g>
</g>
<!-- Node1&#45;&gt;Node11 -->
<g id="edge15" class="edge"><title>Node1&#45;&gt;Node11</title>
<path fill="none" stroke="midnightblue" d="M375.199,-224.075C377.245,-197.945 383.255,-121.211 386.045,-85.577"/>
<polygon fill="midnightblue" stroke="midnightblue" points="389.537,-85.8109 386.829,-75.5681 382.559,-85.2643 389.537,-85.8109"/>
</g>
<!-- Node12 -->
<g id="node12" class="node"><title>Node12</title>
<g id="a_node12"><a xlink:href="QcInfoLogger_8h.html" target="_top" xlink:title="QualityControl/QcInfoLogger.h">
<polygon fill="none" stroke="black" points="405,-168.5 405,-187.5 554,-187.5 554,-168.5 405,-168.5"/>
<text text-anchor="middle" x="479.5" y="-175.5" font-family="Helvetica,sans-Serif" font-size="10.00">QualityControl/QcInfoLogger.h</text>
</a>
</g>
</g>
<!-- Node1&#45;&gt;Node12 -->
<g id="edge16" class="edge"><title>Node1&#45;&gt;Node12</title>
<path fill="none" stroke="midnightblue" d="M391.37,-224.324C408.209,-215.664 434.307,-202.242 453.738,-192.249"/>
<polygon fill="midnightblue" stroke="midnightblue" points="455.38,-195.341 462.672,-187.655 452.178,-189.116 455.38,-195.341"/>
</g>
<!-- Node15 -->
<g id="node15" class="node"><title>Node15</title>
<polygon fill="none" stroke="#bfbfbf" points="571.5,-168.5 571.5,-187.5 615.5,-187.5 615.5,-168.5 571.5,-168.5"/>
<text text-anchor="middle" x="593.5" y="-175.5" font-family="Helvetica,sans-Serif" font-size="10.00">TH1.h</text>
</g>
<!-- Node1&#45;&gt;Node15 -->
<g id="edge19" class="edge"><title>Node1&#45;&gt;Node15</title>
<path fill="none" stroke="midnightblue" d="M412.442,-224.477C448.426,-216.269 504.229,-203.222 561.275,-188.236"/>
<polygon fill="midnightblue" stroke="midnightblue" points="562.411,-191.556 571.184,-185.616 560.622,-184.789 562.411,-191.556"/>
</g>
<!-- Node3 -->
<g id="node3" class="node"><title>Node3</title>
<g id="a_node3"><a xlink:href="CheckInterface_8h.html" target="_top" xlink:title="QualityControl/CheckInterface.h">
<polygon fill="none" stroke="black" points="189,-112.5 189,-131.5 346,-131.5 346,-112.5 189,-112.5"/>
<text text-anchor="middle" x="267.5" y="-119.5" font-family="Helvetica,sans-Serif" font-size="10.00">QualityControl/CheckInterface.h</text>
</a>
</g>
</g>
<!-- Node2&#45;&gt;Node3 -->
<g id="edge2" class="edge"><title>Node2&#45;&gt;Node3</title>
<path fill="none" stroke="midnightblue" d="M277.518,-168.083C275.928,-160.927 273.641,-150.635 271.654,-141.691"/>
<polygon fill="midnightblue" stroke="midnightblue" points="275.031,-140.754 269.445,-131.751 268.197,-142.272 275.031,-140.754"/>
</g>
<!-- Node4 -->
<g id="node4" class="node"><title>Node4</title>
<polygon fill="none" stroke="#bfbfbf" points="226,-56.5 226,-75.5 309,-75.5 309,-56.5 226,-56.5"/>
<text text-anchor="middle" x="267.5" y="-63.5" font-family="Helvetica,sans-Serif" font-size="10.00">unordered_map</text>
</g>
<!-- Node3&#45;&gt;Node4 -->
<g id="edge3" class="edge"><title>Node3&#45;&gt;Node4</title>
<path fill="none" stroke="midnightblue" d="M267.5,-112.083C267.5,-105.006 267.5,-94.8611 267.5,-85.9865"/>
<polygon fill="midnightblue" stroke="midnightblue" points="271,-85.751 267.5,-75.7511 264,-85.7511 271,-85.751"/>
</g>
<!-- Node3&#45;&gt;Node5 -->
<g id="edge4" class="edge"><title>Node3&#45;&gt;Node5</title>
<path fill="none" stroke="midnightblue" d="M246.109,-112.444C223.793,-103.517 188.597,-89.4387 163.292,-79.3168"/>
<polygon fill="midnightblue" stroke="midnightblue" points="164.376,-75.9807 153.791,-75.5164 161.776,-82.4801 164.376,-75.9807"/>
</g>
<!-- Node3&#45;&gt;Node11 -->
<g id="edge10" class="edge"><title>Node3&#45;&gt;Node11</title>
<path fill="none" stroke="midnightblue" d="M286.514,-112.444C306.088,-103.636 336.808,-89.8116 359.229,-79.722"/>
<polygon fill="midnightblue" stroke="midnightblue" points="360.892,-82.8119 368.575,-75.5164 358.019,-76.4284 360.892,-82.8119"/>
</g>
<!-- Node6 -->
<g id="node6" class="node"><title>Node6</title>
<polygon fill="none" stroke="#bfbfbf" points="221,-0.5 221,-19.5 262,-19.5 262,-0.5 221,-0.5"/>
<text text-anchor="middle" x="241.5" y="-7.5" font-family="Helvetica,sans-Serif" font-size="10.00">string</text>
</g>
<!-- Node5&#45;&gt;Node6 -->
<g id="edge5" class="edge"><title>Node5&#45;&gt;Node6</title>
<path fill="none" stroke="midnightblue" d="M150.013,-56.324C167.572,-47.6247 194.831,-34.1202 215.031,-24.113"/>
<polygon fill="midnightblue" stroke="midnightblue" points="216.624,-27.23 224.031,-19.6545 213.516,-20.9575 216.624,-27.23"/>
</g>
<!-- Node7 -->
<g id="node7" class="node"><title>Node7</title>
<polygon fill="none" stroke="#bfbfbf" points="285,-0.5 285,-19.5 320,-19.5 320,-0.5 285,-0.5"/>
<text text-anchor="middle" x="302.5" y="-7.5" font-family="Helvetica,sans-Serif" font-size="10.00">map</text>
</g>
<!-- Node5&#45;&gt;Node7 -->
<g id="edge6" class="edge"><title>Node5&#45;&gt;Node7</title>
<path fill="none" stroke="midnightblue" d="M159.437,-56.4435C191.033,-46.4072 243.132,-29.8582 274.978,-19.7423"/>
<polygon fill="midnightblue" stroke="midnightblue" points="276.083,-23.0636 284.554,-16.7003 273.964,-16.3921 276.083,-23.0636"/>
</g>
<!-- Node8 -->
<g id="node8" class="node"><title>Node8</title>
<polygon fill="none" stroke="#bfbfbf" points="340.5,-0.5 340.5,-19.5 396.5,-19.5 396.5,-0.5 340.5,-0.5"/>
<text text-anchor="middle" x="368.5" y="-7.5" font-family="Helvetica,sans-Serif" font-size="10.00">Rtypes.h</text>
</g>
<!-- Node5&#45;&gt;Node8 -->
<g id="edge7" class="edge"><title>Node5&#45;&gt;Node8</title>
<path fill="none" stroke="midnightblue" d="M169.895,-56.4435C213.786,-46.4007 286.177,-29.8367 330.379,-19.7226"/>
<polygon fill="midnightblue" stroke="midnightblue" points="331.201,-23.125 340.168,-17.4826 329.64,-16.3014 331.201,-23.125"/>
</g>
<!-- Node9 -->
<g id="node9" class="node"><title>Node9</title>
<polygon fill="none" stroke="#bfbfbf" points="0,-0.5 0,-19.5 59,-19.5 59,-0.5 0,-0.5"/>
<text text-anchor="middle" x="29.5" y="-7.5" font-family="Helvetica,sans-Serif" font-size="10.00">TObject.h</text>
</g>
<!-- Node5&#45;&gt;Node9 -->
<g id="edge8" class="edge"><title>Node5&#45;&gt;Node9</title>
<path fill="none" stroke="midnightblue" d="M115.951,-56.324C99.5084,-47.7034 74.0652,-34.3643 55.0316,-24.3855"/>
<polygon fill="midnightblue" stroke="midnightblue" points="56.4895,-21.198 46.0077,-19.6545 53.2391,-27.3977 56.4895,-21.198"/>
</g>
<!-- Node10 -->
<g id="node10" class="node"><title>Node10</title>
<polygon fill="none" stroke="#bfbfbf" points="77.5,-0.5 77.5,-19.5 193.5,-19.5 193.5,-0.5 77.5,-0.5"/>
<text text-anchor="middle" x="135.5" y="-7.5" font-family="Helvetica,sans-Serif" font-size="10.00">Common/Exceptions.h</text>
</g>
<!-- Node5&#45;&gt;Node10 -->
<g id="edge9" class="edge"><title>Node5&#45;&gt;Node10</title>
<path fill="none" stroke="midnightblue" d="M132.995,-56.083C133.389,-49.0059 133.952,-38.8611 134.445,-29.9865"/>
<polygon fill="midnightblue" stroke="midnightblue" points="137.954,-29.9299 135.014,-19.7511 130.964,-29.5415 137.954,-29.9299"/>
</g>
<!-- Node11&#45;&gt;Node6 -->
<g id="edge12" class="edge"><title>Node11&#45;&gt;Node6</title>
<path fill="none" stroke="midnightblue" d="M364.366,-56.4435C339.302,-47.1732 299.214,-32.3464 271.687,-22.1652"/>
<polygon fill="midnightblue" stroke="midnightblue" points="272.758,-18.8297 262.165,-18.6433 270.33,-25.395 272.758,-18.8297"/>
</g>
<!-- Node11&#45;&gt;Node7 -->
<g id="edge13" class="edge"><title>Node11&#45;&gt;Node7</title>
<path fill="none" stroke="midnightblue" d="M373.843,-56.324C360.584,-47.9002 340.232,-34.9709 324.654,-25.0741"/>
<polygon fill="midnightblue" stroke="midnightblue" points="326.44,-22.0626 316.123,-19.6545 322.687,-27.9711 326.44,-22.0626"/>
</g>
<!-- Node11&#45;&gt;Node8 -->
<g id="edge11" class="edge"><title>Node11&#45;&gt;Node8</title>
<path fill="none" stroke="midnightblue" d="M384.363,-56.083C381.817,-48.8486 378.144,-38.4087 374.973,-29.3968"/>
<polygon fill="midnightblue" stroke="midnightblue" points="378.2,-28.0225 371.579,-19.7511 371.597,-30.3459 378.2,-28.0225"/>
</g>
<!-- Node13 -->
<g id="node13" class="node"><title>Node13</title>
<polygon fill="none" stroke="#bfbfbf" points="582.5,-112.5 582.5,-131.5 712.5,-131.5 712.5,-112.5 582.5,-112.5"/>
<text text-anchor="middle" x="647.5" y="-119.5" font-family="Helvetica,sans-Serif" font-size="10.00">InfoLogger/InfoLogger.hxx</text>
</g>
<!-- Node12&#45;&gt;Node13 -->
<g id="edge17" class="edge"><title>Node12&#45;&gt;Node13</title>
<path fill="none" stroke="midnightblue" d="M506.12,-168.444C534.506,-159.32 579.637,-144.813 611.253,-134.651"/>
<polygon fill="midnightblue" stroke="midnightblue" points="612.555,-137.909 621.004,-131.516 610.413,-131.244 612.555,-137.909"/>
</g>
<!-- Node14 -->
<g id="node14" class="node"><title>Node14</title>
<polygon fill="none" stroke="#bfbfbf" points="402.5,-112.5 402.5,-131.5 564.5,-131.5 564.5,-112.5 402.5,-112.5"/>
<text text-anchor="middle" x="483.5" y="-119.5" font-family="Helvetica,sans-Serif" font-size="10.00">InfoLogger/InfoLoggerMacros.hxx</text>
</g>
<!-- Node12&#45;&gt;Node14 -->
<g id="edge18" class="edge"><title>Node12&#45;&gt;Node14</title>
<path fill="none" stroke="midnightblue" d="M480.161,-168.083C480.685,-161.006 481.436,-150.861 482.094,-141.986"/>
<polygon fill="midnightblue" stroke="midnightblue" points="485.603,-141.982 482.852,-131.751 478.623,-141.465 485.603,-141.982"/>
</g>
</g>
</svg>
