<?xml version="1.0" encoding="UTF-8" standalone="no"?>
<!DOCTYPE svg PUBLIC "-//W3C//DTD SVG 1.1//EN"
 "http://www.w3.org/Graphics/SVG/1.1/DTD/svg11.dtd">
<!-- Generated by graphviz version 2.38.0 (20140413.2041)
 -->
<!-- Title: Modules/MID/src/RawQcTask.cxx Pages: 1 -->
<svg width="1468pt" height="319pt"
 viewBox="0.00 0.00 1467.50 319.00" xmlns="http://www.w3.org/2000/svg" xmlns:xlink="http://www.w3.org/1999/xlink">
<g id="graph0" class="graph" transform="scale(1 1) rotate(0) translate(4 315)">
<title>Modules/MID/src/RawQcTask.cxx</title>
<!-- Node1 -->
<g id="node1" class="node"><title>Node1</title>
<polygon fill="#bfbfbf" stroke="black" points="311,-291.5 311,-310.5 479,-310.5 479,-291.5 311,-291.5"/>
<text text-anchor="middle" x="395" y="-298.5" font-family="Helvetica,sans-Serif" font-size="10.00">Modules/MID/src/RawQcTask.cxx</text>
</g>
<!-- Node2 -->
<g id="node2" class="node"><title>Node2</title>
<polygon fill="none" stroke="#bfbfbf" points="160.5,-235.5 160.5,-254.5 225.5,-254.5 225.5,-235.5 160.5,-235.5"/>
<text text-anchor="middle" x="193" y="-242.5" font-family="Helvetica,sans-Serif" font-size="10.00">TCanvas.h</text>
</g>
<!-- Node1&#45;&gt;Node2 -->
<g id="edge1" class="edge"><title>Node1&#45;&gt;Node2</title>
<path fill="none" stroke="midnightblue" d="M362.992,-291.444C328.271,-282.162 272.712,-267.309 234.623,-257.127"/>
<polygon fill="midnightblue" stroke="midnightblue" points="235.422,-253.718 224.858,-254.516 233.615,-260.48 235.422,-253.718"/>
</g>
<!-- Node3 -->
<g id="node3" class="node"><title>Node3</title>
<polygon fill="none" stroke="#bfbfbf" points="244,-235.5 244,-254.5 288,-254.5 288,-235.5 244,-235.5"/>
<text text-anchor="middle" x="266" y="-242.5" font-family="Helvetica,sans-Serif" font-size="10.00">TH1.h</text>
</g>
<!-- Node1&#45;&gt;Node3 -->
<g id="edge2" class="edge"><title>Node1&#45;&gt;Node3</title>
<path fill="none" stroke="midnightblue" d="M374.56,-291.444C353.33,-282.557 319.901,-268.563 295.745,-258.451"/>
<polygon fill="midnightblue" stroke="midnightblue" points="296.921,-255.149 286.345,-254.516 294.218,-261.606 296.921,-255.149"/>
</g>
<!-- Node4 -->
<g id="node4" class="node"><title>Node4</title>
<g id="a_node4"><a xlink:href="QcInfoLogger_8h.html" target="_top" xlink:title="QualityControl/QcInfoLogger.h">
<polygon fill="none" stroke="black" points="157.5,-123.5 157.5,-142.5 306.5,-142.5 306.5,-123.5 157.5,-123.5"/>
<text text-anchor="middle" x="232" y="-130.5" font-family="Helvetica,sans-Serif" font-size="10.00">QualityControl/QcInfoLogger.h</text>
</a>
</g>
</g>
<!-- Node1&#45;&gt;Node4 -->
<g id="edge3" class="edge"><title>Node1&#45;&gt;Node4</title>
<path fill="none" stroke="midnightblue" d="M382.191,-291.405C369.811,-282.834 350.807,-268.966 336,-255 299.907,-220.956 263.408,-175.316 244.74,-150.974"/>
<polygon fill="midnightblue" stroke="midnightblue" points="247.333,-148.601 238.497,-142.755 241.759,-152.835 247.333,-148.601"/>
</g>
<!-- Node7 -->
<g id="node7" class="node"><title>Node7</title>
<g id="a_node7"><a xlink:href="RawQcTask_8h.html" target="_top" xlink:title="MID/RawQcTask.h">
<polygon fill="none" stroke="black" points="344.5,-235.5 344.5,-254.5 445.5,-254.5 445.5,-235.5 344.5,-235.5"/>
<text text-anchor="middle" x="395" y="-242.5" font-family="Helvetica,sans-Serif" font-size="10.00">MID/RawQcTask.h</text>
</a>
</g>
</g>
<!-- Node1&#45;&gt;Node7 -->
<g id="edge6" class="edge"><title>Node1&#45;&gt;Node7</title>
<path fill="none" stroke="midnightblue" d="M395,-291.083C395,-284.006 395,-273.861 395,-264.986"/>
<polygon fill="midnightblue" stroke="midnightblue" points="398.5,-264.751 395,-254.751 391.5,-264.751 398.5,-264.751"/>
</g>
<!-- Node26 -->
<g id="node26" class="node"><title>Node26</title>
<polygon fill="none" stroke="#bfbfbf" points="464,-235.5 464,-254.5 594,-254.5 594,-235.5 464,-235.5"/>
<text text-anchor="middle" x="529" y="-242.5" font-family="Helvetica,sans-Serif" font-size="10.00">Framework/InputRecord.h</text>
</g>
<!-- Node1&#45;&gt;Node26 -->
<g id="edge32" class="edge"><title>Node1&#45;&gt;Node26</title>
<path fill="none" stroke="midnightblue" d="M416.233,-291.444C438.384,-282.517 473.319,-268.439 498.436,-258.317"/>
<polygon fill="midnightblue" stroke="midnightblue" points="499.9,-261.501 507.867,-254.516 497.283,-255.008 499.9,-261.501"/>
</g>
<!-- Node27 -->
<g id="node27" class="node"><title>Node27</title>
<polygon fill="none" stroke="#bfbfbf" points="612,-235.5 612,-254.5 746,-254.5 746,-235.5 612,-235.5"/>
<text text-anchor="middle" x="679" y="-242.5" font-family="Helvetica,sans-Serif" font-size="10.00">Framework/DataRefUtils.h</text>
</g>
<!-- Node1&#45;&gt;Node27 -->
<g id="edge33" class="edge"><title>Node1&#45;&gt;Node27</title>
<path fill="none" stroke="midnightblue" d="M440.001,-291.444C489.959,-281.944 570.601,-266.611 624.199,-256.42"/>
<polygon fill="midnightblue" stroke="midnightblue" points="625.04,-259.823 634.21,-254.516 623.732,-252.946 625.04,-259.823"/>
</g>
<!-- Node28 -->
<g id="node28" class="node"><title>Node28</title>
<polygon fill="none" stroke="#bfbfbf" points="764,-235.5 764,-254.5 922,-254.5 922,-235.5 764,-235.5"/>
<text text-anchor="middle" x="843" y="-242.5" font-family="Helvetica,sans-Serif" font-size="10.00">DataFormatsMID/ColumnData.h</text>
</g>
<!-- Node1&#45;&gt;Node28 -->
<g id="edge34" class="edge"><title>Node1&#45;&gt;Node28</title>
<path fill="none" stroke="midnightblue" d="M465.987,-291.444C546.597,-281.727 677.849,-265.907 762.287,-255.729"/>
<polygon fill="midnightblue" stroke="midnightblue" points="762.836,-259.188 772.345,-254.516 761.998,-252.238 762.836,-259.188"/>
</g>
<!-- Node5 -->
<g id="node5" class="node"><title>Node5</title>
<polygon fill="none" stroke="#bfbfbf" points="0,-62 0,-81 130,-81 130,-62 0,-62"/>
<text text-anchor="middle" x="65" y="-69" font-family="Helvetica,sans-Serif" font-size="10.00">InfoLogger/InfoLogger.hxx</text>
</g>
<!-- Node4&#45;&gt;Node5 -->
<g id="edge4" class="edge"><title>Node4&#45;&gt;Node5</title>
<path fill="none" stroke="midnightblue" d="M208.073,-123.475C179.303,-113.225 130.844,-95.9593 98.3983,-84.3994"/>
<polygon fill="midnightblue" stroke="midnightblue" points="99.4773,-81.0684 88.8826,-81.0091 97.1279,-87.6624 99.4773,-81.0684"/>
</g>
<!-- Node6 -->
<g id="node6" class="node"><title>Node6</title>
<polygon fill="none" stroke="#bfbfbf" points="148,-62 148,-81 310,-81 310,-62 148,-62"/>
<text text-anchor="middle" x="229" y="-69" font-family="Helvetica,sans-Serif" font-size="10.00">InfoLogger/InfoLoggerMacros.hxx</text>
</g>
<!-- Node4&#45;&gt;Node6 -->
<g id="edge5" class="edge"><title>Node4&#45;&gt;Node6</title>
<path fill="none" stroke="midnightblue" d="M231.57,-123.475C231.147,-115.08 230.486,-101.981 229.941,-91.1631"/>
<polygon fill="midnightblue" stroke="midnightblue" points="233.428,-90.8201 229.429,-81.0091 226.437,-91.1727 233.428,-90.8201"/>
</g>
<!-- Node8 -->
<g id="node8" class="node"><title>Node8</title>
<g id="a_node8"><a xlink:href="TaskInterface_8h.html" target="_top" xlink:title="QualityControl/TaskInterface.h">
<polygon fill="none" stroke="black" points="430,-179.5 430,-198.5 580,-198.5 580,-179.5 430,-179.5"/>
<text text-anchor="middle" x="505" y="-186.5" font-family="Helvetica,sans-Serif" font-size="10.00">QualityControl/TaskInterface.h</text>
</a>
</g>
</g>
<!-- Node7&#45;&gt;Node8 -->
<g id="edge7" class="edge"><title>Node7&#45;&gt;Node8</title>
<path fill="none" stroke="midnightblue" d="M412.673,-235.324C430.394,-226.625 457.903,-213.12 478.288,-203.113"/>
<polygon fill="midnightblue" stroke="midnightblue" points="479.936,-206.203 487.37,-198.655 476.851,-199.919 479.936,-206.203"/>
</g>
<!-- Node8&#45;&gt;Node4 -->
<g id="edge31" class="edge"><title>Node8&#45;&gt;Node4</title>
<path fill="none" stroke="midnightblue" d="M461.742,-179.444C413.819,-169.964 336.522,-154.675 285,-144.483"/>
<polygon fill="midnightblue" stroke="midnightblue" points="285.544,-141.023 275.055,-142.516 284.186,-147.89 285.544,-141.023"/>
</g>
<!-- Node9 -->
<g id="node9" class="node"><title>Node9</title>
<polygon fill="none" stroke="#bfbfbf" points="1190.5,-0.5 1190.5,-19.5 1225.5,-19.5 1225.5,-0.5 1190.5,-0.5"/>
<text text-anchor="middle" x="1208" y="-7.5" font-family="Helvetica,sans-Serif" font-size="10.00">map</text>
</g>
<!-- Node8&#45;&gt;Node9 -->
<g id="edge8" class="edge"><title>Node8&#45;&gt;Node9</title>
<path fill="none" stroke="midnightblue" d="M580.073,-188.286C748.477,-188.195 1145.11,-183.621 1189,-143 1220.2,-114.121 1216.42,-58.7574 1211.78,-29.7612"/>
<polygon fill="midnightblue" stroke="midnightblue" points="1215.19,-28.9509 1209.97,-19.7315 1208.31,-30.1942 1215.19,-28.9509"/>
</g>
<!-- Node10 -->
<g id="node10" class="node"><title>Node10</title>
<polygon fill="none" stroke="#bfbfbf" points="565,-62 565,-81 617,-81 617,-62 565,-62"/>
<text text-anchor="middle" x="591" y="-69" font-family="Helvetica,sans-Serif" font-size="10.00">memory</text>
</g>
<!-- Node8&#45;&gt;Node10 -->
<g id="edge9" class="edge"><title>Node8&#45;&gt;Node10</title>
<path fill="none" stroke="midnightblue" d="M482.541,-179.499C455.828,-168.083 416.873,-146.5 434,-123 461.397,-85.4075 517.252,-75.1904 554.41,-72.7429"/>
<polygon fill="midnightblue" stroke="midnightblue" points="555.008,-76.2176 564.822,-72.2263 554.661,-69.2262 555.008,-76.2176"/>
</g>
<!-- Node11 -->
<g id="node11" class="node"><title>Node11</title>
<polygon fill="none" stroke="#bfbfbf" points="845.5,-0.5 845.5,-19.5 886.5,-19.5 886.5,-0.5 845.5,-0.5"/>
<text text-anchor="middle" x="866" y="-7.5" font-family="Helvetica,sans-Serif" font-size="10.00">string</text>
</g>
<!-- Node8&#45;&gt;Node11 -->
<g id="edge10" class="edge"><title>Node8&#45;&gt;Node11</title>
<path fill="none" stroke="midnightblue" d="M477.836,-179.425C448.902,-168.744 409.264,-148.722 425,-123 459.126,-67.2153 493.691,-75.8535 556,-56 654.819,-24.5132 778.444,-14.9658 835.076,-12.1439"/>
<polygon fill="midnightblue" stroke="midnightblue" points="835.338,-15.6356 845.166,-11.678 835.015,-8.64306 835.338,-15.6356"/>
</g>
<!-- Node12 -->
<g id="node12" class="node"><title>Node12</title>
<polygon fill="none" stroke="#bfbfbf" points="520.5,-0.5 520.5,-19.5 603.5,-19.5 603.5,-0.5 520.5,-0.5"/>
<text text-anchor="middle" x="562" y="-7.5" font-family="Helvetica,sans-Serif" font-size="10.00">unordered_map</text>
</g>
<!-- Node8&#45;&gt;Node12 -->
<g id="edge11" class="edge"><title>Node8&#45;&gt;Node12</title>
<path fill="none" stroke="midnightblue" d="M429.812,-182.153C404.104,-176.12 377.858,-164.614 362,-143 339.127,-111.824 337.845,-86.1936 362,-56 380.238,-33.2024 457.242,-21.1433 510.199,-15.422"/>
<polygon fill="midnightblue" stroke="midnightblue" points="510.859,-18.8724 520.446,-14.3609 510.138,-11.9097 510.859,-18.8724"/>
</g>
<!-- Node13 -->
<g id="node13" class="node"><title>Node13</title>
<polygon fill="none" stroke="#bfbfbf" points="442.5,-123.5 442.5,-142.5 567.5,-142.5 567.5,-123.5 442.5,-123.5"/>
<text text-anchor="middle" x="505" y="-130.5" font-family="Helvetica,sans-Serif" font-size="10.00">Framework/InitContext.h</text>
</g>
<!-- Node8&#45;&gt;Node13 -->
<g id="edge12" class="edge"><title>Node8&#45;&gt;Node13</title>
<path fill="none" stroke="midnightblue" d="M505,-179.083C505,-172.006 505,-161.861 505,-152.986"/>
<polygon fill="midnightblue" stroke="midnightblue" points="508.5,-152.751 505,-142.751 501.5,-152.751 508.5,-152.751"/>
</g>
<!-- Node14 -->
<g id="node14" class="node"><title>Node14</title>
<polygon fill="none" stroke="#bfbfbf" points="586,-123.5 586,-142.5 746,-142.5 746,-123.5 586,-123.5"/>
<text text-anchor="middle" x="666" y="-130.5" font-family="Helvetica,sans-Serif" font-size="10.00">Framework/ProcessingContext.h</text>
</g>
<!-- Node8&#45;&gt;Node14 -->
<g id="edge13" class="edge"><title>Node8&#45;&gt;Node14</title>
<path fill="none" stroke="midnightblue" d="M530.511,-179.444C557.596,-170.359 600.59,-155.939 630.869,-145.783"/>
<polygon fill="midnightblue" stroke="midnightblue" points="632.24,-149.015 640.608,-142.516 630.014,-142.378 632.24,-149.015"/>
</g>
<!-- Node15 -->
<g id="node15" class="node"><title>Node15</title>
<polygon fill="none" stroke="#bfbfbf" points="764.5,-123.5 764.5,-142.5 859.5,-142.5 859.5,-123.5 764.5,-123.5"/>
<text text-anchor="middle" x="812" y="-130.5" font-family="Helvetica,sans-Serif" font-size="10.00">CCDB/CcdbApi.h</text>
</g>
<!-- Node8&#45;&gt;Node15 -->
<g id="edge14" class="edge"><title>Node8&#45;&gt;Node15</title>
<path fill="none" stroke="midnightblue" d="M553.645,-179.444C608.113,-169.863 696.322,-154.347 754.248,-144.158"/>
<polygon fill="midnightblue" stroke="midnightblue" points="755.097,-147.563 764.34,-142.383 753.885,-140.669 755.097,-147.563"/>
</g>
<!-- Node16 -->
<g id="node16" class="node"><title>Node16</title>
<g id="a_node16"><a xlink:href="Activity_8h.html" target="_top" xlink:title="QualityControl/Activity.h">
<polygon fill="none" stroke="black" points="877.5,-123.5 877.5,-142.5 1000.5,-142.5 1000.5,-123.5 877.5,-123.5"/>
<text text-anchor="middle" x="939" y="-130.5" font-family="Helvetica,sans-Serif" font-size="10.00">QualityControl/Activity.h</text>
</a>
</g>
</g>
<!-- Node8&#45;&gt;Node16 -->
<g id="edge15" class="edge"><title>Node8&#45;&gt;Node16</title>
<path fill="none" stroke="midnightblue" d="M574.794,-179.474C645.858,-170.769 759.518,-156.784 867.108,-143.234"/>
<polygon fill="midnightblue" stroke="midnightblue" points="867.682,-146.69 877.166,-141.967 866.806,-139.745 867.682,-146.69"/>
</g>
<!-- Node17 -->
<g id="node17" class="node"><title>Node17</title>
<g id="a_node17"><a xlink:href="ObjectsManager_8h.html" target="_top" xlink:title="QualityControl/ObjectsManager.h">
<polygon fill="none" stroke="black" points="1018.5,-123.5 1018.5,-142.5 1179.5,-142.5 1179.5,-123.5 1018.5,-123.5"/>
<text text-anchor="middle" x="1099" y="-130.5" font-family="Helvetica,sans-Serif" font-size="10.00">QualityControl/ObjectsManager.h</text>
</a>
</g>
</g>
<!-- Node8&#45;&gt;Node17 -->
<g id="edge16" class="edge"><title>Node8&#45;&gt;Node17</title>
<path fill="none" stroke="midnightblue" d="M580.317,-181.57C676.907,-173.261 849.898,-158.168 1008.08,-143.174"/>
<polygon fill="midnightblue" stroke="midnightblue" points="1008.85,-146.616 1018.47,-142.186 1008.19,-139.648 1008.85,-146.616"/>
</g>
<!-- Node17&#45;&gt;Node10 -->
<g id="edge30" class="edge"><title>Node17&#45;&gt;Node10</title>
<path fill="none" stroke="midnightblue" d="M1026.22,-123.475C915.847,-110.548 710.228,-86.4647 627.18,-76.7376"/>
<polygon fill="midnightblue" stroke="midnightblue" points="627.553,-73.2574 617.214,-75.5703 626.738,-80.2099 627.553,-73.2574"/>
</g>
<!-- Node17&#45;&gt;Node11 -->
<g id="edge29" class="edge"><title>Node17&#45;&gt;Node11</title>
<path fill="none" stroke="midnightblue" d="M1080.91,-123.413C1062.29,-114.508 1032.46,-100.083 1007,-87 965.846,-65.8543 918.626,-40.0918 890.61,-24.6459"/>
<polygon fill="midnightblue" stroke="midnightblue" points="891.988,-21.4088 881.542,-19.6373 888.603,-27.5361 891.988,-21.4088"/>
</g>
<!-- Node18 -->
<g id="node18" class="node"><title>Node18</title>
<g id="a_node18"><a xlink:href="MonitorObject_8h.html" target="_top" xlink:title="QualityControl/MonitorObject.h">
<polygon fill="none" stroke="black" points="1015.5,-62 1015.5,-81 1166.5,-81 1166.5,-62 1015.5,-62"/>
<text text-anchor="middle" x="1091" y="-69" font-family="Helvetica,sans-Serif" font-size="10.00">QualityControl/MonitorObject.h</text>
</a>
</g>
</g>
<!-- Node17&#45;&gt;Node18 -->
<g id="edge17" class="edge"><title>Node17&#45;&gt;Node18</title>
<path fill="none" stroke="midnightblue" d="M1097.85,-123.475C1096.73,-115.08 1094.96,-101.981 1093.51,-91.1631"/>
<polygon fill="midnightblue" stroke="midnightblue" points="1096.95,-90.4535 1092.14,-81.0091 1090.01,-91.3863 1096.95,-90.4535"/>
</g>
<!-- Node22 -->
<g id="node22" class="node"><title>Node22</title>
<g id="a_node22"><a xlink:href="MonitorObjectCollection_8h.html" target="_top" xlink:title="QualityControl/MonitorObject\lCollection.h">
<polygon fill="none" stroke="black" points="1236.5,-56.5 1236.5,-86.5 1379.5,-86.5 1379.5,-56.5 1236.5,-56.5"/>
<text text-anchor="start" x="1244.5" y="-74.5" font-family="Helvetica,sans-Serif" font-size="10.00">QualityControl/MonitorObject</text>
<text text-anchor="middle" x="1308" y="-63.5" font-family="Helvetica,sans-Serif" font-size="10.00">Collection.h</text>
</a>
</g>
</g>
<!-- Node17&#45;&gt;Node22 -->
<g id="edge23" class="edge"><title>Node17&#45;&gt;Node22</title>
<path fill="none" stroke="midnightblue" d="M1128.94,-123.475C1160.16,-114.588 1209.9,-100.429 1249.04,-89.2859"/>
<polygon fill="midnightblue" stroke="midnightblue" points="1250.08,-92.6274 1258.74,-86.523 1248.17,-85.8949 1250.08,-92.6274"/>
</g>
<!-- Node25 -->
<g id="node25" class="node"><title>Node25</title>
<g id="a_node25"><a xlink:href="TaskConfig_8h.html" target="_top" xlink:title="QualityControl/TaskConfig.h">
<polygon fill="none" stroke="black" points="796,-62 796,-81 936,-81 936,-62 796,-62"/>
<text text-anchor="middle" x="866" y="-69" font-family="Helvetica,sans-Serif" font-size="10.00">QualityControl/TaskConfig.h</text>
</a>
</g>
</g>
<!-- Node17&#45;&gt;Node25 -->
<g id="edge26" class="edge"><title>Node17&#45;&gt;Node25</title>
<path fill="none" stroke="midnightblue" d="M1065.62,-123.475C1024.44,-112.959 954.35,-95.0615 909.131,-83.5142"/>
<polygon fill="midnightblue" stroke="midnightblue" points="909.876,-80.0922 899.321,-81.0091 908.144,-86.8746 909.876,-80.0922"/>
</g>
<!-- Node18&#45;&gt;Node9 -->
<g id="edge19" class="edge"><title>Node18&#45;&gt;Node9</title>
<path fill="none" stroke="midnightblue" d="M1107.76,-61.9751C1127.22,-52.078 1159.55,-35.6416 1182.21,-24.1151"/>
<polygon fill="midnightblue" stroke="midnightblue" points="1183.94,-27.1619 1191.27,-19.5091 1180.77,-20.9224 1183.94,-27.1619"/>
</g>
<!-- Node18&#45;&gt;Node11 -->
<g id="edge18" class="edge"><title>Node18&#45;&gt;Node11</title>
<path fill="none" stroke="midnightblue" d="M1056.37,-61.9556C1019.29,-52.7114 958.485,-37.2882 896.57,-20.0774"/>
<polygon fill="midnightblue" stroke="midnightblue" points="897.2,-16.6194 886.627,-17.3005 895.317,-23.3614 897.2,-16.6194"/>
</g>
<!-- Node19 -->
<g id="node19" class="node"><title>Node19</title>
<polygon fill="none" stroke="#bfbfbf" points="1116,-0.5 1116,-19.5 1172,-19.5 1172,-0.5 1116,-0.5"/>
<text text-anchor="middle" x="1144" y="-7.5" font-family="Helvetica,sans-Serif" font-size="10.00">Rtypes.h</text>
</g>
<!-- Node18&#45;&gt;Node19 -->
<g id="edge20" class="edge"><title>Node18&#45;&gt;Node19</title>
<path fill="none" stroke="midnightblue" d="M1098.59,-61.9751C1106.7,-52.8733 1119.73,-38.241 1129.76,-26.983"/>
<polygon fill="midnightblue" stroke="midnightblue" points="1132.38,-29.3043 1136.42,-19.5091 1127.16,-24.6483 1132.38,-29.3043"/>
</g>
<!-- Node20 -->
<g id="node20" class="node"><title>Node20</title>
<polygon fill="none" stroke="#bfbfbf" points="904.5,-0.5 904.5,-19.5 963.5,-19.5 963.5,-0.5 904.5,-0.5"/>
<text text-anchor="middle" x="934" y="-7.5" font-family="Helvetica,sans-Serif" font-size="10.00">TObject.h</text>
</g>
<!-- Node18&#45;&gt;Node20 -->
<g id="edge21" class="edge"><title>Node18&#45;&gt;Node20</title>
<path fill="none" stroke="midnightblue" d="M1068.51,-61.9751C1041.69,-51.8129 996.685,-34.7564 966.191,-23.1996"/>
<polygon fill="midnightblue" stroke="midnightblue" points="967.044,-19.7801 956.453,-19.5091 964.563,-26.3258 967.044,-19.7801"/>
</g>
<!-- Node21 -->
<g id="node21" class="node"><title>Node21</title>
<polygon fill="none" stroke="#bfbfbf" points="982,-0.5 982,-19.5 1098,-19.5 1098,-0.5 982,-0.5"/>
<text text-anchor="middle" x="1040" y="-7.5" font-family="Helvetica,sans-Serif" font-size="10.00">Common/Exceptions.h</text>
</g>
<!-- Node18&#45;&gt;Node21 -->
<g id="edge22" class="edge"><title>Node18&#45;&gt;Node21</title>
<path fill="none" stroke="midnightblue" d="M1083.69,-61.9751C1075.97,-52.9617 1063.59,-38.5246 1053.98,-27.3118"/>
<polygon fill="midnightblue" stroke="midnightblue" points="1056.46,-24.8239 1047.29,-19.5091 1051.14,-29.3795 1056.46,-24.8239"/>
</g>
<!-- Node23 -->
<g id="node23" class="node"><title>Node23</title>
<polygon fill="none" stroke="#bfbfbf" points="1390.5,-0.5 1390.5,-19.5 1459.5,-19.5 1459.5,-0.5 1390.5,-0.5"/>
<text text-anchor="middle" x="1425" y="-7.5" font-family="Helvetica,sans-Serif" font-size="10.00">TObjArray.h</text>
</g>
<!-- Node22&#45;&gt;Node23 -->
<g id="edge24" class="edge"><title>Node22&#45;&gt;Node23</title>
<path fill="none" stroke="midnightblue" d="M1335.73,-56.3993C1354.83,-46.6837 1380.06,-33.8551 1398.82,-24.3137"/>
<polygon fill="midnightblue" stroke="midnightblue" points="1400.65,-27.3106 1407.98,-19.6578 1397.48,-21.071 1400.65,-27.3106"/>
</g>
<!-- Node24 -->
<g id="node24" class="node"><title>Node24</title>
<polygon fill="none" stroke="#bfbfbf" points="1244,-0.5 1244,-19.5 1372,-19.5 1372,-0.5 1244,-0.5"/>
<text text-anchor="middle" x="1308" y="-7.5" font-family="Helvetica,sans-Serif" font-size="10.00">Mergers/MergeInterface.h</text>
</g>
<!-- Node22&#45;&gt;Node24 -->
<g id="edge25" class="edge"><title>Node22&#45;&gt;Node24</title>
<path fill="none" stroke="midnightblue" d="M1308,-56.3993C1308,-48.4664 1308,-38.458 1308,-29.8583"/>
<polygon fill="midnightblue" stroke="midnightblue" points="1311.5,-29.6577 1308,-19.6578 1304.5,-29.6578 1311.5,-29.6577"/>
</g>
<!-- Node25&#45;&gt;Node11 -->
<g id="edge27" class="edge"><title>Node25&#45;&gt;Node11</title>
<path fill="none" stroke="midnightblue" d="M866,-61.9751C866,-53.5803 866,-40.4806 866,-29.6631"/>
<polygon fill="midnightblue" stroke="midnightblue" points="869.5,-29.5091 866,-19.5091 862.5,-29.5091 869.5,-29.5091"/>
</g>
<!-- Node25&#45;&gt;Node12 -->
<g id="edge28" class="edge"><title>Node25&#45;&gt;Node12</title>
<path fill="none" stroke="midnightblue" d="M822.444,-61.9751C767.308,-51.1836 672.448,-32.6173 613.699,-21.1186"/>
<polygon fill="midnightblue" stroke="midnightblue" points="614.009,-17.6131 603.523,-19.1271 612.665,-24.4828 614.009,-17.6131"/>
</g>
</g>
</svg>
