<?xml version="1.0" encoding="UTF-8" standalone="no"?>
<!DOCTYPE svg PUBLIC "-//W3C//DTD SVG 1.1//EN"
 "http://www.w3.org/Graphics/SVG/1.1/DTD/svg11.dtd">
<!-- Generated by graphviz version 2.38.0 (20140413.2041)
 -->
<!-- Title: Framework/src/RepositoryBenchmark.h Pages: 1 -->
<svg width="304pt" height="106pt"
 viewBox="0.00 0.00 304.00 106.00" xmlns="http://www.w3.org/2000/svg" xmlns:xlink="http://www.w3.org/1999/xlink">
<g id="graph0" class="graph" transform="scale(1 1) rotate(0) translate(4 102)">
<title>Framework/src/RepositoryBenchmark.h</title>
<!-- Node1 -->
<g id="node1" class="node"><title>Node1</title>
<polygon fill="#bfbfbf" stroke="black" points="78,-67.5 78,-97.5 210,-97.5 210,-67.5 78,-67.5"/>
<text text-anchor="start" x="86" y="-85.5" font-family="Helvetica,sans-Serif" font-size="10.00">Framework/src/Repository</text>
<text text-anchor="middle" x="144" y="-74.5" font-family="Helvetica,sans-Serif" font-size="10.00">Benchmark.h</text>
</g>
<!-- Node2 -->
<g id="node2" class="node"><title>Node2</title>
<g id="a_node2"><a xlink:href="RepositoryBenchmark_8cxx.html" target="_top" xlink:title="Framework/src/Repository\lBenchmark.cxx">
<polygon fill="none" stroke="black" points="0,-0.5 0,-30.5 132,-30.5 132,-0.5 0,-0.5"/>
<text text-anchor="start" x="8" y="-18.5" font-family="Helvetica,sans-Serif" font-size="10.00">Framework/src/Repository</text>
<text text-anchor="middle" x="66" y="-7.5" font-family="Helvetica,sans-Serif" font-size="10.00">Benchmark.cxx</text>
</a>
</g>
</g>
<!-- Node1&#45;&gt;Node2 -->
<g id="edge1" class="edge"><title>Node1&#45;&gt;Node2</title>
<path fill="none" stroke="midnightblue" d="M119.26,-60.8832C107.407,-51.0054 93.5152,-39.4293 82.8918,-30.5765"/>
<polygon fill="midnightblue" stroke="midnightblue" points="117.152,-63.6829 127.075,-67.396 121.634,-58.3053 117.152,-63.6829"/>
</g>
<!-- Node3 -->
<g id="node3" class="node"><title>Node3</title>
<g id="a_node3"><a xlink:href="runRepositoryBenchmark_8cxx.html" target="_top" xlink:title="Framework/src/runRepository\lBenchmark.cxx">
<polygon fill="none" stroke="black" points="150,-0.5 150,-30.5 296,-30.5 296,-0.5 150,-0.5"/>
<text text-anchor="start" x="158" y="-18.5" font-family="Helvetica,sans-Serif" font-size="10.00">Framework/src/runRepository</text>
<text text-anchor="middle" x="223" y="-7.5" font-family="Helvetica,sans-Serif" font-size="10.00">Benchmark.cxx</text>
</a>
</g>
</g>
<!-- Node1&#45;&gt;Node3 -->
<g id="edge2" class="edge"><title>Node1&#45;&gt;Node3</title>
<path fill="none" stroke="midnightblue" d="M169.057,-60.8832C181.063,-51.0054 195.132,-39.4293 205.892,-30.5765"/>
<polygon fill="midnightblue" stroke="midnightblue" points="166.64,-58.3395 161.142,-67.396 171.088,-63.745 166.64,-58.3395"/>
</g>
</g>
</svg>
