<?xml version="1.0" encoding="UTF-8" standalone="no"?>
<!DOCTYPE svg PUBLIC "-//W3C//DTD SVG 1.1//EN"
 "http://www.w3.org/Graphics/SVG/1.1/DTD/svg11.dtd">
<!-- Generated by graphviz version 2.38.0 (20140413.2041)
 -->
<!-- Title: Framework/include/QualityControl/RepoPathUtils.h Pages: 1 -->
<svg width="503pt" height="207pt"
 viewBox="0.00 0.00 502.50 207.00" xmlns="http://www.w3.org/2000/svg" xmlns:xlink="http://www.w3.org/1999/xlink">
<g id="graph0" class="graph" transform="scale(1 1) rotate(0) translate(4 203)">
<title>Framework/include/QualityControl/RepoPathUtils.h</title>
<!-- Node1 -->
<g id="node1" class="node"><title>Node1</title>
<polygon fill="#bfbfbf" stroke="black" points="124,-168.5 124,-198.5 257,-198.5 257,-168.5 124,-168.5"/>
<text text-anchor="start" x="132" y="-186.5" font-family="Helvetica,sans-Serif" font-size="10.00">Framework/include/Quality</text>
<text text-anchor="middle" x="190.5" y="-175.5" font-family="Helvetica,sans-Serif" font-size="10.00">Control/RepoPathUtils.h</text>
</g>
<!-- Node2 -->
<g id="node2" class="node"><title>Node2</title>
<polygon fill="none" stroke="#bfbfbf" points="0,-0.5 0,-19.5 41,-19.5 41,-0.5 0,-0.5"/>
<text text-anchor="middle" x="20.5" y="-7.5" font-family="Helvetica,sans-Serif" font-size="10.00">string</text>
</g>
<!-- Node1&#45;&gt;Node2 -->
<g id="edge1" class="edge"><title>Node1&#45;&gt;Node2</title>
<path fill="none" stroke="midnightblue" d="M146.482,-168.367C106.341,-152.828 49.5912,-123.543 24.5,-76 16.9967,-61.7827 16.5944,-43.3066 17.7197,-29.6885"/>
<polygon fill="midnightblue" stroke="midnightblue" points="21.2151,-29.9312 18.902,-19.592 14.2626,-29.117 21.2151,-29.9312"/>
</g>
<!-- Node3 -->
<g id="node3" class="node"><title>Node3</title>
<polygon fill="none" stroke="#bfbfbf" points="450.5,-112.5 450.5,-131.5 494.5,-131.5 494.5,-112.5 450.5,-112.5"/>
<text text-anchor="middle" x="472.5" y="-119.5" font-family="Helvetica,sans-Serif" font-size="10.00">vector</text>
</g>
<!-- Node1&#45;&gt;Node3 -->
<g id="edge2" class="edge"><title>Node1&#45;&gt;Node3</title>
<path fill="none" stroke="midnightblue" d="M257.16,-170.667C305.557,-161.713 372.785,-148.529 440.255,-132.153"/>
<polygon fill="midnightblue" stroke="midnightblue" points="441.33,-135.494 450.209,-129.714 439.664,-128.695 441.33,-135.494"/>
</g>
<!-- Node4 -->
<g id="node4" class="node"><title>Node4</title>
<polygon fill="none" stroke="#bfbfbf" points="48.5,-56.5 48.5,-75.5 164.5,-75.5 164.5,-56.5 48.5,-56.5"/>
<text text-anchor="middle" x="106.5" y="-63.5" font-family="Helvetica,sans-Serif" font-size="10.00">Common/Exceptions.h</text>
</g>
<!-- Node1&#45;&gt;Node4 -->
<g id="edge3" class="edge"><title>Node1&#45;&gt;Node4</title>
<path fill="none" stroke="midnightblue" d="M149.098,-168.401C132.466,-160.463 115.008,-148.709 105.5,-132 97.4839,-117.913 98.7761,-99.1762 101.456,-85.4391"/>
<polygon fill="midnightblue" stroke="midnightblue" points="104.869,-86.2143 103.751,-75.6786 98.0548,-84.6119 104.869,-86.2143"/>
</g>
<!-- Node5 -->
<g id="node5" class="node"><title>Node5</title>
<g id="a_node5"><a xlink:href="MonitorObject_8h.html" target="_top" xlink:title="QualityControl/MonitorObject.h">
<polygon fill="none" stroke="black" points="115,-112.5 115,-131.5 266,-131.5 266,-112.5 115,-112.5"/>
<text text-anchor="middle" x="190.5" y="-119.5" font-family="Helvetica,sans-Serif" font-size="10.00">QualityControl/MonitorObject.h</text>
</a>
</g>
</g>
<!-- Node1&#45;&gt;Node5 -->
<g id="edge4" class="edge"><title>Node1&#45;&gt;Node5</title>
<path fill="none" stroke="midnightblue" d="M190.5,-168.399C190.5,-160.466 190.5,-150.458 190.5,-141.858"/>
<polygon fill="midnightblue" stroke="midnightblue" points="194,-141.658 190.5,-131.658 187,-141.658 194,-141.658"/>
</g>
<!-- Node9 -->
<g id="node9" class="node"><title>Node9</title>
<g id="a_node9"><a xlink:href="QualityObject_8h_source.html" target="_top" xlink:title="QualityControl/QualityObject.h">
<polygon fill="none" stroke="black" points="284,-112.5 284,-131.5 433,-131.5 433,-112.5 284,-112.5"/>
<text text-anchor="middle" x="358.5" y="-119.5" font-family="Helvetica,sans-Serif" font-size="10.00">QualityControl/QualityObject.h</text>
</a>
</g>
</g>
<!-- Node1&#45;&gt;Node9 -->
<g id="edge10" class="edge"><title>Node1&#45;&gt;Node9</title>
<path fill="none" stroke="midnightblue" d="M230.314,-168.399C259.005,-158.238 297.31,-144.672 324.555,-135.022"/>
<polygon fill="midnightblue" stroke="midnightblue" points="325.797,-138.296 334.055,-131.658 323.46,-131.697 325.797,-138.296"/>
</g>
<!-- Node5&#45;&gt;Node2 -->
<g id="edge5" class="edge"><title>Node5&#45;&gt;Node2</title>
<path fill="none" stroke="midnightblue" d="M114.845,-113.487C87.9707,-107.27 59.467,-96.0721 39.5,-76 27.4617,-63.8983 22.9669,-44.6163 21.3312,-30.1909"/>
<polygon fill="midnightblue" stroke="midnightblue" points="24.7961,-29.5968 20.543,-19.8932 17.8165,-30.1312 24.7961,-29.5968"/>
</g>
<!-- Node5&#45;&gt;Node4 -->
<g id="edge9" class="edge"><title>Node5&#45;&gt;Node4</title>
<path fill="none" stroke="midnightblue" d="M177.004,-112.324C163.9,-103.9 143.788,-90.9709 128.393,-81.0741"/>
<polygon fill="midnightblue" stroke="midnightblue" points="130.267,-78.118 119.963,-75.6545 126.482,-84.0063 130.267,-78.118"/>
</g>
<!-- Node6 -->
<g id="node6" class="node"><title>Node6</title>
<polygon fill="none" stroke="#bfbfbf" points="430,-0.5 430,-19.5 465,-19.5 465,-0.5 430,-0.5"/>
<text text-anchor="middle" x="447.5" y="-7.5" font-family="Helvetica,sans-Serif" font-size="10.00">map</text>
</g>
<!-- Node5&#45;&gt;Node6 -->
<g id="edge6" class="edge"><title>Node5&#45;&gt;Node6</title>
<path fill="none" stroke="midnightblue" d="M253.276,-112.48C319.03,-103.024 414.568,-87.5727 427.5,-76 440.541,-64.3302 445.185,-44.3845 446.784,-29.6579"/>
<polygon fill="midnightblue" stroke="midnightblue" points="450.279,-29.8618 447.502,-19.6372 443.297,-29.3615 450.279,-29.8618"/>
</g>
<!-- Node7 -->
<g id="node7" class="node"><title>Node7</title>
<polygon fill="none" stroke="#bfbfbf" points="247.5,-0.5 247.5,-19.5 303.5,-19.5 303.5,-0.5 247.5,-0.5"/>
<text text-anchor="middle" x="275.5" y="-7.5" font-family="Helvetica,sans-Serif" font-size="10.00">Rtypes.h</text>
</g>
<!-- Node5&#45;&gt;Node7 -->
<g id="edge7" class="edge"><title>Node5&#45;&gt;Node7</title>
<path fill="none" stroke="midnightblue" d="M191.539,-112.201C193.482,-98.897 198.693,-73.3732 211.5,-56 221.098,-42.9792 235.617,-32.3343 248.401,-24.6727"/>
<polygon fill="midnightblue" stroke="midnightblue" points="250.33,-27.6025 257.308,-19.6298 246.881,-21.5111 250.33,-27.6025"/>
</g>
<!-- Node8 -->
<g id="node8" class="node"><title>Node8</title>
<polygon fill="none" stroke="#bfbfbf" points="221,-56.5 221,-75.5 280,-75.5 280,-56.5 221,-56.5"/>
<text text-anchor="middle" x="250.5" y="-63.5" font-family="Helvetica,sans-Serif" font-size="10.00">TObject.h</text>
</g>
<!-- Node5&#45;&gt;Node8 -->
<g id="edge8" class="edge"><title>Node5&#45;&gt;Node8</title>
<path fill="none" stroke="midnightblue" d="M200.14,-112.324C209.01,-104.341 222.375,-92.3128 233.108,-82.6529"/>
<polygon fill="midnightblue" stroke="midnightblue" points="235.593,-85.1251 240.685,-75.8339 230.91,-79.922 235.593,-85.1251"/>
</g>
<!-- Node9&#45;&gt;Node4 -->
<g id="edge13" class="edge"><title>Node9&#45;&gt;Node4</title>
<path fill="none" stroke="midnightblue" d="M318.57,-112.444C274.609,-103.023 203.873,-87.8656 156.317,-77.6752"/>
<polygon fill="midnightblue" stroke="midnightblue" points="156.755,-74.1895 146.243,-75.5164 155.288,-81.0341 156.755,-74.1895"/>
</g>
<!-- Node9&#45;&gt;Node6 -->
<g id="edge11" class="edge"><title>Node9&#45;&gt;Node6</title>
<path fill="none" stroke="midnightblue" d="M405.833,-112.422C426.602,-106.051 449.052,-95.0229 461.5,-76 470.757,-61.8538 464.841,-42.6201 458.082,-28.7496"/>
<polygon fill="midnightblue" stroke="midnightblue" points="461.05,-26.8804 453.217,-19.747 454.892,-30.2085 461.05,-26.8804"/>
</g>
<!-- Node9&#45;&gt;Node8 -->
<g id="edge12" class="edge"><title>Node9&#45;&gt;Node8</title>
<path fill="none" stroke="midnightblue" d="M341.148,-112.324C323.828,-103.664 296.985,-90.2424 276.998,-80.249"/>
<polygon fill="midnightblue" stroke="midnightblue" points="278.319,-76.9962 267.809,-75.6545 275.188,-83.2572 278.319,-76.9962"/>
</g>
<!-- Node10 -->
<g id="node10" class="node"><title>Node10</title>
<g id="a_node10"><a xlink:href="Quality_8h.html" target="_top" xlink:title="QualityControl/Quality.h">
<polygon fill="none" stroke="black" points="298,-56.5 298,-75.5 419,-75.5 419,-56.5 298,-56.5"/>
<text text-anchor="middle" x="358.5" y="-63.5" font-family="Helvetica,sans-Serif" font-size="10.00">QualityControl/Quality.h</text>
</a>
</g>
</g>
<!-- Node9&#45;&gt;Node10 -->
<g id="edge14" class="edge"><title>Node9&#45;&gt;Node10</title>
<path fill="none" stroke="midnightblue" d="M358.5,-112.083C358.5,-105.006 358.5,-94.8611 358.5,-85.9865"/>
<polygon fill="midnightblue" stroke="midnightblue" points="362,-85.751 358.5,-75.7511 355,-85.7511 362,-85.751"/>
</g>
<!-- Node10&#45;&gt;Node2 -->
<g id="edge16" class="edge"><title>Node10&#45;&gt;Node2</title>
<path fill="none" stroke="midnightblue" d="M304.943,-56.4435C233.27,-44.9929 108.533,-25.0645 51.0768,-15.8851"/>
<polygon fill="midnightblue" stroke="midnightblue" points="51.5863,-12.4221 41.1593,-14.3006 50.4819,-19.3345 51.5863,-12.4221"/>
</g>
<!-- Node10&#45;&gt;Node6 -->
<g id="edge17" class="edge"><title>Node10&#45;&gt;Node6</title>
<path fill="none" stroke="midnightblue" d="M372.799,-56.324C386.683,-47.9002 407.992,-34.9709 424.304,-25.0741"/>
<polygon fill="midnightblue" stroke="midnightblue" points="426.502,-27.8341 433.236,-19.6545 422.871,-21.8495 426.502,-27.8341"/>
</g>
<!-- Node10&#45;&gt;Node7 -->
<g id="edge15" class="edge"><title>Node10&#45;&gt;Node7</title>
<path fill="none" stroke="midnightblue" d="M345.165,-56.324C332.338,-47.979 312.715,-35.2122 297.56,-25.3524"/>
<polygon fill="midnightblue" stroke="midnightblue" points="299.093,-22.1742 288.802,-19.6545 295.276,-28.0417 299.093,-22.1742"/>
</g>
</g>
</svg>
