<?xml version="1.0" encoding="UTF-8" standalone="no"?>
<!DOCTYPE svg PUBLIC "-//W3C//DTD SVG 1.1//EN"
 "http://www.w3.org/Graphics/SVG/1.1/DTD/svg11.dtd">
<!-- Generated by graphviz version 2.38.0 (20140413.2041)
 -->
<!-- Title: Framework/src/RepositoryBenchmark.h Pages: 1 -->
<!--zoomable 263 -->
<svg id="main" version="1.1" xmlns="http://www.w3.org/2000/svg" xmlns:xlink="http://www.w3.org/1999/xlink" xml:space="preserve" onload="init(evt)">
<style type="text/css"><![CDATA[
.edge:hover path { stroke: red; }
.edge:hover polygon { stroke: red; fill: red; }
]]></style>
<script type="text/javascript"><![CDATA[
var edges = document.getElementsByTagName('g');
if (edges && edges.length) {
  for (var i=0;i<edges.length;i++) {
    if (edges[i].id.substr(0,4)=='edge') {
      edges[i].setAttribute('class','edge');
    }
  }
}
]]></script>
        <defs>
                <circle id="rim" cx="0" cy="0" r="7"/>
                <circle id="rim2" cx="0" cy="0" r="3.5"/>
                <g id="zoomPlus">
                        <use xlink:href="#rim" fill="#404040">
                                <set attributeName="fill" to="#808080" begin="zoomplus.mouseover" end="zoomplus.mouseout"/>
                        </use>
                        <path d="M-4,0h8M0,-4v8" fill="none" stroke="white" stroke-width="1.5" pointer-events="none"/>
                </g>
                <g id="zoomMin">
                        <use xlink:href="#rim" fill="#404040">
                                <set attributeName="fill" to="#808080" begin="zoomminus.mouseover" end="zoomminus.mouseout"/>
                        </use>
                        <path d="M-4,0h8" fill="none" stroke="white" stroke-width="1.5" pointer-events="none"/>
                </g>
                <g id="dirArrow">
                        <path fill="none" stroke="white" stroke-width="1.5" d="M0,-3.0v7 M-2.5,-0.5L0,-3.0L2.5,-0.5"/>
                </g>
               <g id="resetDef">
                       <use xlink:href="#rim2" fill="#404040">
                               <set attributeName="fill" to="#808080" begin="reset.mouseover" end="reset.mouseout"/>
                       </use>
               </g>
        </defs>

<script type="text/javascript">
var viewWidth = 1329;
var viewHeight = 263;
var sectionId = 'dynsection-0';
</script>
<script xlink:href="svgpan.js"/>
<svg id="graph" class="graph">
<g id="viewport">
<title>Framework/src/RepositoryBenchmark.h</title>
<!-- Node1 -->
<g id="node1" class="node"><title>Node1</title>
<polygon fill="#bfbfbf" stroke="black" points="902.5,-224.5 902.5,-254.5 1034.5,-254.5 1034.5,-224.5 902.5,-224.5"/>
<text text-anchor="start" x="910.5" y="-242.5" font-family="Helvetica,sans-Serif" font-size="10.00">Framework/src/Repository</text>
<text text-anchor="middle" x="968.5" y="-231.5" font-family="Helvetica,sans-Serif" font-size="10.00">Benchmark.h</text>
</g>
<!-- Node2 -->
<g id="node2" class="node"><title>Node2</title>
<g id="a_node2"><a xlink:href="DatabaseInterface_8h.html" target="_top" xlink:title="QualityControl/DatabaseInterface.h">
<polygon fill="none" stroke="black" points="475.5,-168.5 475.5,-187.5 645.5,-187.5 645.5,-168.5 475.5,-168.5"/>
<text text-anchor="middle" x="560.5" y="-175.5" font-family="Helvetica,sans-Serif" font-size="10.00">QualityControl/DatabaseInterface.h</text>
</a>
</g>
</g>
<!-- Node1&#45;&gt;Node2 -->
<g id="edge1" class="edge"><title>Node1&#45;&gt;Node2</title>
<path fill="none" stroke="midnightblue" d="M902.494,-228.874C827.273,-217.904 704.93,-200.063 628.776,-188.957"/>
<polygon fill="midnightblue" stroke="midnightblue" points="629.207,-185.483 618.806,-187.503 628.196,-192.409 629.207,-185.483"/>
</g>
<!-- Node3 -->
<g id="node3" class="node"><title>Node3</title>
<polygon fill="none" stroke="#bfbfbf" points="578,-0.5 578,-19.5 619,-19.5 619,-0.5 578,-0.5"/>
<text text-anchor="middle" x="598.5" y="-7.5" font-family="Helvetica,sans-Serif" font-size="10.00">string</text>
</g>
<!-- Node1&#45;&gt;Node3 -->
<g id="edge26" class="edge"><title>Node1&#45;&gt;Node3</title>
<path fill="none" stroke="midnightblue" d="M902.357,-231.053C869.006,-224.403 829.754,-211.817 801.5,-188 772.626,-163.66 789.036,-139.822 763.5,-112 724.784,-69.8182 664.464,-39.028 628.481,-23.1627"/>
<polygon fill="midnightblue" stroke="midnightblue" points="629.584,-19.8271 619.015,-19.0866 626.815,-26.2563 629.584,-19.8271"/>
</g>
<!-- Node15 -->
<g id="node15" class="node"><title>Node15</title>
<polygon fill="none" stroke="#bfbfbf" points="810.5,-168.5 810.5,-187.5 928.5,-187.5 928.5,-168.5 810.5,-168.5"/>
<text text-anchor="middle" x="869.5" y="-175.5" font-family="Helvetica,sans-Serif" font-size="10.00">fairmq/FairMQDevice.h</text>
</g>
<!-- Node1&#45;&gt;Node15 -->
<g id="edge21" class="edge"><title>Node1&#45;&gt;Node15</title>
<path fill="none" stroke="midnightblue" d="M945.038,-224.399C929.169,-214.862 908.309,-202.325 892.532,-192.842"/>
<polygon fill="midnightblue" stroke="midnightblue" points="894.279,-189.809 883.905,-187.658 890.674,-195.809 894.279,-189.809"/>
</g>
<!-- Node16 -->
<g id="node16" class="node"><title>Node16</title>
<polygon fill="none" stroke="#bfbfbf" points="946.5,-168.5 946.5,-187.5 990.5,-187.5 990.5,-168.5 946.5,-168.5"/>
<text text-anchor="middle" x="968.5" y="-175.5" font-family="Helvetica,sans-Serif" font-size="10.00">TH1.h</text>
</g>
<!-- Node1&#45;&gt;Node16 -->
<g id="edge22" class="edge"><title>Node1&#45;&gt;Node16</title>
<path fill="none" stroke="midnightblue" d="M968.5,-224.399C968.5,-216.466 968.5,-206.458 968.5,-197.858"/>
<polygon fill="midnightblue" stroke="midnightblue" points="972,-197.658 968.5,-187.658 965,-197.658 972,-197.658"/>
</g>
<!-- Node17 -->
<g id="node17" class="node"><title>Node17</title>
<polygon fill="none" stroke="#bfbfbf" points="1009,-168.5 1009,-187.5 1160,-187.5 1160,-168.5 1009,-168.5"/>
<text text-anchor="middle" x="1084.5" y="-175.5" font-family="Helvetica,sans-Serif" font-size="10.00">Monitoring/MonitoringFactory.h</text>
</g>
<!-- Node1&#45;&gt;Node17 -->
<g id="edge23" class="edge"><title>Node1&#45;&gt;Node17</title>
<path fill="none" stroke="midnightblue" d="M995.99,-224.399C1014.93,-214.684 1039.94,-201.855 1058.54,-192.314"/>
<polygon fill="midnightblue" stroke="midnightblue" points="1060.32,-195.336 1067.62,-187.658 1057.13,-189.108 1060.32,-195.336"/>
</g>
<!-- Node18 -->
<g id="node18" class="node"><title>Node18</title>
<polygon fill="none" stroke="#bfbfbf" points="1178.5,-168.5 1178.5,-187.5 1258.5,-187.5 1258.5,-168.5 1178.5,-168.5"/>
<text text-anchor="middle" x="1218.5" y="-175.5" font-family="Helvetica,sans-Serif" font-size="10.00">boost/asio.hpp</text>
</g>
<!-- Node1&#45;&gt;Node18 -->
<g id="edge24" class="edge"><title>Node1&#45;&gt;Node18</title>
<path fill="none" stroke="midnightblue" d="M1027.43,-224.475C1071.88,-213.896 1131.97,-199.595 1172.81,-189.874"/>
<polygon fill="midnightblue" stroke="midnightblue" points="1173.84,-193.227 1182.76,-187.506 1172.22,-186.417 1173.84,-193.227"/>
</g>
<!-- Node19 -->
<g id="node19" class="node"><title>Node19</title>
<polygon fill="none" stroke="#bfbfbf" points="1276.5,-168.5 1276.5,-187.5 1320.5,-187.5 1320.5,-168.5 1276.5,-168.5"/>
<text text-anchor="middle" x="1298.5" y="-175.5" font-family="Helvetica,sans-Serif" font-size="10.00">thread</text>
</g>
<!-- Node1&#45;&gt;Node19 -->
<g id="edge25" class="edge"><title>Node1&#45;&gt;Node19</title>
<path fill="none" stroke="midnightblue" d="M1034.55,-229.577C1093.16,-221.151 1181.25,-207.251 1266.4,-188.043"/>
<polygon fill="midnightblue" stroke="midnightblue" points="1267.26,-191.437 1276.23,-185.799 1265.7,-184.612 1267.26,-191.437"/>
</g>
<!-- Node2&#45;&gt;Node3 -->
<g id="edge2" class="edge"><title>Node2&#45;&gt;Node3</title>
<path fill="none" stroke="midnightblue" d="M569.385,-168.294C577.341,-159.853 588.502,-146.263 593.5,-132 605.624,-97.3988 603.551,-53.7919 600.996,-29.5036"/>
<polygon fill="midnightblue" stroke="midnightblue" points="604.466,-29.0425 599.801,-19.5301 597.516,-29.8755 604.466,-29.0425"/>
</g>
<!-- Node4 -->
<g id="node4" class="node"><title>Node4</title>
<polygon fill="none" stroke="#bfbfbf" points="640.5,-112.5 640.5,-131.5 692.5,-131.5 692.5,-112.5 640.5,-112.5"/>
<text text-anchor="middle" x="666.5" y="-119.5" font-family="Helvetica,sans-Serif" font-size="10.00">memory</text>
</g>
<!-- Node2&#45;&gt;Node4 -->
<g id="edge3" class="edge"><title>Node2&#45;&gt;Node4</title>
<path fill="none" stroke="midnightblue" d="M577.531,-168.324C594.53,-159.664 620.876,-146.242 640.493,-136.249"/>
<polygon fill="midnightblue" stroke="midnightblue" points="642.19,-139.312 649.512,-131.655 639.012,-133.075 642.19,-139.312"/>
</g>
<!-- Node5 -->
<g id="node5" class="node"><title>Node5</title>
<polygon fill="none" stroke="#bfbfbf" points="710.5,-112.5 710.5,-131.5 754.5,-131.5 754.5,-112.5 710.5,-112.5"/>
<text text-anchor="middle" x="732.5" y="-119.5" font-family="Helvetica,sans-Serif" font-size="10.00">vector</text>
</g>
<!-- Node2&#45;&gt;Node5 -->
<g id="edge4" class="edge"><title>Node2&#45;&gt;Node5</title>
<path fill="none" stroke="midnightblue" d="M587.754,-168.444C618.354,-158.837 667.961,-143.262 700.41,-133.075"/>
<polygon fill="midnightblue" stroke="midnightblue" points="701.804,-136.306 710.296,-129.971 699.707,-129.627 701.804,-136.306"/>
</g>
<!-- Node6 -->
<g id="node6" class="node"><title>Node6</title>
<polygon fill="none" stroke="#bfbfbf" points="0,-112.5 0,-131.5 83,-131.5 83,-112.5 0,-112.5"/>
<text text-anchor="middle" x="41.5" y="-119.5" font-family="Helvetica,sans-Serif" font-size="10.00">unordered_map</text>
</g>
<!-- Node2&#45;&gt;Node6 -->
<g id="edge5" class="edge"><title>Node2&#45;&gt;Node6</title>
<path fill="none" stroke="midnightblue" d="M475.295,-170.836C383.522,-163.736 233.007,-150.761 93.2496,-131.997"/>
<polygon fill="midnightblue" stroke="midnightblue" points="93.5861,-128.511 83.2066,-130.636 92.646,-135.447 93.5861,-128.511"/>
</g>
<!-- Node7 -->
<g id="node7" class="node"><title>Node7</title>
<polygon fill="none" stroke="#bfbfbf" points="101.5,-112.5 101.5,-131.5 247.5,-131.5 247.5,-112.5 101.5,-112.5"/>
<text text-anchor="middle" x="174.5" y="-119.5" font-family="Helvetica,sans-Serif" font-size="10.00">Framework/ServiceRegistry.h</text>
</g>
<!-- Node2&#45;&gt;Node7 -->
<g id="edge6" class="edge"><title>Node2&#45;&gt;Node7</title>
<path fill="none" stroke="midnightblue" d="M499.337,-168.444C430.306,-158.786 318.173,-143.099 245.379,-132.916"/>
<polygon fill="midnightblue" stroke="midnightblue" points="245.765,-129.436 235.377,-131.516 244.795,-136.368 245.765,-129.436"/>
</g>
<!-- Node8 -->
<g id="node8" class="node"><title>Node8</title>
<g id="a_node8"><a xlink:href="QualityObject_8h_source.html" target="_top" xlink:title="QualityControl/QualityObject.h">
<polygon fill="none" stroke="black" points="266,-112.5 266,-131.5 415,-131.5 415,-112.5 266,-112.5"/>
<text text-anchor="middle" x="340.5" y="-119.5" font-family="Helvetica,sans-Serif" font-size="10.00">QualityControl/QualityObject.h</text>
</a>
</g>
</g>
<!-- Node2&#45;&gt;Node8 -->
<g id="edge7" class="edge"><title>Node2&#45;&gt;Node8</title>
<path fill="none" stroke="midnightblue" d="M525.64,-168.444C487.584,-159.102 426.542,-144.119 385.04,-133.933"/>
<polygon fill="midnightblue" stroke="midnightblue" points="385.743,-130.501 375.197,-131.516 384.074,-137.299 385.743,-130.501"/>
</g>
<!-- Node14 -->
<g id="node14" class="node"><title>Node14</title>
<g id="a_node14"><a xlink:href="MonitorObject_8h.html" target="_top" xlink:title="QualityControl/MonitorObject.h">
<polygon fill="none" stroke="black" points="433,-112.5 433,-131.5 584,-131.5 584,-112.5 433,-112.5"/>
<text text-anchor="middle" x="508.5" y="-119.5" font-family="Helvetica,sans-Serif" font-size="10.00">QualityControl/MonitorObject.h</text>
</a>
</g>
</g>
<!-- Node2&#45;&gt;Node14 -->
<g id="edge15" class="edge"><title>Node2&#45;&gt;Node14</title>
<path fill="none" stroke="midnightblue" d="M551.913,-168.083C544.341,-160.22 533.122,-148.569 523.986,-139.081"/>
<polygon fill="midnightblue" stroke="midnightblue" points="526.385,-136.527 516.927,-131.751 521.342,-141.382 526.385,-136.527"/>
</g>
<!-- Node9 -->
<g id="node9" class="node"><title>Node9</title>
<polygon fill="none" stroke="#bfbfbf" points="186,-0.5 186,-19.5 221,-19.5 221,-0.5 186,-0.5"/>
<text text-anchor="middle" x="203.5" y="-7.5" font-family="Helvetica,sans-Serif" font-size="10.00">map</text>
</g>
<!-- Node8&#45;&gt;Node9 -->
<g id="edge8" class="edge"><title>Node8&#45;&gt;Node9</title>
<path fill="none" stroke="midnightblue" d="M284.236,-112.462C226.26,-103.091 143.02,-87.8117 133.5,-76 116.353,-54.7248 150.275,-33.91 176.631,-21.7761"/>
<polygon fill="midnightblue" stroke="midnightblue" points="178.14,-24.9365 185.891,-17.7137 175.327,-18.5263 178.14,-24.9365"/>
</g>
<!-- Node10 -->
<g id="node10" class="node"><title>Node10</title>
<polygon fill="none" stroke="#bfbfbf" points="282,-56.5 282,-75.5 341,-75.5 341,-56.5 282,-56.5"/>
<text text-anchor="middle" x="311.5" y="-63.5" font-family="Helvetica,sans-Serif" font-size="10.00">TObject.h</text>
</g>
<!-- Node8&#45;&gt;Node10 -->
<g id="edge9" class="edge"><title>Node8&#45;&gt;Node10</title>
<path fill="none" stroke="midnightblue" d="M335.711,-112.083C331.742,-104.691 325.975,-93.9533 321.065,-84.8111"/>
<polygon fill="midnightblue" stroke="midnightblue" points="324.014,-82.9051 316.2,-75.7511 317.847,-86.217 324.014,-82.9051"/>
</g>
<!-- Node11 -->
<g id="node11" class="node"><title>Node11</title>
<polygon fill="none" stroke="#bfbfbf" points="359.5,-56.5 359.5,-75.5 475.5,-75.5 475.5,-56.5 359.5,-56.5"/>
<text text-anchor="middle" x="417.5" y="-63.5" font-family="Helvetica,sans-Serif" font-size="10.00">Common/Exceptions.h</text>
</g>
<!-- Node8&#45;&gt;Node11 -->
<g id="edge10" class="edge"><title>Node8&#45;&gt;Node11</title>
<path fill="none" stroke="midnightblue" d="M352.871,-112.324C364.658,-104.058 382.632,-91.4527 396.636,-81.6322"/>
<polygon fill="midnightblue" stroke="midnightblue" points="398.982,-84.2619 405.159,-75.6545 394.962,-78.5307 398.982,-84.2619"/>
</g>
<!-- Node12 -->
<g id="node12" class="node"><title>Node12</title>
<g id="a_node12"><a xlink:href="Quality_8h.html" target="_top" xlink:title="QualityControl/Quality.h">
<polygon fill="none" stroke="black" points="143,-56.5 143,-75.5 264,-75.5 264,-56.5 143,-56.5"/>
<text text-anchor="middle" x="203.5" y="-63.5" font-family="Helvetica,sans-Serif" font-size="10.00">QualityControl/Quality.h</text>
</a>
</g>
</g>
<!-- Node8&#45;&gt;Node12 -->
<g id="edge11" class="edge"><title>Node8&#45;&gt;Node12</title>
<path fill="none" stroke="midnightblue" d="M318.792,-112.444C296.145,-103.517 260.428,-89.4387 234.748,-79.3168"/>
<polygon fill="midnightblue" stroke="midnightblue" points="235.693,-75.9273 225.106,-75.5164 233.126,-82.4397 235.693,-75.9273"/>
</g>
<!-- Node12&#45;&gt;Node3 -->
<g id="edge13" class="edge"><title>Node12&#45;&gt;Node3</title>
<path fill="none" stroke="midnightblue" d="M264.353,-56.6808C350.041,-44.9665 503.04,-24.0502 567.992,-15.1708"/>
<polygon fill="midnightblue" stroke="midnightblue" points="568.56,-18.6257 577.994,-13.8034 567.612,-11.6902 568.56,-18.6257"/>
</g>
<!-- Node12&#45;&gt;Node9 -->
<g id="edge14" class="edge"><title>Node12&#45;&gt;Node9</title>
<path fill="none" stroke="midnightblue" d="M203.5,-56.083C203.5,-49.0059 203.5,-38.8611 203.5,-29.9865"/>
<polygon fill="midnightblue" stroke="midnightblue" points="207,-29.751 203.5,-19.7511 200,-29.7511 207,-29.751"/>
</g>
<!-- Node13 -->
<g id="node13" class="node"><title>Node13</title>
<polygon fill="none" stroke="#bfbfbf" points="371.5,-0.5 371.5,-19.5 427.5,-19.5 427.5,-0.5 371.5,-0.5"/>
<text text-anchor="middle" x="399.5" y="-7.5" font-family="Helvetica,sans-Serif" font-size="10.00">Rtypes.h</text>
</g>
<!-- Node12&#45;&gt;Node13 -->
<g id="edge12" class="edge"><title>Node12&#45;&gt;Node13</title>
<path fill="none" stroke="midnightblue" d="M234.557,-56.4435C268.991,-46.9565 324.548,-31.65 361.539,-21.4588"/>
<polygon fill="midnightblue" stroke="midnightblue" points="362.735,-24.7595 371.446,-18.729 360.876,-18.011 362.735,-24.7595"/>
</g>
<!-- Node14&#45;&gt;Node3 -->
<g id="edge16" class="edge"><title>Node14&#45;&gt;Node3</title>
<path fill="none" stroke="midnightblue" d="M518.86,-112.288C528.837,-103.63 544.059,-89.6998 555.5,-76 568.062,-60.9575 580.175,-42.1288 588.325,-28.6139"/>
<polygon fill="midnightblue" stroke="midnightblue" points="591.434,-30.2319 593.509,-19.8422 585.408,-26.6704 591.434,-30.2319"/>
</g>
<!-- Node14&#45;&gt;Node9 -->
<g id="edge17" class="edge"><title>Node14&#45;&gt;Node9</title>
<path fill="none" stroke="midnightblue" d="M507.975,-112.265C506.623,-98.0824 501.786,-70.2068 484.5,-56 446.073,-24.4175 294.259,-14.6778 231.195,-11.9588"/>
<polygon fill="midnightblue" stroke="midnightblue" points="231.313,-8.4608 221.18,-11.5545 231.031,-15.4551 231.313,-8.4608"/>
</g>
<!-- Node14&#45;&gt;Node10 -->
<g id="edge19" class="edge"><title>Node14&#45;&gt;Node10</title>
<path fill="none" stroke="midnightblue" d="M477.285,-112.444C443.17,-103.092 388.43,-88.0874 351.264,-77.8999"/>
<polygon fill="midnightblue" stroke="midnightblue" points="351.849,-74.4311 341.28,-75.1629 349.999,-81.1821 351.849,-74.4311"/>
</g>
<!-- Node14&#45;&gt;Node11 -->
<g id="edge20" class="edge"><title>Node14&#45;&gt;Node11</title>
<path fill="none" stroke="midnightblue" d="M493.879,-112.324C479.551,-103.822 457.487,-90.7288 440.751,-80.7975"/>
<polygon fill="midnightblue" stroke="midnightblue" points="442.47,-77.7478 432.084,-75.6545 438.898,-83.7677 442.47,-77.7478"/>
</g>
<!-- Node14&#45;&gt;Node13 -->
<g id="edge18" class="edge"><title>Node14&#45;&gt;Node13</title>
<path fill="none" stroke="midnightblue" d="M513.27,-112.126C519.751,-98.7244 529.263,-73.0747 517.5,-56 499.688,-30.1435 464.879,-19.1335 437.663,-14.4509"/>
<polygon fill="midnightblue" stroke="midnightblue" points="438.064,-10.972 427.655,-12.9483 437.024,-17.8944 438.064,-10.972"/>
</g>
</g>
</svg>
        <g id="navigator" transform="translate(0 0)" fill="#404254">
                <rect fill="#f2f5e9" fill-opacity="0.5" stroke="#606060" stroke-width=".5" x="0" y="0" width="60" height="60"/>
                <use id="zoomplus" xlink:href="#zoomPlus" x="17" y="9" onmousedown="handleZoom(evt,'in')"/>
                <use id="zoomminus" xlink:href="#zoomMin" x="42" y="9" onmousedown="handleZoom(evt,'out')"/>
                <use id="reset" xlink:href="#resetDef" x="30" y="36" onmousedown="handleReset()"/>
                <g id="arrowUp" xlink:href="#dirArrow" transform="translate(30 24)" onmousedown="handlePan(0,-1)">
                  <use xlink:href="#rim" fill="#404040">
                        <set attributeName="fill" to="#808080" begin="arrowUp.mouseover" end="arrowUp.mouseout"/>
                  </use>
                  <path fill="none" stroke="white" stroke-width="1.5" d="M0,-3.0v7 M-2.5,-0.5L0,-3.0L2.5,-0.5"/>
                </g>
                <g id="arrowRight" xlink:href="#dirArrow" transform="rotate(90) translate(36 -43)" onmousedown="handlePan(1,0)">
                  <use xlink:href="#rim" fill="#404040">
                        <set attributeName="fill" to="#808080" begin="arrowRight.mouseover" end="arrowRight.mouseout"/>
                  </use>
                  <path fill="none" stroke="white" stroke-width="1.5" d="M0,-3.0v7 M-2.5,-0.5L0,-3.0L2.5,-0.5"/>
                </g>
                <g id="arrowDown" xlink:href="#dirArrow" transform="rotate(180) translate(-30 -48)" onmousedown="handlePan(0,1)">
                  <use xlink:href="#rim" fill="#404040">
                        <set attributeName="fill" to="#808080" begin="arrowDown.mouseover" end="arrowDown.mouseout"/>
                  </use>
                  <path fill="none" stroke="white" stroke-width="1.5" d="M0,-3.0v7 M-2.5,-0.5L0,-3.0L2.5,-0.5"/>
                </g>
                <g id="arrowLeft" xlink:href="#dirArrow" transform="rotate(270) translate(-36 17)" onmousedown="handlePan(-1,0)">
                  <use xlink:href="#rim" fill="#404040">
                        <set attributeName="fill" to="#808080" begin="arrowLeft.mouseover" end="arrowLeft.mouseout"/>
                  </use>
                  <path fill="none" stroke="white" stroke-width="1.5" d="M0,-3.0v7 M-2.5,-0.5L0,-3.0L2.5,-0.5"/>
                </g>
        </g>
        <svg viewBox="0 0 15 15" width="100%" height="30px" preserveAspectRatio="xMaxYMin meet">
         <g id="arrow_out" transform="scale(0.3 0.3)">
          <a xlink:href="RepositoryBenchmark_8h__incl_org.svg" target="_base">
           <rect id="button" ry="5" rx="5" y="6" x="6" height="38" width="38"
                fill="#f2f5e9" fill-opacity="0.5" stroke="#606060" stroke-width="1.0"/>
           <path id="arrow"
             d="M 11.500037,31.436501 C 11.940474,20.09759 22.043105,11.32322 32.158766,21.979434 L 37.068811,17.246167 C 37.068811,17.246167 37.088388,32 37.088388,32 L 22.160133,31.978069 C 22.160133,31.978069 26.997745,27.140456 26.997745,27.140456 C 18.528582,18.264221 13.291696,25.230495 11.500037,31.436501 z"
             style="fill:#404040;"/>
          </a>
         </g>
        </svg>
</svg>
