<?xml version="1.0" encoding="UTF-8" standalone="no"?>
<!DOCTYPE svg PUBLIC "-//W3C//DTD SVG 1.1//EN"
 "http://www.w3.org/Graphics/SVG/1.1/DTD/svg11.dtd">
<!-- Generated by graphviz version 2.38.0 (20140413.2041)
 -->
<!-- Title: Framework/src/RepositoryBenchmark.cxx Pages: 1 -->
<svg width="1318pt" height="319pt"
 viewBox="0.00 0.00 1318.00 319.00" xmlns="http://www.w3.org/2000/svg" xmlns:xlink="http://www.w3.org/1999/xlink">
<g id="graph0" class="graph" transform="scale(1 1) rotate(0) translate(4 315)">
<title>Framework/src/RepositoryBenchmark.cxx</title>
<!-- Node1 -->
<g id="node1" class="node"><title>Node1</title>
<polygon fill="#bfbfbf" stroke="black" points="451,-280.5 451,-310.5 583,-310.5 583,-280.5 451,-280.5"/>
<text text-anchor="start" x="459" y="-298.5" font-family="Helvetica,sans-Serif" font-size="10.00">Framework/src/Repository</text>
<text text-anchor="middle" x="517" y="-287.5" font-family="Helvetica,sans-Serif" font-size="10.00">Benchmark.cxx</text>
</g>
<!-- Node2 -->
<g id="node2" class="node"><title>Node2</title>
<g id="a_node2"><a xlink:href="RepositoryBenchmark_8h.html" target="_top" xlink:title="RepositoryBenchmark.h">
<polygon fill="none" stroke="black" points="250,-224.5 250,-243.5 372,-243.5 372,-224.5 250,-224.5"/>
<text text-anchor="middle" x="311" y="-231.5" font-family="Helvetica,sans-Serif" font-size="10.00">RepositoryBenchmark.h</text>
</a>
</g>
</g>
<!-- Node1&#45;&gt;Node2 -->
<g id="edge1" class="edge"><title>Node1&#45;&gt;Node2</title>
<path fill="none" stroke="midnightblue" d="M468.442,-280.475C432.437,-270.075 383.977,-256.078 350.372,-246.372"/>
<polygon fill="midnightblue" stroke="midnightblue" points="351.029,-242.919 340.451,-243.506 349.087,-249.644 351.029,-242.919"/>
</g>
<!-- Node12 -->
<g id="node12" class="node"><title>Node12</title>
<polygon fill="none" stroke="#bfbfbf" points="0,-56.5 0,-75.5 116,-75.5 116,-56.5 0,-56.5"/>
<text text-anchor="middle" x="58" y="-63.5" font-family="Helvetica,sans-Serif" font-size="10.00">Common/Exceptions.h</text>
</g>
<!-- Node1&#45;&gt;Node12 -->
<g id="edge33" class="edge"><title>Node1&#45;&gt;Node12</title>
<path fill="none" stroke="midnightblue" d="M450.618,-290.281C329.179,-281.003 78.999,-254.14 28,-188 4.09389,-156.996 28.9508,-109.393 45.5944,-84.129"/>
<polygon fill="midnightblue" stroke="midnightblue" points="48.664,-85.8426 51.4524,-75.6212 42.8985,-81.8728 48.664,-85.8426"/>
</g>
<!-- Node20 -->
<g id="node20" class="node"><title>Node20</title>
<polygon fill="none" stroke="#bfbfbf" points="541,-168.5 541,-187.5 585,-187.5 585,-168.5 541,-168.5"/>
<text text-anchor="middle" x="563" y="-175.5" font-family="Helvetica,sans-Serif" font-size="10.00">thread</text>
</g>
<!-- Node1&#45;&gt;Node20 -->
<g id="edge29" class="edge"><title>Node1&#45;&gt;Node20</title>
<path fill="none" stroke="midnightblue" d="M468.566,-280.417C435.535,-268.251 400.812,-248.739 419,-224 422.431,-219.333 489.89,-199.626 531.244,-187.895"/>
<polygon fill="midnightblue" stroke="midnightblue" points="532.219,-191.256 540.89,-185.168 530.315,-184.52 532.219,-191.256"/>
</g>
<!-- Node21 -->
<g id="node21" class="node"><title>Node21</title>
<polygon fill="none" stroke="#bfbfbf" points="428,-224.5 428,-243.5 474,-243.5 474,-224.5 428,-224.5"/>
<text text-anchor="middle" x="451" y="-231.5" font-family="Helvetica,sans-Serif" font-size="10.00">chrono</text>
</g>
<!-- Node1&#45;&gt;Node21 -->
<g id="edge28" class="edge"><title>Node1&#45;&gt;Node21</title>
<path fill="none" stroke="midnightblue" d="M501.359,-280.399C491.373,-271.397 478.422,-259.721 468.155,-250.465"/>
<polygon fill="midnightblue" stroke="midnightblue" points="470.375,-247.754 460.604,-243.658 465.687,-252.953 470.375,-247.754"/>
</g>
<!-- Node22 -->
<g id="node22" class="node"><title>Node22</title>
<polygon fill="none" stroke="#bfbfbf" points="492,-224.5 492,-243.5 542,-243.5 542,-224.5 492,-224.5"/>
<text text-anchor="middle" x="517" y="-231.5" font-family="Helvetica,sans-Serif" font-size="10.00">TH2F.h</text>
</g>
<!-- Node1&#45;&gt;Node22 -->
<g id="edge30" class="edge"><title>Node1&#45;&gt;Node22</title>
<path fill="none" stroke="midnightblue" d="M517,-280.399C517,-272.466 517,-262.458 517,-253.858"/>
<polygon fill="midnightblue" stroke="midnightblue" points="520.5,-253.658 517,-243.658 513.5,-253.658 520.5,-253.658"/>
</g>
<!-- Node23 -->
<g id="node23" class="node"><title>Node23</title>
<polygon fill="none" stroke="#bfbfbf" points="560,-224.5 560,-243.5 676,-243.5 676,-224.5 560,-224.5"/>
<text text-anchor="middle" x="618" y="-231.5" font-family="Helvetica,sans-Serif" font-size="10.00">fairmq/FairMQLogger.h</text>
</g>
<!-- Node1&#45;&gt;Node23 -->
<g id="edge31" class="edge"><title>Node1&#45;&gt;Node23</title>
<path fill="none" stroke="midnightblue" d="M540.936,-280.399C557.125,-270.862 578.407,-258.325 594.503,-248.842"/>
<polygon fill="midnightblue" stroke="midnightblue" points="596.464,-251.749 603.304,-243.658 592.911,-245.718 596.464,-251.749"/>
</g>
<!-- Node24 -->
<g id="node24" class="node"><title>Node24</title>
<polygon fill="none" stroke="#bfbfbf" points="694,-224.5 694,-243.5 840,-243.5 840,-224.5 694,-224.5"/>
<text text-anchor="middle" x="767" y="-231.5" font-family="Helvetica,sans-Serif" font-size="10.00">options/FairMQProgOptions.h</text>
</g>
<!-- Node1&#45;&gt;Node24 -->
<g id="edge32" class="edge"><title>Node1&#45;&gt;Node24</title>
<path fill="none" stroke="midnightblue" d="M575.93,-280.475C620.378,-269.896 680.468,-255.595 721.311,-245.874"/>
<polygon fill="midnightblue" stroke="midnightblue" points="722.341,-249.227 731.259,-243.506 720.72,-242.417 722.341,-249.227"/>
</g>
<!-- Node25 -->
<g id="node25" class="node"><title>Node25</title>
<g id="a_node25"><a xlink:href="DatabaseFactory_8h.html" target="_top" xlink:title="QualityControl/DatabaseFactory.h">
<polygon fill="none" stroke="black" points="858.5,-224.5 858.5,-243.5 1023.5,-243.5 1023.5,-224.5 858.5,-224.5"/>
<text text-anchor="middle" x="941" y="-231.5" font-family="Helvetica,sans-Serif" font-size="10.00">QualityControl/DatabaseFactory.h</text>
</a>
</g>
</g>
<!-- Node1&#45;&gt;Node25 -->
<g id="edge34" class="edge"><title>Node1&#45;&gt;Node25</title>
<path fill="none" stroke="midnightblue" d="M583.25,-285.203C661.313,-274.248 790.478,-256.123 870.389,-244.909"/>
<polygon fill="midnightblue" stroke="midnightblue" points="870.947,-248.365 880.364,-243.509 869.974,-241.433 870.947,-248.365"/>
</g>
<!-- Node26 -->
<g id="node26" class="node"><title>Node26</title>
<g id="a_node26"><a xlink:href="QcInfoLogger_8h.html" target="_top" xlink:title="QualityControl/QcInfoLogger.h">
<polygon fill="none" stroke="black" points="1041.5,-224.5 1041.5,-243.5 1190.5,-243.5 1190.5,-224.5 1041.5,-224.5"/>
<text text-anchor="middle" x="1116" y="-231.5" font-family="Helvetica,sans-Serif" font-size="10.00">QualityControl/QcInfoLogger.h</text>
</a>
</g>
</g>
<!-- Node1&#45;&gt;Node26 -->
<g id="edge37" class="edge"><title>Node1&#45;&gt;Node26</title>
<path fill="none" stroke="midnightblue" d="M583.276,-288.193C679.437,-279 863.542,-261.238 1031.34,-244.059"/>
<polygon fill="midnightblue" stroke="midnightblue" points="1031.76,-247.535 1041.35,-243.034 1031.04,-240.572 1031.76,-247.535"/>
</g>
<!-- Node3 -->
<g id="node3" class="node"><title>Node3</title>
<g id="a_node3"><a xlink:href="DatabaseInterface_8h.html" target="_top" xlink:title="QualityControl/DatabaseInterface.h">
<polygon fill="none" stroke="black" points="630,-168.5 630,-187.5 800,-187.5 800,-168.5 630,-168.5"/>
<text text-anchor="middle" x="715" y="-175.5" font-family="Helvetica,sans-Serif" font-size="10.00">QualityControl/DatabaseInterface.h</text>
</a>
</g>
</g>
<!-- Node2&#45;&gt;Node3 -->
<g id="edge2" class="edge"><title>Node2&#45;&gt;Node3</title>
<path fill="none" stroke="midnightblue" d="M372.359,-224.799C444.502,-215.156 564.158,-199.162 641.273,-188.855"/>
<polygon fill="midnightblue" stroke="midnightblue" points="641.946,-192.296 651.394,-187.502 641.018,-185.358 641.946,-192.296"/>
</g>
<!-- Node4 -->
<g id="node4" class="node"><title>Node4</title>
<polygon fill="none" stroke="#bfbfbf" points="473.5,-0.5 473.5,-19.5 514.5,-19.5 514.5,-0.5 473.5,-0.5"/>
<text text-anchor="middle" x="494" y="-7.5" font-family="Helvetica,sans-Serif" font-size="10.00">string</text>
</g>
<!-- Node2&#45;&gt;Node4 -->
<g id="edge27" class="edge"><title>Node2&#45;&gt;Node4</title>
<path fill="none" stroke="midnightblue" d="M372.303,-226.041C419.437,-219.28 478.963,-207.183 494,-188 530.608,-141.3 511.989,-64.3435 500.63,-29.3469"/>
<polygon fill="midnightblue" stroke="midnightblue" points="503.826,-27.8776 497.276,-19.5503 497.204,-30.1448 503.826,-27.8776"/>
</g>
<!-- Node16 -->
<g id="node16" class="node"><title>Node16</title>
<polygon fill="none" stroke="#bfbfbf" points="37,-168.5 37,-187.5 155,-187.5 155,-168.5 37,-168.5"/>
<text text-anchor="middle" x="96" y="-175.5" font-family="Helvetica,sans-Serif" font-size="10.00">fairmq/FairMQDevice.h</text>
</g>
<!-- Node2&#45;&gt;Node16 -->
<g id="edge22" class="edge"><title>Node2&#45;&gt;Node16</title>
<path fill="none" stroke="midnightblue" d="M276.933,-224.444C239.82,-215.122 180.339,-200.183 139.785,-189.997"/>
<polygon fill="midnightblue" stroke="midnightblue" points="140.459,-186.558 129.908,-187.516 138.754,-193.347 140.459,-186.558"/>
</g>
<!-- Node17 -->
<g id="node17" class="node"><title>Node17</title>
<polygon fill="none" stroke="#bfbfbf" points="173,-168.5 173,-187.5 217,-187.5 217,-168.5 173,-168.5"/>
<text text-anchor="middle" x="195" y="-175.5" font-family="Helvetica,sans-Serif" font-size="10.00">TH1.h</text>
</g>
<!-- Node2&#45;&gt;Node17 -->
<g id="edge23" class="edge"><title>Node2&#45;&gt;Node17</title>
<path fill="none" stroke="midnightblue" d="M292.619,-224.444C273.784,-215.675 244.269,-201.935 222.621,-191.858"/>
<polygon fill="midnightblue" stroke="midnightblue" points="223.838,-188.564 213.295,-187.516 220.883,-194.91 223.838,-188.564"/>
</g>
<!-- Node18 -->
<g id="node18" class="node"><title>Node18</title>
<polygon fill="none" stroke="#bfbfbf" points="235.5,-168.5 235.5,-187.5 386.5,-187.5 386.5,-168.5 235.5,-168.5"/>
<text text-anchor="middle" x="311" y="-175.5" font-family="Helvetica,sans-Serif" font-size="10.00">Monitoring/MonitoringFactory.h</text>
</g>
<!-- Node2&#45;&gt;Node18 -->
<g id="edge24" class="edge"><title>Node2&#45;&gt;Node18</title>
<path fill="none" stroke="midnightblue" d="M311,-224.083C311,-217.006 311,-206.861 311,-197.986"/>
<polygon fill="midnightblue" stroke="midnightblue" points="314.5,-197.751 311,-187.751 307.5,-197.751 314.5,-197.751"/>
</g>
<!-- Node19 -->
<g id="node19" class="node"><title>Node19</title>
<polygon fill="none" stroke="#bfbfbf" points="405,-168.5 405,-187.5 485,-187.5 485,-168.5 405,-168.5"/>
<text text-anchor="middle" x="445" y="-175.5" font-family="Helvetica,sans-Serif" font-size="10.00">boost/asio.hpp</text>
</g>
<!-- Node2&#45;&gt;Node19 -->
<g id="edge25" class="edge"><title>Node2&#45;&gt;Node19</title>
<path fill="none" stroke="midnightblue" d="M332.233,-224.444C354.384,-215.517 389.319,-201.439 414.436,-191.317"/>
<polygon fill="midnightblue" stroke="midnightblue" points="415.9,-194.501 423.867,-187.516 413.283,-188.008 415.9,-194.501"/>
</g>
<!-- Node2&#45;&gt;Node20 -->
<g id="edge26" class="edge"><title>Node2&#45;&gt;Node20</title>
<path fill="none" stroke="midnightblue" d="M354.551,-224.453C398.253,-215.753 467.446,-201.642 527,-188 528.272,-187.709 529.567,-187.407 530.875,-187.099"/>
<polygon fill="midnightblue" stroke="midnightblue" points="532.053,-190.415 540.948,-184.66 530.406,-183.612 532.053,-190.415"/>
</g>
<!-- Node3&#45;&gt;Node4 -->
<g id="edge3" class="edge"><title>Node3&#45;&gt;Node4</title>
<path fill="none" stroke="midnightblue" d="M714.627,-168.408C713.615,-154.919 709.866,-128.605 696,-112 650.63,-57.6699 568.797,-29.7395 524.489,-17.993"/>
<polygon fill="midnightblue" stroke="midnightblue" points="525.148,-14.5494 514.594,-15.4747 523.422,-21.3331 525.148,-14.5494"/>
</g>
<!-- Node5 -->
<g id="node5" class="node"><title>Node5</title>
<polygon fill="none" stroke="#bfbfbf" points="911,-112.5 911,-131.5 963,-131.5 963,-112.5 911,-112.5"/>
<text text-anchor="middle" x="937" y="-119.5" font-family="Helvetica,sans-Serif" font-size="10.00">memory</text>
</g>
<!-- Node3&#45;&gt;Node5 -->
<g id="edge4" class="edge"><title>Node3&#45;&gt;Node5</title>
<path fill="none" stroke="midnightblue" d="M750.177,-168.444C791.403,-158.416 859.359,-141.886 900.956,-131.767"/>
<polygon fill="midnightblue" stroke="midnightblue" points="901.789,-135.167 910.678,-129.403 900.134,-128.365 901.789,-135.167"/>
</g>
<!-- Node6 -->
<g id="node6" class="node"><title>Node6</title>
<polygon fill="none" stroke="#bfbfbf" points="743,-112.5 743,-131.5 787,-131.5 787,-112.5 743,-112.5"/>
<text text-anchor="middle" x="765" y="-119.5" font-family="Helvetica,sans-Serif" font-size="10.00">vector</text>
</g>
<!-- Node3&#45;&gt;Node6 -->
<g id="edge5" class="edge"><title>Node3&#45;&gt;Node6</title>
<path fill="none" stroke="midnightblue" d="M723.256,-168.083C730.465,-160.298 741.11,-148.801 749.846,-139.367"/>
<polygon fill="midnightblue" stroke="midnightblue" points="752.671,-141.467 756.897,-131.751 747.535,-136.711 752.671,-141.467"/>
</g>
<!-- Node7 -->
<g id="node7" class="node"><title>Node7</title>
<polygon fill="none" stroke="#bfbfbf" points="805.5,-112.5 805.5,-131.5 888.5,-131.5 888.5,-112.5 805.5,-112.5"/>
<text text-anchor="middle" x="847" y="-119.5" font-family="Helvetica,sans-Serif" font-size="10.00">unordered_map</text>
</g>
<!-- Node3&#45;&gt;Node7 -->
<g id="edge6" class="edge"><title>Node3&#45;&gt;Node7</title>
<path fill="none" stroke="midnightblue" d="M735.916,-168.444C757.736,-159.517 792.15,-145.439 816.892,-135.317"/>
<polygon fill="midnightblue" stroke="midnightblue" points="818.252,-138.542 826.182,-131.516 815.601,-132.063 818.252,-138.542"/>
</g>
<!-- Node8 -->
<g id="node8" class="node"><title>Node8</title>
<polygon fill="none" stroke="#bfbfbf" points="541,-112.5 541,-131.5 687,-131.5 687,-112.5 541,-112.5"/>
<text text-anchor="middle" x="614" y="-119.5" font-family="Helvetica,sans-Serif" font-size="10.00">Framework/ServiceRegistry.h</text>
</g>
<!-- Node3&#45;&gt;Node8 -->
<g id="edge7" class="edge"><title>Node3&#45;&gt;Node8</title>
<path fill="none" stroke="midnightblue" d="M698.773,-168.324C682.649,-159.703 657.7,-146.364 639.036,-136.386"/>
<polygon fill="midnightblue" stroke="midnightblue" points="640.656,-133.283 630.187,-131.655 637.356,-139.456 640.656,-133.283"/>
</g>
<!-- Node9 -->
<g id="node9" class="node"><title>Node9</title>
<g id="a_node9"><a xlink:href="QualityObject_8h_source.html" target="_top" xlink:title="QualityControl/QualityObject.h">
<polygon fill="none" stroke="black" points="166.5,-112.5 166.5,-131.5 315.5,-131.5 315.5,-112.5 166.5,-112.5"/>
<text text-anchor="middle" x="241" y="-119.5" font-family="Helvetica,sans-Serif" font-size="10.00">QualityControl/QualityObject.h</text>
</a>
</g>
</g>
<!-- Node3&#45;&gt;Node9 -->
<g id="edge8" class="edge"><title>Node3&#45;&gt;Node9</title>
<path fill="none" stroke="midnightblue" d="M640.155,-168.473C554.747,-158.743 415.365,-142.864 325.952,-132.678"/>
<polygon fill="midnightblue" stroke="midnightblue" points="326.175,-129.181 315.843,-131.526 325.383,-136.136 326.175,-129.181"/>
</g>
<!-- Node15 -->
<g id="node15" class="node"><title>Node15</title>
<g id="a_node15"><a xlink:href="MonitorObject_8h.html" target="_top" xlink:title="QualityControl/MonitorObject.h">
<polygon fill="none" stroke="black" points="333.5,-112.5 333.5,-131.5 484.5,-131.5 484.5,-112.5 333.5,-112.5"/>
<text text-anchor="middle" x="409" y="-119.5" font-family="Helvetica,sans-Serif" font-size="10.00">QualityControl/MonitorObject.h</text>
</a>
</g>
</g>
<!-- Node3&#45;&gt;Node15 -->
<g id="edge16" class="edge"><title>Node3&#45;&gt;Node15</title>
<path fill="none" stroke="midnightblue" d="M666.513,-168.444C612.461,-158.905 525.072,-143.483 467.327,-133.293"/>
<polygon fill="midnightblue" stroke="midnightblue" points="467.716,-129.808 457.26,-131.516 466.499,-136.701 467.716,-129.808"/>
</g>
<!-- Node10 -->
<g id="node10" class="node"><title>Node10</title>
<polygon fill="none" stroke="#bfbfbf" points="164.5,-0.5 164.5,-19.5 199.5,-19.5 199.5,-0.5 164.5,-0.5"/>
<text text-anchor="middle" x="182" y="-7.5" font-family="Helvetica,sans-Serif" font-size="10.00">map</text>
</g>
<!-- Node9&#45;&gt;Node10 -->
<g id="edge9" class="edge"><title>Node9&#45;&gt;Node10</title>
<path fill="none" stroke="midnightblue" d="M214.789,-112.414C198.15,-105.445 177.943,-93.8092 168,-76 159.839,-61.3822 165.418,-42.4651 171.789,-28.8118"/>
<polygon fill="midnightblue" stroke="midnightblue" points="175.093,-30.0426 176.6,-19.5554 168.882,-26.8143 175.093,-30.0426"/>
</g>
<!-- Node11 -->
<g id="node11" class="node"><title>Node11</title>
<polygon fill="none" stroke="#bfbfbf" points="349.5,-56.5 349.5,-75.5 408.5,-75.5 408.5,-56.5 349.5,-56.5"/>
<text text-anchor="middle" x="379" y="-63.5" font-family="Helvetica,sans-Serif" font-size="10.00">TObject.h</text>
</g>
<!-- Node9&#45;&gt;Node11 -->
<g id="edge10" class="edge"><title>Node9&#45;&gt;Node11</title>
<path fill="none" stroke="midnightblue" d="M262.867,-112.444C285.779,-103.478 321.975,-89.314 347.866,-79.1827"/>
<polygon fill="midnightblue" stroke="midnightblue" points="349.199,-82.4198 357.236,-75.5164 346.648,-75.9011 349.199,-82.4198"/>
</g>
<!-- Node9&#45;&gt;Node12 -->
<g id="edge11" class="edge"><title>Node9&#45;&gt;Node12</title>
<path fill="none" stroke="midnightblue" d="M212.003,-112.444C180.815,-103.241 131.07,-88.5617 96.5925,-78.3879"/>
<polygon fill="midnightblue" stroke="midnightblue" points="97.443,-74.9898 86.8612,-75.5164 95.4618,-81.7036 97.443,-74.9898"/>
</g>
<!-- Node13 -->
<g id="node13" class="node"><title>Node13</title>
<g id="a_node13"><a xlink:href="Quality_8h.html" target="_top" xlink:title="QualityControl/Quality.h">
<polygon fill="none" stroke="black" points="210.5,-56.5 210.5,-75.5 331.5,-75.5 331.5,-56.5 210.5,-56.5"/>
<text text-anchor="middle" x="271" y="-63.5" font-family="Helvetica,sans-Serif" font-size="10.00">QualityControl/Quality.h</text>
</a>
</g>
</g>
<!-- Node9&#45;&gt;Node13 -->
<g id="edge12" class="edge"><title>Node9&#45;&gt;Node13</title>
<path fill="none" stroke="midnightblue" d="M245.954,-112.083C250.104,-104.613 256.153,-93.7244 261.267,-84.5199"/>
<polygon fill="midnightblue" stroke="midnightblue" points="264.341,-86.1924 266.138,-75.7511 258.222,-82.7929 264.341,-86.1924"/>
</g>
<!-- Node13&#45;&gt;Node4 -->
<g id="edge14" class="edge"><title>Node13&#45;&gt;Node4</title>
<path fill="none" stroke="midnightblue" d="M306.335,-56.4435C349.606,-45.9655 422.191,-28.3888 463.255,-18.445"/>
<polygon fill="midnightblue" stroke="midnightblue" points="464.326,-21.7868 473.222,-16.0315 462.679,-14.9834 464.326,-21.7868"/>
</g>
<!-- Node13&#45;&gt;Node10 -->
<g id="edge15" class="edge"><title>Node13&#45;&gt;Node10</title>
<path fill="none" stroke="midnightblue" d="M256.701,-56.324C242.817,-47.9002 221.508,-34.9709 205.196,-25.0741"/>
<polygon fill="midnightblue" stroke="midnightblue" points="206.629,-21.8495 196.264,-19.6545 202.998,-27.8341 206.629,-21.8495"/>
</g>
<!-- Node14 -->
<g id="node14" class="node"><title>Node14</title>
<polygon fill="none" stroke="#bfbfbf" points="321,-0.5 321,-19.5 377,-19.5 377,-0.5 321,-0.5"/>
<text text-anchor="middle" x="349" y="-7.5" font-family="Helvetica,sans-Serif" font-size="10.00">Rtypes.h</text>
</g>
<!-- Node13&#45;&gt;Node14 -->
<g id="edge13" class="edge"><title>Node13&#45;&gt;Node14</title>
<path fill="none" stroke="midnightblue" d="M283.532,-56.324C295.586,-47.979 314.027,-35.2122 328.269,-25.3524"/>
<polygon fill="midnightblue" stroke="midnightblue" points="330.269,-28.2243 336.499,-19.6545 326.285,-22.469 330.269,-28.2243"/>
</g>
<!-- Node15&#45;&gt;Node4 -->
<g id="edge17" class="edge"><title>Node15&#45;&gt;Node4</title>
<path fill="none" stroke="midnightblue" d="M415.67,-112.368C429.759,-94.135 462.762,-51.4257 481.115,-27.6752"/>
<polygon fill="midnightblue" stroke="midnightblue" points="484.016,-29.6444 487.361,-19.5914 478.477,-25.3642 484.016,-29.6444"/>
</g>
<!-- Node15&#45;&gt;Node10 -->
<g id="edge18" class="edge"><title>Node15&#45;&gt;Node10</title>
<path fill="none" stroke="midnightblue" d="M333.416,-112.811C282.096,-105.766 220.198,-93.8757 201,-76 188.372,-64.2415 183.978,-44.6014 182.528,-29.9815"/>
<polygon fill="midnightblue" stroke="midnightblue" points="185.996,-29.3484 181.895,-19.5795 179.009,-29.7736 185.996,-29.3484"/>
</g>
<!-- Node15&#45;&gt;Node11 -->
<g id="edge20" class="edge"><title>Node15&#45;&gt;Node11</title>
<path fill="none" stroke="midnightblue" d="M404.046,-112.083C399.896,-104.613 393.847,-93.7244 388.733,-84.5199"/>
<polygon fill="midnightblue" stroke="midnightblue" points="391.778,-82.7929 383.862,-75.7511 385.659,-86.1924 391.778,-82.7929"/>
</g>
<!-- Node15&#45;&gt;Node12 -->
<g id="edge21" class="edge"><title>Node15&#45;&gt;Node12</title>
<path fill="none" stroke="midnightblue" d="M353.383,-112.444C290.868,-102.826 189.479,-87.2275 123.266,-77.0409"/>
<polygon fill="midnightblue" stroke="midnightblue" points="123.773,-73.5778 113.357,-75.5164 122.708,-80.4964 123.773,-73.5778"/>
</g>
<!-- Node15&#45;&gt;Node14 -->
<g id="edge19" class="edge"><title>Node15&#45;&gt;Node14</title>
<path fill="none" stroke="midnightblue" d="M413.074,-112.416C418.619,-99.3912 426.795,-74.228 417,-56 409.378,-41.8153 395.103,-31.3516 381.594,-24.1027"/>
<polygon fill="midnightblue" stroke="midnightblue" points="382.97,-20.8791 372.454,-19.5916 379.872,-27.1562 382.97,-20.8791"/>
</g>
<!-- Node25&#45;&gt;Node3 -->
<g id="edge36" class="edge"><title>Node25&#45;&gt;Node3</title>
<path fill="none" stroke="midnightblue" d="M905.19,-224.444C866.012,-215.083 803.123,-200.056 760.485,-189.868"/>
<polygon fill="midnightblue" stroke="midnightblue" points="761.182,-186.436 750.643,-187.516 759.556,-193.245 761.182,-186.436"/>
</g>
<!-- Node25&#45;&gt;Node5 -->
<g id="edge35" class="edge"><title>Node25&#45;&gt;Node5</title>
<path fill="none" stroke="midnightblue" d="M940.686,-224.368C940.041,-206.617 938.552,-165.666 937.676,-141.597"/>
<polygon fill="midnightblue" stroke="midnightblue" points="941.174,-141.458 937.312,-131.591 934.178,-141.712 941.174,-141.458"/>
</g>
<!-- Node27 -->
<g id="node27" class="node"><title>Node27</title>
<polygon fill="none" stroke="#bfbfbf" points="1180,-168.5 1180,-187.5 1310,-187.5 1310,-168.5 1180,-168.5"/>
<text text-anchor="middle" x="1245" y="-175.5" font-family="Helvetica,sans-Serif" font-size="10.00">InfoLogger/InfoLogger.hxx</text>
</g>
<!-- Node26&#45;&gt;Node27 -->
<g id="edge38" class="edge"><title>Node26&#45;&gt;Node27</title>
<path fill="none" stroke="midnightblue" d="M1136.44,-224.444C1157.67,-215.557 1191.1,-201.563 1215.25,-191.451"/>
<polygon fill="midnightblue" stroke="midnightblue" points="1216.78,-194.606 1224.66,-187.516 1214.08,-188.149 1216.78,-194.606"/>
</g>
<!-- Node28 -->
<g id="node28" class="node"><title>Node28</title>
<polygon fill="none" stroke="#bfbfbf" points="1000,-168.5 1000,-187.5 1162,-187.5 1162,-168.5 1000,-168.5"/>
<text text-anchor="middle" x="1081" y="-175.5" font-family="Helvetica,sans-Serif" font-size="10.00">InfoLogger/InfoLoggerMacros.hxx</text>
</g>
<!-- Node26&#45;&gt;Node28 -->
<g id="edge39" class="edge"><title>Node26&#45;&gt;Node28</title>
<path fill="none" stroke="midnightblue" d="M1110.22,-224.083C1105.33,-216.534 1098.17,-205.495 1092.17,-196.23"/>
<polygon fill="midnightblue" stroke="midnightblue" points="1095.05,-194.239 1086.67,-187.751 1089.17,-198.046 1095.05,-194.239"/>
</g>
</g>
</svg>
