<?xml version="1.0" encoding="UTF-8" standalone="no"?>
<!DOCTYPE svg PUBLIC "-//W3C//DTD SVG 1.1//EN"
 "http://www.w3.org/Graphics/SVG/1.1/DTD/svg11.dtd">
<!-- Generated by graphviz version 2.38.0 (20140413.2041)
 -->
<!-- Title: Framework/include/QualityControl/RootClassFactory.h Pages: 1 -->
<svg width="1133pt" height="106pt"
 viewBox="0.00 0.00 1133.00 106.00" xmlns="http://www.w3.org/2000/svg" xmlns:xlink="http://www.w3.org/1999/xlink">
<g id="graph0" class="graph" transform="scale(1 1) rotate(0) translate(4 102)">
<title>Framework/include/QualityControl/RootClassFactory.h</title>
<!-- Node1 -->
<g id="node1" class="node"><title>Node1</title>
<polygon fill="#bfbfbf" stroke="black" points="501,-67.5 501,-97.5 640,-97.5 640,-67.5 501,-67.5"/>
<text text-anchor="start" x="509" y="-85.5" font-family="Helvetica,sans-Serif" font-size="10.00">Framework/include/Quality</text>
<text text-anchor="middle" x="570.5" y="-74.5" font-family="Helvetica,sans-Serif" font-size="10.00">Control/RootClassFactory.h</text>
</g>
<!-- Node2 -->
<g id="node2" class="node"><title>Node2</title>
<g id="a_node2"><a xlink:href="Aggregator_8cxx.html" target="_top" xlink:title="Framework/src/Aggregator.cxx">
<polygon fill="none" stroke="black" points="0,-6 0,-25 151,-25 151,-6 0,-6"/>
<text text-anchor="middle" x="75.5" y="-13" font-family="Helvetica,sans-Serif" font-size="10.00">Framework/src/Aggregator.cxx</text>
</a>
</g>
</g>
<!-- Node1&#45;&gt;Node2 -->
<g id="edge1" class="edge"><title>Node1&#45;&gt;Node2</title>
<path fill="none" stroke="midnightblue" d="M490.639,-72.7741C407.905,-63.474 274.936,-47.7991 160.5,-31 148.355,-29.2171 135.269,-27.0886 123.091,-25.019"/>
<polygon fill="midnightblue" stroke="midnightblue" points="490.397,-76.2688 500.724,-73.9042 491.176,-69.3123 490.397,-76.2688"/>
</g>
<!-- Node3 -->
<g id="node3" class="node"><title>Node3</title>
<polygon fill="none" stroke="#bfbfbf" points="169.5,-6 169.5,-25 301.5,-25 301.5,-6 169.5,-6"/>
<text text-anchor="middle" x="235.5" y="-13" font-family="Helvetica,sans-Serif" font-size="10.00">Framework/src/Check.cxx</text>
</g>
<!-- Node1&#45;&gt;Node3 -->
<g id="edge2" class="edge"><title>Node1&#45;&gt;Node3</title>
<path fill="none" stroke="midnightblue" d="M490.716,-66.0196C424.656,-53.2019 333.239,-35.4642 279.639,-25.0643"/>
<polygon fill="midnightblue" stroke="midnightblue" points="490.197,-69.4841 500.681,-67.953 491.531,-62.6122 490.197,-69.4841"/>
</g>
<!-- Node4 -->
<g id="node4" class="node"><title>Node4</title>
<g id="a_node4"><a xlink:href="PostProcessingFactory_8cxx.html" target="_top" xlink:title="Framework/src/PostProcessing\lFactory.cxx">
<polygon fill="none" stroke="black" points="319.5,-0.5 319.5,-30.5 473.5,-30.5 473.5,-0.5 319.5,-0.5"/>
<text text-anchor="start" x="327.5" y="-18.5" font-family="Helvetica,sans-Serif" font-size="10.00">Framework/src/PostProcessing</text>
<text text-anchor="middle" x="396.5" y="-7.5" font-family="Helvetica,sans-Serif" font-size="10.00">Factory.cxx</text>
</a>
</g>
</g>
<!-- Node1&#45;&gt;Node4 -->
<g id="edge3" class="edge"><title>Node1&#45;&gt;Node4</title>
<path fill="none" stroke="midnightblue" d="M523.168,-63.8185C495.2,-53.3707 460.273,-40.3231 434.182,-30.5765"/>
<polygon fill="midnightblue" stroke="midnightblue" points="522.152,-67.1752 532.745,-67.396 524.602,-60.6178 522.152,-67.1752"/>
</g>
<!-- Node5 -->
<g id="node5" class="node"><title>Node5</title>
<g id="a_node5"><a xlink:href="TaskFactory_8cxx.html" target="_top" xlink:title="Framework/src/TaskFactory.cxx">
<polygon fill="none" stroke="black" points="491.5,-6 491.5,-25 649.5,-25 649.5,-6 491.5,-6"/>
<text text-anchor="middle" x="570.5" y="-13" font-family="Helvetica,sans-Serif" font-size="10.00">Framework/src/TaskFactory.cxx</text>
</a>
</g>
</g>
<!-- Node1&#45;&gt;Node5 -->
<g id="edge4" class="edge"><title>Node1&#45;&gt;Node5</title>
<path fill="none" stroke="midnightblue" d="M570.5,-57.2495C570.5,-46.017 570.5,-33.3767 570.5,-25.1945"/>
<polygon fill="midnightblue" stroke="midnightblue" points="567,-57.3959 570.5,-67.396 574,-57.396 567,-57.3959"/>
</g>
<!-- Node6 -->
<g id="node6" class="node"><title>Node6</title>
<g id="a_node6"><a xlink:href="TrendingTask_8cxx.html" target="_top" xlink:title="Framework/src/TrendingTask.cxx">
<polygon fill="none" stroke="black" points="668,-6 668,-25 831,-25 831,-6 668,-6"/>
<text text-anchor="middle" x="749.5" y="-13" font-family="Helvetica,sans-Serif" font-size="10.00">Framework/src/TrendingTask.cxx</text>
</a>
</g>
</g>
<!-- Node1&#45;&gt;Node6 -->
<g id="edge5" class="edge"><title>Node1&#45;&gt;Node6</title>
<path fill="none" stroke="midnightblue" d="M618.841,-63.9459C653.607,-51.3213 698.966,-34.8502 726.073,-25.007"/>
<polygon fill="midnightblue" stroke="midnightblue" points="617.545,-60.6929 609.34,-67.396 619.934,-67.2725 617.545,-60.6929"/>
</g>
<!-- Node7 -->
<g id="node7" class="node"><title>Node7</title>
<g id="a_node7"><a xlink:href="TrendingTaskITSFhr_8cxx.html" target="_top" xlink:title="Modules/ITS/src/Trending\lTaskITSFhr.cxx">
<polygon fill="none" stroke="black" points="849,-0.5 849,-30.5 978,-30.5 978,-0.5 849,-0.5"/>
<text text-anchor="start" x="857" y="-18.5" font-family="Helvetica,sans-Serif" font-size="10.00">Modules/ITS/src/Trending</text>
<text text-anchor="middle" x="913.5" y="-7.5" font-family="Helvetica,sans-Serif" font-size="10.00">TaskITSFhr.cxx</text>
</a>
</g>
</g>
<!-- Node1&#45;&gt;Node7 -->
<g id="edge6" class="edge"><title>Node1&#45;&gt;Node7</title>
<path fill="none" stroke="midnightblue" d="M650.343,-66.8084C704.113,-56.855 776.604,-43.3208 840.5,-31 843.164,-30.4862 845.883,-29.9592 848.629,-29.4245"/>
<polygon fill="midnightblue" stroke="midnightblue" points="649.384,-63.4264 640.187,-68.687 650.657,-70.3096 649.384,-63.4264"/>
</g>
<!-- Node8 -->
<g id="node8" class="node"><title>Node8</title>
<g id="a_node8"><a xlink:href="TrendingTaskITSThr_8cxx.html" target="_top" xlink:title="Modules/ITS/src/Trending\lTaskITSThr.cxx">
<polygon fill="none" stroke="black" points="996,-0.5 996,-30.5 1125,-30.5 1125,-0.5 996,-0.5"/>
<text text-anchor="start" x="1004" y="-18.5" font-family="Helvetica,sans-Serif" font-size="10.00">Modules/ITS/src/Trending</text>
<text text-anchor="middle" x="1060.5" y="-7.5" font-family="Helvetica,sans-Serif" font-size="10.00">TaskITSThr.cxx</text>
</a>
</g>
</g>
<!-- Node1&#45;&gt;Node8 -->
<g id="edge7" class="edge"><title>Node1&#45;&gt;Node8</title>
<path fill="none" stroke="midnightblue" d="M650.073,-73.6707C734.17,-64.9741 870.552,-49.6687 987.5,-31 990.18,-30.5723 992.911,-30.1171 995.667,-29.642"/>
<polygon fill="midnightblue" stroke="midnightblue" points="649.67,-70.1935 640.081,-74.6982 650.387,-77.1568 649.67,-70.1935"/>
</g>
</g>
</svg>
