<?xml version="1.0" encoding="UTF-8" standalone="no"?>
<!DOCTYPE svg PUBLIC "-//W3C//DTD SVG 1.1//EN"
 "http://www.w3.org/Graphics/SVG/1.1/DTD/svg11.dtd">
<!-- Generated by graphviz version 2.38.0 (20140413.2041)
 -->
<!-- Title: Modules/MFT/src/runDigitsRootFileReaderMFT.cxx Pages: 1 -->
<svg width="1157pt" height="95pt"
 viewBox="0.00 0.00 1156.50 95.00" xmlns="http://www.w3.org/2000/svg" xmlns:xlink="http://www.w3.org/1999/xlink">
<g id="graph0" class="graph" transform="scale(1 1) rotate(0) translate(4 91)">
<title>Modules/MFT/src/runDigitsRootFileReaderMFT.cxx</title>
<!-- Node1 -->
<g id="node1" class="node"><title>Node1</title>
<polygon fill="#bfbfbf" stroke="black" points="365.5,-56.5 365.5,-86.5 500.5,-86.5 500.5,-56.5 365.5,-56.5"/>
<text text-anchor="start" x="373.5" y="-74.5" font-family="Helvetica,sans-Serif" font-size="10.00">Modules/MFT/src/runDigits</text>
<text text-anchor="middle" x="433" y="-63.5" font-family="Helvetica,sans-Serif" font-size="10.00">RootFileReaderMFT.cxx</text>
</g>
<!-- Node2 -->
<g id="node2" class="node"><title>Node2</title>
<polygon fill="none" stroke="#bfbfbf" points="0,-0.5 0,-19.5 44,-19.5 44,-0.5 0,-0.5"/>
<text text-anchor="middle" x="22" y="-7.5" font-family="Helvetica,sans-Serif" font-size="10.00">vector</text>
</g>
<!-- Node1&#45;&gt;Node2 -->
<g id="edge1" class="edge"><title>Node1&#45;&gt;Node2</title>
<path fill="none" stroke="midnightblue" d="M365.21,-64.5964C290.958,-57.4332 168.302,-43.5568 54.203,-19.9803"/>
<polygon fill="midnightblue" stroke="midnightblue" points="54.7551,-16.52 44.2498,-17.894 53.319,-23.3711 54.7551,-16.52"/>
</g>
<!-- Node3 -->
<g id="node3" class="node"><title>Node3</title>
<polygon fill="none" stroke="#bfbfbf" points="62.5,-0.5 62.5,-19.5 109.5,-19.5 109.5,-0.5 62.5,-0.5"/>
<text text-anchor="middle" x="86" y="-7.5" font-family="Helvetica,sans-Serif" font-size="10.00">TFile.h</text>
</g>
<!-- Node1&#45;&gt;Node3 -->
<g id="edge2" class="edge"><title>Node1&#45;&gt;Node3</title>
<path fill="none" stroke="midnightblue" d="M365.233,-61.7326C303.619,-53.2765 210.052,-39.2275 119.593,-19.925"/>
<polygon fill="midnightblue" stroke="midnightblue" points="120.232,-16.4824 109.719,-17.7941 118.755,-23.3249 120.232,-16.4824"/>
</g>
<!-- Node4 -->
<g id="node4" class="node"><title>Node4</title>
<polygon fill="none" stroke="#bfbfbf" points="128,-0.5 128,-19.5 178,-19.5 178,-0.5 128,-0.5"/>
<text text-anchor="middle" x="153" y="-7.5" font-family="Helvetica,sans-Serif" font-size="10.00">TTree.h</text>
</g>
<!-- Node1&#45;&gt;Node4 -->
<g id="edge3" class="edge"><title>Node1&#45;&gt;Node4</title>
<path fill="none" stroke="midnightblue" d="M365.431,-57.6929C318.301,-48.5142 253.734,-35.453 188.294,-20.2075"/>
<polygon fill="midnightblue" stroke="midnightblue" points="188.746,-16.7187 178.211,-17.8426 187.148,-23.5337 188.746,-16.7187"/>
</g>
<!-- Node5 -->
<g id="node5" class="node"><title>Node5</title>
<polygon fill="none" stroke="#bfbfbf" points="196,-0.5 196,-19.5 344,-19.5 344,-0.5 196,-0.5"/>
<text text-anchor="middle" x="270" y="-7.5" font-family="Helvetica,sans-Serif" font-size="10.00">Framework/CallbackService.h</text>
</g>
<!-- Node1&#45;&gt;Node5 -->
<g id="edge4" class="edge"><title>Node1&#45;&gt;Node5</title>
<path fill="none" stroke="midnightblue" d="M394.371,-56.3993C366.656,-46.2826 329.695,-32.7905 303.283,-23.1493"/>
<polygon fill="midnightblue" stroke="midnightblue" points="304.312,-19.799 293.718,-19.6578 301.911,-26.3746 304.312,-19.799"/>
</g>
<!-- Node6 -->
<g id="node6" class="node"><title>Node6</title>
<polygon fill="none" stroke="#bfbfbf" points="362.5,-0.5 362.5,-19.5 503.5,-19.5 503.5,-0.5 362.5,-0.5"/>
<text text-anchor="middle" x="433" y="-7.5" font-family="Helvetica,sans-Serif" font-size="10.00">Framework/ControlService.h</text>
</g>
<!-- Node1&#45;&gt;Node6 -->
<g id="edge5" class="edge"><title>Node1&#45;&gt;Node6</title>
<path fill="none" stroke="midnightblue" d="M433,-56.3993C433,-48.4664 433,-38.458 433,-29.8583"/>
<polygon fill="midnightblue" stroke="midnightblue" points="436.5,-29.6577 433,-19.6578 429.5,-29.6578 436.5,-29.6577"/>
</g>
<!-- Node7 -->
<g id="node7" class="node"><title>Node7</title>
<polygon fill="none" stroke="#bfbfbf" points="522,-0.5 522,-19.5 682,-19.5 682,-0.5 522,-0.5"/>
<text text-anchor="middle" x="602" y="-7.5" font-family="Helvetica,sans-Serif" font-size="10.00">Framework/runDataProcessing.h</text>
</g>
<!-- Node1&#45;&gt;Node7 -->
<g id="edge6" class="edge"><title>Node1&#45;&gt;Node7</title>
<path fill="none" stroke="midnightblue" d="M473.051,-56.3993C501.912,-46.238 540.445,-32.6716 567.853,-23.0221"/>
<polygon fill="midnightblue" stroke="midnightblue" points="569.139,-26.2801 577.409,-19.6578 566.814,-19.6774 569.139,-26.2801"/>
</g>
<!-- Node8 -->
<g id="node8" class="node"><title>Node8</title>
<polygon fill="none" stroke="#bfbfbf" points="700,-0.5 700,-19.5 798,-19.5 798,-0.5 700,-0.5"/>
<text text-anchor="middle" x="749" y="-7.5" font-family="Helvetica,sans-Serif" font-size="10.00">Framework/Task.h</text>
</g>
<!-- Node1&#45;&gt;Node8 -->
<g id="edge7" class="edge"><title>Node1&#45;&gt;Node8</title>
<path fill="none" stroke="midnightblue" d="M500.79,-57.7358C558.375,-46.893 640.002,-31.5233 693.702,-21.4122"/>
<polygon fill="midnightblue" stroke="midnightblue" points="694.543,-24.8154 703.722,-19.5254 693.247,-17.9363 694.543,-24.8154"/>
</g>
<!-- Node9 -->
<g id="node9" class="node"><title>Node9</title>
<polygon fill="none" stroke="#bfbfbf" points="816.5,-0.5 816.5,-19.5 957.5,-19.5 957.5,-0.5 816.5,-0.5"/>
<text text-anchor="middle" x="887" y="-7.5" font-family="Helvetica,sans-Serif" font-size="10.00">DataFormatsITSMFT/Digit.h</text>
</g>
<!-- Node1&#45;&gt;Node9 -->
<g id="edge8" class="edge"><title>Node1&#45;&gt;Node9</title>
<path fill="none" stroke="midnightblue" d="M500.968,-61.5922C584.368,-50.6622 725.321,-32.1892 811.867,-20.8468"/>
<polygon fill="midnightblue" stroke="midnightblue" points="812.424,-24.3038 821.884,-19.5339 811.514,-17.3631 812.424,-24.3038"/>
</g>
<!-- Node10 -->
<g id="node10" class="node"><title>Node10</title>
<polygon fill="none" stroke="#bfbfbf" points="975.5,-0.5 975.5,-19.5 1148.5,-19.5 1148.5,-0.5 975.5,-0.5"/>
<text text-anchor="middle" x="1062" y="-7.5" font-family="Helvetica,sans-Serif" font-size="10.00">DataFormatsITSMFT/ROFRecord.h</text>
</g>
<!-- Node1&#45;&gt;Node10 -->
<g id="edge9" class="edge"><title>Node1&#45;&gt;Node10</title>
<path fill="none" stroke="midnightblue" d="M500.858,-64.0863C600.35,-54.682 791.957,-36.5675 965.21,-20.1693"/>
<polygon fill="midnightblue" stroke="midnightblue" points="965.653,-23.6431 975.279,-19.2163 964.993,-16.6743 965.653,-23.6431"/>
</g>
</g>
</svg>
