<?xml version="1.0" encoding="UTF-8" standalone="no"?>
<!DOCTYPE svg PUBLIC "-//W3C//DTD SVG 1.1//EN"
 "http://www.w3.org/Graphics/SVG/1.1/DTD/svg11.dtd">
<!-- Generated by graphviz version 2.38.0 (20140413.2041)
 -->
<!-- Title: Framework/src/runDataProducerExample.cxx Pages: 1 -->
<svg width="575pt" height="162pt"
 viewBox="0.00 0.00 575.00 162.00" xmlns="http://www.w3.org/2000/svg" xmlns:xlink="http://www.w3.org/1999/xlink">
<g id="graph0" class="graph" transform="scale(1 1) rotate(0) translate(4 158)">
<title>Framework/src/runDataProducerExample.cxx</title>
<!-- Node1 -->
<g id="node1" class="node"><title>Node1</title>
<polygon fill="#bfbfbf" stroke="black" points="149,-123.5 149,-153.5 307,-153.5 307,-123.5 149,-123.5"/>
<text text-anchor="start" x="157" y="-141.5" font-family="Helvetica,sans-Serif" font-size="10.00">Framework/src/runDataProducer</text>
<text text-anchor="middle" x="228" y="-130.5" font-family="Helvetica,sans-Serif" font-size="10.00">Example.cxx</text>
</g>
<!-- Node2 -->
<g id="node2" class="node"><title>Node2</title>
<polygon fill="none" stroke="#bfbfbf" points="-3.55271e-15,-62 -3.55271e-15,-81 44,-81 44,-62 -3.55271e-15,-62"/>
<text text-anchor="middle" x="22" y="-69" font-family="Helvetica,sans-Serif" font-size="10.00">vector</text>
</g>
<!-- Node1&#45;&gt;Node2 -->
<g id="edge1" class="edge"><title>Node1&#45;&gt;Node2</title>
<path fill="none" stroke="midnightblue" d="M170.917,-123.449C136.353,-114.347 91.6322,-101.507 53,-87 51.5747,-86.4648 50.124,-85.8914 48.6675,-85.2929"/>
<polygon fill="midnightblue" stroke="midnightblue" points="49.7372,-81.9398 39.1744,-81.1162 46.9181,-88.347 49.7372,-81.9398"/>
</g>
<!-- Node3 -->
<g id="node3" class="node"><title>Node3</title>
<polygon fill="none" stroke="#bfbfbf" points="62,-62 62,-81 218,-81 218,-62 62,-62"/>
<text text-anchor="middle" x="140" y="-69" font-family="Helvetica,sans-Serif" font-size="10.00">Framework/ConfigParamSpec.h</text>
</g>
<!-- Node1&#45;&gt;Node3 -->
<g id="edge2" class="edge"><title>Node1&#45;&gt;Node3</title>
<path fill="none" stroke="midnightblue" d="M208.905,-123.396C194.421,-112.697 174.568,-98.0334 159.892,-87.193"/>
<polygon fill="midnightblue" stroke="midnightblue" points="161.64,-84.1331 151.517,-81.007 157.481,-89.7637 161.64,-84.1331"/>
</g>
<!-- Node4 -->
<g id="node4" class="node"><title>Node4</title>
<polygon fill="none" stroke="#bfbfbf" points="236,-62 236,-81 396,-81 396,-62 236,-62"/>
<text text-anchor="middle" x="316" y="-69" font-family="Helvetica,sans-Serif" font-size="10.00">Framework/runDataProcessing.h</text>
</g>
<!-- Node1&#45;&gt;Node4 -->
<g id="edge3" class="edge"><title>Node1&#45;&gt;Node4</title>
<path fill="none" stroke="midnightblue" d="M247.095,-123.396C261.579,-112.697 281.432,-98.0334 296.108,-87.193"/>
<polygon fill="midnightblue" stroke="midnightblue" points="298.519,-89.7637 304.483,-81.007 294.36,-84.1331 298.519,-89.7637"/>
</g>
<!-- Node5 -->
<g id="node5" class="node"><title>Node5</title>
<g id="a_node5"><a xlink:href="DataProducerExample_8h.html" target="_top" xlink:title="QualityControl/DataProducer\lExample.h">
<polygon fill="none" stroke="black" points="414,-56.5 414,-86.5 556,-86.5 556,-56.5 414,-56.5"/>
<text text-anchor="start" x="422" y="-74.5" font-family="Helvetica,sans-Serif" font-size="10.00">QualityControl/DataProducer</text>
<text text-anchor="middle" x="485" y="-63.5" font-family="Helvetica,sans-Serif" font-size="10.00">Example.h</text>
</a>
</g>
</g>
<!-- Node1&#45;&gt;Node5 -->
<g id="edge4" class="edge"><title>Node1&#45;&gt;Node5</title>
<path fill="none" stroke="midnightblue" d="M283.449,-123.476C323.339,-113.387 377.292,-99.7413 419.338,-89.1071"/>
<polygon fill="midnightblue" stroke="midnightblue" points="420.371,-92.4561 429.208,-86.6109 418.655,-85.6698 420.371,-92.4561"/>
</g>
<!-- Node6 -->
<g id="node6" class="node"><title>Node6</title>
<polygon fill="none" stroke="#bfbfbf" points="403,-0.5 403,-19.5 567,-19.5 567,-0.5 403,-0.5"/>
<text text-anchor="middle" x="485" y="-7.5" font-family="Helvetica,sans-Serif" font-size="10.00">Framework/DataProcessorSpec.h</text>
</g>
<!-- Node5&#45;&gt;Node6 -->
<g id="edge5" class="edge"><title>Node5&#45;&gt;Node6</title>
<path fill="none" stroke="midnightblue" d="M485,-56.3993C485,-48.4664 485,-38.458 485,-29.8583"/>
<polygon fill="midnightblue" stroke="midnightblue" points="488.5,-29.6577 485,-19.6578 481.5,-29.6578 488.5,-29.6577"/>
</g>
</g>
</svg>
