<?xml version="1.0" encoding="UTF-8" standalone="no"?>
<!DOCTYPE svg PUBLIC "-//W3C//DTD SVG 1.1//EN"
 "http://www.w3.org/Graphics/SVG/1.1/DTD/svg11.dtd">
<!-- Generated by graphviz version 2.38.0 (20140413.2041)
 -->
<!-- Title: Framework/src/runDataDump.cxx Pages: 1 -->
<svg width="310pt" height="140pt"
 viewBox="0.00 0.00 309.50 140.00" xmlns="http://www.w3.org/2000/svg" xmlns:xlink="http://www.w3.org/1999/xlink">
<g id="graph0" class="graph" transform="scale(1 1) rotate(0) translate(4 136)">
<title>Framework/src/runDataDump.cxx</title>
<!-- Node1 -->
<g id="node1" class="node"><title>Node1</title>
<polygon fill="#bfbfbf" stroke="black" points="74,-112.5 74,-131.5 238,-131.5 238,-112.5 74,-112.5"/>
<text text-anchor="middle" x="156" y="-119.5" font-family="Helvetica,sans-Serif" font-size="10.00">Framework/src/runDataDump.cxx</text>
</g>
<!-- Node2 -->
<g id="node2" class="node"><title>Node2</title>
<g id="a_node2"><a xlink:href="DataDumpGui_8h.html" target="_top" xlink:title="QualityControl/DataDumpGui.h">
<polygon fill="none" stroke="black" points="0,-56.5 0,-75.5 152,-75.5 152,-56.5 0,-56.5"/>
<text text-anchor="middle" x="76" y="-63.5" font-family="Helvetica,sans-Serif" font-size="10.00">QualityControl/DataDumpGui.h</text>
</a>
</g>
</g>
<!-- Node1&#45;&gt;Node2 -->
<g id="edge1" class="edge"><title>Node1&#45;&gt;Node2</title>
<path fill="none" stroke="midnightblue" d="M143.147,-112.324C130.784,-103.979 111.87,-91.2122 97.2628,-81.3524"/>
<polygon fill="midnightblue" stroke="midnightblue" points="99.0682,-78.3483 88.8215,-75.6545 95.1518,-84.1503 99.0682,-78.3483"/>
</g>
<!-- Node5 -->
<g id="node5" class="node"><title>Node5</title>
<polygon fill="none" stroke="#bfbfbf" points="170.5,-56.5 170.5,-75.5 301.5,-75.5 301.5,-56.5 170.5,-56.5"/>
<text text-anchor="middle" x="236" y="-63.5" font-family="Helvetica,sans-Serif" font-size="10.00">fairmq/runFairMQDevice.h</text>
</g>
<!-- Node1&#45;&gt;Node5 -->
<g id="edge4" class="edge"><title>Node1&#45;&gt;Node5</title>
<path fill="none" stroke="midnightblue" d="M168.853,-112.324C181.216,-103.979 200.13,-91.2122 214.737,-81.3524"/>
<polygon fill="midnightblue" stroke="midnightblue" points="216.848,-84.1503 223.179,-75.6545 212.932,-78.3483 216.848,-84.1503"/>
</g>
<!-- Node3 -->
<g id="node3" class="node"><title>Node3</title>
<polygon fill="none" stroke="#bfbfbf" points="6.5,-0.5 6.5,-19.5 47.5,-19.5 47.5,-0.5 6.5,-0.5"/>
<text text-anchor="middle" x="27" y="-7.5" font-family="Helvetica,sans-Serif" font-size="10.00">string</text>
</g>
<!-- Node2&#45;&gt;Node3 -->
<g id="edge2" class="edge"><title>Node2&#45;&gt;Node3</title>
<path fill="none" stroke="midnightblue" d="M67.9086,-56.083C60.8446,-48.2982 50.4124,-36.8015 41.8511,-27.3665"/>
<polygon fill="midnightblue" stroke="midnightblue" points="44.2527,-24.8047 34.9408,-19.7511 39.0688,-29.5087 44.2527,-24.8047"/>
</g>
<!-- Node4 -->
<g id="node4" class="node"><title>Node4</title>
<polygon fill="none" stroke="#bfbfbf" points="66,-0.5 66,-19.5 184,-19.5 184,-0.5 66,-0.5"/>
<text text-anchor="middle" x="125" y="-7.5" font-family="Helvetica,sans-Serif" font-size="10.00">fairmq/FairMQDevice.h</text>
</g>
<!-- Node2&#45;&gt;Node4 -->
<g id="edge3" class="edge"><title>Node2&#45;&gt;Node4</title>
<path fill="none" stroke="midnightblue" d="M84.0914,-56.083C91.1554,-48.2982 101.588,-36.8015 110.149,-27.3665"/>
<polygon fill="midnightblue" stroke="midnightblue" points="112.931,-29.5087 117.059,-19.7511 107.747,-24.8047 112.931,-29.5087"/>
</g>
</g>
</svg>
