<?xml version="1.0" encoding="UTF-8" standalone="no"?>
<!DOCTYPE svg PUBLIC "-//W3C//DTD SVG 1.1//EN"
 "http://www.w3.org/Graphics/SVG/1.1/DTD/svg11.dtd">
<!-- Generated by graphviz version 2.38.0 (20140413.2041)
 -->
<!-- Title: Framework/src/runHistoProducer.cxx Pages: 1 -->
<svg width="652pt" height="140pt"
 viewBox="0.00 0.00 652.00 140.00" xmlns="http://www.w3.org/2000/svg" xmlns:xlink="http://www.w3.org/1999/xlink">
<g id="graph0" class="graph" transform="scale(1 1) rotate(0) translate(4 136)">
<title>Framework/src/runHistoProducer.cxx</title>
<!-- Node1 -->
<g id="node1" class="node"><title>Node1</title>
<polygon fill="#bfbfbf" stroke="black" points="173.5,-112.5 173.5,-131.5 352.5,-131.5 352.5,-112.5 173.5,-112.5"/>
<text text-anchor="middle" x="263" y="-119.5" font-family="Helvetica,sans-Serif" font-size="10.00">Framework/src/runHistoProducer.cxx</text>
</g>
<!-- Node2 -->
<g id="node2" class="node"><title>Node2</title>
<polygon fill="none" stroke="#bfbfbf" points="-3.55271e-15,-56.5 -3.55271e-15,-75.5 44,-75.5 44,-56.5 -3.55271e-15,-56.5"/>
<text text-anchor="middle" x="22" y="-63.5" font-family="Helvetica,sans-Serif" font-size="10.00">vector</text>
</g>
<!-- Node1&#45;&gt;Node2 -->
<g id="edge1" class="edge"><title>Node1&#45;&gt;Node2</title>
<path fill="none" stroke="midnightblue" d="M218.541,-112.433C178.054,-104.416 116.42,-91.6789 54.2744,-76.1897"/>
<polygon fill="midnightblue" stroke="midnightblue" points="54.8509,-72.7258 44.2991,-73.6804 53.1432,-79.5143 54.8509,-72.7258"/>
</g>
<!-- Node3 -->
<g id="node3" class="node"><title>Node3</title>
<polygon fill="none" stroke="#bfbfbf" points="62,-56.5 62,-75.5 218,-75.5 218,-56.5 62,-56.5"/>
<text text-anchor="middle" x="140" y="-63.5" font-family="Helvetica,sans-Serif" font-size="10.00">Framework/ConfigParamSpec.h</text>
</g>
<!-- Node1&#45;&gt;Node3 -->
<g id="edge2" class="edge"><title>Node1&#45;&gt;Node3</title>
<path fill="none" stroke="midnightblue" d="M243.51,-112.444C223.358,-103.596 191.677,-89.6875 168.669,-79.5865"/>
<polygon fill="midnightblue" stroke="midnightblue" points="169.962,-76.3316 159.399,-75.5164 167.148,-82.7411 169.962,-76.3316"/>
</g>
<!-- Node4 -->
<g id="node4" class="node"><title>Node4</title>
<polygon fill="none" stroke="#bfbfbf" points="236,-56.5 236,-75.5 290,-75.5 290,-56.5 236,-56.5"/>
<text text-anchor="middle" x="263" y="-63.5" font-family="Helvetica,sans-Serif" font-size="10.00">iostream</text>
</g>
<!-- Node1&#45;&gt;Node4 -->
<g id="edge3" class="edge"><title>Node1&#45;&gt;Node4</title>
<path fill="none" stroke="midnightblue" d="M263,-112.083C263,-105.006 263,-94.8611 263,-85.9865"/>
<polygon fill="midnightblue" stroke="midnightblue" points="266.5,-85.751 263,-75.7511 259.5,-85.7511 266.5,-85.751"/>
</g>
<!-- Node5 -->
<g id="node5" class="node"><title>Node5</title>
<polygon fill="none" stroke="#bfbfbf" points="308,-56.5 308,-75.5 468,-75.5 468,-56.5 308,-56.5"/>
<text text-anchor="middle" x="388" y="-63.5" font-family="Helvetica,sans-Serif" font-size="10.00">Framework/runDataProcessing.h</text>
</g>
<!-- Node1&#45;&gt;Node5 -->
<g id="edge4" class="edge"><title>Node1&#45;&gt;Node5</title>
<path fill="none" stroke="midnightblue" d="M282.807,-112.444C303.287,-103.596 335.483,-89.6875 358.865,-79.5865"/>
<polygon fill="midnightblue" stroke="midnightblue" points="360.494,-82.6953 368.286,-75.5164 357.718,-76.2692 360.494,-82.6953"/>
</g>
<!-- Node6 -->
<g id="node6" class="node"><title>Node6</title>
<g id="a_node6"><a xlink:href="HistoProducer_8h.html" target="_top" xlink:title="QualityControl/HistoProducer.h">
<polygon fill="none" stroke="black" points="486,-56.5 486,-75.5 638,-75.5 638,-56.5 486,-56.5"/>
<text text-anchor="middle" x="562" y="-63.5" font-family="Helvetica,sans-Serif" font-size="10.00">QualityControl/HistoProducer.h</text>
</a>
</g>
</g>
<!-- Node1&#45;&gt;Node6 -->
<g id="edge5" class="edge"><title>Node1&#45;&gt;Node6</title>
<path fill="none" stroke="midnightblue" d="M310.377,-112.444C363.084,-102.925 448.229,-87.5472 504.657,-77.3563"/>
<polygon fill="midnightblue" stroke="midnightblue" points="505.625,-80.7381 514.844,-75.5164 504.381,-73.8495 505.625,-80.7381"/>
</g>
<!-- Node7 -->
<g id="node7" class="node"><title>Node7</title>
<polygon fill="none" stroke="#bfbfbf" points="480,-0.5 480,-19.5 644,-19.5 644,-0.5 480,-0.5"/>
<text text-anchor="middle" x="562" y="-7.5" font-family="Helvetica,sans-Serif" font-size="10.00">Framework/DataProcessorSpec.h</text>
</g>
<!-- Node6&#45;&gt;Node7 -->
<g id="edge6" class="edge"><title>Node6&#45;&gt;Node7</title>
<path fill="none" stroke="midnightblue" d="M562,-56.083C562,-49.0059 562,-38.8611 562,-29.9865"/>
<polygon fill="midnightblue" stroke="midnightblue" points="565.5,-29.751 562,-19.7511 558.5,-29.7511 565.5,-29.751"/>
</g>
</g>
</svg>
