<?xml version="1.0" encoding="UTF-8" standalone="no"?>
<!DOCTYPE svg PUBLIC "-//W3C//DTD SVG 1.1//EN"
 "http://www.w3.org/Graphics/SVG/1.1/DTD/svg11.dtd">
<!-- Generated by graphviz version 2.38.0 (20140413.2041)
 -->
<!-- Title: Modules/ITS/src/runITS.cxx Pages: 1 -->
<svg width="2492pt" height="274pt"
 viewBox="0.00 0.00 2491.50 274.00" xmlns="http://www.w3.org/2000/svg" xmlns:xlink="http://www.w3.org/1999/xlink">
<g id="graph0" class="graph" transform="scale(1 1) rotate(0) translate(4 270)">
<title>Modules/ITS/src/runITS.cxx</title>
<!-- Node1 -->
<g id="node1" class="node"><title>Node1</title>
<polygon fill="#bfbfbf" stroke="black" points="1699,-246.5 1699,-265.5 1839,-265.5 1839,-246.5 1699,-246.5"/>
<text text-anchor="middle" x="1769" y="-253.5" font-family="Helvetica,sans-Serif" font-size="10.00">Modules/ITS/src/runITS.cxx</text>
</g>
<!-- Node2 -->
<g id="node2" class="node"><title>Node2</title>
<polygon fill="none" stroke="#bfbfbf" points="39.5,-185 39.5,-204 190.5,-204 190.5,-185 39.5,-185"/>
<text text-anchor="middle" x="115" y="-192" font-family="Helvetica,sans-Serif" font-size="10.00">DataSampling/DataSampling.h</text>
</g>
<!-- Node1&#45;&gt;Node2 -->
<g id="edge1" class="edge"><title>Node1&#45;&gt;Node2</title>
<path fill="none" stroke="midnightblue" d="M1698.76,-254.297C1434.07,-251.442 496.94,-239.439 200,-210 189.614,-208.97 178.581,-207.426 168.023,-205.724"/>
<polygon fill="midnightblue" stroke="midnightblue" points="168.524,-202.259 158.083,-204.055 167.365,-209.163 168.524,-202.259"/>
</g>
<!-- Node3 -->
<g id="node3" class="node"><title>Node3</title>
<g id="a_node3"><a xlink:href="InfrastructureGenerator_8h.html" target="_top" xlink:title="QualityControl/Infrastructure\lGenerator.h">
<polygon fill="none" stroke="black" points="209,-179.5 209,-209.5 349,-209.5 349,-179.5 209,-179.5"/>
<text text-anchor="start" x="217" y="-197.5" font-family="Helvetica,sans-Serif" font-size="10.00">QualityControl/Infrastructure</text>
<text text-anchor="middle" x="279" y="-186.5" font-family="Helvetica,sans-Serif" font-size="10.00">Generator.h</text>
</a>
</g>
</g>
<!-- Node1&#45;&gt;Node3 -->
<g id="edge2" class="edge"><title>Node1&#45;&gt;Node3</title>
<path fill="none" stroke="midnightblue" d="M1698.64,-252.19C1451.16,-242.308 621.66,-209.183 359.282,-198.706"/>
<polygon fill="midnightblue" stroke="midnightblue" points="359.204,-195.2 349.073,-198.298 358.925,-202.195 359.204,-195.2"/>
</g>
<!-- Node8 -->
<g id="node8" class="node"><title>Node8</title>
<polygon fill="none" stroke="#bfbfbf" points="1816.5,-185 1816.5,-204 1887.5,-204 1887.5,-185 1816.5,-185"/>
<text text-anchor="middle" x="1852" y="-192" font-family="Helvetica,sans-Serif" font-size="10.00">FairLogger.h</text>
</g>
<!-- Node1&#45;&gt;Node8 -->
<g id="edge7" class="edge"><title>Node1&#45;&gt;Node8</title>
<path fill="none" stroke="midnightblue" d="M1780.89,-246.475C1794.2,-236.931 1816,-221.307 1831.96,-209.868"/>
<polygon fill="midnightblue" stroke="midnightblue" points="1834.04,-212.68 1840.13,-204.009 1829.96,-206.991 1834.04,-212.68"/>
</g>
<!-- Node9 -->
<g id="node9" class="node"><title>Node9</title>
<polygon fill="none" stroke="#bfbfbf" points="1847,-123.5 1847,-142.5 1897,-142.5 1897,-123.5 1847,-123.5"/>
<text text-anchor="middle" x="1872" y="-130.5" font-family="Helvetica,sans-Serif" font-size="10.00">TH1F.h</text>
</g>
<!-- Node1&#45;&gt;Node9 -->
<g id="edge8" class="edge"><title>Node1&#45;&gt;Node9</title>
<path fill="none" stroke="midnightblue" d="M1766.89,-246.096C1763.81,-230.865 1759.9,-199.475 1774,-179 1781.73,-167.769 1812.39,-154.75 1837.39,-145.613"/>
<polygon fill="midnightblue" stroke="midnightblue" points="1838.73,-148.85 1846.97,-142.194 1836.38,-142.257 1838.73,-148.85"/>
</g>
<!-- Node10 -->
<g id="node10" class="node"><title>Node10</title>
<polygon fill="none" stroke="#bfbfbf" points="1179,-123.5 1179,-142.5 1231,-142.5 1231,-123.5 1179,-123.5"/>
<text text-anchor="middle" x="1205" y="-130.5" font-family="Helvetica,sans-Serif" font-size="10.00">memory</text>
</g>
<!-- Node1&#45;&gt;Node10 -->
<g id="edge9" class="edge"><title>Node1&#45;&gt;Node10</title>
<path fill="none" stroke="midnightblue" d="M1698.74,-248.825C1632.29,-242.158 1530.06,-229.754 1443,-210 1367.69,-192.912 1282.02,-162.834 1236.82,-146.099"/>
<polygon fill="midnightblue" stroke="midnightblue" points="1237.88,-142.757 1227.29,-142.542 1235.43,-149.315 1237.88,-142.757"/>
</g>
<!-- Node11 -->
<g id="node11" class="node"><title>Node11</title>
<polygon fill="none" stroke="#bfbfbf" points="1905.5,-185 1905.5,-204 1954.5,-204 1954.5,-185 1905.5,-185"/>
<text text-anchor="middle" x="1930" y="-192" font-family="Helvetica,sans-Serif" font-size="10.00">random</text>
</g>
<!-- Node1&#45;&gt;Node11 -->
<g id="edge10" class="edge"><title>Node1&#45;&gt;Node11</title>
<path fill="none" stroke="midnightblue" d="M1795.2,-246.438C1821.22,-237.782 1862.16,-223.754 1897,-210 1898.6,-209.368 1900.24,-208.705 1901.89,-208.024"/>
<polygon fill="midnightblue" stroke="midnightblue" points="1903.43,-211.171 1911.26,-204.03 1900.68,-204.731 1903.43,-211.171"/>
</g>
<!-- Node12 -->
<g id="node12" class="node"><title>Node12</title>
<polygon fill="none" stroke="#bfbfbf" points="1973,-185 1973,-204 2133,-204 2133,-185 1973,-185"/>
<text text-anchor="middle" x="2053" y="-192" font-family="Helvetica,sans-Serif" font-size="10.00">Framework/runDataProcessing.h</text>
</g>
<!-- Node1&#45;&gt;Node12 -->
<g id="edge11" class="edge"><title>Node1&#45;&gt;Node12</title>
<path fill="none" stroke="midnightblue" d="M1809.69,-246.475C1860.52,-235.827 1947.47,-217.609 2002.5,-206.081"/>
<polygon fill="midnightblue" stroke="midnightblue" points="2003.32,-209.485 2012.39,-204.009 2001.88,-202.634 2003.32,-209.485"/>
</g>
<!-- Node13 -->
<g id="node13" class="node"><title>Node13</title>
<g id="a_node13"><a xlink:href="Check_8h_source.html" target="_top" xlink:title="QualityControl/Check.h">
<polygon fill="none" stroke="black" points="937.5,-185 937.5,-204 1056.5,-204 1056.5,-185 937.5,-185"/>
<text text-anchor="middle" x="997" y="-192" font-family="Helvetica,sans-Serif" font-size="10.00">QualityControl/Check.h</text>
</a>
</g>
</g>
<!-- Node1&#45;&gt;Node13 -->
<g id="edge12" class="edge"><title>Node1&#45;&gt;Node13</title>
<path fill="none" stroke="midnightblue" d="M1698.79,-249.588C1551.87,-238.265 1213.54,-212.189 1066.9,-200.887"/>
<polygon fill="midnightblue" stroke="midnightblue" points="1066.92,-197.378 1056.68,-200.099 1066.38,-204.358 1066.92,-197.378"/>
</g>
<!-- Node28 -->
<g id="node28" class="node"><title>Node28</title>
<g id="a_node28"><a xlink:href="runnerUtils_8h.html" target="_top" xlink:title="QualityControl/runnerUtils.h">
<polygon fill="none" stroke="black" points="1449.5,-67.5 1449.5,-86.5 1586.5,-86.5 1586.5,-67.5 1449.5,-67.5"/>
<text text-anchor="middle" x="1518" y="-74.5" font-family="Helvetica,sans-Serif" font-size="10.00">QualityControl/runnerUtils.h</text>
</a>
</g>
</g>
<!-- Node1&#45;&gt;Node28 -->
<g id="edge44" class="edge"><title>Node1&#45;&gt;Node28</title>
<path fill="none" stroke="midnightblue" d="M1771.16,-246.42C1775.52,-230.838 1786.79,-197.77 1808,-179 1845.57,-145.758 1939.37,-160.46 1906,-123 1885.82,-100.343 1704.21,-87.371 1596.75,-81.6164"/>
<polygon fill="midnightblue" stroke="midnightblue" points="1596.76,-78.1122 1586.59,-81.0819 1596.4,-85.1025 1596.76,-78.1122"/>
</g>
<!-- Node30 -->
<g id="node30" class="node"><title>Node30</title>
<g id="a_node30"><a xlink:href="ExamplePrinterSpec_8h.html" target="_top" xlink:title="QualityControl/ExamplePrinter\lSpec.h">
<polygon fill="none" stroke="black" points="1451.5,-179.5 1451.5,-209.5 1600.5,-209.5 1600.5,-179.5 1451.5,-179.5"/>
<text text-anchor="start" x="1459.5" y="-197.5" font-family="Helvetica,sans-Serif" font-size="10.00">QualityControl/ExamplePrinter</text>
<text text-anchor="middle" x="1526" y="-186.5" font-family="Helvetica,sans-Serif" font-size="10.00">Spec.h</text>
</a>
</g>
</g>
<!-- Node1&#45;&gt;Node30 -->
<g id="edge48" class="edge"><title>Node1&#45;&gt;Node30</title>
<path fill="none" stroke="midnightblue" d="M1734.18,-246.475C1697.51,-237.494 1638.83,-223.128 1593.11,-211.933"/>
<polygon fill="midnightblue" stroke="midnightblue" points="1593.82,-208.502 1583.27,-209.523 1592.15,-215.301 1593.82,-208.502"/>
</g>
<!-- Node34 -->
<g id="node34" class="node"><title>Node34</title>
<polygon fill="none" stroke="#bfbfbf" points="2151.5,-179.5 2151.5,-209.5 2292.5,-209.5 2292.5,-179.5 2151.5,-179.5"/>
<text text-anchor="start" x="2159.5" y="-197.5" font-family="Helvetica,sans-Serif" font-size="10.00">ITSQCDataReaderWorkflow</text>
<text text-anchor="middle" x="2222" y="-186.5" font-family="Helvetica,sans-Serif" font-size="10.00">/TestDataReader.h</text>
</g>
<!-- Node1&#45;&gt;Node34 -->
<g id="edge57" class="edge"><title>Node1&#45;&gt;Node34</title>
<path fill="none" stroke="midnightblue" d="M1839.29,-247.776C1912.2,-239.998 2029.73,-226.665 2141.29,-210.05"/>
<polygon fill="midnightblue" stroke="midnightblue" points="2142,-213.482 2151.37,-208.536 2140.96,-206.56 2142,-213.482"/>
</g>
<!-- Node35 -->
<g id="node35" class="node"><title>Node35</title>
<polygon fill="none" stroke="#bfbfbf" points="2310.5,-185 2310.5,-204 2483.5,-204 2483.5,-185 2310.5,-185"/>
<text text-anchor="middle" x="2397" y="-192" font-family="Helvetica,sans-Serif" font-size="10.00">DetectorsBase/GeometryManager.h</text>
</g>
<!-- Node1&#45;&gt;Node35 -->
<g id="edge58" class="edge"><title>Node1&#45;&gt;Node35</title>
<path fill="none" stroke="midnightblue" d="M1839.42,-250.568C1941.57,-243.797 2136.7,-229.571 2302,-210 2312.78,-208.723 2324.22,-207.159 2335.29,-205.535"/>
<polygon fill="midnightblue" stroke="midnightblue" points="2335.94,-208.976 2345.32,-204.034 2334.91,-202.053 2335.94,-208.976"/>
</g>
<!-- Node4 -->
<g id="node4" class="node"><title>Node4</title>
<polygon fill="none" stroke="#bfbfbf" points="196,-123.5 196,-142.5 240,-142.5 240,-123.5 196,-123.5"/>
<text text-anchor="middle" x="218" y="-130.5" font-family="Helvetica,sans-Serif" font-size="10.00">vector</text>
</g>
<!-- Node3&#45;&gt;Node4 -->
<g id="edge3" class="edge"><title>Node3&#45;&gt;Node4</title>
<path fill="none" stroke="midnightblue" d="M264.544,-179.399C255.406,-170.486 243.581,-158.952 234.138,-149.741"/>
<polygon fill="midnightblue" stroke="midnightblue" points="236.478,-147.135 226.876,-142.658 231.591,-152.146 236.478,-147.135"/>
</g>
<!-- Node5 -->
<g id="node5" class="node"><title>Node5</title>
<polygon fill="none" stroke="#bfbfbf" points="940.5,-6 940.5,-25 981.5,-25 981.5,-6 940.5,-6"/>
<text text-anchor="middle" x="961" y="-13" font-family="Helvetica,sans-Serif" font-size="10.00">string</text>
</g>
<!-- Node3&#45;&gt;Node5 -->
<g id="edge4" class="edge"><title>Node3&#45;&gt;Node5</title>
<path fill="none" stroke="midnightblue" d="M233.822,-179.386C203.509,-167.322 171.698,-147.961 187,-123 215.672,-76.2294 244.178,-81.8125 297,-67 418.587,-32.9041 816.175,-20.2256 930.186,-17.24"/>
<polygon fill="midnightblue" stroke="midnightblue" points="930.408,-20.7355 940.315,-16.9809 930.229,-13.7378 930.408,-20.7355"/>
</g>
<!-- Node6 -->
<g id="node6" class="node"><title>Node6</title>
<polygon fill="none" stroke="#bfbfbf" points="0,-123.5 0,-142.5 140,-142.5 140,-123.5 0,-123.5"/>
<text text-anchor="middle" x="70" y="-130.5" font-family="Helvetica,sans-Serif" font-size="10.00">Framework/WorkflowSpec.h</text>
</g>
<!-- Node3&#45;&gt;Node6 -->
<g id="edge5" class="edge"><title>Node3&#45;&gt;Node6</title>
<path fill="none" stroke="midnightblue" d="M229.735,-179.475C193.048,-169.03 143.616,-154.958 109.506,-145.247"/>
<polygon fill="midnightblue" stroke="midnightblue" points="110.456,-141.878 99.8795,-142.506 108.539,-148.611 110.456,-141.878"/>
</g>
<!-- Node7 -->
<g id="node7" class="node"><title>Node7</title>
<polygon fill="none" stroke="#bfbfbf" points="258,-123.5 258,-142.5 422,-142.5 422,-123.5 258,-123.5"/>
<text text-anchor="middle" x="340" y="-130.5" font-family="Helvetica,sans-Serif" font-size="10.00">Framework/DataProcessorSpec.h</text>
</g>
<!-- Node3&#45;&gt;Node7 -->
<g id="edge6" class="edge"><title>Node3&#45;&gt;Node7</title>
<path fill="none" stroke="midnightblue" d="M293.456,-179.399C302.594,-170.486 314.419,-158.952 323.862,-149.741"/>
<polygon fill="midnightblue" stroke="midnightblue" points="326.409,-152.146 331.124,-142.658 321.522,-147.135 326.409,-152.146"/>
</g>
<!-- Node13&#45;&gt;Node4 -->
<g id="edge15" class="edge"><title>Node13&#45;&gt;Node4</title>
<path fill="none" stroke="midnightblue" d="M937.327,-193.805C811.509,-193.514 509.919,-187.897 250.213,-142.829"/>
<polygon fill="midnightblue" stroke="midnightblue" points="250.671,-139.355 240.216,-141.07 249.458,-146.25 250.671,-139.355"/>
</g>
<!-- Node13&#45;&gt;Node7 -->
<g id="edge18" class="edge"><title>Node13&#45;&gt;Node7</title>
<path fill="none" stroke="midnightblue" d="M937.496,-188.38C836.159,-179.619 623.308,-161.037 432.554,-143.139"/>
<polygon fill="midnightblue" stroke="midnightblue" points="432.62,-139.63 422.336,-142.179 431.965,-146.599 432.62,-139.63"/>
</g>
<!-- Node13&#45;&gt;Node10 -->
<g id="edge16" class="edge"><title>Node13&#45;&gt;Node10</title>
<path fill="none" stroke="midnightblue" d="M1026.8,-184.975C1064.39,-174.222 1128.97,-155.749 1169.2,-144.242"/>
<polygon fill="midnightblue" stroke="midnightblue" points="1170.22,-147.59 1178.87,-141.475 1168.29,-140.86 1170.22,-147.59"/>
</g>
<!-- Node14 -->
<g id="node14" class="node"><title>Node14</title>
<polygon fill="none" stroke="#bfbfbf" points="1025.5,-123.5 1025.5,-142.5 1084.5,-142.5 1084.5,-123.5 1025.5,-123.5"/>
<text text-anchor="middle" x="1055" y="-130.5" font-family="Helvetica,sans-Serif" font-size="10.00">functional</text>
</g>
<!-- Node13&#45;&gt;Node14 -->
<g id="edge13" class="edge"><title>Node13&#45;&gt;Node14</title>
<path fill="none" stroke="midnightblue" d="M1005.31,-184.975C1014.18,-175.873 1028.45,-161.241 1039.42,-149.983"/>
<polygon fill="midnightblue" stroke="midnightblue" points="1042.23,-152.113 1046.71,-142.509 1037.22,-147.227 1042.23,-152.113"/>
</g>
<!-- Node15 -->
<g id="node15" class="node"><title>Node15</title>
<polygon fill="none" stroke="#bfbfbf" points="1130.5,-6 1130.5,-25 1165.5,-25 1165.5,-6 1130.5,-6"/>
<text text-anchor="middle" x="1148" y="-13" font-family="Helvetica,sans-Serif" font-size="10.00">map</text>
</g>
<!-- Node13&#45;&gt;Node15 -->
<g id="edge14" class="edge"><title>Node13&#45;&gt;Node15</title>
<path fill="none" stroke="midnightblue" d="M1024.47,-184.967C1045.87,-177.087 1075.03,-163.475 1094,-143 1109.31,-126.467 1131.4,-65.5483 1141.95,-34.6815"/>
<polygon fill="midnightblue" stroke="midnightblue" points="1145.29,-35.7329 1145.17,-25.1388 1138.65,-33.495 1145.29,-35.7329"/>
</g>
<!-- Node16 -->
<g id="node16" class="node"><title>Node16</title>
<polygon fill="none" stroke="#bfbfbf" points="741.5,-67.5 741.5,-86.5 824.5,-86.5 824.5,-67.5 741.5,-67.5"/>
<text text-anchor="middle" x="783" y="-74.5" font-family="Helvetica,sans-Serif" font-size="10.00">unordered_map</text>
</g>
<!-- Node13&#45;&gt;Node16 -->
<g id="edge17" class="edge"><title>Node13&#45;&gt;Node16</title>
<path fill="none" stroke="midnightblue" d="M937.096,-192.978C894.147,-189.406 837.779,-177.688 802,-143 789.611,-130.989 785.183,-111.386 783.659,-96.8437"/>
<polygon fill="midnightblue" stroke="midnightblue" points="787.127,-96.25 782.963,-86.5077 780.143,-96.7203 787.127,-96.25"/>
</g>
<!-- Node17 -->
<g id="node17" class="node"><title>Node17</title>
<g id="a_node17"><a xlink:href="Quality_8h.html" target="_top" xlink:title="QualityControl/Quality.h">
<polygon fill="none" stroke="black" points="963.5,-67.5 963.5,-86.5 1084.5,-86.5 1084.5,-67.5 963.5,-67.5"/>
<text text-anchor="middle" x="1024" y="-74.5" font-family="Helvetica,sans-Serif" font-size="10.00">QualityControl/Quality.h</text>
</a>
</g>
</g>
<!-- Node13&#45;&gt;Node17 -->
<g id="edge19" class="edge"><title>Node13&#45;&gt;Node17</title>
<path fill="none" stroke="midnightblue" d="M999.029,-184.819C1003.39,-166.173 1013.73,-121.943 1019.64,-96.6317"/>
<polygon fill="midnightblue" stroke="midnightblue" points="1023.08,-97.3162 1021.95,-86.782 1016.26,-95.7228 1023.08,-97.3162"/>
</g>
<!-- Node19 -->
<g id="node19" class="node"><title>Node19</title>
<g id="a_node19"><a xlink:href="QualityObject_8h_source.html" target="_top" xlink:title="QualityControl/QualityObject.h">
<polygon fill="none" stroke="black" points="1324.5,-123.5 1324.5,-142.5 1473.5,-142.5 1473.5,-123.5 1324.5,-123.5"/>
<text text-anchor="middle" x="1399" y="-130.5" font-family="Helvetica,sans-Serif" font-size="10.00">QualityControl/QualityObject.h</text>
</a>
</g>
</g>
<!-- Node13&#45;&gt;Node19 -->
<g id="edge23" class="edge"><title>Node13&#45;&gt;Node19</title>
<path fill="none" stroke="midnightblue" d="M1054.6,-184.975C1127.73,-174.15 1253.72,-155.502 1331.36,-144.012"/>
<polygon fill="midnightblue" stroke="midnightblue" points="1332.13,-147.436 1341.51,-142.509 1331.11,-140.511 1332.13,-147.436"/>
</g>
<!-- Node22 -->
<g id="node22" class="node"><title>Node22</title>
<g id="a_node22"><a xlink:href="MonitorObject_8h.html" target="_top" xlink:title="QualityControl/MonitorObject.h">
<polygon fill="none" stroke="black" points="1141.5,-67.5 1141.5,-86.5 1292.5,-86.5 1292.5,-67.5 1141.5,-67.5"/>
<text text-anchor="middle" x="1217" y="-74.5" font-family="Helvetica,sans-Serif" font-size="10.00">QualityControl/MonitorObject.h</text>
</a>
</g>
</g>
<!-- Node13&#45;&gt;Node22 -->
<g id="edge28" class="edge"><title>Node13&#45;&gt;Node22</title>
<path fill="none" stroke="midnightblue" d="M1024.79,-184.998C1051.75,-176.227 1093.39,-161.274 1127,-143 1153.53,-128.574 1181.3,-107.457 1198.85,-93.244"/>
<polygon fill="midnightblue" stroke="midnightblue" points="1201.54,-95.5672 1207.04,-86.5127 1197.09,-90.1601 1201.54,-95.5672"/>
</g>
<!-- Node23 -->
<g id="node23" class="node"><title>Node23</title>
<g id="a_node23"><a xlink:href="CheckInterface_8h.html" target="_top" xlink:title="QualityControl/CheckInterface.h">
<polygon fill="none" stroke="black" points="811.5,-123.5 811.5,-142.5 968.5,-142.5 968.5,-123.5 811.5,-123.5"/>
<text text-anchor="middle" x="890" y="-130.5" font-family="Helvetica,sans-Serif" font-size="10.00">QualityControl/CheckInterface.h</text>
</a>
</g>
</g>
<!-- Node13&#45;&gt;Node23 -->
<g id="edge34" class="edge"><title>Node13&#45;&gt;Node23</title>
<path fill="none" stroke="midnightblue" d="M981.67,-184.975C964.03,-175.166 934.84,-158.935 914.142,-147.425"/>
<polygon fill="midnightblue" stroke="midnightblue" points="915.743,-144.31 905.302,-142.509 912.341,-150.428 915.743,-144.31"/>
</g>
<!-- Node24 -->
<g id="node24" class="node"><title>Node24</title>
<g id="a_node24"><a xlink:href="QcInfoLogger_8h.html" target="_top" xlink:title="QualityControl/QcInfoLogger.h">
<polygon fill="none" stroke="black" points="440.5,-123.5 440.5,-142.5 589.5,-142.5 589.5,-123.5 440.5,-123.5"/>
<text text-anchor="middle" x="515" y="-130.5" font-family="Helvetica,sans-Serif" font-size="10.00">QualityControl/QcInfoLogger.h</text>
</a>
</g>
</g>
<!-- Node13&#45;&gt;Node24 -->
<g id="edge38" class="edge"><title>Node13&#45;&gt;Node24</title>
<path fill="none" stroke="midnightblue" d="M937.414,-186.144C850.933,-175.469 690.478,-155.662 594.154,-143.771"/>
<polygon fill="midnightblue" stroke="midnightblue" points="594.528,-140.291 584.175,-142.539 593.67,-147.238 594.528,-140.291"/>
</g>
<!-- Node27 -->
<g id="node27" class="node"><title>Node27</title>
<g id="a_node27"><a xlink:href="CheckConfig_8h.html" target="_top" xlink:title="QualityControl/CheckConfig.h">
<polygon fill="none" stroke="black" points="607.5,-123.5 607.5,-142.5 754.5,-142.5 754.5,-123.5 607.5,-123.5"/>
<text text-anchor="middle" x="681" y="-130.5" font-family="Helvetica,sans-Serif" font-size="10.00">QualityControl/CheckConfig.h</text>
</a>
</g>
</g>
<!-- Node13&#45;&gt;Node27 -->
<g id="edge41" class="edge"><title>Node13&#45;&gt;Node27</title>
<path fill="none" stroke="midnightblue" d="M951.725,-184.975C894.821,-174.261 797.214,-155.882 736.053,-144.366"/>
<polygon fill="midnightblue" stroke="midnightblue" points="736.666,-140.92 726.191,-142.509 735.371,-147.799 736.666,-140.92"/>
</g>
<!-- Node17&#45;&gt;Node5 -->
<g id="edge21" class="edge"><title>Node17&#45;&gt;Node5</title>
<path fill="none" stroke="midnightblue" d="M1014.97,-67.4751C1005.24,-58.285 989.542,-43.4563 977.577,-32.156"/>
<polygon fill="midnightblue" stroke="midnightblue" points="979.683,-29.3308 970.01,-25.0091 974.877,-34.4199 979.683,-29.3308"/>
</g>
<!-- Node17&#45;&gt;Node15 -->
<g id="edge22" class="edge"><title>Node17&#45;&gt;Node15</title>
<path fill="none" stroke="midnightblue" d="M1041.77,-67.4751C1062.48,-57.5338 1096.95,-40.9947 1120.99,-29.461"/>
<polygon fill="midnightblue" stroke="midnightblue" points="1122.77,-32.4908 1130.27,-25.0091 1119.74,-26.1797 1122.77,-32.4908"/>
</g>
<!-- Node18 -->
<g id="node18" class="node"><title>Node18</title>
<polygon fill="none" stroke="#bfbfbf" points="1026,-6 1026,-25 1082,-25 1082,-6 1026,-6"/>
<text text-anchor="middle" x="1054" y="-13" font-family="Helvetica,sans-Serif" font-size="10.00">Rtypes.h</text>
</g>
<!-- Node17&#45;&gt;Node18 -->
<g id="edge20" class="edge"><title>Node17&#45;&gt;Node18</title>
<path fill="none" stroke="midnightblue" d="M1028.3,-67.4751C1032.66,-58.8152 1039.56,-45.1486 1045.1,-34.1453"/>
<polygon fill="midnightblue" stroke="midnightblue" points="1048.33,-35.5141 1049.71,-25.0091 1042.08,-32.3625 1048.33,-35.5141"/>
</g>
<!-- Node19&#45;&gt;Node15 -->
<g id="edge24" class="edge"><title>Node19&#45;&gt;Node15</title>
<path fill="none" stroke="midnightblue" d="M1387.12,-123.443C1365.31,-107.827 1319.49,-75.5282 1302,-67 1259.74,-46.3948 1207.03,-31.172 1175.52,-23.0847"/>
<polygon fill="midnightblue" stroke="midnightblue" points="1176.25,-19.6581 1165.69,-20.6182 1174.54,-26.4475 1176.25,-19.6581"/>
</g>
<!-- Node19&#45;&gt;Node17 -->
<g id="edge27" class="edge"><title>Node19&#45;&gt;Node17</title>
<path fill="none" stroke="midnightblue" d="M1339.58,-123.444C1272.65,-113.806 1164.02,-98.1635 1093.29,-87.9782"/>
<polygon fill="midnightblue" stroke="midnightblue" points="1093.54,-84.4775 1083.14,-86.5164 1092.54,-91.4061 1093.54,-84.4775"/>
</g>
<!-- Node20 -->
<g id="node20" class="node"><title>Node20</title>
<polygon fill="none" stroke="#bfbfbf" points="1218.5,-6 1218.5,-25 1277.5,-25 1277.5,-6 1218.5,-6"/>
<text text-anchor="middle" x="1248" y="-13" font-family="Helvetica,sans-Serif" font-size="10.00">TObject.h</text>
</g>
<!-- Node19&#45;&gt;Node20 -->
<g id="edge25" class="edge"><title>Node19&#45;&gt;Node20</title>
<path fill="none" stroke="midnightblue" d="M1391.91,-123.248C1380.9,-110.004 1358.58,-84.559 1336,-67 1317.11,-52.3102 1293.49,-38.9906 1275.48,-29.7235"/>
<polygon fill="midnightblue" stroke="midnightblue" points="1276.62,-26.3796 1266.11,-25.009 1273.47,-32.632 1276.62,-26.3796"/>
</g>
<!-- Node21 -->
<g id="node21" class="node"><title>Node21</title>
<polygon fill="none" stroke="#bfbfbf" points="1328,-6 1328,-25 1444,-25 1444,-6 1328,-6"/>
<text text-anchor="middle" x="1386" y="-13" font-family="Helvetica,sans-Serif" font-size="10.00">Common/Exceptions.h</text>
</g>
<!-- Node19&#45;&gt;Node21 -->
<g id="edge26" class="edge"><title>Node19&#45;&gt;Node21</title>
<path fill="none" stroke="midnightblue" d="M1398.02,-123.319C1395.93,-104.757 1390.99,-60.8391 1388.14,-35.4734"/>
<polygon fill="midnightblue" stroke="midnightblue" points="1391.59,-34.8278 1386.99,-25.282 1384.63,-35.6108 1391.59,-34.8278"/>
</g>
<!-- Node22&#45;&gt;Node5 -->
<g id="edge29" class="edge"><title>Node22&#45;&gt;Node5</title>
<path fill="none" stroke="midnightblue" d="M1177.45,-67.4923C1137.04,-58.7085 1072.52,-44.4305 1017,-31 1008.67,-28.9856 999.676,-26.7034 991.381,-24.5557"/>
<polygon fill="midnightblue" stroke="midnightblue" points="992.264,-21.1689 981.704,-22.0297 990.496,-27.9419 992.264,-21.1689"/>
</g>
<!-- Node22&#45;&gt;Node15 -->
<g id="edge30" class="edge"><title>Node22&#45;&gt;Node15</title>
<path fill="none" stroke="midnightblue" d="M1207.11,-67.4751C1196.35,-58.1966 1178.93,-43.1706 1165.78,-31.831"/>
<polygon fill="midnightblue" stroke="midnightblue" points="1167.73,-28.889 1157.87,-25.0091 1163.16,-34.1902 1167.73,-28.889"/>
</g>
<!-- Node22&#45;&gt;Node18 -->
<g id="edge31" class="edge"><title>Node22&#45;&gt;Node18</title>
<path fill="none" stroke="midnightblue" d="M1193.65,-67.4751C1165.69,-57.2687 1118.67,-40.108 1087.01,-28.5492"/>
<polygon fill="midnightblue" stroke="midnightblue" points="1087.9,-25.1503 1077.31,-25.0091 1085.5,-31.7259 1087.9,-25.1503"/>
</g>
<!-- Node22&#45;&gt;Node20 -->
<g id="edge32" class="edge"><title>Node22&#45;&gt;Node20</title>
<path fill="none" stroke="midnightblue" d="M1221.44,-67.4751C1225.95,-58.8152 1233.07,-45.1486 1238.81,-34.1453"/>
<polygon fill="midnightblue" stroke="midnightblue" points="1242.05,-35.4948 1243.57,-25.0091 1235.84,-32.2604 1242.05,-35.4948"/>
</g>
<!-- Node22&#45;&gt;Node21 -->
<g id="edge33" class="edge"><title>Node22&#45;&gt;Node21</title>
<path fill="none" stroke="midnightblue" d="M1241.21,-67.4751C1270.33,-57.2246 1319.37,-39.9593 1352.2,-28.3994"/>
<polygon fill="midnightblue" stroke="midnightblue" points="1353.56,-31.6314 1361.83,-25.0091 1351.24,-25.0287 1353.56,-31.6314"/>
</g>
<!-- Node23&#45;&gt;Node16 -->
<g id="edge35" class="edge"><title>Node23&#45;&gt;Node16</title>
<path fill="none" stroke="midnightblue" d="M872.809,-123.324C855.649,-114.664 829.054,-101.242 809.253,-91.249"/>
<polygon fill="midnightblue" stroke="midnightblue" points="810.653,-88.0354 800.149,-86.6545 807.499,-94.2847 810.653,-88.0354"/>
</g>
<!-- Node23&#45;&gt;Node17 -->
<g id="edge37" class="edge"><title>Node23&#45;&gt;Node17</title>
<path fill="none" stroke="midnightblue" d="M911.233,-123.444C933.384,-114.517 968.319,-100.439 993.436,-90.3168"/>
<polygon fill="midnightblue" stroke="midnightblue" points="994.9,-93.5006 1002.87,-86.5164 992.283,-87.0079 994.9,-93.5006"/>
</g>
<!-- Node23&#45;&gt;Node22 -->
<g id="edge36" class="edge"><title>Node23&#45;&gt;Node22</title>
<path fill="none" stroke="midnightblue" d="M941.814,-123.444C999.815,-113.865 1093.74,-98.3556 1155.44,-88.1667"/>
<polygon fill="midnightblue" stroke="midnightblue" points="1156.13,-91.5991 1165.43,-86.5164 1154.99,-84.6926 1156.13,-91.5991"/>
</g>
<!-- Node25 -->
<g id="node25" class="node"><title>Node25</title>
<polygon fill="none" stroke="#bfbfbf" points="486,-67.5 486,-86.5 616,-86.5 616,-67.5 486,-67.5"/>
<text text-anchor="middle" x="551" y="-74.5" font-family="Helvetica,sans-Serif" font-size="10.00">InfoLogger/InfoLogger.hxx</text>
</g>
<!-- Node24&#45;&gt;Node25 -->
<g id="edge39" class="edge"><title>Node24&#45;&gt;Node25</title>
<path fill="none" stroke="midnightblue" d="M520.945,-123.083C525.977,-115.534 533.337,-104.495 539.513,-95.2298"/>
<polygon fill="midnightblue" stroke="midnightblue" points="542.531,-97.0131 545.166,-86.7511 536.707,-93.1301 542.531,-97.0131"/>
</g>
<!-- Node26 -->
<g id="node26" class="node"><title>Node26</title>
<polygon fill="none" stroke="#bfbfbf" points="306,-67.5 306,-86.5 468,-86.5 468,-67.5 306,-67.5"/>
<text text-anchor="middle" x="387" y="-74.5" font-family="Helvetica,sans-Serif" font-size="10.00">InfoLogger/InfoLoggerMacros.hxx</text>
</g>
<!-- Node24&#45;&gt;Node26 -->
<g id="edge40" class="edge"><title>Node24&#45;&gt;Node26</title>
<path fill="none" stroke="midnightblue" d="M494.718,-123.444C473.653,-114.557 440.483,-100.563 416.514,-90.4514"/>
<polygon fill="midnightblue" stroke="midnightblue" points="417.761,-87.1787 407.187,-86.5164 415.04,-93.6283 417.761,-87.1787"/>
</g>
<!-- Node27&#45;&gt;Node5 -->
<g id="edge42" class="edge"><title>Node27&#45;&gt;Node5</title>
<path fill="none" stroke="midnightblue" d="M685.288,-123.263C692.726,-109.079 709.414,-81.2005 732,-67 794.671,-27.5965 883.848,-18.691 930.257,-16.8382"/>
<polygon fill="midnightblue" stroke="midnightblue" points="930.406,-20.3353 940.291,-16.5225 930.186,-13.3388 930.406,-20.3353"/>
</g>
<!-- Node27&#45;&gt;Node16 -->
<g id="edge43" class="edge"><title>Node27&#45;&gt;Node16</title>
<path fill="none" stroke="midnightblue" d="M697.388,-123.324C713.671,-114.703 738.867,-101.364 757.716,-91.3855"/>
<polygon fill="midnightblue" stroke="midnightblue" points="759.452,-94.4267 766.653,-86.6545 756.177,-88.2402 759.452,-94.4267"/>
</g>
<!-- Node28&#45;&gt;Node5 -->
<g id="edge45" class="edge"><title>Node28&#45;&gt;Node5</title>
<path fill="none" stroke="midnightblue" d="M1449.47,-73.4001C1352.55,-68.9189 1170.17,-57.5243 1017,-31 1008.56,-29.5381 999.523,-27.4402 991.229,-25.2926"/>
<polygon fill="midnightblue" stroke="midnightblue" points="992.134,-21.9117 981.568,-22.6877 990.312,-28.6704 992.134,-21.9117"/>
</g>
<!-- Node28&#45;&gt;Node21 -->
<g id="edge47" class="edge"><title>Node28&#45;&gt;Node21</title>
<path fill="none" stroke="midnightblue" d="M1499.09,-67.4751C1476.84,-57.4455 1439.69,-40.7002 1414.07,-29.1546"/>
<polygon fill="midnightblue" stroke="midnightblue" points="1415.43,-25.9277 1404.88,-25.0091 1412.56,-32.3094 1415.43,-25.9277"/>
</g>
<!-- Node29 -->
<g id="node29" class="node"><title>Node29</title>
<polygon fill="none" stroke="#bfbfbf" points="1462.5,-0.5 1462.5,-30.5 1597.5,-30.5 1597.5,-0.5 1462.5,-0.5"/>
<text text-anchor="start" x="1470.5" y="-18.5" font-family="Helvetica,sans-Serif" font-size="10.00">Configuration/Configuration</text>
<text text-anchor="middle" x="1530" y="-7.5" font-family="Helvetica,sans-Serif" font-size="10.00">Factory.h</text>
</g>
<!-- Node28&#45;&gt;Node29 -->
<g id="edge46" class="edge"><title>Node28&#45;&gt;Node29</title>
<path fill="none" stroke="midnightblue" d="M1519.72,-67.4751C1521.15,-60.3957 1523.25,-49.9705 1525.18,-40.3896"/>
<polygon fill="midnightblue" stroke="midnightblue" points="1528.63,-41.0176 1527.17,-30.523 1521.76,-39.6336 1528.63,-41.0176"/>
</g>
<!-- Node30&#45;&gt;Node5 -->
<g id="edge49" class="edge"><title>Node30&#45;&gt;Node5</title>
<path fill="none" stroke="midnightblue" d="M1451.4,-185.203C1400.26,-177.924 1331.52,-164.965 1274,-143 1257.62,-136.746 1256.59,-128.659 1240,-123 1179.58,-102.393 997.216,-134.884 955,-87 942.591,-72.9253 947.127,-50.5469 952.804,-34.7851"/>
<polygon fill="midnightblue" stroke="midnightblue" points="956.211,-35.696 956.722,-25.1135 949.723,-33.0675 956.211,-35.696"/>
</g>
<!-- Node30&#45;&gt;Node9 -->
<g id="edge51" class="edge"><title>Node30&#45;&gt;Node9</title>
<path fill="none" stroke="midnightblue" d="M1600.77,-183.505C1661.86,-174.855 1750.61,-161.188 1836.86,-143.075"/>
<polygon fill="midnightblue" stroke="midnightblue" points="1837.76,-146.462 1846.82,-140.962 1836.31,-139.614 1837.76,-146.462"/>
</g>
<!-- Node30&#45;&gt;Node10 -->
<g id="edge50" class="edge"><title>Node30&#45;&gt;Node10</title>
<path fill="none" stroke="midnightblue" d="M1451.29,-180.983C1394.57,-171.261 1314.72,-157.101 1245,-143 1243.74,-142.746 1242.47,-142.483 1241.18,-142.214"/>
<polygon fill="midnightblue" stroke="midnightblue" points="1241.73,-138.752 1231.22,-140.07 1240.25,-145.596 1241.73,-138.752"/>
</g>
<!-- Node30&#45;&gt;Node19 -->
<g id="edge56" class="edge"><title>Node30&#45;&gt;Node19</title>
<path fill="none" stroke="midnightblue" d="M1495.9,-179.399C1474.88,-169.55 1447.03,-156.501 1426.58,-146.922"/>
<polygon fill="midnightblue" stroke="midnightblue" points="1428.02,-143.731 1417.48,-142.658 1425.05,-150.07 1428.02,-143.731"/>
</g>
<!-- Node30&#45;&gt;Node22 -->
<g id="edge55" class="edge"><title>Node30&#45;&gt;Node22</title>
<path fill="none" stroke="midnightblue" d="M1451.1,-181.989C1410.09,-174.095 1359.02,-161.619 1316,-143 1285.7,-129.886 1254.46,-107.651 1235.38,-92.896"/>
<polygon fill="midnightblue" stroke="midnightblue" points="1237.31,-89.9551 1227.29,-86.5146 1232.97,-95.4531 1237.31,-89.9551"/>
</g>
<!-- Node31 -->
<g id="node31" class="node"><title>Node31</title>
<polygon fill="none" stroke="#bfbfbf" points="1491.5,-123.5 1491.5,-142.5 1560.5,-142.5 1560.5,-123.5 1491.5,-123.5"/>
<text text-anchor="middle" x="1526" y="-130.5" font-family="Helvetica,sans-Serif" font-size="10.00">TObjArray.h</text>
</g>
<!-- Node30&#45;&gt;Node31 -->
<g id="edge52" class="edge"><title>Node30&#45;&gt;Node31</title>
<path fill="none" stroke="midnightblue" d="M1526,-179.399C1526,-171.466 1526,-161.458 1526,-152.858"/>
<polygon fill="midnightblue" stroke="midnightblue" points="1529.5,-152.658 1526,-142.658 1522.5,-152.658 1529.5,-152.658"/>
</g>
<!-- Node32 -->
<g id="node32" class="node"><title>Node32</title>
<polygon fill="none" stroke="#bfbfbf" points="1579,-123.5 1579,-142.5 1677,-142.5 1677,-123.5 1579,-123.5"/>
<text text-anchor="middle" x="1628" y="-130.5" font-family="Helvetica,sans-Serif" font-size="10.00">Framework/Task.h</text>
</g>
<!-- Node30&#45;&gt;Node32 -->
<g id="edge53" class="edge"><title>Node30&#45;&gt;Node32</title>
<path fill="none" stroke="midnightblue" d="M1550.17,-179.399C1566.52,-169.862 1588.01,-157.325 1604.27,-147.842"/>
<polygon fill="midnightblue" stroke="midnightblue" points="1606.28,-150.72 1613.16,-142.658 1602.76,-144.673 1606.28,-150.72"/>
</g>
<!-- Node33 -->
<g id="node33" class="node"><title>Node33</title>
<polygon fill="none" stroke="#bfbfbf" points="1695,-123.5 1695,-142.5 1829,-142.5 1829,-123.5 1695,-123.5"/>
<text text-anchor="middle" x="1762" y="-130.5" font-family="Helvetica,sans-Serif" font-size="10.00">Framework/DataRefUtils.h</text>
</g>
<!-- Node30&#45;&gt;Node33 -->
<g id="edge54" class="edge"><title>Node30&#45;&gt;Node33</title>
<path fill="none" stroke="midnightblue" d="M1581.63,-179.475C1623.41,-168.941 1679.83,-154.716 1718.38,-144.998"/>
<polygon fill="midnightblue" stroke="midnightblue" points="1719.42,-148.345 1728.26,-142.506 1717.71,-141.557 1719.42,-148.345"/>
</g>
</g>
</svg>
