<?xml version="1.0" encoding="UTF-8" standalone="no"?>
<!DOCTYPE svg PUBLIC "-//W3C//DTD SVG 1.1//EN"
 "http://www.w3.org/Graphics/SVG/1.1/DTD/svg11.dtd">
<!-- Generated by graphviz version 2.38.0 (20140413.2041)
 -->
<!-- Title: Framework/src/runLocationCalculator.cxx Pages: 1 -->
<svg width="372pt" height="151pt"
 viewBox="0.00 0.00 372.00 151.00" xmlns="http://www.w3.org/2000/svg" xmlns:xlink="http://www.w3.org/1999/xlink">
<g id="graph0" class="graph" transform="scale(1 1) rotate(0) translate(4 147)">
<title>Framework/src/runLocationCalculator.cxx</title>
<!-- Node1 -->
<g id="node1" class="node"><title>Node1</title>
<polygon fill="#bfbfbf" stroke="black" points="117.5,-112.5 117.5,-142.5 252.5,-142.5 252.5,-112.5 117.5,-112.5"/>
<text text-anchor="start" x="125.5" y="-130.5" font-family="Helvetica,sans-Serif" font-size="10.00">Framework/src/runLocation</text>
<text text-anchor="middle" x="185" y="-119.5" font-family="Helvetica,sans-Serif" font-size="10.00">Calculator.cxx</text>
</g>
<!-- Node2 -->
<g id="node2" class="node"><title>Node2</title>
<g id="a_node2"><a xlink:href="Calculators_8h.html" target="_top" xlink:title="Bunch of formulas for theoretical calculations for finding optimal QC topologies. ...">
<polygon fill="none" stroke="black" points="0,-56.5 0,-75.5 140,-75.5 140,-56.5 0,-56.5"/>
<text text-anchor="middle" x="70" y="-63.5" font-family="Helvetica,sans-Serif" font-size="10.00">QualityControl/Calculators.h</text>
</a>
</g>
</g>
<!-- Node1&#45;&gt;Node2 -->
<g id="edge1" class="edge"><title>Node1&#45;&gt;Node2</title>
<path fill="none" stroke="midnightblue" d="M157.747,-112.399C138.968,-102.684 114.174,-89.8551 95.7324,-80.3137"/>
<polygon fill="midnightblue" stroke="midnightblue" points="97.2235,-77.1445 86.7335,-75.6578 94.0068,-83.3617 97.2235,-77.1445"/>
</g>
<!-- Node5 -->
<g id="node5" class="node"><title>Node5</title>
<polygon fill="none" stroke="#bfbfbf" points="158,-56.5 158,-75.5 212,-75.5 212,-56.5 158,-56.5"/>
<text text-anchor="middle" x="185" y="-63.5" font-family="Helvetica,sans-Serif" font-size="10.00">iostream</text>
</g>
<!-- Node1&#45;&gt;Node5 -->
<g id="edge4" class="edge"><title>Node1&#45;&gt;Node5</title>
<path fill="none" stroke="midnightblue" d="M185,-112.399C185,-104.466 185,-94.458 185,-85.8583"/>
<polygon fill="midnightblue" stroke="midnightblue" points="188.5,-85.6577 185,-75.6578 181.5,-85.6578 188.5,-85.6577"/>
</g>
<!-- Node6 -->
<g id="node6" class="node"><title>Node6</title>
<polygon fill="none" stroke="#bfbfbf" points="230,-56.5 230,-75.5 364,-75.5 364,-56.5 230,-56.5"/>
<text text-anchor="middle" x="297" y="-63.5" font-family="Helvetica,sans-Serif" font-size="10.00">boost/program_options.hpp</text>
</g>
<!-- Node1&#45;&gt;Node6 -->
<g id="edge5" class="edge"><title>Node1&#45;&gt;Node6</title>
<path fill="none" stroke="midnightblue" d="M211.542,-112.399C229.663,-102.773 253.536,-90.0902 271.443,-80.5772"/>
<polygon fill="midnightblue" stroke="midnightblue" points="273.514,-83.4403 280.703,-75.6578 270.23,-77.2585 273.514,-83.4403"/>
</g>
<!-- Node3 -->
<g id="node3" class="node"><title>Node3</title>
<polygon fill="none" stroke="#bfbfbf" points="18,-0.5 18,-19.5 56,-19.5 56,-0.5 18,-0.5"/>
<text text-anchor="middle" x="37" y="-7.5" font-family="Helvetica,sans-Serif" font-size="10.00">tuple</text>
</g>
<!-- Node2&#45;&gt;Node3 -->
<g id="edge2" class="edge"><title>Node2&#45;&gt;Node3</title>
<path fill="none" stroke="midnightblue" d="M64.5507,-56.083C59.9855,-48.6127 53.3316,-37.7244 47.7066,-28.5199"/>
<polygon fill="midnightblue" stroke="midnightblue" points="50.5489,-26.4588 42.3479,-19.7511 44.5759,-30.109 50.5489,-26.4588"/>
</g>
<!-- Node4 -->
<g id="node4" class="node"><title>Node4</title>
<polygon fill="none" stroke="#bfbfbf" points="74.5,-0.5 74.5,-19.5 133.5,-19.5 133.5,-0.5 74.5,-0.5"/>
<text text-anchor="middle" x="104" y="-7.5" font-family="Helvetica,sans-Serif" font-size="10.00">functional</text>
</g>
<!-- Node2&#45;&gt;Node4 -->
<g id="edge3" class="edge"><title>Node2&#45;&gt;Node4</title>
<path fill="none" stroke="midnightblue" d="M75.6144,-56.083C80.3674,-48.5341 87.3181,-37.4948 93.1516,-28.2298"/>
<polygon fill="midnightblue" stroke="midnightblue" points="96.1237,-30.0783 98.4901,-19.7511 90.2001,-26.3486 96.1237,-30.0783"/>
</g>
</g>
</svg>
