<?xml version="1.0" encoding="UTF-8" standalone="no"?>
<!DOCTYPE svg PUBLIC "-//W3C//DTD SVG 1.1//EN"
 "http://www.w3.org/Graphics/SVG/1.1/DTD/svg11.dtd">
<!-- Generated by graphviz version 2.38.0 (20140413.2041)
 -->
<!-- Title: Framework/src/runMergerCalculator.cxx Pages: 1 -->
<svg width="610pt" height="140pt"
 viewBox="0.00 0.00 610.00 140.00" xmlns="http://www.w3.org/2000/svg" xmlns:xlink="http://www.w3.org/1999/xlink">
<g id="graph0" class="graph" transform="scale(1 1) rotate(0) translate(4 136)">
<title>Framework/src/runMergerCalculator.cxx</title>
<!-- Node1 -->
<g id="node1" class="node"><title>Node1</title>
<polygon fill="#bfbfbf" stroke="black" points="284.5,-112.5 284.5,-131.5 475.5,-131.5 475.5,-112.5 284.5,-112.5"/>
<text text-anchor="middle" x="380" y="-119.5" font-family="Helvetica,sans-Serif" font-size="10.00">Framework/src/runMergerCalculator.cxx</text>
</g>
<!-- Node2 -->
<g id="node2" class="node"><title>Node2</title>
<g id="a_node2"><a xlink:href="QcInfoLogger_8h.html" target="_top" xlink:title="QualityControl/QcInfoLogger.h">
<polygon fill="none" stroke="black" points="142.5,-56.5 142.5,-75.5 291.5,-75.5 291.5,-56.5 142.5,-56.5"/>
<text text-anchor="middle" x="217" y="-63.5" font-family="Helvetica,sans-Serif" font-size="10.00">QualityControl/QcInfoLogger.h</text>
</a>
</g>
</g>
<!-- Node1&#45;&gt;Node2 -->
<g id="edge1" class="edge"><title>Node1&#45;&gt;Node2</title>
<path fill="none" stroke="midnightblue" d="M354.172,-112.444C326.751,-103.359 283.223,-88.9388 252.568,-78.7831"/>
<polygon fill="midnightblue" stroke="midnightblue" points="253.3,-75.3389 242.707,-75.5164 251.099,-81.9837 253.3,-75.3389"/>
</g>
<!-- Node5 -->
<g id="node5" class="node"><title>Node5</title>
<g id="a_node5"><a xlink:href="Calculators_8h.html" target="_top" xlink:title="Bunch of formulas for theoretical calculations for finding optimal QC topologies. ...">
<polygon fill="none" stroke="black" points="310,-56.5 310,-75.5 450,-75.5 450,-56.5 310,-56.5"/>
<text text-anchor="middle" x="380" y="-63.5" font-family="Helvetica,sans-Serif" font-size="10.00">QualityControl/Calculators.h</text>
</a>
</g>
</g>
<!-- Node1&#45;&gt;Node5 -->
<g id="edge4" class="edge"><title>Node1&#45;&gt;Node5</title>
<path fill="none" stroke="midnightblue" d="M380,-112.083C380,-105.006 380,-94.8611 380,-85.9865"/>
<polygon fill="midnightblue" stroke="midnightblue" points="383.5,-85.751 380,-75.7511 376.5,-85.7511 383.5,-85.751"/>
</g>
<!-- Node8 -->
<g id="node8" class="node"><title>Node8</title>
<polygon fill="none" stroke="#bfbfbf" points="468,-56.5 468,-75.5 602,-75.5 602,-56.5 468,-56.5"/>
<text text-anchor="middle" x="535" y="-63.5" font-family="Helvetica,sans-Serif" font-size="10.00">boost/program_options.hpp</text>
</g>
<!-- Node1&#45;&gt;Node8 -->
<g id="edge7" class="edge"><title>Node1&#45;&gt;Node8</title>
<path fill="none" stroke="midnightblue" d="M404.56,-112.444C430.523,-103.399 471.668,-89.064 500.797,-78.9158"/>
<polygon fill="midnightblue" stroke="midnightblue" points="502.263,-82.1116 510.555,-75.5164 499.96,-75.5013 502.263,-82.1116"/>
</g>
<!-- Node3 -->
<g id="node3" class="node"><title>Node3</title>
<polygon fill="none" stroke="#bfbfbf" points="0,-0.5 0,-19.5 130,-19.5 130,-0.5 0,-0.5"/>
<text text-anchor="middle" x="65" y="-7.5" font-family="Helvetica,sans-Serif" font-size="10.00">InfoLogger/InfoLogger.hxx</text>
</g>
<!-- Node2&#45;&gt;Node3 -->
<g id="edge2" class="edge"><title>Node2&#45;&gt;Node3</title>
<path fill="none" stroke="midnightblue" d="M192.915,-56.4435C167.455,-47.3986 127.106,-33.064 98.5409,-22.9158"/>
<polygon fill="midnightblue" stroke="midnightblue" points="99.5669,-19.5661 88.9722,-19.5164 97.2235,-26.1622 99.5669,-19.5661"/>
</g>
<!-- Node4 -->
<g id="node4" class="node"><title>Node4</title>
<polygon fill="none" stroke="#bfbfbf" points="148,-0.5 148,-19.5 310,-19.5 310,-0.5 148,-0.5"/>
<text text-anchor="middle" x="229" y="-7.5" font-family="Helvetica,sans-Serif" font-size="10.00">InfoLogger/InfoLoggerMacros.hxx</text>
</g>
<!-- Node2&#45;&gt;Node4 -->
<g id="edge3" class="edge"><title>Node2&#45;&gt;Node4</title>
<path fill="none" stroke="midnightblue" d="M218.982,-56.083C220.572,-48.9272 222.859,-38.6353 224.846,-29.6911"/>
<polygon fill="midnightblue" stroke="midnightblue" points="228.303,-30.2722 227.055,-19.7511 221.469,-28.7537 228.303,-30.2722"/>
</g>
<!-- Node6 -->
<g id="node6" class="node"><title>Node6</title>
<polygon fill="none" stroke="#bfbfbf" points="350,-0.5 350,-19.5 388,-19.5 388,-0.5 350,-0.5"/>
<text text-anchor="middle" x="369" y="-7.5" font-family="Helvetica,sans-Serif" font-size="10.00">tuple</text>
</g>
<!-- Node5&#45;&gt;Node6 -->
<g id="edge5" class="edge"><title>Node5&#45;&gt;Node6</title>
<path fill="none" stroke="midnightblue" d="M378.184,-56.083C376.726,-48.9272 374.629,-38.6353 372.807,-29.6911"/>
<polygon fill="midnightblue" stroke="midnightblue" points="376.208,-28.8512 370.783,-19.7511 369.349,-30.2485 376.208,-28.8512"/>
</g>
<!-- Node7 -->
<g id="node7" class="node"><title>Node7</title>
<polygon fill="none" stroke="#bfbfbf" points="406.5,-0.5 406.5,-19.5 465.5,-19.5 465.5,-0.5 406.5,-0.5"/>
<text text-anchor="middle" x="436" y="-7.5" font-family="Helvetica,sans-Serif" font-size="10.00">functional</text>
</g>
<!-- Node5&#45;&gt;Node7 -->
<g id="edge6" class="edge"><title>Node5&#45;&gt;Node7</title>
<path fill="none" stroke="midnightblue" d="M388.997,-56.324C397.194,-48.4196 409.506,-36.5482 419.472,-26.9377"/>
<polygon fill="midnightblue" stroke="midnightblue" points="422.07,-29.2947 426.839,-19.8339 417.211,-24.2558 422.07,-29.2947"/>
</g>
</g>
</svg>
