<?xml version="1.0" encoding="UTF-8" standalone="no"?>
<!DOCTYPE svg PUBLIC "-//W3C//DTD SVG 1.1//EN"
 "http://www.w3.org/Graphics/SVG/1.1/DTD/svg11.dtd">
<!-- Generated by graphviz version 2.38.0 (20140413.2041)
 -->
<!-- Title: Framework/src/runPostProcessingOCC.cxx Pages: 1 -->
<!--zoomable 363 -->
<svg id="main" version="1.1" xmlns="http://www.w3.org/2000/svg" xmlns:xlink="http://www.w3.org/1999/xlink" xml:space="preserve" onload="init(evt)">
<style type="text/css"><![CDATA[
.edge:hover path { stroke: red; }
.edge:hover polygon { stroke: red; fill: red; }
]]></style>
<script type="text/javascript"><![CDATA[
var edges = document.getElementsByTagName('g');
if (edges && edges.length) {
  for (var i=0;i<edges.length;i++) {
    if (edges[i].id.substr(0,4)=='edge') {
      edges[i].setAttribute('class','edge');
    }
  }
}
]]></script>
        <defs>
                <circle id="rim" cx="0" cy="0" r="7"/>
                <circle id="rim2" cx="0" cy="0" r="3.5"/>
                <g id="zoomPlus">
                        <use xlink:href="#rim" fill="#404040">
                                <set attributeName="fill" to="#808080" begin="zoomplus.mouseover" end="zoomplus.mouseout"/>
                        </use>
                        <path d="M-4,0h8M0,-4v8" fill="none" stroke="white" stroke-width="1.5" pointer-events="none"/>
                </g>
                <g id="zoomMin">
                        <use xlink:href="#rim" fill="#404040">
                                <set attributeName="fill" to="#808080" begin="zoomminus.mouseover" end="zoomminus.mouseout"/>
                        </use>
                        <path d="M-4,0h8" fill="none" stroke="white" stroke-width="1.5" pointer-events="none"/>
                </g>
                <g id="dirArrow">
                        <path fill="none" stroke="white" stroke-width="1.5" d="M0,-3.0v7 M-2.5,-0.5L0,-3.0L2.5,-0.5"/>
                </g>
               <g id="resetDef">
                       <use xlink:href="#rim2" fill="#404040">
                               <set attributeName="fill" to="#808080" begin="reset.mouseover" end="reset.mouseout"/>
                       </use>
               </g>
        </defs>

<script type="text/javascript">
var viewWidth = 2138;
var viewHeight = 363;
var sectionId = 'dynsection-0';
</script>
<script xlink:href="svgpan.js"/>
<svg id="graph" class="graph">
<g id="viewport">
<title>Framework/src/runPostProcessingOCC.cxx</title>
<!-- Node1 -->
<g id="node1" class="node"><title>Node1</title>
<polygon fill="#bfbfbf" stroke="black" points="1598,-324.5 1598,-354.5 1765,-354.5 1765,-324.5 1598,-324.5"/>
<text text-anchor="start" x="1606" y="-342.5" font-family="Helvetica,sans-Serif" font-size="10.00">Framework/src/runPostProcessing</text>
<text text-anchor="middle" x="1681.5" y="-331.5" font-family="Helvetica,sans-Serif" font-size="10.00">OCC.cxx</text>
</g>
<!-- Node2 -->
<g id="node2" class="node"><title>Node2</title>
<g id="a_node2"><a xlink:href="PostProcessingRunner_8h.html" target="_top" xlink:title="QualityControl/PostProcessing\lRunner.h">
<polygon fill="none" stroke="black" points="931,-257.5 931,-287.5 1082,-287.5 1082,-257.5 931,-257.5"/>
<text text-anchor="start" x="939" y="-275.5" font-family="Helvetica,sans-Serif" font-size="10.00">QualityControl/PostProcessing</text>
<text text-anchor="middle" x="1006.5" y="-264.5" font-family="Helvetica,sans-Serif" font-size="10.00">Runner.h</text>
</a>
</g>
</g>
<!-- Node1&#45;&gt;Node2 -->
<g id="edge1" class="edge"><title>Node1&#45;&gt;Node2</title>
<path fill="none" stroke="midnightblue" d="M1597.72,-330.432C1468.72,-318.01 1222.77,-294.326 1092.47,-281.779"/>
<polygon fill="midnightblue" stroke="midnightblue" points="1092.43,-278.259 1082.14,-280.784 1091.76,-285.227 1092.43,-278.259"/>
</g>
<!-- Node27 -->
<g id="node27" class="node"><title>Node27</title>
<g id="a_node27"><a xlink:href="QcInfoLogger_8h.html" target="_top" xlink:title="QualityControl/QcInfoLogger.h">
<polygon fill="none" stroke="black" points="1349,-263 1349,-282 1498,-282 1498,-263 1349,-263"/>
<text text-anchor="middle" x="1423.5" y="-270" font-family="Helvetica,sans-Serif" font-size="10.00">QualityControl/QcInfoLogger.h</text>
</a>
</g>
</g>
<!-- Node1&#45;&gt;Node27 -->
<g id="edge51" class="edge"><title>Node1&#45;&gt;Node27</title>
<path fill="none" stroke="midnightblue" d="M1625.84,-324.476C1578.28,-312.496 1510.83,-295.501 1467.11,-284.488"/>
<polygon fill="midnightblue" stroke="midnightblue" points="1467.9,-281.078 1457.35,-282.029 1466.19,-287.866 1467.9,-281.078"/>
</g>
<!-- Node30 -->
<g id="node30" class="node"><title>Node30</title>
<polygon fill="none" stroke="#bfbfbf" points="1516.5,-263 1516.5,-282 1596.5,-282 1596.5,-263 1516.5,-263"/>
<text text-anchor="middle" x="1556.5" y="-270" font-family="Helvetica,sans-Serif" font-size="10.00">OccInstance.h</text>
</g>
<!-- Node1&#45;&gt;Node30 -->
<g id="edge54" class="edge"><title>Node1&#45;&gt;Node30</title>
<path fill="none" stroke="midnightblue" d="M1654.38,-324.396C1632.83,-313.193 1602.93,-297.641 1581.86,-286.685"/>
<polygon fill="midnightblue" stroke="midnightblue" points="1583.35,-283.515 1572.86,-282.007 1580.12,-289.726 1583.35,-283.515"/>
</g>
<!-- Node31 -->
<g id="node31" class="node"><title>Node31</title>
<polygon fill="none" stroke="#bfbfbf" points="1614.5,-263 1614.5,-282 1748.5,-282 1748.5,-263 1614.5,-263"/>
<text text-anchor="middle" x="1681.5" y="-270" font-family="Helvetica,sans-Serif" font-size="10.00">RuntimeControlledObject.h</text>
</g>
<!-- Node1&#45;&gt;Node31 -->
<g id="edge55" class="edge"><title>Node1&#45;&gt;Node31</title>
<path fill="none" stroke="midnightblue" d="M1681.5,-324.396C1681.5,-315.064 1681.5,-302.714 1681.5,-292.517"/>
<polygon fill="midnightblue" stroke="midnightblue" points="1685,-292.195 1681.5,-282.195 1678,-292.195 1685,-292.195"/>
</g>
<!-- Node32 -->
<g id="node32" class="node"><title>Node32</title>
<polygon fill="none" stroke="#bfbfbf" points="1766.5,-263 1766.5,-282 1900.5,-282 1900.5,-263 1766.5,-263"/>
<text text-anchor="middle" x="1833.5" y="-270" font-family="Helvetica,sans-Serif" font-size="10.00">boost/program_options.hpp</text>
</g>
<!-- Node1&#45;&gt;Node32 -->
<g id="edge56" class="edge"><title>Node1&#45;&gt;Node32</title>
<path fill="none" stroke="midnightblue" d="M1714.48,-324.396C1741.27,-312.941 1778.69,-296.938 1804.38,-285.952"/>
<polygon fill="midnightblue" stroke="midnightblue" points="1805.79,-289.157 1813.61,-282.007 1803.04,-282.721 1805.79,-289.157"/>
</g>
<!-- Node33 -->
<g id="node33" class="node"><title>Node33</title>
<polygon fill="none" stroke="#bfbfbf" points="1918.5,-263 1918.5,-282 2010.5,-282 2010.5,-263 1918.5,-263"/>
<text text-anchor="middle" x="1964.5" y="-270" font-family="Helvetica,sans-Serif" font-size="10.00">Common/Timer.h</text>
</g>
<!-- Node1&#45;&gt;Node33 -->
<g id="edge57" class="edge"><title>Node1&#45;&gt;Node33</title>
<path fill="none" stroke="midnightblue" d="M1748.01,-324.5C1793.57,-314.729 1855.32,-301.136 1909.5,-288 1913.88,-286.937 1918.45,-285.792 1923,-284.628"/>
<polygon fill="midnightblue" stroke="midnightblue" points="1924.05,-287.972 1932.85,-282.073 1922.29,-281.196 1924.05,-287.972"/>
</g>
<!-- Node34 -->
<g id="node34" class="node"><title>Node34</title>
<polygon fill="none" stroke="#bfbfbf" points="2029,-257.5 2029,-287.5 2130,-287.5 2130,-257.5 2029,-257.5"/>
<text text-anchor="start" x="2037" y="-275.5" font-family="Helvetica,sans-Serif" font-size="10.00">boost/property_tree</text>
<text text-anchor="middle" x="2079.5" y="-264.5" font-family="Helvetica,sans-Serif" font-size="10.00">/ptree.hpp</text>
</g>
<!-- Node1&#45;&gt;Node34 -->
<g id="edge58" class="edge"><title>Node1&#45;&gt;Node34</title>
<path fill="none" stroke="midnightblue" d="M1765.2,-328.1C1831.4,-319.386 1926.36,-305.814 2018.74,-288.04"/>
<polygon fill="midnightblue" stroke="midnightblue" points="2019.68,-291.423 2028.83,-286.08 2018.35,-284.551 2019.68,-291.423"/>
</g>
<!-- Node3 -->
<g id="node3" class="node"><title>Node3</title>
<polygon fill="none" stroke="#bfbfbf" points="937.5,-62 937.5,-81 989.5,-81 989.5,-62 937.5,-62"/>
<text text-anchor="middle" x="963.5" y="-69" font-family="Helvetica,sans-Serif" font-size="10.00">memory</text>
</g>
<!-- Node2&#45;&gt;Node3 -->
<g id="edge2" class="edge"><title>Node2&#45;&gt;Node3</title>
<path fill="none" stroke="midnightblue" d="M1046.99,-257.498C1063.56,-249.537 1081.03,-237.736 1090.5,-221 1097.28,-209.008 1094.01,-203.322 1090.5,-190 1081.77,-156.899 1076.7,-147.209 1052.5,-123 1036.13,-106.631 1013.37,-93.8436 994.967,-85.2315"/>
<polygon fill="midnightblue" stroke="midnightblue" points="996.352,-82.0164 985.796,-81.1117 993.483,-88.4019 996.352,-82.0164"/>
</g>
<!-- Node4 -->
<g id="node4" class="node"><title>Node4</title>
<polygon fill="none" stroke="#bfbfbf" points="1320,-62 1320,-81 1379,-81 1379,-62 1320,-62"/>
<text text-anchor="middle" x="1349.5" y="-69" font-family="Helvetica,sans-Serif" font-size="10.00">functional</text>
</g>
<!-- Node2&#45;&gt;Node4 -->
<g id="edge3" class="edge"><title>Node2&#45;&gt;Node4</title>
<path fill="none" stroke="midnightblue" d="M1082.31,-261.313C1151.1,-248.151 1250.64,-218.682 1310.5,-154 1327.44,-135.695 1338.38,-108.689 1344.24,-90.8515"/>
<polygon fill="midnightblue" stroke="midnightblue" points="1347.65,-91.6768 1347.24,-81.0898 1340.96,-89.6203 1347.65,-91.6768"/>
</g>
<!-- Node5 -->
<g id="node5" class="node"><title>Node5</title>
<polygon fill="none" stroke="#bfbfbf" points="599.5,-129 599.5,-148 745.5,-148 745.5,-129 599.5,-129"/>
<text text-anchor="middle" x="672.5" y="-136" font-family="Helvetica,sans-Serif" font-size="10.00">Framework/ServiceRegistry.h</text>
</g>
<!-- Node2&#45;&gt;Node5 -->
<g id="edge4" class="edge"><title>Node2&#45;&gt;Node5</title>
<path fill="none" stroke="midnightblue" d="M967.673,-257.491C940.395,-247.55 903.102,-233.758 870.5,-221 810.441,-197.497 740.846,-168.418 702.226,-152.115"/>
<polygon fill="midnightblue" stroke="midnightblue" points="703.217,-148.734 692.644,-148.064 700.491,-155.182 703.217,-148.734"/>
</g>
<!-- Node6 -->
<g id="node6" class="node"><title>Node6</title>
<polygon fill="none" stroke="#bfbfbf" points="764,-123.5 764,-153.5 865,-153.5 865,-123.5 764,-123.5"/>
<text text-anchor="start" x="772" y="-141.5" font-family="Helvetica,sans-Serif" font-size="10.00">boost/property_tree</text>
<text text-anchor="middle" x="814.5" y="-130.5" font-family="Helvetica,sans-Serif" font-size="10.00">/ptree_fwd.hpp</text>
</g>
<!-- Node2&#45;&gt;Node6 -->
<g id="edge5" class="edge"><title>Node2&#45;&gt;Node6</title>
<path fill="none" stroke="midnightblue" d="M977.176,-257.4C958.438,-247.952 933.915,-234.761 913.5,-221 885.918,-202.408 856.808,-177.756 837.35,-160.451"/>
<polygon fill="midnightblue" stroke="midnightblue" points="839.666,-157.826 829.886,-153.751 834.99,-163.036 839.666,-157.826"/>
</g>
<!-- Node7 -->
<g id="node7" class="node"><title>Node7</title>
<g id="a_node7"><a xlink:href="PostProcessingInterface_8h.html" target="_top" xlink:title="QualityControl/PostProcessing\lInterface.h">
<polygon fill="none" stroke="black" points="931,-190.5 931,-220.5 1082,-220.5 1082,-190.5 931,-190.5"/>
<text text-anchor="start" x="939" y="-208.5" font-family="Helvetica,sans-Serif" font-size="10.00">QualityControl/PostProcessing</text>
<text text-anchor="middle" x="1006.5" y="-197.5" font-family="Helvetica,sans-Serif" font-size="10.00">Interface.h</text>
</a>
</g>
</g>
<!-- Node2&#45;&gt;Node7 -->
<g id="edge6" class="edge"><title>Node2&#45;&gt;Node7</title>
<path fill="none" stroke="midnightblue" d="M1006.5,-257.396C1006.5,-249.645 1006.5,-239.812 1006.5,-230.86"/>
<polygon fill="midnightblue" stroke="midnightblue" points="1010,-230.576 1006.5,-220.577 1003,-230.577 1010,-230.576"/>
</g>
<!-- Node9 -->
<g id="node9" class="node"><title>Node9</title>
<g id="a_node9"><a xlink:href="Triggers_8h.html" target="_top" xlink:title="QualityControl/Triggers.h">
<polygon fill="none" stroke="black" points="1177,-129 1177,-148 1302,-148 1302,-129 1177,-129"/>
<text text-anchor="middle" x="1239.5" y="-136" font-family="Helvetica,sans-Serif" font-size="10.00">QualityControl/Triggers.h</text>
</a>
</g>
</g>
<!-- Node2&#45;&gt;Node9 -->
<g id="edge33" class="edge"><title>Node2&#45;&gt;Node9</title>
<path fill="none" stroke="midnightblue" d="M1074.24,-257.492C1102.91,-249.612 1135.79,-237.876 1162.5,-221 1189.67,-203.835 1213.82,-174.911 1227.55,-156.535"/>
<polygon fill="midnightblue" stroke="midnightblue" points="1230.53,-158.381 1233.58,-148.233 1224.87,-154.268 1230.53,-158.381"/>
</g>
<!-- Node11 -->
<g id="node11" class="node"><title>Node11</title>
<g id="a_node11"><a xlink:href="ObjectsManager_8h.html" target="_top" xlink:title="QualityControl/ObjectsManager.h">
<polygon fill="none" stroke="black" points="883,-129 883,-148 1044,-148 1044,-129 883,-129"/>
<text text-anchor="middle" x="963.5" y="-136" font-family="Helvetica,sans-Serif" font-size="10.00">QualityControl/ObjectsManager.h</text>
</a>
</g>
</g>
<!-- Node2&#45;&gt;Node11 -->
<g id="edge49" class="edge"><title>Node2&#45;&gt;Node11</title>
<path fill="none" stroke="midnightblue" d="M965.098,-257.401C948.466,-249.463 931.008,-237.709 921.5,-221 908.781,-198.649 928.844,-172.049 945.378,-155.465"/>
<polygon fill="midnightblue" stroke="midnightblue" points="948.202,-157.611 953.051,-148.191 943.386,-152.53 948.202,-157.611"/>
</g>
<!-- Node17 -->
<g id="node17" class="node"><title>Node17</title>
<g id="a_node17"><a xlink:href="MonitorObjectCollection_8h.html" target="_top" xlink:title="QualityControl/MonitorObject\lCollection.h">
<polygon fill="none" stroke="black" points="1057,-56.5 1057,-86.5 1200,-86.5 1200,-56.5 1057,-56.5"/>
<text text-anchor="start" x="1065" y="-74.5" font-family="Helvetica,sans-Serif" font-size="10.00">QualityControl/MonitorObject</text>
<text text-anchor="middle" x="1128.5" y="-63.5" font-family="Helvetica,sans-Serif" font-size="10.00">Collection.h</text>
</a>
</g>
</g>
<!-- Node2&#45;&gt;Node17 -->
<g id="edge50" class="edge"><title>Node2&#45;&gt;Node17</title>
<path fill="none" stroke="midnightblue" d="M1055.8,-257.459C1074.49,-249.682 1094.21,-238.033 1106.5,-221 1133.1,-184.135 1133.67,-128.563 1131.33,-96.8923"/>
<polygon fill="midnightblue" stroke="midnightblue" points="1134.8,-96.403 1130.41,-86.7567 1127.82,-97.0301 1134.8,-96.403"/>
</g>
<!-- Node22 -->
<g id="node22" class="node"><title>Node22</title>
<g id="a_node22"><a xlink:href="PostProcessingConfig_8h.html" target="_top" xlink:title="QualityControl/PostProcessing\lConfig.h">
<polygon fill="none" stroke="black" points="584,-190.5 584,-220.5 735,-220.5 735,-190.5 584,-190.5"/>
<text text-anchor="start" x="592" y="-208.5" font-family="Helvetica,sans-Serif" font-size="10.00">QualityControl/PostProcessing</text>
<text text-anchor="middle" x="659.5" y="-197.5" font-family="Helvetica,sans-Serif" font-size="10.00">Config.h</text>
</a>
</g>
</g>
<!-- Node2&#45;&gt;Node22 -->
<g id="edge29" class="edge"><title>Node2&#45;&gt;Node22</title>
<path fill="none" stroke="midnightblue" d="M931.633,-257.476C876.658,-247.178 801.898,-233.174 744.646,-222.45"/>
<polygon fill="midnightblue" stroke="midnightblue" points="745.005,-218.956 734.531,-220.555 743.716,-225.836 745.005,-218.956"/>
</g>
<!-- Node24 -->
<g id="node24" class="node"><title>Node24</title>
<g id="a_node24"><a xlink:href="DatabaseInterface_8h.html" target="_top" xlink:title="QualityControl/DatabaseInterface.h">
<polygon fill="none" stroke="black" points="367.5,-196 367.5,-215 537.5,-215 537.5,-196 367.5,-196"/>
<text text-anchor="middle" x="452.5" y="-203" font-family="Helvetica,sans-Serif" font-size="10.00">QualityControl/DatabaseInterface.h</text>
</a>
</g>
</g>
<!-- Node2&#45;&gt;Node24 -->
<g id="edge34" class="edge"><title>Node2&#45;&gt;Node24</title>
<path fill="none" stroke="midnightblue" d="M930.798,-262.695C844.545,-252.653 699.361,-235.718 574.5,-221 561.502,-219.468 547.726,-217.837 534.292,-216.243"/>
<polygon fill="midnightblue" stroke="midnightblue" points="534.447,-212.737 524.104,-215.034 533.622,-219.688 534.447,-212.737"/>
</g>
<!-- Node7&#45;&gt;Node5 -->
<g id="edge8" class="edge"><title>Node7&#45;&gt;Node5</title>
<path fill="none" stroke="midnightblue" d="M934.438,-190.476C871.973,-178.32 782.972,-160.999 726.48,-150.005"/>
<polygon fill="midnightblue" stroke="midnightblue" points="726.809,-146.503 716.324,-148.029 725.471,-153.375 726.809,-146.503"/>
</g>
<!-- Node7&#45;&gt;Node6 -->
<g id="edge9" class="edge"><title>Node7&#45;&gt;Node6</title>
<path fill="none" stroke="midnightblue" d="M964.839,-190.396C935.779,-180.558 896.814,-167.367 865.835,-156.879"/>
<polygon fill="midnightblue" stroke="midnightblue" points="866.674,-153.468 856.08,-153.577 864.429,-160.098 866.674,-153.468"/>
</g>
<!-- Node8 -->
<g id="node8" class="node"><title>Node8</title>
<polygon fill="none" stroke="#bfbfbf" points="560,-0.5 560,-19.5 601,-19.5 601,-0.5 560,-0.5"/>
<text text-anchor="middle" x="580.5" y="-7.5" font-family="Helvetica,sans-Serif" font-size="10.00">string</text>
</g>
<!-- Node7&#45;&gt;Node8 -->
<g id="edge7" class="edge"><title>Node7&#45;&gt;Node8</title>
<path fill="none" stroke="midnightblue" d="M1024.92,-190.29C1035.16,-181.175 1046.93,-168.377 1052.5,-154 1070.46,-107.624 1042.15,-79.8347 998.5,-56 931.616,-19.4754 695.724,-12.5956 611.046,-11.3002"/>
<polygon fill="midnightblue" stroke="midnightblue" points="611.083,-7.80052 601.035,-11.1628 610.986,-14.7999 611.083,-7.80052"/>
</g>
<!-- Node7&#45;&gt;Node9 -->
<g id="edge10" class="edge"><title>Node7&#45;&gt;Node9</title>
<path fill="none" stroke="midnightblue" d="M1056.77,-190.476C1099.35,-178.597 1159.61,-161.787 1199.11,-150.768"/>
<polygon fill="midnightblue" stroke="midnightblue" points="1200.24,-154.087 1208.93,-148.029 1198.36,-147.345 1200.24,-154.087"/>
</g>
<!-- Node7&#45;&gt;Node11 -->
<g id="edge14" class="edge"><title>Node7&#45;&gt;Node11</title>
<path fill="none" stroke="midnightblue" d="M997.17,-190.396C990.598,-180.462 981.764,-167.108 974.794,-156.572"/>
<polygon fill="midnightblue" stroke="midnightblue" points="977.688,-154.604 969.252,-148.195 971.85,-158.466 977.688,-154.604"/>
</g>
<!-- Node9&#45;&gt;Node4 -->
<g id="edge12" class="edge"><title>Node9&#45;&gt;Node4</title>
<path fill="none" stroke="midnightblue" d="M1254.34,-128.734C1272.81,-117.818 1304.57,-99.0487 1326.28,-86.2209"/>
<polygon fill="midnightblue" stroke="midnightblue" points="1328.07,-89.2279 1334.9,-81.1273 1324.51,-83.2014 1328.07,-89.2279"/>
</g>
<!-- Node9&#45;&gt;Node8 -->
<g id="edge11" class="edge"><title>Node9&#45;&gt;Node8</title>
<path fill="none" stroke="midnightblue" d="M1239.09,-128.824C1237.78,-111.682 1232.19,-73.6155 1208.5,-56 1160.28,-20.1433 731.585,-12.6842 611.589,-11.2932"/>
<polygon fill="midnightblue" stroke="midnightblue" points="611.312,-7.79006 601.275,-11.18 611.235,-14.7896 611.312,-7.79006"/>
</g>
<!-- Node10 -->
<g id="node10" class="node"><title>Node10</title>
<polygon fill="none" stroke="#bfbfbf" points="1257,-62 1257,-81 1302,-81 1302,-62 1257,-62"/>
<text text-anchor="middle" x="1279.5" y="-69" font-family="Helvetica,sans-Serif" font-size="10.00">iosfwd</text>
</g>
<!-- Node9&#45;&gt;Node10 -->
<g id="edge13" class="edge"><title>Node9&#45;&gt;Node10</title>
<path fill="none" stroke="midnightblue" d="M1244.89,-128.734C1251.01,-118.793 1261.14,-102.338 1268.86,-89.7892"/>
<polygon fill="midnightblue" stroke="midnightblue" points="1271.93,-91.4783 1274.19,-81.1273 1265.97,-87.8095 1271.93,-91.4783"/>
</g>
<!-- Node11&#45;&gt;Node3 -->
<g id="edge28" class="edge"><title>Node11&#45;&gt;Node3</title>
<path fill="none" stroke="midnightblue" d="M963.5,-128.734C963.5,-119.183 963.5,-103.618 963.5,-91.2829"/>
<polygon fill="midnightblue" stroke="midnightblue" points="967,-91.1273 963.5,-81.1273 960,-91.1273 967,-91.1273"/>
</g>
<!-- Node11&#45;&gt;Node8 -->
<g id="edge27" class="edge"><title>Node11&#45;&gt;Node8</title>
<path fill="none" stroke="midnightblue" d="M937.476,-128.905C868.974,-106.279 683.921,-45.1587 610.81,-21.011"/>
<polygon fill="midnightblue" stroke="midnightblue" points="611.854,-17.6698 601.26,-17.8569 609.658,-24.3166 611.854,-17.6698"/>
</g>
<!-- Node12 -->
<g id="node12" class="node"><title>Node12</title>
<g id="a_node12"><a xlink:href="MonitorObject_8h.html" target="_top" xlink:title="QualityControl/MonitorObject.h">
<polygon fill="none" stroke="black" points="216,-62 216,-81 367,-81 367,-62 216,-62"/>
<text text-anchor="middle" x="291.5" y="-69" font-family="Helvetica,sans-Serif" font-size="10.00">QualityControl/MonitorObject.h</text>
</a>
</g>
</g>
<!-- Node11&#45;&gt;Node12 -->
<g id="edge15" class="edge"><title>Node11&#45;&gt;Node12</title>
<path fill="none" stroke="midnightblue" d="M914.549,-128.935C901.259,-126.795 886.852,-124.644 873.5,-123 687.114,-100.049 639.575,-103.423 452.5,-87 428.16,-84.8633 401.754,-82.5028 377.503,-80.318"/>
<polygon fill="midnightblue" stroke="midnightblue" points="377.528,-76.8061 367.254,-79.3935 376.899,-83.7778 377.528,-76.8061"/>
</g>
<!-- Node11&#45;&gt;Node17 -->
<g id="edge21" class="edge"><title>Node11&#45;&gt;Node17</title>
<path fill="none" stroke="midnightblue" d="M985.411,-128.869C1010.28,-119.073 1051.51,-102.83 1083.34,-90.2897"/>
<polygon fill="midnightblue" stroke="midnightblue" points="1084.87,-93.4498 1092.89,-86.5281 1082.3,-86.9369 1084.87,-93.4498"/>
</g>
<!-- Node20 -->
<g id="node20" class="node"><title>Node20</title>
<g id="a_node20"><a xlink:href="TaskConfig_8h.html" target="_top" xlink:title="QualityControl/TaskConfig.h">
<polygon fill="none" stroke="black" points="461.5,-62 461.5,-81 601.5,-81 601.5,-62 461.5,-62"/>
<text text-anchor="middle" x="531.5" y="-69" font-family="Helvetica,sans-Serif" font-size="10.00">QualityControl/TaskConfig.h</text>
</a>
</g>
</g>
<!-- Node11&#45;&gt;Node20 -->
<g id="edge24" class="edge"><title>Node11&#45;&gt;Node20</title>
<path fill="none" stroke="midnightblue" d="M911.169,-128.95C898.821,-126.965 885.7,-124.883 873.5,-123 779.085,-108.424 669.864,-92.4511 600.748,-82.453"/>
<polygon fill="midnightblue" stroke="midnightblue" points="601.246,-78.9887 590.848,-81.0221 600.245,-85.9167 601.246,-78.9887"/>
</g>
<!-- Node12&#45;&gt;Node8 -->
<g id="edge16" class="edge"><title>Node12&#45;&gt;Node8</title>
<path fill="none" stroke="midnightblue" d="M332.907,-61.9751C391.605,-49.8901 497.662,-28.0548 549.832,-17.3141"/>
<polygon fill="midnightblue" stroke="midnightblue" points="550.725,-20.7037 559.814,-15.2589 549.313,-13.8474 550.725,-20.7037"/>
</g>
<!-- Node13 -->
<g id="node13" class="node"><title>Node13</title>
<polygon fill="none" stroke="#bfbfbf" points="0,-0.5 0,-19.5 35,-19.5 35,-0.5 0,-0.5"/>
<text text-anchor="middle" x="17.5" y="-7.5" font-family="Helvetica,sans-Serif" font-size="10.00">map</text>
</g>
<!-- Node12&#45;&gt;Node13 -->
<g id="edge17" class="edge"><title>Node12&#45;&gt;Node13</title>
<path fill="none" stroke="midnightblue" d="M240.942,-61.9989C192.882,-53.5072 118.459,-39.2939 45.0112,-19.8619"/>
<polygon fill="midnightblue" stroke="midnightblue" points="45.6918,-16.4209 35.1266,-17.2131 43.8798,-23.1823 45.6918,-16.4209"/>
</g>
<!-- Node14 -->
<g id="node14" class="node"><title>Node14</title>
<polygon fill="none" stroke="#bfbfbf" points="187.5,-0.5 187.5,-19.5 243.5,-19.5 243.5,-0.5 187.5,-0.5"/>
<text text-anchor="middle" x="215.5" y="-7.5" font-family="Helvetica,sans-Serif" font-size="10.00">Rtypes.h</text>
</g>
<!-- Node12&#45;&gt;Node14 -->
<g id="edge18" class="edge"><title>Node12&#45;&gt;Node14</title>
<path fill="none" stroke="midnightblue" d="M280.611,-61.9751C268.534,-52.5199 248.833,-37.0961 234.26,-25.6871"/>
<polygon fill="midnightblue" stroke="midnightblue" points="236.4,-22.9177 226.369,-19.5091 232.085,-28.4295 236.4,-22.9177"/>
</g>
<!-- Node15 -->
<g id="node15" class="node"><title>Node15</title>
<polygon fill="none" stroke="#bfbfbf" points="262,-0.5 262,-19.5 321,-19.5 321,-0.5 262,-0.5"/>
<text text-anchor="middle" x="291.5" y="-7.5" font-family="Helvetica,sans-Serif" font-size="10.00">TObject.h</text>
</g>
<!-- Node12&#45;&gt;Node15 -->
<g id="edge19" class="edge"><title>Node12&#45;&gt;Node15</title>
<path fill="none" stroke="midnightblue" d="M291.5,-61.9751C291.5,-53.5803 291.5,-40.4806 291.5,-29.6631"/>
<polygon fill="midnightblue" stroke="midnightblue" points="295,-29.5091 291.5,-19.5091 288,-29.5091 295,-29.5091"/>
</g>
<!-- Node16 -->
<g id="node16" class="node"><title>Node16</title>
<polygon fill="none" stroke="#bfbfbf" points="53.5,-0.5 53.5,-19.5 169.5,-19.5 169.5,-0.5 53.5,-0.5"/>
<text text-anchor="middle" x="111.5" y="-7.5" font-family="Helvetica,sans-Serif" font-size="10.00">Common/Exceptions.h</text>
</g>
<!-- Node12&#45;&gt;Node16 -->
<g id="edge20" class="edge"><title>Node12&#45;&gt;Node16</title>
<path fill="none" stroke="midnightblue" d="M265.71,-61.9751C234.567,-51.6804 182.019,-34.3103 147.047,-22.7502"/>
<polygon fill="midnightblue" stroke="midnightblue" points="147.835,-19.3245 137.242,-19.5091 145.638,-25.9708 147.835,-19.3245"/>
</g>
<!-- Node18 -->
<g id="node18" class="node"><title>Node18</title>
<polygon fill="none" stroke="#bfbfbf" points="1035,-0.5 1035,-19.5 1104,-19.5 1104,-0.5 1035,-0.5"/>
<text text-anchor="middle" x="1069.5" y="-7.5" font-family="Helvetica,sans-Serif" font-size="10.00">TObjArray.h</text>
</g>
<!-- Node17&#45;&gt;Node18 -->
<g id="edge22" class="edge"><title>Node17&#45;&gt;Node18</title>
<path fill="none" stroke="midnightblue" d="M1114.52,-56.3993C1105.77,-47.575 1094.47,-36.1827 1085.38,-27.0178"/>
<polygon fill="midnightblue" stroke="midnightblue" points="1087.61,-24.2942 1078.09,-19.6578 1082.64,-29.2231 1087.61,-24.2942"/>
</g>
<!-- Node19 -->
<g id="node19" class="node"><title>Node19</title>
<polygon fill="none" stroke="#bfbfbf" points="1122.5,-0.5 1122.5,-19.5 1250.5,-19.5 1250.5,-0.5 1122.5,-0.5"/>
<text text-anchor="middle" x="1186.5" y="-7.5" font-family="Helvetica,sans-Serif" font-size="10.00">Mergers/MergeInterface.h</text>
</g>
<!-- Node17&#45;&gt;Node19 -->
<g id="edge23" class="edge"><title>Node17&#45;&gt;Node19</title>
<path fill="none" stroke="midnightblue" d="M1142.25,-56.3993C1150.85,-47.575 1161.95,-36.1827 1170.89,-27.0178"/>
<polygon fill="midnightblue" stroke="midnightblue" points="1173.59,-29.2616 1178.06,-19.6578 1168.57,-24.3755 1173.59,-29.2616"/>
</g>
<!-- Node20&#45;&gt;Node8 -->
<g id="edge25" class="edge"><title>Node20&#45;&gt;Node8</title>
<path fill="none" stroke="midnightblue" d="M538.521,-61.9751C545.943,-52.9617 557.833,-38.5246 567.067,-27.3118"/>
<polygon fill="midnightblue" stroke="midnightblue" points="569.837,-29.4534 573.493,-19.5091 564.434,-25.0034 569.837,-29.4534"/>
</g>
<!-- Node21 -->
<g id="node21" class="node"><title>Node21</title>
<polygon fill="none" stroke="#bfbfbf" points="406,-0.5 406,-19.5 489,-19.5 489,-0.5 406,-0.5"/>
<text text-anchor="middle" x="447.5" y="-7.5" font-family="Helvetica,sans-Serif" font-size="10.00">unordered_map</text>
</g>
<!-- Node20&#45;&gt;Node21 -->
<g id="edge26" class="edge"><title>Node20&#45;&gt;Node21</title>
<path fill="none" stroke="midnightblue" d="M519.465,-61.9751C505.992,-52.4315 483.934,-36.8073 467.785,-25.3683"/>
<polygon fill="midnightblue" stroke="midnightblue" points="469.696,-22.4332 459.513,-19.5091 465.65,-28.1454 469.696,-22.4332"/>
</g>
<!-- Node22&#45;&gt;Node6 -->
<g id="edge32" class="edge"><title>Node22&#45;&gt;Node6</title>
<path fill="none" stroke="midnightblue" d="M693.133,-190.396C716.085,-180.771 746.69,-167.936 771.425,-157.564"/>
<polygon fill="midnightblue" stroke="midnightblue" points="773.065,-160.672 780.933,-153.577 770.357,-154.216 773.065,-160.672"/>
</g>
<!-- Node22&#45;&gt;Node8 -->
<g id="edge31" class="edge"><title>Node22&#45;&gt;Node8</title>
<path fill="none" stroke="midnightblue" d="M628.594,-190.336C614.224,-181.975 598.56,-169.886 590.5,-154 584.266,-141.713 587.044,-136.337 590.5,-123 595.091,-105.282 605.909,-104.718 610.5,-87 613.956,-73.6627 614.493,-69.1866 610.5,-56 607.383,-45.7048 601.048,-35.612 594.999,-27.6023"/>
<polygon fill="midnightblue" stroke="midnightblue" points="597.719,-25.3995 588.714,-19.8175 592.272,-29.7968 597.719,-25.3995"/>
</g>
<!-- Node23 -->
<g id="node23" class="node"><title>Node23</title>
<polygon fill="none" stroke="#bfbfbf" points="499.5,-129 499.5,-148 543.5,-148 543.5,-129 499.5,-129"/>
<text text-anchor="middle" x="521.5" y="-136" font-family="Helvetica,sans-Serif" font-size="10.00">vector</text>
</g>
<!-- Node22&#45;&gt;Node23 -->
<g id="edge30" class="edge"><title>Node22&#45;&gt;Node23</title>
<path fill="none" stroke="midnightblue" d="M629.556,-190.396C605.557,-179.092 572.158,-163.361 548.867,-152.39"/>
<polygon fill="midnightblue" stroke="midnightblue" points="550.099,-149.102 539.561,-148.007 547.116,-155.435 550.099,-149.102"/>
</g>
<!-- Node24&#45;&gt;Node3 -->
<g id="edge36" class="edge"><title>Node24&#45;&gt;Node3</title>
<path fill="none" stroke="midnightblue" d="M453.725,-195.838C456.648,-178.722 465.731,-140.699 490.5,-123 560.436,-73.026 829.386,-70.9334 927.453,-71.8962"/>
<polygon fill="midnightblue" stroke="midnightblue" points="927.435,-75.3961 937.474,-72.0114 927.515,-68.3966 927.435,-75.3961"/>
</g>
<!-- Node24&#45;&gt;Node5 -->
<g id="edge39" class="edge"><title>Node24&#45;&gt;Node5</title>
<path fill="none" stroke="midnightblue" d="M481.714,-195.869C520.86,-184.303 590.427,-163.749 633.866,-150.914"/>
<polygon fill="midnightblue" stroke="midnightblue" points="634.917,-154.254 643.515,-148.064 632.933,-147.541 634.917,-154.254"/>
</g>
<!-- Node24&#45;&gt;Node8 -->
<g id="edge35" class="edge"><title>Node24&#45;&gt;Node8</title>
<path fill="none" stroke="midnightblue" d="M449.35,-195.768C441.063,-171.122 421.352,-99.9676 452.5,-56 474.425,-25.0513 519.407,-15.232 549.768,-12.2061"/>
<polygon fill="midnightblue" stroke="midnightblue" points="550.148,-15.6868 559.835,-11.3956 549.586,-8.70941 550.148,-15.6868"/>
</g>
<!-- Node24&#45;&gt;Node12 -->
<g id="edge48" class="edge"><title>Node24&#45;&gt;Node12</title>
<path fill="none" stroke="midnightblue" d="M439.601,-195.997C425.114,-186.295 401.071,-169.731 381.5,-154 354.572,-132.355 325.234,-105.019 307.609,-88.1516"/>
<polygon fill="midnightblue" stroke="midnightblue" points="310.017,-85.6116 300.386,-81.1963 305.162,-90.6539 310.017,-85.6116"/>
</g>
<!-- Node24&#45;&gt;Node21 -->
<g id="edge38" class="edge"><title>Node24&#45;&gt;Node21</title>
<path fill="none" stroke="midnightblue" d="M444.677,-196C436.566,-186.557 424.402,-170.462 419.5,-154 407.07,-112.256 407.534,-97.8797 419.5,-56 422.402,-45.8435 428.332,-35.747 433.99,-27.6991"/>
<polygon fill="midnightblue" stroke="midnightblue" points="436.876,-29.6853 440.088,-19.5891 431.281,-25.4786 436.876,-29.6853"/>
</g>
<!-- Node24&#45;&gt;Node23 -->
<g id="edge37" class="edge"><title>Node24&#45;&gt;Node23</title>
<path fill="none" stroke="midnightblue" d="M461.806,-195.734C472.772,-185.403 491.207,-168.037 504.694,-155.332"/>
<polygon fill="midnightblue" stroke="midnightblue" points="507.463,-157.532 512.342,-148.127 502.663,-152.437 507.463,-157.532"/>
</g>
<!-- Node25 -->
<g id="node25" class="node"><title>Node25</title>
<g id="a_node25"><a xlink:href="QualityObject_8h_source.html" target="_top" xlink:title="QualityControl/QualityObject.h">
<polygon fill="none" stroke="black" points="24,-129 24,-148 173,-148 173,-129 24,-129"/>
<text text-anchor="middle" x="98.5" y="-136" font-family="Helvetica,sans-Serif" font-size="10.00">QualityControl/QualityObject.h</text>
</a>
</g>
</g>
<!-- Node24&#45;&gt;Node25 -->
<g id="edge40" class="edge"><title>Node24&#45;&gt;Node25</title>
<path fill="none" stroke="midnightblue" d="M405.857,-195.936C341.168,-184.058 224.351,-162.608 154.862,-149.849"/>
<polygon fill="midnightblue" stroke="midnightblue" points="155.433,-146.395 144.965,-148.032 154.169,-153.28 155.433,-146.395"/>
</g>
<!-- Node25&#45;&gt;Node13 -->
<g id="edge41" class="edge"><title>Node25&#45;&gt;Node13</title>
<path fill="none" stroke="midnightblue" d="M74.13,-128.876C55.8892,-121.012 32.1587,-107.465 20.5,-87 10.5157,-69.4743 11.3781,-45.805 13.698,-29.5633"/>
<polygon fill="midnightblue" stroke="midnightblue" points="17.1528,-30.1249 15.4215,-19.6724 10.2567,-28.9232 17.1528,-30.1249"/>
</g>
<!-- Node25&#45;&gt;Node15 -->
<g id="edge42" class="edge"><title>Node25&#45;&gt;Node15</title>
<path fill="none" stroke="midnightblue" d="M110.574,-128.885C124.432,-118.946 147.79,-102.037 167.5,-87 185.104,-73.5699 187.97,-68.1205 206.5,-56 224.839,-44.0043 246.715,-32.481 263.681,-24.0985"/>
<polygon fill="midnightblue" stroke="midnightblue" points="265.578,-27.068 273.039,-19.5462 262.515,-20.7733 265.578,-27.068"/>
</g>
<!-- Node25&#45;&gt;Node16 -->
<g id="edge43" class="edge"><title>Node25&#45;&gt;Node16</title>
<path fill="none" stroke="midnightblue" d="M77.7006,-128.988C61.0112,-120.909 38.7383,-107.011 28.5,-87 22.2244,-74.7344 21.4519,-67.8386 28.5,-56 37.5965,-40.7208 53.8884,-30.3102 69.6438,-23.3857"/>
<polygon fill="midnightblue" stroke="midnightblue" points="71.3334,-26.4794 79.3154,-19.5124 68.7309,-19.9811 71.3334,-26.4794"/>
</g>
<!-- Node26 -->
<g id="node26" class="node"><title>Node26</title>
<g id="a_node26"><a xlink:href="Quality_8h.html" target="_top" xlink:title="QualityControl/Quality.h">
<polygon fill="none" stroke="black" points="38,-62 38,-81 159,-81 159,-62 38,-62"/>
<text text-anchor="middle" x="98.5" y="-69" font-family="Helvetica,sans-Serif" font-size="10.00">QualityControl/Quality.h</text>
</a>
</g>
</g>
<!-- Node25&#45;&gt;Node26 -->
<g id="edge44" class="edge"><title>Node25&#45;&gt;Node26</title>
<path fill="none" stroke="midnightblue" d="M98.5,-128.734C98.5,-119.183 98.5,-103.618 98.5,-91.2829"/>
<polygon fill="midnightblue" stroke="midnightblue" points="102,-91.1273 98.5,-81.1273 95.0001,-91.1273 102,-91.1273"/>
</g>
<!-- Node26&#45;&gt;Node8 -->
<g id="edge46" class="edge"><title>Node26&#45;&gt;Node8</title>
<path fill="none" stroke="midnightblue" d="M159.028,-62.2247C174.5,-60.1504 191.111,-57.9587 206.5,-56 333.755,-39.8025 485.572,-22.0075 549.601,-14.5725"/>
<polygon fill="midnightblue" stroke="midnightblue" points="550.28,-18.0173 559.81,-13.3885 549.473,-11.0639 550.28,-18.0173"/>
</g>
<!-- Node26&#45;&gt;Node13 -->
<g id="edge47" class="edge"><title>Node26&#45;&gt;Node13</title>
<path fill="none" stroke="midnightblue" d="M86.8947,-61.9751C74.0228,-52.5199 53.0258,-37.0961 37.4943,-25.6871"/>
<polygon fill="midnightblue" stroke="midnightblue" points="39.2152,-22.6085 29.0838,-19.5091 35.0711,-28.25 39.2152,-22.6085"/>
</g>
<!-- Node26&#45;&gt;Node14 -->
<g id="edge45" class="edge"><title>Node26&#45;&gt;Node14</title>
<path fill="none" stroke="midnightblue" d="M115.263,-61.9751C134.725,-52.078 167.045,-35.6416 189.711,-24.1151"/>
<polygon fill="midnightblue" stroke="midnightblue" points="191.441,-27.1619 198.768,-19.5091 188.268,-20.9224 191.441,-27.1619"/>
</g>
<!-- Node28 -->
<g id="node28" class="node"><title>Node28</title>
<polygon fill="none" stroke="#bfbfbf" points="1358.5,-196 1358.5,-215 1488.5,-215 1488.5,-196 1358.5,-196"/>
<text text-anchor="middle" x="1423.5" y="-203" font-family="Helvetica,sans-Serif" font-size="10.00">InfoLogger/InfoLogger.hxx</text>
</g>
<!-- Node27&#45;&gt;Node28 -->
<g id="edge52" class="edge"><title>Node27&#45;&gt;Node28</title>
<path fill="none" stroke="midnightblue" d="M1423.5,-262.734C1423.5,-253.183 1423.5,-237.618 1423.5,-225.283"/>
<polygon fill="midnightblue" stroke="midnightblue" points="1427,-225.127 1423.5,-215.127 1420,-225.127 1427,-225.127"/>
</g>
<!-- Node29 -->
<g id="node29" class="node"><title>Node29</title>
<polygon fill="none" stroke="#bfbfbf" points="1506.5,-196 1506.5,-215 1668.5,-215 1668.5,-196 1506.5,-196"/>
<text text-anchor="middle" x="1587.5" y="-203" font-family="Helvetica,sans-Serif" font-size="10.00">InfoLogger/InfoLoggerMacros.hxx</text>
</g>
<!-- Node27&#45;&gt;Node29 -->
<g id="edge53" class="edge"><title>Node27&#45;&gt;Node29</title>
<path fill="none" stroke="midnightblue" d="M1445.28,-262.869C1473.78,-251.571 1523.93,-231.696 1556.42,-218.818"/>
<polygon fill="midnightblue" stroke="midnightblue" points="1557.89,-222.002 1565.89,-215.064 1555.31,-215.495 1557.89,-222.002"/>
</g>
</g>
</svg>
        <g id="navigator" transform="translate(0 0)" fill="#404254">
                <rect fill="#f2f5e9" fill-opacity="0.5" stroke="#606060" stroke-width=".5" x="0" y="0" width="60" height="60"/>
                <use id="zoomplus" xlink:href="#zoomPlus" x="17" y="9" onmousedown="handleZoom(evt,'in')"/>
                <use id="zoomminus" xlink:href="#zoomMin" x="42" y="9" onmousedown="handleZoom(evt,'out')"/>
                <use id="reset" xlink:href="#resetDef" x="30" y="36" onmousedown="handleReset()"/>
                <g id="arrowUp" xlink:href="#dirArrow" transform="translate(30 24)" onmousedown="handlePan(0,-1)">
                  <use xlink:href="#rim" fill="#404040">
                        <set attributeName="fill" to="#808080" begin="arrowUp.mouseover" end="arrowUp.mouseout"/>
                  </use>
                  <path fill="none" stroke="white" stroke-width="1.5" d="M0,-3.0v7 M-2.5,-0.5L0,-3.0L2.5,-0.5"/>
                </g>
                <g id="arrowRight" xlink:href="#dirArrow" transform="rotate(90) translate(36 -43)" onmousedown="handlePan(1,0)">
                  <use xlink:href="#rim" fill="#404040">
                        <set attributeName="fill" to="#808080" begin="arrowRight.mouseover" end="arrowRight.mouseout"/>
                  </use>
                  <path fill="none" stroke="white" stroke-width="1.5" d="M0,-3.0v7 M-2.5,-0.5L0,-3.0L2.5,-0.5"/>
                </g>
                <g id="arrowDown" xlink:href="#dirArrow" transform="rotate(180) translate(-30 -48)" onmousedown="handlePan(0,1)">
                  <use xlink:href="#rim" fill="#404040">
                        <set attributeName="fill" to="#808080" begin="arrowDown.mouseover" end="arrowDown.mouseout"/>
                  </use>
                  <path fill="none" stroke="white" stroke-width="1.5" d="M0,-3.0v7 M-2.5,-0.5L0,-3.0L2.5,-0.5"/>
                </g>
                <g id="arrowLeft" xlink:href="#dirArrow" transform="rotate(270) translate(-36 17)" onmousedown="handlePan(-1,0)">
                  <use xlink:href="#rim" fill="#404040">
                        <set attributeName="fill" to="#808080" begin="arrowLeft.mouseover" end="arrowLeft.mouseout"/>
                  </use>
                  <path fill="none" stroke="white" stroke-width="1.5" d="M0,-3.0v7 M-2.5,-0.5L0,-3.0L2.5,-0.5"/>
                </g>
        </g>
        <svg viewBox="0 0 15 15" width="100%" height="30px" preserveAspectRatio="xMaxYMin meet">
         <g id="arrow_out" transform="scale(0.3 0.3)">
          <a xlink:href="runPostProcessingOCC_8cxx__incl_org.svg" target="_base">
           <rect id="button" ry="5" rx="5" y="6" x="6" height="38" width="38"
                fill="#f2f5e9" fill-opacity="0.5" stroke="#606060" stroke-width="1.0"/>
           <path id="arrow"
             d="M 11.500037,31.436501 C 11.940474,20.09759 22.043105,11.32322 32.158766,21.979434 L 37.068811,17.246167 C 37.068811,17.246167 37.088388,32 37.088388,32 L 22.160133,31.978069 C 22.160133,31.978069 26.997745,27.140456 26.997745,27.140456 C 18.528582,18.264221 13.291696,25.230495 11.500037,31.436501 z"
             style="fill:#404040;"/>
          </a>
         </g>
        </svg>
</svg>
