<?xml version="1.0" encoding="UTF-8" standalone="no"?>
<!DOCTYPE svg PUBLIC "-//W3C//DTD SVG 1.1//EN"
 "http://www.w3.org/Graphics/SVG/1.1/DTD/svg11.dtd">
<!-- Generated by graphviz version 2.38.0 (20140413.2041)
 -->
<!-- Title: Framework/src/runQC.cxx Pages: 1 -->
<svg width="855pt" height="151pt"
 viewBox="0.00 0.00 855.00 151.00" xmlns="http://www.w3.org/2000/svg" xmlns:xlink="http://www.w3.org/1999/xlink">
<g id="graph0" class="graph" transform="scale(1 1) rotate(0) translate(4 147)">
<title>Framework/src/runQC.cxx</title>
<!-- Node1 -->
<g id="node1" class="node"><title>Node1</title>
<polygon fill="#bfbfbf" stroke="black" points="286,-123.5 286,-142.5 418,-142.5 418,-123.5 286,-123.5"/>
<text text-anchor="middle" x="352" y="-130.5" font-family="Helvetica,sans-Serif" font-size="10.00">Framework/src/runQC.cxx</text>
</g>
<!-- Node2 -->
<g id="node2" class="node"><title>Node2</title>
<polygon fill="none" stroke="#bfbfbf" points="0,-56.5 0,-86.5 94,-86.5 94,-56.5 0,-56.5"/>
<text text-anchor="start" x="8" y="-74.5" font-family="Helvetica,sans-Serif" font-size="10.00">boost/asio/ip/host</text>
<text text-anchor="middle" x="47" y="-63.5" font-family="Helvetica,sans-Serif" font-size="10.00">_name.hpp</text>
</g>
<!-- Node1&#45;&gt;Node2 -->
<g id="edge1" class="edge"><title>Node1&#45;&gt;Node2</title>
<path fill="none" stroke="midnightblue" d="M299.056,-123.491C248.7,-115.138 170.916,-101.564 104,-87 103.9,-86.9783 103.8,-86.9565 103.7,-86.9347"/>
<polygon fill="midnightblue" stroke="midnightblue" points="104.744,-83.5827 94.2174,-84.7809 103.194,-90.4089 104.744,-83.5827"/>
</g>
<!-- Node3 -->
<g id="node3" class="node"><title>Node3</title>
<polygon fill="none" stroke="#bfbfbf" points="112.5,-62 112.5,-81 263.5,-81 263.5,-62 112.5,-62"/>
<text text-anchor="middle" x="188" y="-69" font-family="Helvetica,sans-Serif" font-size="10.00">DataSampling/DataSampling.h</text>
</g>
<!-- Node1&#45;&gt;Node3 -->
<g id="edge2" class="edge"><title>Node1&#45;&gt;Node3</title>
<path fill="none" stroke="midnightblue" d="M328.503,-123.475C300.371,-113.269 253.071,-96.108 221.211,-84.5492"/>
<polygon fill="midnightblue" stroke="midnightblue" points="222.048,-81.1295 211.454,-81.0091 219.66,-87.7098 222.048,-81.1295"/>
</g>
<!-- Node4 -->
<g id="node4" class="node"><title>Node4</title>
<g id="a_node4"><a xlink:href="InfrastructureGenerator_8h.html" target="_top" xlink:title="QualityControl/Infrastructure\lGenerator.h">
<polygon fill="none" stroke="black" points="282,-56.5 282,-86.5 422,-86.5 422,-56.5 282,-56.5"/>
<text text-anchor="start" x="290" y="-74.5" font-family="Helvetica,sans-Serif" font-size="10.00">QualityControl/Infrastructure</text>
<text text-anchor="middle" x="352" y="-63.5" font-family="Helvetica,sans-Serif" font-size="10.00">Generator.h</text>
</a>
</g>
</g>
<!-- Node1&#45;&gt;Node4 -->
<g id="edge3" class="edge"><title>Node1&#45;&gt;Node4</title>
<path fill="none" stroke="midnightblue" d="M352,-123.475C352,-116.471 352,-106.192 352,-96.6956"/>
<polygon fill="midnightblue" stroke="midnightblue" points="355.5,-96.5229 352,-86.523 348.5,-96.523 355.5,-96.5229"/>
</g>
<!-- Node9 -->
<g id="node9" class="node"><title>Node9</title>
<g id="a_node9"><a xlink:href="QcInfoLogger_8h.html" target="_top" xlink:title="QualityControl/QcInfoLogger.h">
<polygon fill="none" stroke="black" points="484.5,-62 484.5,-81 633.5,-81 633.5,-62 484.5,-62"/>
<text text-anchor="middle" x="559" y="-69" font-family="Helvetica,sans-Serif" font-size="10.00">QualityControl/QcInfoLogger.h</text>
</a>
</g>
</g>
<!-- Node1&#45;&gt;Node9 -->
<g id="edge8" class="edge"><title>Node1&#45;&gt;Node9</title>
<path fill="none" stroke="midnightblue" d="M381.658,-123.475C417.934,-113.048 479.464,-95.3618 519.664,-83.8066"/>
<polygon fill="midnightblue" stroke="midnightblue" points="520.753,-87.1355 529.397,-81.0091 518.819,-80.4079 520.753,-87.1355"/>
</g>
<!-- Node12 -->
<g id="node12" class="node"><title>Node12</title>
<polygon fill="none" stroke="#bfbfbf" points="652,-62 652,-81 812,-81 812,-62 652,-62"/>
<text text-anchor="middle" x="732" y="-69" font-family="Helvetica,sans-Serif" font-size="10.00">Framework/runDataProcessing.h</text>
</g>
<!-- Node1&#45;&gt;Node12 -->
<g id="edge11" class="edge"><title>Node1&#45;&gt;Node12</title>
<path fill="none" stroke="midnightblue" d="M408.079,-123.465C466.695,-114.512 561.334,-99.9667 643,-87 651.762,-85.6087 661.007,-84.1229 670.09,-82.6525"/>
<polygon fill="midnightblue" stroke="midnightblue" points="670.933,-86.0615 680.243,-81.0047 669.812,-79.1519 670.933,-86.0615"/>
</g>
<!-- Node5 -->
<g id="node5" class="node"><title>Node5</title>
<polygon fill="none" stroke="#bfbfbf" points="75,-0.5 75,-19.5 119,-19.5 119,-0.5 75,-0.5"/>
<text text-anchor="middle" x="97" y="-7.5" font-family="Helvetica,sans-Serif" font-size="10.00">vector</text>
</g>
<!-- Node4&#45;&gt;Node5 -->
<g id="edge4" class="edge"><title>Node4&#45;&gt;Node5</title>
<path fill="none" stroke="midnightblue" d="M285.923,-56.4708C243.779,-47.3061 187.797,-34.7336 129.157,-19.9336"/>
<polygon fill="midnightblue" stroke="midnightblue" points="129.894,-16.5099 119.34,-17.4414 128.171,-23.2946 129.894,-16.5099"/>
</g>
<!-- Node6 -->
<g id="node6" class="node"><title>Node6</title>
<polygon fill="none" stroke="#bfbfbf" points="137.5,-0.5 137.5,-19.5 178.5,-19.5 178.5,-0.5 137.5,-0.5"/>
<text text-anchor="middle" x="158" y="-7.5" font-family="Helvetica,sans-Serif" font-size="10.00">string</text>
</g>
<!-- Node4&#45;&gt;Node6 -->
<g id="edge5" class="edge"><title>Node4&#45;&gt;Node6</title>
<path fill="none" stroke="midnightblue" d="M306.025,-56.3993C269.784,-45.2844 220.26,-30.0952 188.697,-20.4148"/>
<polygon fill="midnightblue" stroke="midnightblue" points="189.314,-16.9431 178.727,-17.357 187.261,-23.6354 189.314,-16.9431"/>
</g>
<!-- Node7 -->
<g id="node7" class="node"><title>Node7</title>
<polygon fill="none" stroke="#bfbfbf" points="197,-0.5 197,-19.5 337,-19.5 337,-0.5 197,-0.5"/>
<text text-anchor="middle" x="267" y="-7.5" font-family="Helvetica,sans-Serif" font-size="10.00">Framework/WorkflowSpec.h</text>
</g>
<!-- Node4&#45;&gt;Node7 -->
<g id="edge6" class="edge"><title>Node4&#45;&gt;Node7</title>
<path fill="none" stroke="midnightblue" d="M331.856,-56.3993C318.613,-47.1293 301.322,-35.0254 287.924,-25.6469"/>
<polygon fill="midnightblue" stroke="midnightblue" points="289.568,-22.5251 279.368,-19.6578 285.553,-28.2598 289.568,-22.5251"/>
</g>
<!-- Node8 -->
<g id="node8" class="node"><title>Node8</title>
<polygon fill="none" stroke="#bfbfbf" points="355,-0.5 355,-19.5 519,-19.5 519,-0.5 355,-0.5"/>
<text text-anchor="middle" x="437" y="-7.5" font-family="Helvetica,sans-Serif" font-size="10.00">Framework/DataProcessorSpec.h</text>
</g>
<!-- Node4&#45;&gt;Node8 -->
<g id="edge7" class="edge"><title>Node4&#45;&gt;Node8</title>
<path fill="none" stroke="midnightblue" d="M372.144,-56.3993C385.387,-47.1293 402.678,-35.0254 416.076,-25.6469"/>
<polygon fill="midnightblue" stroke="midnightblue" points="418.447,-28.2598 424.632,-19.6578 414.432,-22.5251 418.447,-28.2598"/>
</g>
<!-- Node10 -->
<g id="node10" class="node"><title>Node10</title>
<polygon fill="none" stroke="#bfbfbf" points="537,-0.5 537,-19.5 667,-19.5 667,-0.5 537,-0.5"/>
<text text-anchor="middle" x="602" y="-7.5" font-family="Helvetica,sans-Serif" font-size="10.00">InfoLogger/InfoLogger.hxx</text>
</g>
<!-- Node9&#45;&gt;Node10 -->
<g id="edge9" class="edge"><title>Node9&#45;&gt;Node10</title>
<path fill="none" stroke="midnightblue" d="M565.161,-61.9751C571.611,-53.0501 581.904,-38.8071 589.973,-27.6425"/>
<polygon fill="midnightblue" stroke="midnightblue" points="592.83,-29.6642 595.851,-19.5091 587.156,-25.564 592.83,-29.6642"/>
</g>
<!-- Node11 -->
<g id="node11" class="node"><title>Node11</title>
<polygon fill="none" stroke="#bfbfbf" points="685,-0.5 685,-19.5 847,-19.5 847,-0.5 685,-0.5"/>
<text text-anchor="middle" x="766" y="-7.5" font-family="Helvetica,sans-Serif" font-size="10.00">InfoLogger/InfoLoggerMacros.hxx</text>
</g>
<!-- Node9&#45;&gt;Node11 -->
<g id="edge10" class="edge"><title>Node9&#45;&gt;Node11</title>
<path fill="none" stroke="midnightblue" d="M588.658,-61.9751C624.934,-51.5478 686.464,-33.8618 726.664,-22.3066"/>
<polygon fill="midnightblue" stroke="midnightblue" points="727.753,-25.6355 736.397,-19.5091 725.819,-18.9079 727.753,-25.6355"/>
</g>
</g>
</svg>
