<?xml version="1.0" encoding="UTF-8" standalone="no"?>
<!DOCTYPE svg PUBLIC "-//W3C//DTD SVG 1.1//EN"
 "http://www.w3.org/Graphics/SVG/1.1/DTD/svg11.dtd">
<!-- Generated by graphviz version 2.38.0 (20140413.2041)
 -->
<!-- Title: Framework/src/runReadout.cxx Pages: 1 -->
<svg width="330pt" height="95pt"
 viewBox="0.00 0.00 329.50 95.00" xmlns="http://www.w3.org/2000/svg" xmlns:xlink="http://www.w3.org/1999/xlink">
<g id="graph0" class="graph" transform="scale(1 1) rotate(0) translate(4 91)">
<title>Framework/src/runReadout.cxx</title>
<!-- Node1 -->
<g id="node1" class="node"><title>Node1</title>
<polygon fill="#bfbfbf" stroke="black" points="79.5,-67.5 79.5,-86.5 233.5,-86.5 233.5,-67.5 79.5,-67.5"/>
<text text-anchor="middle" x="156.5" y="-74.5" font-family="Helvetica,sans-Serif" font-size="10.00">Framework/src/runReadout.cxx</text>
</g>
<!-- Node2 -->
<g id="node2" class="node"><title>Node2</title>
<polygon fill="none" stroke="#bfbfbf" points="0,-0.5 0,-30.5 143,-30.5 143,-0.5 0,-0.5"/>
<text text-anchor="start" x="8" y="-18.5" font-family="Helvetica,sans-Serif" font-size="10.00">DataSampling/DataSampling</text>
<text text-anchor="middle" x="71.5" y="-7.5" font-family="Helvetica,sans-Serif" font-size="10.00">ReadoutAdapter.h</text>
</g>
<!-- Node1&#45;&gt;Node2 -->
<g id="edge1" class="edge"><title>Node1&#45;&gt;Node2</title>
<path fill="none" stroke="midnightblue" d="M144.322,-67.4751C132.81,-59.4167 115.104,-47.0229 100.034,-36.4741"/>
<polygon fill="midnightblue" stroke="midnightblue" points="101.732,-33.3903 91.5328,-30.523 97.718,-39.125 101.732,-33.3903"/>
</g>
<!-- Node3 -->
<g id="node3" class="node"><title>Node3</title>
<polygon fill="none" stroke="#bfbfbf" points="161.5,-6 161.5,-25 321.5,-25 321.5,-6 161.5,-6"/>
<text text-anchor="middle" x="241.5" y="-13" font-family="Helvetica,sans-Serif" font-size="10.00">Framework/runDataProcessing.h</text>
</g>
<!-- Node1&#45;&gt;Node3 -->
<g id="edge2" class="edge"><title>Node1&#45;&gt;Node3</title>
<path fill="none" stroke="midnightblue" d="M168.678,-67.4751C182.312,-57.9315 204.632,-42.3073 220.974,-30.8683"/>
<polygon fill="midnightblue" stroke="midnightblue" points="223.159,-33.6111 229.344,-25.0091 219.145,-27.8764 223.159,-33.6111"/>
</g>
</g>
</svg>
