<?xml version="1.0" encoding="UTF-8" standalone="no"?>
<!DOCTYPE svg PUBLIC "-//W3C//DTD SVG 1.1//EN"
 "http://www.w3.org/Graphics/SVG/1.1/DTD/svg11.dtd">
<!-- Generated by graphviz version 2.38.0 (20140413.2041)
 -->
<!-- Title: Modules/MFT/src/runTracksRootFileReaderMFT.cxx Pages: 1 -->
<svg width="1309pt" height="95pt"
 viewBox="0.00 0.00 1308.50 95.00" xmlns="http://www.w3.org/2000/svg" xmlns:xlink="http://www.w3.org/1999/xlink">
<g id="graph0" class="graph" transform="scale(1 1) rotate(0) translate(4 91)">
<title>Modules/MFT/src/runTracksRootFileReaderMFT.cxx</title>
<!-- Node1 -->
<g id="node1" class="node"><title>Node1</title>
<polygon fill="#bfbfbf" stroke="black" points="447,-56.5 447,-86.5 587,-86.5 587,-56.5 447,-56.5"/>
<text text-anchor="start" x="455" y="-74.5" font-family="Helvetica,sans-Serif" font-size="10.00">Modules/MFT/src/runTracks</text>
<text text-anchor="middle" x="517" y="-63.5" font-family="Helvetica,sans-Serif" font-size="10.00">RootFileReaderMFT.cxx</text>
</g>
<!-- Node2 -->
<g id="node2" class="node"><title>Node2</title>
<polygon fill="none" stroke="#bfbfbf" points="0,-0.5 0,-19.5 44,-19.5 44,-0.5 0,-0.5"/>
<text text-anchor="middle" x="22" y="-7.5" font-family="Helvetica,sans-Serif" font-size="10.00">vector</text>
</g>
<!-- Node1&#45;&gt;Node2 -->
<g id="edge1" class="edge"><title>Node1&#45;&gt;Node2</title>
<path fill="none" stroke="midnightblue" d="M446.856,-66.6798C357.54,-60.9668 198.458,-47.9494 54.1588,-19.9148"/>
<polygon fill="midnightblue" stroke="midnightblue" points="54.7248,-16.4591 44.2366,-17.9585 53.3707,-23.3269 54.7248,-16.4591"/>
</g>
<!-- Node3 -->
<g id="node3" class="node"><title>Node3</title>
<polygon fill="none" stroke="#bfbfbf" points="62.5,-0.5 62.5,-19.5 109.5,-19.5 109.5,-0.5 62.5,-0.5"/>
<text text-anchor="middle" x="86" y="-7.5" font-family="Helvetica,sans-Serif" font-size="10.00">TFile.h</text>
</g>
<!-- Node1&#45;&gt;Node3 -->
<g id="edge2" class="edge"><title>Node1&#45;&gt;Node3</title>
<path fill="none" stroke="midnightblue" d="M446.783,-64.5896C369.073,-57.3748 240.039,-43.402 119.816,-19.895"/>
<polygon fill="midnightblue" stroke="midnightblue" points="120.188,-16.4009 109.699,-17.8899 118.827,-23.2673 120.188,-16.4009"/>
</g>
<!-- Node4 -->
<g id="node4" class="node"><title>Node4</title>
<polygon fill="none" stroke="#bfbfbf" points="128,-0.5 128,-19.5 178,-19.5 178,-0.5 128,-0.5"/>
<text text-anchor="middle" x="153" y="-7.5" font-family="Helvetica,sans-Serif" font-size="10.00">TTree.h</text>
</g>
<!-- Node1&#45;&gt;Node4 -->
<g id="edge3" class="edge"><title>Node1&#45;&gt;Node4</title>
<path fill="none" stroke="midnightblue" d="M446.762,-61.9659C381.98,-53.5913 282.991,-39.5246 188.223,-20.0715"/>
<polygon fill="midnightblue" stroke="midnightblue" points="188.682,-16.5923 178.18,-17.986 187.259,-23.4461 188.682,-16.5923"/>
</g>
<!-- Node5 -->
<g id="node5" class="node"><title>Node5</title>
<polygon fill="none" stroke="#bfbfbf" points="196,-0.5 196,-19.5 344,-19.5 344,-0.5 196,-0.5"/>
<text text-anchor="middle" x="270" y="-7.5" font-family="Helvetica,sans-Serif" font-size="10.00">Framework/CallbackService.h</text>
</g>
<!-- Node1&#45;&gt;Node5 -->
<g id="edge4" class="edge"><title>Node1&#45;&gt;Node5</title>
<path fill="none" stroke="midnightblue" d="M458.777,-56.4747C414.862,-45.8959 355.494,-31.5946 315.141,-21.874"/>
<polygon fill="midnightblue" stroke="midnightblue" points="315.854,-18.4457 305.312,-19.5064 314.214,-25.251 315.854,-18.4457"/>
</g>
<!-- Node6 -->
<g id="node6" class="node"><title>Node6</title>
<polygon fill="none" stroke="#bfbfbf" points="362.5,-0.5 362.5,-19.5 503.5,-19.5 503.5,-0.5 362.5,-0.5"/>
<text text-anchor="middle" x="433" y="-7.5" font-family="Helvetica,sans-Serif" font-size="10.00">Framework/ControlService.h</text>
</g>
<!-- Node1&#45;&gt;Node6 -->
<g id="edge5" class="edge"><title>Node1&#45;&gt;Node6</title>
<path fill="none" stroke="midnightblue" d="M497.093,-56.3993C484.006,-47.1293 466.918,-35.0254 453.678,-25.6469"/>
<polygon fill="midnightblue" stroke="midnightblue" points="455.406,-22.5819 445.223,-19.6578 451.36,-28.2941 455.406,-22.5819"/>
</g>
<!-- Node7 -->
<g id="node7" class="node"><title>Node7</title>
<polygon fill="none" stroke="#bfbfbf" points="522,-0.5 522,-19.5 682,-19.5 682,-0.5 522,-0.5"/>
<text text-anchor="middle" x="602" y="-7.5" font-family="Helvetica,sans-Serif" font-size="10.00">Framework/runDataProcessing.h</text>
</g>
<!-- Node1&#45;&gt;Node7 -->
<g id="edge6" class="edge"><title>Node1&#45;&gt;Node7</title>
<path fill="none" stroke="midnightblue" d="M537.144,-56.3993C550.387,-47.1293 567.678,-35.0254 581.076,-25.6469"/>
<polygon fill="midnightblue" stroke="midnightblue" points="583.447,-28.2598 589.632,-19.6578 579.432,-22.5251 583.447,-28.2598"/>
</g>
<!-- Node8 -->
<g id="node8" class="node"><title>Node8</title>
<polygon fill="none" stroke="#bfbfbf" points="700,-0.5 700,-19.5 798,-19.5 798,-0.5 700,-0.5"/>
<text text-anchor="middle" x="749" y="-7.5" font-family="Helvetica,sans-Serif" font-size="10.00">Framework/Task.h</text>
</g>
<!-- Node1&#45;&gt;Node8 -->
<g id="edge7" class="edge"><title>Node1&#45;&gt;Node8</title>
<path fill="none" stroke="midnightblue" d="M571.687,-56.4747C612.76,-45.9408 668.226,-31.7158 706.118,-21.9978"/>
<polygon fill="midnightblue" stroke="midnightblue" points="707.015,-25.381 715.832,-19.5064 705.276,-18.6004 707.015,-25.381"/>
</g>
<!-- Node9 -->
<g id="node9" class="node"><title>Node9</title>
<polygon fill="none" stroke="#bfbfbf" points="816,-0.5 816,-19.5 966,-19.5 966,-0.5 816,-0.5"/>
<text text-anchor="middle" x="891" y="-7.5" font-family="Helvetica,sans-Serif" font-size="10.00">DataFormatsMFT/TrackMFT.h</text>
</g>
<!-- Node1&#45;&gt;Node9 -->
<g id="edge8" class="edge"><title>Node1&#45;&gt;Node9</title>
<path fill="none" stroke="midnightblue" d="M587.347,-59.3085C656.381,-48.3257 760.731,-31.7246 827.359,-21.1246"/>
<polygon fill="midnightblue" stroke="midnightblue" points="827.986,-24.569 837.312,-19.5412 826.887,-17.6559 827.986,-24.569"/>
</g>
<!-- Node10 -->
<g id="node10" class="node"><title>Node10</title>
<polygon fill="none" stroke="#bfbfbf" points="984.5,-0.5 984.5,-19.5 1157.5,-19.5 1157.5,-0.5 984.5,-0.5"/>
<text text-anchor="middle" x="1071" y="-7.5" font-family="Helvetica,sans-Serif" font-size="10.00">DataFormatsITSMFT/ROFRecord.h</text>
</g>
<!-- Node1&#45;&gt;Node10 -->
<g id="edge9" class="edge"><title>Node1&#45;&gt;Node10</title>
<path fill="none" stroke="midnightblue" d="M587.164,-62.9643C687.397,-52.1992 871.575,-32.4183 981.501,-20.6122"/>
<polygon fill="midnightblue" stroke="midnightblue" points="982.006,-24.0783 991.575,-19.5303 981.258,-17.1183 982.006,-24.0783"/>
</g>
<!-- Node11 -->
<g id="node11" class="node"><title>Node11</title>
<polygon fill="none" stroke="#bfbfbf" points="1175.5,-0.5 1175.5,-19.5 1300.5,-19.5 1300.5,-0.5 1175.5,-0.5"/>
<text text-anchor="middle" x="1238" y="-7.5" font-family="Helvetica,sans-Serif" font-size="10.00">MFTTracking/TrackCA.h</text>
</g>
<!-- Node1&#45;&gt;Node11 -->
<g id="edge10" class="edge"><title>Node1&#45;&gt;Node11</title>
<path fill="none" stroke="midnightblue" d="M587.316,-66.1601C704.856,-58.6579 948.904,-42.0258 1165.34,-20.129"/>
<polygon fill="midnightblue" stroke="midnightblue" points="1165.7,-23.61 1175.3,-19.1156 1165,-16.646 1165.7,-23.61"/>
</g>
</g>
</svg>
