<?xml version="1.0" encoding="UTF-8" standalone="no"?>
<!DOCTYPE svg PUBLIC "-//W3C//DTD SVG 1.1//EN"
 "http://www.w3.org/Graphics/SVG/1.1/DTD/svg11.dtd">
<!-- Generated by graphviz version 2.38.0 (20140413.2041)
 -->
<!-- Title: Modules/Skeleton/include/Skeleton/SkeletonPostProcessing.h Pages: 1 -->
<svg width="943pt" height="296pt"
 viewBox="0.00 0.00 943.06 296.00" xmlns="http://www.w3.org/2000/svg" xmlns:xlink="http://www.w3.org/1999/xlink">
<g id="graph0" class="graph" transform="scale(1 1) rotate(0) translate(4 292)">
<title>Modules/Skeleton/include/Skeleton/SkeletonPostProcessing.h</title>
<!-- Node1 -->
<g id="node1" class="node"><title>Node1</title>
<polygon fill="#bfbfbf" stroke="black" points="213.057,-257.5 213.057,-287.5 389.057,-287.5 389.057,-257.5 213.057,-257.5"/>
<text text-anchor="start" x="221.057" y="-275.5" font-family="Helvetica,sans-Serif" font-size="10.00">Modules/Skeleton/include</text>
<text text-anchor="middle" x="301.057" y="-264.5" font-family="Helvetica,sans-Serif" font-size="10.00">/Skeleton/SkeletonPostProcessing.h</text>
</g>
<!-- Node2 -->
<g id="node2" class="node"><title>Node2</title>
<g id="a_node2"><a xlink:href="PostProcessingInterface_8h.html" target="_top" xlink:title="QualityControl/PostProcessing\lInterface.h">
<polygon fill="none" stroke="black" points="225.557,-190.5 225.557,-220.5 376.557,-220.5 376.557,-190.5 225.557,-190.5"/>
<text text-anchor="start" x="233.557" y="-208.5" font-family="Helvetica,sans-Serif" font-size="10.00">QualityControl/PostProcessing</text>
<text text-anchor="middle" x="301.057" y="-197.5" font-family="Helvetica,sans-Serif" font-size="10.00">Interface.h</text>
</a>
</g>
</g>
<!-- Node1&#45;&gt;Node2 -->
<g id="edge1" class="edge"><title>Node1&#45;&gt;Node2</title>
<path fill="none" stroke="midnightblue" d="M301.057,-257.396C301.057,-249.645 301.057,-239.812 301.057,-230.86"/>
<polygon fill="midnightblue" stroke="midnightblue" points="304.557,-230.576 301.057,-220.577 297.557,-230.577 304.557,-230.576"/>
</g>
<!-- Node3 -->
<g id="node3" class="node"><title>Node3</title>
<polygon fill="none" stroke="#bfbfbf" points="182.557,-0.5 182.557,-19.5 223.557,-19.5 223.557,-0.5 182.557,-0.5"/>
<text text-anchor="middle" x="203.057" y="-7.5" font-family="Helvetica,sans-Serif" font-size="10.00">string</text>
</g>
<!-- Node2&#45;&gt;Node3 -->
<g id="edge2" class="edge"><title>Node2&#45;&gt;Node3</title>
<path fill="none" stroke="midnightblue" d="M225.276,-203.581C172.853,-199.668 103.541,-187.7 52.0569,-154 21.6232,-134.079 16.0097,-121.686 5.05691,-87 0.908188,-73.8617 -3.53837,-66.7679 5.05691,-56 25.6396,-30.2146 121.982,-18.0784 172.29,-13.4171"/>
<polygon fill="midnightblue" stroke="midnightblue" points="172.629,-16.9008 182.282,-12.5336 172.013,-9.92799 172.629,-16.9008"/>
</g>
<!-- Node4 -->
<g id="node4" class="node"><title>Node4</title>
<polygon fill="none" stroke="#bfbfbf" points="400.057,-129 400.057,-148 546.057,-148 546.057,-129 400.057,-129"/>
<text text-anchor="middle" x="473.057" y="-136" font-family="Helvetica,sans-Serif" font-size="10.00">Framework/ServiceRegistry.h</text>
</g>
<!-- Node2&#45;&gt;Node4 -->
<g id="edge3" class="edge"><title>Node2&#45;&gt;Node4</title>
<path fill="none" stroke="midnightblue" d="M338.378,-190.396C368.958,-178.84 411.782,-162.656 440.872,-151.663"/>
<polygon fill="midnightblue" stroke="midnightblue" points="442.429,-154.816 450.546,-148.007 439.954,-148.268 442.429,-154.816"/>
</g>
<!-- Node5 -->
<g id="node5" class="node"><title>Node5</title>
<polygon fill="none" stroke="#bfbfbf" points="564.557,-123.5 564.557,-153.5 665.557,-153.5 665.557,-123.5 564.557,-123.5"/>
<text text-anchor="start" x="572.557" y="-141.5" font-family="Helvetica,sans-Serif" font-size="10.00">boost/property_tree</text>
<text text-anchor="middle" x="615.057" y="-130.5" font-family="Helvetica,sans-Serif" font-size="10.00">/ptree_fwd.hpp</text>
</g>
<!-- Node2&#45;&gt;Node5 -->
<g id="edge4" class="edge"><title>Node2&#45;&gt;Node5</title>
<path fill="none" stroke="midnightblue" d="M375.689,-190.493C423.912,-181.249 488.253,-168.555 554.187,-154.141"/>
<polygon fill="midnightblue" stroke="midnightblue" points="555.336,-157.472 564.352,-151.908 553.833,-150.635 555.336,-157.472"/>
</g>
<!-- Node6 -->
<g id="node6" class="node"><title>Node6</title>
<g id="a_node6"><a xlink:href="Triggers_8h.html" target="_top" xlink:title="QualityControl/Triggers.h">
<polygon fill="none" stroke="black" points="61.5569,-129 61.5569,-148 186.557,-148 186.557,-129 61.5569,-129"/>
<text text-anchor="middle" x="124.057" y="-136" font-family="Helvetica,sans-Serif" font-size="10.00">QualityControl/Triggers.h</text>
</a>
</g>
</g>
<!-- Node2&#45;&gt;Node6 -->
<g id="edge5" class="edge"><title>Node2&#45;&gt;Node6</title>
<path fill="none" stroke="midnightblue" d="M262.651,-190.396C231.044,-178.789 186.728,-162.515 156.786,-151.519"/>
<polygon fill="midnightblue" stroke="midnightblue" points="157.816,-148.169 147.222,-148.007 155.403,-154.74 157.816,-148.169"/>
</g>
<!-- Node9 -->
<g id="node9" class="node"><title>Node9</title>
<g id="a_node9"><a xlink:href="ObjectsManager_8h.html" target="_top" xlink:title="QualityControl/ObjectsManager.h">
<polygon fill="none" stroke="black" points="220.557,-129 220.557,-148 381.557,-148 381.557,-129 220.557,-129"/>
<text text-anchor="middle" x="301.057" y="-136" font-family="Helvetica,sans-Serif" font-size="10.00">QualityControl/ObjectsManager.h</text>
</a>
</g>
</g>
<!-- Node2&#45;&gt;Node9 -->
<g id="edge9" class="edge"><title>Node2&#45;&gt;Node9</title>
<path fill="none" stroke="midnightblue" d="M301.057,-190.396C301.057,-181.064 301.057,-168.714 301.057,-158.517"/>
<polygon fill="midnightblue" stroke="midnightblue" points="304.557,-158.195 301.057,-148.195 297.557,-158.195 304.557,-158.195"/>
</g>
<!-- Node6&#45;&gt;Node3 -->
<g id="edge6" class="edge"><title>Node6&#45;&gt;Node3</title>
<path fill="none" stroke="midnightblue" d="M129.487,-128.805C142.397,-108.133 175.121,-55.7323 192.242,-28.3176"/>
<polygon fill="midnightblue" stroke="midnightblue" points="195.261,-30.0915 197.589,-19.7557 189.323,-26.3836 195.261,-30.0915"/>
</g>
<!-- Node7 -->
<g id="node7" class="node"><title>Node7</title>
<polygon fill="none" stroke="#bfbfbf" points="77.5569,-62 77.5569,-81 136.557,-81 136.557,-62 77.5569,-62"/>
<text text-anchor="middle" x="107.057" y="-69" font-family="Helvetica,sans-Serif" font-size="10.00">functional</text>
</g>
<!-- Node6&#45;&gt;Node7 -->
<g id="edge7" class="edge"><title>Node6&#45;&gt;Node7</title>
<path fill="none" stroke="midnightblue" d="M121.764,-128.734C119.241,-119.085 115.112,-103.3 111.871,-90.9063"/>
<polygon fill="midnightblue" stroke="midnightblue" points="115.23,-89.9163 109.313,-81.1273 108.458,-91.6875 115.23,-89.9163"/>
</g>
<!-- Node8 -->
<g id="node8" class="node"><title>Node8</title>
<polygon fill="none" stroke="#bfbfbf" points="14.5569,-62 14.5569,-81 59.5569,-81 59.5569,-62 14.5569,-62"/>
<text text-anchor="middle" x="37.0569" y="-69" font-family="Helvetica,sans-Serif" font-size="10.00">iosfwd</text>
</g>
<!-- Node6&#45;&gt;Node8 -->
<g id="edge8" class="edge"><title>Node6&#45;&gt;Node8</title>
<path fill="none" stroke="midnightblue" d="M112.324,-128.734C98.1049,-118.111 73.9296,-100.049 56.8183,-87.2642"/>
<polygon fill="midnightblue" stroke="midnightblue" points="58.7101,-84.3087 48.6042,-81.1273 54.5204,-89.9165 58.7101,-84.3087"/>
</g>
<!-- Node9&#45;&gt;Node3 -->
<g id="edge22" class="edge"><title>Node9&#45;&gt;Node3</title>
<path fill="none" stroke="midnightblue" d="M278.973,-128.891C260.986,-120.754 236.314,-106.823 222.057,-87 209.927,-70.1342 205.508,-46.3373 203.916,-29.8853"/>
<polygon fill="midnightblue" stroke="midnightblue" points="207.403,-29.5725 203.206,-19.8444 200.421,-30.0664 207.403,-29.5725"/>
</g>
<!-- Node10 -->
<g id="node10" class="node"><title>Node10</title>
<g id="a_node10"><a xlink:href="MonitorObject_8h.html" target="_top" xlink:title="QualityControl/MonitorObject.h">
<polygon fill="none" stroke="black" points="620.557,-62 620.557,-81 771.557,-81 771.557,-62 620.557,-62"/>
<text text-anchor="middle" x="696.057" y="-69" font-family="Helvetica,sans-Serif" font-size="10.00">QualityControl/MonitorObject.h</text>
</a>
</g>
</g>
<!-- Node9&#45;&gt;Node10 -->
<g id="edge10" class="edge"><title>Node9&#45;&gt;Node10</title>
<path fill="none" stroke="midnightblue" d="M353.688,-128.975C428.684,-116.819 562.582,-95.0829 611.057,-87 619.14,-85.6522 627.653,-84.2177 636.043,-82.7953"/>
<polygon fill="midnightblue" stroke="midnightblue" points="636.905,-86.1991 646.177,-81.073 635.732,-79.298 636.905,-86.1991"/>
</g>
<!-- Node15 -->
<g id="node15" class="node"><title>Node15</title>
<g id="a_node15"><a xlink:href="MonitorObjectCollection_8h.html" target="_top" xlink:title="QualityControl/MonitorObject\lCollection.h">
<polygon fill="none" stroke="black" points="459.557,-56.5 459.557,-86.5 602.557,-86.5 602.557,-56.5 459.557,-56.5"/>
<text text-anchor="start" x="467.557" y="-74.5" font-family="Helvetica,sans-Serif" font-size="10.00">QualityControl/MonitorObject</text>
<text text-anchor="middle" x="531.057" y="-63.5" font-family="Helvetica,sans-Serif" font-size="10.00">Collection.h</text>
</a>
</g>
</g>
<!-- Node9&#45;&gt;Node15 -->
<g id="edge16" class="edge"><title>Node9&#45;&gt;Node15</title>
<path fill="none" stroke="midnightblue" d="M331.599,-128.869C367.157,-118.819 426.725,-101.985 471.525,-89.3243"/>
<polygon fill="midnightblue" stroke="midnightblue" points="472.748,-92.6158 481.419,-86.5281 470.844,-85.8796 472.748,-92.6158"/>
</g>
<!-- Node18 -->
<g id="node18" class="node"><title>Node18</title>
<g id="a_node18"><a xlink:href="TaskConfig_8h.html" target="_top" xlink:title="QualityControl/TaskConfig.h">
<polygon fill="none" stroke="black" points="231.057,-62 231.057,-81 371.057,-81 371.057,-62 231.057,-62"/>
<text text-anchor="middle" x="301.057" y="-69" font-family="Helvetica,sans-Serif" font-size="10.00">QualityControl/TaskConfig.h</text>
</a>
</g>
</g>
<!-- Node9&#45;&gt;Node18 -->
<g id="edge19" class="edge"><title>Node9&#45;&gt;Node18</title>
<path fill="none" stroke="midnightblue" d="M301.057,-128.734C301.057,-119.183 301.057,-103.618 301.057,-91.2829"/>
<polygon fill="midnightblue" stroke="midnightblue" points="304.557,-91.1273 301.057,-81.1273 297.557,-91.1273 304.557,-91.1273"/>
</g>
<!-- Node20 -->
<g id="node20" class="node"><title>Node20</title>
<polygon fill="none" stroke="#bfbfbf" points="389.057,-62 389.057,-81 441.057,-81 441.057,-62 389.057,-62"/>
<text text-anchor="middle" x="415.057" y="-69" font-family="Helvetica,sans-Serif" font-size="10.00">memory</text>
</g>
<!-- Node9&#45;&gt;Node20 -->
<g id="edge23" class="edge"><title>Node9&#45;&gt;Node20</title>
<path fill="none" stroke="midnightblue" d="M316.431,-128.734C335.576,-117.818 368.495,-99.0487 390.993,-86.2209"/>
<polygon fill="midnightblue" stroke="midnightblue" points="392.972,-89.121 399.926,-81.1273 389.505,-83.04 392.972,-89.121"/>
</g>
<!-- Node10&#45;&gt;Node3 -->
<g id="edge11" class="edge"><title>Node10&#45;&gt;Node3</title>
<path fill="none" stroke="midnightblue" d="M649.382,-61.9371C636.954,-59.8216 623.519,-57.6822 611.057,-56 451.266,-34.4299 409.621,-43.1858 250.057,-20 244.746,-19.2283 239.123,-18.2731 233.684,-17.276"/>
<polygon fill="midnightblue" stroke="midnightblue" points="234.059,-13.7845 223.58,-15.3444 232.745,-20.66 234.059,-13.7845"/>
</g>
<!-- Node11 -->
<g id="node11" class="node"><title>Node11</title>
<polygon fill="none" stroke="#bfbfbf" points="613.557,-0.5 613.557,-19.5 648.557,-19.5 648.557,-0.5 613.557,-0.5"/>
<text text-anchor="middle" x="631.057" y="-7.5" font-family="Helvetica,sans-Serif" font-size="10.00">map</text>
</g>
<!-- Node10&#45;&gt;Node11 -->
<g id="edge12" class="edge"><title>Node10&#45;&gt;Node11</title>
<path fill="none" stroke="midnightblue" d="M686.744,-61.9751C676.608,-52.6966 660.193,-37.6706 647.805,-26.331"/>
<polygon fill="midnightblue" stroke="midnightblue" points="650.092,-23.6795 640.353,-19.5091 645.366,-28.8429 650.092,-23.6795"/>
</g>
<!-- Node12 -->
<g id="node12" class="node"><title>Node12</title>
<polygon fill="none" stroke="#bfbfbf" points="667.057,-0.5 667.057,-19.5 723.057,-19.5 723.057,-0.5 667.057,-0.5"/>
<text text-anchor="middle" x="695.057" y="-7.5" font-family="Helvetica,sans-Serif" font-size="10.00">Rtypes.h</text>
</g>
<!-- Node10&#45;&gt;Node12 -->
<g id="edge13" class="edge"><title>Node10&#45;&gt;Node12</title>
<path fill="none" stroke="midnightblue" d="M695.914,-61.9751C695.773,-53.5803 695.552,-40.4806 695.371,-29.6631"/>
<polygon fill="midnightblue" stroke="midnightblue" points="698.868,-29.4488 695.2,-19.5091 691.869,-29.5665 698.868,-29.4488"/>
</g>
<!-- Node13 -->
<g id="node13" class="node"><title>Node13</title>
<polygon fill="none" stroke="#bfbfbf" points="741.557,-0.5 741.557,-19.5 800.557,-19.5 800.557,-0.5 741.557,-0.5"/>
<text text-anchor="middle" x="771.057" y="-7.5" font-family="Helvetica,sans-Serif" font-size="10.00">TObject.h</text>
</g>
<!-- Node10&#45;&gt;Node13 -->
<g id="edge14" class="edge"><title>Node10&#45;&gt;Node13</title>
<path fill="none" stroke="midnightblue" d="M706.803,-61.9751C718.61,-52.6082 737.8,-37.3839 752.139,-26.0081"/>
<polygon fill="midnightblue" stroke="midnightblue" points="754.672,-28.4661 760.331,-19.5091 750.322,-22.9822 754.672,-28.4661"/>
</g>
<!-- Node14 -->
<g id="node14" class="node"><title>Node14</title>
<polygon fill="none" stroke="#bfbfbf" points="819.057,-0.5 819.057,-19.5 935.057,-19.5 935.057,-0.5 819.057,-0.5"/>
<text text-anchor="middle" x="877.057" y="-7.5" font-family="Helvetica,sans-Serif" font-size="10.00">Common/Exceptions.h</text>
</g>
<!-- Node10&#45;&gt;Node14 -->
<g id="edge15" class="edge"><title>Node10&#45;&gt;Node14</title>
<path fill="none" stroke="midnightblue" d="M721.99,-61.9751C753.307,-51.6804 806.147,-34.3103 841.313,-22.7502"/>
<polygon fill="midnightblue" stroke="midnightblue" points="842.765,-25.957 851.172,-19.5091 840.579,-19.3071 842.765,-25.957"/>
</g>
<!-- Node16 -->
<g id="node16" class="node"><title>Node16</title>
<polygon fill="none" stroke="#bfbfbf" points="379.557,-0.5 379.557,-19.5 448.557,-19.5 448.557,-0.5 379.557,-0.5"/>
<text text-anchor="middle" x="414.057" y="-7.5" font-family="Helvetica,sans-Serif" font-size="10.00">TObjArray.h</text>
</g>
<!-- Node15&#45;&gt;Node16 -->
<g id="edge17" class="edge"><title>Node15&#45;&gt;Node16</title>
<path fill="none" stroke="midnightblue" d="M503.33,-56.3993C484.225,-46.6837 458.999,-33.8551 440.237,-24.3137"/>
<polygon fill="midnightblue" stroke="midnightblue" points="441.582,-21.071 431.081,-19.6578 438.408,-27.3106 441.582,-21.071"/>
</g>
<!-- Node17 -->
<g id="node17" class="node"><title>Node17</title>
<polygon fill="none" stroke="#bfbfbf" points="467.057,-0.5 467.057,-19.5 595.057,-19.5 595.057,-0.5 467.057,-0.5"/>
<text text-anchor="middle" x="531.057" y="-7.5" font-family="Helvetica,sans-Serif" font-size="10.00">Mergers/MergeInterface.h</text>
</g>
<!-- Node15&#45;&gt;Node17 -->
<g id="edge18" class="edge"><title>Node15&#45;&gt;Node17</title>
<path fill="none" stroke="midnightblue" d="M531.057,-56.3993C531.057,-48.4664 531.057,-38.458 531.057,-29.8583"/>
<polygon fill="midnightblue" stroke="midnightblue" points="534.557,-29.6577 531.057,-19.6578 527.557,-29.6578 534.557,-29.6577"/>
</g>
<!-- Node18&#45;&gt;Node3 -->
<g id="edge20" class="edge"><title>Node18&#45;&gt;Node3</title>
<path fill="none" stroke="midnightblue" d="M287.016,-61.9751C271.006,-52.2548 244.607,-36.2266 225.683,-24.7372"/>
<polygon fill="midnightblue" stroke="midnightblue" points="227.436,-21.7072 217.072,-19.5091 223.803,-27.6907 227.436,-21.7072"/>
</g>
<!-- Node19 -->
<g id="node19" class="node"><title>Node19</title>
<polygon fill="none" stroke="#bfbfbf" points="259.557,-0.5 259.557,-19.5 342.557,-19.5 342.557,-0.5 259.557,-0.5"/>
<text text-anchor="middle" x="301.057" y="-7.5" font-family="Helvetica,sans-Serif" font-size="10.00">unordered_map</text>
</g>
<!-- Node18&#45;&gt;Node19 -->
<g id="edge21" class="edge"><title>Node18&#45;&gt;Node19</title>
<path fill="none" stroke="midnightblue" d="M301.057,-61.9751C301.057,-53.5803 301.057,-40.4806 301.057,-29.6631"/>
<polygon fill="midnightblue" stroke="midnightblue" points="304.557,-29.5091 301.057,-19.5091 297.557,-29.5091 304.557,-29.5091"/>
</g>
</g>
</svg>
