<?xml version="1.0" encoding="UTF-8" standalone="no"?>
<!DOCTYPE svg PUBLIC "-//W3C//DTD SVG 1.1//EN"
 "http://www.w3.org/Graphics/SVG/1.1/DTD/svg11.dtd">
<!-- Generated by graphviz version 2.38.0 (20140413.2041)
 -->
<!-- Title: Modules/Skeleton/include/Skeleton/SkeletonAggregator.h Pages: 1 -->
<svg width="400pt" height="274pt"
 viewBox="0.00 0.00 399.60 274.00" xmlns="http://www.w3.org/2000/svg" xmlns:xlink="http://www.w3.org/1999/xlink">
<g id="graph0" class="graph" transform="scale(1 1) rotate(0) translate(4 270)">
<title>Modules/Skeleton/include/Skeleton/SkeletonAggregator.h</title>
<!-- Node1 -->
<g id="node1" class="node"><title>Node1</title>
<polygon fill="#bfbfbf" stroke="black" points="55.6012,-235.5 55.6012,-265.5 210.601,-265.5 210.601,-235.5 55.6012,-235.5"/>
<text text-anchor="start" x="63.6012" y="-253.5" font-family="Helvetica,sans-Serif" font-size="10.00">Modules/Skeleton/include</text>
<text text-anchor="middle" x="133.101" y="-242.5" font-family="Helvetica,sans-Serif" font-size="10.00">/Skeleton/SkeletonAggregator.h</text>
</g>
<!-- Node2 -->
<g id="node2" class="node"><title>Node2</title>
<polygon fill="none" stroke="#bfbfbf" points="73.1012,-0.5 73.1012,-19.5 129.101,-19.5 129.101,-0.5 73.1012,-0.5"/>
<text text-anchor="middle" x="101.101" y="-7.5" font-family="Helvetica,sans-Serif" font-size="10.00">Rtypes.h</text>
</g>
<!-- Node1&#45;&gt;Node2 -->
<g id="edge1" class="edge"><title>Node1&#45;&gt;Node2</title>
<path fill="none" stroke="midnightblue" d="M117.071,-235.246C87.6447,-207.875 25.9381,-144.563 3.10123,-76 0.292258,-67.5666 -1.69674,-63.4828 3.10123,-56 16.2743,-35.4556 41.4419,-24.1658 62.9732,-18.0326"/>
<polygon fill="midnightblue" stroke="midnightblue" points="64.0529,-21.3689 72.8673,-15.4903 62.3108,-14.5892 64.0529,-21.3689"/>
</g>
<!-- Node3 -->
<g id="node3" class="node"><title>Node3</title>
<g id="a_node3"><a xlink:href="AggregatorInterface_8h.html" target="_top" xlink:title="QualityControl/Aggregator\lInterface.h">
<polygon fill="none" stroke="black" points="217.601,-168.5 217.601,-198.5 346.601,-198.5 346.601,-168.5 217.601,-168.5"/>
<text text-anchor="start" x="225.601" y="-186.5" font-family="Helvetica,sans-Serif" font-size="10.00">QualityControl/Aggregator</text>
<text text-anchor="middle" x="282.101" y="-175.5" font-family="Helvetica,sans-Serif" font-size="10.00">Interface.h</text>
</a>
</g>
</g>
<!-- Node1&#45;&gt;Node3 -->
<g id="edge2" class="edge"><title>Node1&#45;&gt;Node3</title>
<path fill="none" stroke="midnightblue" d="M165.432,-235.396C187.398,-225.814 216.656,-213.05 240.378,-202.702"/>
<polygon fill="midnightblue" stroke="midnightblue" points="242.067,-205.783 249.834,-198.577 239.268,-199.367 242.067,-205.783"/>
</g>
<!-- Node4 -->
<g id="node4" class="node"><title>Node4</title>
<polygon fill="none" stroke="#bfbfbf" points="240.601,-112.5 240.601,-131.5 323.601,-131.5 323.601,-112.5 240.601,-112.5"/>
<text text-anchor="middle" x="282.101" y="-119.5" font-family="Helvetica,sans-Serif" font-size="10.00">unordered_map</text>
</g>
<!-- Node3&#45;&gt;Node4 -->
<g id="edge3" class="edge"><title>Node3&#45;&gt;Node4</title>
<path fill="none" stroke="midnightblue" d="M282.101,-168.399C282.101,-160.466 282.101,-150.458 282.101,-141.858"/>
<polygon fill="midnightblue" stroke="midnightblue" points="285.601,-141.658 282.101,-131.658 278.601,-141.658 285.601,-141.658"/>
</g>
<!-- Node5 -->
<g id="node5" class="node"><title>Node5</title>
<polygon fill="none" stroke="#bfbfbf" points="356.601,-0.5 356.601,-19.5 391.601,-19.5 391.601,-0.5 356.601,-0.5"/>
<text text-anchor="middle" x="374.101" y="-7.5" font-family="Helvetica,sans-Serif" font-size="10.00">map</text>
</g>
<!-- Node3&#45;&gt;Node5 -->
<g id="edge4" class="edge"><title>Node3&#45;&gt;Node5</title>
<path fill="none" stroke="midnightblue" d="M305.798,-168.474C319.527,-159.423 336.363,-146.629 348.101,-132 365.274,-110.597 368.184,-102.795 374.101,-76 377.489,-60.6591 377.192,-42.7804 376.216,-29.661"/>
<polygon fill="midnightblue" stroke="midnightblue" points="379.685,-29.1666 375.259,-19.5405 372.716,-29.8255 379.685,-29.1666"/>
</g>
<!-- Node6 -->
<g id="node6" class="node"><title>Node6</title>
<g id="a_node6"><a xlink:href="QualityObject_8h_source.html" target="_top" xlink:title="QualityControl/QualityObject.h">
<polygon fill="none" stroke="black" points="73.6012,-112.5 73.6012,-131.5 222.601,-131.5 222.601,-112.5 73.6012,-112.5"/>
<text text-anchor="middle" x="148.101" y="-119.5" font-family="Helvetica,sans-Serif" font-size="10.00">QualityControl/QualityObject.h</text>
</a>
</g>
</g>
<!-- Node3&#45;&gt;Node6 -->
<g id="edge5" class="edge"><title>Node3&#45;&gt;Node6</title>
<path fill="none" stroke="midnightblue" d="M250.345,-168.399C228.063,-158.505 198.511,-145.383 176.91,-135.792"/>
<polygon fill="midnightblue" stroke="midnightblue" points="178.159,-132.517 167.599,-131.658 175.319,-138.915 178.159,-132.517"/>
</g>
<!-- Node9 -->
<g id="node9" class="node"><title>Node9</title>
<g id="a_node9"><a xlink:href="Quality_8h.html" target="_top" xlink:title="QualityControl/Quality.h">
<polygon fill="none" stroke="black" points="224.601,-56.5 224.601,-75.5 345.601,-75.5 345.601,-56.5 224.601,-56.5"/>
<text text-anchor="middle" x="285.101" y="-63.5" font-family="Helvetica,sans-Serif" font-size="10.00">QualityControl/Quality.h</text>
</a>
</g>
</g>
<!-- Node3&#45;&gt;Node9 -->
<g id="edge13" class="edge"><title>Node3&#45;&gt;Node9</title>
<path fill="none" stroke="midnightblue" d="M302.734,-168.499C314.012,-159.542 326.913,-146.835 333.101,-132 341.149,-112.706 323.561,-93.8485 307.457,-81.4575"/>
<polygon fill="midnightblue" stroke="midnightblue" points="309.476,-78.5984 299.315,-75.5992 305.388,-84.2805 309.476,-78.5984"/>
</g>
<!-- Node6&#45;&gt;Node5 -->
<g id="edge6" class="edge"><title>Node6&#45;&gt;Node5</title>
<path fill="none" stroke="midnightblue" d="M222.622,-112.682C273.467,-105.559 334.939,-93.6271 354.101,-76 366.981,-64.1525 371.651,-44.2348 373.3,-29.5633"/>
<polygon fill="midnightblue" stroke="midnightblue" points="376.79,-29.8237 374.058,-19.5872 369.81,-29.2931 376.79,-29.8237"/>
</g>
<!-- Node7 -->
<g id="node7" class="node"><title>Node7</title>
<polygon fill="none" stroke="#bfbfbf" points="12.6012,-56.5 12.6012,-75.5 71.6012,-75.5 71.6012,-56.5 12.6012,-56.5"/>
<text text-anchor="middle" x="42.1012" y="-63.5" font-family="Helvetica,sans-Serif" font-size="10.00">TObject.h</text>
</g>
<!-- Node6&#45;&gt;Node7 -->
<g id="edge7" class="edge"><title>Node6&#45;&gt;Node7</title>
<path fill="none" stroke="midnightblue" d="M131.07,-112.324C114.071,-103.664 87.7251,-90.2424 68.1086,-80.249"/>
<polygon fill="midnightblue" stroke="midnightblue" points="69.5889,-77.0752 59.0897,-75.6545 66.4113,-83.3125 69.5889,-77.0752"/>
</g>
<!-- Node8 -->
<g id="node8" class="node"><title>Node8</title>
<polygon fill="none" stroke="#bfbfbf" points="90.1012,-56.5 90.1012,-75.5 206.101,-75.5 206.101,-56.5 90.1012,-56.5"/>
<text text-anchor="middle" x="148.101" y="-63.5" font-family="Helvetica,sans-Serif" font-size="10.00">Common/Exceptions.h</text>
</g>
<!-- Node6&#45;&gt;Node8 -->
<g id="edge8" class="edge"><title>Node6&#45;&gt;Node8</title>
<path fill="none" stroke="midnightblue" d="M148.101,-112.083C148.101,-105.006 148.101,-94.8611 148.101,-85.9865"/>
<polygon fill="midnightblue" stroke="midnightblue" points="151.601,-85.751 148.101,-75.7511 144.601,-85.7511 151.601,-85.751"/>
</g>
<!-- Node6&#45;&gt;Node9 -->
<g id="edge9" class="edge"><title>Node6&#45;&gt;Node9</title>
<path fill="none" stroke="midnightblue" d="M169.809,-112.444C192.456,-103.517 228.173,-89.4387 253.853,-79.3168"/>
<polygon fill="midnightblue" stroke="midnightblue" points="255.475,-82.4397 263.495,-75.5164 252.908,-75.9273 255.475,-82.4397"/>
</g>
<!-- Node9&#45;&gt;Node2 -->
<g id="edge10" class="edge"><title>Node9&#45;&gt;Node2</title>
<path fill="none" stroke="midnightblue" d="M255.946,-56.4435C224.311,-47.1594 173.686,-32.3022 138.991,-22.1197"/>
<polygon fill="midnightblue" stroke="midnightblue" points="139.796,-18.7085 129.215,-19.2508 137.825,-25.4252 139.796,-18.7085"/>
</g>
<!-- Node9&#45;&gt;Node5 -->
<g id="edge12" class="edge"><title>Node9&#45;&gt;Node5</title>
<path fill="none" stroke="midnightblue" d="M299.401,-56.324C313.284,-47.9002 334.594,-34.9709 350.905,-25.0741"/>
<polygon fill="midnightblue" stroke="midnightblue" points="353.103,-27.8341 359.837,-19.6545 349.472,-21.8495 353.103,-27.8341"/>
</g>
<!-- Node10 -->
<g id="node10" class="node"><title>Node10</title>
<polygon fill="none" stroke="#bfbfbf" points="264.601,-0.5 264.601,-19.5 305.601,-19.5 305.601,-0.5 264.601,-0.5"/>
<text text-anchor="middle" x="285.101" y="-7.5" font-family="Helvetica,sans-Serif" font-size="10.00">string</text>
</g>
<!-- Node9&#45;&gt;Node10 -->
<g id="edge11" class="edge"><title>Node9&#45;&gt;Node10</title>
<path fill="none" stroke="midnightblue" d="M285.101,-56.083C285.101,-49.0059 285.101,-38.8611 285.101,-29.9865"/>
<polygon fill="midnightblue" stroke="midnightblue" points="288.601,-29.751 285.101,-19.7511 281.601,-29.7511 288.601,-29.751"/>
</g>
</g>
</svg>
