<?xml version="1.0" encoding="UTF-8" standalone="no"?>
<!DOCTYPE svg PUBLIC "-//W3C//DTD SVG 1.1//EN"
 "http://www.w3.org/Graphics/SVG/1.1/DTD/svg11.dtd">
<!-- Generated by graphviz version 2.38.0 (20140413.2041)
 -->
<!-- Title: Framework/include/QualityControl/stringUtils.h Pages: 1 -->
<svg width="309pt" height="95pt"
 viewBox="0.00 0.00 309.00 95.00" xmlns="http://www.w3.org/2000/svg" xmlns:xlink="http://www.w3.org/1999/xlink">
<g id="graph0" class="graph" transform="scale(1 1) rotate(0) translate(4 91)">
<title>Framework/include/QualityControl/stringUtils.h</title>
<!-- Node1 -->
<g id="node1" class="node"><title>Node1</title>
<polygon fill="#bfbfbf" stroke="black" points="85,-56.5 85,-86.5 218,-86.5 218,-56.5 85,-56.5"/>
<text text-anchor="start" x="93" y="-74.5" font-family="Helvetica,sans-Serif" font-size="10.00">Framework/include/Quality</text>
<text text-anchor="middle" x="151.5" y="-63.5" font-family="Helvetica,sans-Serif" font-size="10.00">Control/stringUtils.h</text>
</g>
<!-- Node2 -->
<g id="node2" class="node"><title>Node2</title>
<polygon fill="none" stroke="#bfbfbf" points="0,-0.5 0,-19.5 41,-19.5 41,-0.5 0,-0.5"/>
<text text-anchor="middle" x="20.5" y="-7.5" font-family="Helvetica,sans-Serif" font-size="10.00">string</text>
</g>
<!-- Node1&#45;&gt;Node2 -->
<g id="edge1" class="edge"><title>Node1&#45;&gt;Node2</title>
<path fill="none" stroke="midnightblue" d="M120.455,-56.3993C98.7697,-46.55 70.0409,-33.5014 48.9495,-23.9217"/>
<polygon fill="midnightblue" stroke="midnightblue" points="50.1139,-20.6065 39.5617,-19.6578 47.2191,-26.9799 50.1139,-20.6065"/>
</g>
<!-- Node3 -->
<g id="node3" class="node"><title>Node3</title>
<polygon fill="none" stroke="#bfbfbf" points="59.5,-0.5 59.5,-19.5 111.5,-19.5 111.5,-0.5 59.5,-0.5"/>
<text text-anchor="middle" x="85.5" y="-7.5" font-family="Helvetica,sans-Serif" font-size="10.00">sstream</text>
</g>
<!-- Node1&#45;&gt;Node3 -->
<g id="edge2" class="edge"><title>Node1&#45;&gt;Node3</title>
<path fill="none" stroke="midnightblue" d="M135.859,-56.3993C125.873,-47.3967 112.922,-35.7214 102.655,-26.4652"/>
<polygon fill="midnightblue" stroke="midnightblue" points="104.875,-23.7541 95.1036,-19.6578 100.187,-28.9533 104.875,-23.7541"/>
</g>
<!-- Node4 -->
<g id="node4" class="node"><title>Node4</title>
<polygon fill="none" stroke="#bfbfbf" points="129.5,-0.5 129.5,-19.5 173.5,-19.5 173.5,-0.5 129.5,-0.5"/>
<text text-anchor="middle" x="151.5" y="-7.5" font-family="Helvetica,sans-Serif" font-size="10.00">vector</text>
</g>
<!-- Node1&#45;&gt;Node4 -->
<g id="edge3" class="edge"><title>Node1&#45;&gt;Node4</title>
<path fill="none" stroke="midnightblue" d="M151.5,-56.3993C151.5,-48.4664 151.5,-38.458 151.5,-29.8583"/>
<polygon fill="midnightblue" stroke="midnightblue" points="155,-29.6577 151.5,-19.6578 148,-29.6578 155,-29.6577"/>
</g>
<!-- Node5 -->
<g id="node5" class="node"><title>Node5</title>
<polygon fill="none" stroke="#bfbfbf" points="191.5,-0.5 191.5,-19.5 241.5,-19.5 241.5,-0.5 191.5,-0.5"/>
<text text-anchor="middle" x="216.5" y="-7.5" font-family="Helvetica,sans-Serif" font-size="10.00">iomanip</text>
</g>
<!-- Node1&#45;&gt;Node5 -->
<g id="edge4" class="edge"><title>Node1&#45;&gt;Node5</title>
<path fill="none" stroke="midnightblue" d="M166.904,-56.3993C176.739,-47.3967 189.493,-35.7214 199.605,-26.4652"/>
<polygon fill="midnightblue" stroke="midnightblue" points="202.029,-28.9916 207.042,-19.6578 197.302,-23.8282 202.029,-28.9916"/>
</g>
<!-- Node6 -->
<g id="node6" class="node"><title>Node6</title>
<polygon fill="none" stroke="#bfbfbf" points="260,-0.5 260,-19.5 301,-19.5 301,-0.5 260,-0.5"/>
<text text-anchor="middle" x="280.5" y="-7.5" font-family="Helvetica,sans-Serif" font-size="10.00">bitset</text>
</g>
<!-- Node1&#45;&gt;Node6 -->
<g id="edge5" class="edge"><title>Node1&#45;&gt;Node6</title>
<path fill="none" stroke="midnightblue" d="M182.071,-56.3993C203.425,-46.55 231.715,-33.5014 252.485,-23.9217"/>
<polygon fill="midnightblue" stroke="midnightblue" points="254.115,-27.0244 261.729,-19.6578 251.183,-20.668 254.115,-27.0244"/>
</g>
</g>
</svg>
