<?xml version="1.0" encoding="UTF-8" standalone="no"?>
<!DOCTYPE svg PUBLIC "-//W3C//DTD SVG 1.1//EN"
 "http://www.w3.org/Graphics/SVG/1.1/DTD/svg11.dtd">
<!-- Generated by graphviz version 2.38.0 (20140413.2041)
 -->
<!-- Title: Sampa::SampaHeaderStruct Pages: 1 -->
<svg width="190pt" height="259pt"
 viewBox="0.00 0.00 190.00 259.00" xmlns="http://www.w3.org/2000/svg" xmlns:xlink="http://www.w3.org/1999/xlink">
<g id="graph0" class="graph" transform="scale(1 1) rotate(0) translate(4 255)">
<title>Sampa::SampaHeaderStruct</title>
<!-- Node1 -->
<g id="node1" class="node"><title>Node1</title>
<polygon fill="#bfbfbf" stroke="black" points="0,-0.5 0,-57.5 142,-57.5 142,-0.5 0,-0.5"/>
<text text-anchor="middle" x="71" y="-45.5" font-family="Helvetica,sans-Serif" font-size="10.00">Sampa::SampaHeaderStruct</text>
<polyline fill="none" stroke="black" points="0,-38.5 142,-38.5 "/>
<text text-anchor="middle" x="71" y="-26.5" font-family="Helvetica,sans-Serif" font-size="10.00"> </text>
<polyline fill="none" stroke="black" points="0,-19.5 142,-19.5 "/>
<text text-anchor="middle" x="71" y="-7.5" font-family="Helvetica,sans-Serif" font-size="10.00"> </text>
</g>
<!-- Node2 -->
<g id="node2" class="node"><title>Node2</title>
<polygon fill="none" stroke="#bfbfbf" points="32.5,-193.5 32.5,-250.5 109.5,-250.5 109.5,-193.5 32.5,-193.5"/>
<text text-anchor="middle" x="71" y="-238.5" font-family="Helvetica,sans-Serif" font-size="10.00">unsigned long</text>
<polyline fill="none" stroke="#bfbfbf" points="32.5,-231.5 109.5,-231.5 "/>
<text text-anchor="middle" x="71" y="-219.5" font-family="Helvetica,sans-Serif" font-size="10.00"> </text>
<polyline fill="none" stroke="#bfbfbf" points="32.5,-212.5 109.5,-212.5 "/>
<text text-anchor="middle" x="71" y="-200.5" font-family="Helvetica,sans-Serif" font-size="10.00"> </text>
</g>
<!-- Node2&#45;&gt;Node1 -->
<g id="edge1" class="edge"><title>Node2&#45;&gt;Node1</title>
<path fill="none" stroke="#404040" d="M71,-193.227C71,-160.834 71,-107.022 71,-70.0995"/>
<polygon fill="none" stroke="#404040" points="71.0001,-69.8066 67,-63.8066 71,-57.8066 75,-63.8065 71.0001,-69.8066"/>
<text text-anchor="middle" x="126.5" y="-167" font-family="Helvetica,sans-Serif" font-size="10.00"> +fHammingCode</text>
<text text-anchor="middle" x="126.5" y="-156" font-family="Helvetica,sans-Serif" font-size="10.00">+fPkgType</text>
<text text-anchor="middle" x="126.5" y="-145" font-family="Helvetica,sans-Serif" font-size="10.00">+fPayloadParity</text>
<text text-anchor="middle" x="126.5" y="-134" font-family="Helvetica,sans-Serif" font-size="10.00">+fChipAddress</text>
<text text-anchor="middle" x="126.5" y="-123" font-family="Helvetica,sans-Serif" font-size="10.00">+fNbOf10BitWords</text>
<text text-anchor="middle" x="126.5" y="-112" font-family="Helvetica,sans-Serif" font-size="10.00">+fHeaderParity</text>
<text text-anchor="middle" x="126.5" y="-101" font-family="Helvetica,sans-Serif" font-size="10.00">+fBunchCrossingCounter</text>
<text text-anchor="middle" x="126.5" y="-90" font-family="Helvetica,sans-Serif" font-size="10.00">+fChannelAddress</text>
<text text-anchor="middle" x="126.5" y="-79" font-family="Helvetica,sans-Serif" font-size="10.00">+fUnused</text>
</g>
</g>
</svg>
