<?xml version="1.0" encoding="UTF-8" standalone="no"?>
<!DOCTYPE svg PUBLIC "-//W3C//DTD SVG 1.1//EN"
 "http://www.w3.org/Graphics/SVG/1.1/DTD/svg11.dtd">
<!-- Generated by graphviz version 2.38.0 (20140413.2041)
 -->
<!-- Title: o2::quality_control::postprocessing::PostProcessingConfig Pages: 1 -->
<svg width="219pt" height="281pt"
 viewBox="0.00 0.00 218.50 281.00" xmlns="http://www.w3.org/2000/svg" xmlns:xlink="http://www.w3.org/1999/xlink">
<g id="graph0" class="graph" transform="scale(1 1) rotate(0) translate(4 277)">
<title>o2::quality_control::postprocessing::PostProcessingConfig</title>
<!-- Node1 -->
<g id="node1" class="node"><title>Node1</title>
<polygon fill="#bfbfbf" stroke="black" points="18.5,-0.5 18.5,-101.5 182.5,-101.5 182.5,-0.5 18.5,-0.5"/>
<text text-anchor="start" x="26.5" y="-89.5" font-family="Helvetica,sans-Serif" font-size="10.00">o2::quality_control</text>
<text text-anchor="start" x="26.5" y="-78.5" font-family="Helvetica,sans-Serif" font-size="10.00">::postprocessing::PostProcessing</text>
<text text-anchor="middle" x="100.5" y="-67.5" font-family="Helvetica,sans-Serif" font-size="10.00">Config</text>
<polyline fill="none" stroke="black" points="18.5,-60.5 182.5,-60.5 "/>
<text text-anchor="middle" x="100.5" y="-48.5" font-family="Helvetica,sans-Serif" font-size="10.00"> </text>
<polyline fill="none" stroke="black" points="18.5,-41.5 182.5,-41.5 "/>
<text text-anchor="start" x="26.5" y="-29.5" font-family="Helvetica,sans-Serif" font-size="10.00">+ PostProcessingConfig()</text>
<text text-anchor="start" x="26.5" y="-18.5" font-family="Helvetica,sans-Serif" font-size="10.00">+ PostProcessingConfig()</text>
<text text-anchor="start" x="26.5" y="-7.5" font-family="Helvetica,sans-Serif" font-size="10.00">+ ~PostProcessingConfig()</text>
</g>
<!-- Node2 -->
<g id="node2" class="node"><title>Node2</title>
<polygon fill="none" stroke="#bfbfbf" points="0,-215.5 0,-272.5 105,-272.5 105,-215.5 0,-215.5"/>
<text text-anchor="middle" x="52.5" y="-260.5" font-family="Helvetica,sans-Serif" font-size="10.00">vector&lt; std::string &gt;</text>
<polyline fill="none" stroke="#bfbfbf" points="0,-253.5 105,-253.5 "/>
<text text-anchor="middle" x="52.5" y="-241.5" font-family="Helvetica,sans-Serif" font-size="10.00"> </text>
<polyline fill="none" stroke="#bfbfbf" points="0,-234.5 105,-234.5 "/>
<text text-anchor="middle" x="52.5" y="-222.5" font-family="Helvetica,sans-Serif" font-size="10.00"> </text>
</g>
<!-- Node2&#45;&gt;Node1 -->
<g id="edge1" class="edge"><title>Node2&#45;&gt;Node1</title>
<path fill="none" stroke="#404040" d="M48.1812,-215.407C45.2541,-189.992 43.5144,-151.558 53.5,-120 54.261,-117.595 55.1391,-115.199 56.1147,-112.824"/>
<polygon fill="none" stroke="#404040" points="56.1622,-112.724 55.1273,-105.587 61.3167,-101.887 62.3517,-109.024 56.1622,-112.724"/>
<text text-anchor="middle" x="90.5" y="-167" font-family="Helvetica,sans-Serif" font-size="10.00"> +updateTriggers</text>
<text text-anchor="middle" x="90.5" y="-156" font-family="Helvetica,sans-Serif" font-size="10.00">+stopTriggers</text>
<text text-anchor="middle" x="90.5" y="-145" font-family="Helvetica,sans-Serif" font-size="10.00">+initTriggers</text>
</g>
<!-- Node3 -->
<g id="node3" class="node"><title>Node3</title>
<polygon fill="none" stroke="#bfbfbf" points="129,-215.5 129,-272.5 170,-272.5 170,-215.5 129,-215.5"/>
<text text-anchor="middle" x="149.5" y="-260.5" font-family="Helvetica,sans-Serif" font-size="10.00">string</text>
<polyline fill="none" stroke="#bfbfbf" points="129,-253.5 170,-253.5 "/>
<text text-anchor="middle" x="149.5" y="-241.5" font-family="Helvetica,sans-Serif" font-size="10.00"> </text>
<polyline fill="none" stroke="#bfbfbf" points="129,-234.5 170,-234.5 "/>
<text text-anchor="middle" x="149.5" y="-222.5" font-family="Helvetica,sans-Serif" font-size="10.00"> </text>
</g>
<!-- Node3&#45;&gt;Node1 -->
<g id="edge2" class="edge"><title>Node3&#45;&gt;Node1</title>
<path fill="none" stroke="#404040" d="M146.164,-215.282C142.754,-190.114 136.651,-152.129 127.5,-120 126.861,-117.755 126.174,-115.482 125.45,-113.197"/>
<polygon fill="none" stroke="#404040" points="125.418,-113.104 119.704,-108.705 121.567,-101.739 127.281,-106.137 125.418,-113.104"/>
<text text-anchor="middle" x="176.5" y="-189" font-family="Helvetica,sans-Serif" font-size="10.00"> +qcdbUrl</text>
<text text-anchor="middle" x="176.5" y="-178" font-family="Helvetica,sans-Serif" font-size="10.00">+ccdbUrl</text>
<text text-anchor="middle" x="176.5" y="-167" font-family="Helvetica,sans-Serif" font-size="10.00">+detectorName</text>
<text text-anchor="middle" x="176.5" y="-156" font-family="Helvetica,sans-Serif" font-size="10.00">+moduleName</text>
<text text-anchor="middle" x="176.5" y="-145" font-family="Helvetica,sans-Serif" font-size="10.00">+consulUrl</text>
<text text-anchor="middle" x="176.5" y="-134" font-family="Helvetica,sans-Serif" font-size="10.00">+taskName</text>
<text text-anchor="middle" x="176.5" y="-123" font-family="Helvetica,sans-Serif" font-size="10.00">+className</text>
</g>
</g>
</svg>
