<?xml version="1.0" encoding="UTF-8" standalone="no"?>
<!DOCTYPE svg PUBLIC "-//W3C//DTD SVG 1.1//EN"
 "http://www.w3.org/Graphics/SVG/1.1/DTD/svg11.dtd">
<!-- Generated by graphviz version 2.38.0 (20140413.2041)
 -->
<!-- Title: o2::quality_control::core::Chunk Pages: 1 -->
<svg width="107pt" height="182pt"
 viewBox="0.00 0.00 106.50 182.00" xmlns="http://www.w3.org/2000/svg" xmlns:xlink="http://www.w3.org/1999/xlink">
<g id="graph0" class="graph" transform="scale(1 1) rotate(0) translate(4 178)">
<title>o2::quality_control::core::Chunk</title>
<!-- Node1 -->
<g id="node1" class="node"><title>Node1</title>
<polygon fill="#bfbfbf" stroke="black" points="0,-0.5 0,-68.5 96,-68.5 96,-0.5 0,-0.5"/>
<text text-anchor="start" x="8" y="-56.5" font-family="Helvetica,sans-Serif" font-size="10.00">o2::quality_control</text>
<text text-anchor="middle" x="48" y="-45.5" font-family="Helvetica,sans-Serif" font-size="10.00">::core::Chunk</text>
<polyline fill="none" stroke="black" points="0,-38.5 96,-38.5 "/>
<text text-anchor="middle" x="48" y="-26.5" font-family="Helvetica,sans-Serif" font-size="10.00"> </text>
<polyline fill="none" stroke="black" points="0,-19.5 96,-19.5 "/>
<text text-anchor="start" x="8" y="-7.5" font-family="Helvetica,sans-Serif" font-size="10.00">+ Chunk()</text>
</g>
<!-- Node2 -->
<g id="node2" class="node"><title>Node2</title>
<polygon fill="none" stroke="#bfbfbf" points="2.5,-116.5 2.5,-173.5 37.5,-173.5 37.5,-116.5 2.5,-116.5"/>
<text text-anchor="middle" x="20" y="-161.5" font-family="Helvetica,sans-Serif" font-size="10.00">char</text>
<polyline fill="none" stroke="#bfbfbf" points="2.5,-154.5 37.5,-154.5 "/>
<text text-anchor="middle" x="20" y="-142.5" font-family="Helvetica,sans-Serif" font-size="10.00"> </text>
<polyline fill="none" stroke="#bfbfbf" points="2.5,-135.5 37.5,-135.5 "/>
<text text-anchor="middle" x="20" y="-123.5" font-family="Helvetica,sans-Serif" font-size="10.00"> </text>
</g>
<!-- Node2&#45;&gt;Node1 -->
<g id="edge1" class="edge"><title>Node2&#45;&gt;Node1</title>
<path fill="none" stroke="#404040" d="M21.8948,-116.469C22.9355,-107.025 24.5383,-96.4556 27,-87 27.593,-84.7223 28.2634,-82.4115 28.9912,-80.0945"/>
<polygon fill="none" stroke="#404040" points="29.0554,-79.9107 27.259,-72.9269 33.0147,-68.5826 34.811,-75.5664 29.0554,-79.9107"/>
<text text-anchor="middle" x="41" y="-90" font-family="Helvetica,sans-Serif" font-size="10.00"> +data</text>
</g>
<!-- Node3 -->
<g id="node3" class="node"><title>Node3</title>
<polygon fill="none" stroke="#bfbfbf" points="55.5,-116.5 55.5,-173.5 98.5,-173.5 98.5,-116.5 55.5,-116.5"/>
<text text-anchor="middle" x="77" y="-161.5" font-family="Helvetica,sans-Serif" font-size="10.00">size_t</text>
<polyline fill="none" stroke="#bfbfbf" points="55.5,-154.5 98.5,-154.5 "/>
<text text-anchor="middle" x="77" y="-142.5" font-family="Helvetica,sans-Serif" font-size="10.00"> </text>
<polyline fill="none" stroke="#bfbfbf" points="55.5,-135.5 98.5,-135.5 "/>
<text text-anchor="middle" x="77" y="-123.5" font-family="Helvetica,sans-Serif" font-size="10.00"> </text>
</g>
<!-- Node3&#45;&gt;Node1 -->
<g id="edge2" class="edge"><title>Node3&#45;&gt;Node1</title>
<path fill="none" stroke="#404040" d="M69.607,-116.34C66.6871,-105.416 63.2563,-92.5798 59.9992,-80.3935"/>
<polygon fill="none" stroke="#404040" points="59.9239,-80.1116 54.5102,-75.348 56.8252,-68.5186 62.2389,-73.2822 59.9239,-80.1116"/>
<text text-anchor="middle" x="78" y="-90" font-family="Helvetica,sans-Serif" font-size="10.00"> +size</text>
</g>
</g>
</svg>
