<?xml version="1.0" encoding="UTF-8" standalone="no"?>
<!DOCTYPE svg PUBLIC "-//W3C//DTD SVG 1.1//EN"
 "http://www.w3.org/Graphics/SVG/1.1/DTD/svg11.dtd">
<!-- Generated by graphviz version 2.38.0 (20140413.2041)
 -->
<!-- Title: o2::quality_control::checker::UpdatePolicy Pages: 1 -->
<svg width="476pt" height="193pt"
 viewBox="0.00 0.00 476.00 193.00" xmlns="http://www.w3.org/2000/svg" xmlns:xlink="http://www.w3.org/1999/xlink">
<g id="graph0" class="graph" transform="scale(1 1) rotate(0) translate(4 189)">
<title>o2::quality_control::checker::UpdatePolicy</title>
<!-- Node1 -->
<g id="node1" class="node"><title>Node1</title>
<polygon fill="#bfbfbf" stroke="black" points="193,-0.5 193,-68.5 315,-68.5 315,-0.5 193,-0.5"/>
<text text-anchor="start" x="201" y="-56.5" font-family="Helvetica,sans-Serif" font-size="10.00">o2::quality_control</text>
<text text-anchor="middle" x="254" y="-45.5" font-family="Helvetica,sans-Serif" font-size="10.00">::checker::UpdatePolicy</text>
<polyline fill="none" stroke="black" points="193,-38.5 315,-38.5 "/>
<text text-anchor="middle" x="254" y="-26.5" font-family="Helvetica,sans-Serif" font-size="10.00"> </text>
<polyline fill="none" stroke="black" points="193,-19.5 315,-19.5 "/>
<text text-anchor="middle" x="254" y="-7.5" font-family="Helvetica,sans-Serif" font-size="10.00"> </text>
</g>
<!-- Node2 -->
<g id="node2" class="node"><title>Node2</title>
<polygon fill="none" stroke="#bfbfbf" points="0,-127.5 0,-184.5 90,-184.5 90,-127.5 0,-127.5"/>
<text text-anchor="middle" x="45" y="-172.5" font-family="Helvetica,sans-Serif" font-size="10.00">function&lt; bool()&gt;</text>
<polyline fill="none" stroke="#bfbfbf" points="0,-165.5 90,-165.5 "/>
<text text-anchor="middle" x="45" y="-153.5" font-family="Helvetica,sans-Serif" font-size="10.00"> </text>
<polyline fill="none" stroke="#bfbfbf" points="0,-146.5 90,-146.5 "/>
<text text-anchor="middle" x="45" y="-134.5" font-family="Helvetica,sans-Serif" font-size="10.00"> </text>
</g>
<!-- Node2&#45;&gt;Node1 -->
<g id="edge1" class="edge"><title>Node2&#45;&gt;Node1</title>
<path fill="none" stroke="#404040" d="M73.2956,-127.415C88.1284,-113.986 107.107,-98.3365 126,-87 143.26,-76.6431 162.982,-67.5363 181.688,-59.9749"/>
<polygon fill="none" stroke="#404040" points="181.695,-59.9723 185.818,-54.0562 192.865,-55.5868 188.742,-61.5029 181.695,-59.9723"/>
<text text-anchor="middle" x="149" y="-95.5" font-family="Helvetica,sans-Serif" font-size="10.00"> +isReady</text>
</g>
<!-- Node3 -->
<g id="node3" class="node"><title>Node3</title>
<polygon fill="none" stroke="#bfbfbf" points="108.5,-127.5 108.5,-184.5 213.5,-184.5 213.5,-127.5 108.5,-127.5"/>
<text text-anchor="middle" x="161" y="-172.5" font-family="Helvetica,sans-Serif" font-size="10.00">vector&lt; std::string &gt;</text>
<polyline fill="none" stroke="#bfbfbf" points="108.5,-165.5 213.5,-165.5 "/>
<text text-anchor="middle" x="161" y="-153.5" font-family="Helvetica,sans-Serif" font-size="10.00"> </text>
<polyline fill="none" stroke="#bfbfbf" points="108.5,-146.5 213.5,-146.5 "/>
<text text-anchor="middle" x="161" y="-134.5" font-family="Helvetica,sans-Serif" font-size="10.00"> </text>
</g>
<!-- Node3&#45;&gt;Node1 -->
<g id="edge2" class="edge"><title>Node3&#45;&gt;Node1</title>
<path fill="none" stroke="#404040" d="M167.752,-127.45C171.869,-114.341 178.089,-98.9596 187,-87 189.531,-83.6029 192.343,-80.317 195.342,-77.1603"/>
<polygon fill="none" stroke="#404040" points="195.562,-76.9479 197.107,-69.9043 204.204,-68.6216 202.658,-75.6652 195.562,-76.9479"/>
<text text-anchor="middle" x="219" y="-95.5" font-family="Helvetica,sans-Serif" font-size="10.00"> +inputObjects</text>
</g>
<!-- Node4 -->
<g id="node4" class="node"><title>Node4</title>
<polygon fill="none" stroke="#bfbfbf" points="231.5,-127.5 231.5,-184.5 282.5,-184.5 282.5,-127.5 231.5,-127.5"/>
<text text-anchor="middle" x="257" y="-172.5" font-family="Helvetica,sans-Serif" font-size="10.00">uint32_t</text>
<polyline fill="none" stroke="#bfbfbf" points="231.5,-165.5 282.5,-165.5 "/>
<text text-anchor="middle" x="257" y="-153.5" font-family="Helvetica,sans-Serif" font-size="10.00"> </text>
<polyline fill="none" stroke="#bfbfbf" points="231.5,-146.5 282.5,-146.5 "/>
<text text-anchor="middle" x="257" y="-134.5" font-family="Helvetica,sans-Serif" font-size="10.00"> </text>
</g>
<!-- Node4&#45;&gt;Node1 -->
<g id="edge3" class="edge"><title>Node4&#45;&gt;Node1</title>
<path fill="none" stroke="#404040" d="M255.661,-127.274C255.407,-121.251 255.169,-114.913 255,-109 254.742,-99.9669 254.551,-90.3073 254.408,-81.059"/>
<polygon fill="none" stroke="#404040" points="254.405,-80.799 250.324,-74.8535 254.243,-68.8001 258.323,-74.7456 254.405,-80.799"/>
<text text-anchor="middle" x="276.5" y="-95.5" font-family="Helvetica,sans-Serif" font-size="10.00"> +revision</text>
</g>
<!-- Node5 -->
<g id="node5" class="node"><title>Node5</title>
<polygon fill="none" stroke="#bfbfbf" points="302.5,-127.5 302.5,-184.5 337.5,-184.5 337.5,-127.5 302.5,-127.5"/>
<text text-anchor="middle" x="320" y="-172.5" font-family="Helvetica,sans-Serif" font-size="10.00">bool</text>
<polyline fill="none" stroke="#bfbfbf" points="302.5,-165.5 337.5,-165.5 "/>
<text text-anchor="middle" x="320" y="-153.5" font-family="Helvetica,sans-Serif" font-size="10.00"> </text>
<polyline fill="none" stroke="#bfbfbf" points="302.5,-146.5 337.5,-146.5 "/>
<text text-anchor="middle" x="320" y="-134.5" font-family="Helvetica,sans-Serif" font-size="10.00"> </text>
</g>
<!-- Node5&#45;&gt;Node1 -->
<g id="edge4" class="edge"><title>Node5&#45;&gt;Node1</title>
<path fill="none" stroke="#404040" d="M313.669,-127.172C310.112,-114.441 304.965,-99.4537 298,-87 296.413,-84.1631 294.656,-81.3384 292.784,-78.5564"/>
<polygon fill="none" stroke="#404040" points="292.68,-78.4132 285.91,-75.928 285.601,-68.7235 292.37,-71.2087 292.68,-78.4132"/>
<text text-anchor="middle" x="349" y="-101" font-family="Helvetica,sans-Serif" font-size="10.00"> +policyHelperFlag</text>
<text text-anchor="middle" x="349" y="-90" font-family="Helvetica,sans-Serif" font-size="10.00">+allInputObjects</text>
</g>
<!-- Node6 -->
<g id="node6" class="node"><title>Node6</title>
<polygon fill="none" stroke="#bfbfbf" points="404.5,-127.5 404.5,-184.5 445.5,-184.5 445.5,-127.5 404.5,-127.5"/>
<text text-anchor="middle" x="425" y="-172.5" font-family="Helvetica,sans-Serif" font-size="10.00">string</text>
<polyline fill="none" stroke="#bfbfbf" points="404.5,-165.5 445.5,-165.5 "/>
<text text-anchor="middle" x="425" y="-153.5" font-family="Helvetica,sans-Serif" font-size="10.00"> </text>
<polyline fill="none" stroke="#bfbfbf" points="404.5,-146.5 445.5,-146.5 "/>
<text text-anchor="middle" x="425" y="-134.5" font-family="Helvetica,sans-Serif" font-size="10.00"> </text>
</g>
<!-- Node6&#45;&gt;Node1 -->
<g id="edge5" class="edge"><title>Node6&#45;&gt;Node1</title>
<path fill="none" stroke="#404040" d="M417.95,-127.459C413.19,-113.712 405.606,-97.7638 394,-87 375.316,-69.6712 350.311,-58.0551 326.606,-50.3203"/>
<polygon fill="none" stroke="#404040" points="326.588,-50.315 319.684,-52.3983 315.106,-46.827 322.01,-44.7437 326.588,-50.315"/>
<text text-anchor="middle" x="439" y="-95.5" font-family="Helvetica,sans-Serif" font-size="10.00"> +actorName</text>
</g>
</g>
</svg>
