<?xml version="1.0" encoding="UTF-8" standalone="no"?>
<!DOCTYPE svg PUBLIC "-//W3C//DTD SVG 1.1//EN"
 "http://www.w3.org/Graphics/SVG/1.1/DTD/svg11.dtd">
<!-- Generated by graphviz version 2.38.0 (20140413.2041)
 -->
<!-- Title: DigitEvent Pages: 1 -->
<svg width="114pt" height="171pt"
 viewBox="0.00 0.00 113.50 171.00" xmlns="http://www.w3.org/2000/svg" xmlns:xlink="http://www.w3.org/1999/xlink">
<g id="graph0" class="graph" transform="scale(1 1) rotate(0) translate(4 167)">
<title>DigitEvent</title>
<!-- Node1 -->
<g id="node1" class="node"><title>Node1</title>
<polygon fill="#bfbfbf" stroke="black" points="16.5,-0.5 16.5,-57.5 78.5,-57.5 78.5,-0.5 16.5,-0.5"/>
<text text-anchor="middle" x="47.5" y="-45.5" font-family="Helvetica,sans-Serif" font-size="10.00">DigitEvent</text>
<polyline fill="none" stroke="black" points="16.5,-38.5 78.5,-38.5 "/>
<text text-anchor="middle" x="47.5" y="-26.5" font-family="Helvetica,sans-Serif" font-size="10.00"> </text>
<polyline fill="none" stroke="black" points="16.5,-19.5 78.5,-19.5 "/>
<text text-anchor="middle" x="47.5" y="-7.5" font-family="Helvetica,sans-Serif" font-size="10.00"> </text>
</g>
<!-- Node2 -->
<g id="node2" class="node"><title>Node2</title>
<polygon fill="none" stroke="#bfbfbf" points="0,-105.5 0,-162.5 37,-162.5 37,-105.5 0,-105.5"/>
<text text-anchor="middle" x="18.5" y="-150.5" font-family="Helvetica,sans-Serif" font-size="10.00">Digit</text>
<polyline fill="none" stroke="#bfbfbf" points="0,-143.5 37,-143.5 "/>
<text text-anchor="middle" x="18.5" y="-131.5" font-family="Helvetica,sans-Serif" font-size="10.00"> </text>
<polyline fill="none" stroke="#bfbfbf" points="0,-124.5 37,-124.5 "/>
<text text-anchor="middle" x="18.5" y="-112.5" font-family="Helvetica,sans-Serif" font-size="10.00"> </text>
</g>
<!-- Node2&#45;&gt;Node1 -->
<g id="edge1" class="edge"><title>Node2&#45;&gt;Node1</title>
<path fill="none" stroke="#404040" d="M16.0863,-105.31C16.0198,-95.8523 16.7993,-85.3158 19.5,-76 20.2118,-73.5447 21.091,-71.089 22.0937,-68.6612"/>
<polygon fill="none" stroke="#404040" points="22.2319,-68.3797 21.2862,-61.2309 27.5214,-57.6084 28.4671,-64.7573 22.2319,-68.3797"/>
<text text-anchor="middle" x="37" y="-79" font-family="Helvetica,sans-Serif" font-size="10.00"> +Digits</text>
</g>
<!-- Node3 -->
<g id="node3" class="node"><title>Node3</title>
<polygon fill="none" stroke="#bfbfbf" points="62,-105.5 62,-162.5 91,-162.5 91,-105.5 62,-105.5"/>
<text text-anchor="middle" x="76.5" y="-150.5" font-family="Helvetica,sans-Serif" font-size="10.00">int</text>
<polyline fill="none" stroke="#bfbfbf" points="62,-143.5 91,-143.5 "/>
<text text-anchor="middle" x="76.5" y="-131.5" font-family="Helvetica,sans-Serif" font-size="10.00"> </text>
<polyline fill="none" stroke="#bfbfbf" points="62,-124.5 91,-124.5 "/>
<text text-anchor="middle" x="76.5" y="-112.5" font-family="Helvetica,sans-Serif" font-size="10.00"> </text>
</g>
<!-- Node3&#45;&gt;Node1 -->
<g id="edge2" class="edge"><title>Node3&#45;&gt;Node1</title>
<path fill="none" stroke="#404040" d="M68.7285,-105.398C65.6079,-94.3142 61.953,-81.333 58.5638,-69.2957"/>
<polygon fill="none" stroke="#404040" points="58.5452,-69.2292 53.0688,-64.5378 55.2929,-57.6783 60.7694,-62.3697 58.5452,-69.2292"/>
<text text-anchor="middle" x="84" y="-79" font-family="Helvetica,sans-Serif" font-size="10.00"> +NEvent</text>
</g>
</g>
</svg>
