<?xml version="1.0" encoding="UTF-8" standalone="no"?>
<!DOCTYPE svg PUBLIC "-//W3C//DTD SVG 1.1//EN"
 "http://www.w3.org/Graphics/SVG/1.1/DTD/svg11.dtd">
<!-- Generated by graphviz version 2.38.0 (20140413.2041)
 -->
<!-- Title: o2::quality_control_modules::muonchambers::DualSampa Pages: 1 -->
<svg width="974pt" height="623pt"
 viewBox="0.00 0.00 974.00 623.00" xmlns="http://www.w3.org/2000/svg" xmlns:xlink="http://www.w3.org/1999/xlink">
<g id="graph0" class="graph" transform="scale(1 1) rotate(0) translate(4 619)">
<title>o2::quality_control_modules::muonchambers::DualSampa</title>
<!-- Node1 -->
<g id="node1" class="node"><title>Node1</title>
<polygon fill="#bfbfbf" stroke="black" points="310.5,-0.5 310.5,-79.5 441.5,-79.5 441.5,-0.5 310.5,-0.5"/>
<text text-anchor="start" x="318.5" y="-67.5" font-family="Helvetica,sans-Serif" font-size="10.00">o2::quality_control</text>
<text text-anchor="start" x="318.5" y="-56.5" font-family="Helvetica,sans-Serif" font-size="10.00">_modules::muonchambers</text>
<text text-anchor="middle" x="376" y="-45.5" font-family="Helvetica,sans-Serif" font-size="10.00">::DualSampa</text>
<polyline fill="none" stroke="black" points="310.5,-38.5 441.5,-38.5 "/>
<text text-anchor="middle" x="376" y="-26.5" font-family="Helvetica,sans-Serif" font-size="10.00"> </text>
<polyline fill="none" stroke="black" points="310.5,-19.5 441.5,-19.5 "/>
<text text-anchor="middle" x="376" y="-7.5" font-family="Helvetica,sans-Serif" font-size="10.00"> </text>
</g>
<!-- Node2 -->
<g id="node2" class="node"><title>Node2</title>
<polygon fill="none" stroke="#bfbfbf" points="0,-149.5 0,-206.5 96,-206.5 96,-149.5 0,-149.5"/>
<text text-anchor="middle" x="48" y="-194.5" font-family="Helvetica,sans-Serif" font-size="10.00">DualSampaStatus</text>
<polyline fill="none" stroke="#bfbfbf" points="0,-187.5 96,-187.5 "/>
<text text-anchor="middle" x="48" y="-175.5" font-family="Helvetica,sans-Serif" font-size="10.00"> </text>
<polyline fill="none" stroke="#bfbfbf" points="0,-168.5 96,-168.5 "/>
<text text-anchor="middle" x="48" y="-156.5" font-family="Helvetica,sans-Serif" font-size="10.00"> </text>
</g>
<!-- Node2&#45;&gt;Node1 -->
<g id="edge1" class="edge"><title>Node2&#45;&gt;Node1</title>
<path fill="none" stroke="#404040" d="M52.7159,-149.225C57.1091,-131.941 65.4349,-110.664 81,-98 113.627,-71.4542 222.22,-55.7334 298.118,-47.7338"/>
<polygon fill="none" stroke="#404040" points="298.533,-47.6913 304.095,-43.101 310.471,-46.469 304.91,-51.0594 298.533,-47.6913"/>
<text text-anchor="middle" x="99.5" y="-106.5" font-family="Helvetica,sans-Serif" font-size="10.00"> +status</text>
</g>
<!-- Node3 -->
<g id="node3" class="node"><title>Node3</title>
<polygon fill="none" stroke="#bfbfbf" points="137.5,-370 137.5,-427 214.5,-427 214.5,-370 137.5,-370"/>
<text text-anchor="middle" x="176" y="-415" font-family="Helvetica,sans-Serif" font-size="10.00">unsigned long</text>
<polyline fill="none" stroke="#bfbfbf" points="137.5,-408 214.5,-408 "/>
<text text-anchor="middle" x="176" y="-396" font-family="Helvetica,sans-Serif" font-size="10.00"> </text>
<polyline fill="none" stroke="#bfbfbf" points="137.5,-389 214.5,-389 "/>
<text text-anchor="middle" x="176" y="-377" font-family="Helvetica,sans-Serif" font-size="10.00"> </text>
</g>
<!-- Node3&#45;&gt;Node1 -->
<g id="edge2" class="edge"><title>Node3&#45;&gt;Node1</title>
<path fill="none" stroke="#404040" d="M161.038,-369.764C135.964,-319.099 92.716,-210.166 141,-138 175.855,-85.9053 244.355,-61.7583 298.446,-50.5829"/>
<polygon fill="none" stroke="#404040" points="298.669,-50.54 303.801,-45.4743 310.451,-48.2634 305.318,-53.3291 298.669,-50.54"/>
<text text-anchor="middle" x="153.5" y="-175.5" font-family="Helvetica,sans-Serif" font-size="10.00"> +bxc</text>
</g>
<!-- Node5 -->
<g id="node5" class="node"><title>Node5</title>
<g id="a_node5"><a xlink:href="structSampa_1_1SampaHeaderStruct.html" target="_top" xlink:title="{Sampa::SampaHeaderStruct\n||}">
<polygon fill="none" stroke="black" points="239,-149.5 239,-206.5 381,-206.5 381,-149.5 239,-149.5"/>
<text text-anchor="middle" x="310" y="-194.5" font-family="Helvetica,sans-Serif" font-size="10.00">Sampa::SampaHeaderStruct</text>
<polyline fill="none" stroke="black" points="239,-187.5 381,-187.5 "/>
<text text-anchor="middle" x="310" y="-175.5" font-family="Helvetica,sans-Serif" font-size="10.00"> </text>
<polyline fill="none" stroke="black" points="239,-168.5 381,-168.5 "/>
<text text-anchor="middle" x="310" y="-156.5" font-family="Helvetica,sans-Serif" font-size="10.00"> </text>
</a>
</g>
</g>
<!-- Node3&#45;&gt;Node5 -->
<g id="edge5" class="edge"><title>Node3&#45;&gt;Node5</title>
<path fill="none" stroke="#404040" d="M177.978,-369.769C181.669,-335.362 192.185,-276.317 222,-236 228.068,-227.795 235.698,-220.45 243.916,-213.982"/>
<polygon fill="none" stroke="#404040" points="244.078,-213.863 246.569,-207.096 253.774,-206.793 251.283,-213.56 244.078,-213.863"/>
<text text-anchor="middle" x="277.5" y="-327" font-family="Helvetica,sans-Serif" font-size="10.00"> +fHammingCode</text>
<text text-anchor="middle" x="277.5" y="-316" font-family="Helvetica,sans-Serif" font-size="10.00">+fPkgType</text>
<text text-anchor="middle" x="277.5" y="-305" font-family="Helvetica,sans-Serif" font-size="10.00">+fPayloadParity</text>
<text text-anchor="middle" x="277.5" y="-294" font-family="Helvetica,sans-Serif" font-size="10.00">+fChipAddress</text>
<text text-anchor="middle" x="277.5" y="-283" font-family="Helvetica,sans-Serif" font-size="10.00">+fNbOf10BitWords</text>
<text text-anchor="middle" x="277.5" y="-272" font-family="Helvetica,sans-Serif" font-size="10.00">+fHeaderParity</text>
<text text-anchor="middle" x="277.5" y="-261" font-family="Helvetica,sans-Serif" font-size="10.00">+fBunchCrossingCounter</text>
<text text-anchor="middle" x="277.5" y="-250" font-family="Helvetica,sans-Serif" font-size="10.00">+fChannelAddress</text>
<text text-anchor="middle" x="277.5" y="-239" font-family="Helvetica,sans-Serif" font-size="10.00">+fUnused</text>
</g>
<!-- Node4 -->
<g id="node4" class="node"><title>Node4</title>
<polygon fill="none" stroke="#bfbfbf" points="175.5,-149.5 175.5,-206.5 220.5,-206.5 220.5,-149.5 175.5,-149.5"/>
<text text-anchor="middle" x="198" y="-194.5" font-family="Helvetica,sans-Serif" font-size="10.00">double</text>
<polyline fill="none" stroke="#bfbfbf" points="175.5,-187.5 220.5,-187.5 "/>
<text text-anchor="middle" x="198" y="-175.5" font-family="Helvetica,sans-Serif" font-size="10.00"> </text>
<polyline fill="none" stroke="#bfbfbf" points="175.5,-168.5 220.5,-168.5 "/>
<text text-anchor="middle" x="198" y="-156.5" font-family="Helvetica,sans-Serif" font-size="10.00"> </text>
</g>
<!-- Node4&#45;&gt;Node1 -->
<g id="edge3" class="edge"><title>Node4&#45;&gt;Node1</title>
<path fill="none" stroke="#404040" d="M219.059,-149.218C222.533,-145.276 226.234,-141.41 230,-138 251.222,-118.784 276.564,-100.591 300.131,-85.2651"/>
<polygon fill="none" stroke="#404040" points="300.351,-85.1245 303.248,-78.521 310.458,-78.6555 307.561,-85.259 300.351,-85.1245"/>
<text text-anchor="middle" x="303" y="-112" font-family="Helvetica,sans-Serif" font-size="10.00"> +pedestal</text>
<text text-anchor="middle" x="303" y="-101" font-family="Helvetica,sans-Serif" font-size="10.00">+noise</text>
</g>
<!-- Node5&#45;&gt;Node1 -->
<g id="edge4" class="edge"><title>Node5&#45;&gt;Node1</title>
<path fill="none" stroke="#404040" d="M323.356,-149.478C331.549,-132.595 342.283,-110.478 351.919,-90.6214"/>
<polygon fill="none" stroke="#404040" points="352.048,-90.356 351.069,-83.2116 357.287,-79.5601 358.266,-86.7045 352.048,-90.356"/>
<text text-anchor="middle" x="366.5" y="-106.5" font-family="Helvetica,sans-Serif" font-size="10.00"> +header</text>
</g>
<!-- Node6 -->
<g id="node6" class="node"><title>Node6</title>
<polygon fill="none" stroke="#bfbfbf" points="485.5,-370 485.5,-427 536.5,-427 536.5,-370 485.5,-370"/>
<text text-anchor="middle" x="511" y="-415" font-family="Helvetica,sans-Serif" font-size="10.00">uint64_t</text>
<polyline fill="none" stroke="#bfbfbf" points="485.5,-408 536.5,-408 "/>
<text text-anchor="middle" x="511" y="-396" font-family="Helvetica,sans-Serif" font-size="10.00"> </text>
<polyline fill="none" stroke="#bfbfbf" points="485.5,-389 536.5,-389 "/>
<text text-anchor="middle" x="511" y="-377" font-family="Helvetica,sans-Serif" font-size="10.00"> </text>
</g>
<!-- Node6&#45;&gt;Node1 -->
<g id="edge6" class="edge"><title>Node6&#45;&gt;Node1</title>
<path fill="none" stroke="#404040" d="M509.866,-369.78C506.852,-320.523 495.872,-215.629 456,-138 447.164,-120.798 434.863,-103.884 422.553,-89.1207"/>
<polygon fill="none" stroke="#404040" points="422.32,-88.849 415.375,-86.9053 414.499,-79.7477 421.443,-81.6914 422.32,-88.849"/>
<text text-anchor="middle" x="522" y="-186.5" font-family="Helvetica,sans-Serif" font-size="10.00"> +data</text>
<text text-anchor="middle" x="522" y="-175.5" font-family="Helvetica,sans-Serif" font-size="10.00">+powerMultiplier</text>
<text text-anchor="middle" x="522" y="-164.5" font-family="Helvetica,sans-Serif" font-size="10.00">+packetsize</text>
</g>
<!-- Node9 -->
<g id="node9" class="node"><title>Node9</title>
<g id="a_node9"><a xlink:href="structo2_1_1quality__control__modules_1_1muonchambers_1_1SampaHit.html" target="_top" xlink:title="{o2::quality_control\l_modules::muonchambers\l::SampaHit\n||}">
<polygon fill="none" stroke="black" points="581.5,-138.5 581.5,-217.5 712.5,-217.5 712.5,-138.5 581.5,-138.5"/>
<text text-anchor="start" x="589.5" y="-205.5" font-family="Helvetica,sans-Serif" font-size="10.00">o2::quality_control</text>
<text text-anchor="start" x="589.5" y="-194.5" font-family="Helvetica,sans-Serif" font-size="10.00">_modules::muonchambers</text>
<text text-anchor="middle" x="647" y="-183.5" font-family="Helvetica,sans-Serif" font-size="10.00">::SampaHit</text>
<polyline fill="none" stroke="black" points="581.5,-176.5 712.5,-176.5 "/>
<text text-anchor="middle" x="647" y="-164.5" font-family="Helvetica,sans-Serif" font-size="10.00"> </text>
<polyline fill="none" stroke="black" points="581.5,-157.5 712.5,-157.5 "/>
<text text-anchor="middle" x="647" y="-145.5" font-family="Helvetica,sans-Serif" font-size="10.00"> </text>
</a>
</g>
</g>
<!-- Node6&#45;&gt;Node9 -->
<g id="edge10" class="edge"><title>Node6&#45;&gt;Node9</title>
<path fill="none" stroke="#404040" d="M511.507,-369.93C513.456,-335.421 521.288,-275.999 551,-236 556.752,-228.256 563.896,-221.37 571.672,-215.299"/>
<polygon fill="none" stroke="#404040" points="571.675,-215.297 574.214,-208.548 581.421,-208.296 578.882,-215.045 571.675,-215.297"/>
<text text-anchor="middle" x="568" y="-283" font-family="Helvetica,sans-Serif" font-size="10.00"> +csum</text>
</g>
<!-- Node7 -->
<g id="node7" class="node"><title>Node7</title>
<polygon fill="none" stroke="#bfbfbf" points="421,-370 421,-427 467,-427 467,-370 421,-370"/>
<text text-anchor="middle" x="444" y="-415" font-family="Helvetica,sans-Serif" font-size="10.00">int32_t</text>
<polyline fill="none" stroke="#bfbfbf" points="421,-408 467,-408 "/>
<text text-anchor="middle" x="444" y="-396" font-family="Helvetica,sans-Serif" font-size="10.00"> </text>
<polyline fill="none" stroke="#bfbfbf" points="421,-389 467,-389 "/>
<text text-anchor="middle" x="444" y="-377" font-family="Helvetica,sans-Serif" font-size="10.00"> </text>
</g>
<!-- Node7&#45;&gt;Node1 -->
<g id="edge7" class="edge"><title>Node7&#45;&gt;Node1</title>
<path fill="none" stroke="#404040" d="M439.587,-369.722C431.033,-316.699 411.164,-197.481 390,-98 389.543,-95.8509 389.063,-93.6594 388.568,-91.448"/>
<polygon fill="none" stroke="#404040" points="388.522,-91.2489 383.272,-86.3056 385.816,-79.558 391.066,-84.5014 388.522,-91.2489"/>
<text text-anchor="middle" x="433" y="-208.5" font-family="Helvetica,sans-Serif" font-size="10.00"> +cid</text>
<text text-anchor="middle" x="433" y="-197.5" font-family="Helvetica,sans-Serif" font-size="10.00">+min</text>
<text text-anchor="middle" x="433" y="-186.5" font-family="Helvetica,sans-Serif" font-size="10.00">+ctime</text>
<text text-anchor="middle" x="433" y="-175.5" font-family="Helvetica,sans-Serif" font-size="10.00">+max</text>
<text text-anchor="middle" x="433" y="-164.5" font-family="Helvetica,sans-Serif" font-size="10.00">+sample</text>
<text text-anchor="middle" x="433" y="-153.5" font-family="Helvetica,sans-Serif" font-size="10.00">+csize</text>
<text text-anchor="middle" x="433" y="-142.5" font-family="Helvetica,sans-Serif" font-size="10.00">+delta</text>
</g>
<!-- Node7&#45;&gt;Node9 -->
<g id="edge15" class="edge"><title>Node7&#45;&gt;Node9</title>
<path fill="none" stroke="#404040" d="M441.978,-369.816C440.974,-333.78 445.071,-271.257 481,-236 508.872,-208.649 530.056,-230.653 567,-218 567.877,-217.7 568.757,-217.392 569.639,-217.077"/>
<polygon fill="none" stroke="#404040" points="569.979,-216.947 574.146,-211.062 581.182,-212.645 577.015,-218.53 569.979,-216.947"/>
<text text-anchor="middle" x="496.5" y="-283" font-family="Helvetica,sans-Serif" font-size="10.00"> +delta</text>
</g>
<!-- Node8 -->
<g id="node8" class="node"><title>Node8</title>
<polygon fill="none" stroke="#bfbfbf" points="856.5,-557.5 856.5,-614.5 885.5,-614.5 885.5,-557.5 856.5,-557.5"/>
<text text-anchor="middle" x="871" y="-602.5" font-family="Helvetica,sans-Serif" font-size="10.00">int</text>
<polyline fill="none" stroke="#bfbfbf" points="856.5,-595.5 885.5,-595.5 "/>
<text text-anchor="middle" x="871" y="-583.5" font-family="Helvetica,sans-Serif" font-size="10.00"> </text>
<polyline fill="none" stroke="#bfbfbf" points="856.5,-576.5 885.5,-576.5 "/>
<text text-anchor="middle" x="871" y="-564.5" font-family="Helvetica,sans-Serif" font-size="10.00"> </text>
</g>
<!-- Node8&#45;&gt;Node1 -->
<g id="edge8" class="edge"><title>Node8&#45;&gt;Node1</title>
<path fill="none" stroke="#404040" d="M885.623,-560.973C889.061,-554.117 892.236,-546.473 894,-539 925.081,-407.337 941.659,-347.466 865,-236 771.525,-100.083 566.797,-58.8893 454.147,-46.4129"/>
<polygon fill="none" stroke="#404040" points="453.812,-46.3779 447.428,-49.7309 441.877,-45.1274 448.261,-41.7744 453.812,-46.3779"/>
<text text-anchor="middle" x="939.5" y="-321.5" font-family="Helvetica,sans-Serif" font-size="10.00"> +nbHit</text>
<text text-anchor="middle" x="939.5" y="-310.5" font-family="Helvetica,sans-Serif" font-size="10.00">+nsyn2Bits</text>
<text text-anchor="middle" x="939.5" y="-299.5" font-family="Helvetica,sans-Serif" font-size="10.00">+nbHitChan</text>
<text text-anchor="middle" x="939.5" y="-288.5" font-family="Helvetica,sans-Serif" font-size="10.00">+chan_addr</text>
<text text-anchor="middle" x="939.5" y="-277.5" font-family="Helvetica,sans-Serif" font-size="10.00">+id</text>
<text text-anchor="middle" x="939.5" y="-266.5" font-family="Helvetica,sans-Serif" font-size="10.00">+nclus</text>
<text text-anchor="middle" x="939.5" y="-255.5" font-family="Helvetica,sans-Serif" font-size="10.00">+ndata</text>
<text text-anchor="middle" x="939.5" y="-244.5" font-family="Helvetica,sans-Serif" font-size="10.00">+bit</text>
</g>
<!-- Node11 -->
<g id="node11" class="node"><title>Node11</title>
<g id="a_node11"><a xlink:href="classo2_1_1quality__control__modules_1_1muonchambers_1_1MapPad.html" target="_top" xlink:title="{o2::quality_control\l_modules::muonchambers\l::MapPad\n||+ MapPad()\l+ ~MapPad()\l}">
<polygon fill="none" stroke="black" points="688.5,-353.5 688.5,-443.5 819.5,-443.5 819.5,-353.5 688.5,-353.5"/>
<text text-anchor="start" x="696.5" y="-431.5" font-family="Helvetica,sans-Serif" font-size="10.00">o2::quality_control</text>
<text text-anchor="start" x="696.5" y="-420.5" font-family="Helvetica,sans-Serif" font-size="10.00">_modules::muonchambers</text>
<text text-anchor="middle" x="754" y="-409.5" font-family="Helvetica,sans-Serif" font-size="10.00">::MapPad</text>
<polyline fill="none" stroke="black" points="688.5,-402.5 819.5,-402.5 "/>
<text text-anchor="middle" x="754" y="-390.5" font-family="Helvetica,sans-Serif" font-size="10.00"> </text>
<polyline fill="none" stroke="black" points="688.5,-383.5 819.5,-383.5 "/>
<text text-anchor="start" x="696.5" y="-371.5" font-family="Helvetica,sans-Serif" font-size="10.00">+ MapPad()</text>
<text text-anchor="start" x="696.5" y="-360.5" font-family="Helvetica,sans-Serif" font-size="10.00">+ ~MapPad()</text>
</a>
</g>
</g>
<!-- Node8&#45;&gt;Node11 -->
<g id="edge14" class="edge"><title>Node8&#45;&gt;Node11</title>
<path fill="none" stroke="#404040" d="M856.308,-561.376C840.865,-536.581 815.829,-496.485 794,-462 792.283,-459.287 790.521,-456.51 788.739,-453.707"/>
<polygon fill="none" stroke="#404040" points="788.693,-453.634 782.095,-450.722 782.246,-443.513 788.843,-446.425 788.693,-453.634"/>
<text text-anchor="middle" x="865.5" y="-531" font-family="Helvetica,sans-Serif" font-size="10.00"> +fCathode</text>
<text text-anchor="middle" x="865.5" y="-520" font-family="Helvetica,sans-Serif" font-size="10.00">+fDE</text>
<text text-anchor="middle" x="865.5" y="-509" font-family="Helvetica,sans-Serif" font-size="10.00">+fBad</text>
<text text-anchor="middle" x="865.5" y="-498" font-family="Helvetica,sans-Serif" font-size="10.00">+fPadx</text>
<text text-anchor="middle" x="865.5" y="-487" font-family="Helvetica,sans-Serif" font-size="10.00">+fPady</text>
<text text-anchor="middle" x="865.5" y="-476" font-family="Helvetica,sans-Serif" font-size="10.00">+fAddress</text>
<text text-anchor="middle" x="865.5" y="-465" font-family="Helvetica,sans-Serif" font-size="10.00">+fDsID</text>
</g>
<!-- Node9&#45;&gt;Node1 -->
<g id="edge9" class="edge"><title>Node9&#45;&gt;Node1</title>
<path fill="none" stroke="#404040" d="M581.209,-138.751C557.447,-125.376 530.255,-110.572 505,-98 488.278,-89.676 470.067,-81.2512 452.738,-73.5249"/>
<polygon fill="none" stroke="#404040" points="452.478,-73.4098 445.373,-74.6414 441.503,-68.5565 448.608,-67.3249 452.478,-73.4098"/>
<text text-anchor="middle" x="554" y="-106.5" font-family="Helvetica,sans-Serif" font-size="10.00"> +hit</text>
</g>
<!-- Node10 -->
<g id="node10" class="node"><title>Node10</title>
<polygon fill="none" stroke="#bfbfbf" points="838,-370 838,-427 884,-427 884,-370 838,-370"/>
<text text-anchor="middle" x="861" y="-415" font-family="Helvetica,sans-Serif" font-size="10.00">int64_t</text>
<polyline fill="none" stroke="#bfbfbf" points="838,-408 884,-408 "/>
<text text-anchor="middle" x="861" y="-396" font-family="Helvetica,sans-Serif" font-size="10.00"> </text>
<polyline fill="none" stroke="#bfbfbf" points="838,-389 884,-389 "/>
<text text-anchor="middle" x="861" y="-377" font-family="Helvetica,sans-Serif" font-size="10.00"> </text>
</g>
<!-- Node10&#45;&gt;Node9 -->
<g id="edge11" class="edge"><title>Node10&#45;&gt;Node9</title>
<path fill="none" stroke="#404040" d="M851.518,-369.798C838.234,-334.602 811.015,-273.889 770,-236 756.726,-223.738 740.35,-213.703 723.927,-205.664"/>
<polygon fill="none" stroke="#404040" points="723.476,-205.455 716.351,-206.564 712.587,-200.414 719.712,-199.305 723.476,-205.455"/>
<text text-anchor="middle" x="848.5" y="-283" font-family="Helvetica,sans-Serif" font-size="10.00"> +bxc</text>
</g>
<!-- Node11&#45;&gt;Node9 -->
<g id="edge12" class="edge"><title>Node11&#45;&gt;Node9</title>
<path fill="none" stroke="#404040" d="M745.938,-353.352C738.409,-319.5 724.964,-272.541 703,-236 701.224,-233.046 699.266,-230.129 697.177,-227.269"/>
<polygon fill="none" stroke="#404040" points="697.114,-227.189 690.249,-224.981 689.648,-217.795 696.512,-220.003 697.114,-227.189"/>
<text text-anchor="middle" x="753.5" y="-283" font-family="Helvetica,sans-Serif" font-size="10.00"> +pad</text>
</g>
<!-- Node12 -->
<g id="node12" class="node"><title>Node12</title>
<polygon fill="none" stroke="#bfbfbf" points="736.5,-557.5 736.5,-614.5 771.5,-614.5 771.5,-557.5 736.5,-557.5"/>
<text text-anchor="middle" x="754" y="-602.5" font-family="Helvetica,sans-Serif" font-size="10.00">float</text>
<polyline fill="none" stroke="#bfbfbf" points="736.5,-595.5 771.5,-595.5 "/>
<text text-anchor="middle" x="754" y="-583.5" font-family="Helvetica,sans-Serif" font-size="10.00"> </text>
<polyline fill="none" stroke="#bfbfbf" points="736.5,-576.5 771.5,-576.5 "/>
<text text-anchor="middle" x="754" y="-564.5" font-family="Helvetica,sans-Serif" font-size="10.00"> </text>
</g>
<!-- Node12&#45;&gt;Node11 -->
<g id="edge13" class="edge"><title>Node12&#45;&gt;Node11</title>
<path fill="none" stroke="#404040" d="M754,-557.229C754,-530.611 754,-489.645 754,-456.134"/>
<polygon fill="none" stroke="#404040" points="754,-455.701 750,-449.701 754,-443.701 758,-449.701 754,-455.701"/>
<text text-anchor="middle" x="772" y="-514.5" font-family="Helvetica,sans-Serif" font-size="10.00"> +fX</text>
<text text-anchor="middle" x="772" y="-503.5" font-family="Helvetica,sans-Serif" font-size="10.00">+fY</text>
<text text-anchor="middle" x="772" y="-492.5" font-family="Helvetica,sans-Serif" font-size="10.00">+fSizeX</text>
<text text-anchor="middle" x="772" y="-481.5" font-family="Helvetica,sans-Serif" font-size="10.00">+fSizeY</text>
</g>
<!-- Node13 -->
<g id="node13" class="node"><title>Node13</title>
<polygon fill="none" stroke="#bfbfbf" points="307,-370 307,-427 403,-427 403,-370 307,-370"/>
<text text-anchor="middle" x="355" y="-415" font-family="Helvetica,sans-Serif" font-size="10.00">vector&lt; uint16_t &gt;</text>
<polyline fill="none" stroke="#bfbfbf" points="307,-408 403,-408 "/>
<text text-anchor="middle" x="355" y="-396" font-family="Helvetica,sans-Serif" font-size="10.00"> </text>
<polyline fill="none" stroke="#bfbfbf" points="307,-389 403,-389 "/>
<text text-anchor="middle" x="355" y="-377" font-family="Helvetica,sans-Serif" font-size="10.00"> </text>
</g>
<!-- Node13&#45;&gt;Node9 -->
<g id="edge16" class="edge"><title>Node13&#45;&gt;Node9</title>
<path fill="none" stroke="#404040" d="M352.852,-369.836C351.687,-333.226 355.793,-269.427 394,-236 423.09,-210.55 529.839,-228.631 567,-218 567.891,-217.745 568.785,-217.481 569.68,-217.207"/>
<polygon fill="none" stroke="#404040" points="570.006,-217.095 574.383,-211.365 581.356,-213.201 576.979,-218.931 570.006,-217.095"/>
<text text-anchor="middle" x="417" y="-283" font-family="Helvetica,sans-Serif" font-size="10.00"> +samples</text>
</g>
<!-- Node14 -->
<g id="node14" class="node"><title>Node14</title>
<polygon fill="none" stroke="#bfbfbf" points="554.5,-370 554.5,-427 605.5,-427 605.5,-370 554.5,-370"/>
<text text-anchor="middle" x="580" y="-415" font-family="Helvetica,sans-Serif" font-size="10.00">uint32_t</text>
<polyline fill="none" stroke="#bfbfbf" points="554.5,-408 605.5,-408 "/>
<text text-anchor="middle" x="580" y="-396" font-family="Helvetica,sans-Serif" font-size="10.00"> </text>
<polyline fill="none" stroke="#bfbfbf" points="554.5,-389 605.5,-389 "/>
<text text-anchor="middle" x="580" y="-377" font-family="Helvetica,sans-Serif" font-size="10.00"> </text>
</g>
<!-- Node14&#45;&gt;Node9 -->
<g id="edge17" class="edge"><title>Node14&#45;&gt;Node9</title>
<path fill="none" stroke="#404040" d="M583.422,-369.928C588.061,-337.196 597.807,-281.334 615,-236 615.948,-233.5 616.993,-230.977 618.108,-228.457"/>
<polygon fill="none" stroke="#404040" points="618.174,-228.319 617.168,-221.179 623.372,-217.503 624.379,-224.644 618.174,-228.319"/>
<text text-anchor="middle" x="629" y="-288.5" font-family="Helvetica,sans-Serif" font-size="10.00"> +time</text>
<text text-anchor="middle" x="629" y="-277.5" font-family="Helvetica,sans-Serif" font-size="10.00">+size</text>
</g>
<!-- Node15 -->
<g id="node15" class="node"><title>Node15</title>
<polygon fill="none" stroke="#bfbfbf" points="624,-370 624,-427 670,-427 670,-370 624,-370"/>
<text text-anchor="middle" x="647" y="-415" font-family="Helvetica,sans-Serif" font-size="10.00">uint8_t</text>
<polyline fill="none" stroke="#bfbfbf" points="624,-408 670,-408 "/>
<text text-anchor="middle" x="647" y="-396" font-family="Helvetica,sans-Serif" font-size="10.00"> </text>
<polyline fill="none" stroke="#bfbfbf" points="624,-389 670,-389 "/>
<text text-anchor="middle" x="647" y="-377" font-family="Helvetica,sans-Serif" font-size="10.00"> </text>
</g>
<!-- Node15&#45;&gt;Node9 -->
<g id="edge18" class="edge"><title>Node15&#45;&gt;Node9</title>
<path fill="none" stroke="#404040" d="M647,-369.827C647,-334.738 647,-273.566 647,-229.94"/>
<polygon fill="none" stroke="#404040" points="647,-229.857 643,-223.857 647,-217.857 651,-223.857 647,-229.857"/>
<text text-anchor="middle" x="673" y="-310.5" font-family="Helvetica,sans-Serif" font-size="10.00"> +ds_addr</text>
<text text-anchor="middle" x="673" y="-299.5" font-family="Helvetica,sans-Serif" font-size="10.00">+fee_id</text>
<text text-anchor="middle" x="673" y="-288.5" font-family="Helvetica,sans-Serif" font-size="10.00">+cru_id</text>
<text text-anchor="middle" x="673" y="-277.5" font-family="Helvetica,sans-Serif" font-size="10.00">+chan_addr</text>
<text text-anchor="middle" x="673" y="-266.5" font-family="Helvetica,sans-Serif" font-size="10.00">+link_id</text>
<text text-anchor="middle" x="673" y="-255.5" font-family="Helvetica,sans-Serif" font-size="10.00">+data_path</text>
</g>
</g>
</svg>
