<?xml version="1.0" encoding="UTF-8" standalone="no"?>
<!DOCTYPE svg PUBLIC "-//W3C//DTD SVG 1.1//EN"
 "http://www.w3.org/Graphics/SVG/1.1/DTD/svg11.dtd">
<!-- Generated by graphviz version 2.38.0 (20140413.2041)
 -->
<!-- Title: o2::quality_control::core::DuplicateObjectError Pages: 1 -->
<svg width="177pt" height="171pt"
 viewBox="0.00 0.00 177.00 171.00" xmlns="http://www.w3.org/2000/svg" xmlns:xlink="http://www.w3.org/1999/xlink">
<g id="graph0" class="graph" transform="scale(1 1) rotate(0) translate(4 167)">
<title>o2::quality_control::core::DuplicateObjectError</title>
<!-- Node1 -->
<g id="node1" class="node"><title>Node1</title>
<polygon fill="#bfbfbf" stroke="black" points="15.5,-0.5 15.5,-68.5 153.5,-68.5 153.5,-0.5 15.5,-0.5"/>
<text text-anchor="start" x="23.5" y="-56.5" font-family="Helvetica,sans-Serif" font-size="10.00">o2::quality_control</text>
<text text-anchor="middle" x="84.5" y="-45.5" font-family="Helvetica,sans-Serif" font-size="10.00">::core::DuplicateObjectError</text>
<polyline fill="none" stroke="black" points="15.5,-38.5 153.5,-38.5 "/>
<text text-anchor="middle" x="84.5" y="-26.5" font-family="Helvetica,sans-Serif" font-size="10.00"> </text>
<polyline fill="none" stroke="black" points="15.5,-19.5 153.5,-19.5 "/>
<text text-anchor="start" x="23.5" y="-7.5" font-family="Helvetica,sans-Serif" font-size="10.00">+ what()</text>
</g>
<!-- Node2 -->
<g id="node2" class="node"><title>Node2</title>
<g id="a_node2"><a xlink:href="classAliceO2_1_1Common_1_1ExceptionBase.html" target="_top" xlink:title="{AliceO2::Common::ExceptionBase\n||}">
<polygon fill="none" stroke="black" points="-1.42109e-14,-105.5 -1.42109e-14,-162.5 169,-162.5 169,-105.5 -1.42109e-14,-105.5"/>
<text text-anchor="middle" x="84.5" y="-150.5" font-family="Helvetica,sans-Serif" font-size="10.00">AliceO2::Common::ExceptionBase</text>
<polyline fill="none" stroke="black" points="-1.42109e-14,-143.5 169,-143.5 "/>
<text text-anchor="middle" x="84.5" y="-131.5" font-family="Helvetica,sans-Serif" font-size="10.00"> </text>
<polyline fill="none" stroke="black" points="-1.42109e-14,-124.5 169,-124.5 "/>
<text text-anchor="middle" x="84.5" y="-112.5" font-family="Helvetica,sans-Serif" font-size="10.00"> </text>
</a>
</g>
</g>
<!-- Node2&#45;&gt;Node1 -->
<g id="edge1" class="edge"><title>Node2&#45;&gt;Node1</title>
<path fill="none" stroke="midnightblue" d="M84.5,-95.0631C84.5,-86.3933 84.5,-77.2431 84.5,-68.7855"/>
<polygon fill="none" stroke="midnightblue" points="81.0001,-95.3212 84.5,-105.321 88.0001,-95.3212 81.0001,-95.3212"/>
</g>
</g>
</svg>
