<?xml version="1.0" encoding="UTF-8" standalone="no"?>
<!DOCTYPE svg PUBLIC "-//W3C//DTD SVG 1.1//EN"
 "http://www.w3.org/Graphics/SVG/1.1/DTD/svg11.dtd">
<!-- Generated by graphviz version 2.38.0 (20140413.2041)
 -->
<!-- Title: o2::quality_control_modules::muonchambers::DualSampaGroup Pages: 1 -->
<svg width="139pt" height="193pt"
 viewBox="0.00 0.00 139.00 193.00" xmlns="http://www.w3.org/2000/svg" xmlns:xlink="http://www.w3.org/1999/xlink">
<g id="graph0" class="graph" transform="scale(1 1) rotate(0) translate(4 189)">
<title>o2::quality_control_modules::muonchambers::DualSampaGroup</title>
<!-- Node1 -->
<g id="node1" class="node"><title>Node1</title>
<polygon fill="#bfbfbf" stroke="black" points="0,-0.5 0,-79.5 131,-79.5 131,-0.5 0,-0.5"/>
<text text-anchor="start" x="8" y="-67.5" font-family="Helvetica,sans-Serif" font-size="10.00">o2::quality_control</text>
<text text-anchor="start" x="8" y="-56.5" font-family="Helvetica,sans-Serif" font-size="10.00">_modules::muonchambers</text>
<text text-anchor="middle" x="65.5" y="-45.5" font-family="Helvetica,sans-Serif" font-size="10.00">::DualSampaGroup</text>
<polyline fill="none" stroke="black" points="0,-38.5 131,-38.5 "/>
<text text-anchor="middle" x="65.5" y="-26.5" font-family="Helvetica,sans-Serif" font-size="10.00"> </text>
<polyline fill="none" stroke="black" points="0,-19.5 131,-19.5 "/>
<text text-anchor="middle" x="65.5" y="-7.5" font-family="Helvetica,sans-Serif" font-size="10.00"> </text>
</g>
<!-- Node2 -->
<g id="node2" class="node"><title>Node2</title>
<polygon fill="none" stroke="#bfbfbf" points="51,-127.5 51,-184.5 80,-184.5 80,-127.5 51,-127.5"/>
<text text-anchor="middle" x="65.5" y="-172.5" font-family="Helvetica,sans-Serif" font-size="10.00">int</text>
<polyline fill="none" stroke="#bfbfbf" points="51,-165.5 80,-165.5 "/>
<text text-anchor="middle" x="65.5" y="-153.5" font-family="Helvetica,sans-Serif" font-size="10.00"> </text>
<polyline fill="none" stroke="#bfbfbf" points="51,-146.5 80,-146.5 "/>
<text text-anchor="middle" x="65.5" y="-134.5" font-family="Helvetica,sans-Serif" font-size="10.00"> </text>
</g>
<!-- Node2&#45;&gt;Node1 -->
<g id="edge1" class="edge"><title>Node2&#45;&gt;Node1</title>
<path fill="none" stroke="#404040" d="M65.5,-127.404C65.5,-116.63 65.5,-103.926 65.5,-91.6231"/>
<polygon fill="none" stroke="#404040" points="65.5001,-91.5406 61.5,-85.5406 65.5,-79.5406 69.5,-85.5405 65.5001,-91.5406"/>
<text text-anchor="middle" x="78" y="-101" font-family="Helvetica,sans-Serif" font-size="10.00"> +bxc</text>
</g>
</g>
</svg>
