<?xml version="1.0" encoding="UTF-8" standalone="no"?>
<!DOCTYPE svg PUBLIC "-//W3C//DTD SVG 1.1//EN"
 "http://www.w3.org/Graphics/SVG/1.1/DTD/svg11.dtd">
<!-- Generated by graphviz version 2.38.0 (20140413.2041)
 -->
<!-- Title: o2::quality_control::postprocessing::Trigger Pages: 1 -->
<svg width="156pt" height="226pt"
 viewBox="0.00 0.00 155.50 226.00" xmlns="http://www.w3.org/2000/svg" xmlns:xlink="http://www.w3.org/1999/xlink">
<g id="graph0" class="graph" transform="scale(1 1) rotate(0) translate(4 222)">
<title>o2::quality_control::postprocessing::Trigger</title>
<!-- Node1 -->
<g id="node1" class="node"><title>Node1</title>
<polygon fill="#bfbfbf" stroke="black" points="2,-0.5 2,-112.5 127,-112.5 127,-0.5 2,-0.5"/>
<text text-anchor="start" x="10" y="-100.5" font-family="Helvetica,sans-Serif" font-size="10.00">o2::quality_control</text>
<text text-anchor="middle" x="64.5" y="-89.5" font-family="Helvetica,sans-Serif" font-size="10.00">::postprocessing::Trigger</text>
<polyline fill="none" stroke="black" points="2,-82.5 127,-82.5 "/>
<text text-anchor="middle" x="64.5" y="-70.5" font-family="Helvetica,sans-Serif" font-size="10.00"> </text>
<polyline fill="none" stroke="black" points="2,-63.5 127,-63.5 "/>
<text text-anchor="start" x="10" y="-51.5" font-family="Helvetica,sans-Serif" font-size="10.00">+ Trigger()</text>
<text text-anchor="start" x="10" y="-40.5" font-family="Helvetica,sans-Serif" font-size="10.00">+ Trigger()</text>
<text text-anchor="start" x="10" y="-29.5" font-family="Helvetica,sans-Serif" font-size="10.00">+ operator bool()</text>
<text text-anchor="start" x="10" y="-18.5" font-family="Helvetica,sans-Serif" font-size="10.00">+ operator==()</text>
<text text-anchor="start" x="10" y="-7.5" font-family="Helvetica,sans-Serif" font-size="10.00">+ msSinceEpoch()</text>
</g>
<!-- Node2 -->
<g id="node2" class="node"><title>Node2</title>
<polygon fill="none" stroke="#bfbfbf" points="0,-160.5 0,-217.5 51,-217.5 51,-160.5 0,-160.5"/>
<text text-anchor="middle" x="25.5" y="-205.5" font-family="Helvetica,sans-Serif" font-size="10.00">uint64_t</text>
<polyline fill="none" stroke="#bfbfbf" points="0,-198.5 51,-198.5 "/>
<text text-anchor="middle" x="25.5" y="-186.5" font-family="Helvetica,sans-Serif" font-size="10.00"> </text>
<polyline fill="none" stroke="#bfbfbf" points="0,-179.5 51,-179.5 "/>
<text text-anchor="middle" x="25.5" y="-167.5" font-family="Helvetica,sans-Serif" font-size="10.00"> </text>
</g>
<!-- Node2&#45;&gt;Node1 -->
<g id="edge1" class="edge"><title>Node2&#45;&gt;Node1</title>
<path fill="none" stroke="#404040" d="M23.4588,-160.411C23.4221,-150.961 24.1252,-140.404 26.5,-131 27.0803,-128.702 27.7437,-126.395 28.477,-124.089"/>
<polygon fill="none" stroke="#404040" points="28.5476,-123.896 26.8495,-116.888 32.6656,-112.625 34.3637,-119.633 28.5476,-123.896"/>
<text text-anchor="middle" x="54" y="-134" font-family="Helvetica,sans-Serif" font-size="10.00"> +timestamp</text>
</g>
<!-- Node3 -->
<g id="node3" class="node"><title>Node3</title>
<polygon fill="none" stroke="#bfbfbf" points="69.5,-160.5 69.5,-217.5 137.5,-217.5 137.5,-160.5 69.5,-160.5"/>
<text text-anchor="middle" x="103.5" y="-205.5" font-family="Helvetica,sans-Serif" font-size="10.00">TriggerType</text>
<polyline fill="none" stroke="#bfbfbf" points="69.5,-198.5 137.5,-198.5 "/>
<text text-anchor="middle" x="103.5" y="-186.5" font-family="Helvetica,sans-Serif" font-size="10.00"> </text>
<polyline fill="none" stroke="#bfbfbf" points="69.5,-179.5 137.5,-179.5 "/>
<text text-anchor="middle" x="103.5" y="-167.5" font-family="Helvetica,sans-Serif" font-size="10.00"> </text>
</g>
<!-- Node3&#45;&gt;Node1 -->
<g id="edge2" class="edge"><title>Node3&#45;&gt;Node1</title>
<path fill="none" stroke="#404040" d="M95.2291,-160.324C92.045,-149.67 88.2549,-136.987 84.4422,-124.23"/>
<polygon fill="none" stroke="#404040" points="84.3873,-124.046 78.8367,-119.442 80.9512,-112.548 86.5018,-117.152 84.3873,-124.046"/>
<text text-anchor="middle" x="118.5" y="-134" font-family="Helvetica,sans-Serif" font-size="10.00"> +triggerType</text>
</g>
</g>
</svg>
