<?xml version="1.0" encoding="UTF-8" standalone="no"?>
<!DOCTYPE svg PUBLIC "-//W3C//DTD SVG 1.1//EN"
 "http://www.w3.org/Graphics/SVG/1.1/DTD/svg11.dtd">
<!-- Generated by graphviz version 2.38.0 (20140413.2041)
 -->
<!-- Title: o2::quality_control::postprocessing::TrendingTaskConfig::DataSource Pages: 1 -->
<svg width="145pt" height="237pt"
 viewBox="0.00 0.00 145.00 237.00" xmlns="http://www.w3.org/2000/svg" xmlns:xlink="http://www.w3.org/1999/xlink">
<g id="graph0" class="graph" transform="scale(1 1) rotate(0) translate(4 233)">
<title>o2::quality_control::postprocessing::TrendingTaskConfig::DataSource</title>
<!-- Node1 -->
<g id="node1" class="node"><title>Node1</title>
<polygon fill="#bfbfbf" stroke="black" points="0,-0.5 0,-79.5 132,-79.5 132,-0.5 0,-0.5"/>
<text text-anchor="start" x="8" y="-67.5" font-family="Helvetica,sans-Serif" font-size="10.00">o2::quality_control</text>
<text text-anchor="start" x="8" y="-56.5" font-family="Helvetica,sans-Serif" font-size="10.00">::postprocessing::Trending</text>
<text text-anchor="middle" x="66" y="-45.5" font-family="Helvetica,sans-Serif" font-size="10.00">TaskConfig::DataSource</text>
<polyline fill="none" stroke="black" points="0,-38.5 132,-38.5 "/>
<text text-anchor="middle" x="66" y="-26.5" font-family="Helvetica,sans-Serif" font-size="10.00"> </text>
<polyline fill="none" stroke="black" points="0,-19.5 132,-19.5 "/>
<text text-anchor="middle" x="66" y="-7.5" font-family="Helvetica,sans-Serif" font-size="10.00"> </text>
</g>
<!-- Node2 -->
<g id="node2" class="node"><title>Node2</title>
<polygon fill="none" stroke="#bfbfbf" points="45.5,-171.5 45.5,-228.5 86.5,-228.5 86.5,-171.5 45.5,-171.5"/>
<text text-anchor="middle" x="66" y="-216.5" font-family="Helvetica,sans-Serif" font-size="10.00">string</text>
<polyline fill="none" stroke="#bfbfbf" points="45.5,-209.5 86.5,-209.5 "/>
<text text-anchor="middle" x="66" y="-197.5" font-family="Helvetica,sans-Serif" font-size="10.00"> </text>
<polyline fill="none" stroke="#bfbfbf" points="45.5,-190.5 86.5,-190.5 "/>
<text text-anchor="middle" x="66" y="-178.5" font-family="Helvetica,sans-Serif" font-size="10.00"> </text>
</g>
<!-- Node2&#45;&gt;Node1 -->
<g id="edge1" class="edge"><title>Node2&#45;&gt;Node1</title>
<path fill="none" stroke="#404040" d="M66,-171.479C66,-149.573 66,-118.314 66,-91.8837"/>
<polygon fill="none" stroke="#404040" points="66.0001,-91.746 62,-85.746 66,-79.746 70,-85.7459 66.0001,-91.746"/>
<text text-anchor="middle" x="101.5" y="-145" font-family="Helvetica,sans-Serif" font-size="10.00"> +reductorName</text>
<text text-anchor="middle" x="101.5" y="-134" font-family="Helvetica,sans-Serif" font-size="10.00">+type</text>
<text text-anchor="middle" x="101.5" y="-123" font-family="Helvetica,sans-Serif" font-size="10.00">+name</text>
<text text-anchor="middle" x="101.5" y="-112" font-family="Helvetica,sans-Serif" font-size="10.00">+moduleName</text>
<text text-anchor="middle" x="101.5" y="-101" font-family="Helvetica,sans-Serif" font-size="10.00">+path</text>
</g>
</g>
</svg>
