<?xml version="1.0" encoding="UTF-8" standalone="no"?>
<!DOCTYPE svg PUBLIC "-//W3C//DTD SVG 1.1//EN"
 "http://www.w3.org/Graphics/SVG/1.1/DTD/svg11.dtd">
<!-- Generated by graphviz version 2.38.0 (20140413.2041)
 -->
<!-- Title: CRUheader Pages: 1 -->
<svg width="285pt" height="237pt"
 viewBox="0.00 0.00 284.50 237.00" xmlns="http://www.w3.org/2000/svg" xmlns:xlink="http://www.w3.org/1999/xlink">
<g id="graph0" class="graph" transform="scale(1 1) rotate(0) translate(4 233)">
<title>CRUheader</title>
<!-- Node1 -->
<g id="node1" class="node"><title>Node1</title>
<polygon fill="#bfbfbf" stroke="black" points="104.5,-0.5 104.5,-57.5 172.5,-57.5 172.5,-0.5 104.5,-0.5"/>
<text text-anchor="middle" x="138.5" y="-45.5" font-family="Helvetica,sans-Serif" font-size="10.00">CRUheader</text>
<polyline fill="none" stroke="black" points="104.5,-38.5 172.5,-38.5 "/>
<text text-anchor="middle" x="138.5" y="-26.5" font-family="Helvetica,sans-Serif" font-size="10.00"> </text>
<polyline fill="none" stroke="black" points="104.5,-19.5 172.5,-19.5 "/>
<text text-anchor="middle" x="138.5" y="-7.5" font-family="Helvetica,sans-Serif" font-size="10.00"> </text>
</g>
<!-- Node2 -->
<g id="node2" class="node"><title>Node2</title>
<polygon fill="none" stroke="#bfbfbf" points="0,-171.5 0,-228.5 51,-228.5 51,-171.5 0,-171.5"/>
<text text-anchor="middle" x="25.5" y="-216.5" font-family="Helvetica,sans-Serif" font-size="10.00">uint16_t</text>
<polyline fill="none" stroke="#bfbfbf" points="0,-209.5 51,-209.5 "/>
<text text-anchor="middle" x="25.5" y="-197.5" font-family="Helvetica,sans-Serif" font-size="10.00"> </text>
<polyline fill="none" stroke="#bfbfbf" points="0,-190.5 51,-190.5 "/>
<text text-anchor="middle" x="25.5" y="-178.5" font-family="Helvetica,sans-Serif" font-size="10.00"> </text>
</g>
<!-- Node2&#45;&gt;Node1 -->
<g id="edge1" class="edge"><title>Node2&#45;&gt;Node1</title>
<path fill="none" stroke="#404040" d="M22.845,-171.323C21.738,-144.416 24.1353,-103.67 44.5,-76 56.2498,-60.0354 75.0576,-49.3235 92.7734,-42.2867"/>
<polygon fill="none" stroke="#404040" points="92.8843,-42.2468 97.171,-36.4481 104.172,-38.1749 99.8856,-43.9735 92.8843,-42.2468"/>
<text text-anchor="middle" x="89.5" y="-139.5" font-family="Helvetica,sans-Serif" font-size="10.00"> +memory_size</text>
<text text-anchor="middle" x="89.5" y="-128.5" font-family="Helvetica,sans-Serif" font-size="10.00">+block_length</text>
<text text-anchor="middle" x="89.5" y="-117.5" font-family="Helvetica,sans-Serif" font-size="10.00">+cru_id</text>
<text text-anchor="middle" x="89.5" y="-106.5" font-family="Helvetica,sans-Serif" font-size="10.00">+fee_id</text>
<text text-anchor="middle" x="89.5" y="-95.5" font-family="Helvetica,sans-Serif" font-size="10.00">+next_packet_offset</text>
<text text-anchor="middle" x="89.5" y="-84.5" font-family="Helvetica,sans-Serif" font-size="10.00">+source_id</text>
</g>
<!-- Node3 -->
<g id="node3" class="node"><title>Node3</title>
<polygon fill="none" stroke="#bfbfbf" points="113,-171.5 113,-228.5 164,-228.5 164,-171.5 113,-171.5"/>
<text text-anchor="middle" x="138.5" y="-216.5" font-family="Helvetica,sans-Serif" font-size="10.00">uint32_t</text>
<polyline fill="none" stroke="#bfbfbf" points="113,-209.5 164,-209.5 "/>
<text text-anchor="middle" x="138.5" y="-197.5" font-family="Helvetica,sans-Serif" font-size="10.00"> </text>
<polyline fill="none" stroke="#bfbfbf" points="113,-190.5 164,-190.5 "/>
<text text-anchor="middle" x="138.5" y="-178.5" font-family="Helvetica,sans-Serif" font-size="10.00"> </text>
</g>
<!-- Node3&#45;&gt;Node1 -->
<g id="edge2" class="edge"><title>Node3&#45;&gt;Node1</title>
<path fill="none" stroke="#404040" d="M138.5,-171.471C138.5,-143.85 138.5,-101.027 138.5,-69.728"/>
<polygon fill="none" stroke="#404040" points="138.5,-69.5171 134.5,-63.5171 138.5,-57.5171 142.5,-63.5171 138.5,-69.5171"/>
<text text-anchor="middle" x="160.5" y="-112" font-family="Helvetica,sans-Serif" font-size="10.00"> +hb_orbit</text>
</g>
<!-- Node4 -->
<g id="node4" class="node"><title>Node4</title>
<polygon fill="none" stroke="#bfbfbf" points="182.5,-171.5 182.5,-228.5 228.5,-228.5 228.5,-171.5 182.5,-171.5"/>
<text text-anchor="middle" x="205.5" y="-216.5" font-family="Helvetica,sans-Serif" font-size="10.00">uint8_t</text>
<polyline fill="none" stroke="#bfbfbf" points="182.5,-209.5 228.5,-209.5 "/>
<text text-anchor="middle" x="205.5" y="-197.5" font-family="Helvetica,sans-Serif" font-size="10.00"> </text>
<polyline fill="none" stroke="#bfbfbf" points="182.5,-190.5 228.5,-190.5 "/>
<text text-anchor="middle" x="205.5" y="-178.5" font-family="Helvetica,sans-Serif" font-size="10.00"> </text>
</g>
<!-- Node4&#45;&gt;Node1 -->
<g id="edge3" class="edge"><title>Node4&#45;&gt;Node1</title>
<path fill="none" stroke="#404040" d="M205.146,-171.129C203.777,-145.178 198.998,-106.084 183.5,-76 181.917,-72.9274 180.06,-69.9257 178.017,-67.0225"/>
<polygon fill="none" stroke="#404040" points="177.966,-66.9581 171.099,-64.7573 170.489,-57.572 177.356,-59.7728 177.966,-66.9581"/>
<text text-anchor="middle" x="240" y="-145" font-family="Helvetica,sans-Serif" font-size="10.00"> +priority_bit</text>
<text text-anchor="middle" x="240" y="-134" font-family="Helvetica,sans-Serif" font-size="10.00">+header_version</text>
<text text-anchor="middle" x="240" y="-123" font-family="Helvetica,sans-Serif" font-size="10.00">+link_id</text>
<text text-anchor="middle" x="240" y="-112" font-family="Helvetica,sans-Serif" font-size="10.00">+reserved_1</text>
<text text-anchor="middle" x="240" y="-101" font-family="Helvetica,sans-Serif" font-size="10.00">+packet_counter</text>
<text text-anchor="middle" x="240" y="-90" font-family="Helvetica,sans-Serif" font-size="10.00">+dpw_id</text>
<text text-anchor="middle" x="240" y="-79" font-family="Helvetica,sans-Serif" font-size="10.00">+header_size</text>
</g>
</g>
</svg>
