<?xml version="1.0" encoding="UTF-8" standalone="no"?>
<!DOCTYPE svg PUBLIC "-//W3C//DTD SVG 1.1//EN"
 "http://www.w3.org/Graphics/SVG/1.1/DTD/svg11.dtd">
<!-- Generated by graphviz version 2.38.0 (20140413.2041)
 -->
<!-- Title: o2::quality_control_modules::muonchambers::SampaHit Pages: 1 -->
<svg width="598pt" height="452pt"
 viewBox="0.00 0.00 597.50 452.00" xmlns="http://www.w3.org/2000/svg" xmlns:xlink="http://www.w3.org/1999/xlink">
<g id="graph0" class="graph" transform="scale(1 1) rotate(0) translate(4 448)">
<title>o2::quality_control_modules::muonchambers::SampaHit</title>
<!-- Node1 -->
<g id="node1" class="node"><title>Node1</title>
<polygon fill="#bfbfbf" stroke="black" points="241,-0.5 241,-79.5 372,-79.5 372,-0.5 241,-0.5"/>
<text text-anchor="start" x="249" y="-67.5" font-family="Helvetica,sans-Serif" font-size="10.00">o2::quality_control</text>
<text text-anchor="start" x="249" y="-56.5" font-family="Helvetica,sans-Serif" font-size="10.00">_modules::muonchambers</text>
<text text-anchor="middle" x="306.5" y="-45.5" font-family="Helvetica,sans-Serif" font-size="10.00">::SampaHit</text>
<polyline fill="none" stroke="black" points="241,-38.5 372,-38.5 "/>
<text text-anchor="middle" x="306.5" y="-26.5" font-family="Helvetica,sans-Serif" font-size="10.00"> </text>
<polyline fill="none" stroke="black" points="241,-19.5 372,-19.5 "/>
<text text-anchor="middle" x="306.5" y="-7.5" font-family="Helvetica,sans-Serif" font-size="10.00"> </text>
</g>
<!-- Node2 -->
<g id="node2" class="node"><title>Node2</title>
<polygon fill="none" stroke="#bfbfbf" points="0,-199 0,-256 51,-256 51,-199 0,-199"/>
<text text-anchor="middle" x="25.5" y="-244" font-family="Helvetica,sans-Serif" font-size="10.00">uint64_t</text>
<polyline fill="none" stroke="#bfbfbf" points="0,-237 51,-237 "/>
<text text-anchor="middle" x="25.5" y="-225" font-family="Helvetica,sans-Serif" font-size="10.00"> </text>
<polyline fill="none" stroke="#bfbfbf" points="0,-218 51,-218 "/>
<text text-anchor="middle" x="25.5" y="-206" font-family="Helvetica,sans-Serif" font-size="10.00"> </text>
</g>
<!-- Node2&#45;&gt;Node1 -->
<g id="edge1" class="edge"><title>Node2&#45;&gt;Node1</title>
<path fill="none" stroke="#404040" d="M35.1675,-198.938C46.8534,-169.618 69.3108,-123.963 103.5,-98 139.508,-70.6553 188.026,-56.4283 228.6,-49.0264"/>
<polygon fill="none" stroke="#404040" points="228.807,-48.9913 234.054,-44.0443 240.638,-46.9847 235.392,-51.9317 228.807,-48.9913"/>
<text text-anchor="middle" x="120.5" y="-128.5" font-family="Helvetica,sans-Serif" font-size="10.00"> +csum</text>
</g>
<!-- Node3 -->
<g id="node3" class="node"><title>Node3</title>
<polygon fill="none" stroke="#bfbfbf" points="69.5,-199 69.5,-256 115.5,-256 115.5,-199 69.5,-199"/>
<text text-anchor="middle" x="92.5" y="-244" font-family="Helvetica,sans-Serif" font-size="10.00">int64_t</text>
<polyline fill="none" stroke="#bfbfbf" points="69.5,-237 115.5,-237 "/>
<text text-anchor="middle" x="92.5" y="-225" font-family="Helvetica,sans-Serif" font-size="10.00"> </text>
<polyline fill="none" stroke="#bfbfbf" points="69.5,-218 115.5,-218 "/>
<text text-anchor="middle" x="92.5" y="-206" font-family="Helvetica,sans-Serif" font-size="10.00"> </text>
</g>
<!-- Node3&#45;&gt;Node1 -->
<g id="edge2" class="edge"><title>Node3&#45;&gt;Node1</title>
<path fill="none" stroke="#404040" d="M111.454,-198.671C115.591,-193.025 120.063,-187.221 124.5,-182 158.691,-141.769 166.665,-130.208 208.5,-98 215.494,-92.6152 223.046,-87.3677 230.744,-82.3747"/>
<polygon fill="none" stroke="#404040" points="230.762,-82.3636 233.707,-75.7811 240.915,-75.9673 237.971,-82.5499 230.762,-82.3636"/>
<text text-anchor="middle" x="221" y="-128.5" font-family="Helvetica,sans-Serif" font-size="10.00"> +bxc</text>
</g>
<!-- Node4 -->
<g id="node4" class="node"><title>Node4</title>
<g id="a_node4"><a xlink:href="classo2_1_1quality__control__modules_1_1muonchambers_1_1MapPad.html" target="_top" xlink:title="{o2::quality_control\l_modules::muonchambers\l::MapPad\n||+ MapPad()\l+ ~MapPad()\l}">
<polygon fill="none" stroke="black" points="134,-182.5 134,-272.5 265,-272.5 265,-182.5 134,-182.5"/>
<text text-anchor="start" x="142" y="-260.5" font-family="Helvetica,sans-Serif" font-size="10.00">o2::quality_control</text>
<text text-anchor="start" x="142" y="-249.5" font-family="Helvetica,sans-Serif" font-size="10.00">_modules::muonchambers</text>
<text text-anchor="middle" x="199.5" y="-238.5" font-family="Helvetica,sans-Serif" font-size="10.00">::MapPad</text>
<polyline fill="none" stroke="black" points="134,-231.5 265,-231.5 "/>
<text text-anchor="middle" x="199.5" y="-219.5" font-family="Helvetica,sans-Serif" font-size="10.00"> </text>
<polyline fill="none" stroke="black" points="134,-212.5 265,-212.5 "/>
<text text-anchor="start" x="142" y="-200.5" font-family="Helvetica,sans-Serif" font-size="10.00">+ MapPad()</text>
<text text-anchor="start" x="142" y="-189.5" font-family="Helvetica,sans-Serif" font-size="10.00">+ ~MapPad()</text>
</a>
</g>
</g>
<!-- Node4&#45;&gt;Node1 -->
<g id="edge3" class="edge"><title>Node4&#45;&gt;Node1</title>
<path fill="none" stroke="#404040" d="M225.129,-182.068C241.082,-154.411 261.623,-118.801 278.075,-90.2784"/>
<polygon fill="none" stroke="#404040" points="278.167,-90.1201 277.7,-82.9241 284.162,-79.7254 284.629,-86.9214 278.167,-90.1201"/>
<text text-anchor="middle" x="285" y="-128.5" font-family="Helvetica,sans-Serif" font-size="10.00"> +pad</text>
</g>
<!-- Node5 -->
<g id="node5" class="node"><title>Node5</title>
<polygon fill="none" stroke="#bfbfbf" points="153,-386.5 153,-443.5 188,-443.5 188,-386.5 153,-386.5"/>
<text text-anchor="middle" x="170.5" y="-431.5" font-family="Helvetica,sans-Serif" font-size="10.00">float</text>
<polyline fill="none" stroke="#bfbfbf" points="153,-424.5 188,-424.5 "/>
<text text-anchor="middle" x="170.5" y="-412.5" font-family="Helvetica,sans-Serif" font-size="10.00"> </text>
<polyline fill="none" stroke="#bfbfbf" points="153,-405.5 188,-405.5 "/>
<text text-anchor="middle" x="170.5" y="-393.5" font-family="Helvetica,sans-Serif" font-size="10.00"> </text>
</g>
<!-- Node5&#45;&gt;Node4 -->
<g id="edge4" class="edge"><title>Node5&#45;&gt;Node4</title>
<path fill="none" stroke="#404040" d="M167.513,-386.284C165.556,-361.116 164.495,-323.132 171.5,-291 171.973,-288.829 172.527,-286.642 173.146,-284.453"/>
<polygon fill="none" stroke="#404040" points="173.231,-284.195 171.321,-277.241 177.005,-272.803 178.916,-279.757 173.231,-284.195"/>
<text text-anchor="middle" x="189.5" y="-343.5" font-family="Helvetica,sans-Serif" font-size="10.00"> +fX</text>
<text text-anchor="middle" x="189.5" y="-332.5" font-family="Helvetica,sans-Serif" font-size="10.00">+fY</text>
<text text-anchor="middle" x="189.5" y="-321.5" font-family="Helvetica,sans-Serif" font-size="10.00">+fSizeX</text>
<text text-anchor="middle" x="189.5" y="-310.5" font-family="Helvetica,sans-Serif" font-size="10.00">+fSizeY</text>
</g>
<!-- Node6 -->
<g id="node6" class="node"><title>Node6</title>
<polygon fill="none" stroke="#bfbfbf" points="215,-386.5 215,-443.5 244,-443.5 244,-386.5 215,-386.5"/>
<text text-anchor="middle" x="229.5" y="-431.5" font-family="Helvetica,sans-Serif" font-size="10.00">int</text>
<polyline fill="none" stroke="#bfbfbf" points="215,-424.5 244,-424.5 "/>
<text text-anchor="middle" x="229.5" y="-412.5" font-family="Helvetica,sans-Serif" font-size="10.00"> </text>
<polyline fill="none" stroke="#bfbfbf" points="215,-405.5 244,-405.5 "/>
<text text-anchor="middle" x="229.5" y="-393.5" font-family="Helvetica,sans-Serif" font-size="10.00"> </text>
</g>
<!-- Node6&#45;&gt;Node4 -->
<g id="edge5" class="edge"><title>Node6&#45;&gt;Node4</title>
<path fill="none" stroke="#404040" d="M225.009,-386.229C220.685,-359.494 214.02,-318.284 208.588,-284.691"/>
<polygon fill="none" stroke="#404040" points="208.564,-284.547 203.658,-279.262 206.648,-272.701 211.555,-277.985 208.564,-284.547"/>
<text text-anchor="middle" x="246" y="-360" font-family="Helvetica,sans-Serif" font-size="10.00"> +fCathode</text>
<text text-anchor="middle" x="246" y="-349" font-family="Helvetica,sans-Serif" font-size="10.00">+fDE</text>
<text text-anchor="middle" x="246" y="-338" font-family="Helvetica,sans-Serif" font-size="10.00">+fBad</text>
<text text-anchor="middle" x="246" y="-327" font-family="Helvetica,sans-Serif" font-size="10.00">+fPadx</text>
<text text-anchor="middle" x="246" y="-316" font-family="Helvetica,sans-Serif" font-size="10.00">+fPady</text>
<text text-anchor="middle" x="246" y="-305" font-family="Helvetica,sans-Serif" font-size="10.00">+fAddress</text>
<text text-anchor="middle" x="246" y="-294" font-family="Helvetica,sans-Serif" font-size="10.00">+fDsID</text>
</g>
<!-- Node7 -->
<g id="node7" class="node"><title>Node7</title>
<polygon fill="none" stroke="#bfbfbf" points="283.5,-199 283.5,-256 329.5,-256 329.5,-199 283.5,-199"/>
<text text-anchor="middle" x="306.5" y="-244" font-family="Helvetica,sans-Serif" font-size="10.00">int32_t</text>
<polyline fill="none" stroke="#bfbfbf" points="283.5,-237 329.5,-237 "/>
<text text-anchor="middle" x="306.5" y="-225" font-family="Helvetica,sans-Serif" font-size="10.00"> </text>
<polyline fill="none" stroke="#bfbfbf" points="283.5,-218 329.5,-218 "/>
<text text-anchor="middle" x="306.5" y="-206" font-family="Helvetica,sans-Serif" font-size="10.00"> </text>
</g>
<!-- Node7&#45;&gt;Node1 -->
<g id="edge6" class="edge"><title>Node7&#45;&gt;Node1</title>
<path fill="none" stroke="#404040" d="M306.5,-198.729C306.5,-170.554 306.5,-126.302 306.5,-91.8321"/>
<polygon fill="none" stroke="#404040" points="306.5,-91.6232 302.5,-85.6232 306.5,-79.6232 310.5,-85.6232 306.5,-91.6232"/>
<text text-anchor="middle" x="322" y="-128.5" font-family="Helvetica,sans-Serif" font-size="10.00"> +delta</text>
</g>
<!-- Node8 -->
<g id="node8" class="node"><title>Node8</title>
<polygon fill="none" stroke="#bfbfbf" points="347.5,-199 347.5,-256 443.5,-256 443.5,-199 347.5,-199"/>
<text text-anchor="middle" x="395.5" y="-244" font-family="Helvetica,sans-Serif" font-size="10.00">vector&lt; uint16_t &gt;</text>
<polyline fill="none" stroke="#bfbfbf" points="347.5,-237 443.5,-237 "/>
<text text-anchor="middle" x="395.5" y="-225" font-family="Helvetica,sans-Serif" font-size="10.00"> </text>
<polyline fill="none" stroke="#bfbfbf" points="347.5,-218 443.5,-218 "/>
<text text-anchor="middle" x="395.5" y="-206" font-family="Helvetica,sans-Serif" font-size="10.00"> </text>
</g>
<!-- Node8&#45;&gt;Node1 -->
<g id="edge7" class="edge"><title>Node8&#45;&gt;Node1</title>
<path fill="none" stroke="#404040" d="M385.303,-198.875C375.229,-172.472 358.85,-131.799 341.5,-98 340.202,-95.4722 338.833,-92.9068 337.418,-90.3342"/>
<polygon fill="none" stroke="#404040" points="337.351,-90.2179 330.904,-86.9888 331.404,-79.7951 337.852,-83.0242 337.351,-90.2179"/>
<text text-anchor="middle" x="394.5" y="-128.5" font-family="Helvetica,sans-Serif" font-size="10.00"> +samples</text>
</g>
<!-- Node9 -->
<g id="node9" class="node"><title>Node9</title>
<polygon fill="none" stroke="#bfbfbf" points="462,-199 462,-256 513,-256 513,-199 462,-199"/>
<text text-anchor="middle" x="487.5" y="-244" font-family="Helvetica,sans-Serif" font-size="10.00">uint32_t</text>
<polyline fill="none" stroke="#bfbfbf" points="462,-237 513,-237 "/>
<text text-anchor="middle" x="487.5" y="-225" font-family="Helvetica,sans-Serif" font-size="10.00"> </text>
<polyline fill="none" stroke="#bfbfbf" points="462,-218 513,-218 "/>
<text text-anchor="middle" x="487.5" y="-206" font-family="Helvetica,sans-Serif" font-size="10.00"> </text>
</g>
<!-- Node9&#45;&gt;Node1 -->
<g id="edge8" class="edge"><title>Node9&#45;&gt;Node1</title>
<path fill="none" stroke="#404040" d="M479.042,-198.784C469.178,-170.404 450.434,-126.523 421.5,-98 410.372,-87.0301 396.711,-77.793 382.741,-70.1627"/>
<polygon fill="none" stroke="#404040" points="382.698,-70.1407 375.532,-70.9445 372.033,-64.6387 379.2,-63.8349 382.698,-70.1407"/>
<text text-anchor="middle" x="478.5" y="-134" font-family="Helvetica,sans-Serif" font-size="10.00"> +time</text>
<text text-anchor="middle" x="478.5" y="-123" font-family="Helvetica,sans-Serif" font-size="10.00">+size</text>
</g>
<!-- Node10 -->
<g id="node10" class="node"><title>Node10</title>
<polygon fill="none" stroke="#bfbfbf" points="531.5,-199 531.5,-256 577.5,-256 577.5,-199 531.5,-199"/>
<text text-anchor="middle" x="554.5" y="-244" font-family="Helvetica,sans-Serif" font-size="10.00">uint8_t</text>
<polyline fill="none" stroke="#bfbfbf" points="531.5,-237 577.5,-237 "/>
<text text-anchor="middle" x="554.5" y="-225" font-family="Helvetica,sans-Serif" font-size="10.00"> </text>
<polyline fill="none" stroke="#bfbfbf" points="531.5,-218 577.5,-218 "/>
<text text-anchor="middle" x="554.5" y="-206" font-family="Helvetica,sans-Serif" font-size="10.00"> </text>
</g>
<!-- Node10&#45;&gt;Node1 -->
<g id="edge9" class="edge"><title>Node10&#45;&gt;Node1</title>
<path fill="none" stroke="#404040" d="M549.113,-198.886C542.01,-169.742 526.701,-124.442 496.5,-98 465.404,-70.7744 421.707,-56.5484 384.058,-49.1171"/>
<polygon fill="none" stroke="#404040" points="383.876,-49.0841 377.257,-51.945 372.07,-46.9352 378.69,-44.0743 383.876,-49.0841"/>
<text text-anchor="middle" x="563.5" y="-156" font-family="Helvetica,sans-Serif" font-size="10.00"> +ds_addr</text>
<text text-anchor="middle" x="563.5" y="-145" font-family="Helvetica,sans-Serif" font-size="10.00">+fee_id</text>
<text text-anchor="middle" x="563.5" y="-134" font-family="Helvetica,sans-Serif" font-size="10.00">+cru_id</text>
<text text-anchor="middle" x="563.5" y="-123" font-family="Helvetica,sans-Serif" font-size="10.00">+chan_addr</text>
<text text-anchor="middle" x="563.5" y="-112" font-family="Helvetica,sans-Serif" font-size="10.00">+link_id</text>
<text text-anchor="middle" x="563.5" y="-101" font-family="Helvetica,sans-Serif" font-size="10.00">+data_path</text>
</g>
</g>
</svg>
