<?xml version="1.0" encoding="UTF-8" standalone="no"?>
<!DOCTYPE svg PUBLIC "-//W3C//DTD SVG 1.1//EN"
 "http://www.w3.org/Graphics/SVG/1.1/DTD/svg11.dtd">
<!-- Generated by graphviz version 2.38.0 (20140413.2041)
 -->
<!-- Title: Modules/TOF/src/TaskCompressedData.cxx Pages: 1 -->
<!--zoomable 341 -->
<svg id="main" version="1.1" xmlns="http://www.w3.org/2000/svg" xmlns:xlink="http://www.w3.org/1999/xlink" xml:space="preserve" onload="init(evt)">
<style type="text/css"><![CDATA[
.edge:hover path { stroke: red; }
.edge:hover polygon { stroke: red; fill: red; }
]]></style>
<script type="text/javascript"><![CDATA[
var edges = document.getElementsByTagName('g');
if (edges && edges.length) {
  for (var i=0;i<edges.length;i++) {
    if (edges[i].id.substr(0,4)=='edge') {
      edges[i].setAttribute('class','edge');
    }
  }
}
]]></script>
        <defs>
                <circle id="rim" cx="0" cy="0" r="7"/>
                <circle id="rim2" cx="0" cy="0" r="3.5"/>
                <g id="zoomPlus">
                        <use xlink:href="#rim" fill="#404040">
                                <set attributeName="fill" to="#808080" begin="zoomplus.mouseover" end="zoomplus.mouseout"/>
                        </use>
                        <path d="M-4,0h8M0,-4v8" fill="none" stroke="white" stroke-width="1.5" pointer-events="none"/>
                </g>
                <g id="zoomMin">
                        <use xlink:href="#rim" fill="#404040">
                                <set attributeName="fill" to="#808080" begin="zoomminus.mouseover" end="zoomminus.mouseout"/>
                        </use>
                        <path d="M-4,0h8" fill="none" stroke="white" stroke-width="1.5" pointer-events="none"/>
                </g>
                <g id="dirArrow">
                        <path fill="none" stroke="white" stroke-width="1.5" d="M0,-3.0v7 M-2.5,-0.5L0,-3.0L2.5,-0.5"/>
                </g>
               <g id="resetDef">
                       <use xlink:href="#rim2" fill="#404040">
                               <set attributeName="fill" to="#808080" begin="reset.mouseover" end="reset.mouseout"/>
                       </use>
               </g>
        </defs>

<script type="text/javascript">
var viewWidth = 2204;
var viewHeight = 341;
var sectionId = 'dynsection-0';
</script>
<script xlink:href="svgpan.js"/>
<svg id="graph" class="graph">
<g id="viewport">
<title>Modules/TOF/src/TaskCompressedData.cxx</title>
<!-- Node1 -->
<g id="node1" class="node"><title>Node1</title>
<polygon fill="#bfbfbf" stroke="black" points="372.5,-302.5 372.5,-332.5 545.5,-332.5 545.5,-302.5 372.5,-302.5"/>
<text text-anchor="start" x="380.5" y="-320.5" font-family="Helvetica,sans-Serif" font-size="10.00">Modules/TOF/src/TaskCompressed</text>
<text text-anchor="middle" x="459" y="-309.5" font-family="Helvetica,sans-Serif" font-size="10.00">Data.cxx</text>
</g>
<!-- Node2 -->
<g id="node2" class="node"><title>Node2</title>
<polygon fill="none" stroke="#bfbfbf" points="0,-246.5 0,-265.5 44,-265.5 44,-246.5 0,-246.5"/>
<text text-anchor="middle" x="22" y="-253.5" font-family="Helvetica,sans-Serif" font-size="10.00">TH1.h</text>
</g>
<!-- Node1&#45;&gt;Node2 -->
<g id="edge1" class="edge"><title>Node1&#45;&gt;Node2</title>
<path fill="none" stroke="midnightblue" d="M372.416,-309.743C292.112,-302.561 169.247,-289.245 54.2764,-265.977"/>
<polygon fill="midnightblue" stroke="midnightblue" points="54.7447,-262.5 44.245,-263.917 53.3366,-269.357 54.7447,-262.5"/>
</g>
<!-- Node3 -->
<g id="node3" class="node"><title>Node3</title>
<polygon fill="none" stroke="#bfbfbf" points="62,-246.5 62,-265.5 112,-265.5 112,-246.5 62,-246.5"/>
<text text-anchor="middle" x="87" y="-253.5" font-family="Helvetica,sans-Serif" font-size="10.00">TH1F.h</text>
</g>
<!-- Node1&#45;&gt;Node3 -->
<g id="edge2" class="edge"><title>Node1&#45;&gt;Node3</title>
<path fill="none" stroke="midnightblue" d="M372.404,-306.24C306.253,-297.781 212.691,-284.486 122.07,-266.034"/>
<polygon fill="midnightblue" stroke="midnightblue" points="122.678,-262.585 112.178,-263.996 121.266,-269.442 122.678,-262.585"/>
</g>
<!-- Node4 -->
<g id="node4" class="node"><title>Node4</title>
<polygon fill="none" stroke="#bfbfbf" points="130,-246.5 130,-265.5 180,-265.5 180,-246.5 130,-246.5"/>
<text text-anchor="middle" x="155" y="-253.5" font-family="Helvetica,sans-Serif" font-size="10.00">TH2F.h</text>
</g>
<!-- Node1&#45;&gt;Node4 -->
<g id="edge3" class="edge"><title>Node1&#45;&gt;Node4</title>
<path fill="none" stroke="midnightblue" d="M381.152,-302.48C328.266,-292.755 256.787,-279.222 194,-266 192.738,-265.734 191.454,-265.46 190.157,-265.179"/>
<polygon fill="midnightblue" stroke="midnightblue" points="190.665,-261.706 180.144,-262.952 189.145,-268.54 190.665,-261.706"/>
</g>
<!-- Node5 -->
<g id="node5" class="node"><title>Node5</title>
<polygon fill="none" stroke="#bfbfbf" points="461,-179.5 461,-209.5 613,-209.5 613,-179.5 461,-179.5"/>
<text text-anchor="start" x="469" y="-197.5" font-family="Helvetica,sans-Serif" font-size="10.00">DataFormatsTOF/Compressed</text>
<text text-anchor="middle" x="537" y="-186.5" font-family="Helvetica,sans-Serif" font-size="10.00">DataFormat.h</text>
</g>
<!-- Node1&#45;&gt;Node5 -->
<g id="edge4" class="edge"><title>Node1&#45;&gt;Node5</title>
<path fill="none" stroke="midnightblue" d="M372.176,-316.06C289.087,-312.606 182.484,-298.355 227,-246 255.242,-212.785 369.16,-201.361 450.699,-197.465"/>
<polygon fill="midnightblue" stroke="midnightblue" points="451.14,-200.948 460.974,-197.005 450.827,-193.955 451.14,-200.948"/>
</g>
<!-- Node6 -->
<g id="node6" class="node"><title>Node6</title>
<polygon fill="none" stroke="#bfbfbf" points="236,-246.5 236,-265.5 370,-265.5 370,-246.5 236,-246.5"/>
<text text-anchor="middle" x="303" y="-253.5" font-family="Helvetica,sans-Serif" font-size="10.00">Framework/DataRefUtils.h</text>
</g>
<!-- Node1&#45;&gt;Node6 -->
<g id="edge5" class="edge"><title>Node1&#45;&gt;Node6</title>
<path fill="none" stroke="midnightblue" d="M422.03,-302.399C395.622,-292.327 360.443,-278.909 335.188,-269.277"/>
<polygon fill="midnightblue" stroke="midnightblue" points="336.29,-265.951 325.699,-265.658 333.796,-272.492 336.29,-265.951"/>
</g>
<!-- Node7 -->
<g id="node7" class="node"><title>Node7</title>
<polygon fill="none" stroke="#bfbfbf" points="388.5,-246.5 388.5,-265.5 529.5,-265.5 529.5,-246.5 388.5,-246.5"/>
<text text-anchor="middle" x="459" y="-253.5" font-family="Helvetica,sans-Serif" font-size="10.00">Headers/RAWDataHeader.h</text>
</g>
<!-- Node1&#45;&gt;Node7 -->
<g id="edge6" class="edge"><title>Node1&#45;&gt;Node7</title>
<path fill="none" stroke="midnightblue" d="M459,-302.399C459,-294.466 459,-284.458 459,-275.858"/>
<polygon fill="midnightblue" stroke="midnightblue" points="462.5,-275.658 459,-265.658 455.5,-275.658 462.5,-275.658"/>
</g>
<!-- Node8 -->
<g id="node8" class="node"><title>Node8</title>
<polygon fill="none" stroke="#bfbfbf" points="547.5,-246.5 547.5,-265.5 678.5,-265.5 678.5,-246.5 547.5,-246.5"/>
<text text-anchor="middle" x="613" y="-253.5" font-family="Helvetica,sans-Serif" font-size="10.00">DetectorsRaw/HBFUtils.h</text>
</g>
<!-- Node1&#45;&gt;Node8 -->
<g id="edge7" class="edge"><title>Node1&#45;&gt;Node8</title>
<path fill="none" stroke="midnightblue" d="M495.496,-302.399C521.565,-292.327 556.294,-278.909 581.224,-269.277"/>
<polygon fill="midnightblue" stroke="midnightblue" points="582.525,-272.527 590.592,-265.658 580.002,-265.997 582.525,-272.527"/>
</g>
<!-- Node9 -->
<g id="node9" class="node"><title>Node9</title>
<polygon fill="none" stroke="#bfbfbf" points="697,-246.5 697,-265.5 827,-265.5 827,-246.5 697,-246.5"/>
<text text-anchor="middle" x="762" y="-253.5" font-family="Helvetica,sans-Serif" font-size="10.00">Framework/InputRecord.h</text>
</g>
<!-- Node1&#45;&gt;Node9 -->
<g id="edge8" class="edge"><title>Node1&#45;&gt;Node9</title>
<path fill="none" stroke="midnightblue" d="M530.423,-302.475C585.094,-291.739 659.288,-277.17 708.812,-267.445"/>
<polygon fill="midnightblue" stroke="midnightblue" points="709.544,-270.868 718.682,-265.506 708.195,-263.999 709.544,-270.868"/>
</g>
<!-- Node10 -->
<g id="node10" class="node"><title>Node10</title>
<polygon fill="none" stroke="#bfbfbf" points="845.5,-246.5 845.5,-265.5 942.5,-265.5 942.5,-246.5 845.5,-246.5"/>
<text text-anchor="middle" x="894" y="-253.5" font-family="Helvetica,sans-Serif" font-size="10.00">fairlogger/Logger.h</text>
</g>
<!-- Node1&#45;&gt;Node10 -->
<g id="edge9" class="edge"><title>Node1&#45;&gt;Node10</title>
<path fill="none" stroke="midnightblue" d="M545.543,-305.427C619.612,-295.83 729.376,-281.324 835.063,-266.11"/>
<polygon fill="midnightblue" stroke="midnightblue" points="835.879,-269.529 845.277,-264.636 834.879,-262.6 835.879,-269.529"/>
</g>
<!-- Node11 -->
<g id="node11" class="node"><title>Node11</title>
<g id="a_node11"><a xlink:href="QcInfoLogger_8h.html" target="_top" xlink:title="QualityControl/QcInfoLogger.h">
<polygon fill="none" stroke="black" points="893.5,-123.5 893.5,-142.5 1042.5,-142.5 1042.5,-123.5 893.5,-123.5"/>
<text text-anchor="middle" x="968" y="-130.5" font-family="Helvetica,sans-Serif" font-size="10.00">QualityControl/QcInfoLogger.h</text>
</a>
</g>
</g>
<!-- Node1&#45;&gt;Node11 -->
<g id="edge10" class="edge"><title>Node1&#45;&gt;Node11</title>
<path fill="none" stroke="midnightblue" d="M545.519,-313.374C678.946,-307.709 922.597,-293.679 951,-266 981.386,-236.388 976.928,-181.343 971.978,-152.585"/>
<polygon fill="midnightblue" stroke="midnightblue" points="975.391,-151.801 970.061,-142.644 968.518,-153.126 975.391,-151.801"/>
</g>
<!-- Node14 -->
<g id="node14" class="node"><title>Node14</title>
<g id="a_node14"><a xlink:href="TaskCompressedData_8h.html" target="_top" xlink:title="Task To monitor data converted from TOF compressor, it implements a dedicated decoder from DecoderBas...">
<polygon fill="none" stroke="black" points="999,-246.5 999,-265.5 1145,-265.5 1145,-246.5 999,-246.5"/>
<text text-anchor="middle" x="1072" y="-253.5" font-family="Helvetica,sans-Serif" font-size="10.00">TOF/TaskCompressedData.h</text>
</a>
</g>
</g>
<!-- Node1&#45;&gt;Node14 -->
<g id="edge13" class="edge"><title>Node1&#45;&gt;Node14</title>
<path fill="none" stroke="midnightblue" d="M545.581,-308.385C649.843,-298.566 830.269,-281.431 985,-266 986.275,-265.873 987.56,-265.744 988.854,-265.615"/>
<polygon fill="midnightblue" stroke="midnightblue" points="989.304,-269.087 998.903,-264.601 988.602,-262.122 989.304,-269.087"/>
</g>
<!-- Node12 -->
<g id="node12" class="node"><title>Node12</title>
<polygon fill="none" stroke="#bfbfbf" points="736,-62 736,-81 866,-81 866,-62 736,-62"/>
<text text-anchor="middle" x="801" y="-69" font-family="Helvetica,sans-Serif" font-size="10.00">InfoLogger/InfoLogger.hxx</text>
</g>
<!-- Node11&#45;&gt;Node12 -->
<g id="edge11" class="edge"><title>Node11&#45;&gt;Node12</title>
<path fill="none" stroke="midnightblue" d="M944.073,-123.475C915.303,-113.225 866.844,-95.9593 834.398,-84.3994"/>
<polygon fill="midnightblue" stroke="midnightblue" points="835.477,-81.0684 824.883,-81.0091 833.128,-87.6624 835.477,-81.0684"/>
</g>
<!-- Node13 -->
<g id="node13" class="node"><title>Node13</title>
<polygon fill="none" stroke="#bfbfbf" points="884,-62 884,-81 1046,-81 1046,-62 884,-62"/>
<text text-anchor="middle" x="965" y="-69" font-family="Helvetica,sans-Serif" font-size="10.00">InfoLogger/InfoLoggerMacros.hxx</text>
</g>
<!-- Node11&#45;&gt;Node13 -->
<g id="edge12" class="edge"><title>Node11&#45;&gt;Node13</title>
<path fill="none" stroke="midnightblue" d="M967.57,-123.475C967.147,-115.08 966.486,-101.981 965.941,-91.1631"/>
<polygon fill="midnightblue" stroke="midnightblue" points="969.428,-90.8201 965.429,-81.0091 962.437,-91.1727 969.428,-90.8201"/>
</g>
<!-- Node14&#45;&gt;Node5 -->
<g id="edge15" class="edge"><title>Node14&#45;&gt;Node5</title>
<path fill="none" stroke="midnightblue" d="M998.732,-246.852C900.829,-235.963 727.613,-216.699 623.439,-205.113"/>
<polygon fill="midnightblue" stroke="midnightblue" points="623.593,-201.609 613.267,-203.982 622.819,-208.566 623.593,-201.609"/>
</g>
<!-- Node15 -->
<g id="node15" class="node"><title>Node15</title>
<polygon fill="none" stroke="#bfbfbf" points="1001,-179.5 1001,-209.5 1143,-209.5 1143,-179.5 1001,-179.5"/>
<text text-anchor="start" x="1009" y="-197.5" font-family="Helvetica,sans-Serif" font-size="10.00">TOFReconstruction/Decoder</text>
<text text-anchor="middle" x="1072" y="-186.5" font-family="Helvetica,sans-Serif" font-size="10.00">Base.h</text>
</g>
<!-- Node14&#45;&gt;Node15 -->
<g id="edge14" class="edge"><title>Node14&#45;&gt;Node15</title>
<path fill="none" stroke="midnightblue" d="M1072,-246.475C1072,-239.471 1072,-229.192 1072,-219.696"/>
<polygon fill="midnightblue" stroke="midnightblue" points="1075.5,-219.523 1072,-209.523 1068.5,-219.523 1075.5,-219.523"/>
</g>
<!-- Node16 -->
<g id="node16" class="node"><title>Node16</title>
<g id="a_node16"><a xlink:href="TaskInterface_8h.html" target="_top" xlink:title="QualityControl/TaskInterface.h">
<polygon fill="none" stroke="black" points="1166,-185 1166,-204 1316,-204 1316,-185 1166,-185"/>
<text text-anchor="middle" x="1241" y="-192" font-family="Helvetica,sans-Serif" font-size="10.00">QualityControl/TaskInterface.h</text>
</a>
</g>
</g>
<!-- Node14&#45;&gt;Node16 -->
<g id="edge16" class="edge"><title>Node14&#45;&gt;Node16</title>
<path fill="none" stroke="midnightblue" d="M1096.21,-246.475C1125.33,-236.225 1174.37,-218.959 1207.2,-207.399"/>
<polygon fill="midnightblue" stroke="midnightblue" points="1208.56,-210.631 1216.83,-204.009 1206.24,-204.029 1208.56,-210.631"/>
</g>
<!-- Node16&#45;&gt;Node11 -->
<g id="edge40" class="edge"><title>Node16&#45;&gt;Node11</title>
<path fill="none" stroke="midnightblue" d="M1201.89,-184.975C1153.13,-174.349 1069.79,-156.185 1016.88,-144.652"/>
<polygon fill="midnightblue" stroke="midnightblue" points="1017.56,-141.219 1007.04,-142.509 1016.07,-148.058 1017.56,-141.219"/>
</g>
<!-- Node17 -->
<g id="node17" class="node"><title>Node17</title>
<polygon fill="none" stroke="#bfbfbf" points="1926.5,-0.5 1926.5,-19.5 1961.5,-19.5 1961.5,-0.5 1926.5,-0.5"/>
<text text-anchor="middle" x="1944" y="-7.5" font-family="Helvetica,sans-Serif" font-size="10.00">map</text>
</g>
<!-- Node16&#45;&gt;Node17 -->
<g id="edge17" class="edge"><title>Node16&#45;&gt;Node17</title>
<path fill="none" stroke="midnightblue" d="M1316.09,-193.161C1484.54,-191.671 1881.25,-183.819 1925,-143 1956.09,-113.997 1952.35,-58.6869 1947.76,-29.7313"/>
<polygon fill="midnightblue" stroke="midnightblue" points="1951.17,-28.9417 1945.96,-19.7166 1944.28,-30.1775 1951.17,-28.9417"/>
</g>
<!-- Node18 -->
<g id="node18" class="node"><title>Node18</title>
<polygon fill="none" stroke="#bfbfbf" points="1301,-62 1301,-81 1353,-81 1353,-62 1301,-62"/>
<text text-anchor="middle" x="1327" y="-69" font-family="Helvetica,sans-Serif" font-size="10.00">memory</text>
</g>
<!-- Node16&#45;&gt;Node18 -->
<g id="edge18" class="edge"><title>Node16&#45;&gt;Node18</title>
<path fill="none" stroke="midnightblue" d="M1219.91,-184.858C1192.62,-172.409 1150.64,-148.149 1169,-123 1196.67,-85.1101 1253.11,-74.9937 1290.5,-72.6463"/>
<polygon fill="midnightblue" stroke="midnightblue" points="1291.14,-76.1203 1300.97,-72.159 1290.81,-69.1278 1291.14,-76.1203"/>
</g>
<!-- Node19 -->
<g id="node19" class="node"><title>Node19</title>
<polygon fill="none" stroke="#bfbfbf" points="1581.5,-0.5 1581.5,-19.5 1622.5,-19.5 1622.5,-0.5 1581.5,-0.5"/>
<text text-anchor="middle" x="1602" y="-7.5" font-family="Helvetica,sans-Serif" font-size="10.00">string</text>
</g>
<!-- Node16&#45;&gt;Node19 -->
<g id="edge19" class="edge"><title>Node16&#45;&gt;Node19</title>
<path fill="none" stroke="midnightblue" d="M1216.71,-184.992C1187.44,-173.303 1144.14,-150.557 1161,-123 1195.13,-67.2153 1229.69,-75.8535 1292,-56 1390.82,-24.5132 1514.44,-14.9658 1571.08,-12.1439"/>
<polygon fill="midnightblue" stroke="midnightblue" points="1571.34,-15.6356 1581.17,-11.678 1571.01,-8.64306 1571.34,-15.6356"/>
</g>
<!-- Node20 -->
<g id="node20" class="node"><title>Node20</title>
<polygon fill="none" stroke="#bfbfbf" points="1256.5,-0.5 1256.5,-19.5 1339.5,-19.5 1339.5,-0.5 1256.5,-0.5"/>
<text text-anchor="middle" x="1298" y="-7.5" font-family="Helvetica,sans-Serif" font-size="10.00">unordered_map</text>
</g>
<!-- Node16&#45;&gt;Node20 -->
<g id="edge20" class="edge"><title>Node16&#45;&gt;Node20</title>
<path fill="none" stroke="midnightblue" d="M1201.59,-184.947C1163.64,-175.816 1110.24,-160.303 1098,-143 1075.67,-111.433 1073.85,-86.1936 1098,-56 1116.24,-33.2024 1193.24,-21.1433 1246.2,-15.422"/>
<polygon fill="midnightblue" stroke="midnightblue" points="1246.86,-18.8724 1256.45,-14.3609 1246.14,-11.9097 1246.86,-18.8724"/>
</g>
<!-- Node21 -->
<g id="node21" class="node"><title>Node21</title>
<polygon fill="none" stroke="#bfbfbf" points="1178.5,-123.5 1178.5,-142.5 1303.5,-142.5 1303.5,-123.5 1178.5,-123.5"/>
<text text-anchor="middle" x="1241" y="-130.5" font-family="Helvetica,sans-Serif" font-size="10.00">Framework/InitContext.h</text>
</g>
<!-- Node16&#45;&gt;Node21 -->
<g id="edge21" class="edge"><title>Node16&#45;&gt;Node21</title>
<path fill="none" stroke="midnightblue" d="M1241,-184.975C1241,-176.58 1241,-163.481 1241,-152.663"/>
<polygon fill="midnightblue" stroke="midnightblue" points="1244.5,-152.509 1241,-142.509 1237.5,-152.509 1244.5,-152.509"/>
</g>
<!-- Node22 -->
<g id="node22" class="node"><title>Node22</title>
<polygon fill="none" stroke="#bfbfbf" points="1322,-123.5 1322,-142.5 1482,-142.5 1482,-123.5 1322,-123.5"/>
<text text-anchor="middle" x="1402" y="-130.5" font-family="Helvetica,sans-Serif" font-size="10.00">Framework/ProcessingContext.h</text>
</g>
<!-- Node16&#45;&gt;Node22 -->
<g id="edge22" class="edge"><title>Node16&#45;&gt;Node22</title>
<path fill="none" stroke="midnightblue" d="M1264.07,-184.975C1291.68,-174.769 1338.12,-157.608 1369.4,-146.049"/>
<polygon fill="midnightblue" stroke="midnightblue" points="1370.81,-149.259 1378.98,-142.509 1368.38,-142.693 1370.81,-149.259"/>
</g>
<!-- Node23 -->
<g id="node23" class="node"><title>Node23</title>
<polygon fill="none" stroke="#bfbfbf" points="1500.5,-123.5 1500.5,-142.5 1595.5,-142.5 1595.5,-123.5 1500.5,-123.5"/>
<text text-anchor="middle" x="1548" y="-130.5" font-family="Helvetica,sans-Serif" font-size="10.00">CCDB/CcdbApi.h</text>
</g>
<!-- Node16&#45;&gt;Node23 -->
<g id="edge23" class="edge"><title>Node16&#45;&gt;Node23</title>
<path fill="none" stroke="midnightblue" d="M1284.99,-184.975C1340.15,-174.283 1434.7,-155.958 1494.15,-144.437"/>
<polygon fill="midnightblue" stroke="midnightblue" points="1494.94,-147.848 1504.1,-142.509 1493.61,-140.976 1494.94,-147.848"/>
</g>
<!-- Node24 -->
<g id="node24" class="node"><title>Node24</title>
<g id="a_node24"><a xlink:href="Activity_8h.html" target="_top" xlink:title="QualityControl/Activity.h">
<polygon fill="none" stroke="black" points="1613.5,-123.5 1613.5,-142.5 1736.5,-142.5 1736.5,-123.5 1613.5,-123.5"/>
<text text-anchor="middle" x="1675" y="-130.5" font-family="Helvetica,sans-Serif" font-size="10.00">QualityControl/Activity.h</text>
</a>
</g>
</g>
<!-- Node16&#45;&gt;Node24 -->
<g id="edge24" class="edge"><title>Node16&#45;&gt;Node24</title>
<path fill="none" stroke="midnightblue" d="M1303.18,-184.975C1382.57,-174.091 1519.66,-155.297 1603.35,-143.823"/>
<polygon fill="midnightblue" stroke="midnightblue" points="1603.85,-147.287 1613.28,-142.461 1602.9,-140.352 1603.85,-147.287"/>
</g>
<!-- Node25 -->
<g id="node25" class="node"><title>Node25</title>
<g id="a_node25"><a xlink:href="ObjectsManager_8h.html" target="_top" xlink:title="QualityControl/ObjectsManager.h">
<polygon fill="none" stroke="black" points="1754.5,-123.5 1754.5,-142.5 1915.5,-142.5 1915.5,-123.5 1754.5,-123.5"/>
<text text-anchor="middle" x="1835" y="-130.5" font-family="Helvetica,sans-Serif" font-size="10.00">QualityControl/ObjectsManager.h</text>
</a>
</g>
</g>
<!-- Node16&#45;&gt;Node25 -->
<g id="edge25" class="edge"><title>Node16&#45;&gt;Node25</title>
<path fill="none" stroke="midnightblue" d="M1316.29,-185.997C1412.86,-176.368 1585.82,-159.102 1744.07,-143.193"/>
<polygon fill="midnightblue" stroke="midnightblue" points="1744.87,-146.63 1754.47,-142.148 1744.17,-139.666 1744.87,-146.63"/>
</g>
<!-- Node25&#45;&gt;Node18 -->
<g id="edge39" class="edge"><title>Node25&#45;&gt;Node18</title>
<path fill="none" stroke="midnightblue" d="M1762.22,-123.475C1651.85,-110.548 1446.23,-86.4647 1363.18,-76.7376"/>
<polygon fill="midnightblue" stroke="midnightblue" points="1363.55,-73.2574 1353.21,-75.5703 1362.74,-80.2099 1363.55,-73.2574"/>
</g>
<!-- Node25&#45;&gt;Node19 -->
<g id="edge38" class="edge"><title>Node25&#45;&gt;Node19</title>
<path fill="none" stroke="midnightblue" d="M1816.91,-123.413C1798.29,-114.508 1768.46,-100.083 1743,-87 1701.85,-65.8543 1654.63,-40.0918 1626.61,-24.6459"/>
<polygon fill="midnightblue" stroke="midnightblue" points="1627.99,-21.4088 1617.54,-19.6373 1624.6,-27.5361 1627.99,-21.4088"/>
</g>
<!-- Node26 -->
<g id="node26" class="node"><title>Node26</title>
<g id="a_node26"><a xlink:href="MonitorObject_8h.html" target="_top" xlink:title="QualityControl/MonitorObject.h">
<polygon fill="none" stroke="black" points="1751.5,-62 1751.5,-81 1902.5,-81 1902.5,-62 1751.5,-62"/>
<text text-anchor="middle" x="1827" y="-69" font-family="Helvetica,sans-Serif" font-size="10.00">QualityControl/MonitorObject.h</text>
</a>
</g>
</g>
<!-- Node25&#45;&gt;Node26 -->
<g id="edge26" class="edge"><title>Node25&#45;&gt;Node26</title>
<path fill="none" stroke="midnightblue" d="M1833.85,-123.475C1832.73,-115.08 1830.96,-101.981 1829.51,-91.1631"/>
<polygon fill="midnightblue" stroke="midnightblue" points="1832.95,-90.4535 1828.14,-81.0091 1826.01,-91.3863 1832.95,-90.4535"/>
</g>
<!-- Node30 -->
<g id="node30" class="node"><title>Node30</title>
<g id="a_node30"><a xlink:href="MonitorObjectCollection_8h.html" target="_top" xlink:title="QualityControl/MonitorObject\lCollection.h">
<polygon fill="none" stroke="black" points="1972.5,-56.5 1972.5,-86.5 2115.5,-86.5 2115.5,-56.5 1972.5,-56.5"/>
<text text-anchor="start" x="1980.5" y="-74.5" font-family="Helvetica,sans-Serif" font-size="10.00">QualityControl/MonitorObject</text>
<text text-anchor="middle" x="2044" y="-63.5" font-family="Helvetica,sans-Serif" font-size="10.00">Collection.h</text>
</a>
</g>
</g>
<!-- Node25&#45;&gt;Node30 -->
<g id="edge32" class="edge"><title>Node25&#45;&gt;Node30</title>
<path fill="none" stroke="midnightblue" d="M1864.94,-123.475C1896.16,-114.588 1945.9,-100.429 1985.04,-89.2859"/>
<polygon fill="midnightblue" stroke="midnightblue" points="1986.08,-92.6274 1994.74,-86.523 1984.17,-85.8949 1986.08,-92.6274"/>
</g>
<!-- Node33 -->
<g id="node33" class="node"><title>Node33</title>
<g id="a_node33"><a xlink:href="TaskConfig_8h.html" target="_top" xlink:title="QualityControl/TaskConfig.h">
<polygon fill="none" stroke="black" points="1532,-62 1532,-81 1672,-81 1672,-62 1532,-62"/>
<text text-anchor="middle" x="1602" y="-69" font-family="Helvetica,sans-Serif" font-size="10.00">QualityControl/TaskConfig.h</text>
</a>
</g>
</g>
<!-- Node25&#45;&gt;Node33 -->
<g id="edge35" class="edge"><title>Node25&#45;&gt;Node33</title>
<path fill="none" stroke="midnightblue" d="M1801.62,-123.475C1760.44,-112.959 1690.35,-95.0615 1645.13,-83.5142"/>
<polygon fill="midnightblue" stroke="midnightblue" points="1645.88,-80.0922 1635.32,-81.0091 1644.14,-86.8746 1645.88,-80.0922"/>
</g>
<!-- Node26&#45;&gt;Node17 -->
<g id="edge28" class="edge"><title>Node26&#45;&gt;Node17</title>
<path fill="none" stroke="midnightblue" d="M1843.76,-61.9751C1863.22,-52.078 1895.55,-35.6416 1918.21,-24.1151"/>
<polygon fill="midnightblue" stroke="midnightblue" points="1919.94,-27.1619 1927.27,-19.5091 1916.77,-20.9224 1919.94,-27.1619"/>
</g>
<!-- Node26&#45;&gt;Node19 -->
<g id="edge27" class="edge"><title>Node26&#45;&gt;Node19</title>
<path fill="none" stroke="midnightblue" d="M1792.37,-61.9556C1755.29,-52.7114 1694.48,-37.2882 1632.57,-20.0774"/>
<polygon fill="midnightblue" stroke="midnightblue" points="1633.2,-16.6194 1622.63,-17.3005 1631.32,-23.3614 1633.2,-16.6194"/>
</g>
<!-- Node27 -->
<g id="node27" class="node"><title>Node27</title>
<polygon fill="none" stroke="#bfbfbf" points="1852,-0.5 1852,-19.5 1908,-19.5 1908,-0.5 1852,-0.5"/>
<text text-anchor="middle" x="1880" y="-7.5" font-family="Helvetica,sans-Serif" font-size="10.00">Rtypes.h</text>
</g>
<!-- Node26&#45;&gt;Node27 -->
<g id="edge29" class="edge"><title>Node26&#45;&gt;Node27</title>
<path fill="none" stroke="midnightblue" d="M1834.59,-61.9751C1842.7,-52.8733 1855.73,-38.241 1865.76,-26.983"/>
<polygon fill="midnightblue" stroke="midnightblue" points="1868.38,-29.3043 1872.42,-19.5091 1863.16,-24.6483 1868.38,-29.3043"/>
</g>
<!-- Node28 -->
<g id="node28" class="node"><title>Node28</title>
<polygon fill="none" stroke="#bfbfbf" points="1640.5,-0.5 1640.5,-19.5 1699.5,-19.5 1699.5,-0.5 1640.5,-0.5"/>
<text text-anchor="middle" x="1670" y="-7.5" font-family="Helvetica,sans-Serif" font-size="10.00">TObject.h</text>
</g>
<!-- Node26&#45;&gt;Node28 -->
<g id="edge30" class="edge"><title>Node26&#45;&gt;Node28</title>
<path fill="none" stroke="midnightblue" d="M1804.51,-61.9751C1777.69,-51.8129 1732.68,-34.7564 1702.19,-23.1996"/>
<polygon fill="midnightblue" stroke="midnightblue" points="1703.04,-19.7801 1692.45,-19.5091 1700.56,-26.3258 1703.04,-19.7801"/>
</g>
<!-- Node29 -->
<g id="node29" class="node"><title>Node29</title>
<polygon fill="none" stroke="#bfbfbf" points="1718,-0.5 1718,-19.5 1834,-19.5 1834,-0.5 1718,-0.5"/>
<text text-anchor="middle" x="1776" y="-7.5" font-family="Helvetica,sans-Serif" font-size="10.00">Common/Exceptions.h</text>
</g>
<!-- Node26&#45;&gt;Node29 -->
<g id="edge31" class="edge"><title>Node26&#45;&gt;Node29</title>
<path fill="none" stroke="midnightblue" d="M1819.69,-61.9751C1811.97,-52.9617 1799.59,-38.5246 1789.98,-27.3118"/>
<polygon fill="midnightblue" stroke="midnightblue" points="1792.46,-24.8239 1783.29,-19.5091 1787.14,-29.3795 1792.46,-24.8239"/>
</g>
<!-- Node31 -->
<g id="node31" class="node"><title>Node31</title>
<polygon fill="none" stroke="#bfbfbf" points="2126.5,-0.5 2126.5,-19.5 2195.5,-19.5 2195.5,-0.5 2126.5,-0.5"/>
<text text-anchor="middle" x="2161" y="-7.5" font-family="Helvetica,sans-Serif" font-size="10.00">TObjArray.h</text>
</g>
<!-- Node30&#45;&gt;Node31 -->
<g id="edge33" class="edge"><title>Node30&#45;&gt;Node31</title>
<path fill="none" stroke="midnightblue" d="M2071.73,-56.3993C2090.83,-46.6837 2116.06,-33.8551 2134.82,-24.3137"/>
<polygon fill="midnightblue" stroke="midnightblue" points="2136.65,-27.3106 2143.98,-19.6578 2133.48,-21.071 2136.65,-27.3106"/>
</g>
<!-- Node32 -->
<g id="node32" class="node"><title>Node32</title>
<polygon fill="none" stroke="#bfbfbf" points="1980,-0.5 1980,-19.5 2108,-19.5 2108,-0.5 1980,-0.5"/>
<text text-anchor="middle" x="2044" y="-7.5" font-family="Helvetica,sans-Serif" font-size="10.00">Mergers/MergeInterface.h</text>
</g>
<!-- Node30&#45;&gt;Node32 -->
<g id="edge34" class="edge"><title>Node30&#45;&gt;Node32</title>
<path fill="none" stroke="midnightblue" d="M2044,-56.3993C2044,-48.4664 2044,-38.458 2044,-29.8583"/>
<polygon fill="midnightblue" stroke="midnightblue" points="2047.5,-29.6577 2044,-19.6578 2040.5,-29.6578 2047.5,-29.6577"/>
</g>
<!-- Node33&#45;&gt;Node19 -->
<g id="edge36" class="edge"><title>Node33&#45;&gt;Node19</title>
<path fill="none" stroke="midnightblue" d="M1602,-61.9751C1602,-53.5803 1602,-40.4806 1602,-29.6631"/>
<polygon fill="midnightblue" stroke="midnightblue" points="1605.5,-29.5091 1602,-19.5091 1598.5,-29.5091 1605.5,-29.5091"/>
</g>
<!-- Node33&#45;&gt;Node20 -->
<g id="edge37" class="edge"><title>Node33&#45;&gt;Node20</title>
<path fill="none" stroke="midnightblue" d="M1558.44,-61.9751C1503.31,-51.1836 1408.45,-32.6173 1349.7,-21.1186"/>
<polygon fill="midnightblue" stroke="midnightblue" points="1350.01,-17.6131 1339.52,-19.1271 1348.66,-24.4828 1350.01,-17.6131"/>
</g>
</g>
</svg>
        <g id="navigator" transform="translate(0 0)" fill="#404254">
                <rect fill="#f2f5e9" fill-opacity="0.5" stroke="#606060" stroke-width=".5" x="0" y="0" width="60" height="60"/>
                <use id="zoomplus" xlink:href="#zoomPlus" x="17" y="9" onmousedown="handleZoom(evt,'in')"/>
                <use id="zoomminus" xlink:href="#zoomMin" x="42" y="9" onmousedown="handleZoom(evt,'out')"/>
                <use id="reset" xlink:href="#resetDef" x="30" y="36" onmousedown="handleReset()"/>
                <g id="arrowUp" xlink:href="#dirArrow" transform="translate(30 24)" onmousedown="handlePan(0,-1)">
                  <use xlink:href="#rim" fill="#404040">
                        <set attributeName="fill" to="#808080" begin="arrowUp.mouseover" end="arrowUp.mouseout"/>
                  </use>
                  <path fill="none" stroke="white" stroke-width="1.5" d="M0,-3.0v7 M-2.5,-0.5L0,-3.0L2.5,-0.5"/>
                </g>
                <g id="arrowRight" xlink:href="#dirArrow" transform="rotate(90) translate(36 -43)" onmousedown="handlePan(1,0)">
                  <use xlink:href="#rim" fill="#404040">
                        <set attributeName="fill" to="#808080" begin="arrowRight.mouseover" end="arrowRight.mouseout"/>
                  </use>
                  <path fill="none" stroke="white" stroke-width="1.5" d="M0,-3.0v7 M-2.5,-0.5L0,-3.0L2.5,-0.5"/>
                </g>
                <g id="arrowDown" xlink:href="#dirArrow" transform="rotate(180) translate(-30 -48)" onmousedown="handlePan(0,1)">
                  <use xlink:href="#rim" fill="#404040">
                        <set attributeName="fill" to="#808080" begin="arrowDown.mouseover" end="arrowDown.mouseout"/>
                  </use>
                  <path fill="none" stroke="white" stroke-width="1.5" d="M0,-3.0v7 M-2.5,-0.5L0,-3.0L2.5,-0.5"/>
                </g>
                <g id="arrowLeft" xlink:href="#dirArrow" transform="rotate(270) translate(-36 17)" onmousedown="handlePan(-1,0)">
                  <use xlink:href="#rim" fill="#404040">
                        <set attributeName="fill" to="#808080" begin="arrowLeft.mouseover" end="arrowLeft.mouseout"/>
                  </use>
                  <path fill="none" stroke="white" stroke-width="1.5" d="M0,-3.0v7 M-2.5,-0.5L0,-3.0L2.5,-0.5"/>
                </g>
        </g>
        <svg viewBox="0 0 15 15" width="100%" height="30px" preserveAspectRatio="xMaxYMin meet">
         <g id="arrow_out" transform="scale(0.3 0.3)">
          <a xlink:href="TaskCompressedData_8cxx__incl_org.svg" target="_base">
           <rect id="button" ry="5" rx="5" y="6" x="6" height="38" width="38"
                fill="#f2f5e9" fill-opacity="0.5" stroke="#606060" stroke-width="1.0"/>
           <path id="arrow"
             d="M 11.500037,31.436501 C 11.940474,20.09759 22.043105,11.32322 32.158766,21.979434 L 37.068811,17.246167 C 37.068811,17.246167 37.088388,32 37.088388,32 L 22.160133,31.978069 C 22.160133,31.978069 26.997745,27.140456 26.997745,27.140456 C 18.528582,18.264221 13.291696,25.230495 11.500037,31.436501 z"
             style="fill:#404040;"/>
          </a>
         </g>
        </svg>
</svg>
