<?xml version="1.0" encoding="UTF-8" standalone="no"?>
<!DOCTYPE svg PUBLIC "-//W3C//DTD SVG 1.1//EN"
 "http://www.w3.org/Graphics/SVG/1.1/DTD/svg11.dtd">
<!-- Generated by graphviz version 2.38.0 (20140413.2041)
 -->
<!-- Title: Modules/TOF/include/TOF/TaskCompressedData.h Pages: 1 -->
<svg width="1632pt" height="285pt"
 viewBox="0.00 0.00 1631.50 285.00" xmlns="http://www.w3.org/2000/svg" xmlns:xlink="http://www.w3.org/1999/xlink">
<g id="graph0" class="graph" transform="scale(1 1) rotate(0) translate(4 281)">
<title>Modules/TOF/include/TOF/TaskCompressedData.h</title>
<!-- Node1 -->
<g id="node1" class="node"><title>Node1</title>
<polygon fill="#bfbfbf" stroke="black" points="584,-246.5 584,-276.5 733,-276.5 733,-246.5 584,-246.5"/>
<text text-anchor="start" x="592" y="-264.5" font-family="Helvetica,sans-Serif" font-size="10.00">Modules/TOF/include</text>
<text text-anchor="middle" x="658.5" y="-253.5" font-family="Helvetica,sans-Serif" font-size="10.00">/TOF/TaskCompressedData.h</text>
</g>
<!-- Node2 -->
<g id="node2" class="node"><title>Node2</title>
<polygon fill="none" stroke="#bfbfbf" points="422.5,-179.5 422.5,-209.5 564.5,-209.5 564.5,-179.5 422.5,-179.5"/>
<text text-anchor="start" x="430.5" y="-197.5" font-family="Helvetica,sans-Serif" font-size="10.00">TOFReconstruction/Decoder</text>
<text text-anchor="middle" x="493.5" y="-186.5" font-family="Helvetica,sans-Serif" font-size="10.00">Base.h</text>
</g>
<!-- Node1&#45;&gt;Node2 -->
<g id="edge1" class="edge"><title>Node1&#45;&gt;Node2</title>
<path fill="none" stroke="midnightblue" d="M622.697,-246.396C598.048,-236.686 565.107,-223.709 538.657,-213.289"/>
<polygon fill="midnightblue" stroke="midnightblue" points="539.82,-209.985 529.233,-209.577 537.254,-216.498 539.82,-209.985"/>
</g>
<!-- Node3 -->
<g id="node3" class="node"><title>Node3</title>
<polygon fill="none" stroke="#bfbfbf" points="582.5,-179.5 582.5,-209.5 734.5,-209.5 734.5,-179.5 582.5,-179.5"/>
<text text-anchor="start" x="590.5" y="-197.5" font-family="Helvetica,sans-Serif" font-size="10.00">DataFormatsTOF/Compressed</text>
<text text-anchor="middle" x="658.5" y="-186.5" font-family="Helvetica,sans-Serif" font-size="10.00">DataFormat.h</text>
</g>
<!-- Node1&#45;&gt;Node3 -->
<g id="edge2" class="edge"><title>Node1&#45;&gt;Node3</title>
<path fill="none" stroke="midnightblue" d="M658.5,-246.396C658.5,-238.645 658.5,-228.812 658.5,-219.86"/>
<polygon fill="midnightblue" stroke="midnightblue" points="662,-219.576 658.5,-209.577 655,-219.577 662,-219.576"/>
</g>
<!-- Node4 -->
<g id="node4" class="node"><title>Node4</title>
<g id="a_node4"><a xlink:href="TaskInterface_8h.html" target="_top" xlink:title="QualityControl/TaskInterface.h">
<polygon fill="none" stroke="black" points="752.5,-185 752.5,-204 902.5,-204 902.5,-185 752.5,-185"/>
<text text-anchor="middle" x="827.5" y="-192" font-family="Helvetica,sans-Serif" font-size="10.00">QualityControl/TaskInterface.h</text>
</a>
</g>
</g>
<!-- Node1&#45;&gt;Node4 -->
<g id="edge3" class="edge"><title>Node1&#45;&gt;Node4</title>
<path fill="none" stroke="midnightblue" d="M695.17,-246.396C725.217,-234.84 767.294,-218.656 795.876,-207.663"/>
<polygon fill="midnightblue" stroke="midnightblue" points="797.305,-210.864 805.382,-204.007 794.792,-204.33 797.305,-210.864"/>
</g>
<!-- Node5 -->
<g id="node5" class="node"><title>Node5</title>
<polygon fill="none" stroke="#bfbfbf" points="0,-0.5 0,-19.5 35,-19.5 35,-0.5 0,-0.5"/>
<text text-anchor="middle" x="17.5" y="-7.5" font-family="Helvetica,sans-Serif" font-size="10.00">map</text>
</g>
<!-- Node4&#45;&gt;Node5 -->
<g id="edge4" class="edge"><title>Node4&#45;&gt;Node5</title>
<path fill="none" stroke="midnightblue" d="M781.376,-184.941C769.094,-182.826 755.816,-180.685 743.5,-179 470.548,-141.648 383.935,-195.02 130.5,-87 93.7982,-71.3568 56.3821,-43.3136 35.1409,-26.0153"/>
<polygon fill="midnightblue" stroke="midnightblue" points="37.2591,-23.225 27.3265,-19.5378 32.7918,-28.6142 37.2591,-23.225"/>
</g>
<!-- Node6 -->
<g id="node6" class="node"><title>Node6</title>
<polygon fill="none" stroke="#bfbfbf" points="705.5,-62 705.5,-81 757.5,-81 757.5,-62 705.5,-62"/>
<text text-anchor="middle" x="731.5" y="-69" font-family="Helvetica,sans-Serif" font-size="10.00">memory</text>
</g>
<!-- Node4&#45;&gt;Node6 -->
<g id="edge5" class="edge"><title>Node4&#45;&gt;Node6</title>
<path fill="none" stroke="midnightblue" d="M814.234,-184.716C801.104,-175.516 781.056,-160.053 767.5,-143 754.838,-127.071 744.78,-105.985 738.55,-91.0353"/>
<polygon fill="midnightblue" stroke="midnightblue" points="741.661,-89.3888 734.707,-81.3957 735.159,-91.9809 741.661,-89.3888"/>
</g>
<!-- Node7 -->
<g id="node7" class="node"><title>Node7</title>
<polygon fill="none" stroke="#bfbfbf" points="339,-0.5 339,-19.5 380,-19.5 380,-0.5 339,-0.5"/>
<text text-anchor="middle" x="359.5" y="-7.5" font-family="Helvetica,sans-Serif" font-size="10.00">string</text>
</g>
<!-- Node4&#45;&gt;Node7 -->
<g id="edge6" class="edge"><title>Node4&#45;&gt;Node7</title>
<path fill="none" stroke="midnightblue" d="M780.475,-184.95C768.44,-182.881 755.507,-180.76 743.5,-179 611.504,-159.647 570.998,-188.252 445.5,-143 402.242,-127.402 380.523,-127.367 358.5,-87 348.846,-69.3058 351.069,-45.6691 354.432,-29.4811"/>
<polygon fill="midnightblue" stroke="midnightblue" points="357.866,-30.1707 356.811,-19.6286 351.062,-28.5279 357.866,-30.1707"/>
</g>
<!-- Node8 -->
<g id="node8" class="node"><title>Node8</title>
<polygon fill="none" stroke="#bfbfbf" points="423,-0.5 423,-19.5 506,-19.5 506,-0.5 423,-0.5"/>
<text text-anchor="middle" x="464.5" y="-7.5" font-family="Helvetica,sans-Serif" font-size="10.00">unordered_map</text>
</g>
<!-- Node4&#45;&gt;Node8 -->
<g id="edge7" class="edge"><title>Node4&#45;&gt;Node8</title>
<path fill="none" stroke="midnightblue" d="M822.396,-184.721C816.709,-174.773 807.406,-157.989 800.5,-143 783.127,-105.295 798.96,-81.8801 766.5,-56 761.633,-52.1199 601.276,-29.7011 516.259,-18.0419"/>
<polygon fill="midnightblue" stroke="midnightblue" points="516.663,-14.5646 506.28,-16.6754 515.713,-21.4999 516.663,-14.5646"/>
</g>
<!-- Node9 -->
<g id="node9" class="node"><title>Node9</title>
<polygon fill="none" stroke="#bfbfbf" points="810,-123.5 810,-142.5 935,-142.5 935,-123.5 810,-123.5"/>
<text text-anchor="middle" x="872.5" y="-130.5" font-family="Helvetica,sans-Serif" font-size="10.00">Framework/InitContext.h</text>
</g>
<!-- Node4&#45;&gt;Node9 -->
<g id="edge8" class="edge"><title>Node4&#45;&gt;Node9</title>
<path fill="none" stroke="midnightblue" d="M833.947,-184.975C840.697,-176.05 851.469,-161.807 859.913,-150.643"/>
<polygon fill="midnightblue" stroke="midnightblue" points="862.824,-152.596 866.065,-142.509 857.241,-148.374 862.824,-152.596"/>
</g>
<!-- Node10 -->
<g id="node10" class="node"><title>Node10</title>
<polygon fill="none" stroke="#bfbfbf" points="953.5,-123.5 953.5,-142.5 1113.5,-142.5 1113.5,-123.5 953.5,-123.5"/>
<text text-anchor="middle" x="1033.5" y="-130.5" font-family="Helvetica,sans-Serif" font-size="10.00">Framework/ProcessingContext.h</text>
</g>
<!-- Node4&#45;&gt;Node10 -->
<g id="edge9" class="edge"><title>Node4&#45;&gt;Node10</title>
<path fill="none" stroke="midnightblue" d="M857.015,-184.975C893.116,-174.548 954.348,-156.862 994.354,-145.307"/>
<polygon fill="midnightblue" stroke="midnightblue" points="995.404,-148.647 1004.04,-142.509 993.461,-141.922 995.404,-148.647"/>
</g>
<!-- Node11 -->
<g id="node11" class="node"><title>Node11</title>
<polygon fill="none" stroke="#bfbfbf" points="1132,-123.5 1132,-142.5 1227,-142.5 1227,-123.5 1132,-123.5"/>
<text text-anchor="middle" x="1179.5" y="-130.5" font-family="Helvetica,sans-Serif" font-size="10.00">CCDB/CcdbApi.h</text>
</g>
<!-- Node4&#45;&gt;Node11 -->
<g id="edge10" class="edge"><title>Node4&#45;&gt;Node11</title>
<path fill="none" stroke="midnightblue" d="M877.933,-184.975C942.485,-174.064 1054.06,-155.204 1121.89,-143.738"/>
<polygon fill="midnightblue" stroke="midnightblue" points="1122.7,-147.15 1131.98,-142.033 1121.54,-140.248 1122.7,-147.15"/>
</g>
<!-- Node12 -->
<g id="node12" class="node"><title>Node12</title>
<g id="a_node12"><a xlink:href="Activity_8h.html" target="_top" xlink:title="QualityControl/Activity.h">
<polygon fill="none" stroke="black" points="1245,-123.5 1245,-142.5 1368,-142.5 1368,-123.5 1245,-123.5"/>
<text text-anchor="middle" x="1306.5" y="-130.5" font-family="Helvetica,sans-Serif" font-size="10.00">QualityControl/Activity.h</text>
</a>
</g>
</g>
<!-- Node4&#45;&gt;Node12 -->
<g id="edge11" class="edge"><title>Node4&#45;&gt;Node12</title>
<path fill="none" stroke="midnightblue" d="M897.35,-184.984C976.637,-175.292 1110.15,-158.899 1234.58,-143.238"/>
<polygon fill="midnightblue" stroke="midnightblue" points="1235.18,-146.69 1244.67,-141.967 1234.31,-139.744 1235.18,-146.69"/>
</g>
<!-- Node13 -->
<g id="node13" class="node"><title>Node13</title>
<g id="a_node13"><a xlink:href="ObjectsManager_8h.html" target="_top" xlink:title="QualityControl/ObjectsManager.h">
<polygon fill="none" stroke="black" points="455,-123.5 455,-142.5 616,-142.5 616,-123.5 455,-123.5"/>
<text text-anchor="middle" x="535.5" y="-130.5" font-family="Helvetica,sans-Serif" font-size="10.00">QualityControl/ObjectsManager.h</text>
</a>
</g>
</g>
<!-- Node4&#45;&gt;Node13 -->
<g id="edge12" class="edge"><title>Node4&#45;&gt;Node13</title>
<path fill="none" stroke="midnightblue" d="M785.664,-184.975C733.298,-174.305 643.631,-156.034 587.073,-144.509"/>
<polygon fill="midnightblue" stroke="midnightblue" points="587.756,-141.076 577.259,-142.509 586.359,-147.935 587.756,-141.076"/>
</g>
<!-- Node22 -->
<g id="node22" class="node"><title>Node22</title>
<g id="a_node22"><a xlink:href="QcInfoLogger_8h.html" target="_top" xlink:title="QualityControl/QcInfoLogger.h">
<polygon fill="none" stroke="black" points="1386,-123.5 1386,-142.5 1535,-142.5 1535,-123.5 1386,-123.5"/>
<text text-anchor="middle" x="1460.5" y="-130.5" font-family="Helvetica,sans-Serif" font-size="10.00">QualityControl/QcInfoLogger.h</text>
</a>
</g>
</g>
<!-- Node4&#45;&gt;Node22 -->
<g id="edge27" class="edge"><title>Node4&#45;&gt;Node22</title>
<path fill="none" stroke="midnightblue" d="M902.711,-186.989C1006.65,-177.903 1200.35,-160.652 1375.66,-143.171"/>
<polygon fill="midnightblue" stroke="midnightblue" points="1376.25,-146.63 1385.85,-142.153 1375.55,-139.665 1376.25,-146.63"/>
</g>
<!-- Node13&#45;&gt;Node6 -->
<g id="edge26" class="edge"><title>Node13&#45;&gt;Node6</title>
<path fill="none" stroke="midnightblue" d="M569.851,-123.494C602.478,-115.144 652.756,-101.571 695.5,-87 697.625,-86.2758 699.806,-85.4945 701.993,-84.6833"/>
<polygon fill="midnightblue" stroke="midnightblue" points="703.399,-87.8921 711.462,-81.0193 700.873,-81.3637 703.399,-87.8921"/>
</g>
<!-- Node13&#45;&gt;Node7 -->
<g id="edge25" class="edge"><title>Node13&#45;&gt;Node7</title>
<path fill="none" stroke="midnightblue" d="M454.762,-125.997C426.509,-119.946 396.804,-108.469 376.5,-87 362.083,-71.7557 358.898,-47.0651 358.625,-29.983"/>
<polygon fill="midnightblue" stroke="midnightblue" points="362.131,-29.6393 358.799,-19.582 355.132,-29.5219 362.131,-29.6393"/>
</g>
<!-- Node14 -->
<g id="node14" class="node"><title>Node14</title>
<g id="a_node14"><a xlink:href="MonitorObject_8h.html" target="_top" xlink:title="QualityControl/MonitorObject.h">
<polygon fill="none" stroke="black" points="140,-62 140,-81 291,-81 291,-62 140,-62"/>
<text text-anchor="middle" x="215.5" y="-69" font-family="Helvetica,sans-Serif" font-size="10.00">QualityControl/MonitorObject.h</text>
</a>
</g>
</g>
<!-- Node13&#45;&gt;Node14 -->
<g id="edge13" class="edge"><title>Node13&#45;&gt;Node14</title>
<path fill="none" stroke="midnightblue" d="M489.652,-123.475C432.028,-112.761 333.185,-94.3821 271.25,-82.8661"/>
<polygon fill="midnightblue" stroke="midnightblue" points="271.734,-79.3962 261.263,-81.0091 270.455,-86.2782 271.734,-79.3962"/>
</g>
<!-- Node18 -->
<g id="node18" class="node"><title>Node18</title>
<g id="a_node18"><a xlink:href="MonitorObjectCollection_8h.html" target="_top" xlink:title="QualityControl/MonitorObject\lCollection.h">
<polygon fill="none" stroke="black" points="544,-56.5 544,-86.5 687,-86.5 687,-56.5 544,-56.5"/>
<text text-anchor="start" x="552" y="-74.5" font-family="Helvetica,sans-Serif" font-size="10.00">QualityControl/MonitorObject</text>
<text text-anchor="middle" x="615.5" y="-63.5" font-family="Helvetica,sans-Serif" font-size="10.00">Collection.h</text>
</a>
</g>
</g>
<!-- Node13&#45;&gt;Node18 -->
<g id="edge19" class="edge"><title>Node13&#45;&gt;Node18</title>
<path fill="none" stroke="midnightblue" d="M546.962,-123.475C557.696,-115.492 574.15,-103.254 588.246,-92.7703"/>
<polygon fill="midnightblue" stroke="midnightblue" points="590.71,-95.2993 596.646,-86.523 586.533,-89.6825 590.71,-95.2993"/>
</g>
<!-- Node21 -->
<g id="node21" class="node"><title>Node21</title>
<g id="a_node21"><a xlink:href="TaskConfig_8h.html" target="_top" xlink:title="QualityControl/TaskConfig.h">
<polygon fill="none" stroke="black" points="385.5,-62 385.5,-81 525.5,-81 525.5,-62 385.5,-62"/>
<text text-anchor="middle" x="455.5" y="-69" font-family="Helvetica,sans-Serif" font-size="10.00">QualityControl/TaskConfig.h</text>
</a>
</g>
</g>
<!-- Node13&#45;&gt;Node21 -->
<g id="edge22" class="edge"><title>Node13&#45;&gt;Node21</title>
<path fill="none" stroke="midnightblue" d="M524.038,-123.475C511.325,-114.02 490.587,-98.5961 475.247,-87.1871"/>
<polygon fill="midnightblue" stroke="midnightblue" points="477.054,-84.1686 466.941,-81.0091 472.876,-89.7854 477.054,-84.1686"/>
</g>
<!-- Node14&#45;&gt;Node5 -->
<g id="edge15" class="edge"><title>Node14&#45;&gt;Node5</title>
<path fill="none" stroke="midnightblue" d="M185.442,-61.9639C153.087,-52.7009 99.8941,-37.2578 44.7726,-20.0056"/>
<polygon fill="midnightblue" stroke="midnightblue" points="45.7797,-16.6534 35.1903,-16.9941 43.6809,-23.3313 45.7797,-16.6534"/>
</g>
<!-- Node14&#45;&gt;Node7 -->
<g id="edge14" class="edge"><title>Node14&#45;&gt;Node7</title>
<path fill="none" stroke="midnightblue" d="M236.132,-61.9751C260.619,-51.8571 301.647,-34.9046 329.609,-23.3507"/>
<polygon fill="midnightblue" stroke="midnightblue" points="331.001,-26.5627 338.907,-19.5091 328.328,-20.0932 331.001,-26.5627"/>
</g>
<!-- Node15 -->
<g id="node15" class="node"><title>Node15</title>
<polygon fill="none" stroke="#bfbfbf" points="187.5,-0.5 187.5,-19.5 243.5,-19.5 243.5,-0.5 187.5,-0.5"/>
<text text-anchor="middle" x="215.5" y="-7.5" font-family="Helvetica,sans-Serif" font-size="10.00">Rtypes.h</text>
</g>
<!-- Node14&#45;&gt;Node15 -->
<g id="edge16" class="edge"><title>Node14&#45;&gt;Node15</title>
<path fill="none" stroke="midnightblue" d="M215.5,-61.9751C215.5,-53.5803 215.5,-40.4806 215.5,-29.6631"/>
<polygon fill="midnightblue" stroke="midnightblue" points="219,-29.5091 215.5,-19.5091 212,-29.5091 219,-29.5091"/>
</g>
<!-- Node16 -->
<g id="node16" class="node"><title>Node16</title>
<polygon fill="none" stroke="#bfbfbf" points="262,-0.5 262,-19.5 321,-19.5 321,-0.5 262,-0.5"/>
<text text-anchor="middle" x="291.5" y="-7.5" font-family="Helvetica,sans-Serif" font-size="10.00">TObject.h</text>
</g>
<!-- Node14&#45;&gt;Node16 -->
<g id="edge17" class="edge"><title>Node14&#45;&gt;Node16</title>
<path fill="none" stroke="midnightblue" d="M226.389,-61.9751C238.466,-52.5199 258.167,-37.0961 272.74,-25.6871"/>
<polygon fill="midnightblue" stroke="midnightblue" points="274.915,-28.4295 280.631,-19.5091 270.6,-22.9177 274.915,-28.4295"/>
</g>
<!-- Node17 -->
<g id="node17" class="node"><title>Node17</title>
<polygon fill="none" stroke="#bfbfbf" points="53.5,-0.5 53.5,-19.5 169.5,-19.5 169.5,-0.5 53.5,-0.5"/>
<text text-anchor="middle" x="111.5" y="-7.5" font-family="Helvetica,sans-Serif" font-size="10.00">Common/Exceptions.h</text>
</g>
<!-- Node14&#45;&gt;Node17 -->
<g id="edge18" class="edge"><title>Node14&#45;&gt;Node17</title>
<path fill="none" stroke="midnightblue" d="M200.599,-61.9751C183.532,-52.2106 155.339,-36.0807 135.238,-24.5808"/>
<polygon fill="midnightblue" stroke="midnightblue" points="136.791,-21.4371 126.373,-19.5091 133.315,-27.513 136.791,-21.4371"/>
</g>
<!-- Node19 -->
<g id="node19" class="node"><title>Node19</title>
<polygon fill="none" stroke="#bfbfbf" points="689,-0.5 689,-19.5 758,-19.5 758,-0.5 689,-0.5"/>
<text text-anchor="middle" x="723.5" y="-7.5" font-family="Helvetica,sans-Serif" font-size="10.00">TObjArray.h</text>
</g>
<!-- Node18&#45;&gt;Node19 -->
<g id="edge20" class="edge"><title>Node18&#45;&gt;Node19</title>
<path fill="none" stroke="midnightblue" d="M641.094,-56.3993C658.568,-46.7728 681.588,-34.0902 698.856,-24.5772"/>
<polygon fill="midnightblue" stroke="midnightblue" points="700.715,-27.5488 707.785,-19.6578 697.337,-21.4177 700.715,-27.5488"/>
</g>
<!-- Node20 -->
<g id="node20" class="node"><title>Node20</title>
<polygon fill="none" stroke="#bfbfbf" points="542.5,-0.5 542.5,-19.5 670.5,-19.5 670.5,-0.5 542.5,-0.5"/>
<text text-anchor="middle" x="606.5" y="-7.5" font-family="Helvetica,sans-Serif" font-size="10.00">Mergers/MergeInterface.h</text>
</g>
<!-- Node18&#45;&gt;Node20 -->
<g id="edge21" class="edge"><title>Node18&#45;&gt;Node20</title>
<path fill="none" stroke="midnightblue" d="M613.367,-56.3993C612.154,-48.3772 610.619,-38.2328 609.309,-29.569"/>
<polygon fill="midnightblue" stroke="midnightblue" points="612.766,-29.0218 607.81,-19.6578 605.845,-30.0688 612.766,-29.0218"/>
</g>
<!-- Node21&#45;&gt;Node7 -->
<g id="edge23" class="edge"><title>Node21&#45;&gt;Node7</title>
<path fill="none" stroke="midnightblue" d="M441.746,-61.9751C426.134,-52.2989 400.437,-36.3721 381.917,-24.8941"/>
<polygon fill="midnightblue" stroke="midnightblue" points="383.573,-21.8023 373.229,-19.5091 379.885,-27.7522 383.573,-21.8023"/>
</g>
<!-- Node21&#45;&gt;Node8 -->
<g id="edge24" class="edge"><title>Node21&#45;&gt;Node8</title>
<path fill="none" stroke="midnightblue" d="M456.789,-61.9751C458.059,-53.5803 460.041,-40.4806 461.677,-29.6631"/>
<polygon fill="midnightblue" stroke="midnightblue" points="465.178,-29.9201 463.213,-19.5091 458.257,-28.8731 465.178,-29.9201"/>
</g>
<!-- Node23 -->
<g id="node23" class="node"><title>Node23</title>
<polygon fill="none" stroke="#bfbfbf" points="1313.5,-62 1313.5,-81 1443.5,-81 1443.5,-62 1313.5,-62"/>
<text text-anchor="middle" x="1378.5" y="-69" font-family="Helvetica,sans-Serif" font-size="10.00">InfoLogger/InfoLogger.hxx</text>
</g>
<!-- Node22&#45;&gt;Node23 -->
<g id="edge28" class="edge"><title>Node22&#45;&gt;Node23</title>
<path fill="none" stroke="midnightblue" d="M1448.75,-123.475C1435.72,-114.02 1414.46,-98.5961 1398.74,-87.1871"/>
<polygon fill="midnightblue" stroke="midnightblue" points="1400.38,-84.0492 1390.23,-81.0091 1396.27,-89.7149 1400.38,-84.0492"/>
</g>
<!-- Node24 -->
<g id="node24" class="node"><title>Node24</title>
<polygon fill="none" stroke="#bfbfbf" points="1461.5,-62 1461.5,-81 1623.5,-81 1623.5,-62 1461.5,-62"/>
<text text-anchor="middle" x="1542.5" y="-69" font-family="Helvetica,sans-Serif" font-size="10.00">InfoLogger/InfoLoggerMacros.hxx</text>
</g>
<!-- Node22&#45;&gt;Node24 -->
<g id="edge29" class="edge"><title>Node22&#45;&gt;Node24</title>
<path fill="none" stroke="midnightblue" d="M1472.25,-123.475C1485.28,-114.02 1506.54,-98.5961 1522.26,-87.1871"/>
<polygon fill="midnightblue" stroke="midnightblue" points="1524.73,-89.7149 1530.77,-81.0091 1520.62,-84.0492 1524.73,-89.7149"/>
</g>
</g>
</svg>
