<?xml version="1.0" encoding="UTF-8" standalone="no"?>
<!DOCTYPE svg PUBLIC "-//W3C//DTD SVG 1.1//EN"
 "http://www.w3.org/Graphics/SVG/1.1/DTD/svg11.dtd">
<!-- Generated by graphviz version 2.38.0 (20140413.2041)
 -->
<!-- Title: Framework/src/TaskFactory.cxx Pages: 1 -->
<svg width="1658pt" height="330pt"
 viewBox="0.00 0.00 1658.24 330.00" xmlns="http://www.w3.org/2000/svg" xmlns:xlink="http://www.w3.org/1999/xlink">
<g id="graph0" class="graph" transform="scale(1 1) rotate(0) translate(4 326)">
<title>Framework/src/TaskFactory.cxx</title>
<!-- Node1 -->
<g id="node1" class="node"><title>Node1</title>
<polygon fill="#bfbfbf" stroke="black" points="1002.74,-302.5 1002.74,-321.5 1160.74,-321.5 1160.74,-302.5 1002.74,-302.5"/>
<text text-anchor="middle" x="1081.74" y="-309.5" font-family="Helvetica,sans-Serif" font-size="10.00">Framework/src/TaskFactory.cxx</text>
</g>
<!-- Node2 -->
<g id="node2" class="node"><title>Node2</title>
<g id="a_node2"><a xlink:href="TaskFactory_8h.html" target="_top" xlink:title="QualityControl/TaskFactory.h">
<polygon fill="none" stroke="black" points="649.238,-246.5 649.238,-265.5 794.238,-265.5 794.238,-246.5 649.238,-246.5"/>
<text text-anchor="middle" x="721.738" y="-253.5" font-family="Helvetica,sans-Serif" font-size="10.00">QualityControl/TaskFactory.h</text>
</a>
</g>
</g>
<!-- Node1&#45;&gt;Node2 -->
<g id="edge1" class="edge"><title>Node1&#45;&gt;Node2</title>
<path fill="none" stroke="midnightblue" d="M1024.69,-302.444C960.577,-292.826 856.588,-277.228 788.677,-267.041"/>
<polygon fill="midnightblue" stroke="midnightblue" points="788.923,-263.539 778.514,-265.516 787.884,-270.461 788.923,-263.539"/>
</g>
<!-- Node21 -->
<g id="node21" class="node"><title>Node21</title>
<g id="a_node21"><a xlink:href="QcInfoLogger_8h.html" target="_top" xlink:title="QualityControl/QcInfoLogger.h">
<polygon fill="none" stroke="black" points="1007.24,-123.5 1007.24,-142.5 1156.24,-142.5 1156.24,-123.5 1007.24,-123.5"/>
<text text-anchor="middle" x="1081.74" y="-130.5" font-family="Helvetica,sans-Serif" font-size="10.00">QualityControl/QcInfoLogger.h</text>
</a>
</g>
</g>
<!-- Node1&#45;&gt;Node21 -->
<g id="edge31" class="edge"><title>Node1&#45;&gt;Node21</title>
<path fill="none" stroke="midnightblue" d="M1081.74,-302.463C1081.74,-275.428 1081.74,-191.239 1081.74,-153.109"/>
<polygon fill="midnightblue" stroke="midnightblue" points="1085.24,-152.868 1081.74,-142.868 1078.24,-152.868 1085.24,-152.868"/>
</g>
<!-- Node24 -->
<g id="node24" class="node"><title>Node24</title>
<g id="a_node24"><a xlink:href="RootClassFactory_8h.html" target="_top" xlink:title="QualityControl/RootClass\lFactory.h">
<polygon fill="none" stroke="black" points="1222.74,-179.5 1222.74,-209.5 1350.74,-209.5 1350.74,-179.5 1222.74,-179.5"/>
<text text-anchor="start" x="1230.74" y="-197.5" font-family="Helvetica,sans-Serif" font-size="10.00">QualityControl/RootClass</text>
<text text-anchor="middle" x="1286.74" y="-186.5" font-family="Helvetica,sans-Serif" font-size="10.00">Factory.h</text>
</a>
</g>
</g>
<!-- Node1&#45;&gt;Node24 -->
<g id="edge32" class="edge"><title>Node1&#45;&gt;Node24</title>
<path fill="none" stroke="midnightblue" d="M1097.15,-302.319C1130.08,-283.766 1207.96,-239.883 1253,-214.511"/>
<polygon fill="midnightblue" stroke="midnightblue" points="1254.81,-217.503 1261.81,-209.545 1251.38,-211.405 1254.81,-217.503"/>
</g>
<!-- Node3 -->
<g id="node3" class="node"><title>Node3</title>
<polygon fill="none" stroke="#bfbfbf" points="190.738,-62 190.738,-81 242.738,-81 242.738,-62 190.738,-62"/>
<text text-anchor="middle" x="216.738" y="-69" font-family="Helvetica,sans-Serif" font-size="10.00">memory</text>
</g>
<!-- Node2&#45;&gt;Node3 -->
<g id="edge2" class="edge"><title>Node2&#45;&gt;Node3</title>
<path fill="none" stroke="midnightblue" d="M649.196,-254.955C484.756,-253.152 91.5624,-238.702 9.73782,-143 -38.6034,-86.4601 108.323,-75.1699 179.922,-72.9844"/>
<polygon fill="midnightblue" stroke="midnightblue" points="180.411,-76.473 190.317,-72.7149 180.23,-69.4754 180.411,-76.473"/>
</g>
<!-- Node4 -->
<g id="node4" class="node"><title>Node4</title>
<g id="a_node4"><a xlink:href="TaskConfig_8h.html" target="_top" xlink:title="QualityControl/TaskConfig.h">
<polygon fill="none" stroke="black" points="677.738,-62 677.738,-81 817.738,-81 817.738,-62 677.738,-62"/>
<text text-anchor="middle" x="747.738" y="-69" font-family="Helvetica,sans-Serif" font-size="10.00">QualityControl/TaskConfig.h</text>
</a>
</g>
</g>
<!-- Node2&#45;&gt;Node4 -->
<g id="edge3" class="edge"><title>Node2&#45;&gt;Node4</title>
<path fill="none" stroke="midnightblue" d="M748.974,-246.462C788.959,-232.279 862.114,-199.666 892.738,-143 910.455,-110.216 870.531,-92.4642 828.126,-82.9756"/>
<polygon fill="midnightblue" stroke="midnightblue" points="828.701,-79.5204 818.197,-80.9055 827.273,-86.373 828.701,-79.5204"/>
</g>
<!-- Node7 -->
<g id="node7" class="node"><title>Node7</title>
<g id="a_node7"><a xlink:href="TaskInterface_8h.html" target="_top" xlink:title="QualityControl/TaskInterface.h">
<polygon fill="none" stroke="black" points="454.738,-185 454.738,-204 604.738,-204 604.738,-185 454.738,-185"/>
<text text-anchor="middle" x="529.738" y="-192" font-family="Helvetica,sans-Serif" font-size="10.00">QualityControl/TaskInterface.h</text>
</a>
</g>
</g>
<!-- Node2&#45;&gt;Node7 -->
<g id="edge6" class="edge"><title>Node2&#45;&gt;Node7</title>
<path fill="none" stroke="midnightblue" d="M694.229,-246.475C660.866,-236.136 604.476,-218.661 567.175,-207.102"/>
<polygon fill="midnightblue" stroke="midnightblue" points="567.784,-203.626 557.196,-204.009 565.712,-210.312 567.784,-203.626"/>
</g>
<!-- Node5 -->
<g id="node5" class="node"><title>Node5</title>
<polygon fill="none" stroke="#bfbfbf" points="619.238,-0.5 619.238,-19.5 660.238,-19.5 660.238,-0.5 619.238,-0.5"/>
<text text-anchor="middle" x="639.738" y="-7.5" font-family="Helvetica,sans-Serif" font-size="10.00">string</text>
</g>
<!-- Node4&#45;&gt;Node5 -->
<g id="edge4" class="edge"><title>Node4&#45;&gt;Node5</title>
<path fill="none" stroke="midnightblue" d="M732.264,-61.9751C714.46,-52.1664 684.997,-35.9346 664.106,-24.425"/>
<polygon fill="midnightblue" stroke="midnightblue" points="665.631,-21.269 655.183,-19.5091 662.253,-27.4001 665.631,-21.269"/>
</g>
<!-- Node6 -->
<g id="node6" class="node"><title>Node6</title>
<polygon fill="none" stroke="#bfbfbf" points="813.238,-0.5 813.238,-19.5 896.238,-19.5 896.238,-0.5 813.238,-0.5"/>
<text text-anchor="middle" x="854.738" y="-7.5" font-family="Helvetica,sans-Serif" font-size="10.00">unordered_map</text>
</g>
<!-- Node4&#45;&gt;Node6 -->
<g id="edge5" class="edge"><title>Node4&#45;&gt;Node6</title>
<path fill="none" stroke="midnightblue" d="M763.068,-61.9751C780.708,-52.1664 809.897,-35.9346 830.595,-24.425"/>
<polygon fill="midnightblue" stroke="midnightblue" points="832.397,-27.4279 839.436,-19.5091 828.995,-21.3102 832.397,-27.4279"/>
</g>
<!-- Node7&#45;&gt;Node3 -->
<g id="edge8" class="edge"><title>Node7&#45;&gt;Node3</title>
<path fill="none" stroke="midnightblue" d="M454.5,-189.092C379.511,-183.209 271.121,-170.189 239.738,-143 225.017,-130.247 219.663,-107.947 217.745,-91.8369"/>
<polygon fill="midnightblue" stroke="midnightblue" points="221.196,-91.0978 216.872,-81.4254 214.22,-91.6831 221.196,-91.0978"/>
</g>
<!-- Node7&#45;&gt;Node5 -->
<g id="edge9" class="edge"><title>Node7&#45;&gt;Node5</title>
<path fill="none" stroke="midnightblue" d="M508.833,-184.861C481.232,-172.227 438.277,-147.534 457.738,-123 501.419,-67.9306 559.067,-133.544 611.738,-87 628.333,-72.3349 635.107,-46.9477 637.863,-29.5826"/>
<polygon fill="midnightblue" stroke="midnightblue" points="641.352,-29.8877 639.156,-19.523 634.409,-28.9949 641.352,-29.8877"/>
</g>
<!-- Node7&#45;&gt;Node6 -->
<g id="edge10" class="edge"><title>Node7&#45;&gt;Node6</title>
<path fill="none" stroke="midnightblue" d="M604.785,-194.144C699.975,-193.172 856.183,-184.992 892.738,-143 898.574,-136.296 894.875,-131.628 892.738,-123 888.388,-105.439 880.201,-103.898 873.738,-87 866.466,-67.987 861.203,-45.2276 858.085,-29.6016"/>
<polygon fill="midnightblue" stroke="midnightblue" points="861.498,-28.8126 856.196,-19.6398 854.62,-30.1168 861.498,-28.8126"/>
</g>
<!-- Node8 -->
<g id="node8" class="node"><title>Node8</title>
<polygon fill="none" stroke="#bfbfbf" points="414.238,-0.5 414.238,-19.5 449.238,-19.5 449.238,-0.5 414.238,-0.5"/>
<text text-anchor="middle" x="431.738" y="-7.5" font-family="Helvetica,sans-Serif" font-size="10.00">map</text>
</g>
<!-- Node7&#45;&gt;Node8 -->
<g id="edge7" class="edge"><title>Node7&#45;&gt;Node8</title>
<path fill="none" stroke="midnightblue" d="M454.623,-187.671C376.56,-180.477 260.592,-166.257 222.738,-143 196.455,-126.853 191.324,-116.319 181.738,-87 177.456,-73.9044 172.805,-66.49 181.738,-56 212.565,-19.7968 341.348,-30.6247 404.271,-19.4104"/>
<polygon fill="midnightblue" stroke="midnightblue" points="405.081,-22.8165 414.139,-17.3206 403.631,-15.9684 405.081,-22.8165"/>
</g>
<!-- Node9 -->
<g id="node9" class="node"><title>Node9</title>
<polygon fill="none" stroke="#bfbfbf" points="467.238,-123.5 467.238,-142.5 592.238,-142.5 592.238,-123.5 467.238,-123.5"/>
<text text-anchor="middle" x="529.738" y="-130.5" font-family="Helvetica,sans-Serif" font-size="10.00">Framework/InitContext.h</text>
</g>
<!-- Node7&#45;&gt;Node9 -->
<g id="edge11" class="edge"><title>Node7&#45;&gt;Node9</title>
<path fill="none" stroke="midnightblue" d="M529.738,-184.975C529.738,-176.58 529.738,-163.481 529.738,-152.663"/>
<polygon fill="midnightblue" stroke="midnightblue" points="533.238,-152.509 529.738,-142.509 526.238,-152.509 533.238,-152.509"/>
</g>
<!-- Node10 -->
<g id="node10" class="node"><title>Node10</title>
<polygon fill="none" stroke="#bfbfbf" points="610.738,-123.5 610.738,-142.5 770.738,-142.5 770.738,-123.5 610.738,-123.5"/>
<text text-anchor="middle" x="690.738" y="-130.5" font-family="Helvetica,sans-Serif" font-size="10.00">Framework/ProcessingContext.h</text>
</g>
<!-- Node7&#45;&gt;Node10 -->
<g id="edge12" class="edge"><title>Node7&#45;&gt;Node10</title>
<path fill="none" stroke="midnightblue" d="M552.805,-184.975C580.422,-174.769 626.857,-157.608 658.134,-146.049"/>
<polygon fill="midnightblue" stroke="midnightblue" points="659.547,-149.259 667.713,-142.509 657.12,-142.693 659.547,-149.259"/>
</g>
<!-- Node11 -->
<g id="node11" class="node"><title>Node11</title>
<polygon fill="none" stroke="#bfbfbf" points="789.238,-123.5 789.238,-142.5 884.238,-142.5 884.238,-123.5 789.238,-123.5"/>
<text text-anchor="middle" x="836.738" y="-130.5" font-family="Helvetica,sans-Serif" font-size="10.00">CCDB/CcdbApi.h</text>
</g>
<!-- Node7&#45;&gt;Node11 -->
<g id="edge13" class="edge"><title>Node7&#45;&gt;Node11</title>
<path fill="none" stroke="midnightblue" d="M573.723,-184.975C628.893,-174.283 723.443,-155.958 782.884,-144.437"/>
<polygon fill="midnightblue" stroke="midnightblue" points="783.682,-147.848 792.834,-142.509 782.351,-140.976 783.682,-147.848"/>
</g>
<!-- Node12 -->
<g id="node12" class="node"><title>Node12</title>
<g id="a_node12"><a xlink:href="Activity_8h.html" target="_top" xlink:title="QualityControl/Activity.h">
<polygon fill="none" stroke="black" points="19.2378,-123.5 19.2378,-142.5 142.238,-142.5 142.238,-123.5 19.2378,-123.5"/>
<text text-anchor="middle" x="80.7378" y="-130.5" font-family="Helvetica,sans-Serif" font-size="10.00">QualityControl/Activity.h</text>
</a>
</g>
</g>
<!-- Node7&#45;&gt;Node12 -->
<g id="edge14" class="edge"><title>Node7&#45;&gt;Node12</title>
<path fill="none" stroke="midnightblue" d="M465.407,-184.975C382.487,-173.987 238.737,-154.938 152.402,-143.497"/>
<polygon fill="midnightblue" stroke="midnightblue" points="152.797,-140.019 142.424,-142.174 151.878,-146.958 152.797,-140.019"/>
</g>
<!-- Node13 -->
<g id="node13" class="node"><title>Node13</title>
<g id="a_node13"><a xlink:href="ObjectsManager_8h.html" target="_top" xlink:title="QualityControl/ObjectsManager.h">
<polygon fill="none" stroke="black" points="249.238,-123.5 249.238,-142.5 410.238,-142.5 410.238,-123.5 249.238,-123.5"/>
<text text-anchor="middle" x="329.738" y="-130.5" font-family="Helvetica,sans-Serif" font-size="10.00">QualityControl/ObjectsManager.h</text>
</a>
</g>
</g>
<!-- Node7&#45;&gt;Node13 -->
<g id="edge15" class="edge"><title>Node7&#45;&gt;Node13</title>
<path fill="none" stroke="midnightblue" d="M501.083,-184.975C466.182,-174.592 407.088,-157.012 368.238,-145.454"/>
<polygon fill="midnightblue" stroke="midnightblue" points="368.923,-142.006 358.34,-142.509 366.927,-148.715 368.923,-142.006"/>
</g>
<!-- Node7&#45;&gt;Node21 -->
<g id="edge28" class="edge"><title>Node7&#45;&gt;Node21</title>
<path fill="none" stroke="midnightblue" d="M604.757,-185.414C706.991,-174.394 889.577,-154.713 996.751,-143.161"/>
<polygon fill="midnightblue" stroke="midnightblue" points="997.315,-146.62 1006.88,-142.069 996.565,-139.661 997.315,-146.62"/>
</g>
<!-- Node13&#45;&gt;Node3 -->
<g id="edge27" class="edge"><title>Node13&#45;&gt;Node3</title>
<path fill="none" stroke="midnightblue" d="M313.548,-123.475C294.835,-113.622 263.815,-97.2883 241.939,-85.7697"/>
<polygon fill="midnightblue" stroke="midnightblue" points="243.377,-82.5713 232.898,-81.0091 240.116,-88.7651 243.377,-82.5713"/>
</g>
<!-- Node13&#45;&gt;Node4 -->
<g id="edge25" class="edge"><title>Node13&#45;&gt;Node4</title>
<path fill="none" stroke="midnightblue" d="M389.627,-123.475C465.83,-112.628 597.214,-93.9262 677.894,-82.4418"/>
<polygon fill="midnightblue" stroke="midnightblue" points="678.553,-85.8835 687.96,-81.0091 677.566,-78.9533 678.553,-85.8835"/>
</g>
<!-- Node13&#45;&gt;Node5 -->
<g id="edge26" class="edge"><title>Node13&#45;&gt;Node5</title>
<path fill="none" stroke="midnightblue" d="M410.51,-123.988C473.014,-116.618 553.521,-104.215 581.738,-87 604.479,-73.1255 621.503,-46.775 631.04,-29.0459"/>
<polygon fill="midnightblue" stroke="midnightblue" points="634.349,-30.2612 635.776,-19.763 628.114,-27.0797 634.349,-30.2612"/>
</g>
<!-- Node14 -->
<g id="node14" class="node"><title>Node14</title>
<g id="a_node14"><a xlink:href="MonitorObject_8h.html" target="_top" xlink:title="QualityControl/MonitorObject.h">
<polygon fill="none" stroke="black" points="422.238,-62 422.238,-81 573.238,-81 573.238,-62 422.238,-62"/>
<text text-anchor="middle" x="497.738" y="-69" font-family="Helvetica,sans-Serif" font-size="10.00">QualityControl/MonitorObject.h</text>
</a>
</g>
</g>
<!-- Node13&#45;&gt;Node14 -->
<g id="edge16" class="edge"><title>Node13&#45;&gt;Node14</title>
<path fill="none" stroke="midnightblue" d="M353.808,-123.475C382.751,-113.225 431.5,-95.9593 464.14,-84.3994"/>
<polygon fill="midnightblue" stroke="midnightblue" points="465.454,-87.6468 473.712,-81.0091 463.117,-81.0484 465.454,-87.6468"/>
</g>
<!-- Node18 -->
<g id="node18" class="node"><title>Node18</title>
<g id="a_node18"><a xlink:href="MonitorObjectCollection_8h.html" target="_top" xlink:title="QualityControl/MonitorObject\lCollection.h">
<polygon fill="none" stroke="black" points="261.238,-56.5 261.238,-86.5 404.238,-86.5 404.238,-56.5 261.238,-56.5"/>
<text text-anchor="start" x="269.238" y="-74.5" font-family="Helvetica,sans-Serif" font-size="10.00">QualityControl/MonitorObject</text>
<text text-anchor="middle" x="332.738" y="-63.5" font-family="Helvetica,sans-Serif" font-size="10.00">Collection.h</text>
</a>
</g>
</g>
<!-- Node13&#45;&gt;Node18 -->
<g id="edge22" class="edge"><title>Node13&#45;&gt;Node18</title>
<path fill="none" stroke="midnightblue" d="M330.168,-123.475C330.521,-116.471 331.039,-106.192 331.518,-96.6956"/>
<polygon fill="midnightblue" stroke="midnightblue" points="335.023,-96.6866 332.031,-86.523 328.032,-96.334 335.023,-96.6866"/>
</g>
<!-- Node14&#45;&gt;Node5 -->
<g id="edge17" class="edge"><title>Node14&#45;&gt;Node5</title>
<path fill="none" stroke="midnightblue" d="M518.083,-61.9751C542.125,-51.9013 582.335,-35.0525 609.9,-23.5023"/>
<polygon fill="midnightblue" stroke="midnightblue" points="611.56,-26.6018 619.43,-19.5091 608.855,-20.1457 611.56,-26.6018"/>
</g>
<!-- Node14&#45;&gt;Node8 -->
<g id="edge18" class="edge"><title>Node14&#45;&gt;Node8</title>
<path fill="none" stroke="midnightblue" d="M488.282,-61.9751C477.99,-52.6966 461.322,-37.6706 448.744,-26.331"/>
<polygon fill="midnightblue" stroke="midnightblue" points="450.947,-23.6054 441.176,-19.5091 446.26,-28.8046 450.947,-23.6054"/>
</g>
<!-- Node15 -->
<g id="node15" class="node"><title>Node15</title>
<polygon fill="none" stroke="#bfbfbf" points="544.738,-0.5 544.738,-19.5 600.738,-19.5 600.738,-0.5 544.738,-0.5"/>
<text text-anchor="middle" x="572.738" y="-7.5" font-family="Helvetica,sans-Serif" font-size="10.00">Rtypes.h</text>
</g>
<!-- Node14&#45;&gt;Node15 -->
<g id="edge19" class="edge"><title>Node14&#45;&gt;Node15</title>
<path fill="none" stroke="midnightblue" d="M508.483,-61.9751C520.29,-52.6082 539.481,-37.3839 553.82,-26.0081"/>
<polygon fill="midnightblue" stroke="midnightblue" points="556.353,-28.4661 562.012,-19.5091 552.003,-22.9822 556.353,-28.4661"/>
</g>
<!-- Node16 -->
<g id="node16" class="node"><title>Node16</title>
<polygon fill="none" stroke="#bfbfbf" points="467.238,-0.5 467.238,-19.5 526.238,-19.5 526.238,-0.5 467.238,-0.5"/>
<text text-anchor="middle" x="496.738" y="-7.5" font-family="Helvetica,sans-Serif" font-size="10.00">TObject.h</text>
</g>
<!-- Node14&#45;&gt;Node16 -->
<g id="edge20" class="edge"><title>Node14&#45;&gt;Node16</title>
<path fill="none" stroke="midnightblue" d="M497.595,-61.9751C497.453,-53.5803 497.233,-40.4806 497.051,-29.6631"/>
<polygon fill="midnightblue" stroke="midnightblue" points="500.548,-29.4488 496.881,-19.5091 493.549,-29.5665 500.548,-29.4488"/>
</g>
<!-- Node17 -->
<g id="node17" class="node"><title>Node17</title>
<polygon fill="none" stroke="#bfbfbf" points="678.738,-0.5 678.738,-19.5 794.738,-19.5 794.738,-0.5 678.738,-0.5"/>
<text text-anchor="middle" x="736.738" y="-7.5" font-family="Helvetica,sans-Serif" font-size="10.00">Common/Exceptions.h</text>
</g>
<!-- Node14&#45;&gt;Node17 -->
<g id="edge21" class="edge"><title>Node14&#45;&gt;Node17</title>
<path fill="none" stroke="midnightblue" d="M531.981,-61.9751C574.309,-51.4374 646.415,-33.4863 692.788,-21.9415"/>
<polygon fill="midnightblue" stroke="midnightblue" points="693.7,-25.3213 702.558,-19.5091 692.009,-18.5286 693.7,-25.3213"/>
</g>
<!-- Node19 -->
<g id="node19" class="node"><title>Node19</title>
<polygon fill="none" stroke="#bfbfbf" points="180.238,-0.5 180.238,-19.5 249.238,-19.5 249.238,-0.5 180.238,-0.5"/>
<text text-anchor="middle" x="214.738" y="-7.5" font-family="Helvetica,sans-Serif" font-size="10.00">TObjArray.h</text>
</g>
<!-- Node18&#45;&gt;Node19 -->
<g id="edge23" class="edge"><title>Node18&#45;&gt;Node19</title>
<path fill="none" stroke="midnightblue" d="M304.773,-56.3993C285.417,-46.6391 259.83,-33.7373 240.882,-24.1826"/>
<polygon fill="midnightblue" stroke="midnightblue" points="242.413,-21.035 231.908,-19.6578 239.261,-27.2854 242.413,-21.035"/>
</g>
<!-- Node20 -->
<g id="node20" class="node"><title>Node20</title>
<polygon fill="none" stroke="#bfbfbf" points="267.738,-0.5 267.738,-19.5 395.738,-19.5 395.738,-0.5 267.738,-0.5"/>
<text text-anchor="middle" x="331.738" y="-7.5" font-family="Helvetica,sans-Serif" font-size="10.00">Mergers/MergeInterface.h</text>
</g>
<!-- Node18&#45;&gt;Node20 -->
<g id="edge24" class="edge"><title>Node18&#45;&gt;Node20</title>
<path fill="none" stroke="midnightblue" d="M332.501,-56.3993C332.368,-48.4664 332.199,-38.458 332.055,-29.8583"/>
<polygon fill="midnightblue" stroke="midnightblue" points="335.551,-29.5975 331.883,-19.6578 328.552,-29.7152 335.551,-29.5975"/>
</g>
<!-- Node22 -->
<g id="node22" class="node"><title>Node22</title>
<polygon fill="none" stroke="#bfbfbf" points="882.738,-62 882.738,-81 1012.74,-81 1012.74,-62 882.738,-62"/>
<text text-anchor="middle" x="947.738" y="-69" font-family="Helvetica,sans-Serif" font-size="10.00">InfoLogger/InfoLogger.hxx</text>
</g>
<!-- Node21&#45;&gt;Node22 -->
<g id="edge29" class="edge"><title>Node21&#45;&gt;Node22</title>
<path fill="none" stroke="midnightblue" d="M1062.54,-123.475C1039.95,-113.445 1002.24,-96.7002 976.237,-85.1546"/>
<polygon fill="midnightblue" stroke="midnightblue" points="977.461,-81.8685 966.901,-81.0091 974.62,-88.2662 977.461,-81.8685"/>
</g>
<!-- Node23 -->
<g id="node23" class="node"><title>Node23</title>
<polygon fill="none" stroke="#bfbfbf" points="1030.74,-62 1030.74,-81 1192.74,-81 1192.74,-62 1030.74,-62"/>
<text text-anchor="middle" x="1111.74" y="-69" font-family="Helvetica,sans-Serif" font-size="10.00">InfoLogger/InfoLoggerMacros.hxx</text>
</g>
<!-- Node21&#45;&gt;Node23 -->
<g id="edge30" class="edge"><title>Node21&#45;&gt;Node23</title>
<path fill="none" stroke="midnightblue" d="M1086.04,-123.475C1090.4,-114.815 1097.29,-101.149 1102.84,-90.1453"/>
<polygon fill="midnightblue" stroke="midnightblue" points="1106.07,-91.5141 1107.45,-81.0091 1099.82,-88.3625 1106.07,-91.5141"/>
</g>
<!-- Node24&#45;&gt;Node5 -->
<g id="edge33" class="edge"><title>Node24&#45;&gt;Node5</title>
<path fill="none" stroke="midnightblue" d="M1280,-179.203C1264.52,-147.02 1225.9,-70.5577 1201.74,-56 1102.83,3.60615 802.131,-38.874 670.207,-19.4592"/>
<polygon fill="midnightblue" stroke="midnightblue" points="670.684,-15.9905 660.247,-17.8128 669.542,-22.8968 670.684,-15.9905"/>
</g>
<!-- Node24&#45;&gt;Node17 -->
<g id="edge34" class="edge"><title>Node24&#45;&gt;Node17</title>
<path fill="none" stroke="midnightblue" d="M1283.4,-179.326C1275.59,-147.402 1255.21,-71.4466 1234.74,-56 1160.41,0.0719251 915.277,-28.4715 805.056,-19.9301"/>
<polygon fill="midnightblue" stroke="midnightblue" points="805.101,-16.4194 794.821,-18.9837 804.456,-23.3896 805.101,-16.4194"/>
</g>
<!-- Node24&#45;&gt;Node21 -->
<g id="edge39" class="edge"><title>Node24&#45;&gt;Node21</title>
<path fill="none" stroke="midnightblue" d="M1238.42,-179.475C1202.59,-169.075 1154.36,-155.078 1120.92,-145.372"/>
<polygon fill="midnightblue" stroke="midnightblue" points="1121.62,-141.933 1111.05,-142.506 1119.67,-148.655 1121.62,-141.933"/>
</g>
<!-- Node25 -->
<g id="node25" class="node"><title>Node25</title>
<polygon fill="none" stroke="#bfbfbf" points="1286.74,-123.5 1286.74,-142.5 1342.74,-142.5 1342.74,-123.5 1286.74,-123.5"/>
<text text-anchor="middle" x="1314.74" y="-130.5" font-family="Helvetica,sans-Serif" font-size="10.00">TClass.h</text>
</g>
<!-- Node24&#45;&gt;Node25 -->
<g id="edge35" class="edge"><title>Node24&#45;&gt;Node25</title>
<path fill="none" stroke="midnightblue" d="M1293.37,-179.399C1297.27,-171.11 1302.24,-160.554 1306.4,-151.708"/>
<polygon fill="midnightblue" stroke="midnightblue" points="1309.57,-153.196 1310.66,-142.658 1303.24,-150.216 1309.57,-153.196"/>
</g>
<!-- Node26 -->
<g id="node26" class="node"><title>Node26</title>
<polygon fill="none" stroke="#bfbfbf" points="1361.24,-123.5 1361.24,-142.5 1420.24,-142.5 1420.24,-123.5 1361.24,-123.5"/>
<text text-anchor="middle" x="1390.74" y="-130.5" font-family="Helvetica,sans-Serif" font-size="10.00">TROOT.h</text>
</g>
<!-- Node24&#45;&gt;Node26 -->
<g id="edge36" class="edge"><title>Node24&#45;&gt;Node26</title>
<path fill="none" stroke="midnightblue" d="M1311.38,-179.399C1328.05,-169.862 1349.97,-157.325 1366.54,-147.842"/>
<polygon fill="midnightblue" stroke="midnightblue" points="1368.66,-150.662 1375.6,-142.658 1365.19,-144.586 1368.66,-150.662"/>
</g>
<!-- Node27 -->
<g id="node27" class="node"><title>Node27</title>
<polygon fill="none" stroke="#bfbfbf" points="1438.24,-123.5 1438.24,-142.5 1503.24,-142.5 1503.24,-123.5 1438.24,-123.5"/>
<text text-anchor="middle" x="1470.74" y="-130.5" font-family="Helvetica,sans-Serif" font-size="10.00">TSystem.h</text>
</g>
<!-- Node24&#45;&gt;Node27 -->
<g id="edge37" class="edge"><title>Node24&#45;&gt;Node27</title>
<path fill="none" stroke="midnightblue" d="M1330.34,-179.399C1362.14,-169.118 1404.71,-155.351 1434.61,-145.682"/>
<polygon fill="midnightblue" stroke="midnightblue" points="1435.79,-148.978 1444.23,-142.571 1433.64,-142.318 1435.79,-148.978"/>
</g>
<!-- Node28 -->
<g id="node28" class="node"><title>Node28</title>
<polygon fill="none" stroke="#bfbfbf" points="1521.24,-123.5 1521.24,-142.5 1650.24,-142.5 1650.24,-123.5 1521.24,-123.5"/>
<text text-anchor="middle" x="1585.74" y="-130.5" font-family="Helvetica,sans-Serif" font-size="10.00">boost/filesystem/path.hpp</text>
</g>
<!-- Node24&#45;&gt;Node28 -->
<g id="edge38" class="edge"><title>Node24&#45;&gt;Node28</title>
<path fill="none" stroke="midnightblue" d="M1350.88,-180.736C1405.14,-169.938 1481.96,-154.651 1532.78,-144.539"/>
<polygon fill="midnightblue" stroke="midnightblue" points="1533.77,-147.91 1542.9,-142.525 1532.41,-141.044 1533.77,-147.91"/>
</g>
</g>
</svg>
