<?xml version="1.0" encoding="UTF-8" standalone="no"?>
<!DOCTYPE svg PUBLIC "-//W3C//DTD SVG 1.1//EN"
 "http://www.w3.org/Graphics/SVG/1.1/DTD/svg11.dtd">
<!-- Generated by graphviz version 2.38.0 (20140413.2041)
 -->
<!-- Title: Modules/TOF/src/TaskDiagnostics.cxx Pages: 1 -->
<!--zoomable 330 -->
<svg id="main" version="1.1" xmlns="http://www.w3.org/2000/svg" xmlns:xlink="http://www.w3.org/1999/xlink" xml:space="preserve" onload="init(evt)">
<style type="text/css"><![CDATA[
.edge:hover path { stroke: red; }
.edge:hover polygon { stroke: red; fill: red; }
]]></style>
<script type="text/javascript"><![CDATA[
var edges = document.getElementsByTagName('g');
if (edges && edges.length) {
  for (var i=0;i<edges.length;i++) {
    if (edges[i].id.substr(0,4)=='edge') {
      edges[i].setAttribute('class','edge');
    }
  }
}
]]></script>
        <defs>
                <circle id="rim" cx="0" cy="0" r="7"/>
                <circle id="rim2" cx="0" cy="0" r="3.5"/>
                <g id="zoomPlus">
                        <use xlink:href="#rim" fill="#404040">
                                <set attributeName="fill" to="#808080" begin="zoomplus.mouseover" end="zoomplus.mouseout"/>
                        </use>
                        <path d="M-4,0h8M0,-4v8" fill="none" stroke="white" stroke-width="1.5" pointer-events="none"/>
                </g>
                <g id="zoomMin">
                        <use xlink:href="#rim" fill="#404040">
                                <set attributeName="fill" to="#808080" begin="zoomminus.mouseover" end="zoomminus.mouseout"/>
                        </use>
                        <path d="M-4,0h8" fill="none" stroke="white" stroke-width="1.5" pointer-events="none"/>
                </g>
                <g id="dirArrow">
                        <path fill="none" stroke="white" stroke-width="1.5" d="M0,-3.0v7 M-2.5,-0.5L0,-3.0L2.5,-0.5"/>
                </g>
               <g id="resetDef">
                       <use xlink:href="#rim2" fill="#404040">
                               <set attributeName="fill" to="#808080" begin="reset.mouseover" end="reset.mouseout"/>
                       </use>
               </g>
        </defs>

<script type="text/javascript">
var viewWidth = 2074;
var viewHeight = 330;
var sectionId = 'dynsection-0';
</script>
<script xlink:href="svgpan.js"/>
<svg id="graph" class="graph">
<g id="viewport">
<title>Modules/TOF/src/TaskDiagnostics.cxx</title>
<!-- Node1 -->
<g id="node1" class="node"><title>Node1</title>
<polygon fill="#bfbfbf" stroke="black" points="303,-302.5 303,-321.5 491,-321.5 491,-302.5 303,-302.5"/>
<text text-anchor="middle" x="397" y="-309.5" font-family="Helvetica,sans-Serif" font-size="10.00">Modules/TOF/src/TaskDiagnostics.cxx</text>
</g>
<!-- Node2 -->
<g id="node2" class="node"><title>Node2</title>
<polygon fill="none" stroke="#bfbfbf" points="0,-246.5 0,-265.5 50,-265.5 50,-246.5 0,-246.5"/>
<text text-anchor="middle" x="25" y="-253.5" font-family="Helvetica,sans-Serif" font-size="10.00">TH1F.h</text>
</g>
<!-- Node1&#45;&gt;Node2 -->
<g id="edge1" class="edge"><title>Node1&#45;&gt;Node2</title>
<path fill="none" stroke="midnightblue" d="M310.021,-302.479C243.871,-295.29 150.479,-283.622 60.0411,-265.992"/>
<polygon fill="midnightblue" stroke="midnightblue" points="60.6572,-262.547 50.1684,-264.041 59.3001,-269.414 60.6572,-262.547"/>
</g>
<!-- Node3 -->
<g id="node3" class="node"><title>Node3</title>
<polygon fill="none" stroke="#bfbfbf" points="68,-246.5 68,-265.5 118,-265.5 118,-246.5 68,-246.5"/>
<text text-anchor="middle" x="93" y="-253.5" font-family="Helvetica,sans-Serif" font-size="10.00">TH2F.h</text>
</g>
<!-- Node1&#45;&gt;Node3 -->
<g id="edge2" class="edge"><title>Node1&#45;&gt;Node3</title>
<path fill="none" stroke="midnightblue" d="M340.99,-302.466C287.234,-294.044 203.841,-280.376 132,-266 130.735,-265.747 129.449,-265.483 128.151,-265.212"/>
<polygon fill="midnightblue" stroke="midnightblue" points="128.645,-261.737 118.128,-263.027 127.153,-268.577 128.645,-261.737"/>
</g>
<!-- Node4 -->
<g id="node4" class="node"><title>Node4</title>
<polygon fill="none" stroke="#bfbfbf" points="279,-179.5 279,-209.5 431,-209.5 431,-179.5 279,-179.5"/>
<text text-anchor="start" x="287" y="-197.5" font-family="Helvetica,sans-Serif" font-size="10.00">DataFormatsTOF/Compressed</text>
<text text-anchor="middle" x="355" y="-186.5" font-family="Helvetica,sans-Serif" font-size="10.00">DataFormat.h</text>
</g>
<!-- Node1&#45;&gt;Node4 -->
<g id="edge3" class="edge"><title>Node1&#45;&gt;Node4</title>
<path fill="none" stroke="midnightblue" d="M302.939,-304.73C246.645,-298.796 182.685,-287.445 165,-266 131.162,-224.968 203.532,-207.812 268.481,-200.642"/>
<polygon fill="midnightblue" stroke="midnightblue" points="269.236,-204.083 278.824,-199.575 268.517,-197.12 269.236,-204.083"/>
</g>
<!-- Node5 -->
<g id="node5" class="node"><title>Node5</title>
<polygon fill="none" stroke="#bfbfbf" points="174,-246.5 174,-265.5 308,-265.5 308,-246.5 174,-246.5"/>
<text text-anchor="middle" x="241" y="-253.5" font-family="Helvetica,sans-Serif" font-size="10.00">Framework/DataRefUtils.h</text>
</g>
<!-- Node1&#45;&gt;Node5 -->
<g id="edge4" class="edge"><title>Node1&#45;&gt;Node5</title>
<path fill="none" stroke="midnightblue" d="M372.281,-302.444C346.152,-293.399 304.741,-279.064 275.424,-268.916"/>
<polygon fill="midnightblue" stroke="midnightblue" points="276.198,-265.48 265.603,-265.516 273.908,-272.095 276.198,-265.48"/>
</g>
<!-- Node6 -->
<g id="node6" class="node"><title>Node6</title>
<polygon fill="none" stroke="#bfbfbf" points="326.5,-246.5 326.5,-265.5 467.5,-265.5 467.5,-246.5 326.5,-246.5"/>
<text text-anchor="middle" x="397" y="-253.5" font-family="Helvetica,sans-Serif" font-size="10.00">Headers/RAWDataHeader.h</text>
</g>
<!-- Node1&#45;&gt;Node6 -->
<g id="edge5" class="edge"><title>Node1&#45;&gt;Node6</title>
<path fill="none" stroke="midnightblue" d="M397,-302.083C397,-295.006 397,-284.861 397,-275.986"/>
<polygon fill="midnightblue" stroke="midnightblue" points="400.5,-275.751 397,-265.751 393.5,-275.751 400.5,-275.751"/>
</g>
<!-- Node7 -->
<g id="node7" class="node"><title>Node7</title>
<polygon fill="none" stroke="#bfbfbf" points="485.5,-246.5 485.5,-265.5 616.5,-265.5 616.5,-246.5 485.5,-246.5"/>
<text text-anchor="middle" x="551" y="-253.5" font-family="Helvetica,sans-Serif" font-size="10.00">DetectorsRaw/HBFUtils.h</text>
</g>
<!-- Node1&#45;&gt;Node7 -->
<g id="edge6" class="edge"><title>Node1&#45;&gt;Node7</title>
<path fill="none" stroke="midnightblue" d="M421.402,-302.444C447.197,-293.399 488.077,-279.064 517.018,-268.916"/>
<polygon fill="midnightblue" stroke="midnightblue" points="518.434,-272.128 526.712,-265.516 516.118,-265.523 518.434,-272.128"/>
</g>
<!-- Node8 -->
<g id="node8" class="node"><title>Node8</title>
<polygon fill="none" stroke="#bfbfbf" points="635,-246.5 635,-265.5 765,-265.5 765,-246.5 635,-246.5"/>
<text text-anchor="middle" x="700" y="-253.5" font-family="Helvetica,sans-Serif" font-size="10.00">Framework/InputRecord.h</text>
</g>
<!-- Node1&#45;&gt;Node8 -->
<g id="edge7" class="edge"><title>Node1&#45;&gt;Node8</title>
<path fill="none" stroke="midnightblue" d="M445.011,-302.444C498.534,-292.905 585.065,-277.483 642.245,-267.293"/>
<polygon fill="midnightblue" stroke="midnightblue" points="642.983,-270.717 652.213,-265.516 641.754,-263.825 642.983,-270.717"/>
</g>
<!-- Node9 -->
<g id="node9" class="node"><title>Node9</title>
<g id="a_node9"><a xlink:href="QcInfoLogger_8h.html" target="_top" xlink:title="QualityControl/QcInfoLogger.h">
<polygon fill="none" stroke="black" points="773.5,-123.5 773.5,-142.5 922.5,-142.5 922.5,-123.5 773.5,-123.5"/>
<text text-anchor="middle" x="848" y="-130.5" font-family="Helvetica,sans-Serif" font-size="10.00">QualityControl/QcInfoLogger.h</text>
</a>
</g>
</g>
<!-- Node1&#45;&gt;Node9 -->
<g id="edge8" class="edge"><title>Node1&#45;&gt;Node9</title>
<path fill="none" stroke="midnightblue" d="M491.203,-309.151C631.883,-305.45 883.584,-294.841 913,-266 940.676,-238.866 937.682,-212.959 919,-179 911.113,-164.663 896.514,-154.253 882.597,-147.079"/>
<polygon fill="midnightblue" stroke="midnightblue" points="883.698,-143.728 873.161,-142.622 880.708,-150.058 883.698,-143.728"/>
</g>
<!-- Node12 -->
<g id="node12" class="node"><title>Node12</title>
<g id="a_node12"><a xlink:href="TaskDiagnostics_8h.html" target="_top" xlink:title="Task to check the diagnostic words of TOF crates received trough the TOF compressor. Here are defined the counters to check the diagnostics words of the TOF crates obtained from the compressor. This is why the DiagnosticCounter class derives from DecoderBase: it reads data from the decoder. ">
<polygon fill="none" stroke="black" points="783.5,-246.5 783.5,-265.5 904.5,-265.5 904.5,-246.5 783.5,-246.5"/>
<text text-anchor="middle" x="844" y="-253.5" font-family="Helvetica,sans-Serif" font-size="10.00">TOF/TaskDiagnostics.h</text>
</a>
</g>
</g>
<!-- Node1&#45;&gt;Node12 -->
<g id="edge11" class="edge"><title>Node1&#45;&gt;Node12</title>
<path fill="none" stroke="midnightblue" d="M470.001,-302.485C543.738,-293.839 661.223,-279.94 773.178,-266.092"/>
<polygon fill="midnightblue" stroke="midnightblue" points="773.804,-269.542 783.298,-264.839 772.943,-262.595 773.804,-269.542"/>
</g>
<!-- Node10 -->
<g id="node10" class="node"><title>Node10</title>
<polygon fill="none" stroke="#bfbfbf" points="577,-62 577,-81 707,-81 707,-62 577,-62"/>
<text text-anchor="middle" x="642" y="-69" font-family="Helvetica,sans-Serif" font-size="10.00">InfoLogger/InfoLogger.hxx</text>
</g>
<!-- Node9&#45;&gt;Node10 -->
<g id="edge9" class="edge"><title>Node9&#45;&gt;Node10</title>
<path fill="none" stroke="midnightblue" d="M818.485,-123.475C782.384,-113.048 721.152,-95.3618 681.146,-83.8066"/>
<polygon fill="midnightblue" stroke="midnightblue" points="682.039,-80.4215 671.46,-81.0091 680.096,-87.1466 682.039,-80.4215"/>
</g>
<!-- Node11 -->
<g id="node11" class="node"><title>Node11</title>
<polygon fill="none" stroke="#bfbfbf" points="725,-62 725,-81 887,-81 887,-62 725,-62"/>
<text text-anchor="middle" x="806" y="-69" font-family="Helvetica,sans-Serif" font-size="10.00">InfoLogger/InfoLoggerMacros.hxx</text>
</g>
<!-- Node9&#45;&gt;Node11 -->
<g id="edge10" class="edge"><title>Node9&#45;&gt;Node11</title>
<path fill="none" stroke="midnightblue" d="M841.982,-123.475C835.745,-114.638 825.827,-100.589 817.982,-89.475"/>
<polygon fill="midnightblue" stroke="midnightblue" points="820.633,-87.1604 812.006,-81.0091 814.914,-91.1972 820.633,-87.1604"/>
</g>
<!-- Node12&#45;&gt;Node4 -->
<g id="edge13" class="edge"><title>Node12&#45;&gt;Node4</title>
<path fill="none" stroke="midnightblue" d="M783.297,-247.165C780.153,-246.769 777.04,-246.379 774,-246 658.893,-231.664 525.912,-215.746 441.186,-205.685"/>
<polygon fill="midnightblue" stroke="midnightblue" points="441.44,-202.191 431.097,-204.488 440.615,-209.142 441.44,-202.191"/>
</g>
<!-- Node13 -->
<g id="node13" class="node"><title>Node13</title>
<polygon fill="none" stroke="#bfbfbf" points="768,-179.5 768,-209.5 910,-209.5 910,-179.5 768,-179.5"/>
<text text-anchor="start" x="776" y="-197.5" font-family="Helvetica,sans-Serif" font-size="10.00">TOFReconstruction/Decoder</text>
<text text-anchor="middle" x="839" y="-186.5" font-family="Helvetica,sans-Serif" font-size="10.00">Base.h</text>
</g>
<!-- Node12&#45;&gt;Node13 -->
<g id="edge12" class="edge"><title>Node12&#45;&gt;Node13</title>
<path fill="none" stroke="midnightblue" d="M843.284,-246.475C842.695,-239.471 841.831,-229.192 841.033,-219.696"/>
<polygon fill="midnightblue" stroke="midnightblue" points="844.504,-219.195 840.178,-209.523 837.528,-219.781 844.504,-219.195"/>
</g>
<!-- Node14 -->
<g id="node14" class="node"><title>Node14</title>
<g id="a_node14"><a xlink:href="TaskInterface_8h.html" target="_top" xlink:title="QualityControl/TaskInterface.h">
<polygon fill="none" stroke="black" points="1357,-185 1357,-204 1507,-204 1507,-185 1357,-185"/>
<text text-anchor="middle" x="1432" y="-192" font-family="Helvetica,sans-Serif" font-size="10.00">QualityControl/TaskInterface.h</text>
</a>
</g>
</g>
<!-- Node12&#45;&gt;Node14 -->
<g id="edge14" class="edge"><title>Node12&#45;&gt;Node14</title>
<path fill="none" stroke="midnightblue" d="M904.712,-248.857C1009.92,-238.211 1226.36,-216.309 1346.65,-204.137"/>
<polygon fill="midnightblue" stroke="midnightblue" points="1347.32,-207.587 1356.92,-203.098 1346.62,-200.622 1347.32,-207.587"/>
</g>
<!-- Node32 -->
<g id="node32" class="node"><title>Node32</title>
<g id="a_node32"><a xlink:href="Counter_8h.html" target="_top" xlink:title="Utilities to count events and fill histograms at the end of the main processing loops. ">
<polygon fill="none" stroke="black" points="664.5,-185 664.5,-204 749.5,-204 749.5,-185 664.5,-185"/>
<text text-anchor="middle" x="707" y="-192" font-family="Helvetica,sans-Serif" font-size="10.00">Base/Counter.h</text>
</a>
</g>
</g>
<!-- Node12&#45;&gt;Node32 -->
<g id="edge39" class="edge"><title>Node12&#45;&gt;Node32</title>
<path fill="none" stroke="midnightblue" d="M824.371,-246.475C801.176,-236.401 762.381,-219.553 735.787,-208.002"/>
<polygon fill="midnightblue" stroke="midnightblue" points="737.159,-204.782 726.592,-204.009 734.37,-211.203 737.159,-204.782"/>
</g>
<!-- Node14&#45;&gt;Node9 -->
<g id="edge38" class="edge"><title>Node14&#45;&gt;Node9</title>
<path fill="none" stroke="midnightblue" d="M1356.85,-185.843C1248,-174.753 1047.05,-154.279 932.952,-142.655"/>
<polygon fill="midnightblue" stroke="midnightblue" points="933.167,-139.159 922.864,-141.627 932.457,-146.123 933.167,-139.159"/>
</g>
<!-- Node15 -->
<g id="node15" class="node"><title>Node15</title>
<polygon fill="none" stroke="#bfbfbf" points="2030.5,-0.5 2030.5,-19.5 2065.5,-19.5 2065.5,-0.5 2030.5,-0.5"/>
<text text-anchor="middle" x="2048" y="-7.5" font-family="Helvetica,sans-Serif" font-size="10.00">map</text>
</g>
<!-- Node14&#45;&gt;Node15 -->
<g id="edge15" class="edge"><title>Node14&#45;&gt;Node15</title>
<path fill="none" stroke="midnightblue" d="M1507.27,-190.766C1597.28,-186.188 1751.94,-174.154 1881,-143 1949.37,-126.497 1982.26,-139.547 2029,-87 2042.95,-71.3128 2046.99,-46.9085 2047.99,-30.0048"/>
<polygon fill="midnightblue" stroke="midnightblue" points="2051.5,-29.7961 2048.29,-19.7 2044.5,-29.5956 2051.5,-29.7961"/>
</g>
<!-- Node16 -->
<g id="node16" class="node"><title>Node16</title>
<polygon fill="none" stroke="#bfbfbf" points="1968,-62 1968,-81 2020,-81 2020,-62 1968,-62"/>
<text text-anchor="middle" x="1994" y="-69" font-family="Helvetica,sans-Serif" font-size="10.00">memory</text>
</g>
<!-- Node14&#45;&gt;Node16 -->
<g id="edge16" class="edge"><title>Node14&#45;&gt;Node16</title>
<path fill="none" stroke="midnightblue" d="M1507.08,-191.241C1590.37,-187.135 1728.05,-175.572 1842,-143 1889.74,-129.353 1941.4,-102.559 1970.52,-86.2192"/>
<polygon fill="midnightblue" stroke="midnightblue" points="1972.54,-89.1004 1979.5,-81.1127 1969.07,-83.0163 1972.54,-89.1004"/>
</g>
<!-- Node17 -->
<g id="node17" class="node"><title>Node17</title>
<polygon fill="none" stroke="#bfbfbf" points="1685.5,-0.5 1685.5,-19.5 1726.5,-19.5 1726.5,-0.5 1685.5,-0.5"/>
<text text-anchor="middle" x="1706" y="-7.5" font-family="Helvetica,sans-Serif" font-size="10.00">string</text>
</g>
<!-- Node14&#45;&gt;Node17 -->
<g id="edge17" class="edge"><title>Node14&#45;&gt;Node17</title>
<path fill="none" stroke="midnightblue" d="M1507.21,-188.672C1611.49,-181.201 1789.46,-165.333 1809,-143 1827.62,-121.724 1758.48,-56.5717 1724.19,-26.5033"/>
<polygon fill="midnightblue" stroke="midnightblue" points="1726.15,-23.5684 1716.3,-19.6627 1721.56,-28.8577 1726.15,-23.5684"/>
</g>
<!-- Node18 -->
<g id="node18" class="node"><title>Node18</title>
<polygon fill="none" stroke="#bfbfbf" points="1377.5,-0.5 1377.5,-19.5 1460.5,-19.5 1460.5,-0.5 1377.5,-0.5"/>
<text text-anchor="middle" x="1419" y="-7.5" font-family="Helvetica,sans-Serif" font-size="10.00">unordered_map</text>
</g>
<!-- Node14&#45;&gt;Node18 -->
<g id="edge18" class="edge"><title>Node14&#45;&gt;Node18</title>
<path fill="none" stroke="midnightblue" d="M1356.83,-188.732C1252.06,-181.31 1072.68,-165.474 1053,-143 1008.55,-92.24 1256.33,-40.3227 1367.34,-19.9625"/>
<polygon fill="midnightblue" stroke="midnightblue" points="1368.11,-23.38 1377.32,-18.1489 1366.86,-16.4927 1368.11,-23.38"/>
</g>
<!-- Node19 -->
<g id="node19" class="node"><title>Node19</title>
<polygon fill="none" stroke="#bfbfbf" points="1062.5,-123.5 1062.5,-142.5 1187.5,-142.5 1187.5,-123.5 1062.5,-123.5"/>
<text text-anchor="middle" x="1125" y="-130.5" font-family="Helvetica,sans-Serif" font-size="10.00">Framework/InitContext.h</text>
</g>
<!-- Node14&#45;&gt;Node19 -->
<g id="edge19" class="edge"><title>Node14&#45;&gt;Node19</title>
<path fill="none" stroke="midnightblue" d="M1388.01,-184.975C1332.85,-174.283 1238.3,-155.958 1178.85,-144.437"/>
<polygon fill="midnightblue" stroke="midnightblue" points="1179.39,-140.976 1168.9,-142.509 1178.06,-147.848 1179.39,-140.976"/>
</g>
<!-- Node20 -->
<g id="node20" class="node"><title>Node20</title>
<polygon fill="none" stroke="#bfbfbf" points="1206,-123.5 1206,-142.5 1366,-142.5 1366,-123.5 1206,-123.5"/>
<text text-anchor="middle" x="1286" y="-130.5" font-family="Helvetica,sans-Serif" font-size="10.00">Framework/ProcessingContext.h</text>
</g>
<!-- Node14&#45;&gt;Node20 -->
<g id="edge20" class="edge"><title>Node14&#45;&gt;Node20</title>
<path fill="none" stroke="midnightblue" d="M1411.08,-184.975C1386.25,-174.857 1344.66,-157.905 1316.31,-146.351"/>
<polygon fill="midnightblue" stroke="midnightblue" points="1317.46,-143.042 1306.88,-142.509 1314.82,-149.524 1317.46,-143.042"/>
</g>
<!-- Node21 -->
<g id="node21" class="node"><title>Node21</title>
<polygon fill="none" stroke="#bfbfbf" points="1384.5,-123.5 1384.5,-142.5 1479.5,-142.5 1479.5,-123.5 1384.5,-123.5"/>
<text text-anchor="middle" x="1432" y="-130.5" font-family="Helvetica,sans-Serif" font-size="10.00">CCDB/CcdbApi.h</text>
</g>
<!-- Node14&#45;&gt;Node21 -->
<g id="edge21" class="edge"><title>Node14&#45;&gt;Node21</title>
<path fill="none" stroke="midnightblue" d="M1432,-184.975C1432,-176.58 1432,-163.481 1432,-152.663"/>
<polygon fill="midnightblue" stroke="midnightblue" points="1435.5,-152.509 1432,-142.509 1428.5,-152.509 1435.5,-152.509"/>
</g>
<!-- Node22 -->
<g id="node22" class="node"><title>Node22</title>
<g id="a_node22"><a xlink:href="Activity_8h.html" target="_top" xlink:title="QualityControl/Activity.h">
<polygon fill="none" stroke="black" points="1497.5,-123.5 1497.5,-142.5 1620.5,-142.5 1620.5,-123.5 1497.5,-123.5"/>
<text text-anchor="middle" x="1559" y="-130.5" font-family="Helvetica,sans-Serif" font-size="10.00">QualityControl/Activity.h</text>
</a>
</g>
</g>
<!-- Node14&#45;&gt;Node22 -->
<g id="edge22" class="edge"><title>Node14&#45;&gt;Node22</title>
<path fill="none" stroke="midnightblue" d="M1450.2,-184.975C1471.51,-174.99 1507.03,-158.348 1531.66,-146.807"/>
<polygon fill="midnightblue" stroke="midnightblue" points="1533.27,-149.921 1540.84,-142.509 1530.3,-143.582 1533.27,-149.921"/>
</g>
<!-- Node23 -->
<g id="node23" class="node"><title>Node23</title>
<g id="a_node23"><a xlink:href="ObjectsManager_8h.html" target="_top" xlink:title="QualityControl/ObjectsManager.h">
<polygon fill="none" stroke="black" points="1638.5,-123.5 1638.5,-142.5 1799.5,-142.5 1799.5,-123.5 1638.5,-123.5"/>
<text text-anchor="middle" x="1719" y="-130.5" font-family="Helvetica,sans-Serif" font-size="10.00">QualityControl/ObjectsManager.h</text>
</a>
</g>
</g>
<!-- Node14&#45;&gt;Node23 -->
<g id="edge23" class="edge"><title>Node14&#45;&gt;Node23</title>
<path fill="none" stroke="midnightblue" d="M1473.12,-184.975C1524.48,-174.327 1612.36,-156.109 1667.96,-144.581"/>
<polygon fill="midnightblue" stroke="midnightblue" points="1668.87,-147.966 1677.96,-142.509 1667.45,-141.112 1668.87,-147.966"/>
</g>
<!-- Node23&#45;&gt;Node16 -->
<g id="edge37" class="edge"><title>Node23&#45;&gt;Node16</title>
<path fill="none" stroke="midnightblue" d="M1784.29,-123.499C1833.05,-116.254 1900.99,-104.25 1959,-87 1961.29,-86.3198 1963.63,-85.5412 1965.96,-84.7056"/>
<polygon fill="midnightblue" stroke="midnightblue" points="1967.31,-87.9373 1975.37,-81.0573 1964.78,-81.4112 1967.31,-87.9373"/>
</g>
<!-- Node23&#45;&gt;Node17 -->
<g id="edge36" class="edge"><title>Node23&#45;&gt;Node17</title>
<path fill="none" stroke="midnightblue" d="M1718.07,-123.298C1715.98,-103.85 1710.89,-56.49 1708.03,-29.9036"/>
<polygon fill="midnightblue" stroke="midnightblue" points="1711.47,-29.192 1706.93,-19.6232 1704.51,-29.9399 1711.47,-29.192"/>
</g>
<!-- Node24 -->
<g id="node24" class="node"><title>Node24</title>
<g id="a_node24"><a xlink:href="MonitorObject_8h.html" target="_top" xlink:title="QualityControl/MonitorObject.h">
<polygon fill="none" stroke="black" points="1798.5,-62 1798.5,-81 1949.5,-81 1949.5,-62 1798.5,-62"/>
<text text-anchor="middle" x="1874" y="-69" font-family="Helvetica,sans-Serif" font-size="10.00">QualityControl/MonitorObject.h</text>
</a>
</g>
</g>
<!-- Node23&#45;&gt;Node24 -->
<g id="edge24" class="edge"><title>Node23&#45;&gt;Node24</title>
<path fill="none" stroke="midnightblue" d="M1741.21,-123.475C1767.68,-113.313 1812.11,-96.2564 1842.22,-84.6996"/>
<polygon fill="midnightblue" stroke="midnightblue" points="1843.75,-87.8604 1851.83,-81.0091 1841.24,-81.3254 1843.75,-87.8604"/>
</g>
<!-- Node28 -->
<g id="node28" class="node"><title>Node28</title>
<g id="a_node28"><a xlink:href="MonitorObjectCollection_8h.html" target="_top" xlink:title="QualityControl/MonitorObject\lCollection.h">
<polygon fill="none" stroke="black" points="905.5,-56.5 905.5,-86.5 1048.5,-86.5 1048.5,-56.5 905.5,-56.5"/>
<text text-anchor="start" x="913.5" y="-74.5" font-family="Helvetica,sans-Serif" font-size="10.00">QualityControl/MonitorObject</text>
<text text-anchor="middle" x="977" y="-63.5" font-family="Helvetica,sans-Serif" font-size="10.00">Collection.h</text>
</a>
</g>
</g>
<!-- Node23&#45;&gt;Node28 -->
<g id="edge30" class="edge"><title>Node23&#45;&gt;Node28</title>
<path fill="none" stroke="midnightblue" d="M1638.48,-123.771C1635.62,-123.506 1632.78,-123.248 1630,-123 1424.55,-104.671 1182.39,-86.961 1058.7,-78.1962"/>
<polygon fill="midnightblue" stroke="midnightblue" points="1058.77,-74.6928 1048.55,-77.4784 1058.28,-81.6754 1058.77,-74.6928"/>
</g>
<!-- Node31 -->
<g id="node31" class="node"><title>Node31</title>
<g id="a_node31"><a xlink:href="TaskConfig_8h.html" target="_top" xlink:title="QualityControl/TaskConfig.h">
<polygon fill="none" stroke="black" points="1551,-62 1551,-81 1691,-81 1691,-62 1551,-62"/>
<text text-anchor="middle" x="1621" y="-69" font-family="Helvetica,sans-Serif" font-size="10.00">QualityControl/TaskConfig.h</text>
</a>
</g>
</g>
<!-- Node23&#45;&gt;Node31 -->
<g id="edge33" class="edge"><title>Node23&#45;&gt;Node31</title>
<path fill="none" stroke="midnightblue" d="M1704.96,-123.475C1688.95,-113.755 1662.55,-97.7266 1643.63,-86.2372"/>
<polygon fill="midnightblue" stroke="midnightblue" points="1645.38,-83.2072 1635.01,-81.0091 1641.75,-89.1907 1645.38,-83.2072"/>
</g>
<!-- Node24&#45;&gt;Node15 -->
<g id="edge26" class="edge"><title>Node24&#45;&gt;Node15</title>
<path fill="none" stroke="midnightblue" d="M1898.93,-61.9751C1931.12,-50.9674 1986.97,-31.8704 2020.4,-20.4363"/>
<polygon fill="midnightblue" stroke="midnightblue" points="2021.68,-23.6987 2030.01,-17.1513 2019.42,-17.0752 2021.68,-23.6987"/>
</g>
<!-- Node24&#45;&gt;Node17 -->
<g id="edge25" class="edge"><title>Node24&#45;&gt;Node17</title>
<path fill="none" stroke="midnightblue" d="M1849.93,-61.9751C1819.92,-51.346 1768.61,-33.1744 1736.05,-21.6426"/>
<polygon fill="midnightblue" stroke="midnightblue" points="1737.19,-18.332 1726.59,-18.2926 1734.85,-24.9303 1737.19,-18.332"/>
</g>
<!-- Node25 -->
<g id="node25" class="node"><title>Node25</title>
<polygon fill="none" stroke="#bfbfbf" points="1956,-0.5 1956,-19.5 2012,-19.5 2012,-0.5 1956,-0.5"/>
<text text-anchor="middle" x="1984" y="-7.5" font-family="Helvetica,sans-Serif" font-size="10.00">Rtypes.h</text>
</g>
<!-- Node24&#45;&gt;Node25 -->
<g id="edge27" class="edge"><title>Node24&#45;&gt;Node25</title>
<path fill="none" stroke="midnightblue" d="M1889.76,-61.9751C1907.98,-52.1222 1938.17,-35.7883 1959.47,-24.2697"/>
<polygon fill="midnightblue" stroke="midnightblue" points="1961.14,-27.3453 1968.27,-19.5091 1957.81,-21.1883 1961.14,-27.3453"/>
</g>
<!-- Node26 -->
<g id="node26" class="node"><title>Node26</title>
<polygon fill="none" stroke="#bfbfbf" points="1744.5,-0.5 1744.5,-19.5 1803.5,-19.5 1803.5,-0.5 1744.5,-0.5"/>
<text text-anchor="middle" x="1774" y="-7.5" font-family="Helvetica,sans-Serif" font-size="10.00">TObject.h</text>
</g>
<!-- Node24&#45;&gt;Node26 -->
<g id="edge28" class="edge"><title>Node24&#45;&gt;Node26</title>
<path fill="none" stroke="midnightblue" d="M1859.67,-61.9751C1843.34,-52.2548 1816.4,-36.2266 1797.09,-24.7372"/>
<polygon fill="midnightblue" stroke="midnightblue" points="1798.68,-21.6146 1788.3,-19.5091 1795.11,-27.6303 1798.68,-21.6146"/>
</g>
<!-- Node27 -->
<g id="node27" class="node"><title>Node27</title>
<polygon fill="none" stroke="#bfbfbf" points="1822,-0.5 1822,-19.5 1938,-19.5 1938,-0.5 1822,-0.5"/>
<text text-anchor="middle" x="1880" y="-7.5" font-family="Helvetica,sans-Serif" font-size="10.00">Common/Exceptions.h</text>
</g>
<!-- Node24&#45;&gt;Node27 -->
<g id="edge29" class="edge"><title>Node24&#45;&gt;Node27</title>
<path fill="none" stroke="midnightblue" d="M1874.86,-61.9751C1875.71,-53.5803 1877.03,-40.4806 1878.12,-29.6631"/>
<polygon fill="midnightblue" stroke="midnightblue" points="1881.62,-29.8098 1879.14,-19.5091 1874.66,-29.1074 1881.62,-29.8098"/>
</g>
<!-- Node29 -->
<g id="node29" class="node"><title>Node29</title>
<polygon fill="none" stroke="#bfbfbf" points="883.5,-0.5 883.5,-19.5 952.5,-19.5 952.5,-0.5 883.5,-0.5"/>
<text text-anchor="middle" x="918" y="-7.5" font-family="Helvetica,sans-Serif" font-size="10.00">TObjArray.h</text>
</g>
<!-- Node28&#45;&gt;Node29 -->
<g id="edge31" class="edge"><title>Node28&#45;&gt;Node29</title>
<path fill="none" stroke="midnightblue" d="M963.018,-56.3993C954.268,-47.575 942.971,-36.1827 933.883,-27.0178"/>
<polygon fill="midnightblue" stroke="midnightblue" points="936.112,-24.2942 926.585,-19.6578 931.141,-29.2231 936.112,-24.2942"/>
</g>
<!-- Node30 -->
<g id="node30" class="node"><title>Node30</title>
<polygon fill="none" stroke="#bfbfbf" points="971,-0.5 971,-19.5 1099,-19.5 1099,-0.5 971,-0.5"/>
<text text-anchor="middle" x="1035" y="-7.5" font-family="Helvetica,sans-Serif" font-size="10.00">Mergers/MergeInterface.h</text>
</g>
<!-- Node28&#45;&gt;Node30 -->
<g id="edge32" class="edge"><title>Node28&#45;&gt;Node30</title>
<path fill="none" stroke="midnightblue" d="M990.745,-56.3993C999.347,-47.575 1010.45,-36.1827 1019.39,-27.0178"/>
<polygon fill="midnightblue" stroke="midnightblue" points="1022.09,-29.2616 1026.56,-19.6578 1017.07,-24.3755 1022.09,-29.2616"/>
</g>
<!-- Node31&#45;&gt;Node17 -->
<g id="edge34" class="edge"><title>Node31&#45;&gt;Node17</title>
<path fill="none" stroke="midnightblue" d="M1633.18,-61.9751C1646.81,-52.4315 1669.13,-36.8073 1685.47,-25.3683"/>
<polygon fill="midnightblue" stroke="midnightblue" points="1687.66,-28.1111 1693.84,-19.5091 1683.64,-22.3764 1687.66,-28.1111"/>
</g>
<!-- Node31&#45;&gt;Node18 -->
<g id="edge35" class="edge"><title>Node31&#45;&gt;Node18</title>
<path fill="none" stroke="midnightblue" d="M1592.06,-61.9751C1556.73,-51.5699 1496.87,-33.9367 1457.64,-22.3801"/>
<polygon fill="midnightblue" stroke="midnightblue" points="1458.47,-18.9773 1447.89,-19.5091 1456.49,-25.6921 1458.47,-18.9773"/>
</g>
<!-- Node32&#45;&gt;Node9 -->
<g id="edge41" class="edge"><title>Node32&#45;&gt;Node9</title>
<path fill="none" stroke="midnightblue" d="M727.202,-184.975C751.074,-174.901 791.002,-158.053 818.373,-146.502"/>
<polygon fill="midnightblue" stroke="midnightblue" points="819.983,-149.622 827.836,-142.509 817.262,-143.172 819.983,-149.622"/>
</g>
<!-- Node33 -->
<g id="node33" class="node"><title>Node33</title>
<polygon fill="none" stroke="#bfbfbf" points="597,-123.5 597,-142.5 641,-142.5 641,-123.5 597,-123.5"/>
<text text-anchor="middle" x="619" y="-130.5" font-family="Helvetica,sans-Serif" font-size="10.00">TH1.h</text>
</g>
<!-- Node32&#45;&gt;Node33 -->
<g id="edge40" class="edge"><title>Node32&#45;&gt;Node33</title>
<path fill="none" stroke="midnightblue" d="M694.392,-184.975C680.277,-175.431 657.169,-159.807 640.251,-148.368"/>
<polygon fill="midnightblue" stroke="midnightblue" points="641.829,-145.211 631.585,-142.509 637.909,-151.01 641.829,-145.211"/>
</g>
<!-- Node34 -->
<g id="node34" class="node"><title>Node34</title>
<polygon fill="none" stroke="#bfbfbf" points="658.5,-123.5 658.5,-142.5 755.5,-142.5 755.5,-123.5 658.5,-123.5"/>
<text text-anchor="middle" x="707" y="-130.5" font-family="Helvetica,sans-Serif" font-size="10.00">fairlogger/Logger.h</text>
</g>
<!-- Node32&#45;&gt;Node34 -->
<g id="edge42" class="edge"><title>Node32&#45;&gt;Node34</title>
<path fill="none" stroke="midnightblue" d="M707,-184.975C707,-176.58 707,-163.481 707,-152.663"/>
<polygon fill="midnightblue" stroke="midnightblue" points="710.5,-152.509 707,-142.509 703.5,-152.509 710.5,-152.509"/>
</g>
</g>
</svg>
        <g id="navigator" transform="translate(0 0)" fill="#404254">
                <rect fill="#f2f5e9" fill-opacity="0.5" stroke="#606060" stroke-width=".5" x="0" y="0" width="60" height="60"/>
                <use id="zoomplus" xlink:href="#zoomPlus" x="17" y="9" onmousedown="handleZoom(evt,'in')"/>
                <use id="zoomminus" xlink:href="#zoomMin" x="42" y="9" onmousedown="handleZoom(evt,'out')"/>
                <use id="reset" xlink:href="#resetDef" x="30" y="36" onmousedown="handleReset()"/>
                <g id="arrowUp" xlink:href="#dirArrow" transform="translate(30 24)" onmousedown="handlePan(0,-1)">
                  <use xlink:href="#rim" fill="#404040">
                        <set attributeName="fill" to="#808080" begin="arrowUp.mouseover" end="arrowUp.mouseout"/>
                  </use>
                  <path fill="none" stroke="white" stroke-width="1.5" d="M0,-3.0v7 M-2.5,-0.5L0,-3.0L2.5,-0.5"/>
                </g>
                <g id="arrowRight" xlink:href="#dirArrow" transform="rotate(90) translate(36 -43)" onmousedown="handlePan(1,0)">
                  <use xlink:href="#rim" fill="#404040">
                        <set attributeName="fill" to="#808080" begin="arrowRight.mouseover" end="arrowRight.mouseout"/>
                  </use>
                  <path fill="none" stroke="white" stroke-width="1.5" d="M0,-3.0v7 M-2.5,-0.5L0,-3.0L2.5,-0.5"/>
                </g>
                <g id="arrowDown" xlink:href="#dirArrow" transform="rotate(180) translate(-30 -48)" onmousedown="handlePan(0,1)">
                  <use xlink:href="#rim" fill="#404040">
                        <set attributeName="fill" to="#808080" begin="arrowDown.mouseover" end="arrowDown.mouseout"/>
                  </use>
                  <path fill="none" stroke="white" stroke-width="1.5" d="M0,-3.0v7 M-2.5,-0.5L0,-3.0L2.5,-0.5"/>
                </g>
                <g id="arrowLeft" xlink:href="#dirArrow" transform="rotate(270) translate(-36 17)" onmousedown="handlePan(-1,0)">
                  <use xlink:href="#rim" fill="#404040">
                        <set attributeName="fill" to="#808080" begin="arrowLeft.mouseover" end="arrowLeft.mouseout"/>
                  </use>
                  <path fill="none" stroke="white" stroke-width="1.5" d="M0,-3.0v7 M-2.5,-0.5L0,-3.0L2.5,-0.5"/>
                </g>
        </g>
        <svg viewBox="0 0 15 15" width="100%" height="30px" preserveAspectRatio="xMaxYMin meet">
         <g id="arrow_out" transform="scale(0.3 0.3)">
          <a xlink:href="TaskDiagnostics_8cxx__incl_org.svg" target="_base">
           <rect id="button" ry="5" rx="5" y="6" x="6" height="38" width="38"
                fill="#f2f5e9" fill-opacity="0.5" stroke="#606060" stroke-width="1.0"/>
           <path id="arrow"
             d="M 11.500037,31.436501 C 11.940474,20.09759 22.043105,11.32322 32.158766,21.979434 L 37.068811,17.246167 C 37.068811,17.246167 37.088388,32 37.088388,32 L 22.160133,31.978069 C 22.160133,31.978069 26.997745,27.140456 26.997745,27.140456 C 18.528582,18.264221 13.291696,25.230495 11.500037,31.436501 z"
             style="fill:#404040;"/>
          </a>
         </g>
        </svg>
</svg>
