<?xml version="1.0" encoding="UTF-8" standalone="no"?>
<!DOCTYPE svg PUBLIC "-//W3C//DTD SVG 1.1//EN"
 "http://www.w3.org/Graphics/SVG/1.1/DTD/svg11.dtd">
<!-- Generated by graphviz version 2.38.0 (20140413.2041)
 -->
<!-- Title: Framework/include/QualityControl/TaskRunner.h Pages: 1 -->
<!--zoomable 285 -->
<svg id="main" version="1.1" xmlns="http://www.w3.org/2000/svg" xmlns:xlink="http://www.w3.org/1999/xlink" xml:space="preserve" onload="init(evt)">
<style type="text/css"><![CDATA[
.edge:hover path { stroke: red; }
.edge:hover polygon { stroke: red; fill: red; }
]]></style>
<script type="text/javascript"><![CDATA[
var edges = document.getElementsByTagName('g');
if (edges && edges.length) {
  for (var i=0;i<edges.length;i++) {
    if (edges[i].id.substr(0,4)=='edge') {
      edges[i].setAttribute('class','edge');
    }
  }
}
]]></script>
        <defs>
                <circle id="rim" cx="0" cy="0" r="7"/>
                <circle id="rim2" cx="0" cy="0" r="3.5"/>
                <g id="zoomPlus">
                        <use xlink:href="#rim" fill="#404040">
                                <set attributeName="fill" to="#808080" begin="zoomplus.mouseover" end="zoomplus.mouseout"/>
                        </use>
                        <path d="M-4,0h8M0,-4v8" fill="none" stroke="white" stroke-width="1.5" pointer-events="none"/>
                </g>
                <g id="zoomMin">
                        <use xlink:href="#rim" fill="#404040">
                                <set attributeName="fill" to="#808080" begin="zoomminus.mouseover" end="zoomminus.mouseout"/>
                        </use>
                        <path d="M-4,0h8" fill="none" stroke="white" stroke-width="1.5" pointer-events="none"/>
                </g>
                <g id="dirArrow">
                        <path fill="none" stroke="white" stroke-width="1.5" d="M0,-3.0v7 M-2.5,-0.5L0,-3.0L2.5,-0.5"/>
                </g>
               <g id="resetDef">
                       <use xlink:href="#rim2" fill="#404040">
                               <set attributeName="fill" to="#808080" begin="reset.mouseover" end="reset.mouseout"/>
                       </use>
               </g>
        </defs>

<script type="text/javascript">
var viewWidth = 2181;
var viewHeight = 285;
var sectionId = 'dynsection-0';
</script>
<script xlink:href="svgpan.js"/>
<svg id="graph" class="graph">
<g id="viewport">
<title>Framework/include/QualityControl/TaskRunner.h</title>
<!-- Node1 -->
<g id="node1" class="node"><title>Node1</title>
<polygon fill="#bfbfbf" stroke="black" points="628,-246.5 628,-276.5 761,-276.5 761,-246.5 628,-246.5"/>
<text text-anchor="start" x="636" y="-264.5" font-family="Helvetica,sans-Serif" font-size="10.00">Framework/include/Quality</text>
<text text-anchor="middle" x="694.5" y="-253.5" font-family="Helvetica,sans-Serif" font-size="10.00">Control/TaskRunner.h</text>
</g>
<!-- Node2 -->
<g id="node2" class="node"><title>Node2</title>
<polygon fill="none" stroke="#bfbfbf" points="0,-179.5 0,-209.5 101,-209.5 101,-179.5 0,-179.5"/>
<text text-anchor="start" x="8" y="-197.5" font-family="Helvetica,sans-Serif" font-size="10.00">boost/property_tree</text>
<text text-anchor="middle" x="50.5" y="-186.5" font-family="Helvetica,sans-Serif" font-size="10.00">/ptree.hpp</text>
</g>
<!-- Node1&#45;&gt;Node2 -->
<g id="edge1" class="edge"><title>Node1&#45;&gt;Node2</title>
<path fill="none" stroke="midnightblue" d="M627.973,-258.015C521.013,-253.301 304.14,-240.787 111.172,-209.93"/>
<polygon fill="midnightblue" stroke="midnightblue" points="111.56,-206.447 101.129,-208.304 110.441,-213.357 111.56,-206.447"/>
</g>
<!-- Node3 -->
<g id="node3" class="node"><title>Node3</title>
<polygon fill="none" stroke="#bfbfbf" points="119.5,-185 119.5,-204 211.5,-204 211.5,-185 119.5,-185"/>
<text text-anchor="middle" x="165.5" y="-192" font-family="Helvetica,sans-Serif" font-size="10.00">Common/Timer.h</text>
</g>
<!-- Node1&#45;&gt;Node3 -->
<g id="edge2" class="edge"><title>Node1&#45;&gt;Node3</title>
<path fill="none" stroke="midnightblue" d="M627.709,-256.587C535.521,-250.461 364.359,-236.469 220.5,-210 215.292,-209.042 209.853,-207.849 204.507,-206.561"/>
<polygon fill="midnightblue" stroke="midnightblue" points="204.983,-203.071 194.429,-204.006 203.262,-209.857 204.983,-203.071"/>
</g>
<!-- Node4 -->
<g id="node4" class="node"><title>Node4</title>
<polygon fill="none" stroke="#bfbfbf" points="229.5,-185 229.5,-204 327.5,-204 327.5,-185 229.5,-185"/>
<text text-anchor="middle" x="278.5" y="-192" font-family="Helvetica,sans-Serif" font-size="10.00">Framework/Task.h</text>
</g>
<!-- Node1&#45;&gt;Node4 -->
<g id="edge3" class="edge"><title>Node1&#45;&gt;Node4</title>
<path fill="none" stroke="midnightblue" d="M627.841,-253.216C555.683,-244.838 437.383,-229.67 336.5,-210 331.088,-208.945 325.424,-207.703 319.847,-206.398"/>
<polygon fill="midnightblue" stroke="midnightblue" points="320.516,-202.959 309.973,-204.006 318.867,-209.762 320.516,-202.959"/>
</g>
<!-- Node5 -->
<g id="node5" class="node"><title>Node5</title>
<polygon fill="none" stroke="#bfbfbf" points="345.5,-185 345.5,-204 509.5,-204 509.5,-185 345.5,-185"/>
<text text-anchor="middle" x="427.5" y="-192" font-family="Helvetica,sans-Serif" font-size="10.00">Framework/DataProcessorSpec.h</text>
</g>
<!-- Node1&#45;&gt;Node5 -->
<g id="edge4" class="edge"><title>Node1&#45;&gt;Node5</title>
<path fill="none" stroke="midnightblue" d="M636.894,-246.476C587.581,-234.471 517.58,-217.43 472.35,-206.419"/>
<polygon fill="midnightblue" stroke="midnightblue" points="473.077,-202.993 462.533,-204.029 471.421,-209.795 473.077,-202.993"/>
</g>
<!-- Node6 -->
<g id="node6" class="node"><title>Node6</title>
<polygon fill="none" stroke="#bfbfbf" points="528,-185 528,-204 681,-204 681,-185 528,-185"/>
<text text-anchor="middle" x="604.5" y="-192" font-family="Helvetica,sans-Serif" font-size="10.00">Framework/CompletionPolicy.h</text>
</g>
<!-- Node1&#45;&gt;Node6 -->
<g id="edge5" class="edge"><title>Node1&#45;&gt;Node6</title>
<path fill="none" stroke="midnightblue" d="M674.971,-246.396C660.018,-235.597 639.47,-220.756 624.421,-209.887"/>
<polygon fill="midnightblue" stroke="midnightblue" points="626.435,-207.025 616.279,-204.007 622.337,-212.699 626.435,-207.025"/>
</g>
<!-- Node7 -->
<g id="node7" class="node"><title>Node7</title>
<polygon fill="none" stroke="#bfbfbf" points="699.5,-185 699.5,-204 869.5,-204 869.5,-185 699.5,-185"/>
<text text-anchor="middle" x="784.5" y="-192" font-family="Helvetica,sans-Serif" font-size="10.00">Framework/EndOfStreamContext.h</text>
</g>
<!-- Node1&#45;&gt;Node7 -->
<g id="edge6" class="edge"><title>Node1&#45;&gt;Node7</title>
<path fill="none" stroke="midnightblue" d="M714.029,-246.396C728.982,-235.597 749.53,-220.756 764.579,-209.887"/>
<polygon fill="midnightblue" stroke="midnightblue" points="766.663,-212.699 772.721,-204.007 762.565,-207.025 766.663,-212.699"/>
</g>
<!-- Node8 -->
<g id="node8" class="node"><title>Node8</title>
<polygon fill="none" stroke="#bfbfbf" points="888,-185 888,-204 1005,-204 1005,-185 888,-185"/>
<text text-anchor="middle" x="946.5" y="-192" font-family="Helvetica,sans-Serif" font-size="10.00">Headers/DataHeader.h</text>
</g>
<!-- Node1&#45;&gt;Node8 -->
<g id="edge7" class="edge"><title>Node1&#45;&gt;Node8</title>
<path fill="none" stroke="midnightblue" d="M748.87,-246.476C795.217,-234.521 860.926,-217.573 903.63,-206.558"/>
<polygon fill="midnightblue" stroke="midnightblue" points="904.626,-209.915 913.435,-204.029 902.878,-203.137 904.626,-209.915"/>
</g>
<!-- Node9 -->
<g id="node9" class="node"><title>Node9</title>
<polygon fill="none" stroke="#bfbfbf" points="1062,-123.5 1062,-142.5 1187,-142.5 1187,-123.5 1062,-123.5"/>
<text text-anchor="middle" x="1124.5" y="-130.5" font-family="Helvetica,sans-Serif" font-size="10.00">Framework/InitContext.h</text>
</g>
<!-- Node1&#45;&gt;Node9 -->
<g id="edge8" class="edge"><title>Node1&#45;&gt;Node9</title>
<path fill="none" stroke="midnightblue" d="M761.325,-255.938C849.304,-249.084 998.556,-234.278 1047.5,-210 1075.01,-196.353 1098.79,-169.137 1112.38,-151.252"/>
<polygon fill="midnightblue" stroke="midnightblue" points="1115.44,-153.004 1118.53,-142.87 1109.79,-148.865 1115.44,-153.004"/>
</g>
<!-- Node10 -->
<g id="node10" class="node"><title>Node10</title>
<g id="a_node10"><a xlink:href="TaskConfig_8h.html" target="_top" xlink:title="QualityControl/TaskConfig.h">
<polygon fill="none" stroke="black" points="1150.5,-62 1150.5,-81 1290.5,-81 1290.5,-62 1150.5,-62"/>
<text text-anchor="middle" x="1220.5" y="-69" font-family="Helvetica,sans-Serif" font-size="10.00">QualityControl/TaskConfig.h</text>
</a>
</g>
</g>
<!-- Node1&#45;&gt;Node10 -->
<g id="edge9" class="edge"><title>Node1&#45;&gt;Node10</title>
<path fill="none" stroke="midnightblue" d="M761.163,-257.254C842.752,-252.056 974.842,-239.292 1013.5,-210 1047.42,-184.298 1021.41,-150.958 1053.5,-123 1077.61,-101.994 1110.23,-89.7249 1140.25,-82.5593"/>
<polygon fill="midnightblue" stroke="midnightblue" points="1141.31,-85.9085 1150.31,-80.3196 1139.79,-79.0757 1141.31,-85.9085"/>
</g>
<!-- Node13 -->
<g id="node13" class="node"><title>Node13</title>
<g id="a_node13"><a xlink:href="TaskInterface_8h.html" target="_top" xlink:title="QualityControl/TaskInterface.h">
<polygon fill="none" stroke="black" points="1528.5,-185 1528.5,-204 1678.5,-204 1678.5,-185 1528.5,-185"/>
<text text-anchor="middle" x="1603.5" y="-192" font-family="Helvetica,sans-Serif" font-size="10.00">QualityControl/TaskInterface.h</text>
</a>
</g>
</g>
<!-- Node1&#45;&gt;Node13 -->
<g id="edge12" class="edge"><title>Node1&#45;&gt;Node13</title>
<path fill="none" stroke="midnightblue" d="M761.341,-255.72C923.627,-244.116 1338.31,-214.463 1518.15,-201.603"/>
<polygon fill="midnightblue" stroke="midnightblue" points="1518.63,-205.078 1528.36,-200.873 1518.13,-198.095 1518.63,-205.078"/>
</g>
<!-- Node11 -->
<g id="node11" class="node"><title>Node11</title>
<polygon fill="none" stroke="#bfbfbf" points="1279,-0.5 1279,-19.5 1320,-19.5 1320,-0.5 1279,-0.5"/>
<text text-anchor="middle" x="1299.5" y="-7.5" font-family="Helvetica,sans-Serif" font-size="10.00">string</text>
</g>
<!-- Node10&#45;&gt;Node11 -->
<g id="edge10" class="edge"><title>Node10&#45;&gt;Node11</title>
<path fill="none" stroke="midnightblue" d="M1231.82,-61.9751C1244.37,-52.5199 1264.85,-37.0961 1280,-25.6871"/>
<polygon fill="midnightblue" stroke="midnightblue" points="1282.32,-28.321 1288.2,-19.5091 1278.11,-22.7295 1282.32,-28.321"/>
</g>
<!-- Node12 -->
<g id="node12" class="node"><title>Node12</title>
<polygon fill="none" stroke="#bfbfbf" points="1131,-0.5 1131,-19.5 1214,-19.5 1214,-0.5 1131,-0.5"/>
<text text-anchor="middle" x="1172.5" y="-7.5" font-family="Helvetica,sans-Serif" font-size="10.00">unordered_map</text>
</g>
<!-- Node10&#45;&gt;Node12 -->
<g id="edge11" class="edge"><title>Node10&#45;&gt;Node12</title>
<path fill="none" stroke="midnightblue" d="M1213.62,-61.9751C1206.35,-52.9617 1194.7,-38.5246 1185.66,-27.3118"/>
<polygon fill="midnightblue" stroke="midnightblue" points="1188.37,-25.0946 1179.36,-19.5091 1182.92,-29.4898 1188.37,-25.0946"/>
</g>
<!-- Node13&#45;&gt;Node9 -->
<g id="edge17" class="edge"><title>Node13&#45;&gt;Node9</title>
<path fill="none" stroke="midnightblue" d="M1534.87,-184.975C1445.23,-173.841 1288.96,-154.429 1197.31,-143.044"/>
<polygon fill="midnightblue" stroke="midnightblue" points="1197.64,-139.558 1187.28,-141.798 1196.77,-146.504 1197.64,-139.558"/>
</g>
<!-- Node13&#45;&gt;Node11 -->
<g id="edge15" class="edge"><title>Node13&#45;&gt;Node11</title>
<path fill="none" stroke="midnightblue" d="M1528.49,-188.179C1459.24,-181.744 1363.07,-168.45 1335.5,-143 1303.59,-113.547 1298.9,-58.8452 1298.82,-29.9754"/>
<polygon fill="midnightblue" stroke="midnightblue" points="1302.33,-29.7043 1298.99,-19.6472 1295.33,-29.5874 1302.33,-29.7043"/>
</g>
<!-- Node13&#45;&gt;Node12 -->
<g id="edge16" class="edge"><title>Node13&#45;&gt;Node12</title>
<path fill="none" stroke="midnightblue" d="M1540.85,-184.977C1482.36,-176.431 1392.88,-161.848 1316.5,-143 1276.86,-133.217 1165.57,-119.98 1141.5,-87 1128.05,-68.5737 1143.55,-43.4715 1157.04,-27.2493"/>
<polygon fill="midnightblue" stroke="midnightblue" points="1159.75,-29.4678 1163.76,-19.658 1154.51,-24.8307 1159.75,-29.4678"/>
</g>
<!-- Node14 -->
<g id="node14" class="node"><title>Node14</title>
<polygon fill="none" stroke="#bfbfbf" points="1711,-0.5 1711,-19.5 1746,-19.5 1746,-0.5 1711,-0.5"/>
<text text-anchor="middle" x="1728.5" y="-7.5" font-family="Helvetica,sans-Serif" font-size="10.00">map</text>
</g>
<!-- Node13&#45;&gt;Node14 -->
<g id="edge13" class="edge"><title>Node13&#45;&gt;Node14</title>
<path fill="none" stroke="midnightblue" d="M1678.62,-191.991C1821.39,-188.355 2120.59,-176.753 2152.5,-143 2179.07,-114.896 2180.59,-84.551 2154.5,-56 2126,-24.8091 1831.36,-28.5941 1756.17,-19.1411"/>
<polygon fill="midnightblue" stroke="midnightblue" points="1756.49,-15.6477 1746.06,-17.5029 1755.37,-22.5575 1756.49,-15.6477"/>
</g>
<!-- Node15 -->
<g id="node15" class="node"><title>Node15</title>
<polygon fill="none" stroke="#bfbfbf" points="1759.5,-62 1759.5,-81 1811.5,-81 1811.5,-62 1759.5,-62"/>
<text text-anchor="middle" x="1785.5" y="-69" font-family="Helvetica,sans-Serif" font-size="10.00">memory</text>
</g>
<!-- Node13&#45;&gt;Node15 -->
<g id="edge14" class="edge"><title>Node13&#45;&gt;Node15</title>
<path fill="none" stroke="midnightblue" d="M1678.56,-193.461C1769.11,-191.629 1913.46,-182.397 1947.5,-143 2003.83,-77.8026 2012.18,-147.411 1826.5,-87 1824.05,-86.2029 1821.52,-85.3606 1818.99,-84.4994"/>
<polygon fill="midnightblue" stroke="midnightblue" points="1819.87,-81.1023 1809.28,-81.1393 1817.58,-87.7174 1819.87,-81.1023"/>
</g>
<!-- Node16 -->
<g id="node16" class="node"><title>Node16</title>
<polygon fill="none" stroke="#bfbfbf" points="1523.5,-123.5 1523.5,-142.5 1683.5,-142.5 1683.5,-123.5 1523.5,-123.5"/>
<text text-anchor="middle" x="1603.5" y="-130.5" font-family="Helvetica,sans-Serif" font-size="10.00">Framework/ProcessingContext.h</text>
</g>
<!-- Node13&#45;&gt;Node16 -->
<g id="edge18" class="edge"><title>Node13&#45;&gt;Node16</title>
<path fill="none" stroke="midnightblue" d="M1603.5,-184.975C1603.5,-176.58 1603.5,-163.481 1603.5,-152.663"/>
<polygon fill="midnightblue" stroke="midnightblue" points="1607,-152.509 1603.5,-142.509 1600,-152.509 1607,-152.509"/>
</g>
<!-- Node17 -->
<g id="node17" class="node"><title>Node17</title>
<polygon fill="none" stroke="#bfbfbf" points="1702,-123.5 1702,-142.5 1797,-142.5 1797,-123.5 1702,-123.5"/>
<text text-anchor="middle" x="1749.5" y="-130.5" font-family="Helvetica,sans-Serif" font-size="10.00">CCDB/CcdbApi.h</text>
</g>
<!-- Node13&#45;&gt;Node17 -->
<g id="edge19" class="edge"><title>Node13&#45;&gt;Node17</title>
<path fill="none" stroke="midnightblue" d="M1624.42,-184.975C1649.25,-174.857 1690.84,-157.905 1719.19,-146.351"/>
<polygon fill="midnightblue" stroke="midnightblue" points="1720.68,-149.524 1728.62,-142.509 1718.04,-143.042 1720.68,-149.524"/>
</g>
<!-- Node18 -->
<g id="node18" class="node"><title>Node18</title>
<g id="a_node18"><a xlink:href="Activity_8h.html" target="_top" xlink:title="QualityControl/Activity.h">
<polygon fill="none" stroke="black" points="1815,-123.5 1815,-142.5 1938,-142.5 1938,-123.5 1815,-123.5"/>
<text text-anchor="middle" x="1876.5" y="-130.5" font-family="Helvetica,sans-Serif" font-size="10.00">QualityControl/Activity.h</text>
</a>
</g>
</g>
<!-- Node13&#45;&gt;Node18 -->
<g id="edge20" class="edge"><title>Node13&#45;&gt;Node18</title>
<path fill="none" stroke="midnightblue" d="M1642.61,-184.975C1691.37,-174.349 1774.71,-156.185 1827.62,-144.652"/>
<polygon fill="midnightblue" stroke="midnightblue" points="1828.43,-148.058 1837.46,-142.509 1826.94,-141.219 1828.43,-148.058"/>
</g>
<!-- Node19 -->
<g id="node19" class="node"><title>Node19</title>
<g id="a_node19"><a xlink:href="ObjectsManager_8h.html" target="_top" xlink:title="QualityControl/ObjectsManager.h">
<polygon fill="none" stroke="black" points="1344,-123.5 1344,-142.5 1505,-142.5 1505,-123.5 1344,-123.5"/>
<text text-anchor="middle" x="1424.5" y="-130.5" font-family="Helvetica,sans-Serif" font-size="10.00">QualityControl/ObjectsManager.h</text>
</a>
</g>
</g>
<!-- Node13&#45;&gt;Node19 -->
<g id="edge21" class="edge"><title>Node13&#45;&gt;Node19</title>
<path fill="none" stroke="midnightblue" d="M1577.85,-184.975C1546.88,-174.68 1494.63,-157.31 1459.85,-145.75"/>
<polygon fill="midnightblue" stroke="midnightblue" points="1460.69,-142.342 1450.1,-142.509 1458.48,-148.985 1460.69,-142.342"/>
</g>
<!-- Node27 -->
<g id="node27" class="node"><title>Node27</title>
<g id="a_node27"><a xlink:href="QcInfoLogger_8h.html" target="_top" xlink:title="QualityControl/QcInfoLogger.h">
<polygon fill="none" stroke="black" points="1994,-123.5 1994,-142.5 2143,-142.5 2143,-123.5 1994,-123.5"/>
<text text-anchor="middle" x="2068.5" y="-130.5" font-family="Helvetica,sans-Serif" font-size="10.00">QualityControl/QcInfoLogger.h</text>
</a>
</g>
</g>
<!-- Node13&#45;&gt;Node27 -->
<g id="edge34" class="edge"><title>Node13&#45;&gt;Node27</title>
<path fill="none" stroke="midnightblue" d="M1670.12,-184.975C1755.24,-174.084 1902.24,-155.274 1991.9,-143.802"/>
<polygon fill="midnightblue" stroke="midnightblue" points="1992.53,-147.25 2002,-142.509 1991.64,-140.307 1992.53,-147.25"/>
</g>
<!-- Node19&#45;&gt;Node10 -->
<g id="edge31" class="edge"><title>Node19&#45;&gt;Node10</title>
<path fill="none" stroke="midnightblue" d="M1395.27,-123.475C1359.6,-113.07 1299.14,-95.4367 1259.52,-83.8801"/>
<polygon fill="midnightblue" stroke="midnightblue" points="1260.25,-80.4492 1249.67,-81.0091 1258.29,-87.1692 1260.25,-80.4492"/>
</g>
<!-- Node19&#45;&gt;Node11 -->
<g id="edge32" class="edge"><title>Node19&#45;&gt;Node11</title>
<path fill="none" stroke="midnightblue" d="M1415.51,-123.298C1394.61,-103.066 1342.5,-52.6217 1315.81,-26.7893"/>
<polygon fill="midnightblue" stroke="midnightblue" points="1318.03,-24.0636 1308.41,-19.6232 1313.16,-29.0932 1318.03,-24.0636"/>
</g>
<!-- Node19&#45;&gt;Node15 -->
<g id="edge33" class="edge"><title>Node19&#45;&gt;Node15</title>
<path fill="none" stroke="midnightblue" d="M1493.49,-123.484C1571.65,-113.599 1694.05,-97.3369 1739.5,-87 1743.34,-86.1266 1747.32,-85.0848 1751.26,-83.9658"/>
<polygon fill="midnightblue" stroke="midnightblue" points="1752.31,-87.3073 1760.88,-81.0776 1750.29,-80.6034 1752.31,-87.3073"/>
</g>
<!-- Node20 -->
<g id="node20" class="node"><title>Node20</title>
<g id="a_node20"><a xlink:href="MonitorObject_8h.html" target="_top" xlink:title="QualityControl/MonitorObject.h">
<polygon fill="none" stroke="black" points="1395,-62 1395,-81 1546,-81 1546,-62 1395,-62"/>
<text text-anchor="middle" x="1470.5" y="-69" font-family="Helvetica,sans-Serif" font-size="10.00">QualityControl/MonitorObject.h</text>
</a>
</g>
</g>
<!-- Node19&#45;&gt;Node20 -->
<g id="edge22" class="edge"><title>Node19&#45;&gt;Node20</title>
<path fill="none" stroke="midnightblue" d="M1431.09,-123.475C1437.99,-114.55 1449,-100.307 1457.63,-89.1425"/>
<polygon fill="midnightblue" stroke="midnightblue" points="1460.57,-91.0612 1463.92,-81.0091 1455.04,-86.7798 1460.57,-91.0612"/>
</g>
<!-- Node24 -->
<g id="node24" class="node"><title>Node24</title>
<g id="a_node24"><a xlink:href="MonitorObjectCollection_8h.html" target="_top" xlink:title="QualityControl/MonitorObject\lCollection.h">
<polygon fill="none" stroke="black" points="1587,-56.5 1587,-86.5 1730,-86.5 1730,-56.5 1587,-56.5"/>
<text text-anchor="start" x="1595" y="-74.5" font-family="Helvetica,sans-Serif" font-size="10.00">QualityControl/MonitorObject</text>
<text text-anchor="middle" x="1658.5" y="-63.5" font-family="Helvetica,sans-Serif" font-size="10.00">Collection.h</text>
</a>
</g>
</g>
<!-- Node19&#45;&gt;Node24 -->
<g id="edge28" class="edge"><title>Node19&#45;&gt;Node24</title>
<path fill="none" stroke="midnightblue" d="M1458.03,-123.475C1493.27,-114.513 1549.61,-100.188 1593.6,-89.0032"/>
<polygon fill="midnightblue" stroke="midnightblue" points="1594.52,-92.3794 1603.35,-86.523 1592.8,-85.5953 1594.52,-92.3794"/>
</g>
<!-- Node20&#45;&gt;Node11 -->
<g id="edge23" class="edge"><title>Node20&#45;&gt;Node11</title>
<path fill="none" stroke="midnightblue" d="M1446,-61.9751C1415.37,-51.3169 1362.94,-33.0748 1329.81,-21.548"/>
<polygon fill="midnightblue" stroke="midnightblue" points="1330.79,-18.1828 1320.2,-18.2021 1328.49,-24.794 1330.79,-18.1828"/>
</g>
<!-- Node20&#45;&gt;Node14 -->
<g id="edge24" class="edge"><title>Node20&#45;&gt;Node14</title>
<path fill="none" stroke="midnightblue" d="M1517.56,-61.9605C1562.6,-53.4077 1632.56,-39.1323 1701.28,-20.1025"/>
<polygon fill="midnightblue" stroke="midnightblue" points="1702.28,-23.4566 1710.97,-17.3859 1700.39,-16.7167 1702.28,-23.4566"/>
</g>
<!-- Node21 -->
<g id="node21" class="node"><title>Node21</title>
<polygon fill="none" stroke="#bfbfbf" points="1549.5,-0.5 1549.5,-19.5 1605.5,-19.5 1605.5,-0.5 1549.5,-0.5"/>
<text text-anchor="middle" x="1577.5" y="-7.5" font-family="Helvetica,sans-Serif" font-size="10.00">Rtypes.h</text>
</g>
<!-- Node20&#45;&gt;Node21 -->
<g id="edge25" class="edge"><title>Node20&#45;&gt;Node21</title>
<path fill="none" stroke="midnightblue" d="M1485.83,-61.9751C1503.47,-52.1664 1532.66,-35.9346 1553.36,-24.425"/>
<polygon fill="midnightblue" stroke="midnightblue" points="1555.16,-27.4279 1562.2,-19.5091 1551.76,-21.3102 1555.16,-27.4279"/>
</g>
<!-- Node22 -->
<g id="node22" class="node"><title>Node22</title>
<polygon fill="none" stroke="#bfbfbf" points="1338,-0.5 1338,-19.5 1397,-19.5 1397,-0.5 1338,-0.5"/>
<text text-anchor="middle" x="1367.5" y="-7.5" font-family="Helvetica,sans-Serif" font-size="10.00">TObject.h</text>
</g>
<!-- Node20&#45;&gt;Node22 -->
<g id="edge26" class="edge"><title>Node20&#45;&gt;Node22</title>
<path fill="none" stroke="midnightblue" d="M1455.74,-61.9751C1438.84,-52.2106 1410.92,-36.0807 1391.01,-24.5808"/>
<polygon fill="midnightblue" stroke="midnightblue" points="1392.64,-21.4805 1382.23,-19.5091 1389.14,-27.5419 1392.64,-21.4805"/>
</g>
<!-- Node23 -->
<g id="node23" class="node"><title>Node23</title>
<polygon fill="none" stroke="#bfbfbf" points="1415.5,-0.5 1415.5,-19.5 1531.5,-19.5 1531.5,-0.5 1415.5,-0.5"/>
<text text-anchor="middle" x="1473.5" y="-7.5" font-family="Helvetica,sans-Serif" font-size="10.00">Common/Exceptions.h</text>
</g>
<!-- Node20&#45;&gt;Node23 -->
<g id="edge27" class="edge"><title>Node20&#45;&gt;Node23</title>
<path fill="none" stroke="midnightblue" d="M1470.93,-61.9751C1471.35,-53.5803 1472.01,-40.4806 1472.56,-29.6631"/>
<polygon fill="midnightblue" stroke="midnightblue" points="1476.06,-29.6727 1473.07,-19.5091 1469.07,-29.3201 1476.06,-29.6727"/>
</g>
<!-- Node25 -->
<g id="node25" class="node"><title>Node25</title>
<polygon fill="none" stroke="#bfbfbf" points="1624,-0.5 1624,-19.5 1693,-19.5 1693,-0.5 1624,-0.5"/>
<text text-anchor="middle" x="1658.5" y="-7.5" font-family="Helvetica,sans-Serif" font-size="10.00">TObjArray.h</text>
</g>
<!-- Node24&#45;&gt;Node25 -->
<g id="edge29" class="edge"><title>Node24&#45;&gt;Node25</title>
<path fill="none" stroke="midnightblue" d="M1658.5,-56.3993C1658.5,-48.4664 1658.5,-38.458 1658.5,-29.8583"/>
<polygon fill="midnightblue" stroke="midnightblue" points="1662,-29.6577 1658.5,-19.6578 1655,-29.6578 1662,-29.6577"/>
</g>
<!-- Node26 -->
<g id="node26" class="node"><title>Node26</title>
<polygon fill="none" stroke="#bfbfbf" points="1764.5,-0.5 1764.5,-19.5 1892.5,-19.5 1892.5,-0.5 1764.5,-0.5"/>
<text text-anchor="middle" x="1828.5" y="-7.5" font-family="Helvetica,sans-Serif" font-size="10.00">Mergers/MergeInterface.h</text>
</g>
<!-- Node24&#45;&gt;Node26 -->
<g id="edge30" class="edge"><title>Node24&#45;&gt;Node26</title>
<path fill="none" stroke="midnightblue" d="M1698.79,-56.3993C1727.82,-46.238 1766.58,-32.6716 1794.15,-23.0221"/>
<polygon fill="midnightblue" stroke="midnightblue" points="1795.48,-26.2649 1803.76,-19.6578 1793.17,-19.6578 1795.48,-26.2649"/>
</g>
<!-- Node28 -->
<g id="node28" class="node"><title>Node28</title>
<polygon fill="none" stroke="#bfbfbf" points="1835.5,-62 1835.5,-81 1965.5,-81 1965.5,-62 1835.5,-62"/>
<text text-anchor="middle" x="1900.5" y="-69" font-family="Helvetica,sans-Serif" font-size="10.00">InfoLogger/InfoLogger.hxx</text>
</g>
<!-- Node27&#45;&gt;Node28 -->
<g id="edge35" class="edge"><title>Node27&#45;&gt;Node28</title>
<path fill="none" stroke="midnightblue" d="M2044.43,-123.475C2015.49,-113.225 1966.74,-95.9593 1934.1,-84.3994"/>
<polygon fill="midnightblue" stroke="midnightblue" points="1935.12,-81.0484 1924.53,-81.0091 1932.78,-87.6468 1935.12,-81.0484"/>
</g>
<!-- Node29 -->
<g id="node29" class="node"><title>Node29</title>
<polygon fill="none" stroke="#bfbfbf" points="1983.5,-62 1983.5,-81 2145.5,-81 2145.5,-62 1983.5,-62"/>
<text text-anchor="middle" x="2064.5" y="-69" font-family="Helvetica,sans-Serif" font-size="10.00">InfoLogger/InfoLoggerMacros.hxx</text>
</g>
<!-- Node27&#45;&gt;Node29 -->
<g id="edge36" class="edge"><title>Node27&#45;&gt;Node29</title>
<path fill="none" stroke="midnightblue" d="M2067.93,-123.475C2067.36,-115.08 2066.48,-101.981 2065.75,-91.1631"/>
<polygon fill="midnightblue" stroke="midnightblue" points="2069.24,-90.7518 2065.07,-81.0091 2062.25,-91.2214 2069.24,-90.7518"/>
</g>
</g>
</svg>
        <g id="navigator" transform="translate(0 0)" fill="#404254">
                <rect fill="#f2f5e9" fill-opacity="0.5" stroke="#606060" stroke-width=".5" x="0" y="0" width="60" height="60"/>
                <use id="zoomplus" xlink:href="#zoomPlus" x="17" y="9" onmousedown="handleZoom(evt,'in')"/>
                <use id="zoomminus" xlink:href="#zoomMin" x="42" y="9" onmousedown="handleZoom(evt,'out')"/>
                <use id="reset" xlink:href="#resetDef" x="30" y="36" onmousedown="handleReset()"/>
                <g id="arrowUp" xlink:href="#dirArrow" transform="translate(30 24)" onmousedown="handlePan(0,-1)">
                  <use xlink:href="#rim" fill="#404040">
                        <set attributeName="fill" to="#808080" begin="arrowUp.mouseover" end="arrowUp.mouseout"/>
                  </use>
                  <path fill="none" stroke="white" stroke-width="1.5" d="M0,-3.0v7 M-2.5,-0.5L0,-3.0L2.5,-0.5"/>
                </g>
                <g id="arrowRight" xlink:href="#dirArrow" transform="rotate(90) translate(36 -43)" onmousedown="handlePan(1,0)">
                  <use xlink:href="#rim" fill="#404040">
                        <set attributeName="fill" to="#808080" begin="arrowRight.mouseover" end="arrowRight.mouseout"/>
                  </use>
                  <path fill="none" stroke="white" stroke-width="1.5" d="M0,-3.0v7 M-2.5,-0.5L0,-3.0L2.5,-0.5"/>
                </g>
                <g id="arrowDown" xlink:href="#dirArrow" transform="rotate(180) translate(-30 -48)" onmousedown="handlePan(0,1)">
                  <use xlink:href="#rim" fill="#404040">
                        <set attributeName="fill" to="#808080" begin="arrowDown.mouseover" end="arrowDown.mouseout"/>
                  </use>
                  <path fill="none" stroke="white" stroke-width="1.5" d="M0,-3.0v7 M-2.5,-0.5L0,-3.0L2.5,-0.5"/>
                </g>
                <g id="arrowLeft" xlink:href="#dirArrow" transform="rotate(270) translate(-36 17)" onmousedown="handlePan(-1,0)">
                  <use xlink:href="#rim" fill="#404040">
                        <set attributeName="fill" to="#808080" begin="arrowLeft.mouseover" end="arrowLeft.mouseout"/>
                  </use>
                  <path fill="none" stroke="white" stroke-width="1.5" d="M0,-3.0v7 M-2.5,-0.5L0,-3.0L2.5,-0.5"/>
                </g>
        </g>
        <svg viewBox="0 0 15 15" width="100%" height="30px" preserveAspectRatio="xMaxYMin meet">
         <g id="arrow_out" transform="scale(0.3 0.3)">
          <a xlink:href="TaskRunner_8h__incl_org.svg" target="_base">
           <rect id="button" ry="5" rx="5" y="6" x="6" height="38" width="38"
                fill="#f2f5e9" fill-opacity="0.5" stroke="#606060" stroke-width="1.0"/>
           <path id="arrow"
             d="M 11.500037,31.436501 C 11.940474,20.09759 22.043105,11.32322 32.158766,21.979434 L 37.068811,17.246167 C 37.068811,17.246167 37.088388,32 37.088388,32 L 22.160133,31.978069 C 22.160133,31.978069 26.997745,27.140456 26.997745,27.140456 C 18.528582,18.264221 13.291696,25.230495 11.500037,31.436501 z"
             style="fill:#404040;"/>
          </a>
         </g>
        </svg>
</svg>
