<?xml version="1.0" encoding="UTF-8" standalone="no"?>
<!DOCTYPE svg PUBLIC "-//W3C//DTD SVG 1.1//EN"
 "http://www.w3.org/Graphics/SVG/1.1/DTD/svg11.dtd">
<!-- Generated by graphviz version 2.38.0 (20140413.2041)
 -->
<!-- Title: Framework/include/QualityControl/TaskFactory.h Pages: 1 -->
<!--zoomable 274 -->
<svg id="main" version="1.1" xmlns="http://www.w3.org/2000/svg" xmlns:xlink="http://www.w3.org/1999/xlink" xml:space="preserve" onload="init(evt)">
<style type="text/css"><![CDATA[
.edge:hover path { stroke: red; }
.edge:hover polygon { stroke: red; fill: red; }
]]></style>
<script type="text/javascript"><![CDATA[
var edges = document.getElementsByTagName('g');
if (edges && edges.length) {
  for (var i=0;i<edges.length;i++) {
    if (edges[i].id.substr(0,4)=='edge') {
      edges[i].setAttribute('class','edge');
    }
  }
}
]]></script>
        <defs>
                <circle id="rim" cx="0" cy="0" r="7"/>
                <circle id="rim2" cx="0" cy="0" r="3.5"/>
                <g id="zoomPlus">
                        <use xlink:href="#rim" fill="#404040">
                                <set attributeName="fill" to="#808080" begin="zoomplus.mouseover" end="zoomplus.mouseout"/>
                        </use>
                        <path d="M-4,0h8M0,-4v8" fill="none" stroke="white" stroke-width="1.5" pointer-events="none"/>
                </g>
                <g id="zoomMin">
                        <use xlink:href="#rim" fill="#404040">
                                <set attributeName="fill" to="#808080" begin="zoomminus.mouseover" end="zoomminus.mouseout"/>
                        </use>
                        <path d="M-4,0h8" fill="none" stroke="white" stroke-width="1.5" pointer-events="none"/>
                </g>
                <g id="dirArrow">
                        <path fill="none" stroke="white" stroke-width="1.5" d="M0,-3.0v7 M-2.5,-0.5L0,-3.0L2.5,-0.5"/>
                </g>
               <g id="resetDef">
                       <use xlink:href="#rim2" fill="#404040">
                               <set attributeName="fill" to="#808080" begin="reset.mouseover" end="reset.mouseout"/>
                       </use>
               </g>
        </defs>

<script type="text/javascript">
var viewWidth = 1393;
var viewHeight = 274;
var sectionId = 'dynsection-0';
</script>
<script xlink:href="svgpan.js"/>
<svg id="graph" class="graph">
<g id="viewport">
<title>Framework/include/QualityControl/TaskFactory.h</title>
<!-- Node1 -->
<g id="node1" class="node"><title>Node1</title>
<polygon fill="#bfbfbf" stroke="black" points="485,-235.5 485,-265.5 618,-265.5 618,-235.5 485,-235.5"/>
<text text-anchor="start" x="493" y="-253.5" font-family="Helvetica,sans-Serif" font-size="10.00">Framework/include/Quality</text>
<text text-anchor="middle" x="551.5" y="-242.5" font-family="Helvetica,sans-Serif" font-size="10.00">Control/TaskFactory.h</text>
</g>
<!-- Node2 -->
<g id="node2" class="node"><title>Node2</title>
<polygon fill="none" stroke="#bfbfbf" points="997.5,-62 997.5,-81 1049.5,-81 1049.5,-62 997.5,-62"/>
<text text-anchor="middle" x="1023.5" y="-69" font-family="Helvetica,sans-Serif" font-size="10.00">memory</text>
</g>
<!-- Node1&#45;&gt;Node2 -->
<g id="edge1" class="edge"><title>Node1&#45;&gt;Node2</title>
<path fill="none" stroke="midnightblue" d="M618.346,-244.333C735.951,-233.714 972.208,-205.026 1022.5,-143 1034.04,-128.769 1032.43,-107.08 1029.1,-91.5182"/>
<polygon fill="midnightblue" stroke="midnightblue" points="1032.4,-90.2887 1026.53,-81.464 1025.61,-92.0188 1032.4,-90.2887"/>
</g>
<!-- Node3 -->
<g id="node3" class="node"><title>Node3</title>
<g id="a_node3"><a xlink:href="TaskConfig_8h.html" target="_top" xlink:title="QualityControl/TaskConfig.h">
<polygon fill="none" stroke="black" points="20.5,-62 20.5,-81 160.5,-81 160.5,-62 20.5,-62"/>
<text text-anchor="middle" x="90.5" y="-69" font-family="Helvetica,sans-Serif" font-size="10.00">QualityControl/TaskConfig.h</text>
</a>
</g>
</g>
<!-- Node1&#45;&gt;Node3 -->
<g id="edge2" class="edge"><title>Node1&#45;&gt;Node3</title>
<path fill="none" stroke="midnightblue" d="M491.888,-235.445C422.419,-218.046 304.964,-185.444 209.5,-143 173.277,-126.895 134.285,-102.243 111.159,-86.7654"/>
<polygon fill="midnightblue" stroke="midnightblue" points="113.075,-83.8358 102.832,-81.128 109.151,-89.6324 113.075,-83.8358"/>
</g>
<!-- Node6 -->
<g id="node6" class="node"><title>Node6</title>
<g id="a_node6"><a xlink:href="TaskInterface_8h.html" target="_top" xlink:title="QualityControl/TaskInterface.h">
<polygon fill="none" stroke="black" points="476.5,-179.5 476.5,-198.5 626.5,-198.5 626.5,-179.5 476.5,-179.5"/>
<text text-anchor="middle" x="551.5" y="-186.5" font-family="Helvetica,sans-Serif" font-size="10.00">QualityControl/TaskInterface.h</text>
</a>
</g>
</g>
<!-- Node1&#45;&gt;Node6 -->
<g id="edge5" class="edge"><title>Node1&#45;&gt;Node6</title>
<path fill="none" stroke="midnightblue" d="M551.5,-235.399C551.5,-227.466 551.5,-217.458 551.5,-208.858"/>
<polygon fill="midnightblue" stroke="midnightblue" points="555,-208.658 551.5,-198.658 548,-208.658 555,-208.658"/>
</g>
<!-- Node4 -->
<g id="node4" class="node"><title>Node4</title>
<polygon fill="none" stroke="#bfbfbf" points="168,-0.5 168,-19.5 209,-19.5 209,-0.5 168,-0.5"/>
<text text-anchor="middle" x="188.5" y="-7.5" font-family="Helvetica,sans-Serif" font-size="10.00">string</text>
</g>
<!-- Node3&#45;&gt;Node4 -->
<g id="edge3" class="edge"><title>Node3&#45;&gt;Node4</title>
<path fill="none" stroke="midnightblue" d="M104.541,-61.9751C120.551,-52.2548 146.95,-36.2266 165.874,-24.7372"/>
<polygon fill="midnightblue" stroke="midnightblue" points="167.754,-27.6907 174.485,-19.5091 164.121,-21.7072 167.754,-27.6907"/>
</g>
<!-- Node5 -->
<g id="node5" class="node"><title>Node5</title>
<polygon fill="none" stroke="#bfbfbf" points="0,-0.5 0,-19.5 83,-19.5 83,-0.5 0,-0.5"/>
<text text-anchor="middle" x="41.5" y="-7.5" font-family="Helvetica,sans-Serif" font-size="10.00">unordered_map</text>
</g>
<!-- Node3&#45;&gt;Node5 -->
<g id="edge4" class="edge"><title>Node3&#45;&gt;Node5</title>
<path fill="none" stroke="midnightblue" d="M83.4795,-61.9751C76.0567,-52.9617 64.1673,-38.5246 54.9333,-27.3118"/>
<polygon fill="midnightblue" stroke="midnightblue" points="57.5664,-25.0034 48.5075,-19.5091 52.1628,-29.4534 57.5664,-25.0034"/>
</g>
<!-- Node6&#45;&gt;Node2 -->
<g id="edge7" class="edge"><title>Node6&#45;&gt;Node2</title>
<path fill="none" stroke="midnightblue" d="M626.519,-184.915C746.749,-179.318 972.044,-165.902 1000.5,-143 1015.98,-130.539 1021.16,-107.47 1022.82,-91.1179"/>
<polygon fill="midnightblue" stroke="midnightblue" points="1026.32,-91.2966 1023.5,-81.0835 1019.34,-90.8248 1026.32,-91.2966"/>
</g>
<!-- Node6&#45;&gt;Node4 -->
<g id="edge8" class="edge"><title>Node6&#45;&gt;Node4</title>
<path fill="none" stroke="midnightblue" d="M476.22,-186.497C393.2,-183.312 266.57,-173.444 230.5,-143 196.754,-114.518 189.81,-58.9814 188.581,-29.8562"/>
<polygon fill="midnightblue" stroke="midnightblue" points="192.078,-29.6939 188.344,-19.7789 185.08,-29.8583 192.078,-29.6939"/>
</g>
<!-- Node6&#45;&gt;Node5 -->
<g id="edge9" class="edge"><title>Node6&#45;&gt;Node5</title>
<path fill="none" stroke="midnightblue" d="M476.427,-185.867C341.431,-180.218 66.5911,-159.834 11.5,-87 -2.19983,-68.8881 12.9676,-43.707 26.2549,-27.3817"/>
<polygon fill="midnightblue" stroke="midnightblue" points="28.9735,-29.5888 32.8691,-19.7362 23.6795,-25.009 28.9735,-29.5888"/>
</g>
<!-- Node7 -->
<g id="node7" class="node"><title>Node7</title>
<polygon fill="none" stroke="#bfbfbf" points="227,-0.5 227,-19.5 262,-19.5 262,-0.5 227,-0.5"/>
<text text-anchor="middle" x="244.5" y="-7.5" font-family="Helvetica,sans-Serif" font-size="10.00">map</text>
</g>
<!-- Node6&#45;&gt;Node7 -->
<g id="edge6" class="edge"><title>Node6&#45;&gt;Node7</title>
<path fill="none" stroke="midnightblue" d="M476.209,-187.71C395.461,-185.613 274.847,-176.72 245.5,-143 218.006,-111.409 229.255,-57.6576 237.944,-29.4809"/>
<polygon fill="midnightblue" stroke="midnightblue" points="241.354,-30.317 241.173,-19.7237 234.709,-28.118 241.354,-30.317"/>
</g>
<!-- Node8 -->
<g id="node8" class="node"><title>Node8</title>
<polygon fill="none" stroke="#bfbfbf" points="255,-123.5 255,-142.5 380,-142.5 380,-123.5 255,-123.5"/>
<text text-anchor="middle" x="317.5" y="-130.5" font-family="Helvetica,sans-Serif" font-size="10.00">Framework/InitContext.h</text>
</g>
<!-- Node6&#45;&gt;Node8 -->
<g id="edge10" class="edge"><title>Node6&#45;&gt;Node8</title>
<path fill="none" stroke="midnightblue" d="M514.422,-179.444C473.772,-170.063 408.468,-154.993 364.316,-144.804"/>
<polygon fill="midnightblue" stroke="midnightblue" points="364.935,-141.355 354.405,-142.516 363.361,-148.175 364.935,-141.355"/>
</g>
<!-- Node9 -->
<g id="node9" class="node"><title>Node9</title>
<polygon fill="none" stroke="#bfbfbf" points="398.5,-123.5 398.5,-142.5 558.5,-142.5 558.5,-123.5 398.5,-123.5"/>
<text text-anchor="middle" x="478.5" y="-130.5" font-family="Helvetica,sans-Serif" font-size="10.00">Framework/ProcessingContext.h</text>
</g>
<!-- Node6&#45;&gt;Node9 -->
<g id="edge11" class="edge"><title>Node6&#45;&gt;Node9</title>
<path fill="none" stroke="midnightblue" d="M539.771,-179.324C528.663,-171.107 511.758,-158.602 498.517,-148.807"/>
<polygon fill="midnightblue" stroke="midnightblue" points="500.563,-145.967 490.442,-142.834 496.4,-151.595 500.563,-145.967"/>
</g>
<!-- Node10 -->
<g id="node10" class="node"><title>Node10</title>
<polygon fill="none" stroke="#bfbfbf" points="577,-123.5 577,-142.5 672,-142.5 672,-123.5 577,-123.5"/>
<text text-anchor="middle" x="624.5" y="-130.5" font-family="Helvetica,sans-Serif" font-size="10.00">CCDB/CcdbApi.h</text>
</g>
<!-- Node6&#45;&gt;Node10 -->
<g id="edge12" class="edge"><title>Node6&#45;&gt;Node10</title>
<path fill="none" stroke="midnightblue" d="M563.229,-179.324C574.337,-171.107 591.242,-158.602 604.483,-148.807"/>
<polygon fill="midnightblue" stroke="midnightblue" points="606.6,-151.595 612.558,-142.834 602.437,-145.967 606.6,-151.595"/>
</g>
<!-- Node11 -->
<g id="node11" class="node"><title>Node11</title>
<g id="a_node11"><a xlink:href="Activity_8h.html" target="_top" xlink:title="QualityControl/Activity.h">
<polygon fill="none" stroke="black" points="690,-123.5 690,-142.5 813,-142.5 813,-123.5 690,-123.5"/>
<text text-anchor="middle" x="751.5" y="-130.5" font-family="Helvetica,sans-Serif" font-size="10.00">QualityControl/Activity.h</text>
</a>
</g>
</g>
<!-- Node6&#45;&gt;Node11 -->
<g id="edge13" class="edge"><title>Node6&#45;&gt;Node11</title>
<path fill="none" stroke="midnightblue" d="M583.191,-179.444C617.568,-170.162 672.577,-155.309 710.289,-145.127"/>
<polygon fill="midnightblue" stroke="midnightblue" points="711.216,-148.502 719.958,-142.516 709.391,-141.744 711.216,-148.502"/>
</g>
<!-- Node12 -->
<g id="node12" class="node"><title>Node12</title>
<g id="a_node12"><a xlink:href="ObjectsManager_8h.html" target="_top" xlink:title="QualityControl/ObjectsManager.h">
<polygon fill="none" stroke="black" points="831,-123.5 831,-142.5 992,-142.5 992,-123.5 831,-123.5"/>
<text text-anchor="middle" x="911.5" y="-130.5" font-family="Helvetica,sans-Serif" font-size="10.00">QualityControl/ObjectsManager.h</text>
</a>
</g>
</g>
<!-- Node6&#45;&gt;Node12 -->
<g id="edge14" class="edge"><title>Node6&#45;&gt;Node12</title>
<path fill="none" stroke="midnightblue" d="M608.543,-179.444C672.661,-169.826 776.65,-154.228 844.561,-144.041"/>
<polygon fill="midnightblue" stroke="midnightblue" points="845.354,-147.461 854.724,-142.516 844.315,-140.539 845.354,-147.461"/>
</g>
<!-- Node20 -->
<g id="node20" class="node"><title>Node20</title>
<g id="a_node20"><a xlink:href="QcInfoLogger_8h.html" target="_top" xlink:title="QualityControl/QcInfoLogger.h">
<polygon fill="none" stroke="black" points="1086,-123.5 1086,-142.5 1235,-142.5 1235,-123.5 1086,-123.5"/>
<text text-anchor="middle" x="1160.5" y="-130.5" font-family="Helvetica,sans-Serif" font-size="10.00">QualityControl/QcInfoLogger.h</text>
</a>
</g>
</g>
<!-- Node6&#45;&gt;Node20 -->
<g id="edge27" class="edge"><title>Node6&#45;&gt;Node20</title>
<path fill="none" stroke="midnightblue" d="M626.786,-181.324C740.736,-171.22 956.335,-152.103 1075.68,-141.521"/>
<polygon fill="midnightblue" stroke="midnightblue" points="1076.21,-144.988 1085.86,-140.618 1075.59,-138.015 1076.21,-144.988"/>
</g>
<!-- Node12&#45;&gt;Node2 -->
<g id="edge26" class="edge"><title>Node12&#45;&gt;Node2</title>
<path fill="none" stroke="midnightblue" d="M927.547,-123.475C946.093,-113.622 976.84,-97.2883 998.522,-85.7697"/>
<polygon fill="midnightblue" stroke="midnightblue" points="1000.29,-88.7916 1007.48,-81.0091 997.01,-82.6098 1000.29,-88.7916"/>
</g>
<!-- Node12&#45;&gt;Node3 -->
<g id="edge24" class="edge"><title>Node12&#45;&gt;Node3</title>
<path fill="none" stroke="midnightblue" d="M830.558,-123.781C827.501,-123.51 824.473,-123.249 821.5,-123 584.457,-103.163 524.783,-103.731 287.5,-87 249.203,-84.2997 206.728,-81.1883 171.053,-78.5416"/>
<polygon fill="midnightblue" stroke="midnightblue" points="170.929,-75.0228 160.697,-77.7722 170.41,-82.0036 170.929,-75.0228"/>
</g>
<!-- Node12&#45;&gt;Node4 -->
<g id="edge25" class="edge"><title>Node12&#45;&gt;Node4</title>
<path fill="none" stroke="midnightblue" d="M830.556,-123.809C827.499,-123.53 824.472,-123.26 821.5,-123 607.496,-104.311 546.512,-144.386 339.5,-87 290.205,-73.335 238.039,-43.0475 209.761,-25.1068"/>
<polygon fill="midnightblue" stroke="midnightblue" points="211.427,-22.0162 201.126,-19.5377 207.633,-27.899 211.427,-22.0162"/>
</g>
<!-- Node13 -->
<g id="node13" class="node"><title>Node13</title>
<g id="a_node13"><a xlink:href="MonitorObject_8h.html" target="_top" xlink:title="QualityControl/MonitorObject.h">
<polygon fill="none" stroke="black" points="349,-62 349,-81 500,-81 500,-62 349,-62"/>
<text text-anchor="middle" x="424.5" y="-69" font-family="Helvetica,sans-Serif" font-size="10.00">QualityControl/MonitorObject.h</text>
</a>
</g>
</g>
<!-- Node12&#45;&gt;Node13 -->
<g id="edge15" class="edge"><title>Node12&#45;&gt;Node13</title>
<path fill="none" stroke="midnightblue" d="M841.725,-123.475C752.401,-112.562 597.998,-93.6974 504.156,-82.2322"/>
<polygon fill="midnightblue" stroke="midnightblue" points="504.496,-78.7478 494.146,-81.0091 503.647,-85.6961 504.496,-78.7478"/>
</g>
<!-- Node17 -->
<g id="node17" class="node"><title>Node17</title>
<g id="a_node17"><a xlink:href="MonitorObjectCollection_8h.html" target="_top" xlink:title="QualityControl/MonitorObject\lCollection.h">
<polygon fill="none" stroke="black" points="836,-56.5 836,-86.5 979,-86.5 979,-56.5 836,-56.5"/>
<text text-anchor="start" x="844" y="-74.5" font-family="Helvetica,sans-Serif" font-size="10.00">QualityControl/MonitorObject</text>
<text text-anchor="middle" x="907.5" y="-63.5" font-family="Helvetica,sans-Serif" font-size="10.00">Collection.h</text>
</a>
</g>
</g>
<!-- Node12&#45;&gt;Node17 -->
<g id="edge21" class="edge"><title>Node12&#45;&gt;Node17</title>
<path fill="none" stroke="midnightblue" d="M910.927,-123.475C910.456,-116.471 909.765,-106.192 909.127,-96.6956"/>
<polygon fill="midnightblue" stroke="midnightblue" points="912.606,-96.2657 908.443,-86.523 905.621,-96.7352 912.606,-96.2657"/>
</g>
<!-- Node13&#45;&gt;Node4 -->
<g id="edge16" class="edge"><title>Node13&#45;&gt;Node4</title>
<path fill="none" stroke="midnightblue" d="M386.546,-61.9804C346.927,-52.9236 282.794,-37.8051 218.886,-20.2682"/>
<polygon fill="midnightblue" stroke="midnightblue" points="219.62,-16.8399 209.049,-17.5488 217.755,-23.5869 219.62,-16.8399"/>
</g>
<!-- Node13&#45;&gt;Node7 -->
<g id="edge17" class="edge"><title>Node13&#45;&gt;Node7</title>
<path fill="none" stroke="midnightblue" d="M398.504,-61.9453C369.9,-52.527 322.316,-36.8426 271.979,-20.1519"/>
<polygon fill="midnightblue" stroke="midnightblue" points="272.81,-16.7401 262.216,-16.9137 270.606,-23.3841 272.81,-16.7401"/>
</g>
<!-- Node14 -->
<g id="node14" class="node"><title>Node14</title>
<polygon fill="none" stroke="#bfbfbf" points="414.5,-0.5 414.5,-19.5 470.5,-19.5 470.5,-0.5 414.5,-0.5"/>
<text text-anchor="middle" x="442.5" y="-7.5" font-family="Helvetica,sans-Serif" font-size="10.00">Rtypes.h</text>
</g>
<!-- Node13&#45;&gt;Node14 -->
<g id="edge18" class="edge"><title>Node13&#45;&gt;Node14</title>
<path fill="none" stroke="midnightblue" d="M427.079,-61.9751C429.645,-53.4919 433.665,-40.2043 436.957,-29.3222"/>
<polygon fill="midnightblue" stroke="midnightblue" points="440.38,-30.0942 439.926,-19.5091 433.68,-28.0672 440.38,-30.0942"/>
</g>
<!-- Node15 -->
<g id="node15" class="node"><title>Node15</title>
<polygon fill="none" stroke="#bfbfbf" points="489,-0.5 489,-19.5 548,-19.5 548,-0.5 489,-0.5"/>
<text text-anchor="middle" x="518.5" y="-7.5" font-family="Helvetica,sans-Serif" font-size="10.00">TObject.h</text>
</g>
<!-- Node13&#45;&gt;Node15 -->
<g id="edge19" class="edge"><title>Node13&#45;&gt;Node15</title>
<path fill="none" stroke="midnightblue" d="M437.968,-61.9751C453.185,-52.3431 478.187,-36.5175 496.301,-25.0517"/>
<polygon fill="midnightblue" stroke="midnightblue" points="498.479,-27.8149 505.057,-19.5091 494.736,-21.9002 498.479,-27.8149"/>
</g>
<!-- Node16 -->
<g id="node16" class="node"><title>Node16</title>
<polygon fill="none" stroke="#bfbfbf" points="280.5,-0.5 280.5,-19.5 396.5,-19.5 396.5,-0.5 280.5,-0.5"/>
<text text-anchor="middle" x="338.5" y="-7.5" font-family="Helvetica,sans-Serif" font-size="10.00">Common/Exceptions.h</text>
</g>
<!-- Node13&#45;&gt;Node16 -->
<g id="edge20" class="edge"><title>Node13&#45;&gt;Node16</title>
<path fill="none" stroke="midnightblue" d="M412.178,-61.9751C398.384,-52.4315 375.801,-36.8073 359.268,-25.3683"/>
<polygon fill="midnightblue" stroke="midnightblue" points="361.014,-22.3205 350.799,-19.5091 357.031,-28.077 361.014,-22.3205"/>
</g>
<!-- Node18 -->
<g id="node18" class="node"><title>Node18</title>
<polygon fill="none" stroke="#bfbfbf" points="814,-0.5 814,-19.5 883,-19.5 883,-0.5 814,-0.5"/>
<text text-anchor="middle" x="848.5" y="-7.5" font-family="Helvetica,sans-Serif" font-size="10.00">TObjArray.h</text>
</g>
<!-- Node17&#45;&gt;Node18 -->
<g id="edge22" class="edge"><title>Node17&#45;&gt;Node18</title>
<path fill="none" stroke="midnightblue" d="M893.518,-56.3993C884.768,-47.575 873.471,-36.1827 864.383,-27.0178"/>
<polygon fill="midnightblue" stroke="midnightblue" points="866.612,-24.2942 857.085,-19.6578 861.641,-29.2231 866.612,-24.2942"/>
</g>
<!-- Node19 -->
<g id="node19" class="node"><title>Node19</title>
<polygon fill="none" stroke="#bfbfbf" points="901.5,-0.5 901.5,-19.5 1029.5,-19.5 1029.5,-0.5 901.5,-0.5"/>
<text text-anchor="middle" x="965.5" y="-7.5" font-family="Helvetica,sans-Serif" font-size="10.00">Mergers/MergeInterface.h</text>
</g>
<!-- Node17&#45;&gt;Node19 -->
<g id="edge23" class="edge"><title>Node17&#45;&gt;Node19</title>
<path fill="none" stroke="midnightblue" d="M921.245,-56.3993C929.847,-47.575 940.952,-36.1827 949.886,-27.0178"/>
<polygon fill="midnightblue" stroke="midnightblue" points="952.586,-29.2616 957.06,-19.6578 947.574,-24.3755 952.586,-29.2616"/>
</g>
<!-- Node21 -->
<g id="node21" class="node"><title>Node21</title>
<polygon fill="none" stroke="#bfbfbf" points="1254.5,-62 1254.5,-81 1384.5,-81 1384.5,-62 1254.5,-62"/>
<text text-anchor="middle" x="1319.5" y="-69" font-family="Helvetica,sans-Serif" font-size="10.00">InfoLogger/InfoLogger.hxx</text>
</g>
<!-- Node20&#45;&gt;Node21 -->
<g id="edge28" class="edge"><title>Node20&#45;&gt;Node21</title>
<path fill="none" stroke="midnightblue" d="M1183.28,-123.475C1210.55,-113.269 1256.41,-96.108 1287.3,-84.5492"/>
<polygon fill="midnightblue" stroke="midnightblue" points="1288.62,-87.7919 1296.76,-81.0091 1286.17,-81.2359 1288.62,-87.7919"/>
</g>
<!-- Node22 -->
<g id="node22" class="node"><title>Node22</title>
<polygon fill="none" stroke="#bfbfbf" points="1074.5,-62 1074.5,-81 1236.5,-81 1236.5,-62 1074.5,-62"/>
<text text-anchor="middle" x="1155.5" y="-69" font-family="Helvetica,sans-Serif" font-size="10.00">InfoLogger/InfoLoggerMacros.hxx</text>
</g>
<!-- Node20&#45;&gt;Node22 -->
<g id="edge29" class="edge"><title>Node20&#45;&gt;Node22</title>
<path fill="none" stroke="midnightblue" d="M1159.78,-123.475C1159.08,-115.08 1157.98,-101.981 1157.07,-91.1631"/>
<polygon fill="midnightblue" stroke="midnightblue" points="1160.54,-90.6808 1156.22,-81.0091 1153.56,-91.2671 1160.54,-90.6808"/>
</g>
</g>
</svg>
        <g id="navigator" transform="translate(0 0)" fill="#404254">
                <rect fill="#f2f5e9" fill-opacity="0.5" stroke="#606060" stroke-width=".5" x="0" y="0" width="60" height="60"/>
                <use id="zoomplus" xlink:href="#zoomPlus" x="17" y="9" onmousedown="handleZoom(evt,'in')"/>
                <use id="zoomminus" xlink:href="#zoomMin" x="42" y="9" onmousedown="handleZoom(evt,'out')"/>
                <use id="reset" xlink:href="#resetDef" x="30" y="36" onmousedown="handleReset()"/>
                <g id="arrowUp" xlink:href="#dirArrow" transform="translate(30 24)" onmousedown="handlePan(0,-1)">
                  <use xlink:href="#rim" fill="#404040">
                        <set attributeName="fill" to="#808080" begin="arrowUp.mouseover" end="arrowUp.mouseout"/>
                  </use>
                  <path fill="none" stroke="white" stroke-width="1.5" d="M0,-3.0v7 M-2.5,-0.5L0,-3.0L2.5,-0.5"/>
                </g>
                <g id="arrowRight" xlink:href="#dirArrow" transform="rotate(90) translate(36 -43)" onmousedown="handlePan(1,0)">
                  <use xlink:href="#rim" fill="#404040">
                        <set attributeName="fill" to="#808080" begin="arrowRight.mouseover" end="arrowRight.mouseout"/>
                  </use>
                  <path fill="none" stroke="white" stroke-width="1.5" d="M0,-3.0v7 M-2.5,-0.5L0,-3.0L2.5,-0.5"/>
                </g>
                <g id="arrowDown" xlink:href="#dirArrow" transform="rotate(180) translate(-30 -48)" onmousedown="handlePan(0,1)">
                  <use xlink:href="#rim" fill="#404040">
                        <set attributeName="fill" to="#808080" begin="arrowDown.mouseover" end="arrowDown.mouseout"/>
                  </use>
                  <path fill="none" stroke="white" stroke-width="1.5" d="M0,-3.0v7 M-2.5,-0.5L0,-3.0L2.5,-0.5"/>
                </g>
                <g id="arrowLeft" xlink:href="#dirArrow" transform="rotate(270) translate(-36 17)" onmousedown="handlePan(-1,0)">
                  <use xlink:href="#rim" fill="#404040">
                        <set attributeName="fill" to="#808080" begin="arrowLeft.mouseover" end="arrowLeft.mouseout"/>
                  </use>
                  <path fill="none" stroke="white" stroke-width="1.5" d="M0,-3.0v7 M-2.5,-0.5L0,-3.0L2.5,-0.5"/>
                </g>
        </g>
        <svg viewBox="0 0 15 15" width="100%" height="30px" preserveAspectRatio="xMaxYMin meet">
         <g id="arrow_out" transform="scale(0.3 0.3)">
          <a xlink:href="TaskFactory_8h__incl_org.svg" target="_base">
           <rect id="button" ry="5" rx="5" y="6" x="6" height="38" width="38"
                fill="#f2f5e9" fill-opacity="0.5" stroke="#606060" stroke-width="1.0"/>
           <path id="arrow"
             d="M 11.500037,31.436501 C 11.940474,20.09759 22.043105,11.32322 32.158766,21.979434 L 37.068811,17.246167 C 37.068811,17.246167 37.088388,32 37.088388,32 L 22.160133,31.978069 C 22.160133,31.978069 26.997745,27.140456 26.997745,27.140456 C 18.528582,18.264221 13.291696,25.230495 11.500037,31.436501 z"
             style="fill:#404040;"/>
          </a>
         </g>
        </svg>
</svg>
