<?xml version="1.0" encoding="UTF-8" standalone="no"?>
<!DOCTYPE svg PUBLIC "-//W3C//DTD SVG 1.1//EN"
 "http://www.w3.org/Graphics/SVG/1.1/DTD/svg11.dtd">
<!-- Generated by graphviz version 2.38.0 (20140413.2041)
 -->
<!-- Title: Framework/include/QualityControl/TaskRunner.h Pages: 1 -->
<svg width="1170pt" height="106pt"
 viewBox="0.00 0.00 1170.00 106.00" xmlns="http://www.w3.org/2000/svg" xmlns:xlink="http://www.w3.org/1999/xlink">
<g id="graph0" class="graph" transform="scale(1 1) rotate(0) translate(4 102)">
<title>Framework/include/QualityControl/TaskRunner.h</title>
<!-- Node1 -->
<g id="node1" class="node"><title>Node1</title>
<polygon fill="#bfbfbf" stroke="black" points="498.5,-67.5 498.5,-97.5 631.5,-97.5 631.5,-67.5 498.5,-67.5"/>
<text text-anchor="start" x="506.5" y="-85.5" font-family="Helvetica,sans-Serif" font-size="10.00">Framework/include/Quality</text>
<text text-anchor="middle" x="565" y="-74.5" font-family="Helvetica,sans-Serif" font-size="10.00">Control/TaskRunner.h</text>
</g>
<!-- Node2 -->
<g id="node2" class="node"><title>Node2</title>
<polygon fill="none" stroke="#bfbfbf" points="0,-6 0,-25 132,-25 132,-6 0,-6"/>
<text text-anchor="middle" x="66" y="-13" font-family="Helvetica,sans-Serif" font-size="10.00">Framework/src/Check.cxx</text>
</g>
<!-- Node1&#45;&gt;Node2 -->
<g id="edge1" class="edge"><title>Node1&#45;&gt;Node2</title>
<path fill="none" stroke="midnightblue" d="M488.238,-74.047C403.129,-65.3908 261.885,-49.8591 141,-31 129.993,-29.2828 118.135,-27.1314 107.168,-25.0156"/>
<polygon fill="midnightblue" stroke="midnightblue" points="488.032,-77.5439 498.334,-75.0683 488.737,-70.5795 488.032,-77.5439"/>
</g>
<!-- Node3 -->
<g id="node3" class="node"><title>Node3</title>
<g id="a_node3"><a xlink:href="CheckRunner_8cxx.html" target="_top" xlink:title="Framework/src/CheckRunner.cxx">
<polygon fill="none" stroke="black" points="150,-6 150,-25 314,-25 314,-6 150,-6"/>
<text text-anchor="middle" x="232" y="-13" font-family="Helvetica,sans-Serif" font-size="10.00">Framework/src/CheckRunner.cxx</text>
</a>
</g>
</g>
<!-- Node1&#45;&gt;Node3 -->
<g id="edge2" class="edge"><title>Node1&#45;&gt;Node3</title>
<path fill="none" stroke="midnightblue" d="M488.479,-66.5635C422.536,-53.6918 329.679,-35.5666 275.672,-25.0245"/>
<polygon fill="midnightblue" stroke="midnightblue" points="487.927,-70.0218 498.413,-68.5025 489.269,-63.1515 487.927,-70.0218"/>
</g>
<!-- Node4 -->
<g id="node4" class="node"><title>Node4</title>
<g id="a_node4"><a xlink:href="InfrastructureGenerator_8cxx.html" target="_top" xlink:title="Framework/src/Infrastructure\lGenerator.cxx">
<polygon fill="none" stroke="black" points="332.5,-0.5 332.5,-30.5 475.5,-30.5 475.5,-0.5 332.5,-0.5"/>
<text text-anchor="start" x="340.5" y="-18.5" font-family="Helvetica,sans-Serif" font-size="10.00">Framework/src/Infrastructure</text>
<text text-anchor="middle" x="404" y="-7.5" font-family="Helvetica,sans-Serif" font-size="10.00">Generator.cxx</text>
</a>
</g>
</g>
<!-- Node1&#45;&gt;Node4 -->
<g id="edge3" class="edge"><title>Node1&#45;&gt;Node4</title>
<path fill="none" stroke="midnightblue" d="M520.525,-63.5442C494.762,-53.143 462.797,-40.238 438.866,-30.5765"/>
<polygon fill="midnightblue" stroke="midnightblue" points="519.482,-66.8977 530.065,-67.396 522.103,-60.4067 519.482,-66.8977"/>
</g>
<!-- Node5 -->
<g id="node5" class="node"><title>Node5</title>
<g id="a_node5"><a xlink:href="runBasic_8cxx.html" target="_top" xlink:title="This is an executable showing QC Task&#39;s usage in Data Processing Layer. ">
<polygon fill="none" stroke="black" points="494,-6 494,-25 636,-25 636,-6 494,-6"/>
<text text-anchor="middle" x="565" y="-13" font-family="Helvetica,sans-Serif" font-size="10.00">Framework/src/runBasic.cxx</text>
</a>
</g>
</g>
<!-- Node1&#45;&gt;Node5 -->
<g id="edge4" class="edge"><title>Node1&#45;&gt;Node5</title>
<path fill="none" stroke="midnightblue" d="M565,-57.2495C565,-46.017 565,-33.3767 565,-25.1945"/>
<polygon fill="midnightblue" stroke="midnightblue" points="561.5,-57.3959 565,-67.396 568.5,-57.396 561.5,-57.3959"/>
</g>
<!-- Node6 -->
<g id="node6" class="node"><title>Node6</title>
<g id="a_node6"><a xlink:href="TaskRunner_8cxx.html" target="_top" xlink:title="Framework/src/TaskRunner.cxx">
<polygon fill="none" stroke="black" points="654.5,-6 654.5,-25 811.5,-25 811.5,-6 654.5,-6"/>
<text text-anchor="middle" x="733" y="-13" font-family="Helvetica,sans-Serif" font-size="10.00">Framework/src/TaskRunner.cxx</text>
</a>
</g>
</g>
<!-- Node1&#45;&gt;Node6 -->
<g id="edge5" class="edge"><title>Node1&#45;&gt;Node6</title>
<path fill="none" stroke="midnightblue" d="M610.789,-63.7838C643.364,-51.1807 685.68,-34.8082 711.013,-25.007"/>
<polygon fill="midnightblue" stroke="midnightblue" points="609.517,-60.5233 601.453,-67.396 612.043,-67.0517 609.517,-60.5233"/>
</g>
<!-- Node7 -->
<g id="node7" class="node"><title>Node7</title>
<g id="a_node7"><a xlink:href="TaskRunnerFactory_8cxx.html" target="_top" xlink:title="Framework/src/TaskRunner\lFactory.cxx">
<polygon fill="none" stroke="black" points="830,-0.5 830,-30.5 968,-30.5 968,-0.5 830,-0.5"/>
<text text-anchor="start" x="838" y="-18.5" font-family="Helvetica,sans-Serif" font-size="10.00">Framework/src/TaskRunner</text>
<text text-anchor="middle" x="899" y="-7.5" font-family="Helvetica,sans-Serif" font-size="10.00">Factory.cxx</text>
</a>
</g>
</g>
<!-- Node1&#45;&gt;Node7 -->
<g id="edge6" class="edge"><title>Node1&#45;&gt;Node7</title>
<path fill="none" stroke="midnightblue" d="M641.772,-66.5593C698.447,-55.5298 774.933,-40.6447 829.744,-29.9781"/>
<polygon fill="midnightblue" stroke="midnightblue" points="640.934,-63.1566 631.787,-68.5025 642.272,-70.0277 640.934,-63.1566"/>
</g>
<!-- Node8 -->
<g id="node8" class="node"><title>Node8</title>
<g id="a_node8"><a xlink:href="testTaskRunner_8cxx.html" target="_top" xlink:title="Framework/test/testTaskRunner.cxx">
<polygon fill="none" stroke="black" points="986,-6 986,-25 1162,-25 1162,-6 986,-6"/>
<text text-anchor="middle" x="1074" y="-13" font-family="Helvetica,sans-Serif" font-size="10.00">Framework/test/testTaskRunner.cxx</text>
</a>
</g>
</g>
<!-- Node1&#45;&gt;Node8 -->
<g id="edge7" class="edge"><title>Node1&#45;&gt;Node8</title>
<path fill="none" stroke="midnightblue" d="M641.872,-72.6924C724.686,-63.0604 860.299,-46.8718 977,-31 990.498,-29.1643 1005.03,-27.0598 1018.64,-25.0339"/>
<polygon fill="midnightblue" stroke="midnightblue" points="641.32,-69.2329 631.791,-73.8629 642.128,-76.1862 641.32,-69.2329"/>
</g>
</g>
</svg>
