<?xml version="1.0" encoding="UTF-8" standalone="no"?>
<!DOCTYPE svg PUBLIC "-//W3C//DTD SVG 1.1//EN"
 "http://www.w3.org/Graphics/SVG/1.1/DTD/svg11.dtd">
<!-- Generated by graphviz version 2.38.0 (20140413.2041)
 -->
<!-- Title: Framework/include/QualityControl/TaskRunnerFactory.h Pages: 1 -->
<svg width="294pt" height="95pt"
 viewBox="0.00 0.00 293.50 95.00" xmlns="http://www.w3.org/2000/svg" xmlns:xlink="http://www.w3.org/1999/xlink">
<g id="graph0" class="graph" transform="scale(1 1) rotate(0) translate(4 91)">
<title>Framework/include/QualityControl/TaskRunnerFactory.h</title>
<!-- Node1 -->
<g id="node1" class="node"><title>Node1</title>
<polygon fill="#bfbfbf" stroke="black" points="8.5,-56.5 8.5,-86.5 154.5,-86.5 154.5,-56.5 8.5,-56.5"/>
<text text-anchor="start" x="16.5" y="-74.5" font-family="Helvetica,sans-Serif" font-size="10.00">Framework/include/Quality</text>
<text text-anchor="middle" x="81.5" y="-63.5" font-family="Helvetica,sans-Serif" font-size="10.00">Control/TaskRunnerFactory.h</text>
</g>
<!-- Node2 -->
<g id="node2" class="node"><title>Node2</title>
<polygon fill="none" stroke="#bfbfbf" points="0,-0.5 0,-19.5 41,-19.5 41,-0.5 0,-0.5"/>
<text text-anchor="middle" x="20.5" y="-7.5" font-family="Helvetica,sans-Serif" font-size="10.00">string</text>
</g>
<!-- Node1&#45;&gt;Node2 -->
<g id="edge1" class="edge"><title>Node1&#45;&gt;Node2</title>
<path fill="none" stroke="midnightblue" d="M67.0439,-56.3993C57.9057,-47.4859 46.0814,-35.9523 36.6376,-26.7408"/>
<polygon fill="midnightblue" stroke="midnightblue" points="38.9785,-24.1348 29.376,-19.6578 34.0907,-29.1458 38.9785,-24.1348"/>
</g>
<!-- Node3 -->
<g id="node3" class="node"><title>Node3</title>
<polygon fill="none" stroke="#bfbfbf" points="59.5,-0.5 59.5,-19.5 103.5,-19.5 103.5,-0.5 59.5,-0.5"/>
<text text-anchor="middle" x="81.5" y="-7.5" font-family="Helvetica,sans-Serif" font-size="10.00">vector</text>
</g>
<!-- Node1&#45;&gt;Node3 -->
<g id="edge2" class="edge"><title>Node1&#45;&gt;Node3</title>
<path fill="none" stroke="midnightblue" d="M81.5,-56.3993C81.5,-48.4664 81.5,-38.458 81.5,-29.8583"/>
<polygon fill="midnightblue" stroke="midnightblue" points="85.0001,-29.6577 81.5,-19.6578 78.0001,-29.6578 85.0001,-29.6577"/>
</g>
<!-- Node4 -->
<g id="node4" class="node"><title>Node4</title>
<polygon fill="none" stroke="#bfbfbf" points="121.5,-0.5 121.5,-19.5 285.5,-19.5 285.5,-0.5 121.5,-0.5"/>
<text text-anchor="middle" x="203.5" y="-7.5" font-family="Helvetica,sans-Serif" font-size="10.00">Framework/DataProcessorSpec.h</text>
</g>
<!-- Node1&#45;&gt;Node4 -->
<g id="edge3" class="edge"><title>Node1&#45;&gt;Node4</title>
<path fill="none" stroke="midnightblue" d="M110.412,-56.3993C130.516,-46.5945 157.121,-33.6194 176.738,-24.052"/>
<polygon fill="midnightblue" stroke="midnightblue" points="178.294,-27.1872 185.748,-19.6578 175.226,-20.8955 178.294,-27.1872"/>
</g>
</g>
</svg>
