<?xml version="1.0" encoding="UTF-8" standalone="no"?>
<!DOCTYPE svg PUBLIC "-//W3C//DTD SVG 1.1//EN"
 "http://www.w3.org/Graphics/SVG/1.1/DTD/svg11.dtd">
<!-- Generated by graphviz version 2.38.0 (20140413.2041)
 -->
<!-- Title: Framework/include/QualityControl/TaskFactory.h Pages: 1 -->
<svg width="2547pt" height="106pt"
 viewBox="0.00 0.00 2546.50 106.00" xmlns="http://www.w3.org/2000/svg" xmlns:xlink="http://www.w3.org/1999/xlink">
<g id="graph0" class="graph" transform="scale(1 1) rotate(0) translate(4 102)">
<title>Framework/include/QualityControl/TaskFactory.h</title>
<!-- Node1 -->
<g id="node1" class="node"><title>Node1</title>
<polygon fill="#bfbfbf" stroke="black" points="1185.5,-67.5 1185.5,-97.5 1318.5,-97.5 1318.5,-67.5 1185.5,-67.5"/>
<text text-anchor="start" x="1193.5" y="-85.5" font-family="Helvetica,sans-Serif" font-size="10.00">Framework/include/Quality</text>
<text text-anchor="middle" x="1252" y="-74.5" font-family="Helvetica,sans-Serif" font-size="10.00">Control/TaskFactory.h</text>
</g>
<!-- Node2 -->
<g id="node2" class="node"><title>Node2</title>
<g id="a_node2"><a xlink:href="TaskFactory_8cxx.html" target="_top" xlink:title="Framework/src/TaskFactory.cxx">
<polygon fill="none" stroke="black" points="0,-6 0,-25 158,-25 158,-6 0,-6"/>
<text text-anchor="middle" x="79" y="-13" font-family="Helvetica,sans-Serif" font-size="10.00">Framework/src/TaskFactory.cxx</text>
</a>
</g>
</g>
<!-- Node1&#45;&gt;Node2 -->
<g id="edge1" class="edge"><title>Node1&#45;&gt;Node2</title>
<path fill="none" stroke="midnightblue" d="M1175.4,-81.004C997.72,-79.1839 543.896,-70.685 167,-31 153.141,-29.5407 138.15,-27.3154 124.536,-25.0429"/>
<polygon fill="midnightblue" stroke="midnightblue" points="1175.4,-84.5041 1185.44,-81.1026 1175.47,-77.5044 1175.4,-84.5041"/>
</g>
<!-- Node3 -->
<g id="node3" class="node"><title>Node3</title>
<g id="a_node3"><a xlink:href="TaskRunner_8cxx.html" target="_top" xlink:title="Framework/src/TaskRunner.cxx">
<polygon fill="none" stroke="black" points="176.5,-6 176.5,-25 333.5,-25 333.5,-6 176.5,-6"/>
<text text-anchor="middle" x="255" y="-13" font-family="Helvetica,sans-Serif" font-size="10.00">Framework/src/TaskRunner.cxx</text>
</a>
</g>
</g>
<!-- Node1&#45;&gt;Node3 -->
<g id="edge2" class="edge"><title>Node1&#45;&gt;Node3</title>
<path fill="none" stroke="midnightblue" d="M1175.26,-80.081C1018.33,-76.5542 649.586,-65.0628 342,-31 328.455,-29.5 313.812,-27.2904 300.473,-25.0459"/>
<polygon fill="midnightblue" stroke="midnightblue" points="1175.21,-83.5807 1185.29,-80.302 1175.37,-76.5824 1175.21,-83.5807"/>
</g>
<!-- Node4 -->
<g id="node4" class="node"><title>Node4</title>
<g id="a_node4"><a xlink:href="testTaskInterface_8cxx.html" target="_top" xlink:title="Framework/test/testTaskInterface.cxx">
<polygon fill="none" stroke="black" points="351.5,-6 351.5,-25 534.5,-25 534.5,-6 351.5,-6"/>
<text text-anchor="middle" x="443" y="-13" font-family="Helvetica,sans-Serif" font-size="10.00">Framework/test/testTaskInterface.cxx</text>
</a>
</g>
</g>
<!-- Node1&#45;&gt;Node4 -->
<g id="edge3" class="edge"><title>Node1&#45;&gt;Node4</title>
<path fill="none" stroke="midnightblue" d="M1175.23,-77.8234C1045.11,-71.1893 773.046,-55.5784 544,-31 528.764,-29.3651 512.294,-27.1796 497.162,-25.0022"/>
<polygon fill="midnightblue" stroke="midnightblue" points="1175.32,-81.3324 1185.48,-78.3426 1175.67,-74.3414 1175.32,-81.3324"/>
</g>
<!-- Node5 -->
<g id="node5" class="node"><title>Node5</title>
<g id="a_node5"><a xlink:href="testEMCAL_8cxx.html" target="_top" xlink:title="Modules/EMCAL/test\l/testEMCAL.cxx">
<polygon fill="none" stroke="black" points="553,-0.5 553,-30.5 663,-30.5 663,-0.5 553,-0.5"/>
<text text-anchor="start" x="561" y="-18.5" font-family="Helvetica,sans-Serif" font-size="10.00">Modules/EMCAL/test</text>
<text text-anchor="middle" x="608" y="-7.5" font-family="Helvetica,sans-Serif" font-size="10.00">/testEMCAL.cxx</text>
</a>
</g>
</g>
<!-- Node1&#45;&gt;Node5 -->
<g id="edge4" class="edge"><title>Node1&#45;&gt;Node5</title>
<path fill="none" stroke="midnightblue" d="M1174.96,-78.1294C1063.47,-72.4972 850.918,-58.9245 672,-31 669.073,-30.5432 666.081,-30.0297 663.066,-29.4756"/>
<polygon fill="midnightblue" stroke="midnightblue" points="1174.94,-81.6326 1185.1,-78.6338 1175.29,-74.6413 1174.94,-81.6326"/>
</g>
<!-- Node6 -->
<g id="node6" class="node"><title>Node6</title>
<polygon fill="none" stroke="#bfbfbf" points="681,-0.5 681,-30.5 795,-30.5 795,-0.5 681,-0.5"/>
<text text-anchor="start" x="689" y="-18.5" font-family="Helvetica,sans-Serif" font-size="10.00">Modules/Example/test</text>
<text text-anchor="middle" x="738" y="-7.5" font-family="Helvetica,sans-Serif" font-size="10.00">/testFactory.cxx</text>
</g>
<!-- Node1&#45;&gt;Node6 -->
<g id="edge5" class="edge"><title>Node1&#45;&gt;Node6</title>
<path fill="none" stroke="midnightblue" d="M1175.22,-75.2927C1085.73,-67.4922 933.557,-52.4739 804,-31 801.107,-30.5204 798.149,-29.9962 795.167,-29.4407"/>
<polygon fill="midnightblue" stroke="midnightblue" points="1175.02,-78.7882 1185.29,-76.1624 1175.62,-71.8142 1175.02,-78.7882"/>
</g>
<!-- Node7 -->
<g id="node7" class="node"><title>Node7</title>
<g id="a_node7"><a xlink:href="testQcExample_8cxx.html" target="_top" xlink:title="Modules/Example/test\l/testQcExample.cxx">
<polygon fill="none" stroke="black" points="813,-0.5 813,-30.5 927,-30.5 927,-0.5 813,-0.5"/>
<text text-anchor="start" x="821" y="-18.5" font-family="Helvetica,sans-Serif" font-size="10.00">Modules/Example/test</text>
<text text-anchor="middle" x="870" y="-7.5" font-family="Helvetica,sans-Serif" font-size="10.00">/testQcExample.cxx</text>
</a>
</g>
</g>
<!-- Node1&#45;&gt;Node7 -->
<g id="edge6" class="edge"><title>Node1&#45;&gt;Node7</title>
<path fill="none" stroke="midnightblue" d="M1175.19,-70.4947C1111.07,-61.0026 1017.35,-46.4224 936,-31 933.118,-30.4537 930.17,-29.8758 927.196,-29.2777"/>
<polygon fill="midnightblue" stroke="midnightblue" points="1174.82,-73.9775 1185.23,-71.9737 1175.84,-67.0523 1174.82,-73.9775"/>
</g>
<!-- Node8 -->
<g id="node8" class="node"><title>Node8</title>
<polygon fill="none" stroke="#bfbfbf" points="945.5,-6 945.5,-25 1106.5,-25 1106.5,-6 945.5,-6"/>
<text text-anchor="middle" x="1026" y="-13" font-family="Helvetica,sans-Serif" font-size="10.00">Modules/FT0/test/testQcFT0.cxx</text>
</g>
<!-- Node1&#45;&gt;Node8 -->
<g id="edge7" class="edge"><title>Node1&#45;&gt;Node8</title>
<path fill="none" stroke="midnightblue" d="M1193.49,-64.6705C1149.32,-51.967 1090.55,-35.064 1055.65,-25.0287"/>
<polygon fill="midnightblue" stroke="midnightblue" points="1192.66,-68.0755 1203.24,-67.476 1194.6,-61.3482 1192.66,-68.0755"/>
</g>
<!-- Node9 -->
<g id="node9" class="node"><title>Node9</title>
<polygon fill="none" stroke="#bfbfbf" points="1124.5,-0.5 1124.5,-30.5 1233.5,-30.5 1233.5,-0.5 1124.5,-0.5"/>
<text text-anchor="start" x="1132.5" y="-18.5" font-family="Helvetica,sans-Serif" font-size="10.00">Modules/HMPID/test</text>
<text text-anchor="middle" x="1179" y="-7.5" font-family="Helvetica,sans-Serif" font-size="10.00">/testQcHMPID.cxx</text>
</g>
<!-- Node1&#45;&gt;Node9 -->
<g id="edge8" class="edge"><title>Node1&#45;&gt;Node9</title>
<path fill="none" stroke="midnightblue" d="M1228.53,-60.5978C1217.5,-50.7831 1204.66,-39.3442 1194.81,-30.5765"/>
<polygon fill="midnightblue" stroke="midnightblue" points="1226.36,-63.3599 1236.16,-67.396 1231.02,-58.132 1226.36,-63.3599"/>
</g>
<!-- Node10 -->
<g id="node10" class="node"><title>Node10</title>
<g id="a_node10"><a xlink:href="testITS_8cxx.html" target="_top" xlink:title="Modules/ITS/test/testITS.cxx">
<polygon fill="none" stroke="black" points="1252,-6 1252,-25 1398,-25 1398,-6 1252,-6"/>
<text text-anchor="middle" x="1325" y="-13" font-family="Helvetica,sans-Serif" font-size="10.00">Modules/ITS/test/testITS.cxx</text>
</a>
</g>
</g>
<!-- Node1&#45;&gt;Node10 -->
<g id="edge9" class="edge"><title>Node1&#45;&gt;Node10</title>
<path fill="none" stroke="midnightblue" d="M1275.39,-60.6722C1288.87,-48.6707 1305.1,-34.2203 1315.24,-25.1945"/>
<polygon fill="midnightblue" stroke="midnightblue" points="1272.98,-58.132 1267.84,-67.396 1277.64,-63.3599 1272.98,-58.132"/>
</g>
<!-- Node11 -->
<g id="node11" class="node"><title>Node11</title>
<polygon fill="none" stroke="#bfbfbf" points="1416.5,-6 1416.5,-25 1583.5,-25 1583.5,-6 1416.5,-6"/>
<text text-anchor="middle" x="1500" y="-13" font-family="Helvetica,sans-Serif" font-size="10.00">Modules/MFT/test/testQcMFT.cxx</text>
</g>
<!-- Node1&#45;&gt;Node11 -->
<g id="edge10" class="edge"><title>Node1&#45;&gt;Node11</title>
<path fill="none" stroke="midnightblue" d="M1315.3,-64.9102C1363.87,-52.1803 1428.93,-35.1273 1467.46,-25.0287"/>
<polygon fill="midnightblue" stroke="midnightblue" points="1314.29,-61.5549 1305.51,-67.476 1316.07,-68.3262 1314.29,-61.5549"/>
</g>
<!-- Node12 -->
<g id="node12" class="node"><title>Node12</title>
<polygon fill="none" stroke="#bfbfbf" points="1602,-6 1602,-25 1766,-25 1766,-6 1602,-6"/>
<text text-anchor="middle" x="1684" y="-13" font-family="Helvetica,sans-Serif" font-size="10.00">Modules/MID/test/testQcMID.cxx</text>
</g>
<!-- Node1&#45;&gt;Node12 -->
<g id="edge11" class="edge"><title>Node1&#45;&gt;Node12</title>
<path fill="none" stroke="midnightblue" d="M1328.62,-70.3988C1397.75,-60.3234 1502.23,-44.9527 1593,-31 1605.33,-29.1042 1618.6,-27.0175 1631.08,-25.0323"/>
<polygon fill="midnightblue" stroke="midnightblue" points="1328.07,-66.9414 1318.68,-71.8461 1329.08,-73.8683 1328.07,-66.9414"/>
</g>
<!-- Node13 -->
<g id="node13" class="node"><title>Node13</title>
<g id="a_node13"><a xlink:href="testMuonChambers_8cxx.html" target="_top" xlink:title="Modules/MUON/MCH/test\l/testMuonChambers.cxx">
<polygon fill="none" stroke="black" points="1784.5,-0.5 1784.5,-30.5 1917.5,-30.5 1917.5,-0.5 1784.5,-0.5"/>
<text text-anchor="start" x="1792.5" y="-18.5" font-family="Helvetica,sans-Serif" font-size="10.00">Modules/MUON/MCH/test</text>
<text text-anchor="middle" x="1851" y="-7.5" font-family="Helvetica,sans-Serif" font-size="10.00">/testMuonChambers.cxx</text>
</a>
</g>
</g>
<!-- Node1&#45;&gt;Node13 -->
<g id="edge12" class="edge"><title>Node1&#45;&gt;Node13</title>
<path fill="none" stroke="midnightblue" d="M1328.92,-76.3042C1431.14,-68.8906 1617.21,-53.6217 1775,-31 1778.06,-30.5616 1781.18,-30.0849 1784.33,-29.5803"/>
<polygon fill="midnightblue" stroke="midnightblue" points="1328.42,-72.8315 1318.69,-77.0402 1328.92,-79.8135 1328.42,-72.8315"/>
</g>
<!-- Node14 -->
<g id="node14" class="node"><title>Node14</title>
<polygon fill="none" stroke="#bfbfbf" points="1936,-0.5 1936,-30.5 2050,-30.5 2050,-0.5 1936,-0.5"/>
<text text-anchor="start" x="1944" y="-18.5" font-family="Helvetica,sans-Serif" font-size="10.00">Modules/Skeleton/test</text>
<text text-anchor="middle" x="1993" y="-7.5" font-family="Helvetica,sans-Serif" font-size="10.00">/.testEmpty.cxx</text>
</g>
<!-- Node1&#45;&gt;Node14 -->
<g id="edge13" class="edge"><title>Node1&#45;&gt;Node14</title>
<path fill="none" stroke="midnightblue" d="M1329.23,-79.2769C1455.04,-74.8594 1711.84,-62.522 1927,-31 1929.9,-30.5749 1932.87,-30.0945 1935.85,-29.5737"/>
<polygon fill="midnightblue" stroke="midnightblue" points="1328.8,-75.7892 1318.93,-79.6309 1329.04,-82.7851 1328.8,-75.7892"/>
</g>
<!-- Node15 -->
<g id="node15" class="node"><title>Node15</title>
<g id="a_node15"><a xlink:href="testQcSkeleton_8cxx.html" target="_top" xlink:title="Modules/Skeleton/test\l/testQcSkeleton.cxx">
<polygon fill="none" stroke="black" points="2068,-0.5 2068,-30.5 2182,-30.5 2182,-0.5 2068,-0.5"/>
<text text-anchor="start" x="2076" y="-18.5" font-family="Helvetica,sans-Serif" font-size="10.00">Modules/Skeleton/test</text>
<text text-anchor="middle" x="2125" y="-7.5" font-family="Helvetica,sans-Serif" font-size="10.00">/testQcSkeleton.cxx</text>
</a>
</g>
</g>
<!-- Node1&#45;&gt;Node15 -->
<g id="edge14" class="edge"><title>Node1&#45;&gt;Node15</title>
<path fill="none" stroke="midnightblue" d="M1328.56,-80.6213C1472.37,-78.1056 1792.4,-68.4003 2059,-31 2061.9,-30.5925 2064.87,-30.1264 2067.86,-29.6169"/>
<polygon fill="midnightblue" stroke="midnightblue" points="1328.45,-77.1225 1318.51,-80.7903 1328.57,-84.1215 1328.45,-77.1225"/>
</g>
<!-- Node16 -->
<g id="node16" class="node"><title>Node16</title>
<g id="a_node16"><a xlink:href="testTOF_8cxx.html" target="_top" xlink:title="Modules/TOF/test/testTOF.cxx">
<polygon fill="none" stroke="black" points="2200.5,-6 2200.5,-25 2353.5,-25 2353.5,-6 2200.5,-6"/>
<text text-anchor="middle" x="2277" y="-13" font-family="Helvetica,sans-Serif" font-size="10.00">Modules/TOF/test/testTOF.cxx</text>
</a>
</g>
</g>
<!-- Node1&#45;&gt;Node16 -->
<g id="edge15" class="edge"><title>Node1&#45;&gt;Node16</title>
<path fill="none" stroke="midnightblue" d="M1328.78,-80.3138C1489.32,-77.1867 1872.06,-66.349 2191,-31 2204.39,-29.5155 2218.87,-27.3107 2232.06,-25.0658"/>
<polygon fill="midnightblue" stroke="midnightblue" points="1328.46,-76.8192 1318.53,-80.5088 1328.59,-83.8179 1328.46,-76.8192"/>
</g>
<!-- Node17 -->
<g id="node17" class="node"><title>Node17</title>
<polygon fill="none" stroke="#bfbfbf" points="2371.5,-6 2371.5,-25 2538.5,-25 2538.5,-6 2371.5,-6"/>
<text text-anchor="middle" x="2455" y="-13" font-family="Helvetica,sans-Serif" font-size="10.00">Modules/TPC/test/testQcTPC.cxx</text>
</g>
<!-- Node1&#45;&gt;Node17 -->
<g id="edge16" class="edge"><title>Node1&#45;&gt;Node17</title>
<path fill="none" stroke="midnightblue" d="M1328.76,-80.9378C1509.48,-78.9761 1975.75,-70.1958 2363,-31 2377.48,-29.5345 2393.15,-27.3073 2407.38,-25.0351"/>
<polygon fill="midnightblue" stroke="midnightblue" points="1328.52,-77.44 1318.56,-81.0445 1328.59,-84.4396 1328.52,-77.44"/>
</g>
</g>
</svg>
