<?xml version="1.0" encoding="UTF-8" standalone="no"?>
<!DOCTYPE svg PUBLIC "-//W3C//DTD SVG 1.1//EN"
 "http://www.w3.org/Graphics/SVG/1.1/DTD/svg11.dtd">
<!-- Generated by graphviz version 2.38.0 (20140413.2041)
 -->
<!-- Title: Framework/test/testCheckRunner.cxx Pages: 1 -->
<!--zoomable 341 -->
<svg id="main" version="1.1" xmlns="http://www.w3.org/2000/svg" xmlns:xlink="http://www.w3.org/1999/xlink" xml:space="preserve" onload="init(evt)">
<style type="text/css"><![CDATA[
.edge:hover path { stroke: red; }
.edge:hover polygon { stroke: red; fill: red; }
]]></style>
<script type="text/javascript"><![CDATA[
var edges = document.getElementsByTagName('g');
if (edges && edges.length) {
  for (var i=0;i<edges.length;i++) {
    if (edges[i].id.substr(0,4)=='edge') {
      edges[i].setAttribute('class','edge');
    }
  }
}
]]></script>
        <defs>
                <circle id="rim" cx="0" cy="0" r="7"/>
                <circle id="rim2" cx="0" cy="0" r="3.5"/>
                <g id="zoomPlus">
                        <use xlink:href="#rim" fill="#404040">
                                <set attributeName="fill" to="#808080" begin="zoomplus.mouseover" end="zoomplus.mouseout"/>
                        </use>
                        <path d="M-4,0h8M0,-4v8" fill="none" stroke="white" stroke-width="1.5" pointer-events="none"/>
                </g>
                <g id="zoomMin">
                        <use xlink:href="#rim" fill="#404040">
                                <set attributeName="fill" to="#808080" begin="zoomminus.mouseover" end="zoomminus.mouseout"/>
                        </use>
                        <path d="M-4,0h8" fill="none" stroke="white" stroke-width="1.5" pointer-events="none"/>
                </g>
                <g id="dirArrow">
                        <path fill="none" stroke="white" stroke-width="1.5" d="M0,-3.0v7 M-2.5,-0.5L0,-3.0L2.5,-0.5"/>
                </g>
               <g id="resetDef">
                       <use xlink:href="#rim2" fill="#404040">
                               <set attributeName="fill" to="#808080" begin="reset.mouseover" end="reset.mouseout"/>
                       </use>
               </g>
        </defs>

<script type="text/javascript">
var viewWidth = 1962;
var viewHeight = 341;
var sectionId = 'dynsection-0';
</script>
<script xlink:href="svgpan.js"/>
<svg id="graph" class="graph">
<g id="viewport">
<title>Framework/test/testCheckRunner.cxx</title>
<!-- Node1 -->
<g id="node1" class="node"><title>Node1</title>
<polygon fill="#bfbfbf" stroke="black" points="767.048,-302.5 767.048,-332.5 900.048,-332.5 900.048,-302.5 767.048,-302.5"/>
<text text-anchor="start" x="775.048" y="-320.5" font-family="Helvetica,sans-Serif" font-size="10.00">Framework/test/testCheck</text>
<text text-anchor="middle" x="833.548" y="-309.5" font-family="Helvetica,sans-Serif" font-size="10.00">Runner.cxx</text>
</g>
<!-- Node2 -->
<g id="node2" class="node"><title>Node2</title>
<g id="a_node2"><a xlink:href="CheckRunnerFactory_8h.html" target="_top" xlink:title="QualityControl/CheckRunner\lFactory.h">
<polygon fill="none" stroke="black" points="125.548,-235.5 125.548,-265.5 267.548,-265.5 267.548,-235.5 125.548,-235.5"/>
<text text-anchor="start" x="133.548" y="-253.5" font-family="Helvetica,sans-Serif" font-size="10.00">QualityControl/CheckRunner</text>
<text text-anchor="middle" x="196.548" y="-242.5" font-family="Helvetica,sans-Serif" font-size="10.00">Factory.h</text>
</a>
</g>
</g>
<!-- Node1&#45;&gt;Node2 -->
<g id="edge1" class="edge"><title>Node1&#45;&gt;Node2</title>
<path fill="none" stroke="midnightblue" d="M766.881,-309.697C649.308,-297.7 405.516,-272.823 278.112,-259.823"/>
<polygon fill="midnightblue" stroke="midnightblue" points="278.326,-256.327 268.022,-258.793 277.615,-263.29 278.326,-256.327"/>
</g>
<!-- Node23 -->
<g id="node23" class="node"><title>Node23</title>
<g id="a_node23"><a xlink:href="CheckRunner_8h.html" target="_top" xlink:title="QualityControl/CheckRunner.h">
<polygon fill="none" stroke="black" points="758.548,-241 758.548,-260 908.548,-260 908.548,-241 758.548,-241"/>
<text text-anchor="middle" x="833.548" y="-248" font-family="Helvetica,sans-Serif" font-size="10.00">QualityControl/CheckRunner.h</text>
</a>
</g>
</g>
<!-- Node1&#45;&gt;Node23 -->
<g id="edge37" class="edge"><title>Node1&#45;&gt;Node23</title>
<path fill="none" stroke="midnightblue" d="M833.548,-302.396C833.548,-293.064 833.548,-280.714 833.548,-270.517"/>
<polygon fill="midnightblue" stroke="midnightblue" points="837.048,-270.195 833.548,-260.195 830.048,-270.195 837.048,-270.195"/>
</g>
<!-- Node35 -->
<g id="node35" class="node"><title>Node35</title>
<polygon fill="none" stroke="#bfbfbf" points="927.048,-241 927.048,-260 1046.05,-260 1046.05,-241 927.048,-241"/>
<text text-anchor="middle" x="986.548" y="-248" font-family="Helvetica,sans-Serif" font-size="10.00">boost/test/unit_test.hpp</text>
</g>
<!-- Node1&#45;&gt;Node35 -->
<g id="edge68" class="edge"><title>Node1&#45;&gt;Node35</title>
<path fill="none" stroke="midnightblue" d="M866.746,-302.396C893.711,-290.941 931.377,-274.938 957.237,-263.952"/>
<polygon fill="midnightblue" stroke="midnightblue" points="958.688,-267.139 966.524,-260.007 955.951,-260.696 958.688,-267.139"/>
</g>
<!-- Node3 -->
<g id="node3" class="node"><title>Node3</title>
<polygon fill="none" stroke="#bfbfbf" points="1080.05,-0.5 1080.05,-19.5 1121.05,-19.5 1121.05,-0.5 1080.05,-0.5"/>
<text text-anchor="middle" x="1100.55" y="-7.5" font-family="Helvetica,sans-Serif" font-size="10.00">string</text>
</g>
<!-- Node2&#45;&gt;Node3 -->
<g id="edge2" class="edge"><title>Node2&#45;&gt;Node3</title>
<path fill="none" stroke="midnightblue" d="M125.298,-245.267C60.3586,-238.155 -21.6144,-219.093 5.54773,-168 26.4366,-128.707 47.682,-129.614 88.5477,-112 193.113,-66.931 225.792,-71.8523 338.548,-56 620.558,-16.3522 966.053,-11.5586 1069.73,-11.0414"/>
<polygon fill="midnightblue" stroke="midnightblue" points="1069.83,-14.5411 1079.82,-11.0012 1069.8,-7.54118 1069.83,-14.5411"/>
</g>
<!-- Node4 -->
<g id="node4" class="node"><title>Node4</title>
<polygon fill="none" stroke="#bfbfbf" points="97.5477,-112.5 97.5477,-131.5 261.548,-131.5 261.548,-112.5 97.5477,-112.5"/>
<text text-anchor="middle" x="179.548" y="-119.5" font-family="Helvetica,sans-Serif" font-size="10.00">Framework/DataProcessorSpec.h</text>
</g>
<!-- Node2&#45;&gt;Node4 -->
<g id="edge3" class="edge"><title>Node2&#45;&gt;Node4</title>
<path fill="none" stroke="midnightblue" d="M194.663,-235.479C191.591,-212.616 185.501,-167.296 182.063,-141.713"/>
<polygon fill="midnightblue" stroke="midnightblue" points="185.53,-141.233 180.729,-131.789 178.592,-142.166 185.53,-141.233"/>
</g>
<!-- Node5 -->
<g id="node5" class="node"><title>Node5</title>
<polygon fill="none" stroke="#bfbfbf" points="15.0477,-174 15.0477,-193 168.048,-193 168.048,-174 15.0477,-174"/>
<text text-anchor="middle" x="91.5477" y="-181" font-family="Helvetica,sans-Serif" font-size="10.00">Framework/CompletionPolicy.h</text>
</g>
<!-- Node2&#45;&gt;Node5 -->
<g id="edge4" class="edge"><title>Node2&#45;&gt;Node5</title>
<path fill="none" stroke="midnightblue" d="M173.764,-235.396C155.993,-224.395 131.448,-209.2 113.811,-198.282"/>
<polygon fill="midnightblue" stroke="midnightblue" points="115.635,-195.295 105.29,-193.007 111.95,-201.247 115.635,-195.295"/>
</g>
<!-- Node6 -->
<g id="node6" class="node"><title>Node6</title>
<g id="a_node6"><a xlink:href="Check_8h_source.html" target="_top" xlink:title="QualityControl/Check.h">
<polygon fill="none" stroke="black" points="339.048,-174 339.048,-193 458.048,-193 458.048,-174 339.048,-174"/>
<text text-anchor="middle" x="398.548" y="-181" font-family="Helvetica,sans-Serif" font-size="10.00">QualityControl/Check.h</text>
</a>
</g>
</g>
<!-- Node2&#45;&gt;Node6 -->
<g id="edge5" class="edge"><title>Node2&#45;&gt;Node6</title>
<path fill="none" stroke="midnightblue" d="M240.379,-235.396C276.92,-223.638 328.347,-207.089 362.524,-196.092"/>
<polygon fill="midnightblue" stroke="midnightblue" points="363.663,-199.402 372.111,-193.007 361.519,-192.738 363.663,-199.402"/>
</g>
<!-- Node6&#45;&gt;Node4 -->
<g id="edge11" class="edge"><title>Node6&#45;&gt;Node4</title>
<path fill="none" stroke="midnightblue" d="M367.17,-173.975C328.628,-163.504 263.142,-145.712 220.624,-134.16"/>
<polygon fill="midnightblue" stroke="midnightblue" points="221.435,-130.753 210.867,-131.509 219.599,-137.509 221.435,-130.753"/>
</g>
<!-- Node7 -->
<g id="node7" class="node"><title>Node7</title>
<polygon fill="none" stroke="#bfbfbf" points="1165.05,-112.5 1165.05,-131.5 1224.05,-131.5 1224.05,-112.5 1165.05,-112.5"/>
<text text-anchor="middle" x="1194.55" y="-119.5" font-family="Helvetica,sans-Serif" font-size="10.00">functional</text>
</g>
<!-- Node6&#45;&gt;Node7 -->
<g id="edge6" class="edge"><title>Node6&#45;&gt;Node7</title>
<path fill="none" stroke="midnightblue" d="M455.093,-173.989C471.35,-171.772 489.126,-169.569 505.548,-168 791.36,-140.701 865.812,-168.866 1150.55,-132 1152,-131.812 1153.47,-131.604 1154.96,-131.379"/>
<polygon fill="midnightblue" stroke="midnightblue" points="1155.56,-134.827 1164.82,-129.692 1154.38,-127.927 1155.56,-134.827"/>
</g>
<!-- Node8 -->
<g id="node8" class="node"><title>Node8</title>
<polygon fill="none" stroke="#bfbfbf" points="1316.05,-0.5 1316.05,-19.5 1351.05,-19.5 1351.05,-0.5 1316.05,-0.5"/>
<text text-anchor="middle" x="1333.55" y="-7.5" font-family="Helvetica,sans-Serif" font-size="10.00">map</text>
</g>
<!-- Node6&#45;&gt;Node8 -->
<g id="edge7" class="edge"><title>Node6&#45;&gt;Node8</title>
<path fill="none" stroke="midnightblue" d="M392.948,-173.839C378.8,-150.79 345.047,-87.56 378.548,-56 380.716,-53.9572 1148.09,-19.3405 1305.52,-12.2592"/>
<polygon fill="midnightblue" stroke="midnightblue" points="1305.95,-15.7435 1315.79,-11.7978 1305.64,-8.75061 1305.95,-15.7435"/>
</g>
<!-- Node9 -->
<g id="node9" class="node"><title>Node9</title>
<polygon fill="none" stroke="#bfbfbf" points="1382.55,-112.5 1382.55,-131.5 1426.55,-131.5 1426.55,-112.5 1382.55,-112.5"/>
<text text-anchor="middle" x="1404.55" y="-119.5" font-family="Helvetica,sans-Serif" font-size="10.00">vector</text>
</g>
<!-- Node6&#45;&gt;Node9 -->
<g id="edge8" class="edge"><title>Node6&#45;&gt;Node9</title>
<path fill="none" stroke="midnightblue" d="M454.25,-173.971C470.732,-171.713 488.836,-169.492 505.548,-168 872.878,-135.204 967.107,-163.543 1334.55,-132 1347.01,-130.93 1360.67,-129.282 1372.58,-127.687"/>
<polygon fill="midnightblue" stroke="midnightblue" points="1373.1,-131.149 1382.53,-126.315 1372.15,-124.214 1373.1,-131.149"/>
</g>
<!-- Node10 -->
<g id="node10" class="node"><title>Node10</title>
<polygon fill="none" stroke="#bfbfbf" points="1444.55,-112.5 1444.55,-131.5 1496.55,-131.5 1496.55,-112.5 1444.55,-112.5"/>
<text text-anchor="middle" x="1470.55" y="-119.5" font-family="Helvetica,sans-Serif" font-size="10.00">memory</text>
</g>
<!-- Node6&#45;&gt;Node10 -->
<g id="edge9" class="edge"><title>Node6&#45;&gt;Node10</title>
<path fill="none" stroke="midnightblue" d="M453.694,-173.997C470.322,-171.711 488.646,-169.469 505.548,-168 914.317,-132.474 1024.49,-190.891 1434.25,-131.852"/>
<polygon fill="midnightblue" stroke="midnightblue" points="1434.91,-135.294 1444.3,-130.39 1433.9,-128.367 1434.91,-135.294"/>
</g>
<!-- Node11 -->
<g id="node11" class="node"><title>Node11</title>
<polygon fill="none" stroke="#bfbfbf" points="839.048,-56.5 839.048,-75.5 922.048,-75.5 922.048,-56.5 839.048,-56.5"/>
<text text-anchor="middle" x="880.548" y="-63.5" font-family="Helvetica,sans-Serif" font-size="10.00">unordered_map</text>
</g>
<!-- Node6&#45;&gt;Node11 -->
<g id="edge10" class="edge"><title>Node6&#45;&gt;Node11</title>
<path fill="none" stroke="midnightblue" d="M453.912,-173.973C467.517,-171.947 482.051,-169.84 495.548,-168 625.109,-150.333 665.464,-178.838 787.548,-132 817.261,-120.6 846.511,-97.7004 864.048,-82.3563"/>
<polygon fill="midnightblue" stroke="midnightblue" points="866.565,-84.8 871.667,-75.5143 861.888,-79.5919 866.565,-84.8"/>
</g>
<!-- Node12 -->
<g id="node12" class="node"><title>Node12</title>
<g id="a_node12"><a xlink:href="Quality_8h.html" target="_top" xlink:title="QualityControl/Quality.h">
<polygon fill="none" stroke="black" points="1167.05,-56.5 1167.05,-75.5 1288.05,-75.5 1288.05,-56.5 1167.05,-56.5"/>
<text text-anchor="middle" x="1227.55" y="-63.5" font-family="Helvetica,sans-Serif" font-size="10.00">QualityControl/Quality.h</text>
</a>
</g>
</g>
<!-- Node6&#45;&gt;Node12 -->
<g id="edge12" class="edge"><title>Node6&#45;&gt;Node12</title>
<path fill="none" stroke="midnightblue" d="M453.132,-173.972C466.956,-171.913 481.787,-169.792 495.548,-168 639.22,-149.287 679.698,-169.869 819.548,-132 840.673,-126.28 843.459,-117.854 864.548,-112 963.605,-84.5019 1082.54,-73.7866 1156.6,-69.6245"/>
<polygon fill="midnightblue" stroke="midnightblue" points="1156.95,-73.111 1166.75,-69.0797 1156.57,-66.1211 1156.95,-73.111"/>
</g>
<!-- Node14 -->
<g id="node14" class="node"><title>Node14</title>
<g id="a_node14"><a xlink:href="QualityObject_8h_source.html" target="_top" xlink:title="QualityControl/QualityObject.h">
<polygon fill="none" stroke="black" points="1590.05,-112.5 1590.05,-131.5 1739.05,-131.5 1739.05,-112.5 1590.05,-112.5"/>
<text text-anchor="middle" x="1664.55" y="-119.5" font-family="Helvetica,sans-Serif" font-size="10.00">QualityControl/QualityObject.h</text>
</a>
</g>
</g>
<!-- Node6&#45;&gt;Node14 -->
<g id="edge16" class="edge"><title>Node6&#45;&gt;Node14</title>
<path fill="none" stroke="midnightblue" d="M453.692,-173.968C470.32,-171.682 488.644,-169.446 505.548,-168 948.662,-130.093 1061.29,-152.568 1505.55,-132 1529.59,-130.887 1555.67,-129.49 1579.62,-128.131"/>
<polygon fill="midnightblue" stroke="midnightblue" points="1579.96,-131.617 1589.75,-127.552 1579.56,-124.629 1579.96,-131.617"/>
</g>
<!-- Node17 -->
<g id="node17" class="node"><title>Node17</title>
<g id="a_node17"><a xlink:href="MonitorObject_8h.html" target="_top" xlink:title="QualityControl/MonitorObject.h">
<polygon fill="none" stroke="black" points="1421.05,-56.5 1421.05,-75.5 1572.05,-75.5 1572.05,-56.5 1421.05,-56.5"/>
<text text-anchor="middle" x="1496.55" y="-63.5" font-family="Helvetica,sans-Serif" font-size="10.00">QualityControl/MonitorObject.h</text>
</a>
</g>
</g>
<!-- Node6&#45;&gt;Node17 -->
<g id="edge21" class="edge"><title>Node6&#45;&gt;Node17</title>
<path fill="none" stroke="midnightblue" d="M455.937,-173.998C471.968,-171.821 489.415,-169.635 505.548,-168 742.207,-144.015 803.359,-160.246 1039.55,-132 1091.49,-125.788 1103.83,-119.868 1155.55,-112 1244.31,-98.4966 1346.44,-85.3322 1415.61,-76.7666"/>
<polygon fill="midnightblue" stroke="midnightblue" points="1416.08,-80.2357 1425.57,-75.5367 1415.22,-73.2885 1416.08,-80.2357"/>
</g>
<!-- Node18 -->
<g id="node18" class="node"><title>Node18</title>
<g id="a_node18"><a xlink:href="CheckInterface_8h.html" target="_top" xlink:title="QualityControl/CheckInterface.h">
<polygon fill="none" stroke="black" points="874.048,-112.5 874.048,-131.5 1031.05,-131.5 1031.05,-112.5 874.048,-112.5"/>
<text text-anchor="middle" x="952.548" y="-119.5" font-family="Helvetica,sans-Serif" font-size="10.00">QualityControl/CheckInterface.h</text>
</a>
</g>
</g>
<!-- Node6&#45;&gt;Node18 -->
<g id="edge27" class="edge"><title>Node6&#45;&gt;Node18</title>
<path fill="none" stroke="midnightblue" d="M438.363,-173.934C449.396,-171.769 461.404,-169.606 472.548,-168 643.524,-143.36 687.578,-148.32 859.548,-132 860.865,-131.875 862.192,-131.749 863.529,-131.622"/>
<polygon fill="midnightblue" stroke="midnightblue" points="864.282,-135.066 873.904,-130.631 863.617,-128.097 864.282,-135.066"/>
</g>
<!-- Node19 -->
<g id="node19" class="node"><title>Node19</title>
<g id="a_node19"><a xlink:href="QcInfoLogger_8h.html" target="_top" xlink:title="QualityControl/QcInfoLogger.h">
<polygon fill="none" stroke="black" points="382.048,-112.5 382.048,-131.5 531.048,-131.5 531.048,-112.5 382.048,-112.5"/>
<text text-anchor="middle" x="456.548" y="-119.5" font-family="Helvetica,sans-Serif" font-size="10.00">QualityControl/QcInfoLogger.h</text>
</a>
</g>
</g>
<!-- Node6&#45;&gt;Node19 -->
<g id="edge31" class="edge"><title>Node6&#45;&gt;Node19</title>
<path fill="none" stroke="midnightblue" d="M406.858,-173.975C415.73,-164.873 429.994,-150.241 440.968,-138.983"/>
<polygon fill="midnightblue" stroke="midnightblue" points="443.779,-141.113 448.253,-131.509 438.767,-136.227 443.779,-141.113"/>
</g>
<!-- Node22 -->
<g id="node22" class="node"><title>Node22</title>
<g id="a_node22"><a xlink:href="CheckConfig_8h.html" target="_top" xlink:title="QualityControl/CheckConfig.h">
<polygon fill="none" stroke="black" points="632.048,-112.5 632.048,-131.5 779.048,-131.5 779.048,-112.5 632.048,-112.5"/>
<text text-anchor="middle" x="705.548" y="-119.5" font-family="Helvetica,sans-Serif" font-size="10.00">QualityControl/CheckConfig.h</text>
</a>
</g>
</g>
<!-- Node6&#45;&gt;Node22 -->
<g id="edge34" class="edge"><title>Node6&#45;&gt;Node22</title>
<path fill="none" stroke="midnightblue" d="M441.978,-173.97C452.015,-172.004 462.653,-169.925 472.548,-168 533.772,-156.09 604.069,-142.529 651.296,-133.435"/>
<polygon fill="midnightblue" stroke="midnightblue" points="652.149,-136.835 661.307,-131.507 650.825,-129.961 652.149,-136.835"/>
</g>
<!-- Node12&#45;&gt;Node3 -->
<g id="edge14" class="edge"><title>Node12&#45;&gt;Node3</title>
<path fill="none" stroke="midnightblue" d="M1207.42,-56.4435C1186.52,-47.5566 1153.61,-33.5632 1129.83,-23.4514"/>
<polygon fill="midnightblue" stroke="midnightblue" points="1131.15,-20.2085 1120.58,-19.5164 1128.41,-26.6504 1131.15,-20.2085"/>
</g>
<!-- Node12&#45;&gt;Node8 -->
<g id="edge15" class="edge"><title>Node12&#45;&gt;Node8</title>
<path fill="none" stroke="midnightblue" d="M1244.58,-56.324C1261.58,-47.6641 1287.92,-34.2424 1307.54,-24.249"/>
<polygon fill="midnightblue" stroke="midnightblue" points="1309.24,-27.3125 1316.56,-19.6545 1306.06,-21.0752 1309.24,-27.3125"/>
</g>
<!-- Node13 -->
<g id="node13" class="node"><title>Node13</title>
<polygon fill="none" stroke="#bfbfbf" points="1386.55,-0.5 1386.55,-19.5 1442.55,-19.5 1442.55,-0.5 1386.55,-0.5"/>
<text text-anchor="middle" x="1414.55" y="-7.5" font-family="Helvetica,sans-Serif" font-size="10.00">Rtypes.h</text>
</g>
<!-- Node12&#45;&gt;Node13 -->
<g id="edge13" class="edge"><title>Node12&#45;&gt;Node13</title>
<path fill="none" stroke="midnightblue" d="M1257.18,-56.4435C1289.42,-47.1323 1341.08,-32.2155 1376.35,-22.0308"/>
<polygon fill="midnightblue" stroke="midnightblue" points="1377.64,-25.3 1386.28,-19.1629 1375.7,-18.5748 1377.64,-25.3"/>
</g>
<!-- Node14&#45;&gt;Node8 -->
<g id="edge17" class="edge"><title>Node14&#45;&gt;Node8</title>
<path fill="none" stroke="midnightblue" d="M1593.34,-112.483C1530.15,-104.176 1443.1,-90.6763 1411.55,-76 1386.46,-64.3326 1362.82,-42.5424 1348.28,-27.4254"/>
<polygon fill="midnightblue" stroke="midnightblue" points="1350.57,-24.7455 1341.19,-19.8203 1345.45,-29.5203 1350.57,-24.7455"/>
</g>
<!-- Node14&#45;&gt;Node12 -->
<g id="edge20" class="edge"><title>Node14&#45;&gt;Node12</title>
<path fill="none" stroke="midnightblue" d="M1595.3,-112.444C1514.1,-102.409 1380.2,-85.8631 1298.33,-75.7468"/>
<polygon fill="midnightblue" stroke="midnightblue" points="1298.72,-72.2683 1288.37,-74.5155 1297.86,-79.2155 1298.72,-72.2683"/>
</g>
<!-- Node15 -->
<g id="node15" class="node"><title>Node15</title>
<polygon fill="none" stroke="#bfbfbf" points="1481.05,-0.5 1481.05,-19.5 1540.05,-19.5 1540.05,-0.5 1481.05,-0.5"/>
<text text-anchor="middle" x="1510.55" y="-7.5" font-family="Helvetica,sans-Serif" font-size="10.00">TObject.h</text>
</g>
<!-- Node14&#45;&gt;Node15 -->
<g id="edge18" class="edge"><title>Node14&#45;&gt;Node15</title>
<path fill="none" stroke="midnightblue" d="M1654.16,-112.49C1638.51,-99.7753 1607.81,-75.2551 1580.55,-56 1565.21,-45.1646 1547.4,-33.7296 1533.58,-25.0981"/>
<polygon fill="midnightblue" stroke="midnightblue" points="1535.07,-21.9072 1524.73,-19.6122 1531.39,-27.8564 1535.07,-21.9072"/>
</g>
<!-- Node16 -->
<g id="node16" class="node"><title>Node16</title>
<polygon fill="none" stroke="#bfbfbf" points="1585.55,-0.5 1585.55,-19.5 1701.55,-19.5 1701.55,-0.5 1585.55,-0.5"/>
<text text-anchor="middle" x="1643.55" y="-7.5" font-family="Helvetica,sans-Serif" font-size="10.00">Common/Exceptions.h</text>
</g>
<!-- Node14&#45;&gt;Node16 -->
<g id="edge19" class="edge"><title>Node14&#45;&gt;Node16</title>
<path fill="none" stroke="midnightblue" d="M1662.9,-112.368C1659.51,-94.617 1651.69,-53.6664 1647.1,-29.5974"/>
<polygon fill="midnightblue" stroke="midnightblue" points="1650.5,-28.7577 1645.19,-19.5914 1643.63,-30.0704 1650.5,-28.7577"/>
</g>
<!-- Node17&#45;&gt;Node3 -->
<g id="edge22" class="edge"><title>Node17&#45;&gt;Node3</title>
<path fill="none" stroke="midnightblue" d="M1433.8,-56.4435C1347.65,-44.6962 1196.07,-24.0263 1131.3,-15.1936"/>
<polygon fill="midnightblue" stroke="midnightblue" points="1131.7,-11.7154 1121.32,-13.8321 1130.75,-18.6512 1131.7,-11.7154"/>
</g>
<!-- Node17&#45;&gt;Node8 -->
<g id="edge23" class="edge"><title>Node17&#45;&gt;Node8</title>
<path fill="none" stroke="midnightblue" d="M1470.72,-56.4435C1440.72,-46.5041 1391.43,-30.1771 1360.83,-20.037"/>
<polygon fill="midnightblue" stroke="midnightblue" points="1361.81,-16.676 1351.22,-16.8536 1359.61,-23.3209 1361.81,-16.676"/>
</g>
<!-- Node17&#45;&gt;Node13 -->
<g id="edge24" class="edge"><title>Node17&#45;&gt;Node13</title>
<path fill="none" stroke="midnightblue" d="M1483.37,-56.324C1470.7,-47.979 1451.31,-35.2122 1436.34,-25.3524"/>
<polygon fill="midnightblue" stroke="midnightblue" points="1437.97,-22.2313 1427.69,-19.6545 1434.12,-28.0776 1437.97,-22.2313"/>
</g>
<!-- Node17&#45;&gt;Node15 -->
<g id="edge25" class="edge"><title>Node17&#45;&gt;Node15</title>
<path fill="none" stroke="midnightblue" d="M1498.86,-56.083C1500.71,-48.9272 1503.38,-38.6353 1505.7,-29.6911"/>
<polygon fill="midnightblue" stroke="midnightblue" points="1509.16,-30.3094 1508.28,-19.7511 1502.38,-28.5527 1509.16,-30.3094"/>
</g>
<!-- Node17&#45;&gt;Node16 -->
<g id="edge26" class="edge"><title>Node17&#45;&gt;Node16</title>
<path fill="none" stroke="midnightblue" d="M1519.84,-56.4435C1544.36,-47.4381 1583.14,-33.1891 1610.75,-23.049"/>
<polygon fill="midnightblue" stroke="midnightblue" points="1612.18,-26.25 1620.36,-19.5164 1609.77,-19.6793 1612.18,-26.25"/>
</g>
<!-- Node18&#45;&gt;Node11 -->
<g id="edge28" class="edge"><title>Node18&#45;&gt;Node11</title>
<path fill="none" stroke="midnightblue" d="M940.98,-112.324C930.128,-104.185 913.667,-91.8395 900.664,-82.0874"/>
<polygon fill="midnightblue" stroke="midnightblue" points="902.426,-79.0339 892.326,-75.8339 898.226,-84.6339 902.426,-79.0339"/>
</g>
<!-- Node18&#45;&gt;Node12 -->
<g id="edge30" class="edge"><title>Node18&#45;&gt;Node12</title>
<path fill="none" stroke="midnightblue" d="M996.122,-112.444C1044.4,-102.964 1122.26,-87.6747 1174.16,-77.4835"/>
<polygon fill="midnightblue" stroke="midnightblue" points="1175.04,-80.8778 1184.18,-75.5164 1173.69,-74.0089 1175.04,-80.8778"/>
</g>
<!-- Node18&#45;&gt;Node17 -->
<g id="edge29" class="edge"><title>Node18&#45;&gt;Node17</title>
<path fill="none" stroke="midnightblue" d="M1031.07,-113.206C1131.87,-103.199 1306.18,-85.8964 1410.5,-75.5417"/>
<polygon fill="midnightblue" stroke="midnightblue" points="1411.08,-79.0016 1420.68,-74.5309 1410.38,-72.0359 1411.08,-79.0016"/>
</g>
<!-- Node20 -->
<g id="node20" class="node"><title>Node20</title>
<polygon fill="none" stroke="#bfbfbf" points="387.548,-56.5 387.548,-75.5 517.548,-75.5 517.548,-56.5 387.548,-56.5"/>
<text text-anchor="middle" x="452.548" y="-63.5" font-family="Helvetica,sans-Serif" font-size="10.00">InfoLogger/InfoLogger.hxx</text>
</g>
<!-- Node19&#45;&gt;Node20 -->
<g id="edge32" class="edge"><title>Node19&#45;&gt;Node20</title>
<path fill="none" stroke="midnightblue" d="M455.887,-112.083C455.363,-105.006 454.612,-94.8611 453.954,-85.9865"/>
<polygon fill="midnightblue" stroke="midnightblue" points="457.425,-85.4652 453.196,-75.7511 450.444,-85.9823 457.425,-85.4652"/>
</g>
<!-- Node21 -->
<g id="node21" class="node"><title>Node21</title>
<polygon fill="none" stroke="#bfbfbf" points="535.548,-56.5 535.548,-75.5 697.548,-75.5 697.548,-56.5 535.548,-56.5"/>
<text text-anchor="middle" x="616.548" y="-63.5" font-family="Helvetica,sans-Serif" font-size="10.00">InfoLogger/InfoLoggerMacros.hxx</text>
</g>
<!-- Node19&#45;&gt;Node21 -->
<g id="edge33" class="edge"><title>Node19&#45;&gt;Node21</title>
<path fill="none" stroke="midnightblue" d="M481.9,-112.444C508.817,-103.359 551.544,-88.9388 581.635,-78.7831"/>
<polygon fill="midnightblue" stroke="midnightblue" points="582.958,-82.0305 591.314,-75.5164 580.72,-75.3981 582.958,-82.0305"/>
</g>
<!-- Node22&#45;&gt;Node3 -->
<g id="edge35" class="edge"><title>Node22&#45;&gt;Node3</title>
<path fill="none" stroke="midnightblue" d="M718.677,-112.303C740.649,-98.1767 786.686,-70.3793 829.548,-56 913.764,-27.7471 1018.88,-16.7852 1069.91,-12.9093"/>
<polygon fill="midnightblue" stroke="midnightblue" points="1070.23,-16.3955 1079.96,-12.186 1069.73,-9.41357 1070.23,-16.3955"/>
</g>
<!-- Node22&#45;&gt;Node11 -->
<g id="edge36" class="edge"><title>Node22&#45;&gt;Node11</title>
<path fill="none" stroke="midnightblue" d="M733.277,-112.444C762.973,-103.28 810.264,-88.6876 843.217,-78.5192"/>
<polygon fill="midnightblue" stroke="midnightblue" points="844.425,-81.8094 852.948,-75.5164 842.361,-75.1206 844.425,-81.8094"/>
</g>
<!-- Node23&#45;&gt;Node3 -->
<g id="edge40" class="edge"><title>Node23&#45;&gt;Node3</title>
<path fill="none" stroke="midnightblue" d="M758.51,-247.599C622.718,-243.379 347.514,-230.945 318.548,-199 309.293,-188.793 315.932,-181.527 318.548,-168 328.733,-115.33 320.039,-87.382 363.548,-56 421.505,-14.1968 937.644,-11.076 1069.82,-10.9664"/>
<polygon fill="midnightblue" stroke="midnightblue" points="1070.04,-14.4665 1080.04,-10.9635 1070.04,-7.46647 1070.04,-14.4665"/>
</g>
<!-- Node23&#45;&gt;Node4 -->
<g id="edge49" class="edge"><title>Node23&#45;&gt;Node4</title>
<path fill="none" stroke="midnightblue" d="M758.543,-249.056C623.589,-247.252 345.777,-238.67 258.548,-199 229.928,-185.984 205.347,-158.117 191.511,-139.988"/>
<polygon fill="midnightblue" stroke="midnightblue" points="194.033,-137.509 185.29,-131.524 188.393,-141.655 194.033,-137.509"/>
</g>
<!-- Node23&#45;&gt;Node6 -->
<g id="edge61" class="edge"><title>Node23&#45;&gt;Node6</title>
<path fill="none" stroke="midnightblue" d="M764.507,-240.979C691.724,-231.73 573.81,-215.991 472.548,-199 465.186,-197.765 457.433,-196.361 449.828,-194.924"/>
<polygon fill="midnightblue" stroke="midnightblue" points="450.442,-191.478 439.962,-193.028 449.121,-198.352 450.442,-191.478"/>
</g>
<!-- Node23&#45;&gt;Node8 -->
<g id="edge41" class="edge"><title>Node23&#45;&gt;Node8</title>
<path fill="none" stroke="midnightblue" d="M878.776,-240.945C891.301,-238.78 904.923,-236.614 917.548,-235 965.216,-228.907 1316.01,-234.366 1348.55,-199 1357.88,-188.86 1357.35,-178.598 1348.55,-168 1292.79,-100.881 1211.3,-199.119 1155.55,-132 1149.87,-125.163 1150.09,-119.02 1155.55,-112 1195.22,-60.9219 1245.12,-115.226 1296.55,-76 1312,-64.2129 1322.03,-43.9902 1327.7,-29.2247"/>
<polygon fill="midnightblue" stroke="midnightblue" points="1331.05,-30.2312 1331.07,-19.6364 1324.45,-27.9099 1331.05,-30.2312"/>
</g>
<!-- Node23&#45;&gt;Node9 -->
<g id="edge42" class="edge"><title>Node23&#45;&gt;Node9</title>
<path fill="none" stroke="midnightblue" d="M877.443,-240.953C890.323,-238.709 904.462,-236.5 917.548,-235 986.986,-227.043 1497.56,-249.816 1545.55,-199 1555.01,-188.983 1553.68,-179.125 1545.55,-168 1543.88,-165.712 1477.52,-145.199 1436.45,-132.672"/>
<polygon fill="midnightblue" stroke="midnightblue" points="1437.44,-129.315 1426.85,-129.751 1435.4,-136.012 1437.44,-129.315"/>
</g>
<!-- Node23&#45;&gt;Node10 -->
<g id="edge39" class="edge"><title>Node23&#45;&gt;Node10</title>
<path fill="none" stroke="midnightblue" d="M877.442,-240.94C890.321,-238.695 904.461,-236.489 917.548,-235 988.976,-226.872 1514.15,-251.228 1563.55,-199 1573.02,-188.99 1570.87,-179.673 1563.55,-168 1556.72,-157.115 1528.41,-144.32 1504.8,-135.162"/>
<polygon fill="midnightblue" stroke="midnightblue" points="1505.97,-131.862 1495.38,-131.598 1503.49,-138.409 1505.97,-131.862"/>
</g>
<!-- Node23&#45;&gt;Node17 -->
<g id="edge59" class="edge"><title>Node23&#45;&gt;Node17</title>
<path fill="none" stroke="midnightblue" d="M876.561,-240.964C889.67,-238.663 904.156,-236.42 917.548,-235 1114.83,-214.083 1617.01,-246.801 1809.55,-199 1876.5,-182.379 1912.78,-190.363 1949.55,-132 1954.29,-124.479 1955.51,-118.589 1949.55,-112 1925.42,-85.3619 1706.9,-73.8601 1582.4,-69.4331"/>
<polygon fill="midnightblue" stroke="midnightblue" points="1582.25,-65.9257 1572.13,-69.0763 1582,-72.9215 1582.25,-65.9257"/>
</g>
<!-- Node23&#45;&gt;Node18 -->
<g id="edge50" class="edge"><title>Node23&#45;&gt;Node18</title>
<path fill="none" stroke="midnightblue" d="M758.546,-248.828C672.007,-246.273 537.48,-236.225 505.548,-199 496.577,-188.543 496.306,-178.219 505.548,-168 506.295,-167.174 733.742,-144.598 863.861,-131.744"/>
<polygon fill="midnightblue" stroke="midnightblue" points="864.219,-135.226 873.827,-130.759 863.531,-128.259 864.219,-135.226"/>
</g>
<!-- Node23&#45;&gt;Node19 -->
<g id="edge60" class="edge"><title>Node23&#45;&gt;Node19</title>
<path fill="none" stroke="midnightblue" d="M758.544,-247.426C625.107,-242.956 357.757,-230.177 329.548,-199 301.865,-168.405 358.879,-146.289 405.228,-134.053"/>
<polygon fill="midnightblue" stroke="midnightblue" points="406.091,-137.445 414.923,-131.593 404.369,-130.661 406.091,-137.445"/>
</g>
<!-- Node24 -->
<g id="node24" class="node"><title>Node24</title>
<polygon fill="none" stroke="#bfbfbf" points="514.548,-174 514.548,-193 560.548,-193 560.548,-174 514.548,-174"/>
<text text-anchor="middle" x="537.548" y="-181" font-family="Helvetica,sans-Serif" font-size="10.00">chrono</text>
</g>
<!-- Node23&#45;&gt;Node24 -->
<g id="edge38" class="edge"><title>Node23&#45;&gt;Node24</title>
<path fill="none" stroke="midnightblue" d="M765.455,-240.993C711.486,-233.178 634.599,-219.639 569.548,-199 567.673,-198.405 565.762,-197.73 563.855,-197.004"/>
<polygon fill="midnightblue" stroke="midnightblue" points="565.101,-193.732 554.526,-193.092 562.394,-200.187 565.101,-193.732"/>
</g>
<!-- Node25 -->
<g id="node25" class="node"><title>Node25</title>
<polygon fill="none" stroke="#bfbfbf" points="578.548,-174 578.548,-193 656.548,-193 656.548,-174 578.548,-174"/>
<text text-anchor="middle" x="617.548" y="-181" font-family="Helvetica,sans-Serif" font-size="10.00">unordered_set</text>
</g>
<!-- Node23&#45;&gt;Node25 -->
<g id="edge43" class="edge"><title>Node23&#45;&gt;Node25</title>
<path fill="none" stroke="midnightblue" d="M805.008,-240.934C771.58,-230.898 714.538,-213.763 665.548,-199 662.238,-198.003 658.801,-196.966 655.355,-195.926"/>
<polygon fill="midnightblue" stroke="midnightblue" points="656.304,-192.557 645.719,-193.017 654.281,-199.258 656.304,-192.557"/>
</g>
<!-- Node26 -->
<g id="node26" class="node"><title>Node26</title>
<polygon fill="none" stroke="#bfbfbf" points="674.548,-174 674.548,-193 766.548,-193 766.548,-174 674.548,-174"/>
<text text-anchor="middle" x="720.548" y="-181" font-family="Helvetica,sans-Serif" font-size="10.00">Common/Timer.h</text>
</g>
<!-- Node23&#45;&gt;Node26 -->
<g id="edge44" class="edge"><title>Node23&#45;&gt;Node26</title>
<path fill="none" stroke="midnightblue" d="M818.308,-240.734C799.332,-229.818 766.702,-211.049 744.401,-198.221"/>
<polygon fill="midnightblue" stroke="midnightblue" points="745.959,-195.08 735.546,-193.127 742.469,-201.147 745.959,-195.08"/>
</g>
<!-- Node27 -->
<g id="node27" class="node"><title>Node27</title>
<polygon fill="none" stroke="#bfbfbf" points="784.548,-174 784.548,-193 882.548,-193 882.548,-174 784.548,-174"/>
<text text-anchor="middle" x="833.548" y="-181" font-family="Helvetica,sans-Serif" font-size="10.00">Framework/Task.h</text>
</g>
<!-- Node23&#45;&gt;Node27 -->
<g id="edge45" class="edge"><title>Node23&#45;&gt;Node27</title>
<path fill="none" stroke="midnightblue" d="M833.548,-240.734C833.548,-231.183 833.548,-215.618 833.548,-203.283"/>
<polygon fill="midnightblue" stroke="midnightblue" points="837.048,-203.127 833.548,-193.127 830.048,-203.127 837.048,-203.127"/>
</g>
<!-- Node28 -->
<g id="node28" class="node"><title>Node28</title>
<polygon fill="none" stroke="#bfbfbf" points="901.048,-174 901.048,-193 1018.05,-193 1018.05,-174 901.048,-174"/>
<text text-anchor="middle" x="959.548" y="-181" font-family="Helvetica,sans-Serif" font-size="10.00">Headers/DataHeader.h</text>
</g>
<!-- Node23&#45;&gt;Node28 -->
<g id="edge46" class="edge"><title>Node23&#45;&gt;Node28</title>
<path fill="none" stroke="midnightblue" d="M850.28,-240.869C871.649,-229.845 908.846,-210.655 933.829,-197.768"/>
<polygon fill="midnightblue" stroke="midnightblue" points="935.464,-200.862 942.747,-193.167 932.255,-194.641 935.464,-200.862"/>
</g>
<!-- Node29 -->
<g id="node29" class="node"><title>Node29</title>
<polygon fill="none" stroke="#bfbfbf" points="1036.05,-174 1036.05,-193 1187.05,-193 1187.05,-174 1036.05,-174"/>
<text text-anchor="middle" x="1111.55" y="-181" font-family="Helvetica,sans-Serif" font-size="10.00">Monitoring/MonitoringFactory.h</text>
</g>
<!-- Node23&#45;&gt;Node29 -->
<g id="edge47" class="edge"><title>Node23&#45;&gt;Node29</title>
<path fill="none" stroke="midnightblue" d="M870.177,-240.936C920.284,-229.22 1010.22,-208.193 1065.03,-195.377"/>
<polygon fill="midnightblue" stroke="midnightblue" points="1065.9,-198.768 1074.84,-193.083 1064.3,-191.952 1065.9,-198.768"/>
</g>
<!-- Node30 -->
<g id="node30" class="node"><title>Node30</title>
<polygon fill="none" stroke="#bfbfbf" points="1205.05,-168.5 1205.05,-198.5 1340.05,-198.5 1340.05,-168.5 1205.05,-168.5"/>
<text text-anchor="start" x="1213.05" y="-186.5" font-family="Helvetica,sans-Serif" font-size="10.00">Configuration/Configuration</text>
<text text-anchor="middle" x="1272.55" y="-175.5" font-family="Helvetica,sans-Serif" font-size="10.00">Interface.h</text>
</g>
<!-- Node23&#45;&gt;Node30 -->
<g id="edge48" class="edge"><title>Node23&#45;&gt;Node30</title>
<path fill="none" stroke="midnightblue" d="M881.024,-240.945C892.933,-238.898 905.695,-236.79 917.548,-235 1037.61,-216.872 1070.83,-218.441 1195.08,-199.013"/>
<polygon fill="midnightblue" stroke="midnightblue" points="1195.65,-202.467 1204.98,-197.451 1194.56,-195.552 1195.65,-202.467"/>
</g>
<!-- Node31 -->
<g id="node31" class="node"><title>Node31</title>
<g id="a_node31"><a xlink:href="DatabaseInterface_8h.html" target="_top" xlink:title="QualityControl/DatabaseInterface.h">
<polygon fill="none" stroke="black" points="1630.55,-174 1630.55,-193 1800.55,-193 1800.55,-174 1630.55,-174"/>
<text text-anchor="middle" x="1715.55" y="-181" font-family="Helvetica,sans-Serif" font-size="10.00">QualityControl/DatabaseInterface.h</text>
</a>
</g>
</g>
<!-- Node23&#45;&gt;Node31 -->
<g id="edge51" class="edge"><title>Node23&#45;&gt;Node31</title>
<path fill="none" stroke="midnightblue" d="M877.004,-240.981C889.999,-238.709 904.311,-236.478 917.548,-235 1226.7,-200.481 1306.98,-229.574 1616.55,-199 1628.57,-197.813 1641.36,-196.201 1653.62,-194.483"/>
<polygon fill="midnightblue" stroke="midnightblue" points="1654.37,-197.911 1663.77,-193.021 1653.37,-190.983 1654.37,-197.911"/>
</g>
<!-- Node33 -->
<g id="node33" class="node"><title>Node33</title>
<g id="a_node33"><a xlink:href="UpdatePolicyManager_8h.html" target="_top" xlink:title="QualityControl/UpdatePolicy\lManager.h">
<polygon fill="none" stroke="black" points="1396.55,-168.5 1396.55,-198.5 1536.55,-198.5 1536.55,-168.5 1396.55,-168.5"/>
<text text-anchor="start" x="1404.55" y="-186.5" font-family="Helvetica,sans-Serif" font-size="10.00">QualityControl/UpdatePolicy</text>
<text text-anchor="middle" x="1466.55" y="-175.5" font-family="Helvetica,sans-Serif" font-size="10.00">Manager.h</text>
</a>
</g>
</g>
<!-- Node23&#45;&gt;Node33 -->
<g id="edge62" class="edge"><title>Node23&#45;&gt;Node33</title>
<path fill="none" stroke="midnightblue" d="M878.334,-240.969C890.978,-238.779 904.772,-236.594 917.548,-235 1123.24,-209.342 1176.86,-224.658 1382.55,-199 1383.83,-198.84 1385.12,-198.675 1386.42,-198.504"/>
<polygon fill="midnightblue" stroke="midnightblue" points="1387.07,-201.946 1396.49,-197.098 1386.11,-195.013 1387.07,-201.946"/>
</g>
<!-- Node31&#45;&gt;Node3 -->
<g id="edge52" class="edge"><title>Node31&#45;&gt;Node3</title>
<path fill="none" stroke="midnightblue" d="M1690.07,-173.959C1662.66,-164.544 1617.97,-148.53 1580.55,-132 1562.73,-124.13 1560.25,-117.452 1541.55,-112 1376.98,-64.0252 1310.21,-153.964 1157.55,-76 1136.74,-65.3719 1120.16,-43.6305 1110.36,-28.2238"/>
<polygon fill="midnightblue" stroke="midnightblue" points="1113.32,-26.3584 1105.16,-19.6056 1107.33,-29.9756 1113.32,-26.3584"/>
</g>
<!-- Node31&#45;&gt;Node9 -->
<g id="edge54" class="edge"><title>Node31&#45;&gt;Node9</title>
<path fill="none" stroke="midnightblue" d="M1658.35,-173.972C1603.67,-165.417 1518.78,-151.087 1436.58,-132.052"/>
<polygon fill="midnightblue" stroke="midnightblue" points="1437.36,-128.641 1426.83,-129.769 1435.76,-135.456 1437.36,-128.641"/>
</g>
<!-- Node31&#45;&gt;Node10 -->
<g id="edge53" class="edge"><title>Node31&#45;&gt;Node10</title>
<path fill="none" stroke="midnightblue" d="M1680.45,-173.975C1634.19,-162.742 1553.26,-143.087 1506.56,-131.745"/>
<polygon fill="midnightblue" stroke="midnightblue" points="1507.12,-128.281 1496.58,-129.322 1505.47,-135.083 1507.12,-128.281"/>
</g>
<!-- Node31&#45;&gt;Node11 -->
<g id="edge55" class="edge"><title>Node31&#45;&gt;Node11</title>
<path fill="none" stroke="midnightblue" d="M1682.45,-173.98C1648.42,-164.876 1594.11,-149.384 1548.55,-132 1528.86,-124.486 1525.95,-117.288 1505.55,-112 1450.78,-97.8034 1072.26,-76.9616 932.362,-69.6512"/>
<polygon fill="midnightblue" stroke="midnightblue" points="932.485,-66.153 922.317,-69.1282 932.121,-73.1435 932.485,-66.153"/>
</g>
<!-- Node31&#45;&gt;Node14 -->
<g id="edge57" class="edge"><title>Node31&#45;&gt;Node14</title>
<path fill="none" stroke="midnightblue" d="M1708.24,-173.975C1700.51,-164.962 1688.14,-150.525 1678.53,-139.312"/>
<polygon fill="midnightblue" stroke="midnightblue" points="1681.01,-136.824 1671.84,-131.509 1675.69,-141.379 1681.01,-136.824"/>
</g>
<!-- Node31&#45;&gt;Node17 -->
<g id="edge58" class="edge"><title>Node31&#45;&gt;Node17</title>
<path fill="none" stroke="midnightblue" d="M1725.02,-173.87C1739.43,-159.703 1763.59,-131.175 1747.55,-112 1726.62,-86.9813 1646.61,-75.8549 1582.48,-70.917"/>
<polygon fill="midnightblue" stroke="midnightblue" points="1582.56,-67.4139 1572.33,-70.1765 1582.05,-74.3953 1582.56,-67.4139"/>
</g>
<!-- Node32 -->
<g id="node32" class="node"><title>Node32</title>
<polygon fill="none" stroke="#bfbfbf" points="1794.55,-112.5 1794.55,-131.5 1940.55,-131.5 1940.55,-112.5 1794.55,-112.5"/>
<text text-anchor="middle" x="1867.55" y="-119.5" font-family="Helvetica,sans-Serif" font-size="10.00">Framework/ServiceRegistry.h</text>
</g>
<!-- Node31&#45;&gt;Node32 -->
<g id="edge56" class="edge"><title>Node31&#45;&gt;Node32</title>
<path fill="none" stroke="midnightblue" d="M1737.33,-173.975C1763.29,-163.813 1806.86,-146.756 1836.38,-135.2"/>
<polygon fill="midnightblue" stroke="midnightblue" points="1837.77,-138.413 1845.81,-131.509 1835.22,-131.895 1837.77,-138.413"/>
</g>
<!-- Node33&#45;&gt;Node3 -->
<g id="edge63" class="edge"><title>Node33&#45;&gt;Node3</title>
<path fill="none" stroke="midnightblue" d="M1397.26,-168.473C1359.47,-159.853 1312.24,-147.485 1271.55,-132 1253.34,-125.072 1250.51,-119.546 1232.55,-112 1185.9,-92.3993 1160.89,-111.201 1124.55,-76 1112,-63.8491 1105.97,-44.5737 1103.09,-30.1632"/>
<polygon fill="midnightblue" stroke="midnightblue" points="1106.48,-29.178 1101.4,-19.8784 1099.57,-30.3138 1106.48,-29.178"/>
</g>
<!-- Node33&#45;&gt;Node7 -->
<g id="edge66" class="edge"><title>Node33&#45;&gt;Node7</title>
<path fill="none" stroke="midnightblue" d="M1402.43,-168.475C1350.27,-157.064 1278.3,-141.321 1234.18,-131.669"/>
<polygon fill="midnightblue" stroke="midnightblue" points="1234.91,-128.247 1224.39,-129.529 1233.42,-135.085 1234.91,-128.247"/>
</g>
<!-- Node33&#45;&gt;Node8 -->
<g id="edge64" class="edge"><title>Node33&#45;&gt;Node8</title>
<path fill="none" stroke="midnightblue" d="M1425.79,-168.38C1407.59,-160.253 1387.22,-148.351 1373.55,-132 1348.44,-101.971 1338.93,-55.6623 1335.45,-29.914"/>
<polygon fill="midnightblue" stroke="midnightblue" points="1338.89,-29.1841 1334.25,-19.6628 1331.94,-30.004 1338.89,-29.1841"/>
</g>
<!-- Node33&#45;&gt;Node9 -->
<g id="edge65" class="edge"><title>Node33&#45;&gt;Node9</title>
<path fill="none" stroke="midnightblue" d="M1451.85,-168.399C1442.57,-159.486 1430.55,-147.952 1420.95,-138.741"/>
<polygon fill="midnightblue" stroke="midnightblue" points="1423.21,-136.057 1413.57,-131.658 1418.36,-141.107 1423.21,-136.057"/>
</g>
<!-- Node34 -->
<g id="node34" class="node"><title>Node34</title>
<polygon fill="none" stroke="#bfbfbf" points="1281.05,-112.5 1281.05,-131.5 1326.05,-131.5 1326.05,-112.5 1281.05,-112.5"/>
<text text-anchor="middle" x="1303.55" y="-119.5" font-family="Helvetica,sans-Serif" font-size="10.00">iosfwd</text>
</g>
<!-- Node33&#45;&gt;Node34 -->
<g id="edge67" class="edge"><title>Node33&#45;&gt;Node34</title>
<path fill="none" stroke="midnightblue" d="M1427.92,-168.399C1399.87,-158.161 1362.35,-144.465 1335.88,-134.802"/>
<polygon fill="midnightblue" stroke="midnightblue" points="1336.91,-131.454 1326.32,-131.312 1334.51,-138.029 1336.91,-131.454"/>
</g>
</g>
</svg>
        <g id="navigator" transform="translate(0 0)" fill="#404254">
                <rect fill="#f2f5e9" fill-opacity="0.5" stroke="#606060" stroke-width=".5" x="0" y="0" width="60" height="60"/>
                <use id="zoomplus" xlink:href="#zoomPlus" x="17" y="9" onmousedown="handleZoom(evt,'in')"/>
                <use id="zoomminus" xlink:href="#zoomMin" x="42" y="9" onmousedown="handleZoom(evt,'out')"/>
                <use id="reset" xlink:href="#resetDef" x="30" y="36" onmousedown="handleReset()"/>
                <g id="arrowUp" xlink:href="#dirArrow" transform="translate(30 24)" onmousedown="handlePan(0,-1)">
                  <use xlink:href="#rim" fill="#404040">
                        <set attributeName="fill" to="#808080" begin="arrowUp.mouseover" end="arrowUp.mouseout"/>
                  </use>
                  <path fill="none" stroke="white" stroke-width="1.5" d="M0,-3.0v7 M-2.5,-0.5L0,-3.0L2.5,-0.5"/>
                </g>
                <g id="arrowRight" xlink:href="#dirArrow" transform="rotate(90) translate(36 -43)" onmousedown="handlePan(1,0)">
                  <use xlink:href="#rim" fill="#404040">
                        <set attributeName="fill" to="#808080" begin="arrowRight.mouseover" end="arrowRight.mouseout"/>
                  </use>
                  <path fill="none" stroke="white" stroke-width="1.5" d="M0,-3.0v7 M-2.5,-0.5L0,-3.0L2.5,-0.5"/>
                </g>
                <g id="arrowDown" xlink:href="#dirArrow" transform="rotate(180) translate(-30 -48)" onmousedown="handlePan(0,1)">
                  <use xlink:href="#rim" fill="#404040">
                        <set attributeName="fill" to="#808080" begin="arrowDown.mouseover" end="arrowDown.mouseout"/>
                  </use>
                  <path fill="none" stroke="white" stroke-width="1.5" d="M0,-3.0v7 M-2.5,-0.5L0,-3.0L2.5,-0.5"/>
                </g>
                <g id="arrowLeft" xlink:href="#dirArrow" transform="rotate(270) translate(-36 17)" onmousedown="handlePan(-1,0)">
                  <use xlink:href="#rim" fill="#404040">
                        <set attributeName="fill" to="#808080" begin="arrowLeft.mouseover" end="arrowLeft.mouseout"/>
                  </use>
                  <path fill="none" stroke="white" stroke-width="1.5" d="M0,-3.0v7 M-2.5,-0.5L0,-3.0L2.5,-0.5"/>
                </g>
        </g>
        <svg viewBox="0 0 15 15" width="100%" height="30px" preserveAspectRatio="xMaxYMin meet">
         <g id="arrow_out" transform="scale(0.3 0.3)">
          <a xlink:href="testCheckRunner_8cxx__incl_org.svg" target="_base">
           <rect id="button" ry="5" rx="5" y="6" x="6" height="38" width="38"
                fill="#f2f5e9" fill-opacity="0.5" stroke="#606060" stroke-width="1.0"/>
           <path id="arrow"
             d="M 11.500037,31.436501 C 11.940474,20.09759 22.043105,11.32322 32.158766,21.979434 L 37.068811,17.246167 C 37.068811,17.246167 37.088388,32 37.088388,32 L 22.160133,31.978069 C 22.160133,31.978069 26.997745,27.140456 26.997745,27.140456 C 18.528582,18.264221 13.291696,25.230495 11.500037,31.436501 z"
             style="fill:#404040;"/>
          </a>
         </g>
        </svg>
</svg>
