<?xml version="1.0" encoding="UTF-8" standalone="no"?>
<!DOCTYPE svg PUBLIC "-//W3C//DTD SVG 1.1//EN"
 "http://www.w3.org/Graphics/SVG/1.1/DTD/svg11.dtd">
<!-- Generated by graphviz version 2.38.0 (20140413.2041)
 -->
<!-- Title: Framework/test/testCcdbDatabaseExtra.cxx Pages: 1 -->
<!--zoomable 330 -->
<svg id="main" version="1.1" xmlns="http://www.w3.org/2000/svg" xmlns:xlink="http://www.w3.org/1999/xlink" xml:space="preserve" onload="init(evt)">
<style type="text/css"><![CDATA[
.edge:hover path { stroke: red; }
.edge:hover polygon { stroke: red; fill: red; }
]]></style>
<script type="text/javascript"><![CDATA[
var edges = document.getElementsByTagName('g');
if (edges && edges.length) {
  for (var i=0;i<edges.length;i++) {
    if (edges[i].id.substr(0,4)=='edge') {
      edges[i].setAttribute('class','edge');
    }
  }
}
]]></script>
        <defs>
                <circle id="rim" cx="0" cy="0" r="7"/>
                <circle id="rim2" cx="0" cy="0" r="3.5"/>
                <g id="zoomPlus">
                        <use xlink:href="#rim" fill="#404040">
                                <set attributeName="fill" to="#808080" begin="zoomplus.mouseover" end="zoomplus.mouseout"/>
                        </use>
                        <path d="M-4,0h8M0,-4v8" fill="none" stroke="white" stroke-width="1.5" pointer-events="none"/>
                </g>
                <g id="zoomMin">
                        <use xlink:href="#rim" fill="#404040">
                                <set attributeName="fill" to="#808080" begin="zoomminus.mouseover" end="zoomminus.mouseout"/>
                        </use>
                        <path d="M-4,0h8" fill="none" stroke="white" stroke-width="1.5" pointer-events="none"/>
                </g>
                <g id="dirArrow">
                        <path fill="none" stroke="white" stroke-width="1.5" d="M0,-3.0v7 M-2.5,-0.5L0,-3.0L2.5,-0.5"/>
                </g>
               <g id="resetDef">
                       <use xlink:href="#rim2" fill="#404040">
                               <set attributeName="fill" to="#808080" begin="reset.mouseover" end="reset.mouseout"/>
                       </use>
               </g>
        </defs>

<script type="text/javascript">
var viewWidth = 1199;
var viewHeight = 330;
var sectionId = 'dynsection-0';
</script>
<script xlink:href="svgpan.js"/>
<svg id="graph" class="graph">
<g id="viewport">
<title>Framework/test/testCcdbDatabaseExtra.cxx</title>
<!-- Node1 -->
<g id="node1" class="node"><title>Node1</title>
<polygon fill="#bfbfbf" stroke="black" points="663,-291.5 663,-321.5 833,-321.5 833,-291.5 663,-291.5"/>
<text text-anchor="start" x="671" y="-309.5" font-family="Helvetica,sans-Serif" font-size="10.00">Framework/test/testCcdbDatabase</text>
<text text-anchor="middle" x="748" y="-298.5" font-family="Helvetica,sans-Serif" font-size="10.00">Extra.cxx</text>
</g>
<!-- Node2 -->
<g id="node2" class="node"><title>Node2</title>
<g id="a_node2"><a xlink:href="DatabaseFactory_8h.html" target="_top" xlink:title="QualityControl/DatabaseFactory.h">
<polygon fill="none" stroke="black" points="203.5,-230 203.5,-249 368.5,-249 368.5,-230 203.5,-230"/>
<text text-anchor="middle" x="286" y="-237" font-family="Helvetica,sans-Serif" font-size="10.00">QualityControl/DatabaseFactory.h</text>
</a>
</g>
</g>
<!-- Node1&#45;&gt;Node2 -->
<g id="edge1" class="edge"><title>Node1&#45;&gt;Node2</title>
<path fill="none" stroke="midnightblue" d="M662.827,-294.466C587.58,-284.584 474.906,-269.462 377,-255 367.721,-253.629 357.918,-252.126 348.319,-250.622"/>
<polygon fill="midnightblue" stroke="midnightblue" points="348.843,-247.162 338.42,-249.061 347.753,-254.076 348.843,-247.162"/>
</g>
<!-- Node7 -->
<g id="node7" class="node"><title>Node7</title>
<polygon fill="none" stroke="#bfbfbf" points="671.5,-112.5 671.5,-131.5 754.5,-131.5 754.5,-112.5 671.5,-112.5"/>
<text text-anchor="middle" x="713" y="-119.5" font-family="Helvetica,sans-Serif" font-size="10.00">unordered_map</text>
</g>
<!-- Node1&#45;&gt;Node7 -->
<g id="edge23" class="edge"><title>Node1&#45;&gt;Node7</title>
<path fill="none" stroke="midnightblue" d="M662.715,-298.344C634.665,-291.449 606.273,-278.609 589,-255 580.314,-243.127 586.138,-178.36 594,-168 603.507,-155.472 639.259,-142.958 669.116,-134.318"/>
<polygon fill="midnightblue" stroke="midnightblue" points="670.293,-137.623 678.969,-131.542 668.394,-130.885 670.293,-137.623"/>
</g>
<!-- Node16 -->
<g id="node16" class="node"><title>Node16</title>
<g id="a_node16"><a xlink:href="CcdbDatabase_8h.html" target="_top" xlink:title="QualityControl/CcdbDatabase.h">
<polygon fill="none" stroke="black" points="386.5,-230 386.5,-249 541.5,-249 541.5,-230 386.5,-230"/>
<text text-anchor="middle" x="464" y="-237" font-family="Helvetica,sans-Serif" font-size="10.00">QualityControl/CcdbDatabase.h</text>
</a>
</g>
</g>
<!-- Node1&#45;&gt;Node16 -->
<g id="edge24" class="edge"><title>Node1&#45;&gt;Node16</title>
<path fill="none" stroke="midnightblue" d="M686.726,-291.476C634.053,-279.421 559.189,-262.286 511.101,-251.28"/>
<polygon fill="midnightblue" stroke="midnightblue" points="511.793,-247.848 501.264,-249.029 510.231,-254.672 511.793,-247.848"/>
</g>
<!-- Node18 -->
<g id="node18" class="node"><title>Node18</title>
<g id="a_node18"><a xlink:href="QcInfoLogger_8h.html" target="_top" xlink:title="QualityControl/QcInfoLogger.h">
<polygon fill="none" stroke="black" points="597.5,-230 597.5,-249 746.5,-249 746.5,-230 597.5,-230"/>
<text text-anchor="middle" x="672" y="-237" font-family="Helvetica,sans-Serif" font-size="10.00">QualityControl/QcInfoLogger.h</text>
</a>
</g>
</g>
<!-- Node1&#45;&gt;Node18 -->
<g id="edge27" class="edge"><title>Node1&#45;&gt;Node18</title>
<path fill="none" stroke="midnightblue" d="M731.509,-291.396C719.307,-280.96 702.693,-266.751 690.121,-255.998"/>
<polygon fill="midnightblue" stroke="midnightblue" points="692.04,-253.034 682.166,-249.195 687.491,-258.354 692.04,-253.034"/>
</g>
<!-- Node21 -->
<g id="node21" class="node"><title>Node21</title>
<polygon fill="none" stroke="#bfbfbf" points="764.5,-230 764.5,-249 883.5,-249 883.5,-230 764.5,-230"/>
<text text-anchor="middle" x="824" y="-237" font-family="Helvetica,sans-Serif" font-size="10.00">boost/test/unit_test.hpp</text>
</g>
<!-- Node1&#45;&gt;Node21 -->
<g id="edge30" class="edge"><title>Node1&#45;&gt;Node21</title>
<path fill="none" stroke="midnightblue" d="M764.491,-291.396C776.693,-280.96 793.307,-266.751 805.879,-255.998"/>
<polygon fill="midnightblue" stroke="midnightblue" points="808.509,-258.354 813.834,-249.195 803.96,-253.034 808.509,-258.354"/>
</g>
<!-- Node22 -->
<g id="node22" class="node"><title>Node22</title>
<polygon fill="none" stroke="#bfbfbf" points="902,-230 902,-249 952,-249 952,-230 902,-230"/>
<text text-anchor="middle" x="927" y="-237" font-family="Helvetica,sans-Serif" font-size="10.00">TH1F.h</text>
</g>
<!-- Node1&#45;&gt;Node22 -->
<g id="edge31" class="edge"><title>Node1&#45;&gt;Node22</title>
<path fill="none" stroke="midnightblue" d="M790.787,-291.45C819.808,-281.713 858.94,-268.176 893,-255 894.646,-254.363 896.33,-253.696 898.026,-253.012"/>
<polygon fill="midnightblue" stroke="midnightblue" points="899.779,-256.075 907.675,-249.011 897.097,-249.609 899.779,-256.075"/>
</g>
<!-- Node23 -->
<g id="node23" class="node"><title>Node23</title>
<polygon fill="none" stroke="#bfbfbf" points="970.5,-224.5 970.5,-254.5 1071.5,-254.5 1071.5,-224.5 970.5,-224.5"/>
<text text-anchor="start" x="978.5" y="-242.5" font-family="Helvetica,sans-Serif" font-size="10.00">boost/property_tree</text>
<text text-anchor="middle" x="1021" y="-231.5" font-family="Helvetica,sans-Serif" font-size="10.00">/ptree.hpp</text>
</g>
<!-- Node1&#45;&gt;Node23 -->
<g id="edge32" class="edge"><title>Node1&#45;&gt;Node23</title>
<path fill="none" stroke="midnightblue" d="M807.695,-291.42C848.069,-281.88 902.867,-268.9 960.277,-255.168"/>
<polygon fill="midnightblue" stroke="midnightblue" points="961.354,-258.509 970.265,-252.777 959.725,-251.701 961.354,-258.509"/>
</g>
<!-- Node24 -->
<g id="node24" class="node"><title>Node24</title>
<polygon fill="none" stroke="#bfbfbf" points="1089.5,-224.5 1089.5,-254.5 1190.5,-254.5 1190.5,-224.5 1089.5,-224.5"/>
<text text-anchor="start" x="1097.5" y="-242.5" font-family="Helvetica,sans-Serif" font-size="10.00">boost/property_tree</text>
<text text-anchor="middle" x="1140" y="-231.5" font-family="Helvetica,sans-Serif" font-size="10.00">/json_parser.hpp</text>
</g>
<!-- Node1&#45;&gt;Node24 -->
<g id="edge33" class="edge"><title>Node1&#45;&gt;Node24</title>
<path fill="none" stroke="midnightblue" d="M833.227,-294.738C898.286,-286.022 990.321,-272.616 1079.23,-255.259"/>
<polygon fill="midnightblue" stroke="midnightblue" points="1080.08,-258.658 1089.22,-253.29 1078.73,-251.791 1080.08,-258.658"/>
</g>
<!-- Node3 -->
<g id="node3" class="node"><title>Node3</title>
<polygon fill="none" stroke="#bfbfbf" points="0,-112.5 0,-131.5 52,-131.5 52,-112.5 0,-112.5"/>
<text text-anchor="middle" x="26" y="-119.5" font-family="Helvetica,sans-Serif" font-size="10.00">memory</text>
</g>
<!-- Node2&#45;&gt;Node3 -->
<g id="edge2" class="edge"><title>Node2&#45;&gt;Node3</title>
<path fill="none" stroke="midnightblue" d="M266.458,-229.819C220.986,-209.619 107.918,-159.391 54.6375,-135.722"/>
<polygon fill="midnightblue" stroke="midnightblue" points="55.9741,-132.486 45.4144,-131.624 53.1323,-138.883 55.9741,-132.486"/>
</g>
<!-- Node4 -->
<g id="node4" class="node"><title>Node4</title>
<g id="a_node4"><a xlink:href="DatabaseInterface_8h.html" target="_top" xlink:title="QualityControl/DatabaseInterface.h">
<polygon fill="none" stroke="black" points="215,-168.5 215,-187.5 385,-187.5 385,-168.5 215,-168.5"/>
<text text-anchor="middle" x="300" y="-175.5" font-family="Helvetica,sans-Serif" font-size="10.00">QualityControl/DatabaseInterface.h</text>
</a>
</g>
</g>
<!-- Node2&#45;&gt;Node4 -->
<g id="edge3" class="edge"><title>Node2&#45;&gt;Node4</title>
<path fill="none" stroke="midnightblue" d="M288.006,-229.975C290.002,-221.492 293.128,-208.204 295.689,-197.322"/>
<polygon fill="midnightblue" stroke="midnightblue" points="299.114,-198.045 297.998,-187.509 292.3,-196.442 299.114,-198.045"/>
</g>
<!-- Node4&#45;&gt;Node3 -->
<g id="edge5" class="edge"><title>Node4&#45;&gt;Node3</title>
<path fill="none" stroke="midnightblue" d="M253.297,-168.464C206.003,-159.716 130.796,-145.517 66,-132 64.7457,-131.738 63.4701,-131.469 62.1823,-131.194"/>
<polygon fill="midnightblue" stroke="midnightblue" points="62.7405,-127.734 52.2245,-129.024 61.2497,-134.573 62.7405,-127.734"/>
</g>
<!-- Node5 -->
<g id="node5" class="node"><title>Node5</title>
<polygon fill="none" stroke="#bfbfbf" points="111.5,-0.5 111.5,-19.5 152.5,-19.5 152.5,-0.5 111.5,-0.5"/>
<text text-anchor="middle" x="132" y="-7.5" font-family="Helvetica,sans-Serif" font-size="10.00">string</text>
</g>
<!-- Node4&#45;&gt;Node5 -->
<g id="edge4" class="edge"><title>Node4&#45;&gt;Node5</title>
<path fill="none" stroke="midnightblue" d="M214.866,-168.559C166.933,-161.853 113.781,-150.457 99,-132 74.27,-101.121 101.265,-53.1254 119.021,-27.8626"/>
<polygon fill="midnightblue" stroke="midnightblue" points="121.945,-29.793 125.031,-19.6576 116.298,-25.6562 121.945,-29.793"/>
</g>
<!-- Node6 -->
<g id="node6" class="node"><title>Node6</title>
<polygon fill="none" stroke="#bfbfbf" points="278,-112.5 278,-131.5 322,-131.5 322,-112.5 278,-112.5"/>
<text text-anchor="middle" x="300" y="-119.5" font-family="Helvetica,sans-Serif" font-size="10.00">vector</text>
</g>
<!-- Node4&#45;&gt;Node6 -->
<g id="edge6" class="edge"><title>Node4&#45;&gt;Node6</title>
<path fill="none" stroke="midnightblue" d="M300,-168.083C300,-161.006 300,-150.861 300,-141.986"/>
<polygon fill="midnightblue" stroke="midnightblue" points="303.5,-141.751 300,-131.751 296.5,-141.751 303.5,-141.751"/>
</g>
<!-- Node4&#45;&gt;Node7 -->
<g id="edge7" class="edge"><title>Node4&#45;&gt;Node7</title>
<path fill="none" stroke="midnightblue" d="M377.834,-168.486C448.954,-160.441 557.274,-147.522 661.234,-132.046"/>
<polygon fill="midnightblue" stroke="midnightblue" points="661.909,-135.484 671.28,-130.541 660.871,-128.562 661.909,-135.484"/>
</g>
<!-- Node8 -->
<g id="node8" class="node"><title>Node8</title>
<polygon fill="none" stroke="#bfbfbf" points="340,-112.5 340,-131.5 486,-131.5 486,-112.5 340,-112.5"/>
<text text-anchor="middle" x="413" y="-119.5" font-family="Helvetica,sans-Serif" font-size="10.00">Framework/ServiceRegistry.h</text>
</g>
<!-- Node4&#45;&gt;Node8 -->
<g id="edge8" class="edge"><title>Node4&#45;&gt;Node8</title>
<path fill="none" stroke="midnightblue" d="M317.905,-168.444C336.254,-159.675 365.005,-145.935 386.094,-135.858"/>
<polygon fill="midnightblue" stroke="midnightblue" points="387.665,-138.986 395.179,-131.516 384.647,-132.67 387.665,-138.986"/>
</g>
<!-- Node9 -->
<g id="node9" class="node"><title>Node9</title>
<g id="a_node9"><a xlink:href="QualityObject_8h_source.html" target="_top" xlink:title="QualityControl/QualityObject.h">
<polygon fill="none" stroke="black" points="504.5,-112.5 504.5,-131.5 653.5,-131.5 653.5,-112.5 504.5,-112.5"/>
<text text-anchor="middle" x="579" y="-119.5" font-family="Helvetica,sans-Serif" font-size="10.00">QualityControl/QualityObject.h</text>
</a>
</g>
</g>
<!-- Node4&#45;&gt;Node9 -->
<g id="edge9" class="edge"><title>Node4&#45;&gt;Node9</title>
<path fill="none" stroke="midnightblue" d="M344.208,-168.444C393.287,-158.944 472.51,-143.611 525.164,-133.42"/>
<polygon fill="midnightblue" stroke="midnightblue" points="525.846,-136.853 534.998,-131.516 524.516,-129.98 525.846,-136.853"/>
</g>
<!-- Node15 -->
<g id="node15" class="node"><title>Node15</title>
<g id="a_node15"><a xlink:href="MonitorObject_8h.html" target="_top" xlink:title="QualityControl/MonitorObject.h">
<polygon fill="none" stroke="black" points="108.5,-112.5 108.5,-131.5 259.5,-131.5 259.5,-112.5 108.5,-112.5"/>
<text text-anchor="middle" x="184" y="-119.5" font-family="Helvetica,sans-Serif" font-size="10.00">QualityControl/MonitorObject.h</text>
</a>
</g>
</g>
<!-- Node4&#45;&gt;Node15 -->
<g id="edge17" class="edge"><title>Node4&#45;&gt;Node15</title>
<path fill="none" stroke="midnightblue" d="M281.619,-168.444C262.784,-159.675 233.269,-145.935 211.621,-135.858"/>
<polygon fill="midnightblue" stroke="midnightblue" points="212.838,-132.564 202.295,-131.516 209.883,-138.91 212.838,-132.564"/>
</g>
<!-- Node10 -->
<g id="node10" class="node"><title>Node10</title>
<polygon fill="none" stroke="#bfbfbf" points="491.5,-0.5 491.5,-19.5 526.5,-19.5 526.5,-0.5 491.5,-0.5"/>
<text text-anchor="middle" x="509" y="-7.5" font-family="Helvetica,sans-Serif" font-size="10.00">map</text>
</g>
<!-- Node9&#45;&gt;Node10 -->
<g id="edge10" class="edge"><title>Node9&#45;&gt;Node10</title>
<path fill="none" stroke="midnightblue" d="M581.285,-112.355C584.242,-99.2508 587.922,-73.9852 578,-56 569.046,-39.7699 551.472,-28.4393 536.302,-21.2073"/>
<polygon fill="midnightblue" stroke="midnightblue" points="537.358,-17.8487 526.794,-17.0363 534.546,-24.259 537.358,-17.8487"/>
</g>
<!-- Node11 -->
<g id="node11" class="node"><title>Node11</title>
<polygon fill="none" stroke="#bfbfbf" points="236.5,-56.5 236.5,-75.5 295.5,-75.5 295.5,-56.5 236.5,-56.5"/>
<text text-anchor="middle" x="266" y="-63.5" font-family="Helvetica,sans-Serif" font-size="10.00">TObject.h</text>
</g>
<!-- Node9&#45;&gt;Node11 -->
<g id="edge11" class="edge"><title>Node9&#45;&gt;Node11</title>
<path fill="none" stroke="midnightblue" d="M520.277,-112.468C466.943,-104.468 385.883,-91.682 306.008,-76.0918"/>
<polygon fill="midnightblue" stroke="midnightblue" points="306.256,-72.5735 295.768,-74.0762 304.904,-79.4417 306.256,-72.5735"/>
</g>
<!-- Node12 -->
<g id="node12" class="node"><title>Node12</title>
<polygon fill="none" stroke="#bfbfbf" points="314,-56.5 314,-75.5 430,-75.5 430,-56.5 314,-56.5"/>
<text text-anchor="middle" x="372" y="-63.5" font-family="Helvetica,sans-Serif" font-size="10.00">Common/Exceptions.h</text>
</g>
<!-- Node9&#45;&gt;Node12 -->
<g id="edge12" class="edge"><title>Node9&#45;&gt;Node12</title>
<path fill="none" stroke="midnightblue" d="M546.2,-112.444C510.62,-103.162 453.686,-88.3093 414.653,-78.127"/>
<polygon fill="midnightblue" stroke="midnightblue" points="415.206,-74.6541 404.646,-75.5164 413.439,-81.4274 415.206,-74.6541"/>
</g>
<!-- Node13 -->
<g id="node13" class="node"><title>Node13</title>
<g id="a_node13"><a xlink:href="Quality_8h.html" target="_top" xlink:title="QualityControl/Quality.h">
<polygon fill="none" stroke="black" points="448.5,-56.5 448.5,-75.5 569.5,-75.5 569.5,-56.5 448.5,-56.5"/>
<text text-anchor="middle" x="509" y="-63.5" font-family="Helvetica,sans-Serif" font-size="10.00">QualityControl/Quality.h</text>
</a>
</g>
</g>
<!-- Node9&#45;&gt;Node13 -->
<g id="edge13" class="edge"><title>Node9&#45;&gt;Node13</title>
<path fill="none" stroke="midnightblue" d="M567.753,-112.324C557.203,-104.185 541.199,-91.8395 528.558,-82.0874"/>
<polygon fill="midnightblue" stroke="midnightblue" points="530.507,-79.1707 520.451,-75.8339 526.231,-84.7132 530.507,-79.1707"/>
</g>
<!-- Node13&#45;&gt;Node5 -->
<g id="edge15" class="edge"><title>Node13&#45;&gt;Node5</title>
<path fill="none" stroke="midnightblue" d="M449.263,-56.4435C367.811,-44.7767 224.916,-24.309 162.556,-15.3767"/>
<polygon fill="midnightblue" stroke="midnightblue" points="162.965,-11.8996 152.569,-13.9463 161.972,-18.8289 162.965,-11.8996"/>
</g>
<!-- Node13&#45;&gt;Node10 -->
<g id="edge16" class="edge"><title>Node13&#45;&gt;Node10</title>
<path fill="none" stroke="midnightblue" d="M509,-56.083C509,-49.0059 509,-38.8611 509,-29.9865"/>
<polygon fill="midnightblue" stroke="midnightblue" points="512.5,-29.751 509,-19.7511 505.5,-29.7511 512.5,-29.751"/>
</g>
<!-- Node14 -->
<g id="node14" class="node"><title>Node14</title>
<polygon fill="none" stroke="#bfbfbf" points="294,-0.5 294,-19.5 350,-19.5 350,-0.5 294,-0.5"/>
<text text-anchor="middle" x="322" y="-7.5" font-family="Helvetica,sans-Serif" font-size="10.00">Rtypes.h</text>
</g>
<!-- Node13&#45;&gt;Node14 -->
<g id="edge14" class="edge"><title>Node13&#45;&gt;Node14</title>
<path fill="none" stroke="midnightblue" d="M479.369,-56.4435C447.125,-47.1323 395.469,-32.2155 360.199,-22.0308"/>
<polygon fill="midnightblue" stroke="midnightblue" points="360.846,-18.5748 350.268,-19.1629 358.904,-25.3 360.846,-18.5748"/>
</g>
<!-- Node15&#45;&gt;Node5 -->
<g id="edge18" class="edge"><title>Node15&#45;&gt;Node5</title>
<path fill="none" stroke="midnightblue" d="M177.871,-112.34C171.791,-103.496 162.472,-89.2234 156,-76 148.564,-60.8059 142.055,-42.6908 137.699,-29.4487"/>
<polygon fill="midnightblue" stroke="midnightblue" points="140.945,-28.1071 134.573,-19.6426 134.276,-30.2332 140.945,-28.1071"/>
</g>
<!-- Node15&#45;&gt;Node10 -->
<g id="edge19" class="edge"><title>Node15&#45;&gt;Node10</title>
<path fill="none" stroke="midnightblue" d="M187.141,-112.135C192.731,-97.7666 205.843,-69.6294 227,-56 268.775,-29.0882 418.044,-16.7302 480.842,-12.6349"/>
<polygon fill="midnightblue" stroke="midnightblue" points="481.415,-16.1059 491.176,-11.9853 480.976,-9.11968 481.415,-16.1059"/>
</g>
<!-- Node15&#45;&gt;Node11 -->
<g id="edge21" class="edge"><title>Node15&#45;&gt;Node11</title>
<path fill="none" stroke="midnightblue" d="M197.175,-112.324C209.847,-103.979 229.233,-91.2122 244.206,-81.3524"/>
<polygon fill="midnightblue" stroke="midnightblue" points="246.431,-84.0776 252.858,-75.6545 242.581,-78.2313 246.431,-84.0776"/>
</g>
<!-- Node15&#45;&gt;Node12 -->
<g id="edge22" class="edge"><title>Node15&#45;&gt;Node12</title>
<path fill="none" stroke="midnightblue" d="M213.789,-112.444C245.829,-103.241 296.933,-88.5617 332.353,-78.3879"/>
<polygon fill="midnightblue" stroke="midnightblue" points="333.705,-81.6412 342.35,-75.5164 331.773,-74.9132 333.705,-81.6412"/>
</g>
<!-- Node15&#45;&gt;Node14 -->
<g id="edge20" class="edge"><title>Node15&#45;&gt;Node14</title>
<path fill="none" stroke="midnightblue" d="M182.744,-112.304C181.287,-98.6727 180.584,-72.1664 194,-56 215.972,-29.5237 254.54,-18.6108 283.613,-14.1206"/>
<polygon fill="midnightblue" stroke="midnightblue" points="284.404,-17.5457 293.847,-12.74 283.468,-10.6085 284.404,-17.5457"/>
</g>
<!-- Node16&#45;&gt;Node4 -->
<g id="edge26" class="edge"><title>Node16&#45;&gt;Node4</title>
<path fill="none" stroke="midnightblue" d="M440.503,-229.975C412.371,-219.769 365.071,-202.608 333.211,-191.049"/>
<polygon fill="midnightblue" stroke="midnightblue" points="334.048,-187.63 323.454,-187.509 331.66,-194.21 334.048,-187.63"/>
</g>
<!-- Node17 -->
<g id="node17" class="node"><title>Node17</title>
<polygon fill="none" stroke="#bfbfbf" points="416.5,-168.5 416.5,-187.5 511.5,-187.5 511.5,-168.5 416.5,-168.5"/>
<text text-anchor="middle" x="464" y="-175.5" font-family="Helvetica,sans-Serif" font-size="10.00">CCDB/CcdbApi.h</text>
</g>
<!-- Node16&#45;&gt;Node17 -->
<g id="edge25" class="edge"><title>Node16&#45;&gt;Node17</title>
<path fill="none" stroke="midnightblue" d="M464,-229.975C464,-221.58 464,-208.481 464,-197.663"/>
<polygon fill="midnightblue" stroke="midnightblue" points="467.5,-197.509 464,-187.509 460.5,-197.509 467.5,-197.509"/>
</g>
<!-- Node19 -->
<g id="node19" class="node"><title>Node19</title>
<polygon fill="none" stroke="#bfbfbf" points="603,-168.5 603,-187.5 733,-187.5 733,-168.5 603,-168.5"/>
<text text-anchor="middle" x="668" y="-175.5" font-family="Helvetica,sans-Serif" font-size="10.00">InfoLogger/InfoLogger.hxx</text>
</g>
<!-- Node18&#45;&gt;Node19 -->
<g id="edge28" class="edge"><title>Node18&#45;&gt;Node19</title>
<path fill="none" stroke="midnightblue" d="M671.427,-229.975C670.863,-221.58 669.982,-208.481 669.255,-197.663"/>
<polygon fill="midnightblue" stroke="midnightblue" points="672.735,-197.252 668.572,-187.509 665.751,-197.721 672.735,-197.252"/>
</g>
<!-- Node20 -->
<g id="node20" class="node"><title>Node20</title>
<polygon fill="none" stroke="#bfbfbf" points="751,-168.5 751,-187.5 913,-187.5 913,-168.5 751,-168.5"/>
<text text-anchor="middle" x="832" y="-175.5" font-family="Helvetica,sans-Serif" font-size="10.00">InfoLogger/InfoLoggerMacros.hxx</text>
</g>
<!-- Node18&#45;&gt;Node20 -->
<g id="edge29" class="edge"><title>Node18&#45;&gt;Node20</title>
<path fill="none" stroke="midnightblue" d="M694.924,-229.975C722.37,-219.769 768.516,-202.608 799.599,-191.049"/>
<polygon fill="midnightblue" stroke="midnightblue" points="800.965,-194.275 809.118,-187.509 798.526,-187.714 800.965,-194.275"/>
</g>
</g>
</svg>
        <g id="navigator" transform="translate(0 0)" fill="#404254">
                <rect fill="#f2f5e9" fill-opacity="0.5" stroke="#606060" stroke-width=".5" x="0" y="0" width="60" height="60"/>
                <use id="zoomplus" xlink:href="#zoomPlus" x="17" y="9" onmousedown="handleZoom(evt,'in')"/>
                <use id="zoomminus" xlink:href="#zoomMin" x="42" y="9" onmousedown="handleZoom(evt,'out')"/>
                <use id="reset" xlink:href="#resetDef" x="30" y="36" onmousedown="handleReset()"/>
                <g id="arrowUp" xlink:href="#dirArrow" transform="translate(30 24)" onmousedown="handlePan(0,-1)">
                  <use xlink:href="#rim" fill="#404040">
                        <set attributeName="fill" to="#808080" begin="arrowUp.mouseover" end="arrowUp.mouseout"/>
                  </use>
                  <path fill="none" stroke="white" stroke-width="1.5" d="M0,-3.0v7 M-2.5,-0.5L0,-3.0L2.5,-0.5"/>
                </g>
                <g id="arrowRight" xlink:href="#dirArrow" transform="rotate(90) translate(36 -43)" onmousedown="handlePan(1,0)">
                  <use xlink:href="#rim" fill="#404040">
                        <set attributeName="fill" to="#808080" begin="arrowRight.mouseover" end="arrowRight.mouseout"/>
                  </use>
                  <path fill="none" stroke="white" stroke-width="1.5" d="M0,-3.0v7 M-2.5,-0.5L0,-3.0L2.5,-0.5"/>
                </g>
                <g id="arrowDown" xlink:href="#dirArrow" transform="rotate(180) translate(-30 -48)" onmousedown="handlePan(0,1)">
                  <use xlink:href="#rim" fill="#404040">
                        <set attributeName="fill" to="#808080" begin="arrowDown.mouseover" end="arrowDown.mouseout"/>
                  </use>
                  <path fill="none" stroke="white" stroke-width="1.5" d="M0,-3.0v7 M-2.5,-0.5L0,-3.0L2.5,-0.5"/>
                </g>
                <g id="arrowLeft" xlink:href="#dirArrow" transform="rotate(270) translate(-36 17)" onmousedown="handlePan(-1,0)">
                  <use xlink:href="#rim" fill="#404040">
                        <set attributeName="fill" to="#808080" begin="arrowLeft.mouseover" end="arrowLeft.mouseout"/>
                  </use>
                  <path fill="none" stroke="white" stroke-width="1.5" d="M0,-3.0v7 M-2.5,-0.5L0,-3.0L2.5,-0.5"/>
                </g>
        </g>
        <svg viewBox="0 0 15 15" width="100%" height="30px" preserveAspectRatio="xMaxYMin meet">
         <g id="arrow_out" transform="scale(0.3 0.3)">
          <a xlink:href="testCcdbDatabaseExtra_8cxx__incl_org.svg" target="_base">
           <rect id="button" ry="5" rx="5" y="6" x="6" height="38" width="38"
                fill="#f2f5e9" fill-opacity="0.5" stroke="#606060" stroke-width="1.0"/>
           <path id="arrow"
             d="M 11.500037,31.436501 C 11.940474,20.09759 22.043105,11.32322 32.158766,21.979434 L 37.068811,17.246167 C 37.068811,17.246167 37.088388,32 37.088388,32 L 22.160133,31.978069 C 22.160133,31.978069 26.997745,27.140456 26.997745,27.140456 C 18.528582,18.264221 13.291696,25.230495 11.500037,31.436501 z"
             style="fill:#404040;"/>
          </a>
         </g>
        </svg>
</svg>
