<?xml version="1.0" encoding="UTF-8" standalone="no"?>
<!DOCTYPE svg PUBLIC "-//W3C//DTD SVG 1.1//EN"
 "http://www.w3.org/Graphics/SVG/1.1/DTD/svg11.dtd">
<!-- Generated by graphviz version 2.38.0 (20140413.2041)
 -->
<!-- Title: Framework/test/testPolicyManager.cxx Pages: 1 -->
<svg width="722pt" height="162pt"
 viewBox="0.00 0.00 722.00 162.00" xmlns="http://www.w3.org/2000/svg" xmlns:xlink="http://www.w3.org/1999/xlink">
<g id="graph0" class="graph" transform="scale(1 1) rotate(0) translate(4 158)">
<title>Framework/test/testPolicyManager.cxx</title>
<!-- Node1 -->
<g id="node1" class="node"><title>Node1</title>
<polygon fill="#bfbfbf" stroke="black" points="385,-123.5 385,-153.5 516,-153.5 516,-123.5 385,-123.5"/>
<text text-anchor="start" x="393" y="-141.5" font-family="Helvetica,sans-Serif" font-size="10.00">Framework/test/testPolicy</text>
<text text-anchor="middle" x="450.5" y="-130.5" font-family="Helvetica,sans-Serif" font-size="10.00">Manager.cxx</text>
</g>
<!-- Node2 -->
<g id="node2" class="node"><title>Node2</title>
<g id="a_node2"><a xlink:href="UpdatePolicyManager_8h.html" target="_top" xlink:title="QualityControl/UpdatePolicy\lManager.h">
<polygon fill="none" stroke="black" points="64.5,-56.5 64.5,-86.5 204.5,-86.5 204.5,-56.5 64.5,-56.5"/>
<text text-anchor="start" x="72.5" y="-74.5" font-family="Helvetica,sans-Serif" font-size="10.00">QualityControl/UpdatePolicy</text>
<text text-anchor="middle" x="134.5" y="-63.5" font-family="Helvetica,sans-Serif" font-size="10.00">Manager.h</text>
</a>
</g>
</g>
<!-- Node1&#45;&gt;Node2 -->
<g id="edge1" class="edge"><title>Node1&#45;&gt;Node2</title>
<path fill="none" stroke="midnightblue" d="M384.641,-123.953C334.597,-113.659 265.597,-99.4661 212.739,-88.5936"/>
<polygon fill="midnightblue" stroke="midnightblue" points="213.23,-85.1213 202.73,-86.5347 211.82,-91.9778 213.23,-85.1213"/>
</g>
<!-- Node8 -->
<g id="node8" class="node"><title>Node8</title>
<polygon fill="none" stroke="#bfbfbf" points="223,-62 223,-81 374,-81 374,-62 223,-62"/>
<text text-anchor="middle" x="298.5" y="-69" font-family="Helvetica,sans-Serif" font-size="10.00">DataSampling/DataSampling.h</text>
</g>
<!-- Node1&#45;&gt;Node8 -->
<g id="edge7" class="edge"><title>Node1&#45;&gt;Node8</title>
<path fill="none" stroke="midnightblue" d="M417.518,-123.396C390.73,-111.941 353.31,-95.9385 327.619,-84.9521"/>
<polygon fill="midnightblue" stroke="midnightblue" points="328.964,-81.7208 318.393,-81.007 326.212,-88.1571 328.964,-81.7208"/>
</g>
<!-- Node9 -->
<g id="node9" class="node"><title>Node9</title>
<polygon fill="none" stroke="#bfbfbf" points="392.5,-62 392.5,-81 508.5,-81 508.5,-62 392.5,-62"/>
<text text-anchor="middle" x="450.5" y="-69" font-family="Helvetica,sans-Serif" font-size="10.00">Common/Exceptions.h</text>
</g>
<!-- Node1&#45;&gt;Node9 -->
<g id="edge8" class="edge"><title>Node1&#45;&gt;Node9</title>
<path fill="none" stroke="midnightblue" d="M450.5,-123.396C450.5,-114.064 450.5,-101.714 450.5,-91.5173"/>
<polygon fill="midnightblue" stroke="midnightblue" points="454,-91.1945 450.5,-81.1945 447,-91.1946 454,-91.1945"/>
</g>
<!-- Node10 -->
<g id="node10" class="node"><title>Node10</title>
<polygon fill="none" stroke="#bfbfbf" points="526.5,-62 526.5,-81 576.5,-81 576.5,-62 526.5,-62"/>
<text text-anchor="middle" x="551.5" y="-69" font-family="Helvetica,sans-Serif" font-size="10.00">TH1F.h</text>
</g>
<!-- Node1&#45;&gt;Node10 -->
<g id="edge9" class="edge"><title>Node1&#45;&gt;Node10</title>
<path fill="none" stroke="midnightblue" d="M472.415,-123.396C489.353,-112.496 512.687,-97.4787 529.616,-86.5835"/>
<polygon fill="midnightblue" stroke="midnightblue" points="531.766,-89.362 538.281,-81.007 527.978,-83.4756 531.766,-89.362"/>
</g>
<!-- Node11 -->
<g id="node11" class="node"><title>Node11</title>
<polygon fill="none" stroke="#bfbfbf" points="595,-62 595,-81 714,-81 714,-62 595,-62"/>
<text text-anchor="middle" x="654.5" y="-69" font-family="Helvetica,sans-Serif" font-size="10.00">boost/test/unit_test.hpp</text>
</g>
<!-- Node1&#45;&gt;Node11 -->
<g id="edge10" class="edge"><title>Node1&#45;&gt;Node11</title>
<path fill="none" stroke="midnightblue" d="M494.514,-123.476C531.4,-111.723 583.435,-95.1433 618.03,-84.1205"/>
<polygon fill="midnightblue" stroke="midnightblue" points="619.268,-87.3994 627.733,-81.0287 617.143,-80.7298 619.268,-87.3994"/>
</g>
<!-- Node3 -->
<g id="node3" class="node"><title>Node3</title>
<polygon fill="none" stroke="#bfbfbf" points="0,-0.5 0,-19.5 41,-19.5 41,-0.5 0,-0.5"/>
<text text-anchor="middle" x="20.5" y="-7.5" font-family="Helvetica,sans-Serif" font-size="10.00">string</text>
</g>
<!-- Node2&#45;&gt;Node3 -->
<g id="edge2" class="edge"><title>Node2&#45;&gt;Node3</title>
<path fill="none" stroke="midnightblue" d="M107.484,-56.3993C88.8687,-46.6837 64.2895,-33.8551 46.0087,-24.3137"/>
<polygon fill="midnightblue" stroke="midnightblue" points="47.5726,-21.182 37.088,-19.6578 44.3337,-27.3876 47.5726,-21.182"/>
</g>
<!-- Node4 -->
<g id="node4" class="node"><title>Node4</title>
<polygon fill="none" stroke="#bfbfbf" points="59,-0.5 59,-19.5 94,-19.5 94,-0.5 59,-0.5"/>
<text text-anchor="middle" x="76.5" y="-7.5" font-family="Helvetica,sans-Serif" font-size="10.00">map</text>
</g>
<!-- Node2&#45;&gt;Node4 -->
<g id="edge3" class="edge"><title>Node2&#45;&gt;Node4</title>
<path fill="none" stroke="midnightblue" d="M120.755,-56.3993C112.153,-47.575 101.048,-36.1827 92.114,-27.0178"/>
<polygon fill="midnightblue" stroke="midnightblue" points="94.426,-24.3755 84.9395,-19.6578 89.4135,-29.2616 94.426,-24.3755"/>
</g>
<!-- Node5 -->
<g id="node5" class="node"><title>Node5</title>
<polygon fill="none" stroke="#bfbfbf" points="112.5,-0.5 112.5,-19.5 156.5,-19.5 156.5,-0.5 112.5,-0.5"/>
<text text-anchor="middle" x="134.5" y="-7.5" font-family="Helvetica,sans-Serif" font-size="10.00">vector</text>
</g>
<!-- Node2&#45;&gt;Node5 -->
<g id="edge4" class="edge"><title>Node2&#45;&gt;Node5</title>
<path fill="none" stroke="midnightblue" d="M134.5,-56.3993C134.5,-48.4664 134.5,-38.458 134.5,-29.8583"/>
<polygon fill="midnightblue" stroke="midnightblue" points="138,-29.6577 134.5,-19.6578 131,-29.6578 138,-29.6577"/>
</g>
<!-- Node6 -->
<g id="node6" class="node"><title>Node6</title>
<polygon fill="none" stroke="#bfbfbf" points="175,-0.5 175,-19.5 234,-19.5 234,-0.5 175,-0.5"/>
<text text-anchor="middle" x="204.5" y="-7.5" font-family="Helvetica,sans-Serif" font-size="10.00">functional</text>
</g>
<!-- Node2&#45;&gt;Node6 -->
<g id="edge5" class="edge"><title>Node2&#45;&gt;Node6</title>
<path fill="none" stroke="midnightblue" d="M151.089,-56.3993C161.785,-47.3076 175.688,-35.4899 186.628,-26.1909"/>
<polygon fill="midnightblue" stroke="midnightblue" points="188.962,-28.8011 194.314,-19.6578 184.428,-23.4675 188.962,-28.8011"/>
</g>
<!-- Node7 -->
<g id="node7" class="node"><title>Node7</title>
<polygon fill="none" stroke="#bfbfbf" points="252,-0.5 252,-19.5 297,-19.5 297,-0.5 252,-0.5"/>
<text text-anchor="middle" x="274.5" y="-7.5" font-family="Helvetica,sans-Serif" font-size="10.00">iosfwd</text>
</g>
<!-- Node2&#45;&gt;Node7 -->
<g id="edge6" class="edge"><title>Node2&#45;&gt;Node7</title>
<path fill="none" stroke="midnightblue" d="M167.678,-56.3993C191.063,-46.4608 222.112,-33.2649 244.706,-23.6625"/>
<polygon fill="midnightblue" stroke="midnightblue" points="246.294,-26.7904 254.129,-19.6578 243.556,-20.3481 246.294,-26.7904"/>
</g>
</g>
</svg>
