<?xml version="1.0" encoding="UTF-8" standalone="no"?>
<!DOCTYPE svg PUBLIC "-//W3C//DTD SVG 1.1//EN"
 "http://www.w3.org/Graphics/SVG/1.1/DTD/svg11.dtd">
<!-- Generated by graphviz version 2.38.0 (20140413.2041)
 -->
<!-- Title: Modules/Example/test/testQcExample.cxx Pages: 1 -->
<svg width="1072pt" height="341pt"
 viewBox="0.00 0.00 1071.84 341.00" xmlns="http://www.w3.org/2000/svg" xmlns:xlink="http://www.w3.org/1999/xlink">
<g id="graph0" class="graph" transform="scale(1 1) rotate(0) translate(4 337)">
<title>Modules/Example/test/testQcExample.cxx</title>
<!-- Node1 -->
<g id="node1" class="node"><title>Node1</title>
<polygon fill="#bfbfbf" stroke="black" points="393.847,-302.5 393.847,-332.5 507.847,-332.5 507.847,-302.5 393.847,-302.5"/>
<text text-anchor="start" x="401.847" y="-320.5" font-family="Helvetica,sans-Serif" font-size="10.00">Modules/Example/test</text>
<text text-anchor="middle" x="450.847" y="-309.5" font-family="Helvetica,sans-Serif" font-size="10.00">/testQcExample.cxx</text>
</g>
<!-- Node2 -->
<g id="node2" class="node"><title>Node2</title>
<g id="a_node2"><a xlink:href="ExampleTask_8h.html" target="_top" xlink:title="../include/Example\l/ExampleTask.h">
<polygon fill="none" stroke="black" points="301.847,-235.5 301.847,-265.5 399.847,-265.5 399.847,-235.5 301.847,-235.5"/>
<text text-anchor="start" x="309.847" y="-253.5" font-family="Helvetica,sans-Serif" font-size="10.00">../include/Example</text>
<text text-anchor="middle" x="350.847" y="-242.5" font-family="Helvetica,sans-Serif" font-size="10.00">/ExampleTask.h</text>
</a>
</g>
</g>
<!-- Node1&#45;&gt;Node2 -->
<g id="edge1" class="edge"><title>Node1&#45;&gt;Node2</title>
<path fill="none" stroke="midnightblue" d="M429.148,-302.396C415.127,-293.282 396.678,-281.29 381.21,-271.236"/>
<polygon fill="midnightblue" stroke="midnightblue" points="382.795,-268.092 372.503,-265.577 378.98,-273.961 382.795,-268.092"/>
</g>
<!-- Node24 -->
<g id="node24" class="node"><title>Node24</title>
<g id="a_node24"><a xlink:href="TaskFactory_8h.html" target="_top" xlink:title="QualityControl/TaskFactory.h">
<polygon fill="none" stroke="black" points="14.3467,-241 14.3467,-260 159.347,-260 159.347,-241 14.3467,-241"/>
<text text-anchor="middle" x="86.8467" y="-248" font-family="Helvetica,sans-Serif" font-size="10.00">QualityControl/TaskFactory.h</text>
</a>
</g>
</g>
<!-- Node1&#45;&gt;Node24 -->
<g id="edge29" class="edge"><title>Node1&#45;&gt;Node24</title>
<path fill="none" stroke="midnightblue" d="M393.571,-306.272C325.586,-294.132 212.863,-274.003 144.649,-261.822"/>
<polygon fill="midnightblue" stroke="midnightblue" points="144.967,-258.323 134.507,-260.011 143.736,-265.214 144.967,-258.323"/>
</g>
<!-- Node25 -->
<g id="node25" class="node"><title>Node25</title>
<polygon fill="none" stroke="#bfbfbf" points="418.347,-241 418.347,-260 483.347,-260 483.347,-241 418.347,-241"/>
<text text-anchor="middle" x="450.847" y="-248" font-family="Helvetica,sans-Serif" font-size="10.00">TSystem.h</text>
</g>
<!-- Node1&#45;&gt;Node25 -->
<g id="edge33" class="edge"><title>Node1&#45;&gt;Node25</title>
<path fill="none" stroke="midnightblue" d="M450.847,-302.396C450.847,-293.064 450.847,-280.714 450.847,-270.517"/>
<polygon fill="midnightblue" stroke="midnightblue" points="454.347,-270.195 450.847,-260.195 447.347,-270.195 454.347,-270.195"/>
</g>
<!-- Node26 -->
<g id="node26" class="node"><title>Node26</title>
<polygon fill="none" stroke="#bfbfbf" points="501.347,-241 501.347,-260 620.347,-260 620.347,-241 501.347,-241"/>
<text text-anchor="middle" x="560.847" y="-248" font-family="Helvetica,sans-Serif" font-size="10.00">boost/test/unit_test.hpp</text>
</g>
<!-- Node1&#45;&gt;Node26 -->
<g id="edge34" class="edge"><title>Node1&#45;&gt;Node26</title>
<path fill="none" stroke="midnightblue" d="M474.715,-302.396C493.418,-291.344 519.282,-276.061 537.777,-265.132"/>
<polygon fill="midnightblue" stroke="midnightblue" points="539.622,-268.108 546.45,-260.007 536.06,-262.081 539.622,-268.108"/>
</g>
<!-- Node27 -->
<g id="node27" class="node"><title>Node27</title>
<polygon fill="none" stroke="#bfbfbf" points="638.847,-241 638.847,-260 682.847,-260 682.847,-241 638.847,-241"/>
<text text-anchor="middle" x="660.847" y="-248" font-family="Helvetica,sans-Serif" font-size="10.00">TH1.h</text>
</g>
<!-- Node1&#45;&gt;Node27 -->
<g id="edge35" class="edge"><title>Node1&#45;&gt;Node27</title>
<path fill="none" stroke="midnightblue" d="M508.052,-302.589C543.298,-293.45 589.18,-280.522 628.847,-266 630.461,-265.409 632.108,-264.772 633.761,-264.107"/>
<polygon fill="midnightblue" stroke="midnightblue" points="635.287,-267.261 643.102,-260.107 632.532,-260.826 635.287,-267.261"/>
</g>
<!-- Node3 -->
<g id="node3" class="node"><title>Node3</title>
<g id="a_node3"><a xlink:href="TaskInterface_8h.html" target="_top" xlink:title="QualityControl/TaskInterface.h">
<polygon fill="none" stroke="black" points="337.847,-179.5 337.847,-198.5 487.847,-198.5 487.847,-179.5 337.847,-179.5"/>
<text text-anchor="middle" x="412.847" y="-186.5" font-family="Helvetica,sans-Serif" font-size="10.00">QualityControl/TaskInterface.h</text>
</a>
</g>
</g>
<!-- Node2&#45;&gt;Node3 -->
<g id="edge2" class="edge"><title>Node2&#45;&gt;Node3</title>
<path fill="none" stroke="midnightblue" d="M365.54,-235.399C374.828,-226.486 386.846,-214.952 396.445,-205.741"/>
<polygon fill="midnightblue" stroke="midnightblue" points="399.034,-208.107 403.825,-198.658 394.187,-203.057 399.034,-208.107"/>
</g>
<!-- Node4 -->
<g id="node4" class="node"><title>Node4</title>
<polygon fill="none" stroke="#bfbfbf" points="944.347,-0.5 944.347,-19.5 979.347,-19.5 979.347,-0.5 944.347,-0.5"/>
<text text-anchor="middle" x="961.847" y="-7.5" font-family="Helvetica,sans-Serif" font-size="10.00">map</text>
</g>
<!-- Node3&#45;&gt;Node4 -->
<g id="edge3" class="edge"><title>Node3&#45;&gt;Node4</title>
<path fill="none" stroke="midnightblue" d="M488.123,-187.866C646.413,-186.842 1002.45,-180.363 1041.85,-143 1069.99,-116.306 1069.01,-89.137 1048.85,-56 1035.99,-34.8745 1009.66,-23.2288 989.321,-17.1098"/>
<polygon fill="midnightblue" stroke="midnightblue" points="990.185,-13.7177 979.617,-14.4626 988.343,-20.4709 990.185,-13.7177"/>
</g>
<!-- Node5 -->
<g id="node5" class="node"><title>Node5</title>
<polygon fill="none" stroke="#bfbfbf" points="31.8467,-62 31.8467,-81 83.8467,-81 83.8467,-62 31.8467,-62"/>
<text text-anchor="middle" x="57.8467" y="-69" font-family="Helvetica,sans-Serif" font-size="10.00">memory</text>
</g>
<!-- Node3&#45;&gt;Node5 -->
<g id="edge4" class="edge"><title>Node3&#45;&gt;Node5</title>
<path fill="none" stroke="midnightblue" d="M337.631,-186.747C252.202,-183.813 119.732,-174.198 81.8467,-143 66.4389,-130.312 60.8864,-107.29 58.906,-91.0106"/>
<polygon fill="midnightblue" stroke="midnightblue" points="62.3908,-90.6828 58.0285,-81.0277 55.4177,-91.2958 62.3908,-90.6828"/>
</g>
<!-- Node6 -->
<g id="node6" class="node"><title>Node6</title>
<polygon fill="none" stroke="#bfbfbf" points="153.347,-0.5 153.347,-19.5 194.347,-19.5 194.347,-0.5 153.347,-0.5"/>
<text text-anchor="middle" x="173.847" y="-7.5" font-family="Helvetica,sans-Serif" font-size="10.00">string</text>
</g>
<!-- Node3&#45;&gt;Node6 -->
<g id="edge5" class="edge"><title>Node3&#45;&gt;Node6</title>
<path fill="none" stroke="midnightblue" d="M337.845,-185.197C249.43,-180.719 108.821,-169.565 63.8467,-143 27.0422,-121.261 -2.70049,-90.271 22.8467,-56 50.4788,-18.9323 107.443,-11.1952 142.964,-10.2168"/>
<polygon fill="midnightblue" stroke="midnightblue" points="143.282,-13.7137 153.244,-10.1052 143.206,-6.71409 143.282,-13.7137"/>
</g>
<!-- Node7 -->
<g id="node7" class="node"><title>Node7</title>
<polygon fill="none" stroke="#bfbfbf" points="214.347,-0.5 214.347,-19.5 297.347,-19.5 297.347,-0.5 214.347,-0.5"/>
<text text-anchor="middle" x="255.847" y="-7.5" font-family="Helvetica,sans-Serif" font-size="10.00">unordered_map</text>
</g>
<!-- Node3&#45;&gt;Node7 -->
<g id="edge6" class="edge"><title>Node3&#45;&gt;Node7</title>
<path fill="none" stroke="midnightblue" d="M487.925,-187.699C622.245,-185.847 885.359,-175.577 836.847,-123 769.268,-49.7595 485.105,-116.273 389.847,-87 345.675,-73.4258 300.088,-43.5548 275.118,-25.5687"/>
<polygon fill="midnightblue" stroke="midnightblue" points="277.025,-22.6267 266.892,-19.5321 272.883,-28.2702 277.025,-22.6267"/>
</g>
<!-- Node8 -->
<g id="node8" class="node"><title>Node8</title>
<polygon fill="none" stroke="#bfbfbf" points="270.347,-123.5 270.347,-142.5 395.347,-142.5 395.347,-123.5 270.347,-123.5"/>
<text text-anchor="middle" x="332.847" y="-130.5" font-family="Helvetica,sans-Serif" font-size="10.00">Framework/InitContext.h</text>
</g>
<!-- Node3&#45;&gt;Node8 -->
<g id="edge7" class="edge"><title>Node3&#45;&gt;Node8</title>
<path fill="none" stroke="midnightblue" d="M399.993,-179.324C387.63,-170.979 368.717,-158.212 354.11,-148.352"/>
<polygon fill="midnightblue" stroke="midnightblue" points="355.915,-145.348 345.668,-142.655 351.999,-151.15 355.915,-145.348"/>
</g>
<!-- Node9 -->
<g id="node9" class="node"><title>Node9</title>
<polygon fill="none" stroke="#bfbfbf" points="413.847,-123.5 413.847,-142.5 573.847,-142.5 573.847,-123.5 413.847,-123.5"/>
<text text-anchor="middle" x="493.847" y="-130.5" font-family="Helvetica,sans-Serif" font-size="10.00">Framework/ProcessingContext.h</text>
</g>
<!-- Node3&#45;&gt;Node9 -->
<g id="edge8" class="edge"><title>Node3&#45;&gt;Node9</title>
<path fill="none" stroke="midnightblue" d="M425.861,-179.324C438.378,-170.979 457.528,-158.212 472.318,-148.352"/>
<polygon fill="midnightblue" stroke="midnightblue" points="474.486,-151.114 480.865,-142.655 470.603,-145.289 474.486,-151.114"/>
</g>
<!-- Node10 -->
<g id="node10" class="node"><title>Node10</title>
<polygon fill="none" stroke="#bfbfbf" points="592.347,-123.5 592.347,-142.5 687.347,-142.5 687.347,-123.5 592.347,-123.5"/>
<text text-anchor="middle" x="639.847" y="-130.5" font-family="Helvetica,sans-Serif" font-size="10.00">CCDB/CcdbApi.h</text>
</g>
<!-- Node3&#45;&gt;Node10 -->
<g id="edge9" class="edge"><title>Node3&#45;&gt;Node10</title>
<path fill="none" stroke="midnightblue" d="M448.816,-179.444C488.166,-170.083 551.333,-155.056 594.161,-144.868"/>
<polygon fill="midnightblue" stroke="midnightblue" points="595.128,-148.236 604.046,-142.516 593.508,-141.426 595.128,-148.236"/>
</g>
<!-- Node11 -->
<g id="node11" class="node"><title>Node11</title>
<g id="a_node11"><a xlink:href="Activity_8h.html" target="_top" xlink:title="QualityControl/Activity.h">
<polygon fill="none" stroke="black" points="705.347,-123.5 705.347,-142.5 828.347,-142.5 828.347,-123.5 705.347,-123.5"/>
<text text-anchor="middle" x="766.847" y="-130.5" font-family="Helvetica,sans-Serif" font-size="10.00">QualityControl/Activity.h</text>
</a>
</g>
</g>
<!-- Node3&#45;&gt;Node11 -->
<g id="edge10" class="edge"><title>Node3&#45;&gt;Node11</title>
<path fill="none" stroke="midnightblue" d="M468.939,-179.444C531.988,-169.826 634.244,-154.228 701.023,-144.041"/>
<polygon fill="midnightblue" stroke="midnightblue" points="701.659,-147.484 711.017,-142.516 700.603,-140.565 701.659,-147.484"/>
</g>
<!-- Node12 -->
<g id="node12" class="node"><title>Node12</title>
<g id="a_node12"><a xlink:href="ObjectsManager_8h.html" target="_top" xlink:title="QualityControl/ObjectsManager.h">
<polygon fill="none" stroke="black" points="91.3467,-123.5 91.3467,-142.5 252.347,-142.5 252.347,-123.5 91.3467,-123.5"/>
<text text-anchor="middle" x="171.847" y="-130.5" font-family="Helvetica,sans-Serif" font-size="10.00">QualityControl/ObjectsManager.h</text>
</a>
</g>
</g>
<!-- Node3&#45;&gt;Node12 -->
<g id="edge11" class="edge"><title>Node3&#45;&gt;Node12</title>
<path fill="none" stroke="midnightblue" d="M374.66,-179.444C332.706,-170.043 265.253,-154.929 219.776,-144.739"/>
<polygon fill="midnightblue" stroke="midnightblue" points="220.379,-141.288 209.855,-142.516 218.848,-148.118 220.379,-141.288"/>
</g>
<!-- Node21 -->
<g id="node21" class="node"><title>Node21</title>
<g id="a_node21"><a xlink:href="QcInfoLogger_8h.html" target="_top" xlink:title="QualityControl/QcInfoLogger.h">
<polygon fill="none" stroke="black" points="884.347,-123.5 884.347,-142.5 1033.35,-142.5 1033.35,-123.5 884.347,-123.5"/>
<text text-anchor="middle" x="958.847" y="-130.5" font-family="Helvetica,sans-Serif" font-size="10.00">QualityControl/QcInfoLogger.h</text>
</a>
</g>
</g>
<!-- Node3&#45;&gt;Node21 -->
<g id="edge26" class="edge"><title>Node3&#45;&gt;Node21</title>
<path fill="none" stroke="midnightblue" d="M488.227,-180.686C579.004,-171.858 736.097,-156.51 870.847,-143 871.783,-142.906 872.724,-142.812 873.671,-142.717"/>
<polygon fill="midnightblue" stroke="midnightblue" points="874.358,-146.165 883.956,-141.68 873.656,-139.2 874.358,-146.165"/>
</g>
<!-- Node12&#45;&gt;Node5 -->
<g id="edge25" class="edge"><title>Node12&#45;&gt;Node5</title>
<path fill="none" stroke="midnightblue" d="M155.513,-123.475C136.636,-113.622 105.34,-97.2883 83.2711,-85.7697"/>
<polygon fill="midnightblue" stroke="midnightblue" points="84.6345,-82.5333 74.1499,-81.0091 81.3956,-88.7389 84.6345,-82.5333"/>
</g>
<!-- Node12&#45;&gt;Node6 -->
<g id="edge24" class="edge"><title>Node12&#45;&gt;Node6</title>
<path fill="none" stroke="midnightblue" d="M201.727,-123.387C219.386,-116.587 240.297,-105.15 250.847,-87 257.77,-75.0882 257.704,-67.9501 250.847,-56 240.797,-38.487 221.006,-27.1393 204.005,-20.2201"/>
<polygon fill="midnightblue" stroke="midnightblue" points="205.005,-16.8577 194.412,-16.6448 202.56,-23.4169 205.005,-16.8577"/>
</g>
<!-- Node13 -->
<g id="node13" class="node"><title>Node13</title>
<g id="a_node13"><a xlink:href="MonitorObject_8h.html" target="_top" xlink:title="QualityControl/MonitorObject.h">
<polygon fill="none" stroke="black" points="560.347,-62 560.347,-81 711.347,-81 711.347,-62 560.347,-62"/>
<text text-anchor="middle" x="635.847" y="-69" font-family="Helvetica,sans-Serif" font-size="10.00">QualityControl/MonitorObject.h</text>
</a>
</g>
</g>
<!-- Node12&#45;&gt;Node13 -->
<g id="edge12" class="edge"><title>Node12&#45;&gt;Node13</title>
<path fill="none" stroke="midnightblue" d="M252.59,-123.615C329.426,-115.351 448.216,-101.837 550.847,-87 559.674,-85.7239 568.996,-84.2564 578.105,-82.7557"/>
<polygon fill="midnightblue" stroke="midnightblue" points="578.976,-86.1588 588.261,-81.0558 577.82,-79.2548 578.976,-86.1588"/>
</g>
<!-- Node17 -->
<g id="node17" class="node"><title>Node17</title>
<g id="a_node17"><a xlink:href="MonitorObjectCollection_8h.html" target="_top" xlink:title="QualityControl/MonitorObject\lCollection.h">
<polygon fill="none" stroke="black" points="399.347,-56.5 399.347,-86.5 542.347,-86.5 542.347,-56.5 399.347,-56.5"/>
<text text-anchor="start" x="407.347" y="-74.5" font-family="Helvetica,sans-Serif" font-size="10.00">QualityControl/MonitorObject</text>
<text text-anchor="middle" x="470.847" y="-63.5" font-family="Helvetica,sans-Serif" font-size="10.00">Collection.h</text>
</a>
</g>
</g>
<!-- Node12&#45;&gt;Node17 -->
<g id="edge18" class="edge"><title>Node12&#45;&gt;Node17</title>
<path fill="none" stroke="midnightblue" d="M214.686,-123.475C260.385,-114.381 333.829,-99.766 390.384,-88.5118"/>
<polygon fill="midnightblue" stroke="midnightblue" points="391.254,-91.9074 400.378,-86.523 389.888,-85.0421 391.254,-91.9074"/>
</g>
<!-- Node20 -->
<g id="node20" class="node"><title>Node20</title>
<g id="a_node20"><a xlink:href="TaskConfig_8h.html" target="_top" xlink:title="QualityControl/TaskConfig.h">
<polygon fill="none" stroke="black" points="101.847,-62 101.847,-81 241.847,-81 241.847,-62 101.847,-62"/>
<text text-anchor="middle" x="171.847" y="-69" font-family="Helvetica,sans-Serif" font-size="10.00">QualityControl/TaskConfig.h</text>
</a>
</g>
</g>
<!-- Node12&#45;&gt;Node20 -->
<g id="edge21" class="edge"><title>Node12&#45;&gt;Node20</title>
<path fill="none" stroke="midnightblue" d="M171.847,-123.475C171.847,-115.08 171.847,-101.981 171.847,-91.1631"/>
<polygon fill="midnightblue" stroke="midnightblue" points="175.347,-91.0091 171.847,-81.0091 168.347,-91.0091 175.347,-91.0091"/>
</g>
<!-- Node13&#45;&gt;Node4 -->
<g id="edge14" class="edge"><title>Node13&#45;&gt;Node4</title>
<path fill="none" stroke="midnightblue" d="M682.555,-61.9751C751.526,-49.3868 878.46,-26.2193 934.28,-16.0314"/>
<polygon fill="midnightblue" stroke="midnightblue" points="934.942,-19.4684 944.151,-14.2297 933.686,-12.5821 934.942,-19.4684"/>
</g>
<!-- Node13&#45;&gt;Node6 -->
<g id="edge13" class="edge"><title>Node13&#45;&gt;Node6</title>
<path fill="none" stroke="midnightblue" d="M589.167,-61.9732C576.739,-59.8575 563.305,-57.7089 550.847,-56 397.673,-34.9894 356.581,-49.6717 204.847,-20 204.634,-19.9583 204.42,-19.9158 204.205,-19.8726"/>
<polygon fill="midnightblue" stroke="midnightblue" points="204.938,-16.4491 194.398,-17.5232 203.307,-23.2565 204.938,-16.4491"/>
</g>
<!-- Node14 -->
<g id="node14" class="node"><title>Node14</title>
<polygon fill="none" stroke="#bfbfbf" points="686.847,-0.5 686.847,-19.5 742.847,-19.5 742.847,-0.5 686.847,-0.5"/>
<text text-anchor="middle" x="714.847" y="-7.5" font-family="Helvetica,sans-Serif" font-size="10.00">Rtypes.h</text>
</g>
<!-- Node13&#45;&gt;Node14 -->
<g id="edge15" class="edge"><title>Node13&#45;&gt;Node14</title>
<path fill="none" stroke="midnightblue" d="M647.166,-61.9751C659.72,-52.5199 680.198,-37.0961 695.346,-25.6871"/>
<polygon fill="midnightblue" stroke="midnightblue" points="697.667,-28.321 703.549,-19.5091 693.455,-22.7295 697.667,-28.321"/>
</g>
<!-- Node15 -->
<g id="node15" class="node"><title>Node15</title>
<polygon fill="none" stroke="#bfbfbf" points="761.347,-0.5 761.347,-19.5 820.347,-19.5 820.347,-0.5 761.347,-0.5"/>
<text text-anchor="middle" x="790.847" y="-7.5" font-family="Helvetica,sans-Serif" font-size="10.00">TObject.h</text>
</g>
<!-- Node13&#45;&gt;Node15 -->
<g id="edge16" class="edge"><title>Node13&#45;&gt;Node15</title>
<path fill="none" stroke="midnightblue" d="M658.054,-61.9751C684.527,-51.8129 728.96,-34.7564 759.066,-23.1996"/>
<polygon fill="midnightblue" stroke="midnightblue" points="760.599,-26.3604 768.68,-19.5091 758.09,-19.8254 760.599,-26.3604"/>
</g>
<!-- Node16 -->
<g id="node16" class="node"><title>Node16</title>
<polygon fill="none" stroke="#bfbfbf" points="552.847,-0.5 552.847,-19.5 668.847,-19.5 668.847,-0.5 552.847,-0.5"/>
<text text-anchor="middle" x="610.847" y="-7.5" font-family="Helvetica,sans-Serif" font-size="10.00">Common/Exceptions.h</text>
</g>
<!-- Node13&#45;&gt;Node16 -->
<g id="edge17" class="edge"><title>Node13&#45;&gt;Node16</title>
<path fill="none" stroke="midnightblue" d="M632.265,-61.9751C628.663,-53.4035 623.001,-39.9269 618.403,-28.983"/>
<polygon fill="midnightblue" stroke="midnightblue" points="621.522,-27.3726 614.422,-19.5091 615.069,-30.0842 621.522,-27.3726"/>
</g>
<!-- Node18 -->
<g id="node18" class="node"><title>Node18</title>
<polygon fill="none" stroke="#bfbfbf" points="319.347,-0.5 319.347,-19.5 388.347,-19.5 388.347,-0.5 319.347,-0.5"/>
<text text-anchor="middle" x="353.847" y="-7.5" font-family="Helvetica,sans-Serif" font-size="10.00">TObjArray.h</text>
</g>
<!-- Node17&#45;&gt;Node18 -->
<g id="edge19" class="edge"><title>Node17&#45;&gt;Node18</title>
<path fill="none" stroke="midnightblue" d="M443.119,-56.3993C424.015,-46.6837 398.789,-33.8551 380.027,-24.3137"/>
<polygon fill="midnightblue" stroke="midnightblue" points="381.371,-21.071 370.871,-19.6578 378.198,-27.3106 381.371,-21.071"/>
</g>
<!-- Node19 -->
<g id="node19" class="node"><title>Node19</title>
<polygon fill="none" stroke="#bfbfbf" points="406.847,-0.5 406.847,-19.5 534.847,-19.5 534.847,-0.5 406.847,-0.5"/>
<text text-anchor="middle" x="470.847" y="-7.5" font-family="Helvetica,sans-Serif" font-size="10.00">Mergers/MergeInterface.h</text>
</g>
<!-- Node17&#45;&gt;Node19 -->
<g id="edge20" class="edge"><title>Node17&#45;&gt;Node19</title>
<path fill="none" stroke="midnightblue" d="M470.847,-56.3993C470.847,-48.4664 470.847,-38.458 470.847,-29.8583"/>
<polygon fill="midnightblue" stroke="midnightblue" points="474.347,-29.6577 470.847,-19.6578 467.347,-29.6578 474.347,-29.6577"/>
</g>
<!-- Node20&#45;&gt;Node6 -->
<g id="edge22" class="edge"><title>Node20&#45;&gt;Node6</title>
<path fill="none" stroke="midnightblue" d="M172.133,-61.9751C172.415,-53.5803 172.856,-40.4806 173.219,-29.6631"/>
<polygon fill="midnightblue" stroke="midnightblue" points="176.723,-29.6211 173.561,-19.5091 169.727,-29.3858 176.723,-29.6211"/>
</g>
<!-- Node20&#45;&gt;Node7 -->
<g id="edge23" class="edge"><title>Node20&#45;&gt;Node7</title>
<path fill="none" stroke="midnightblue" d="M183.882,-61.9751C197.355,-52.4315 219.413,-36.8073 235.562,-25.3683"/>
<polygon fill="midnightblue" stroke="midnightblue" points="237.697,-28.1454 243.834,-19.5091 233.651,-22.4332 237.697,-28.1454"/>
</g>
<!-- Node22 -->
<g id="node22" class="node"><title>Node22</title>
<polygon fill="none" stroke="#bfbfbf" points="729.847,-62 729.847,-81 859.847,-81 859.847,-62 729.847,-62"/>
<text text-anchor="middle" x="794.847" y="-69" font-family="Helvetica,sans-Serif" font-size="10.00">InfoLogger/InfoLogger.hxx</text>
</g>
<!-- Node21&#45;&gt;Node22 -->
<g id="edge27" class="edge"><title>Node21&#45;&gt;Node22</title>
<path fill="none" stroke="midnightblue" d="M935.35,-123.475C907.218,-113.269 859.917,-96.108 828.058,-84.5492"/>
<polygon fill="midnightblue" stroke="midnightblue" points="828.895,-81.1295 818.3,-81.0091 826.507,-87.7098 828.895,-81.1295"/>
</g>
<!-- Node23 -->
<g id="node23" class="node"><title>Node23</title>
<polygon fill="none" stroke="#bfbfbf" points="877.847,-62 877.847,-81 1039.85,-81 1039.85,-62 877.847,-62"/>
<text text-anchor="middle" x="958.847" y="-69" font-family="Helvetica,sans-Serif" font-size="10.00">InfoLogger/InfoLoggerMacros.hxx</text>
</g>
<!-- Node21&#45;&gt;Node23 -->
<g id="edge28" class="edge"><title>Node21&#45;&gt;Node23</title>
<path fill="none" stroke="midnightblue" d="M958.847,-123.475C958.847,-115.08 958.847,-101.981 958.847,-91.1631"/>
<polygon fill="midnightblue" stroke="midnightblue" points="962.347,-91.0091 958.847,-81.0091 955.347,-91.0091 962.347,-91.0091"/>
</g>
<!-- Node24&#45;&gt;Node3 -->
<g id="edge32" class="edge"><title>Node24&#45;&gt;Node3</title>
<path fill="none" stroke="midnightblue" d="M133.555,-240.975C192.259,-230.261 292.955,-211.882 356.051,-200.366"/>
<polygon fill="midnightblue" stroke="midnightblue" points="357.016,-203.748 366.226,-198.509 355.76,-196.862 357.016,-203.748"/>
</g>
<!-- Node24&#45;&gt;Node5 -->
<g id="edge30" class="edge"><title>Node24&#45;&gt;Node5</title>
<path fill="none" stroke="midnightblue" d="M63.2302,-240.993C45.2765,-233.128 21.8507,-219.523 10.8467,-199 -5.11419,-169.231 -1.51752,-154.433 10.8467,-123 16.3125,-109.104 27.6016,-96.7661 37.7457,-87.7639"/>
<polygon fill="midnightblue" stroke="midnightblue" points="40.0654,-90.3868 45.5025,-81.2935 35.5814,-85.0114 40.0654,-90.3868"/>
</g>
<!-- Node24&#45;&gt;Node20 -->
<g id="edge31" class="edge"><title>Node24&#45;&gt;Node20</title>
<path fill="none" stroke="midnightblue" d="M83.5073,-240.752C75.8177,-219.047 59.1905,-161.692 81.8467,-123 92.5629,-104.699 112.61,-92.5256 131.069,-84.7257"/>
<polygon fill="midnightblue" stroke="midnightblue" points="132.477,-87.9335 140.519,-81.0362 129.931,-81.4128 132.477,-87.9335"/>
</g>
</g>
</svg>
