<?xml version="1.0" encoding="UTF-8" standalone="no"?>
<!DOCTYPE svg PUBLIC "-//W3C//DTD SVG 1.1//EN"
 "http://www.w3.org/Graphics/SVG/1.1/DTD/svg11.dtd">
<!-- Generated by graphviz version 2.38.0 (20140413.2041)
 -->
<!-- Title: Framework/test/testMonitorObject.cxx Pages: 1 -->
<svg width="964pt" height="151pt"
 viewBox="0.00 0.00 964.00 151.00" xmlns="http://www.w3.org/2000/svg" xmlns:xlink="http://www.w3.org/1999/xlink">
<g id="graph0" class="graph" transform="scale(1 1) rotate(0) translate(4 147)">
<title>Framework/test/testMonitorObject.cxx</title>
<!-- Node1 -->
<g id="node1" class="node"><title>Node1</title>
<polygon fill="#bfbfbf" stroke="black" points="648,-112.5 648,-142.5 785,-142.5 785,-112.5 648,-112.5"/>
<text text-anchor="start" x="656" y="-130.5" font-family="Helvetica,sans-Serif" font-size="10.00">Framework/test/testMonitor</text>
<text text-anchor="middle" x="716.5" y="-119.5" font-family="Helvetica,sans-Serif" font-size="10.00">Object.cxx</text>
</g>
<!-- Node2 -->
<g id="node2" class="node"><title>Node2</title>
<g id="a_node2"><a xlink:href="MonitorObject_8h.html" target="_top" xlink:title="QualityControl/MonitorObject.h">
<polygon fill="none" stroke="black" points="103,-56.5 103,-75.5 254,-75.5 254,-56.5 103,-56.5"/>
<text text-anchor="middle" x="178.5" y="-63.5" font-family="Helvetica,sans-Serif" font-size="10.00">QualityControl/MonitorObject.h</text>
</a>
</g>
</g>
<!-- Node1&#45;&gt;Node2 -->
<g id="edge1" class="edge"><title>Node1&#45;&gt;Node2</title>
<path fill="none" stroke="midnightblue" d="M647.815,-118.904C549.983,-108.084 370.598,-88.2451 264.193,-76.4772"/>
<polygon fill="midnightblue" stroke="midnightblue" points="264.453,-72.9847 254.129,-75.3641 263.683,-79.9423 264.453,-72.9847"/>
</g>
<!-- Node8 -->
<g id="node8" class="node"><title>Node8</title>
<g id="a_node8"><a xlink:href="QcInfoLogger_8h.html" target="_top" xlink:title="QualityControl/QcInfoLogger.h">
<polygon fill="none" stroke="black" points="389,-56.5 389,-75.5 538,-75.5 538,-56.5 389,-56.5"/>
<text text-anchor="middle" x="463.5" y="-63.5" font-family="Helvetica,sans-Serif" font-size="10.00">QualityControl/QcInfoLogger.h</text>
</a>
</g>
</g>
<!-- Node1&#45;&gt;Node8 -->
<g id="edge7" class="edge"><title>Node1&#45;&gt;Node8</title>
<path fill="none" stroke="midnightblue" d="M656.863,-112.475C611.786,-101.874 550.813,-87.534 509.475,-77.8123"/>
<polygon fill="midnightblue" stroke="midnightblue" points="510.206,-74.3887 499.67,-75.5064 508.603,-81.2028 510.206,-74.3887"/>
</g>
<!-- Node11 -->
<g id="node11" class="node"><title>Node11</title>
<polygon fill="none" stroke="#bfbfbf" points="556,-56.5 556,-75.5 675,-75.5 675,-56.5 556,-56.5"/>
<text text-anchor="middle" x="615.5" y="-63.5" font-family="Helvetica,sans-Serif" font-size="10.00">boost/test/unit_test.hpp</text>
</g>
<!-- Node1&#45;&gt;Node11 -->
<g id="edge10" class="edge"><title>Node1&#45;&gt;Node11</title>
<path fill="none" stroke="midnightblue" d="M692.564,-112.399C676.375,-102.862 655.093,-90.3248 638.997,-80.8422"/>
<polygon fill="midnightblue" stroke="midnightblue" points="640.589,-77.718 630.196,-75.6578 637.036,-83.7492 640.589,-77.718"/>
</g>
<!-- Node12 -->
<g id="node12" class="node"><title>Node12</title>
<polygon fill="none" stroke="#bfbfbf" points="693.5,-56.5 693.5,-75.5 739.5,-75.5 739.5,-56.5 693.5,-56.5"/>
<text text-anchor="middle" x="716.5" y="-63.5" font-family="Helvetica,sans-Serif" font-size="10.00">chrono</text>
</g>
<!-- Node1&#45;&gt;Node12 -->
<g id="edge11" class="edge"><title>Node1&#45;&gt;Node12</title>
<path fill="none" stroke="midnightblue" d="M716.5,-112.399C716.5,-104.466 716.5,-94.458 716.5,-85.8583"/>
<polygon fill="midnightblue" stroke="midnightblue" points="720,-85.6577 716.5,-75.6578 713,-85.6578 720,-85.6577"/>
</g>
<!-- Node13 -->
<g id="node13" class="node"><title>Node13</title>
<polygon fill="none" stroke="#bfbfbf" points="757.5,-56.5 757.5,-75.5 807.5,-75.5 807.5,-56.5 757.5,-56.5"/>
<text text-anchor="middle" x="782.5" y="-63.5" font-family="Helvetica,sans-Serif" font-size="10.00">TH1F.h</text>
</g>
<!-- Node1&#45;&gt;Node13 -->
<g id="edge12" class="edge"><title>Node1&#45;&gt;Node13</title>
<path fill="none" stroke="midnightblue" d="M732.141,-112.399C742.127,-103.397 755.078,-91.7214 765.345,-82.4652"/>
<polygon fill="midnightblue" stroke="midnightblue" points="767.813,-84.9533 772.896,-75.6578 763.125,-79.7541 767.813,-84.9533"/>
</g>
<!-- Node14 -->
<g id="node14" class="node"><title>Node14</title>
<polygon fill="none" stroke="#bfbfbf" points="826,-56.5 826,-75.5 873,-75.5 873,-56.5 826,-56.5"/>
<text text-anchor="middle" x="849.5" y="-63.5" font-family="Helvetica,sans-Serif" font-size="10.00">TFile.h</text>
</g>
<!-- Node1&#45;&gt;Node14 -->
<g id="edge13" class="edge"><title>Node1&#45;&gt;Node14</title>
<path fill="none" stroke="midnightblue" d="M748.019,-112.399C770.135,-102.505 799.467,-89.3832 820.906,-79.7919"/>
<polygon fill="midnightblue" stroke="midnightblue" points="822.448,-82.9364 830.147,-75.6578 819.59,-76.5466 822.448,-82.9364"/>
</g>
<!-- Node15 -->
<g id="node15" class="node"><title>Node15</title>
<polygon fill="none" stroke="#bfbfbf" points="891,-56.5 891,-75.5 956,-75.5 956,-56.5 891,-56.5"/>
<text text-anchor="middle" x="923.5" y="-63.5" font-family="Helvetica,sans-Serif" font-size="10.00">TSystem.h</text>
</g>
<!-- Node1&#45;&gt;Node15 -->
<g id="edge14" class="edge"><title>Node1&#45;&gt;Node15</title>
<path fill="none" stroke="midnightblue" d="M765.294,-112.475C801.474,-102.075 850.169,-88.0783 883.936,-78.3722"/>
<polygon fill="midnightblue" stroke="midnightblue" points="885.262,-81.6328 893.906,-75.5064 883.329,-74.9052 885.262,-81.6328"/>
</g>
<!-- Node3 -->
<g id="node3" class="node"><title>Node3</title>
<polygon fill="none" stroke="#bfbfbf" points="0,-0.5 0,-19.5 41,-19.5 41,-0.5 0,-0.5"/>
<text text-anchor="middle" x="20.5" y="-7.5" font-family="Helvetica,sans-Serif" font-size="10.00">string</text>
</g>
<!-- Node2&#45;&gt;Node3 -->
<g id="edge2" class="edge"><title>Node2&#45;&gt;Node3</title>
<path fill="none" stroke="midnightblue" d="M153.464,-56.4435C125.633,-46.9316 80.6855,-31.5697 50.8674,-21.3787"/>
<polygon fill="midnightblue" stroke="midnightblue" points="51.9764,-18.059 41.3818,-18.1368 49.7125,-24.6829 51.9764,-18.059"/>
</g>
<!-- Node4 -->
<g id="node4" class="node"><title>Node4</title>
<polygon fill="none" stroke="#bfbfbf" points="59,-0.5 59,-19.5 94,-19.5 94,-0.5 59,-0.5"/>
<text text-anchor="middle" x="76.5" y="-7.5" font-family="Helvetica,sans-Serif" font-size="10.00">map</text>
</g>
<!-- Node2&#45;&gt;Node4 -->
<g id="edge3" class="edge"><title>Node2&#45;&gt;Node4</title>
<path fill="none" stroke="midnightblue" d="M162.112,-56.324C145.829,-47.7034 120.633,-34.3643 101.784,-24.3855"/>
<polygon fill="midnightblue" stroke="midnightblue" points="103.323,-21.2402 92.8474,-19.6545 100.048,-27.4267 103.323,-21.2402"/>
</g>
<!-- Node5 -->
<g id="node5" class="node"><title>Node5</title>
<polygon fill="none" stroke="#bfbfbf" points="112.5,-0.5 112.5,-19.5 168.5,-19.5 168.5,-0.5 112.5,-0.5"/>
<text text-anchor="middle" x="140.5" y="-7.5" font-family="Helvetica,sans-Serif" font-size="10.00">Rtypes.h</text>
</g>
<!-- Node2&#45;&gt;Node5 -->
<g id="edge4" class="edge"><title>Node2&#45;&gt;Node5</title>
<path fill="none" stroke="midnightblue" d="M172.225,-56.083C166.858,-48.4554 158.982,-37.2645 152.421,-27.9408"/>
<polygon fill="midnightblue" stroke="midnightblue" points="155.275,-25.9149 146.658,-19.7511 149.551,-29.9434 155.275,-25.9149"/>
</g>
<!-- Node6 -->
<g id="node6" class="node"><title>Node6</title>
<polygon fill="none" stroke="#bfbfbf" points="187,-0.5 187,-19.5 246,-19.5 246,-0.5 187,-0.5"/>
<text text-anchor="middle" x="216.5" y="-7.5" font-family="Helvetica,sans-Serif" font-size="10.00">TObject.h</text>
</g>
<!-- Node2&#45;&gt;Node6 -->
<g id="edge5" class="edge"><title>Node2&#45;&gt;Node6</title>
<path fill="none" stroke="midnightblue" d="M184.775,-56.083C190.142,-48.4554 198.018,-37.2645 204.579,-27.9408"/>
<polygon fill="midnightblue" stroke="midnightblue" points="207.449,-29.9434 210.342,-19.7511 201.725,-25.9149 207.449,-29.9434"/>
</g>
<!-- Node7 -->
<g id="node7" class="node"><title>Node7</title>
<polygon fill="none" stroke="#bfbfbf" points="264.5,-0.5 264.5,-19.5 380.5,-19.5 380.5,-0.5 264.5,-0.5"/>
<text text-anchor="middle" x="322.5" y="-7.5" font-family="Helvetica,sans-Serif" font-size="10.00">Common/Exceptions.h</text>
</g>
<!-- Node2&#45;&gt;Node7 -->
<g id="edge6" class="edge"><title>Node2&#45;&gt;Node7</title>
<path fill="none" stroke="midnightblue" d="M201.317,-56.4435C225.332,-47.4381 263.329,-33.1891 290.369,-23.049"/>
<polygon fill="midnightblue" stroke="midnightblue" points="291.655,-26.3049 299.79,-19.5164 289.197,-19.7506 291.655,-26.3049"/>
</g>
<!-- Node9 -->
<g id="node9" class="node"><title>Node9</title>
<polygon fill="none" stroke="#bfbfbf" points="398.5,-0.5 398.5,-19.5 528.5,-19.5 528.5,-0.5 398.5,-0.5"/>
<text text-anchor="middle" x="463.5" y="-7.5" font-family="Helvetica,sans-Serif" font-size="10.00">InfoLogger/InfoLogger.hxx</text>
</g>
<!-- Node8&#45;&gt;Node9 -->
<g id="edge8" class="edge"><title>Node8&#45;&gt;Node9</title>
<path fill="none" stroke="midnightblue" d="M463.5,-56.083C463.5,-49.0059 463.5,-38.8611 463.5,-29.9865"/>
<polygon fill="midnightblue" stroke="midnightblue" points="467,-29.751 463.5,-19.7511 460,-29.7511 467,-29.751"/>
</g>
<!-- Node10 -->
<g id="node10" class="node"><title>Node10</title>
<polygon fill="none" stroke="#bfbfbf" points="546.5,-0.5 546.5,-19.5 708.5,-19.5 708.5,-0.5 546.5,-0.5"/>
<text text-anchor="middle" x="627.5" y="-7.5" font-family="Helvetica,sans-Serif" font-size="10.00">InfoLogger/InfoLoggerMacros.hxx</text>
</g>
<!-- Node8&#45;&gt;Node10 -->
<g id="edge9" class="edge"><title>Node8&#45;&gt;Node10</title>
<path fill="none" stroke="midnightblue" d="M489.486,-56.4435C517.196,-47.3196 561.252,-32.8133 592.116,-22.6509"/>
<polygon fill="midnightblue" stroke="midnightblue" points="593.232,-25.9684 601.635,-19.5164 591.042,-19.3196 593.232,-25.9684"/>
</g>
</g>
</svg>
