<?xml version="1.0" encoding="UTF-8" standalone="no"?>
<!DOCTYPE svg PUBLIC "-//W3C//DTD SVG 1.1//EN"
 "http://www.w3.org/Graphics/SVG/1.1/DTD/svg11.dtd">
<!-- Generated by graphviz version 2.38.0 (20140413.2041)
 -->
<!-- Title: Framework/test/testCcdbDatabase.cxx Pages: 1 -->
<svg width="1571pt" height="308pt"
 viewBox="0.00 0.00 1570.50 308.00" xmlns="http://www.w3.org/2000/svg" xmlns:xlink="http://www.w3.org/1999/xlink">
<g id="graph0" class="graph" transform="scale(1 1) rotate(0) translate(4 304)">
<title>Framework/test/testCcdbDatabase.cxx</title>
<!-- Node1 -->
<g id="node1" class="node"><title>Node1</title>
<polygon fill="#bfbfbf" stroke="black" points="919.5,-280.5 919.5,-299.5 1107.5,-299.5 1107.5,-280.5 919.5,-280.5"/>
<text text-anchor="middle" x="1013.5" y="-287.5" font-family="Helvetica,sans-Serif" font-size="10.00">Framework/test/testCcdbDatabase.cxx</text>
</g>
<!-- Node2 -->
<g id="node2" class="node"><title>Node2</title>
<polygon fill="none" stroke="#bfbfbf" points="0,-112.5 0,-131.5 83,-131.5 83,-112.5 0,-112.5"/>
<text text-anchor="middle" x="41.5" y="-119.5" font-family="Helvetica,sans-Serif" font-size="10.00">unordered_map</text>
</g>
<!-- Node1&#45;&gt;Node2 -->
<g id="edge1" class="edge"><title>Node1&#45;&gt;Node2</title>
<path fill="none" stroke="midnightblue" d="M919.199,-286.862C809.423,-283.084 623.047,-272.662 465.5,-244 317.267,-217.032 146.34,-160.009 75.235,-135.086"/>
<polygon fill="midnightblue" stroke="midnightblue" points="76.0777,-131.672 65.4829,-131.649 73.751,-138.274 76.0777,-131.672"/>
</g>
<!-- Node3 -->
<g id="node3" class="node"><title>Node3</title>
<g id="a_node3"><a xlink:href="CcdbDatabase_8h.html" target="_top" xlink:title="QualityControl/CcdbDatabase.h">
<polygon fill="none" stroke="black" points="475,-224.5 475,-243.5 630,-243.5 630,-224.5 475,-224.5"/>
<text text-anchor="middle" x="552.5" y="-231.5" font-family="Helvetica,sans-Serif" font-size="10.00">QualityControl/CcdbDatabase.h</text>
</a>
</g>
</g>
<!-- Node1&#45;&gt;Node3 -->
<g id="edge2" class="edge"><title>Node1&#45;&gt;Node3</title>
<path fill="none" stroke="midnightblue" d="M940.708,-280.473C857.727,-270.753 722.358,-254.897 635.387,-244.709"/>
<polygon fill="midnightblue" stroke="midnightblue" points="635.63,-241.214 625.29,-243.526 634.815,-248.166 635.63,-241.214"/>
</g>
<!-- Node17 -->
<g id="node17" class="node"><title>Node17</title>
<g id="a_node17"><a xlink:href="QcInfoLogger_8h.html" target="_top" xlink:title="QualityControl/QcInfoLogger.h">
<polygon fill="none" stroke="black" points="939,-224.5 939,-243.5 1088,-243.5 1088,-224.5 939,-224.5"/>
<text text-anchor="middle" x="1013.5" y="-231.5" font-family="Helvetica,sans-Serif" font-size="10.00">QualityControl/QcInfoLogger.h</text>
</a>
</g>
</g>
<!-- Node1&#45;&gt;Node17 -->
<g id="edge24" class="edge"><title>Node1&#45;&gt;Node17</title>
<path fill="none" stroke="midnightblue" d="M1013.5,-280.083C1013.5,-273.006 1013.5,-262.861 1013.5,-253.986"/>
<polygon fill="midnightblue" stroke="midnightblue" points="1017,-253.751 1013.5,-243.751 1010,-253.751 1017,-253.751"/>
</g>
<!-- Node20 -->
<g id="node20" class="node"><title>Node20</title>
<polygon fill="none" stroke="#bfbfbf" points="1106,-224.5 1106,-243.5 1229,-243.5 1229,-224.5 1106,-224.5"/>
<text text-anchor="middle" x="1167.5" y="-231.5" font-family="Helvetica,sans-Serif" font-size="10.00">QualityControl/Version.h</text>
</g>
<!-- Node1&#45;&gt;Node20 -->
<g id="edge27" class="edge"><title>Node1&#45;&gt;Node20</title>
<path fill="none" stroke="midnightblue" d="M1037.9,-280.444C1063.7,-271.399 1104.58,-257.064 1133.52,-246.916"/>
<polygon fill="midnightblue" stroke="midnightblue" points="1134.93,-250.128 1143.21,-243.516 1132.62,-243.523 1134.93,-250.128"/>
</g>
<!-- Node21 -->
<g id="node21" class="node"><title>Node21</title>
<polygon fill="none" stroke="#bfbfbf" points="1247,-224.5 1247,-243.5 1366,-243.5 1366,-224.5 1247,-224.5"/>
<text text-anchor="middle" x="1306.5" y="-231.5" font-family="Helvetica,sans-Serif" font-size="10.00">boost/test/unit_test.hpp</text>
</g>
<!-- Node1&#45;&gt;Node21 -->
<g id="edge28" class="edge"><title>Node1&#45;&gt;Node21</title>
<path fill="none" stroke="midnightblue" d="M1059.93,-280.444C1111.58,-270.925 1195.01,-255.547 1250.31,-245.356"/>
<polygon fill="midnightblue" stroke="midnightblue" points="1251.09,-248.771 1260.29,-243.516 1249.82,-241.887 1251.09,-248.771"/>
</g>
<!-- Node22 -->
<g id="node22" class="node"><title>Node22</title>
<polygon fill="none" stroke="#bfbfbf" points="1384.5,-224.5 1384.5,-243.5 1434.5,-243.5 1434.5,-224.5 1384.5,-224.5"/>
<text text-anchor="middle" x="1409.5" y="-231.5" font-family="Helvetica,sans-Serif" font-size="10.00">TH1F.h</text>
</g>
<!-- Node1&#45;&gt;Node22 -->
<g id="edge29" class="edge"><title>Node1&#45;&gt;Node22</title>
<path fill="none" stroke="midnightblue" d="M1107.8,-280.8C1178.75,-273.812 1278.46,-262.253 1374.46,-243.973"/>
<polygon fill="midnightblue" stroke="midnightblue" points="1375.18,-247.399 1384.34,-242.066 1373.85,-240.526 1375.18,-247.399"/>
</g>
<!-- Node23 -->
<g id="node23" class="node"><title>Node23</title>
<polygon fill="none" stroke="#bfbfbf" points="1452.5,-224.5 1452.5,-243.5 1562.5,-243.5 1562.5,-224.5 1452.5,-224.5"/>
<text text-anchor="middle" x="1507.5" y="-231.5" font-family="Helvetica,sans-Serif" font-size="10.00">rapidjson/document.h</text>
</g>
<!-- Node1&#45;&gt;Node23 -->
<g id="edge30" class="edge"><title>Node1&#45;&gt;Node23</title>
<path fill="none" stroke="midnightblue" d="M1103.79,-280.49C1188.58,-272.282 1319.23,-259.082 1442.37,-244.102"/>
<polygon fill="midnightblue" stroke="midnightblue" points="1442.86,-247.568 1452.36,-242.881 1442.01,-240.62 1442.86,-247.568"/>
</g>
<!-- Node24 -->
<g id="node24" class="node"><title>Node24</title>
<g id="a_node24"><a xlink:href="RepoPathUtils_8h.html" target="_top" xlink:title="QualityControl/RepoPathUtils.h">
<polygon fill="none" stroke="black" points="637.5,-168.5 637.5,-187.5 791.5,-187.5 791.5,-168.5 637.5,-168.5"/>
<text text-anchor="middle" x="714.5" y="-175.5" font-family="Helvetica,sans-Serif" font-size="10.00">QualityControl/RepoPathUtils.h</text>
</a>
</g>
</g>
<!-- Node1&#45;&gt;Node24 -->
<g id="edge31" class="edge"><title>Node1&#45;&gt;Node24</title>
<path fill="none" stroke="midnightblue" d="M919.4,-282.334C876.445,-276.381 826.017,-265.152 784.5,-244 761.524,-232.294 740.636,-210.83 727.774,-195.779"/>
<polygon fill="midnightblue" stroke="midnightblue" points="730.238,-193.266 721.174,-187.781 724.839,-197.722 730.238,-193.266"/>
</g>
<!-- Node25 -->
<g id="node25" class="node"><title>Node25</title>
<g id="a_node25"><a xlink:href="testUtils_8h.html" target="_top" xlink:title="QualityControl/testUtils.h">
<polygon fill="none" stroke="black" points="794,-224.5 794,-243.5 921,-243.5 921,-224.5 794,-224.5"/>
<text text-anchor="middle" x="857.5" y="-231.5" font-family="Helvetica,sans-Serif" font-size="10.00">QualityControl/testUtils.h</text>
</a>
</g>
</g>
<!-- Node1&#45;&gt;Node25 -->
<g id="edge37" class="edge"><title>Node1&#45;&gt;Node25</title>
<path fill="none" stroke="midnightblue" d="M988.781,-280.444C962.652,-271.399 921.241,-257.064 891.924,-246.916"/>
<polygon fill="midnightblue" stroke="midnightblue" points="892.698,-243.48 882.103,-243.516 890.408,-250.095 892.698,-243.48"/>
</g>
<!-- Node4 -->
<g id="node4" class="node"><title>Node4</title>
<polygon fill="none" stroke="#bfbfbf" points="505,-168.5 505,-187.5 600,-187.5 600,-168.5 505,-168.5"/>
<text text-anchor="middle" x="552.5" y="-175.5" font-family="Helvetica,sans-Serif" font-size="10.00">CCDB/CcdbApi.h</text>
</g>
<!-- Node3&#45;&gt;Node4 -->
<g id="edge3" class="edge"><title>Node3&#45;&gt;Node4</title>
<path fill="none" stroke="midnightblue" d="M552.5,-224.083C552.5,-217.006 552.5,-206.861 552.5,-197.986"/>
<polygon fill="midnightblue" stroke="midnightblue" points="556,-197.751 552.5,-187.751 549,-197.751 556,-197.751"/>
</g>
<!-- Node5 -->
<g id="node5" class="node"><title>Node5</title>
<g id="a_node5"><a xlink:href="DatabaseInterface_8h.html" target="_top" xlink:title="QualityControl/DatabaseInterface.h">
<polygon fill="none" stroke="black" points="285.5,-168.5 285.5,-187.5 455.5,-187.5 455.5,-168.5 285.5,-168.5"/>
<text text-anchor="middle" x="370.5" y="-175.5" font-family="Helvetica,sans-Serif" font-size="10.00">QualityControl/DatabaseInterface.h</text>
</a>
</g>
</g>
<!-- Node3&#45;&gt;Node5 -->
<g id="edge4" class="edge"><title>Node3&#45;&gt;Node5</title>
<path fill="none" stroke="midnightblue" d="M523.662,-224.444C492.644,-215.241 443.171,-200.562 408.882,-190.388"/>
<polygon fill="midnightblue" stroke="midnightblue" points="409.786,-187.006 399.204,-187.516 407.795,-193.716 409.786,-187.006"/>
</g>
<!-- Node5&#45;&gt;Node2 -->
<g id="edge8" class="edge"><title>Node5&#45;&gt;Node2</title>
<path fill="none" stroke="midnightblue" d="M316.389,-168.474C262.473,-159.926 177.048,-146.241 93.1914,-132.098"/>
<polygon fill="midnightblue" stroke="midnightblue" points="93.6837,-128.631 83.2402,-130.416 92.5171,-135.533 93.6837,-128.631"/>
</g>
<!-- Node6 -->
<g id="node6" class="node"><title>Node6</title>
<polygon fill="none" stroke="#bfbfbf" points="589,-0.5 589,-19.5 630,-19.5 630,-0.5 589,-0.5"/>
<text text-anchor="middle" x="609.5" y="-7.5" font-family="Helvetica,sans-Serif" font-size="10.00">string</text>
</g>
<!-- Node5&#45;&gt;Node6 -->
<g id="edge5" class="edge"><title>Node5&#45;&gt;Node6</title>
<path fill="none" stroke="midnightblue" d="M366.58,-168.252C361.292,-155.014 353.706,-129.575 364.5,-112 383.016,-81.8517 403.981,-92.0723 435.5,-76 452.854,-67.1509 456.541,-63.5463 474.5,-56 509.439,-41.3184 550.98,-28.0737 578.665,-19.8157"/>
<polygon fill="midnightblue" stroke="midnightblue" points="579.952,-23.0855 588.555,-16.9022 577.974,-16.3709 579.952,-23.0855"/>
</g>
<!-- Node7 -->
<g id="node7" class="node"><title>Node7</title>
<polygon fill="none" stroke="#bfbfbf" points="101.5,-112.5 101.5,-131.5 153.5,-131.5 153.5,-112.5 101.5,-112.5"/>
<text text-anchor="middle" x="127.5" y="-119.5" font-family="Helvetica,sans-Serif" font-size="10.00">memory</text>
</g>
<!-- Node5&#45;&gt;Node7 -->
<g id="edge6" class="edge"><title>Node5&#45;&gt;Node7</title>
<path fill="none" stroke="midnightblue" d="M328.561,-168.423C288.613,-160.143 226.55,-146.992 163.902,-132.267"/>
<polygon fill="midnightblue" stroke="midnightblue" points="164.383,-128.784 153.846,-129.891 162.773,-135.597 164.383,-128.784"/>
</g>
<!-- Node8 -->
<g id="node8" class="node"><title>Node8</title>
<polygon fill="none" stroke="#bfbfbf" points="373.5,-112.5 373.5,-131.5 417.5,-131.5 417.5,-112.5 373.5,-112.5"/>
<text text-anchor="middle" x="395.5" y="-119.5" font-family="Helvetica,sans-Serif" font-size="10.00">vector</text>
</g>
<!-- Node5&#45;&gt;Node8 -->
<g id="edge7" class="edge"><title>Node5&#45;&gt;Node8</title>
<path fill="none" stroke="midnightblue" d="M374.628,-168.083C378.014,-160.77 382.916,-150.181 387.119,-141.103"/>
<polygon fill="midnightblue" stroke="midnightblue" points="390.423,-142.296 391.449,-131.751 384.071,-139.355 390.423,-142.296"/>
</g>
<!-- Node9 -->
<g id="node9" class="node"><title>Node9</title>
<polygon fill="none" stroke="#bfbfbf" points="171.5,-112.5 171.5,-131.5 317.5,-131.5 317.5,-112.5 171.5,-112.5"/>
<text text-anchor="middle" x="244.5" y="-119.5" font-family="Helvetica,sans-Serif" font-size="10.00">Framework/ServiceRegistry.h</text>
</g>
<!-- Node5&#45;&gt;Node9 -->
<g id="edge9" class="edge"><title>Node5&#45;&gt;Node9</title>
<path fill="none" stroke="midnightblue" d="M350.535,-168.444C329.891,-159.596 297.437,-145.687 273.868,-135.586"/>
<polygon fill="midnightblue" stroke="midnightblue" points="274.942,-132.239 264.372,-131.516 272.184,-138.673 274.942,-132.239"/>
</g>
<!-- Node10 -->
<g id="node10" class="node"><title>Node10</title>
<g id="a_node10"><a xlink:href="QualityObject_8h_source.html" target="_top" xlink:title="QualityControl/QualityObject.h">
<polygon fill="none" stroke="black" points="435,-112.5 435,-131.5 584,-131.5 584,-112.5 435,-112.5"/>
<text text-anchor="middle" x="509.5" y="-119.5" font-family="Helvetica,sans-Serif" font-size="10.00">QualityControl/QualityObject.h</text>
</a>
</g>
</g>
<!-- Node5&#45;&gt;Node10 -->
<g id="edge10" class="edge"><title>Node5&#45;&gt;Node10</title>
<path fill="none" stroke="midnightblue" d="M392.525,-168.444C415.604,-159.478 452.062,-145.314 478.141,-135.183"/>
<polygon fill="midnightblue" stroke="midnightblue" points="479.524,-138.4 487.578,-131.516 476.989,-131.875 479.524,-138.4"/>
</g>
<!-- Node16 -->
<g id="node16" class="node"><title>Node16</title>
<g id="a_node16"><a xlink:href="MonitorObject_8h.html" target="_top" xlink:title="QualityControl/MonitorObject.h">
<polygon fill="none" stroke="black" points="602,-112.5 602,-131.5 753,-131.5 753,-112.5 602,-112.5"/>
<text text-anchor="middle" x="677.5" y="-119.5" font-family="Helvetica,sans-Serif" font-size="10.00">QualityControl/MonitorObject.h</text>
</a>
</g>
</g>
<!-- Node5&#45;&gt;Node16 -->
<g id="edge18" class="edge"><title>Node5&#45;&gt;Node16</title>
<path fill="none" stroke="midnightblue" d="M419.145,-168.444C473.374,-158.905 561.048,-143.483 618.982,-133.293"/>
<polygon fill="midnightblue" stroke="midnightblue" points="619.84,-136.696 629.083,-131.516 618.627,-129.802 619.84,-136.696"/>
</g>
<!-- Node11 -->
<g id="node11" class="node"><title>Node11</title>
<polygon fill="none" stroke="#bfbfbf" points="349,-0.5 349,-19.5 384,-19.5 384,-0.5 349,-0.5"/>
<text text-anchor="middle" x="366.5" y="-7.5" font-family="Helvetica,sans-Serif" font-size="10.00">map</text>
</g>
<!-- Node10&#45;&gt;Node11 -->
<g id="edge11" class="edge"><title>Node10&#45;&gt;Node11</title>
<path fill="none" stroke="midnightblue" d="M451.071,-112.49C391.447,-103.211 306.289,-88.0734 296.5,-76 279.291,-54.7751 313.231,-33.9459 339.608,-21.7952"/>
<polygon fill="midnightblue" stroke="midnightblue" points="341.125,-24.9515 348.875,-17.7267 338.311,-18.542 341.125,-24.9515"/>
</g>
<!-- Node12 -->
<g id="node12" class="node"><title>Node12</title>
<polygon fill="none" stroke="#bfbfbf" points="484,-56.5 484,-75.5 543,-75.5 543,-56.5 484,-56.5"/>
<text text-anchor="middle" x="513.5" y="-63.5" font-family="Helvetica,sans-Serif" font-size="10.00">TObject.h</text>
</g>
<!-- Node10&#45;&gt;Node12 -->
<g id="edge12" class="edge"><title>Node10&#45;&gt;Node12</title>
<path fill="none" stroke="midnightblue" d="M510.161,-112.083C510.685,-105.006 511.436,-94.8611 512.094,-85.9865"/>
<polygon fill="midnightblue" stroke="midnightblue" points="515.603,-85.9823 512.852,-75.7511 508.623,-85.4652 515.603,-85.9823"/>
</g>
<!-- Node13 -->
<g id="node13" class="node"><title>Node13</title>
<polygon fill="none" stroke="#bfbfbf" points="675.5,-56.5 675.5,-75.5 791.5,-75.5 791.5,-56.5 675.5,-56.5"/>
<text text-anchor="middle" x="733.5" y="-63.5" font-family="Helvetica,sans-Serif" font-size="10.00">Common/Exceptions.h</text>
</g>
<!-- Node10&#45;&gt;Node13 -->
<g id="edge13" class="edge"><title>Node10&#45;&gt;Node13</title>
<path fill="none" stroke="midnightblue" d="M544.993,-112.444C583.824,-103.083 646.156,-88.0561 688.418,-77.868"/>
<polygon fill="midnightblue" stroke="midnightblue" points="689.271,-81.2626 698.173,-75.5164 687.631,-74.4576 689.271,-81.2626"/>
</g>
<!-- Node14 -->
<g id="node14" class="node"><title>Node14</title>
<g id="a_node14"><a xlink:href="Quality_8h.html" target="_top" xlink:title="QualityControl/Quality.h">
<polygon fill="none" stroke="black" points="306,-56.5 306,-75.5 427,-75.5 427,-56.5 306,-56.5"/>
<text text-anchor="middle" x="366.5" y="-63.5" font-family="Helvetica,sans-Serif" font-size="10.00">QualityControl/Quality.h</text>
</a>
</g>
</g>
<!-- Node10&#45;&gt;Node14 -->
<g id="edge14" class="edge"><title>Node10&#45;&gt;Node14</title>
<path fill="none" stroke="midnightblue" d="M486.841,-112.444C463.098,-103.478 425.591,-89.314 398.762,-79.1827"/>
<polygon fill="midnightblue" stroke="midnightblue" points="399.644,-75.7749 389.053,-75.5164 397.171,-82.3235 399.644,-75.7749"/>
</g>
<!-- Node14&#45;&gt;Node6 -->
<g id="edge16" class="edge"><title>Node14&#45;&gt;Node6</title>
<path fill="none" stroke="midnightblue" d="M405.004,-56.4435C453.199,-45.7335 534.768,-27.6072 578.917,-17.7961"/>
<polygon fill="midnightblue" stroke="midnightblue" points="579.775,-21.191 588.778,-15.6049 578.257,-14.3576 579.775,-21.191"/>
</g>
<!-- Node14&#45;&gt;Node11 -->
<g id="edge17" class="edge"><title>Node14&#45;&gt;Node11</title>
<path fill="none" stroke="midnightblue" d="M366.5,-56.083C366.5,-49.0059 366.5,-38.8611 366.5,-29.9865"/>
<polygon fill="midnightblue" stroke="midnightblue" points="370,-29.751 366.5,-19.7511 363,-29.7511 370,-29.751"/>
</g>
<!-- Node15 -->
<g id="node15" class="node"><title>Node15</title>
<polygon fill="none" stroke="#bfbfbf" points="477.5,-0.5 477.5,-19.5 533.5,-19.5 533.5,-0.5 477.5,-0.5"/>
<text text-anchor="middle" x="505.5" y="-7.5" font-family="Helvetica,sans-Serif" font-size="10.00">Rtypes.h</text>
</g>
<!-- Node14&#45;&gt;Node15 -->
<g id="edge15" class="edge"><title>Node14&#45;&gt;Node15</title>
<path fill="none" stroke="midnightblue" d="M388.525,-56.4435C411.604,-47.4776 448.062,-33.314 474.141,-23.1827"/>
<polygon fill="midnightblue" stroke="midnightblue" points="475.524,-26.4002 483.578,-19.5164 472.989,-19.8753 475.524,-26.4002"/>
</g>
<!-- Node16&#45;&gt;Node6 -->
<g id="edge19" class="edge"><title>Node16&#45;&gt;Node6</title>
<path fill="none" stroke="midnightblue" d="M672.164,-112.368C660.992,-94.2957 634.955,-52.1764 620.199,-28.3074"/>
<polygon fill="midnightblue" stroke="midnightblue" points="623.046,-26.257 614.811,-19.5914 617.092,-29.9378 623.046,-26.257"/>
</g>
<!-- Node16&#45;&gt;Node11 -->
<g id="edge20" class="edge"><title>Node16&#45;&gt;Node11</title>
<path fill="none" stroke="midnightblue" d="M658.961,-112.445C640.23,-103.682 610.557,-89.472 585.5,-76 570.059,-67.6979 567.747,-62.5869 551.5,-56 497.83,-34.2412 430.969,-21.1878 394.112,-15.1157"/>
<polygon fill="midnightblue" stroke="midnightblue" points="394.543,-11.6402 384.116,-13.5199 393.44,-18.5526 394.543,-11.6402"/>
</g>
<!-- Node16&#45;&gt;Node12 -->
<g id="edge22" class="edge"><title>Node16&#45;&gt;Node12</title>
<path fill="none" stroke="midnightblue" d="M651.514,-112.444C623.804,-103.32 579.748,-88.8133 548.884,-78.6509"/>
<polygon fill="midnightblue" stroke="midnightblue" points="549.958,-75.3196 539.365,-75.5164 547.768,-81.9684 549.958,-75.3196"/>
</g>
<!-- Node16&#45;&gt;Node13 -->
<g id="edge23" class="edge"><title>Node16&#45;&gt;Node13</title>
<path fill="none" stroke="midnightblue" d="M686.497,-112.324C694.694,-104.42 707.006,-92.5482 716.972,-82.9377"/>
<polygon fill="midnightblue" stroke="midnightblue" points="719.57,-85.2947 724.339,-75.8339 714.711,-80.2558 719.57,-85.2947"/>
</g>
<!-- Node16&#45;&gt;Node15 -->
<g id="edge21" class="edge"><title>Node16&#45;&gt;Node15</title>
<path fill="none" stroke="midnightblue" d="M666.142,-112.402C649.021,-99.5758 615.42,-74.9146 585.5,-56 567.764,-44.788 547.109,-33.205 531.23,-24.5986"/>
<polygon fill="midnightblue" stroke="midnightblue" points="532.494,-21.3048 522.029,-19.6546 529.181,-27.471 532.494,-21.3048"/>
</g>
<!-- Node18 -->
<g id="node18" class="node"><title>Node18</title>
<polygon fill="none" stroke="#bfbfbf" points="957.5,-168.5 957.5,-187.5 1087.5,-187.5 1087.5,-168.5 957.5,-168.5"/>
<text text-anchor="middle" x="1022.5" y="-175.5" font-family="Helvetica,sans-Serif" font-size="10.00">InfoLogger/InfoLogger.hxx</text>
</g>
<!-- Node17&#45;&gt;Node18 -->
<g id="edge25" class="edge"><title>Node17&#45;&gt;Node18</title>
<path fill="none" stroke="midnightblue" d="M1014.99,-224.083C1016.18,-216.927 1017.89,-206.635 1019.38,-197.691"/>
<polygon fill="midnightblue" stroke="midnightblue" points="1022.85,-198.19 1021.04,-187.751 1015.95,-197.04 1022.85,-198.19"/>
</g>
<!-- Node19 -->
<g id="node19" class="node"><title>Node19</title>
<polygon fill="none" stroke="#bfbfbf" points="1105.5,-168.5 1105.5,-187.5 1267.5,-187.5 1267.5,-168.5 1105.5,-168.5"/>
<text text-anchor="middle" x="1186.5" y="-175.5" font-family="Helvetica,sans-Serif" font-size="10.00">InfoLogger/InfoLoggerMacros.hxx</text>
</g>
<!-- Node17&#45;&gt;Node19 -->
<g id="edge26" class="edge"><title>Node17&#45;&gt;Node19</title>
<path fill="none" stroke="midnightblue" d="M1040.91,-224.444C1070.27,-215.28 1117.02,-200.688 1149.6,-190.519"/>
<polygon fill="midnightblue" stroke="midnightblue" points="1150.71,-193.837 1159.22,-187.516 1148.63,-187.155 1150.71,-193.837"/>
</g>
<!-- Node24&#45;&gt;Node6 -->
<g id="edge32" class="edge"><title>Node24&#45;&gt;Node6</title>
<path fill="none" stroke="midnightblue" d="M731.518,-168.371C745.501,-160.535 764.978,-147.802 777.5,-132 799.419,-104.341 822.407,-83.668 800.5,-56 780.847,-31.1789 689.053,-18.6792 640.229,-13.6932"/>
<polygon fill="midnightblue" stroke="midnightblue" points="640.515,-10.2045 630.222,-12.7151 639.834,-17.1713 640.515,-10.2045"/>
</g>
<!-- Node24&#45;&gt;Node8 -->
<g id="edge33" class="edge"><title>Node24&#45;&gt;Node8</title>
<path fill="none" stroke="midnightblue" d="M641.829,-168.488C585.479,-161.245 505.32,-149.543 427.642,-132.273"/>
<polygon fill="midnightblue" stroke="midnightblue" points="428.216,-128.814 417.69,-130.026 426.674,-135.643 428.216,-128.814"/>
</g>
<!-- Node24&#45;&gt;Node10 -->
<g id="edge36" class="edge"><title>Node24&#45;&gt;Node10</title>
<path fill="none" stroke="midnightblue" d="M682.017,-168.444C646.78,-159.162 590.396,-144.309 551.741,-134.127"/>
<polygon fill="midnightblue" stroke="midnightblue" points="552.393,-130.679 541.831,-131.516 550.609,-137.448 552.393,-130.679"/>
</g>
<!-- Node24&#45;&gt;Node13 -->
<g id="edge34" class="edge"><title>Node24&#45;&gt;Node13</title>
<path fill="none" stroke="midnightblue" d="M728.578,-168.259C739.853,-160.355 754.846,-147.584 761.5,-132 768.546,-115.5 758.445,-96.6762 748.465,-83.5473"/>
<polygon fill="midnightblue" stroke="midnightblue" points="751.164,-81.3191 742.106,-75.8237 745.76,-85.7685 751.164,-81.3191"/>
</g>
<!-- Node24&#45;&gt;Node16 -->
<g id="edge35" class="edge"><title>Node24&#45;&gt;Node16</title>
<path fill="none" stroke="midnightblue" d="M708.39,-168.083C703.218,-160.534 695.654,-149.495 689.306,-140.23"/>
<polygon fill="midnightblue" stroke="midnightblue" points="692.036,-138.022 683.496,-131.751 686.261,-141.979 692.036,-138.022"/>
</g>
<!-- Node25&#45;&gt;Node13 -->
<g id="edge39" class="edge"><title>Node25&#45;&gt;Node13</title>
<path fill="none" stroke="midnightblue" d="M852.588,-224.403C840.79,-204.035 809.454,-151.582 777.5,-112 769.197,-101.715 758.917,-91.1025 750.381,-82.768"/>
<polygon fill="midnightblue" stroke="midnightblue" points="752.782,-80.2207 743.14,-75.8291 747.938,-85.2749 752.782,-80.2207"/>
</g>
<!-- Node26 -->
<g id="node26" class="node"><title>Node26</title>
<polygon fill="none" stroke="#bfbfbf" points="885.5,-168.5 885.5,-187.5 939.5,-187.5 939.5,-168.5 885.5,-168.5"/>
<text text-anchor="middle" x="912.5" y="-175.5" font-family="Helvetica,sans-Serif" font-size="10.00">iostream</text>
</g>
<!-- Node25&#45;&gt;Node26 -->
<g id="edge38" class="edge"><title>Node25&#45;&gt;Node26</title>
<path fill="none" stroke="midnightblue" d="M866.582,-224.083C874.671,-216.141 886.695,-204.335 896.41,-194.797"/>
<polygon fill="midnightblue" stroke="midnightblue" points="898.903,-197.254 903.587,-187.751 893.999,-192.26 898.903,-197.254"/>
</g>
</g>
</svg>
