<?xml version="1.0" encoding="UTF-8" standalone="no"?>
<!DOCTYPE svg PUBLIC "-//W3C//DTD SVG 1.1//EN"
 "http://www.w3.org/Graphics/SVG/1.1/DTD/svg11.dtd">
<!-- Generated by graphviz version 2.38.0 (20140413.2041)
 -->
<!-- Title: Framework/test/testQuality.cxx Pages: 1 -->
<svg width="505pt" height="140pt"
 viewBox="0.00 0.00 505.00 140.00" xmlns="http://www.w3.org/2000/svg" xmlns:xlink="http://www.w3.org/1999/xlink">
<g id="graph0" class="graph" transform="scale(1 1) rotate(0) translate(4 136)">
<title>Framework/test/testQuality.cxx</title>
<!-- Node1 -->
<g id="node1" class="node"><title>Node1</title>
<polygon fill="#bfbfbf" stroke="black" points="175,-112.5 175,-131.5 329,-131.5 329,-112.5 175,-112.5"/>
<text text-anchor="middle" x="252" y="-119.5" font-family="Helvetica,sans-Serif" font-size="10.00">Framework/test/testQuality.cxx</text>
</g>
<!-- Node2 -->
<g id="node2" class="node"><title>Node2</title>
<g id="a_node2"><a xlink:href="Quality_8h.html" target="_top" xlink:title="QualityControl/Quality.h">
<polygon fill="none" stroke="black" points="36.5,-56.5 36.5,-75.5 157.5,-75.5 157.5,-56.5 36.5,-56.5"/>
<text text-anchor="middle" x="97" y="-63.5" font-family="Helvetica,sans-Serif" font-size="10.00">QualityControl/Quality.h</text>
</a>
</g>
</g>
<!-- Node1&#45;&gt;Node2 -->
<g id="edge1" class="edge"><title>Node1&#45;&gt;Node2</title>
<path fill="none" stroke="midnightblue" d="M227.44,-112.444C201.477,-103.399 160.332,-89.064 131.203,-78.9158"/>
<polygon fill="midnightblue" stroke="midnightblue" points="132.04,-75.5013 121.445,-75.5164 129.737,-82.1116 132.04,-75.5013"/>
</g>
<!-- Node6 -->
<g id="node6" class="node"><title>Node6</title>
<g id="a_node6"><a xlink:href="QcInfoLogger_8h.html" target="_top" xlink:title="QualityControl/QcInfoLogger.h">
<polygon fill="none" stroke="black" points="177.5,-56.5 177.5,-75.5 326.5,-75.5 326.5,-56.5 177.5,-56.5"/>
<text text-anchor="middle" x="252" y="-63.5" font-family="Helvetica,sans-Serif" font-size="10.00">QualityControl/QcInfoLogger.h</text>
</a>
</g>
</g>
<!-- Node1&#45;&gt;Node6 -->
<g id="edge5" class="edge"><title>Node1&#45;&gt;Node6</title>
<path fill="none" stroke="midnightblue" d="M252,-112.083C252,-105.006 252,-94.8611 252,-85.9865"/>
<polygon fill="midnightblue" stroke="midnightblue" points="255.5,-85.751 252,-75.7511 248.5,-85.7511 255.5,-85.751"/>
</g>
<!-- Node9 -->
<g id="node9" class="node"><title>Node9</title>
<polygon fill="none" stroke="#bfbfbf" points="344.5,-56.5 344.5,-75.5 463.5,-75.5 463.5,-56.5 344.5,-56.5"/>
<text text-anchor="middle" x="404" y="-63.5" font-family="Helvetica,sans-Serif" font-size="10.00">boost/test/unit_test.hpp</text>
</g>
<!-- Node1&#45;&gt;Node9 -->
<g id="edge8" class="edge"><title>Node1&#45;&gt;Node9</title>
<path fill="none" stroke="midnightblue" d="M276.085,-112.444C301.545,-103.399 341.894,-89.064 370.459,-78.9158"/>
<polygon fill="midnightblue" stroke="midnightblue" points="371.777,-82.1622 380.028,-75.5164 369.433,-75.5661 371.777,-82.1622"/>
</g>
<!-- Node3 -->
<g id="node3" class="node"><title>Node3</title>
<polygon fill="none" stroke="#bfbfbf" points="0,-0.5 0,-19.5 56,-19.5 56,-0.5 0,-0.5"/>
<text text-anchor="middle" x="28" y="-7.5" font-family="Helvetica,sans-Serif" font-size="10.00">Rtypes.h</text>
</g>
<!-- Node2&#45;&gt;Node3 -->
<g id="edge2" class="edge"><title>Node2&#45;&gt;Node3</title>
<path fill="none" stroke="midnightblue" d="M85.914,-56.324C75.514,-48.1849 59.7394,-35.8395 47.2784,-26.0874"/>
<polygon fill="midnightblue" stroke="midnightblue" points="49.3199,-23.2407 39.2878,-19.8339 45.0057,-28.7533 49.3199,-23.2407"/>
</g>
<!-- Node4 -->
<g id="node4" class="node"><title>Node4</title>
<polygon fill="none" stroke="#bfbfbf" points="74.5,-0.5 74.5,-19.5 115.5,-19.5 115.5,-0.5 74.5,-0.5"/>
<text text-anchor="middle" x="95" y="-7.5" font-family="Helvetica,sans-Serif" font-size="10.00">string</text>
</g>
<!-- Node2&#45;&gt;Node4 -->
<g id="edge3" class="edge"><title>Node2&#45;&gt;Node4</title>
<path fill="none" stroke="midnightblue" d="M96.6697,-56.083C96.4076,-49.0059 96.0319,-38.8611 95.7032,-29.9865"/>
<polygon fill="midnightblue" stroke="midnightblue" points="99.1919,-29.6147 95.3241,-19.7511 92.1967,-29.8738 99.1919,-29.6147"/>
</g>
<!-- Node5 -->
<g id="node5" class="node"><title>Node5</title>
<polygon fill="none" stroke="#bfbfbf" points="133.5,-0.5 133.5,-19.5 168.5,-19.5 168.5,-0.5 133.5,-0.5"/>
<text text-anchor="middle" x="151" y="-7.5" font-family="Helvetica,sans-Serif" font-size="10.00">map</text>
</g>
<!-- Node2&#45;&gt;Node5 -->
<g id="edge4" class="edge"><title>Node2&#45;&gt;Node5</title>
<path fill="none" stroke="midnightblue" d="M105.917,-56.083C113.78,-48.2195 125.431,-36.5688 134.919,-27.0813"/>
<polygon fill="midnightblue" stroke="midnightblue" points="137.653,-29.2971 142.249,-19.7511 132.703,-24.3473 137.653,-29.2971"/>
</g>
<!-- Node7 -->
<g id="node7" class="node"><title>Node7</title>
<polygon fill="none" stroke="#bfbfbf" points="187,-0.5 187,-19.5 317,-19.5 317,-0.5 187,-0.5"/>
<text text-anchor="middle" x="252" y="-7.5" font-family="Helvetica,sans-Serif" font-size="10.00">InfoLogger/InfoLogger.hxx</text>
</g>
<!-- Node6&#45;&gt;Node7 -->
<g id="edge6" class="edge"><title>Node6&#45;&gt;Node7</title>
<path fill="none" stroke="midnightblue" d="M252,-56.083C252,-49.0059 252,-38.8611 252,-29.9865"/>
<polygon fill="midnightblue" stroke="midnightblue" points="255.5,-29.751 252,-19.7511 248.5,-29.7511 255.5,-29.751"/>
</g>
<!-- Node8 -->
<g id="node8" class="node"><title>Node8</title>
<polygon fill="none" stroke="#bfbfbf" points="335,-0.5 335,-19.5 497,-19.5 497,-0.5 335,-0.5"/>
<text text-anchor="middle" x="416" y="-7.5" font-family="Helvetica,sans-Serif" font-size="10.00">InfoLogger/InfoLoggerMacros.hxx</text>
</g>
<!-- Node6&#45;&gt;Node8 -->
<g id="edge7" class="edge"><title>Node6&#45;&gt;Node8</title>
<path fill="none" stroke="midnightblue" d="M277.986,-56.4435C305.696,-47.3196 349.752,-32.8133 380.616,-22.6509"/>
<polygon fill="midnightblue" stroke="midnightblue" points="381.732,-25.9684 390.135,-19.5164 379.542,-19.3196 381.732,-25.9684"/>
</g>
</g>
</svg>
