<?xml version="1.0" encoding="UTF-8" standalone="no"?>
<!DOCTYPE svg PUBLIC "-//W3C//DTD SVG 1.1//EN"
 "http://www.w3.org/Graphics/SVG/1.1/DTD/svg11.dtd">
<!-- Generated by graphviz version 2.38.0 (20140413.2041)
 -->
<!-- Title: Framework/test/testPostProcessingConfig.cxx Pages: 1 -->
<svg width="586pt" height="173pt"
 viewBox="0.00 0.00 586.00 173.00" xmlns="http://www.w3.org/2000/svg" xmlns:xlink="http://www.w3.org/1999/xlink">
<g id="graph0" class="graph" transform="scale(1 1) rotate(0) translate(4 169)">
<title>Framework/test/testPostProcessingConfig.cxx</title>
<!-- Node1 -->
<g id="node1" class="node"><title>Node1</title>
<polygon fill="#bfbfbf" stroke="black" points="206,-134.5 206,-164.5 379,-164.5 379,-134.5 206,-134.5"/>
<text text-anchor="start" x="214" y="-152.5" font-family="Helvetica,sans-Serif" font-size="10.00">Framework/test/testPostProcessing</text>
<text text-anchor="middle" x="292.5" y="-141.5" font-family="Helvetica,sans-Serif" font-size="10.00">Config.cxx</text>
</g>
<!-- Node2 -->
<g id="node2" class="node"><title>Node2</title>
<polygon fill="none" stroke="#bfbfbf" points="0,-73 0,-92 119,-92 119,-73 0,-73"/>
<text text-anchor="middle" x="59.5" y="-80" font-family="Helvetica,sans-Serif" font-size="10.00">getTestDataDirectory.h</text>
</g>
<!-- Node1&#45;&gt;Node2 -->
<g id="edge1" class="edge"><title>Node1&#45;&gt;Node2</title>
<path fill="none" stroke="midnightblue" d="M242.229,-134.476C199.648,-122.597 139.39,-105.787 99.8901,-94.7676"/>
<polygon fill="midnightblue" stroke="midnightblue" points="100.645,-91.3446 90.072,-92.0287 98.7637,-98.0871 100.645,-91.3446"/>
</g>
<!-- Node3 -->
<g id="node3" class="node"><title>Node3</title>
<g id="a_node3"><a xlink:href="PostProcessingConfig_8h.html" target="_top" xlink:title="QualityControl/PostProcessing\lConfig.h">
<polygon fill="none" stroke="black" points="137,-67.5 137,-97.5 288,-97.5 288,-67.5 137,-67.5"/>
<text text-anchor="start" x="145" y="-85.5" font-family="Helvetica,sans-Serif" font-size="10.00">QualityControl/PostProcessing</text>
<text text-anchor="middle" x="212.5" y="-74.5" font-family="Helvetica,sans-Serif" font-size="10.00">Config.h</text>
</a>
</g>
</g>
<!-- Node1&#45;&gt;Node3 -->
<g id="edge2" class="edge"><title>Node1&#45;&gt;Node3</title>
<path fill="none" stroke="midnightblue" d="M275.141,-134.396C264.239,-125.538 249.99,-113.96 237.837,-104.086"/>
<polygon fill="midnightblue" stroke="midnightblue" points="239.793,-101.166 229.825,-97.5765 235.379,-106.599 239.793,-101.166"/>
</g>
<!-- Node7 -->
<g id="node7" class="node"><title>Node7</title>
<polygon fill="none" stroke="#bfbfbf" points="306,-67.5 306,-97.5 441,-97.5 441,-67.5 306,-67.5"/>
<text text-anchor="start" x="314" y="-85.5" font-family="Helvetica,sans-Serif" font-size="10.00">Configuration/Configuration</text>
<text text-anchor="middle" x="373.5" y="-74.5" font-family="Helvetica,sans-Serif" font-size="10.00">Factory.h</text>
</g>
<!-- Node1&#45;&gt;Node7 -->
<g id="edge6" class="edge"><title>Node1&#45;&gt;Node7</title>
<path fill="none" stroke="midnightblue" d="M310.076,-134.396C321.115,-125.538 335.542,-113.96 347.847,-104.086"/>
<polygon fill="midnightblue" stroke="midnightblue" points="350.35,-106.565 355.959,-97.5765 345.969,-101.105 350.35,-106.565"/>
</g>
<!-- Node8 -->
<g id="node8" class="node"><title>Node8</title>
<polygon fill="none" stroke="#bfbfbf" points="459,-73 459,-92 578,-92 578,-73 459,-73"/>
<text text-anchor="middle" x="518.5" y="-80" font-family="Helvetica,sans-Serif" font-size="10.00">boost/test/unit_test.hpp</text>
</g>
<!-- Node1&#45;&gt;Node8 -->
<g id="edge7" class="edge"><title>Node1&#45;&gt;Node8</title>
<path fill="none" stroke="midnightblue" d="M341.26,-134.476C382.475,-122.622 440.762,-105.858 479.079,-94.8379"/>
<polygon fill="midnightblue" stroke="midnightblue" points="480.204,-98.1564 488.847,-92.0287 478.269,-91.4291 480.204,-98.1564"/>
</g>
<!-- Node4 -->
<g id="node4" class="node"><title>Node4</title>
<polygon fill="none" stroke="#bfbfbf" points="129.5,-6 129.5,-25 173.5,-25 173.5,-6 129.5,-6"/>
<text text-anchor="middle" x="151.5" y="-13" font-family="Helvetica,sans-Serif" font-size="10.00">vector</text>
</g>
<!-- Node3&#45;&gt;Node4 -->
<g id="edge3" class="edge"><title>Node3&#45;&gt;Node4</title>
<path fill="none" stroke="midnightblue" d="M199.264,-67.396C189.659,-57.1607 176.647,-43.2959 166.63,-32.622"/>
<polygon fill="midnightblue" stroke="midnightblue" points="169.055,-30.0913 159.659,-25.1945 163.95,-34.8815 169.055,-30.0913"/>
</g>
<!-- Node5 -->
<g id="node5" class="node"><title>Node5</title>
<polygon fill="none" stroke="#bfbfbf" points="192,-6 192,-25 233,-25 233,-6 192,-6"/>
<text text-anchor="middle" x="212.5" y="-13" font-family="Helvetica,sans-Serif" font-size="10.00">string</text>
</g>
<!-- Node3&#45;&gt;Node5 -->
<g id="edge4" class="edge"><title>Node3&#45;&gt;Node5</title>
<path fill="none" stroke="midnightblue" d="M212.5,-67.396C212.5,-58.0638 212.5,-45.7143 212.5,-35.5173"/>
<polygon fill="midnightblue" stroke="midnightblue" points="216,-35.1945 212.5,-25.1945 209,-35.1946 216,-35.1945"/>
</g>
<!-- Node6 -->
<g id="node6" class="node"><title>Node6</title>
<polygon fill="none" stroke="#bfbfbf" points="251,-0.5 251,-30.5 352,-30.5 352,-0.5 251,-0.5"/>
<text text-anchor="start" x="259" y="-18.5" font-family="Helvetica,sans-Serif" font-size="10.00">boost/property_tree</text>
<text text-anchor="middle" x="301.5" y="-7.5" font-family="Helvetica,sans-Serif" font-size="10.00">/ptree_fwd.hpp</text>
</g>
<!-- Node3&#45;&gt;Node6 -->
<g id="edge5" class="edge"><title>Node3&#45;&gt;Node6</title>
<path fill="none" stroke="midnightblue" d="M231.812,-67.396C244.174,-58.3672 260.404,-46.5141 274.09,-36.5184"/>
<polygon fill="midnightblue" stroke="midnightblue" points="276.215,-39.3009 282.226,-30.5765 272.086,-33.648 276.215,-39.3009"/>
</g>
</g>
</svg>
