<?xml version="1.0" encoding="UTF-8" standalone="no"?>
<!DOCTYPE svg PUBLIC "-//W3C//DTD SVG 1.1//EN"
 "http://www.w3.org/Graphics/SVG/1.1/DTD/svg11.dtd">
<!-- Generated by graphviz version 2.38.0 (20140413.2041)
 -->
<!-- Title: Framework/test/testCheckInterface.cxx Pages: 1 -->
<svg width="499pt" height="207pt"
 viewBox="0.00 0.00 499.20 207.00" xmlns="http://www.w3.org/2000/svg" xmlns:xlink="http://www.w3.org/1999/xlink">
<g id="graph0" class="graph" transform="scale(1 1) rotate(0) translate(4 203)">
<title>Framework/test/testCheckInterface.cxx</title>
<!-- Node1 -->
<g id="node1" class="node"><title>Node1</title>
<polygon fill="#bfbfbf" stroke="black" points="142.703,-168.5 142.703,-198.5 275.703,-198.5 275.703,-168.5 142.703,-168.5"/>
<text text-anchor="start" x="150.703" y="-186.5" font-family="Helvetica,sans-Serif" font-size="10.00">Framework/test/testCheck</text>
<text text-anchor="middle" x="209.203" y="-175.5" font-family="Helvetica,sans-Serif" font-size="10.00">Interface.cxx</text>
</g>
<!-- Node2 -->
<g id="node2" class="node"><title>Node2</title>
<g id="a_node2"><a xlink:href="CheckInterface_8h.html" target="_top" xlink:title="QualityControl/CheckInterface.h">
<polygon fill="none" stroke="black" points="52.7033,-112.5 52.7033,-131.5 209.703,-131.5 209.703,-112.5 52.7033,-112.5"/>
<text text-anchor="middle" x="131.203" y="-119.5" font-family="Helvetica,sans-Serif" font-size="10.00">QualityControl/CheckInterface.h</text>
</a>
</g>
</g>
<!-- Node1&#45;&gt;Node2 -->
<g id="edge1" class="edge"><title>Node1&#45;&gt;Node2</title>
<path fill="none" stroke="midnightblue" d="M190.718,-168.399C178.683,-159.218 163.004,-147.258 150.76,-137.918"/>
<polygon fill="midnightblue" stroke="midnightblue" points="152.627,-134.94 142.553,-131.658 148.381,-140.506 152.627,-134.94"/>
</g>
<!-- Node5 -->
<g id="node5" class="node"><title>Node5</title>
<polygon fill="none" stroke="#bfbfbf" points="110.703,-0.5 110.703,-19.5 151.703,-19.5 151.703,-0.5 110.703,-0.5"/>
<text text-anchor="middle" x="131.203" y="-7.5" font-family="Helvetica,sans-Serif" font-size="10.00">string</text>
</g>
<!-- Node1&#45;&gt;Node5 -->
<g id="edge15" class="edge"><title>Node1&#45;&gt;Node5</title>
<path fill="none" stroke="midnightblue" d="M142.583,-172.413C110.364,-165.113 72.4393,-152.743 43.2033,-132 18.0457,-114.151 11.789,-105.319 2.20334,-76 -11.8421,-33.0401 57.825,-18.3526 100.297,-13.4217"/>
<polygon fill="midnightblue" stroke="midnightblue" points="100.857,-16.8824 110.442,-12.367 100.133,-9.91993 100.857,-16.8824"/>
</g>
<!-- Node11 -->
<g id="node11" class="node"><title>Node11</title>
<polygon fill="none" stroke="#bfbfbf" points="227.703,-112.5 227.703,-131.5 346.703,-131.5 346.703,-112.5 227.703,-112.5"/>
<text text-anchor="middle" x="287.203" y="-119.5" font-family="Helvetica,sans-Serif" font-size="10.00">boost/test/unit_test.hpp</text>
</g>
<!-- Node1&#45;&gt;Node11 -->
<g id="edge13" class="edge"><title>Node1&#45;&gt;Node11</title>
<path fill="none" stroke="midnightblue" d="M227.688,-168.399C239.724,-159.218 255.403,-147.258 267.647,-137.918"/>
<polygon fill="midnightblue" stroke="midnightblue" points="270.026,-140.506 275.854,-131.658 265.78,-134.94 270.026,-140.506"/>
</g>
<!-- Node12 -->
<g id="node12" class="node"><title>Node12</title>
<polygon fill="none" stroke="#bfbfbf" points="364.703,-112.5 364.703,-131.5 435.703,-131.5 435.703,-112.5 364.703,-112.5"/>
<text text-anchor="middle" x="400.203" y="-119.5" font-family="Helvetica,sans-Serif" font-size="10.00">TObjString.h</text>
</g>
<!-- Node1&#45;&gt;Node12 -->
<g id="edge14" class="edge"><title>Node1&#45;&gt;Node12</title>
<path fill="none" stroke="midnightblue" d="M254.468,-168.399C287.615,-158.073 332.051,-144.231 363.108,-134.556"/>
<polygon fill="midnightblue" stroke="midnightblue" points="364.183,-137.887 372.69,-131.571 362.101,-131.204 364.183,-137.887"/>
</g>
<!-- Node3 -->
<g id="node3" class="node"><title>Node3</title>
<polygon fill="none" stroke="#bfbfbf" points="11.7033,-56.5 11.7033,-75.5 94.7033,-75.5 94.7033,-56.5 11.7033,-56.5"/>
<text text-anchor="middle" x="53.2033" y="-63.5" font-family="Helvetica,sans-Serif" font-size="10.00">unordered_map</text>
</g>
<!-- Node2&#45;&gt;Node3 -->
<g id="edge2" class="edge"><title>Node2&#45;&gt;Node3</title>
<path fill="none" stroke="midnightblue" d="M118.671,-112.324C106.617,-103.979 88.1765,-91.2122 73.9346,-81.3524"/>
<polygon fill="midnightblue" stroke="midnightblue" points="75.9185,-78.469 65.7043,-75.6545 71.934,-84.2243 75.9185,-78.469"/>
</g>
<!-- Node4 -->
<g id="node4" class="node"><title>Node4</title>
<g id="a_node4"><a xlink:href="MonitorObject_8h.html" target="_top" xlink:title="QualityControl/MonitorObject.h">
<polygon fill="none" stroke="black" points="251.703,-56.5 251.703,-75.5 402.703,-75.5 402.703,-56.5 251.703,-56.5"/>
<text text-anchor="middle" x="327.203" y="-63.5" font-family="Helvetica,sans-Serif" font-size="10.00">QualityControl/MonitorObject.h</text>
</a>
</g>
</g>
<!-- Node2&#45;&gt;Node4 -->
<g id="edge3" class="edge"><title>Node2&#45;&gt;Node4</title>
<path fill="none" stroke="midnightblue" d="M162.26,-112.444C195.807,-103.201 249.4,-88.4356 286.344,-78.2572"/>
<polygon fill="midnightblue" stroke="midnightblue" points="287.581,-81.5469 296.292,-75.5164 285.721,-74.7984 287.581,-81.5469"/>
</g>
<!-- Node10 -->
<g id="node10" class="node"><title>Node10</title>
<g id="a_node10"><a xlink:href="Quality_8h.html" target="_top" xlink:title="QualityControl/Quality.h">
<polygon fill="none" stroke="black" points="112.703,-56.5 112.703,-75.5 233.703,-75.5 233.703,-56.5 112.703,-56.5"/>
<text text-anchor="middle" x="173.203" y="-63.5" font-family="Helvetica,sans-Serif" font-size="10.00">QualityControl/Quality.h</text>
</a>
</g>
</g>
<!-- Node2&#45;&gt;Node10 -->
<g id="edge9" class="edge"><title>Node2&#45;&gt;Node10</title>
<path fill="none" stroke="midnightblue" d="M138.139,-112.083C144.132,-104.377 152.955,-93.0333 160.251,-83.6531"/>
<polygon fill="midnightblue" stroke="midnightblue" points="163.02,-85.7934 166.397,-75.7511 157.495,-81.4958 163.02,-85.7934"/>
</g>
<!-- Node4&#45;&gt;Node5 -->
<g id="edge4" class="edge"><title>Node4&#45;&gt;Node5</title>
<path fill="none" stroke="midnightblue" d="M294.688,-56.4606C263.133,-48.1129 213.658,-34.8653 161.588,-20.0528"/>
<polygon fill="midnightblue" stroke="midnightblue" points="162.416,-16.6493 151.839,-17.2696 160.494,-23.3804 162.416,-16.6493"/>
</g>
<!-- Node6 -->
<g id="node6" class="node"><title>Node6</title>
<polygon fill="none" stroke="#bfbfbf" points="244.703,-0.5 244.703,-19.5 279.703,-19.5 279.703,-0.5 244.703,-0.5"/>
<text text-anchor="middle" x="262.203" y="-7.5" font-family="Helvetica,sans-Serif" font-size="10.00">map</text>
</g>
<!-- Node4&#45;&gt;Node6 -->
<g id="edge5" class="edge"><title>Node4&#45;&gt;Node6</title>
<path fill="none" stroke="midnightblue" d="M316.76,-56.324C307.057,-48.2631 292.388,-36.0765 280.704,-26.3695"/>
<polygon fill="midnightblue" stroke="midnightblue" points="282.765,-23.532 272.837,-19.8339 278.292,-28.9163 282.765,-23.532"/>
</g>
<!-- Node7 -->
<g id="node7" class="node"><title>Node7</title>
<polygon fill="none" stroke="#bfbfbf" points="170.203,-0.5 170.203,-19.5 226.203,-19.5 226.203,-0.5 170.203,-0.5"/>
<text text-anchor="middle" x="198.203" y="-7.5" font-family="Helvetica,sans-Serif" font-size="10.00">Rtypes.h</text>
</g>
<!-- Node4&#45;&gt;Node7 -->
<g id="edge6" class="edge"><title>Node4&#45;&gt;Node7</title>
<path fill="none" stroke="midnightblue" d="M306.763,-56.4435C285.533,-47.5566 252.104,-33.5632 227.948,-23.4514"/>
<polygon fill="midnightblue" stroke="midnightblue" points="229.124,-20.1493 218.548,-19.5164 226.421,-26.6064 229.124,-20.1493"/>
</g>
<!-- Node8 -->
<g id="node8" class="node"><title>Node8</title>
<polygon fill="none" stroke="#bfbfbf" points="297.703,-0.5 297.703,-19.5 356.703,-19.5 356.703,-0.5 297.703,-0.5"/>
<text text-anchor="middle" x="327.203" y="-7.5" font-family="Helvetica,sans-Serif" font-size="10.00">TObject.h</text>
</g>
<!-- Node4&#45;&gt;Node8 -->
<g id="edge7" class="edge"><title>Node4&#45;&gt;Node8</title>
<path fill="none" stroke="midnightblue" d="M327.203,-56.083C327.203,-49.0059 327.203,-38.8611 327.203,-29.9865"/>
<polygon fill="midnightblue" stroke="midnightblue" points="330.703,-29.751 327.203,-19.7511 323.703,-29.7511 330.703,-29.751"/>
</g>
<!-- Node9 -->
<g id="node9" class="node"><title>Node9</title>
<polygon fill="none" stroke="#bfbfbf" points="375.203,-0.5 375.203,-19.5 491.203,-19.5 491.203,-0.5 375.203,-0.5"/>
<text text-anchor="middle" x="433.203" y="-7.5" font-family="Helvetica,sans-Serif" font-size="10.00">Common/Exceptions.h</text>
</g>
<!-- Node4&#45;&gt;Node9 -->
<g id="edge8" class="edge"><title>Node4&#45;&gt;Node9</title>
<path fill="none" stroke="midnightblue" d="M344.234,-56.324C361.233,-47.6641 387.579,-34.2424 407.196,-24.249"/>
<polygon fill="midnightblue" stroke="midnightblue" points="408.893,-27.3125 416.215,-19.6545 405.716,-21.0752 408.893,-27.3125"/>
</g>
<!-- Node10&#45;&gt;Node5 -->
<g id="edge11" class="edge"><title>Node10&#45;&gt;Node5</title>
<path fill="none" stroke="midnightblue" d="M166.268,-56.083C160.274,-48.3768 151.451,-37.0333 144.156,-27.6531"/>
<polygon fill="midnightblue" stroke="midnightblue" points="146.912,-25.4958 138.01,-19.7511 141.386,-29.7934 146.912,-25.4958"/>
</g>
<!-- Node10&#45;&gt;Node6 -->
<g id="edge12" class="edge"><title>Node10&#45;&gt;Node6</title>
<path fill="none" stroke="midnightblue" d="M187.503,-56.324C201.386,-47.9002 222.696,-34.9709 239.007,-25.0741"/>
<polygon fill="midnightblue" stroke="midnightblue" points="241.206,-27.8341 247.939,-19.6545 237.574,-21.8495 241.206,-27.8341"/>
</g>
<!-- Node10&#45;&gt;Node7 -->
<g id="edge10" class="edge"><title>Node10&#45;&gt;Node7</title>
<path fill="none" stroke="midnightblue" d="M177.332,-56.083C180.717,-48.77 185.619,-38.1814 189.822,-29.1034"/>
<polygon fill="midnightblue" stroke="midnightblue" points="193.127,-30.2962 194.152,-19.7511 186.774,-27.3553 193.127,-30.2962"/>
</g>
</g>
</svg>
