<?xml version="1.0" encoding="UTF-8" standalone="no"?>
<!DOCTYPE svg PUBLIC "-//W3C//DTD SVG 1.1//EN"
 "http://www.w3.org/Graphics/SVG/1.1/DTD/svg11.dtd">
<!-- Generated by graphviz version 2.38.0 (20140413.2041)
 -->
<!-- Title: Modules/Daq/test/testQcDaq.cxx Pages: 1 -->
<svg width="1296pt" height="319pt"
 viewBox="0.00 0.00 1296.13 319.00" xmlns="http://www.w3.org/2000/svg" xmlns:xlink="http://www.w3.org/1999/xlink">
<g id="graph0" class="graph" transform="scale(1 1) rotate(0) translate(4 315)">
<title>Modules/Daq/test/testQcDaq.cxx</title>
<!-- Node1 -->
<g id="node1" class="node"><title>Node1</title>
<polygon fill="#bfbfbf" stroke="black" points="655.366,-291.5 655.366,-310.5 818.366,-310.5 818.366,-291.5 655.366,-291.5"/>
<text text-anchor="middle" x="736.866" y="-298.5" font-family="Helvetica,sans-Serif" font-size="10.00">Modules/Daq/test/testQcDaq.cxx</text>
</g>
<!-- Node2 -->
<g id="node2" class="node"><title>Node2</title>
<g id="a_node2"><a xlink:href="DaqTask_8h.html" target="_top" xlink:title="Daq/DaqTask.h">
<polygon fill="none" stroke="black" points="633.866,-235.5 633.866,-254.5 719.866,-254.5 719.866,-235.5 633.866,-235.5"/>
<text text-anchor="middle" x="676.866" y="-242.5" font-family="Helvetica,sans-Serif" font-size="10.00">Daq/DaqTask.h</text>
</a>
</g>
</g>
<!-- Node1&#45;&gt;Node2 -->
<g id="edge1" class="edge"><title>Node1&#45;&gt;Node2</title>
<path fill="none" stroke="midnightblue" d="M727.226,-291.324C718.357,-283.341 704.992,-271.313 694.258,-261.653"/>
<polygon fill="midnightblue" stroke="midnightblue" points="696.456,-258.922 686.682,-254.834 691.773,-264.125 696.456,-258.922"/>
</g>
<!-- Node26 -->
<g id="node26" class="node"><title>Node26</title>
<polygon fill="none" stroke="#bfbfbf" points="738.366,-235.5 738.366,-254.5 857.366,-254.5 857.366,-235.5 738.366,-235.5"/>
<text text-anchor="middle" x="797.866" y="-242.5" font-family="Helvetica,sans-Serif" font-size="10.00">boost/test/unit_test.hpp</text>
</g>
<!-- Node1&#45;&gt;Node26 -->
<g id="edge32" class="edge"><title>Node1&#45;&gt;Node26</title>
<path fill="none" stroke="midnightblue" d="M746.667,-291.324C755.684,-283.341 769.272,-271.313 780.184,-261.653"/>
<polygon fill="midnightblue" stroke="midnightblue" points="782.72,-264.083 787.887,-254.834 778.08,-258.842 782.72,-264.083"/>
</g>
<!-- Node3 -->
<g id="node3" class="node"><title>Node3</title>
<g id="a_node3"><a xlink:href="TaskInterface_8h.html" target="_top" xlink:title="QualityControl/TaskInterface.h">
<polygon fill="none" stroke="black" points="531.866,-179.5 531.866,-198.5 681.866,-198.5 681.866,-179.5 531.866,-179.5"/>
<text text-anchor="middle" x="606.866" y="-186.5" font-family="Helvetica,sans-Serif" font-size="10.00">QualityControl/TaskInterface.h</text>
</a>
</g>
</g>
<!-- Node2&#45;&gt;Node3 -->
<g id="edge2" class="edge"><title>Node2&#45;&gt;Node3</title>
<path fill="none" stroke="midnightblue" d="M665.62,-235.324C655.069,-227.185 639.066,-214.839 626.424,-205.087"/>
<polygon fill="midnightblue" stroke="midnightblue" points="628.373,-202.171 618.318,-198.834 624.098,-207.713 628.373,-202.171"/>
</g>
<!-- Node4 -->
<g id="node4" class="node"><title>Node4</title>
<polygon fill="none" stroke="#bfbfbf" points="165.366,-0.5 165.366,-19.5 200.366,-19.5 200.366,-0.5 165.366,-0.5"/>
<text text-anchor="middle" x="182.866" y="-7.5" font-family="Helvetica,sans-Serif" font-size="10.00">map</text>
</g>
<!-- Node2&#45;&gt;Node4 -->
<g id="edge30" class="edge"><title>Node2&#45;&gt;Node4</title>
<path fill="none" stroke="midnightblue" d="M633.681,-244.402C499.2,-244.646 92.065,-237.441 10.8663,-143 -38.4293,-85.665 95.5431,-37.0336 155.522,-18.7494"/>
<polygon fill="midnightblue" stroke="midnightblue" points="156.554,-22.094 165.138,-15.885 154.555,-15.3853 156.554,-22.094"/>
</g>
<!-- Node24 -->
<g id="node24" class="node"><title>Node24</title>
<polygon fill="none" stroke="#bfbfbf" points="699.366,-179.5 699.366,-198.5 796.366,-198.5 796.366,-179.5 699.366,-179.5"/>
<text text-anchor="middle" x="747.866" y="-186.5" font-family="Helvetica,sans-Serif" font-size="10.00">Headers/DAQID.h</text>
</g>
<!-- Node2&#45;&gt;Node24 -->
<g id="edge29" class="edge"><title>Node2&#45;&gt;Node24</title>
<path fill="none" stroke="midnightblue" d="M688.274,-235.324C698.975,-227.185 715.207,-214.839 728.029,-205.087"/>
<polygon fill="midnightblue" stroke="midnightblue" points="730.411,-207.673 736.251,-198.834 726.173,-202.102 730.411,-207.673"/>
</g>
<!-- Node25 -->
<g id="node25" class="node"><title>Node25</title>
<polygon fill="none" stroke="#bfbfbf" points="814.866,-179.5 814.866,-198.5 844.866,-198.5 844.866,-179.5 814.866,-179.5"/>
<text text-anchor="middle" x="829.866" y="-186.5" font-family="Helvetica,sans-Serif" font-size="10.00">set</text>
</g>
<!-- Node2&#45;&gt;Node25 -->
<g id="edge31" class="edge"><title>Node2&#45;&gt;Node25</title>
<path fill="none" stroke="midnightblue" d="M701.424,-235.428C727.206,-226.414 768.914,-211.791 804.866,-199 804.967,-198.964 805.068,-198.928 805.168,-198.892"/>
<polygon fill="midnightblue" stroke="midnightblue" points="806.567,-202.109 814.802,-195.444 804.207,-195.519 806.567,-202.109"/>
</g>
<!-- Node3&#45;&gt;Node4 -->
<g id="edge3" class="edge"><title>Node3&#45;&gt;Node4</title>
<path fill="none" stroke="midnightblue" d="M606.958,-179.26C606.591,-165.072 603.628,-137.188 586.866,-123 494.462,-44.7855 431.62,-125.569 316.866,-87 273.289,-72.3538 227.819,-43.1119 202.644,-25.478"/>
<polygon fill="midnightblue" stroke="midnightblue" points="204.504,-22.5058 194.328,-19.555 200.443,-28.2073 204.504,-22.5058"/>
</g>
<!-- Node5 -->
<g id="node5" class="node"><title>Node5</title>
<polygon fill="none" stroke="#bfbfbf" points="852.866,-62 852.866,-81 904.866,-81 904.866,-62 852.866,-62"/>
<text text-anchor="middle" x="878.866" y="-69" font-family="Helvetica,sans-Serif" font-size="10.00">memory</text>
</g>
<!-- Node3&#45;&gt;Node5 -->
<g id="edge4" class="edge"><title>Node3&#45;&gt;Node5</title>
<path fill="none" stroke="midnightblue" d="M658.564,-179.468C708.439,-170.665 779.937,-156.372 804.866,-143 829.67,-129.696 852.147,-105.811 865.658,-89.5659"/>
<polygon fill="midnightblue" stroke="midnightblue" points="868.653,-91.4264 872.199,-81.4425 863.201,-87.0362 868.653,-91.4264"/>
</g>
<!-- Node6 -->
<g id="node6" class="node"><title>Node6</title>
<polygon fill="none" stroke="#bfbfbf" points="742.366,-0.5 742.366,-19.5 783.366,-19.5 783.366,-0.5 742.366,-0.5"/>
<text text-anchor="middle" x="762.866" y="-7.5" font-family="Helvetica,sans-Serif" font-size="10.00">string</text>
</g>
<!-- Node3&#45;&gt;Node6 -->
<g id="edge5" class="edge"><title>Node3&#45;&gt;Node6</title>
<path fill="none" stroke="midnightblue" d="M663.048,-179.492C719.686,-170.439 802.89,-155.699 832.866,-143 873.165,-125.928 893.542,-125.76 913.866,-87 920.265,-74.798 922.101,-67.0463 913.866,-56 886.234,-18.9323 829.27,-11.1952 793.749,-10.2168"/>
<polygon fill="midnightblue" stroke="midnightblue" points="793.507,-6.71409 783.469,-10.1052 793.431,-13.7137 793.507,-6.71409"/>
</g>
<!-- Node7 -->
<g id="node7" class="node"><title>Node7</title>
<polygon fill="none" stroke="#bfbfbf" points="1028.37,-0.5 1028.37,-19.5 1111.37,-19.5 1111.37,-0.5 1028.37,-0.5"/>
<text text-anchor="middle" x="1069.87" y="-7.5" font-family="Helvetica,sans-Serif" font-size="10.00">unordered_map</text>
</g>
<!-- Node3&#45;&gt;Node7 -->
<g id="edge6" class="edge"><title>Node3&#45;&gt;Node7</title>
<path fill="none" stroke="midnightblue" d="M681.959,-179.775C684.627,-179.509 687.269,-179.25 689.866,-179 821.951,-166.286 1202.87,-195.076 1279.87,-87 1320.96,-29.3185 1196.5,-15.2583 1121.82,-11.9364"/>
<polygon fill="midnightblue" stroke="midnightblue" points="1121.76,-8.43161 1111.63,-11.5355 1121.49,-15.4262 1121.76,-8.43161"/>
</g>
<!-- Node8 -->
<g id="node8" class="node"><title>Node8</title>
<polygon fill="none" stroke="#bfbfbf" points="20.3663,-123.5 20.3663,-142.5 145.366,-142.5 145.366,-123.5 20.3663,-123.5"/>
<text text-anchor="middle" x="82.8663" y="-130.5" font-family="Helvetica,sans-Serif" font-size="10.00">Framework/InitContext.h</text>
</g>
<!-- Node3&#45;&gt;Node8 -->
<g id="edge7" class="edge"><title>Node3&#45;&gt;Node8</title>
<path fill="none" stroke="midnightblue" d="M531.627,-181.092C443.973,-172.913 294.517,-158.561 155.662,-143.064"/>
<polygon fill="midnightblue" stroke="midnightblue" points="156.011,-139.581 145.684,-141.947 155.232,-146.538 156.011,-139.581"/>
</g>
<!-- Node9 -->
<g id="node9" class="node"><title>Node9</title>
<polygon fill="none" stroke="#bfbfbf" points="163.866,-123.5 163.866,-142.5 323.866,-142.5 323.866,-123.5 163.866,-123.5"/>
<text text-anchor="middle" x="243.866" y="-130.5" font-family="Helvetica,sans-Serif" font-size="10.00">Framework/ProcessingContext.h</text>
</g>
<!-- Node3&#45;&gt;Node9 -->
<g id="edge8" class="edge"><title>Node3&#45;&gt;Node9</title>
<path fill="none" stroke="midnightblue" d="M549.348,-179.444C484.696,-169.826 379.84,-154.228 311.363,-144.041"/>
<polygon fill="midnightblue" stroke="midnightblue" points="311.522,-140.526 301.116,-142.516 310.492,-147.45 311.522,-140.526"/>
</g>
<!-- Node10 -->
<g id="node10" class="node"><title>Node10</title>
<polygon fill="none" stroke="#bfbfbf" points="342.366,-123.5 342.366,-142.5 437.366,-142.5 437.366,-123.5 342.366,-123.5"/>
<text text-anchor="middle" x="389.866" y="-130.5" font-family="Helvetica,sans-Serif" font-size="10.00">CCDB/CcdbApi.h</text>
</g>
<!-- Node3&#45;&gt;Node10 -->
<g id="edge9" class="edge"><title>Node3&#45;&gt;Node10</title>
<path fill="none" stroke="midnightblue" d="M572.482,-179.444C534.944,-170.102 474.735,-155.119 433.799,-144.933"/>
<polygon fill="midnightblue" stroke="midnightblue" points="434.639,-141.535 424.09,-142.516 432.949,-148.328 434.639,-141.535"/>
</g>
<!-- Node11 -->
<g id="node11" class="node"><title>Node11</title>
<g id="a_node11"><a xlink:href="Activity_8h.html" target="_top" xlink:title="QualityControl/Activity.h">
<polygon fill="none" stroke="black" points="455.366,-123.5 455.366,-142.5 578.366,-142.5 578.366,-123.5 455.366,-123.5"/>
<text text-anchor="middle" x="516.866" y="-130.5" font-family="Helvetica,sans-Serif" font-size="10.00">QualityControl/Activity.h</text>
</a>
</g>
</g>
<!-- Node3&#45;&gt;Node11 -->
<g id="edge10" class="edge"><title>Node3&#45;&gt;Node11</title>
<path fill="none" stroke="midnightblue" d="M592.406,-179.324C578.367,-170.9 556.818,-157.971 540.323,-148.074"/>
<polygon fill="midnightblue" stroke="midnightblue" points="541.666,-144.798 531.29,-142.655 538.065,-150.801 541.666,-144.798"/>
</g>
<!-- Node12 -->
<g id="node12" class="node"><title>Node12</title>
<g id="a_node12"><a xlink:href="ObjectsManager_8h.html" target="_top" xlink:title="QualityControl/ObjectsManager.h">
<polygon fill="none" stroke="black" points="635.366,-123.5 635.366,-142.5 796.366,-142.5 796.366,-123.5 635.366,-123.5"/>
<text text-anchor="middle" x="715.866" y="-130.5" font-family="Helvetica,sans-Serif" font-size="10.00">QualityControl/ObjectsManager.h</text>
</a>
</g>
</g>
<!-- Node3&#45;&gt;Node12 -->
<g id="edge11" class="edge"><title>Node3&#45;&gt;Node12</title>
<path fill="none" stroke="midnightblue" d="M624.379,-179.324C641.939,-170.625 669.198,-157.12 689.398,-147.113"/>
<polygon fill="midnightblue" stroke="midnightblue" points="690.99,-150.23 698.397,-142.655 687.883,-143.958 690.99,-150.23"/>
</g>
<!-- Node21 -->
<g id="node21" class="node"><title>Node21</title>
<g id="a_node21"><a xlink:href="QcInfoLogger_8h.html" target="_top" xlink:title="QualityControl/QcInfoLogger.h">
<polygon fill="none" stroke="black" points="960.366,-123.5 960.366,-142.5 1109.37,-142.5 1109.37,-123.5 960.366,-123.5"/>
<text text-anchor="middle" x="1034.87" y="-130.5" font-family="Helvetica,sans-Serif" font-size="10.00">QualityControl/QcInfoLogger.h</text>
</a>
</g>
</g>
<!-- Node3&#45;&gt;Node21 -->
<g id="edge26" class="edge"><title>Node3&#45;&gt;Node21</title>
<path fill="none" stroke="midnightblue" d="M674.684,-179.444C751.539,-169.747 876.578,-153.971 957.264,-143.791"/>
<polygon fill="midnightblue" stroke="midnightblue" points="957.882,-147.241 967.366,-142.516 957.006,-140.296 957.882,-147.241"/>
</g>
<!-- Node12&#45;&gt;Node5 -->
<g id="edge25" class="edge"><title>Node12&#45;&gt;Node5</title>
<path fill="none" stroke="midnightblue" d="M741.516,-123.443C767.466,-114.679 808.666,-100.468 843.866,-87 845.513,-86.3698 847.199,-85.7126 848.898,-85.0409"/>
<polygon fill="midnightblue" stroke="midnightblue" points="850.626,-88.1177 858.583,-81.1231 848.001,-81.6285 850.626,-88.1177"/>
</g>
<!-- Node12&#45;&gt;Node6 -->
<g id="edge24" class="edge"><title>Node12&#45;&gt;Node6</title>
<path fill="none" stroke="midnightblue" d="M707.418,-123.193C694.522,-108.635 672.734,-78.8844 685.866,-56 695.916,-38.487 715.707,-27.1393 732.708,-20.2201"/>
<polygon fill="midnightblue" stroke="midnightblue" points="734.153,-23.4169 742.301,-16.6448 731.708,-16.8577 734.153,-23.4169"/>
</g>
<!-- Node13 -->
<g id="node13" class="node"><title>Node13</title>
<g id="a_node13"><a xlink:href="MonitorObject_8h.html" target="_top" xlink:title="QualityControl/MonitorObject.h">
<polygon fill="none" stroke="black" points="487.366,-62 487.366,-81 638.366,-81 638.366,-62 487.366,-62"/>
<text text-anchor="middle" x="562.866" y="-69" font-family="Helvetica,sans-Serif" font-size="10.00">QualityControl/MonitorObject.h</text>
</a>
</g>
</g>
<!-- Node12&#45;&gt;Node13 -->
<g id="edge12" class="edge"><title>Node12&#45;&gt;Node13</title>
<path fill="none" stroke="midnightblue" d="M693.945,-123.475C667.814,-113.313 623.954,-96.2564 594.237,-84.6996"/>
<polygon fill="midnightblue" stroke="midnightblue" points="595.335,-81.3716 584.747,-81.0091 592.798,-87.8956 595.335,-81.3716"/>
</g>
<!-- Node17 -->
<g id="node17" class="node"><title>Node17</title>
<g id="a_node17"><a xlink:href="MonitorObjectCollection_8h.html" target="_top" xlink:title="QualityControl/MonitorObject\lCollection.h">
<polygon fill="none" stroke="black" points="326.366,-56.5 326.366,-86.5 469.366,-86.5 469.366,-56.5 326.366,-56.5"/>
<text text-anchor="start" x="334.366" y="-74.5" font-family="Helvetica,sans-Serif" font-size="10.00">QualityControl/MonitorObject</text>
<text text-anchor="middle" x="397.866" y="-63.5" font-family="Helvetica,sans-Serif" font-size="10.00">Collection.h</text>
</a>
</g>
</g>
<!-- Node12&#45;&gt;Node17 -->
<g id="edge18" class="edge"><title>Node12&#45;&gt;Node17</title>
<path fill="none" stroke="midnightblue" d="M670.305,-123.475C620.605,-114.176 540.053,-99.104 479.401,-87.7557"/>
<polygon fill="midnightblue" stroke="midnightblue" points="479.939,-84.2956 469.465,-85.8967 478.651,-91.1762 479.939,-84.2956"/>
</g>
<!-- Node20 -->
<g id="node20" class="node"><title>Node20</title>
<g id="a_node20"><a xlink:href="TaskConfig_8h.html" target="_top" xlink:title="QualityControl/TaskConfig.h">
<polygon fill="none" stroke="black" points="694.866,-62 694.866,-81 834.866,-81 834.866,-62 694.866,-62"/>
<text text-anchor="middle" x="764.866" y="-69" font-family="Helvetica,sans-Serif" font-size="10.00">QualityControl/TaskConfig.h</text>
</a>
</g>
</g>
<!-- Node12&#45;&gt;Node20 -->
<g id="edge21" class="edge"><title>Node12&#45;&gt;Node20</title>
<path fill="none" stroke="midnightblue" d="M722.887,-123.475C730.31,-114.462 742.199,-100.025 751.433,-88.8118"/>
<polygon fill="midnightblue" stroke="midnightblue" points="754.203,-90.9534 757.859,-81.0091 748.8,-86.5034 754.203,-90.9534"/>
</g>
<!-- Node13&#45;&gt;Node4 -->
<g id="edge14" class="edge"><title>Node13&#45;&gt;Node4</title>
<path fill="none" stroke="midnightblue" d="M514.815,-61.9976C502.765,-59.9495 489.854,-57.827 477.866,-56 362.19,-38.3698 328.7,-46.6546 210.261,-19.6613"/>
<polygon fill="midnightblue" stroke="midnightblue" points="210.981,-16.2353 200.449,-17.3895 209.402,-23.0549 210.981,-16.2353"/>
</g>
<!-- Node13&#45;&gt;Node6 -->
<g id="edge13" class="edge"><title>Node13&#45;&gt;Node6</title>
<path fill="none" stroke="midnightblue" d="M591.521,-61.9751C628.841,-50.8725 693.822,-31.5406 732.136,-20.1423"/>
<polygon fill="midnightblue" stroke="midnightblue" points="733.603,-23.3575 742.19,-17.1513 731.607,-16.6481 733.603,-23.3575"/>
</g>
<!-- Node14 -->
<g id="node14" class="node"><title>Node14</title>
<polygon fill="none" stroke="#bfbfbf" points="663.866,-0.5 663.866,-19.5 719.866,-19.5 719.866,-0.5 663.866,-0.5"/>
<text text-anchor="middle" x="691.866" y="-7.5" font-family="Helvetica,sans-Serif" font-size="10.00">Rtypes.h</text>
</g>
<!-- Node13&#45;&gt;Node14 -->
<g id="edge15" class="edge"><title>Node13&#45;&gt;Node14</title>
<path fill="none" stroke="midnightblue" d="M581.349,-61.9751C602.998,-51.9897 639.079,-35.3476 664.099,-23.8075"/>
<polygon fill="midnightblue" stroke="midnightblue" points="665.803,-26.8757 673.418,-19.5091 662.871,-20.5193 665.803,-26.8757"/>
</g>
<!-- Node15 -->
<g id="node15" class="node"><title>Node15</title>
<polygon fill="none" stroke="#bfbfbf" points="452.366,-0.5 452.366,-19.5 511.366,-19.5 511.366,-0.5 452.366,-0.5"/>
<text text-anchor="middle" x="481.866" y="-7.5" font-family="Helvetica,sans-Serif" font-size="10.00">TObject.h</text>
</g>
<!-- Node13&#45;&gt;Node15 -->
<g id="edge16" class="edge"><title>Node13&#45;&gt;Node15</title>
<path fill="none" stroke="midnightblue" d="M551.261,-61.9751C538.389,-52.5199 517.392,-37.0961 501.861,-25.6871"/>
<polygon fill="midnightblue" stroke="midnightblue" points="503.581,-22.6085 493.45,-19.5091 499.437,-28.25 503.581,-22.6085"/>
</g>
<!-- Node16 -->
<g id="node16" class="node"><title>Node16</title>
<polygon fill="none" stroke="#bfbfbf" points="529.866,-0.5 529.866,-19.5 645.866,-19.5 645.866,-0.5 529.866,-0.5"/>
<text text-anchor="middle" x="587.866" y="-7.5" font-family="Helvetica,sans-Serif" font-size="10.00">Common/Exceptions.h</text>
</g>
<!-- Node13&#45;&gt;Node16 -->
<g id="edge17" class="edge"><title>Node13&#45;&gt;Node16</title>
<path fill="none" stroke="midnightblue" d="M566.448,-61.9751C570.05,-53.4035 575.712,-39.9269 580.31,-28.983"/>
<polygon fill="midnightblue" stroke="midnightblue" points="583.644,-30.0842 584.291,-19.5091 577.191,-27.3726 583.644,-30.0842"/>
</g>
<!-- Node18 -->
<g id="node18" class="node"><title>Node18</title>
<polygon fill="none" stroke="#bfbfbf" points="365.366,-0.5 365.366,-19.5 434.366,-19.5 434.366,-0.5 365.366,-0.5"/>
<text text-anchor="middle" x="399.866" y="-7.5" font-family="Helvetica,sans-Serif" font-size="10.00">TObjArray.h</text>
</g>
<!-- Node17&#45;&gt;Node18 -->
<g id="edge19" class="edge"><title>Node17&#45;&gt;Node18</title>
<path fill="none" stroke="midnightblue" d="M398.34,-56.3993C398.607,-48.4664 398.943,-38.458 399.232,-29.8583"/>
<polygon fill="midnightblue" stroke="midnightblue" points="402.737,-29.7697 399.575,-19.6578 395.741,-29.5345 402.737,-29.7697"/>
</g>
<!-- Node19 -->
<g id="node19" class="node"><title>Node19</title>
<polygon fill="none" stroke="#bfbfbf" points="218.866,-0.5 218.866,-19.5 346.866,-19.5 346.866,-0.5 218.866,-0.5"/>
<text text-anchor="middle" x="282.866" y="-7.5" font-family="Helvetica,sans-Serif" font-size="10.00">Mergers/MergeInterface.h</text>
</g>
<!-- Node17&#45;&gt;Node19 -->
<g id="edge20" class="edge"><title>Node17&#45;&gt;Node19</title>
<path fill="none" stroke="midnightblue" d="M370.613,-56.3993C351.835,-46.6837 327.04,-33.8551 308.599,-24.3137"/>
<polygon fill="midnightblue" stroke="midnightblue" points="310.09,-21.1445 299.6,-19.6578 306.873,-27.3617 310.09,-21.1445"/>
</g>
<!-- Node20&#45;&gt;Node6 -->
<g id="edge22" class="edge"><title>Node20&#45;&gt;Node6</title>
<path fill="none" stroke="midnightblue" d="M764.58,-61.9751C764.298,-53.5803 763.857,-40.4806 763.494,-29.6631"/>
<polygon fill="midnightblue" stroke="midnightblue" points="766.986,-29.3858 763.152,-19.5091 759.99,-29.6211 766.986,-29.3858"/>
</g>
<!-- Node20&#45;&gt;Node7 -->
<g id="edge23" class="edge"><title>Node20&#45;&gt;Node7</title>
<path fill="none" stroke="midnightblue" d="M808.565,-61.9751C863.998,-51.1612 959.449,-32.5404 1018.36,-21.0473"/>
<polygon fill="midnightblue" stroke="midnightblue" points="1019.06,-24.4771 1028.21,-19.1271 1017.72,-17.6067 1019.06,-24.4771"/>
</g>
<!-- Node22 -->
<g id="node22" class="node"><title>Node22</title>
<polygon fill="none" stroke="#bfbfbf" points="960.866,-62 960.866,-81 1090.87,-81 1090.87,-62 960.866,-62"/>
<text text-anchor="middle" x="1025.87" y="-69" font-family="Helvetica,sans-Serif" font-size="10.00">InfoLogger/InfoLogger.hxx</text>
</g>
<!-- Node21&#45;&gt;Node22 -->
<g id="edge27" class="edge"><title>Node21&#45;&gt;Node22</title>
<path fill="none" stroke="midnightblue" d="M1033.58,-123.475C1032.31,-115.08 1030.33,-101.981 1028.69,-91.1631"/>
<polygon fill="midnightblue" stroke="midnightblue" points="1032.11,-90.3731 1027.15,-81.0091 1025.19,-91.4201 1032.11,-90.3731"/>
</g>
<!-- Node23 -->
<g id="node23" class="node"><title>Node23</title>
<polygon fill="none" stroke="#bfbfbf" points="1108.87,-62 1108.87,-81 1270.87,-81 1270.87,-62 1108.87,-62"/>
<text text-anchor="middle" x="1189.87" y="-69" font-family="Helvetica,sans-Serif" font-size="10.00">InfoLogger/InfoLoggerMacros.hxx</text>
</g>
<!-- Node21&#45;&gt;Node23 -->
<g id="edge28" class="edge"><title>Node21&#45;&gt;Node23</title>
<path fill="none" stroke="midnightblue" d="M1057.07,-123.475C1083.55,-113.313 1127.98,-96.2564 1158.09,-84.6996"/>
<polygon fill="midnightblue" stroke="midnightblue" points="1159.62,-87.8604 1167.7,-81.0091 1157.11,-81.3254 1159.62,-87.8604"/>
</g>
</g>
</svg>
