<?xml version="1.0" encoding="UTF-8" standalone="no"?>
<!DOCTYPE svg PUBLIC "-//W3C//DTD SVG 1.1//EN"
 "http://www.w3.org/Graphics/SVG/1.1/DTD/svg11.dtd">
<!-- Generated by graphviz version 2.38.0 (20140413.2041)
 -->
<!-- Title: Framework/test/testQualityObject.cxx Pages: 1 -->
<svg width="775pt" height="207pt"
 viewBox="0.00 0.00 774.50 207.00" xmlns="http://www.w3.org/2000/svg" xmlns:xlink="http://www.w3.org/1999/xlink">
<g id="graph0" class="graph" transform="scale(1 1) rotate(0) translate(4 203)">
<title>Framework/test/testQualityObject.cxx</title>
<!-- Node1 -->
<g id="node1" class="node"><title>Node1</title>
<polygon fill="#bfbfbf" stroke="black" points="376,-168.5 376,-198.5 511,-198.5 511,-168.5 376,-168.5"/>
<text text-anchor="start" x="384" y="-186.5" font-family="Helvetica,sans-Serif" font-size="10.00">Framework/test/testQuality</text>
<text text-anchor="middle" x="443.5" y="-175.5" font-family="Helvetica,sans-Serif" font-size="10.00">Object.cxx</text>
</g>
<!-- Node2 -->
<g id="node2" class="node"><title>Node2</title>
<g id="a_node2"><a xlink:href="QualityObject_8h_source.html" target="_top" xlink:title="QualityControl/QualityObject.h">
<polygon fill="none" stroke="black" points="128,-112.5 128,-131.5 277,-131.5 277,-112.5 128,-112.5"/>
<text text-anchor="middle" x="202.5" y="-119.5" font-family="Helvetica,sans-Serif" font-size="10.00">QualityControl/QualityObject.h</text>
</a>
</g>
</g>
<!-- Node1&#45;&gt;Node2 -->
<g id="edge1" class="edge"><title>Node1&#45;&gt;Node2</title>
<path fill="none" stroke="midnightblue" d="M386.692,-168.475C343.934,-157.918 286.162,-143.655 246.795,-133.936"/>
<polygon fill="midnightblue" stroke="midnightblue" points="247.502,-130.505 236.954,-131.506 245.824,-137.301 247.502,-130.505"/>
</g>
<!-- Node9 -->
<g id="node9" class="node"><title>Node9</title>
<g id="a_node9"><a xlink:href="QcInfoLogger_8h.html" target="_top" xlink:title="QualityControl/QcInfoLogger.h">
<polygon fill="none" stroke="black" points="447,-112.5 447,-131.5 596,-131.5 596,-112.5 447,-112.5"/>
<text text-anchor="middle" x="521.5" y="-119.5" font-family="Helvetica,sans-Serif" font-size="10.00">QualityControl/QcInfoLogger.h</text>
</a>
</g>
</g>
<!-- Node1&#45;&gt;Node9 -->
<g id="edge9" class="edge"><title>Node1&#45;&gt;Node9</title>
<path fill="none" stroke="midnightblue" d="M461.985,-168.399C474.02,-159.218 489.7,-147.258 501.943,-137.918"/>
<polygon fill="midnightblue" stroke="midnightblue" points="504.322,-140.506 510.15,-131.658 500.077,-134.94 504.322,-140.506"/>
</g>
<!-- Node12 -->
<g id="node12" class="node"><title>Node12</title>
<g id="a_node12"><a xlink:href="testUtils_8h.html" target="_top" xlink:title="QualityControl/testUtils.h">
<polygon fill="none" stroke="black" points="302,-112.5 302,-131.5 429,-131.5 429,-112.5 302,-112.5"/>
<text text-anchor="middle" x="365.5" y="-119.5" font-family="Helvetica,sans-Serif" font-size="10.00">QualityControl/testUtils.h</text>
</a>
</g>
</g>
<!-- Node1&#45;&gt;Node12 -->
<g id="edge12" class="edge"><title>Node1&#45;&gt;Node12</title>
<path fill="none" stroke="midnightblue" d="M425.015,-168.399C412.98,-159.218 397.3,-147.258 385.057,-137.918"/>
<polygon fill="midnightblue" stroke="midnightblue" points="386.923,-134.94 376.85,-131.658 382.678,-140.506 386.923,-134.94"/>
</g>
<!-- Node14 -->
<g id="node14" class="node"><title>Node14</title>
<polygon fill="none" stroke="#bfbfbf" points="614,-112.5 614,-131.5 733,-131.5 733,-112.5 614,-112.5"/>
<text text-anchor="middle" x="673.5" y="-119.5" font-family="Helvetica,sans-Serif" font-size="10.00">boost/test/unit_test.hpp</text>
</g>
<!-- Node1&#45;&gt;Node14 -->
<g id="edge15" class="edge"><title>Node1&#45;&gt;Node14</title>
<path fill="none" stroke="midnightblue" d="M497.716,-168.475C538.262,-157.986 592.955,-143.837 630.507,-134.122"/>
<polygon fill="midnightblue" stroke="midnightblue" points="631.814,-137.399 640.618,-131.506 630.06,-130.622 631.814,-137.399"/>
</g>
<!-- Node3 -->
<g id="node3" class="node"><title>Node3</title>
<polygon fill="none" stroke="#bfbfbf" points="0,-0.5 0,-19.5 35,-19.5 35,-0.5 0,-0.5"/>
<text text-anchor="middle" x="17.5" y="-7.5" font-family="Helvetica,sans-Serif" font-size="10.00">map</text>
</g>
<!-- Node2&#45;&gt;Node3 -->
<g id="edge2" class="edge"><title>Node2&#45;&gt;Node3</title>
<path fill="none" stroke="midnightblue" d="M137.809,-112.494C93.2352,-105.231 39.4459,-93.2057 24.5,-76 13.6934,-63.5595 12.893,-44.3229 14.2248,-30.0004"/>
<polygon fill="midnightblue" stroke="midnightblue" points="17.7336,-30.1689 15.5997,-19.7913 10.7963,-29.2346 17.7336,-30.1689"/>
</g>
<!-- Node4 -->
<g id="node4" class="node"><title>Node4</title>
<polygon fill="none" stroke="#bfbfbf" points="173,-56.5 173,-75.5 232,-75.5 232,-56.5 173,-56.5"/>
<text text-anchor="middle" x="202.5" y="-63.5" font-family="Helvetica,sans-Serif" font-size="10.00">TObject.h</text>
</g>
<!-- Node2&#45;&gt;Node4 -->
<g id="edge3" class="edge"><title>Node2&#45;&gt;Node4</title>
<path fill="none" stroke="midnightblue" d="M202.5,-112.083C202.5,-105.006 202.5,-94.8611 202.5,-85.9865"/>
<polygon fill="midnightblue" stroke="midnightblue" points="206,-85.751 202.5,-75.7511 199,-85.7511 206,-85.751"/>
</g>
<!-- Node5 -->
<g id="node5" class="node"><title>Node5</title>
<polygon fill="none" stroke="#bfbfbf" points="250.5,-56.5 250.5,-75.5 366.5,-75.5 366.5,-56.5 250.5,-56.5"/>
<text text-anchor="middle" x="308.5" y="-63.5" font-family="Helvetica,sans-Serif" font-size="10.00">Common/Exceptions.h</text>
</g>
<!-- Node2&#45;&gt;Node5 -->
<g id="edge4" class="edge"><title>Node2&#45;&gt;Node5</title>
<path fill="none" stroke="midnightblue" d="M219.531,-112.324C236.53,-103.664 262.876,-90.2424 282.493,-80.249"/>
<polygon fill="midnightblue" stroke="midnightblue" points="284.19,-83.3125 291.512,-75.6545 281.012,-77.0752 284.19,-83.3125"/>
</g>
<!-- Node6 -->
<g id="node6" class="node"><title>Node6</title>
<g id="a_node6"><a xlink:href="Quality_8h.html" target="_top" xlink:title="QualityControl/Quality.h">
<polygon fill="none" stroke="black" points="34,-56.5 34,-75.5 155,-75.5 155,-56.5 34,-56.5"/>
<text text-anchor="middle" x="94.5" y="-63.5" font-family="Helvetica,sans-Serif" font-size="10.00">QualityControl/Quality.h</text>
</a>
</g>
</g>
<!-- Node2&#45;&gt;Node6 -->
<g id="edge5" class="edge"><title>Node2&#45;&gt;Node6</title>
<path fill="none" stroke="midnightblue" d="M185.148,-112.324C167.828,-103.664 140.985,-90.2424 120.998,-80.249"/>
<polygon fill="midnightblue" stroke="midnightblue" points="122.319,-76.9962 111.809,-75.6545 119.188,-83.2572 122.319,-76.9962"/>
</g>
<!-- Node6&#45;&gt;Node3 -->
<g id="edge8" class="edge"><title>Node6&#45;&gt;Node3</title>
<path fill="none" stroke="midnightblue" d="M82.1286,-56.324C70.3415,-48.0577 52.3677,-35.4527 38.3645,-25.6322"/>
<polygon fill="midnightblue" stroke="midnightblue" points="40.0376,-22.5307 29.8407,-19.6545 36.0184,-28.2619 40.0376,-22.5307"/>
</g>
<!-- Node7 -->
<g id="node7" class="node"><title>Node7</title>
<polygon fill="none" stroke="#bfbfbf" points="59.5,-0.5 59.5,-19.5 115.5,-19.5 115.5,-0.5 59.5,-0.5"/>
<text text-anchor="middle" x="87.5" y="-7.5" font-family="Helvetica,sans-Serif" font-size="10.00">Rtypes.h</text>
</g>
<!-- Node6&#45;&gt;Node7 -->
<g id="edge6" class="edge"><title>Node6&#45;&gt;Node7</title>
<path fill="none" stroke="midnightblue" d="M93.3441,-56.083C92.4165,-48.9272 91.0824,-38.6353 89.9229,-29.6911"/>
<polygon fill="midnightblue" stroke="midnightblue" points="93.391,-29.2181 88.6344,-19.7511 86.4491,-30.1181 93.391,-29.2181"/>
</g>
<!-- Node8 -->
<g id="node8" class="node"><title>Node8</title>
<polygon fill="none" stroke="#bfbfbf" points="134,-0.5 134,-19.5 175,-19.5 175,-0.5 134,-0.5"/>
<text text-anchor="middle" x="154.5" y="-7.5" font-family="Helvetica,sans-Serif" font-size="10.00">string</text>
</g>
<!-- Node6&#45;&gt;Node8 -->
<g id="edge7" class="edge"><title>Node6&#45;&gt;Node8</title>
<path fill="none" stroke="midnightblue" d="M104.14,-56.324C113.01,-48.3414 126.375,-36.3128 137.108,-26.6529"/>
<polygon fill="midnightblue" stroke="midnightblue" points="139.593,-29.1251 144.685,-19.8339 134.91,-23.922 139.593,-29.1251"/>
</g>
<!-- Node10 -->
<g id="node10" class="node"><title>Node10</title>
<polygon fill="none" stroke="#bfbfbf" points="456.5,-56.5 456.5,-75.5 586.5,-75.5 586.5,-56.5 456.5,-56.5"/>
<text text-anchor="middle" x="521.5" y="-63.5" font-family="Helvetica,sans-Serif" font-size="10.00">InfoLogger/InfoLogger.hxx</text>
</g>
<!-- Node9&#45;&gt;Node10 -->
<g id="edge10" class="edge"><title>Node9&#45;&gt;Node10</title>
<path fill="none" stroke="midnightblue" d="M521.5,-112.083C521.5,-105.006 521.5,-94.8611 521.5,-85.9865"/>
<polygon fill="midnightblue" stroke="midnightblue" points="525,-85.751 521.5,-75.7511 518,-85.7511 525,-85.751"/>
</g>
<!-- Node11 -->
<g id="node11" class="node"><title>Node11</title>
<polygon fill="none" stroke="#bfbfbf" points="604.5,-56.5 604.5,-75.5 766.5,-75.5 766.5,-56.5 604.5,-56.5"/>
<text text-anchor="middle" x="685.5" y="-63.5" font-family="Helvetica,sans-Serif" font-size="10.00">InfoLogger/InfoLoggerMacros.hxx</text>
</g>
<!-- Node9&#45;&gt;Node11 -->
<g id="edge11" class="edge"><title>Node9&#45;&gt;Node11</title>
<path fill="none" stroke="midnightblue" d="M547.486,-112.444C575.196,-103.32 619.252,-88.8133 650.116,-78.6509"/>
<polygon fill="midnightblue" stroke="midnightblue" points="651.232,-81.9684 659.635,-75.5164 649.042,-75.3196 651.232,-81.9684"/>
</g>
<!-- Node12&#45;&gt;Node5 -->
<g id="edge14" class="edge"><title>Node12&#45;&gt;Node5</title>
<path fill="none" stroke="midnightblue" d="M356.342,-112.324C347.999,-104.42 335.468,-92.5482 325.323,-82.9377"/>
<polygon fill="midnightblue" stroke="midnightblue" points="327.491,-80.1705 317.825,-75.8339 322.677,-85.2522 327.491,-80.1705"/>
</g>
<!-- Node13 -->
<g id="node13" class="node"><title>Node13</title>
<polygon fill="none" stroke="#bfbfbf" points="384.5,-56.5 384.5,-75.5 438.5,-75.5 438.5,-56.5 384.5,-56.5"/>
<text text-anchor="middle" x="411.5" y="-63.5" font-family="Helvetica,sans-Serif" font-size="10.00">iostream</text>
</g>
<!-- Node12&#45;&gt;Node13 -->
<g id="edge13" class="edge"><title>Node12&#45;&gt;Node13</title>
<path fill="none" stroke="midnightblue" d="M373.096,-112.083C379.727,-104.298 389.521,-92.8015 397.558,-83.3665"/>
<polygon fill="midnightblue" stroke="midnightblue" points="400.225,-85.6332 404.045,-75.7511 394.896,-81.0939 400.225,-85.6332"/>
</g>
</g>
</svg>
