<?xml version="1.0" encoding="UTF-8" standalone="no"?>
<!DOCTYPE svg PUBLIC "-//W3C//DTD SVG 1.1//EN"
 "http://www.w3.org/Graphics/SVG/1.1/DTD/svg11.dtd">
<!-- Generated by graphviz version 2.38.0 (20140413.2041)
 -->
<!-- Title: Framework/test/testRepoPathUtils.cxx Pages: 1 -->
<svg width="746pt" height="263pt"
 viewBox="0.00 0.00 746.17 263.00" xmlns="http://www.w3.org/2000/svg" xmlns:xlink="http://www.w3.org/1999/xlink">
<g id="graph0" class="graph" transform="scale(1 1) rotate(0) translate(4 259)">
<title>Framework/test/testRepoPathUtils.cxx</title>
<!-- Node1 -->
<g id="node1" class="node"><title>Node1</title>
<polygon fill="#bfbfbf" stroke="black" points="447.669,-224.5 447.669,-254.5 595.669,-254.5 595.669,-224.5 447.669,-224.5"/>
<text text-anchor="start" x="455.669" y="-242.5" font-family="Helvetica,sans-Serif" font-size="10.00">Framework/test/testRepoPath</text>
<text text-anchor="middle" x="521.669" y="-231.5" font-family="Helvetica,sans-Serif" font-size="10.00">Utils.cxx</text>
</g>
<!-- Node2 -->
<g id="node2" class="node"><title>Node2</title>
<g id="a_node2"><a xlink:href="RepoPathUtils_8h.html" target="_top" xlink:title="QualityControl/RepoPathUtils.h">
<polygon fill="none" stroke="black" points="210.669,-168.5 210.669,-187.5 364.669,-187.5 364.669,-168.5 210.669,-168.5"/>
<text text-anchor="middle" x="287.669" y="-175.5" font-family="Helvetica,sans-Serif" font-size="10.00">QualityControl/RepoPathUtils.h</text>
</a>
</g>
</g>
<!-- Node1&#45;&gt;Node2 -->
<g id="edge1" class="edge"><title>Node1&#45;&gt;Node2</title>
<path fill="none" stroke="midnightblue" d="M466.511,-224.475C425.083,-213.941 369.139,-199.716 330.921,-189.998"/>
<polygon fill="midnightblue" stroke="midnightblue" points="331.677,-186.579 321.123,-187.506 329.952,-193.363 331.677,-186.579"/>
</g>
<!-- Node12 -->
<g id="node12" class="node"><title>Node12</title>
<g id="a_node12"><a xlink:href="testUtils_8h.html" target="_top" xlink:title="QualityControl/testUtils.h">
<polygon fill="none" stroke="black" points="405.169,-168.5 405.169,-187.5 532.169,-187.5 532.169,-168.5 405.169,-168.5"/>
<text text-anchor="middle" x="468.669" y="-175.5" font-family="Helvetica,sans-Serif" font-size="10.00">QualityControl/testUtils.h</text>
</a>
</g>
</g>
<!-- Node1&#45;&gt;Node12 -->
<g id="edge19" class="edge"><title>Node1&#45;&gt;Node12</title>
<path fill="none" stroke="midnightblue" d="M509.109,-224.399C501.328,-215.664 491.305,-204.413 483.185,-195.296"/>
<polygon fill="midnightblue" stroke="midnightblue" points="485.646,-192.797 476.381,-187.658 480.419,-197.453 485.646,-192.797"/>
</g>
<!-- Node14 -->
<g id="node14" class="node"><title>Node14</title>
<polygon fill="none" stroke="#bfbfbf" points="550.669,-168.5 550.669,-187.5 600.669,-187.5 600.669,-168.5 550.669,-168.5"/>
<text text-anchor="middle" x="575.669" y="-175.5" font-family="Helvetica,sans-Serif" font-size="10.00">TH1F.h</text>
</g>
<!-- Node1&#45;&gt;Node14 -->
<g id="edge22" class="edge"><title>Node1&#45;&gt;Node14</title>
<path fill="none" stroke="midnightblue" d="M534.466,-224.399C542.394,-215.664 552.605,-204.413 560.879,-195.296"/>
<polygon fill="midnightblue" stroke="midnightblue" points="563.683,-197.415 567.811,-187.658 558.499,-192.711 563.683,-197.415"/>
</g>
<!-- Node15 -->
<g id="node15" class="node"><title>Node15</title>
<polygon fill="none" stroke="#bfbfbf" points="619.169,-168.5 619.169,-187.5 738.169,-187.5 738.169,-168.5 619.169,-168.5"/>
<text text-anchor="middle" x="678.669" y="-175.5" font-family="Helvetica,sans-Serif" font-size="10.00">boost/test/unit_test.hpp</text>
</g>
<!-- Node1&#45;&gt;Node15 -->
<g id="edge23" class="edge"><title>Node1&#45;&gt;Node15</title>
<path fill="none" stroke="midnightblue" d="M558.876,-224.399C585.453,-214.327 620.858,-200.909 646.274,-191.277"/>
<polygon fill="midnightblue" stroke="midnightblue" points="647.713,-194.475 655.824,-187.658 645.233,-187.929 647.713,-194.475"/>
</g>
<!-- Node3 -->
<g id="node3" class="node"><title>Node3</title>
<polygon fill="none" stroke="#bfbfbf" points="3.16897,-0.5 3.16897,-19.5 44.169,-19.5 44.169,-0.5 3.16897,-0.5"/>
<text text-anchor="middle" x="23.669" y="-7.5" font-family="Helvetica,sans-Serif" font-size="10.00">string</text>
</g>
<!-- Node2&#45;&gt;Node3 -->
<g id="edge2" class="edge"><title>Node2&#45;&gt;Node3</title>
<path fill="none" stroke="midnightblue" d="M210.489,-175.113C138.479,-171.529 38.5145,-161.259 13.669,-132 -10.9137,-103.051 4.06031,-54.9137 15.0871,-28.9381"/>
<polygon fill="midnightblue" stroke="midnightblue" points="18.3903,-30.1268 19.3063,-19.5717 12.0079,-27.2518 18.3903,-30.1268"/>
</g>
<!-- Node4 -->
<g id="node4" class="node"><title>Node4</title>
<polygon fill="none" stroke="#bfbfbf" points="358.669,-112.5 358.669,-131.5 402.669,-131.5 402.669,-112.5 358.669,-112.5"/>
<text text-anchor="middle" x="380.669" y="-119.5" font-family="Helvetica,sans-Serif" font-size="10.00">vector</text>
</g>
<!-- Node2&#45;&gt;Node4 -->
<g id="edge3" class="edge"><title>Node2&#45;&gt;Node4</title>
<path fill="none" stroke="midnightblue" d="M302.611,-168.324C317.254,-159.822 339.803,-146.729 356.907,-136.797"/>
<polygon fill="midnightblue" stroke="midnightblue" points="358.874,-139.703 365.764,-131.655 355.359,-133.649 358.874,-139.703"/>
</g>
<!-- Node5 -->
<g id="node5" class="node"><title>Node5</title>
<polygon fill="none" stroke="#bfbfbf" points="382.669,-56.5 382.669,-75.5 498.669,-75.5 498.669,-56.5 382.669,-56.5"/>
<text text-anchor="middle" x="440.669" y="-63.5" font-family="Helvetica,sans-Serif" font-size="10.00">Common/Exceptions.h</text>
</g>
<!-- Node2&#45;&gt;Node5 -->
<g id="edge4" class="edge"><title>Node2&#45;&gt;Node5</title>
<path fill="none" stroke="midnightblue" d="M337.522,-168.488C362.337,-162.059 391.303,-150.959 411.669,-132 424.93,-119.655 432.514,-100.128 436.574,-85.696"/>
<polygon fill="midnightblue" stroke="midnightblue" points="440.004,-86.406 439.027,-75.8563 433.212,-84.7127 440.004,-86.406"/>
</g>
<!-- Node6 -->
<g id="node6" class="node"><title>Node6</title>
<g id="a_node6"><a xlink:href="MonitorObject_8h.html" target="_top" xlink:title="QualityControl/MonitorObject.h">
<polygon fill="none" stroke="black" points="23.169,-112.5 23.169,-131.5 174.169,-131.5 174.169,-112.5 23.169,-112.5"/>
<text text-anchor="middle" x="98.669" y="-119.5" font-family="Helvetica,sans-Serif" font-size="10.00">QualityControl/MonitorObject.h</text>
</a>
</g>
</g>
<!-- Node2&#45;&gt;Node6 -->
<g id="edge5" class="edge"><title>Node2&#45;&gt;Node6</title>
<path fill="none" stroke="midnightblue" d="M257.721,-168.444C225.511,-159.241 174.135,-144.562 138.527,-134.388"/>
<polygon fill="midnightblue" stroke="midnightblue" points="139.053,-130.898 128.476,-131.516 137.13,-137.629 139.053,-130.898"/>
</g>
<!-- Node10 -->
<g id="node10" class="node"><title>Node10</title>
<g id="a_node10"><a xlink:href="QualityObject_8h_source.html" target="_top" xlink:title="QualityControl/QualityObject.h">
<polygon fill="none" stroke="black" points="192.169,-112.5 192.169,-131.5 341.169,-131.5 341.169,-112.5 192.169,-112.5"/>
<text text-anchor="middle" x="266.669" y="-119.5" font-family="Helvetica,sans-Serif" font-size="10.00">QualityControl/QualityObject.h</text>
</a>
</g>
</g>
<!-- Node2&#45;&gt;Node10 -->
<g id="edge11" class="edge"><title>Node2&#45;&gt;Node10</title>
<path fill="none" stroke="midnightblue" d="M284.201,-168.083C281.357,-160.77 277.24,-150.181 273.709,-141.103"/>
<polygon fill="midnightblue" stroke="midnightblue" points="276.959,-139.803 270.072,-131.751 270.435,-142.34 276.959,-139.803"/>
</g>
<!-- Node6&#45;&gt;Node3 -->
<g id="edge6" class="edge"><title>Node6&#45;&gt;Node3</title>
<path fill="none" stroke="midnightblue" d="M92.7838,-112.368C80.4067,-94.2153 51.4882,-51.8015 35.2532,-27.9902"/>
<polygon fill="midnightblue" stroke="midnightblue" points="38.052,-25.882 29.5268,-19.5914 32.2684,-29.8254 38.052,-25.882"/>
</g>
<!-- Node6&#45;&gt;Node5 -->
<g id="edge10" class="edge"><title>Node6&#45;&gt;Node5</title>
<path fill="none" stroke="midnightblue" d="M152.86,-112.444C213.647,-102.846 312.156,-87.2916 376.679,-77.1037"/>
<polygon fill="midnightblue" stroke="midnightblue" points="377.4,-80.5333 386.732,-75.5164 376.308,-73.619 377.4,-80.5333"/>
</g>
<!-- Node7 -->
<g id="node7" class="node"><title>Node7</title>
<polygon fill="none" stroke="#bfbfbf" points="299.169,-0.5 299.169,-19.5 334.169,-19.5 334.169,-0.5 299.169,-0.5"/>
<text text-anchor="middle" x="316.669" y="-7.5" font-family="Helvetica,sans-Serif" font-size="10.00">map</text>
</g>
<!-- Node6&#45;&gt;Node7 -->
<g id="edge7" class="edge"><title>Node6&#45;&gt;Node7</title>
<path fill="none" stroke="midnightblue" d="M169.288,-112.495C218.366,-105.216 278.158,-93.1716 296.669,-76 309.373,-64.2151 314.084,-44.5789 315.791,-29.9671"/>
<polygon fill="midnightblue" stroke="midnightblue" points="319.314,-29.8164 316.612,-19.572 312.336,-29.2655 319.314,-29.8164"/>
</g>
<!-- Node8 -->
<g id="node8" class="node"><title>Node8</title>
<polygon fill="none" stroke="#bfbfbf" points="131.669,-0.5 131.669,-19.5 187.669,-19.5 187.669,-0.5 131.669,-0.5"/>
<text text-anchor="middle" x="159.669" y="-7.5" font-family="Helvetica,sans-Serif" font-size="10.00">Rtypes.h</text>
</g>
<!-- Node6&#45;&gt;Node8 -->
<g id="edge8" class="edge"><title>Node6&#45;&gt;Node8</title>
<path fill="none" stroke="midnightblue" d="M92.3419,-112.465C83.5755,-99.505 69.9598,-74.4249 80.669,-56 89.6679,-40.5175 106.207,-29.9197 121.835,-22.9179"/>
<polygon fill="midnightblue" stroke="midnightblue" points="123.445,-26.0407 131.372,-19.0115 120.792,-19.563 123.445,-26.0407"/>
</g>
<!-- Node9 -->
<g id="node9" class="node"><title>Node9</title>
<polygon fill="none" stroke="#bfbfbf" points="90.169,-56.5 90.169,-75.5 149.169,-75.5 149.169,-56.5 90.169,-56.5"/>
<text text-anchor="middle" x="119.669" y="-63.5" font-family="Helvetica,sans-Serif" font-size="10.00">TObject.h</text>
</g>
<!-- Node6&#45;&gt;Node9 -->
<g id="edge9" class="edge"><title>Node6&#45;&gt;Node9</title>
<path fill="none" stroke="midnightblue" d="M102.137,-112.083C104.981,-104.77 109.098,-94.1814 112.629,-85.1034"/>
<polygon fill="midnightblue" stroke="midnightblue" points="115.903,-86.3397 116.266,-75.7511 109.379,-83.8025 115.903,-86.3397"/>
</g>
<!-- Node10&#45;&gt;Node5 -->
<g id="edge14" class="edge"><title>Node10&#45;&gt;Node5</title>
<path fill="none" stroke="midnightblue" d="M294.24,-112.444C323.766,-103.28 370.787,-88.6876 403.552,-78.5192"/>
<polygon fill="midnightblue" stroke="midnightblue" points="404.714,-81.8232 413.227,-75.5164 402.639,-75.1378 404.714,-81.8232"/>
</g>
<!-- Node10&#45;&gt;Node7 -->
<g id="edge12" class="edge"><title>Node10&#45;&gt;Node7</title>
<path fill="none" stroke="midnightblue" d="M288.152,-112.36C303.061,-105.09 321.78,-93.117 330.669,-76 338.3,-61.3057 332.985,-42.6718 326.835,-29.1263"/>
<polygon fill="midnightblue" stroke="midnightblue" points="329.809,-27.2511 322.17,-19.9092 323.563,-30.4121 329.809,-27.2511"/>
</g>
<!-- Node10&#45;&gt;Node9 -->
<g id="edge13" class="edge"><title>Node10&#45;&gt;Node9</title>
<path fill="none" stroke="midnightblue" d="M243.376,-112.444C218.862,-103.438 180.073,-89.1891 152.469,-79.049"/>
<polygon fill="midnightblue" stroke="midnightblue" points="153.446,-75.6793 142.853,-75.5164 151.032,-82.25 153.446,-75.6793"/>
</g>
<!-- Node11 -->
<g id="node11" class="node"><title>Node11</title>
<g id="a_node11"><a xlink:href="Quality_8h.html" target="_top" xlink:title="QualityControl/Quality.h">
<polygon fill="none" stroke="black" points="167.169,-56.5 167.169,-75.5 288.169,-75.5 288.169,-56.5 167.169,-56.5"/>
<text text-anchor="middle" x="227.669" y="-63.5" font-family="Helvetica,sans-Serif" font-size="10.00">QualityControl/Quality.h</text>
</a>
</g>
</g>
<!-- Node10&#45;&gt;Node11 -->
<g id="edge15" class="edge"><title>Node10&#45;&gt;Node11</title>
<path fill="none" stroke="midnightblue" d="M260.229,-112.083C254.72,-104.455 246.638,-93.2645 239.904,-83.9408"/>
<polygon fill="midnightblue" stroke="midnightblue" points="242.682,-81.8087 233.989,-75.7511 237.007,-85.9071 242.682,-81.8087"/>
</g>
<!-- Node11&#45;&gt;Node3 -->
<g id="edge17" class="edge"><title>Node11&#45;&gt;Node3</title>
<path fill="none" stroke="midnightblue" d="M195.345,-56.4435C156.629,-46.1953 92.2601,-29.1565 54.3078,-19.1103"/>
<polygon fill="midnightblue" stroke="midnightblue" points="54.9098,-15.6491 44.3471,-16.4736 53.1185,-22.4161 54.9098,-15.6491"/>
</g>
<!-- Node11&#45;&gt;Node7 -->
<g id="edge18" class="edge"><title>Node11&#45;&gt;Node7</title>
<path fill="none" stroke="midnightblue" d="M241.968,-56.324C255.852,-47.9002 277.161,-34.9709 293.473,-25.0741"/>
<polygon fill="midnightblue" stroke="midnightblue" points="295.671,-27.8341 302.405,-19.6545 292.04,-21.8495 295.671,-27.8341"/>
</g>
<!-- Node11&#45;&gt;Node8 -->
<g id="edge16" class="edge"><title>Node11&#45;&gt;Node8</title>
<path fill="none" stroke="midnightblue" d="M216.744,-56.324C206.494,-48.1849 190.948,-35.8395 178.668,-26.0874"/>
<polygon fill="midnightblue" stroke="midnightblue" points="180.801,-23.3119 170.793,-19.8339 176.448,-28.7937 180.801,-23.3119"/>
</g>
<!-- Node12&#45;&gt;Node5 -->
<g id="edge21" class="edge"><title>Node12&#45;&gt;Node5</title>
<path fill="none" stroke="midnightblue" d="M466.472,-168.368C461.953,-150.617 451.53,-109.666 445.403,-85.5974"/>
<polygon fill="midnightblue" stroke="midnightblue" points="448.715,-84.419 442.856,-75.5914 441.931,-86.1458 448.715,-84.419"/>
</g>
<!-- Node13 -->
<g id="node13" class="node"><title>Node13</title>
<polygon fill="none" stroke="#bfbfbf" points="496.669,-112.5 496.669,-131.5 550.669,-131.5 550.669,-112.5 496.669,-112.5"/>
<text text-anchor="middle" x="523.669" y="-119.5" font-family="Helvetica,sans-Serif" font-size="10.00">iostream</text>
</g>
<!-- Node12&#45;&gt;Node13 -->
<g id="edge20" class="edge"><title>Node12&#45;&gt;Node13</title>
<path fill="none" stroke="midnightblue" d="M477.751,-168.083C485.84,-160.141 497.864,-148.335 507.579,-138.797"/>
<polygon fill="midnightblue" stroke="midnightblue" points="510.072,-141.254 514.756,-131.751 505.168,-136.26 510.072,-141.254"/>
</g>
</g>
</svg>
