<?xml version="1.0" encoding="UTF-8" standalone="no"?>
<!DOCTYPE svg PUBLIC "-//W3C//DTD SVG 1.1//EN"
 "http://www.w3.org/Graphics/SVG/1.1/DTD/svg11.dtd">
<!-- Generated by graphviz version 2.38.0 (20140413.2041)
 -->
<!-- Title: Modules/Common/test/testCommonReductors.cxx Pages: 1 -->
<!--zoomable 207 -->
<svg id="main" version="1.1" xmlns="http://www.w3.org/2000/svg" xmlns:xlink="http://www.w3.org/1999/xlink" xml:space="preserve" onload="init(evt)">
<style type="text/css"><![CDATA[
.edge:hover path { stroke: red; }
.edge:hover polygon { stroke: red; fill: red; }
]]></style>
<script type="text/javascript"><![CDATA[
var edges = document.getElementsByTagName('g');
if (edges && edges.length) {
  for (var i=0;i<edges.length;i++) {
    if (edges[i].id.substr(0,4)=='edge') {
      edges[i].setAttribute('class','edge');
    }
  }
}
]]></script>
        <defs>
                <circle id="rim" cx="0" cy="0" r="7"/>
                <circle id="rim2" cx="0" cy="0" r="3.5"/>
                <g id="zoomPlus">
                        <use xlink:href="#rim" fill="#404040">
                                <set attributeName="fill" to="#808080" begin="zoomplus.mouseover" end="zoomplus.mouseout"/>
                        </use>
                        <path d="M-4,0h8M0,-4v8" fill="none" stroke="white" stroke-width="1.5" pointer-events="none"/>
                </g>
                <g id="zoomMin">
                        <use xlink:href="#rim" fill="#404040">
                                <set attributeName="fill" to="#808080" begin="zoomminus.mouseover" end="zoomminus.mouseout"/>
                        </use>
                        <path d="M-4,0h8" fill="none" stroke="white" stroke-width="1.5" pointer-events="none"/>
                </g>
                <g id="dirArrow">
                        <path fill="none" stroke="white" stroke-width="1.5" d="M0,-3.0v7 M-2.5,-0.5L0,-3.0L2.5,-0.5"/>
                </g>
               <g id="resetDef">
                       <use xlink:href="#rim2" fill="#404040">
                               <set attributeName="fill" to="#808080" begin="reset.mouseover" end="reset.mouseout"/>
                       </use>
               </g>
        </defs>

<script type="text/javascript">
var viewWidth = 976;
var viewHeight = 207;
var sectionId = 'dynsection-0';
</script>
<script xlink:href="svgpan.js"/>
<svg id="graph" class="graph">
<g id="viewport">
<title>Modules/Common/test/testCommonReductors.cxx</title>
<!-- Node1 -->
<g id="node1" class="node"><title>Node1</title>
<polygon fill="#bfbfbf" stroke="black" points="551.5,-168.5 551.5,-198.5 691.5,-198.5 691.5,-168.5 551.5,-168.5"/>
<text text-anchor="start" x="559.5" y="-186.5" font-family="Helvetica,sans-Serif" font-size="10.00">Modules/Common/test</text>
<text text-anchor="middle" x="621.5" y="-175.5" font-family="Helvetica,sans-Serif" font-size="10.00">/testCommonReductors.cxx</text>
</g>
<!-- Node2 -->
<g id="node2" class="node"><title>Node2</title>
<g id="a_node2"><a xlink:href="Reductor_8h.html" target="_top" xlink:title="QualityControl/Reductor.h">
<polygon fill="none" stroke="black" points="328.5,-56.5 328.5,-75.5 458.5,-75.5 458.5,-56.5 328.5,-56.5"/>
<text text-anchor="middle" x="393.5" y="-63.5" font-family="Helvetica,sans-Serif" font-size="10.00">QualityControl/Reductor.h</text>
</a>
</g>
</g>
<!-- Node1&#45;&gt;Node2 -->
<g id="edge1" class="edge"><title>Node1&#45;&gt;Node2</title>
<path fill="none" stroke="midnightblue" d="M621.781,-168.435C621.297,-152.446 617.939,-126.668 602.5,-112 583.296,-93.7549 520.535,-81.8661 468.758,-74.9173"/>
<polygon fill="midnightblue" stroke="midnightblue" points="468.933,-71.4107 458.565,-73.593 468.031,-78.3524 468.933,-71.4107"/>
</g>
<!-- Node4 -->
<g id="node4" class="node"><title>Node4</title>
<g id="a_node4"><a xlink:href="QualityObject_8h_source.html" target="_top" xlink:title="QualityControl/QualityObject.h">
<polygon fill="none" stroke="black" points="0,-112.5 0,-131.5 149,-131.5 149,-112.5 0,-112.5"/>
<text text-anchor="middle" x="74.5" y="-119.5" font-family="Helvetica,sans-Serif" font-size="10.00">QualityControl/QualityObject.h</text>
</a>
</g>
</g>
<!-- Node1&#45;&gt;Node4 -->
<g id="edge3" class="edge"><title>Node1&#45;&gt;Node4</title>
<path fill="none" stroke="midnightblue" d="M551.388,-174.874C451.129,-163.968 267.04,-143.944 159.265,-132.22"/>
<polygon fill="midnightblue" stroke="midnightblue" points="159.399,-128.714 149.079,-131.112 158.642,-135.673 159.399,-128.714"/>
</g>
<!-- Node10 -->
<g id="node10" class="node"><title>Node10</title>
<g id="a_node10"><a xlink:href="TH1Reductor_8h.html" target="_top" xlink:title="Common/TH1Reductor.h">
<polygon fill="none" stroke="black" points="323.5,-112.5 323.5,-131.5 449.5,-131.5 449.5,-112.5 323.5,-112.5"/>
<text text-anchor="middle" x="386.5" y="-119.5" font-family="Helvetica,sans-Serif" font-size="10.00">Common/TH1Reductor.h</text>
</a>
</g>
</g>
<!-- Node1&#45;&gt;Node10 -->
<g id="edge11" class="edge"><title>Node1&#45;&gt;Node10</title>
<path fill="none" stroke="midnightblue" d="M566.106,-168.475C524.501,-157.941 468.319,-143.716 429.937,-133.998"/>
<polygon fill="midnightblue" stroke="midnightblue" points="430.65,-130.568 420.097,-131.506 428.932,-137.354 430.65,-130.568"/>
</g>
<!-- Node11 -->
<g id="node11" class="node"><title>Node11</title>
<g id="a_node11"><a xlink:href="TH2Reductor_8h.html" target="_top" xlink:title="Common/TH2Reductor.h">
<polygon fill="none" stroke="black" points="467.5,-112.5 467.5,-131.5 593.5,-131.5 593.5,-112.5 467.5,-112.5"/>
<text text-anchor="middle" x="530.5" y="-119.5" font-family="Helvetica,sans-Serif" font-size="10.00">Common/TH2Reductor.h</text>
</a>
</g>
</g>
<!-- Node1&#45;&gt;Node11 -->
<g id="edge13" class="edge"><title>Node1&#45;&gt;Node11</title>
<path fill="none" stroke="midnightblue" d="M599.934,-168.399C585.62,-159.04 566.888,-146.792 552.489,-137.377"/>
<polygon fill="midnightblue" stroke="midnightblue" points="554.026,-134.201 543.741,-131.658 550.196,-140.06 554.026,-134.201"/>
</g>
<!-- Node12 -->
<g id="node12" class="node"><title>Node12</title>
<g id="a_node12"><a xlink:href="QualityReductor_8h.html" target="_top" xlink:title="Common/QualityReductor.h">
<polygon fill="none" stroke="black" points="167.5,-112.5 167.5,-131.5 305.5,-131.5 305.5,-112.5 167.5,-112.5"/>
<text text-anchor="middle" x="236.5" y="-119.5" font-family="Helvetica,sans-Serif" font-size="10.00">Common/QualityReductor.h</text>
</a>
</g>
</g>
<!-- Node1&#45;&gt;Node12 -->
<g id="edge15" class="edge"><title>Node1&#45;&gt;Node12</title>
<path fill="none" stroke="midnightblue" d="M551.333,-171.656C480.117,-160.65 370.76,-143.749 301.472,-133.041"/>
<polygon fill="midnightblue" stroke="midnightblue" points="301.966,-129.576 291.549,-131.508 300.897,-136.494 301.966,-129.576"/>
</g>
<!-- Node13 -->
<g id="node13" class="node"><title>Node13</title>
<polygon fill="none" stroke="#bfbfbf" points="650,-112.5 650,-131.5 697,-131.5 697,-112.5 650,-112.5"/>
<text text-anchor="middle" x="673.5" y="-119.5" font-family="Helvetica,sans-Serif" font-size="10.00">TH1I.h</text>
</g>
<!-- Node1&#45;&gt;Node13 -->
<g id="edge18" class="edge"><title>Node1&#45;&gt;Node13</title>
<path fill="none" stroke="midnightblue" d="M633.823,-168.399C641.457,-159.664 651.291,-148.413 659.258,-139.296"/>
<polygon fill="midnightblue" stroke="midnightblue" points="661.988,-141.491 665.934,-131.658 656.718,-136.884 661.988,-141.491"/>
</g>
<!-- Node14 -->
<g id="node14" class="node"><title>Node14</title>
<polygon fill="none" stroke="#bfbfbf" points="715,-112.5 715,-131.5 762,-131.5 762,-112.5 715,-112.5"/>
<text text-anchor="middle" x="738.5" y="-119.5" font-family="Helvetica,sans-Serif" font-size="10.00">TH2I.h</text>
</g>
<!-- Node1&#45;&gt;Node14 -->
<g id="edge19" class="edge"><title>Node1&#45;&gt;Node14</title>
<path fill="none" stroke="midnightblue" d="M649.227,-168.399C668.332,-158.684 693.558,-145.855 712.32,-136.314"/>
<polygon fill="midnightblue" stroke="midnightblue" points="714.148,-139.311 721.475,-131.658 710.975,-133.071 714.148,-139.311"/>
</g>
<!-- Node15 -->
<g id="node15" class="node"><title>Node15</title>
<polygon fill="none" stroke="#bfbfbf" points="780.5,-112.5 780.5,-131.5 830.5,-131.5 830.5,-112.5 780.5,-112.5"/>
<text text-anchor="middle" x="805.5" y="-119.5" font-family="Helvetica,sans-Serif" font-size="10.00">TTree.h</text>
</g>
<!-- Node1&#45;&gt;Node15 -->
<g id="edge20" class="edge"><title>Node1&#45;&gt;Node15</title>
<path fill="none" stroke="midnightblue" d="M665.105,-168.399C697.377,-157.964 740.755,-143.936 770.713,-134.249"/>
<polygon fill="midnightblue" stroke="midnightblue" points="771.884,-137.549 780.322,-131.142 769.731,-130.888 771.884,-137.549"/>
</g>
<!-- Node16 -->
<g id="node16" class="node"><title>Node16</title>
<polygon fill="none" stroke="#bfbfbf" points="849,-112.5 849,-131.5 968,-131.5 968,-112.5 849,-112.5"/>
<text text-anchor="middle" x="908.5" y="-119.5" font-family="Helvetica,sans-Serif" font-size="10.00">boost/test/unit_test.hpp</text>
</g>
<!-- Node1&#45;&gt;Node16 -->
<g id="edge21" class="edge"><title>Node1&#45;&gt;Node16</title>
<path fill="none" stroke="midnightblue" d="M689.152,-168.475C740.719,-157.784 810.625,-143.291 857.532,-133.567"/>
<polygon fill="midnightblue" stroke="midnightblue" points="858.388,-136.964 867.469,-131.506 856.967,-130.109 858.388,-136.964"/>
</g>
<!-- Node3 -->
<g id="node3" class="node"><title>Node3</title>
<polygon fill="none" stroke="#bfbfbf" points="317,-0.5 317,-19.5 376,-19.5 376,-0.5 317,-0.5"/>
<text text-anchor="middle" x="346.5" y="-7.5" font-family="Helvetica,sans-Serif" font-size="10.00">TObject.h</text>
</g>
<!-- Node2&#45;&gt;Node3 -->
<g id="edge2" class="edge"><title>Node2&#45;&gt;Node3</title>
<path fill="none" stroke="midnightblue" d="M385.739,-56.083C378.963,-48.2982 368.957,-36.8015 360.745,-27.3665"/>
<polygon fill="midnightblue" stroke="midnightblue" points="363.322,-24.9963 354.117,-19.7511 358.042,-29.592 363.322,-24.9963"/>
</g>
<!-- Node4&#45;&gt;Node3 -->
<g id="edge5" class="edge"><title>Node4&#45;&gt;Node3</title>
<path fill="none" stroke="midnightblue" d="M129.792,-112.484C181.642,-103.863 254.91,-89.861 280.5,-76 302.487,-64.0905 322.113,-42.6701 334.134,-27.6851"/>
<polygon fill="midnightblue" stroke="midnightblue" points="336.941,-29.7767 340.294,-19.7264 331.406,-25.4921 336.941,-29.7767"/>
</g>
<!-- Node5 -->
<g id="node5" class="node"><title>Node5</title>
<polygon fill="none" stroke="#bfbfbf" points="50,-0.5 50,-19.5 85,-19.5 85,-0.5 50,-0.5"/>
<text text-anchor="middle" x="67.5" y="-7.5" font-family="Helvetica,sans-Serif" font-size="10.00">map</text>
</g>
<!-- Node4&#45;&gt;Node5 -->
<g id="edge4" class="edge"><title>Node4&#45;&gt;Node5</title>
<path fill="none" stroke="midnightblue" d="M51.7116,-112.471C36.1739,-105.316 16.7925,-93.4352 7.5,-76 -3.57417,-55.222 20.135,-36.0184 40.9374,-23.9556"/>
<polygon fill="midnightblue" stroke="midnightblue" points="42.7575,-26.9497 49.8595,-19.0876 39.4047,-20.8048 42.7575,-26.9497"/>
</g>
<!-- Node6 -->
<g id="node6" class="node"><title>Node6</title>
<polygon fill="none" stroke="#bfbfbf" points="16.5,-56.5 16.5,-75.5 132.5,-75.5 132.5,-56.5 16.5,-56.5"/>
<text text-anchor="middle" x="74.5" y="-63.5" font-family="Helvetica,sans-Serif" font-size="10.00">Common/Exceptions.h</text>
</g>
<!-- Node4&#45;&gt;Node6 -->
<g id="edge6" class="edge"><title>Node4&#45;&gt;Node6</title>
<path fill="none" stroke="midnightblue" d="M74.5,-112.083C74.5,-105.006 74.5,-94.8611 74.5,-85.9865"/>
<polygon fill="midnightblue" stroke="midnightblue" points="78.0001,-85.751 74.5,-75.7511 71.0001,-85.7511 78.0001,-85.751"/>
</g>
<!-- Node7 -->
<g id="node7" class="node"><title>Node7</title>
<g id="a_node7"><a xlink:href="Quality_8h.html" target="_top" xlink:title="QualityControl/Quality.h">
<polygon fill="none" stroke="black" points="151,-56.5 151,-75.5 272,-75.5 272,-56.5 151,-56.5"/>
<text text-anchor="middle" x="211.5" y="-63.5" font-family="Helvetica,sans-Serif" font-size="10.00">QualityControl/Quality.h</text>
</a>
</g>
</g>
<!-- Node4&#45;&gt;Node7 -->
<g id="edge7" class="edge"><title>Node4&#45;&gt;Node7</title>
<path fill="none" stroke="midnightblue" d="M96.2081,-112.444C118.855,-103.517 154.572,-89.4387 180.252,-79.3168"/>
<polygon fill="midnightblue" stroke="midnightblue" points="181.874,-82.4397 189.894,-75.5164 179.307,-75.9273 181.874,-82.4397"/>
</g>
<!-- Node7&#45;&gt;Node5 -->
<g id="edge10" class="edge"><title>Node7&#45;&gt;Node5</title>
<path fill="none" stroke="midnightblue" d="M188.683,-56.4435C163.227,-46.8974 122.058,-31.4593 94.8844,-21.2692"/>
<polygon fill="midnightblue" stroke="midnightblue" points="95.8092,-17.878 85.217,-17.6439 93.3513,-24.4323 95.8092,-17.878"/>
</g>
<!-- Node8 -->
<g id="node8" class="node"><title>Node8</title>
<polygon fill="none" stroke="#bfbfbf" points="149.5,-0.5 149.5,-19.5 205.5,-19.5 205.5,-0.5 149.5,-0.5"/>
<text text-anchor="middle" x="177.5" y="-7.5" font-family="Helvetica,sans-Serif" font-size="10.00">Rtypes.h</text>
</g>
<!-- Node7&#45;&gt;Node8 -->
<g id="edge8" class="edge"><title>Node7&#45;&gt;Node8</title>
<path fill="none" stroke="midnightblue" d="M205.886,-56.083C201.133,-48.5341 194.182,-37.4948 188.348,-28.2298"/>
<polygon fill="midnightblue" stroke="midnightblue" points="191.3,-26.3486 183.01,-19.7511 185.376,-30.0783 191.3,-26.3486"/>
</g>
<!-- Node9 -->
<g id="node9" class="node"><title>Node9</title>
<polygon fill="none" stroke="#bfbfbf" points="224,-0.5 224,-19.5 265,-19.5 265,-0.5 224,-0.5"/>
<text text-anchor="middle" x="244.5" y="-7.5" font-family="Helvetica,sans-Serif" font-size="10.00">string</text>
</g>
<!-- Node7&#45;&gt;Node9 -->
<g id="edge9" class="edge"><title>Node7&#45;&gt;Node9</title>
<path fill="none" stroke="midnightblue" d="M216.949,-56.083C221.514,-48.6127 228.168,-37.7244 233.793,-28.5199"/>
<polygon fill="midnightblue" stroke="midnightblue" points="236.924,-30.109 239.152,-19.7511 230.951,-26.4588 236.924,-30.109"/>
</g>
<!-- Node10&#45;&gt;Node2 -->
<g id="edge12" class="edge"><title>Node10&#45;&gt;Node2</title>
<path fill="none" stroke="midnightblue" d="M387.656,-112.083C388.584,-104.927 389.918,-94.6353 391.077,-85.6911"/>
<polygon fill="midnightblue" stroke="midnightblue" points="394.551,-86.1181 392.366,-75.7511 387.609,-85.2181 394.551,-86.1181"/>
</g>
<!-- Node11&#45;&gt;Node2 -->
<g id="edge14" class="edge"><title>Node11&#45;&gt;Node2</title>
<path fill="none" stroke="midnightblue" d="M508.792,-112.444C486.145,-103.517 450.428,-89.4387 424.748,-79.3168"/>
<polygon fill="midnightblue" stroke="midnightblue" points="425.693,-75.9273 415.106,-75.5164 423.126,-82.4397 425.693,-75.9273"/>
</g>
<!-- Node12&#45;&gt;Node2 -->
<g id="edge16" class="edge"><title>Node12&#45;&gt;Node2</title>
<path fill="none" stroke="midnightblue" d="M261.377,-112.444C287.789,-103.359 329.715,-88.9388 359.242,-78.7831"/>
<polygon fill="midnightblue" stroke="midnightblue" points="360.421,-82.0787 368.739,-75.5164 358.145,-75.4593 360.421,-82.0787"/>
</g>
<!-- Node12&#45;&gt;Node7 -->
<g id="edge17" class="edge"><title>Node12&#45;&gt;Node7</title>
<path fill="none" stroke="midnightblue" d="M232.372,-112.083C228.986,-104.77 224.084,-94.1814 219.881,-85.1034"/>
<polygon fill="midnightblue" stroke="midnightblue" points="222.929,-83.3553 215.551,-75.7511 216.577,-86.2962 222.929,-83.3553"/>
</g>
</g>
</svg>
        <g id="navigator" transform="translate(0 0)" fill="#404254">
                <rect fill="#f2f5e9" fill-opacity="0.5" stroke="#606060" stroke-width=".5" x="0" y="0" width="60" height="60"/>
                <use id="zoomplus" xlink:href="#zoomPlus" x="17" y="9" onmousedown="handleZoom(evt,'in')"/>
                <use id="zoomminus" xlink:href="#zoomMin" x="42" y="9" onmousedown="handleZoom(evt,'out')"/>
                <use id="reset" xlink:href="#resetDef" x="30" y="36" onmousedown="handleReset()"/>
                <g id="arrowUp" xlink:href="#dirArrow" transform="translate(30 24)" onmousedown="handlePan(0,-1)">
                  <use xlink:href="#rim" fill="#404040">
                        <set attributeName="fill" to="#808080" begin="arrowUp.mouseover" end="arrowUp.mouseout"/>
                  </use>
                  <path fill="none" stroke="white" stroke-width="1.5" d="M0,-3.0v7 M-2.5,-0.5L0,-3.0L2.5,-0.5"/>
                </g>
                <g id="arrowRight" xlink:href="#dirArrow" transform="rotate(90) translate(36 -43)" onmousedown="handlePan(1,0)">
                  <use xlink:href="#rim" fill="#404040">
                        <set attributeName="fill" to="#808080" begin="arrowRight.mouseover" end="arrowRight.mouseout"/>
                  </use>
                  <path fill="none" stroke="white" stroke-width="1.5" d="M0,-3.0v7 M-2.5,-0.5L0,-3.0L2.5,-0.5"/>
                </g>
                <g id="arrowDown" xlink:href="#dirArrow" transform="rotate(180) translate(-30 -48)" onmousedown="handlePan(0,1)">
                  <use xlink:href="#rim" fill="#404040">
                        <set attributeName="fill" to="#808080" begin="arrowDown.mouseover" end="arrowDown.mouseout"/>
                  </use>
                  <path fill="none" stroke="white" stroke-width="1.5" d="M0,-3.0v7 M-2.5,-0.5L0,-3.0L2.5,-0.5"/>
                </g>
                <g id="arrowLeft" xlink:href="#dirArrow" transform="rotate(270) translate(-36 17)" onmousedown="handlePan(-1,0)">
                  <use xlink:href="#rim" fill="#404040">
                        <set attributeName="fill" to="#808080" begin="arrowLeft.mouseover" end="arrowLeft.mouseout"/>
                  </use>
                  <path fill="none" stroke="white" stroke-width="1.5" d="M0,-3.0v7 M-2.5,-0.5L0,-3.0L2.5,-0.5"/>
                </g>
        </g>
        <svg viewBox="0 0 15 15" width="100%" height="30px" preserveAspectRatio="xMaxYMin meet">
         <g id="arrow_out" transform="scale(0.3 0.3)">
          <a xlink:href="testCommonReductors_8cxx__incl_org.svg" target="_base">
           <rect id="button" ry="5" rx="5" y="6" x="6" height="38" width="38"
                fill="#f2f5e9" fill-opacity="0.5" stroke="#606060" stroke-width="1.0"/>
           <path id="arrow"
             d="M 11.500037,31.436501 C 11.940474,20.09759 22.043105,11.32322 32.158766,21.979434 L 37.068811,17.246167 C 37.068811,17.246167 37.088388,32 37.088388,32 L 22.160133,31.978069 C 22.160133,31.978069 26.997745,27.140456 26.997745,27.140456 C 18.528582,18.264221 13.291696,25.230495 11.500037,31.436501 z"
             style="fill:#404040;"/>
          </a>
         </g>
        </svg>
</svg>
