<?xml version="1.0" encoding="UTF-8" standalone="no"?>
<!DOCTYPE svg PUBLIC "-//W3C//DTD SVG 1.1//EN"
 "http://www.w3.org/Graphics/SVG/1.1/DTD/svg11.dtd">
<!-- Generated by graphviz version 2.38.0 (20140413.2041)
 -->
<!-- Title: Framework/test/testPostProcessingInterface.cxx Pages: 1 -->
<svg width="1411pt" height="296pt"
 viewBox="0.00 0.00 1410.50 296.00" xmlns="http://www.w3.org/2000/svg" xmlns:xlink="http://www.w3.org/1999/xlink">
<g id="graph0" class="graph" transform="scale(1 1) rotate(0) translate(4 292)">
<title>Framework/test/testPostProcessingInterface.cxx</title>
<!-- Node1 -->
<g id="node1" class="node"><title>Node1</title>
<polygon fill="#bfbfbf" stroke="black" points="950.5,-257.5 950.5,-287.5 1123.5,-287.5 1123.5,-257.5 950.5,-257.5"/>
<text text-anchor="start" x="958.5" y="-275.5" font-family="Helvetica,sans-Serif" font-size="10.00">Framework/test/testPostProcessing</text>
<text text-anchor="middle" x="1037" y="-264.5" font-family="Helvetica,sans-Serif" font-size="10.00">Interface.cxx</text>
</g>
<!-- Node2 -->
<g id="node2" class="node"><title>Node2</title>
<polygon fill="none" stroke="#bfbfbf" points="655.5,-196 655.5,-215 774.5,-215 774.5,-196 655.5,-196"/>
<text text-anchor="middle" x="715" y="-203" font-family="Helvetica,sans-Serif" font-size="10.00">getTestDataDirectory.h</text>
</g>
<!-- Node1&#45;&gt;Node2 -->
<g id="edge1" class="edge"><title>Node1&#45;&gt;Node2</title>
<path fill="none" stroke="midnightblue" d="M964.961,-257.453C914.083,-247.464 844.319,-233.633 783,-221 777.092,-219.783 770.9,-218.489 764.76,-217.193"/>
<polygon fill="midnightblue" stroke="midnightblue" points="765.042,-213.676 754.534,-215.027 763.591,-220.524 765.042,-213.676"/>
</g>
<!-- Node3 -->
<g id="node3" class="node"><title>Node3</title>
<g id="a_node3"><a xlink:href="PostProcessingInterface_8h.html" target="_top" xlink:title="QualityControl/PostProcessing\lInterface.h">
<polygon fill="none" stroke="black" points="792.5,-190.5 792.5,-220.5 943.5,-220.5 943.5,-190.5 792.5,-190.5"/>
<text text-anchor="start" x="800.5" y="-208.5" font-family="Helvetica,sans-Serif" font-size="10.00">QualityControl/PostProcessing</text>
<text text-anchor="middle" x="868" y="-197.5" font-family="Helvetica,sans-Serif" font-size="10.00">Interface.h</text>
</a>
</g>
</g>
<!-- Node1&#45;&gt;Node3 -->
<g id="edge2" class="edge"><title>Node1&#45;&gt;Node3</title>
<path fill="none" stroke="midnightblue" d="M1000.33,-257.396C975.083,-247.686 941.343,-234.709 914.251,-224.289"/>
<polygon fill="midnightblue" stroke="midnightblue" points="915.189,-220.9 904.599,-220.577 912.676,-227.433 915.189,-220.9"/>
</g>
<!-- Node22 -->
<g id="node22" class="node"><title>Node22</title>
<g id="a_node22"><a xlink:href="PostProcessingFactory_8h.html" target="_top" xlink:title="QualityControl/PostProcessing\lFactory.h">
<polygon fill="none" stroke="black" points="961.5,-190.5 961.5,-220.5 1112.5,-220.5 1112.5,-190.5 961.5,-190.5"/>
<text text-anchor="start" x="969.5" y="-208.5" font-family="Helvetica,sans-Serif" font-size="10.00">QualityControl/PostProcessing</text>
<text text-anchor="middle" x="1037" y="-197.5" font-family="Helvetica,sans-Serif" font-size="10.00">Factory.h</text>
</a>
</g>
</g>
<!-- Node1&#45;&gt;Node22 -->
<g id="edge25" class="edge"><title>Node1&#45;&gt;Node22</title>
<path fill="none" stroke="midnightblue" d="M1037,-257.396C1037,-249.645 1037,-239.812 1037,-230.86"/>
<polygon fill="midnightblue" stroke="midnightblue" points="1040.5,-230.576 1037,-220.577 1033.5,-230.577 1040.5,-230.576"/>
</g>
<!-- Node25 -->
<g id="node25" class="node"><title>Node25</title>
<polygon fill="none" stroke="#bfbfbf" points="1130.5,-190.5 1130.5,-220.5 1265.5,-220.5 1265.5,-190.5 1130.5,-190.5"/>
<text text-anchor="start" x="1138.5" y="-208.5" font-family="Helvetica,sans-Serif" font-size="10.00">Configuration/Configuration</text>
<text text-anchor="middle" x="1198" y="-197.5" font-family="Helvetica,sans-Serif" font-size="10.00">Factory.h</text>
</g>
<!-- Node1&#45;&gt;Node25 -->
<g id="edge30" class="edge"><title>Node1&#45;&gt;Node25</title>
<path fill="none" stroke="midnightblue" d="M1071.93,-257.396C1095.88,-247.728 1127.85,-234.823 1153.6,-224.426"/>
<polygon fill="midnightblue" stroke="midnightblue" points="1155.17,-227.566 1163.13,-220.577 1152.55,-221.075 1155.17,-227.566"/>
</g>
<!-- Node26 -->
<g id="node26" class="node"><title>Node26</title>
<polygon fill="none" stroke="#bfbfbf" points="1283.5,-196 1283.5,-215 1402.5,-215 1402.5,-196 1283.5,-196"/>
<text text-anchor="middle" x="1343" y="-203" font-family="Helvetica,sans-Serif" font-size="10.00">boost/test/unit_test.hpp</text>
</g>
<!-- Node1&#45;&gt;Node26 -->
<g id="edge31" class="edge"><title>Node1&#45;&gt;Node26</title>
<path fill="none" stroke="midnightblue" d="M1103.18,-257.477C1150.93,-247.353 1216.95,-233.347 1275,-221 1280.82,-219.761 1286.93,-218.461 1292.99,-217.17"/>
<polygon fill="midnightblue" stroke="midnightblue" points="1294.04,-220.525 1303.09,-215.017 1292.58,-213.679 1294.04,-220.525"/>
</g>
<!-- Node4 -->
<g id="node4" class="node"><title>Node4</title>
<polygon fill="none" stroke="#bfbfbf" points="676.5,-0.5 676.5,-19.5 717.5,-19.5 717.5,-0.5 676.5,-0.5"/>
<text text-anchor="middle" x="697" y="-7.5" font-family="Helvetica,sans-Serif" font-size="10.00">string</text>
</g>
<!-- Node3&#45;&gt;Node4 -->
<g id="edge3" class="edge"><title>Node3&#45;&gt;Node4</title>
<path fill="none" stroke="midnightblue" d="M806.351,-190.469C770.738,-181.097 730.722,-167.964 719,-154 689.202,-118.503 690.929,-59.8916 694.217,-29.9234"/>
<polygon fill="midnightblue" stroke="midnightblue" points="697.738,-29.9887 695.539,-19.6244 690.795,-29.0974 697.738,-29.9887"/>
</g>
<!-- Node5 -->
<g id="node5" class="node"><title>Node5</title>
<polygon fill="none" stroke="#bfbfbf" points="872,-129 872,-148 1018,-148 1018,-129 872,-129"/>
<text text-anchor="middle" x="945" y="-136" font-family="Helvetica,sans-Serif" font-size="10.00">Framework/ServiceRegistry.h</text>
</g>
<!-- Node3&#45;&gt;Node5 -->
<g id="edge4" class="edge"><title>Node3&#45;&gt;Node5</title>
<path fill="none" stroke="midnightblue" d="M884.708,-190.396C897.189,-179.86 914.227,-165.477 927.007,-154.689"/>
<polygon fill="midnightblue" stroke="midnightblue" points="929.317,-157.32 934.7,-148.195 924.801,-151.971 929.317,-157.32"/>
</g>
<!-- Node6 -->
<g id="node6" class="node"><title>Node6</title>
<polygon fill="none" stroke="#bfbfbf" points="995.5,-56.5 995.5,-86.5 1096.5,-86.5 1096.5,-56.5 995.5,-56.5"/>
<text text-anchor="start" x="1003.5" y="-74.5" font-family="Helvetica,sans-Serif" font-size="10.00">boost/property_tree</text>
<text text-anchor="middle" x="1046" y="-63.5" font-family="Helvetica,sans-Serif" font-size="10.00">/ptree_fwd.hpp</text>
</g>
<!-- Node3&#45;&gt;Node6 -->
<g id="edge5" class="edge"><title>Node3&#45;&gt;Node6</title>
<path fill="none" stroke="midnightblue" d="M934.215,-190.418C971.839,-181.123 1013.97,-168.09 1027,-154 1041.28,-138.555 1045.48,-114.514 1046.44,-96.539"/>
<polygon fill="midnightblue" stroke="midnightblue" points="1049.94,-96.5961 1046.68,-86.5151 1042.94,-96.4284 1049.94,-96.5961"/>
</g>
<!-- Node7 -->
<g id="node7" class="node"><title>Node7</title>
<g id="a_node7"><a xlink:href="Triggers_8h.html" target="_top" xlink:title="QualityControl/Triggers.h">
<polygon fill="none" stroke="black" points="728.5,-129 728.5,-148 853.5,-148 853.5,-129 728.5,-129"/>
<text text-anchor="middle" x="791" y="-136" font-family="Helvetica,sans-Serif" font-size="10.00">QualityControl/Triggers.h</text>
</a>
</g>
</g>
<!-- Node3&#45;&gt;Node7 -->
<g id="edge6" class="edge"><title>Node3&#45;&gt;Node7</title>
<path fill="none" stroke="midnightblue" d="M851.292,-190.396C838.811,-179.86 821.773,-165.477 808.993,-154.689"/>
<polygon fill="midnightblue" stroke="midnightblue" points="811.199,-151.971 801.3,-148.195 806.683,-157.32 811.199,-151.971"/>
</g>
<!-- Node10 -->
<g id="node10" class="node"><title>Node10</title>
<g id="a_node10"><a xlink:href="ObjectsManager_8h.html" target="_top" xlink:title="QualityControl/ObjectsManager.h">
<polygon fill="none" stroke="black" points="403.5,-129 403.5,-148 564.5,-148 564.5,-129 403.5,-129"/>
<text text-anchor="middle" x="484" y="-136" font-family="Helvetica,sans-Serif" font-size="10.00">QualityControl/ObjectsManager.h</text>
</a>
</g>
</g>
<!-- Node3&#45;&gt;Node10 -->
<g id="edge10" class="edge"><title>Node3&#45;&gt;Node10</title>
<path fill="none" stroke="midnightblue" d="M792.457,-191.607C789.262,-191.063 786.099,-190.526 783,-190 700.45,-175.988 605.062,-159.894 544.651,-149.714"/>
<polygon fill="midnightblue" stroke="midnightblue" points="544.97,-146.218 534.527,-148.008 543.807,-153.121 544.97,-146.218"/>
</g>
<!-- Node7&#45;&gt;Node4 -->
<g id="edge7" class="edge"><title>Node7&#45;&gt;Node4</title>
<path fill="none" stroke="midnightblue" d="M807.702,-128.908C833.957,-114.276 879.852,-83.4342 859,-56 843.164,-35.1657 770.039,-21.4407 727.645,-15.0869"/>
<polygon fill="midnightblue" stroke="midnightblue" points="727.98,-11.5991 717.582,-13.6305 726.978,-18.5269 727.98,-11.5991"/>
</g>
<!-- Node8 -->
<g id="node8" class="node"><title>Node8</title>
<polygon fill="none" stroke="#bfbfbf" points="791.5,-62 791.5,-81 850.5,-81 850.5,-62 791.5,-62"/>
<text text-anchor="middle" x="821" y="-69" font-family="Helvetica,sans-Serif" font-size="10.00">functional</text>
</g>
<!-- Node7&#45;&gt;Node8 -->
<g id="edge8" class="edge"><title>Node7&#45;&gt;Node8</title>
<path fill="none" stroke="midnightblue" d="M795.046,-128.734C799.544,-118.988 806.932,-102.981 812.678,-90.5318"/>
<polygon fill="midnightblue" stroke="midnightblue" points="816.005,-91.6736 817.018,-81.1273 809.65,-88.7402 816.005,-91.6736"/>
</g>
<!-- Node9 -->
<g id="node9" class="node"><title>Node9</title>
<polygon fill="none" stroke="#bfbfbf" points="728.5,-62 728.5,-81 773.5,-81 773.5,-62 728.5,-62"/>
<text text-anchor="middle" x="751" y="-69" font-family="Helvetica,sans-Serif" font-size="10.00">iosfwd</text>
</g>
<!-- Node7&#45;&gt;Node9 -->
<g id="edge9" class="edge"><title>Node7&#45;&gt;Node9</title>
<path fill="none" stroke="midnightblue" d="M785.605,-128.734C779.488,-118.793 769.362,-102.338 761.64,-89.7892"/>
<polygon fill="midnightblue" stroke="midnightblue" points="764.531,-87.8095 756.309,-81.1273 758.569,-91.4783 764.531,-87.8095"/>
</g>
<!-- Node10&#45;&gt;Node4 -->
<g id="edge23" class="edge"><title>Node10&#45;&gt;Node4</title>
<path fill="none" stroke="midnightblue" d="M539.531,-128.969C572.056,-121.867 612.583,-109.191 643,-87 663.878,-71.7687 679.718,-45.9736 688.684,-28.7165"/>
<polygon fill="midnightblue" stroke="midnightblue" points="691.854,-30.2015 693.154,-19.6867 685.581,-27.0957 691.854,-30.2015"/>
</g>
<!-- Node11 -->
<g id="node11" class="node"><title>Node11</title>
<g id="a_node11"><a xlink:href="MonitorObject_8h.html" target="_top" xlink:title="QualityControl/MonitorObject.h">
<polygon fill="none" stroke="black" points="163.5,-62 163.5,-81 314.5,-81 314.5,-62 163.5,-62"/>
<text text-anchor="middle" x="239" y="-69" font-family="Helvetica,sans-Serif" font-size="10.00">QualityControl/MonitorObject.h</text>
</a>
</g>
</g>
<!-- Node10&#45;&gt;Node11 -->
<g id="edge11" class="edge"><title>Node10&#45;&gt;Node11</title>
<path fill="none" stroke="midnightblue" d="M451.719,-128.936C407.926,-117.317 329.616,-96.5409 281.206,-83.6975"/>
<polygon fill="midnightblue" stroke="midnightblue" points="281.916,-80.2649 271.353,-81.0834 280.121,-87.0308 281.916,-80.2649"/>
</g>
<!-- Node16 -->
<g id="node16" class="node"><title>Node16</title>
<g id="a_node16"><a xlink:href="MonitorObjectCollection_8h.html" target="_top" xlink:title="QualityControl/MonitorObject\lCollection.h">
<polygon fill="none" stroke="black" points="332.5,-56.5 332.5,-86.5 475.5,-86.5 475.5,-56.5 332.5,-56.5"/>
<text text-anchor="start" x="340.5" y="-74.5" font-family="Helvetica,sans-Serif" font-size="10.00">QualityControl/MonitorObject</text>
<text text-anchor="middle" x="404" y="-63.5" font-family="Helvetica,sans-Serif" font-size="10.00">Collection.h</text>
</a>
</g>
</g>
<!-- Node10&#45;&gt;Node16 -->
<g id="edge17" class="edge"><title>Node10&#45;&gt;Node16</title>
<path fill="none" stroke="midnightblue" d="M473.211,-128.734C461.983,-119.611 444.005,-105.004 429.185,-92.9631"/>
<polygon fill="midnightblue" stroke="midnightblue" points="431.309,-90.1786 421.34,-86.589 426.894,-95.6114 431.309,-90.1786"/>
</g>
<!-- Node19 -->
<g id="node19" class="node"><title>Node19</title>
<g id="a_node19"><a xlink:href="TaskConfig_8h.html" target="_top" xlink:title="QualityControl/TaskConfig.h">
<polygon fill="none" stroke="black" points="494,-62 494,-81 634,-81 634,-62 494,-62"/>
<text text-anchor="middle" x="564" y="-69" font-family="Helvetica,sans-Serif" font-size="10.00">QualityControl/TaskConfig.h</text>
</a>
</g>
</g>
<!-- Node10&#45;&gt;Node19 -->
<g id="edge20" class="edge"><title>Node10&#45;&gt;Node19</title>
<path fill="none" stroke="midnightblue" d="M494.789,-128.734C507.744,-118.208 529.687,-100.379 545.394,-87.6174"/>
<polygon fill="midnightblue" stroke="midnightblue" points="547.828,-90.1497 553.382,-81.1273 543.414,-84.7169 547.828,-90.1497"/>
</g>
<!-- Node21 -->
<g id="node21" class="node"><title>Node21</title>
<polygon fill="none" stroke="#bfbfbf" points="93,-62 93,-81 145,-81 145,-62 93,-62"/>
<text text-anchor="middle" x="119" y="-69" font-family="Helvetica,sans-Serif" font-size="10.00">memory</text>
</g>
<!-- Node10&#45;&gt;Node21 -->
<g id="edge24" class="edge"><title>Node10&#45;&gt;Node21</title>
<path fill="none" stroke="midnightblue" d="M403.173,-130.616C335.651,-123.568 237.316,-110.265 154,-87 151.561,-86.3189 149.064,-85.5148 146.582,-84.64"/>
<polygon fill="midnightblue" stroke="midnightblue" points="147.823,-81.3674 137.234,-81.0266 145.299,-87.8966 147.823,-81.3674"/>
</g>
<!-- Node11&#45;&gt;Node4 -->
<g id="edge12" class="edge"><title>Node11&#45;&gt;Node4</title>
<path fill="none" stroke="midnightblue" d="M285.128,-61.9732C297.41,-59.8575 310.687,-57.7089 323,-56 474.389,-34.9893 514.897,-48.7934 665,-20 665.468,-19.9103 665.938,-19.817 666.411,-19.7205"/>
<polygon fill="midnightblue" stroke="midnightblue" points="667.548,-23.048 676.466,-17.328 665.927,-16.2381 667.548,-23.048"/>
</g>
<!-- Node12 -->
<g id="node12" class="node"><title>Node12</title>
<polygon fill="none" stroke="#bfbfbf" points="286.5,-0.5 286.5,-19.5 321.5,-19.5 321.5,-0.5 286.5,-0.5"/>
<text text-anchor="middle" x="304" y="-7.5" font-family="Helvetica,sans-Serif" font-size="10.00">map</text>
</g>
<!-- Node11&#45;&gt;Node12 -->
<g id="edge13" class="edge"><title>Node11&#45;&gt;Node12</title>
<path fill="none" stroke="midnightblue" d="M248.313,-61.9751C258.449,-52.6966 274.864,-37.6706 287.252,-26.331"/>
<polygon fill="midnightblue" stroke="midnightblue" points="289.691,-28.8429 294.704,-19.5091 284.965,-23.6795 289.691,-28.8429"/>
</g>
<!-- Node13 -->
<g id="node13" class="node"><title>Node13</title>
<polygon fill="none" stroke="#bfbfbf" points="0,-0.5 0,-19.5 56,-19.5 56,-0.5 0,-0.5"/>
<text text-anchor="middle" x="28" y="-7.5" font-family="Helvetica,sans-Serif" font-size="10.00">Rtypes.h</text>
</g>
<!-- Node11&#45;&gt;Node13 -->
<g id="edge14" class="edge"><title>Node11&#45;&gt;Node13</title>
<path fill="none" stroke="midnightblue" d="M208.769,-61.9751C171.161,-51.3701 106.927,-33.2568 66.0195,-21.7211"/>
<polygon fill="midnightblue" stroke="midnightblue" points="66.7267,-18.2841 56.1521,-18.9386 64.8268,-25.0214 66.7267,-18.2841"/>
</g>
<!-- Node14 -->
<g id="node14" class="node"><title>Node14</title>
<polygon fill="none" stroke="#bfbfbf" points="74.5,-0.5 74.5,-19.5 133.5,-19.5 133.5,-0.5 74.5,-0.5"/>
<text text-anchor="middle" x="104" y="-7.5" font-family="Helvetica,sans-Serif" font-size="10.00">TObject.h</text>
</g>
<!-- Node11&#45;&gt;Node14 -->
<g id="edge15" class="edge"><title>Node11&#45;&gt;Node14</title>
<path fill="none" stroke="midnightblue" d="M219.658,-61.9751C196.901,-51.9455 158.908,-35.2002 132.712,-23.6546"/>
<polygon fill="midnightblue" stroke="midnightblue" points="133.869,-20.3395 123.306,-19.5091 131.045,-26.7449 133.869,-20.3395"/>
</g>
<!-- Node15 -->
<g id="node15" class="node"><title>Node15</title>
<polygon fill="none" stroke="#bfbfbf" points="152,-0.5 152,-19.5 268,-19.5 268,-0.5 152,-0.5"/>
<text text-anchor="middle" x="210" y="-7.5" font-family="Helvetica,sans-Serif" font-size="10.00">Common/Exceptions.h</text>
</g>
<!-- Node11&#45;&gt;Node15 -->
<g id="edge16" class="edge"><title>Node11&#45;&gt;Node15</title>
<path fill="none" stroke="midnightblue" d="M234.845,-61.9751C230.624,-53.3152 223.963,-39.6486 218.6,-28.6453"/>
<polygon fill="midnightblue" stroke="midnightblue" points="221.675,-26.9648 214.147,-19.5091 215.382,-30.0317 221.675,-26.9648"/>
</g>
<!-- Node17 -->
<g id="node17" class="node"><title>Node17</title>
<polygon fill="none" stroke="#bfbfbf" points="486.5,-0.5 486.5,-19.5 555.5,-19.5 555.5,-0.5 486.5,-0.5"/>
<text text-anchor="middle" x="521" y="-7.5" font-family="Helvetica,sans-Serif" font-size="10.00">TObjArray.h</text>
</g>
<!-- Node16&#45;&gt;Node17 -->
<g id="edge18" class="edge"><title>Node16&#45;&gt;Node17</title>
<path fill="none" stroke="midnightblue" d="M431.727,-56.3993C450.832,-46.6837 476.058,-33.8551 494.82,-24.3137"/>
<polygon fill="midnightblue" stroke="midnightblue" points="496.648,-27.3106 503.975,-19.6578 493.475,-21.071 496.648,-27.3106"/>
</g>
<!-- Node18 -->
<g id="node18" class="node"><title>Node18</title>
<polygon fill="none" stroke="#bfbfbf" points="340,-0.5 340,-19.5 468,-19.5 468,-0.5 340,-0.5"/>
<text text-anchor="middle" x="404" y="-7.5" font-family="Helvetica,sans-Serif" font-size="10.00">Mergers/MergeInterface.h</text>
</g>
<!-- Node16&#45;&gt;Node18 -->
<g id="edge19" class="edge"><title>Node16&#45;&gt;Node18</title>
<path fill="none" stroke="midnightblue" d="M404,-56.3993C404,-48.4664 404,-38.458 404,-29.8583"/>
<polygon fill="midnightblue" stroke="midnightblue" points="407.5,-29.6577 404,-19.6578 400.5,-29.6578 407.5,-29.6577"/>
</g>
<!-- Node19&#45;&gt;Node4 -->
<g id="edge21" class="edge"><title>Node19&#45;&gt;Node4</title>
<path fill="none" stroke="midnightblue" d="M583.056,-61.9751C605.475,-51.9455 642.905,-35.2002 668.713,-23.6546"/>
<polygon fill="midnightblue" stroke="midnightblue" points="670.281,-26.7877 677.98,-19.5091 667.422,-20.3979 670.281,-26.7877"/>
</g>
<!-- Node20 -->
<g id="node20" class="node"><title>Node20</title>
<polygon fill="none" stroke="#bfbfbf" points="573.5,-0.5 573.5,-19.5 656.5,-19.5 656.5,-0.5 573.5,-0.5"/>
<text text-anchor="middle" x="615" y="-7.5" font-family="Helvetica,sans-Serif" font-size="10.00">unordered_map</text>
</g>
<!-- Node19&#45;&gt;Node20 -->
<g id="edge22" class="edge"><title>Node19&#45;&gt;Node20</title>
<path fill="none" stroke="midnightblue" d="M571.307,-61.9751C579.033,-52.9617 591.408,-38.5246 601.018,-27.3118"/>
<polygon fill="midnightblue" stroke="midnightblue" points="603.856,-29.3795 607.706,-19.5091 598.541,-24.8239 603.856,-29.3795"/>
</g>
<!-- Node23 -->
<g id="node23" class="node"><title>Node23</title>
<g id="a_node23"><a xlink:href="PostProcessingConfig_8h.html" target="_top" xlink:title="QualityControl/PostProcessing\lConfig.h">
<polygon fill="none" stroke="black" points="1074.5,-123.5 1074.5,-153.5 1225.5,-153.5 1225.5,-123.5 1074.5,-123.5"/>
<text text-anchor="start" x="1082.5" y="-141.5" font-family="Helvetica,sans-Serif" font-size="10.00">QualityControl/PostProcessing</text>
<text text-anchor="middle" x="1150" y="-130.5" font-family="Helvetica,sans-Serif" font-size="10.00">Config.h</text>
</a>
</g>
</g>
<!-- Node22&#45;&gt;Node23 -->
<g id="edge26" class="edge"><title>Node22&#45;&gt;Node23</title>
<path fill="none" stroke="midnightblue" d="M1061.52,-190.396C1077.66,-181.112 1098.99,-168.841 1116.67,-158.674"/>
<polygon fill="midnightblue" stroke="midnightblue" points="1118.61,-161.597 1125.53,-153.577 1115.12,-155.529 1118.61,-161.597"/>
</g>
<!-- Node23&#45;&gt;Node4 -->
<g id="edge28" class="edge"><title>Node23&#45;&gt;Node4</title>
<path fill="none" stroke="midnightblue" d="M1146.5,-123.221C1141.06,-104.385 1128.67,-71.7811 1105,-56 1043.23,-14.8122 811.718,-10.8607 727.704,-10.8162"/>
<polygon fill="midnightblue" stroke="midnightblue" points="727.528,-7.31631 717.533,-10.83 727.538,-14.3163 727.528,-7.31631"/>
</g>
<!-- Node23&#45;&gt;Node6 -->
<g id="edge29" class="edge"><title>Node23&#45;&gt;Node6</title>
<path fill="none" stroke="midnightblue" d="M1127.43,-123.396C1112.71,-114.197 1093.31,-102.066 1077.13,-91.9546"/>
<polygon fill="midnightblue" stroke="midnightblue" points="1078.86,-88.9085 1068.52,-86.5765 1075.15,-94.8445 1078.86,-88.9085"/>
</g>
<!-- Node24 -->
<g id="node24" class="node"><title>Node24</title>
<polygon fill="none" stroke="#bfbfbf" points="1153,-62 1153,-81 1197,-81 1197,-62 1153,-62"/>
<text text-anchor="middle" x="1175" y="-69" font-family="Helvetica,sans-Serif" font-size="10.00">vector</text>
</g>
<!-- Node23&#45;&gt;Node24 -->
<g id="edge27" class="edge"><title>Node23&#45;&gt;Node24</title>
<path fill="none" stroke="midnightblue" d="M1155.42,-123.396C1159.13,-113.763 1164.07,-100.914 1168.06,-90.5373"/>
<polygon fill="midnightblue" stroke="midnightblue" points="1171.33,-91.7844 1171.66,-81.1945 1164.8,-89.2715 1171.33,-91.7844"/>
</g>
</g>
</svg>
