<?xml version="1.0" encoding="UTF-8" standalone="no"?>
<!DOCTYPE svg PUBLIC "-//W3C//DTD SVG 1.1//EN"
 "http://www.w3.org/Graphics/SVG/1.1/DTD/svg11.dtd">
<!-- Generated by graphviz version 2.38.0 (20140413.2041)
 -->
<!-- Title: Framework/test/testDbFactory.cxx Pages: 1 -->
<svg width="1253pt" height="308pt"
 viewBox="0.00 0.00 1253.00 308.00" xmlns="http://www.w3.org/2000/svg" xmlns:xlink="http://www.w3.org/1999/xlink">
<g id="graph0" class="graph" transform="scale(1 1) rotate(0) translate(4 304)">
<title>Framework/test/testDbFactory.cxx</title>
<!-- Node1 -->
<g id="node1" class="node"><title>Node1</title>
<polygon fill="#bfbfbf" stroke="black" points="632.5,-280.5 632.5,-299.5 801.5,-299.5 801.5,-280.5 632.5,-280.5"/>
<text text-anchor="middle" x="717" y="-287.5" font-family="Helvetica,sans-Serif" font-size="10.00">Framework/test/testDbFactory.cxx</text>
</g>
<!-- Node2 -->
<g id="node2" class="node"><title>Node2</title>
<g id="a_node2"><a xlink:href="DatabaseFactory_8h.html" target="_top" xlink:title="QualityControl/DatabaseFactory.h">
<polygon fill="none" stroke="black" points="70.5,-224.5 70.5,-243.5 235.5,-243.5 235.5,-224.5 70.5,-224.5"/>
<text text-anchor="middle" x="153" y="-231.5" font-family="Helvetica,sans-Serif" font-size="10.00">QualityControl/DatabaseFactory.h</text>
</a>
</g>
</g>
<!-- Node1&#45;&gt;Node2 -->
<g id="edge1" class="edge"><title>Node1&#45;&gt;Node2</title>
<path fill="none" stroke="midnightblue" d="M632.402,-281.047C539.977,-272.337 387.247,-257.88 245.976,-244.189"/>
<polygon fill="midnightblue" stroke="midnightblue" points="246.117,-240.686 235.825,-243.205 245.441,-247.654 246.117,-240.686"/>
</g>
<!-- Node15 -->
<g id="node15" class="node"><title>Node15</title>
<g id="a_node15"><a xlink:href="MonitorObject_8h.html" target="_top" xlink:title="QualityControl/MonitorObject.h">
<polygon fill="none" stroke="black" points="640.5,-112.5 640.5,-131.5 791.5,-131.5 791.5,-112.5 640.5,-112.5"/>
<text text-anchor="middle" x="716" y="-119.5" font-family="Helvetica,sans-Serif" font-size="10.00">QualityControl/MonitorObject.h</text>
</a>
</g>
</g>
<!-- Node1&#45;&gt;Node15 -->
<g id="edge32" class="edge"><title>Node1&#45;&gt;Node15</title>
<path fill="none" stroke="midnightblue" d="M716.946,-280.075C716.789,-253.945 716.327,-177.211 716.112,-141.577"/>
<polygon fill="midnightblue" stroke="midnightblue" points="719.612,-141.547 716.052,-131.568 712.612,-141.589 719.612,-141.547"/>
</g>
<!-- Node16 -->
<g id="node16" class="node"><title>Node16</title>
<g id="a_node16"><a xlink:href="QcInfoLogger_8h.html" target="_top" xlink:title="QualityControl/QcInfoLogger.h">
<polygon fill="none" stroke="black" points="890.5,-224.5 890.5,-243.5 1039.5,-243.5 1039.5,-224.5 890.5,-224.5"/>
<text text-anchor="middle" x="965" y="-231.5" font-family="Helvetica,sans-Serif" font-size="10.00">QualityControl/QcInfoLogger.h</text>
</a>
</g>
</g>
<!-- Node1&#45;&gt;Node16 -->
<g id="edge23" class="edge"><title>Node1&#45;&gt;Node16</title>
<path fill="none" stroke="midnightblue" d="M756.296,-280.444C799.559,-271.023 869.173,-255.866 915.973,-245.675"/>
<polygon fill="midnightblue" stroke="midnightblue" points="916.861,-249.064 925.888,-243.516 915.372,-242.224 916.861,-249.064"/>
</g>
<!-- Node19 -->
<g id="node19" class="node"><title>Node19</title>
<polygon fill="none" stroke="#bfbfbf" points="1057.5,-224.5 1057.5,-243.5 1176.5,-243.5 1176.5,-224.5 1057.5,-224.5"/>
<text text-anchor="middle" x="1117" y="-231.5" font-family="Helvetica,sans-Serif" font-size="10.00">boost/test/unit_test.hpp</text>
</g>
<!-- Node1&#45;&gt;Node19 -->
<g id="edge26" class="edge"><title>Node1&#45;&gt;Node19</title>
<path fill="none" stroke="midnightblue" d="M780.381,-280.444C852.968,-270.644 971.543,-254.637 1046.85,-244.47"/>
<polygon fill="midnightblue" stroke="midnightblue" points="1047.74,-247.882 1057.18,-243.075 1046.8,-240.945 1047.74,-247.882"/>
</g>
<!-- Node20 -->
<g id="node20" class="node"><title>Node20</title>
<g id="a_node20"><a xlink:href="DummyDatabase_8h.html" target="_top" xlink:title="QualityControl/DummyDatabase.h">
<polygon fill="none" stroke="black" points="253.5,-224.5 253.5,-243.5 420.5,-243.5 420.5,-224.5 253.5,-224.5"/>
<text text-anchor="middle" x="337" y="-231.5" font-family="Helvetica,sans-Serif" font-size="10.00">QualityControl/DummyDatabase.h</text>
</a>
</g>
</g>
<!-- Node1&#45;&gt;Node20 -->
<g id="edge27" class="edge"><title>Node1&#45;&gt;Node20</title>
<path fill="none" stroke="midnightblue" d="M656.788,-280.444C588.969,-270.806 478.891,-255.163 407.217,-244.978"/>
<polygon fill="midnightblue" stroke="midnightblue" points="407.323,-241.458 396.93,-243.516 406.339,-248.389 407.323,-241.458"/>
</g>
<!-- Node21 -->
<g id="node21" class="node"><title>Node21</title>
<g id="a_node21"><a xlink:href="CcdbDatabase_8h.html" target="_top" xlink:title="QualityControl/CcdbDatabase.h">
<polygon fill="none" stroke="black" points="438.5,-224.5 438.5,-243.5 593.5,-243.5 593.5,-224.5 438.5,-224.5"/>
<text text-anchor="middle" x="516" y="-231.5" font-family="Helvetica,sans-Serif" font-size="10.00">QualityControl/CcdbDatabase.h</text>
</a>
</g>
</g>
<!-- Node1&#45;&gt;Node21 -->
<g id="edge29" class="edge"><title>Node1&#45;&gt;Node21</title>
<path fill="none" stroke="midnightblue" d="M685.151,-280.444C650.602,-271.162 595.318,-256.309 557.417,-246.127"/>
<polygon fill="midnightblue" stroke="midnightblue" points="558.266,-242.731 547.7,-243.516 556.449,-249.491 558.266,-242.731"/>
</g>
<!-- Node23 -->
<g id="node23" class="node"><title>Node23</title>
<g id="a_node23"><a xlink:href="RepoPathUtils_8h.html" target="_top" xlink:title="QualityControl/RepoPathUtils.h">
<polygon fill="none" stroke="black" points="535,-168.5 535,-187.5 689,-187.5 689,-168.5 535,-168.5"/>
<text text-anchor="middle" x="612" y="-175.5" font-family="Helvetica,sans-Serif" font-size="10.00">QualityControl/RepoPathUtils.h</text>
</a>
</g>
</g>
<!-- Node1&#45;&gt;Node23 -->
<g id="edge33" class="edge"><title>Node1&#45;&gt;Node23</title>
<path fill="none" stroke="midnightblue" d="M708.761,-280.368C691.203,-261.974 649.868,-218.671 627.322,-195.052"/>
<polygon fill="midnightblue" stroke="midnightblue" points="629.637,-192.408 620.201,-187.591 624.574,-197.242 629.637,-192.408"/>
</g>
<!-- Node24 -->
<g id="node24" class="node"><title>Node24</title>
<g id="a_node24"><a xlink:href="testUtils_8h.html" target="_top" xlink:title="QualityControl/testUtils.h">
<polygon fill="none" stroke="black" points="745.5,-224.5 745.5,-243.5 872.5,-243.5 872.5,-224.5 745.5,-224.5"/>
<text text-anchor="middle" x="809" y="-231.5" font-family="Helvetica,sans-Serif" font-size="10.00">QualityControl/testUtils.h</text>
</a>
</g>
</g>
<!-- Node1&#45;&gt;Node24 -->
<g id="edge39" class="edge"><title>Node1&#45;&gt;Node24</title>
<path fill="none" stroke="midnightblue" d="M731.781,-280.324C746.267,-271.822 768.573,-258.729 785.493,-248.797"/>
<polygon fill="midnightblue" stroke="midnightblue" points="787.403,-251.735 794.255,-243.655 783.859,-245.698 787.403,-251.735"/>
</g>
<!-- Node26 -->
<g id="node26" class="node"><title>Node26</title>
<polygon fill="none" stroke="#bfbfbf" points="1195,-224.5 1195,-243.5 1245,-243.5 1245,-224.5 1195,-224.5"/>
<text text-anchor="middle" x="1220" y="-231.5" font-family="Helvetica,sans-Serif" font-size="10.00">TH1F.h</text>
</g>
<!-- Node1&#45;&gt;Node26 -->
<g id="edge42" class="edge"><title>Node1&#45;&gt;Node26</title>
<path fill="none" stroke="midnightblue" d="M801.865,-285.028C894.032,-279.771 1045.64,-268.379 1184.85,-243.929"/>
<polygon fill="midnightblue" stroke="midnightblue" points="1185.62,-247.347 1194.85,-242.146 1184.39,-240.456 1185.62,-247.347"/>
</g>
<!-- Node3 -->
<g id="node3" class="node"><title>Node3</title>
<polygon fill="none" stroke="#bfbfbf" points="0,-112.5 0,-131.5 52,-131.5 52,-112.5 0,-112.5"/>
<text text-anchor="middle" x="26" y="-119.5" font-family="Helvetica,sans-Serif" font-size="10.00">memory</text>
</g>
<!-- Node2&#45;&gt;Node3 -->
<g id="edge2" class="edge"><title>Node2&#45;&gt;Node3</title>
<path fill="none" stroke="midnightblue" d="M143.035,-224.368C121.612,-205.814 70.9268,-161.913 43.8234,-138.438"/>
<polygon fill="midnightblue" stroke="midnightblue" points="45.7695,-135.493 35.9192,-131.591 41.1866,-140.784 45.7695,-135.493"/>
</g>
<!-- Node4 -->
<g id="node4" class="node"><title>Node4</title>
<g id="a_node4"><a xlink:href="DatabaseInterface_8h.html" target="_top" xlink:title="QualityControl/DatabaseInterface.h">
<polygon fill="none" stroke="black" points="233,-168.5 233,-187.5 403,-187.5 403,-168.5 233,-168.5"/>
<text text-anchor="middle" x="318" y="-175.5" font-family="Helvetica,sans-Serif" font-size="10.00">QualityControl/DatabaseInterface.h</text>
</a>
</g>
</g>
<!-- Node2&#45;&gt;Node4 -->
<g id="edge3" class="edge"><title>Node2&#45;&gt;Node4</title>
<path fill="none" stroke="midnightblue" d="M179.145,-224.444C207.023,-215.32 251.348,-200.813 282.4,-190.651"/>
<polygon fill="midnightblue" stroke="midnightblue" points="283.562,-193.953 291.978,-187.516 281.385,-187.3 283.562,-193.953"/>
</g>
<!-- Node4&#45;&gt;Node3 -->
<g id="edge5" class="edge"><title>Node4&#45;&gt;Node3</title>
<path fill="none" stroke="midnightblue" d="M261.856,-168.469C211.87,-160.579 136.555,-147.974 62.312,-132.154"/>
<polygon fill="midnightblue" stroke="midnightblue" points="62.8333,-128.686 52.3208,-130.004 61.3606,-135.529 62.8333,-128.686"/>
</g>
<!-- Node5 -->
<g id="node5" class="node"><title>Node5</title>
<polygon fill="none" stroke="#bfbfbf" points="480.5,-0.5 480.5,-19.5 521.5,-19.5 521.5,-0.5 480.5,-0.5"/>
<text text-anchor="middle" x="501" y="-7.5" font-family="Helvetica,sans-Serif" font-size="10.00">string</text>
</g>
<!-- Node4&#45;&gt;Node5 -->
<g id="edge4" class="edge"><title>Node4&#45;&gt;Node5</title>
<path fill="none" stroke="midnightblue" d="M323.047,-168.367C330.95,-155.28 347.193,-130.035 365,-112 400.273,-76.2752 448.975,-43.2856 477.514,-25.2679"/>
<polygon fill="midnightblue" stroke="midnightblue" points="479.735,-28.0082 486.371,-19.7492 476.033,-22.0672 479.735,-28.0082"/>
</g>
<!-- Node6 -->
<g id="node6" class="node"><title>Node6</title>
<polygon fill="none" stroke="#bfbfbf" points="374,-112.5 374,-131.5 418,-131.5 418,-112.5 374,-112.5"/>
<text text-anchor="middle" x="396" y="-119.5" font-family="Helvetica,sans-Serif" font-size="10.00">vector</text>
</g>
<!-- Node4&#45;&gt;Node6 -->
<g id="edge6" class="edge"><title>Node4&#45;&gt;Node6</title>
<path fill="none" stroke="midnightblue" d="M330.532,-168.324C342.586,-159.979 361.027,-147.212 375.269,-137.352"/>
<polygon fill="midnightblue" stroke="midnightblue" points="377.269,-140.224 383.499,-131.655 373.285,-134.469 377.269,-140.224"/>
</g>
<!-- Node7 -->
<g id="node7" class="node"><title>Node7</title>
<polygon fill="none" stroke="#bfbfbf" points="70.5,-112.5 70.5,-131.5 153.5,-131.5 153.5,-112.5 70.5,-112.5"/>
<text text-anchor="middle" x="112" y="-119.5" font-family="Helvetica,sans-Serif" font-size="10.00">unordered_map</text>
</g>
<!-- Node4&#45;&gt;Node7 -->
<g id="edge7" class="edge"><title>Node4&#45;&gt;Node7</title>
<path fill="none" stroke="midnightblue" d="M285.359,-168.444C249.95,-159.162 193.291,-144.309 154.447,-134.127"/>
<polygon fill="midnightblue" stroke="midnightblue" points="155.049,-130.667 144.489,-131.516 153.274,-137.438 155.049,-130.667"/>
</g>
<!-- Node8 -->
<g id="node8" class="node"><title>Node8</title>
<polygon fill="none" stroke="#bfbfbf" points="172,-112.5 172,-131.5 318,-131.5 318,-112.5 172,-112.5"/>
<text text-anchor="middle" x="245" y="-119.5" font-family="Helvetica,sans-Serif" font-size="10.00">Framework/ServiceRegistry.h</text>
</g>
<!-- Node4&#45;&gt;Node8 -->
<g id="edge8" class="edge"><title>Node4&#45;&gt;Node8</title>
<path fill="none" stroke="midnightblue" d="M306.271,-168.324C295.163,-160.107 278.258,-147.602 265.017,-137.807"/>
<polygon fill="midnightblue" stroke="midnightblue" points="267.063,-134.967 256.942,-131.834 262.9,-140.595 267.063,-134.967"/>
</g>
<!-- Node9 -->
<g id="node9" class="node"><title>Node9</title>
<g id="a_node9"><a xlink:href="QualityObject_8h_source.html" target="_top" xlink:title="QualityControl/QualityObject.h">
<polygon fill="none" stroke="black" points="473.5,-112.5 473.5,-131.5 622.5,-131.5 622.5,-112.5 473.5,-112.5"/>
<text text-anchor="middle" x="548" y="-119.5" font-family="Helvetica,sans-Serif" font-size="10.00">QualityControl/QualityObject.h</text>
</a>
</g>
</g>
<!-- Node4&#45;&gt;Node9 -->
<g id="edge9" class="edge"><title>Node4&#45;&gt;Node9</title>
<path fill="none" stroke="midnightblue" d="M354.444,-168.444C394.399,-159.063 458.587,-143.993 501.985,-133.804"/>
<polygon fill="midnightblue" stroke="midnightblue" points="502.791,-137.21 511.726,-131.516 501.191,-130.395 502.791,-137.21"/>
</g>
<!-- Node4&#45;&gt;Node15 -->
<g id="edge17" class="edge"><title>Node4&#45;&gt;Node15</title>
<path fill="none" stroke="midnightblue" d="M381.064,-168.444C452.241,-158.786 567.861,-143.099 642.918,-132.916"/>
<polygon fill="midnightblue" stroke="midnightblue" points="643.792,-136.329 653.231,-131.516 642.851,-129.393 643.792,-136.329"/>
</g>
<!-- Node10 -->
<g id="node10" class="node"><title>Node10</title>
<polygon fill="none" stroke="#bfbfbf" points="649.5,-0.5 649.5,-19.5 684.5,-19.5 684.5,-0.5 649.5,-0.5"/>
<text text-anchor="middle" x="667" y="-7.5" font-family="Helvetica,sans-Serif" font-size="10.00">map</text>
</g>
<!-- Node9&#45;&gt;Node10 -->
<g id="edge10" class="edge"><title>Node9&#45;&gt;Node10</title>
<path fill="none" stroke="midnightblue" d="M527.293,-112.491C501.644,-100.732 463.361,-78.4153 481,-56 500.394,-31.354 592.343,-18.5855 639.284,-13.58"/>
<polygon fill="midnightblue" stroke="midnightblue" points="639.785,-17.047 649.378,-12.5496 639.075,-10.0832 639.785,-17.047"/>
</g>
<!-- Node11 -->
<g id="node11" class="node"><title>Node11</title>
<polygon fill="none" stroke="#bfbfbf" points="490.5,-56.5 490.5,-75.5 549.5,-75.5 549.5,-56.5 490.5,-56.5"/>
<text text-anchor="middle" x="520" y="-63.5" font-family="Helvetica,sans-Serif" font-size="10.00">TObject.h</text>
</g>
<!-- Node9&#45;&gt;Node11 -->
<g id="edge11" class="edge"><title>Node9&#45;&gt;Node11</title>
<path fill="none" stroke="midnightblue" d="M543.376,-112.083C539.544,-104.691 533.976,-93.9533 529.235,-84.8111"/>
<polygon fill="midnightblue" stroke="midnightblue" points="532.248,-83.0175 524.538,-75.7511 526.034,-86.2398 532.248,-83.0175"/>
</g>
<!-- Node12 -->
<g id="node12" class="node"><title>Node12</title>
<polygon fill="none" stroke="#bfbfbf" points="822,-56.5 822,-75.5 938,-75.5 938,-56.5 822,-56.5"/>
<text text-anchor="middle" x="880" y="-63.5" font-family="Helvetica,sans-Serif" font-size="10.00">Common/Exceptions.h</text>
</g>
<!-- Node9&#45;&gt;Node12 -->
<g id="edge12" class="edge"><title>Node9&#45;&gt;Node12</title>
<path fill="none" stroke="midnightblue" d="M600.606,-112.444C659.494,-102.865 754.851,-87.3556 817.494,-77.1667"/>
<polygon fill="midnightblue" stroke="midnightblue" points="818.331,-80.5765 827.64,-75.5164 817.208,-73.6673 818.331,-80.5765"/>
</g>
<!-- Node13 -->
<g id="node13" class="node"><title>Node13</title>
<g id="a_node13"><a xlink:href="Quality_8h.html" target="_top" xlink:title="QualityControl/Quality.h">
<polygon fill="none" stroke="black" points="606.5,-56.5 606.5,-75.5 727.5,-75.5 727.5,-56.5 606.5,-56.5"/>
<text text-anchor="middle" x="667" y="-63.5" font-family="Helvetica,sans-Serif" font-size="10.00">QualityControl/Quality.h</text>
</a>
</g>
</g>
<!-- Node9&#45;&gt;Node13 -->
<g id="edge13" class="edge"><title>Node9&#45;&gt;Node13</title>
<path fill="none" stroke="midnightblue" d="M566.856,-112.444C586.266,-103.636 616.73,-89.8116 638.965,-79.722"/>
<polygon fill="midnightblue" stroke="midnightblue" points="640.572,-82.836 648.232,-75.5164 637.68,-76.4615 640.572,-82.836"/>
</g>
<!-- Node13&#45;&gt;Node5 -->
<g id="edge15" class="edge"><title>Node13&#45;&gt;Node5</title>
<path fill="none" stroke="midnightblue" d="M640.697,-56.4435C610.999,-46.7829 562.752,-31.088 531.448,-20.9046"/>
<polygon fill="midnightblue" stroke="midnightblue" points="532.516,-17.5718 521.924,-17.8067 530.351,-24.2285 532.516,-17.5718"/>
</g>
<!-- Node13&#45;&gt;Node10 -->
<g id="edge16" class="edge"><title>Node13&#45;&gt;Node10</title>
<path fill="none" stroke="midnightblue" d="M667,-56.083C667,-49.0059 667,-38.8611 667,-29.9865"/>
<polygon fill="midnightblue" stroke="midnightblue" points="670.5,-29.751 667,-19.7511 663.5,-29.7511 670.5,-29.751"/>
</g>
<!-- Node14 -->
<g id="node14" class="node"><title>Node14</title>
<polygon fill="none" stroke="#bfbfbf" points="734,-0.5 734,-19.5 790,-19.5 790,-0.5 734,-0.5"/>
<text text-anchor="middle" x="762" y="-7.5" font-family="Helvetica,sans-Serif" font-size="10.00">Rtypes.h</text>
</g>
<!-- Node13&#45;&gt;Node14 -->
<g id="edge14" class="edge"><title>Node13&#45;&gt;Node14</title>
<path fill="none" stroke="midnightblue" d="M682.263,-56.324C697.221,-47.8215 720.255,-34.7288 737.727,-24.7975"/>
<polygon fill="midnightblue" stroke="midnightblue" points="739.81,-27.639 746.774,-19.6545 736.351,-21.5534 739.81,-27.639"/>
</g>
<!-- Node15&#45;&gt;Node5 -->
<g id="edge18" class="edge"><title>Node15&#45;&gt;Node5</title>
<path fill="none" stroke="midnightblue" d="M687.795,-112.406C663.168,-104.421 626.805,-91.4543 597,-76 568.771,-61.3629 538.824,-40.0375 520.029,-25.8529"/>
<polygon fill="midnightblue" stroke="midnightblue" points="522.06,-22.9996 511.99,-19.7058 517.808,-28.5603 522.06,-22.9996"/>
</g>
<!-- Node15&#45;&gt;Node10 -->
<g id="edge19" class="edge"><title>Node15&#45;&gt;Node10</title>
<path fill="none" stroke="midnightblue" d="M722.918,-112.156C732.123,-99.2303 746.123,-74.6867 736,-56 727.115,-39.5983 709.373,-28.2285 694.105,-21.0207"/>
<polygon fill="midnightblue" stroke="midnightblue" points="695.114,-17.6433 684.547,-16.8742 692.328,-24.065 695.114,-17.6433"/>
</g>
<!-- Node15&#45;&gt;Node11 -->
<g id="edge21" class="edge"><title>Node15&#45;&gt;Node11</title>
<path fill="none" stroke="midnightblue" d="M684.943,-112.444C651.002,-103.092 596.539,-88.0874 559.563,-77.8999"/>
<polygon fill="midnightblue" stroke="midnightblue" points="560.199,-74.4449 549.628,-75.1629 558.34,-81.1934 560.199,-74.4449"/>
</g>
<!-- Node15&#45;&gt;Node12 -->
<g id="edge22" class="edge"><title>Node15&#45;&gt;Node12</title>
<path fill="none" stroke="midnightblue" d="M741.986,-112.444C769.696,-103.32 813.752,-88.8133 844.616,-78.6509"/>
<polygon fill="midnightblue" stroke="midnightblue" points="845.732,-81.9684 854.135,-75.5164 843.542,-75.3196 845.732,-81.9684"/>
</g>
<!-- Node15&#45;&gt;Node14 -->
<g id="edge20" class="edge"><title>Node15&#45;&gt;Node14</title>
<path fill="none" stroke="midnightblue" d="M732.633,-112.464C745.488,-104.841 762.339,-92.356 770,-76 776.85,-61.3758 773.636,-42.971 769.418,-29.4822"/>
<polygon fill="midnightblue" stroke="midnightblue" points="772.65,-28.1259 765.992,-19.8845 766.057,-30.4791 772.65,-28.1259"/>
</g>
<!-- Node17 -->
<g id="node17" class="node"><title>Node17</title>
<polygon fill="none" stroke="#bfbfbf" points="1066,-168.5 1066,-187.5 1196,-187.5 1196,-168.5 1066,-168.5"/>
<text text-anchor="middle" x="1131" y="-175.5" font-family="Helvetica,sans-Serif" font-size="10.00">InfoLogger/InfoLogger.hxx</text>
</g>
<!-- Node16&#45;&gt;Node17 -->
<g id="edge24" class="edge"><title>Node16&#45;&gt;Node17</title>
<path fill="none" stroke="midnightblue" d="M991.303,-224.444C1019.35,-215.32 1063.94,-200.813 1095.18,-190.651"/>
<polygon fill="midnightblue" stroke="midnightblue" points="1096.39,-193.938 1104.82,-187.516 1094.23,-187.282 1096.39,-193.938"/>
</g>
<!-- Node18 -->
<g id="node18" class="node"><title>Node18</title>
<polygon fill="none" stroke="#bfbfbf" points="886,-168.5 886,-187.5 1048,-187.5 1048,-168.5 886,-168.5"/>
<text text-anchor="middle" x="967" y="-175.5" font-family="Helvetica,sans-Serif" font-size="10.00">InfoLogger/InfoLoggerMacros.hxx</text>
</g>
<!-- Node16&#45;&gt;Node18 -->
<g id="edge25" class="edge"><title>Node16&#45;&gt;Node18</title>
<path fill="none" stroke="midnightblue" d="M965.33,-224.083C965.592,-217.006 965.968,-206.861 966.297,-197.986"/>
<polygon fill="midnightblue" stroke="midnightblue" points="969.803,-197.874 966.676,-187.751 962.808,-197.615 969.803,-197.874"/>
</g>
<!-- Node20&#45;&gt;Node4 -->
<g id="edge28" class="edge"><title>Node20&#45;&gt;Node4</title>
<path fill="none" stroke="midnightblue" d="M333.863,-224.083C331.317,-216.849 327.644,-206.409 324.473,-197.397"/>
<polygon fill="midnightblue" stroke="midnightblue" points="327.7,-196.023 321.079,-187.751 321.097,-198.346 327.7,-196.023"/>
</g>
<!-- Node21&#45;&gt;Node4 -->
<g id="edge31" class="edge"><title>Node21&#45;&gt;Node4</title>
<path fill="none" stroke="midnightblue" d="M484.626,-224.444C450.737,-215.201 396.597,-200.436 359.276,-190.257"/>
<polygon fill="midnightblue" stroke="midnightblue" points="359.795,-186.771 349.227,-187.516 357.954,-193.524 359.795,-186.771"/>
</g>
<!-- Node22 -->
<g id="node22" class="node"><title>Node22</title>
<polygon fill="none" stroke="#bfbfbf" points="421.5,-168.5 421.5,-187.5 516.5,-187.5 516.5,-168.5 421.5,-168.5"/>
<text text-anchor="middle" x="469" y="-175.5" font-family="Helvetica,sans-Serif" font-size="10.00">CCDB/CcdbApi.h</text>
</g>
<!-- Node21&#45;&gt;Node22 -->
<g id="edge30" class="edge"><title>Node21&#45;&gt;Node22</title>
<path fill="none" stroke="midnightblue" d="M508.239,-224.083C501.463,-216.298 491.457,-204.801 483.245,-195.367"/>
<polygon fill="midnightblue" stroke="midnightblue" points="485.822,-192.996 476.617,-187.751 480.542,-197.592 485.822,-192.996"/>
</g>
<!-- Node23&#45;&gt;Node5 -->
<g id="edge34" class="edge"><title>Node23&#45;&gt;Node5</title>
<path fill="none" stroke="midnightblue" d="M562.675,-168.489C524.419,-160.766 475.953,-148.128 464,-132 440.352,-100.092 468.561,-52.902 487.175,-27.9301"/>
<polygon fill="midnightblue" stroke="midnightblue" points="490.116,-29.8496 493.485,-19.8047 484.587,-25.5562 490.116,-29.8496"/>
</g>
<!-- Node23&#45;&gt;Node6 -->
<g id="edge35" class="edge"><title>Node23&#45;&gt;Node6</title>
<path fill="none" stroke="midnightblue" d="M577.774,-168.444C536.628,-158.157 468.116,-141.029 427.991,-130.998"/>
<polygon fill="midnightblue" stroke="midnightblue" points="428.745,-127.579 418.195,-128.549 427.048,-134.37 428.745,-127.579"/>
</g>
<!-- Node23&#45;&gt;Node9 -->
<g id="edge38" class="edge"><title>Node23&#45;&gt;Node9</title>
<path fill="none" stroke="midnightblue" d="M601.717,-168.324C592.164,-160.263 577.72,-148.077 566.216,-138.369"/>
<polygon fill="midnightblue" stroke="midnightblue" points="568.37,-135.608 558.47,-131.834 563.856,-140.958 568.37,-135.608"/>
</g>
<!-- Node23&#45;&gt;Node12 -->
<g id="edge36" class="edge"><title>Node23&#45;&gt;Node12</title>
<path fill="none" stroke="midnightblue" d="M678.87,-168.456C715.948,-161.915 762.083,-150.721 800,-132 825.182,-119.566 849.554,-97.9494 864.646,-83.0812"/>
<polygon fill="midnightblue" stroke="midnightblue" points="867.482,-85.19 872.021,-75.6166 862.503,-80.2701 867.482,-85.19"/>
</g>
<!-- Node23&#45;&gt;Node15 -->
<g id="edge37" class="edge"><title>Node23&#45;&gt;Node15</title>
<path fill="none" stroke="midnightblue" d="M628.709,-168.324C645.312,-159.703 671.002,-146.364 690.22,-136.386"/>
<polygon fill="midnightblue" stroke="midnightblue" points="692.07,-139.369 699.332,-131.655 688.844,-133.156 692.07,-139.369"/>
</g>
<!-- Node24&#45;&gt;Node12 -->
<g id="edge41" class="edge"><title>Node24&#45;&gt;Node12</title>
<path fill="none" stroke="midnightblue" d="M815.694,-224.448C822.306,-215.687 832.366,-201.479 839,-188 856.079,-153.297 868.915,-109.727 875.363,-85.4725"/>
<polygon fill="midnightblue" stroke="midnightblue" points="878.823,-86.0721 877.938,-75.5143 872.046,-84.3199 878.823,-86.0721"/>
</g>
<!-- Node25 -->
<g id="node25" class="node"><title>Node25</title>
<polygon fill="none" stroke="#bfbfbf" points="776,-168.5 776,-187.5 830,-187.5 830,-168.5 776,-168.5"/>
<text text-anchor="middle" x="803" y="-175.5" font-family="Helvetica,sans-Serif" font-size="10.00">iostream</text>
</g>
<!-- Node24&#45;&gt;Node25 -->
<g id="edge40" class="edge"><title>Node24&#45;&gt;Node25</title>
<path fill="none" stroke="midnightblue" d="M808.009,-224.083C807.214,-216.927 806.071,-206.635 805.077,-197.691"/>
<polygon fill="midnightblue" stroke="midnightblue" points="808.555,-197.303 803.972,-187.751 801.598,-198.076 808.555,-197.303"/>
</g>
</g>
</svg>
