<?xml version="1.0" encoding="UTF-8" standalone="no"?>
<!DOCTYPE svg PUBLIC "-//W3C//DTD SVG 1.1//EN"
 "http://www.w3.org/Graphics/SVG/1.1/DTD/svg11.dtd">
<!-- Generated by graphviz version 2.38.0 (20140413.2041)
 -->
<!-- Title: Modules/Skeleton/test/testQcSkeleton.cxx Pages: 1 -->
<!--zoomable 330 -->
<svg id="main" version="1.1" xmlns="http://www.w3.org/2000/svg" xmlns:xlink="http://www.w3.org/1999/xlink" xml:space="preserve" onload="init(evt)">
<style type="text/css"><![CDATA[
.edge:hover path { stroke: red; }
.edge:hover polygon { stroke: red; fill: red; }
]]></style>
<script type="text/javascript"><![CDATA[
var edges = document.getElementsByTagName('g');
if (edges && edges.length) {
  for (var i=0;i<edges.length;i++) {
    if (edges[i].id.substr(0,4)=='edge') {
      edges[i].setAttribute('class','edge');
    }
  }
}
]]></script>
        <defs>
                <circle id="rim" cx="0" cy="0" r="7"/>
                <circle id="rim2" cx="0" cy="0" r="3.5"/>
                <g id="zoomPlus">
                        <use xlink:href="#rim" fill="#404040">
                                <set attributeName="fill" to="#808080" begin="zoomplus.mouseover" end="zoomplus.mouseout"/>
                        </use>
                        <path d="M-4,0h8M0,-4v8" fill="none" stroke="white" stroke-width="1.5" pointer-events="none"/>
                </g>
                <g id="zoomMin">
                        <use xlink:href="#rim" fill="#404040">
                                <set attributeName="fill" to="#808080" begin="zoomminus.mouseover" end="zoomminus.mouseout"/>
                        </use>
                        <path d="M-4,0h8" fill="none" stroke="white" stroke-width="1.5" pointer-events="none"/>
                </g>
                <g id="dirArrow">
                        <path fill="none" stroke="white" stroke-width="1.5" d="M0,-3.0v7 M-2.5,-0.5L0,-3.0L2.5,-0.5"/>
                </g>
               <g id="resetDef">
                       <use xlink:href="#rim2" fill="#404040">
                               <set attributeName="fill" to="#808080" begin="reset.mouseover" end="reset.mouseout"/>
                       </use>
               </g>
        </defs>

<script type="text/javascript">
var viewWidth = 1072;
var viewHeight = 330;
var sectionId = 'dynsection-0';
</script>
<script xlink:href="svgpan.js"/>
<svg id="graph" class="graph">
<g id="viewport">
<title>Modules/Skeleton/test/testQcSkeleton.cxx</title>
<!-- Node1 -->
<g id="node1" class="node"><title>Node1</title>
<polygon fill="#bfbfbf" stroke="black" points="297.028,-291.5 297.028,-321.5 411.028,-321.5 411.028,-291.5 297.028,-291.5"/>
<text text-anchor="start" x="305.028" y="-309.5" font-family="Helvetica,sans-Serif" font-size="10.00">Modules/Skeleton/test</text>
<text text-anchor="middle" x="354.028" y="-298.5" font-family="Helvetica,sans-Serif" font-size="10.00">/testQcSkeleton.cxx</text>
</g>
<!-- Node2 -->
<g id="node2" class="node"><title>Node2</title>
<g id="a_node2"><a xlink:href="SkeletonTask_8h.html" target="_top" xlink:title="Skeleton/SkeletonTask.h">
<polygon fill="none" stroke="black" points="291.028,-235.5 291.028,-254.5 417.028,-254.5 417.028,-235.5 291.028,-235.5"/>
<text text-anchor="middle" x="354.028" y="-242.5" font-family="Helvetica,sans-Serif" font-size="10.00">Skeleton/SkeletonTask.h</text>
</a>
</g>
</g>
<!-- Node1&#45;&gt;Node2 -->
<g id="edge1" class="edge"><title>Node1&#45;&gt;Node2</title>
<path fill="none" stroke="midnightblue" d="M354.028,-291.399C354.028,-283.466 354.028,-273.458 354.028,-264.858"/>
<polygon fill="midnightblue" stroke="midnightblue" points="357.528,-264.658 354.028,-254.658 350.528,-264.658 357.528,-264.658"/>
</g>
<!-- Node24 -->
<g id="node24" class="node"><title>Node24</title>
<g id="a_node24"><a xlink:href="TaskFactory_8h.html" target="_top" xlink:title="QualityControl/TaskFactory.h">
<polygon fill="none" stroke="black" points="10.5276,-235.5 10.5276,-254.5 155.528,-254.5 155.528,-235.5 10.5276,-235.5"/>
<text text-anchor="middle" x="83.0276" y="-242.5" font-family="Helvetica,sans-Serif" font-size="10.00">QualityControl/TaskFactory.h</text>
</a>
</g>
</g>
<!-- Node1&#45;&gt;Node24 -->
<g id="edge29" class="edge"><title>Node1&#45;&gt;Node24</title>
<path fill="none" stroke="midnightblue" d="M296.887,-292.954C247.842,-282.186 177.93,-266.836 131.556,-256.655"/>
<polygon fill="midnightblue" stroke="midnightblue" points="132.264,-253.227 121.746,-254.501 130.762,-260.064 132.264,-253.227"/>
</g>
<!-- Node25 -->
<g id="node25" class="node"><title>Node25</title>
<polygon fill="none" stroke="#bfbfbf" points="435.528,-235.5 435.528,-254.5 554.528,-254.5 554.528,-235.5 435.528,-235.5"/>
<text text-anchor="middle" x="495.028" y="-242.5" font-family="Helvetica,sans-Serif" font-size="10.00">boost/test/unit_test.hpp</text>
</g>
<!-- Node1&#45;&gt;Node25 -->
<g id="edge33" class="edge"><title>Node1&#45;&gt;Node25</title>
<path fill="none" stroke="midnightblue" d="M387.443,-291.399C410.994,-281.461 442.265,-268.265 465.021,-258.662"/>
<polygon fill="midnightblue" stroke="midnightblue" points="466.658,-261.77 474.511,-254.658 463.937,-255.321 466.658,-261.77"/>
</g>
<!-- Node3 -->
<g id="node3" class="node"><title>Node3</title>
<g id="a_node3"><a xlink:href="TaskInterface_8h.html" target="_top" xlink:title="QualityControl/TaskInterface.h">
<polygon fill="none" stroke="black" points="338.028,-179.5 338.028,-198.5 488.028,-198.5 488.028,-179.5 338.028,-179.5"/>
<text text-anchor="middle" x="413.028" y="-186.5" font-family="Helvetica,sans-Serif" font-size="10.00">QualityControl/TaskInterface.h</text>
</a>
</g>
</g>
<!-- Node2&#45;&gt;Node3 -->
<g id="edge2" class="edge"><title>Node2&#45;&gt;Node3</title>
<path fill="none" stroke="midnightblue" d="M363.507,-235.324C372.229,-227.341 385.371,-215.313 395.925,-205.653"/>
<polygon fill="midnightblue" stroke="midnightblue" points="398.362,-208.167 403.376,-198.834 393.636,-203.004 398.362,-208.167"/>
</g>
<!-- Node4 -->
<g id="node4" class="node"><title>Node4</title>
<polygon fill="none" stroke="#bfbfbf" points="944.528,-0.5 944.528,-19.5 979.528,-19.5 979.528,-0.5 944.528,-0.5"/>
<text text-anchor="middle" x="962.028" y="-7.5" font-family="Helvetica,sans-Serif" font-size="10.00">map</text>
</g>
<!-- Node3&#45;&gt;Node4 -->
<g id="edge3" class="edge"><title>Node3&#45;&gt;Node4</title>
<path fill="none" stroke="midnightblue" d="M488.304,-187.866C646.594,-186.842 1002.63,-180.363 1042.03,-143 1070.17,-116.306 1069.2,-89.137 1049.03,-56 1036.17,-34.8745 1009.84,-23.2288 989.502,-17.1098"/>
<polygon fill="midnightblue" stroke="midnightblue" points="990.366,-13.7177 979.797,-14.4626 988.524,-20.4709 990.366,-13.7177"/>
</g>
<!-- Node5 -->
<g id="node5" class="node"><title>Node5</title>
<polygon fill="none" stroke="#bfbfbf" points="32.0276,-62 32.0276,-81 84.0276,-81 84.0276,-62 32.0276,-62"/>
<text text-anchor="middle" x="58.0276" y="-69" font-family="Helvetica,sans-Serif" font-size="10.00">memory</text>
</g>
<!-- Node3&#45;&gt;Node5 -->
<g id="edge4" class="edge"><title>Node3&#45;&gt;Node5</title>
<path fill="none" stroke="midnightblue" d="M337.812,-186.747C252.383,-183.813 119.913,-174.198 82.0276,-143 66.6198,-130.312 61.0673,-107.29 59.0869,-91.0106"/>
<polygon fill="midnightblue" stroke="midnightblue" points="62.5717,-90.6828 58.2094,-81.0277 55.5986,-91.2958 62.5717,-90.6828"/>
</g>
<!-- Node6 -->
<g id="node6" class="node"><title>Node6</title>
<polygon fill="none" stroke="#bfbfbf" points="153.528,-0.5 153.528,-19.5 194.528,-19.5 194.528,-0.5 153.528,-0.5"/>
<text text-anchor="middle" x="174.028" y="-7.5" font-family="Helvetica,sans-Serif" font-size="10.00">string</text>
</g>
<!-- Node3&#45;&gt;Node6 -->
<g id="edge5" class="edge"><title>Node3&#45;&gt;Node6</title>
<path fill="none" stroke="midnightblue" d="M338.026,-185.197C249.611,-180.719 109.002,-169.565 64.0276,-143 27.2231,-121.261 -2.5196,-90.271 23.0276,-56 50.6597,-18.9323 107.624,-11.1952 143.145,-10.2168"/>
<polygon fill="midnightblue" stroke="midnightblue" points="143.463,-13.7137 153.424,-10.1052 143.387,-6.71409 143.463,-13.7137"/>
</g>
<!-- Node7 -->
<g id="node7" class="node"><title>Node7</title>
<polygon fill="none" stroke="#bfbfbf" points="214.528,-0.5 214.528,-19.5 297.528,-19.5 297.528,-0.5 214.528,-0.5"/>
<text text-anchor="middle" x="256.028" y="-7.5" font-family="Helvetica,sans-Serif" font-size="10.00">unordered_map</text>
</g>
<!-- Node3&#45;&gt;Node7 -->
<g id="edge6" class="edge"><title>Node3&#45;&gt;Node7</title>
<path fill="none" stroke="midnightblue" d="M488.106,-187.699C622.426,-185.847 885.54,-175.577 837.028,-123 769.449,-49.7595 485.286,-116.273 390.028,-87 345.856,-73.4258 300.269,-43.5548 275.299,-25.5687"/>
<polygon fill="midnightblue" stroke="midnightblue" points="277.205,-22.6267 267.073,-19.5321 273.064,-28.2702 277.205,-22.6267"/>
</g>
<!-- Node8 -->
<g id="node8" class="node"><title>Node8</title>
<polygon fill="none" stroke="#bfbfbf" points="270.528,-123.5 270.528,-142.5 395.528,-142.5 395.528,-123.5 270.528,-123.5"/>
<text text-anchor="middle" x="333.028" y="-130.5" font-family="Helvetica,sans-Serif" font-size="10.00">Framework/InitContext.h</text>
</g>
<!-- Node3&#45;&gt;Node8 -->
<g id="edge7" class="edge"><title>Node3&#45;&gt;Node8</title>
<path fill="none" stroke="midnightblue" d="M400.174,-179.324C387.811,-170.979 368.898,-158.212 354.29,-148.352"/>
<polygon fill="midnightblue" stroke="midnightblue" points="356.096,-145.348 345.849,-142.655 352.179,-151.15 356.096,-145.348"/>
</g>
<!-- Node9 -->
<g id="node9" class="node"><title>Node9</title>
<polygon fill="none" stroke="#bfbfbf" points="414.028,-123.5 414.028,-142.5 574.028,-142.5 574.028,-123.5 414.028,-123.5"/>
<text text-anchor="middle" x="494.028" y="-130.5" font-family="Helvetica,sans-Serif" font-size="10.00">Framework/ProcessingContext.h</text>
</g>
<!-- Node3&#45;&gt;Node9 -->
<g id="edge8" class="edge"><title>Node3&#45;&gt;Node9</title>
<path fill="none" stroke="midnightblue" d="M426.042,-179.324C438.559,-170.979 457.709,-158.212 472.499,-148.352"/>
<polygon fill="midnightblue" stroke="midnightblue" points="474.667,-151.114 481.046,-142.655 470.784,-145.289 474.667,-151.114"/>
</g>
<!-- Node10 -->
<g id="node10" class="node"><title>Node10</title>
<polygon fill="none" stroke="#bfbfbf" points="592.528,-123.5 592.528,-142.5 687.528,-142.5 687.528,-123.5 592.528,-123.5"/>
<text text-anchor="middle" x="640.028" y="-130.5" font-family="Helvetica,sans-Serif" font-size="10.00">CCDB/CcdbApi.h</text>
</g>
<!-- Node3&#45;&gt;Node10 -->
<g id="edge9" class="edge"><title>Node3&#45;&gt;Node10</title>
<path fill="none" stroke="midnightblue" d="M448.996,-179.444C488.347,-170.083 551.514,-155.056 594.342,-144.868"/>
<polygon fill="midnightblue" stroke="midnightblue" points="595.309,-148.236 604.227,-142.516 593.689,-141.426 595.309,-148.236"/>
</g>
<!-- Node11 -->
<g id="node11" class="node"><title>Node11</title>
<g id="a_node11"><a xlink:href="Activity_8h.html" target="_top" xlink:title="QualityControl/Activity.h">
<polygon fill="none" stroke="black" points="705.528,-123.5 705.528,-142.5 828.528,-142.5 828.528,-123.5 705.528,-123.5"/>
<text text-anchor="middle" x="767.028" y="-130.5" font-family="Helvetica,sans-Serif" font-size="10.00">QualityControl/Activity.h</text>
</a>
</g>
</g>
<!-- Node3&#45;&gt;Node11 -->
<g id="edge10" class="edge"><title>Node3&#45;&gt;Node11</title>
<path fill="none" stroke="midnightblue" d="M469.12,-179.444C532.169,-169.826 634.425,-154.228 701.204,-144.041"/>
<polygon fill="midnightblue" stroke="midnightblue" points="701.84,-147.484 711.198,-142.516 700.784,-140.565 701.84,-147.484"/>
</g>
<!-- Node12 -->
<g id="node12" class="node"><title>Node12</title>
<g id="a_node12"><a xlink:href="ObjectsManager_8h.html" target="_top" xlink:title="QualityControl/ObjectsManager.h">
<polygon fill="none" stroke="black" points="91.5276,-123.5 91.5276,-142.5 252.528,-142.5 252.528,-123.5 91.5276,-123.5"/>
<text text-anchor="middle" x="172.028" y="-130.5" font-family="Helvetica,sans-Serif" font-size="10.00">QualityControl/ObjectsManager.h</text>
</a>
</g>
</g>
<!-- Node3&#45;&gt;Node12 -->
<g id="edge11" class="edge"><title>Node3&#45;&gt;Node12</title>
<path fill="none" stroke="midnightblue" d="M374.84,-179.444C332.887,-170.043 265.434,-154.929 219.957,-144.739"/>
<polygon fill="midnightblue" stroke="midnightblue" points="220.559,-141.288 210.036,-142.516 219.029,-148.118 220.559,-141.288"/>
</g>
<!-- Node21 -->
<g id="node21" class="node"><title>Node21</title>
<g id="a_node21"><a xlink:href="QcInfoLogger_8h.html" target="_top" xlink:title="QualityControl/QcInfoLogger.h">
<polygon fill="none" stroke="black" points="884.528,-123.5 884.528,-142.5 1033.53,-142.5 1033.53,-123.5 884.528,-123.5"/>
<text text-anchor="middle" x="959.028" y="-130.5" font-family="Helvetica,sans-Serif" font-size="10.00">QualityControl/QcInfoLogger.h</text>
</a>
</g>
</g>
<!-- Node3&#45;&gt;Node21 -->
<g id="edge26" class="edge"><title>Node3&#45;&gt;Node21</title>
<path fill="none" stroke="midnightblue" d="M488.408,-180.686C579.184,-171.858 736.278,-156.51 871.028,-143 871.964,-142.906 872.905,-142.812 873.851,-142.717"/>
<polygon fill="midnightblue" stroke="midnightblue" points="874.539,-146.165 884.137,-141.68 873.837,-139.2 874.539,-146.165"/>
</g>
<!-- Node12&#45;&gt;Node5 -->
<g id="edge25" class="edge"><title>Node12&#45;&gt;Node5</title>
<path fill="none" stroke="midnightblue" d="M155.694,-123.475C136.816,-113.622 105.521,-97.2883 83.452,-85.7697"/>
<polygon fill="midnightblue" stroke="midnightblue" points="84.8154,-82.5333 74.3308,-81.0091 81.5765,-88.7389 84.8154,-82.5333"/>
</g>
<!-- Node12&#45;&gt;Node6 -->
<g id="edge24" class="edge"><title>Node12&#45;&gt;Node6</title>
<path fill="none" stroke="midnightblue" d="M201.908,-123.387C219.567,-116.587 240.478,-105.15 251.028,-87 257.951,-75.0882 257.885,-67.9501 251.028,-56 240.978,-38.487 221.186,-27.1393 204.186,-20.2201"/>
<polygon fill="midnightblue" stroke="midnightblue" points="205.186,-16.8577 194.593,-16.6448 202.741,-23.4169 205.186,-16.8577"/>
</g>
<!-- Node13 -->
<g id="node13" class="node"><title>Node13</title>
<g id="a_node13"><a xlink:href="MonitorObject_8h.html" target="_top" xlink:title="QualityControl/MonitorObject.h">
<polygon fill="none" stroke="black" points="560.528,-62 560.528,-81 711.528,-81 711.528,-62 560.528,-62"/>
<text text-anchor="middle" x="636.028" y="-69" font-family="Helvetica,sans-Serif" font-size="10.00">QualityControl/MonitorObject.h</text>
</a>
</g>
</g>
<!-- Node12&#45;&gt;Node13 -->
<g id="edge12" class="edge"><title>Node12&#45;&gt;Node13</title>
<path fill="none" stroke="midnightblue" d="M252.771,-123.615C329.607,-115.351 448.396,-101.837 551.028,-87 559.855,-85.7239 569.177,-84.2564 578.286,-82.7557"/>
<polygon fill="midnightblue" stroke="midnightblue" points="579.157,-86.1588 588.442,-81.0558 578.001,-79.2548 579.157,-86.1588"/>
</g>
<!-- Node17 -->
<g id="node17" class="node"><title>Node17</title>
<g id="a_node17"><a xlink:href="MonitorObjectCollection_8h.html" target="_top" xlink:title="QualityControl/MonitorObject\lCollection.h">
<polygon fill="none" stroke="black" points="399.528,-56.5 399.528,-86.5 542.528,-86.5 542.528,-56.5 399.528,-56.5"/>
<text text-anchor="start" x="407.528" y="-74.5" font-family="Helvetica,sans-Serif" font-size="10.00">QualityControl/MonitorObject</text>
<text text-anchor="middle" x="471.028" y="-63.5" font-family="Helvetica,sans-Serif" font-size="10.00">Collection.h</text>
</a>
</g>
</g>
<!-- Node12&#45;&gt;Node17 -->
<g id="edge18" class="edge"><title>Node12&#45;&gt;Node17</title>
<path fill="none" stroke="midnightblue" d="M214.867,-123.475C260.566,-114.381 334.01,-99.766 390.565,-88.5118"/>
<polygon fill="midnightblue" stroke="midnightblue" points="391.435,-91.9074 400.559,-86.523 390.068,-85.0421 391.435,-91.9074"/>
</g>
<!-- Node20 -->
<g id="node20" class="node"><title>Node20</title>
<g id="a_node20"><a xlink:href="TaskConfig_8h.html" target="_top" xlink:title="QualityControl/TaskConfig.h">
<polygon fill="none" stroke="black" points="102.028,-62 102.028,-81 242.028,-81 242.028,-62 102.028,-62"/>
<text text-anchor="middle" x="172.028" y="-69" font-family="Helvetica,sans-Serif" font-size="10.00">QualityControl/TaskConfig.h</text>
</a>
</g>
</g>
<!-- Node12&#45;&gt;Node20 -->
<g id="edge21" class="edge"><title>Node12&#45;&gt;Node20</title>
<path fill="none" stroke="midnightblue" d="M172.028,-123.475C172.028,-115.08 172.028,-101.981 172.028,-91.1631"/>
<polygon fill="midnightblue" stroke="midnightblue" points="175.528,-91.0091 172.028,-81.0091 168.528,-91.0091 175.528,-91.0091"/>
</g>
<!-- Node13&#45;&gt;Node4 -->
<g id="edge14" class="edge"><title>Node13&#45;&gt;Node4</title>
<path fill="none" stroke="midnightblue" d="M682.735,-61.9751C751.707,-49.3868 878.641,-26.2193 934.461,-16.0314"/>
<polygon fill="midnightblue" stroke="midnightblue" points="935.123,-19.4684 944.332,-14.2297 933.866,-12.5821 935.123,-19.4684"/>
</g>
<!-- Node13&#45;&gt;Node6 -->
<g id="edge13" class="edge"><title>Node13&#45;&gt;Node6</title>
<path fill="none" stroke="midnightblue" d="M589.348,-61.9732C576.92,-59.8575 563.486,-57.7089 551.028,-56 397.854,-34.9894 356.762,-49.6717 205.028,-20 204.815,-19.9583 204.601,-19.9158 204.386,-19.8726"/>
<polygon fill="midnightblue" stroke="midnightblue" points="205.119,-16.4491 194.579,-17.5232 203.488,-23.2565 205.119,-16.4491"/>
</g>
<!-- Node14 -->
<g id="node14" class="node"><title>Node14</title>
<polygon fill="none" stroke="#bfbfbf" points="687.028,-0.5 687.028,-19.5 743.028,-19.5 743.028,-0.5 687.028,-0.5"/>
<text text-anchor="middle" x="715.028" y="-7.5" font-family="Helvetica,sans-Serif" font-size="10.00">Rtypes.h</text>
</g>
<!-- Node13&#45;&gt;Node14 -->
<g id="edge15" class="edge"><title>Node13&#45;&gt;Node14</title>
<path fill="none" stroke="midnightblue" d="M647.346,-61.9751C659.9,-52.5199 680.379,-37.0961 695.527,-25.6871"/>
<polygon fill="midnightblue" stroke="midnightblue" points="697.848,-28.321 703.73,-19.5091 693.636,-22.7295 697.848,-28.321"/>
</g>
<!-- Node15 -->
<g id="node15" class="node"><title>Node15</title>
<polygon fill="none" stroke="#bfbfbf" points="761.528,-0.5 761.528,-19.5 820.528,-19.5 820.528,-0.5 761.528,-0.5"/>
<text text-anchor="middle" x="791.028" y="-7.5" font-family="Helvetica,sans-Serif" font-size="10.00">TObject.h</text>
</g>
<!-- Node13&#45;&gt;Node15 -->
<g id="edge16" class="edge"><title>Node13&#45;&gt;Node15</title>
<path fill="none" stroke="midnightblue" d="M658.235,-61.9751C684.708,-51.8129 729.141,-34.7564 759.247,-23.1996"/>
<polygon fill="midnightblue" stroke="midnightblue" points="760.78,-26.3604 768.861,-19.5091 758.271,-19.8254 760.78,-26.3604"/>
</g>
<!-- Node16 -->
<g id="node16" class="node"><title>Node16</title>
<polygon fill="none" stroke="#bfbfbf" points="553.028,-0.5 553.028,-19.5 669.028,-19.5 669.028,-0.5 553.028,-0.5"/>
<text text-anchor="middle" x="611.028" y="-7.5" font-family="Helvetica,sans-Serif" font-size="10.00">Common/Exceptions.h</text>
</g>
<!-- Node13&#45;&gt;Node16 -->
<g id="edge17" class="edge"><title>Node13&#45;&gt;Node16</title>
<path fill="none" stroke="midnightblue" d="M632.446,-61.9751C628.844,-53.4035 623.182,-39.9269 618.584,-28.983"/>
<polygon fill="midnightblue" stroke="midnightblue" points="621.703,-27.3726 614.603,-19.5091 615.25,-30.0842 621.703,-27.3726"/>
</g>
<!-- Node18 -->
<g id="node18" class="node"><title>Node18</title>
<polygon fill="none" stroke="#bfbfbf" points="319.528,-0.5 319.528,-19.5 388.528,-19.5 388.528,-0.5 319.528,-0.5"/>
<text text-anchor="middle" x="354.028" y="-7.5" font-family="Helvetica,sans-Serif" font-size="10.00">TObjArray.h</text>
</g>
<!-- Node17&#45;&gt;Node18 -->
<g id="edge19" class="edge"><title>Node17&#45;&gt;Node18</title>
<path fill="none" stroke="midnightblue" d="M443.3,-56.3993C424.196,-46.6837 398.969,-33.8551 380.208,-24.3137"/>
<polygon fill="midnightblue" stroke="midnightblue" points="381.552,-21.071 371.052,-19.6578 378.379,-27.3106 381.552,-21.071"/>
</g>
<!-- Node19 -->
<g id="node19" class="node"><title>Node19</title>
<polygon fill="none" stroke="#bfbfbf" points="407.028,-0.5 407.028,-19.5 535.028,-19.5 535.028,-0.5 407.028,-0.5"/>
<text text-anchor="middle" x="471.028" y="-7.5" font-family="Helvetica,sans-Serif" font-size="10.00">Mergers/MergeInterface.h</text>
</g>
<!-- Node17&#45;&gt;Node19 -->
<g id="edge20" class="edge"><title>Node17&#45;&gt;Node19</title>
<path fill="none" stroke="midnightblue" d="M471.028,-56.3993C471.028,-48.4664 471.028,-38.458 471.028,-29.8583"/>
<polygon fill="midnightblue" stroke="midnightblue" points="474.528,-29.6577 471.028,-19.6578 467.528,-29.6578 474.528,-29.6577"/>
</g>
<!-- Node20&#45;&gt;Node6 -->
<g id="edge22" class="edge"><title>Node20&#45;&gt;Node6</title>
<path fill="none" stroke="midnightblue" d="M172.314,-61.9751C172.596,-53.5803 173.037,-40.4806 173.4,-29.6631"/>
<polygon fill="midnightblue" stroke="midnightblue" points="176.904,-29.6211 173.742,-19.5091 169.908,-29.3858 176.904,-29.6211"/>
</g>
<!-- Node20&#45;&gt;Node7 -->
<g id="edge23" class="edge"><title>Node20&#45;&gt;Node7</title>
<path fill="none" stroke="midnightblue" d="M184.063,-61.9751C197.536,-52.4315 219.594,-36.8073 235.743,-25.3683"/>
<polygon fill="midnightblue" stroke="midnightblue" points="237.878,-28.1454 244.015,-19.5091 233.831,-22.4332 237.878,-28.1454"/>
</g>
<!-- Node22 -->
<g id="node22" class="node"><title>Node22</title>
<polygon fill="none" stroke="#bfbfbf" points="730.028,-62 730.028,-81 860.028,-81 860.028,-62 730.028,-62"/>
<text text-anchor="middle" x="795.028" y="-69" font-family="Helvetica,sans-Serif" font-size="10.00">InfoLogger/InfoLogger.hxx</text>
</g>
<!-- Node21&#45;&gt;Node22 -->
<g id="edge27" class="edge"><title>Node21&#45;&gt;Node22</title>
<path fill="none" stroke="midnightblue" d="M935.53,-123.475C907.399,-113.269 860.098,-96.108 828.239,-84.5492"/>
<polygon fill="midnightblue" stroke="midnightblue" points="829.075,-81.1295 818.481,-81.0091 826.688,-87.7098 829.075,-81.1295"/>
</g>
<!-- Node23 -->
<g id="node23" class="node"><title>Node23</title>
<polygon fill="none" stroke="#bfbfbf" points="878.028,-62 878.028,-81 1040.03,-81 1040.03,-62 878.028,-62"/>
<text text-anchor="middle" x="959.028" y="-69" font-family="Helvetica,sans-Serif" font-size="10.00">InfoLogger/InfoLoggerMacros.hxx</text>
</g>
<!-- Node21&#45;&gt;Node23 -->
<g id="edge28" class="edge"><title>Node21&#45;&gt;Node23</title>
<path fill="none" stroke="midnightblue" d="M959.028,-123.475C959.028,-115.08 959.028,-101.981 959.028,-91.1631"/>
<polygon fill="midnightblue" stroke="midnightblue" points="962.528,-91.0091 959.028,-81.0091 955.528,-91.0091 962.528,-91.0091"/>
</g>
<!-- Node24&#45;&gt;Node3 -->
<g id="edge32" class="edge"><title>Node24&#45;&gt;Node3</title>
<path fill="none" stroke="midnightblue" d="M135.317,-235.444C193.85,-225.865 288.633,-210.356 350.898,-200.167"/>
<polygon fill="midnightblue" stroke="midnightblue" points="351.679,-203.585 360.983,-198.516 350.549,-196.677 351.679,-203.585"/>
</g>
<!-- Node24&#45;&gt;Node5 -->
<g id="edge30" class="edge"><title>Node24&#45;&gt;Node5</title>
<path fill="none" stroke="midnightblue" d="M57.5232,-235.472C41.0408,-228.478 20.8888,-216.792 11.0276,-199 -5.34677,-169.457 -1.33663,-154.433 11.0276,-123 16.4934,-109.104 27.7825,-96.7661 37.9266,-87.7639"/>
<polygon fill="midnightblue" stroke="midnightblue" points="40.2462,-90.3868 45.6834,-81.2935 35.7623,-85.0114 40.2462,-90.3868"/>
</g>
<!-- Node24&#45;&gt;Node20 -->
<g id="edge31" class="edge"><title>Node24&#45;&gt;Node20</title>
<path fill="none" stroke="midnightblue" d="M80.1459,-235.321C73.7339,-214.323 60.4788,-159.801 82.0276,-123 92.7438,-104.699 112.791,-92.5256 131.25,-84.7257"/>
<polygon fill="midnightblue" stroke="midnightblue" points="132.657,-87.9335 140.7,-81.0362 130.112,-81.4128 132.657,-87.9335"/>
</g>
</g>
</svg>
        <g id="navigator" transform="translate(0 0)" fill="#404254">
                <rect fill="#f2f5e9" fill-opacity="0.5" stroke="#606060" stroke-width=".5" x="0" y="0" width="60" height="60"/>
                <use id="zoomplus" xlink:href="#zoomPlus" x="17" y="9" onmousedown="handleZoom(evt,'in')"/>
                <use id="zoomminus" xlink:href="#zoomMin" x="42" y="9" onmousedown="handleZoom(evt,'out')"/>
                <use id="reset" xlink:href="#resetDef" x="30" y="36" onmousedown="handleReset()"/>
                <g id="arrowUp" xlink:href="#dirArrow" transform="translate(30 24)" onmousedown="handlePan(0,-1)">
                  <use xlink:href="#rim" fill="#404040">
                        <set attributeName="fill" to="#808080" begin="arrowUp.mouseover" end="arrowUp.mouseout"/>
                  </use>
                  <path fill="none" stroke="white" stroke-width="1.5" d="M0,-3.0v7 M-2.5,-0.5L0,-3.0L2.5,-0.5"/>
                </g>
                <g id="arrowRight" xlink:href="#dirArrow" transform="rotate(90) translate(36 -43)" onmousedown="handlePan(1,0)">
                  <use xlink:href="#rim" fill="#404040">
                        <set attributeName="fill" to="#808080" begin="arrowRight.mouseover" end="arrowRight.mouseout"/>
                  </use>
                  <path fill="none" stroke="white" stroke-width="1.5" d="M0,-3.0v7 M-2.5,-0.5L0,-3.0L2.5,-0.5"/>
                </g>
                <g id="arrowDown" xlink:href="#dirArrow" transform="rotate(180) translate(-30 -48)" onmousedown="handlePan(0,1)">
                  <use xlink:href="#rim" fill="#404040">
                        <set attributeName="fill" to="#808080" begin="arrowDown.mouseover" end="arrowDown.mouseout"/>
                  </use>
                  <path fill="none" stroke="white" stroke-width="1.5" d="M0,-3.0v7 M-2.5,-0.5L0,-3.0L2.5,-0.5"/>
                </g>
                <g id="arrowLeft" xlink:href="#dirArrow" transform="rotate(270) translate(-36 17)" onmousedown="handlePan(-1,0)">
                  <use xlink:href="#rim" fill="#404040">
                        <set attributeName="fill" to="#808080" begin="arrowLeft.mouseover" end="arrowLeft.mouseout"/>
                  </use>
                  <path fill="none" stroke="white" stroke-width="1.5" d="M0,-3.0v7 M-2.5,-0.5L0,-3.0L2.5,-0.5"/>
                </g>
        </g>
        <svg viewBox="0 0 15 15" width="100%" height="30px" preserveAspectRatio="xMaxYMin meet">
         <g id="arrow_out" transform="scale(0.3 0.3)">
          <a xlink:href="testQcSkeleton_8cxx__incl_org.svg" target="_base">
           <rect id="button" ry="5" rx="5" y="6" x="6" height="38" width="38"
                fill="#f2f5e9" fill-opacity="0.5" stroke="#606060" stroke-width="1.0"/>
           <path id="arrow"
             d="M 11.500037,31.436501 C 11.940474,20.09759 22.043105,11.32322 32.158766,21.979434 L 37.068811,17.246167 C 37.068811,17.246167 37.088388,32 37.088388,32 L 22.160133,31.978069 C 22.160133,31.978069 26.997745,27.140456 26.997745,27.140456 C 18.528582,18.264221 13.291696,25.230495 11.500037,31.436501 z"
             style="fill:#404040;"/>
          </a>
         </g>
        </svg>
</svg>
