<?xml version="1.0" encoding="UTF-8" standalone="no"?>
<!DOCTYPE svg PUBLIC "-//W3C//DTD SVG 1.1//EN"
 "http://www.w3.org/Graphics/SVG/1.1/DTD/svg11.dtd">
<!-- Generated by graphviz version 2.38.0 (20140413.2041)
 -->
<!-- Title: Framework/test/testTriggerHelpers.cxx Pages: 1 -->
<svg width="406pt" height="229pt"
 viewBox="0.00 0.00 406.00 229.00" xmlns="http://www.w3.org/2000/svg" xmlns:xlink="http://www.w3.org/1999/xlink">
<g id="graph0" class="graph" transform="scale(1 1) rotate(0) translate(4 225)">
<title>Framework/test/testTriggerHelpers.cxx</title>
<!-- Node1 -->
<g id="node1" class="node"><title>Node1</title>
<polygon fill="#bfbfbf" stroke="black" points="183.5,-190.5 183.5,-220.5 317.5,-220.5 317.5,-190.5 183.5,-190.5"/>
<text text-anchor="start" x="191.5" y="-208.5" font-family="Helvetica,sans-Serif" font-size="10.00">Framework/test/testTrigger</text>
<text text-anchor="middle" x="250.5" y="-197.5" font-family="Helvetica,sans-Serif" font-size="10.00">Helpers.cxx</text>
</g>
<!-- Node2 -->
<g id="node2" class="node"><title>Node2</title>
<g id="a_node2"><a xlink:href="TriggerHelpers_8h.html" target="_top" xlink:title="QualityControl/TriggerHelpers.h">
<polygon fill="none" stroke="black" points="68.5,-134.5 68.5,-153.5 222.5,-153.5 222.5,-134.5 68.5,-134.5"/>
<text text-anchor="middle" x="145.5" y="-141.5" font-family="Helvetica,sans-Serif" font-size="10.00">QualityControl/TriggerHelpers.h</text>
</a>
</g>
</g>
<!-- Node1&#45;&gt;Node2 -->
<g id="edge1" class="edge"><title>Node1&#45;&gt;Node2</title>
<path fill="none" stroke="midnightblue" d="M225.616,-190.399C208.786,-180.862 186.661,-168.325 169.927,-158.842"/>
<polygon fill="midnightblue" stroke="midnightblue" points="171.204,-155.543 160.778,-153.658 167.753,-161.633 171.204,-155.543"/>
</g>
<!-- Node7 -->
<g id="node7" class="node"><title>Node7</title>
<g id="a_node7"><a xlink:href="PostProcessingConfig_8h.html" target="_top" xlink:title="QualityControl/PostProcessing\lConfig.h">
<polygon fill="none" stroke="black" points="175,-67.5 175,-97.5 326,-97.5 326,-67.5 175,-67.5"/>
<text text-anchor="start" x="183" y="-85.5" font-family="Helvetica,sans-Serif" font-size="10.00">QualityControl/PostProcessing</text>
<text text-anchor="middle" x="250.5" y="-74.5" font-family="Helvetica,sans-Serif" font-size="10.00">Config.h</text>
</a>
</g>
</g>
<!-- Node1&#45;&gt;Node7 -->
<g id="edge10" class="edge"><title>Node1&#45;&gt;Node7</title>
<path fill="none" stroke="midnightblue" d="M250.5,-190.145C250.5,-169.859 250.5,-132.533 250.5,-107.862"/>
<polygon fill="midnightblue" stroke="midnightblue" points="254,-107.837 250.5,-97.8368 247,-107.837 254,-107.837"/>
</g>
<!-- Node10 -->
<g id="node10" class="node"><title>Node10</title>
<polygon fill="none" stroke="#bfbfbf" points="279,-134.5 279,-153.5 398,-153.5 398,-134.5 279,-134.5"/>
<text text-anchor="middle" x="338.5" y="-141.5" font-family="Helvetica,sans-Serif" font-size="10.00">boost/test/unit_test.hpp</text>
</g>
<!-- Node1&#45;&gt;Node10 -->
<g id="edge11" class="edge"><title>Node1&#45;&gt;Node10</title>
<path fill="none" stroke="midnightblue" d="M271.355,-190.399C285.197,-181.04 303.311,-168.792 317.236,-159.377"/>
<polygon fill="midnightblue" stroke="midnightblue" points="319.372,-162.158 325.695,-153.658 315.451,-156.36 319.372,-162.158"/>
</g>
<!-- Node3 -->
<g id="node3" class="node"><title>Node3</title>
<g id="a_node3"><a xlink:href="Triggers_8h.html" target="_top" xlink:title="QualityControl/Triggers.h">
<polygon fill="none" stroke="black" points="32,-73 32,-92 157,-92 157,-73 32,-73"/>
<text text-anchor="middle" x="94.5" y="-80" font-family="Helvetica,sans-Serif" font-size="10.00">QualityControl/Triggers.h</text>
</a>
</g>
</g>
<!-- Node2&#45;&gt;Node3 -->
<g id="edge2" class="edge"><title>Node2&#45;&gt;Node3</title>
<path fill="none" stroke="midnightblue" d="M138.193,-134.475C130.467,-125.462 118.092,-111.025 108.482,-99.8118"/>
<polygon fill="midnightblue" stroke="midnightblue" points="110.959,-97.3239 101.794,-92.0091 105.644,-101.879 110.959,-97.3239"/>
</g>
<!-- Node2&#45;&gt;Node7 -->
<g id="edge6" class="edge"><title>Node2&#45;&gt;Node7</title>
<path fill="none" stroke="midnightblue" d="M160.544,-134.475C175.163,-126.191 197.869,-113.325 216.81,-102.591"/>
<polygon fill="midnightblue" stroke="midnightblue" points="218.779,-105.498 225.754,-97.523 215.328,-99.4081 218.779,-105.498"/>
</g>
<!-- Node4 -->
<g id="node4" class="node"><title>Node4</title>
<polygon fill="none" stroke="#bfbfbf" points="148,-6 148,-25 189,-25 189,-6 148,-6"/>
<text text-anchor="middle" x="168.5" y="-13" font-family="Helvetica,sans-Serif" font-size="10.00">string</text>
</g>
<!-- Node3&#45;&gt;Node4 -->
<g id="edge3" class="edge"><title>Node3&#45;&gt;Node4</title>
<path fill="none" stroke="midnightblue" d="M104.48,-72.7338C116.352,-62.3055 136.385,-44.7088 150.884,-31.9732"/>
<polygon fill="midnightblue" stroke="midnightblue" points="153.475,-34.3564 158.678,-25.1273 148.855,-29.0971 153.475,-34.3564"/>
</g>
<!-- Node5 -->
<g id="node5" class="node"><title>Node5</title>
<polygon fill="none" stroke="#bfbfbf" points="0,-6 0,-25 59,-25 59,-6 0,-6"/>
<text text-anchor="middle" x="29.5" y="-13" font-family="Helvetica,sans-Serif" font-size="10.00">functional</text>
</g>
<!-- Node3&#45;&gt;Node5 -->
<g id="edge4" class="edge"><title>Node3&#45;&gt;Node5</title>
<path fill="none" stroke="midnightblue" d="M85.7338,-72.7338C75.403,-62.403 58.0371,-45.0371 45.3315,-32.3315"/>
<polygon fill="midnightblue" stroke="midnightblue" points="47.6733,-29.7235 38.1273,-25.1273 42.7235,-34.6733 47.6733,-29.7235"/>
</g>
<!-- Node6 -->
<g id="node6" class="node"><title>Node6</title>
<polygon fill="none" stroke="#bfbfbf" points="77,-6 77,-25 122,-25 122,-6 77,-6"/>
<text text-anchor="middle" x="99.5" y="-13" font-family="Helvetica,sans-Serif" font-size="10.00">iosfwd</text>
</g>
<!-- Node3&#45;&gt;Node6 -->
<g id="edge5" class="edge"><title>Node3&#45;&gt;Node6</title>
<path fill="none" stroke="midnightblue" d="M95.1743,-72.7338C95.909,-63.1826 97.1063,-47.6183 98.0552,-35.2829"/>
<polygon fill="midnightblue" stroke="midnightblue" points="101.559,-35.3663 98.8364,-25.1273 94.5796,-34.8294 101.559,-35.3663"/>
</g>
<!-- Node7&#45;&gt;Node4 -->
<g id="edge8" class="edge"><title>Node7&#45;&gt;Node4</title>
<path fill="none" stroke="midnightblue" d="M232.707,-67.396C219.415,-56.8597 201.271,-42.4771 187.661,-31.6886"/>
<polygon fill="midnightblue" stroke="midnightblue" points="189.479,-28.6637 179.468,-25.1945 185.131,-34.1493 189.479,-28.6637"/>
</g>
<!-- Node8 -->
<g id="node8" class="node"><title>Node8</title>
<polygon fill="none" stroke="#bfbfbf" points="211.5,-6 211.5,-25 255.5,-25 255.5,-6 211.5,-6"/>
<text text-anchor="middle" x="233.5" y="-13" font-family="Helvetica,sans-Serif" font-size="10.00">vector</text>
</g>
<!-- Node7&#45;&gt;Node8 -->
<g id="edge7" class="edge"><title>Node7&#45;&gt;Node8</title>
<path fill="none" stroke="midnightblue" d="M246.811,-67.396C244.344,-57.9635 241.071,-45.4484 238.388,-35.1891"/>
<polygon fill="midnightblue" stroke="midnightblue" points="241.69,-33.9835 235.774,-25.1945 234.918,-35.7548 241.69,-33.9835"/>
</g>
<!-- Node9 -->
<g id="node9" class="node"><title>Node9</title>
<polygon fill="none" stroke="#bfbfbf" points="274,-0.5 274,-30.5 375,-30.5 375,-0.5 274,-0.5"/>
<text text-anchor="start" x="282" y="-18.5" font-family="Helvetica,sans-Serif" font-size="10.00">boost/property_tree</text>
<text text-anchor="middle" x="324.5" y="-7.5" font-family="Helvetica,sans-Serif" font-size="10.00">/ptree_fwd.hpp</text>
</g>
<!-- Node7&#45;&gt;Node9 -->
<g id="edge9" class="edge"><title>Node7&#45;&gt;Node9</title>
<path fill="none" stroke="midnightblue" d="M266.557,-67.396C276.545,-58.6227 289.569,-47.1827 300.739,-37.3714"/>
<polygon fill="midnightblue" stroke="midnightblue" points="303.271,-39.8056 308.474,-30.5765 298.651,-34.5463 303.271,-39.8056"/>
</g>
</g>
</svg>
