<?xml version="1.0" encoding="UTF-8" standalone="no"?>
<!DOCTYPE svg PUBLIC "-//W3C//DTD SVG 1.1//EN"
 "http://www.w3.org/Graphics/SVG/1.1/DTD/svg11.dtd">
<!-- Generated by graphviz version 2.38.0 (20140413.2041)
 -->
<!-- Title: Framework/test/testTaskRunner.cxx Pages: 1 -->
<!--zoomable 341 -->
<svg id="main" version="1.1" xmlns="http://www.w3.org/2000/svg" xmlns:xlink="http://www.w3.org/1999/xlink" xml:space="preserve" onload="init(evt)">
<style type="text/css"><![CDATA[
.edge:hover path { stroke: red; }
.edge:hover polygon { stroke: red; fill: red; }
]]></style>
<script type="text/javascript"><![CDATA[
var edges = document.getElementsByTagName('g');
if (edges && edges.length) {
  for (var i=0;i<edges.length;i++) {
    if (edges[i].id.substr(0,4)=='edge') {
      edges[i].setAttribute('class','edge');
    }
  }
}
]]></script>
        <defs>
                <circle id="rim" cx="0" cy="0" r="7"/>
                <circle id="rim2" cx="0" cy="0" r="3.5"/>
                <g id="zoomPlus">
                        <use xlink:href="#rim" fill="#404040">
                                <set attributeName="fill" to="#808080" begin="zoomplus.mouseover" end="zoomplus.mouseout"/>
                        </use>
                        <path d="M-4,0h8M0,-4v8" fill="none" stroke="white" stroke-width="1.5" pointer-events="none"/>
                </g>
                <g id="zoomMin">
                        <use xlink:href="#rim" fill="#404040">
                                <set attributeName="fill" to="#808080" begin="zoomminus.mouseover" end="zoomminus.mouseout"/>
                        </use>
                        <path d="M-4,0h8" fill="none" stroke="white" stroke-width="1.5" pointer-events="none"/>
                </g>
                <g id="dirArrow">
                        <path fill="none" stroke="white" stroke-width="1.5" d="M0,-3.0v7 M-2.5,-0.5L0,-3.0L2.5,-0.5"/>
                </g>
               <g id="resetDef">
                       <use xlink:href="#rim2" fill="#404040">
                               <set attributeName="fill" to="#808080" begin="reset.mouseover" end="reset.mouseout"/>
                       </use>
               </g>
        </defs>

<script type="text/javascript">
var viewWidth = 1399;
var viewHeight = 341;
var sectionId = 'dynsection-0';
</script>
<script xlink:href="svgpan.js"/>
<svg id="graph" class="graph">
<g id="viewport">
<title>Framework/test/testTaskRunner.cxx</title>
<!-- Node1 -->
<g id="node1" class="node"><title>Node1</title>
<polygon fill="#bfbfbf" stroke="black" points="519.5,-313.5 519.5,-332.5 695.5,-332.5 695.5,-313.5 519.5,-313.5"/>
<text text-anchor="middle" x="607.5" y="-320.5" font-family="Helvetica,sans-Serif" font-size="10.00">Framework/test/testTaskRunner.cxx</text>
</g>
<!-- Node2 -->
<g id="node2" class="node"><title>Node2</title>
<polygon fill="none" stroke="#bfbfbf" points="0,-252 0,-271 119,-271 119,-252 0,-252"/>
<text text-anchor="middle" x="59.5" y="-259" font-family="Helvetica,sans-Serif" font-size="10.00">getTestDataDirectory.h</text>
</g>
<!-- Node1&#45;&gt;Node2 -->
<g id="edge1" class="edge"><title>Node1&#45;&gt;Node2</title>
<path fill="none" stroke="midnightblue" d="M519.094,-316.813C422.502,-310.424 263.395,-297.786 127.5,-277 120.363,-275.908 112.849,-274.535 105.524,-273.072"/>
<polygon fill="midnightblue" stroke="midnightblue" points="106.207,-269.639 95.7049,-271.038 104.787,-276.494 106.207,-269.639"/>
</g>
<!-- Node3 -->
<g id="node3" class="node"><title>Node3</title>
<g id="a_node3"><a xlink:href="TaskRunnerFactory_8h.html" target="_top" xlink:title="QualityControl/TaskRunner\lFactory.h">
<polygon fill="none" stroke="black" points="137,-246.5 137,-276.5 272,-276.5 272,-246.5 137,-246.5"/>
<text text-anchor="start" x="145" y="-264.5" font-family="Helvetica,sans-Serif" font-size="10.00">QualityControl/TaskRunner</text>
<text text-anchor="middle" x="204.5" y="-253.5" font-family="Helvetica,sans-Serif" font-size="10.00">Factory.h</text>
</a>
</g>
</g>
<!-- Node1&#45;&gt;Node3 -->
<g id="edge2" class="edge"><title>Node1&#45;&gt;Node3</title>
<path fill="none" stroke="midnightblue" d="M549.76,-313.475C479.566,-303.111 360.806,-285.577 282.519,-274.019"/>
<polygon fill="midnightblue" stroke="midnightblue" points="282.63,-270.498 272.226,-272.499 281.608,-277.422 282.63,-270.498"/>
</g>
<!-- Node7 -->
<g id="node7" class="node"><title>Node7</title>
<g id="a_node7"><a xlink:href="TaskRunner_8h.html" target="_top" xlink:title="QualityControl/TaskRunner.h">
<polygon fill="none" stroke="black" points="456,-252 456,-271 599,-271 599,-252 456,-252"/>
<text text-anchor="middle" x="527.5" y="-259" font-family="Helvetica,sans-Serif" font-size="10.00">QualityControl/TaskRunner.h</text>
</a>
</g>
</g>
<!-- Node1&#45;&gt;Node7 -->
<g id="edge6" class="edge"><title>Node1&#45;&gt;Node7</title>
<path fill="none" stroke="midnightblue" d="M596.038,-313.475C583.325,-304.02 562.587,-288.596 547.247,-277.187"/>
<polygon fill="midnightblue" stroke="midnightblue" points="549.054,-274.169 538.941,-271.009 544.876,-279.785 549.054,-274.169"/>
</g>
<!-- Node34 -->
<g id="node34" class="node"><title>Node34</title>
<polygon fill="none" stroke="#bfbfbf" points="617.5,-252 617.5,-271 757.5,-271 757.5,-252 617.5,-252"/>
<text text-anchor="middle" x="687.5" y="-259" font-family="Helvetica,sans-Serif" font-size="10.00">Framework/DataSpecUtils.h</text>
</g>
<!-- Node1&#45;&gt;Node34 -->
<g id="edge43" class="edge"><title>Node1&#45;&gt;Node34</title>
<path fill="none" stroke="midnightblue" d="M618.962,-313.475C631.675,-304.02 652.413,-288.596 667.753,-277.187"/>
<polygon fill="midnightblue" stroke="midnightblue" points="670.124,-279.785 676.059,-271.009 665.946,-274.169 670.124,-279.785"/>
</g>
<!-- Node35 -->
<g id="node35" class="node"><title>Node35</title>
<polygon fill="none" stroke="#bfbfbf" points="776,-252 776,-271 927,-271 927,-252 776,-252"/>
<text text-anchor="middle" x="851.5" y="-259" font-family="Helvetica,sans-Serif" font-size="10.00">DataSampling/DataSampling.h</text>
</g>
<!-- Node1&#45;&gt;Node35 -->
<g id="edge44" class="edge"><title>Node1&#45;&gt;Node35</title>
<path fill="none" stroke="midnightblue" d="M642.459,-313.475C685.673,-302.937 759.287,-284.986 806.631,-273.441"/>
<polygon fill="midnightblue" stroke="midnightblue" points="807.719,-276.779 816.606,-271.009 806.061,-269.978 807.719,-276.779"/>
</g>
<!-- Node36 -->
<g id="node36" class="node"><title>Node36</title>
<polygon fill="none" stroke="#bfbfbf" points="945,-252 945,-271 1064,-271 1064,-252 945,-252"/>
<text text-anchor="middle" x="1004.5" y="-259" font-family="Helvetica,sans-Serif" font-size="10.00">boost/test/unit_test.hpp</text>
</g>
<!-- Node1&#45;&gt;Node36 -->
<g id="edge45" class="edge"><title>Node1&#45;&gt;Node36</title>
<path fill="none" stroke="midnightblue" d="M680.682,-313.465C747.306,-305.339 848.286,-292.127 935.5,-277 942.226,-275.833 949.295,-274.487 956.24,-273.095"/>
<polygon fill="midnightblue" stroke="midnightblue" points="957.178,-276.475 966.271,-271.037 955.772,-269.618 957.178,-276.475"/>
</g>
<!-- Node4 -->
<g id="node4" class="node"><title>Node4</title>
<polygon fill="none" stroke="#bfbfbf" points="270,-0.5 270,-19.5 311,-19.5 311,-0.5 270,-0.5"/>
<text text-anchor="middle" x="290.5" y="-7.5" font-family="Helvetica,sans-Serif" font-size="10.00">string</text>
</g>
<!-- Node3&#45;&gt;Node4 -->
<g id="edge3" class="edge"><title>Node3&#45;&gt;Node4</title>
<path fill="none" stroke="midnightblue" d="M137.118,-246.445C101.139,-237.428 62.1118,-224.678 51.5,-210 43.4275,-198.835 45.3932,-191.35 51.5,-179 94.3719,-92.2954 206.004,-41.5398 260.157,-21.2899"/>
<polygon fill="midnightblue" stroke="midnightblue" points="261.677,-24.4615 269.878,-17.7533 259.284,-17.8834 261.677,-24.4615"/>
</g>
<!-- Node5 -->
<g id="node5" class="node"><title>Node5</title>
<polygon fill="none" stroke="#bfbfbf" points="60.5,-185 60.5,-204 104.5,-204 104.5,-185 60.5,-185"/>
<text text-anchor="middle" x="82.5" y="-192" font-family="Helvetica,sans-Serif" font-size="10.00">vector</text>
</g>
<!-- Node3&#45;&gt;Node5 -->
<g id="edge4" class="edge"><title>Node3&#45;&gt;Node5</title>
<path fill="none" stroke="midnightblue" d="M178.028,-246.396C157.095,-235.243 128.074,-219.781 107.526,-208.834"/>
<polygon fill="midnightblue" stroke="midnightblue" points="108.938,-205.62 98.467,-204.007 105.647,-211.798 108.938,-205.62"/>
</g>
<!-- Node6 -->
<g id="node6" class="node"><title>Node6</title>
<polygon fill="none" stroke="#bfbfbf" points="122.5,-185 122.5,-204 286.5,-204 286.5,-185 122.5,-185"/>
<text text-anchor="middle" x="204.5" y="-192" font-family="Helvetica,sans-Serif" font-size="10.00">Framework/DataProcessorSpec.h</text>
</g>
<!-- Node3&#45;&gt;Node6 -->
<g id="edge5" class="edge"><title>Node3&#45;&gt;Node6</title>
<path fill="none" stroke="midnightblue" d="M204.5,-246.396C204.5,-237.064 204.5,-224.714 204.5,-214.517"/>
<polygon fill="midnightblue" stroke="midnightblue" points="208,-214.195 204.5,-204.195 201,-214.195 208,-214.195"/>
</g>
<!-- Node7&#45;&gt;Node6 -->
<g id="edge10" class="edge"><title>Node7&#45;&gt;Node6</title>
<path fill="none" stroke="midnightblue" d="M484.941,-251.936C426.159,-240.106 320.203,-218.784 256.708,-206.006"/>
<polygon fill="midnightblue" stroke="midnightblue" points="257.39,-202.573 246.896,-204.032 256.009,-209.436 257.39,-202.573"/>
</g>
<!-- Node8 -->
<g id="node8" class="node"><title>Node8</title>
<polygon fill="none" stroke="#bfbfbf" points="549,-179.5 549,-209.5 650,-209.5 650,-179.5 549,-179.5"/>
<text text-anchor="start" x="557" y="-197.5" font-family="Helvetica,sans-Serif" font-size="10.00">boost/property_tree</text>
<text text-anchor="middle" x="599.5" y="-186.5" font-family="Helvetica,sans-Serif" font-size="10.00">/ptree.hpp</text>
</g>
<!-- Node7&#45;&gt;Node8 -->
<g id="edge7" class="edge"><title>Node7&#45;&gt;Node8</title>
<path fill="none" stroke="midnightblue" d="M537.21,-251.734C547.221,-242.696 563.197,-228.274 576.462,-216.298"/>
<polygon fill="midnightblue" stroke="midnightblue" points="578.816,-218.888 583.894,-209.589 574.126,-213.692 578.816,-218.888"/>
</g>
<!-- Node9 -->
<g id="node9" class="node"><title>Node9</title>
<polygon fill="none" stroke="#bfbfbf" points="668.5,-185 668.5,-204 760.5,-204 760.5,-185 668.5,-185"/>
<text text-anchor="middle" x="714.5" y="-192" font-family="Helvetica,sans-Serif" font-size="10.00">Common/Timer.h</text>
</g>
<!-- Node7&#45;&gt;Node9 -->
<g id="edge8" class="edge"><title>Node7&#45;&gt;Node9</title>
<path fill="none" stroke="midnightblue" d="M552.332,-251.869C585.116,-240.473 643,-220.353 680.015,-207.487"/>
<polygon fill="midnightblue" stroke="midnightblue" points="681.566,-210.653 689.863,-204.064 679.268,-204.041 681.566,-210.653"/>
</g>
<!-- Node10 -->
<g id="node10" class="node"><title>Node10</title>
<polygon fill="none" stroke="#bfbfbf" points="778.5,-185 778.5,-204 876.5,-204 876.5,-185 778.5,-185"/>
<text text-anchor="middle" x="827.5" y="-192" font-family="Helvetica,sans-Serif" font-size="10.00">Framework/Task.h</text>
</g>
<!-- Node7&#45;&gt;Node10 -->
<g id="edge9" class="edge"><title>Node7&#45;&gt;Node10</title>
<path fill="none" stroke="midnightblue" d="M570.89,-251.979C619.407,-242.328 700.265,-225.872 769.5,-210 774.432,-208.869 779.589,-207.644 784.706,-206.4"/>
<polygon fill="midnightblue" stroke="midnightblue" points="785.555,-209.795 794.429,-204.006 783.882,-202.998 785.555,-209.795"/>
</g>
<!-- Node11 -->
<g id="node11" class="node"><title>Node11</title>
<polygon fill="none" stroke="#bfbfbf" points="895,-185 895,-204 1048,-204 1048,-185 895,-185"/>
<text text-anchor="middle" x="971.5" y="-192" font-family="Helvetica,sans-Serif" font-size="10.00">Framework/CompletionPolicy.h</text>
</g>
<!-- Node7&#45;&gt;Node11 -->
<g id="edge11" class="edge"><title>Node7&#45;&gt;Node11</title>
<path fill="none" stroke="midnightblue" d="M572.847,-251.987C584.451,-249.918 596.923,-247.788 608.5,-246 731.193,-227.057 762.713,-228.323 885.5,-210 894.408,-208.671 903.82,-207.176 913.02,-205.665"/>
<polygon fill="midnightblue" stroke="midnightblue" points="913.595,-209.118 922.886,-204.026 912.448,-202.212 913.595,-209.118"/>
</g>
<!-- Node12 -->
<g id="node12" class="node"><title>Node12</title>
<polygon fill="none" stroke="#bfbfbf" points="1066.5,-185 1066.5,-204 1236.5,-204 1236.5,-185 1066.5,-185"/>
<text text-anchor="middle" x="1151.5" y="-192" font-family="Helvetica,sans-Serif" font-size="10.00">Framework/EndOfStreamContext.h</text>
</g>
<!-- Node7&#45;&gt;Node12 -->
<g id="edge12" class="edge"><title>Node7&#45;&gt;Node12</title>
<path fill="none" stroke="midnightblue" d="M570.678,-251.971C582.871,-249.78 596.174,-247.595 608.5,-246 806.602,-220.371 858.085,-233.084 1056.5,-210 1067.28,-208.745 1078.73,-207.191 1089.79,-205.572"/>
<polygon fill="midnightblue" stroke="midnightblue" points="1090.45,-209.013 1099.82,-204.072 1089.41,-202.09 1090.45,-209.013"/>
</g>
<!-- Node13 -->
<g id="node13" class="node"><title>Node13</title>
<polygon fill="none" stroke="#bfbfbf" points="1255,-185 1255,-204 1372,-204 1372,-185 1255,-185"/>
<text text-anchor="middle" x="1313.5" y="-192" font-family="Helvetica,sans-Serif" font-size="10.00">Headers/DataHeader.h</text>
</g>
<!-- Node7&#45;&gt;Node13 -->
<g id="edge13" class="edge"><title>Node7&#45;&gt;Node13</title>
<path fill="none" stroke="midnightblue" d="M569.815,-251.931C582.234,-249.686 595.872,-247.482 608.5,-246 890.131,-212.956 964.452,-247.679 1245.5,-210 1252.99,-208.996 1260.88,-207.617 1268.53,-206.105"/>
<polygon fill="midnightblue" stroke="midnightblue" points="1269.3,-209.518 1278.39,-204.063 1267.88,-202.664 1269.3,-209.518"/>
</g>
<!-- Node14 -->
<g id="node14" class="node"><title>Node14</title>
<polygon fill="none" stroke="#bfbfbf" points="245,-123.5 245,-142.5 370,-142.5 370,-123.5 245,-123.5"/>
<text text-anchor="middle" x="307.5" y="-130.5" font-family="Helvetica,sans-Serif" font-size="10.00">Framework/InitContext.h</text>
</g>
<!-- Node7&#45;&gt;Node14 -->
<g id="edge14" class="edge"><title>Node7&#45;&gt;Node14</title>
<path fill="none" stroke="midnightblue" d="M478.337,-251.936C445.956,-244.601 403.745,-231.683 371.5,-210 348.432,-194.488 329.044,-168.388 317.846,-151.178"/>
<polygon fill="midnightblue" stroke="midnightblue" points="320.776,-149.263 312.495,-142.655 314.848,-152.985 320.776,-149.263"/>
</g>
<!-- Node15 -->
<g id="node15" class="node"><title>Node15</title>
<g id="a_node15"><a xlink:href="TaskConfig_8h.html" target="_top" xlink:title="QualityControl/TaskConfig.h">
<polygon fill="none" stroke="black" points="230.5,-62 230.5,-81 370.5,-81 370.5,-62 230.5,-62"/>
<text text-anchor="middle" x="300.5" y="-69" font-family="Helvetica,sans-Serif" font-size="10.00">QualityControl/TaskConfig.h</text>
</a>
</g>
</g>
<!-- Node7&#45;&gt;Node15 -->
<g id="edge15" class="edge"><title>Node7&#45;&gt;Node15</title>
<path fill="none" stroke="midnightblue" d="M473.242,-251.976C433.89,-244.427 380.14,-231.239 336.5,-210 315.959,-200.003 314.433,-191.784 295.5,-179 269.727,-161.597 250.822,-170.062 235.5,-143 222.683,-120.363 249.729,-99.0945 272.751,-85.9577"/>
<polygon fill="midnightblue" stroke="midnightblue" points="274.471,-89.0066 281.603,-81.1719 271.141,-82.8488 274.471,-89.0066"/>
</g>
<!-- Node17 -->
<g id="node17" class="node"><title>Node17</title>
<g id="a_node17"><a xlink:href="TaskInterface_8h.html" target="_top" xlink:title="QualityControl/TaskInterface.h">
<polygon fill="none" stroke="black" points="380.5,-185 380.5,-204 530.5,-204 530.5,-185 380.5,-185"/>
<text text-anchor="middle" x="455.5" y="-192" font-family="Helvetica,sans-Serif" font-size="10.00">QualityControl/TaskInterface.h</text>
</a>
</g>
</g>
<!-- Node7&#45;&gt;Node17 -->
<g id="edge18" class="edge"><title>Node7&#45;&gt;Node17</title>
<path fill="none" stroke="midnightblue" d="M517.79,-251.734C506.238,-241.305 486.747,-223.709 472.64,-210.973"/>
<polygon fill="midnightblue" stroke="midnightblue" points="474.824,-208.23 465.056,-204.127 470.134,-213.426 474.824,-208.23"/>
</g>
<!-- Node15&#45;&gt;Node4 -->
<g id="edge16" class="edge"><title>Node15&#45;&gt;Node4</title>
<path fill="none" stroke="midnightblue" d="M299.067,-61.9751C297.656,-53.5803 295.455,-40.4806 293.637,-29.6631"/>
<polygon fill="midnightblue" stroke="midnightblue" points="297.039,-28.7906 291.93,-19.5091 290.136,-29.9509 297.039,-28.7906"/>
</g>
<!-- Node16 -->
<g id="node16" class="node"><title>Node16</title>
<polygon fill="none" stroke="#bfbfbf" points="329,-0.5 329,-19.5 412,-19.5 412,-0.5 329,-0.5"/>
<text text-anchor="middle" x="370.5" y="-7.5" font-family="Helvetica,sans-Serif" font-size="10.00">unordered_map</text>
</g>
<!-- Node15&#45;&gt;Node16 -->
<g id="edge17" class="edge"><title>Node15&#45;&gt;Node16</title>
<path fill="none" stroke="midnightblue" d="M310.529,-61.9751C321.549,-52.6082 339.46,-37.3839 352.843,-26.0081"/>
<polygon fill="midnightblue" stroke="midnightblue" points="355.137,-28.6524 360.489,-19.5091 350.603,-23.3188 355.137,-28.6524"/>
</g>
<!-- Node17&#45;&gt;Node4 -->
<g id="edge21" class="edge"><title>Node17&#45;&gt;Node4</title>
<path fill="none" stroke="midnightblue" d="M448.474,-184.572C436.055,-169.435 408.671,-138.837 378.5,-123 315.113,-89.7274 266.107,-142.993 221.5,-87 212.915,-76.2238 214.938,-68.1145 221.5,-56 229.826,-40.6299 245.93,-29.6786 260.488,-22.4303"/>
<polygon fill="midnightblue" stroke="midnightblue" points="262.101,-25.5411 269.733,-18.1927 259.185,-19.1776 262.101,-25.5411"/>
</g>
<!-- Node17&#45;&gt;Node14 -->
<g id="edge23" class="edge"><title>Node17&#45;&gt;Node14</title>
<path fill="none" stroke="midnightblue" d="M434.295,-184.975C409.128,-174.857 366.96,-157.905 338.221,-146.351"/>
<polygon fill="midnightblue" stroke="midnightblue" points="339.249,-142.992 328.665,-142.509 336.638,-149.487 339.249,-142.992"/>
</g>
<!-- Node17&#45;&gt;Node16 -->
<g id="edge22" class="edge"><title>Node17&#45;&gt;Node16</title>
<path fill="none" stroke="midnightblue" d="M451.4,-184.698C438.245,-156.452 396.908,-67.7001 378.958,-29.1606"/>
<polygon fill="midnightblue" stroke="midnightblue" points="381.953,-27.3013 374.559,-19.714 375.608,-30.2568 381.953,-27.3013"/>
</g>
<!-- Node18 -->
<g id="node18" class="node"><title>Node18</title>
<polygon fill="none" stroke="#bfbfbf" points="430,-0.5 430,-19.5 465,-19.5 465,-0.5 430,-0.5"/>
<text text-anchor="middle" x="447.5" y="-7.5" font-family="Helvetica,sans-Serif" font-size="10.00">map</text>
</g>
<!-- Node17&#45;&gt;Node18 -->
<g id="edge19" class="edge"><title>Node17&#45;&gt;Node18</title>
<path fill="none" stroke="midnightblue" d="M455.275,-184.809C454.693,-163.084 453.006,-104.666 450.5,-56 450.057,-47.39 449.44,-37.8617 448.88,-29.7978"/>
<polygon fill="midnightblue" stroke="midnightblue" points="452.357,-29.347 448.153,-19.6222 445.375,-29.8465 452.357,-29.347"/>
</g>
<!-- Node19 -->
<g id="node19" class="node"><title>Node19</title>
<polygon fill="none" stroke="#bfbfbf" points="833.5,-62 833.5,-81 885.5,-81 885.5,-62 833.5,-62"/>
<text text-anchor="middle" x="859.5" y="-69" font-family="Helvetica,sans-Serif" font-size="10.00">memory</text>
</g>
<!-- Node17&#45;&gt;Node19 -->
<g id="edge20" class="edge"><title>Node17&#45;&gt;Node19</title>
<path fill="none" stroke="midnightblue" d="M508.282,-184.964C552.884,-176.87 618.022,-162.963 672.5,-143 690.79,-136.298 693.501,-130.45 711.5,-123 759.811,-103.004 774.329,-104.779 823.5,-87 825.401,-86.3127 827.351,-85.5873 829.312,-84.8423"/>
<polygon fill="midnightblue" stroke="midnightblue" points="831,-87.9404 839.038,-81.038 828.45,-81.4213 831,-87.9404"/>
</g>
<!-- Node20 -->
<g id="node20" class="node"><title>Node20</title>
<polygon fill="none" stroke="#bfbfbf" points="720.5,-123.5 720.5,-142.5 880.5,-142.5 880.5,-123.5 720.5,-123.5"/>
<text text-anchor="middle" x="800.5" y="-130.5" font-family="Helvetica,sans-Serif" font-size="10.00">Framework/ProcessingContext.h</text>
</g>
<!-- Node17&#45;&gt;Node20 -->
<g id="edge24" class="edge"><title>Node17&#45;&gt;Node20</title>
<path fill="none" stroke="midnightblue" d="M504.803,-184.988C516.197,-183.021 528.271,-180.937 539.5,-179 608.673,-167.066 688.161,-153.363 741.062,-144.244"/>
<polygon fill="midnightblue" stroke="midnightblue" points="741.689,-147.688 750.95,-142.54 740.5,-140.79 741.689,-147.688"/>
</g>
<!-- Node21 -->
<g id="node21" class="node"><title>Node21</title>
<polygon fill="none" stroke="#bfbfbf" points="899,-123.5 899,-142.5 994,-142.5 994,-123.5 899,-123.5"/>
<text text-anchor="middle" x="946.5" y="-130.5" font-family="Helvetica,sans-Serif" font-size="10.00">CCDB/CcdbApi.h</text>
</g>
<!-- Node17&#45;&gt;Node21 -->
<g id="edge25" class="edge"><title>Node17&#45;&gt;Node21</title>
<path fill="none" stroke="midnightblue" d="M501.625,-184.953C513.908,-182.838 527.185,-180.694 539.5,-179 691.24,-158.125 732.745,-162.987 888.976,-142.995"/>
<polygon fill="midnightblue" stroke="midnightblue" points="889.474,-146.46 898.942,-141.706 888.576,-139.518 889.474,-146.46"/>
</g>
<!-- Node22 -->
<g id="node22" class="node"><title>Node22</title>
<g id="a_node22"><a xlink:href="Activity_8h.html" target="_top" xlink:title="QualityControl/Activity.h">
<polygon fill="none" stroke="black" points="1012,-123.5 1012,-142.5 1135,-142.5 1135,-123.5 1012,-123.5"/>
<text text-anchor="middle" x="1073.5" y="-130.5" font-family="Helvetica,sans-Serif" font-size="10.00">QualityControl/Activity.h</text>
</a>
</g>
</g>
<!-- Node17&#45;&gt;Node22 -->
<g id="edge26" class="edge"><title>Node17&#45;&gt;Node22</title>
<path fill="none" stroke="midnightblue" d="M500.286,-184.972C512.93,-182.782 526.724,-180.596 539.5,-179 741.107,-153.817 795.482,-163.663 1002,-142.995"/>
<polygon fill="midnightblue" stroke="midnightblue" points="1002.35,-146.478 1011.95,-141.988 1001.65,-139.513 1002.35,-146.478"/>
</g>
<!-- Node23 -->
<g id="node23" class="node"><title>Node23</title>
<g id="a_node23"><a xlink:href="ObjectsManager_8h.html" target="_top" xlink:title="QualityControl/ObjectsManager.h">
<polygon fill="none" stroke="black" points="503,-123.5 503,-142.5 664,-142.5 664,-123.5 503,-123.5"/>
<text text-anchor="middle" x="583.5" y="-130.5" font-family="Helvetica,sans-Serif" font-size="10.00">QualityControl/ObjectsManager.h</text>
</a>
</g>
</g>
<!-- Node17&#45;&gt;Node23 -->
<g id="edge27" class="edge"><title>Node17&#45;&gt;Node23</title>
<path fill="none" stroke="midnightblue" d="M473.839,-184.975C495.321,-174.99 531.122,-158.348 555.948,-146.807"/>
<polygon fill="midnightblue" stroke="midnightblue" points="557.602,-149.898 565.195,-142.509 554.651,-143.551 557.602,-149.898"/>
</g>
<!-- Node31 -->
<g id="node31" class="node"><title>Node31</title>
<g id="a_node31"><a xlink:href="QcInfoLogger_8h.html" target="_top" xlink:title="QualityControl/QcInfoLogger.h">
<polygon fill="none" stroke="black" points="1153,-123.5 1153,-142.5 1302,-142.5 1302,-123.5 1153,-123.5"/>
<text text-anchor="middle" x="1227.5" y="-130.5" font-family="Helvetica,sans-Serif" font-size="10.00">QualityControl/QcInfoLogger.h</text>
</a>
</g>
</g>
<!-- Node17&#45;&gt;Node31 -->
<g id="edge40" class="edge"><title>Node17&#45;&gt;Node31</title>
<path fill="none" stroke="midnightblue" d="M499.398,-184.972C512.277,-182.728 526.416,-180.514 539.5,-179 803.376,-148.457 873.797,-164.917 1142.8,-143.012"/>
<polygon fill="midnightblue" stroke="midnightblue" points="1143.18,-146.492 1152.86,-142.182 1142.61,-139.515 1143.18,-146.492"/>
</g>
<!-- Node23&#45;&gt;Node4 -->
<g id="edge38" class="edge"><title>Node23&#45;&gt;Node4</title>
<path fill="none" stroke="midnightblue" d="M562.897,-123.492C512.042,-102.49 380.359,-48.1089 320.685,-23.4653"/>
<polygon fill="midnightblue" stroke="midnightblue" points="321.659,-20.0812 311.08,-19.4991 318.987,-26.5512 321.659,-20.0812"/>
</g>
<!-- Node23&#45;&gt;Node15 -->
<g id="edge37" class="edge"><title>Node23&#45;&gt;Node15</title>
<path fill="none" stroke="midnightblue" d="M542.953,-123.475C492.307,-112.827 405.658,-94.6092 350.824,-83.0806"/>
<polygon fill="midnightblue" stroke="midnightblue" points="351.478,-79.6415 340.972,-81.0091 350.038,-86.4918 351.478,-79.6415"/>
</g>
<!-- Node23&#45;&gt;Node19 -->
<g id="edge39" class="edge"><title>Node23&#45;&gt;Node19</title>
<path fill="none" stroke="midnightblue" d="M647.723,-123.485C696.527,-116.169 765.004,-104.082 823.5,-87 825.934,-86.2894 828.429,-85.4744 830.917,-84.6011"/>
<polygon fill="midnightblue" stroke="midnightblue" points="832.205,-87.856 840.317,-81.0414 829.726,-81.3096 832.205,-87.856"/>
</g>
<!-- Node24 -->
<g id="node24" class="node"><title>Node24</title>
<g id="a_node24"><a xlink:href="MonitorObject_8h.html" target="_top" xlink:title="QualityControl/MonitorObject.h">
<polygon fill="none" stroke="black" points="503,-62 503,-81 654,-81 654,-62 503,-62"/>
<text text-anchor="middle" x="578.5" y="-69" font-family="Helvetica,sans-Serif" font-size="10.00">QualityControl/MonitorObject.h</text>
</a>
</g>
</g>
<!-- Node23&#45;&gt;Node24 -->
<g id="edge28" class="edge"><title>Node23&#45;&gt;Node24</title>
<path fill="none" stroke="midnightblue" d="M582.784,-123.475C582.078,-115.08 580.977,-101.981 580.068,-91.1631"/>
<polygon fill="midnightblue" stroke="midnightblue" points="583.54,-90.6808 579.215,-81.0091 576.565,-91.2671 583.54,-90.6808"/>
</g>
<!-- Node28 -->
<g id="node28" class="node"><title>Node28</title>
<g id="a_node28"><a xlink:href="MonitorObjectCollection_8h.html" target="_top" xlink:title="QualityControl/MonitorObject\lCollection.h">
<polygon fill="none" stroke="black" points="672,-56.5 672,-86.5 815,-86.5 815,-56.5 672,-56.5"/>
<text text-anchor="start" x="680" y="-74.5" font-family="Helvetica,sans-Serif" font-size="10.00">QualityControl/MonitorObject</text>
<text text-anchor="middle" x="743.5" y="-63.5" font-family="Helvetica,sans-Serif" font-size="10.00">Collection.h</text>
</a>
</g>
</g>
<!-- Node23&#45;&gt;Node28 -->
<g id="edge34" class="edge"><title>Node23&#45;&gt;Node28</title>
<path fill="none" stroke="midnightblue" d="M606.424,-123.475C629.714,-114.814 666.47,-101.145 696.061,-90.1415"/>
<polygon fill="midnightblue" stroke="midnightblue" points="697.638,-93.2891 705.791,-86.523 695.198,-86.7281 697.638,-93.2891"/>
</g>
<!-- Node24&#45;&gt;Node4 -->
<g id="edge29" class="edge"><title>Node24&#45;&gt;Node4</title>
<path fill="none" stroke="midnightblue" d="M526.044,-61.9905C475.617,-53.4249 397.123,-39.0844 320.796,-20.1266"/>
<polygon fill="midnightblue" stroke="midnightblue" points="321.569,-16.7119 311.017,-17.6689 319.862,-23.5008 321.569,-16.7119"/>
</g>
<!-- Node24&#45;&gt;Node18 -->
<g id="edge30" class="edge"><title>Node24&#45;&gt;Node18</title>
<path fill="none" stroke="midnightblue" d="M559.731,-61.9751C537.398,-51.8315 499.941,-34.8188 474.499,-23.263"/>
<polygon fill="midnightblue" stroke="midnightblue" points="475.946,-20.0759 465.393,-19.1271 473.051,-26.4493 475.946,-20.0759"/>
</g>
<!-- Node25 -->
<g id="node25" class="node"><title>Node25</title>
<polygon fill="none" stroke="#bfbfbf" points="483.5,-0.5 483.5,-19.5 539.5,-19.5 539.5,-0.5 483.5,-0.5"/>
<text text-anchor="middle" x="511.5" y="-7.5" font-family="Helvetica,sans-Serif" font-size="10.00">Rtypes.h</text>
</g>
<!-- Node24&#45;&gt;Node25 -->
<g id="edge31" class="edge"><title>Node24&#45;&gt;Node25</title>
<path fill="none" stroke="midnightblue" d="M568.901,-61.9751C558.452,-52.6966 541.532,-37.6706 528.764,-26.331"/>
<polygon fill="midnightblue" stroke="midnightblue" points="530.883,-23.5323 521.082,-19.5091 526.235,-28.7663 530.883,-23.5323"/>
</g>
<!-- Node26 -->
<g id="node26" class="node"><title>Node26</title>
<polygon fill="none" stroke="#bfbfbf" points="558,-0.5 558,-19.5 617,-19.5 617,-0.5 558,-0.5"/>
<text text-anchor="middle" x="587.5" y="-7.5" font-family="Helvetica,sans-Serif" font-size="10.00">TObject.h</text>
</g>
<!-- Node24&#45;&gt;Node26 -->
<g id="edge32" class="edge"><title>Node24&#45;&gt;Node26</title>
<path fill="none" stroke="midnightblue" d="M579.789,-61.9751C581.059,-53.5803 583.041,-40.4806 584.677,-29.6631"/>
<polygon fill="midnightblue" stroke="midnightblue" points="588.178,-29.9201 586.213,-19.5091 581.257,-28.8731 588.178,-29.9201"/>
</g>
<!-- Node27 -->
<g id="node27" class="node"><title>Node27</title>
<polygon fill="none" stroke="#bfbfbf" points="635.5,-0.5 635.5,-19.5 751.5,-19.5 751.5,-0.5 635.5,-0.5"/>
<text text-anchor="middle" x="693.5" y="-7.5" font-family="Helvetica,sans-Serif" font-size="10.00">Common/Exceptions.h</text>
</g>
<!-- Node24&#45;&gt;Node27 -->
<g id="edge33" class="edge"><title>Node24&#45;&gt;Node27</title>
<path fill="none" stroke="midnightblue" d="M594.977,-61.9751C614.105,-52.078 645.873,-35.6416 668.152,-24.1151"/>
<polygon fill="midnightblue" stroke="midnightblue" points="669.781,-27.213 677.054,-19.5091 666.564,-20.9958 669.781,-27.213"/>
</g>
<!-- Node29 -->
<g id="node29" class="node"><title>Node29</title>
<polygon fill="none" stroke="#bfbfbf" points="770,-0.5 770,-19.5 839,-19.5 839,-0.5 770,-0.5"/>
<text text-anchor="middle" x="804.5" y="-7.5" font-family="Helvetica,sans-Serif" font-size="10.00">TObjArray.h</text>
</g>
<!-- Node28&#45;&gt;Node29 -->
<g id="edge35" class="edge"><title>Node28&#45;&gt;Node29</title>
<path fill="none" stroke="midnightblue" d="M757.956,-56.3993C767.094,-47.4859 778.919,-35.9523 788.362,-26.7408"/>
<polygon fill="midnightblue" stroke="midnightblue" points="790.909,-29.1458 795.624,-19.6578 786.022,-24.1348 790.909,-29.1458"/>
</g>
<!-- Node30 -->
<g id="node30" class="node"><title>Node30</title>
<polygon fill="none" stroke="#bfbfbf" points="857.5,-0.5 857.5,-19.5 985.5,-19.5 985.5,-0.5 857.5,-0.5"/>
<text text-anchor="middle" x="921.5" y="-7.5" font-family="Helvetica,sans-Serif" font-size="10.00">Mergers/MergeInterface.h</text>
</g>
<!-- Node28&#45;&gt;Node30 -->
<g id="edge36" class="edge"><title>Node28&#45;&gt;Node30</title>
<path fill="none" stroke="midnightblue" d="M785.684,-56.3993C816.307,-46.1627 857.27,-32.4703 886.175,-22.8082"/>
<polygon fill="midnightblue" stroke="midnightblue" points="887.485,-26.0607 895.859,-19.5709 885.265,-19.4218 887.485,-26.0607"/>
</g>
<!-- Node32 -->
<g id="node32" class="node"><title>Node32</title>
<polygon fill="none" stroke="#bfbfbf" points="1080.5,-62 1080.5,-81 1210.5,-81 1210.5,-62 1080.5,-62"/>
<text text-anchor="middle" x="1145.5" y="-69" font-family="Helvetica,sans-Serif" font-size="10.00">InfoLogger/InfoLogger.hxx</text>
</g>
<!-- Node31&#45;&gt;Node32 -->
<g id="edge41" class="edge"><title>Node31&#45;&gt;Node32</title>
<path fill="none" stroke="midnightblue" d="M1215.75,-123.475C1202.72,-114.02 1181.46,-98.5961 1165.74,-87.1871"/>
<polygon fill="midnightblue" stroke="midnightblue" points="1167.38,-84.0492 1157.23,-81.0091 1163.27,-89.7149 1167.38,-84.0492"/>
</g>
<!-- Node33 -->
<g id="node33" class="node"><title>Node33</title>
<polygon fill="none" stroke="#bfbfbf" points="1228.5,-62 1228.5,-81 1390.5,-81 1390.5,-62 1228.5,-62"/>
<text text-anchor="middle" x="1309.5" y="-69" font-family="Helvetica,sans-Serif" font-size="10.00">InfoLogger/InfoLoggerMacros.hxx</text>
</g>
<!-- Node31&#45;&gt;Node33 -->
<g id="edge42" class="edge"><title>Node31&#45;&gt;Node33</title>
<path fill="none" stroke="midnightblue" d="M1239.25,-123.475C1252.28,-114.02 1273.54,-98.5961 1289.26,-87.1871"/>
<polygon fill="midnightblue" stroke="midnightblue" points="1291.73,-89.7149 1297.77,-81.0091 1287.62,-84.0492 1291.73,-89.7149"/>
</g>
</g>
</svg>
        <g id="navigator" transform="translate(0 0)" fill="#404254">
                <rect fill="#f2f5e9" fill-opacity="0.5" stroke="#606060" stroke-width=".5" x="0" y="0" width="60" height="60"/>
                <use id="zoomplus" xlink:href="#zoomPlus" x="17" y="9" onmousedown="handleZoom(evt,'in')"/>
                <use id="zoomminus" xlink:href="#zoomMin" x="42" y="9" onmousedown="handleZoom(evt,'out')"/>
                <use id="reset" xlink:href="#resetDef" x="30" y="36" onmousedown="handleReset()"/>
                <g id="arrowUp" xlink:href="#dirArrow" transform="translate(30 24)" onmousedown="handlePan(0,-1)">
                  <use xlink:href="#rim" fill="#404040">
                        <set attributeName="fill" to="#808080" begin="arrowUp.mouseover" end="arrowUp.mouseout"/>
                  </use>
                  <path fill="none" stroke="white" stroke-width="1.5" d="M0,-3.0v7 M-2.5,-0.5L0,-3.0L2.5,-0.5"/>
                </g>
                <g id="arrowRight" xlink:href="#dirArrow" transform="rotate(90) translate(36 -43)" onmousedown="handlePan(1,0)">
                  <use xlink:href="#rim" fill="#404040">
                        <set attributeName="fill" to="#808080" begin="arrowRight.mouseover" end="arrowRight.mouseout"/>
                  </use>
                  <path fill="none" stroke="white" stroke-width="1.5" d="M0,-3.0v7 M-2.5,-0.5L0,-3.0L2.5,-0.5"/>
                </g>
                <g id="arrowDown" xlink:href="#dirArrow" transform="rotate(180) translate(-30 -48)" onmousedown="handlePan(0,1)">
                  <use xlink:href="#rim" fill="#404040">
                        <set attributeName="fill" to="#808080" begin="arrowDown.mouseover" end="arrowDown.mouseout"/>
                  </use>
                  <path fill="none" stroke="white" stroke-width="1.5" d="M0,-3.0v7 M-2.5,-0.5L0,-3.0L2.5,-0.5"/>
                </g>
                <g id="arrowLeft" xlink:href="#dirArrow" transform="rotate(270) translate(-36 17)" onmousedown="handlePan(-1,0)">
                  <use xlink:href="#rim" fill="#404040">
                        <set attributeName="fill" to="#808080" begin="arrowLeft.mouseover" end="arrowLeft.mouseout"/>
                  </use>
                  <path fill="none" stroke="white" stroke-width="1.5" d="M0,-3.0v7 M-2.5,-0.5L0,-3.0L2.5,-0.5"/>
                </g>
        </g>
        <svg viewBox="0 0 15 15" width="100%" height="30px" preserveAspectRatio="xMaxYMin meet">
         <g id="arrow_out" transform="scale(0.3 0.3)">
          <a xlink:href="testTaskRunner_8cxx__incl_org.svg" target="_base">
           <rect id="button" ry="5" rx="5" y="6" x="6" height="38" width="38"
                fill="#f2f5e9" fill-opacity="0.5" stroke="#606060" stroke-width="1.0"/>
           <path id="arrow"
             d="M 11.500037,31.436501 C 11.940474,20.09759 22.043105,11.32322 32.158766,21.979434 L 37.068811,17.246167 C 37.068811,17.246167 37.088388,32 37.088388,32 L 22.160133,31.978069 C 22.160133,31.978069 26.997745,27.140456 26.997745,27.140456 C 18.528582,18.264221 13.291696,25.230495 11.500037,31.436501 z"
             style="fill:#404040;"/>
          </a>
         </g>
        </svg>
</svg>
