<?xml version="1.0" encoding="UTF-8" standalone="no"?>
<!DOCTYPE svg PUBLIC "-//W3C//DTD SVG 1.1//EN"
 "http://www.w3.org/Graphics/SVG/1.1/DTD/svg11.dtd">
<!-- Generated by graphviz version 2.38.0 (20140413.2041)
 -->
<!-- Title: Framework/test/testPostProcessingRunner.cxx Pages: 1 -->
<!--zoomable 363 -->
<svg id="main" version="1.1" xmlns="http://www.w3.org/2000/svg" xmlns:xlink="http://www.w3.org/1999/xlink" xml:space="preserve" onload="init(evt)">
<style type="text/css"><![CDATA[
.edge:hover path { stroke: red; }
.edge:hover polygon { stroke: red; fill: red; }
]]></style>
<script type="text/javascript"><![CDATA[
var edges = document.getElementsByTagName('g');
if (edges && edges.length) {
  for (var i=0;i<edges.length;i++) {
    if (edges[i].id.substr(0,4)=='edge') {
      edges[i].setAttribute('class','edge');
    }
  }
}
]]></script>
        <defs>
                <circle id="rim" cx="0" cy="0" r="7"/>
                <circle id="rim2" cx="0" cy="0" r="3.5"/>
                <g id="zoomPlus">
                        <use xlink:href="#rim" fill="#404040">
                                <set attributeName="fill" to="#808080" begin="zoomplus.mouseover" end="zoomplus.mouseout"/>
                        </use>
                        <path d="M-4,0h8M0,-4v8" fill="none" stroke="white" stroke-width="1.5" pointer-events="none"/>
                </g>
                <g id="zoomMin">
                        <use xlink:href="#rim" fill="#404040">
                                <set attributeName="fill" to="#808080" begin="zoomminus.mouseover" end="zoomminus.mouseout"/>
                        </use>
                        <path d="M-4,0h8" fill="none" stroke="white" stroke-width="1.5" pointer-events="none"/>
                </g>
                <g id="dirArrow">
                        <path fill="none" stroke="white" stroke-width="1.5" d="M0,-3.0v7 M-2.5,-0.5L0,-3.0L2.5,-0.5"/>
                </g>
               <g id="resetDef">
                       <use xlink:href="#rim2" fill="#404040">
                               <set attributeName="fill" to="#808080" begin="reset.mouseover" end="reset.mouseout"/>
                       </use>
               </g>
        </defs>

<script type="text/javascript">
var viewWidth = 1451;
var viewHeight = 363;
var sectionId = 'dynsection-0';
</script>
<script xlink:href="svgpan.js"/>
<svg id="graph" class="graph">
<g id="viewport">
<title>Framework/test/testPostProcessingRunner.cxx</title>
<!-- Node1 -->
<g id="node1" class="node"><title>Node1</title>
<polygon fill="#bfbfbf" stroke="black" points="423,-324.5 423,-354.5 596,-354.5 596,-324.5 423,-324.5"/>
<text text-anchor="start" x="431" y="-342.5" font-family="Helvetica,sans-Serif" font-size="10.00">Framework/test/testPostProcessing</text>
<text text-anchor="middle" x="509.5" y="-331.5" font-family="Helvetica,sans-Serif" font-size="10.00">Runner.cxx</text>
</g>
<!-- Node2 -->
<g id="node2" class="node"><title>Node2</title>
<polygon fill="none" stroke="#bfbfbf" points="217,-263 217,-282 336,-282 336,-263 217,-263"/>
<text text-anchor="middle" x="276.5" y="-270" font-family="Helvetica,sans-Serif" font-size="10.00">getTestDataDirectory.h</text>
</g>
<!-- Node1&#45;&gt;Node2 -->
<g id="edge1" class="edge"><title>Node1&#45;&gt;Node2</title>
<path fill="none" stroke="midnightblue" d="M459.229,-324.476C416.648,-312.597 356.39,-295.787 316.89,-284.768"/>
<polygon fill="midnightblue" stroke="midnightblue" points="317.645,-281.345 307.072,-282.029 315.764,-288.087 317.645,-281.345"/>
</g>
<!-- Node3 -->
<g id="node3" class="node"><title>Node3</title>
<g id="a_node3"><a xlink:href="PostProcessingRunner_8h.html" target="_top" xlink:title="QualityControl/PostProcessing\lRunner.h">
<polygon fill="none" stroke="black" points="354,-257.5 354,-287.5 505,-287.5 505,-257.5 354,-257.5"/>
<text text-anchor="start" x="362" y="-275.5" font-family="Helvetica,sans-Serif" font-size="10.00">QualityControl/PostProcessing</text>
<text text-anchor="middle" x="429.5" y="-264.5" font-family="Helvetica,sans-Serif" font-size="10.00">Runner.h</text>
</a>
</g>
</g>
<!-- Node1&#45;&gt;Node3 -->
<g id="edge2" class="edge"><title>Node1&#45;&gt;Node3</title>
<path fill="none" stroke="midnightblue" d="M492.141,-324.396C481.239,-315.538 466.99,-303.96 454.837,-294.086"/>
<polygon fill="midnightblue" stroke="midnightblue" points="456.793,-291.166 446.825,-287.577 452.379,-296.599 456.793,-291.166"/>
</g>
<!-- Node28 -->
<g id="node28" class="node"><title>Node28</title>
<polygon fill="none" stroke="#bfbfbf" points="523,-257.5 523,-287.5 658,-287.5 658,-257.5 523,-257.5"/>
<text text-anchor="start" x="531" y="-275.5" font-family="Helvetica,sans-Serif" font-size="10.00">Configuration/Configuration</text>
<text text-anchor="middle" x="590.5" y="-264.5" font-family="Helvetica,sans-Serif" font-size="10.00">Factory.h</text>
</g>
<!-- Node1&#45;&gt;Node28 -->
<g id="edge52" class="edge"><title>Node1&#45;&gt;Node28</title>
<path fill="none" stroke="midnightblue" d="M527.076,-324.396C538.115,-315.538 552.542,-303.96 564.847,-294.086"/>
<polygon fill="midnightblue" stroke="midnightblue" points="567.35,-296.565 572.959,-287.577 562.969,-291.105 567.35,-296.565"/>
</g>
<!-- Node29 -->
<g id="node29" class="node"><title>Node29</title>
<polygon fill="none" stroke="#bfbfbf" points="676,-263 676,-282 795,-282 795,-263 676,-263"/>
<text text-anchor="middle" x="735.5" y="-270" font-family="Helvetica,sans-Serif" font-size="10.00">boost/test/unit_test.hpp</text>
</g>
<!-- Node1&#45;&gt;Node29 -->
<g id="edge53" class="edge"><title>Node1&#45;&gt;Node29</title>
<path fill="none" stroke="midnightblue" d="M558.26,-324.476C599.475,-312.622 657.762,-295.858 696.079,-284.838"/>
<polygon fill="midnightblue" stroke="midnightblue" points="697.204,-288.156 705.847,-282.029 695.269,-281.429 697.204,-288.156"/>
</g>
<!-- Node4 -->
<g id="node4" class="node"><title>Node4</title>
<polygon fill="none" stroke="#bfbfbf" points="772.5,-62 772.5,-81 824.5,-81 824.5,-62 772.5,-62"/>
<text text-anchor="middle" x="798.5" y="-69" font-family="Helvetica,sans-Serif" font-size="10.00">memory</text>
</g>
<!-- Node3&#45;&gt;Node4 -->
<g id="edge3" class="edge"><title>Node3&#45;&gt;Node4</title>
<path fill="none" stroke="midnightblue" d="M505.086,-257.912C579.426,-244.397 683.014,-225.099 691.5,-221 732.65,-201.12 743.64,-191.679 769.5,-154 782.815,-134.599 790.695,-108.418 794.804,-91.0228"/>
<polygon fill="midnightblue" stroke="midnightblue" points="798.275,-91.5356 796.98,-81.0202 791.435,-90.0479 798.275,-91.5356"/>
</g>
<!-- Node5 -->
<g id="node5" class="node"><title>Node5</title>
<polygon fill="none" stroke="#bfbfbf" points="0,-62 0,-81 59,-81 59,-62 0,-62"/>
<text text-anchor="middle" x="29.5" y="-69" font-family="Helvetica,sans-Serif" font-size="10.00">functional</text>
</g>
<!-- Node3&#45;&gt;Node5 -->
<g id="edge4" class="edge"><title>Node3&#45;&gt;Node5</title>
<path fill="none" stroke="midnightblue" d="M353.699,-258.19C276.166,-244.468 165.758,-224.581 156.5,-221 103.818,-200.622 81.4256,-199.898 48.5,-154 35.2313,-135.504 31.0872,-109.12 29.8689,-91.4312"/>
<polygon fill="midnightblue" stroke="midnightblue" points="33.3567,-91.0715 29.4243,-81.2335 26.3633,-91.3765 33.3567,-91.0715"/>
</g>
<!-- Node6 -->
<g id="node6" class="node"><title>Node6</title>
<polygon fill="none" stroke="#bfbfbf" points="614.5,-129 614.5,-148 760.5,-148 760.5,-129 614.5,-129"/>
<text text-anchor="middle" x="687.5" y="-136" font-family="Helvetica,sans-Serif" font-size="10.00">Framework/ServiceRegistry.h</text>
</g>
<!-- Node3&#45;&gt;Node6 -->
<g id="edge5" class="edge"><title>Node3&#45;&gt;Node6</title>
<path fill="none" stroke="midnightblue" d="M505.135,-257.626C573.219,-244.823 663.515,-226.926 669.5,-221 686.043,-204.621 688.912,-176.702 688.753,-158.178"/>
<polygon fill="midnightblue" stroke="midnightblue" points="692.245,-157.902 688.359,-148.045 685.251,-158.174 692.245,-157.902"/>
</g>
<!-- Node7 -->
<g id="node7" class="node"><title>Node7</title>
<polygon fill="none" stroke="#bfbfbf" points="457,-123.5 457,-153.5 558,-153.5 558,-123.5 457,-123.5"/>
<text text-anchor="start" x="465" y="-141.5" font-family="Helvetica,sans-Serif" font-size="10.00">boost/property_tree</text>
<text text-anchor="middle" x="507.5" y="-130.5" font-family="Helvetica,sans-Serif" font-size="10.00">/ptree_fwd.hpp</text>
</g>
<!-- Node3&#45;&gt;Node7 -->
<g id="edge6" class="edge"><title>Node3&#45;&gt;Node7</title>
<path fill="none" stroke="midnightblue" d="M438.66,-257.471C445.167,-247.403 454.037,-233.468 461.5,-221 473.148,-201.538 485.772,-179.066 494.843,-162.654"/>
<polygon fill="midnightblue" stroke="midnightblue" points="497.982,-164.209 499.739,-153.76 491.85,-160.833 497.982,-164.209"/>
</g>
<!-- Node8 -->
<g id="node8" class="node"><title>Node8</title>
<g id="a_node8"><a xlink:href="PostProcessingInterface_8h.html" target="_top" xlink:title="QualityControl/PostProcessing\lInterface.h">
<polygon fill="none" stroke="black" points="302,-190.5 302,-220.5 453,-220.5 453,-190.5 302,-190.5"/>
<text text-anchor="start" x="310" y="-208.5" font-family="Helvetica,sans-Serif" font-size="10.00">QualityControl/PostProcessing</text>
<text text-anchor="middle" x="377.5" y="-197.5" font-family="Helvetica,sans-Serif" font-size="10.00">Interface.h</text>
</a>
</g>
</g>
<!-- Node3&#45;&gt;Node8 -->
<g id="edge7" class="edge"><title>Node3&#45;&gt;Node8</title>
<path fill="none" stroke="midnightblue" d="M418.217,-257.396C411.471,-248.963 402.754,-238.067 395.117,-228.522"/>
<polygon fill="midnightblue" stroke="midnightblue" points="397.741,-226.199 388.761,-220.577 392.275,-230.572 397.741,-226.199"/>
</g>
<!-- Node10 -->
<g id="node10" class="node"><title>Node10</title>
<g id="a_node10"><a xlink:href="Triggers_8h.html" target="_top" xlink:title="QualityControl/Triggers.h">
<polygon fill="none" stroke="black" points="58,-129 58,-148 183,-148 183,-129 58,-129"/>
<text text-anchor="middle" x="120.5" y="-136" font-family="Helvetica,sans-Serif" font-size="10.00">QualityControl/Triggers.h</text>
</a>
</g>
</g>
<!-- Node3&#45;&gt;Node10 -->
<g id="edge34" class="edge"><title>Node3&#45;&gt;Node10</title>
<path fill="none" stroke="midnightblue" d="M354.635,-257.495C292.204,-245.439 211.297,-228.791 197.5,-221 169.242,-205.043 145.132,-175.304 131.753,-156.502"/>
<polygon fill="midnightblue" stroke="midnightblue" points="134.63,-154.509 126.075,-148.258 128.865,-158.479 134.63,-154.509"/>
</g>
<!-- Node12 -->
<g id="node12" class="node"><title>Node12</title>
<g id="a_node12"><a xlink:href="ObjectsManager_8h.html" target="_top" xlink:title="QualityControl/ObjectsManager.h">
<polygon fill="none" stroke="black" points="278,-129 278,-148 439,-148 439,-129 278,-129"/>
<text text-anchor="middle" x="358.5" y="-136" font-family="Helvetica,sans-Serif" font-size="10.00">QualityControl/ObjectsManager.h</text>
</a>
</g>
</g>
<!-- Node3&#45;&gt;Node12 -->
<g id="edge50" class="edge"><title>Node3&#45;&gt;Node12</title>
<path fill="none" stroke="midnightblue" d="M372.06,-257.411C339.018,-248.017 302.177,-234.88 292.5,-221 284.621,-209.698 286.398,-202.353 292.5,-190 300.415,-173.977 316.123,-161.637 330.228,-153.167"/>
<polygon fill="midnightblue" stroke="midnightblue" points="332.154,-156.1 339.169,-148.16 328.733,-149.993 332.154,-156.1"/>
</g>
<!-- Node18 -->
<g id="node18" class="node"><title>Node18</title>
<g id="a_node18"><a xlink:href="MonitorObjectCollection_8h.html" target="_top" xlink:title="QualityControl/MonitorObject\lCollection.h">
<polygon fill="none" stroke="black" points="140,-56.5 140,-86.5 283,-86.5 283,-56.5 140,-56.5"/>
<text text-anchor="start" x="148" y="-74.5" font-family="Helvetica,sans-Serif" font-size="10.00">QualityControl/MonitorObject</text>
<text text-anchor="middle" x="211.5" y="-63.5" font-family="Helvetica,sans-Serif" font-size="10.00">Collection.h</text>
</a>
</g>
</g>
<!-- Node3&#45;&gt;Node18 -->
<g id="edge51" class="edge"><title>Node3&#45;&gt;Node18</title>
<path fill="none" stroke="midnightblue" d="M361.702,-257.426C335.506,-249.692 306.393,-238.083 283.5,-221 242.473,-190.385 223.643,-130.173 216.01,-96.5868"/>
<polygon fill="midnightblue" stroke="midnightblue" points="219.409,-95.7456 213.911,-86.6892 212.562,-97.1977 219.409,-95.7456"/>
</g>
<!-- Node23 -->
<g id="node23" class="node"><title>Node23</title>
<g id="a_node23"><a xlink:href="PostProcessingConfig_8h.html" target="_top" xlink:title="QualityControl/PostProcessing\lConfig.h">
<polygon fill="none" stroke="black" points="510,-190.5 510,-220.5 661,-220.5 661,-190.5 510,-190.5"/>
<text text-anchor="start" x="518" y="-208.5" font-family="Helvetica,sans-Serif" font-size="10.00">QualityControl/PostProcessing</text>
<text text-anchor="middle" x="585.5" y="-197.5" font-family="Helvetica,sans-Serif" font-size="10.00">Config.h</text>
</a>
</g>
</g>
<!-- Node3&#45;&gt;Node23 -->
<g id="edge30" class="edge"><title>Node3&#45;&gt;Node23</title>
<path fill="none" stroke="midnightblue" d="M463.35,-257.396C486.552,-247.728 517.526,-234.823 542.477,-224.426"/>
<polygon fill="midnightblue" stroke="midnightblue" points="543.832,-227.653 551.716,-220.577 541.139,-221.192 543.832,-227.653"/>
</g>
<!-- Node25 -->
<g id="node25" class="node"><title>Node25</title>
<g id="a_node25"><a xlink:href="DatabaseInterface_8h.html" target="_top" xlink:title="QualityControl/DatabaseInterface.h">
<polygon fill="none" stroke="black" points="828.5,-196 828.5,-215 998.5,-215 998.5,-196 828.5,-196"/>
<text text-anchor="middle" x="913.5" y="-203" font-family="Helvetica,sans-Serif" font-size="10.00">QualityControl/DatabaseInterface.h</text>
</a>
</g>
</g>
<!-- Node3&#45;&gt;Node25 -->
<g id="edge35" class="edge"><title>Node3&#45;&gt;Node25</title>
<path fill="none" stroke="midnightblue" d="M505.029,-258.29C507.888,-257.845 510.719,-257.413 513.5,-257 641.533,-237.986 674.104,-237.383 802.5,-221 814.172,-219.511 826.533,-217.915 838.602,-216.346"/>
<polygon fill="midnightblue" stroke="midnightblue" points="839.187,-219.799 848.651,-215.037 838.283,-212.858 839.187,-219.799"/>
</g>
<!-- Node8&#45;&gt;Node6 -->
<g id="edge9" class="edge"><title>Node8&#45;&gt;Node6</title>
<path fill="none" stroke="midnightblue" d="M444.384,-190.476C502.12,-178.37 584.281,-161.143 636.744,-150.142"/>
<polygon fill="midnightblue" stroke="midnightblue" points="637.756,-153.506 646.825,-148.029 636.319,-146.655 637.756,-153.506"/>
</g>
<!-- Node8&#45;&gt;Node7 -->
<g id="edge10" class="edge"><title>Node8&#45;&gt;Node7</title>
<path fill="none" stroke="midnightblue" d="M405.708,-190.396C424.617,-180.941 449.721,-168.39 470.266,-158.117"/>
<polygon fill="midnightblue" stroke="midnightblue" points="471.968,-161.179 479.347,-153.577 468.837,-154.918 471.968,-161.179"/>
</g>
<!-- Node9 -->
<g id="node9" class="node"><title>Node9</title>
<polygon fill="none" stroke="#bfbfbf" points="615,-0.5 615,-19.5 656,-19.5 656,-0.5 615,-0.5"/>
<text text-anchor="middle" x="635.5" y="-7.5" font-family="Helvetica,sans-Serif" font-size="10.00">string</text>
</g>
<!-- Node8&#45;&gt;Node9 -->
<g id="edge8" class="edge"><title>Node8&#45;&gt;Node9</title>
<path fill="none" stroke="midnightblue" d="M317.337,-190.449C298.435,-182.895 279.615,-171.4 268.5,-154 261.083,-142.389 260.452,-134.183 268.5,-123 288.834,-94.7436 520.648,-37.9589 605.025,-18.0734"/>
<polygon fill="midnightblue" stroke="midnightblue" points="605.852,-21.4746 614.788,-15.7825 604.252,-14.6597 605.852,-21.4746"/>
</g>
<!-- Node8&#45;&gt;Node10 -->
<g id="edge11" class="edge"><title>Node8&#45;&gt;Node10</title>
<path fill="none" stroke="midnightblue" d="M322.051,-190.476C274.685,-178.496 207.489,-161.501 163.945,-150.488"/>
<polygon fill="midnightblue" stroke="midnightblue" points="164.774,-147.088 154.221,-148.029 163.058,-153.874 164.774,-147.088"/>
</g>
<!-- Node8&#45;&gt;Node12 -->
<g id="edge15" class="edge"><title>Node8&#45;&gt;Node12</title>
<path fill="none" stroke="midnightblue" d="M373.377,-190.396C370.591,-180.863 366.884,-168.182 363.867,-157.862"/>
<polygon fill="midnightblue" stroke="midnightblue" points="367.207,-156.811 361.041,-148.195 360.488,-158.775 367.207,-156.811"/>
</g>
<!-- Node10&#45;&gt;Node5 -->
<g id="edge13" class="edge"><title>Node10&#45;&gt;Node5</title>
<path fill="none" stroke="midnightblue" d="M108.227,-128.734C93.3548,-118.111 68.0679,-100.049 50.1699,-87.2642"/>
<polygon fill="midnightblue" stroke="midnightblue" points="51.7499,-84.0917 41.5782,-81.1273 47.6812,-89.7878 51.7499,-84.0917"/>
</g>
<!-- Node10&#45;&gt;Node9 -->
<g id="edge12" class="edge"><title>Node10&#45;&gt;Node9</title>
<path fill="none" stroke="midnightblue" d="M163.386,-128.933C198.862,-120.894 249.978,-107.081 291.5,-87 313.035,-76.5849 313.297,-64.9026 335.5,-56 428.301,-18.7907 548.445,-12.0214 604.343,-11.0076"/>
<polygon fill="midnightblue" stroke="midnightblue" points="604.685,-14.5036 614.639,-10.8743 604.595,-7.50417 604.685,-14.5036"/>
</g>
<!-- Node11 -->
<g id="node11" class="node"><title>Node11</title>
<polygon fill="none" stroke="#bfbfbf" points="77,-62 77,-81 122,-81 122,-62 77,-62"/>
<text text-anchor="middle" x="99.5" y="-69" font-family="Helvetica,sans-Serif" font-size="10.00">iosfwd</text>
</g>
<!-- Node10&#45;&gt;Node11 -->
<g id="edge14" class="edge"><title>Node10&#45;&gt;Node11</title>
<path fill="none" stroke="midnightblue" d="M117.668,-128.734C114.551,-119.085 109.451,-103.3 105.447,-90.9063"/>
<polygon fill="midnightblue" stroke="midnightblue" points="108.692,-89.567 102.287,-81.1273 102.031,-91.719 108.692,-89.567"/>
</g>
<!-- Node12&#45;&gt;Node4 -->
<g id="edge29" class="edge"><title>Node12&#45;&gt;Node4</title>
<path fill="none" stroke="midnightblue" d="M408.332,-128.948C421.083,-126.879 434.784,-124.759 447.5,-123 587.519,-103.63 626.65,-122.395 763.5,-87 766.007,-86.3515 768.571,-85.5595 771.115,-84.6834"/>
<polygon fill="midnightblue" stroke="midnightblue" points="772.586,-87.8679 780.665,-81.0139 770.075,-81.3337 772.586,-87.8679"/>
</g>
<!-- Node12&#45;&gt;Node9 -->
<g id="edge28" class="edge"><title>Node12&#45;&gt;Node9</title>
<path fill="none" stroke="midnightblue" d="M377.539,-128.805C425.392,-106.952 550.887,-49.6411 607.309,-23.8741"/>
<polygon fill="midnightblue" stroke="midnightblue" points="609.051,-26.9263 616.694,-19.5884 606.143,-20.5589 609.051,-26.9263"/>
</g>
<!-- Node13 -->
<g id="node13" class="node"><title>Node13</title>
<g id="a_node13"><a xlink:href="MonitorObject_8h.html" target="_top" xlink:title="QualityControl/MonitorObject.h">
<polygon fill="none" stroke="black" points="1132,-62 1132,-81 1283,-81 1283,-62 1132,-62"/>
<text text-anchor="middle" x="1207.5" y="-69" font-family="Helvetica,sans-Serif" font-size="10.00">QualityControl/MonitorObject.h</text>
</a>
</g>
</g>
<!-- Node12&#45;&gt;Node13 -->
<g id="edge16" class="edge"><title>Node12&#45;&gt;Node13</title>
<path fill="none" stroke="midnightblue" d="M405.023,-128.945C418.669,-126.7 433.647,-124.493 447.5,-123 746.638,-90.7626 824.517,-120.648 1123.5,-87 1133.43,-85.8828 1143.96,-84.3467 1154.09,-82.6903"/>
<polygon fill="midnightblue" stroke="midnightblue" points="1154.77,-86.125 1164.04,-81.0047 1153.6,-79.2232 1154.77,-86.125"/>
</g>
<!-- Node12&#45;&gt;Node18 -->
<g id="edge22" class="edge"><title>Node12&#45;&gt;Node18</title>
<path fill="none" stroke="midnightblue" d="M338.98,-128.869C317.017,-119.157 280.724,-103.109 252.467,-90.6148"/>
<polygon fill="midnightblue" stroke="midnightblue" points="253.786,-87.3712 243.225,-86.5281 250.955,-93.7732 253.786,-87.3712"/>
</g>
<!-- Node21 -->
<g id="node21" class="node"><title>Node21</title>
<g id="a_node21"><a xlink:href="TaskConfig_8h.html" target="_top" xlink:title="QualityControl/TaskConfig.h">
<polygon fill="none" stroke="black" points="614.5,-62 614.5,-81 754.5,-81 754.5,-62 614.5,-62"/>
<text text-anchor="middle" x="684.5" y="-69" font-family="Helvetica,sans-Serif" font-size="10.00">QualityControl/TaskConfig.h</text>
</a>
</g>
</g>
<!-- Node12&#45;&gt;Node21 -->
<g id="edge25" class="edge"><title>Node12&#45;&gt;Node21</title>
<path fill="none" stroke="midnightblue" d="M401.454,-128.936C460.782,-117.106 567.722,-95.7839 631.807,-83.0063"/>
<polygon fill="midnightblue" stroke="midnightblue" points="632.588,-86.4196 641.71,-81.0317 631.219,-79.5547 632.588,-86.4196"/>
</g>
<!-- Node13&#45;&gt;Node9 -->
<g id="edge17" class="edge"><title>Node13&#45;&gt;Node9</title>
<path fill="none" stroke="midnightblue" d="M1161.82,-61.941C1149.42,-59.8011 1135.97,-57.6487 1123.5,-56 951.457,-33.2549 743.776,-18.1876 666.461,-13.0024"/>
<polygon fill="midnightblue" stroke="midnightblue" points="666.23,-9.47939 656.02,-12.3093 665.766,-16.464 666.23,-9.47939"/>
</g>
<!-- Node14 -->
<g id="node14" class="node"><title>Node14</title>
<polygon fill="none" stroke="#bfbfbf" points="1190,-0.5 1190,-19.5 1225,-19.5 1225,-0.5 1190,-0.5"/>
<text text-anchor="middle" x="1207.5" y="-7.5" font-family="Helvetica,sans-Serif" font-size="10.00">map</text>
</g>
<!-- Node13&#45;&gt;Node14 -->
<g id="edge18" class="edge"><title>Node13&#45;&gt;Node14</title>
<path fill="none" stroke="midnightblue" d="M1207.5,-61.9751C1207.5,-53.5803 1207.5,-40.4806 1207.5,-29.6631"/>
<polygon fill="midnightblue" stroke="midnightblue" points="1211,-29.5091 1207.5,-19.5091 1204,-29.5091 1211,-29.5091"/>
</g>
<!-- Node15 -->
<g id="node15" class="node"><title>Node15</title>
<polygon fill="none" stroke="#bfbfbf" points="1070.5,-0.5 1070.5,-19.5 1126.5,-19.5 1126.5,-0.5 1070.5,-0.5"/>
<text text-anchor="middle" x="1098.5" y="-7.5" font-family="Helvetica,sans-Serif" font-size="10.00">Rtypes.h</text>
</g>
<!-- Node13&#45;&gt;Node15 -->
<g id="edge19" class="edge"><title>Node13&#45;&gt;Node15</title>
<path fill="none" stroke="midnightblue" d="M1191.88,-61.9751C1173.91,-52.1664 1144.18,-35.9346 1123.09,-24.425"/>
<polygon fill="midnightblue" stroke="midnightblue" points="1124.54,-21.2284 1114.09,-19.5091 1121.19,-27.3726 1124.54,-21.2284"/>
</g>
<!-- Node16 -->
<g id="node16" class="node"><title>Node16</title>
<polygon fill="none" stroke="#bfbfbf" points="1247,-0.5 1247,-19.5 1306,-19.5 1306,-0.5 1247,-0.5"/>
<text text-anchor="middle" x="1276.5" y="-7.5" font-family="Helvetica,sans-Serif" font-size="10.00">TObject.h</text>
</g>
<!-- Node13&#45;&gt;Node16 -->
<g id="edge20" class="edge"><title>Node13&#45;&gt;Node16</title>
<path fill="none" stroke="midnightblue" d="M1217.39,-61.9751C1228.15,-52.6966 1245.57,-37.6706 1258.72,-26.331"/>
<polygon fill="midnightblue" stroke="midnightblue" points="1261.34,-28.6902 1266.63,-19.5091 1256.77,-23.389 1261.34,-28.6902"/>
</g>
<!-- Node17 -->
<g id="node17" class="node"><title>Node17</title>
<polygon fill="none" stroke="#bfbfbf" points="1326.5,-0.5 1326.5,-19.5 1442.5,-19.5 1442.5,-0.5 1326.5,-0.5"/>
<text text-anchor="middle" x="1384.5" y="-7.5" font-family="Helvetica,sans-Serif" font-size="10.00">Common/Exceptions.h</text>
</g>
<!-- Node13&#45;&gt;Node17 -->
<g id="edge21" class="edge"><title>Node13&#45;&gt;Node17</title>
<path fill="none" stroke="midnightblue" d="M1232.86,-61.9751C1263.48,-51.6804 1315.16,-34.3103 1349.55,-22.7502"/>
<polygon fill="midnightblue" stroke="midnightblue" points="1350.82,-26.0131 1359.19,-19.5091 1348.59,-19.3779 1350.82,-26.0131"/>
</g>
<!-- Node19 -->
<g id="node19" class="node"><title>Node19</title>
<polygon fill="none" stroke="#bfbfbf" points="118,-0.5 118,-19.5 187,-19.5 187,-0.5 118,-0.5"/>
<text text-anchor="middle" x="152.5" y="-7.5" font-family="Helvetica,sans-Serif" font-size="10.00">TObjArray.h</text>
</g>
<!-- Node18&#45;&gt;Node19 -->
<g id="edge23" class="edge"><title>Node18&#45;&gt;Node19</title>
<path fill="none" stroke="midnightblue" d="M197.518,-56.3993C188.768,-47.575 177.471,-36.1827 168.383,-27.0178"/>
<polygon fill="midnightblue" stroke="midnightblue" points="170.612,-24.2942 161.085,-19.6578 165.641,-29.2231 170.612,-24.2942"/>
</g>
<!-- Node20 -->
<g id="node20" class="node"><title>Node20</title>
<polygon fill="none" stroke="#bfbfbf" points="205.5,-0.5 205.5,-19.5 333.5,-19.5 333.5,-0.5 205.5,-0.5"/>
<text text-anchor="middle" x="269.5" y="-7.5" font-family="Helvetica,sans-Serif" font-size="10.00">Mergers/MergeInterface.h</text>
</g>
<!-- Node18&#45;&gt;Node20 -->
<g id="edge24" class="edge"><title>Node18&#45;&gt;Node20</title>
<path fill="none" stroke="midnightblue" d="M225.245,-56.3993C233.847,-47.575 244.952,-36.1827 253.886,-27.0178"/>
<polygon fill="midnightblue" stroke="midnightblue" points="256.586,-29.2616 261.06,-19.6578 251.574,-24.3755 256.586,-29.2616"/>
</g>
<!-- Node21&#45;&gt;Node9 -->
<g id="edge26" class="edge"><title>Node21&#45;&gt;Node9</title>
<path fill="none" stroke="midnightblue" d="M677.479,-61.9751C670.057,-52.9617 658.167,-38.5246 648.933,-27.3118"/>
<polygon fill="midnightblue" stroke="midnightblue" points="651.566,-25.0034 642.507,-19.5091 646.163,-29.4534 651.566,-25.0034"/>
</g>
<!-- Node22 -->
<g id="node22" class="node"><title>Node22</title>
<polygon fill="none" stroke="#bfbfbf" points="783,-0.5 783,-19.5 866,-19.5 866,-0.5 783,-0.5"/>
<text text-anchor="middle" x="824.5" y="-7.5" font-family="Helvetica,sans-Serif" font-size="10.00">unordered_map</text>
</g>
<!-- Node21&#45;&gt;Node22 -->
<g id="edge27" class="edge"><title>Node21&#45;&gt;Node22</title>
<path fill="none" stroke="midnightblue" d="M704.559,-61.9751C728.262,-51.9013 767.906,-35.0525 795.083,-23.5023"/>
<polygon fill="midnightblue" stroke="midnightblue" points="796.644,-26.6417 804.479,-19.5091 793.906,-20.1994 796.644,-26.6417"/>
</g>
<!-- Node23&#45;&gt;Node7 -->
<g id="edge33" class="edge"><title>Node23&#45;&gt;Node7</title>
<path fill="none" stroke="midnightblue" d="M568.575,-190.396C557.945,-181.538 544.052,-169.96 532.203,-160.086"/>
<polygon fill="midnightblue" stroke="midnightblue" points="534.315,-157.29 524.392,-153.577 529.833,-162.667 534.315,-157.29"/>
</g>
<!-- Node23&#45;&gt;Node9 -->
<g id="edge32" class="edge"><title>Node23&#45;&gt;Node9</title>
<path fill="none" stroke="midnightblue" d="M585.316,-190.48C585.406,-163.523 587.769,-102.972 605.5,-56 609.307,-45.9157 615.732,-35.8267 621.662,-27.765"/>
<polygon fill="midnightblue" stroke="midnightblue" points="624.608,-29.6768 627.98,-19.6328 619.081,-25.3819 624.608,-29.6768"/>
</g>
<!-- Node24 -->
<g id="node24" class="node"><title>Node24</title>
<polygon fill="none" stroke="#bfbfbf" points="816.5,-129 816.5,-148 860.5,-148 860.5,-129 816.5,-129"/>
<text text-anchor="middle" x="838.5" y="-136" font-family="Helvetica,sans-Serif" font-size="10.00">vector</text>
</g>
<!-- Node23&#45;&gt;Node24 -->
<g id="edge31" class="edge"><title>Node23&#45;&gt;Node24</title>
<path fill="none" stroke="midnightblue" d="M640.086,-190.476C690.84,-177.436 764.721,-158.455 806.53,-147.714"/>
<polygon fill="midnightblue" stroke="midnightblue" points="807.62,-151.047 816.435,-145.169 805.879,-144.267 807.62,-151.047"/>
</g>
<!-- Node25&#45;&gt;Node4 -->
<g id="edge37" class="edge"><title>Node25&#45;&gt;Node4</title>
<path fill="none" stroke="midnightblue" d="M910.364,-195.856C904.321,-180.054 889.839,-146.013 869.5,-123 856.393,-108.17 838.137,-95.3072 823.419,-86.2749"/>
<polygon fill="midnightblue" stroke="midnightblue" points="825.177,-83.2485 814.79,-81.1626 821.609,-89.271 825.177,-83.2485"/>
</g>
<!-- Node25&#45;&gt;Node6 -->
<g id="edge40" class="edge"><title>Node25&#45;&gt;Node6</title>
<path fill="none" stroke="midnightblue" d="M883.489,-195.869C843.191,-184.278 771.511,-163.662 726.906,-150.834"/>
<polygon fill="midnightblue" stroke="midnightblue" points="727.853,-147.464 717.275,-148.064 725.918,-154.191 727.853,-147.464"/>
</g>
<!-- Node25&#45;&gt;Node9 -->
<g id="edge36" class="edge"><title>Node25&#45;&gt;Node9</title>
<path fill="none" stroke="midnightblue" d="M912.773,-195.924C911.177,-180.518 906.417,-147.483 893.5,-123 874.847,-87.6462 867.949,-76.2755 833.5,-56 780.234,-24.6494 707.054,-15.1339 666.223,-12.2499"/>
<polygon fill="midnightblue" stroke="midnightblue" points="666.286,-8.74726 656.09,-11.6248 665.855,-15.734 666.286,-8.74726"/>
</g>
<!-- Node25&#45;&gt;Node13 -->
<g id="edge49" class="edge"><title>Node25&#45;&gt;Node13</title>
<path fill="none" stroke="midnightblue" d="M932.79,-195.839C983.373,-173.128 1120.02,-111.778 1179.36,-85.1355"/>
<polygon fill="midnightblue" stroke="midnightblue" points="1180.83,-88.3101 1188.52,-81.0212 1177.96,-81.9242 1180.83,-88.3101"/>
</g>
<!-- Node25&#45;&gt;Node22 -->
<g id="edge39" class="edge"><title>Node25&#45;&gt;Node22</title>
<path fill="none" stroke="midnightblue" d="M919.92,-195.749C926.571,-186.093 936.537,-169.816 940.5,-154 951.085,-111.75 965.107,-91.9389 940.5,-56 925.978,-34.7898 899.891,-23.5749 876.13,-17.6458"/>
<polygon fill="midnightblue" stroke="midnightblue" points="876.652,-14.1762 866.129,-15.4147 875.127,-21.0082 876.652,-14.1762"/>
</g>
<!-- Node25&#45;&gt;Node24 -->
<g id="edge38" class="edge"><title>Node25&#45;&gt;Node24</title>
<path fill="none" stroke="midnightblue" d="M903.385,-195.734C891.352,-185.305 871.049,-167.709 856.354,-154.973"/>
<polygon fill="midnightblue" stroke="midnightblue" points="858.304,-152.032 848.455,-148.127 853.719,-157.322 858.304,-152.032"/>
</g>
<!-- Node26 -->
<g id="node26" class="node"><title>Node26</title>
<g id="a_node26"><a xlink:href="QualityObject_8h_source.html" target="_top" xlink:title="QualityControl/QualityObject.h">
<polygon fill="none" stroke="black" points="1237,-129 1237,-148 1386,-148 1386,-129 1237,-129"/>
<text text-anchor="middle" x="1311.5" y="-136" font-family="Helvetica,sans-Serif" font-size="10.00">QualityControl/QualityObject.h</text>
</a>
</g>
</g>
<!-- Node25&#45;&gt;Node26 -->
<g id="edge41" class="edge"><title>Node25&#45;&gt;Node26</title>
<path fill="none" stroke="midnightblue" d="M965.941,-195.936C1038.97,-184.009 1171.08,-162.432 1249.09,-149.693"/>
<polygon fill="midnightblue" stroke="midnightblue" points="1249.95,-153.098 1259.26,-148.032 1248.83,-146.189 1249.95,-153.098"/>
</g>
<!-- Node26&#45;&gt;Node14 -->
<g id="edge42" class="edge"><title>Node26&#45;&gt;Node14</title>
<path fill="none" stroke="midnightblue" d="M1311.72,-128.909C1311.7,-112.892 1309.53,-78.0972 1292.5,-56 1278.07,-37.2762 1253.61,-25.5 1234.62,-18.713"/>
<polygon fill="midnightblue" stroke="midnightblue" points="1235.6,-15.3493 1225.01,-15.5257 1233.4,-21.9939 1235.6,-15.3493"/>
</g>
<!-- Node26&#45;&gt;Node16 -->
<g id="edge43" class="edge"><title>Node26&#45;&gt;Node16</title>
<path fill="none" stroke="midnightblue" d="M1316.24,-128.534C1323.72,-113.081 1336.36,-80.7105 1325.5,-56 1320.11,-43.732 1309.54,-33.3414 1299.6,-25.6461"/>
<polygon fill="midnightblue" stroke="midnightblue" points="1301.33,-22.5811 1291.16,-19.598 1297.25,-28.2697 1301.33,-22.5811"/>
</g>
<!-- Node26&#45;&gt;Node17 -->
<g id="edge44" class="edge"><title>Node26&#45;&gt;Node17</title>
<path fill="none" stroke="midnightblue" d="M1316.65,-128.955C1322.67,-118.938 1332.91,-101.821 1341.5,-87 1352.98,-67.2049 1365.87,-44.3325 1374.52,-28.8928"/>
<polygon fill="midnightblue" stroke="midnightblue" points="1377.7,-30.3636 1379.53,-19.9271 1371.59,-26.9476 1377.7,-30.3636"/>
</g>
<!-- Node27 -->
<g id="node27" class="node"><title>Node27</title>
<g id="a_node27"><a xlink:href="Quality_8h.html" target="_top" xlink:title="QualityControl/Quality.h">
<polygon fill="none" stroke="black" points="993,-62 993,-81 1114,-81 1114,-62 993,-62"/>
<text text-anchor="middle" x="1053.5" y="-69" font-family="Helvetica,sans-Serif" font-size="10.00">QualityControl/Quality.h</text>
</a>
</g>
</g>
<!-- Node26&#45;&gt;Node27 -->
<g id="edge45" class="edge"><title>Node26&#45;&gt;Node27</title>
<path fill="none" stroke="midnightblue" d="M1277.51,-128.936C1231.2,-117.268 1148.23,-96.3669 1097.31,-83.5367"/>
<polygon fill="midnightblue" stroke="midnightblue" points="1098.12,-80.1326 1087.57,-81.0834 1096.41,-86.9205 1098.12,-80.1326"/>
</g>
<!-- Node27&#45;&gt;Node9 -->
<g id="edge47" class="edge"><title>Node27&#45;&gt;Node9</title>
<path fill="none" stroke="midnightblue" d="M993.611,-61.9751C903.399,-49.1339 735.85,-25.2843 666.645,-15.4334"/>
<polygon fill="midnightblue" stroke="midnightblue" points="666.803,-11.9206 656.41,-13.9764 665.817,-18.8508 666.803,-11.9206"/>
</g>
<!-- Node27&#45;&gt;Node14 -->
<g id="edge48" class="edge"><title>Node27&#45;&gt;Node14</title>
<path fill="none" stroke="midnightblue" d="M1075.56,-61.9751C1103.21,-51.2933 1150.57,-32.994 1180.4,-21.4715"/>
<polygon fill="midnightblue" stroke="midnightblue" points="1181.72,-24.7133 1189.78,-17.8445 1179.2,-18.1837 1181.72,-24.7133"/>
</g>
<!-- Node27&#45;&gt;Node15 -->
<g id="edge46" class="edge"><title>Node27&#45;&gt;Node15</title>
<path fill="none" stroke="midnightblue" d="M1059.95,-61.9751C1066.7,-53.0501 1077.47,-38.8071 1085.91,-27.6425"/>
<polygon fill="midnightblue" stroke="midnightblue" points="1088.82,-29.5962 1092.06,-19.5091 1083.24,-25.3737 1088.82,-29.5962"/>
</g>
</g>
</svg>
        <g id="navigator" transform="translate(0 0)" fill="#404254">
                <rect fill="#f2f5e9" fill-opacity="0.5" stroke="#606060" stroke-width=".5" x="0" y="0" width="60" height="60"/>
                <use id="zoomplus" xlink:href="#zoomPlus" x="17" y="9" onmousedown="handleZoom(evt,'in')"/>
                <use id="zoomminus" xlink:href="#zoomMin" x="42" y="9" onmousedown="handleZoom(evt,'out')"/>
                <use id="reset" xlink:href="#resetDef" x="30" y="36" onmousedown="handleReset()"/>
                <g id="arrowUp" xlink:href="#dirArrow" transform="translate(30 24)" onmousedown="handlePan(0,-1)">
                  <use xlink:href="#rim" fill="#404040">
                        <set attributeName="fill" to="#808080" begin="arrowUp.mouseover" end="arrowUp.mouseout"/>
                  </use>
                  <path fill="none" stroke="white" stroke-width="1.5" d="M0,-3.0v7 M-2.5,-0.5L0,-3.0L2.5,-0.5"/>
                </g>
                <g id="arrowRight" xlink:href="#dirArrow" transform="rotate(90) translate(36 -43)" onmousedown="handlePan(1,0)">
                  <use xlink:href="#rim" fill="#404040">
                        <set attributeName="fill" to="#808080" begin="arrowRight.mouseover" end="arrowRight.mouseout"/>
                  </use>
                  <path fill="none" stroke="white" stroke-width="1.5" d="M0,-3.0v7 M-2.5,-0.5L0,-3.0L2.5,-0.5"/>
                </g>
                <g id="arrowDown" xlink:href="#dirArrow" transform="rotate(180) translate(-30 -48)" onmousedown="handlePan(0,1)">
                  <use xlink:href="#rim" fill="#404040">
                        <set attributeName="fill" to="#808080" begin="arrowDown.mouseover" end="arrowDown.mouseout"/>
                  </use>
                  <path fill="none" stroke="white" stroke-width="1.5" d="M0,-3.0v7 M-2.5,-0.5L0,-3.0L2.5,-0.5"/>
                </g>
                <g id="arrowLeft" xlink:href="#dirArrow" transform="rotate(270) translate(-36 17)" onmousedown="handlePan(-1,0)">
                  <use xlink:href="#rim" fill="#404040">
                        <set attributeName="fill" to="#808080" begin="arrowLeft.mouseover" end="arrowLeft.mouseout"/>
                  </use>
                  <path fill="none" stroke="white" stroke-width="1.5" d="M0,-3.0v7 M-2.5,-0.5L0,-3.0L2.5,-0.5"/>
                </g>
        </g>
        <svg viewBox="0 0 15 15" width="100%" height="30px" preserveAspectRatio="xMaxYMin meet">
         <g id="arrow_out" transform="scale(0.3 0.3)">
          <a xlink:href="testPostProcessingRunner_8cxx__incl_org.svg" target="_base">
           <rect id="button" ry="5" rx="5" y="6" x="6" height="38" width="38"
                fill="#f2f5e9" fill-opacity="0.5" stroke="#606060" stroke-width="1.0"/>
           <path id="arrow"
             d="M 11.500037,31.436501 C 11.940474,20.09759 22.043105,11.32322 32.158766,21.979434 L 37.068811,17.246167 C 37.068811,17.246167 37.088388,32 37.088388,32 L 22.160133,31.978069 C 22.160133,31.978069 26.997745,27.140456 26.997745,27.140456 C 18.528582,18.264221 13.291696,25.230495 11.500037,31.436501 z"
             style="fill:#404040;"/>
          </a>
         </g>
        </svg>
</svg>
