<?xml version="1.0" encoding="UTF-8" standalone="no"?>
<!DOCTYPE svg PUBLIC "-//W3C//DTD SVG 1.1//EN"
 "http://www.w3.org/Graphics/SVG/1.1/DTD/svg11.dtd">
<!-- Generated by graphviz version 2.38.0 (20140413.2041)
 -->
<!-- Title: Framework/test/testTrendingTask.cxx Pages: 1 -->
<svg width="1552pt" height="363pt"
 viewBox="0.00 0.00 1551.51 363.00" xmlns="http://www.w3.org/2000/svg" xmlns:xlink="http://www.w3.org/1999/xlink">
<g id="graph0" class="graph" transform="scale(1 1) rotate(0) translate(4 359)">
<title>Framework/test/testTrendingTask.cxx</title>
<!-- Node1 -->
<g id="node1" class="node"><title>Node1</title>
<polygon fill="#bfbfbf" stroke="black" points="950.007,-324.5 950.007,-354.5 1092.01,-354.5 1092.01,-324.5 950.007,-324.5"/>
<text text-anchor="start" x="958.007" y="-342.5" font-family="Helvetica,sans-Serif" font-size="10.00">Framework/test/testTrending</text>
<text text-anchor="middle" x="1021.01" y="-331.5" font-family="Helvetica,sans-Serif" font-size="10.00">Task.cxx</text>
</g>
<!-- Node2 -->
<g id="node2" class="node"><title>Node2</title>
<polygon fill="none" stroke="#bfbfbf" points="83.5074,-263 83.5074,-282 202.507,-282 202.507,-263 83.5074,-263"/>
<text text-anchor="middle" x="143.007" y="-270" font-family="Helvetica,sans-Serif" font-size="10.00">getTestDataDirectory.h</text>
</g>
<!-- Node1&#45;&gt;Node2 -->
<g id="edge1" class="edge"><title>Node1&#45;&gt;Node2</title>
<path fill="none" stroke="midnightblue" d="M949.998,-337.155C809.491,-333.806 486.283,-322.687 217.007,-288 208.792,-286.942 200.117,-285.521 191.711,-283.981"/>
<polygon fill="midnightblue" stroke="midnightblue" points="192.12,-280.496 181.641,-282.061 190.808,-287.372 192.12,-280.496"/>
</g>
<!-- Node3 -->
<g id="node3" class="node"><title>Node3</title>
<g id="a_node3"><a xlink:href="TrendingTask_8h.html" target="_top" xlink:title="QualityControl/TrendingTask.h">
<polygon fill="none" stroke="black" points="538.507,-263 538.507,-282 687.507,-282 687.507,-263 538.507,-263"/>
<text text-anchor="middle" x="613.007" y="-270" font-family="Helvetica,sans-Serif" font-size="10.00">QualityControl/TrendingTask.h</text>
</a>
</g>
</g>
<!-- Node1&#45;&gt;Node3 -->
<g id="edge2" class="edge"><title>Node1&#45;&gt;Node3</title>
<path fill="none" stroke="midnightblue" d="M949.939,-327.178C872.748,-314.88 750.581,-295.417 676.497,-283.615"/>
<polygon fill="midnightblue" stroke="midnightblue" points="676.799,-280.119 666.372,-282.002 675.697,-287.032 676.799,-280.119"/>
</g>
<!-- Node6 -->
<g id="node6" class="node"><title>Node6</title>
<polygon fill="none" stroke="#bfbfbf" points="842.007,-129 842.007,-148 988.007,-148 988.007,-129 842.007,-129"/>
<text text-anchor="middle" x="915.007" y="-136" font-family="Helvetica,sans-Serif" font-size="10.00">Framework/ServiceRegistry.h</text>
</g>
<!-- Node1&#45;&gt;Node6 -->
<g id="edge57" class="edge"><title>Node1&#45;&gt;Node6</title>
<path fill="none" stroke="midnightblue" d="M985.878,-324.382C947.909,-306.79 890.243,-272.61 871.007,-221 866.196,-208.09 866.175,-202.903 871.007,-190 876.106,-176.388 886.715,-164.029 896.239,-154.944"/>
<polygon fill="midnightblue" stroke="midnightblue" points="898.731,-157.411 903.838,-148.128 894.057,-152.2 898.731,-157.411"/>
</g>
<!-- Node8 -->
<g id="node8" class="node"><title>Node8</title>
<g id="a_node8"><a xlink:href="Triggers_8h.html" target="_top" xlink:title="QualityControl/Triggers.h">
<polygon fill="none" stroke="black" points="44.5074,-129 44.5074,-148 169.507,-148 169.507,-129 44.5074,-129"/>
<text text-anchor="middle" x="107.007" y="-136" font-family="Helvetica,sans-Serif" font-size="10.00">QualityControl/Triggers.h</text>
</a>
</g>
</g>
<!-- Node1&#45;&gt;Node8 -->
<g id="edge56" class="edge"><title>Node1&#45;&gt;Node8</title>
<path fill="none" stroke="midnightblue" d="M949.953,-338.166C810.674,-335.276 494.093,-317.6 250.007,-221 204.135,-202.846 155.098,-172.111 128.027,-154.021"/>
<polygon fill="midnightblue" stroke="midnightblue" points="129.653,-150.895 119.409,-148.191 125.731,-156.693 129.653,-150.895"/>
</g>
<!-- Node12 -->
<g id="node12" class="node"><title>Node12</title>
<g id="a_node12"><a xlink:href="MonitorObject_8h.html" target="_top" xlink:title="QualityControl/MonitorObject.h">
<polygon fill="none" stroke="black" points="1267.51,-62 1267.51,-81 1418.51,-81 1418.51,-62 1267.51,-62"/>
<text text-anchor="middle" x="1343.01" y="-69" font-family="Helvetica,sans-Serif" font-size="10.00">QualityControl/MonitorObject.h</text>
</a>
</g>
</g>
<!-- Node1&#45;&gt;Node12 -->
<g id="edge55" class="edge"><title>Node1&#45;&gt;Node12</title>
<path fill="none" stroke="midnightblue" d="M1056.52,-324.381C1116.34,-298.92 1237.55,-239.857 1308.01,-154 1323.46,-135.171 1333.18,-108.497 1338.35,-90.8599"/>
<polygon fill="midnightblue" stroke="midnightblue" points="1341.73,-91.7662 1340.99,-81.197 1334.98,-89.9192 1341.73,-91.7662"/>
</g>
<!-- Node28 -->
<g id="node28" class="node"><title>Node28</title>
<g id="a_node28"><a xlink:href="DatabaseFactory_8h.html" target="_top" xlink:title="QualityControl/DatabaseFactory.h">
<polygon fill="none" stroke="black" points="938.507,-263 938.507,-282 1103.51,-282 1103.51,-263 938.507,-263"/>
<text text-anchor="middle" x="1021.01" y="-270" font-family="Helvetica,sans-Serif" font-size="10.00">QualityControl/DatabaseFactory.h</text>
</a>
</g>
</g>
<!-- Node1&#45;&gt;Node28 -->
<g id="edge38" class="edge"><title>Node1&#45;&gt;Node28</title>
<path fill="none" stroke="midnightblue" d="M1021.01,-324.396C1021.01,-315.064 1021.01,-302.714 1021.01,-292.517"/>
<polygon fill="midnightblue" stroke="midnightblue" points="1024.51,-292.195 1021.01,-282.195 1017.51,-292.195 1024.51,-292.195"/>
</g>
<!-- Node32 -->
<g id="node32" class="node"><title>Node32</title>
<polygon fill="none" stroke="#bfbfbf" points="1206.51,-257.5 1206.51,-287.5 1341.51,-287.5 1341.51,-257.5 1206.51,-257.5"/>
<text text-anchor="start" x="1214.51" y="-275.5" font-family="Helvetica,sans-Serif" font-size="10.00">Configuration/Configuration</text>
<text text-anchor="middle" x="1274.01" y="-264.5" font-family="Helvetica,sans-Serif" font-size="10.00">Factory.h</text>
</g>
<!-- Node1&#45;&gt;Node32 -->
<g id="edge58" class="edge"><title>Node1&#45;&gt;Node32</title>
<path fill="none" stroke="midnightblue" d="M1075.59,-324.476C1114.86,-314.387 1167.98,-300.741 1209.37,-290.107"/>
<polygon fill="midnightblue" stroke="midnightblue" points="1210.27,-293.489 1219.08,-287.611 1208.53,-286.709 1210.27,-293.489"/>
</g>
<!-- Node33 -->
<g id="node33" class="node"><title>Node33</title>
<polygon fill="none" stroke="#bfbfbf" points="1359.51,-263 1359.51,-282 1406.51,-282 1406.51,-263 1359.51,-263"/>
<text text-anchor="middle" x="1383.01" y="-270" font-family="Helvetica,sans-Serif" font-size="10.00">TH1I.h</text>
</g>
<!-- Node1&#45;&gt;Node33 -->
<g id="edge59" class="edge"><title>Node1&#45;&gt;Node33</title>
<path fill="none" stroke="midnightblue" d="M1092.08,-333.275C1159.75,-326.986 1263.92,-313.861 1351.01,-288 1352.94,-287.427 1354.9,-286.761 1356.86,-286.035"/>
<polygon fill="midnightblue" stroke="midnightblue" points="1358.51,-289.138 1366.4,-282.064 1355.82,-282.675 1358.51,-289.138"/>
</g>
<!-- Node34 -->
<g id="node34" class="node"><title>Node34</title>
<polygon fill="none" stroke="#bfbfbf" points="1424.51,-263 1424.51,-282 1543.51,-282 1543.51,-263 1424.51,-263"/>
<text text-anchor="middle" x="1484.01" y="-270" font-family="Helvetica,sans-Serif" font-size="10.00">boost/test/unit_test.hpp</text>
</g>
<!-- Node1&#45;&gt;Node34 -->
<g id="edge60" class="edge"><title>Node1&#45;&gt;Node34</title>
<path fill="none" stroke="midnightblue" d="M1092.27,-331.189C1171.57,-322.636 1303.38,-307.173 1416.01,-288 1422.72,-286.857 1429.78,-285.513 1436.71,-284.112"/>
<polygon fill="midnightblue" stroke="midnightblue" points="1437.62,-287.497 1446.7,-282.037 1436.2,-280.643 1437.62,-287.497"/>
</g>
<!-- Node4 -->
<g id="node4" class="node"><title>Node4</title>
<g id="a_node4"><a xlink:href="PostProcessingInterface_8h.html" target="_top" xlink:title="QualityControl/PostProcessing\lInterface.h">
<polygon fill="none" stroke="black" points="418.507,-190.5 418.507,-220.5 569.507,-220.5 569.507,-190.5 418.507,-190.5"/>
<text text-anchor="start" x="426.507" y="-208.5" font-family="Helvetica,sans-Serif" font-size="10.00">QualityControl/PostProcessing</text>
<text text-anchor="middle" x="494.007" y="-197.5" font-family="Helvetica,sans-Serif" font-size="10.00">Interface.h</text>
</a>
</g>
</g>
<!-- Node3&#45;&gt;Node4 -->
<g id="edge3" class="edge"><title>Node3&#45;&gt;Node4</title>
<path fill="none" stroke="midnightblue" d="M596.958,-262.734C579.562,-253.231 551.268,-237.777 528.741,-225.472"/>
<polygon fill="midnightblue" stroke="midnightblue" points="530.255,-222.311 519.801,-220.589 526.899,-228.454 530.255,-222.311"/>
</g>
<!-- Node21 -->
<g id="node21" class="node"><title>Node21</title>
<polygon fill="none" stroke="#bfbfbf" points="516.507,-0.5 516.507,-19.5 599.507,-19.5 599.507,-0.5 516.507,-0.5"/>
<text text-anchor="middle" x="558.007" y="-7.5" font-family="Helvetica,sans-Serif" font-size="10.00">unordered_map</text>
</g>
<!-- Node3&#45;&gt;Node21 -->
<g id="edge36" class="edge"><title>Node3&#45;&gt;Node21</title>
<path fill="none" stroke="midnightblue" d="M538.379,-265.548C399.524,-253.027 108.861,-219.556 35.0074,-154 10.6069,-132.341 11.8245,-118.906 5.00736,-87 2.12857,-73.5263 -4.33157,-66.1297 5.00736,-56 38.58,-19.5844 375.173,-12.6361 506.2,-11.3115"/>
<polygon fill="midnightblue" stroke="midnightblue" points="506.416,-14.8097 516.382,-11.2158 506.35,-7.81005 506.416,-14.8097"/>
</g>
<!-- Node22 -->
<g id="node22" class="node"><title>Node22</title>
<polygon fill="none" stroke="#bfbfbf" points="982.007,-62 982.007,-81 1034.01,-81 1034.01,-62 982.007,-62"/>
<text text-anchor="middle" x="1008.01" y="-69" font-family="Helvetica,sans-Serif" font-size="10.00">memory</text>
</g>
<!-- Node3&#45;&gt;Node22 -->
<g id="edge35" class="edge"><title>Node3&#45;&gt;Node22</title>
<path fill="none" stroke="midnightblue" d="M687.83,-266.246C724.024,-260.157 765.837,-247.41 795.007,-221 829.638,-189.646 798.22,-154.179 833.007,-123 879.249,-81.5551 908.761,-105.599 968.007,-87 970.562,-86.198 973.195,-85.3324 975.834,-84.4373"/>
<polygon fill="midnightblue" stroke="midnightblue" points="976.999,-87.7375 985.279,-81.1273 974.684,-81.1314 976.999,-87.7375"/>
</g>
<!-- Node23 -->
<g id="node23" class="node"><title>Node23</title>
<g id="a_node23"><a xlink:href="TrendingTaskConfig_8h.html" target="_top" xlink:title="QualityControl/TrendingTask\lConfig.h">
<polygon fill="none" stroke="black" points="259.507,-190.5 259.507,-220.5 400.507,-220.5 400.507,-190.5 259.507,-190.5"/>
<text text-anchor="start" x="267.507" y="-208.5" font-family="Helvetica,sans-Serif" font-size="10.00">QualityControl/TrendingTask</text>
<text text-anchor="middle" x="330.007" y="-197.5" font-family="Helvetica,sans-Serif" font-size="10.00">Config.h</text>
</a>
</g>
</g>
<!-- Node3&#45;&gt;Node23 -->
<g id="edge26" class="edge"><title>Node3&#45;&gt;Node23</title>
<path fill="none" stroke="midnightblue" d="M575.719,-262.936C531.401,-252.757 456.48,-235.548 400.992,-222.804"/>
<polygon fill="midnightblue" stroke="midnightblue" points="401.749,-219.387 391.219,-220.559 400.181,-226.209 401.749,-219.387"/>
</g>
<!-- Node26 -->
<g id="node26" class="node"><title>Node26</title>
<g id="a_node26"><a xlink:href="Reductor_8h.html" target="_top" xlink:title="QualityControl/Reductor.h">
<polygon fill="none" stroke="black" points="656.007,-196 656.007,-215 786.007,-215 786.007,-196 656.007,-196"/>
<text text-anchor="middle" x="721.007" y="-203" font-family="Helvetica,sans-Serif" font-size="10.00">QualityControl/Reductor.h</text>
</a>
</g>
</g>
<!-- Node3&#45;&gt;Node26 -->
<g id="edge33" class="edge"><title>Node3&#45;&gt;Node26</title>
<path fill="none" stroke="midnightblue" d="M627.573,-262.734C645.628,-251.867 676.618,-233.216 697.924,-220.393"/>
<polygon fill="midnightblue" stroke="midnightblue" points="699.91,-223.283 706.673,-215.127 696.3,-217.285 699.91,-223.283"/>
</g>
<!-- Node27 -->
<g id="node27" class="node"><title>Node27</title>
<polygon fill="none" stroke="#bfbfbf" points="588.007,-196 588.007,-215 638.007,-215 638.007,-196 588.007,-196"/>
<text text-anchor="middle" x="613.007" y="-203" font-family="Helvetica,sans-Serif" font-size="10.00">TTree.h</text>
</g>
<!-- Node3&#45;&gt;Node27 -->
<g id="edge37" class="edge"><title>Node3&#45;&gt;Node27</title>
<path fill="none" stroke="midnightblue" d="M613.007,-262.734C613.007,-253.183 613.007,-237.618 613.007,-225.283"/>
<polygon fill="midnightblue" stroke="midnightblue" points="616.507,-225.127 613.007,-215.127 609.507,-225.127 616.507,-225.127"/>
</g>
<!-- Node5 -->
<g id="node5" class="node"><title>Node5</title>
<polygon fill="none" stroke="#bfbfbf" points="635.507,-0.5 635.507,-19.5 676.507,-19.5 676.507,-0.5 635.507,-0.5"/>
<text text-anchor="middle" x="656.007" y="-7.5" font-family="Helvetica,sans-Serif" font-size="10.00">string</text>
</g>
<!-- Node4&#45;&gt;Node5 -->
<g id="edge4" class="edge"><title>Node4&#45;&gt;Node5</title>
<path fill="none" stroke="midnightblue" d="M498.991,-190.188C509.521,-161.648 536.448,-96.8894 577.007,-56 590.815,-42.0796 609.824,-31.0732 625.734,-23.4305"/>
<polygon fill="midnightblue" stroke="midnightblue" points="627.532,-26.4567 635.167,-19.1105 624.617,-20.0924 627.532,-26.4567"/>
</g>
<!-- Node4&#45;&gt;Node6 -->
<g id="edge5" class="edge"><title>Node4&#45;&gt;Node6</title>
<path fill="none" stroke="midnightblue" d="M569.538,-191.536C572.737,-191.012 575.903,-190.498 579.007,-190 671.11,-175.224 777.632,-159.434 845.617,-149.52"/>
<polygon fill="midnightblue" stroke="midnightblue" points="846.384,-152.946 855.775,-148.041 845.375,-146.019 846.384,-152.946"/>
</g>
<!-- Node7 -->
<g id="node7" class="node"><title>Node7</title>
<polygon fill="none" stroke="#bfbfbf" points="328.507,-56.5 328.507,-86.5 429.507,-86.5 429.507,-56.5 328.507,-56.5"/>
<text text-anchor="start" x="336.507" y="-74.5" font-family="Helvetica,sans-Serif" font-size="10.00">boost/property_tree</text>
<text text-anchor="middle" x="379.007" y="-63.5" font-family="Helvetica,sans-Serif" font-size="10.00">/ptree_fwd.hpp</text>
</g>
<!-- Node4&#45;&gt;Node7 -->
<g id="edge6" class="edge"><title>Node4&#45;&gt;Node7</title>
<path fill="none" stroke="midnightblue" d="M481.7,-190.374C461.641,-167.349 421.759,-121.572 398.031,-94.3361"/>
<polygon fill="midnightblue" stroke="midnightblue" points="400.434,-91.7656 391.226,-86.5247 395.156,-96.3638 400.434,-91.7656"/>
</g>
<!-- Node4&#45;&gt;Node8 -->
<g id="edge7" class="edge"><title>Node4&#45;&gt;Node8</title>
<path fill="none" stroke="midnightblue" d="M418.466,-191.6C415.27,-191.059 412.107,-190.524 409.007,-190 325.764,-175.94 229.578,-159.89 168.544,-149.73"/>
<polygon fill="midnightblue" stroke="midnightblue" points="168.753,-146.216 158.314,-148.027 167.604,-153.121 168.753,-146.216"/>
</g>
<!-- Node11 -->
<g id="node11" class="node"><title>Node11</title>
<g id="a_node11"><a xlink:href="ObjectsManager_8h.html" target="_top" xlink:title="QualityControl/ObjectsManager.h">
<polygon fill="none" stroke="black" points="586.507,-129 586.507,-148 747.507,-148 747.507,-129 586.507,-129"/>
<text text-anchor="middle" x="667.007" y="-136" font-family="Helvetica,sans-Serif" font-size="10.00">QualityControl/ObjectsManager.h</text>
</a>
</g>
</g>
<!-- Node4&#45;&gt;Node11 -->
<g id="edge11" class="edge"><title>Node4&#45;&gt;Node11</title>
<path fill="none" stroke="midnightblue" d="M531.546,-190.396C562.304,-178.84 605.376,-162.656 634.635,-151.663"/>
<polygon fill="midnightblue" stroke="midnightblue" points="636.236,-154.801 644.366,-148.007 633.774,-148.248 636.236,-154.801"/>
</g>
<!-- Node8&#45;&gt;Node5 -->
<g id="edge8" class="edge"><title>Node8&#45;&gt;Node5</title>
<path fill="none" stroke="midnightblue" d="M112.527,-128.894C124.209,-111.529 153.315,-72.5436 189.007,-56 273.797,-16.7002 515.41,-32.6269 608.007,-20 613.573,-19.2411 619.472,-18.2722 625.16,-17.2529"/>
<polygon fill="midnightblue" stroke="midnightblue" points="625.869,-20.6811 635.052,-15.398 624.579,-13.801 625.869,-20.6811"/>
</g>
<!-- Node9 -->
<g id="node9" class="node"><title>Node9</title>
<polygon fill="none" stroke="#bfbfbf" points="77.5074,-62 77.5074,-81 136.507,-81 136.507,-62 77.5074,-62"/>
<text text-anchor="middle" x="107.007" y="-69" font-family="Helvetica,sans-Serif" font-size="10.00">functional</text>
</g>
<!-- Node8&#45;&gt;Node9 -->
<g id="edge9" class="edge"><title>Node8&#45;&gt;Node9</title>
<path fill="none" stroke="midnightblue" d="M107.007,-128.734C107.007,-119.183 107.007,-103.618 107.007,-91.2829"/>
<polygon fill="midnightblue" stroke="midnightblue" points="110.507,-91.1273 107.007,-81.1273 103.507,-91.1273 110.507,-91.1273"/>
</g>
<!-- Node10 -->
<g id="node10" class="node"><title>Node10</title>
<polygon fill="none" stroke="#bfbfbf" points="14.5074,-62 14.5074,-81 59.5074,-81 59.5074,-62 14.5074,-62"/>
<text text-anchor="middle" x="37.0074" y="-69" font-family="Helvetica,sans-Serif" font-size="10.00">iosfwd</text>
</g>
<!-- Node8&#45;&gt;Node10 -->
<g id="edge10" class="edge"><title>Node8&#45;&gt;Node10</title>
<path fill="none" stroke="midnightblue" d="M97.5668,-128.734C86.3363,-118.305 67.3861,-100.709 53.6708,-87.9732"/>
<polygon fill="midnightblue" stroke="midnightblue" points="56.0078,-85.3671 46.2983,-81.1273 51.2447,-90.4966 56.0078,-85.3671"/>
</g>
<!-- Node11&#45;&gt;Node5 -->
<g id="edge24" class="edge"><title>Node11&#45;&gt;Node5</title>
<path fill="none" stroke="midnightblue" d="M686.907,-128.994C703.165,-120.842 725.03,-106.837 735.007,-87 741.198,-74.6914 741.931,-67.9118 735.007,-56 724.597,-38.0899 704.098,-26.7164 686.59,-19.8846"/>
<polygon fill="midnightblue" stroke="midnightblue" points="687.321,-16.4296 676.726,-16.3719 684.972,-23.0239 687.321,-16.4296"/>
</g>
<!-- Node11&#45;&gt;Node12 -->
<g id="edge12" class="edge"><title>Node11&#45;&gt;Node12</title>
<path fill="none" stroke="midnightblue" d="M747.636,-130.411C774.761,-128.039 805.193,-125.39 833.007,-123 1022.32,-106.733 1070.54,-111.183 1259.01,-87 1268.38,-85.7978 1278.3,-84.2937 1287.91,-82.7129"/>
<polygon fill="midnightblue" stroke="midnightblue" points="1288.5,-86.1626 1297.78,-81.0473 1287.33,-79.2602 1288.5,-86.1626"/>
</g>
<!-- Node17 -->
<g id="node17" class="node"><title>Node17</title>
<g id="a_node17"><a xlink:href="MonitorObjectCollection_8h.html" target="_top" xlink:title="QualityControl/MonitorObject\lCollection.h">
<polygon fill="none" stroke="black" points="782.507,-56.5 782.507,-86.5 925.507,-86.5 925.507,-56.5 782.507,-56.5"/>
<text text-anchor="start" x="790.507" y="-74.5" font-family="Helvetica,sans-Serif" font-size="10.00">QualityControl/MonitorObject</text>
<text text-anchor="middle" x="854.007" y="-63.5" font-family="Helvetica,sans-Serif" font-size="10.00">Collection.h</text>
</a>
</g>
</g>
<!-- Node11&#45;&gt;Node17 -->
<g id="edge18" class="edge"><title>Node11&#45;&gt;Node17</title>
<path fill="none" stroke="midnightblue" d="M691.84,-128.869C720.264,-118.988 767.558,-102.549 803.758,-89.9662"/>
<polygon fill="midnightblue" stroke="midnightblue" points="805.353,-93.1174 813.65,-86.5281 803.055,-86.5054 805.353,-93.1174"/>
</g>
<!-- Node20 -->
<g id="node20" class="node"><title>Node20</title>
<g id="a_node20"><a xlink:href="TaskConfig_8h.html" target="_top" xlink:title="QualityControl/TaskConfig.h">
<polygon fill="none" stroke="black" points="586.007,-62 586.007,-81 726.007,-81 726.007,-62 586.007,-62"/>
<text text-anchor="middle" x="656.007" y="-69" font-family="Helvetica,sans-Serif" font-size="10.00">QualityControl/TaskConfig.h</text>
</a>
</g>
</g>
<!-- Node11&#45;&gt;Node20 -->
<g id="edge21" class="edge"><title>Node11&#45;&gt;Node20</title>
<path fill="none" stroke="midnightblue" d="M665.524,-128.734C663.907,-119.183 661.274,-103.618 659.186,-91.2829"/>
<polygon fill="midnightblue" stroke="midnightblue" points="662.587,-90.4031 657.467,-81.1273 655.685,-91.5711 662.587,-90.4031"/>
</g>
<!-- Node11&#45;&gt;Node22 -->
<g id="edge25" class="edge"><title>Node11&#45;&gt;Node22</title>
<path fill="none" stroke="midnightblue" d="M712.853,-128.923C766.054,-118.949 856.413,-101.94 934.007,-87 946.337,-84.6261 959.814,-81.9959 971.848,-79.6345"/>
<polygon fill="midnightblue" stroke="midnightblue" points="972.851,-83.0045 981.988,-77.6417 971.501,-76.1359 972.851,-83.0045"/>
</g>
<!-- Node12&#45;&gt;Node5 -->
<g id="edge13" class="edge"><title>Node12&#45;&gt;Node5</title>
<path fill="none" stroke="midnightblue" d="M1298.66,-61.9917C1285.9,-59.7751 1271.94,-57.5708 1259.01,-56 1034.76,-28.7527 977.146,-38.544 752.007,-20 730.15,-18.1996 705.52,-15.8848 686.681,-14.0536"/>
<polygon fill="midnightblue" stroke="midnightblue" points="686.888,-10.5572 676.595,-13.0657 686.206,-17.5239 686.888,-10.5572"/>
</g>
<!-- Node13 -->
<g id="node13" class="node"><title>Node13</title>
<polygon fill="none" stroke="#bfbfbf" points="1325.51,-0.5 1325.51,-19.5 1360.51,-19.5 1360.51,-0.5 1325.51,-0.5"/>
<text text-anchor="middle" x="1343.01" y="-7.5" font-family="Helvetica,sans-Serif" font-size="10.00">map</text>
</g>
<!-- Node12&#45;&gt;Node13 -->
<g id="edge14" class="edge"><title>Node12&#45;&gt;Node13</title>
<path fill="none" stroke="midnightblue" d="M1343.01,-61.9751C1343.01,-53.5803 1343.01,-40.4806 1343.01,-29.6631"/>
<polygon fill="midnightblue" stroke="midnightblue" points="1346.51,-29.5091 1343.01,-19.5091 1339.51,-29.5091 1346.51,-29.5091"/>
</g>
<!-- Node14 -->
<g id="node14" class="node"><title>Node14</title>
<polygon fill="none" stroke="#bfbfbf" points="1206.01,-0.5 1206.01,-19.5 1262.01,-19.5 1262.01,-0.5 1206.01,-0.5"/>
<text text-anchor="middle" x="1234.01" y="-7.5" font-family="Helvetica,sans-Serif" font-size="10.00">Rtypes.h</text>
</g>
<!-- Node12&#45;&gt;Node14 -->
<g id="edge15" class="edge"><title>Node12&#45;&gt;Node14</title>
<path fill="none" stroke="midnightblue" d="M1327.39,-61.9751C1309.42,-52.1664 1279.69,-35.9346 1258.6,-24.425"/>
<polygon fill="midnightblue" stroke="midnightblue" points="1260.05,-21.2284 1249.6,-19.5091 1256.7,-27.3726 1260.05,-21.2284"/>
</g>
<!-- Node15 -->
<g id="node15" class="node"><title>Node15</title>
<polygon fill="none" stroke="#bfbfbf" points="1070.51,-0.5 1070.51,-19.5 1129.51,-19.5 1129.51,-0.5 1070.51,-0.5"/>
<text text-anchor="middle" x="1100.01" y="-7.5" font-family="Helvetica,sans-Serif" font-size="10.00">TObject.h</text>
</g>
<!-- Node12&#45;&gt;Node15 -->
<g id="edge16" class="edge"><title>Node12&#45;&gt;Node15</title>
<path fill="none" stroke="midnightblue" d="M1308.19,-61.9751C1263.57,-51.0482 1186.39,-32.1503 1139.58,-20.6893"/>
<polygon fill="midnightblue" stroke="midnightblue" points="1140.34,-17.2714 1129.79,-18.2926 1138.67,-24.0706 1140.34,-17.2714"/>
</g>
<!-- Node16 -->
<g id="node16" class="node"><title>Node16</title>
<polygon fill="none" stroke="#bfbfbf" points="1403.01,-0.5 1403.01,-19.5 1519.01,-19.5 1519.01,-0.5 1403.01,-0.5"/>
<text text-anchor="middle" x="1461.01" y="-7.5" font-family="Helvetica,sans-Serif" font-size="10.00">Common/Exceptions.h</text>
</g>
<!-- Node12&#45;&gt;Node16 -->
<g id="edge17" class="edge"><title>Node12&#45;&gt;Node16</title>
<path fill="none" stroke="midnightblue" d="M1359.91,-61.9751C1379.54,-52.078 1412.14,-35.6416 1435,-24.1151"/>
<polygon fill="midnightblue" stroke="midnightblue" points="1436.78,-27.1367 1444.13,-19.5091 1433.63,-20.8863 1436.78,-27.1367"/>
</g>
<!-- Node18 -->
<g id="node18" class="node"><title>Node18</title>
<polygon fill="none" stroke="#bfbfbf" points="761.507,-0.5 761.507,-19.5 830.507,-19.5 830.507,-0.5 761.507,-0.5"/>
<text text-anchor="middle" x="796.007" y="-7.5" font-family="Helvetica,sans-Serif" font-size="10.00">TObjArray.h</text>
</g>
<!-- Node17&#45;&gt;Node18 -->
<g id="edge19" class="edge"><title>Node17&#45;&gt;Node18</title>
<path fill="none" stroke="midnightblue" d="M840.262,-56.3993C831.66,-47.575 820.555,-36.1827 811.621,-27.0178"/>
<polygon fill="midnightblue" stroke="midnightblue" points="813.933,-24.3755 804.447,-19.6578 808.921,-29.2616 813.933,-24.3755"/>
</g>
<!-- Node19 -->
<g id="node19" class="node"><title>Node19</title>
<polygon fill="none" stroke="#bfbfbf" points="849.007,-0.5 849.007,-19.5 977.007,-19.5 977.007,-0.5 849.007,-0.5"/>
<text text-anchor="middle" x="913.007" y="-7.5" font-family="Helvetica,sans-Serif" font-size="10.00">Mergers/MergeInterface.h</text>
</g>
<!-- Node17&#45;&gt;Node19 -->
<g id="edge20" class="edge"><title>Node17&#45;&gt;Node19</title>
<path fill="none" stroke="midnightblue" d="M867.99,-56.3993C876.74,-47.575 888.036,-36.1827 897.124,-27.0178"/>
<polygon fill="midnightblue" stroke="midnightblue" points="899.866,-29.2231 904.422,-19.6578 894.896,-24.2942 899.866,-29.2231"/>
</g>
<!-- Node20&#45;&gt;Node5 -->
<g id="edge22" class="edge"><title>Node20&#45;&gt;Node5</title>
<path fill="none" stroke="midnightblue" d="M656.007,-61.9751C656.007,-53.5803 656.007,-40.4806 656.007,-29.6631"/>
<polygon fill="midnightblue" stroke="midnightblue" points="659.507,-29.5091 656.007,-19.5091 652.507,-29.5091 659.507,-29.5091"/>
</g>
<!-- Node20&#45;&gt;Node21 -->
<g id="edge23" class="edge"><title>Node20&#45;&gt;Node21</title>
<path fill="none" stroke="midnightblue" d="M641.966,-61.9751C625.956,-52.2548 599.557,-36.2266 580.633,-24.7372"/>
<polygon fill="midnightblue" stroke="midnightblue" points="582.387,-21.7072 572.022,-19.5091 578.754,-27.6907 582.387,-21.7072"/>
</g>
<!-- Node23&#45;&gt;Node5 -->
<g id="edge28" class="edge"><title>Node23&#45;&gt;Node5</title>
<path fill="none" stroke="midnightblue" d="M266.507,-190.496C247.317,-182.974 228.347,-171.489 217.007,-154 179.072,-95.4957 289.429,-60.0555 299.007,-56 426.327,-2.09149 471.311,-40.7526 608.007,-20 613.666,-19.141 619.677,-18.1093 625.462,-17.0556"/>
<polygon fill="midnightblue" stroke="midnightblue" points="626.324,-20.455 635.506,-15.168 625.031,-13.5754 626.324,-20.455"/>
</g>
<!-- Node24 -->
<g id="node24" class="node"><title>Node24</title>
<polygon fill="none" stroke="#bfbfbf" points="448.007,-62 448.007,-81 492.007,-81 492.007,-62 448.007,-62"/>
<text text-anchor="middle" x="470.007" y="-69" font-family="Helvetica,sans-Serif" font-size="10.00">vector</text>
</g>
<!-- Node23&#45;&gt;Node24 -->
<g id="edge27" class="edge"><title>Node23&#45;&gt;Node24</title>
<path fill="none" stroke="midnightblue" d="M346.323,-190.069C357.571,-180.052 372.814,-166.342 386.007,-154 409.982,-131.574 437.152,-104.993 453.935,-88.4343"/>
<polygon fill="midnightblue" stroke="midnightblue" points="456.63,-90.692 461.281,-81.1725 451.709,-85.7141 456.63,-90.692"/>
</g>
<!-- Node25 -->
<g id="node25" class="node"><title>Node25</title>
<g id="a_node25"><a xlink:href="PostProcessingConfig_8h.html" target="_top" xlink:title="QualityControl/PostProcessing\lConfig.h">
<polygon fill="none" stroke="black" points="226.507,-123.5 226.507,-153.5 377.507,-153.5 377.507,-123.5 226.507,-123.5"/>
<text text-anchor="start" x="234.507" y="-141.5" font-family="Helvetica,sans-Serif" font-size="10.00">QualityControl/PostProcessing</text>
<text text-anchor="middle" x="302.007" y="-130.5" font-family="Helvetica,sans-Serif" font-size="10.00">Config.h</text>
</a>
</g>
</g>
<!-- Node23&#45;&gt;Node25 -->
<g id="edge29" class="edge"><title>Node23&#45;&gt;Node25</title>
<path fill="none" stroke="midnightblue" d="M323.932,-190.396C320.483,-182.389 316.077,-172.162 312.121,-162.978"/>
<polygon fill="midnightblue" stroke="midnightblue" points="315.242,-161.376 308.071,-153.577 308.813,-164.145 315.242,-161.376"/>
</g>
<!-- Node25&#45;&gt;Node5 -->
<g id="edge31" class="edge"><title>Node25&#45;&gt;Node5</title>
<path fill="none" stroke="midnightblue" d="M300.449,-123.334C299.292,-104.932 300.406,-73.1403 319.007,-56 366.601,-12.1444 544.061,-29.9681 608.007,-20 613.662,-19.1185 619.672,-18.0762 625.456,-17.0191"/>
<polygon fill="midnightblue" stroke="midnightblue" points="626.318,-20.4185 635.5,-15.132 625.026,-13.5389 626.318,-20.4185"/>
</g>
<!-- Node25&#45;&gt;Node7 -->
<g id="edge32" class="edge"><title>Node25&#45;&gt;Node7</title>
<path fill="none" stroke="midnightblue" d="M318.715,-123.396C329.209,-114.538 342.924,-102.96 354.621,-93.0861"/>
<polygon fill="midnightblue" stroke="midnightblue" points="356.948,-95.7016 362.332,-86.5765 352.433,-90.3526 356.948,-95.7016"/>
</g>
<!-- Node25&#45;&gt;Node24 -->
<g id="edge30" class="edge"><title>Node25&#45;&gt;Node24</title>
<path fill="none" stroke="midnightblue" d="M342.163,-123.423C369.394,-113.674 406.1,-100.134 438.007,-87 439.417,-86.4196 440.857,-85.8142 442.308,-85.1944"/>
<polygon fill="midnightblue" stroke="midnightblue" points="444.085,-88.236 451.827,-81.0033 441.265,-81.8294 444.085,-88.236"/>
</g>
<!-- Node26&#45;&gt;Node15 -->
<g id="edge34" class="edge"><title>Node26&#45;&gt;Node15</title>
<path fill="none" stroke="midnightblue" d="M726.866,-195.885C738.679,-179.192 767.056,-142.383 800.007,-123 853.161,-91.7338 878.944,-114.765 934.007,-87 953.778,-77.0308 953.641,-66.7332 973.007,-56 1000.73,-40.6344 1034.69,-28.9269 1060.52,-21.3103"/>
<polygon fill="midnightblue" stroke="midnightblue" points="1061.69,-24.6153 1070.34,-18.4944 1059.76,-17.8864 1061.69,-24.6153"/>
</g>
<!-- Node28&#45;&gt;Node22 -->
<g id="edge39" class="edge"><title>Node28&#45;&gt;Node22</title>
<path fill="none" stroke="midnightblue" d="M1030.34,-262.893C1039.65,-253.603 1053.37,-237.858 1059.01,-221 1063.37,-207.933 1061.81,-203.49 1059.01,-190 1051.24,-152.614 1030.95,-112.52 1018.43,-90.1696"/>
<polygon fill="midnightblue" stroke="midnightblue" points="1021.31,-88.1541 1013.3,-81.2223 1015.24,-91.6378 1021.31,-88.1541"/>
</g>
<!-- Node29 -->
<g id="node29" class="node"><title>Node29</title>
<g id="a_node29"><a xlink:href="DatabaseInterface_8h.html" target="_top" xlink:title="QualityControl/DatabaseInterface.h">
<polygon fill="none" stroke="black" points="880.007,-196 880.007,-215 1050.01,-215 1050.01,-196 880.007,-196"/>
<text text-anchor="middle" x="965.007" y="-203" font-family="Helvetica,sans-Serif" font-size="10.00">QualityControl/DatabaseInterface.h</text>
</a>
</g>
</g>
<!-- Node28&#45;&gt;Node29 -->
<g id="edge40" class="edge"><title>Node28&#45;&gt;Node29</title>
<path fill="none" stroke="midnightblue" d="M1013.45,-262.734C1004.72,-252.598 990.156,-235.69 979.271,-223.056"/>
<polygon fill="midnightblue" stroke="midnightblue" points="981.619,-220.419 972.44,-215.127 976.316,-224.988 981.619,-220.419"/>
</g>
<!-- Node29&#45;&gt;Node5 -->
<g id="edge41" class="edge"><title>Node29&#45;&gt;Node5</title>
<path fill="none" stroke="midnightblue" d="M976.022,-195.918C1005.88,-171.668 1083.48,-101.454 1043.01,-56 1037.07,-49.333 777.611,-23.0465 686.913,-14.0437"/>
<polygon fill="midnightblue" stroke="midnightblue" points="687.014,-10.5367 676.717,-13.034 686.324,-17.5026 687.014,-10.5367"/>
</g>
<!-- Node29&#45;&gt;Node6 -->
<g id="edge45" class="edge"><title>Node29&#45;&gt;Node6</title>
<path fill="none" stroke="midnightblue" d="M958.264,-195.734C950.467,-185.598 937.461,-168.69 927.742,-156.056"/>
<polygon fill="midnightblue" stroke="midnightblue" points="930.515,-153.92 921.644,-148.127 924.967,-158.188 930.515,-153.92"/>
</g>
<!-- Node29&#45;&gt;Node12 -->
<g id="edge54" class="edge"><title>Node29&#45;&gt;Node12</title>
<path fill="none" stroke="midnightblue" d="M1050.24,-197.68C1129.33,-190.12 1240.34,-176.005 1278.01,-154 1303.96,-138.839 1323.59,-109.056 1334.18,-89.9983"/>
<polygon fill="midnightblue" stroke="midnightblue" points="1337.29,-91.618 1338.88,-81.1445 1331.1,-88.3352 1337.29,-91.618"/>
</g>
<!-- Node29&#45;&gt;Node21 -->
<g id="edge44" class="edge"><title>Node29&#45;&gt;Node21</title>
<path fill="none" stroke="midnightblue" d="M880.004,-196.073C769.056,-184.691 587.649,-164.613 577.007,-154 543.987,-121.068 548.951,-60.3843 554.112,-29.7456"/>
<polygon fill="midnightblue" stroke="midnightblue" points="557.612,-30.0692 556.02,-19.5946 550.733,-28.7756 557.612,-30.0692"/>
</g>
<!-- Node29&#45;&gt;Node22 -->
<g id="edge42" class="edge"><title>Node29&#45;&gt;Node22</title>
<path fill="none" stroke="midnightblue" d="M972.177,-195.818C979.685,-186.22 991.179,-169.993 997.007,-154 1004.48,-133.509 1006.95,-108.455 1007.73,-91.5787"/>
<polygon fill="midnightblue" stroke="midnightblue" points="1011.23,-91.4595 1008.04,-81.358 1004.24,-91.2474 1011.23,-91.4595"/>
</g>
<!-- Node29&#45;&gt;Node24 -->
<g id="edge43" class="edge"><title>Node29&#45;&gt;Node24</title>
<path fill="none" stroke="midnightblue" d="M879.681,-197.477C765.282,-187.571 573.117,-169.025 544.007,-154 515.532,-139.302 492.613,-108.896 480.187,-89.6626"/>
<polygon fill="midnightblue" stroke="midnightblue" points="483.058,-87.6519 474.811,-81.0009 477.111,-91.3432 483.058,-87.6519"/>
</g>
<!-- Node30 -->
<g id="node30" class="node"><title>Node30</title>
<g id="a_node30"><a xlink:href="QualityObject_8h_source.html" target="_top" xlink:title="QualityControl/QualityObject.h">
<polygon fill="none" stroke="black" points="1119.51,-129 1119.51,-148 1268.51,-148 1268.51,-129 1119.51,-129"/>
<text text-anchor="middle" x="1194.01" y="-136" font-family="Helvetica,sans-Serif" font-size="10.00">QualityControl/QualityObject.h</text>
</a>
</g>
</g>
<!-- Node29&#45;&gt;Node30 -->
<g id="edge46" class="edge"><title>Node29&#45;&gt;Node30</title>
<path fill="none" stroke="midnightblue" d="M995.417,-195.869C1036.25,-184.278 1108.88,-163.662 1154.08,-150.834"/>
<polygon fill="midnightblue" stroke="midnightblue" points="1155.17,-154.161 1163.84,-148.064 1153.26,-147.427 1155.17,-154.161"/>
</g>
<!-- Node30&#45;&gt;Node13 -->
<g id="edge47" class="edge"><title>Node30&#45;&gt;Node13</title>
<path fill="none" stroke="midnightblue" d="M1268.66,-131.437C1329.39,-124.773 1408.17,-111.578 1428.01,-87 1436.66,-76.2792 1435.11,-67.8035 1428.01,-56 1415.61,-35.4135 1390.29,-23.7517 1370.49,-17.4862"/>
<polygon fill="midnightblue" stroke="midnightblue" points="1371.32,-14.0821 1360.74,-14.683 1369.39,-20.8096 1371.32,-14.0821"/>
</g>
<!-- Node30&#45;&gt;Node15 -->
<g id="edge48" class="edge"><title>Node30&#45;&gt;Node15</title>
<path fill="none" stroke="midnightblue" d="M1174.37,-128.995C1157.48,-120.683 1133.73,-106.442 1120.01,-87 1107.99,-69.9736 1103.19,-46.2077 1101.28,-29.8069"/>
<polygon fill="midnightblue" stroke="midnightblue" points="1104.76,-29.4408 1100.36,-19.8025 1097.79,-30.0805 1104.76,-29.4408"/>
</g>
<!-- Node30&#45;&gt;Node16 -->
<g id="edge49" class="edge"><title>Node30&#45;&gt;Node16</title>
<path fill="none" stroke="midnightblue" d="M1268.6,-131.334C1333.01,-124.46 1419.49,-111.012 1444.01,-87 1459.14,-72.1769 1462.12,-47.03 1462.15,-29.7487"/>
<polygon fill="midnightblue" stroke="midnightblue" points="1465.65,-29.6045 1461.84,-19.7159 1458.65,-29.818 1465.65,-29.6045"/>
</g>
<!-- Node31 -->
<g id="node31" class="node"><title>Node31</title>
<g id="a_node31"><a xlink:href="Quality_8h.html" target="_top" xlink:title="QualityControl/Quality.h">
<polygon fill="none" stroke="black" points="1128.51,-62 1128.51,-81 1249.51,-81 1249.51,-62 1128.51,-62"/>
<text text-anchor="middle" x="1189.01" y="-69" font-family="Helvetica,sans-Serif" font-size="10.00">QualityControl/Quality.h</text>
</a>
</g>
</g>
<!-- Node30&#45;&gt;Node31 -->
<g id="edge50" class="edge"><title>Node30&#45;&gt;Node31</title>
<path fill="none" stroke="midnightblue" d="M1193.33,-128.734C1192.6,-119.183 1191.4,-103.618 1190.45,-91.2829"/>
<polygon fill="midnightblue" stroke="midnightblue" points="1193.93,-90.8294 1189.67,-81.1273 1186.95,-91.3663 1193.93,-90.8294"/>
</g>
<!-- Node31&#45;&gt;Node5 -->
<g id="edge52" class="edge"><title>Node31&#45;&gt;Node5</title>
<path fill="none" stroke="midnightblue" d="M1128.34,-62.4783C1111.41,-60.3042 1093,-58.0002 1076.01,-56 930.483,-38.8692 756.263,-21.0661 686.794,-14.0762"/>
<polygon fill="midnightblue" stroke="midnightblue" points="686.865,-10.5657 676.565,-13.049 686.165,-17.5307 686.865,-10.5657"/>
</g>
<!-- Node31&#45;&gt;Node13 -->
<g id="edge53" class="edge"><title>Node31&#45;&gt;Node13</title>
<path fill="none" stroke="midnightblue" d="M1211.07,-61.9751C1238.72,-51.2933 1286.08,-32.994 1315.9,-21.4715"/>
<polygon fill="midnightblue" stroke="midnightblue" points="1317.23,-24.7133 1325.29,-17.8445 1314.7,-18.1837 1317.23,-24.7133"/>
</g>
<!-- Node31&#45;&gt;Node14 -->
<g id="edge51" class="edge"><title>Node31&#45;&gt;Node14</title>
<path fill="none" stroke="midnightblue" d="M1195.45,-61.9751C1202.2,-53.0501 1212.98,-38.8071 1221.42,-27.6425"/>
<polygon fill="midnightblue" stroke="midnightblue" points="1224.33,-29.5962 1227.57,-19.5091 1218.75,-25.3737 1224.33,-29.5962"/>
</g>
</g>
</svg>
