<?xml version="1.0" encoding="UTF-8" standalone="no"?>
<!DOCTYPE svg PUBLIC "-//W3C//DTD SVG 1.1//EN"
 "http://www.w3.org/Graphics/SVG/1.1/DTD/svg11.dtd">
<!-- Generated by graphviz version 2.38.0 (20140413.2041)
 -->
<!-- Title: Framework/test/testTaskInterface.cxx Pages: 1 -->
<!--zoomable 319 -->
<svg id="main" version="1.1" xmlns="http://www.w3.org/2000/svg" xmlns:xlink="http://www.w3.org/1999/xlink" xml:space="preserve" onload="init(evt)">
<style type="text/css"><![CDATA[
.edge:hover path { stroke: red; }
.edge:hover polygon { stroke: red; fill: red; }
]]></style>
<script type="text/javascript"><![CDATA[
var edges = document.getElementsByTagName('g');
if (edges && edges.length) {
  for (var i=0;i<edges.length;i++) {
    if (edges[i].id.substr(0,4)=='edge') {
      edges[i].setAttribute('class','edge');
    }
  }
}
]]></script>
        <defs>
                <circle id="rim" cx="0" cy="0" r="7"/>
                <circle id="rim2" cx="0" cy="0" r="3.5"/>
                <g id="zoomPlus">
                        <use xlink:href="#rim" fill="#404040">
                                <set attributeName="fill" to="#808080" begin="zoomplus.mouseover" end="zoomplus.mouseout"/>
                        </use>
                        <path d="M-4,0h8M0,-4v8" fill="none" stroke="white" stroke-width="1.5" pointer-events="none"/>
                </g>
                <g id="zoomMin">
                        <use xlink:href="#rim" fill="#404040">
                                <set attributeName="fill" to="#808080" begin="zoomminus.mouseover" end="zoomminus.mouseout"/>
                        </use>
                        <path d="M-4,0h8" fill="none" stroke="white" stroke-width="1.5" pointer-events="none"/>
                </g>
                <g id="dirArrow">
                        <path fill="none" stroke="white" stroke-width="1.5" d="M0,-3.0v7 M-2.5,-0.5L0,-3.0L2.5,-0.5"/>
                </g>
               <g id="resetDef">
                       <use xlink:href="#rim2" fill="#404040">
                               <set attributeName="fill" to="#808080" begin="reset.mouseover" end="reset.mouseout"/>
                       </use>
               </g>
        </defs>

<script type="text/javascript">
var viewWidth = 1505;
var viewHeight = 319;
var sectionId = 'dynsection-0';
</script>
<script xlink:href="svgpan.js"/>
<svg id="graph" class="graph">
<g id="viewport">
<title>Framework/test/testTaskInterface.cxx</title>
<!-- Node1 -->
<g id="node1" class="node"><title>Node1</title>
<polygon fill="#bfbfbf" stroke="black" points="730,-291.5 730,-310.5 913,-310.5 913,-291.5 730,-291.5"/>
<text text-anchor="middle" x="821.5" y="-298.5" font-family="Helvetica,sans-Serif" font-size="10.00">Framework/test/testTaskInterface.cxx</text>
</g>
<!-- Node2 -->
<g id="node2" class="node"><title>Node2</title>
<g id="a_node2"><a xlink:href="TaskFactory_8h.html" target="_top" xlink:title="QualityControl/TaskFactory.h">
<polygon fill="none" stroke="black" points="311,-235.5 311,-254.5 456,-254.5 456,-235.5 311,-235.5"/>
<text text-anchor="middle" x="383.5" y="-242.5" font-family="Helvetica,sans-Serif" font-size="10.00">QualityControl/TaskFactory.h</text>
</a>
</g>
</g>
<!-- Node1&#45;&gt;Node2 -->
<g id="edge1" class="edge"><title>Node1&#45;&gt;Node2</title>
<path fill="none" stroke="midnightblue" d="M752.098,-291.444C673.367,-281.737 545.226,-265.939 462.664,-255.76"/>
<polygon fill="midnightblue" stroke="midnightblue" points="462.931,-252.266 452.578,-254.516 462.074,-259.214 462.931,-252.266"/>
</g>
<!-- Node7 -->
<g id="node7" class="node"><title>Node7</title>
<g id="a_node7"><a xlink:href="TaskInterface_8h.html" target="_top" xlink:title="QualityControl/TaskInterface.h">
<polygon fill="none" stroke="black" points="409.5,-179.5 409.5,-198.5 559.5,-198.5 559.5,-179.5 409.5,-179.5"/>
<text text-anchor="middle" x="484.5" y="-186.5" font-family="Helvetica,sans-Serif" font-size="10.00">QualityControl/TaskInterface.h</text>
</a>
</g>
</g>
<!-- Node1&#45;&gt;Node7 -->
<g id="edge31" class="edge"><title>Node1&#45;&gt;Node7</title>
<path fill="none" stroke="midnightblue" d="M795.337,-291.46C735.615,-271.966 589.151,-224.159 520.77,-201.839"/>
<polygon fill="midnightblue" stroke="midnightblue" points="521.472,-198.386 510.879,-198.61 519.299,-205.041 521.472,-198.386"/>
</g>
<!-- Node9 -->
<g id="node9" class="node"><title>Node9</title>
<polygon fill="none" stroke="#bfbfbf" points="683,-123.5 683,-142.5 808,-142.5 808,-123.5 683,-123.5"/>
<text text-anchor="middle" x="745.5" y="-130.5" font-family="Helvetica,sans-Serif" font-size="10.00">Framework/InitContext.h</text>
</g>
<!-- Node1&#45;&gt;Node9 -->
<g id="edge36" class="edge"><title>Node1&#45;&gt;Node9</title>
<path fill="none" stroke="midnightblue" d="M816.23,-291.186C810.959,-282.221 802.758,-267.857 796.5,-255 779.109,-219.272 761.757,-176.102 752.453,-152.187"/>
<polygon fill="midnightblue" stroke="midnightblue" points="755.639,-150.72 748.774,-142.65 749.108,-153.24 755.639,-150.72"/>
</g>
<!-- Node11 -->
<g id="node11" class="node"><title>Node11</title>
<polygon fill="none" stroke="#bfbfbf" points="826,-123.5 826,-142.5 921,-142.5 921,-123.5 826,-123.5"/>
<text text-anchor="middle" x="873.5" y="-130.5" font-family="Helvetica,sans-Serif" font-size="10.00">CCDB/CcdbApi.h</text>
</g>
<!-- Node1&#45;&gt;Node11 -->
<g id="edge35" class="edge"><title>Node1&#45;&gt;Node11</title>
<path fill="none" stroke="midnightblue" d="M817.369,-291.469C807.998,-270.8 787.441,-216.954 807.5,-179 814.924,-164.953 828.921,-154.467 842.121,-147.167"/>
<polygon fill="midnightblue" stroke="midnightblue" points="843.723,-150.279 851.041,-142.618 840.543,-144.043 843.723,-150.279"/>
</g>
<!-- Node21 -->
<g id="node21" class="node"><title>Node21</title>
<g id="a_node21"><a xlink:href="QcInfoLogger_8h.html" target="_top" xlink:title="QualityControl/QcInfoLogger.h">
<polygon fill="none" stroke="black" points="939,-123.5 939,-142.5 1088,-142.5 1088,-123.5 939,-123.5"/>
<text text-anchor="middle" x="1013.5" y="-130.5" font-family="Helvetica,sans-Serif" font-size="10.00">QualityControl/QcInfoLogger.h</text>
</a>
</g>
</g>
<!-- Node1&#45;&gt;Node21 -->
<g id="edge32" class="edge"><title>Node1&#45;&gt;Node21</title>
<path fill="none" stroke="midnightblue" d="M822.042,-291.073C823.279,-277.6 827.324,-251.86 840.5,-235 875.84,-189.781 937.501,-160.892 976.867,-146.07"/>
<polygon fill="midnightblue" stroke="midnightblue" points="978.172,-149.319 986.366,-142.603 975.772,-142.744 978.172,-149.319"/>
</g>
<!-- Node24 -->
<g id="node24" class="node"><title>Node24</title>
<polygon fill="none" stroke="#bfbfbf" points="849.5,-235.5 849.5,-254.5 1019.5,-254.5 1019.5,-235.5 849.5,-235.5"/>
<text text-anchor="middle" x="934.5" y="-242.5" font-family="Helvetica,sans-Serif" font-size="10.00">Framework/ConfigParamRegistry.h</text>
</g>
<!-- Node1&#45;&gt;Node24 -->
<g id="edge33" class="edge"><title>Node1&#45;&gt;Node24</title>
<path fill="none" stroke="midnightblue" d="M839.405,-291.444C857.754,-282.675 886.505,-268.935 907.594,-258.858"/>
<polygon fill="midnightblue" stroke="midnightblue" points="909.165,-261.986 916.679,-254.516 906.147,-255.67 909.165,-261.986"/>
</g>
<!-- Node25 -->
<g id="node25" class="node"><title>Node25</title>
<polygon fill="none" stroke="#bfbfbf" points="1038,-235.5 1038,-254.5 1195,-254.5 1195,-235.5 1038,-235.5"/>
<text text-anchor="middle" x="1116.5" y="-242.5" font-family="Helvetica,sans-Serif" font-size="10.00">EMCALCalib/BadChannelMap.h</text>
</g>
<!-- Node1&#45;&gt;Node25 -->
<g id="edge34" class="edge"><title>Node1&#45;&gt;Node25</title>
<path fill="none" stroke="midnightblue" d="M868.244,-291.444C920.245,-281.925 1004.25,-266.547 1059.92,-256.356"/>
<polygon fill="midnightblue" stroke="midnightblue" points="1060.77,-259.76 1069.98,-254.516 1059.51,-252.874 1060.77,-259.76"/>
</g>
<!-- Node26 -->
<g id="node26" class="node"><title>Node26</title>
<polygon fill="none" stroke="#bfbfbf" points="1213.5,-235.5 1213.5,-254.5 1359.5,-254.5 1359.5,-235.5 1213.5,-235.5"/>
<text text-anchor="middle" x="1286.5" y="-242.5" font-family="Helvetica,sans-Serif" font-size="10.00">Framework/ServiceRegistry.h</text>
</g>
<!-- Node1&#45;&gt;Node26 -->
<g id="edge37" class="edge"><title>Node1&#45;&gt;Node26</title>
<path fill="none" stroke="midnightblue" d="M894.924,-291.473C978.748,-281.739 1115.57,-265.85 1203.28,-255.664"/>
<polygon fill="midnightblue" stroke="midnightblue" points="1203.93,-259.112 1213.46,-254.482 1203.12,-252.159 1203.93,-259.112"/>
</g>
<!-- Node27 -->
<g id="node27" class="node"><title>Node27</title>
<polygon fill="none" stroke="#bfbfbf" points="1378,-235.5 1378,-254.5 1497,-254.5 1497,-235.5 1378,-235.5"/>
<text text-anchor="middle" x="1437.5" y="-242.5" font-family="Helvetica,sans-Serif" font-size="10.00">boost/test/unit_test.hpp</text>
</g>
<!-- Node1&#45;&gt;Node27 -->
<g id="edge38" class="edge"><title>Node1&#45;&gt;Node27</title>
<path fill="none" stroke="midnightblue" d="M913.086,-293.804C1019.6,-286.295 1200.98,-272.573 1367.26,-255.083"/>
<polygon fill="midnightblue" stroke="midnightblue" points="1368.11,-258.513 1377.68,-253.98 1367.37,-251.552 1368.11,-258.513"/>
</g>
<!-- Node3 -->
<g id="node3" class="node"><title>Node3</title>
<polygon fill="none" stroke="#bfbfbf" points="178.5,-62 178.5,-81 230.5,-81 230.5,-62 178.5,-62"/>
<text text-anchor="middle" x="204.5" y="-69" font-family="Helvetica,sans-Serif" font-size="10.00">memory</text>
</g>
<!-- Node2&#45;&gt;Node3 -->
<g id="edge2" class="edge"><title>Node2&#45;&gt;Node3</title>
<path fill="none" stroke="midnightblue" d="M310.988,-241.632C241.332,-235.028 139.513,-213.063 89.5,-143 84.3356,-135.765 84.6398,-130.442 89.5,-123 90.7683,-121.058 141.182,-99.3765 174.832,-85.0612"/>
<polygon fill="midnightblue" stroke="midnightblue" points="176.408,-88.1945 184.244,-81.0633 173.672,-81.7516 176.408,-88.1945"/>
</g>
<!-- Node4 -->
<g id="node4" class="node"><title>Node4</title>
<g id="a_node4"><a xlink:href="TaskConfig_8h.html" target="_top" xlink:title="QualityControl/TaskConfig.h">
<polygon fill="none" stroke="black" points="20.5,-62 20.5,-81 160.5,-81 160.5,-62 20.5,-62"/>
<text text-anchor="middle" x="90.5" y="-69" font-family="Helvetica,sans-Serif" font-size="10.00">QualityControl/TaskConfig.h</text>
</a>
</g>
</g>
<!-- Node2&#45;&gt;Node4 -->
<g id="edge3" class="edge"><title>Node2&#45;&gt;Node4</title>
<path fill="none" stroke="midnightblue" d="M310.936,-237.692C244.891,-230.85 153.167,-218.254 122.5,-199 96.5962,-182.737 91.8342,-172.127 82.5,-143 77.048,-125.987 80.341,-105.624 84.2204,-91.1661"/>
<polygon fill="midnightblue" stroke="midnightblue" points="87.6246,-91.9999 87.166,-81.415 80.9237,-89.9756 87.6246,-91.9999"/>
</g>
<!-- Node2&#45;&gt;Node7 -->
<g id="edge6" class="edge"><title>Node2&#45;&gt;Node7</title>
<path fill="none" stroke="midnightblue" d="M399.727,-235.324C415.851,-226.703 440.8,-213.364 459.464,-203.386"/>
<polygon fill="midnightblue" stroke="midnightblue" points="461.144,-206.456 468.313,-198.655 457.844,-200.283 461.144,-206.456"/>
</g>
<!-- Node5 -->
<g id="node5" class="node"><title>Node5</title>
<polygon fill="none" stroke="#bfbfbf" points="238,-0.5 238,-19.5 279,-19.5 279,-0.5 238,-0.5"/>
<text text-anchor="middle" x="258.5" y="-7.5" font-family="Helvetica,sans-Serif" font-size="10.00">string</text>
</g>
<!-- Node4&#45;&gt;Node5 -->
<g id="edge4" class="edge"><title>Node4&#45;&gt;Node5</title>
<path fill="none" stroke="midnightblue" d="M114.57,-61.9751C144.582,-51.346 195.89,-33.1744 228.45,-21.6426"/>
<polygon fill="midnightblue" stroke="midnightblue" points="229.651,-24.9303 237.909,-18.2926 227.314,-18.332 229.651,-24.9303"/>
</g>
<!-- Node6 -->
<g id="node6" class="node"><title>Node6</title>
<polygon fill="none" stroke="#bfbfbf" points="0,-0.5 0,-19.5 83,-19.5 83,-0.5 0,-0.5"/>
<text text-anchor="middle" x="41.5" y="-7.5" font-family="Helvetica,sans-Serif" font-size="10.00">unordered_map</text>
</g>
<!-- Node4&#45;&gt;Node6 -->
<g id="edge5" class="edge"><title>Node4&#45;&gt;Node6</title>
<path fill="none" stroke="midnightblue" d="M83.4795,-61.9751C76.0567,-52.9617 64.1673,-38.5246 54.9333,-27.3118"/>
<polygon fill="midnightblue" stroke="midnightblue" points="57.5664,-25.0034 48.5075,-19.5091 52.1628,-29.4534 57.5664,-25.0034"/>
</g>
<!-- Node7&#45;&gt;Node3 -->
<g id="edge8" class="edge"><title>Node7&#45;&gt;Node3</title>
<path fill="none" stroke="midnightblue" d="M409.112,-184.538C302.374,-178.853 117.826,-165.827 97.5,-143 91.5887,-136.362 92.7414,-130.508 97.5,-123 99.7946,-119.38 144.595,-99.0075 175.49,-85.2702"/>
<polygon fill="midnightblue" stroke="midnightblue" points="177.237,-88.3245 184.961,-81.0728 174.4,-81.9248 177.237,-88.3245"/>
</g>
<!-- Node7&#45;&gt;Node5 -->
<g id="edge9" class="edge"><title>Node7&#45;&gt;Node5</title>
<path fill="none" stroke="midnightblue" d="M409.109,-182.463C377.136,-176.701 341.366,-165.309 315.5,-143 280.79,-113.063 266.548,-58.1591 261.269,-29.5075"/>
<polygon fill="midnightblue" stroke="midnightblue" points="264.714,-28.8912 259.614,-19.6051 257.81,-30.0454 264.714,-28.8912"/>
</g>
<!-- Node7&#45;&gt;Node6 -->
<g id="edge10" class="edge"><title>Node7&#45;&gt;Node6</title>
<path fill="none" stroke="midnightblue" d="M409.489,-183.965C311.618,-177.928 146.17,-164.853 89.5,-143 49.6821,-127.645 30.9818,-124.97 11.5,-87 1.33733,-67.1931 14.9093,-43.109 26.9347,-27.4356"/>
<polygon fill="midnightblue" stroke="midnightblue" points="29.6641,-29.627 33.2959,-19.6741 24.25,-25.1898 29.6641,-29.627"/>
</g>
<!-- Node8 -->
<g id="node8" class="node"><title>Node8</title>
<polygon fill="none" stroke="#bfbfbf" points="610,-0.5 610,-19.5 645,-19.5 645,-0.5 610,-0.5"/>
<text text-anchor="middle" x="627.5" y="-7.5" font-family="Helvetica,sans-Serif" font-size="10.00">map</text>
</g>
<!-- Node7&#45;&gt;Node8 -->
<g id="edge7" class="edge"><title>Node7&#45;&gt;Node8</title>
<path fill="none" stroke="midnightblue" d="M559.752,-183.812C587.809,-178.139 617.053,-166.449 634.5,-143 659.413,-109.517 645.397,-56.9916 635.19,-29.3764"/>
<polygon fill="midnightblue" stroke="midnightblue" points="638.341,-27.8258 631.426,-19.7987 631.826,-30.386 638.341,-27.8258"/>
</g>
<!-- Node7&#45;&gt;Node9 -->
<g id="edge11" class="edge"><title>Node7&#45;&gt;Node9</title>
<path fill="none" stroke="midnightblue" d="M525.856,-179.444C571.578,-169.984 645.264,-154.738 694.522,-144.547"/>
<polygon fill="midnightblue" stroke="midnightblue" points="695.254,-147.97 704.337,-142.516 693.836,-141.115 695.254,-147.97"/>
</g>
<!-- Node10 -->
<g id="node10" class="node"><title>Node10</title>
<polygon fill="none" stroke="#bfbfbf" points="324.5,-123.5 324.5,-142.5 484.5,-142.5 484.5,-123.5 324.5,-123.5"/>
<text text-anchor="middle" x="404.5" y="-130.5" font-family="Helvetica,sans-Serif" font-size="10.00">Framework/ProcessingContext.h</text>
</g>
<!-- Node7&#45;&gt;Node10 -->
<g id="edge12" class="edge"><title>Node7&#45;&gt;Node10</title>
<path fill="none" stroke="midnightblue" d="M471.647,-179.324C459.284,-170.979 440.37,-158.212 425.763,-148.352"/>
<polygon fill="midnightblue" stroke="midnightblue" points="427.568,-145.348 417.321,-142.655 423.652,-151.15 427.568,-145.348"/>
</g>
<!-- Node7&#45;&gt;Node11 -->
<g id="edge13" class="edge"><title>Node7&#45;&gt;Node11</title>
<path fill="none" stroke="midnightblue" d="M550.701,-179.46C615.526,-171 717.38,-157.445 815.8,-143.075"/>
<polygon fill="midnightblue" stroke="midnightblue" points="816.539,-146.504 825.926,-141.591 815.524,-139.578 816.539,-146.504"/>
</g>
<!-- Node12 -->
<g id="node12" class="node"><title>Node12</title>
<g id="a_node12"><a xlink:href="Activity_8h.html" target="_top" xlink:title="QualityControl/Activity.h">
<polygon fill="none" stroke="black" points="503,-123.5 503,-142.5 626,-142.5 626,-123.5 503,-123.5"/>
<text text-anchor="middle" x="564.5" y="-130.5" font-family="Helvetica,sans-Serif" font-size="10.00">QualityControl/Activity.h</text>
</a>
</g>
</g>
<!-- Node7&#45;&gt;Node12 -->
<g id="edge14" class="edge"><title>Node7&#45;&gt;Node12</title>
<path fill="none" stroke="midnightblue" d="M497.353,-179.324C509.716,-170.979 528.63,-158.212 543.237,-148.352"/>
<polygon fill="midnightblue" stroke="midnightblue" points="545.348,-151.15 551.679,-142.655 541.432,-145.348 545.348,-151.15"/>
</g>
<!-- Node13 -->
<g id="node13" class="node"><title>Node13</title>
<g id="a_node13"><a xlink:href="ObjectsManager_8h.html" target="_top" xlink:title="QualityControl/ObjectsManager.h">
<polygon fill="none" stroke="black" points="107,-123.5 107,-142.5 268,-142.5 268,-123.5 107,-123.5"/>
<text text-anchor="middle" x="187.5" y="-130.5" font-family="Helvetica,sans-Serif" font-size="10.00">QualityControl/ObjectsManager.h</text>
</a>
</g>
</g>
<!-- Node7&#45;&gt;Node13 -->
<g id="edge15" class="edge"><title>Node7&#45;&gt;Node13</title>
<path fill="none" stroke="midnightblue" d="M437.439,-179.444C385.085,-169.925 300.51,-154.547 244.46,-144.356"/>
<polygon fill="midnightblue" stroke="midnightblue" points="244.805,-140.862 234.34,-142.516 243.553,-147.749 244.805,-140.862"/>
</g>
<!-- Node7&#45;&gt;Node21 -->
<g id="edge28" class="edge"><title>Node7&#45;&gt;Node21</title>
<path fill="none" stroke="midnightblue" d="M559.707,-180.533C646.04,-171.929 792.202,-157.269 928.625,-143.086"/>
<polygon fill="midnightblue" stroke="midnightblue" points="929.263,-146.538 938.847,-142.022 928.539,-139.576 929.263,-146.538"/>
</g>
<!-- Node13&#45;&gt;Node3 -->
<g id="edge27" class="edge"><title>Node13&#45;&gt;Node3</title>
<path fill="none" stroke="midnightblue" d="M189.936,-123.475C192.359,-114.992 196.156,-101.704 199.265,-90.8222"/>
<polygon fill="midnightblue" stroke="midnightblue" points="202.687,-91.5859 202.069,-81.0091 195.956,-89.6628 202.687,-91.5859"/>
</g>
<!-- Node13&#45;&gt;Node4 -->
<g id="edge25" class="edge"><title>Node13&#45;&gt;Node4</title>
<path fill="none" stroke="midnightblue" d="M173.602,-123.475C157.828,-113.799 131.863,-97.8721 113.151,-86.3941"/>
<polygon fill="midnightblue" stroke="midnightblue" points="114.726,-83.2544 104.372,-81.0091 111.066,-89.2213 114.726,-83.2544"/>
</g>
<!-- Node13&#45;&gt;Node5 -->
<g id="edge26" class="edge"><title>Node13&#45;&gt;Node5</title>
<path fill="none" stroke="midnightblue" d="M201.568,-123.408C213.446,-115.425 229.996,-102.459 239.5,-87 250.275,-69.4723 254.951,-46.1201 256.972,-29.9483"/>
<polygon fill="midnightblue" stroke="midnightblue" points="260.492,-29.9311 258.025,-19.6276 253.528,-29.2209 260.492,-29.9311"/>
</g>
<!-- Node14 -->
<g id="node14" class="node"><title>Node14</title>
<g id="a_node14"><a xlink:href="MonitorObject_8h.html" target="_top" xlink:title="QualityControl/MonitorObject.h">
<polygon fill="none" stroke="black" points="341,-62 341,-81 492,-81 492,-62 341,-62"/>
<text text-anchor="middle" x="416.5" y="-69" font-family="Helvetica,sans-Serif" font-size="10.00">QualityControl/MonitorObject.h</text>
</a>
</g>
</g>
<!-- Node13&#45;&gt;Node14 -->
<g id="edge16" class="edge"><title>Node13&#45;&gt;Node14</title>
<path fill="none" stroke="midnightblue" d="M220.31,-123.475C260.697,-112.982 329.377,-95.1367 373.829,-83.587"/>
<polygon fill="midnightblue" stroke="midnightblue" points="374.952,-86.9114 383.751,-81.0091 373.192,-80.1364 374.952,-86.9114"/>
</g>
<!-- Node18 -->
<g id="node18" class="node"><title>Node18</title>
<g id="a_node18"><a xlink:href="MonitorObjectCollection_8h.html" target="_top" xlink:title="QualityControl/MonitorObject\lCollection.h">
<polygon fill="none" stroke="black" points="683,-56.5 683,-86.5 826,-86.5 826,-56.5 683,-56.5"/>
<text text-anchor="start" x="691" y="-74.5" font-family="Helvetica,sans-Serif" font-size="10.00">QualityControl/MonitorObject</text>
<text text-anchor="middle" x="754.5" y="-63.5" font-family="Helvetica,sans-Serif" font-size="10.00">Collection.h</text>
</a>
</g>
</g>
<!-- Node13&#45;&gt;Node18 -->
<g id="edge22" class="edge"><title>Node13&#45;&gt;Node18</title>
<path fill="none" stroke="midnightblue" d="M268.135,-123.538C375.502,-112.271 564.39,-92.4498 672.462,-81.1089"/>
<polygon fill="midnightblue" stroke="midnightblue" points="673.083,-84.5631 682.663,-80.0385 672.352,-77.6013 673.083,-84.5631"/>
</g>
<!-- Node14&#45;&gt;Node5 -->
<g id="edge17" class="edge"><title>Node14&#45;&gt;Node5</title>
<path fill="none" stroke="midnightblue" d="M393.862,-61.9751C366.264,-51.582 319.516,-33.9776 288.826,-22.4203"/>
<polygon fill="midnightblue" stroke="midnightblue" points="289.677,-19.0007 279.085,-18.7519 287.21,-25.5516 289.677,-19.0007"/>
</g>
<!-- Node14&#45;&gt;Node8 -->
<g id="edge18" class="edge"><title>Node14&#45;&gt;Node8</title>
<path fill="none" stroke="midnightblue" d="M446.731,-61.9751C487.736,-50.4121 560.395,-29.9231 599.959,-18.7664"/>
<polygon fill="midnightblue" stroke="midnightblue" points="601.051,-22.0948 609.726,-16.0121 599.152,-15.3576 601.051,-22.0948"/>
</g>
<!-- Node15 -->
<g id="node15" class="node"><title>Node15</title>
<polygon fill="none" stroke="#bfbfbf" points="508.5,-0.5 508.5,-19.5 564.5,-19.5 564.5,-0.5 508.5,-0.5"/>
<text text-anchor="middle" x="536.5" y="-7.5" font-family="Helvetica,sans-Serif" font-size="10.00">Rtypes.h</text>
</g>
<!-- Node14&#45;&gt;Node15 -->
<g id="edge19" class="edge"><title>Node14&#45;&gt;Node15</title>
<path fill="none" stroke="midnightblue" d="M433.693,-61.9751C453.743,-52.0338 487.099,-35.4947 510.36,-23.961"/>
<polygon fill="midnightblue" stroke="midnightblue" points="511.934,-27.0871 519.339,-19.5091 508.825,-20.8157 511.934,-27.0871"/>
</g>
<!-- Node16 -->
<g id="node16" class="node"><title>Node16</title>
<polygon fill="none" stroke="#bfbfbf" points="297,-0.5 297,-19.5 356,-19.5 356,-0.5 297,-0.5"/>
<text text-anchor="middle" x="326.5" y="-7.5" font-family="Helvetica,sans-Serif" font-size="10.00">TObject.h</text>
</g>
<!-- Node14&#45;&gt;Node16 -->
<g id="edge20" class="edge"><title>Node14&#45;&gt;Node16</title>
<path fill="none" stroke="midnightblue" d="M403.605,-61.9751C389.036,-52.3431 365.098,-36.5175 347.755,-25.0517"/>
<polygon fill="midnightblue" stroke="midnightblue" points="349.643,-22.1044 339.371,-19.5091 345.783,-27.9437 349.643,-22.1044"/>
</g>
<!-- Node17 -->
<g id="node17" class="node"><title>Node17</title>
<polygon fill="none" stroke="#bfbfbf" points="374.5,-0.5 374.5,-19.5 490.5,-19.5 490.5,-0.5 374.5,-0.5"/>
<text text-anchor="middle" x="432.5" y="-7.5" font-family="Helvetica,sans-Serif" font-size="10.00">Common/Exceptions.h</text>
</g>
<!-- Node14&#45;&gt;Node17 -->
<g id="edge21" class="edge"><title>Node14&#45;&gt;Node17</title>
<path fill="none" stroke="midnightblue" d="M418.792,-61.9751C421.074,-53.4919 424.647,-40.2043 427.573,-29.3222"/>
<polygon fill="midnightblue" stroke="midnightblue" points="430.995,-30.0749 430.212,-19.5091 424.235,-28.2571 430.995,-30.0749"/>
</g>
<!-- Node19 -->
<g id="node19" class="node"><title>Node19</title>
<polygon fill="none" stroke="#bfbfbf" points="691,-0.5 691,-19.5 760,-19.5 760,-0.5 691,-0.5"/>
<text text-anchor="middle" x="725.5" y="-7.5" font-family="Helvetica,sans-Serif" font-size="10.00">TObjArray.h</text>
</g>
<!-- Node18&#45;&gt;Node19 -->
<g id="edge23" class="edge"><title>Node18&#45;&gt;Node19</title>
<path fill="none" stroke="midnightblue" d="M747.627,-56.3993C743.587,-48.1098 738.442,-37.5542 734.131,-28.7077"/>
<polygon fill="midnightblue" stroke="midnightblue" points="737.247,-27.1135 729.72,-19.6578 730.955,-30.1804 737.247,-27.1135"/>
</g>
<!-- Node20 -->
<g id="node20" class="node"><title>Node20</title>
<polygon fill="none" stroke="#bfbfbf" points="778.5,-0.5 778.5,-19.5 906.5,-19.5 906.5,-0.5 778.5,-0.5"/>
<text text-anchor="middle" x="842.5" y="-7.5" font-family="Helvetica,sans-Serif" font-size="10.00">Mergers/MergeInterface.h</text>
</g>
<!-- Node18&#45;&gt;Node20 -->
<g id="edge24" class="edge"><title>Node18&#45;&gt;Node20</title>
<path fill="none" stroke="midnightblue" d="M775.355,-56.3993C789.197,-47.0402 807.311,-34.7924 821.236,-25.3771"/>
<polygon fill="midnightblue" stroke="midnightblue" points="823.372,-28.1585 829.695,-19.6578 819.451,-22.3596 823.372,-28.1585"/>
</g>
<!-- Node22 -->
<g id="node22" class="node"><title>Node22</title>
<polygon fill="none" stroke="#bfbfbf" points="896.5,-62 896.5,-81 1026.5,-81 1026.5,-62 896.5,-62"/>
<text text-anchor="middle" x="961.5" y="-69" font-family="Helvetica,sans-Serif" font-size="10.00">InfoLogger/InfoLogger.hxx</text>
</g>
<!-- Node21&#45;&gt;Node22 -->
<g id="edge29" class="edge"><title>Node21&#45;&gt;Node22</title>
<path fill="none" stroke="midnightblue" d="M1006.05,-123.475C998.172,-114.462 985.555,-100.025 975.756,-88.8118"/>
<polygon fill="midnightblue" stroke="midnightblue" points="978.153,-86.2356 968.937,-81.0091 972.882,-90.842 978.153,-86.2356"/>
</g>
<!-- Node23 -->
<g id="node23" class="node"><title>Node23</title>
<polygon fill="none" stroke="#bfbfbf" points="1044.5,-62 1044.5,-81 1206.5,-81 1206.5,-62 1044.5,-62"/>
<text text-anchor="middle" x="1125.5" y="-69" font-family="Helvetica,sans-Serif" font-size="10.00">InfoLogger/InfoLoggerMacros.hxx</text>
</g>
<!-- Node21&#45;&gt;Node23 -->
<g id="edge30" class="edge"><title>Node21&#45;&gt;Node23</title>
<path fill="none" stroke="midnightblue" d="M1029.55,-123.475C1048.09,-113.622 1078.84,-97.2883 1100.52,-85.7697"/>
<polygon fill="midnightblue" stroke="midnightblue" points="1102.29,-88.7916 1109.48,-81.0091 1099.01,-82.6098 1102.29,-88.7916"/>
</g>
</g>
</svg>
        <g id="navigator" transform="translate(0 0)" fill="#404254">
                <rect fill="#f2f5e9" fill-opacity="0.5" stroke="#606060" stroke-width=".5" x="0" y="0" width="60" height="60"/>
                <use id="zoomplus" xlink:href="#zoomPlus" x="17" y="9" onmousedown="handleZoom(evt,'in')"/>
                <use id="zoomminus" xlink:href="#zoomMin" x="42" y="9" onmousedown="handleZoom(evt,'out')"/>
                <use id="reset" xlink:href="#resetDef" x="30" y="36" onmousedown="handleReset()"/>
                <g id="arrowUp" xlink:href="#dirArrow" transform="translate(30 24)" onmousedown="handlePan(0,-1)">
                  <use xlink:href="#rim" fill="#404040">
                        <set attributeName="fill" to="#808080" begin="arrowUp.mouseover" end="arrowUp.mouseout"/>
                  </use>
                  <path fill="none" stroke="white" stroke-width="1.5" d="M0,-3.0v7 M-2.5,-0.5L0,-3.0L2.5,-0.5"/>
                </g>
                <g id="arrowRight" xlink:href="#dirArrow" transform="rotate(90) translate(36 -43)" onmousedown="handlePan(1,0)">
                  <use xlink:href="#rim" fill="#404040">
                        <set attributeName="fill" to="#808080" begin="arrowRight.mouseover" end="arrowRight.mouseout"/>
                  </use>
                  <path fill="none" stroke="white" stroke-width="1.5" d="M0,-3.0v7 M-2.5,-0.5L0,-3.0L2.5,-0.5"/>
                </g>
                <g id="arrowDown" xlink:href="#dirArrow" transform="rotate(180) translate(-30 -48)" onmousedown="handlePan(0,1)">
                  <use xlink:href="#rim" fill="#404040">
                        <set attributeName="fill" to="#808080" begin="arrowDown.mouseover" end="arrowDown.mouseout"/>
                  </use>
                  <path fill="none" stroke="white" stroke-width="1.5" d="M0,-3.0v7 M-2.5,-0.5L0,-3.0L2.5,-0.5"/>
                </g>
                <g id="arrowLeft" xlink:href="#dirArrow" transform="rotate(270) translate(-36 17)" onmousedown="handlePan(-1,0)">
                  <use xlink:href="#rim" fill="#404040">
                        <set attributeName="fill" to="#808080" begin="arrowLeft.mouseover" end="arrowLeft.mouseout"/>
                  </use>
                  <path fill="none" stroke="white" stroke-width="1.5" d="M0,-3.0v7 M-2.5,-0.5L0,-3.0L2.5,-0.5"/>
                </g>
        </g>
        <svg viewBox="0 0 15 15" width="100%" height="30px" preserveAspectRatio="xMaxYMin meet">
         <g id="arrow_out" transform="scale(0.3 0.3)">
          <a xlink:href="testTaskInterface_8cxx__incl_org.svg" target="_base">
           <rect id="button" ry="5" rx="5" y="6" x="6" height="38" width="38"
                fill="#f2f5e9" fill-opacity="0.5" stroke="#606060" stroke-width="1.0"/>
           <path id="arrow"
             d="M 11.500037,31.436501 C 11.940474,20.09759 22.043105,11.32322 32.158766,21.979434 L 37.068811,17.246167 C 37.068811,17.246167 37.088388,32 37.088388,32 L 22.160133,31.978069 C 22.160133,31.978069 26.997745,27.140456 26.997745,27.140456 C 18.528582,18.264221 13.291696,25.230495 11.500037,31.436501 z"
             style="fill:#404040;"/>
          </a>
         </g>
        </svg>
</svg>
