<?xml version="1.0" encoding="UTF-8" standalone="no"?>
<!DOCTYPE svg PUBLIC "-//W3C//DTD SVG 1.1//EN"
 "http://www.w3.org/Graphics/SVG/1.1/DTD/svg11.dtd">
<!-- Generated by graphviz version 2.38.0 (20140413.2041)
 -->
<!-- Title: Framework/test/testTriggers.cxx Pages: 1 -->
<svg width="1189pt" height="308pt"
 viewBox="0.00 0.00 1188.50 308.00" xmlns="http://www.w3.org/2000/svg" xmlns:xlink="http://www.w3.org/1999/xlink">
<g id="graph0" class="graph" transform="scale(1 1) rotate(0) translate(4 304)">
<title>Framework/test/testTriggers.cxx</title>
<!-- Node1 -->
<g id="node1" class="node"><title>Node1</title>
<polygon fill="#bfbfbf" stroke="black" points="757.5,-280.5 757.5,-299.5 915.5,-299.5 915.5,-280.5 757.5,-280.5"/>
<text text-anchor="middle" x="836.5" y="-287.5" font-family="Helvetica,sans-Serif" font-size="10.00">Framework/test/testTriggers.cxx</text>
</g>
<!-- Node2 -->
<g id="node2" class="node"><title>Node2</title>
<g id="a_node2"><a xlink:href="Triggers_8h.html" target="_top" xlink:title="QualityControl/Triggers.h">
<polygon fill="none" stroke="black" points="59,-224.5 59,-243.5 184,-243.5 184,-224.5 59,-224.5"/>
<text text-anchor="middle" x="121.5" y="-231.5" font-family="Helvetica,sans-Serif" font-size="10.00">QualityControl/Triggers.h</text>
</a>
</g>
</g>
<!-- Node1&#45;&gt;Node2 -->
<g id="edge1" class="edge"><title>Node1&#45;&gt;Node2</title>
<path fill="none" stroke="midnightblue" d="M757.251,-283.015C617.633,-272.47 329.837,-250.735 194.662,-240.525"/>
<polygon fill="midnightblue" stroke="midnightblue" points="194.648,-237.015 184.413,-239.751 194.121,-243.995 194.648,-237.015"/>
</g>
<!-- Node6 -->
<g id="node6" class="node"><title>Node6</title>
<g id="a_node6"><a xlink:href="MonitorObject_8h.html" target="_top" xlink:title="QualityControl/MonitorObject.h">
<polygon fill="none" stroke="black" points="857,-112.5 857,-131.5 1008,-131.5 1008,-112.5 857,-112.5"/>
<text text-anchor="middle" x="932.5" y="-119.5" font-family="Helvetica,sans-Serif" font-size="10.00">QualityControl/MonitorObject.h</text>
</a>
</g>
</g>
<!-- Node1&#45;&gt;Node6 -->
<g id="edge5" class="edge"><title>Node1&#45;&gt;Node6</title>
<path fill="none" stroke="midnightblue" d="M838.188,-280.221C840.877,-267.375 846.841,-242.931 856.5,-224 873.18,-191.307 900.504,-158.223 917.445,-139.212"/>
<polygon fill="midnightblue" stroke="midnightblue" points="920.092,-141.504 924.215,-131.744 914.906,-136.802 920.092,-141.504"/>
</g>
<!-- Node11 -->
<g id="node11" class="node"><title>Node11</title>
<g id="a_node11"><a xlink:href="DatabaseFactory_8h.html" target="_top" xlink:title="QualityControl/DatabaseFactory.h">
<polygon fill="none" stroke="black" points="358,-224.5 358,-243.5 523,-243.5 523,-224.5 358,-224.5"/>
<text text-anchor="middle" x="440.5" y="-231.5" font-family="Helvetica,sans-Serif" font-size="10.00">QualityControl/DatabaseFactory.h</text>
</a>
</g>
</g>
<!-- Node1&#45;&gt;Node11 -->
<g id="edge11" class="edge"><title>Node1&#45;&gt;Node11</title>
<path fill="none" stroke="midnightblue" d="M773.753,-280.444C702.934,-270.786 587.895,-255.099 513.215,-244.916"/>
<polygon fill="midnightblue" stroke="midnightblue" points="513.335,-241.4 502.954,-243.516 512.389,-248.336 513.335,-241.4"/>
</g>
<!-- Node19 -->
<g id="node19" class="node"><title>Node19</title>
<g id="a_node19"><a xlink:href="CcdbDatabase_8h.html" target="_top" xlink:title="QualityControl/CcdbDatabase.h">
<polygon fill="none" stroke="black" points="541,-224.5 541,-243.5 696,-243.5 696,-224.5 541,-224.5"/>
<text text-anchor="middle" x="618.5" y="-231.5" font-family="Helvetica,sans-Serif" font-size="10.00">QualityControl/CcdbDatabase.h</text>
</a>
</g>
</g>
<!-- Node1&#45;&gt;Node19 -->
<g id="edge28" class="edge"><title>Node1&#45;&gt;Node19</title>
<path fill="none" stroke="midnightblue" d="M801.957,-280.444C764.247,-271.102 703.76,-256.119 662.635,-245.933"/>
<polygon fill="midnightblue" stroke="midnightblue" points="663.429,-242.524 652.881,-243.516 661.746,-249.318 663.429,-242.524"/>
</g>
<!-- Node21 -->
<g id="node21" class="node"><title>Node21</title>
<g id="a_node21"><a xlink:href="RepoPathUtils_8h.html" target="_top" xlink:title="QualityControl/RepoPathUtils.h">
<polygon fill="none" stroke="black" points="671.5,-168.5 671.5,-187.5 825.5,-187.5 825.5,-168.5 671.5,-168.5"/>
<text text-anchor="middle" x="748.5" y="-175.5" font-family="Helvetica,sans-Serif" font-size="10.00">QualityControl/RepoPathUtils.h</text>
</a>
</g>
</g>
<!-- Node1&#45;&gt;Node21 -->
<g id="edge31" class="edge"><title>Node1&#45;&gt;Node21</title>
<path fill="none" stroke="midnightblue" d="M829.595,-280.368C815.008,-262.135 780.841,-219.426 761.84,-195.675"/>
<polygon fill="midnightblue" stroke="midnightblue" points="764.353,-193.214 755.373,-187.591 758.887,-197.587 764.353,-193.214"/>
</g>
<!-- Node22 -->
<g id="node22" class="node"><title>Node22</title>
<polygon fill="none" stroke="#bfbfbf" points="865,-224.5 865,-243.5 984,-243.5 984,-224.5 865,-224.5"/>
<text text-anchor="middle" x="924.5" y="-231.5" font-family="Helvetica,sans-Serif" font-size="10.00">boost/test/unit_test.hpp</text>
</g>
<!-- Node1&#45;&gt;Node22 -->
<g id="edge37" class="edge"><title>Node1&#45;&gt;Node22</title>
<path fill="none" stroke="midnightblue" d="M850.639,-280.324C864.366,-271.9 885.436,-258.971 901.564,-249.074"/>
<polygon fill="midnightblue" stroke="midnightblue" points="903.704,-251.868 910.396,-243.655 900.043,-245.902 903.704,-251.868"/>
</g>
<!-- Node23 -->
<g id="node23" class="node"><title>Node23</title>
<polygon fill="none" stroke="#bfbfbf" points="1002.5,-224.5 1002.5,-243.5 1052.5,-243.5 1052.5,-224.5 1002.5,-224.5"/>
<text text-anchor="middle" x="1027.5" y="-231.5" font-family="Helvetica,sans-Serif" font-size="10.00">TH1F.h</text>
</g>
<!-- Node1&#45;&gt;Node23 -->
<g id="edge38" class="edge"><title>Node1&#45;&gt;Node23</title>
<path fill="none" stroke="midnightblue" d="M866.765,-280.444C900.847,-270.808 956.165,-255.168 992.191,-244.983"/>
<polygon fill="midnightblue" stroke="midnightblue" points="993.586,-248.225 1002.26,-242.137 991.682,-241.489 993.586,-248.225"/>
</g>
<!-- Node24 -->
<g id="node24" class="node"><title>Node24</title>
<polygon fill="none" stroke="#bfbfbf" points="1071,-224.5 1071,-243.5 1116,-243.5 1116,-224.5 1071,-224.5"/>
<text text-anchor="middle" x="1093.5" y="-231.5" font-family="Helvetica,sans-Serif" font-size="10.00">cstdlib</text>
</g>
<!-- Node1&#45;&gt;Node24 -->
<g id="edge39" class="edge"><title>Node1&#45;&gt;Node24</title>
<path fill="none" stroke="midnightblue" d="M884.575,-280.491C928.148,-272.53 994.318,-259.825 1060.99,-243.97"/>
<polygon fill="midnightblue" stroke="midnightblue" points="1061.92,-247.346 1070.83,-241.608 1060.29,-240.539 1061.92,-247.346"/>
</g>
<!-- Node25 -->
<g id="node25" class="node"><title>Node25</title>
<polygon fill="none" stroke="#bfbfbf" points="1134.5,-224.5 1134.5,-243.5 1180.5,-243.5 1180.5,-224.5 1134.5,-224.5"/>
<text text-anchor="middle" x="1157.5" y="-231.5" font-family="Helvetica,sans-Serif" font-size="10.00">chrono</text>
</g>
<!-- Node1&#45;&gt;Node25 -->
<g id="edge40" class="edge"><title>Node1&#45;&gt;Node25</title>
<path fill="none" stroke="midnightblue" d="M906.422,-280.498C962.811,-273.097 1044.31,-261.174 1123.95,-244.127"/>
<polygon fill="midnightblue" stroke="midnightblue" points="1125.13,-247.453 1134.16,-241.912 1123.65,-240.613 1125.13,-247.453"/>
</g>
<!-- Node3 -->
<g id="node3" class="node"><title>Node3</title>
<polygon fill="none" stroke="#bfbfbf" points="542,-0.5 542,-19.5 583,-19.5 583,-0.5 542,-0.5"/>
<text text-anchor="middle" x="562.5" y="-7.5" font-family="Helvetica,sans-Serif" font-size="10.00">string</text>
</g>
<!-- Node2&#45;&gt;Node3 -->
<g id="edge2" class="edge"><title>Node2&#45;&gt;Node3</title>
<path fill="none" stroke="midnightblue" d="M123.868,-224.203C130.802,-199.061 151.697,-127.689 169.5,-112 224.437,-63.5877 449.311,-27.1991 531.896,-15.2314"/>
<polygon fill="midnightblue" stroke="midnightblue" points="532.505,-18.68 541.909,-13.7995 531.514,-11.7505 532.505,-18.68"/>
</g>
<!-- Node4 -->
<g id="node4" class="node"><title>Node4</title>
<polygon fill="none" stroke="#bfbfbf" points="63,-168.5 63,-187.5 122,-187.5 122,-168.5 63,-168.5"/>
<text text-anchor="middle" x="92.5" y="-175.5" font-family="Helvetica,sans-Serif" font-size="10.00">functional</text>
</g>
<!-- Node2&#45;&gt;Node4 -->
<g id="edge3" class="edge"><title>Node2&#45;&gt;Node4</title>
<path fill="none" stroke="midnightblue" d="M116.711,-224.083C112.742,-216.691 106.975,-205.953 102.065,-196.811"/>
<polygon fill="midnightblue" stroke="midnightblue" points="105.014,-194.905 97.1997,-187.751 98.8475,-198.217 105.014,-194.905"/>
</g>
<!-- Node5 -->
<g id="node5" class="node"><title>Node5</title>
<polygon fill="none" stroke="#bfbfbf" points="0,-168.5 0,-187.5 45,-187.5 45,-168.5 0,-168.5"/>
<text text-anchor="middle" x="22.5" y="-175.5" font-family="Helvetica,sans-Serif" font-size="10.00">iosfwd</text>
</g>
<!-- Node2&#45;&gt;Node5 -->
<g id="edge4" class="edge"><title>Node2&#45;&gt;Node5</title>
<path fill="none" stroke="midnightblue" d="M105.594,-224.324C89.8618,-215.743 65.5577,-202.486 47.2911,-192.522"/>
<polygon fill="midnightblue" stroke="midnightblue" points="48.8216,-189.37 38.3666,-187.655 45.4696,-195.516 48.8216,-189.37"/>
</g>
<!-- Node6&#45;&gt;Node3 -->
<g id="edge6" class="edge"><title>Node6&#45;&gt;Node3</title>
<path fill="none" stroke="midnightblue" d="M944.399,-112.318C961.028,-99.1659 987.483,-73.8383 971.5,-56 958.861,-41.8944 686.407,-20.2721 593.34,-13.2715"/>
<polygon fill="midnightblue" stroke="midnightblue" points="593.389,-9.76549 583.156,-12.5101 592.867,-16.746 593.389,-9.76549"/>
</g>
<!-- Node7 -->
<g id="node7" class="node"><title>Node7</title>
<polygon fill="none" stroke="#bfbfbf" points="723,-0.5 723,-19.5 758,-19.5 758,-0.5 723,-0.5"/>
<text text-anchor="middle" x="740.5" y="-7.5" font-family="Helvetica,sans-Serif" font-size="10.00">map</text>
</g>
<!-- Node6&#45;&gt;Node7 -->
<g id="edge7" class="edge"><title>Node6&#45;&gt;Node7</title>
<path fill="none" stroke="midnightblue" d="M955.272,-112.36C982.883,-100.626 1023.51,-78.5216 1004.5,-56 974.443,-20.3861 829.578,-12.9546 768.139,-11.4063"/>
<polygon fill="midnightblue" stroke="midnightblue" points="768.091,-7.90457 758.017,-11.1862 767.939,-14.9029 768.091,-7.90457"/>
</g>
<!-- Node8 -->
<g id="node8" class="node"><title>Node8</title>
<polygon fill="none" stroke="#bfbfbf" points="907.5,-0.5 907.5,-19.5 963.5,-19.5 963.5,-0.5 907.5,-0.5"/>
<text text-anchor="middle" x="935.5" y="-7.5" font-family="Helvetica,sans-Serif" font-size="10.00">Rtypes.h</text>
</g>
<!-- Node6&#45;&gt;Node8 -->
<g id="edge8" class="edge"><title>Node6&#45;&gt;Node8</title>
<path fill="none" stroke="midnightblue" d="M985.819,-112.431C1007.16,-106.1 1029.68,-95.101 1042.5,-76 1062.57,-46.0993 1011.84,-27.6747 973.545,-18.3966"/>
<polygon fill="midnightblue" stroke="midnightblue" points="974.166,-14.9482 963.637,-16.1267 972.603,-21.7714 974.166,-14.9482"/>
</g>
<!-- Node9 -->
<g id="node9" class="node"><title>Node9</title>
<polygon fill="none" stroke="#bfbfbf" points="903,-56.5 903,-75.5 962,-75.5 962,-56.5 903,-56.5"/>
<text text-anchor="middle" x="932.5" y="-63.5" font-family="Helvetica,sans-Serif" font-size="10.00">TObject.h</text>
</g>
<!-- Node6&#45;&gt;Node9 -->
<g id="edge9" class="edge"><title>Node6&#45;&gt;Node9</title>
<path fill="none" stroke="midnightblue" d="M932.5,-112.083C932.5,-105.006 932.5,-94.8611 932.5,-85.9865"/>
<polygon fill="midnightblue" stroke="midnightblue" points="936,-85.751 932.5,-75.7511 929,-85.7511 936,-85.751"/>
</g>
<!-- Node10 -->
<g id="node10" class="node"><title>Node10</title>
<polygon fill="none" stroke="#bfbfbf" points="768.5,-56.5 768.5,-75.5 884.5,-75.5 884.5,-56.5 768.5,-56.5"/>
<text text-anchor="middle" x="826.5" y="-63.5" font-family="Helvetica,sans-Serif" font-size="10.00">Common/Exceptions.h</text>
</g>
<!-- Node6&#45;&gt;Node10 -->
<g id="edge10" class="edge"><title>Node6&#45;&gt;Node10</title>
<path fill="none" stroke="midnightblue" d="M915.469,-112.324C898.47,-103.664 872.124,-90.2424 852.507,-80.249"/>
<polygon fill="midnightblue" stroke="midnightblue" points="853.988,-77.0752 843.488,-75.6545 850.81,-83.3125 853.988,-77.0752"/>
</g>
<!-- Node12 -->
<g id="node12" class="node"><title>Node12</title>
<polygon fill="none" stroke="#bfbfbf" points="178.5,-112.5 178.5,-131.5 230.5,-131.5 230.5,-112.5 178.5,-112.5"/>
<text text-anchor="middle" x="204.5" y="-119.5" font-family="Helvetica,sans-Serif" font-size="10.00">memory</text>
</g>
<!-- Node11&#45;&gt;Node12 -->
<g id="edge12" class="edge"><title>Node11&#45;&gt;Node12</title>
<path fill="none" stroke="midnightblue" d="M421.981,-224.368C380.708,-205.131 280.981,-158.648 232.244,-135.931"/>
<polygon fill="midnightblue" stroke="midnightblue" points="233.475,-132.644 222.932,-131.591 230.518,-138.988 233.475,-132.644"/>
</g>
<!-- Node13 -->
<g id="node13" class="node"><title>Node13</title>
<g id="a_node13"><a xlink:href="DatabaseInterface_8h.html" target="_top" xlink:title="QualityControl/DatabaseInterface.h">
<polygon fill="none" stroke="black" points="369.5,-168.5 369.5,-187.5 539.5,-187.5 539.5,-168.5 369.5,-168.5"/>
<text text-anchor="middle" x="454.5" y="-175.5" font-family="Helvetica,sans-Serif" font-size="10.00">QualityControl/DatabaseInterface.h</text>
</a>
</g>
</g>
<!-- Node11&#45;&gt;Node13 -->
<g id="edge13" class="edge"><title>Node11&#45;&gt;Node13</title>
<path fill="none" stroke="midnightblue" d="M442.812,-224.083C444.667,-216.927 447.335,-206.635 449.654,-197.691"/>
<polygon fill="midnightblue" stroke="midnightblue" points="453.109,-198.309 452.231,-187.751 446.334,-196.553 453.109,-198.309"/>
</g>
<!-- Node13&#45;&gt;Node3 -->
<g id="edge14" class="edge"><title>Node13&#45;&gt;Node3</title>
<path fill="none" stroke="midnightblue" d="M466.431,-168.442C477.405,-160.105 493.584,-146.586 504.5,-132 529.183,-99.0195 547.44,-53.8682 556.372,-29.0962"/>
<polygon fill="midnightblue" stroke="midnightblue" points="559.715,-30.1379 559.715,-19.543 553.108,-27.8257 559.715,-30.1379"/>
</g>
<!-- Node13&#45;&gt;Node6 -->
<g id="edge27" class="edge"><title>Node13&#45;&gt;Node6</title>
<path fill="none" stroke="midnightblue" d="M529.977,-168.473C616.105,-158.743 756.664,-142.864 846.831,-132.678"/>
<polygon fill="midnightblue" stroke="midnightblue" points="847.481,-136.127 857.025,-131.526 846.696,-129.171 847.481,-136.127"/>
</g>
<!-- Node13&#45;&gt;Node12 -->
<g id="edge15" class="edge"><title>Node13&#45;&gt;Node12</title>
<path fill="none" stroke="midnightblue" d="M410.723,-168.443C369.314,-160.213 305.195,-147.122 240.764,-132.219"/>
<polygon fill="midnightblue" stroke="midnightblue" points="241.375,-128.768 230.842,-129.91 239.788,-135.586 241.375,-128.768"/>
</g>
<!-- Node14 -->
<g id="node14" class="node"><title>Node14</title>
<polygon fill="none" stroke="#bfbfbf" points="552.5,-112.5 552.5,-131.5 596.5,-131.5 596.5,-112.5 552.5,-112.5"/>
<text text-anchor="middle" x="574.5" y="-119.5" font-family="Helvetica,sans-Serif" font-size="10.00">vector</text>
</g>
<!-- Node13&#45;&gt;Node14 -->
<g id="edge16" class="edge"><title>Node13&#45;&gt;Node14</title>
<path fill="none" stroke="midnightblue" d="M473.514,-168.444C493.088,-159.636 523.808,-145.812 546.229,-135.722"/>
<polygon fill="midnightblue" stroke="midnightblue" points="547.892,-138.812 555.575,-131.516 545.019,-132.428 547.892,-138.812"/>
</g>
<!-- Node15 -->
<g id="node15" class="node"><title>Node15</title>
<polygon fill="none" stroke="#bfbfbf" points="413,-112.5 413,-131.5 496,-131.5 496,-112.5 413,-112.5"/>
<text text-anchor="middle" x="454.5" y="-119.5" font-family="Helvetica,sans-Serif" font-size="10.00">unordered_map</text>
</g>
<!-- Node13&#45;&gt;Node15 -->
<g id="edge17" class="edge"><title>Node13&#45;&gt;Node15</title>
<path fill="none" stroke="midnightblue" d="M454.5,-168.083C454.5,-161.006 454.5,-150.861 454.5,-141.986"/>
<polygon fill="midnightblue" stroke="midnightblue" points="458,-141.751 454.5,-131.751 451,-141.751 458,-141.751"/>
</g>
<!-- Node16 -->
<g id="node16" class="node"><title>Node16</title>
<polygon fill="none" stroke="#bfbfbf" points="248.5,-112.5 248.5,-131.5 394.5,-131.5 394.5,-112.5 248.5,-112.5"/>
<text text-anchor="middle" x="321.5" y="-119.5" font-family="Helvetica,sans-Serif" font-size="10.00">Framework/ServiceRegistry.h</text>
</g>
<!-- Node13&#45;&gt;Node16 -->
<g id="edge18" class="edge"><title>Node13&#45;&gt;Node16</title>
<path fill="none" stroke="midnightblue" d="M433.426,-168.444C411.44,-159.517 376.766,-145.439 351.836,-135.317"/>
<polygon fill="midnightblue" stroke="midnightblue" points="353.058,-132.035 342.476,-131.516 350.424,-138.521 353.058,-132.035"/>
</g>
<!-- Node17 -->
<g id="node17" class="node"><title>Node17</title>
<g id="a_node17"><a xlink:href="QualityObject_8h_source.html" target="_top" xlink:title="QualityControl/QualityObject.h">
<polygon fill="none" stroke="black" points="652,-112.5 652,-131.5 801,-131.5 801,-112.5 652,-112.5"/>
<text text-anchor="middle" x="726.5" y="-119.5" font-family="Helvetica,sans-Serif" font-size="10.00">QualityControl/QualityObject.h</text>
</a>
</g>
</g>
<!-- Node13&#45;&gt;Node17 -->
<g id="edge19" class="edge"><title>Node13&#45;&gt;Node17</title>
<path fill="none" stroke="midnightblue" d="M497.599,-168.444C545.347,-158.964 622.361,-143.675 673.694,-133.483"/>
<polygon fill="midnightblue" stroke="midnightblue" points="674.475,-136.897 683.602,-131.516 673.112,-130.031 674.475,-136.897"/>
</g>
<!-- Node17&#45;&gt;Node7 -->
<g id="edge20" class="edge"><title>Node17&#45;&gt;Node7</title>
<path fill="none" stroke="midnightblue" d="M727.599,-112.368C729.858,-94.617 735.07,-53.6664 738.133,-29.5974"/>
<polygon fill="midnightblue" stroke="midnightblue" points="741.616,-29.9533 739.407,-19.5914 734.672,-29.0695 741.616,-29.9533"/>
</g>
<!-- Node17&#45;&gt;Node9 -->
<g id="edge21" class="edge"><title>Node17&#45;&gt;Node9</title>
<path fill="none" stroke="midnightblue" d="M759.141,-112.444C795.383,-102.943 853.887,-87.6072 892.764,-77.4161"/>
<polygon fill="midnightblue" stroke="midnightblue" points="893.901,-80.7365 902.687,-74.8151 892.126,-73.9652 893.901,-80.7365"/>
</g>
<!-- Node17&#45;&gt;Node10 -->
<g id="edge22" class="edge"><title>Node17&#45;&gt;Node10</title>
<path fill="none" stroke="midnightblue" d="M742.567,-112.324C758.458,-103.743 783.007,-90.486 801.458,-80.5224"/>
<polygon fill="midnightblue" stroke="midnightblue" points="803.337,-83.4857 810.473,-75.6545 800.011,-77.3264 803.337,-83.4857"/>
</g>
<!-- Node18 -->
<g id="node18" class="node"><title>Node18</title>
<g id="a_node18"><a xlink:href="Quality_8h.html" target="_top" xlink:title="QualityControl/Quality.h">
<polygon fill="none" stroke="black" points="591,-56.5 591,-75.5 712,-75.5 712,-56.5 591,-56.5"/>
<text text-anchor="middle" x="651.5" y="-63.5" font-family="Helvetica,sans-Serif" font-size="10.00">QualityControl/Quality.h</text>
</a>
</g>
</g>
<!-- Node17&#45;&gt;Node18 -->
<g id="edge23" class="edge"><title>Node17&#45;&gt;Node18</title>
<path fill="none" stroke="midnightblue" d="M714.45,-112.324C703.037,-104.107 685.669,-91.6017 672.065,-81.8069"/>
<polygon fill="midnightblue" stroke="midnightblue" points="673.93,-78.8366 663.769,-75.8339 669.84,-84.5174 673.93,-78.8366"/>
</g>
<!-- Node18&#45;&gt;Node3 -->
<g id="edge25" class="edge"><title>Node18&#45;&gt;Node3</title>
<path fill="none" stroke="midnightblue" d="M637.201,-56.324C623.317,-47.9002 602.008,-34.9709 585.696,-25.0741"/>
<polygon fill="midnightblue" stroke="midnightblue" points="587.129,-21.8495 576.764,-19.6545 583.498,-27.8341 587.129,-21.8495"/>
</g>
<!-- Node18&#45;&gt;Node7 -->
<g id="edge26" class="edge"><title>Node18&#45;&gt;Node7</title>
<path fill="none" stroke="midnightblue" d="M665.799,-56.324C679.683,-47.9002 700.992,-34.9709 717.304,-25.0741"/>
<polygon fill="midnightblue" stroke="midnightblue" points="719.502,-27.8341 726.236,-19.6545 715.871,-21.8495 719.502,-27.8341"/>
</g>
<!-- Node18&#45;&gt;Node8 -->
<g id="edge24" class="edge"><title>Node18&#45;&gt;Node8</title>
<path fill="none" stroke="midnightblue" d="M696.501,-56.4435C752.074,-45.8768 845.616,-28.0907 897.664,-18.1942"/>
<polygon fill="midnightblue" stroke="midnightblue" points="898.327,-21.631 907.497,-16.3245 897.019,-14.7542 898.327,-21.631"/>
</g>
<!-- Node19&#45;&gt;Node13 -->
<g id="edge30" class="edge"><title>Node19&#45;&gt;Node13</title>
<path fill="none" stroke="midnightblue" d="M592.514,-224.444C564.804,-215.32 520.748,-200.813 489.884,-190.651"/>
<polygon fill="midnightblue" stroke="midnightblue" points="490.958,-187.32 480.365,-187.516 488.768,-193.968 490.958,-187.32"/>
</g>
<!-- Node20 -->
<g id="node20" class="node"><title>Node20</title>
<polygon fill="none" stroke="#bfbfbf" points="558,-168.5 558,-187.5 653,-187.5 653,-168.5 558,-168.5"/>
<text text-anchor="middle" x="605.5" y="-175.5" font-family="Helvetica,sans-Serif" font-size="10.00">CCDB/CcdbApi.h</text>
</g>
<!-- Node19&#45;&gt;Node20 -->
<g id="edge29" class="edge"><title>Node19&#45;&gt;Node20</title>
<path fill="none" stroke="midnightblue" d="M616.353,-224.083C614.631,-216.927 612.153,-206.635 610,-197.691"/>
<polygon fill="midnightblue" stroke="midnightblue" points="613.35,-196.654 607.607,-187.751 606.545,-198.293 613.35,-196.654"/>
</g>
<!-- Node21&#45;&gt;Node3 -->
<g id="edge32" class="edge"><title>Node21&#45;&gt;Node3</title>
<path fill="none" stroke="midnightblue" d="M718.992,-168.412C680.113,-155.391 612.987,-126.644 581.5,-76 572.673,-61.8033 567.79,-43.3249 565.193,-29.7007"/>
<polygon fill="midnightblue" stroke="midnightblue" points="568.606,-28.8887 563.513,-19.5986 561.701,-30.0374 568.606,-28.8887"/>
</g>
<!-- Node21&#45;&gt;Node6 -->
<g id="edge35" class="edge"><title>Node21&#45;&gt;Node6</title>
<path fill="none" stroke="midnightblue" d="M777.655,-168.444C809.013,-159.241 859.031,-144.562 893.697,-134.388"/>
<polygon fill="midnightblue" stroke="midnightblue" points="894.871,-137.691 903.481,-131.516 892.9,-130.974 894.871,-137.691"/>
</g>
<!-- Node21&#45;&gt;Node10 -->
<g id="edge34" class="edge"><title>Node21&#45;&gt;Node10</title>
<path fill="none" stroke="midnightblue" d="M765.797,-168.495C779.641,-160.814 798.501,-148.233 809.5,-132 818.803,-118.27 823.016,-99.7397 824.924,-85.9773"/>
<polygon fill="midnightblue" stroke="midnightblue" points="828.434,-86.0701 826.045,-75.7482 821.476,-85.3074 828.434,-86.0701"/>
</g>
<!-- Node21&#45;&gt;Node14 -->
<g id="edge33" class="edge"><title>Node21&#45;&gt;Node14</title>
<path fill="none" stroke="midnightblue" d="M720.929,-168.444C689.753,-158.768 639.072,-143.04 606.264,-132.858"/>
<polygon fill="midnightblue" stroke="midnightblue" points="607.285,-129.51 596.697,-129.889 605.21,-136.195 607.285,-129.51"/>
</g>
<!-- Node21&#45;&gt;Node17 -->
<g id="edge36" class="edge"><title>Node21&#45;&gt;Node17</title>
<path fill="none" stroke="midnightblue" d="M744.867,-168.083C741.888,-160.77 737.574,-150.181 733.875,-141.103"/>
<polygon fill="midnightblue" stroke="midnightblue" points="737.08,-139.691 730.065,-131.751 730.597,-142.333 737.08,-139.691"/>
</g>
</g>
</svg>
