<?xml version="1.0" encoding="UTF-8" standalone="no"?>
<!DOCTYPE svg PUBLIC "-//W3C//DTD SVG 1.1//EN"
 "http://www.w3.org/Graphics/SVG/1.1/DTD/svg11.dtd">
<!-- Generated by graphviz version 2.38.0 (20140413.2041)
 -->
<!-- Title: Framework/test/testWorkflow.cxx Pages: 1 -->
<svg width="2273pt" height="330pt"
 viewBox="0.00 0.00 2272.70 330.00" xmlns="http://www.w3.org/2000/svg" xmlns:xlink="http://www.w3.org/1999/xlink">
<g id="graph0" class="graph" transform="scale(1 1) rotate(0) translate(4 326)">
<title>Framework/test/testWorkflow.cxx</title>
<!-- Node1 -->
<g id="node1" class="node"><title>Node1</title>
<polygon fill="#bfbfbf" stroke="black" points="836.5,-302.5 836.5,-321.5 1000.5,-321.5 1000.5,-302.5 836.5,-302.5"/>
<text text-anchor="middle" x="918.5" y="-309.5" font-family="Helvetica,sans-Serif" font-size="10.00">Framework/test/testWorkflow.cxx</text>
</g>
<!-- Node2 -->
<g id="node2" class="node"><title>Node2</title>
<polygon fill="none" stroke="#bfbfbf" points="0,-246.5 0,-265.5 151,-265.5 151,-246.5 0,-246.5"/>
<text text-anchor="middle" x="75.5" y="-253.5" font-family="Helvetica,sans-Serif" font-size="10.00">DataSampling/DataSampling.h</text>
</g>
<!-- Node1&#45;&gt;Node2 -->
<g id="edge1" class="edge"><title>Node1&#45;&gt;Node2</title>
<path fill="none" stroke="midnightblue" d="M836.25,-307.163C697.727,-300.459 409.133,-285.454 165.5,-266 164.179,-265.895 162.848,-265.786 161.508,-265.675"/>
<polygon fill="midnightblue" stroke="midnightblue" points="161.365,-262.15 151.102,-264.781 160.766,-269.125 161.365,-262.15"/>
</g>
<!-- Node3 -->
<g id="node3" class="node"><title>Node3</title>
<g id="a_node3"><a xlink:href="InfrastructureGenerator_8h.html" target="_top" xlink:title="QualityControl/Infrastructure\lGenerator.h">
<polygon fill="none" stroke="black" points="245.5,-179.5 245.5,-209.5 385.5,-209.5 385.5,-179.5 245.5,-179.5"/>
<text text-anchor="start" x="253.5" y="-197.5" font-family="Helvetica,sans-Serif" font-size="10.00">QualityControl/Infrastructure</text>
<text text-anchor="middle" x="315.5" y="-186.5" font-family="Helvetica,sans-Serif" font-size="10.00">Generator.h</text>
</a>
</g>
</g>
<!-- Node1&#45;&gt;Node3 -->
<g id="edge2" class="edge"><title>Node1&#45;&gt;Node3</title>
<path fill="none" stroke="midnightblue" d="M873.67,-302.413C772.288,-282.994 524.236,-235.482 395.682,-210.858"/>
<polygon fill="midnightblue" stroke="midnightblue" points="395.986,-207.353 385.506,-208.909 394.669,-214.228 395.986,-207.353"/>
</g>
<!-- Node8 -->
<g id="node8" class="node"><title>Node8</title>
<polygon fill="none" stroke="#bfbfbf" points="936,-246.5 936,-265.5 1055,-265.5 1055,-246.5 936,-246.5"/>
<text text-anchor="middle" x="995.5" y="-253.5" font-family="Helvetica,sans-Serif" font-size="10.00">getTestDataDirectory.h</text>
</g>
<!-- Node1&#45;&gt;Node8 -->
<g id="edge7" class="edge"><title>Node1&#45;&gt;Node8</title>
<path fill="none" stroke="midnightblue" d="M930.871,-302.324C942.658,-294.058 960.632,-281.453 974.636,-271.632"/>
<polygon fill="midnightblue" stroke="midnightblue" points="976.982,-274.262 983.159,-265.655 972.962,-268.531 976.982,-274.262"/>
</g>
<!-- Node9 -->
<g id="node9" class="node"><title>Node9</title>
<g id="a_node9"><a xlink:href="CheckRunner_8h.html" target="_top" xlink:title="QualityControl/CheckRunner.h">
<polygon fill="none" stroke="black" points="767.5,-246.5 767.5,-265.5 917.5,-265.5 917.5,-246.5 767.5,-246.5"/>
<text text-anchor="middle" x="842.5" y="-253.5" font-family="Helvetica,sans-Serif" font-size="10.00">QualityControl/CheckRunner.h</text>
</a>
</g>
</g>
<!-- Node1&#45;&gt;Node9 -->
<g id="edge8" class="edge"><title>Node1&#45;&gt;Node9</title>
<path fill="none" stroke="midnightblue" d="M906.289,-302.324C894.724,-294.107 877.125,-281.602 863.339,-271.807"/>
<polygon fill="midnightblue" stroke="midnightblue" points="865.112,-268.773 854.933,-265.834 861.057,-274.479 865.112,-268.773"/>
</g>
<!-- Node37 -->
<g id="node37" class="node"><title>Node37</title>
<g id="a_node37"><a xlink:href="runnerUtils_8h.html" target="_top" xlink:title="QualityControl/runnerUtils.h">
<polygon fill="none" stroke="black" points="210,-67.5 210,-86.5 347,-86.5 347,-67.5 210,-67.5"/>
<text text-anchor="middle" x="278.5" y="-74.5" font-family="Helvetica,sans-Serif" font-size="10.00">QualityControl/runnerUtils.h</text>
</a>
</g>
</g>
<!-- Node1&#45;&gt;Node37 -->
<g id="edge70" class="edge"><title>Node1&#45;&gt;Node37</title>
<path fill="none" stroke="midnightblue" d="M836.479,-307.869C676.944,-300.348 332.11,-276.656 236.5,-210 201.887,-185.869 177.198,-159.422 198.5,-123 207.361,-107.85 223.405,-97.406 238.812,-90.4236"/>
<polygon fill="midnightblue" stroke="midnightblue" points="240.354,-93.5733 248.253,-86.5122 237.675,-87.1064 240.354,-93.5733"/>
</g>
<!-- Node39 -->
<g id="node39" class="node"><title>Node39</title>
<polygon fill="none" stroke="#bfbfbf" points="1073.5,-246.5 1073.5,-265.5 1233.5,-265.5 1233.5,-246.5 1073.5,-246.5"/>
<text text-anchor="middle" x="1153.5" y="-253.5" font-family="Helvetica,sans-Serif" font-size="10.00">Framework/runDataProcessing.h</text>
</g>
<!-- Node1&#45;&gt;Node39 -->
<g id="edge74" class="edge"><title>Node1&#45;&gt;Node39</title>
<path fill="none" stroke="midnightblue" d="M955.736,-302.444C996.56,-293.063 1062.14,-277.993 1106.48,-267.804"/>
<polygon fill="midnightblue" stroke="midnightblue" points="1107.48,-271.167 1116.44,-265.516 1105.91,-264.345 1107.48,-271.167"/>
</g>
<!-- Node40 -->
<g id="node40" class="node"><title>Node40</title>
<polygon fill="none" stroke="#bfbfbf" points="1252,-246.5 1252,-265.5 1393,-265.5 1393,-246.5 1252,-246.5"/>
<text text-anchor="middle" x="1322.5" y="-253.5" font-family="Helvetica,sans-Serif" font-size="10.00">Framework/ControlService.h</text>
</g>
<!-- Node1&#45;&gt;Node40 -->
<g id="edge75" class="edge"><title>Node1&#45;&gt;Node40</title>
<path fill="none" stroke="midnightblue" d="M982.515,-302.444C1054.91,-292.767 1172.61,-277.035 1248.78,-266.853"/>
<polygon fill="midnightblue" stroke="midnightblue" points="1249.34,-270.311 1258.78,-265.516 1248.41,-263.372 1249.34,-270.311"/>
</g>
<!-- Node41 -->
<g id="node41" class="node"><title>Node41</title>
<polygon fill="none" stroke="#bfbfbf" points="1411.5,-246.5 1411.5,-265.5 1461.5,-265.5 1461.5,-246.5 1411.5,-246.5"/>
<text text-anchor="middle" x="1436.5" y="-253.5" font-family="Helvetica,sans-Serif" font-size="10.00">TH1F.h</text>
</g>
<!-- Node1&#45;&gt;Node41 -->
<g id="edge76" class="edge"><title>Node1&#45;&gt;Node41</title>
<path fill="none" stroke="midnightblue" d="M1000.64,-307.326C1097.17,-302.091 1261.9,-290.293 1401.5,-266 1401.6,-265.983 1401.7,-265.965 1401.8,-265.947"/>
<polygon fill="midnightblue" stroke="midnightblue" points="1402.28,-269.422 1411.37,-263.971 1400.87,-262.566 1402.28,-269.422"/>
</g>
<!-- Node4 -->
<g id="node4" class="node"><title>Node4</title>
<polygon fill="none" stroke="#bfbfbf" points="939.5,-123.5 939.5,-142.5 983.5,-142.5 983.5,-123.5 939.5,-123.5"/>
<text text-anchor="middle" x="961.5" y="-130.5" font-family="Helvetica,sans-Serif" font-size="10.00">vector</text>
</g>
<!-- Node3&#45;&gt;Node4 -->
<g id="edge3" class="edge"><title>Node3&#45;&gt;Node4</title>
<path fill="none" stroke="midnightblue" d="M385.555,-187.048C524.378,-174.261 829.594,-146.149 929.297,-136.966"/>
<polygon fill="midnightblue" stroke="midnightblue" points="929.722,-140.442 939.359,-136.039 929.08,-133.471 929.722,-140.442"/>
</g>
<!-- Node5 -->
<g id="node5" class="node"><title>Node5</title>
<polygon fill="none" stroke="#bfbfbf" points="774,-6 774,-25 815,-25 815,-6 774,-6"/>
<text text-anchor="middle" x="794.5" y="-13" font-family="Helvetica,sans-Serif" font-size="10.00">string</text>
</g>
<!-- Node3&#45;&gt;Node5 -->
<g id="edge4" class="edge"><title>Node3&#45;&gt;Node5</title>
<path fill="none" stroke="midnightblue" d="M328.007,-179.41C336.493,-169.545 347.721,-155.876 356.5,-143 378.363,-110.934 367.285,-88.6415 399.5,-67 458.953,-27.0608 680.921,-18.6912 763.39,-16.9517"/>
<polygon fill="midnightblue" stroke="midnightblue" points="763.696,-20.4465 773.627,-16.7552 763.562,-13.4478 763.696,-20.4465"/>
</g>
<!-- Node6 -->
<g id="node6" class="node"><title>Node6</title>
<polygon fill="none" stroke="#bfbfbf" points="207.5,-123.5 207.5,-142.5 347.5,-142.5 347.5,-123.5 207.5,-123.5"/>
<text text-anchor="middle" x="277.5" y="-130.5" font-family="Helvetica,sans-Serif" font-size="10.00">Framework/WorkflowSpec.h</text>
</g>
<!-- Node3&#45;&gt;Node6 -->
<g id="edge5" class="edge"><title>Node3&#45;&gt;Node6</title>
<path fill="none" stroke="midnightblue" d="M306.495,-179.399C301.087,-170.932 294.168,-160.099 288.446,-151.139"/>
<polygon fill="midnightblue" stroke="midnightblue" points="291.362,-149.202 283.029,-142.658 285.462,-152.97 291.362,-149.202"/>
</g>
<!-- Node7 -->
<g id="node7" class="node"><title>Node7</title>
<polygon fill="none" stroke="#bfbfbf" points="479.5,-123.5 479.5,-142.5 643.5,-142.5 643.5,-123.5 479.5,-123.5"/>
<text text-anchor="middle" x="561.5" y="-130.5" font-family="Helvetica,sans-Serif" font-size="10.00">Framework/DataProcessorSpec.h</text>
</g>
<!-- Node3&#45;&gt;Node7 -->
<g id="edge6" class="edge"><title>Node3&#45;&gt;Node7</title>
<path fill="none" stroke="midnightblue" d="M373.487,-179.475C417.224,-168.896 476.352,-154.595 516.542,-144.874"/>
<polygon fill="midnightblue" stroke="midnightblue" points="517.434,-148.259 526.331,-142.506 515.788,-141.455 517.434,-148.259"/>
</g>
<!-- Node9&#45;&gt;Node4 -->
<g id="edge13" class="edge"><title>Node9&#45;&gt;Node4</title>
<path fill="none" stroke="midnightblue" d="M795.167,-246.422C774.398,-240.051 751.948,-229.023 739.5,-210 731.956,-198.471 730.732,-189.628 739.5,-179 793.084,-114.05 843.294,-161.217 925.5,-143 926.774,-142.718 928.071,-142.424 929.381,-142.122"/>
<polygon fill="midnightblue" stroke="midnightblue" points="930.549,-145.441 939.46,-139.709 928.92,-138.633 930.549,-145.441"/>
</g>
<!-- Node9&#45;&gt;Node5 -->
<g id="edge11" class="edge"><title>Node9&#45;&gt;Node5</title>
<path fill="none" stroke="midnightblue" d="M767.309,-250.867C663.532,-244.44 486.721,-230.607 465.5,-210 437.577,-182.885 432.469,-154.376 455.5,-123 492.892,-72.0597 687.534,-34.4467 763.801,-21.4528"/>
<polygon fill="midnightblue" stroke="midnightblue" points="764.466,-24.8904 773.749,-19.7839 763.307,-17.9869 764.466,-24.8904"/>
</g>
<!-- Node9&#45;&gt;Node7 -->
<g id="edge20" class="edge"><title>Node9&#45;&gt;Node7</title>
<path fill="none" stroke="midnightblue" d="M767.377,-255.867C679.391,-255.088 541.428,-247.661 508.5,-210 499.431,-199.628 502.714,-191.504 508.5,-179 514.42,-166.207 525.968,-155.722 536.778,-148.1"/>
<polygon fill="midnightblue" stroke="midnightblue" points="538.714,-151.016 545.166,-142.613 534.882,-145.158 538.714,-151.016"/>
</g>
<!-- Node10 -->
<g id="node10" class="node"><title>Node10</title>
<polygon fill="none" stroke="#bfbfbf" points="819.5,-185 819.5,-204 865.5,-204 865.5,-185 819.5,-185"/>
<text text-anchor="middle" x="842.5" y="-192" font-family="Helvetica,sans-Serif" font-size="10.00">chrono</text>
</g>
<!-- Node9&#45;&gt;Node10 -->
<g id="edge9" class="edge"><title>Node9&#45;&gt;Node10</title>
<path fill="none" stroke="midnightblue" d="M842.5,-246.475C842.5,-238.08 842.5,-224.981 842.5,-214.163"/>
<polygon fill="midnightblue" stroke="midnightblue" points="846,-214.009 842.5,-204.009 839,-214.009 846,-214.009"/>
</g>
<!-- Node11 -->
<g id="node11" class="node"><title>Node11</title>
<polygon fill="none" stroke="#bfbfbf" points="1001.5,-123.5 1001.5,-142.5 1053.5,-142.5 1053.5,-123.5 1001.5,-123.5"/>
<text text-anchor="middle" x="1027.5" y="-130.5" font-family="Helvetica,sans-Serif" font-size="10.00">memory</text>
</g>
<!-- Node9&#45;&gt;Node11 -->
<g id="edge10" class="edge"><title>Node9&#45;&gt;Node11</title>
<path fill="none" stroke="midnightblue" d="M820.692,-246.447C805.555,-239.221 786.545,-227.264 777.5,-210 771.106,-197.796 768.598,-189.516 777.5,-179 807.087,-144.047 930.514,-151.98 991.294,-142.801"/>
<polygon fill="midnightblue" stroke="midnightblue" points="991.96,-146.238 1001.18,-141.025 990.722,-139.348 991.96,-146.238"/>
</g>
<!-- Node12 -->
<g id="node12" class="node"><title>Node12</title>
<polygon fill="none" stroke="#bfbfbf" points="1701,-6 1701,-25 1736,-25 1736,-6 1701,-6"/>
<text text-anchor="middle" x="1718.5" y="-13" font-family="Helvetica,sans-Serif" font-size="10.00">map</text>
</g>
<!-- Node9&#45;&gt;Node12 -->
<g id="edge12" class="edge"><title>Node9&#45;&gt;Node12</title>
<path fill="none" stroke="midnightblue" d="M917.582,-246.682C920.592,-246.435 923.574,-246.206 926.5,-246 1160.94,-229.47 1754.45,-262.657 1983.5,-210 2114.78,-179.82 2187.08,-199.935 2260.5,-87 2265.34,-79.5475 2266.49,-73.5705 2260.5,-67 2225.57,-28.6696 1852.14,-18.9443 1746.31,-16.9497"/>
<polygon fill="midnightblue" stroke="midnightblue" points="1746.17,-13.4467 1736.1,-16.7661 1746.04,-20.4456 1746.17,-13.4467"/>
</g>
<!-- Node13 -->
<g id="node13" class="node"><title>Node13</title>
<polygon fill="none" stroke="#bfbfbf" points="883.5,-185 883.5,-204 961.5,-204 961.5,-185 883.5,-185"/>
<text text-anchor="middle" x="922.5" y="-192" font-family="Helvetica,sans-Serif" font-size="10.00">unordered_set</text>
</g>
<!-- Node9&#45;&gt;Node13 -->
<g id="edge14" class="edge"><title>Node9&#45;&gt;Node13</title>
<path fill="none" stroke="midnightblue" d="M853.962,-246.475C866.675,-237.02 887.413,-221.596 902.753,-210.187"/>
<polygon fill="midnightblue" stroke="midnightblue" points="905.124,-212.785 911.059,-204.009 900.946,-207.169 905.124,-212.785"/>
</g>
<!-- Node14 -->
<g id="node14" class="node"><title>Node14</title>
<polygon fill="none" stroke="#bfbfbf" points="979.5,-185 979.5,-204 1071.5,-204 1071.5,-185 979.5,-185"/>
<text text-anchor="middle" x="1025.5" y="-192" font-family="Helvetica,sans-Serif" font-size="10.00">Common/Timer.h</text>
</g>
<!-- Node9&#45;&gt;Node14 -->
<g id="edge15" class="edge"><title>Node9&#45;&gt;Node14</title>
<path fill="none" stroke="midnightblue" d="M868.719,-246.475C900.518,-236.136 954.265,-218.661 989.817,-207.102"/>
<polygon fill="midnightblue" stroke="midnightblue" points="990.901,-210.43 999.329,-204.009 988.737,-203.773 990.901,-210.43"/>
</g>
<!-- Node15 -->
<g id="node15" class="node"><title>Node15</title>
<polygon fill="none" stroke="#bfbfbf" points="1089.5,-185 1089.5,-204 1187.5,-204 1187.5,-185 1089.5,-185"/>
<text text-anchor="middle" x="1138.5" y="-192" font-family="Helvetica,sans-Serif" font-size="10.00">Framework/Task.h</text>
</g>
<!-- Node9&#45;&gt;Node15 -->
<g id="edge16" class="edge"><title>Node9&#45;&gt;Node15</title>
<path fill="none" stroke="midnightblue" d="M892.357,-246.443C940.63,-237.953 1015.81,-224.19 1080.5,-210 1085.5,-208.902 1090.73,-207.689 1095.92,-206.445"/>
<polygon fill="midnightblue" stroke="midnightblue" points="1096.88,-209.814 1105.76,-204.039 1095.21,-203.015 1096.88,-209.814"/>
</g>
<!-- Node16 -->
<g id="node16" class="node"><title>Node16</title>
<polygon fill="none" stroke="#bfbfbf" points="1206,-185 1206,-204 1323,-204 1323,-185 1206,-185"/>
<text text-anchor="middle" x="1264.5" y="-192" font-family="Helvetica,sans-Serif" font-size="10.00">Headers/DataHeader.h</text>
</g>
<!-- Node9&#45;&gt;Node16 -->
<g id="edge17" class="edge"><title>Node9&#45;&gt;Node16</title>
<path fill="none" stroke="midnightblue" d="M915.244,-246.481C1002.64,-236.119 1144.05,-218.91 1196.5,-210 1203.22,-208.859 1210.28,-207.516 1217.2,-206.117"/>
<polygon fill="midnightblue" stroke="midnightblue" points="1218.12,-209.501 1227.2,-204.041 1216.69,-202.647 1218.12,-209.501"/>
</g>
<!-- Node17 -->
<g id="node17" class="node"><title>Node17</title>
<polygon fill="none" stroke="#bfbfbf" points="1341,-185 1341,-204 1492,-204 1492,-185 1341,-185"/>
<text text-anchor="middle" x="1416.5" y="-192" font-family="Helvetica,sans-Serif" font-size="10.00">Monitoring/MonitoringFactory.h</text>
</g>
<!-- Node9&#45;&gt;Node17 -->
<g id="edge18" class="edge"><title>Node9&#45;&gt;Node17</title>
<path fill="none" stroke="midnightblue" d="M917.599,-246.886C920.605,-246.582 923.581,-246.286 926.5,-246 1106.35,-228.373 1152.29,-233.213 1331.5,-210 1340.98,-208.773 1351.01,-207.256 1360.74,-205.67"/>
<polygon fill="midnightblue" stroke="midnightblue" points="1361.44,-209.102 1370.72,-204.002 1360.28,-202.198 1361.44,-209.102"/>
</g>
<!-- Node18 -->
<g id="node18" class="node"><title>Node18</title>
<polygon fill="none" stroke="#bfbfbf" points="1510,-179.5 1510,-209.5 1645,-209.5 1645,-179.5 1510,-179.5"/>
<text text-anchor="start" x="1518" y="-197.5" font-family="Helvetica,sans-Serif" font-size="10.00">Configuration/Configuration</text>
<text text-anchor="middle" x="1577.5" y="-186.5" font-family="Helvetica,sans-Serif" font-size="10.00">Interface.h</text>
</g>
<!-- Node9&#45;&gt;Node18 -->
<g id="edge19" class="edge"><title>Node9&#45;&gt;Node18</title>
<path fill="none" stroke="midnightblue" d="M917.59,-246.789C920.598,-246.512 923.577,-246.248 926.5,-246 1177.96,-224.654 1245.16,-241.278 1500.04,-209.938"/>
<polygon fill="midnightblue" stroke="midnightblue" points="1500.48,-213.411 1509.97,-208.705 1499.61,-206.465 1500.48,-213.411"/>
</g>
<!-- Node19 -->
<g id="node19" class="node"><title>Node19</title>
<g id="a_node19"><a xlink:href="CheckInterface_8h.html" target="_top" xlink:title="QualityControl/CheckInterface.h">
<polygon fill="none" stroke="black" points="1314,-123.5 1314,-142.5 1471,-142.5 1471,-123.5 1314,-123.5"/>
<text text-anchor="middle" x="1392.5" y="-130.5" font-family="Helvetica,sans-Serif" font-size="10.00">QualityControl/CheckInterface.h</text>
</a>
</g>
</g>
<!-- Node9&#45;&gt;Node19 -->
<g id="edge21" class="edge"><title>Node9&#45;&gt;Node19</title>
<path fill="none" stroke="midnightblue" d="M833.531,-246.431C818.599,-231.157 792.022,-198.962 810.5,-179 818.768,-170.068 1142.53,-149.191 1303.5,-139.334"/>
<polygon fill="midnightblue" stroke="midnightblue" points="1304.1,-142.804 1313.87,-138.701 1303.67,-135.817 1304.1,-142.804"/>
</g>
<!-- Node21 -->
<g id="node21" class="node"><title>Node21</title>
<g id="a_node21"><a xlink:href="MonitorObject_8h.html" target="_top" xlink:title="QualityControl/MonitorObject.h">
<polygon fill="none" stroke="black" points="1194,-67.5 1194,-86.5 1345,-86.5 1345,-67.5 1194,-67.5"/>
<text text-anchor="middle" x="1269.5" y="-74.5" font-family="Helvetica,sans-Serif" font-size="10.00">QualityControl/MonitorObject.h</text>
</a>
</g>
</g>
<!-- Node9&#45;&gt;Node21 -->
<g id="edge45" class="edge"><title>Node9&#45;&gt;Node21</title>
<path fill="none" stroke="midnightblue" d="M767.34,-253.627C679.354,-250.588 540.432,-240.883 499.5,-210 466.964,-185.451 442.502,-152.62 470.5,-123 494.7,-97.399 982.208,-84.1155 1183.6,-79.7032"/>
<polygon fill="midnightblue" stroke="midnightblue" points="1183.92,-83.1972 1193.84,-79.4811 1183.77,-76.1989 1183.92,-83.1972"/>
</g>
<!-- Node26 -->
<g id="node26" class="node"><title>Node26</title>
<g id="a_node26"><a xlink:href="DatabaseInterface_8h.html" target="_top" xlink:title="QualityControl/DatabaseInterface.h">
<polygon fill="none" stroke="black" points="517.5,-185 517.5,-204 687.5,-204 687.5,-185 517.5,-185"/>
<text text-anchor="middle" x="602.5" y="-192" font-family="Helvetica,sans-Serif" font-size="10.00">QualityControl/DatabaseInterface.h</text>
</a>
</g>
</g>
<!-- Node9&#45;&gt;Node26 -->
<g id="edge33" class="edge"><title>Node9&#45;&gt;Node26</title>
<path fill="none" stroke="midnightblue" d="M808.114,-246.475C765.609,-235.937 693.201,-217.986 646.634,-206.441"/>
<polygon fill="midnightblue" stroke="midnightblue" points="647.371,-203.018 636.822,-204.009 645.686,-209.813 647.371,-203.018"/>
</g>
<!-- Node29 -->
<g id="node29" class="node"><title>Node29</title>
<g id="a_node29"><a xlink:href="QcInfoLogger_8h.html" target="_top" xlink:title="QualityControl/QcInfoLogger.h">
<polygon fill="none" stroke="black" points="1948,-123.5 1948,-142.5 2097,-142.5 2097,-123.5 1948,-123.5"/>
<text text-anchor="middle" x="2022.5" y="-130.5" font-family="Helvetica,sans-Serif" font-size="10.00">QualityControl/QcInfoLogger.h</text>
</a>
</g>
</g>
<!-- Node9&#45;&gt;Node29 -->
<g id="edge46" class="edge"><title>Node9&#45;&gt;Node29</title>
<path fill="none" stroke="midnightblue" d="M917.582,-246.686C920.593,-246.438 923.574,-246.208 926.5,-246 1039.95,-237.936 1845.66,-256.414 1949.5,-210 1977.09,-197.666 1999.47,-169.601 2011.88,-151.245"/>
<polygon fill="midnightblue" stroke="midnightblue" points="2014.94,-152.962 2017.43,-142.665 2009.06,-149.159 2014.94,-152.962"/>
</g>
<!-- Node32 -->
<g id="node32" class="node"><title>Node32</title>
<g id="a_node32"><a xlink:href="Check_8h_source.html" target="_top" xlink:title="QualityControl/Check.h">
<polygon fill="none" stroke="black" points="1663,-185 1663,-204 1782,-204 1782,-185 1663,-185"/>
<text text-anchor="middle" x="1722.5" y="-192" font-family="Helvetica,sans-Serif" font-size="10.00">QualityControl/Check.h</text>
</a>
</g>
</g>
<!-- Node9&#45;&gt;Node32 -->
<g id="edge49" class="edge"><title>Node9&#45;&gt;Node32</title>
<path fill="none" stroke="midnightblue" d="M917.586,-246.74C920.595,-246.477 923.576,-246.229 926.5,-246 1249.02,-220.758 1332.65,-251.394 1653.5,-210 1661.27,-208.998 1669.46,-207.591 1677.39,-206.044"/>
<polygon fill="midnightblue" stroke="midnightblue" points="1678.13,-209.464 1687.23,-204.03 1676.73,-202.607 1678.13,-209.464"/>
</g>
<!-- Node35 -->
<g id="node35" class="node"><title>Node35</title>
<g id="a_node35"><a xlink:href="UpdatePolicyManager_8h.html" target="_top" xlink:title="QualityControl/UpdatePolicy\lManager.h">
<polygon fill="none" stroke="black" points="1800.5,-179.5 1800.5,-209.5 1940.5,-209.5 1940.5,-179.5 1800.5,-179.5"/>
<text text-anchor="start" x="1808.5" y="-197.5" font-family="Helvetica,sans-Serif" font-size="10.00">QualityControl/UpdatePolicy</text>
<text text-anchor="middle" x="1870.5" y="-186.5" font-family="Helvetica,sans-Serif" font-size="10.00">Manager.h</text>
</a>
</g>
</g>
<!-- Node9&#45;&gt;Node35 -->
<g id="edge64" class="edge"><title>Node9&#45;&gt;Node35</title>
<path fill="none" stroke="midnightblue" d="M917.584,-246.71C920.594,-246.456 923.575,-246.217 926.5,-246 1306.94,-217.733 1407.4,-252.237 1790.4,-210.008"/>
<polygon fill="midnightblue" stroke="midnightblue" points="1790.81,-213.484 1800.36,-208.899 1790.04,-206.527 1790.81,-213.484"/>
</g>
<!-- Node20 -->
<g id="node20" class="node"><title>Node20</title>
<polygon fill="none" stroke="#bfbfbf" points="1363,-67.5 1363,-86.5 1446,-86.5 1446,-67.5 1363,-67.5"/>
<text text-anchor="middle" x="1404.5" y="-74.5" font-family="Helvetica,sans-Serif" font-size="10.00">unordered_map</text>
</g>
<!-- Node19&#45;&gt;Node20 -->
<g id="edge22" class="edge"><title>Node19&#45;&gt;Node20</title>
<path fill="none" stroke="midnightblue" d="M1394.48,-123.083C1396.07,-115.927 1398.36,-105.635 1400.35,-96.6911"/>
<polygon fill="midnightblue" stroke="midnightblue" points="1403.8,-97.2722 1402.56,-86.7511 1396.97,-95.7537 1403.8,-97.2722"/>
</g>
<!-- Node19&#45;&gt;Node21 -->
<g id="edge23" class="edge"><title>Node19&#45;&gt;Node21</title>
<path fill="none" stroke="midnightblue" d="M1373.01,-123.444C1352.86,-114.596 1321.18,-100.687 1298.17,-90.5865"/>
<polygon fill="midnightblue" stroke="midnightblue" points="1299.46,-87.3316 1288.9,-86.5164 1296.65,-93.7411 1299.46,-87.3316"/>
</g>
<!-- Node25 -->
<g id="node25" class="node"><title>Node25</title>
<g id="a_node25"><a xlink:href="Quality_8h.html" target="_top" xlink:title="QualityControl/Quality.h">
<polygon fill="none" stroke="black" points="1541,-67.5 1541,-86.5 1662,-86.5 1662,-67.5 1541,-67.5"/>
<text text-anchor="middle" x="1601.5" y="-74.5" font-family="Helvetica,sans-Serif" font-size="10.00">QualityControl/Quality.h</text>
</a>
</g>
</g>
<!-- Node19&#45;&gt;Node25 -->
<g id="edge29" class="edge"><title>Node19&#45;&gt;Node25</title>
<path fill="none" stroke="midnightblue" d="M1425.62,-123.444C1461.62,-114.142 1519.27,-99.246 1558.69,-89.062"/>
<polygon fill="midnightblue" stroke="midnightblue" points="1559.73,-92.4068 1568.54,-86.5164 1557.98,-85.6294 1559.73,-92.4068"/>
</g>
<!-- Node21&#45;&gt;Node5 -->
<g id="edge24" class="edge"><title>Node21&#45;&gt;Node5</title>
<path fill="none" stroke="midnightblue" d="M1201.44,-67.4751C1097.04,-54.3973 901.488,-29.9016 825.66,-20.4033"/>
<polygon fill="midnightblue" stroke="midnightblue" points="825.724,-16.884 815.367,-19.1138 824.854,-23.8297 825.724,-16.884"/>
</g>
<!-- Node21&#45;&gt;Node12 -->
<g id="edge25" class="edge"><title>Node21&#45;&gt;Node12</title>
<path fill="none" stroke="midnightblue" d="M1345.06,-67.6072C1418.58,-59.2118 1533.38,-45.4931 1632.5,-31 1651.92,-28.1608 1673.72,-24.4798 1690.51,-21.5371"/>
<polygon fill="midnightblue" stroke="midnightblue" points="1691.51,-24.9147 1700.75,-19.7262 1690.29,-18.0218 1691.51,-24.9147"/>
</g>
<!-- Node22 -->
<g id="node22" class="node"><title>Node22</title>
<polygon fill="none" stroke="#bfbfbf" points="1567.5,-6 1567.5,-25 1623.5,-25 1623.5,-6 1567.5,-6"/>
<text text-anchor="middle" x="1595.5" y="-13" font-family="Helvetica,sans-Serif" font-size="10.00">Rtypes.h</text>
</g>
<!-- Node21&#45;&gt;Node22 -->
<g id="edge26" class="edge"><title>Node21&#45;&gt;Node22</title>
<path fill="none" stroke="midnightblue" d="M1316.21,-67.4751C1380.98,-55.6529 1496.88,-34.5 1556.98,-23.5304"/>
<polygon fill="midnightblue" stroke="midnightblue" points="1557.97,-26.9076 1567.18,-21.6689 1556.71,-20.0213 1557.97,-26.9076"/>
</g>
<!-- Node23 -->
<g id="node23" class="node"><title>Node23</title>
<polygon fill="none" stroke="#bfbfbf" points="1415,-6 1415,-25 1474,-25 1474,-6 1415,-6"/>
<text text-anchor="middle" x="1444.5" y="-13" font-family="Helvetica,sans-Serif" font-size="10.00">TObject.h</text>
</g>
<!-- Node21&#45;&gt;Node23 -->
<g id="edge27" class="edge"><title>Node21&#45;&gt;Node23</title>
<path fill="none" stroke="midnightblue" d="M1294.57,-67.4751C1324.85,-57.1804 1375.94,-39.8103 1409.94,-28.2502"/>
<polygon fill="midnightblue" stroke="midnightblue" points="1411.13,-31.5419 1419.47,-25.0091 1408.88,-24.9145 1411.13,-31.5419"/>
</g>
<!-- Node24 -->
<g id="node24" class="node"><title>Node24</title>
<polygon fill="none" stroke="#bfbfbf" points="1211.5,-6 1211.5,-25 1327.5,-25 1327.5,-6 1211.5,-6"/>
<text text-anchor="middle" x="1269.5" y="-13" font-family="Helvetica,sans-Serif" font-size="10.00">Common/Exceptions.h</text>
</g>
<!-- Node21&#45;&gt;Node24 -->
<g id="edge28" class="edge"><title>Node21&#45;&gt;Node24</title>
<path fill="none" stroke="midnightblue" d="M1269.5,-67.4751C1269.5,-59.0803 1269.5,-45.9806 1269.5,-35.1631"/>
<polygon fill="midnightblue" stroke="midnightblue" points="1273,-35.0091 1269.5,-25.0091 1266,-35.0091 1273,-35.0091"/>
</g>
<!-- Node25&#45;&gt;Node5 -->
<g id="edge31" class="edge"><title>Node25&#45;&gt;Node5</title>
<path fill="none" stroke="midnightblue" d="M1540.84,-71.5278C1379.82,-59.6556 945.7,-27.648 825.641,-18.796"/>
<polygon fill="midnightblue" stroke="midnightblue" points="825.563,-15.2809 815.333,-18.036 825.049,-22.2619 825.563,-15.2809"/>
</g>
<!-- Node25&#45;&gt;Node12 -->
<g id="edge32" class="edge"><title>Node25&#45;&gt;Node12</title>
<path fill="none" stroke="midnightblue" d="M1618.26,-67.4751C1637.72,-57.578 1670.05,-41.1416 1692.71,-29.6151"/>
<polygon fill="midnightblue" stroke="midnightblue" points="1694.44,-32.6619 1701.77,-25.0091 1691.27,-26.4224 1694.44,-32.6619"/>
</g>
<!-- Node25&#45;&gt;Node22 -->
<g id="edge30" class="edge"><title>Node25&#45;&gt;Node22</title>
<path fill="none" stroke="midnightblue" d="M1600.64,-67.4751C1599.79,-59.0803 1598.47,-45.9806 1597.38,-35.1631"/>
<polygon fill="midnightblue" stroke="midnightblue" points="1600.84,-34.6074 1596.36,-25.0091 1593.88,-35.3098 1600.84,-34.6074"/>
</g>
<!-- Node26&#45;&gt;Node4 -->
<g id="edge36" class="edge"><title>Node26&#45;&gt;Node4</title>
<path fill="none" stroke="midnightblue" d="M658.706,-184.994C744.245,-172.007 899.912,-148.188 925.5,-143 926.779,-142.741 928.08,-142.466 929.393,-142.18"/>
<polygon fill="midnightblue" stroke="midnightblue" points="930.538,-145.508 939.487,-139.836 928.954,-138.689 930.538,-145.508"/>
</g>
<!-- Node26&#45;&gt;Node5 -->
<g id="edge34" class="edge"><title>Node26&#45;&gt;Node5</title>
<path fill="none" stroke="midnightblue" d="M611.761,-184.963C641.972,-157.112 737.977,-68.6069 777.376,-32.2861"/>
<polygon fill="midnightblue" stroke="midnightblue" points="779.9,-34.7198 784.88,-25.3684 775.155,-29.5731 779.9,-34.7198"/>
</g>
<!-- Node26&#45;&gt;Node11 -->
<g id="edge35" class="edge"><title>Node26&#45;&gt;Node11</title>
<path fill="none" stroke="midnightblue" d="M676.896,-184.973C768.182,-174.326 918.796,-156.121 991.119,-143.025"/>
<polygon fill="midnightblue" stroke="midnightblue" points="992.023,-146.416 1001.21,-141.131 990.731,-139.536 992.023,-146.416"/>
</g>
<!-- Node26&#45;&gt;Node20 -->
<g id="edge37" class="edge"><title>Node26&#45;&gt;Node20</title>
<path fill="none" stroke="midnightblue" d="M663.035,-184.992C734.628,-174.561 849.282,-156.596 890.5,-143 909.376,-136.774 911.367,-128.383 930.5,-123 1109.02,-72.7697 1164.51,-110.095 1352.85,-86.9369"/>
<polygon fill="midnightblue" stroke="midnightblue" points="1353.32,-90.4059 1362.8,-85.6733 1352.44,-83.4617 1353.32,-90.4059"/>
</g>
<!-- Node26&#45;&gt;Node21 -->
<g id="edge44" class="edge"><title>Node26&#45;&gt;Node21</title>
<path fill="none" stroke="midnightblue" d="M666.488,-184.976C718.078,-177.085 792.062,-163.454 854.5,-143 874.53,-136.439 877.231,-128.782 897.5,-123 993.144,-95.7179 1107.23,-84.9724 1183.61,-80.7423"/>
<polygon fill="midnightblue" stroke="midnightblue" points="1183.87,-84.2338 1193.67,-80.211 1183.5,-77.2436 1183.87,-84.2338"/>
</g>
<!-- Node27 -->
<g id="node27" class="node"><title>Node27</title>
<polygon fill="none" stroke="#bfbfbf" points="699.5,-123.5 699.5,-142.5 845.5,-142.5 845.5,-123.5 699.5,-123.5"/>
<text text-anchor="middle" x="772.5" y="-130.5" font-family="Helvetica,sans-Serif" font-size="10.00">Framework/ServiceRegistry.h</text>
</g>
<!-- Node26&#45;&gt;Node27 -->
<g id="edge38" class="edge"><title>Node26&#45;&gt;Node27</title>
<path fill="none" stroke="midnightblue" d="M626.857,-184.975C656.144,-174.725 705.474,-157.459 738.502,-145.899"/>
<polygon fill="midnightblue" stroke="midnightblue" points="739.906,-149.116 748.188,-142.509 737.593,-142.509 739.906,-149.116"/>
</g>
<!-- Node28 -->
<g id="node28" class="node"><title>Node28</title>
<g id="a_node28"><a xlink:href="QualityObject_8h_source.html" target="_top" xlink:title="QualityControl/QualityObject.h">
<polygon fill="none" stroke="black" points="1527,-123.5 1527,-142.5 1676,-142.5 1676,-123.5 1527,-123.5"/>
<text text-anchor="middle" x="1601.5" y="-130.5" font-family="Helvetica,sans-Serif" font-size="10.00">QualityControl/QualityObject.h</text>
</a>
</g>
</g>
<!-- Node26&#45;&gt;Node28 -->
<g id="edge39" class="edge"><title>Node26&#45;&gt;Node28</title>
<path fill="none" stroke="midnightblue" d="M687.74,-187.252C725.364,-184.573 770.125,-181.493 810.5,-179 1107.7,-160.646 1182.34,-161.954 1479.5,-143 1491.63,-142.227 1504.42,-141.349 1516.99,-140.453"/>
<polygon fill="midnightblue" stroke="midnightblue" points="1517.28,-143.942 1527,-139.733 1516.77,-136.96 1517.28,-143.942"/>
</g>
<!-- Node28&#45;&gt;Node12 -->
<g id="edge40" class="edge"><title>Node28&#45;&gt;Node12</title>
<path fill="none" stroke="midnightblue" d="M1618.43,-123.447C1633.28,-115.4 1654.87,-102.318 1670.5,-87 1686.63,-71.1841 1700.59,-49.1776 1709.23,-33.978"/>
<polygon fill="midnightblue" stroke="midnightblue" points="1712.35,-35.5549 1714.11,-25.1061 1706.22,-32.1808 1712.35,-35.5549"/>
</g>
<!-- Node28&#45;&gt;Node23 -->
<g id="edge41" class="edge"><title>Node28&#45;&gt;Node23</title>
<path fill="none" stroke="midnightblue" d="M1587.25,-123.477C1572.89,-114.738 1550.23,-100.547 1531.5,-87 1506.59,-68.9844 1479.26,-46.327 1462,-31.6354"/>
<polygon fill="midnightblue" stroke="midnightblue" points="1464.27,-28.966 1454.4,-25.1183 1459.71,-34.2821 1464.27,-28.966"/>
</g>
<!-- Node28&#45;&gt;Node24 -->
<g id="edge42" class="edge"><title>Node28&#45;&gt;Node24</title>
<path fill="none" stroke="midnightblue" d="M1583,-123.404C1549.44,-107.88 1479.68,-75.9457 1454.5,-67 1408.76,-50.7486 1355.12,-36.6287 1317.41,-27.4835"/>
<polygon fill="midnightblue" stroke="midnightblue" points="1317.75,-23.9674 1307.21,-25.0384 1316.12,-30.7743 1317.75,-23.9674"/>
</g>
<!-- Node28&#45;&gt;Node25 -->
<g id="edge43" class="edge"><title>Node28&#45;&gt;Node25</title>
<path fill="none" stroke="midnightblue" d="M1601.5,-123.083C1601.5,-116.006 1601.5,-105.861 1601.5,-96.9865"/>
<polygon fill="midnightblue" stroke="midnightblue" points="1605,-96.751 1601.5,-86.7511 1598,-96.7511 1605,-96.751"/>
</g>
<!-- Node30 -->
<g id="node30" class="node"><title>Node30</title>
<polygon fill="none" stroke="#bfbfbf" points="2121.5,-67.5 2121.5,-86.5 2251.5,-86.5 2251.5,-67.5 2121.5,-67.5"/>
<text text-anchor="middle" x="2186.5" y="-74.5" font-family="Helvetica,sans-Serif" font-size="10.00">InfoLogger/InfoLogger.hxx</text>
</g>
<!-- Node29&#45;&gt;Node30 -->
<g id="edge47" class="edge"><title>Node29&#45;&gt;Node30</title>
<path fill="none" stroke="midnightblue" d="M2048.49,-123.444C2076.2,-114.32 2120.25,-99.8133 2151.12,-89.6509"/>
<polygon fill="midnightblue" stroke="midnightblue" points="2152.23,-92.9684 2160.64,-86.5164 2150.04,-86.3196 2152.23,-92.9684"/>
</g>
<!-- Node31 -->
<g id="node31" class="node"><title>Node31</title>
<polygon fill="none" stroke="#bfbfbf" points="1941.5,-67.5 1941.5,-86.5 2103.5,-86.5 2103.5,-67.5 1941.5,-67.5"/>
<text text-anchor="middle" x="2022.5" y="-74.5" font-family="Helvetica,sans-Serif" font-size="10.00">InfoLogger/InfoLoggerMacros.hxx</text>
</g>
<!-- Node29&#45;&gt;Node31 -->
<g id="edge48" class="edge"><title>Node29&#45;&gt;Node31</title>
<path fill="none" stroke="midnightblue" d="M2022.5,-123.083C2022.5,-116.006 2022.5,-105.861 2022.5,-96.9865"/>
<polygon fill="midnightblue" stroke="midnightblue" points="2026,-96.751 2022.5,-86.7511 2019,-96.7511 2026,-96.751"/>
</g>
<!-- Node32&#45;&gt;Node4 -->
<g id="edge52" class="edge"><title>Node32&#45;&gt;Node4</title>
<path fill="none" stroke="midnightblue" d="M1686.87,-184.928C1676.19,-182.655 1664.42,-180.437 1653.5,-179 1365.07,-141.066 1284.35,-191.186 993.695,-142.793"/>
<polygon fill="midnightblue" stroke="midnightblue" points="994.153,-139.321 983.709,-141.106 992.987,-146.223 994.153,-139.321"/>
</g>
<!-- Node32&#45;&gt;Node7 -->
<g id="edge55" class="edge"><title>Node32&#45;&gt;Node7</title>
<path fill="none" stroke="midnightblue" d="M1687.59,-184.963C1676.73,-182.632 1664.68,-180.373 1653.5,-179 1228.4,-126.771 1118.19,-165.907 690.5,-143 678.678,-142.367 666.253,-141.613 653.974,-140.814"/>
<polygon fill="midnightblue" stroke="midnightblue" points="653.92,-137.303 643.711,-140.135 653.458,-144.288 653.92,-137.303"/>
</g>
<!-- Node32&#45;&gt;Node11 -->
<g id="edge53" class="edge"><title>Node32&#45;&gt;Node11</title>
<path fill="none" stroke="midnightblue" d="M1686.86,-184.973C1676.19,-182.701 1664.42,-180.472 1653.5,-179 1396.02,-144.293 1324.26,-182.948 1063.9,-142.91"/>
<polygon fill="midnightblue" stroke="midnightblue" points="1064.18,-139.412 1053.76,-141.326 1063.1,-146.328 1064.18,-139.412"/>
</g>
<!-- Node32&#45;&gt;Node12 -->
<g id="edge51" class="edge"><title>Node32&#45;&gt;Node12</title>
<path fill="none" stroke="midnightblue" d="M1722.31,-184.963C1721.7,-157.928 1719.79,-73.7392 1718.93,-35.609"/>
<polygon fill="midnightblue" stroke="midnightblue" points="1722.43,-35.2867 1718.7,-25.3684 1715.43,-35.4449 1722.43,-35.2867"/>
</g>
<!-- Node32&#45;&gt;Node19 -->
<g id="edge59" class="edge"><title>Node32&#45;&gt;Node19</title>
<path fill="none" stroke="midnightblue" d="M1683.14,-184.971C1673.46,-182.945 1663.12,-180.839 1653.5,-179 1586.04,-166.101 1508.44,-152.934 1455.51,-144.203"/>
<polygon fill="midnightblue" stroke="midnightblue" points="1456.03,-140.742 1445.59,-142.572 1454.89,-147.649 1456.03,-140.742"/>
</g>
<!-- Node32&#45;&gt;Node20 -->
<g id="edge54" class="edge"><title>Node32&#45;&gt;Node20</title>
<path fill="none" stroke="midnightblue" d="M1681.98,-184.932C1631.16,-173.941 1547.09,-154.881 1517.5,-143 1508.22,-139.275 1457.91,-109.719 1427.63,-91.7692"/>
<polygon fill="midnightblue" stroke="midnightblue" points="1429.33,-88.7087 1418.95,-86.6128 1425.76,-94.7277 1429.33,-88.7087"/>
</g>
<!-- Node32&#45;&gt;Node21 -->
<g id="edge58" class="edge"><title>Node32&#45;&gt;Node21</title>
<path fill="none" stroke="midnightblue" d="M1685.39,-184.959C1675.1,-182.794 1663.9,-180.625 1653.5,-179 1576.47,-166.967 1369.29,-186.366 1304.5,-143 1288.56,-132.33 1279.29,-111.918 1274.35,-96.803"/>
<polygon fill="midnightblue" stroke="midnightblue" points="1277.63,-95.5693 1271.48,-86.9478 1270.91,-97.5277 1277.63,-95.5693"/>
</g>
<!-- Node32&#45;&gt;Node25 -->
<g id="edge56" class="edge"><title>Node32&#45;&gt;Node25</title>
<path fill="none" stroke="midnightblue" d="M1719.63,-184.676C1714.55,-170.23 1702.76,-141.31 1684.5,-123 1670.47,-108.934 1651.12,-98.0997 1634.63,-90.5901"/>
<polygon fill="midnightblue" stroke="midnightblue" points="1635.88,-87.3183 1625.31,-86.5535 1633.1,-93.7411 1635.88,-87.3183"/>
</g>
<!-- Node32&#45;&gt;Node28 -->
<g id="edge57" class="edge"><title>Node32&#45;&gt;Node28</title>
<path fill="none" stroke="midnightblue" d="M1705.16,-184.975C1684.95,-175.034 1651.31,-158.495 1627.86,-146.961"/>
<polygon fill="midnightblue" stroke="midnightblue" points="1629.32,-143.781 1618.8,-142.509 1626.23,-150.063 1629.32,-143.781"/>
</g>
<!-- Node32&#45;&gt;Node29 -->
<g id="edge60" class="edge"><title>Node32&#45;&gt;Node29</title>
<path fill="none" stroke="midnightblue" d="M1762.61,-184.966C1772.08,-182.981 1782.14,-180.895 1791.5,-179 1851.75,-166.801 1920.97,-153.397 1967.81,-144.419"/>
<polygon fill="midnightblue" stroke="midnightblue" points="1968.58,-147.834 1977.75,-142.516 1967.27,-140.959 1968.58,-147.834"/>
</g>
<!-- Node33 -->
<g id="node33" class="node"><title>Node33</title>
<polygon fill="none" stroke="#bfbfbf" points="1770,-123.5 1770,-142.5 1829,-142.5 1829,-123.5 1770,-123.5"/>
<text text-anchor="middle" x="1799.5" y="-130.5" font-family="Helvetica,sans-Serif" font-size="10.00">functional</text>
</g>
<!-- Node32&#45;&gt;Node33 -->
<g id="edge50" class="edge"><title>Node32&#45;&gt;Node33</title>
<path fill="none" stroke="midnightblue" d="M1733.53,-184.975C1745.77,-175.52 1765.73,-160.096 1780.49,-148.687"/>
<polygon fill="midnightblue" stroke="midnightblue" points="1782.72,-151.393 1788.49,-142.509 1778.44,-145.854 1782.72,-151.393"/>
</g>
<!-- Node34 -->
<g id="node34" class="node"><title>Node34</title>
<g id="a_node34"><a xlink:href="CheckConfig_8h.html" target="_top" xlink:title="QualityControl/CheckConfig.h">
<polygon fill="none" stroke="black" points="1072,-123.5 1072,-142.5 1219,-142.5 1219,-123.5 1072,-123.5"/>
<text text-anchor="middle" x="1145.5" y="-130.5" font-family="Helvetica,sans-Serif" font-size="10.00">QualityControl/CheckConfig.h</text>
</a>
</g>
</g>
<!-- Node32&#45;&gt;Node34 -->
<g id="edge61" class="edge"><title>Node32&#45;&gt;Node34</title>
<path fill="none" stroke="midnightblue" d="M1686.12,-184.991C1675.64,-182.775 1664.16,-180.571 1653.5,-179 1468.15,-151.685 1420.03,-160.531 1233.5,-143 1232.21,-142.879 1230.91,-142.756 1229.6,-142.631"/>
<polygon fill="midnightblue" stroke="midnightblue" points="1229.72,-139.127 1219.43,-141.65 1229.05,-146.094 1229.72,-139.127"/>
</g>
<!-- Node34&#45;&gt;Node5 -->
<g id="edge62" class="edge"><title>Node34&#45;&gt;Node5</title>
<path fill="none" stroke="midnightblue" d="M1119.4,-123.413C1055.78,-102.478 892.935,-48.8909 824.991,-26.5332"/>
<polygon fill="midnightblue" stroke="midnightblue" points="825.897,-23.1468 815.304,-23.3456 823.708,-29.796 825.897,-23.1468"/>
</g>
<!-- Node34&#45;&gt;Node20 -->
<g id="edge63" class="edge"><title>Node34&#45;&gt;Node20</title>
<path fill="none" stroke="midnightblue" d="M1186.54,-123.444C1231.82,-114.004 1304.73,-98.802 1353.61,-88.6111"/>
<polygon fill="midnightblue" stroke="midnightblue" points="1354.58,-91.9839 1363.65,-86.5164 1353.15,-85.1312 1354.58,-91.9839"/>
</g>
<!-- Node35&#45;&gt;Node4 -->
<g id="edge67" class="edge"><title>Node35&#45;&gt;Node4</title>
<path fill="none" stroke="midnightblue" d="M1800.36,-180.113C1797.37,-179.705 1794.41,-179.331 1791.5,-179 1441.58,-139.193 1345,-199.819 993.643,-142.766"/>
<polygon fill="midnightblue" stroke="midnightblue" points="994.141,-139.3 983.705,-141.132 993.005,-146.208 994.141,-139.3"/>
</g>
<!-- Node35&#45;&gt;Node5 -->
<g id="edge65" class="edge"><title>Node35&#45;&gt;Node5</title>
<path fill="none" stroke="midnightblue" d="M1800.35,-180.219C1797.36,-179.782 1794.4,-179.373 1791.5,-179 1576.23,-151.369 1518.62,-178.425 1304.5,-143 1269.62,-137.229 1261.78,-131.667 1227.5,-123 1076.87,-84.9155 896.293,-41.089 825.302,-23.931"/>
<polygon fill="midnightblue" stroke="midnightblue" points="825.797,-20.4499 815.255,-21.5038 824.153,-27.2542 825.797,-20.4499"/>
</g>
<!-- Node35&#45;&gt;Node12 -->
<g id="edge66" class="edge"><title>Node35&#45;&gt;Node12</title>
<path fill="none" stroke="midnightblue" d="M1884.57,-179.289C1897.2,-164.734 1912.23,-141.661 1901.5,-123 1867.88,-64.5404 1788.47,-35.1752 1746.16,-23.2266"/>
<polygon fill="midnightblue" stroke="midnightblue" points="1746.82,-19.7795 1736.25,-20.5569 1745,-26.5384 1746.82,-19.7795"/>
</g>
<!-- Node35&#45;&gt;Node33 -->
<g id="edge68" class="edge"><title>Node35&#45;&gt;Node33</title>
<path fill="none" stroke="midnightblue" d="M1853.67,-179.399C1842.83,-170.308 1828.72,-158.49 1817.63,-149.191"/>
<polygon fill="midnightblue" stroke="midnightblue" points="1819.74,-146.398 1809.83,-142.658 1815.25,-151.763 1819.74,-146.398"/>
</g>
<!-- Node36 -->
<g id="node36" class="node"><title>Node36</title>
<polygon fill="none" stroke="#bfbfbf" points="1847,-123.5 1847,-142.5 1892,-142.5 1892,-123.5 1847,-123.5"/>
<text text-anchor="middle" x="1869.5" y="-130.5" font-family="Helvetica,sans-Serif" font-size="10.00">iosfwd</text>
</g>
<!-- Node35&#45;&gt;Node36 -->
<g id="edge69" class="edge"><title>Node35&#45;&gt;Node36</title>
<path fill="none" stroke="midnightblue" d="M1870.26,-179.399C1870.13,-171.466 1869.96,-161.458 1869.82,-152.858"/>
<polygon fill="midnightblue" stroke="midnightblue" points="1873.31,-152.598 1869.65,-142.658 1866.31,-152.715 1873.31,-152.598"/>
</g>
<!-- Node37&#45;&gt;Node5 -->
<g id="edge71" class="edge"><title>Node37&#45;&gt;Node5</title>
<path fill="none" stroke="midnightblue" d="M347.021,-68.0989C460.363,-55.0294 682.437,-29.422 763.737,-20.0473"/>
<polygon fill="midnightblue" stroke="midnightblue" points="764.281,-23.5079 773.814,-18.8853 763.479,-16.554 764.281,-23.5079"/>
</g>
<!-- Node37&#45;&gt;Node24 -->
<g id="edge73" class="edge"><title>Node37&#45;&gt;Node24</title>
<path fill="none" stroke="midnightblue" d="M347.006,-71.8868C528.479,-60.9912 1020.09,-31.4749 1201.26,-20.5973"/>
<polygon fill="midnightblue" stroke="midnightblue" points="1201.68,-24.0783 1211.45,-19.9852 1201.26,-17.0909 1201.68,-24.0783"/>
</g>
<!-- Node38 -->
<g id="node38" class="node"><title>Node38</title>
<polygon fill="none" stroke="#bfbfbf" points="211,-0.5 211,-30.5 346,-30.5 346,-0.5 211,-0.5"/>
<text text-anchor="start" x="219" y="-18.5" font-family="Helvetica,sans-Serif" font-size="10.00">Configuration/Configuration</text>
<text text-anchor="middle" x="278.5" y="-7.5" font-family="Helvetica,sans-Serif" font-size="10.00">Factory.h</text>
</g>
<!-- Node37&#45;&gt;Node38 -->
<g id="edge72" class="edge"><title>Node37&#45;&gt;Node38</title>
<path fill="none" stroke="midnightblue" d="M278.5,-67.4751C278.5,-60.471 278.5,-50.1919 278.5,-40.6956"/>
<polygon fill="midnightblue" stroke="midnightblue" points="282,-40.5229 278.5,-30.523 275,-40.523 282,-40.5229"/>
</g>
</g>
</svg>
