<?xml version="1.0" encoding="UTF-8" standalone="no"?>
<!DOCTYPE svg PUBLIC "-//W3C//DTD SVG 1.1//EN"
 "http://www.w3.org/Graphics/SVG/1.1/DTD/svg11.dtd">
<!-- Generated by graphviz version 2.38.0 (20140413.2041)
 -->
<!-- Title: Framework/include/QualityControl/testUtils.h Pages: 1 -->
<svg width="703pt" height="106pt"
 viewBox="0.00 0.00 703.00 106.00" xmlns="http://www.w3.org/2000/svg" xmlns:xlink="http://www.w3.org/1999/xlink">
<g id="graph0" class="graph" transform="scale(1 1) rotate(0) translate(4 102)">
<title>Framework/include/QualityControl/testUtils.h</title>
<!-- Node1 -->
<g id="node1" class="node"><title>Node1</title>
<polygon fill="#bfbfbf" stroke="black" points="309.5,-67.5 309.5,-97.5 442.5,-97.5 442.5,-67.5 309.5,-67.5"/>
<text text-anchor="start" x="317.5" y="-85.5" font-family="Helvetica,sans-Serif" font-size="10.00">Framework/include/Quality</text>
<text text-anchor="middle" x="376" y="-74.5" font-family="Helvetica,sans-Serif" font-size="10.00">Control/testUtils.h</text>
</g>
<!-- Node2 -->
<g id="node2" class="node"><title>Node2</title>
<g id="a_node2"><a xlink:href="testCcdbDatabase_8cxx.html" target="_top" xlink:title="Framework/test/testCcdbDatabase.cxx">
<polygon fill="none" stroke="black" points="0,-6 0,-25 188,-25 188,-6 0,-6"/>
<text text-anchor="middle" x="94" y="-13" font-family="Helvetica,sans-Serif" font-size="10.00">Framework/test/testCcdbDatabase.cxx</text>
</a>
</g>
</g>
<!-- Node1&#45;&gt;Node2 -->
<g id="edge1" class="edge"><title>Node1&#45;&gt;Node2</title>
<path fill="none" stroke="midnightblue" d="M305.405,-65.2282C250.035,-52.4656 175.18,-35.2116 131.001,-25.0287"/>
<polygon fill="midnightblue" stroke="midnightblue" points="304.627,-68.6404 315.157,-67.476 306.199,-61.8193 304.627,-68.6404"/>
</g>
<!-- Node3 -->
<g id="node3" class="node"><title>Node3</title>
<g id="a_node3"><a xlink:href="testDbFactory_8cxx.html" target="_top" xlink:title="Framework/test/testDbFactory.cxx">
<polygon fill="none" stroke="black" points="206.5,-6 206.5,-25 375.5,-25 375.5,-6 206.5,-6"/>
<text text-anchor="middle" x="291" y="-13" font-family="Helvetica,sans-Serif" font-size="10.00">Framework/test/testDbFactory.cxx</text>
</a>
</g>
</g>
<!-- Node1&#45;&gt;Node3 -->
<g id="edge2" class="edge"><title>Node1&#45;&gt;Node3</title>
<path fill="none" stroke="midnightblue" d="M349.203,-61.008C333.423,-48.9412 314.283,-34.3046 302.37,-25.1945"/>
<polygon fill="midnightblue" stroke="midnightblue" points="347.487,-64.1017 357.556,-67.396 351.739,-58.5412 347.487,-64.1017"/>
</g>
<!-- Node4 -->
<g id="node4" class="node"><title>Node4</title>
<g id="a_node4"><a xlink:href="testQualityObject_8cxx.html" target="_top" xlink:title="Framework/test/testQuality\lObject.cxx">
<polygon fill="none" stroke="black" points="393.5,-0.5 393.5,-30.5 528.5,-30.5 528.5,-0.5 393.5,-0.5"/>
<text text-anchor="start" x="401.5" y="-18.5" font-family="Helvetica,sans-Serif" font-size="10.00">Framework/test/testQuality</text>
<text text-anchor="middle" x="461" y="-7.5" font-family="Helvetica,sans-Serif" font-size="10.00">Object.cxx</text>
</a>
</g>
</g>
<!-- Node1&#45;&gt;Node4 -->
<g id="edge3" class="edge"><title>Node1&#45;&gt;Node4</title>
<path fill="none" stroke="midnightblue" d="M402.588,-61.1677C415.586,-51.2283 430.904,-39.5144 442.592,-30.5765"/>
<polygon fill="midnightblue" stroke="midnightblue" points="400.261,-58.5412 394.444,-67.396 404.513,-64.1017 400.261,-58.5412"/>
</g>
<!-- Node5 -->
<g id="node5" class="node"><title>Node5</title>
<g id="a_node5"><a xlink:href="testRepoPathUtils_8cxx.html" target="_top" xlink:title="Framework/test/testRepoPath\lUtils.cxx">
<polygon fill="none" stroke="black" points="547,-0.5 547,-30.5 695,-30.5 695,-0.5 547,-0.5"/>
<text text-anchor="start" x="555" y="-18.5" font-family="Helvetica,sans-Serif" font-size="10.00">Framework/test/testRepoPath</text>
<text text-anchor="middle" x="621" y="-7.5" font-family="Helvetica,sans-Serif" font-size="10.00">Utils.cxx</text>
</a>
</g>
</g>
<!-- Node1&#45;&gt;Node5 -->
<g id="edge4" class="edge"><title>Node1&#45;&gt;Node5</title>
<path fill="none" stroke="midnightblue" d="M438.758,-64.8498C478.703,-54.2523 529.87,-40.6775 567.813,-30.6109"/>
<polygon fill="midnightblue" stroke="midnightblue" points="437.628,-61.5286 428.86,-67.476 439.423,-68.2945 437.628,-61.5286"/>
</g>
</g>
</svg>
