<?xml version="1.0" encoding="UTF-8" standalone="no"?>
<!DOCTYPE svg PUBLIC "-//W3C//DTD SVG 1.1//EN"
 "http://www.w3.org/Graphics/SVG/1.1/DTD/svg11.dtd">
<!-- Generated by graphviz version 2.38.0 (20140413.2041)
 -->
<!-- Title: Framework/test/testQcInfoLogger.cxx Pages: 1 -->
<svg width="626pt" height="151pt"
 viewBox="0.00 0.00 626.00 151.00" xmlns="http://www.w3.org/2000/svg" xmlns:xlink="http://www.w3.org/1999/xlink">
<g id="graph0" class="graph" transform="scale(1 1) rotate(0) translate(4 147)">
<title>Framework/test/testQcInfoLogger.cxx</title>
<!-- Node1 -->
<g id="node1" class="node"><title>Node1</title>
<polygon fill="#bfbfbf" stroke="black" points="288,-112.5 288,-142.5 422,-142.5 422,-112.5 288,-112.5"/>
<text text-anchor="start" x="296" y="-130.5" font-family="Helvetica,sans-Serif" font-size="10.00">Framework/test/testQcInfo</text>
<text text-anchor="middle" x="355" y="-119.5" font-family="Helvetica,sans-Serif" font-size="10.00">Logger.cxx</text>
</g>
<!-- Node2 -->
<g id="node2" class="node"><title>Node2</title>
<g id="a_node2"><a xlink:href="QcInfoLogger_8h.html" target="_top" xlink:title="QualityControl/QcInfoLogger.h">
<polygon fill="none" stroke="black" points="72.5,-56.5 72.5,-75.5 221.5,-75.5 221.5,-56.5 72.5,-56.5"/>
<text text-anchor="middle" x="147" y="-63.5" font-family="Helvetica,sans-Serif" font-size="10.00">QualityControl/QcInfoLogger.h</text>
</a>
</g>
</g>
<!-- Node1&#45;&gt;Node2 -->
<g id="edge1" class="edge"><title>Node1&#45;&gt;Node2</title>
<path fill="none" stroke="midnightblue" d="M305.97,-112.475C269.616,-102.075 220.686,-88.0783 186.755,-78.3722"/>
<polygon fill="midnightblue" stroke="midnightblue" points="187.314,-74.8917 176.737,-75.5064 185.388,-81.6217 187.314,-74.8917"/>
</g>
<!-- Node5 -->
<g id="node5" class="node"><title>Node5</title>
<polygon fill="none" stroke="#bfbfbf" points="239.5,-56.5 239.5,-75.5 358.5,-75.5 358.5,-56.5 239.5,-56.5"/>
<text text-anchor="middle" x="299" y="-63.5" font-family="Helvetica,sans-Serif" font-size="10.00">boost/test/unit_test.hpp</text>
</g>
<!-- Node1&#45;&gt;Node5 -->
<g id="edge4" class="edge"><title>Node1&#45;&gt;Node5</title>
<path fill="none" stroke="midnightblue" d="M341.729,-112.399C333.424,-103.575 322.701,-92.1827 314.076,-83.0178"/>
<polygon fill="midnightblue" stroke="midnightblue" points="316.551,-80.541 307.148,-75.6578 311.453,-85.3386 316.551,-80.541"/>
</g>
<!-- Node6 -->
<g id="node6" class="node"><title>Node6</title>
<polygon fill="none" stroke="#bfbfbf" points="376.5,-56.5 376.5,-75.5 447.5,-75.5 447.5,-56.5 376.5,-56.5"/>
<text text-anchor="middle" x="412" y="-63.5" font-family="Helvetica,sans-Serif" font-size="10.00">FairLogger.h</text>
</g>
<!-- Node1&#45;&gt;Node6 -->
<g id="edge5" class="edge"><title>Node1&#45;&gt;Node6</title>
<path fill="none" stroke="midnightblue" d="M368.508,-112.399C376.962,-103.575 387.875,-92.1827 396.655,-83.0178"/>
<polygon fill="midnightblue" stroke="midnightblue" points="399.316,-85.3002 403.706,-75.6578 394.261,-80.4577 399.316,-85.3002"/>
</g>
<!-- Node7 -->
<g id="node7" class="node"><title>Node7</title>
<polygon fill="none" stroke="#bfbfbf" points="466,-56.5 466,-75.5 618,-75.5 618,-56.5 466,-56.5"/>
<text text-anchor="middle" x="542" y="-63.5" font-family="Helvetica,sans-Serif" font-size="10.00">InfoLogger/InfoLoggerFMQ.hxx</text>
</g>
<!-- Node1&#45;&gt;Node7 -->
<g id="edge6" class="edge"><title>Node1&#45;&gt;Node7</title>
<path fill="none" stroke="midnightblue" d="M399.316,-112.399C431.629,-102.118 474.898,-88.3506 505.286,-78.6818"/>
<polygon fill="midnightblue" stroke="midnightblue" points="506.595,-81.9383 515.063,-75.5709 504.472,-75.2678 506.595,-81.9383"/>
</g>
<!-- Node3 -->
<g id="node3" class="node"><title>Node3</title>
<polygon fill="none" stroke="#bfbfbf" points="0,-0.5 0,-19.5 130,-19.5 130,-0.5 0,-0.5"/>
<text text-anchor="middle" x="65" y="-7.5" font-family="Helvetica,sans-Serif" font-size="10.00">InfoLogger/InfoLogger.hxx</text>
</g>
<!-- Node2&#45;&gt;Node3 -->
<g id="edge2" class="edge"><title>Node2&#45;&gt;Node3</title>
<path fill="none" stroke="midnightblue" d="M133.825,-56.324C121.153,-47.979 101.767,-35.2122 86.7944,-25.3524"/>
<polygon fill="midnightblue" stroke="midnightblue" points="88.4187,-22.2313 78.142,-19.6545 84.5688,-28.0776 88.4187,-22.2313"/>
</g>
<!-- Node4 -->
<g id="node4" class="node"><title>Node4</title>
<polygon fill="none" stroke="#bfbfbf" points="148,-0.5 148,-19.5 310,-19.5 310,-0.5 148,-0.5"/>
<text text-anchor="middle" x="229" y="-7.5" font-family="Helvetica,sans-Serif" font-size="10.00">InfoLogger/InfoLoggerMacros.hxx</text>
</g>
<!-- Node2&#45;&gt;Node4 -->
<g id="edge3" class="edge"><title>Node2&#45;&gt;Node4</title>
<path fill="none" stroke="midnightblue" d="M160.175,-56.324C172.847,-47.979 192.233,-35.2122 207.206,-25.3524"/>
<polygon fill="midnightblue" stroke="midnightblue" points="209.431,-28.0776 215.858,-19.6545 205.581,-22.2313 209.431,-28.0776"/>
</g>
</g>
</svg>
