<?xml version="1.0" encoding="UTF-8" standalone="no"?>
<!DOCTYPE svg PUBLIC "-//W3C//DTD SVG 1.1//EN"
 "http://www.w3.org/Graphics/SVG/1.1/DTD/svg11.dtd">
<!-- Generated by graphviz version 2.38.0 (20140413.2041)
 -->
<!-- Title: Framework/test/testCheck.cxx Pages: 1 -->
<svg width="1810pt" height="319pt"
 viewBox="0.00 0.00 1810.48 319.00" xmlns="http://www.w3.org/2000/svg" xmlns:xlink="http://www.w3.org/1999/xlink">
<g id="graph0" class="graph" transform="scale(1 1) rotate(0) translate(4 315)">
<title>Framework/test/testCheck.cxx</title>
<!-- Node1 -->
<g id="node1" class="node"><title>Node1</title>
<polygon fill="#bfbfbf" stroke="black" points="1291.98,-291.5 1291.98,-310.5 1443.98,-310.5 1443.98,-291.5 1291.98,-291.5"/>
<text text-anchor="middle" x="1367.98" y="-298.5" font-family="Helvetica,sans-Serif" font-size="10.00">Framework/test/testCheck.cxx</text>
</g>
<!-- Node2 -->
<g id="node2" class="node"><title>Node2</title>
<g id="a_node2"><a xlink:href="CheckRunnerFactory_8h.html" target="_top" xlink:title="QualityControl/CheckRunner\lFactory.h">
<polygon fill="none" stroke="black" points="331.981,-224.5 331.981,-254.5 473.981,-254.5 473.981,-224.5 331.981,-224.5"/>
<text text-anchor="start" x="339.981" y="-242.5" font-family="Helvetica,sans-Serif" font-size="10.00">QualityControl/CheckRunner</text>
<text text-anchor="middle" x="402.981" y="-231.5" font-family="Helvetica,sans-Serif" font-size="10.00">Factory.h</text>
</a>
</g>
</g>
<!-- Node1&#45;&gt;Node2 -->
<g id="edge1" class="edge"><title>Node1&#45;&gt;Node2</title>
<path fill="none" stroke="midnightblue" d="M1291.86,-295.306C1113.1,-284.284 667.777,-256.827 484.134,-245.504"/>
<polygon fill="midnightblue" stroke="midnightblue" points="484.199,-242.001 474.002,-244.879 483.768,-248.988 484.199,-242.001"/>
</g>
<!-- Node16 -->
<g id="node16" class="node"><title>Node16</title>
<polygon fill="none" stroke="#bfbfbf" points="1131.98,-0.5 1131.98,-19.5 1247.98,-19.5 1247.98,-0.5 1131.98,-0.5"/>
<text text-anchor="middle" x="1189.98" y="-7.5" font-family="Helvetica,sans-Serif" font-size="10.00">Common/Exceptions.h</text>
</g>
<!-- Node1&#45;&gt;Node16 -->
<g id="edge40" class="edge"><title>Node1&#45;&gt;Node16</title>
<path fill="none" stroke="midnightblue" d="M1347.46,-291.367C1332.17,-283.906 1311.94,-271.685 1299.98,-255 1279.64,-226.609 1279.98,-213.928 1279.98,-179 1279.98,-179 1279.98,-179 1279.98,-121 1279.98,-78.6577 1239.54,-43.6551 1212.88,-25.1778"/>
<polygon fill="midnightblue" stroke="midnightblue" points="1214.7,-22.1893 1204.44,-19.5584 1210.82,-28.0152 1214.7,-22.1893"/>
</g>
<!-- Node17 -->
<g id="node17" class="node"><title>Node17</title>
<g id="a_node17"><a xlink:href="MonitorObject_8h.html" target="_top" xlink:title="QualityControl/MonitorObject.h">
<polygon fill="none" stroke="black" points="568.481,-56.5 568.481,-75.5 719.481,-75.5 719.481,-56.5 568.481,-56.5"/>
<text text-anchor="middle" x="643.981" y="-63.5" font-family="Helvetica,sans-Serif" font-size="10.00">QualityControl/MonitorObject.h</text>
</a>
</g>
</g>
<!-- Node1&#45;&gt;Node17 -->
<g id="edge37" class="edge"><title>Node1&#45;&gt;Node17</title>
<path fill="none" stroke="midnightblue" d="M1338.54,-291.427C1262.7,-268.97 1055.07,-205.085 889.981,-132 872.888,-124.433 870.517,-118.477 852.981,-112 808.594,-95.6051 756.583,-84.3793 715.55,-77.2402"/>
<polygon fill="midnightblue" stroke="midnightblue" points="716.08,-73.7801 705.635,-75.5571 714.908,-80.6814 716.08,-73.7801"/>
</g>
<!-- Node23 -->
<g id="node23" class="node"><title>Node23</title>
<polygon fill="none" stroke="#bfbfbf" points="1308.48,-230 1308.48,-249 1427.48,-249 1427.48,-230 1308.48,-230"/>
<text text-anchor="middle" x="1367.98" y="-237" font-family="Helvetica,sans-Serif" font-size="10.00">getTestDataDirectory.h</text>
</g>
<!-- Node1&#45;&gt;Node23 -->
<g id="edge38" class="edge"><title>Node1&#45;&gt;Node23</title>
<path fill="none" stroke="midnightblue" d="M1367.98,-291.475C1367.98,-283.08 1367.98,-269.981 1367.98,-259.163"/>
<polygon fill="midnightblue" stroke="midnightblue" points="1371.48,-259.009 1367.98,-249.009 1364.48,-259.009 1371.48,-259.009"/>
</g>
<!-- Node24 -->
<g id="node24" class="node"><title>Node24</title>
<polygon fill="none" stroke="#bfbfbf" points="1445.48,-230 1445.48,-249 1596.48,-249 1596.48,-230 1445.48,-230"/>
<text text-anchor="middle" x="1520.98" y="-237" font-family="Helvetica,sans-Serif" font-size="10.00">DataSampling/DataSampling.h</text>
</g>
<!-- Node1&#45;&gt;Node24 -->
<g id="edge39" class="edge"><title>Node1&#45;&gt;Node24</title>
<path fill="none" stroke="midnightblue" d="M1389.9,-291.475C1416.03,-281.313 1459.89,-264.256 1489.61,-252.7"/>
<polygon fill="midnightblue" stroke="midnightblue" points="1491.05,-255.896 1499.1,-249.009 1488.51,-249.372 1491.05,-255.896"/>
</g>
<!-- Node25 -->
<g id="node25" class="node"><title>Node25</title>
<polygon fill="none" stroke="#bfbfbf" points="1614.98,-230 1614.98,-249 1664.98,-249 1664.98,-230 1614.98,-230"/>
<text text-anchor="middle" x="1639.98" y="-237" font-family="Helvetica,sans-Serif" font-size="10.00">TH1F.h</text>
</g>
<!-- Node1&#45;&gt;Node25 -->
<g id="edge41" class="edge"><title>Node1&#45;&gt;Node25</title>
<path fill="none" stroke="midnightblue" d="M1433.8,-291.467C1482.11,-284.265 1548.95,-272.33 1605.98,-255 1608.13,-254.348 1610.32,-253.604 1612.51,-252.805"/>
<polygon fill="midnightblue" stroke="midnightblue" points="1613.9,-256.017 1621.9,-249.068 1611.31,-249.513 1613.9,-256.017"/>
</g>
<!-- Node26 -->
<g id="node26" class="node"><title>Node26</title>
<polygon fill="none" stroke="#bfbfbf" points="1683.48,-230 1683.48,-249 1802.48,-249 1802.48,-230 1683.48,-230"/>
<text text-anchor="middle" x="1742.98" y="-237" font-family="Helvetica,sans-Serif" font-size="10.00">boost/test/unit_test.hpp</text>
</g>
<!-- Node1&#45;&gt;Node26 -->
<g id="edge42" class="edge"><title>Node1&#45;&gt;Node26</title>
<path fill="none" stroke="midnightblue" d="M1434.13,-291.461C1496.23,-283.162 1591.65,-269.69 1673.98,-255 1680.62,-253.815 1687.6,-252.469 1694.46,-251.086"/>
<polygon fill="midnightblue" stroke="midnightblue" points="1695.29,-254.488 1704.38,-249.046 1693.88,-247.632 1695.29,-254.488"/>
</g>
<!-- Node3 -->
<g id="node3" class="node"><title>Node3</title>
<polygon fill="none" stroke="#bfbfbf" points="374.481,-0.5 374.481,-19.5 415.481,-19.5 415.481,-0.5 374.481,-0.5"/>
<text text-anchor="middle" x="394.981" y="-7.5" font-family="Helvetica,sans-Serif" font-size="10.00">string</text>
</g>
<!-- Node2&#45;&gt;Node3 -->
<g id="edge2" class="edge"><title>Node2&#45;&gt;Node3</title>
<path fill="none" stroke="midnightblue" d="M331.949,-229.832C228.55,-215.591 44.5604,-183.562 4.98142,-132 -41.3524,-71.6376 264.281,-27.423 364.156,-14.7219"/>
<polygon fill="midnightblue" stroke="midnightblue" points="364.74,-18.1762 374.227,-13.4598 363.869,-11.2306 364.74,-18.1762"/>
</g>
<!-- Node4 -->
<g id="node4" class="node"><title>Node4</title>
<polygon fill="none" stroke="#bfbfbf" points="13.9814,-112.5 13.9814,-131.5 177.981,-131.5 177.981,-112.5 13.9814,-112.5"/>
<text text-anchor="middle" x="95.9814" y="-119.5" font-family="Helvetica,sans-Serif" font-size="10.00">Framework/DataProcessorSpec.h</text>
</g>
<!-- Node2&#45;&gt;Node4 -->
<g id="edge3" class="edge"><title>Node2&#45;&gt;Node4</title>
<path fill="none" stroke="midnightblue" d="M365.644,-224.453C304.894,-201.597 185.683,-156.748 128.324,-135.168"/>
<polygon fill="midnightblue" stroke="midnightblue" points="129.279,-131.788 118.687,-131.542 126.814,-138.339 129.279,-131.788"/>
</g>
<!-- Node5 -->
<g id="node5" class="node"><title>Node5</title>
<polygon fill="none" stroke="#bfbfbf" points="326.481,-168.5 326.481,-187.5 479.481,-187.5 479.481,-168.5 326.481,-168.5"/>
<text text-anchor="middle" x="402.981" y="-175.5" font-family="Helvetica,sans-Serif" font-size="10.00">Framework/CompletionPolicy.h</text>
</g>
<!-- Node2&#45;&gt;Node5 -->
<g id="edge4" class="edge"><title>Node2&#45;&gt;Node5</title>
<path fill="none" stroke="midnightblue" d="M402.981,-224.399C402.981,-216.466 402.981,-206.458 402.981,-197.858"/>
<polygon fill="midnightblue" stroke="midnightblue" points="406.482,-197.658 402.981,-187.658 399.482,-197.658 406.482,-197.658"/>
</g>
<!-- Node6 -->
<g id="node6" class="node"><title>Node6</title>
<g id="a_node6"><a xlink:href="Check_8h_source.html" target="_top" xlink:title="QualityControl/Check.h">
<polygon fill="none" stroke="black" points="564.481,-168.5 564.481,-187.5 683.481,-187.5 683.481,-168.5 564.481,-168.5"/>
<text text-anchor="middle" x="623.981" y="-175.5" font-family="Helvetica,sans-Serif" font-size="10.00">QualityControl/Check.h</text>
</a>
</g>
</g>
<!-- Node2&#45;&gt;Node6 -->
<g id="edge5" class="edge"><title>Node2&#45;&gt;Node6</title>
<path fill="none" stroke="midnightblue" d="M455.075,-224.475C494.035,-213.986 546.588,-199.837 582.671,-190.122"/>
<polygon fill="midnightblue" stroke="midnightblue" points="583.64,-193.486 592.386,-187.506 581.82,-186.727 583.64,-193.486"/>
</g>
<!-- Node6&#45;&gt;Node4 -->
<g id="edge11" class="edge"><title>Node6&#45;&gt;Node4</title>
<path fill="none" stroke="midnightblue" d="M564.439,-170.91C472.864,-161.545 296.72,-143.53 188.451,-132.457"/>
<polygon fill="midnightblue" stroke="midnightblue" points="188.495,-128.943 178.19,-131.408 187.782,-135.907 188.495,-128.943"/>
</g>
<!-- Node7 -->
<g id="node7" class="node"><title>Node7</title>
<polygon fill="none" stroke="#bfbfbf" points="652.481,-112.5 652.481,-131.5 711.481,-131.5 711.481,-112.5 652.481,-112.5"/>
<text text-anchor="middle" x="681.981" y="-119.5" font-family="Helvetica,sans-Serif" font-size="10.00">functional</text>
</g>
<!-- Node6&#45;&gt;Node7 -->
<g id="edge6" class="edge"><title>Node6&#45;&gt;Node7</title>
<path fill="none" stroke="midnightblue" d="M633.3,-168.324C641.874,-160.341 654.794,-148.313 665.169,-138.653"/>
<polygon fill="midnightblue" stroke="midnightblue" points="667.559,-141.21 672.493,-131.834 662.789,-136.086 667.559,-141.21"/>
</g>
<!-- Node8 -->
<g id="node8" class="node"><title>Node8</title>
<polygon fill="none" stroke="#bfbfbf" points="720.481,-0.5 720.481,-19.5 755.481,-19.5 755.481,-0.5 720.481,-0.5"/>
<text text-anchor="middle" x="737.981" y="-7.5" font-family="Helvetica,sans-Serif" font-size="10.00">map</text>
</g>
<!-- Node6&#45;&gt;Node8 -->
<g id="edge7" class="edge"><title>Node6&#45;&gt;Node8</title>
<path fill="none" stroke="midnightblue" d="M683.553,-175.151C796.43,-171.03 1032.44,-159.226 1056.98,-132 1079.6,-106.911 1079.14,-81.4981 1056.98,-56 1037.93,-34.0684 839.656,-18.0936 765.642,-12.8538"/>
<polygon fill="midnightblue" stroke="midnightblue" points="765.878,-9.36189 755.66,-12.1592 765.392,-16.345 765.878,-9.36189"/>
</g>
<!-- Node9 -->
<g id="node9" class="node"><title>Node9</title>
<polygon fill="none" stroke="#bfbfbf" points="729.981,-112.5 729.981,-131.5 773.981,-131.5 773.981,-112.5 729.981,-112.5"/>
<text text-anchor="middle" x="751.981" y="-119.5" font-family="Helvetica,sans-Serif" font-size="10.00">vector</text>
</g>
<!-- Node6&#45;&gt;Node9 -->
<g id="edge8" class="edge"><title>Node6&#45;&gt;Node9</title>
<path fill="none" stroke="midnightblue" d="M644.263,-168.444C665.329,-159.557 698.498,-145.563 722.467,-135.451"/>
<polygon fill="midnightblue" stroke="midnightblue" points="723.941,-138.628 731.794,-131.516 721.22,-132.179 723.941,-138.628"/>
</g>
<!-- Node10 -->
<g id="node10" class="node"><title>Node10</title>
<polygon fill="none" stroke="#bfbfbf" points="791.981,-112.5 791.981,-131.5 843.981,-131.5 843.981,-112.5 791.981,-112.5"/>
<text text-anchor="middle" x="817.981" y="-119.5" font-family="Helvetica,sans-Serif" font-size="10.00">memory</text>
</g>
<!-- Node6&#45;&gt;Node10 -->
<g id="edge9" class="edge"><title>Node6&#45;&gt;Node10</title>
<path fill="none" stroke="midnightblue" d="M654.721,-168.444C689.293,-158.821 745.374,-143.21 781.97,-133.024"/>
<polygon fill="midnightblue" stroke="midnightblue" points="783.045,-136.358 791.741,-130.304 781.168,-129.614 783.045,-136.358"/>
</g>
<!-- Node11 -->
<g id="node11" class="node"><title>Node11</title>
<polygon fill="none" stroke="#bfbfbf" points="328.481,-56.5 328.481,-75.5 411.481,-75.5 411.481,-56.5 328.481,-56.5"/>
<text text-anchor="middle" x="369.981" y="-63.5" font-family="Helvetica,sans-Serif" font-size="10.00">unordered_map</text>
</g>
<!-- Node6&#45;&gt;Node11 -->
<g id="edge10" class="edge"><title>Node6&#45;&gt;Node11</title>
<path fill="none" stroke="midnightblue" d="M564.422,-174.377C521.67,-170.09 464.209,-159.212 420.981,-132 402.46,-120.341 387.9,-99.49 379.159,-84.5456"/>
<polygon fill="midnightblue" stroke="midnightblue" points="382.182,-82.7813 374.271,-75.734 376.061,-86.1766 382.182,-82.7813"/>
</g>
<!-- Node12 -->
<g id="node12" class="node"><title>Node12</title>
<g id="a_node12"><a xlink:href="Quality_8h.html" target="_top" xlink:title="QualityControl/Quality.h">
<polygon fill="none" stroke="black" points="429.481,-56.5 429.481,-75.5 550.481,-75.5 550.481,-56.5 429.481,-56.5"/>
<text text-anchor="middle" x="489.981" y="-63.5" font-family="Helvetica,sans-Serif" font-size="10.00">QualityControl/Quality.h</text>
</a>
</g>
</g>
<!-- Node6&#45;&gt;Node12 -->
<g id="edge12" class="edge"><title>Node6&#45;&gt;Node12</title>
<path fill="none" stroke="midnightblue" d="M564.207,-171.293C513.256,-165.046 445.691,-153.004 428.981,-132 413.993,-113.159 439.747,-93.214 462.261,-80.4639"/>
<polygon fill="midnightblue" stroke="midnightblue" points="464.115,-83.4412 471.268,-75.6253 460.802,-77.2748 464.115,-83.4412"/>
</g>
<!-- Node14 -->
<g id="node14" class="node"><title>Node14</title>
<g id="a_node14"><a xlink:href="QualityObject_8h_source.html" target="_top" xlink:title="QualityControl/QualityObject.h">
<polygon fill="none" stroke="black" points="1103.48,-112.5 1103.48,-131.5 1252.48,-131.5 1252.48,-112.5 1103.48,-112.5"/>
<text text-anchor="middle" x="1177.98" y="-119.5" font-family="Helvetica,sans-Serif" font-size="10.00">QualityControl/QualityObject.h</text>
</a>
</g>
</g>
<!-- Node6&#45;&gt;Node14 -->
<g id="edge16" class="edge"><title>Node6&#45;&gt;Node14</title>
<path fill="none" stroke="midnightblue" d="M683.576,-171.354C772.206,-162.932 943.992,-146.514 1089.98,-132 1090.92,-131.907 1091.86,-131.813 1092.81,-131.719"/>
<polygon fill="midnightblue" stroke="midnightblue" points="1093.49,-135.168 1103.09,-130.688 1092.79,-128.203 1093.49,-135.168"/>
</g>
<!-- Node6&#45;&gt;Node17 -->
<g id="edge21" class="edge"><title>Node6&#45;&gt;Node17</title>
<path fill="none" stroke="midnightblue" d="M625.551,-168.368C628.778,-150.617 636.224,-109.666 640.6,-85.5974"/>
<polygon fill="midnightblue" stroke="midnightblue" points="644.074,-86.0562 642.419,-75.5914 637.187,-84.804 644.074,-86.0562"/>
</g>
<!-- Node18 -->
<g id="node18" class="node"><title>Node18</title>
<g id="a_node18"><a xlink:href="CheckInterface_8h.html" target="_top" xlink:title="QualityControl/CheckInterface.h">
<polygon fill="none" stroke="black" points="438.481,-112.5 438.481,-131.5 595.481,-131.5 595.481,-112.5 438.481,-112.5"/>
<text text-anchor="middle" x="516.981" y="-119.5" font-family="Helvetica,sans-Serif" font-size="10.00">QualityControl/CheckInterface.h</text>
</a>
</g>
</g>
<!-- Node6&#45;&gt;Node18 -->
<g id="edge27" class="edge"><title>Node6&#45;&gt;Node18</title>
<path fill="none" stroke="midnightblue" d="M606.79,-168.324C589.631,-159.664 563.036,-146.242 543.234,-136.249"/>
<polygon fill="midnightblue" stroke="midnightblue" points="544.635,-133.035 534.13,-131.655 541.481,-139.285 544.635,-133.035"/>
</g>
<!-- Node19 -->
<g id="node19" class="node"><title>Node19</title>
<g id="a_node19"><a xlink:href="QcInfoLogger_8h.html" target="_top" xlink:title="QualityControl/QcInfoLogger.h">
<polygon fill="none" stroke="black" points="899.481,-112.5 899.481,-131.5 1048.48,-131.5 1048.48,-112.5 899.481,-112.5"/>
<text text-anchor="middle" x="973.981" y="-119.5" font-family="Helvetica,sans-Serif" font-size="10.00">QualityControl/QcInfoLogger.h</text>
</a>
</g>
</g>
<!-- Node6&#45;&gt;Node19 -->
<g id="edge31" class="edge"><title>Node6&#45;&gt;Node19</title>
<path fill="none" stroke="midnightblue" d="M679.44,-168.444C741.649,-158.846 842.462,-143.292 908.494,-133.104"/>
<polygon fill="midnightblue" stroke="midnightblue" points="909.433,-136.5 918.782,-131.516 908.366,-129.582 909.433,-136.5"/>
</g>
<!-- Node22 -->
<g id="node22" class="node"><title>Node22</title>
<g id="a_node22"><a xlink:href="CheckConfig_8h.html" target="_top" xlink:title="QualityControl/CheckConfig.h">
<polygon fill="none" stroke="black" points="196.481,-112.5 196.481,-131.5 343.481,-131.5 343.481,-112.5 196.481,-112.5"/>
<text text-anchor="middle" x="269.981" y="-119.5" font-family="Helvetica,sans-Serif" font-size="10.00">QualityControl/CheckConfig.h</text>
</a>
</g>
</g>
<!-- Node6&#45;&gt;Node22 -->
<g id="edge34" class="edge"><title>Node6&#45;&gt;Node22</title>
<path fill="none" stroke="midnightblue" d="M567.889,-168.444C504.84,-158.826 402.584,-143.228 335.805,-133.041"/>
<polygon fill="midnightblue" stroke="midnightblue" points="336.225,-129.565 325.811,-131.516 335.169,-136.484 336.225,-129.565"/>
</g>
<!-- Node12&#45;&gt;Node3 -->
<g id="edge14" class="edge"><title>Node12&#45;&gt;Node3</title>
<path fill="none" stroke="midnightblue" d="M474.718,-56.324C459.76,-47.8215 436.727,-34.7288 419.255,-24.7975"/>
<polygon fill="midnightblue" stroke="midnightblue" points="420.63,-21.5534 410.207,-19.6545 417.171,-27.639 420.63,-21.5534"/>
</g>
<!-- Node12&#45;&gt;Node8 -->
<g id="edge15" class="edge"><title>Node12&#45;&gt;Node8</title>
<path fill="none" stroke="midnightblue" d="M529.278,-56.4435C579.749,-45.4539 666.081,-26.6556 710.219,-17.0449"/>
<polygon fill="midnightblue" stroke="midnightblue" points="711.207,-20.4121 720.233,-14.8646 709.717,-13.5724 711.207,-20.4121"/>
</g>
<!-- Node13 -->
<g id="node13" class="node"><title>Node13</title>
<polygon fill="none" stroke="#bfbfbf" points="538.981,-0.5 538.981,-19.5 594.981,-19.5 594.981,-0.5 538.981,-0.5"/>
<text text-anchor="middle" x="566.981" y="-7.5" font-family="Helvetica,sans-Serif" font-size="10.00">Rtypes.h</text>
</g>
<!-- Node12&#45;&gt;Node13 -->
<g id="edge13" class="edge"><title>Node12&#45;&gt;Node13</title>
<path fill="none" stroke="midnightblue" d="M502.353,-56.324C514.14,-48.0577 532.114,-35.4527 546.117,-25.6322"/>
<polygon fill="midnightblue" stroke="midnightblue" points="548.463,-28.2619 554.641,-19.6545 544.444,-22.5307 548.463,-28.2619"/>
</g>
<!-- Node14&#45;&gt;Node8 -->
<g id="edge17" class="edge"><title>Node14&#45;&gt;Node8</title>
<path fill="none" stroke="midnightblue" d="M1169.67,-112.493C1155.05,-98.1206 1123.12,-69.3001 1089.98,-56 1060.02,-43.9733 843.075,-21.4668 765.484,-13.7096"/>
<polygon fill="midnightblue" stroke="midnightblue" points="765.792,-10.223 755.494,-12.7155 765.099,-17.1886 765.792,-10.223"/>
</g>
<!-- Node14&#45;&gt;Node12 -->
<g id="edge20" class="edge"><title>Node14&#45;&gt;Node12</title>
<path fill="none" stroke="midnightblue" d="M1103.43,-115.431C1088.07,-114.29 1072,-113.102 1056.98,-112 838.907,-96.0076 781.436,-98.2883 560.503,-76.105"/>
<polygon fill="midnightblue" stroke="midnightblue" points="560.842,-72.6215 550.541,-75.0993 560.139,-79.5861 560.842,-72.6215"/>
</g>
<!-- Node15 -->
<g id="node15" class="node"><title>Node15</title>
<polygon fill="none" stroke="#bfbfbf" points="867.481,-0.5 867.481,-19.5 926.481,-19.5 926.481,-0.5 867.481,-0.5"/>
<text text-anchor="middle" x="896.981" y="-7.5" font-family="Helvetica,sans-Serif" font-size="10.00">TObject.h</text>
</g>
<!-- Node14&#45;&gt;Node15 -->
<g id="edge18" class="edge"><title>Node14&#45;&gt;Node15</title>
<path fill="none" stroke="midnightblue" d="M1173.86,-112.202C1166.69,-97.9288 1150.51,-69.9259 1127.98,-56 1068.57,-19.2677 985.493,-11.527 936.853,-10.4377"/>
<polygon fill="midnightblue" stroke="midnightblue" points="936.773,-6.93636 926.725,-10.2965 936.675,-13.9357 936.773,-6.93636"/>
</g>
<!-- Node14&#45;&gt;Node16 -->
<g id="edge19" class="edge"><title>Node14&#45;&gt;Node16</title>
<path fill="none" stroke="midnightblue" d="M1178.92,-112.368C1180.86,-94.617 1185.33,-53.6664 1187.95,-29.5974"/>
<polygon fill="midnightblue" stroke="midnightblue" points="1191.44,-29.912 1189.04,-19.5914 1184.48,-29.1528 1191.44,-29.912"/>
</g>
<!-- Node17&#45;&gt;Node3 -->
<g id="edge22" class="edge"><title>Node17&#45;&gt;Node3</title>
<path fill="none" stroke="midnightblue" d="M604.527,-56.4435C554.888,-45.6785 470.699,-27.4206 425.624,-17.6454"/>
<polygon fill="midnightblue" stroke="midnightblue" points="426.09,-14.1652 415.576,-15.4662 424.607,-21.0062 426.09,-14.1652"/>
</g>
<!-- Node17&#45;&gt;Node8 -->
<g id="edge23" class="edge"><title>Node17&#45;&gt;Node8</title>
<path fill="none" stroke="midnightblue" d="M659.084,-56.324C673.885,-47.8215 696.676,-34.7288 713.964,-24.7975"/>
<polygon fill="midnightblue" stroke="midnightblue" points="715.989,-27.6707 722.916,-19.6545 712.502,-21.6009 715.989,-27.6707"/>
</g>
<!-- Node17&#45;&gt;Node13 -->
<g id="edge24" class="edge"><title>Node17&#45;&gt;Node13</title>
<path fill="none" stroke="midnightblue" d="M631.61,-56.324C619.823,-48.0577 601.849,-35.4527 587.846,-25.6322"/>
<polygon fill="midnightblue" stroke="midnightblue" points="589.519,-22.5307 579.322,-19.6545 585.5,-28.2619 589.519,-22.5307"/>
</g>
<!-- Node17&#45;&gt;Node15 -->
<g id="edge25" class="edge"><title>Node17&#45;&gt;Node15</title>
<path fill="none" stroke="midnightblue" d="M684.07,-56.4435C731.58,-46.303 810.241,-29.5138 857.489,-19.4293"/>
<polygon fill="midnightblue" stroke="midnightblue" points="858.308,-22.8333 867.357,-17.323 856.847,-15.9875 858.308,-22.8333"/>
</g>
<!-- Node17&#45;&gt;Node16 -->
<g id="edge26" class="edge"><title>Node17&#45;&gt;Node16</title>
<path fill="none" stroke="midnightblue" d="M719.522,-56.9692C722.718,-56.6397 725.881,-56.3154 728.981,-56 868.412,-41.8135 1031.66,-26.0865 1121.67,-17.4918"/>
<polygon fill="midnightblue" stroke="midnightblue" points="1122.13,-20.9645 1131.75,-16.5303 1121.46,-13.9962 1122.13,-20.9645"/>
</g>
<!-- Node18&#45;&gt;Node11 -->
<g id="edge28" class="edge"><title>Node18&#45;&gt;Node11</title>
<path fill="none" stroke="midnightblue" d="M493.689,-112.444C469.174,-103.438 430.385,-89.1891 402.782,-79.049"/>
<polygon fill="midnightblue" stroke="midnightblue" points="403.759,-75.6793 393.165,-75.5164 401.345,-82.25 403.759,-75.6793"/>
</g>
<!-- Node18&#45;&gt;Node12 -->
<g id="edge30" class="edge"><title>Node18&#45;&gt;Node12</title>
<path fill="none" stroke="midnightblue" d="M512.523,-112.083C508.827,-104.691 503.458,-93.9533 498.887,-84.8111"/>
<polygon fill="midnightblue" stroke="midnightblue" points="501.96,-83.1301 494.357,-75.7511 495.699,-86.2606 501.96,-83.1301"/>
</g>
<!-- Node18&#45;&gt;Node17 -->
<g id="edge29" class="edge"><title>Node18&#45;&gt;Node17</title>
<path fill="none" stroke="midnightblue" d="M537.105,-112.444C558.006,-103.557 590.916,-89.5632 614.698,-79.4514"/>
<polygon fill="midnightblue" stroke="midnightblue" points="616.119,-82.6504 623.952,-75.5164 613.38,-76.2085 616.119,-82.6504"/>
</g>
<!-- Node20 -->
<g id="node20" class="node"><title>Node20</title>
<polygon fill="none" stroke="#bfbfbf" points="737.981,-56.5 737.981,-75.5 867.981,-75.5 867.981,-56.5 737.981,-56.5"/>
<text text-anchor="middle" x="802.981" y="-63.5" font-family="Helvetica,sans-Serif" font-size="10.00">InfoLogger/InfoLogger.hxx</text>
</g>
<!-- Node19&#45;&gt;Node20 -->
<g id="edge32" class="edge"><title>Node19&#45;&gt;Node20</title>
<path fill="none" stroke="midnightblue" d="M946.886,-112.444C917.994,-103.32 872.057,-88.8133 839.876,-78.6509"/>
<polygon fill="midnightblue" stroke="midnightblue" points="840.54,-75.1903 829.95,-75.5164 838.432,-81.8654 840.54,-75.1903"/>
</g>
<!-- Node21 -->
<g id="node21" class="node"><title>Node21</title>
<polygon fill="none" stroke="#bfbfbf" points="885.981,-56.5 885.981,-75.5 1047.98,-75.5 1047.98,-56.5 885.981,-56.5"/>
<text text-anchor="middle" x="966.981" y="-63.5" font-family="Helvetica,sans-Serif" font-size="10.00">InfoLogger/InfoLoggerMacros.hxx</text>
</g>
<!-- Node19&#45;&gt;Node21 -->
<g id="edge33" class="edge"><title>Node19&#45;&gt;Node21</title>
<path fill="none" stroke="midnightblue" d="M972.826,-112.083C971.898,-104.927 970.564,-94.6353 969.404,-85.6911"/>
<polygon fill="midnightblue" stroke="midnightblue" points="972.872,-85.2181 968.116,-75.7511 965.93,-86.1181 972.872,-85.2181"/>
</g>
<!-- Node22&#45;&gt;Node3 -->
<g id="edge35" class="edge"><title>Node22&#45;&gt;Node3</title>
<path fill="none" stroke="midnightblue" d="M275.092,-112.144C283.132,-98.766 299.811,-73.1466 318.981,-56 333.368,-43.1325 351.981,-32.0393 367.186,-24.0865"/>
<polygon fill="midnightblue" stroke="midnightblue" points="368.803,-27.1911 376.145,-19.5528 365.642,-20.9454 368.803,-27.1911"/>
</g>
<!-- Node22&#45;&gt;Node11 -->
<g id="edge36" class="edge"><title>Node22&#45;&gt;Node11</title>
<path fill="none" stroke="midnightblue" d="M286.048,-112.324C301.939,-103.743 326.489,-90.486 344.94,-80.5224"/>
<polygon fill="midnightblue" stroke="midnightblue" points="346.819,-83.4857 353.955,-75.6545 343.492,-77.3264 346.819,-83.4857"/>
</g>
</g>
</svg>
