<?xml version="1.0" encoding="UTF-8" standalone="no"?>
<!DOCTYPE svg PUBLIC "-//W3C//DTD SVG 1.1//EN"
 "http://www.w3.org/Graphics/SVG/1.1/DTD/svg11.dtd">
<!-- Generated by graphviz version 2.38.0 (20140413.2041)
 -->
<!-- Title: Modules/Common/src/TH2Reductor.cxx Pages: 1 -->
<svg width="198pt" height="207pt"
 viewBox="0.00 0.00 198.00 207.00" xmlns="http://www.w3.org/2000/svg" xmlns:xlink="http://www.w3.org/1999/xlink">
<g id="graph0" class="graph" transform="scale(1 1) rotate(0) translate(4 203)">
<title>Modules/Common/src/TH2Reductor.cxx</title>
<!-- Node1 -->
<g id="node1" class="node"><title>Node1</title>
<polygon fill="#bfbfbf" stroke="black" points="16.5,-168.5 16.5,-198.5 129.5,-198.5 129.5,-168.5 16.5,-168.5"/>
<text text-anchor="start" x="24.5" y="-186.5" font-family="Helvetica,sans-Serif" font-size="10.00">Modules/Common/src</text>
<text text-anchor="middle" x="73" y="-175.5" font-family="Helvetica,sans-Serif" font-size="10.00">/TH2Reductor.cxx</text>
</g>
<!-- Node2 -->
<g id="node2" class="node"><title>Node2</title>
<polygon fill="none" stroke="#bfbfbf" points="-3.55271e-15,-112.5 -3.55271e-15,-131.5 44,-131.5 44,-112.5 -3.55271e-15,-112.5"/>
<text text-anchor="middle" x="22" y="-119.5" font-family="Helvetica,sans-Serif" font-size="10.00">TH2.h</text>
</g>
<!-- Node1&#45;&gt;Node2 -->
<g id="edge1" class="edge"><title>Node1&#45;&gt;Node2</title>
<path fill="none" stroke="midnightblue" d="M60.9137,-168.399C53.4264,-159.664 43.7822,-148.413 35.9682,-139.296"/>
<polygon fill="midnightblue" stroke="midnightblue" points="38.5863,-136.973 29.421,-131.658 33.2715,-141.528 38.5863,-136.973"/>
</g>
<!-- Node3 -->
<g id="node3" class="node"><title>Node3</title>
<g id="a_node3"><a xlink:href="TH2Reductor_8h.html" target="_top" xlink:title="Common/TH2Reductor.h">
<polygon fill="none" stroke="black" points="62,-112.5 62,-131.5 188,-131.5 188,-112.5 62,-112.5"/>
<text text-anchor="middle" x="125" y="-119.5" font-family="Helvetica,sans-Serif" font-size="10.00">Common/TH2Reductor.h</text>
</a>
</g>
</g>
<!-- Node1&#45;&gt;Node3 -->
<g id="edge2" class="edge"><title>Node1&#45;&gt;Node3</title>
<path fill="none" stroke="midnightblue" d="M85.3233,-168.399C92.9574,-159.664 102.791,-148.413 110.758,-139.296"/>
<polygon fill="midnightblue" stroke="midnightblue" points="113.488,-141.491 117.434,-131.658 108.218,-136.884 113.488,-141.491"/>
</g>
<!-- Node4 -->
<g id="node4" class="node"><title>Node4</title>
<g id="a_node4"><a xlink:href="Reductor_8h.html" target="_top" xlink:title="QualityControl/Reductor.h">
<polygon fill="none" stroke="black" points="60,-56.5 60,-75.5 190,-75.5 190,-56.5 60,-56.5"/>
<text text-anchor="middle" x="125" y="-63.5" font-family="Helvetica,sans-Serif" font-size="10.00">QualityControl/Reductor.h</text>
</a>
</g>
</g>
<!-- Node3&#45;&gt;Node4 -->
<g id="edge3" class="edge"><title>Node3&#45;&gt;Node4</title>
<path fill="none" stroke="midnightblue" d="M125,-112.083C125,-105.006 125,-94.8611 125,-85.9865"/>
<polygon fill="midnightblue" stroke="midnightblue" points="128.5,-85.751 125,-75.7511 121.5,-85.7511 128.5,-85.751"/>
</g>
<!-- Node5 -->
<g id="node5" class="node"><title>Node5</title>
<polygon fill="none" stroke="#bfbfbf" points="95.5,-0.5 95.5,-19.5 154.5,-19.5 154.5,-0.5 95.5,-0.5"/>
<text text-anchor="middle" x="125" y="-7.5" font-family="Helvetica,sans-Serif" font-size="10.00">TObject.h</text>
</g>
<!-- Node4&#45;&gt;Node5 -->
<g id="edge4" class="edge"><title>Node4&#45;&gt;Node5</title>
<path fill="none" stroke="midnightblue" d="M125,-56.083C125,-49.0059 125,-38.8611 125,-29.9865"/>
<polygon fill="midnightblue" stroke="midnightblue" points="128.5,-29.751 125,-19.7511 121.5,-29.7511 128.5,-29.751"/>
</g>
</g>
</svg>
