<?xml version="1.0" encoding="UTF-8" standalone="no"?>
<!DOCTYPE svg PUBLIC "-//W3C//DTD SVG 1.1//EN"
 "http://www.w3.org/Graphics/SVG/1.1/DTD/svg11.dtd">
<!-- Generated by graphviz version 2.38.0 (20140413.2041)
 -->
<!-- Title: Modules/ITS/src/TH2XlineReductor.cxx Pages: 1 -->
<svg width="337pt" height="207pt"
 viewBox="0.00 0.00 337.00 207.00" xmlns="http://www.w3.org/2000/svg" xmlns:xlink="http://www.w3.org/1999/xlink">
<g id="graph0" class="graph" transform="scale(1 1) rotate(0) translate(4 203)">
<title>Modules/ITS/src/TH2XlineReductor.cxx</title>
<!-- Node1 -->
<g id="node1" class="node"><title>Node1</title>
<polygon fill="#bfbfbf" stroke="black" points="76,-168.5 76,-198.5 208,-198.5 208,-168.5 76,-168.5"/>
<text text-anchor="start" x="84" y="-186.5" font-family="Helvetica,sans-Serif" font-size="10.00">Modules/ITS/src/TH2Xline</text>
<text text-anchor="middle" x="142" y="-175.5" font-family="Helvetica,sans-Serif" font-size="10.00">Reductor.cxx</text>
</g>
<!-- Node2 -->
<g id="node2" class="node"><title>Node2</title>
<polygon fill="none" stroke="#bfbfbf" points="0,-112.5 0,-131.5 44,-131.5 44,-112.5 0,-112.5"/>
<text text-anchor="middle" x="22" y="-119.5" font-family="Helvetica,sans-Serif" font-size="10.00">TH2.h</text>
</g>
<!-- Node1&#45;&gt;Node2 -->
<g id="edge1" class="edge"><title>Node1&#45;&gt;Node2</title>
<path fill="none" stroke="midnightblue" d="M113.562,-168.399C93.8772,-158.639 67.8567,-145.737 48.5868,-136.183"/>
<polygon fill="midnightblue" stroke="midnightblue" points="49.975,-132.964 39.4611,-131.658 46.8654,-139.236 49.975,-132.964"/>
</g>
<!-- Node3 -->
<g id="node3" class="node"><title>Node3</title>
<polygon fill="none" stroke="#bfbfbf" points="62.5,-112.5 62.5,-131.5 115.5,-131.5 115.5,-112.5 62.5,-112.5"/>
<text text-anchor="middle" x="89" y="-119.5" font-family="Helvetica,sans-Serif" font-size="10.00">TMath.h</text>
</g>
<!-- Node1&#45;&gt;Node3 -->
<g id="edge2" class="edge"><title>Node1&#45;&gt;Node3</title>
<path fill="none" stroke="midnightblue" d="M129.44,-168.399C121.659,-159.664 111.636,-148.413 103.516,-139.296"/>
<polygon fill="midnightblue" stroke="midnightblue" points="105.977,-136.797 96.712,-131.658 100.75,-141.453 105.977,-136.797"/>
</g>
<!-- Node4 -->
<g id="node4" class="node"><title>Node4</title>
<g id="a_node4"><a xlink:href="TH2XlineReductor_8h.html" target="_top" xlink:title="ITS/TH2XlineReductor.h">
<polygon fill="none" stroke="black" points="133,-112.5 133,-131.5 257,-131.5 257,-112.5 133,-112.5"/>
<text text-anchor="middle" x="195" y="-119.5" font-family="Helvetica,sans-Serif" font-size="10.00">ITS/TH2XlineReductor.h</text>
</a>
</g>
</g>
<!-- Node1&#45;&gt;Node4 -->
<g id="edge3" class="edge"><title>Node1&#45;&gt;Node4</title>
<path fill="none" stroke="midnightblue" d="M154.56,-168.399C162.341,-159.664 172.364,-148.413 180.484,-139.296"/>
<polygon fill="midnightblue" stroke="midnightblue" points="183.25,-141.453 187.288,-131.658 178.023,-136.797 183.25,-141.453"/>
</g>
<!-- Node8 -->
<g id="node8" class="node"><title>Node8</title>
<polygon fill="none" stroke="#bfbfbf" points="275,-112.5 275,-131.5 329,-131.5 329,-112.5 275,-112.5"/>
<text text-anchor="middle" x="302" y="-119.5" font-family="Helvetica,sans-Serif" font-size="10.00">iostream</text>
</g>
<!-- Node1&#45;&gt;Node8 -->
<g id="edge7" class="edge"><title>Node1&#45;&gt;Node8</title>
<path fill="none" stroke="midnightblue" d="M179.918,-168.399C207.123,-158.283 243.404,-144.791 269.33,-135.149"/>
<polygon fill="midnightblue" stroke="midnightblue" points="270.566,-138.424 278.719,-131.658 268.126,-131.863 270.566,-138.424"/>
</g>
<!-- Node5 -->
<g id="node5" class="node"><title>Node5</title>
<g id="a_node5"><a xlink:href="Reductor_8h.html" target="_top" xlink:title="QualityControl/Reductor.h">
<polygon fill="none" stroke="black" points="77,-56.5 77,-75.5 207,-75.5 207,-56.5 77,-56.5"/>
<text text-anchor="middle" x="142" y="-63.5" font-family="Helvetica,sans-Serif" font-size="10.00">QualityControl/Reductor.h</text>
</a>
</g>
</g>
<!-- Node4&#45;&gt;Node5 -->
<g id="edge4" class="edge"><title>Node4&#45;&gt;Node5</title>
<path fill="none" stroke="midnightblue" d="M186.248,-112.083C178.53,-104.22 167.095,-92.5688 157.783,-83.0813"/>
<polygon fill="midnightblue" stroke="midnightblue" points="160.092,-80.4363 150.589,-75.7511 155.096,-85.3396 160.092,-80.4363"/>
</g>
<!-- Node7 -->
<g id="node7" class="node"><title>Node7</title>
<polygon fill="none" stroke="#bfbfbf" points="225,-56.5 225,-75.5 269,-75.5 269,-56.5 225,-56.5"/>
<text text-anchor="middle" x="247" y="-63.5" font-family="Helvetica,sans-Serif" font-size="10.00">vector</text>
</g>
<!-- Node4&#45;&gt;Node7 -->
<g id="edge6" class="edge"><title>Node4&#45;&gt;Node7</title>
<path fill="none" stroke="midnightblue" d="M203.587,-112.083C211.159,-104.22 222.378,-92.5688 231.514,-83.0813"/>
<polygon fill="midnightblue" stroke="midnightblue" points="234.158,-85.3821 238.573,-75.7511 229.115,-80.5266 234.158,-85.3821"/>
</g>
<!-- Node6 -->
<g id="node6" class="node"><title>Node6</title>
<polygon fill="none" stroke="#bfbfbf" points="112.5,-0.5 112.5,-19.5 171.5,-19.5 171.5,-0.5 112.5,-0.5"/>
<text text-anchor="middle" x="142" y="-7.5" font-family="Helvetica,sans-Serif" font-size="10.00">TObject.h</text>
</g>
<!-- Node5&#45;&gt;Node6 -->
<g id="edge5" class="edge"><title>Node5&#45;&gt;Node6</title>
<path fill="none" stroke="midnightblue" d="M142,-56.083C142,-49.0059 142,-38.8611 142,-29.9865"/>
<polygon fill="midnightblue" stroke="midnightblue" points="145.5,-29.751 142,-19.7511 138.5,-29.7511 145.5,-29.751"/>
</g>
</g>
</svg>
