<?xml version="1.0" encoding="UTF-8" standalone="no"?>
<!DOCTYPE svg PUBLIC "-//W3C//DTD SVG 1.1//EN"
 "http://www.w3.org/Graphics/SVG/1.1/DTD/svg11.dtd">
<!-- Generated by graphviz version 2.38.0 (20140413.2041)
 -->
<!-- Title: Modules/FT0/include/FT0/TreeReaderPostProcessing.h Pages: 1 -->
<svg width="1256pt" height="296pt"
 viewBox="0.00 0.00 1256.00 296.00" xmlns="http://www.w3.org/2000/svg" xmlns:xlink="http://www.w3.org/1999/xlink">
<g id="graph0" class="graph" transform="scale(1 1) rotate(0) translate(4 292)">
<title>Modules/FT0/include/FT0/TreeReaderPostProcessing.h</title>
<!-- Node1 -->
<g id="node1" class="node"><title>Node1</title>
<polygon fill="#bfbfbf" stroke="black" points="588.5,-257.5 588.5,-287.5 756.5,-287.5 756.5,-257.5 588.5,-257.5"/>
<text text-anchor="start" x="596.5" y="-275.5" font-family="Helvetica,sans-Serif" font-size="10.00">Modules/FT0/include</text>
<text text-anchor="middle" x="672.5" y="-264.5" font-family="Helvetica,sans-Serif" font-size="10.00">/FT0/TreeReaderPostProcessing.h</text>
</g>
<!-- Node2 -->
<g id="node2" class="node"><title>Node2</title>
<g id="a_node2"><a xlink:href="PostProcessingInterface_8h.html" target="_top" xlink:title="QualityControl/PostProcessing\lInterface.h">
<polygon fill="none" stroke="black" points="780,-190.5 780,-220.5 931,-220.5 931,-190.5 780,-190.5"/>
<text text-anchor="start" x="788" y="-208.5" font-family="Helvetica,sans-Serif" font-size="10.00">QualityControl/PostProcessing</text>
<text text-anchor="middle" x="855.5" y="-197.5" font-family="Helvetica,sans-Serif" font-size="10.00">Interface.h</text>
</a>
</g>
</g>
<!-- Node1&#45;&gt;Node2 -->
<g id="edge1" class="edge"><title>Node1&#45;&gt;Node2</title>
<path fill="none" stroke="midnightblue" d="M712.208,-257.396C739.786,-247.601 776.723,-234.481 806.188,-224.015"/>
<polygon fill="midnightblue" stroke="midnightblue" points="807.617,-227.222 815.869,-220.577 805.274,-220.625 807.617,-227.222"/>
</g>
<!-- Node21 -->
<g id="node21" class="node"><title>Node21</title>
<g id="a_node21"><a xlink:href="DatabaseInterface_8h.html" target="_top" xlink:title="QualityControl/DatabaseInterface.h">
<polygon fill="none" stroke="black" points="380.5,-196 380.5,-215 550.5,-215 550.5,-196 380.5,-196"/>
<text text-anchor="middle" x="465.5" y="-203" font-family="Helvetica,sans-Serif" font-size="10.00">QualityControl/DatabaseInterface.h</text>
</a>
</g>
</g>
<!-- Node1&#45;&gt;Node21 -->
<g id="edge24" class="edge"><title>Node1&#45;&gt;Node21</title>
<path fill="none" stroke="midnightblue" d="M627.839,-257.476C590.411,-245.723 537.61,-229.143 502.507,-218.12"/>
<polygon fill="midnightblue" stroke="midnightblue" points="503.25,-214.685 492.661,-215.029 501.153,-221.364 503.25,-214.685"/>
</g>
<!-- Node3 -->
<g id="node3" class="node"><title>Node3</title>
<polygon fill="none" stroke="#bfbfbf" points="666,-0.5 666,-19.5 707,-19.5 707,-0.5 666,-0.5"/>
<text text-anchor="middle" x="686.5" y="-7.5" font-family="Helvetica,sans-Serif" font-size="10.00">string</text>
</g>
<!-- Node2&#45;&gt;Node3 -->
<g id="edge2" class="edge"><title>Node2&#45;&gt;Node3</title>
<path fill="none" stroke="midnightblue" d="M869.4,-190.31C883.837,-173.771 902.733,-145.795 890.5,-123 855.242,-57.3014 764.808,-28.1218 717.069,-16.9509"/>
<polygon fill="midnightblue" stroke="midnightblue" points="717.533,-13.4689 707.012,-14.7174 716.015,-20.3024 717.533,-13.4689"/>
</g>
<!-- Node4 -->
<g id="node4" class="node"><title>Node4</title>
<polygon fill="none" stroke="#bfbfbf" points="556.5,-129 556.5,-148 702.5,-148 702.5,-129 556.5,-129"/>
<text text-anchor="middle" x="629.5" y="-136" font-family="Helvetica,sans-Serif" font-size="10.00">Framework/ServiceRegistry.h</text>
</g>
<!-- Node2&#45;&gt;Node4 -->
<g id="edge3" class="edge"><title>Node2&#45;&gt;Node4</title>
<path fill="none" stroke="midnightblue" d="M806.74,-190.476C765.525,-178.622 707.238,-161.858 668.921,-150.838"/>
<polygon fill="midnightblue" stroke="midnightblue" points="669.731,-147.429 659.153,-148.029 667.796,-154.156 669.731,-147.429"/>
</g>
<!-- Node5 -->
<g id="node5" class="node"><title>Node5</title>
<polygon fill="none" stroke="#bfbfbf" points="939,-123.5 939,-153.5 1040,-153.5 1040,-123.5 939,-123.5"/>
<text text-anchor="start" x="947" y="-141.5" font-family="Helvetica,sans-Serif" font-size="10.00">boost/property_tree</text>
<text text-anchor="middle" x="989.5" y="-130.5" font-family="Helvetica,sans-Serif" font-size="10.00">/ptree_fwd.hpp</text>
</g>
<!-- Node2&#45;&gt;Node5 -->
<g id="edge4" class="edge"><title>Node2&#45;&gt;Node5</title>
<path fill="none" stroke="midnightblue" d="M884.576,-190.396C904.155,-180.899 930.176,-168.276 951.407,-157.978"/>
<polygon fill="midnightblue" stroke="midnightblue" points="953.011,-161.09 960.481,-153.577 949.956,-154.792 953.011,-161.09"/>
</g>
<!-- Node6 -->
<g id="node6" class="node"><title>Node6</title>
<g id="a_node6"><a xlink:href="Triggers_8h.html" target="_top" xlink:title="QualityControl/Triggers.h">
<polygon fill="none" stroke="black" points="1081,-129 1081,-148 1206,-148 1206,-129 1081,-129"/>
<text text-anchor="middle" x="1143.5" y="-136" font-family="Helvetica,sans-Serif" font-size="10.00">QualityControl/Triggers.h</text>
</a>
</g>
</g>
<!-- Node2&#45;&gt;Node6 -->
<g id="edge5" class="edge"><title>Node2&#45;&gt;Node6</title>
<path fill="none" stroke="midnightblue" d="M917.637,-190.476C971.052,-178.421 1046.97,-161.286 1095.74,-150.28"/>
<polygon fill="midnightblue" stroke="midnightblue" points="1096.73,-153.644 1105.71,-148.029 1095.19,-146.816 1096.73,-153.644"/>
</g>
<!-- Node9 -->
<g id="node9" class="node"><title>Node9</title>
<g id="a_node9"><a xlink:href="ObjectsManager_8h.html" target="_top" xlink:title="QualityControl/ObjectsManager.h">
<polygon fill="none" stroke="black" points="721,-129 721,-148 882,-148 882,-129 721,-129"/>
<text text-anchor="middle" x="801.5" y="-136" font-family="Helvetica,sans-Serif" font-size="10.00">QualityControl/ObjectsManager.h</text>
</a>
</g>
</g>
<!-- Node2&#45;&gt;Node9 -->
<g id="edge9" class="edge"><title>Node2&#45;&gt;Node9</title>
<path fill="none" stroke="midnightblue" d="M843.783,-190.396C835.363,-180.261 823.987,-166.567 815.155,-155.937"/>
<polygon fill="midnightblue" stroke="midnightblue" points="817.806,-153.65 808.723,-148.195 812.421,-158.123 817.806,-153.65"/>
</g>
<!-- Node6&#45;&gt;Node3 -->
<g id="edge6" class="edge"><title>Node6&#45;&gt;Node3</title>
<path fill="none" stroke="midnightblue" d="M1092.27,-128.952C1053.45,-121.252 999.457,-107.884 955.5,-87 934.22,-76.8898 934.102,-65.4039 912.5,-56 846.589,-27.307 761.863,-16.7234 717.206,-12.9632"/>
<polygon fill="midnightblue" stroke="midnightblue" points="717.252,-9.45623 707.01,-12.1659 716.707,-16.4349 717.252,-9.45623"/>
</g>
<!-- Node7 -->
<g id="node7" class="node"><title>Node7</title>
<polygon fill="none" stroke="#bfbfbf" points="1126,-62 1126,-81 1185,-81 1185,-62 1126,-62"/>
<text text-anchor="middle" x="1155.5" y="-69" font-family="Helvetica,sans-Serif" font-size="10.00">functional</text>
</g>
<!-- Node6&#45;&gt;Node7 -->
<g id="edge7" class="edge"><title>Node6&#45;&gt;Node7</title>
<path fill="none" stroke="midnightblue" d="M1145.12,-128.734C1146.88,-119.183 1149.76,-103.618 1152.03,-91.2829"/>
<polygon fill="midnightblue" stroke="midnightblue" points="1155.53,-91.5966 1153.91,-81.1273 1148.65,-90.3257 1155.53,-91.5966"/>
</g>
<!-- Node8 -->
<g id="node8" class="node"><title>Node8</title>
<polygon fill="none" stroke="#bfbfbf" points="1203,-62 1203,-81 1248,-81 1248,-62 1203,-62"/>
<text text-anchor="middle" x="1225.5" y="-69" font-family="Helvetica,sans-Serif" font-size="10.00">iosfwd</text>
</g>
<!-- Node6&#45;&gt;Node8 -->
<g id="edge8" class="edge"><title>Node6&#45;&gt;Node8</title>
<path fill="none" stroke="midnightblue" d="M1154.56,-128.734C1167.84,-118.208 1190.33,-100.379 1206.43,-87.6174"/>
<polygon fill="midnightblue" stroke="midnightblue" points="1208.95,-90.0821 1214.62,-81.1273 1204.61,-84.5965 1208.95,-90.0821"/>
</g>
<!-- Node9&#45;&gt;Node3 -->
<g id="edge22" class="edge"><title>Node9&#45;&gt;Node3</title>
<path fill="none" stroke="midnightblue" d="M799.607,-128.898C795.702,-112.865 785.404,-78.042 765.5,-56 752.184,-41.254 732.863,-30.1296 716.662,-22.6305"/>
<polygon fill="midnightblue" stroke="midnightblue" points="717.624,-19.231 707.06,-18.4297 714.819,-25.6442 717.624,-19.231"/>
</g>
<!-- Node10 -->
<g id="node10" class="node"><title>Node10</title>
<g id="a_node10"><a xlink:href="MonitorObject_8h.html" target="_top" xlink:title="QualityControl/MonitorObject.h">
<polygon fill="none" stroke="black" points="134,-62 134,-81 285,-81 285,-62 134,-62"/>
<text text-anchor="middle" x="209.5" y="-69" font-family="Helvetica,sans-Serif" font-size="10.00">QualityControl/MonitorObject.h</text>
</a>
</g>
</g>
<!-- Node9&#45;&gt;Node10 -->
<g id="edge10" class="edge"><title>Node9&#45;&gt;Node10</title>
<path fill="none" stroke="midnightblue" d="M752.548,-128.94C739.258,-126.8 724.851,-124.648 711.5,-123 526.439,-100.155 478.43,-110.881 293.5,-87 284.132,-85.7903 274.213,-84.2824 264.601,-82.7002"/>
<polygon fill="midnightblue" stroke="midnightblue" points="265.175,-79.2475 254.731,-81.0339 264.009,-86.1499 265.175,-79.2475"/>
</g>
<!-- Node15 -->
<g id="node15" class="node"><title>Node15</title>
<g id="a_node15"><a xlink:href="MonitorObjectCollection_8h.html" target="_top" xlink:title="QualityControl/MonitorObject\lCollection.h">
<polygon fill="none" stroke="black" points="965,-56.5 965,-86.5 1108,-86.5 1108,-56.5 965,-56.5"/>
<text text-anchor="start" x="973" y="-74.5" font-family="Helvetica,sans-Serif" font-size="10.00">QualityControl/MonitorObject</text>
<text text-anchor="middle" x="1036.5" y="-63.5" font-family="Helvetica,sans-Serif" font-size="10.00">Collection.h</text>
</a>
</g>
</g>
<!-- Node9&#45;&gt;Node15 -->
<g id="edge16" class="edge"><title>Node9&#45;&gt;Node15</title>
<path fill="none" stroke="midnightblue" d="M832.706,-128.869C869.114,-118.798 930.156,-101.914 975.962,-89.2446"/>
<polygon fill="midnightblue" stroke="midnightblue" points="977.078,-92.5673 985.783,-86.5281 975.212,-85.8207 977.078,-92.5673"/>
</g>
<!-- Node18 -->
<g id="node18" class="node"><title>Node18</title>
<g id="a_node18"><a xlink:href="TaskConfig_8h.html" target="_top" xlink:title="QualityControl/TaskConfig.h">
<polygon fill="none" stroke="black" points="616.5,-62 616.5,-81 756.5,-81 756.5,-62 616.5,-62"/>
<text text-anchor="middle" x="686.5" y="-69" font-family="Helvetica,sans-Serif" font-size="10.00">QualityControl/TaskConfig.h</text>
</a>
</g>
</g>
<!-- Node9&#45;&gt;Node18 -->
<g id="edge19" class="edge"><title>Node9&#45;&gt;Node18</title>
<path fill="none" stroke="midnightblue" d="M785.991,-128.734C766.592,-117.769 733.174,-98.8809 710.472,-86.0495"/>
<polygon fill="midnightblue" stroke="midnightblue" points="712.192,-83.001 701.764,-81.1273 708.747,-89.0949 712.192,-83.001"/>
</g>
<!-- Node20 -->
<g id="node20" class="node"><title>Node20</title>
<polygon fill="none" stroke="#bfbfbf" points="524.5,-62 524.5,-81 576.5,-81 576.5,-62 524.5,-62"/>
<text text-anchor="middle" x="550.5" y="-69" font-family="Helvetica,sans-Serif" font-size="10.00">memory</text>
</g>
<!-- Node9&#45;&gt;Node20 -->
<g id="edge23" class="edge"><title>Node9&#45;&gt;Node20</title>
<path fill="none" stroke="midnightblue" d="M768.428,-128.936C721.326,-116.738 635.246,-94.4462 586.558,-81.8376"/>
<polygon fill="midnightblue" stroke="midnightblue" points="587.321,-78.4199 576.763,-79.3012 585.566,-85.1964 587.321,-78.4199"/>
</g>
<!-- Node10&#45;&gt;Node3 -->
<g id="edge11" class="edge"><title>Node10&#45;&gt;Node3</title>
<path fill="none" stroke="midnightblue" d="M256.078,-61.9737C268.237,-59.8814 281.341,-57.7441 293.5,-56 428.084,-36.6949 589.55,-20.3357 655.828,-13.9119"/>
<polygon fill="midnightblue" stroke="midnightblue" points="656.372,-17.3757 665.991,-12.9326 655.701,-10.408 656.372,-17.3757"/>
</g>
<!-- Node11 -->
<g id="node11" class="node"><title>Node11</title>
<polygon fill="none" stroke="#bfbfbf" points="212,-0.5 212,-19.5 247,-19.5 247,-0.5 212,-0.5"/>
<text text-anchor="middle" x="229.5" y="-7.5" font-family="Helvetica,sans-Serif" font-size="10.00">map</text>
</g>
<!-- Node10&#45;&gt;Node11 -->
<g id="edge12" class="edge"><title>Node10&#45;&gt;Node11</title>
<path fill="none" stroke="midnightblue" d="M212.366,-61.9751C215.217,-53.4919 219.683,-40.2043 223.341,-29.3222"/>
<polygon fill="midnightblue" stroke="midnightblue" points="226.771,-30.1031 226.64,-19.5091 220.136,-27.8727 226.771,-30.1031"/>
</g>
<!-- Node12 -->
<g id="node12" class="node"><title>Node12</title>
<polygon fill="none" stroke="#bfbfbf" points="300.5,-0.5 300.5,-19.5 356.5,-19.5 356.5,-0.5 300.5,-0.5"/>
<text text-anchor="middle" x="328.5" y="-7.5" font-family="Helvetica,sans-Serif" font-size="10.00">Rtypes.h</text>
</g>
<!-- Node10&#45;&gt;Node12 -->
<g id="edge13" class="edge"><title>Node10&#45;&gt;Node12</title>
<path fill="none" stroke="midnightblue" d="M226.55,-61.9751C246.344,-52.078 279.217,-35.6416 302.27,-24.1151"/>
<polygon fill="midnightblue" stroke="midnightblue" points="304.103,-27.1118 311.482,-19.5091 300.972,-20.8508 304.103,-27.1118"/>
</g>
<!-- Node13 -->
<g id="node13" class="node"><title>Node13</title>
<polygon fill="none" stroke="#bfbfbf" points="0,-0.5 0,-19.5 59,-19.5 59,-0.5 0,-0.5"/>
<text text-anchor="middle" x="29.5" y="-7.5" font-family="Helvetica,sans-Serif" font-size="10.00">TObject.h</text>
</g>
<!-- Node10&#45;&gt;Node13 -->
<g id="edge14" class="edge"><title>Node10&#45;&gt;Node13</title>
<path fill="none" stroke="midnightblue" d="M183.71,-61.9751C152.567,-51.6804 100.019,-34.3103 65.0469,-22.7502"/>
<polygon fill="midnightblue" stroke="midnightblue" points="65.835,-19.3245 55.2418,-19.5091 63.638,-25.9708 65.835,-19.3245"/>
</g>
<!-- Node14 -->
<g id="node14" class="node"><title>Node14</title>
<polygon fill="none" stroke="#bfbfbf" points="77.5,-0.5 77.5,-19.5 193.5,-19.5 193.5,-0.5 77.5,-0.5"/>
<text text-anchor="middle" x="135.5" y="-7.5" font-family="Helvetica,sans-Serif" font-size="10.00">Common/Exceptions.h</text>
</g>
<!-- Node10&#45;&gt;Node14 -->
<g id="edge15" class="edge"><title>Node10&#45;&gt;Node14</title>
<path fill="none" stroke="midnightblue" d="M198.898,-61.9751C187.248,-52.6082 168.314,-37.3839 154.165,-26.0081"/>
<polygon fill="midnightblue" stroke="midnightblue" points="156.069,-23.0477 146.083,-19.5091 151.683,-28.503 156.069,-23.0477"/>
</g>
<!-- Node16 -->
<g id="node16" class="node"><title>Node16</title>
<polygon fill="none" stroke="#bfbfbf" points="1060,-0.5 1060,-19.5 1129,-19.5 1129,-0.5 1060,-0.5"/>
<text text-anchor="middle" x="1094.5" y="-7.5" font-family="Helvetica,sans-Serif" font-size="10.00">TObjArray.h</text>
</g>
<!-- Node15&#45;&gt;Node16 -->
<g id="edge17" class="edge"><title>Node15&#45;&gt;Node16</title>
<path fill="none" stroke="midnightblue" d="M1050.25,-56.3993C1058.85,-47.575 1069.95,-36.1827 1078.89,-27.0178"/>
<polygon fill="midnightblue" stroke="midnightblue" points="1081.59,-29.2616 1086.06,-19.6578 1076.57,-24.3755 1081.59,-29.2616"/>
</g>
<!-- Node17 -->
<g id="node17" class="node"><title>Node17</title>
<polygon fill="none" stroke="#bfbfbf" points="913.5,-0.5 913.5,-19.5 1041.5,-19.5 1041.5,-0.5 913.5,-0.5"/>
<text text-anchor="middle" x="977.5" y="-7.5" font-family="Helvetica,sans-Serif" font-size="10.00">Mergers/MergeInterface.h</text>
</g>
<!-- Node15&#45;&gt;Node17 -->
<g id="edge18" class="edge"><title>Node15&#45;&gt;Node17</title>
<path fill="none" stroke="midnightblue" d="M1022.52,-56.3993C1013.77,-47.575 1002.47,-36.1827 993.383,-27.0178"/>
<polygon fill="midnightblue" stroke="midnightblue" points="995.612,-24.2942 986.085,-19.6578 990.641,-29.2231 995.612,-24.2942"/>
</g>
<!-- Node18&#45;&gt;Node3 -->
<g id="edge20" class="edge"><title>Node18&#45;&gt;Node3</title>
<path fill="none" stroke="midnightblue" d="M686.5,-61.9751C686.5,-53.5803 686.5,-40.4806 686.5,-29.6631"/>
<polygon fill="midnightblue" stroke="midnightblue" points="690,-29.5091 686.5,-19.5091 683,-29.5091 690,-29.5091"/>
</g>
<!-- Node19 -->
<g id="node19" class="node"><title>Node19</title>
<polygon fill="none" stroke="#bfbfbf" points="488,-0.5 488,-19.5 571,-19.5 571,-0.5 488,-0.5"/>
<text text-anchor="middle" x="529.5" y="-7.5" font-family="Helvetica,sans-Serif" font-size="10.00">unordered_map</text>
</g>
<!-- Node18&#45;&gt;Node19 -->
<g id="edge21" class="edge"><title>Node18&#45;&gt;Node19</title>
<path fill="none" stroke="midnightblue" d="M664.006,-61.9751C637.191,-51.8129 592.185,-34.7564 561.691,-23.1996"/>
<polygon fill="midnightblue" stroke="midnightblue" points="562.544,-19.7801 551.953,-19.5091 560.063,-26.3258 562.544,-19.7801"/>
</g>
<!-- Node21&#45;&gt;Node3 -->
<g id="edge25" class="edge"><title>Node21&#45;&gt;Node3</title>
<path fill="none" stroke="midnightblue" d="M467.293,-195.83C473.39,-167.139 494.136,-75.9693 515.5,-56 553.976,-20.0356 617.683,-12.065 655.521,-10.7196"/>
<polygon fill="midnightblue" stroke="midnightblue" points="655.999,-14.2101 665.921,-10.4943 655.848,-7.21179 655.999,-14.2101"/>
</g>
<!-- Node21&#45;&gt;Node4 -->
<g id="edge29" class="edge"><title>Node21&#45;&gt;Node4</title>
<path fill="none" stroke="midnightblue" d="M487.278,-195.869C515.783,-184.571 565.928,-164.696 598.42,-151.818"/>
<polygon fill="midnightblue" stroke="midnightblue" points="599.886,-155.002 607.893,-148.064 597.307,-148.495 599.886,-155.002"/>
</g>
<!-- Node21&#45;&gt;Node10 -->
<g id="edge38" class="edge"><title>Node21&#45;&gt;Node10</title>
<path fill="none" stroke="midnightblue" d="M448.703,-195.839C404.931,-173.269 287.145,-112.536 234.972,-85.6338"/>
<polygon fill="midnightblue" stroke="midnightblue" points="236.518,-82.4933 226.026,-81.0212 233.31,-88.7149 236.518,-82.4933"/>
</g>
<!-- Node21&#45;&gt;Node19 -->
<g id="edge28" class="edge"><title>Node21&#45;&gt;Node19</title>
<path fill="none" stroke="midnightblue" d="M450.34,-195.945C436.779,-187.331 417.8,-172.66 409.5,-154 403.901,-141.411 404.227,-135.729 409.5,-123 419.668,-98.4529 478.69,-50.2433 510.002,-25.8661"/>
<polygon fill="midnightblue" stroke="midnightblue" points="512.26,-28.5445 518.035,-19.6619 507.981,-23.0044 512.26,-28.5445"/>
</g>
<!-- Node21&#45;&gt;Node20 -->
<g id="edge26" class="edge"><title>Node21&#45;&gt;Node20</title>
<path fill="none" stroke="midnightblue" d="M472.802,-195.846C480.954,-186.008 494.335,-169.323 504.5,-154 518.483,-132.921 532.472,-107.338 541.287,-90.5248"/>
<polygon fill="midnightblue" stroke="midnightblue" points="544.57,-91.7977 546.062,-81.3084 538.354,-88.5779 544.57,-91.7977"/>
</g>
<!-- Node22 -->
<g id="node22" class="node"><title>Node22</title>
<polygon fill="none" stroke="#bfbfbf" points="418.5,-129 418.5,-148 462.5,-148 462.5,-129 418.5,-129"/>
<text text-anchor="middle" x="440.5" y="-136" font-family="Helvetica,sans-Serif" font-size="10.00">vector</text>
</g>
<!-- Node21&#45;&gt;Node22 -->
<g id="edge27" class="edge"><title>Node21&#45;&gt;Node22</title>
<path fill="none" stroke="midnightblue" d="M462.128,-195.734C458.38,-185.988 452.223,-169.981 447.435,-157.532"/>
<polygon fill="midnightblue" stroke="midnightblue" points="450.675,-156.204 443.818,-148.127 444.141,-158.717 450.675,-156.204"/>
</g>
<!-- Node23 -->
<g id="node23" class="node"><title>Node23</title>
<g id="a_node23"><a xlink:href="QualityObject_8h_source.html" target="_top" xlink:title="QualityControl/QualityObject.h">
<polygon fill="none" stroke="black" points="31,-129 31,-148 180,-148 180,-129 31,-129"/>
<text text-anchor="middle" x="105.5" y="-136" font-family="Helvetica,sans-Serif" font-size="10.00">QualityControl/QualityObject.h</text>
</a>
</g>
</g>
<!-- Node21&#45;&gt;Node23 -->
<g id="edge30" class="edge"><title>Node21&#45;&gt;Node23</title>
<path fill="none" stroke="midnightblue" d="M418.066,-195.936C352.281,-184.058 233.484,-162.608 162.818,-149.849"/>
<polygon fill="midnightblue" stroke="midnightblue" points="163.215,-146.364 152.753,-148.032 161.972,-153.253 163.215,-146.364"/>
</g>
<!-- Node23&#45;&gt;Node11 -->
<g id="edge31" class="edge"><title>Node23&#45;&gt;Node11</title>
<path fill="none" stroke="midnightblue" d="M105.109,-128.775C104.854,-112.534 106.583,-77.3808 124.5,-56 129.799,-49.677 172.563,-32.5645 201.855,-21.3583"/>
<polygon fill="midnightblue" stroke="midnightblue" points="203.464,-24.4909 211.57,-17.6682 200.979,-17.947 203.464,-24.4909"/>
</g>
<!-- Node23&#45;&gt;Node13 -->
<g id="edge32" class="edge"><title>Node23&#45;&gt;Node13</title>
<path fill="none" stroke="midnightblue" d="M100.276,-128.805C87.9108,-108.223 56.6493,-56.1893 40.1209,-28.6782"/>
<polygon fill="midnightblue" stroke="midnightblue" points="42.9105,-26.5252 34.7603,-19.7557 36.9101,-30.1301 42.9105,-26.5252"/>
</g>
<!-- Node23&#45;&gt;Node14 -->
<g id="edge33" class="edge"><title>Node23&#45;&gt;Node14</title>
<path fill="none" stroke="midnightblue" d="M100.905,-128.594C93.6377,-113.231 81.3115,-80.9934 91.5,-56 96.3,-44.2251 105.829,-33.8564 114.795,-26.0486"/>
<polygon fill="midnightblue" stroke="midnightblue" points="117.15,-28.6448 122.719,-19.6314 112.745,-23.2048 117.15,-28.6448"/>
</g>
<!-- Node24 -->
<g id="node24" class="node"><title>Node24</title>
<g id="a_node24"><a xlink:href="Quality_8h.html" target="_top" xlink:title="QualityControl/Quality.h">
<polygon fill="none" stroke="black" points="303,-62 303,-81 424,-81 424,-62 303,-62"/>
<text text-anchor="middle" x="363.5" y="-69" font-family="Helvetica,sans-Serif" font-size="10.00">QualityControl/Quality.h</text>
</a>
</g>
</g>
<!-- Node23&#45;&gt;Node24 -->
<g id="edge34" class="edge"><title>Node23&#45;&gt;Node24</title>
<path fill="none" stroke="midnightblue" d="M139.494,-128.936C185.803,-117.268 268.767,-96.3669 319.693,-83.5367"/>
<polygon fill="midnightblue" stroke="midnightblue" points="320.589,-86.9205 329.43,-81.0834 318.878,-80.1326 320.589,-86.9205"/>
</g>
<!-- Node24&#45;&gt;Node3 -->
<g id="edge36" class="edge"><title>Node24&#45;&gt;Node3</title>
<path fill="none" stroke="midnightblue" d="M409.778,-61.9751C476.64,-49.6585 598.479,-27.2144 655.509,-16.709"/>
<polygon fill="midnightblue" stroke="midnightblue" points="656.495,-20.0862 665.695,-14.8324 655.227,-13.202 656.495,-20.0862"/>
</g>
<!-- Node24&#45;&gt;Node11 -->
<g id="edge37" class="edge"><title>Node24&#45;&gt;Node11</title>
<path fill="none" stroke="midnightblue" d="M344.301,-61.9751C321.328,-51.7745 282.711,-34.6274 256.68,-23.0688"/>
<polygon fill="midnightblue" stroke="midnightblue" points="257.939,-19.7981 247.379,-18.9386 255.098,-26.1957 257.939,-19.7981"/>
</g>
<!-- Node24&#45;&gt;Node12 -->
<g id="edge35" class="edge"><title>Node24&#45;&gt;Node12</title>
<path fill="none" stroke="midnightblue" d="M358.485,-61.9751C353.339,-53.2268 345.188,-39.3691 338.682,-28.3093"/>
<polygon fill="midnightblue" stroke="midnightblue" points="341.592,-26.3539 333.505,-19.5091 335.559,-29.903 341.592,-26.3539"/>
</g>
</g>
</svg>
