<?xml version="1.0" encoding="UTF-8" standalone="no"?>
<!DOCTYPE svg PUBLIC "-//W3C//DTD SVG 1.1//EN"
 "http://www.w3.org/Graphics/SVG/1.1/DTD/svg11.dtd">
<!-- Generated by graphviz version 2.38.0 (20140413.2041)
 -->
<!-- Title: Modules/FT0/src/TreeReaderPostProcessing.cxx Pages: 1 -->
<!--zoomable 352 -->
<svg id="main" version="1.1" xmlns="http://www.w3.org/2000/svg" xmlns:xlink="http://www.w3.org/1999/xlink" xml:space="preserve" onload="init(evt)">
<style type="text/css"><![CDATA[
.edge:hover path { stroke: red; }
.edge:hover polygon { stroke: red; fill: red; }
]]></style>
<script type="text/javascript"><![CDATA[
var edges = document.getElementsByTagName('g');
if (edges && edges.length) {
  for (var i=0;i<edges.length;i++) {
    if (edges[i].id.substr(0,4)=='edge') {
      edges[i].setAttribute('class','edge');
    }
  }
}
]]></script>
        <defs>
                <circle id="rim" cx="0" cy="0" r="7"/>
                <circle id="rim2" cx="0" cy="0" r="3.5"/>
                <g id="zoomPlus">
                        <use xlink:href="#rim" fill="#404040">
                                <set attributeName="fill" to="#808080" begin="zoomplus.mouseover" end="zoomplus.mouseout"/>
                        </use>
                        <path d="M-4,0h8M0,-4v8" fill="none" stroke="white" stroke-width="1.5" pointer-events="none"/>
                </g>
                <g id="zoomMin">
                        <use xlink:href="#rim" fill="#404040">
                                <set attributeName="fill" to="#808080" begin="zoomminus.mouseover" end="zoomminus.mouseout"/>
                        </use>
                        <path d="M-4,0h8" fill="none" stroke="white" stroke-width="1.5" pointer-events="none"/>
                </g>
                <g id="dirArrow">
                        <path fill="none" stroke="white" stroke-width="1.5" d="M0,-3.0v7 M-2.5,-0.5L0,-3.0L2.5,-0.5"/>
                </g>
               <g id="resetDef">
                       <use xlink:href="#rim2" fill="#404040">
                               <set attributeName="fill" to="#808080" begin="reset.mouseover" end="reset.mouseout"/>
                       </use>
               </g>
        </defs>

<script type="text/javascript">
var viewWidth = 1597;
var viewHeight = 352;
var sectionId = 'dynsection-0';
</script>
<script xlink:href="svgpan.js"/>
<svg id="graph" class="graph">
<g id="viewport">
<title>Modules/FT0/src/TreeReaderPostProcessing.cxx</title>
<!-- Node1 -->
<g id="node1" class="node"><title>Node1</title>
<polygon fill="#bfbfbf" stroke="black" points="1266.5,-313.5 1266.5,-343.5 1410.5,-343.5 1410.5,-313.5 1266.5,-313.5"/>
<text text-anchor="start" x="1274.5" y="-331.5" font-family="Helvetica,sans-Serif" font-size="10.00">Modules/FT0/src/TreeReader</text>
<text text-anchor="middle" x="1338.5" y="-320.5" font-family="Helvetica,sans-Serif" font-size="10.00">PostProcessing.cxx</text>
</g>
<!-- Node2 -->
<g id="node2" class="node"><title>Node2</title>
<g id="a_node2"><a xlink:href="TreeReaderPostProcessing_8h.html" target="_top" xlink:title="FT0/TreeReaderPostProcessing.h">
<polygon fill="none" stroke="black" points="713,-257.5 713,-276.5 878,-276.5 878,-257.5 713,-257.5"/>
<text text-anchor="middle" x="795.5" y="-264.5" font-family="Helvetica,sans-Serif" font-size="10.00">FT0/TreeReaderPostProcessing.h</text>
</a>
</g>
</g>
<!-- Node1&#45;&gt;Node2 -->
<g id="edge1" class="edge"><title>Node1&#45;&gt;Node2</title>
<path fill="none" stroke="midnightblue" d="M1266.39,-319.599C1167.46,-308.758 989.8,-289.291 883.26,-277.616"/>
<polygon fill="midnightblue" stroke="midnightblue" points="883.499,-274.122 873.177,-276.512 882.736,-281.08 883.499,-274.122"/>
</g>
<!-- Node26 -->
<g id="node26" class="node"><title>Node26</title>
<g id="a_node26"><a xlink:href="QcInfoLogger_8h.html" target="_top" xlink:title="QualityControl/QcInfoLogger.h">
<polygon fill="none" stroke="black" points="1264,-257.5 1264,-276.5 1413,-276.5 1413,-257.5 1264,-257.5"/>
<text text-anchor="middle" x="1338.5" y="-264.5" font-family="Helvetica,sans-Serif" font-size="10.00">QualityControl/QcInfoLogger.h</text>
</a>
</g>
</g>
<!-- Node1&#45;&gt;Node26 -->
<g id="edge40" class="edge"><title>Node1&#45;&gt;Node26</title>
<path fill="none" stroke="midnightblue" d="M1338.5,-313.399C1338.5,-305.466 1338.5,-295.458 1338.5,-286.858"/>
<polygon fill="midnightblue" stroke="midnightblue" points="1342,-286.658 1338.5,-276.658 1335,-286.658 1342,-286.658"/>
</g>
<!-- Node29 -->
<g id="node29" class="node"><title>Node29</title>
<g id="a_node29"><a xlink:href="Utilities_8h.html" target="_top" xlink:title="FT0/Utilities.h">
<polygon fill="none" stroke="black" points="1182.5,-196 1182.5,-215 1260.5,-215 1260.5,-196 1182.5,-196"/>
<text text-anchor="middle" x="1221.5" y="-203" font-family="Helvetica,sans-Serif" font-size="10.00">FT0/Utilities.h</text>
</a>
</g>
</g>
<!-- Node1&#45;&gt;Node29 -->
<g id="edge43" class="edge"><title>Node1&#45;&gt;Node29</title>
<path fill="none" stroke="midnightblue" d="M1305.39,-313.359C1288.45,-304.81 1268.51,-292.545 1254.5,-277 1240.96,-261.977 1231.97,-240.422 1226.84,-225.108"/>
<polygon fill="midnightblue" stroke="midnightblue" points="1230.09,-223.756 1223.78,-215.243 1223.4,-225.831 1230.09,-223.756"/>
</g>
<!-- Node32 -->
<g id="node32" class="node"><title>Node32</title>
<polygon fill="none" stroke="#bfbfbf" points="1430.5,-257.5 1430.5,-276.5 1480.5,-276.5 1480.5,-257.5 1430.5,-257.5"/>
<text text-anchor="middle" x="1455.5" y="-264.5" font-family="Helvetica,sans-Serif" font-size="10.00">TH1F.h</text>
</g>
<!-- Node1&#45;&gt;Node32 -->
<g id="edge49" class="edge"><title>Node1&#45;&gt;Node32</title>
<path fill="none" stroke="midnightblue" d="M1366.23,-313.399C1385.33,-303.684 1410.56,-290.855 1429.32,-281.314"/>
<polygon fill="midnightblue" stroke="midnightblue" points="1431.15,-284.311 1438.48,-276.658 1427.98,-278.071 1431.15,-284.311"/>
</g>
<!-- Node33 -->
<g id="node33" class="node"><title>Node33</title>
<polygon fill="none" stroke="#bfbfbf" points="1498.5,-257.5 1498.5,-276.5 1548.5,-276.5 1548.5,-257.5 1498.5,-257.5"/>
<text text-anchor="middle" x="1523.5" y="-264.5" font-family="Helvetica,sans-Serif" font-size="10.00">TTree.h</text>
</g>
<!-- Node1&#45;&gt;Node33 -->
<g id="edge50" class="edge"><title>Node1&#45;&gt;Node33</title>
<path fill="none" stroke="midnightblue" d="M1382.34,-313.399C1414.89,-302.933 1458.66,-288.853 1488.79,-279.163"/>
<polygon fill="midnightblue" stroke="midnightblue" points="1490,-282.451 1498.45,-276.057 1487.86,-275.787 1490,-282.451"/>
</g>
<!-- Node3 -->
<g id="node3" class="node"><title>Node3</title>
<g id="a_node3"><a xlink:href="PostProcessingInterface_8h.html" target="_top" xlink:title="QualityControl/PostProcessing\lInterface.h">
<polygon fill="none" stroke="black" points="317,-190.5 317,-220.5 468,-220.5 468,-190.5 317,-190.5"/>
<text text-anchor="start" x="325" y="-208.5" font-family="Helvetica,sans-Serif" font-size="10.00">QualityControl/PostProcessing</text>
<text text-anchor="middle" x="392.5" y="-197.5" font-family="Helvetica,sans-Serif" font-size="10.00">Interface.h</text>
</a>
</g>
</g>
<!-- Node2&#45;&gt;Node3 -->
<g id="edge2" class="edge"><title>Node2&#45;&gt;Node3</title>
<path fill="none" stroke="midnightblue" d="M737.76,-257.475C669.961,-247.465 556.855,-230.766 478.671,-219.223"/>
<polygon fill="midnightblue" stroke="midnightblue" points="478.763,-215.698 468.359,-217.7 477.74,-222.623 478.763,-215.698"/>
</g>
<!-- Node22 -->
<g id="node22" class="node"><title>Node22</title>
<g id="a_node22"><a xlink:href="DatabaseInterface_8h.html" target="_top" xlink:title="QualityControl/DatabaseInterface.h">
<polygon fill="none" stroke="black" points="710.5,-196 710.5,-215 880.5,-215 880.5,-196 710.5,-196"/>
<text text-anchor="middle" x="795.5" y="-203" font-family="Helvetica,sans-Serif" font-size="10.00">QualityControl/DatabaseInterface.h</text>
</a>
</g>
</g>
<!-- Node2&#45;&gt;Node22 -->
<g id="edge25" class="edge"><title>Node2&#45;&gt;Node22</title>
<path fill="none" stroke="midnightblue" d="M795.5,-257.475C795.5,-249.08 795.5,-235.981 795.5,-225.163"/>
<polygon fill="midnightblue" stroke="midnightblue" points="799,-225.009 795.5,-215.009 792,-225.009 799,-225.009"/>
</g>
<!-- Node4 -->
<g id="node4" class="node"><title>Node4</title>
<polygon fill="none" stroke="#bfbfbf" points="549,-0.5 549,-19.5 590,-19.5 590,-0.5 549,-0.5"/>
<text text-anchor="middle" x="569.5" y="-7.5" font-family="Helvetica,sans-Serif" font-size="10.00">string</text>
</g>
<!-- Node3&#45;&gt;Node4 -->
<g id="edge3" class="edge"><title>Node3&#45;&gt;Node4</title>
<path fill="none" stroke="midnightblue" d="M378.184,-190.28C363.317,-173.711 343.865,-145.708 356.5,-123 394.257,-55.1445 489.464,-26.782 538.798,-16.3342"/>
<polygon fill="midnightblue" stroke="midnightblue" points="539.759,-19.7114 548.876,-14.3152 538.384,-12.8478 539.759,-19.7114"/>
</g>
<!-- Node5 -->
<g id="node5" class="node"><title>Node5</title>
<polygon fill="none" stroke="#bfbfbf" points="545.5,-129 545.5,-148 691.5,-148 691.5,-129 545.5,-129"/>
<text text-anchor="middle" x="618.5" y="-136" font-family="Helvetica,sans-Serif" font-size="10.00">Framework/ServiceRegistry.h</text>
</g>
<!-- Node3&#45;&gt;Node5 -->
<g id="edge4" class="edge"><title>Node3&#45;&gt;Node5</title>
<path fill="none" stroke="midnightblue" d="M441.26,-190.476C482.475,-178.622 540.762,-161.858 579.079,-150.838"/>
<polygon fill="midnightblue" stroke="midnightblue" points="580.204,-154.156 588.847,-148.029 578.269,-147.429 580.204,-154.156"/>
</g>
<!-- Node6 -->
<g id="node6" class="node"><title>Node6</title>
<polygon fill="none" stroke="#bfbfbf" points="208,-123.5 208,-153.5 309,-153.5 309,-123.5 208,-123.5"/>
<text text-anchor="start" x="216" y="-141.5" font-family="Helvetica,sans-Serif" font-size="10.00">boost/property_tree</text>
<text text-anchor="middle" x="258.5" y="-130.5" font-family="Helvetica,sans-Serif" font-size="10.00">/ptree_fwd.hpp</text>
</g>
<!-- Node3&#45;&gt;Node6 -->
<g id="edge5" class="edge"><title>Node3&#45;&gt;Node6</title>
<path fill="none" stroke="midnightblue" d="M363.424,-190.396C343.845,-180.899 317.824,-168.276 296.593,-157.978"/>
<polygon fill="midnightblue" stroke="midnightblue" points="298.044,-154.792 287.519,-153.577 294.989,-161.09 298.044,-154.792"/>
</g>
<!-- Node7 -->
<g id="node7" class="node"><title>Node7</title>
<g id="a_node7"><a xlink:href="Triggers_8h.html" target="_top" xlink:title="QualityControl/Triggers.h">
<polygon fill="none" stroke="black" points="42,-129 42,-148 167,-148 167,-129 42,-129"/>
<text text-anchor="middle" x="104.5" y="-136" font-family="Helvetica,sans-Serif" font-size="10.00">QualityControl/Triggers.h</text>
</a>
</g>
</g>
<!-- Node3&#45;&gt;Node7 -->
<g id="edge6" class="edge"><title>Node3&#45;&gt;Node7</title>
<path fill="none" stroke="midnightblue" d="M330.363,-190.476C276.948,-178.421 201.03,-161.286 152.264,-150.28"/>
<polygon fill="midnightblue" stroke="midnightblue" points="152.814,-146.816 142.289,-148.029 151.273,-153.644 152.814,-146.816"/>
</g>
<!-- Node10 -->
<g id="node10" class="node"><title>Node10</title>
<g id="a_node10"><a xlink:href="ObjectsManager_8h.html" target="_top" xlink:title="QualityControl/ObjectsManager.h">
<polygon fill="none" stroke="black" points="366,-129 366,-148 527,-148 527,-129 366,-129"/>
<text text-anchor="middle" x="446.5" y="-136" font-family="Helvetica,sans-Serif" font-size="10.00">QualityControl/ObjectsManager.h</text>
</a>
</g>
</g>
<!-- Node3&#45;&gt;Node10 -->
<g id="edge10" class="edge"><title>Node3&#45;&gt;Node10</title>
<path fill="none" stroke="midnightblue" d="M404.217,-190.396C412.637,-180.261 424.013,-166.567 432.845,-155.937"/>
<polygon fill="midnightblue" stroke="midnightblue" points="435.579,-158.123 439.277,-148.195 430.194,-153.65 435.579,-158.123"/>
</g>
<!-- Node7&#45;&gt;Node4 -->
<g id="edge7" class="edge"><title>Node7&#45;&gt;Node4</title>
<path fill="none" stroke="midnightblue" d="M154.586,-128.934C193.228,-121.165 247.358,-107.715 291.5,-87 313.156,-76.8375 313.484,-65.3569 335.5,-56 404.409,-26.7129 492.844,-16.3446 538.752,-12.783"/>
<polygon fill="midnightblue" stroke="midnightblue" points="539.218,-16.2587 548.941,-12.0514 538.716,-9.27666 539.218,-16.2587"/>
</g>
<!-- Node8 -->
<g id="node8" class="node"><title>Node8</title>
<polygon fill="none" stroke="#bfbfbf" points="63,-62 63,-81 122,-81 122,-62 63,-62"/>
<text text-anchor="middle" x="92.5" y="-69" font-family="Helvetica,sans-Serif" font-size="10.00">functional</text>
</g>
<!-- Node7&#45;&gt;Node8 -->
<g id="edge8" class="edge"><title>Node7&#45;&gt;Node8</title>
<path fill="none" stroke="midnightblue" d="M102.882,-128.734C101.118,-119.183 98.2449,-103.618 95.9676,-91.2829"/>
<polygon fill="midnightblue" stroke="midnightblue" points="99.3501,-90.3257 94.0927,-81.1273 92.4664,-91.5966 99.3501,-90.3257"/>
</g>
<!-- Node9 -->
<g id="node9" class="node"><title>Node9</title>
<polygon fill="none" stroke="#bfbfbf" points="0,-62 0,-81 45,-81 45,-62 0,-62"/>
<text text-anchor="middle" x="22.5" y="-69" font-family="Helvetica,sans-Serif" font-size="10.00">iosfwd</text>
</g>
<!-- Node7&#45;&gt;Node9 -->
<g id="edge9" class="edge"><title>Node7&#45;&gt;Node9</title>
<path fill="none" stroke="midnightblue" d="M93.4411,-128.734C80.1624,-118.208 57.6708,-100.379 41.5712,-87.6174"/>
<polygon fill="midnightblue" stroke="midnightblue" points="43.3945,-84.5965 33.3837,-81.1273 39.0461,-90.0821 43.3945,-84.5965"/>
</g>
<!-- Node10&#45;&gt;Node4 -->
<g id="edge23" class="edge"><title>Node10&#45;&gt;Node4</title>
<path fill="none" stroke="midnightblue" d="M449.329,-128.905C454.96,-112.882 468.919,-78.0773 490.5,-56 504.297,-41.8855 523.465,-30.823 539.464,-23.1985"/>
<polygon fill="midnightblue" stroke="midnightblue" points="541.28,-26.2181 548.94,-18.899 538.388,-19.8436 541.28,-26.2181"/>
</g>
<!-- Node11 -->
<g id="node11" class="node"><title>Node11</title>
<g id="a_node11"><a xlink:href="MonitorObject_8h.html" target="_top" xlink:title="QualityControl/MonitorObject.h">
<polygon fill="none" stroke="black" points="998,-62 998,-81 1149,-81 1149,-62 998,-62"/>
<text text-anchor="middle" x="1073.5" y="-69" font-family="Helvetica,sans-Serif" font-size="10.00">QualityControl/MonitorObject.h</text>
</a>
</g>
</g>
<!-- Node10&#45;&gt;Node11 -->
<g id="edge11" class="edge"><title>Node10&#45;&gt;Node11</title>
<path fill="none" stroke="midnightblue" d="M494.976,-128.958C508.395,-126.793 522.986,-124.624 536.5,-123 736.585,-98.9534 788.528,-111.969 988.5,-87 998.092,-85.8023 1008.25,-84.2864 1018.09,-82.6889"/>
<polygon fill="midnightblue" stroke="midnightblue" points="1018.89,-86.1034 1028.18,-81.0045 1017.74,-79.1989 1018.89,-86.1034"/>
</g>
<!-- Node16 -->
<g id="node16" class="node"><title>Node16</title>
<g id="a_node16"><a xlink:href="MonitorObjectCollection_8h.html" target="_top" xlink:title="QualityControl/MonitorObject\lCollection.h">
<polygon fill="none" stroke="black" points="140,-56.5 140,-86.5 283,-86.5 283,-56.5 140,-56.5"/>
<text text-anchor="start" x="148" y="-74.5" font-family="Helvetica,sans-Serif" font-size="10.00">QualityControl/MonitorObject</text>
<text text-anchor="middle" x="211.5" y="-63.5" font-family="Helvetica,sans-Serif" font-size="10.00">Collection.h</text>
</a>
</g>
</g>
<!-- Node10&#45;&gt;Node16 -->
<g id="edge17" class="edge"><title>Node10&#45;&gt;Node16</title>
<path fill="none" stroke="midnightblue" d="M415.294,-128.869C378.886,-118.798 317.844,-101.914 272.038,-89.2446"/>
<polygon fill="midnightblue" stroke="midnightblue" points="272.788,-85.8207 262.217,-86.5281 270.922,-92.5673 272.788,-85.8207"/>
</g>
<!-- Node19 -->
<g id="node19" class="node"><title>Node19</title>
<g id="a_node19"><a xlink:href="TaskConfig_8h.html" target="_top" xlink:title="QualityControl/TaskConfig.h">
<polygon fill="none" stroke="black" points="499.5,-62 499.5,-81 639.5,-81 639.5,-62 499.5,-62"/>
<text text-anchor="middle" x="569.5" y="-69" font-family="Helvetica,sans-Serif" font-size="10.00">QualityControl/TaskConfig.h</text>
</a>
</g>
</g>
<!-- Node10&#45;&gt;Node19 -->
<g id="edge20" class="edge"><title>Node10&#45;&gt;Node19</title>
<path fill="none" stroke="midnightblue" d="M462.833,-128.869C483.602,-117.893 519.686,-98.8243 544.07,-85.9385"/>
<polygon fill="midnightblue" stroke="midnightblue" points="545.893,-88.934 553.099,-81.1672 542.622,-82.745 545.893,-88.934"/>
</g>
<!-- Node21 -->
<g id="node21" class="node"><title>Node21</title>
<polygon fill="none" stroke="#bfbfbf" points="668.5,-62 668.5,-81 720.5,-81 720.5,-62 668.5,-62"/>
<text text-anchor="middle" x="694.5" y="-69" font-family="Helvetica,sans-Serif" font-size="10.00">memory</text>
</g>
<!-- Node10&#45;&gt;Node21 -->
<g id="edge24" class="edge"><title>Node10&#45;&gt;Node21</title>
<path fill="none" stroke="midnightblue" d="M483.537,-128.95C524.184,-119.402 591.272,-103.157 648.5,-87 651.824,-86.0615 655.271,-85.049 658.716,-84.0106"/>
<polygon fill="midnightblue" stroke="midnightblue" points="659.783,-87.3442 668.31,-81.0561 657.723,-80.6542 659.783,-87.3442"/>
</g>
<!-- Node11&#45;&gt;Node4 -->
<g id="edge12" class="edge"><title>Node11&#45;&gt;Node4</title>
<path fill="none" stroke="midnightblue" d="M1026.37,-61.9256C1014.07,-59.8339 1000.81,-57.7089 988.5,-56 843.705,-35.8942 669.685,-19.7601 600.269,-13.6462"/>
<polygon fill="midnightblue" stroke="midnightblue" points="600.314,-10.1369 590.047,-12.7519 599.704,-17.1102 600.314,-10.1369"/>
</g>
<!-- Node12 -->
<g id="node12" class="node"><title>Node12</title>
<polygon fill="none" stroke="#bfbfbf" points="902,-0.5 902,-19.5 937,-19.5 937,-0.5 902,-0.5"/>
<text text-anchor="middle" x="919.5" y="-7.5" font-family="Helvetica,sans-Serif" font-size="10.00">map</text>
</g>
<!-- Node11&#45;&gt;Node12 -->
<g id="edge13" class="edge"><title>Node11&#45;&gt;Node12</title>
<path fill="none" stroke="midnightblue" d="M1051.44,-61.9751C1023.79,-51.2933 976.426,-32.994 946.603,-21.4715"/>
<polygon fill="midnightblue" stroke="midnightblue" points="947.804,-18.1837 937.215,-17.8445 945.282,-24.7133 947.804,-18.1837"/>
</g>
<!-- Node13 -->
<g id="node13" class="node"><title>Node13</title>
<polygon fill="none" stroke="#bfbfbf" points="1037.5,-0.5 1037.5,-19.5 1093.5,-19.5 1093.5,-0.5 1037.5,-0.5"/>
<text text-anchor="middle" x="1065.5" y="-7.5" font-family="Helvetica,sans-Serif" font-size="10.00">Rtypes.h</text>
</g>
<!-- Node11&#45;&gt;Node13 -->
<g id="edge14" class="edge"><title>Node11&#45;&gt;Node13</title>
<path fill="none" stroke="midnightblue" d="M1072.35,-61.9751C1071.23,-53.5803 1069.46,-40.4806 1068.01,-29.6631"/>
<polygon fill="midnightblue" stroke="midnightblue" points="1071.45,-28.9535 1066.64,-19.5091 1064.51,-29.8863 1071.45,-28.9535"/>
</g>
<!-- Node14 -->
<g id="node14" class="node"><title>Node14</title>
<polygon fill="none" stroke="#bfbfbf" points="1246,-0.5 1246,-19.5 1305,-19.5 1305,-0.5 1246,-0.5"/>
<text text-anchor="middle" x="1275.5" y="-7.5" font-family="Helvetica,sans-Serif" font-size="10.00">TObject.h</text>
</g>
<!-- Node11&#45;&gt;Node14 -->
<g id="edge15" class="edge"><title>Node11&#45;&gt;Node14</title>
<path fill="none" stroke="midnightblue" d="M1102.44,-61.9751C1137.77,-51.5699 1197.63,-33.9367 1236.86,-22.3801"/>
<polygon fill="midnightblue" stroke="midnightblue" points="1238.01,-25.6921 1246.61,-19.5091 1236.03,-18.9773 1238.01,-25.6921"/>
</g>
<!-- Node15 -->
<g id="node15" class="node"><title>Node15</title>
<polygon fill="none" stroke="#bfbfbf" points="1111.5,-0.5 1111.5,-19.5 1227.5,-19.5 1227.5,-0.5 1111.5,-0.5"/>
<text text-anchor="middle" x="1169.5" y="-7.5" font-family="Helvetica,sans-Serif" font-size="10.00">Common/Exceptions.h</text>
</g>
<!-- Node11&#45;&gt;Node15 -->
<g id="edge16" class="edge"><title>Node11&#45;&gt;Node15</title>
<path fill="none" stroke="midnightblue" d="M1087.25,-61.9751C1102.87,-52.2989 1128.56,-36.3721 1147.08,-24.8941"/>
<polygon fill="midnightblue" stroke="midnightblue" points="1149.12,-27.7522 1155.77,-19.5091 1145.43,-21.8023 1149.12,-27.7522"/>
</g>
<!-- Node17 -->
<g id="node17" class="node"><title>Node17</title>
<polygon fill="none" stroke="#bfbfbf" points="118,-0.5 118,-19.5 187,-19.5 187,-0.5 118,-0.5"/>
<text text-anchor="middle" x="152.5" y="-7.5" font-family="Helvetica,sans-Serif" font-size="10.00">TObjArray.h</text>
</g>
<!-- Node16&#45;&gt;Node17 -->
<g id="edge18" class="edge"><title>Node16&#45;&gt;Node17</title>
<path fill="none" stroke="midnightblue" d="M197.518,-56.3993C188.768,-47.575 177.471,-36.1827 168.383,-27.0178"/>
<polygon fill="midnightblue" stroke="midnightblue" points="170.612,-24.2942 161.085,-19.6578 165.641,-29.2231 170.612,-24.2942"/>
</g>
<!-- Node18 -->
<g id="node18" class="node"><title>Node18</title>
<polygon fill="none" stroke="#bfbfbf" points="205.5,-0.5 205.5,-19.5 333.5,-19.5 333.5,-0.5 205.5,-0.5"/>
<text text-anchor="middle" x="269.5" y="-7.5" font-family="Helvetica,sans-Serif" font-size="10.00">Mergers/MergeInterface.h</text>
</g>
<!-- Node16&#45;&gt;Node18 -->
<g id="edge19" class="edge"><title>Node16&#45;&gt;Node18</title>
<path fill="none" stroke="midnightblue" d="M225.245,-56.3993C233.847,-47.575 244.952,-36.1827 253.886,-27.0178"/>
<polygon fill="midnightblue" stroke="midnightblue" points="256.586,-29.2616 261.06,-19.6578 251.574,-24.3755 256.586,-29.2616"/>
</g>
<!-- Node19&#45;&gt;Node4 -->
<g id="edge21" class="edge"><title>Node19&#45;&gt;Node4</title>
<path fill="none" stroke="midnightblue" d="M569.5,-61.9751C569.5,-53.5803 569.5,-40.4806 569.5,-29.6631"/>
<polygon fill="midnightblue" stroke="midnightblue" points="573,-29.5091 569.5,-19.5091 566,-29.5091 573,-29.5091"/>
</g>
<!-- Node20 -->
<g id="node20" class="node"><title>Node20</title>
<polygon fill="none" stroke="#bfbfbf" points="680,-0.5 680,-19.5 763,-19.5 763,-0.5 680,-0.5"/>
<text text-anchor="middle" x="721.5" y="-7.5" font-family="Helvetica,sans-Serif" font-size="10.00">unordered_map</text>
</g>
<!-- Node19&#45;&gt;Node20 -->
<g id="edge22" class="edge"><title>Node19&#45;&gt;Node20</title>
<path fill="none" stroke="midnightblue" d="M591.278,-61.9751C617.238,-51.8129 660.811,-34.7564 690.335,-23.1996"/>
<polygon fill="midnightblue" stroke="midnightblue" points="691.726,-26.4135 699.763,-19.5091 689.175,-19.8951 691.726,-26.4135"/>
</g>
<!-- Node22&#45;&gt;Node4 -->
<g id="edge26" class="edge"><title>Node22&#45;&gt;Node4</title>
<path fill="none" stroke="midnightblue" d="M794.272,-195.959C790.161,-170.577 774.514,-94.955 729.5,-56 692.82,-24.2565 635.318,-14.7984 600.158,-12.0456"/>
<polygon fill="midnightblue" stroke="midnightblue" points="600.216,-8.54214 590.011,-11.3893 599.764,-15.5275 600.216,-8.54214"/>
</g>
<!-- Node22&#45;&gt;Node5 -->
<g id="edge30" class="edge"><title>Node22&#45;&gt;Node5</title>
<path fill="none" stroke="midnightblue" d="M771.996,-195.869C741.098,-184.522 686.644,-164.525 651.591,-151.652"/>
<polygon fill="midnightblue" stroke="midnightblue" points="652.413,-148.225 641.82,-148.064 650,-154.796 652.413,-148.225"/>
</g>
<!-- Node22&#45;&gt;Node11 -->
<g id="edge39" class="edge"><title>Node22&#45;&gt;Node11</title>
<path fill="none" stroke="midnightblue" d="M798.914,-195.765C805.992,-178.862 823.941,-141.701 851.5,-123 865.268,-113.657 956.961,-94.7583 1018.12,-82.9153"/>
<polygon fill="midnightblue" stroke="midnightblue" points="1018.87,-86.3345 1028.03,-81.0059 1017.55,-79.4609 1018.87,-86.3345"/>
</g>
<!-- Node22&#45;&gt;Node20 -->
<g id="edge29" class="edge"><title>Node22&#45;&gt;Node20</title>
<path fill="none" stroke="midnightblue" d="M795.731,-195.858C796.006,-172.034 794.319,-104.001 768.5,-56 762.209,-44.3039 751.784,-33.8601 742.349,-25.985"/>
<polygon fill="midnightblue" stroke="midnightblue" points="744.463,-23.1949 734.441,-19.7587 740.133,-28.6948 744.463,-23.1949"/>
</g>
<!-- Node22&#45;&gt;Node21 -->
<g id="edge27" class="edge"><title>Node22&#45;&gt;Node21</title>
<path fill="none" stroke="midnightblue" d="M785.149,-195.886C774.06,-186.346 756.327,-170.168 743.5,-154 727.355,-133.65 712.546,-107.527 703.529,-90.4157"/>
<polygon fill="midnightblue" stroke="midnightblue" points="706.398,-88.3417 698.704,-81.0579 700.176,-91.55 706.398,-88.3417"/>
</g>
<!-- Node23 -->
<g id="node23" class="node"><title>Node23</title>
<polygon fill="none" stroke="#bfbfbf" points="1087.5,-129 1087.5,-148 1131.5,-148 1131.5,-129 1087.5,-129"/>
<text text-anchor="middle" x="1109.5" y="-136" font-family="Helvetica,sans-Serif" font-size="10.00">vector</text>
</g>
<!-- Node22&#45;&gt;Node23 -->
<g id="edge28" class="edge"><title>Node22&#45;&gt;Node23</title>
<path fill="none" stroke="midnightblue" d="M836.873,-195.936C900.21,-182.824 1019.88,-158.051 1077.25,-146.176"/>
<polygon fill="midnightblue" stroke="midnightblue" points="1078.12,-149.569 1087.21,-144.115 1076.7,-142.715 1078.12,-149.569"/>
</g>
<!-- Node24 -->
<g id="node24" class="node"><title>Node24</title>
<g id="a_node24"><a xlink:href="QualityObject_8h_source.html" target="_top" xlink:title="QualityControl/QualityObject.h">
<polygon fill="none" stroke="black" points="861,-129 861,-148 1010,-148 1010,-129 861,-129"/>
<text text-anchor="middle" x="935.5" y="-136" font-family="Helvetica,sans-Serif" font-size="10.00">QualityControl/QualityObject.h</text>
</a>
</g>
</g>
<!-- Node22&#45;&gt;Node24 -->
<g id="edge31" class="edge"><title>Node22&#45;&gt;Node24</title>
<path fill="none" stroke="midnightblue" d="M814.091,-195.869C838.044,-184.748 879.895,-165.317 907.654,-152.429"/>
<polygon fill="midnightblue" stroke="midnightblue" points="909.236,-155.553 916.832,-148.167 906.288,-149.204 909.236,-155.553"/>
</g>
<!-- Node24&#45;&gt;Node12 -->
<g id="edge32" class="edge"><title>Node24&#45;&gt;Node12</title>
<path fill="none" stroke="midnightblue" d="M906.371,-128.91C886.486,-121.355 861.629,-108.187 849.5,-87 842.655,-75.0428 842.898,-68.0929 849.5,-56 858.616,-39.3032 876.873,-27.8775 892.456,-20.7177"/>
<polygon fill="midnightblue" stroke="midnightblue" points="893.862,-23.9229 901.707,-16.8019 891.134,-17.4766 893.862,-23.9229"/>
</g>
<!-- Node24&#45;&gt;Node14 -->
<g id="edge33" class="edge"><title>Node24&#45;&gt;Node14</title>
<path fill="none" stroke="midnightblue" d="M1010.04,-130.955C1059.61,-124.485 1125.16,-111.773 1178.5,-87 1210.81,-71.9972 1242.12,-44.3611 1260.07,-26.8713"/>
<polygon fill="midnightblue" stroke="midnightblue" points="1262.72,-29.1706 1267.33,-19.6311 1257.78,-24.2137 1262.72,-29.1706"/>
</g>
<!-- Node24&#45;&gt;Node15 -->
<g id="edge34" class="edge"><title>Node24&#45;&gt;Node15</title>
<path fill="none" stroke="midnightblue" d="M1010.03,-129.527C1066.45,-121.905 1137.52,-108.364 1157.5,-87 1171.66,-71.8586 1173.06,-47.1462 1171.97,-30.0309"/>
<polygon fill="midnightblue" stroke="midnightblue" points="1175.41,-29.2149 1170.94,-19.6065 1168.44,-29.9017 1175.41,-29.2149"/>
</g>
<!-- Node25 -->
<g id="node25" class="node"><title>Node25</title>
<g id="a_node25"><a xlink:href="Quality_8h.html" target="_top" xlink:title="QualityControl/Quality.h">
<polygon fill="none" stroke="black" points="859,-62 859,-81 980,-81 980,-62 859,-62"/>
<text text-anchor="middle" x="919.5" y="-69" font-family="Helvetica,sans-Serif" font-size="10.00">QualityControl/Quality.h</text>
</a>
</g>
</g>
<!-- Node24&#45;&gt;Node25 -->
<g id="edge35" class="edge"><title>Node24&#45;&gt;Node25</title>
<path fill="none" stroke="midnightblue" d="M933.342,-128.734C930.967,-119.085 927.082,-103.3 924.031,-90.9063"/>
<polygon fill="midnightblue" stroke="midnightblue" points="927.412,-90.0009 921.624,-81.1273 920.615,-91.674 927.412,-90.0009"/>
</g>
<!-- Node25&#45;&gt;Node4 -->
<g id="edge37" class="edge"><title>Node25&#45;&gt;Node4</title>
<path fill="none" stroke="midnightblue" d="M869.354,-61.9751C795.71,-49.4557 660.515,-26.4726 600.088,-16.1999"/>
<polygon fill="midnightblue" stroke="midnightblue" points="600.486,-12.7175 590.041,-14.492 599.313,-19.6185 600.486,-12.7175"/>
</g>
<!-- Node25&#45;&gt;Node12 -->
<g id="edge38" class="edge"><title>Node25&#45;&gt;Node12</title>
<path fill="none" stroke="midnightblue" d="M919.5,-61.9751C919.5,-53.5803 919.5,-40.4806 919.5,-29.6631"/>
<polygon fill="midnightblue" stroke="midnightblue" points="923,-29.5091 919.5,-19.5091 916,-29.5091 923,-29.5091"/>
</g>
<!-- Node25&#45;&gt;Node13 -->
<g id="edge36" class="edge"><title>Node25&#45;&gt;Node13</title>
<path fill="none" stroke="midnightblue" d="M940.418,-61.9751C965.246,-51.8571 1006.84,-34.9046 1035.19,-23.3507"/>
<polygon fill="midnightblue" stroke="midnightblue" points="1036.68,-26.5243 1044.62,-19.5091 1034.04,-20.0419 1036.68,-26.5243"/>
</g>
<!-- Node27 -->
<g id="node27" class="node"><title>Node27</title>
<polygon fill="none" stroke="#bfbfbf" points="1278.5,-196 1278.5,-215 1408.5,-215 1408.5,-196 1278.5,-196"/>
<text text-anchor="middle" x="1343.5" y="-203" font-family="Helvetica,sans-Serif" font-size="10.00">InfoLogger/InfoLogger.hxx</text>
</g>
<!-- Node26&#45;&gt;Node27 -->
<g id="edge41" class="edge"><title>Node26&#45;&gt;Node27</title>
<path fill="none" stroke="midnightblue" d="M1339.22,-257.475C1339.92,-249.08 1341.02,-235.981 1341.93,-225.163"/>
<polygon fill="midnightblue" stroke="midnightblue" points="1345.44,-225.267 1342.78,-215.009 1338.46,-224.681 1345.44,-225.267"/>
</g>
<!-- Node28 -->
<g id="node28" class="node"><title>Node28</title>
<polygon fill="none" stroke="#bfbfbf" points="1426.5,-196 1426.5,-215 1588.5,-215 1588.5,-196 1426.5,-196"/>
<text text-anchor="middle" x="1507.5" y="-203" font-family="Helvetica,sans-Serif" font-size="10.00">InfoLogger/InfoLoggerMacros.hxx</text>
</g>
<!-- Node26&#45;&gt;Node28 -->
<g id="edge42" class="edge"><title>Node26&#45;&gt;Node28</title>
<path fill="none" stroke="midnightblue" d="M1362.71,-257.475C1391.83,-247.225 1440.87,-229.959 1473.7,-218.399"/>
<polygon fill="midnightblue" stroke="midnightblue" points="1475.06,-221.631 1483.33,-215.009 1472.74,-215.029 1475.06,-221.631"/>
</g>
<!-- Node29&#45;&gt;Node13 -->
<g id="edge47" class="edge"><title>Node29&#45;&gt;Node13</title>
<path fill="none" stroke="midnightblue" d="M1216.85,-195.664C1211.66,-185.664 1203.11,-168.833 1196.5,-154 1177.42,-111.181 1189.36,-90.3857 1157.5,-56 1142.95,-40.3013 1121.75,-29.4169 1103.36,-22.2901"/>
<polygon fill="midnightblue" stroke="midnightblue" points="1104.37,-18.9326 1093.77,-18.8055 1101.98,-25.5114 1104.37,-18.9326"/>
</g>
<!-- Node29&#45;&gt;Node14 -->
<g id="edge48" class="edge"><title>Node29&#45;&gt;Node14</title>
<path fill="none" stroke="midnightblue" d="M1249.92,-195.961C1280.64,-186.09 1326.54,-169.245 1336.5,-154 1364.3,-111.423 1318.14,-54.0636 1291.83,-26.7403"/>
<polygon fill="midnightblue" stroke="midnightblue" points="1294.24,-24.1979 1284.71,-19.5699 1289.27,-29.1312 1294.24,-24.1979"/>
</g>
<!-- Node29&#45;&gt;Node23 -->
<g id="edge44" class="edge"><title>Node29&#45;&gt;Node23</title>
<path fill="none" stroke="midnightblue" d="M1206.4,-195.734C1187.59,-184.818 1155.25,-166.049 1133.14,-153.221"/>
<polygon fill="midnightblue" stroke="midnightblue" points="1134.77,-150.12 1124.37,-148.127 1131.26,-156.174 1134.77,-150.12"/>
</g>
<!-- Node30 -->
<g id="node30" class="node"><title>Node30</title>
<polygon fill="none" stroke="#bfbfbf" points="1205.5,-129 1205.5,-148 1327.5,-148 1327.5,-129 1205.5,-129"/>
<text text-anchor="middle" x="1266.5" y="-136" font-family="Helvetica,sans-Serif" font-size="10.00">DataFormatsFT0/Digit.h</text>
</g>
<!-- Node29&#45;&gt;Node30 -->
<g id="edge45" class="edge"><title>Node29&#45;&gt;Node30</title>
<path fill="none" stroke="midnightblue" d="M1227.57,-195.734C1234.52,-185.695 1246.07,-169.014 1254.79,-156.421"/>
<polygon fill="midnightblue" stroke="midnightblue" points="1257.71,-158.341 1260.53,-148.127 1251.96,-154.357 1257.71,-158.341"/>
</g>
<!-- Node31 -->
<g id="node31" class="node"><title>Node31</title>
<polygon fill="none" stroke="#bfbfbf" points="1383,-129 1383,-148 1542,-148 1542,-129 1383,-129"/>
<text text-anchor="middle" x="1462.5" y="-136" font-family="Helvetica,sans-Serif" font-size="10.00">DataFormatsFT0/ChannelData.h</text>
</g>
<!-- Node29&#45;&gt;Node31 -->
<g id="edge46" class="edge"><title>Node29&#45;&gt;Node31</title>
<path fill="none" stroke="midnightblue" d="M1249.11,-195.965C1255.78,-193.96 1262.88,-191.865 1269.5,-190 1320.41,-175.656 1379.26,-160.456 1418.46,-150.524"/>
<polygon fill="midnightblue" stroke="midnightblue" points="1419.39,-153.898 1428.23,-148.055 1417.68,-147.112 1419.39,-153.898"/>
</g>
</g>
</svg>
        <g id="navigator" transform="translate(0 0)" fill="#404254">
                <rect fill="#f2f5e9" fill-opacity="0.5" stroke="#606060" stroke-width=".5" x="0" y="0" width="60" height="60"/>
                <use id="zoomplus" xlink:href="#zoomPlus" x="17" y="9" onmousedown="handleZoom(evt,'in')"/>
                <use id="zoomminus" xlink:href="#zoomMin" x="42" y="9" onmousedown="handleZoom(evt,'out')"/>
                <use id="reset" xlink:href="#resetDef" x="30" y="36" onmousedown="handleReset()"/>
                <g id="arrowUp" xlink:href="#dirArrow" transform="translate(30 24)" onmousedown="handlePan(0,-1)">
                  <use xlink:href="#rim" fill="#404040">
                        <set attributeName="fill" to="#808080" begin="arrowUp.mouseover" end="arrowUp.mouseout"/>
                  </use>
                  <path fill="none" stroke="white" stroke-width="1.5" d="M0,-3.0v7 M-2.5,-0.5L0,-3.0L2.5,-0.5"/>
                </g>
                <g id="arrowRight" xlink:href="#dirArrow" transform="rotate(90) translate(36 -43)" onmousedown="handlePan(1,0)">
                  <use xlink:href="#rim" fill="#404040">
                        <set attributeName="fill" to="#808080" begin="arrowRight.mouseover" end="arrowRight.mouseout"/>
                  </use>
                  <path fill="none" stroke="white" stroke-width="1.5" d="M0,-3.0v7 M-2.5,-0.5L0,-3.0L2.5,-0.5"/>
                </g>
                <g id="arrowDown" xlink:href="#dirArrow" transform="rotate(180) translate(-30 -48)" onmousedown="handlePan(0,1)">
                  <use xlink:href="#rim" fill="#404040">
                        <set attributeName="fill" to="#808080" begin="arrowDown.mouseover" end="arrowDown.mouseout"/>
                  </use>
                  <path fill="none" stroke="white" stroke-width="1.5" d="M0,-3.0v7 M-2.5,-0.5L0,-3.0L2.5,-0.5"/>
                </g>
                <g id="arrowLeft" xlink:href="#dirArrow" transform="rotate(270) translate(-36 17)" onmousedown="handlePan(-1,0)">
                  <use xlink:href="#rim" fill="#404040">
                        <set attributeName="fill" to="#808080" begin="arrowLeft.mouseover" end="arrowLeft.mouseout"/>
                  </use>
                  <path fill="none" stroke="white" stroke-width="1.5" d="M0,-3.0v7 M-2.5,-0.5L0,-3.0L2.5,-0.5"/>
                </g>
        </g>
        <svg viewBox="0 0 15 15" width="100%" height="30px" preserveAspectRatio="xMaxYMin meet">
         <g id="arrow_out" transform="scale(0.3 0.3)">
          <a xlink:href="TreeReaderPostProcessing_8cxx__incl_org.svg" target="_base">
           <rect id="button" ry="5" rx="5" y="6" x="6" height="38" width="38"
                fill="#f2f5e9" fill-opacity="0.5" stroke="#606060" stroke-width="1.0"/>
           <path id="arrow"
             d="M 11.500037,31.436501 C 11.940474,20.09759 22.043105,11.32322 32.158766,21.979434 L 37.068811,17.246167 C 37.068811,17.246167 37.088388,32 37.088388,32 L 22.160133,31.978069 C 22.160133,31.978069 26.997745,27.140456 26.997745,27.140456 C 18.528582,18.264221 13.291696,25.230495 11.500037,31.436501 z"
             style="fill:#404040;"/>
          </a>
         </g>
        </svg>
</svg>
