<?xml version="1.0" encoding="UTF-8" standalone="no"?>
<!DOCTYPE svg PUBLIC "-//W3C//DTD SVG 1.1//EN"
 "http://www.w3.org/Graphics/SVG/1.1/DTD/svg11.dtd">
<!-- Generated by graphviz version 2.38.0 (20140413.2041)
 -->
<!-- Title: Modules/ITS/src/TrendingTaskITSThr.cxx Pages: 1 -->
<!--zoomable 363 -->
<svg id="main" version="1.1" xmlns="http://www.w3.org/2000/svg" xmlns:xlink="http://www.w3.org/1999/xlink" xml:space="preserve" onload="init(evt)">
<style type="text/css"><![CDATA[
.edge:hover path { stroke: red; }
.edge:hover polygon { stroke: red; fill: red; }
]]></style>
<script type="text/javascript"><![CDATA[
var edges = document.getElementsByTagName('g');
if (edges && edges.length) {
  for (var i=0;i<edges.length;i++) {
    if (edges[i].id.substr(0,4)=='edge') {
      edges[i].setAttribute('class','edge');
    }
  }
}
]]></script>
        <defs>
                <circle id="rim" cx="0" cy="0" r="7"/>
                <circle id="rim2" cx="0" cy="0" r="3.5"/>
                <g id="zoomPlus">
                        <use xlink:href="#rim" fill="#404040">
                                <set attributeName="fill" to="#808080" begin="zoomplus.mouseover" end="zoomplus.mouseout"/>
                        </use>
                        <path d="M-4,0h8M0,-4v8" fill="none" stroke="white" stroke-width="1.5" pointer-events="none"/>
                </g>
                <g id="zoomMin">
                        <use xlink:href="#rim" fill="#404040">
                                <set attributeName="fill" to="#808080" begin="zoomminus.mouseover" end="zoomminus.mouseout"/>
                        </use>
                        <path d="M-4,0h8" fill="none" stroke="white" stroke-width="1.5" pointer-events="none"/>
                </g>
                <g id="dirArrow">
                        <path fill="none" stroke="white" stroke-width="1.5" d="M0,-3.0v7 M-2.5,-0.5L0,-3.0L2.5,-0.5"/>
                </g>
               <g id="resetDef">
                       <use xlink:href="#rim2" fill="#404040">
                               <set attributeName="fill" to="#808080" begin="reset.mouseover" end="reset.mouseout"/>
                       </use>
               </g>
        </defs>

<script type="text/javascript">
var viewWidth = 2317;
var viewHeight = 363;
var sectionId = 'dynsection-0';
</script>
<script xlink:href="svgpan.js"/>
<svg id="graph" class="graph">
<g id="viewport">
<title>Modules/ITS/src/TrendingTaskITSThr.cxx</title>
<!-- Node1 -->
<g id="node1" class="node"><title>Node1</title>
<polygon fill="#bfbfbf" stroke="black" points="1068.24,-324.5 1068.24,-354.5 1197.24,-354.5 1197.24,-324.5 1068.24,-324.5"/>
<text text-anchor="start" x="1076.24" y="-342.5" font-family="Helvetica,sans-Serif" font-size="10.00">Modules/ITS/src/Trending</text>
<text text-anchor="middle" x="1132.74" y="-331.5" font-family="Helvetica,sans-Serif" font-size="10.00">TaskITSThr.cxx</text>
</g>
<!-- Node2 -->
<g id="node2" class="node"><title>Node2</title>
<g id="a_node2"><a xlink:href="TrendingTaskITSThr_8h.html" target="_top" xlink:title="ITS/TrendingTaskITSThr.h">
<polygon fill="none" stroke="black" points="1681.24,-263 1681.24,-282 1814.24,-282 1814.24,-263 1681.24,-263"/>
<text text-anchor="middle" x="1747.74" y="-270" font-family="Helvetica,sans-Serif" font-size="10.00">ITS/TrendingTaskITSThr.h</text>
</a>
</g>
</g>
<!-- Node1&#45;&gt;Node2 -->
<g id="edge1" class="edge"><title>Node1&#45;&gt;Node2</title>
<path fill="none" stroke="midnightblue" d="M1197.39,-331.667C1311.68,-319.588 1548.84,-294.522 1671.13,-281.597"/>
<polygon fill="midnightblue" stroke="midnightblue" points="1671.59,-285.068 1681.16,-280.536 1670.85,-278.107 1671.59,-285.068"/>
</g>
<!-- Node14 -->
<g id="node14" class="node"><title>Node14</title>
<g id="a_node14"><a xlink:href="MonitorObject_8h.html" target="_top" xlink:title="QualityControl/MonitorObject.h">
<polygon fill="none" stroke="black" points="700.236,-62 700.236,-81 851.236,-81 851.236,-62 700.236,-62"/>
<text text-anchor="middle" x="775.736" y="-69" font-family="Helvetica,sans-Serif" font-size="10.00">QualityControl/MonitorObject.h</text>
</a>
</g>
</g>
<!-- Node1&#45;&gt;Node14 -->
<g id="edge67" class="edge"><title>Node1&#45;&gt;Node14</title>
<path fill="none" stroke="midnightblue" d="M1112.56,-324.245C1085.09,-303.975 1035.79,-264.43 1004.74,-221 977.069,-182.311 997.769,-154.048 961.736,-123 942.784,-106.67 882.515,-92.1879 835.66,-82.9659"/>
<polygon fill="midnightblue" stroke="midnightblue" points="836.067,-79.4798 825.585,-81.0222 834.741,-86.3531 836.067,-79.4798"/>
</g>
<!-- Node25 -->
<g id="node25" class="node"><title>Node25</title>
<g id="a_node25"><a xlink:href="Reductor_8h.html" target="_top" xlink:title="QualityControl/Reductor.h">
<polygon fill="none" stroke="black" points="822.736,-196 822.736,-215 952.736,-215 952.736,-196 822.736,-196"/>
<text text-anchor="middle" x="887.736" y="-203" font-family="Helvetica,sans-Serif" font-size="10.00">QualityControl/Reductor.h</text>
</a>
</g>
</g>
<!-- Node1&#45;&gt;Node25 -->
<g id="edge69" class="edge"><title>Node1&#45;&gt;Node25</title>
<path fill="none" stroke="midnightblue" d="M1068.09,-326.835C1035.99,-319.111 997.589,-306.837 966.736,-288 938.697,-270.88 913.673,-241.493 899.629,-223.077"/>
<polygon fill="midnightblue" stroke="midnightblue" points="902.421,-220.966 893.652,-215.02 896.799,-225.137 902.421,-220.966"/>
</g>
<!-- Node31 -->
<g id="node31" class="node"><title>Node31</title>
<g id="a_node31"><a xlink:href="RootClassFactory_8h.html" target="_top" xlink:title="QualityControl/RootClass\lFactory.h">
<polygon fill="none" stroke="black" points="196.736,-257.5 196.736,-287.5 324.736,-287.5 324.736,-257.5 196.736,-257.5"/>
<text text-anchor="start" x="204.736" y="-275.5" font-family="Helvetica,sans-Serif" font-size="10.00">QualityControl/RootClass</text>
<text text-anchor="middle" x="260.736" y="-264.5" font-family="Helvetica,sans-Serif" font-size="10.00">Factory.h</text>
</a>
</g>
</g>
<!-- Node1&#45;&gt;Node31 -->
<g id="edge42" class="edge"><title>Node1&#45;&gt;Node31</title>
<path fill="none" stroke="midnightblue" d="M1067.91,-333.668C909.318,-321.846 502.553,-291.525 334.788,-279.02"/>
<polygon fill="midnightblue" stroke="midnightblue" points="335.042,-275.529 324.81,-278.276 334.522,-282.51 335.042,-275.529"/>
</g>
<!-- Node36 -->
<g id="node36" class="node"><title>Node36</title>
<g id="a_node36"><a xlink:href="QcInfoLogger_8h.html" target="_top" xlink:title="QualityControl/QcInfoLogger.h">
<polygon fill="none" stroke="black" points="516.236,-196 516.236,-215 665.236,-215 665.236,-196 516.236,-196"/>
<text text-anchor="middle" x="590.736" y="-203" font-family="Helvetica,sans-Serif" font-size="10.00">QualityControl/QcInfoLogger.h</text>
</a>
</g>
</g>
<!-- Node1&#45;&gt;Node36 -->
<g id="edge68" class="edge"><title>Node1&#45;&gt;Node36</title>
<path fill="none" stroke="midnightblue" d="M1075.25,-324.499C966.705,-298.064 733.72,-241.323 635.677,-217.445"/>
<polygon fill="midnightblue" stroke="midnightblue" points="636.33,-214.002 625.786,-215.036 634.674,-220.803 636.33,-214.002"/>
</g>
<!-- Node39 -->
<g id="node39" class="node"><title>Node39</title>
<g id="a_node39"><a xlink:href="DatabaseInterface_8h.html" target="_top" xlink:title="QualityControl/DatabaseInterface.h">
<polygon fill="none" stroke="black" points="1047.74,-196 1047.74,-215 1217.74,-215 1217.74,-196 1047.74,-196"/>
<text text-anchor="middle" x="1132.74" y="-203" font-family="Helvetica,sans-Serif" font-size="10.00">QualityControl/DatabaseInterface.h</text>
</a>
</g>
</g>
<!-- Node1&#45;&gt;Node39 -->
<g id="edge52" class="edge"><title>Node1&#45;&gt;Node39</title>
<path fill="none" stroke="midnightblue" d="M1132.74,-324.374C1132.74,-300.504 1132.74,-252.181 1132.74,-225.415"/>
<polygon fill="midnightblue" stroke="midnightblue" points="1136.24,-225.097 1132.74,-215.097 1129.24,-225.097 1136.24,-225.097"/>
</g>
<!-- Node42 -->
<g id="node42" class="node"><title>Node42</title>
<polygon fill="none" stroke="#bfbfbf" points="1832.24,-263 1832.24,-282 1897.24,-282 1897.24,-263 1832.24,-263"/>
<text text-anchor="middle" x="1864.74" y="-270" font-family="Helvetica,sans-Serif" font-size="10.00">TCanvas.h</text>
</g>
<!-- Node1&#45;&gt;Node42 -->
<g id="edge70" class="edge"><title>Node1&#45;&gt;Node42</title>
<path fill="none" stroke="midnightblue" d="M1197.71,-339.315C1320.95,-339.638 1596.55,-334.496 1822.74,-288 1826.24,-287.279 1829.86,-286.343 1833.43,-285.294"/>
<polygon fill="midnightblue" stroke="midnightblue" points="1834.8,-288.528 1843.24,-282.12 1832.65,-281.868 1834.8,-288.528"/>
</g>
<!-- Node43 -->
<g id="node43" class="node"><title>Node43</title>
<polygon fill="none" stroke="#bfbfbf" points="1915.74,-263 1915.74,-282 1959.74,-282 1959.74,-263 1915.74,-263"/>
<text text-anchor="middle" x="1937.74" y="-270" font-family="Helvetica,sans-Serif" font-size="10.00">TH1.h</text>
</g>
<!-- Node1&#45;&gt;Node43 -->
<g id="edge71" class="edge"><title>Node1&#45;&gt;Node43</title>
<path fill="none" stroke="midnightblue" d="M1197.51,-337.253C1358.29,-333.679 1772.26,-321.421 1905.74,-288 1907.95,-287.446 1910.2,-286.745 1912.42,-285.952"/>
<polygon fill="midnightblue" stroke="midnightblue" points="1913.96,-289.103 1921.87,-282.05 1911.29,-282.633 1913.96,-289.103"/>
</g>
<!-- Node44 -->
<g id="node44" class="node"><title>Node44</title>
<polygon fill="none" stroke="#bfbfbf" points="1977.74,-263 1977.74,-282 2039.74,-282 2039.74,-263 1977.74,-263"/>
<text text-anchor="middle" x="2008.74" y="-270" font-family="Helvetica,sans-Serif" font-size="10.00">TDatime.h</text>
</g>
<!-- Node1&#45;&gt;Node44 -->
<g id="edge72" class="edge"><title>Node1&#45;&gt;Node44</title>
<path fill="none" stroke="midnightblue" d="M1197.31,-336.994C1366.82,-332.658 1821.54,-318.459 1968.74,-288 1972.17,-287.29 1975.7,-286.345 1979.18,-285.277"/>
<polygon fill="midnightblue" stroke="midnightblue" points="1980.38,-288.568 1988.71,-282.033 1978.12,-281.941 1980.38,-288.568"/>
</g>
<!-- Node3 -->
<g id="node3" class="node"><title>Node3</title>
<g id="a_node3"><a xlink:href="TrendingTaskConfigITS_8h_source.html" target="_top" xlink:title="ITS/TrendingTaskConfigITS.h">
<polygon fill="none" stroke="black" points="1257.24,-196 1257.24,-215 1404.24,-215 1404.24,-196 1257.24,-196"/>
<text text-anchor="middle" x="1330.74" y="-203" font-family="Helvetica,sans-Serif" font-size="10.00">ITS/TrendingTaskConfigITS.h</text>
</a>
</g>
</g>
<!-- Node2&#45;&gt;Node3 -->
<g id="edge2" class="edge"><title>Node2&#45;&gt;Node3</title>
<path fill="none" stroke="midnightblue" d="M1692.79,-262.936C1616.12,-250.985 1477.29,-229.344 1395.63,-216.615"/>
<polygon fill="midnightblue" stroke="midnightblue" points="1395.89,-213.114 1385.47,-215.032 1394.81,-220.03 1395.89,-213.114"/>
</g>
<!-- Node6 -->
<g id="node6" class="node"><title>Node6</title>
<polygon fill="none" stroke="#bfbfbf" points="1188.24,-0.5 1188.24,-19.5 1229.24,-19.5 1229.24,-0.5 1188.24,-0.5"/>
<text text-anchor="middle" x="1208.74" y="-7.5" font-family="Helvetica,sans-Serif" font-size="10.00">string</text>
</g>
<!-- Node2&#45;&gt;Node6 -->
<g id="edge40" class="edge"><title>Node2&#45;&gt;Node6</title>
<path fill="none" stroke="midnightblue" d="M1681.2,-271.796C1513.17,-271.851 1081.97,-267.422 1038.74,-221 995.953,-175.061 992.676,-162.668 1104.74,-56 1125.25,-36.4741 1155.58,-24.6787 1178.2,-18.0939"/>
<polygon fill="midnightblue" stroke="midnightblue" points="1179.26,-21.4328 1187.98,-15.426 1177.41,-14.6793 1179.26,-21.4328"/>
</g>
<!-- Node8 -->
<g id="node8" class="node"><title>Node8</title>
<g id="a_node8"><a xlink:href="PostProcessingInterface_8h.html" target="_top" xlink:title="QualityControl/PostProcessing\lInterface.h">
<polygon fill="none" stroke="black" points="1672.24,-190.5 1672.24,-220.5 1823.24,-220.5 1823.24,-190.5 1672.24,-190.5"/>
<text text-anchor="start" x="1680.24" y="-208.5" font-family="Helvetica,sans-Serif" font-size="10.00">QualityControl/PostProcessing</text>
<text text-anchor="middle" x="1747.74" y="-197.5" font-family="Helvetica,sans-Serif" font-size="10.00">Interface.h</text>
</a>
</g>
</g>
<!-- Node2&#45;&gt;Node8 -->
<g id="edge9" class="edge"><title>Node2&#45;&gt;Node8</title>
<path fill="none" stroke="midnightblue" d="M1747.74,-262.734C1747.74,-254.541 1747.74,-241.923 1747.74,-230.714"/>
<polygon fill="midnightblue" stroke="midnightblue" points="1751.24,-230.589 1747.74,-220.589 1744.24,-230.589 1751.24,-230.589"/>
</g>
<!-- Node23 -->
<g id="node23" class="node"><title>Node23</title>
<polygon fill="none" stroke="#bfbfbf" points="1955.24,-0.5 1955.24,-19.5 2038.24,-19.5 2038.24,-0.5 1955.24,-0.5"/>
<text text-anchor="middle" x="1996.74" y="-7.5" font-family="Helvetica,sans-Serif" font-size="10.00">unordered_map</text>
</g>
<!-- Node2&#45;&gt;Node23 -->
<g id="edge41" class="edge"><title>Node2&#45;&gt;Node23</title>
<path fill="none" stroke="midnightblue" d="M1764.8,-262.896C1797.11,-246.858 1869.73,-212.029 1933.74,-190 1994.89,-168.952 2034.68,-204.781 2074.74,-154 2101.71,-119.801 2097.62,-93.6587 2075.74,-56 2067,-40.9696 2051.16,-30.5428 2035.94,-23.5405"/>
<polygon fill="midnightblue" stroke="midnightblue" points="2037.19,-20.2692 2026.62,-19.6125 2034.47,-26.7202 2037.19,-20.2692"/>
</g>
<!-- Node24 -->
<g id="node24" class="node"><title>Node24</title>
<polygon fill="none" stroke="#bfbfbf" points="1818.74,-62 1818.74,-81 1870.74,-81 1870.74,-62 1818.74,-62"/>
<text text-anchor="middle" x="1844.74" y="-69" font-family="Helvetica,sans-Serif" font-size="10.00">memory</text>
</g>
<!-- Node2&#45;&gt;Node24 -->
<g id="edge39" class="edge"><title>Node2&#45;&gt;Node24</title>
<path fill="none" stroke="midnightblue" d="M1771.28,-262.851C1790.18,-254.764 1816.06,-240.926 1831.74,-221 1861.53,-183.126 1854.86,-121.78 1849.01,-91.1472"/>
<polygon fill="midnightblue" stroke="midnightblue" points="1852.36,-90.0913 1846.88,-81.0237 1845.51,-91.5295 1852.36,-90.0913"/>
</g>
<!-- Node2&#45;&gt;Node25 -->
<g id="edge32" class="edge"><title>Node2&#45;&gt;Node25</title>
<path fill="none" stroke="midnightblue" d="M1681.03,-268.209C1550.83,-261.51 1253.77,-244.876 1004.74,-221 990.719,-219.656 975.785,-217.987 961.44,-216.265"/>
<polygon fill="midnightblue" stroke="midnightblue" points="961.47,-212.743 951.12,-215.006 960.622,-219.691 961.47,-212.743"/>
</g>
<!-- Node26 -->
<g id="node26" class="node"><title>Node26</title>
<polygon fill="none" stroke="#bfbfbf" points="1942.74,-196 1942.74,-215 1992.74,-215 1992.74,-196 1942.74,-196"/>
<text text-anchor="middle" x="1967.74" y="-203" font-family="Helvetica,sans-Serif" font-size="10.00">TAxis.h</text>
</g>
<!-- Node2&#45;&gt;Node26 -->
<g id="edge34" class="edge"><title>Node2&#45;&gt;Node26</title>
<path fill="none" stroke="midnightblue" d="M1781.68,-262.938C1818.24,-253.505 1878,-237.476 1928.74,-221 1931.14,-220.219 1933.62,-219.381 1936.1,-218.515"/>
<polygon fill="midnightblue" stroke="midnightblue" points="1937.35,-221.785 1945.58,-215.106 1934.98,-215.198 1937.35,-221.785"/>
</g>
<!-- Node27 -->
<g id="node27" class="node"><title>Node27</title>
<polygon fill="none" stroke="#bfbfbf" points="2010.74,-196 2010.74,-215 2064.74,-215 2064.74,-196 2010.74,-196"/>
<text text-anchor="middle" x="2037.74" y="-203" font-family="Helvetica,sans-Serif" font-size="10.00">TColor.h</text>
</g>
<!-- Node2&#45;&gt;Node27 -->
<g id="edge35" class="edge"><title>Node2&#45;&gt;Node27</title>
<path fill="none" stroke="midnightblue" d="M1791.79,-262.962C1861.82,-249.359 1991.7,-223.989 2001.74,-221 2004.17,-220.276 2006.66,-219.452 2009.14,-218.572"/>
<polygon fill="midnightblue" stroke="midnightblue" points="2010.44,-221.825 2018.54,-215.001 2007.95,-215.282 2010.44,-221.825"/>
</g>
<!-- Node28 -->
<g id="node28" class="node"><title>Node28</title>
<polygon fill="none" stroke="#bfbfbf" points="2083.24,-196 2083.24,-215 2140.24,-215 2140.24,-196 2083.24,-196"/>
<text text-anchor="middle" x="2111.74" y="-203" font-family="Helvetica,sans-Serif" font-size="10.00">TGraph.h</text>
</g>
<!-- Node2&#45;&gt;Node28 -->
<g id="edge36" class="edge"><title>Node2&#45;&gt;Node28</title>
<path fill="none" stroke="midnightblue" d="M1790.11,-262.935C1800.74,-260.889 1812.14,-258.783 1822.74,-257 1933.87,-238.299 1964.64,-249.263 2073.74,-221 2076.56,-220.27 2079.45,-219.398 2082.33,-218.45"/>
<polygon fill="midnightblue" stroke="midnightblue" points="2083.66,-221.692 2091.89,-215.024 2081.3,-215.102 2083.66,-221.692"/>
</g>
<!-- Node29 -->
<g id="node29" class="node"><title>Node29</title>
<polygon fill="none" stroke="#bfbfbf" points="2158.74,-196 2158.74,-215 2220.74,-215 2220.74,-196 2158.74,-196"/>
<text text-anchor="middle" x="2189.74" y="-203" font-family="Helvetica,sans-Serif" font-size="10.00">TLegend.h</text>
</g>
<!-- Node2&#45;&gt;Node29 -->
<g id="edge37" class="edge"><title>Node2&#45;&gt;Node29</title>
<path fill="none" stroke="midnightblue" d="M1788.5,-262.996C1799.58,-260.856 1811.59,-258.69 1822.74,-257 1966.86,-235.147 2006.64,-253.516 2148.74,-221 2151.97,-220.259 2155.31,-219.344 2158.62,-218.338"/>
<polygon fill="midnightblue" stroke="midnightblue" points="2159.92,-221.593 2168.31,-215.123 2157.71,-214.949 2159.92,-221.593"/>
</g>
<!-- Node30 -->
<g id="node30" class="node"><title>Node30</title>
<polygon fill="none" stroke="#bfbfbf" points="2238.74,-196 2238.74,-215 2288.74,-215 2288.74,-196 2238.74,-196"/>
<text text-anchor="middle" x="2263.74" y="-203" font-family="Helvetica,sans-Serif" font-size="10.00">TTree.h</text>
</g>
<!-- Node2&#45;&gt;Node30 -->
<g id="edge38" class="edge"><title>Node2&#45;&gt;Node30</title>
<path fill="none" stroke="midnightblue" d="M1787.7,-262.985C1798.99,-260.794 1811.31,-258.605 1822.74,-257 2002.56,-231.732 2053.59,-265.165 2229.74,-221 2232.1,-220.407 2234.51,-219.672 2236.9,-218.848"/>
<polygon fill="midnightblue" stroke="midnightblue" points="2238.42,-222.014 2246.45,-215.112 2235.87,-215.495 2238.42,-222.014"/>
</g>
<!-- Node4 -->
<g id="node4" class="node"><title>Node4</title>
<g id="a_node4"><a xlink:href="PostProcessingConfig_8h.html" target="_top" xlink:title="QualityControl/PostProcessing\lConfig.h">
<polygon fill="none" stroke="black" points="1275.24,-123.5 1275.24,-153.5 1426.24,-153.5 1426.24,-123.5 1275.24,-123.5"/>
<text text-anchor="start" x="1283.24" y="-141.5" font-family="Helvetica,sans-Serif" font-size="10.00">QualityControl/PostProcessing</text>
<text text-anchor="middle" x="1350.74" y="-130.5" font-family="Helvetica,sans-Serif" font-size="10.00">Config.h</text>
</a>
</g>
</g>
<!-- Node3&#45;&gt;Node4 -->
<g id="edge3" class="edge"><title>Node3&#45;&gt;Node4</title>
<path fill="none" stroke="midnightblue" d="M1333.43,-195.734C1335.98,-187.456 1339.92,-174.662 1343.39,-163.367"/>
<polygon fill="midnightblue" stroke="midnightblue" points="1346.81,-164.176 1346.4,-153.589 1340.12,-162.117 1346.81,-164.176"/>
</g>
<!-- Node5 -->
<g id="node5" class="node"><title>Node5</title>
<polygon fill="none" stroke="#bfbfbf" points="1236.74,-62 1236.74,-81 1280.74,-81 1280.74,-62 1236.74,-62"/>
<text text-anchor="middle" x="1258.74" y="-69" font-family="Helvetica,sans-Serif" font-size="10.00">vector</text>
</g>
<!-- Node3&#45;&gt;Node5 -->
<g id="edge8" class="edge"><title>Node3&#45;&gt;Node5</title>
<path fill="none" stroke="midnightblue" d="M1312.71,-195.882C1297.36,-187.495 1276.18,-173.209 1265.74,-154 1255.16,-134.554 1254.87,-108.577 1256.26,-91.2294"/>
<polygon fill="midnightblue" stroke="midnightblue" points="1259.74,-91.5454 1257.32,-81.2311 1252.78,-90.8046 1259.74,-91.5454"/>
</g>
<!-- Node3&#45;&gt;Node6 -->
<g id="edge7" class="edge"><title>Node3&#45;&gt;Node6</title>
<path fill="none" stroke="midnightblue" d="M1311.18,-195.953C1293.94,-187.527 1269.22,-173.14 1253.74,-154 1223.68,-116.846 1213.59,-59.4189 1210.28,-29.9174"/>
<polygon fill="midnightblue" stroke="midnightblue" points="1213.75,-29.3727 1209.3,-19.758 1206.78,-30.0497 1213.75,-29.3727"/>
</g>
<!-- Node4&#45;&gt;Node5 -->
<g id="edge4" class="edge"><title>Node4&#45;&gt;Node5</title>
<path fill="none" stroke="midnightblue" d="M1330.77,-123.396C1315.49,-112.597 1294.48,-97.7564 1279.1,-86.8872"/>
<polygon fill="midnightblue" stroke="midnightblue" points="1280.96,-83.9188 1270.78,-81.007 1276.92,-89.6359 1280.96,-83.9188"/>
</g>
<!-- Node4&#45;&gt;Node6 -->
<g id="edge5" class="edge"><title>Node4&#45;&gt;Node6</title>
<path fill="none" stroke="midnightblue" d="M1342.74,-123.391C1332.3,-105.91 1312.64,-75.9915 1289.74,-56 1274.54,-42.7343 1254.8,-31.6679 1238.61,-23.8289"/>
<polygon fill="midnightblue" stroke="midnightblue" points="1240.09,-20.6577 1229.55,-19.5941 1237.13,-26.9992 1240.09,-20.6577"/>
</g>
<!-- Node7 -->
<g id="node7" class="node"><title>Node7</title>
<polygon fill="none" stroke="#bfbfbf" points="1420.24,-56.5 1420.24,-86.5 1521.24,-86.5 1521.24,-56.5 1420.24,-56.5"/>
<text text-anchor="start" x="1428.24" y="-74.5" font-family="Helvetica,sans-Serif" font-size="10.00">boost/property_tree</text>
<text text-anchor="middle" x="1470.74" y="-63.5" font-family="Helvetica,sans-Serif" font-size="10.00">/ptree_fwd.hpp</text>
</g>
<!-- Node4&#45;&gt;Node7 -->
<g id="edge6" class="edge"><title>Node4&#45;&gt;Node7</title>
<path fill="none" stroke="midnightblue" d="M1376.77,-123.396C1394.07,-114.026 1416.98,-101.615 1435.85,-91.395"/>
<polygon fill="midnightblue" stroke="midnightblue" points="1437.62,-94.4169 1444.75,-86.5765 1434.29,-88.2619 1437.62,-94.4169"/>
</g>
<!-- Node8&#45;&gt;Node6 -->
<g id="edge10" class="edge"><title>Node8&#45;&gt;Node6</title>
<path fill="none" stroke="midnightblue" d="M1779.88,-190.336C1794.56,-182.034 1810.48,-169.997 1818.74,-154 1825.05,-141.756 1822.95,-136.118 1818.74,-123 1807.53,-88.1244 1802.62,-74.0267 1770.74,-56 1724.35,-29.778 1350.27,-15.6069 1239.52,-11.9575"/>
<polygon fill="midnightblue" stroke="midnightblue" points="1239.46,-8.45384 1229.35,-11.6278 1239.24,-15.4502 1239.46,-8.45384"/>
</g>
<!-- Node8&#45;&gt;Node7 -->
<g id="edge12" class="edge"><title>Node8&#45;&gt;Node7</title>
<path fill="none" stroke="midnightblue" d="M1726.65,-190.309C1712.15,-180.399 1692.54,-166.717 1675.74,-154 1658.36,-140.845 1656.98,-133.238 1637.74,-123 1604.42,-105.271 1563.97,-92.8364 1531.22,-84.7425"/>
<polygon fill="midnightblue" stroke="midnightblue" points="1531.86,-81.2974 1521.32,-82.3689 1530.23,-88.1044 1531.86,-81.2974"/>
</g>
<!-- Node9 -->
<g id="node9" class="node"><title>Node9</title>
<polygon fill="none" stroke="#bfbfbf" points="1482.74,-129 1482.74,-148 1628.74,-148 1628.74,-129 1482.74,-129"/>
<text text-anchor="middle" x="1555.74" y="-136" font-family="Helvetica,sans-Serif" font-size="10.00">Framework/ServiceRegistry.h</text>
</g>
<!-- Node8&#45;&gt;Node9 -->
<g id="edge11" class="edge"><title>Node8&#45;&gt;Node9</title>
<path fill="none" stroke="midnightblue" d="M1706.08,-190.396C1671.49,-178.688 1622.88,-162.231 1590.4,-151.234"/>
<polygon fill="midnightblue" stroke="midnightblue" points="1591.46,-147.899 1580.86,-148.007 1589.21,-154.529 1591.46,-147.899"/>
</g>
<!-- Node10 -->
<g id="node10" class="node"><title>Node10</title>
<g id="a_node10"><a xlink:href="Triggers_8h.html" target="_top" xlink:title="QualityControl/Triggers.h">
<polygon fill="none" stroke="black" points="1685.24,-129 1685.24,-148 1810.24,-148 1810.24,-129 1685.24,-129"/>
<text text-anchor="middle" x="1747.74" y="-136" font-family="Helvetica,sans-Serif" font-size="10.00">QualityControl/Triggers.h</text>
</a>
</g>
</g>
<!-- Node8&#45;&gt;Node10 -->
<g id="edge13" class="edge"><title>Node8&#45;&gt;Node10</title>
<path fill="none" stroke="midnightblue" d="M1747.74,-190.396C1747.74,-181.064 1747.74,-168.714 1747.74,-158.517"/>
<polygon fill="midnightblue" stroke="midnightblue" points="1751.24,-158.195 1747.74,-148.195 1744.24,-158.195 1751.24,-158.195"/>
</g>
<!-- Node13 -->
<g id="node13" class="node"><title>Node13</title>
<g id="a_node13"><a xlink:href="ObjectsManager_8h.html" target="_top" xlink:title="QualityControl/ObjectsManager.h">
<polygon fill="none" stroke="black" points="1905.24,-129 1905.24,-148 2066.24,-148 2066.24,-129 1905.24,-129"/>
<text text-anchor="middle" x="1985.74" y="-136" font-family="Helvetica,sans-Serif" font-size="10.00">QualityControl/ObjectsManager.h</text>
</a>
</g>
</g>
<!-- Node8&#45;&gt;Node13 -->
<g id="edge17" class="edge"><title>Node8&#45;&gt;Node13</title>
<path fill="none" stroke="midnightblue" d="M1799.09,-190.476C1842.67,-178.572 1904.39,-161.716 1944.74,-150.698"/>
<polygon fill="midnightblue" stroke="midnightblue" points="1945.78,-154.04 1954.51,-148.029 1943.94,-147.287 1945.78,-154.04"/>
</g>
<!-- Node10&#45;&gt;Node6 -->
<g id="edge14" class="edge"><title>Node10&#45;&gt;Node6</title>
<path fill="none" stroke="midnightblue" d="M1740.6,-128.735C1724.72,-109.488 1686.49,-64.5579 1668.74,-56 1592.51,-19.2482 1329.62,-12.5095 1239.41,-11.2759"/>
<polygon fill="midnightblue" stroke="midnightblue" points="1239.33,-7.77472 1229.29,-11.1511 1239.24,-14.7742 1239.33,-7.77472"/>
</g>
<!-- Node11 -->
<g id="node11" class="node"><title>Node11</title>
<polygon fill="none" stroke="#bfbfbf" points="1601.24,-62 1601.24,-81 1660.24,-81 1660.24,-62 1601.24,-62"/>
<text text-anchor="middle" x="1630.74" y="-69" font-family="Helvetica,sans-Serif" font-size="10.00">functional</text>
</g>
<!-- Node10&#45;&gt;Node11 -->
<g id="edge15" class="edge"><title>Node10&#45;&gt;Node11</title>
<path fill="none" stroke="midnightblue" d="M1731.96,-128.734C1712.22,-117.769 1678.22,-98.8809 1655.13,-86.0495"/>
<polygon fill="midnightblue" stroke="midnightblue" points="1656.71,-82.9242 1646.27,-81.1273 1653.31,-89.0433 1656.71,-82.9242"/>
</g>
<!-- Node12 -->
<g id="node12" class="node"><title>Node12</title>
<polygon fill="none" stroke="#bfbfbf" points="1717.24,-62 1717.24,-81 1762.24,-81 1762.24,-62 1717.24,-62"/>
<text text-anchor="middle" x="1739.74" y="-69" font-family="Helvetica,sans-Serif" font-size="10.00">iosfwd</text>
</g>
<!-- Node10&#45;&gt;Node12 -->
<g id="edge16" class="edge"><title>Node10&#45;&gt;Node12</title>
<path fill="none" stroke="midnightblue" d="M1746.66,-128.734C1745.48,-119.183 1743.57,-103.618 1742.05,-91.2829"/>
<polygon fill="midnightblue" stroke="midnightblue" points="1745.49,-90.6248 1740.8,-81.1273 1738.55,-91.48 1745.49,-90.6248"/>
</g>
<!-- Node13&#45;&gt;Node6 -->
<g id="edge30" class="edge"><title>Node13&#45;&gt;Node6</title>
<path fill="none" stroke="midnightblue" d="M1973.57,-128.724C1959.87,-118.778 1937,-101.996 1917.74,-87 1900.54,-73.6101 1900.01,-63.996 1879.74,-56 1760.97,-9.16376 1355.43,-9.50928 1239.76,-10.6045"/>
<polygon fill="midnightblue" stroke="midnightblue" points="1239.46,-7.10743 1229.49,-10.7113 1239.53,-14.1071 1239.46,-7.10743"/>
</g>
<!-- Node13&#45;&gt;Node14 -->
<g id="edge18" class="edge"><title>Node13&#45;&gt;Node14</title>
<path fill="none" stroke="midnightblue" d="M1905.1,-129.694C1877.71,-127.257 1846.91,-124.751 1818.74,-123 1393.04,-96.5447 1283.94,-131.375 859.736,-87 849.691,-85.9492 839.031,-84.428 828.799,-82.7621"/>
<polygon fill="midnightblue" stroke="midnightblue" points="829.192,-79.2788 818.748,-81.0599 828.023,-86.1805 829.192,-79.2788"/>
</g>
<!-- Node19 -->
<g id="node19" class="node"><title>Node19</title>
<g id="a_node19"><a xlink:href="MonitorObjectCollection_8h.html" target="_top" xlink:title="QualityControl/MonitorObject\lCollection.h">
<polygon fill="none" stroke="black" points="2123.24,-56.5 2123.24,-86.5 2266.24,-86.5 2266.24,-56.5 2123.24,-56.5"/>
<text text-anchor="start" x="2131.24" y="-74.5" font-family="Helvetica,sans-Serif" font-size="10.00">QualityControl/MonitorObject</text>
<text text-anchor="middle" x="2194.74" y="-63.5" font-family="Helvetica,sans-Serif" font-size="10.00">Collection.h</text>
</a>
</g>
</g>
<!-- Node13&#45;&gt;Node19 -->
<g id="edge24" class="edge"><title>Node13&#45;&gt;Node19</title>
<path fill="none" stroke="midnightblue" d="M2013.49,-128.869C2045.6,-118.883 2099.25,-102.197 2139.87,-89.5642"/>
<polygon fill="midnightblue" stroke="midnightblue" points="2141.12,-92.84 2149.63,-86.5281 2139.04,-86.1558 2141.12,-92.84"/>
</g>
<!-- Node22 -->
<g id="node22" class="node"><title>Node22</title>
<g id="a_node22"><a xlink:href="TaskConfig_8h.html" target="_top" xlink:title="QualityControl/TaskConfig.h">
<polygon fill="none" stroke="black" points="1926.74,-62 1926.74,-81 2066.74,-81 2066.74,-62 1926.74,-62"/>
<text text-anchor="middle" x="1996.74" y="-69" font-family="Helvetica,sans-Serif" font-size="10.00">QualityControl/TaskConfig.h</text>
</a>
</g>
</g>
<!-- Node13&#45;&gt;Node22 -->
<g id="edge27" class="edge"><title>Node13&#45;&gt;Node22</title>
<path fill="none" stroke="midnightblue" d="M1987.22,-128.734C1988.84,-119.183 1991.47,-103.618 1993.56,-91.2829"/>
<polygon fill="midnightblue" stroke="midnightblue" points="1997.06,-91.5711 1995.28,-81.1273 1990.16,-90.4031 1997.06,-91.5711"/>
</g>
<!-- Node13&#45;&gt;Node24 -->
<g id="edge31" class="edge"><title>Node13&#45;&gt;Node24</title>
<path fill="none" stroke="midnightblue" d="M1967.01,-128.869C1942.89,-117.748 1900.74,-98.3167 1872.78,-85.4286"/>
<polygon fill="midnightblue" stroke="midnightblue" points="1874.08,-82.1752 1863.54,-81.1672 1871.15,-88.5323 1874.08,-82.1752"/>
</g>
<!-- Node14&#45;&gt;Node6 -->
<g id="edge19" class="edge"><title>Node14&#45;&gt;Node6</title>
<path fill="none" stroke="midnightblue" d="M823.212,-61.9407C835.121,-59.894 847.883,-57.7864 859.736,-56 976.847,-38.3504 1116.72,-21.6263 1177.73,-14.5472"/>
<polygon fill="midnightblue" stroke="midnightblue" points="1178.31,-18.0034 1187.84,-13.3783 1177.51,-11.0497 1178.31,-18.0034"/>
</g>
<!-- Node15 -->
<g id="node15" class="node"><title>Node15</title>
<polygon fill="none" stroke="#bfbfbf" points="758.236,-0.5 758.236,-19.5 793.236,-19.5 793.236,-0.5 758.236,-0.5"/>
<text text-anchor="middle" x="775.736" y="-7.5" font-family="Helvetica,sans-Serif" font-size="10.00">map</text>
</g>
<!-- Node14&#45;&gt;Node15 -->
<g id="edge20" class="edge"><title>Node14&#45;&gt;Node15</title>
<path fill="none" stroke="midnightblue" d="M775.736,-61.9751C775.736,-53.5803 775.736,-40.4806 775.736,-29.6631"/>
<polygon fill="midnightblue" stroke="midnightblue" points="779.236,-29.5091 775.736,-19.5091 772.236,-29.5091 779.236,-29.5091"/>
</g>
<!-- Node16 -->
<g id="node16" class="node"><title>Node16</title>
<polygon fill="none" stroke="#bfbfbf" points="856.736,-0.5 856.736,-19.5 912.736,-19.5 912.736,-0.5 856.736,-0.5"/>
<text text-anchor="middle" x="884.736" y="-7.5" font-family="Helvetica,sans-Serif" font-size="10.00">Rtypes.h</text>
</g>
<!-- Node14&#45;&gt;Node16 -->
<g id="edge21" class="edge"><title>Node14&#45;&gt;Node16</title>
<path fill="none" stroke="midnightblue" d="M791.353,-61.9751C809.322,-52.1664 839.058,-35.9346 860.143,-24.425"/>
<polygon fill="midnightblue" stroke="midnightblue" points="862.048,-27.3726 869.148,-19.5091 858.694,-21.2284 862.048,-27.3726"/>
</g>
<!-- Node17 -->
<g id="node17" class="node"><title>Node17</title>
<polygon fill="none" stroke="#bfbfbf" points="611.236,-0.5 611.236,-19.5 670.236,-19.5 670.236,-0.5 611.236,-0.5"/>
<text text-anchor="middle" x="640.736" y="-7.5" font-family="Helvetica,sans-Serif" font-size="10.00">TObject.h</text>
</g>
<!-- Node14&#45;&gt;Node17 -->
<g id="edge22" class="edge"><title>Node14&#45;&gt;Node17</title>
<path fill="none" stroke="midnightblue" d="M756.394,-61.9751C733.638,-51.9455 695.644,-35.2002 669.448,-23.6546"/>
<polygon fill="midnightblue" stroke="midnightblue" points="670.605,-20.3395 660.043,-19.5091 667.782,-26.7449 670.605,-20.3395"/>
</g>
<!-- Node18 -->
<g id="node18" class="node"><title>Node18</title>
<polygon fill="none" stroke="#bfbfbf" points="476.736,-0.5 476.736,-19.5 592.736,-19.5 592.736,-0.5 476.736,-0.5"/>
<text text-anchor="middle" x="534.736" y="-7.5" font-family="Helvetica,sans-Serif" font-size="10.00">Common/Exceptions.h</text>
</g>
<!-- Node14&#45;&gt;Node18 -->
<g id="edge23" class="edge"><title>Node14&#45;&gt;Node18</title>
<path fill="none" stroke="midnightblue" d="M741.207,-61.9751C698.525,-51.4374 625.815,-33.4863 579.054,-21.9415"/>
<polygon fill="midnightblue" stroke="midnightblue" points="579.749,-18.5081 569.202,-19.5091 578.071,-25.304 579.749,-18.5081"/>
</g>
<!-- Node20 -->
<g id="node20" class="node"><title>Node20</title>
<polygon fill="none" stroke="#bfbfbf" points="2240.24,-0.5 2240.24,-19.5 2309.24,-19.5 2309.24,-0.5 2240.24,-0.5"/>
<text text-anchor="middle" x="2274.74" y="-7.5" font-family="Helvetica,sans-Serif" font-size="10.00">TObjArray.h</text>
</g>
<!-- Node19&#45;&gt;Node20 -->
<g id="edge25" class="edge"><title>Node19&#45;&gt;Node20</title>
<path fill="none" stroke="midnightblue" d="M2213.7,-56.3993C2226.16,-47.1293 2242.43,-35.0254 2255.04,-25.6469"/>
<polygon fill="midnightblue" stroke="midnightblue" points="2257.16,-28.4341 2263.1,-19.6578 2252.98,-22.8173 2257.16,-28.4341"/>
</g>
<!-- Node21 -->
<g id="node21" class="node"><title>Node21</title>
<polygon fill="none" stroke="#bfbfbf" points="2093.74,-0.5 2093.74,-19.5 2221.74,-19.5 2221.74,-0.5 2093.74,-0.5"/>
<text text-anchor="middle" x="2157.74" y="-7.5" font-family="Helvetica,sans-Serif" font-size="10.00">Mergers/MergeInterface.h</text>
</g>
<!-- Node19&#45;&gt;Node21 -->
<g id="edge26" class="edge"><title>Node19&#45;&gt;Node21</title>
<path fill="none" stroke="midnightblue" d="M2185.97,-56.3993C2180.76,-48.0207 2174.11,-37.3269 2168.57,-28.4229"/>
<polygon fill="midnightblue" stroke="midnightblue" points="2171.37,-26.3015 2163.12,-19.6578 2165.43,-29.9981 2171.37,-26.3015"/>
</g>
<!-- Node22&#45;&gt;Node6 -->
<g id="edge28" class="edge"><title>Node22&#45;&gt;Node6</title>
<path fill="none" stroke="midnightblue" d="M1952.4,-61.9327C1939.64,-59.7152 1925.67,-57.5252 1912.74,-56 1653.36,-25.4123 1337.59,-14.5583 1239.37,-11.7865"/>
<polygon fill="midnightblue" stroke="midnightblue" points="1239.35,-8.28463 1229.25,-11.5082 1239.15,-15.282 1239.35,-8.28463"/>
</g>
<!-- Node22&#45;&gt;Node23 -->
<g id="edge29" class="edge"><title>Node22&#45;&gt;Node23</title>
<path fill="none" stroke="midnightblue" d="M1996.74,-61.9751C1996.74,-53.5803 1996.74,-40.4806 1996.74,-29.6631"/>
<polygon fill="midnightblue" stroke="midnightblue" points="2000.24,-29.5091 1996.74,-19.5091 1993.24,-29.5091 2000.24,-29.5091"/>
</g>
<!-- Node25&#45;&gt;Node17 -->
<g id="edge33" class="edge"><title>Node25&#45;&gt;Node17</title>
<path fill="none" stroke="midnightblue" d="M869.281,-195.846C850.05,-186.518 819.345,-170.743 794.736,-154 776.999,-141.932 776.404,-133.572 757.736,-123 715.175,-98.8951 685.377,-124.301 653.736,-87 640.369,-71.2412 638.396,-46.8516 638.936,-29.9709"/>
<polygon fill="midnightblue" stroke="midnightblue" points="642.449,-29.8877 639.602,-19.6824 635.463,-29.4352 642.449,-29.8877"/>
</g>
<!-- Node31&#45;&gt;Node6 -->
<g id="edge43" class="edge"><title>Node31&#45;&gt;Node6</title>
<path fill="none" stroke="midnightblue" d="M324.894,-257.986C348.05,-250.392 372.858,-238.732 390.736,-221 424.02,-187.989 391.792,-150.528 429.736,-123 481.013,-85.8005 937.127,-101.743 998.736,-87 1032.62,-78.892 1038.14,-68.3023 1070.74,-56 1107.27,-42.2104 1150.14,-28.6258 1178.29,-20.0511"/>
<polygon fill="midnightblue" stroke="midnightblue" points="1179.4,-23.373 1187.96,-17.1276 1177.37,-16.6728 1179.4,-23.373"/>
</g>
<!-- Node31&#45;&gt;Node18 -->
<g id="edge44" class="edge"><title>Node31&#45;&gt;Node18</title>
<path fill="none" stroke="midnightblue" d="M196.673,-271.985C107.336,-270.292 -38.5882,-257.532 9.73631,-190 115.267,-42.5235 349.628,-15.1566 466.177,-10.9944"/>
<polygon fill="midnightblue" stroke="midnightblue" points="466.514,-14.4857 476.401,-10.6782 466.297,-7.48905 466.514,-14.4857"/>
</g>
<!-- Node32 -->
<g id="node32" class="node"><title>Node32</title>
<polygon fill="none" stroke="#bfbfbf" points="18.7363,-196 18.7363,-215 74.7363,-215 74.7363,-196 18.7363,-196"/>
<text text-anchor="middle" x="46.7363" y="-203" font-family="Helvetica,sans-Serif" font-size="10.00">TClass.h</text>
</g>
<!-- Node31&#45;&gt;Node32 -->
<g id="edge45" class="edge"><title>Node31&#45;&gt;Node32</title>
<path fill="none" stroke="midnightblue" d="M206.489,-257.465C171.247,-247.994 124.457,-234.753 83.7363,-221 81.6119,-220.283 79.4306,-219.514 77.2411,-218.718"/>
<polygon fill="midnightblue" stroke="midnightblue" points="78.3317,-215.388 67.7399,-215.133 75.8604,-221.938 78.3317,-215.388"/>
</g>
<!-- Node33 -->
<g id="node33" class="node"><title>Node33</title>
<polygon fill="none" stroke="#bfbfbf" points="93.2363,-196 93.2363,-215 152.236,-215 152.236,-196 93.2363,-196"/>
<text text-anchor="middle" x="122.736" y="-203" font-family="Helvetica,sans-Serif" font-size="10.00">TROOT.h</text>
</g>
<!-- Node31&#45;&gt;Node33 -->
<g id="edge46" class="edge"><title>Node31&#45;&gt;Node33</title>
<path fill="none" stroke="midnightblue" d="M230.792,-257.396C206.793,-246.092 173.394,-230.361 150.103,-219.39"/>
<polygon fill="midnightblue" stroke="midnightblue" points="151.335,-216.102 140.797,-215.007 148.353,-222.435 151.335,-216.102"/>
</g>
<!-- Node34 -->
<g id="node34" class="node"><title>Node34</title>
<polygon fill="none" stroke="#bfbfbf" points="170.236,-196 170.236,-215 235.236,-215 235.236,-196 170.236,-196"/>
<text text-anchor="middle" x="202.736" y="-203" font-family="Helvetica,sans-Serif" font-size="10.00">TSystem.h</text>
</g>
<!-- Node31&#45;&gt;Node34 -->
<g id="edge47" class="edge"><title>Node31&#45;&gt;Node34</title>
<path fill="none" stroke="midnightblue" d="M248.151,-257.396C239.108,-247.261 226.889,-233.567 217.403,-222.937"/>
<polygon fill="midnightblue" stroke="midnightblue" points="219.764,-220.326 210.495,-215.195 214.541,-224.986 219.764,-220.326"/>
</g>
<!-- Node35 -->
<g id="node35" class="node"><title>Node35</title>
<polygon fill="none" stroke="#bfbfbf" points="253.236,-196 253.236,-215 382.236,-215 382.236,-196 253.236,-196"/>
<text text-anchor="middle" x="317.736" y="-203" font-family="Helvetica,sans-Serif" font-size="10.00">boost/filesystem/path.hpp</text>
</g>
<!-- Node31&#45;&gt;Node35 -->
<g id="edge48" class="edge"><title>Node31&#45;&gt;Node35</title>
<path fill="none" stroke="midnightblue" d="M273.104,-257.396C281.992,-247.261 294,-233.567 303.322,-222.937"/>
<polygon fill="midnightblue" stroke="midnightblue" points="306.15,-225.021 310.112,-215.195 300.887,-220.406 306.15,-225.021"/>
</g>
<!-- Node31&#45;&gt;Node36 -->
<g id="edge49" class="edge"><title>Node31&#45;&gt;Node36</title>
<path fill="none" stroke="midnightblue" d="M324.755,-258.89C386.641,-246.701 479.321,-228.445 537.343,-217.017"/>
<polygon fill="midnightblue" stroke="midnightblue" points="538.27,-220.402 547.405,-215.035 536.917,-213.534 538.27,-220.402"/>
</g>
<!-- Node37 -->
<g id="node37" class="node"><title>Node37</title>
<polygon fill="none" stroke="#bfbfbf" points="438.736,-129 438.736,-148 568.736,-148 568.736,-129 438.736,-129"/>
<text text-anchor="middle" x="503.736" y="-136" font-family="Helvetica,sans-Serif" font-size="10.00">InfoLogger/InfoLogger.hxx</text>
</g>
<!-- Node36&#45;&gt;Node37 -->
<g id="edge50" class="edge"><title>Node36&#45;&gt;Node37</title>
<path fill="none" stroke="midnightblue" d="M579.003,-195.734C564.784,-185.111 540.609,-167.049 523.498,-154.264"/>
<polygon fill="midnightblue" stroke="midnightblue" points="525.39,-151.309 515.284,-148.127 521.2,-156.916 525.39,-151.309"/>
</g>
<!-- Node38 -->
<g id="node38" class="node"><title>Node38</title>
<polygon fill="none" stroke="#bfbfbf" points="586.736,-129 586.736,-148 748.736,-148 748.736,-129 586.736,-129"/>
<text text-anchor="middle" x="667.736" y="-136" font-family="Helvetica,sans-Serif" font-size="10.00">InfoLogger/InfoLoggerMacros.hxx</text>
</g>
<!-- Node36&#45;&gt;Node38 -->
<g id="edge51" class="edge"><title>Node36&#45;&gt;Node38</title>
<path fill="none" stroke="midnightblue" d="M601.121,-195.734C613.59,-185.208 634.71,-167.379 649.828,-154.617"/>
<polygon fill="midnightblue" stroke="midnightblue" points="652.133,-157.252 657.516,-148.127 647.617,-151.903 652.133,-157.252"/>
</g>
<!-- Node39&#45;&gt;Node5 -->
<g id="edge55" class="edge"><title>Node39&#45;&gt;Node5</title>
<path fill="none" stroke="midnightblue" d="M1141,-195.839C1161.83,-174.018 1216.71,-116.526 1243.54,-88.4221"/>
<polygon fill="midnightblue" stroke="midnightblue" points="1246.23,-90.6714 1250.6,-81.0212 1241.17,-85.8381 1246.23,-90.6714"/>
</g>
<!-- Node39&#45;&gt;Node6 -->
<g id="edge53" class="edge"><title>Node39&#45;&gt;Node6</title>
<path fill="none" stroke="midnightblue" d="M1128.62,-195.977C1117.62,-171.883 1090.28,-102.039 1118.74,-56 1131.68,-35.0563 1157.65,-23.5341 1178.38,-17.4074"/>
<polygon fill="midnightblue" stroke="midnightblue" points="1179.3,-20.784 1188.06,-14.8156 1177.49,-14.0224 1179.3,-20.784"/>
</g>
<!-- Node39&#45;&gt;Node9 -->
<g id="edge57" class="edge"><title>Node39&#45;&gt;Node9</title>
<path fill="none" stroke="midnightblue" d="M1191.35,-195.98C1258.44,-186.161 1371.59,-169.396 1468.74,-154 1477.31,-152.642 1486.35,-151.174 1495.23,-149.712"/>
<polygon fill="midnightblue" stroke="midnightblue" points="1495.86,-153.156 1505.15,-148.071 1494.72,-146.25 1495.86,-153.156"/>
</g>
<!-- Node39&#45;&gt;Node14 -->
<g id="edge66" class="edge"><title>Node39&#45;&gt;Node14</title>
<path fill="none" stroke="midnightblue" d="M1121.19,-195.998C1098.27,-179.503 1044.86,-143.025 994.736,-123 965.23,-111.213 884.631,-93.9846 829.889,-83.0087"/>
<polygon fill="midnightblue" stroke="midnightblue" points="830.478,-79.5574 819.987,-81.0348 829.11,-86.4223 830.478,-79.5574"/>
</g>
<!-- Node39&#45;&gt;Node23 -->
<g id="edge56" class="edge"><title>Node39&#45;&gt;Node23</title>
<path fill="none" stroke="midnightblue" d="M1135.17,-195.648C1143.11,-168.704 1171.07,-87.6044 1227.74,-56 1290.02,-21.2605 1782.45,-13.1705 1944.93,-11.4386"/>
<polygon fill="midnightblue" stroke="midnightblue" points="1945.18,-14.9362 1955.14,-11.3335 1945.11,-7.9366 1945.18,-14.9362"/>
</g>
<!-- Node39&#45;&gt;Node24 -->
<g id="edge54" class="edge"><title>Node39&#45;&gt;Node24</title>
<path fill="none" stroke="midnightblue" d="M1193.74,-195.971C1275.56,-184.275 1413.12,-163.617 1434.74,-154 1454.97,-144.999 1453.31,-131.543 1473.74,-123 1596.41,-71.6967 1639.41,-107.798 1770.74,-87 1783.04,-85.052 1796.42,-82.5494 1808.37,-80.1734"/>
<polygon fill="midnightblue" stroke="midnightblue" points="1809.34,-83.5482 1818.45,-78.1351 1807.95,-76.6871 1809.34,-83.5482"/>
</g>
<!-- Node40 -->
<g id="node40" class="node"><title>Node40</title>
<g id="a_node40"><a xlink:href="QualityObject_8h_source.html" target="_top" xlink:title="QualityControl/QualityObject.h">
<polygon fill="none" stroke="black" points="804.236,-129 804.236,-148 953.236,-148 953.236,-129 804.236,-129"/>
<text text-anchor="middle" x="878.736" y="-136" font-family="Helvetica,sans-Serif" font-size="10.00">QualityControl/QualityObject.h</text>
</a>
</g>
</g>
<!-- Node39&#45;&gt;Node40 -->
<g id="edge58" class="edge"><title>Node39&#45;&gt;Node40</title>
<path fill="none" stroke="midnightblue" d="M1099.27,-195.936C1053.77,-184.293 972.341,-163.454 922.178,-150.617"/>
<polygon fill="midnightblue" stroke="midnightblue" points="922.833,-147.172 912.278,-148.083 921.098,-153.953 922.833,-147.172"/>
</g>
<!-- Node40&#45;&gt;Node15 -->
<g id="edge59" class="edge"><title>Node40&#45;&gt;Node15</title>
<path fill="none" stroke="midnightblue" d="M836.434,-128.961C783.8,-117.913 699.708,-98.6996 690.736,-87 682.352,-76.0667 683.63,-67.8035 690.736,-56 703.131,-35.4135 728.452,-23.7517 748.25,-17.4862"/>
<polygon fill="midnightblue" stroke="midnightblue" points="749.357,-20.8096 758.001,-14.683 747.423,-14.0821 749.357,-20.8096"/>
</g>
<!-- Node40&#45;&gt;Node17 -->
<g id="edge60" class="edge"><title>Node40&#45;&gt;Node17</title>
<path fill="none" stroke="midnightblue" d="M826.264,-128.945C775.826,-119.87 704.059,-104.45 681.736,-87 662.956,-72.319 651.689,-46.557 645.846,-29.142"/>
<polygon fill="midnightblue" stroke="midnightblue" points="649.18,-28.0768 642.891,-19.551 642.491,-30.1383 649.18,-28.0768"/>
</g>
<!-- Node40&#45;&gt;Node18 -->
<g id="edge61" class="edge"><title>Node40&#45;&gt;Node18</title>
<path fill="none" stroke="midnightblue" d="M813.388,-128.982C767.472,-121.535 705.293,-108.469 653.736,-87 615.578,-71.1106 576.06,-43.1813 553.528,-25.9658"/>
<polygon fill="midnightblue" stroke="midnightblue" points="555.541,-23.0977 545.496,-19.7297 551.249,-28.6269 555.541,-23.0977"/>
</g>
<!-- Node41 -->
<g id="node41" class="node"><title>Node41</title>
<g id="a_node41"><a xlink:href="Quality_8h.html" target="_top" xlink:title="QualityControl/Quality.h">
<polygon fill="none" stroke="black" points="869.236,-62 869.236,-81 990.236,-81 990.236,-62 869.236,-62"/>
<text text-anchor="middle" x="929.736" y="-69" font-family="Helvetica,sans-Serif" font-size="10.00">QualityControl/Quality.h</text>
</a>
</g>
</g>
<!-- Node40&#45;&gt;Node41 -->
<g id="edge62" class="edge"><title>Node40&#45;&gt;Node41</title>
<path fill="none" stroke="midnightblue" d="M885.614,-128.734C893.567,-118.598 906.833,-101.69 916.747,-89.0556"/>
<polygon fill="midnightblue" stroke="midnightblue" points="919.548,-91.1552 922.967,-81.1273 914.041,-86.8342 919.548,-91.1552"/>
</g>
<!-- Node41&#45;&gt;Node6 -->
<g id="edge64" class="edge"><title>Node41&#45;&gt;Node6</title>
<path fill="none" stroke="midnightblue" d="M969.71,-61.9751C1025.98,-49.9753 1127.32,-28.3623 1178.06,-17.543"/>
<polygon fill="midnightblue" stroke="midnightblue" points="1179.03,-20.9142 1188.08,-15.4054 1177.57,-14.0682 1179.03,-20.9142"/>
</g>
<!-- Node41&#45;&gt;Node15 -->
<g id="edge65" class="edge"><title>Node41&#45;&gt;Node15</title>
<path fill="none" stroke="midnightblue" d="M907.672,-61.9751C880.025,-51.2933 832.662,-32.994 802.839,-21.4715"/>
<polygon fill="midnightblue" stroke="midnightblue" points="804.041,-18.1837 793.451,-17.8445 801.518,-24.7133 804.041,-18.1837"/>
</g>
<!-- Node41&#45;&gt;Node16 -->
<g id="edge63" class="edge"><title>Node41&#45;&gt;Node16</title>
<path fill="none" stroke="midnightblue" d="M923.289,-61.9751C916.539,-53.0501 905.767,-38.8071 897.323,-27.6425"/>
<polygon fill="midnightblue" stroke="midnightblue" points="899.995,-25.3737 891.172,-19.5091 894.412,-29.5962 899.995,-25.3737"/>
</g>
</g>
</svg>
        <g id="navigator" transform="translate(0 0)" fill="#404254">
                <rect fill="#f2f5e9" fill-opacity="0.5" stroke="#606060" stroke-width=".5" x="0" y="0" width="60" height="60"/>
                <use id="zoomplus" xlink:href="#zoomPlus" x="17" y="9" onmousedown="handleZoom(evt,'in')"/>
                <use id="zoomminus" xlink:href="#zoomMin" x="42" y="9" onmousedown="handleZoom(evt,'out')"/>
                <use id="reset" xlink:href="#resetDef" x="30" y="36" onmousedown="handleReset()"/>
                <g id="arrowUp" xlink:href="#dirArrow" transform="translate(30 24)" onmousedown="handlePan(0,-1)">
                  <use xlink:href="#rim" fill="#404040">
                        <set attributeName="fill" to="#808080" begin="arrowUp.mouseover" end="arrowUp.mouseout"/>
                  </use>
                  <path fill="none" stroke="white" stroke-width="1.5" d="M0,-3.0v7 M-2.5,-0.5L0,-3.0L2.5,-0.5"/>
                </g>
                <g id="arrowRight" xlink:href="#dirArrow" transform="rotate(90) translate(36 -43)" onmousedown="handlePan(1,0)">
                  <use xlink:href="#rim" fill="#404040">
                        <set attributeName="fill" to="#808080" begin="arrowRight.mouseover" end="arrowRight.mouseout"/>
                  </use>
                  <path fill="none" stroke="white" stroke-width="1.5" d="M0,-3.0v7 M-2.5,-0.5L0,-3.0L2.5,-0.5"/>
                </g>
                <g id="arrowDown" xlink:href="#dirArrow" transform="rotate(180) translate(-30 -48)" onmousedown="handlePan(0,1)">
                  <use xlink:href="#rim" fill="#404040">
                        <set attributeName="fill" to="#808080" begin="arrowDown.mouseover" end="arrowDown.mouseout"/>
                  </use>
                  <path fill="none" stroke="white" stroke-width="1.5" d="M0,-3.0v7 M-2.5,-0.5L0,-3.0L2.5,-0.5"/>
                </g>
                <g id="arrowLeft" xlink:href="#dirArrow" transform="rotate(270) translate(-36 17)" onmousedown="handlePan(-1,0)">
                  <use xlink:href="#rim" fill="#404040">
                        <set attributeName="fill" to="#808080" begin="arrowLeft.mouseover" end="arrowLeft.mouseout"/>
                  </use>
                  <path fill="none" stroke="white" stroke-width="1.5" d="M0,-3.0v7 M-2.5,-0.5L0,-3.0L2.5,-0.5"/>
                </g>
        </g>
        <svg viewBox="0 0 15 15" width="100%" height="30px" preserveAspectRatio="xMaxYMin meet">
         <g id="arrow_out" transform="scale(0.3 0.3)">
          <a xlink:href="TrendingTaskITSThr_8cxx__incl_org.svg" target="_base">
           <rect id="button" ry="5" rx="5" y="6" x="6" height="38" width="38"
                fill="#f2f5e9" fill-opacity="0.5" stroke="#606060" stroke-width="1.0"/>
           <path id="arrow"
             d="M 11.500037,31.436501 C 11.940474,20.09759 22.043105,11.32322 32.158766,21.979434 L 37.068811,17.246167 C 37.068811,17.246167 37.088388,32 37.088388,32 L 22.160133,31.978069 C 22.160133,31.978069 26.997745,27.140456 26.997745,27.140456 C 18.528582,18.264221 13.291696,25.230495 11.500037,31.436501 z"
             style="fill:#404040;"/>
          </a>
         </g>
        </svg>
</svg>
