<?xml version="1.0" encoding="UTF-8" standalone="no"?>
<!DOCTYPE svg PUBLIC "-//W3C//DTD SVG 1.1//EN"
 "http://www.w3.org/Graphics/SVG/1.1/DTD/svg11.dtd">
<!-- Generated by graphviz version 2.38.0 (20140413.2041)
 -->
<!-- Title: Modules/ITS/include/ITS/TrendingTaskITSThr.h Pages: 1 -->
<svg width="1410pt" height="296pt"
 viewBox="0.00 0.00 1409.62 296.00" xmlns="http://www.w3.org/2000/svg" xmlns:xlink="http://www.w3.org/1999/xlink">
<g id="graph0" class="graph" transform="scale(1 1) rotate(0) translate(4 292)">
<title>Modules/ITS/include/ITS/TrendingTaskITSThr.h</title>
<!-- Node1 -->
<g id="node1" class="node"><title>Node1</title>
<polygon fill="#bfbfbf" stroke="black" points="883.119,-257.5 883.119,-287.5 1019.12,-287.5 1019.12,-257.5 883.119,-257.5"/>
<text text-anchor="start" x="891.119" y="-275.5" font-family="Helvetica,sans-Serif" font-size="10.00">Modules/ITS/include</text>
<text text-anchor="middle" x="951.119" y="-264.5" font-family="Helvetica,sans-Serif" font-size="10.00">/ITS/TrendingTaskITSThr.h</text>
</g>
<!-- Node2 -->
<g id="node2" class="node"><title>Node2</title>
<g id="a_node2"><a xlink:href="TrendingTaskConfigITS_8h_source.html" target="_top" xlink:title="ITS/TrendingTaskConfigITS.h">
<polygon fill="none" stroke="black" points="68.6193,-196 68.6193,-215 215.619,-215 215.619,-196 68.6193,-196"/>
<text text-anchor="middle" x="142.119" y="-203" font-family="Helvetica,sans-Serif" font-size="10.00">ITS/TrendingTaskConfigITS.h</text>
</a>
</g>
</g>
<!-- Node1&#45;&gt;Node2 -->
<g id="edge1" class="edge"><title>Node1&#45;&gt;Node2</title>
<path fill="none" stroke="midnightblue" d="M882.842,-266.014C735.232,-254.154 386.781,-226.158 226.038,-213.243"/>
<polygon fill="midnightblue" stroke="midnightblue" points="225.974,-209.726 215.726,-212.414 225.414,-216.704 225.974,-209.726"/>
</g>
<!-- Node5 -->
<g id="node5" class="node"><title>Node5</title>
<polygon fill="none" stroke="#bfbfbf" points="601.619,-0.5 601.619,-19.5 642.619,-19.5 642.619,-0.5 601.619,-0.5"/>
<text text-anchor="middle" x="622.119" y="-7.5" font-family="Helvetica,sans-Serif" font-size="10.00">string</text>
</g>
<!-- Node1&#45;&gt;Node5 -->
<g id="edge39" class="edge"><title>Node1&#45;&gt;Node5</title>
<path fill="none" stroke="midnightblue" d="M883.074,-258.344C821.438,-243.122 731.974,-212.293 676.119,-154 642.094,-118.489 629.033,-59.4514 624.414,-29.56"/>
<polygon fill="midnightblue" stroke="midnightblue" points="627.879,-29.0616 623.031,-19.6407 620.946,-30.0282 627.879,-29.0616"/>
</g>
<!-- Node7 -->
<g id="node7" class="node"><title>Node7</title>
<g id="a_node7"><a xlink:href="PostProcessingInterface_8h.html" target="_top" xlink:title="QualityControl/PostProcessing\lInterface.h">
<polygon fill="none" stroke="black" points="406.619,-190.5 406.619,-220.5 557.619,-220.5 557.619,-190.5 406.619,-190.5"/>
<text text-anchor="start" x="414.619" y="-208.5" font-family="Helvetica,sans-Serif" font-size="10.00">QualityControl/PostProcessing</text>
<text text-anchor="middle" x="482.119" y="-197.5" font-family="Helvetica,sans-Serif" font-size="10.00">Interface.h</text>
</a>
</g>
</g>
<!-- Node1&#45;&gt;Node7 -->
<g id="edge8" class="edge"><title>Node1&#45;&gt;Node7</title>
<path fill="none" stroke="midnightblue" d="M882.923,-262.048C799.543,-250.493 658.37,-230.927 567.756,-218.369"/>
<polygon fill="midnightblue" stroke="midnightblue" points="568.17,-214.893 557.785,-216.987 567.209,-221.826 568.17,-214.893"/>
</g>
<!-- Node22 -->
<g id="node22" class="node"><title>Node22</title>
<polygon fill="none" stroke="#bfbfbf" points="735.619,-0.5 735.619,-19.5 818.619,-19.5 818.619,-0.5 735.619,-0.5"/>
<text text-anchor="middle" x="777.119" y="-7.5" font-family="Helvetica,sans-Serif" font-size="10.00">unordered_map</text>
</g>
<!-- Node1&#45;&gt;Node22 -->
<g id="edge40" class="edge"><title>Node1&#45;&gt;Node22</title>
<path fill="none" stroke="midnightblue" d="M948.182,-257.476C939.807,-220.461 912.683,-118.685 856.119,-56 843.509,-42.0255 825.505,-31.3057 809.869,-23.8407"/>
<polygon fill="midnightblue" stroke="midnightblue" points="811.062,-20.5394 800.508,-19.6133 808.181,-26.919 811.062,-20.5394"/>
</g>
<!-- Node23 -->
<g id="node23" class="node"><title>Node23</title>
<polygon fill="none" stroke="#bfbfbf" points="1073.12,-62 1073.12,-81 1125.12,-81 1125.12,-62 1073.12,-62"/>
<text text-anchor="middle" x="1099.12" y="-69" font-family="Helvetica,sans-Serif" font-size="10.00">memory</text>
</g>
<!-- Node1&#45;&gt;Node23 -->
<g id="edge38" class="edge"><title>Node1&#45;&gt;Node23</title>
<path fill="none" stroke="midnightblue" d="M948.583,-257.456C946.181,-240.813 944.024,-212.502 952.119,-190 971.053,-137.368 1030.41,-102.582 1067.65,-85.3113"/>
<polygon fill="midnightblue" stroke="midnightblue" points="1069.36,-88.3799 1077.06,-81.1008 1066.5,-81.9903 1069.36,-88.3799"/>
</g>
<!-- Node24 -->
<g id="node24" class="node"><title>Node24</title>
<g id="a_node24"><a xlink:href="Reductor_8h.html" target="_top" xlink:title="QualityControl/Reductor.h">
<polygon fill="none" stroke="black" points="1015.12,-129 1015.12,-148 1145.12,-148 1145.12,-129 1015.12,-129"/>
<text text-anchor="middle" x="1080.12" y="-136" font-family="Helvetica,sans-Serif" font-size="10.00">QualityControl/Reductor.h</text>
</a>
</g>
</g>
<!-- Node1&#45;&gt;Node24 -->
<g id="edge31" class="edge"><title>Node1&#45;&gt;Node24</title>
<path fill="none" stroke="midnightblue" d="M950.803,-257.494C951.134,-239.844 954.223,-209.469 970.119,-190 985.621,-171.015 1009.83,-158.847 1031.6,-151.225"/>
<polygon fill="midnightblue" stroke="midnightblue" points="1032.96,-154.461 1041.38,-148.034 1030.79,-147.805 1032.96,-154.461"/>
</g>
<!-- Node25 -->
<g id="node25" class="node"><title>Node25</title>
<polygon fill="none" stroke="#bfbfbf" points="979.119,-196 979.119,-215 1029.12,-215 1029.12,-196 979.119,-196"/>
<text text-anchor="middle" x="1004.12" y="-203" font-family="Helvetica,sans-Serif" font-size="10.00">TAxis.h</text>
</g>
<!-- Node1&#45;&gt;Node25 -->
<g id="edge33" class="edge"><title>Node1&#45;&gt;Node25</title>
<path fill="none" stroke="midnightblue" d="M962.619,-257.396C970.802,-247.361 981.828,-233.838 990.459,-223.253"/>
<polygon fill="midnightblue" stroke="midnightblue" points="993.423,-225.157 997.03,-215.195 987.998,-220.733 993.423,-225.157"/>
</g>
<!-- Node26 -->
<g id="node26" class="node"><title>Node26</title>
<polygon fill="none" stroke="#bfbfbf" points="1047.12,-196 1047.12,-215 1101.12,-215 1101.12,-196 1047.12,-196"/>
<text text-anchor="middle" x="1074.12" y="-203" font-family="Helvetica,sans-Serif" font-size="10.00">TColor.h</text>
</g>
<!-- Node1&#45;&gt;Node26 -->
<g id="edge34" class="edge"><title>Node1&#45;&gt;Node26</title>
<path fill="none" stroke="midnightblue" d="M977.808,-257.396C999.008,-246.193 1028.44,-230.641 1049.17,-219.685"/>
<polygon fill="midnightblue" stroke="midnightblue" points="1050.82,-222.774 1058.02,-215.007 1047.54,-216.585 1050.82,-222.774"/>
</g>
<!-- Node27 -->
<g id="node27" class="node"><title>Node27</title>
<polygon fill="none" stroke="#bfbfbf" points="1119.62,-196 1119.62,-215 1176.62,-215 1176.62,-196 1119.62,-196"/>
<text text-anchor="middle" x="1148.12" y="-203" font-family="Helvetica,sans-Serif" font-size="10.00">TGraph.h</text>
</g>
<!-- Node1&#45;&gt;Node27 -->
<g id="edge35" class="edge"><title>Node1&#45;&gt;Node27</title>
<path fill="none" stroke="midnightblue" d="M997.618,-257.497C1029.44,-247.726 1072.52,-234.132 1110.12,-221 1112.23,-220.262 1114.4,-219.485 1116.59,-218.689"/>
<polygon fill="midnightblue" stroke="midnightblue" points="1117.94,-221.918 1126.09,-215.148 1115.5,-215.359 1117.94,-221.918"/>
</g>
<!-- Node28 -->
<g id="node28" class="node"><title>Node28</title>
<polygon fill="none" stroke="#bfbfbf" points="1195.12,-196 1195.12,-215 1257.12,-215 1257.12,-196 1195.12,-196"/>
<text text-anchor="middle" x="1226.12" y="-203" font-family="Helvetica,sans-Serif" font-size="10.00">TLegend.h</text>
</g>
<!-- Node1&#45;&gt;Node28 -->
<g id="edge36" class="edge"><title>Node1&#45;&gt;Node28</title>
<path fill="none" stroke="midnightblue" d="M1019.27,-259.173C1066.25,-250.095 1129.94,-236.643 1185.12,-221 1187.91,-220.208 1190.79,-219.328 1193.66,-218.402"/>
<polygon fill="midnightblue" stroke="midnightblue" points="1194.94,-221.665 1203.3,-215.15 1192.71,-215.032 1194.94,-221.665"/>
</g>
<!-- Node29 -->
<g id="node29" class="node"><title>Node29</title>
<polygon fill="none" stroke="#bfbfbf" points="1275.12,-196 1275.12,-215 1325.12,-215 1325.12,-196 1275.12,-196"/>
<text text-anchor="middle" x="1300.12" y="-203" font-family="Helvetica,sans-Serif" font-size="10.00">TTree.h</text>
</g>
<!-- Node1&#45;&gt;Node29 -->
<g id="edge37" class="edge"><title>Node1&#45;&gt;Node29</title>
<path fill="none" stroke="midnightblue" d="M1019.14,-265.439C1083.66,-258.561 1182.84,-245.041 1266.12,-221 1268.41,-220.339 1270.75,-219.565 1273.08,-218.725"/>
<polygon fill="midnightblue" stroke="midnightblue" points="1274.42,-221.958 1282.42,-215.014 1271.83,-215.452 1274.42,-221.958"/>
</g>
<!-- Node3 -->
<g id="node3" class="node"><title>Node3</title>
<g id="a_node3"><a xlink:href="PostProcessingConfig_8h.html" target="_top" xlink:title="QualityControl/PostProcessing\lConfig.h">
<polygon fill="none" stroke="black" points="14.6193,-123.5 14.6193,-153.5 165.619,-153.5 165.619,-123.5 14.6193,-123.5"/>
<text text-anchor="start" x="22.6193" y="-141.5" font-family="Helvetica,sans-Serif" font-size="10.00">QualityControl/PostProcessing</text>
<text text-anchor="middle" x="90.1193" y="-130.5" font-family="Helvetica,sans-Serif" font-size="10.00">Config.h</text>
</a>
</g>
</g>
<!-- Node2&#45;&gt;Node3 -->
<g id="edge2" class="edge"><title>Node2&#45;&gt;Node3</title>
<path fill="none" stroke="midnightblue" d="M135.106,-195.734C128.146,-187.034 117.195,-173.345 107.84,-161.651"/>
<polygon fill="midnightblue" stroke="midnightblue" points="110.371,-159.211 101.39,-153.589 104.904,-163.584 110.371,-159.211"/>
</g>
<!-- Node4 -->
<g id="node4" class="node"><title>Node4</title>
<polygon fill="none" stroke="#bfbfbf" points="24.1193,-62 24.1193,-81 68.1193,-81 68.1193,-62 24.1193,-62"/>
<text text-anchor="middle" x="46.1193" y="-69" font-family="Helvetica,sans-Serif" font-size="10.00">vector</text>
</g>
<!-- Node2&#45;&gt;Node4 -->
<g id="edge7" class="edge"><title>Node2&#45;&gt;Node4</title>
<path fill="none" stroke="midnightblue" d="M73.7523,-195.995C47.8543,-189.071 20.8487,-176.562 5.11927,-154 -9.80556,-132.592 11.4652,-104.98 28.5219,-88.0187"/>
<polygon fill="midnightblue" stroke="midnightblue" points="31.0494,-90.4459 35.9171,-81.0355 26.2434,-85.3564 31.0494,-90.4459"/>
</g>
<!-- Node2&#45;&gt;Node5 -->
<g id="edge6" class="edge"><title>Node2&#45;&gt;Node5</title>
<path fill="none" stroke="midnightblue" d="M148.3,-195.855C155.158,-186.025 166.289,-169.348 174.119,-154 195.424,-112.243 175.824,-84.4003 213.119,-56 272.398,-10.8595 506.648,-9.40565 591.351,-10.4145"/>
<polygon fill="midnightblue" stroke="midnightblue" points="591.552,-13.9175 601.6,-10.5579 591.65,-6.91823 591.552,-13.9175"/>
</g>
<!-- Node3&#45;&gt;Node4 -->
<g id="edge3" class="edge"><title>Node3&#45;&gt;Node4</title>
<path fill="none" stroke="midnightblue" d="M80.5719,-123.396C73.8472,-113.462 64.808,-100.108 57.6756,-89.5719"/>
<polygon fill="midnightblue" stroke="midnightblue" points="60.5089,-87.5136 52.0048,-81.1945 54.7121,-91.4376 60.5089,-87.5136"/>
</g>
<!-- Node3&#45;&gt;Node5 -->
<g id="edge4" class="edge"><title>Node3&#45;&gt;Node5</title>
<path fill="none" stroke="midnightblue" d="M100.803,-123.34C116.057,-104.322 146.031,-71.1684 180.119,-56 254.026,-23.1132 503.547,-13.908 591.291,-11.6554"/>
<polygon fill="midnightblue" stroke="midnightblue" points="591.489,-15.1517 601.401,-11.4086 591.319,-8.15374 591.489,-15.1517"/>
</g>
<!-- Node6 -->
<g id="node6" class="node"><title>Node6</title>
<polygon fill="none" stroke="#bfbfbf" points="222.619,-56.5 222.619,-86.5 323.619,-86.5 323.619,-56.5 222.619,-56.5"/>
<text text-anchor="start" x="230.619" y="-74.5" font-family="Helvetica,sans-Serif" font-size="10.00">boost/property_tree</text>
<text text-anchor="middle" x="273.119" y="-63.5" font-family="Helvetica,sans-Serif" font-size="10.00">/ptree_fwd.hpp</text>
</g>
<!-- Node3&#45;&gt;Node6 -->
<g id="edge5" class="edge"><title>Node3&#45;&gt;Node6</title>
<path fill="none" stroke="midnightblue" d="M129.828,-123.396C157.405,-113.601 194.342,-100.481 223.807,-90.0153"/>
<polygon fill="midnightblue" stroke="midnightblue" points="225.237,-93.2218 233.488,-86.5765 222.894,-86.6255 225.237,-93.2218"/>
</g>
<!-- Node7&#45;&gt;Node5 -->
<g id="edge9" class="edge"><title>Node7&#45;&gt;Node5</title>
<path fill="none" stroke="midnightblue" d="M406.524,-192.508C358.489,-181.128 309,-160.075 330.119,-123 383.089,-30.0132 527.582,-13.8201 591.27,-11.2912"/>
<polygon fill="midnightblue" stroke="midnightblue" points="591.591,-14.7831 601.479,-10.9772 591.376,-7.78636 591.591,-14.7831"/>
</g>
<!-- Node7&#45;&gt;Node6 -->
<g id="edge11" class="edge"><title>Node7&#45;&gt;Node6</title>
<path fill="none" stroke="midnightblue" d="M406.501,-200.778C369.145,-195.131 326.006,-182.317 297.119,-154 281.87,-139.051 276.193,-114.945 274.138,-96.8202"/>
<polygon fill="midnightblue" stroke="midnightblue" points="277.613,-96.3706 273.288,-86.6988 270.637,-96.9568 277.613,-96.3706"/>
</g>
<!-- Node8 -->
<g id="node8" class="node"><title>Node8</title>
<polygon fill="none" stroke="#bfbfbf" points="339.119,-129 339.119,-148 485.119,-148 485.119,-129 339.119,-129"/>
<text text-anchor="middle" x="412.119" y="-136" font-family="Helvetica,sans-Serif" font-size="10.00">Framework/ServiceRegistry.h</text>
</g>
<!-- Node7&#45;&gt;Node8 -->
<g id="edge10" class="edge"><title>Node7&#45;&gt;Node8</title>
<path fill="none" stroke="midnightblue" d="M466.93,-190.396C455.8,-180.06 440.683,-166.024 429.144,-155.309"/>
<polygon fill="midnightblue" stroke="midnightblue" points="431.192,-152.434 421.483,-148.195 426.429,-157.564 431.192,-152.434"/>
</g>
<!-- Node9 -->
<g id="node9" class="node"><title>Node9</title>
<g id="a_node9"><a xlink:href="Triggers_8h.html" target="_top" xlink:title="QualityControl/Triggers.h">
<polygon fill="none" stroke="black" points="503.619,-129 503.619,-148 628.619,-148 628.619,-129 503.619,-129"/>
<text text-anchor="middle" x="566.119" y="-136" font-family="Helvetica,sans-Serif" font-size="10.00">QualityControl/Triggers.h</text>
</a>
</g>
</g>
<!-- Node7&#45;&gt;Node9 -->
<g id="edge12" class="edge"><title>Node7&#45;&gt;Node9</title>
<path fill="none" stroke="midnightblue" d="M500.346,-190.396C514.092,-179.759 532.903,-165.203 546.888,-154.381"/>
<polygon fill="midnightblue" stroke="midnightblue" points="549.116,-157.082 554.883,-148.195 544.833,-151.546 549.116,-157.082"/>
</g>
<!-- Node12 -->
<g id="node12" class="node"><title>Node12</title>
<g id="a_node12"><a xlink:href="ObjectsManager_8h.html" target="_top" xlink:title="QualityControl/ObjectsManager.h">
<polygon fill="none" stroke="black" points="685.619,-129 685.619,-148 846.619,-148 846.619,-129 685.619,-129"/>
<text text-anchor="middle" x="766.119" y="-136" font-family="Helvetica,sans-Serif" font-size="10.00">QualityControl/ObjectsManager.h</text>
</a>
</g>
</g>
<!-- Node7&#45;&gt;Node12 -->
<g id="edge16" class="edge"><title>Node7&#45;&gt;Node12</title>
<path fill="none" stroke="midnightblue" d="M543.393,-190.476C596.067,-178.421 670.93,-161.286 719.018,-150.28"/>
<polygon fill="midnightblue" stroke="midnightblue" points="719.889,-153.672 728.856,-148.029 718.327,-146.848 719.889,-153.672"/>
</g>
<!-- Node9&#45;&gt;Node5 -->
<g id="edge13" class="edge"><title>Node9&#45;&gt;Node5</title>
<path fill="none" stroke="midnightblue" d="M569.968,-128.805C579.04,-108.313 601.913,-56.6451 614.132,-29.0416"/>
<polygon fill="midnightblue" stroke="midnightblue" points="617.396,-30.3166 618.243,-19.7557 610.995,-27.483 617.396,-30.3166"/>
</g>
<!-- Node10 -->
<g id="node10" class="node"><title>Node10</title>
<polygon fill="none" stroke="#bfbfbf" points="452.619,-62 452.619,-81 511.619,-81 511.619,-62 452.619,-62"/>
<text text-anchor="middle" x="482.119" y="-69" font-family="Helvetica,sans-Serif" font-size="10.00">functional</text>
</g>
<!-- Node9&#45;&gt;Node10 -->
<g id="edge14" class="edge"><title>Node9&#45;&gt;Node10</title>
<path fill="none" stroke="midnightblue" d="M554.791,-128.734C541.062,-118.111 517.72,-100.049 501.199,-87.2642"/>
<polygon fill="midnightblue" stroke="midnightblue" points="503.319,-84.4791 493.268,-81.1273 499.035,-90.0152 503.319,-84.4791"/>
</g>
<!-- Node11 -->
<g id="node11" class="node"><title>Node11</title>
<polygon fill="none" stroke="#bfbfbf" points="529.619,-62 529.619,-81 574.619,-81 574.619,-62 529.619,-62"/>
<text text-anchor="middle" x="552.119" y="-69" font-family="Helvetica,sans-Serif" font-size="10.00">iosfwd</text>
</g>
<!-- Node9&#45;&gt;Node11 -->
<g id="edge15" class="edge"><title>Node9&#45;&gt;Node11</title>
<path fill="none" stroke="midnightblue" d="M564.231,-128.734C562.153,-119.085 558.753,-103.3 556.084,-90.9063"/>
<polygon fill="midnightblue" stroke="midnightblue" points="559.505,-90.1661 553.977,-81.1273 552.662,-91.6401 559.505,-90.1661"/>
</g>
<!-- Node12&#45;&gt;Node5 -->
<g id="edge29" class="edge"><title>Node12&#45;&gt;Node5</title>
<path fill="none" stroke="midnightblue" d="M753.413,-128.903C739.426,-119.25 716.487,-102.854 698.119,-87 675.746,-67.6881 651.965,-43.18 637.082,-27.2983"/>
<polygon fill="midnightblue" stroke="midnightblue" points="639.536,-24.7971 630.166,-19.8528 634.407,-29.5614 639.536,-24.7971"/>
</g>
<!-- Node13 -->
<g id="node13" class="node"><title>Node13</title>
<g id="a_node13"><a xlink:href="MonitorObject_8h.html" target="_top" xlink:title="QualityControl/MonitorObject.h">
<polygon fill="none" stroke="black" points="903.619,-62 903.619,-81 1054.62,-81 1054.62,-62 903.619,-62"/>
<text text-anchor="middle" x="979.119" y="-69" font-family="Helvetica,sans-Serif" font-size="10.00">QualityControl/MonitorObject.h</text>
</a>
</g>
</g>
<!-- Node12&#45;&gt;Node13 -->
<g id="edge17" class="edge"><title>Node12&#45;&gt;Node13</title>
<path fill="none" stroke="midnightblue" d="M794.404,-128.869C832.224,-117.327 899.374,-96.8354 941.449,-83.9956"/>
<polygon fill="midnightblue" stroke="midnightblue" points="942.514,-87.3301 951.057,-81.0637 940.471,-80.6349 942.514,-87.3301"/>
</g>
<!-- Node18 -->
<g id="node18" class="node"><title>Node18</title>
<g id="a_node18"><a xlink:href="MonitorObjectCollection_8h.html" target="_top" xlink:title="QualityControl/MonitorObject\lCollection.h">
<polygon fill="none" stroke="black" points="1181.62,-56.5 1181.62,-86.5 1324.62,-86.5 1324.62,-56.5 1181.62,-56.5"/>
<text text-anchor="start" x="1189.62" y="-74.5" font-family="Helvetica,sans-Serif" font-size="10.00">QualityControl/MonitorObject</text>
<text text-anchor="middle" x="1253.12" y="-63.5" font-family="Helvetica,sans-Serif" font-size="10.00">Collection.h</text>
</a>
</g>
</g>
<!-- Node12&#45;&gt;Node18 -->
<g id="edge23" class="edge"><title>Node12&#45;&gt;Node18</title>
<path fill="none" stroke="midnightblue" d="M830.036,-128.969C917.767,-117.26 1075.53,-96.2032 1171.64,-83.3754"/>
<polygon fill="midnightblue" stroke="midnightblue" points="1172.16,-86.8374 1181.6,-82.0451 1171.23,-79.899 1172.16,-86.8374"/>
</g>
<!-- Node21 -->
<g id="node21" class="node"><title>Node21</title>
<g id="a_node21"><a xlink:href="TaskConfig_8h.html" target="_top" xlink:title="QualityControl/TaskConfig.h">
<polygon fill="none" stroke="black" points="707.119,-62 707.119,-81 847.119,-81 847.119,-62 707.119,-62"/>
<text text-anchor="middle" x="777.119" y="-69" font-family="Helvetica,sans-Serif" font-size="10.00">QualityControl/TaskConfig.h</text>
</a>
</g>
</g>
<!-- Node12&#45;&gt;Node21 -->
<g id="edge26" class="edge"><title>Node12&#45;&gt;Node21</title>
<path fill="none" stroke="midnightblue" d="M767.603,-128.734C769.219,-119.183 771.853,-103.618 773.941,-91.2829"/>
<polygon fill="midnightblue" stroke="midnightblue" points="777.442,-91.5711 775.659,-81.1273 770.54,-90.4031 777.442,-91.5711"/>
</g>
<!-- Node12&#45;&gt;Node23 -->
<g id="edge30" class="edge"><title>Node12&#45;&gt;Node23</title>
<path fill="none" stroke="midnightblue" d="M843.425,-128.973C903.963,-121.194 989.892,-107.713 1063.12,-87 1065.56,-86.31 1068.06,-85.5096 1070.55,-84.6461"/>
<polygon fill="midnightblue" stroke="midnightblue" points="1071.83,-87.9038 1079.95,-81.1038 1069.36,-81.353 1071.83,-87.9038"/>
</g>
<!-- Node13&#45;&gt;Node5 -->
<g id="edge18" class="edge"><title>Node13&#45;&gt;Node5</title>
<path fill="none" stroke="midnightblue" d="M927.97,-61.9751C852.672,-49.4254 714.287,-26.3612 652.872,-16.1255"/>
<polygon fill="midnightblue" stroke="midnightblue" points="653.112,-12.6173 642.673,-14.4256 651.961,-19.522 653.112,-12.6173"/>
</g>
<!-- Node14 -->
<g id="node14" class="node"><title>Node14</title>
<polygon fill="none" stroke="#bfbfbf" points="971.619,-0.5 971.619,-19.5 1006.62,-19.5 1006.62,-0.5 971.619,-0.5"/>
<text text-anchor="middle" x="989.119" y="-7.5" font-family="Helvetica,sans-Serif" font-size="10.00">map</text>
</g>
<!-- Node13&#45;&gt;Node14 -->
<g id="edge19" class="edge"><title>Node13&#45;&gt;Node14</title>
<path fill="none" stroke="midnightblue" d="M980.552,-61.9751C981.963,-53.5803 984.165,-40.4806 985.983,-29.6631"/>
<polygon fill="midnightblue" stroke="midnightblue" points="989.483,-29.9509 987.689,-19.5091 982.58,-28.7906 989.483,-29.9509"/>
</g>
<!-- Node15 -->
<g id="node15" class="node"><title>Node15</title>
<polygon fill="none" stroke="#bfbfbf" points="1025.12,-0.5 1025.12,-19.5 1081.12,-19.5 1081.12,-0.5 1025.12,-0.5"/>
<text text-anchor="middle" x="1053.12" y="-7.5" font-family="Helvetica,sans-Serif" font-size="10.00">Rtypes.h</text>
</g>
<!-- Node13&#45;&gt;Node15 -->
<g id="edge20" class="edge"><title>Node13&#45;&gt;Node15</title>
<path fill="none" stroke="midnightblue" d="M989.722,-61.9751C1001.37,-52.6082 1020.31,-37.3839 1034.45,-26.0081"/>
<polygon fill="midnightblue" stroke="midnightblue" points="1036.94,-28.503 1042.54,-19.5091 1032.55,-23.0477 1036.94,-28.503"/>
</g>
<!-- Node16 -->
<g id="node16" class="node"><title>Node16</title>
<polygon fill="none" stroke="#bfbfbf" points="1105.62,-0.5 1105.62,-19.5 1164.62,-19.5 1164.62,-0.5 1105.62,-0.5"/>
<text text-anchor="middle" x="1135.12" y="-7.5" font-family="Helvetica,sans-Serif" font-size="10.00">TObject.h</text>
</g>
<!-- Node13&#45;&gt;Node16 -->
<g id="edge21" class="edge"><title>Node13&#45;&gt;Node16</title>
<path fill="none" stroke="midnightblue" d="M1001.47,-61.9751C1028.11,-51.8129 1072.83,-34.7564 1103.13,-23.1996"/>
<polygon fill="midnightblue" stroke="midnightblue" points="1104.71,-26.343 1112.81,-19.5091 1102.22,-19.8026 1104.71,-26.343"/>
</g>
<!-- Node17 -->
<g id="node17" class="node"><title>Node17</title>
<polygon fill="none" stroke="#bfbfbf" points="837.119,-0.5 837.119,-19.5 953.119,-19.5 953.119,-0.5 837.119,-0.5"/>
<text text-anchor="middle" x="895.119" y="-7.5" font-family="Helvetica,sans-Serif" font-size="10.00">Common/Exceptions.h</text>
</g>
<!-- Node13&#45;&gt;Node17 -->
<g id="edge22" class="edge"><title>Node13&#45;&gt;Node17</title>
<path fill="none" stroke="midnightblue" d="M967.084,-61.9751C953.611,-52.4315 931.553,-36.8073 915.404,-25.3683"/>
<polygon fill="midnightblue" stroke="midnightblue" points="917.315,-22.4332 907.132,-19.5091 913.269,-28.1454 917.315,-22.4332"/>
</g>
<!-- Node19 -->
<g id="node19" class="node"><title>Node19</title>
<polygon fill="none" stroke="#bfbfbf" points="1332.62,-0.5 1332.62,-19.5 1401.62,-19.5 1401.62,-0.5 1332.62,-0.5"/>
<text text-anchor="middle" x="1367.12" y="-7.5" font-family="Helvetica,sans-Serif" font-size="10.00">TObjArray.h</text>
</g>
<!-- Node18&#45;&gt;Node19 -->
<g id="edge24" class="edge"><title>Node18&#45;&gt;Node19</title>
<path fill="none" stroke="midnightblue" d="M1280.14,-56.3993C1298.75,-46.6837 1323.33,-33.8551 1341.61,-24.3137"/>
<polygon fill="midnightblue" stroke="midnightblue" points="1343.29,-27.3876 1350.53,-19.6578 1340.05,-21.182 1343.29,-27.3876"/>
</g>
<!-- Node20 -->
<g id="node20" class="node"><title>Node20</title>
<polygon fill="none" stroke="#bfbfbf" points="1186.12,-0.5 1186.12,-19.5 1314.12,-19.5 1314.12,-0.5 1186.12,-0.5"/>
<text text-anchor="middle" x="1250.12" y="-7.5" font-family="Helvetica,sans-Serif" font-size="10.00">Mergers/MergeInterface.h</text>
</g>
<!-- Node18&#45;&gt;Node20 -->
<g id="edge25" class="edge"><title>Node18&#45;&gt;Node20</title>
<path fill="none" stroke="midnightblue" d="M1252.41,-56.3993C1252.01,-48.4664 1251.5,-38.458 1251.07,-29.8583"/>
<polygon fill="midnightblue" stroke="midnightblue" points="1254.56,-29.4688 1250.56,-19.6578 1247.56,-29.8214 1254.56,-29.4688"/>
</g>
<!-- Node21&#45;&gt;Node5 -->
<g id="edge27" class="edge"><title>Node21&#45;&gt;Node5</title>
<path fill="none" stroke="midnightblue" d="M754.912,-61.9751C727.987,-51.6397 682.486,-34.1729 652.373,-22.6135"/>
<polygon fill="midnightblue" stroke="midnightblue" points="653.39,-19.2549 642.8,-18.9386 650.881,-25.79 653.39,-19.2549"/>
</g>
<!-- Node21&#45;&gt;Node22 -->
<g id="edge28" class="edge"><title>Node21&#45;&gt;Node22</title>
<path fill="none" stroke="midnightblue" d="M777.119,-61.9751C777.119,-53.5803 777.119,-40.4806 777.119,-29.6631"/>
<polygon fill="midnightblue" stroke="midnightblue" points="780.619,-29.5091 777.119,-19.5091 773.619,-29.5091 780.619,-29.5091"/>
</g>
<!-- Node24&#45;&gt;Node16 -->
<g id="edge32" class="edge"><title>Node24&#45;&gt;Node16</title>
<path fill="none" stroke="midnightblue" d="M1094.7,-128.787C1107.75,-120.062 1126.03,-105.316 1134.12,-87 1142.1,-68.9345 1141.09,-46.0147 1138.88,-30.092"/>
<polygon fill="midnightblue" stroke="midnightblue" points="1142.27,-29.1841 1137.16,-19.9039 1135.37,-30.3462 1142.27,-29.1841"/>
</g>
</g>
</svg>
