<?xml version="1.0" encoding="UTF-8" standalone="no"?>
<!DOCTYPE svg PUBLIC "-//W3C//DTD SVG 1.1//EN"
 "http://www.w3.org/Graphics/SVG/1.1/DTD/svg11.dtd">
<!-- Generated by graphviz version 2.38.0 (20140413.2041)
 -->
<!-- Title: Framework/src/TrendingTask.cxx Pages: 1 -->
<!--zoomable 352 -->
<svg id="main" version="1.1" xmlns="http://www.w3.org/2000/svg" xmlns:xlink="http://www.w3.org/1999/xlink" xml:space="preserve" onload="init(evt)">
<style type="text/css"><![CDATA[
.edge:hover path { stroke: red; }
.edge:hover polygon { stroke: red; fill: red; }
]]></style>
<script type="text/javascript"><![CDATA[
var edges = document.getElementsByTagName('g');
if (edges && edges.length) {
  for (var i=0;i<edges.length;i++) {
    if (edges[i].id.substr(0,4)=='edge') {
      edges[i].setAttribute('class','edge');
    }
  }
}
]]></script>
        <defs>
                <circle id="rim" cx="0" cy="0" r="7"/>
                <circle id="rim2" cx="0" cy="0" r="3.5"/>
                <g id="zoomPlus">
                        <use xlink:href="#rim" fill="#404040">
                                <set attributeName="fill" to="#808080" begin="zoomplus.mouseover" end="zoomplus.mouseout"/>
                        </use>
                        <path d="M-4,0h8M0,-4v8" fill="none" stroke="white" stroke-width="1.5" pointer-events="none"/>
                </g>
                <g id="zoomMin">
                        <use xlink:href="#rim" fill="#404040">
                                <set attributeName="fill" to="#808080" begin="zoomminus.mouseover" end="zoomminus.mouseout"/>
                        </use>
                        <path d="M-4,0h8" fill="none" stroke="white" stroke-width="1.5" pointer-events="none"/>
                </g>
                <g id="dirArrow">
                        <path fill="none" stroke="white" stroke-width="1.5" d="M0,-3.0v7 M-2.5,-0.5L0,-3.0L2.5,-0.5"/>
                </g>
               <g id="resetDef">
                       <use xlink:href="#rim2" fill="#404040">
                               <set attributeName="fill" to="#808080" begin="reset.mouseover" end="reset.mouseout"/>
                       </use>
               </g>
        </defs>

<script type="text/javascript">
var viewWidth = 2148;
var viewHeight = 352;
var sectionId = 'dynsection-0';
</script>
<script xlink:href="svgpan.js"/>
<svg id="graph" class="graph">
<g id="viewport">
<title>Framework/src/TrendingTask.cxx</title>
<!-- Node1 -->
<g id="node1" class="node"><title>Node1</title>
<polygon fill="#bfbfbf" stroke="black" points="1548.72,-324.5 1548.72,-343.5 1711.72,-343.5 1711.72,-324.5 1548.72,-324.5"/>
<text text-anchor="middle" x="1630.22" y="-331.5" font-family="Helvetica,sans-Serif" font-size="10.00">Framework/src/TrendingTask.cxx</text>
</g>
<!-- Node2 -->
<g id="node2" class="node"><title>Node2</title>
<g id="a_node2"><a xlink:href="TrendingTask_8h.html" target="_top" xlink:title="QualityControl/TrendingTask.h">
<polygon fill="none" stroke="black" points="758.721,-263 758.721,-282 907.721,-282 907.721,-263 758.721,-263"/>
<text text-anchor="middle" x="833.221" y="-270" font-family="Helvetica,sans-Serif" font-size="10.00">QualityControl/TrendingTask.h</text>
</a>
</g>
</g>
<!-- Node1&#45;&gt;Node2 -->
<g id="edge1" class="edge"><title>Node1&#45;&gt;Node2</title>
<path fill="none" stroke="midnightblue" d="M1548.67,-326.912C1396.94,-315.584 1072.67,-291.376 918.299,-279.852"/>
<polygon fill="midnightblue" stroke="midnightblue" points="918.164,-276.332 907.932,-279.078 917.643,-283.312 918.164,-276.332"/>
</g>
<!-- Node11 -->
<g id="node11" class="node"><title>Node11</title>
<g id="a_node11"><a xlink:href="MonitorObject_8h.html" target="_top" xlink:title="QualityControl/MonitorObject.h">
<polygon fill="none" stroke="black" points="1398.72,-62 1398.72,-81 1549.72,-81 1549.72,-62 1398.72,-62"/>
<text text-anchor="middle" x="1474.22" y="-69" font-family="Helvetica,sans-Serif" font-size="10.00">QualityControl/MonitorObject.h</text>
</a>
</g>
</g>
<!-- Node1&#45;&gt;Node11 -->
<g id="edge55" class="edge"><title>Node1&#45;&gt;Node11</title>
<path fill="none" stroke="midnightblue" d="M1557.11,-324.491C1506.74,-317.242 1445.53,-305.236 1426.22,-288 1392.84,-258.211 1391.21,-233.097 1403.22,-190 1414.3,-150.247 1442.87,-110.518 1460.2,-88.9651"/>
<polygon fill="midnightblue" stroke="midnightblue" points="1462.99,-91.0822 1466.65,-81.1393 1457.59,-86.6303 1462.99,-91.0822"/>
</g>
<!-- Node25 -->
<g id="node25" class="node"><title>Node25</title>
<g id="a_node25"><a xlink:href="Reductor_8h.html" target="_top" xlink:title="QualityControl/Reductor.h">
<polygon fill="none" stroke="black" points="1188.22,-196 1188.22,-215 1318.22,-215 1318.22,-196 1188.22,-196"/>
<text text-anchor="middle" x="1253.22" y="-203" font-family="Helvetica,sans-Serif" font-size="10.00">QualityControl/Reductor.h</text>
</a>
</g>
</g>
<!-- Node1&#45;&gt;Node25 -->
<g id="edge56" class="edge"><title>Node1&#45;&gt;Node25</title>
<path fill="none" stroke="midnightblue" d="M1548.63,-328.038C1496.09,-322.652 1427.21,-311.42 1370.22,-288 1330.8,-271.802 1291.49,-240.535 1269.97,-221.79"/>
<polygon fill="midnightblue" stroke="midnightblue" points="1272.18,-219.074 1262.38,-215.052 1267.53,-224.308 1272.18,-219.074"/>
</g>
<!-- Node27 -->
<g id="node27" class="node"><title>Node27</title>
<g id="a_node27"><a xlink:href="QcInfoLogger_8h.html" target="_top" xlink:title="QualityControl/QcInfoLogger.h">
<polygon fill="none" stroke="black" points="1831.72,-196 1831.72,-215 1980.72,-215 1980.72,-196 1831.72,-196"/>
<text text-anchor="middle" x="1906.22" y="-203" font-family="Helvetica,sans-Serif" font-size="10.00">QualityControl/QcInfoLogger.h</text>
</a>
</g>
</g>
<!-- Node1&#45;&gt;Node27 -->
<g id="edge37" class="edge"><title>Node1&#45;&gt;Node27</title>
<path fill="none" stroke="midnightblue" d="M1623.58,-324.398C1612.61,-309.073 1593.49,-276.799 1610.22,-257 1641.21,-220.336 1775.91,-229.131 1823.22,-221 1831.11,-219.644 1839.42,-218.204 1847.62,-216.78"/>
<polygon fill="midnightblue" stroke="midnightblue" points="1848.26,-220.22 1857.51,-215.056 1847.06,-213.324 1848.26,-220.22"/>
</g>
<!-- Node30 -->
<g id="node30" class="node"><title>Node30</title>
<g id="a_node30"><a xlink:href="DatabaseInterface_8h.html" target="_top" xlink:title="QualityControl/DatabaseInterface.h">
<polygon fill="none" stroke="black" points="1000.22,-196 1000.22,-215 1170.22,-215 1170.22,-196 1000.22,-196"/>
<text text-anchor="middle" x="1085.22" y="-203" font-family="Helvetica,sans-Serif" font-size="10.00">QualityControl/DatabaseInterface.h</text>
</a>
</g>
</g>
<!-- Node1&#45;&gt;Node30 -->
<g id="edge40" class="edge"><title>Node1&#45;&gt;Node30</title>
<path fill="none" stroke="midnightblue" d="M1548.64,-326.082C1483.88,-319.486 1391.38,-307.593 1312.22,-288 1239.22,-269.931 1156.92,-237.101 1114.3,-219.115"/>
<polygon fill="midnightblue" stroke="midnightblue" points="1115.41,-215.785 1104.84,-215.091 1112.67,-222.226 1115.41,-215.785"/>
</g>
<!-- Node33 -->
<g id="node33" class="node"><title>Node33</title>
<g id="a_node33"><a xlink:href="RootClassFactory_8h.html" target="_top" xlink:title="QualityControl/RootClass\lFactory.h">
<polygon fill="none" stroke="black" points="1435.22,-257.5 1435.22,-287.5 1563.22,-287.5 1563.22,-257.5 1435.22,-257.5"/>
<text text-anchor="start" x="1443.22" y="-275.5" font-family="Helvetica,sans-Serif" font-size="10.00">QualityControl/RootClass</text>
<text text-anchor="middle" x="1499.22" y="-264.5" font-family="Helvetica,sans-Serif" font-size="10.00">Factory.h</text>
</a>
</g>
</g>
<!-- Node1&#45;&gt;Node33 -->
<g id="edge57" class="edge"><title>Node1&#45;&gt;Node33</title>
<path fill="none" stroke="midnightblue" d="M1611.45,-324.475C1592.71,-315.965 1563.33,-302.619 1539.33,-291.718"/>
<polygon fill="midnightblue" stroke="midnightblue" points="1540.65,-288.472 1530.09,-287.523 1537.75,-294.845 1540.65,-288.472"/>
</g>
<!-- Node38 -->
<g id="node38" class="node"><title>Node38</title>
<polygon fill="none" stroke="#bfbfbf" points="1619.72,-257.5 1619.72,-287.5 1720.72,-287.5 1720.72,-257.5 1619.72,-257.5"/>
<text text-anchor="start" x="1627.72" y="-275.5" font-family="Helvetica,sans-Serif" font-size="10.00">boost/property_tree</text>
<text text-anchor="middle" x="1670.22" y="-264.5" font-family="Helvetica,sans-Serif" font-size="10.00">/ptree.hpp</text>
</g>
<!-- Node1&#45;&gt;Node38 -->
<g id="edge65" class="edge"><title>Node1&#45;&gt;Node38</title>
<path fill="none" stroke="midnightblue" d="M1635.95,-324.475C1640.96,-317.019 1648.47,-305.852 1655.18,-295.869"/>
<polygon fill="midnightblue" stroke="midnightblue" points="1658.12,-297.775 1660.79,-287.523 1652.31,-293.869 1658.12,-297.775"/>
</g>
<!-- Node39 -->
<g id="node39" class="node"><title>Node39</title>
<polygon fill="none" stroke="#bfbfbf" points="1739.22,-263 1739.22,-282 1783.22,-282 1783.22,-263 1739.22,-263"/>
<text text-anchor="middle" x="1761.22" y="-270" font-family="Helvetica,sans-Serif" font-size="10.00">TH1.h</text>
</g>
<!-- Node1&#45;&gt;Node39 -->
<g id="edge66" class="edge"><title>Node1&#45;&gt;Node39</title>
<path fill="none" stroke="midnightblue" d="M1648.99,-324.475C1671.07,-314.445 1707.94,-297.7 1733.36,-286.155"/>
<polygon fill="midnightblue" stroke="midnightblue" points="1734.83,-289.331 1742.49,-282.009 1731.93,-282.958 1734.83,-289.331"/>
</g>
<!-- Node40 -->
<g id="node40" class="node"><title>Node40</title>
<polygon fill="none" stroke="#bfbfbf" points="1801.72,-263 1801.72,-282 1866.72,-282 1866.72,-263 1801.72,-263"/>
<text text-anchor="middle" x="1834.22" y="-270" font-family="Helvetica,sans-Serif" font-size="10.00">TCanvas.h</text>
</g>
<!-- Node1&#45;&gt;Node40 -->
<g id="edge67" class="edge"><title>Node1&#45;&gt;Node40</title>
<path fill="none" stroke="midnightblue" d="M1663.28,-324.454C1696.15,-315.81 1747.9,-301.79 1792.22,-288 1794.98,-287.14 1797.84,-286.222 1800.7,-285.279"/>
<polygon fill="midnightblue" stroke="midnightblue" points="1801.96,-288.547 1810.32,-282.037 1799.72,-281.914 1801.96,-288.547"/>
</g>
<!-- Node41 -->
<g id="node41" class="node"><title>Node41</title>
<polygon fill="none" stroke="#bfbfbf" points="1884.72,-263 1884.72,-282 1957.72,-282 1957.72,-263 1884.72,-263"/>
<text text-anchor="middle" x="1921.22" y="-270" font-family="Helvetica,sans-Serif" font-size="10.00">TPaveText.h</text>
</g>
<!-- Node1&#45;&gt;Node41 -->
<g id="edge68" class="edge"><title>Node1&#45;&gt;Node41</title>
<path fill="none" stroke="midnightblue" d="M1688.84,-324.489C1738.97,-316.685 1812.85,-303.933 1876.22,-288 1879.67,-287.133 1883.24,-286.145 1886.79,-285.1"/>
<polygon fill="midnightblue" stroke="midnightblue" points="1888.11,-288.356 1896.63,-282.064 1886.04,-281.667 1888.11,-288.356"/>
</g>
<!-- Node42 -->
<g id="node42" class="node"><title>Node42</title>
<polygon fill="none" stroke="#bfbfbf" points="1976.22,-263 1976.22,-282 2038.22,-282 2038.22,-263 1976.22,-263"/>
<text text-anchor="middle" x="2007.22" y="-270" font-family="Helvetica,sans-Serif" font-size="10.00">TDatime.h</text>
</g>
<!-- Node1&#45;&gt;Node42 -->
<g id="edge69" class="edge"><title>Node1&#45;&gt;Node42</title>
<path fill="none" stroke="midnightblue" d="M1711.82,-327.049C1780.64,-320.857 1881.37,-309.033 1967.22,-288 1970.28,-287.251 1973.43,-286.349 1976.55,-285.366"/>
<polygon fill="midnightblue" stroke="midnightblue" points="1977.97,-288.58 1986.31,-282.039 1975.71,-281.954 1977.97,-288.58"/>
</g>
<!-- Node43 -->
<g id="node43" class="node"><title>Node43</title>
<polygon fill="none" stroke="#bfbfbf" points="2056.72,-263 2056.72,-282 2139.72,-282 2139.72,-263 2056.72,-263"/>
<text text-anchor="middle" x="2098.22" y="-270" font-family="Helvetica,sans-Serif" font-size="10.00">TGraphErrors.h</text>
</g>
<!-- Node1&#45;&gt;Node43 -->
<g id="edge70" class="edge"><title>Node1&#45;&gt;Node43</title>
<path fill="none" stroke="midnightblue" d="M1711.94,-328.29C1796.46,-322.461 1931.97,-310.435 2047.22,-288 2051.94,-287.081 2056.86,-285.933 2061.7,-284.688"/>
<polygon fill="midnightblue" stroke="midnightblue" points="2062.7,-288.043 2071.43,-282.038 2060.86,-281.289 2062.7,-288.043"/>
</g>
<!-- Node3 -->
<g id="node3" class="node"><title>Node3</title>
<g id="a_node3"><a xlink:href="PostProcessingInterface_8h.html" target="_top" xlink:title="QualityControl/PostProcessing\lInterface.h">
<polygon fill="none" stroke="black" points="583.721,-190.5 583.721,-220.5 734.721,-220.5 734.721,-190.5 583.721,-190.5"/>
<text text-anchor="start" x="591.721" y="-208.5" font-family="Helvetica,sans-Serif" font-size="10.00">QualityControl/PostProcessing</text>
<text text-anchor="middle" x="659.221" y="-197.5" font-family="Helvetica,sans-Serif" font-size="10.00">Interface.h</text>
</a>
</g>
</g>
<!-- Node2&#45;&gt;Node3 -->
<g id="edge2" class="edge"><title>Node2&#45;&gt;Node3</title>
<path fill="none" stroke="midnightblue" d="M810.115,-262.869C783.78,-253.031 740.036,-236.689 706.409,-224.128"/>
<polygon fill="midnightblue" stroke="midnightblue" points="707.365,-220.749 696.773,-220.528 704.916,-227.306 707.365,-220.749"/>
</g>
<!-- Node20 -->
<g id="node20" class="node"><title>Node20</title>
<polygon fill="none" stroke="#bfbfbf" points="383.721,-0.5 383.721,-19.5 466.721,-19.5 466.721,-0.5 383.721,-0.5"/>
<text text-anchor="middle" x="425.221" y="-7.5" font-family="Helvetica,sans-Serif" font-size="10.00">unordered_map</text>
</g>
<!-- Node2&#45;&gt;Node20 -->
<g id="edge35" class="edge"><title>Node2&#45;&gt;Node20</title>
<path fill="none" stroke="midnightblue" d="M758.703,-268C570.084,-257.26 83.2387,-217.165 6.22081,-87 -0.795265,-75.1424 -2.9867,-66.2493 6.22081,-56 12.3042,-49.2282 262.311,-25.7754 373.189,-15.6806"/>
<polygon fill="midnightblue" stroke="midnightblue" points="373.83,-19.1369 383.472,-14.7464 373.196,-12.1657 373.83,-19.1369"/>
</g>
<!-- Node21 -->
<g id="node21" class="node"><title>Node21</title>
<polygon fill="none" stroke="#bfbfbf" points="551.221,-62 551.221,-81 603.221,-81 603.221,-62 551.221,-62"/>
<text text-anchor="middle" x="577.221" y="-69" font-family="Helvetica,sans-Serif" font-size="10.00">memory</text>
</g>
<!-- Node2&#45;&gt;Node21 -->
<g id="edge34" class="edge"><title>Node2&#45;&gt;Node21</title>
<path fill="none" stroke="midnightblue" d="M758.532,-267.245C690.498,-261.623 597.233,-248.933 574.221,-221 543.42,-183.613 559.437,-121.134 570.148,-90.5194"/>
<polygon fill="midnightblue" stroke="midnightblue" points="573.441,-91.7058 573.63,-81.1127 566.876,-89.2759 573.441,-91.7058"/>
</g>
<!-- Node22 -->
<g id="node22" class="node"><title>Node22</title>
<g id="a_node22"><a xlink:href="TrendingTaskConfig_8h.html" target="_top" xlink:title="QualityControl/TrendingTask\lConfig.h">
<polygon fill="none" stroke="black" points="762.721,-190.5 762.721,-220.5 903.721,-220.5 903.721,-190.5 762.721,-190.5"/>
<text text-anchor="start" x="770.721" y="-208.5" font-family="Helvetica,sans-Serif" font-size="10.00">QualityControl/TrendingTask</text>
<text text-anchor="middle" x="833.221" y="-197.5" font-family="Helvetica,sans-Serif" font-size="10.00">Config.h</text>
</a>
</g>
</g>
<!-- Node2&#45;&gt;Node22 -->
<g id="edge25" class="edge"><title>Node2&#45;&gt;Node22</title>
<path fill="none" stroke="midnightblue" d="M833.221,-262.734C833.221,-254.541 833.221,-241.923 833.221,-230.714"/>
<polygon fill="midnightblue" stroke="midnightblue" points="836.721,-230.589 833.221,-220.589 829.721,-230.589 836.721,-230.589"/>
</g>
<!-- Node2&#45;&gt;Node25 -->
<g id="edge32" class="edge"><title>Node2&#45;&gt;Node25</title>
<path fill="none" stroke="midnightblue" d="M898.095,-262.989C967.733,-253.629 1081.53,-237.689 1179.22,-221 1186.41,-219.772 1193.97,-218.393 1201.4,-216.985"/>
<polygon fill="midnightblue" stroke="midnightblue" points="1202.25,-220.386 1211.41,-215.06 1200.93,-213.512 1202.25,-220.386"/>
</g>
<!-- Node26 -->
<g id="node26" class="node"><title>Node26</title>
<polygon fill="none" stroke="#bfbfbf" points="922.221,-196 922.221,-215 972.221,-215 972.221,-196 922.221,-196"/>
<text text-anchor="middle" x="947.221" y="-203" font-family="Helvetica,sans-Serif" font-size="10.00">TTree.h</text>
</g>
<!-- Node2&#45;&gt;Node26 -->
<g id="edge36" class="edge"><title>Node2&#45;&gt;Node26</title>
<path fill="none" stroke="midnightblue" d="M848.595,-262.734C867.74,-251.818 900.659,-233.049 923.156,-220.221"/>
<polygon fill="midnightblue" stroke="midnightblue" points="925.136,-223.121 932.09,-215.127 921.669,-217.04 925.136,-223.121"/>
</g>
<!-- Node4 -->
<g id="node4" class="node"><title>Node4</title>
<polygon fill="none" stroke="#bfbfbf" points="850.721,-0.5 850.721,-19.5 891.721,-19.5 891.721,-0.5 850.721,-0.5"/>
<text text-anchor="middle" x="871.221" y="-7.5" font-family="Helvetica,sans-Serif" font-size="10.00">string</text>
</g>
<!-- Node3&#45;&gt;Node4 -->
<g id="edge3" class="edge"><title>Node3&#45;&gt;Node4</title>
<path fill="none" stroke="midnightblue" d="M652.501,-190.152C639.943,-160.97 617.039,-94.2332 650.221,-56 674.702,-27.7914 785.434,-16.6349 840.265,-12.7813"/>
<polygon fill="midnightblue" stroke="midnightblue" points="840.698,-16.2604 850.444,-12.1051 840.234,-9.27576 840.698,-16.2604"/>
</g>
<!-- Node5 -->
<g id="node5" class="node"><title>Node5</title>
<polygon fill="none" stroke="#bfbfbf" points="697.221,-129 697.221,-148 843.221,-148 843.221,-129 697.221,-129"/>
<text text-anchor="middle" x="770.221" y="-136" font-family="Helvetica,sans-Serif" font-size="10.00">Framework/ServiceRegistry.h</text>
</g>
<!-- Node3&#45;&gt;Node5 -->
<g id="edge4" class="edge"><title>Node3&#45;&gt;Node5</title>
<path fill="none" stroke="midnightblue" d="M683.306,-190.396C702.179,-179.344 728.279,-164.061 746.942,-153.132"/>
<polygon fill="midnightblue" stroke="midnightblue" points="748.833,-156.081 755.693,-148.007 745.295,-150.04 748.833,-156.081"/>
</g>
<!-- Node6 -->
<g id="node6" class="node"><title>Node6</title>
<polygon fill="none" stroke="#bfbfbf" points="659.721,-56.5 659.721,-86.5 760.721,-86.5 760.721,-56.5 659.721,-56.5"/>
<text text-anchor="start" x="667.721" y="-74.5" font-family="Helvetica,sans-Serif" font-size="10.00">boost/property_tree</text>
<text text-anchor="middle" x="710.221" y="-63.5" font-family="Helvetica,sans-Serif" font-size="10.00">/ptree_fwd.hpp</text>
</g>
<!-- Node3&#45;&gt;Node6 -->
<g id="edge5" class="edge"><title>Node3&#45;&gt;Node6</title>
<path fill="none" stroke="midnightblue" d="M654.812,-190.254C650.418,-173.416 645.59,-144.918 655.221,-123 660.395,-111.225 669.82,-100.991 679.424,-92.8733"/>
<polygon fill="midnightblue" stroke="midnightblue" points="681.748,-95.4981 687.444,-86.5644 677.42,-89.9965 681.748,-95.4981"/>
</g>
<!-- Node7 -->
<g id="node7" class="node"><title>Node7</title>
<g id="a_node7"><a xlink:href="Triggers_8h.html" target="_top" xlink:title="QualityControl/Triggers.h">
<polygon fill="none" stroke="black" points="137.721,-129 137.721,-148 262.721,-148 262.721,-129 137.721,-129"/>
<text text-anchor="middle" x="200.221" y="-136" font-family="Helvetica,sans-Serif" font-size="10.00">QualityControl/Triggers.h</text>
</a>
</g>
</g>
<!-- Node3&#45;&gt;Node7 -->
<g id="edge6" class="edge"><title>Node3&#45;&gt;Node7</title>
<path fill="none" stroke="midnightblue" d="M583.683,-193.803C496.75,-181.492 355.115,-161.435 270.475,-149.449"/>
<polygon fill="midnightblue" stroke="midnightblue" points="270.835,-145.965 260.443,-148.028 269.853,-152.896 270.835,-145.965"/>
</g>
<!-- Node10 -->
<g id="node10" class="node"><title>Node10</title>
<g id="a_node10"><a xlink:href="ObjectsManager_8h.html" target="_top" xlink:title="QualityControl/ObjectsManager.h">
<polygon fill="none" stroke="black" points="365.721,-129 365.721,-148 526.721,-148 526.721,-129 365.721,-129"/>
<text text-anchor="middle" x="446.221" y="-136" font-family="Helvetica,sans-Serif" font-size="10.00">QualityControl/ObjectsManager.h</text>
</a>
</g>
</g>
<!-- Node3&#45;&gt;Node10 -->
<g id="edge10" class="edge"><title>Node3&#45;&gt;Node10</title>
<path fill="none" stroke="midnightblue" d="M613.265,-190.476C574.587,-178.673 519.955,-162.001 483.836,-150.979"/>
<polygon fill="midnightblue" stroke="midnightblue" points="484.755,-147.6 474.169,-148.029 482.712,-154.295 484.755,-147.6"/>
</g>
<!-- Node7&#45;&gt;Node4 -->
<g id="edge7" class="edge"><title>Node7&#45;&gt;Node4</title>
<path fill="none" stroke="midnightblue" d="M222.301,-128.843C244.491,-119.742 279.31,-104.355 307.221,-87 326.024,-75.3082 325.646,-64.1832 346.221,-56 437.063,-19.8686 742.181,-12.7018 840.447,-11.3202"/>
<polygon fill="midnightblue" stroke="midnightblue" points="840.651,-14.8179 850.605,-11.188 840.56,-7.81852 840.651,-14.8179"/>
</g>
<!-- Node8 -->
<g id="node8" class="node"><title>Node8</title>
<polygon fill="none" stroke="#bfbfbf" points="15.7208,-62 15.7208,-81 74.7208,-81 74.7208,-62 15.7208,-62"/>
<text text-anchor="middle" x="45.2208" y="-69" font-family="Helvetica,sans-Serif" font-size="10.00">functional</text>
</g>
<!-- Node7&#45;&gt;Node8 -->
<g id="edge8" class="edge"><title>Node7&#45;&gt;Node8</title>
<path fill="none" stroke="midnightblue" d="M179.638,-128.869C152.887,-117.65 105.973,-97.9766 75.249,-85.0925"/>
<polygon fill="midnightblue" stroke="midnightblue" points="76.4643,-81.8068 65.8887,-81.1672 73.7571,-88.2622 76.4643,-81.8068"/>
</g>
<!-- Node9 -->
<g id="node9" class="node"><title>Node9</title>
<polygon fill="none" stroke="#bfbfbf" points="92.7208,-62 92.7208,-81 137.721,-81 137.721,-62 92.7208,-62"/>
<text text-anchor="middle" x="115.221" y="-69" font-family="Helvetica,sans-Serif" font-size="10.00">iosfwd</text>
</g>
<!-- Node7&#45;&gt;Node9 -->
<g id="edge9" class="edge"><title>Node7&#45;&gt;Node9</title>
<path fill="none" stroke="midnightblue" d="M188.757,-128.734C174.865,-118.111 151.246,-100.049 134.528,-87.2642"/>
<polygon fill="midnightblue" stroke="midnightblue" points="136.572,-84.4216 126.503,-81.1273 132.32,-89.9821 136.572,-84.4216"/>
</g>
<!-- Node10&#45;&gt;Node4 -->
<g id="edge23" class="edge"><title>Node10&#45;&gt;Node4</title>
<path fill="none" stroke="midnightblue" d="M456.21,-128.757C479.759,-108.184 537.155,-58.2617 542.221,-56 595.296,-32.3036 768.887,-18.0176 840.205,-13.0195"/>
<polygon fill="midnightblue" stroke="midnightblue" points="840.613,-16.4999 850.35,-12.3232 840.134,-9.5163 840.613,-16.4999"/>
</g>
<!-- Node10&#45;&gt;Node11 -->
<g id="edge11" class="edge"><title>Node10&#45;&gt;Node11</title>
<path fill="none" stroke="midnightblue" d="M526.878,-132.495C573.93,-129.618 634.43,-125.993 688.221,-123 999.705,-105.67 1079.14,-121.289 1389.22,-87 1399.26,-85.8893 1409.92,-84.3563 1420.17,-82.7008"/>
<polygon fill="midnightblue" stroke="midnightblue" points="1420.96,-86.1176 1430.24,-81.0157 1419.8,-79.2136 1420.96,-86.1176"/>
</g>
<!-- Node16 -->
<g id="node16" class="node"><title>Node16</title>
<g id="a_node16"><a xlink:href="MonitorObjectCollection_8h.html" target="_top" xlink:title="QualityControl/MonitorObject\lCollection.h">
<polygon fill="none" stroke="black" points="155.721,-56.5 155.721,-86.5 298.721,-86.5 298.721,-56.5 155.721,-56.5"/>
<text text-anchor="start" x="163.721" y="-74.5" font-family="Helvetica,sans-Serif" font-size="10.00">QualityControl/MonitorObject</text>
<text text-anchor="middle" x="227.221" y="-63.5" font-family="Helvetica,sans-Serif" font-size="10.00">Collection.h</text>
</a>
</g>
</g>
<!-- Node10&#45;&gt;Node16 -->
<g id="edge17" class="edge"><title>Node10&#45;&gt;Node16</title>
<path fill="none" stroke="midnightblue" d="M417.139,-128.869C383.353,-118.841 326.801,-102.056 284.175,-89.4042"/>
<polygon fill="midnightblue" stroke="midnightblue" points="285.067,-86.0182 274.485,-86.5281 283.075,-92.7288 285.067,-86.0182"/>
</g>
<!-- Node19 -->
<g id="node19" class="node"><title>Node19</title>
<g id="a_node19"><a xlink:href="TaskConfig_8h.html" target="_top" xlink:title="QualityControl/TaskConfig.h">
<polygon fill="none" stroke="black" points="355.221,-62 355.221,-81 495.221,-81 495.221,-62 355.221,-62"/>
<text text-anchor="middle" x="425.221" y="-69" font-family="Helvetica,sans-Serif" font-size="10.00">QualityControl/TaskConfig.h</text>
</a>
</g>
</g>
<!-- Node10&#45;&gt;Node19 -->
<g id="edge20" class="edge"><title>Node10&#45;&gt;Node19</title>
<path fill="none" stroke="midnightblue" d="M443.389,-128.734C440.271,-119.085 435.172,-103.3 431.167,-90.9063"/>
<polygon fill="midnightblue" stroke="midnightblue" points="434.413,-89.567 428.008,-81.1273 427.752,-91.719 434.413,-89.567"/>
</g>
<!-- Node10&#45;&gt;Node21 -->
<g id="edge24" class="edge"><title>Node10&#45;&gt;Node21</title>
<path fill="none" stroke="midnightblue" d="M463.617,-128.869C485.834,-117.845 524.508,-98.6554 550.481,-85.7678"/>
<polygon fill="midnightblue" stroke="midnightblue" points="552.351,-88.7473 559.753,-81.1672 549.239,-82.4767 552.351,-88.7473"/>
</g>
<!-- Node11&#45;&gt;Node4 -->
<g id="edge12" class="edge"><title>Node11&#45;&gt;Node4</title>
<path fill="none" stroke="midnightblue" d="M1428.45,-61.9806C1415.77,-59.8158 1401.99,-57.641 1389.22,-56 1205.37,-32.3738 983.183,-17.6969 902.447,-12.8135"/>
<polygon fill="midnightblue" stroke="midnightblue" points="902.204,-9.29275 892.012,-12.1895 901.786,-16.2803 902.204,-9.29275"/>
</g>
<!-- Node12 -->
<g id="node12" class="node"><title>Node12</title>
<polygon fill="none" stroke="#bfbfbf" points="1456.72,-0.5 1456.72,-19.5 1491.72,-19.5 1491.72,-0.5 1456.72,-0.5"/>
<text text-anchor="middle" x="1474.22" y="-7.5" font-family="Helvetica,sans-Serif" font-size="10.00">map</text>
</g>
<!-- Node11&#45;&gt;Node12 -->
<g id="edge13" class="edge"><title>Node11&#45;&gt;Node12</title>
<path fill="none" stroke="midnightblue" d="M1474.22,-61.9751C1474.22,-53.5803 1474.22,-40.4806 1474.22,-29.6631"/>
<polygon fill="midnightblue" stroke="midnightblue" points="1477.72,-29.5091 1474.22,-19.5091 1470.72,-29.5091 1477.72,-29.5091"/>
</g>
<!-- Node13 -->
<g id="node13" class="node"><title>Node13</title>
<polygon fill="none" stroke="#bfbfbf" points="1337.22,-0.5 1337.22,-19.5 1393.22,-19.5 1393.22,-0.5 1337.22,-0.5"/>
<text text-anchor="middle" x="1365.22" y="-7.5" font-family="Helvetica,sans-Serif" font-size="10.00">Rtypes.h</text>
</g>
<!-- Node11&#45;&gt;Node13 -->
<g id="edge14" class="edge"><title>Node11&#45;&gt;Node13</title>
<path fill="none" stroke="midnightblue" d="M1458.6,-61.9751C1440.63,-52.1664 1410.9,-35.9346 1389.81,-24.425"/>
<polygon fill="midnightblue" stroke="midnightblue" points="1391.26,-21.2284 1380.81,-19.5091 1387.91,-27.3726 1391.26,-21.2284"/>
</g>
<!-- Node14 -->
<g id="node14" class="node"><title>Node14</title>
<polygon fill="none" stroke="#bfbfbf" points="1552.72,-0.5 1552.72,-19.5 1611.72,-19.5 1611.72,-0.5 1552.72,-0.5"/>
<text text-anchor="middle" x="1582.22" y="-7.5" font-family="Helvetica,sans-Serif" font-size="10.00">TObject.h</text>
</g>
<!-- Node11&#45;&gt;Node14 -->
<g id="edge15" class="edge"><title>Node11&#45;&gt;Node14</title>
<path fill="none" stroke="midnightblue" d="M1489.69,-61.9751C1507.5,-52.1664 1536.96,-35.9346 1557.85,-24.425"/>
<polygon fill="midnightblue" stroke="midnightblue" points="1559.71,-27.4001 1566.78,-19.5091 1556.33,-21.269 1559.71,-27.4001"/>
</g>
<!-- Node15 -->
<g id="node15" class="node"><title>Node15</title>
<polygon fill="none" stroke="#bfbfbf" points="1630.22,-0.5 1630.22,-19.5 1746.22,-19.5 1746.22,-0.5 1630.22,-0.5"/>
<text text-anchor="middle" x="1688.22" y="-7.5" font-family="Helvetica,sans-Serif" font-size="10.00">Common/Exceptions.h</text>
</g>
<!-- Node11&#45;&gt;Node15 -->
<g id="edge16" class="edge"><title>Node11&#45;&gt;Node15</title>
<path fill="none" stroke="midnightblue" d="M1504.88,-61.9751C1542.46,-51.5257 1606.26,-33.7868 1647.82,-22.2332"/>
<polygon fill="midnightblue" stroke="midnightblue" points="1648.92,-25.56 1657.62,-19.5091 1647.04,-18.8158 1648.92,-25.56"/>
</g>
<!-- Node17 -->
<g id="node17" class="node"><title>Node17</title>
<polygon fill="none" stroke="#bfbfbf" points="244.721,-0.5 244.721,-19.5 313.721,-19.5 313.721,-0.5 244.721,-0.5"/>
<text text-anchor="middle" x="279.221" y="-7.5" font-family="Helvetica,sans-Serif" font-size="10.00">TObjArray.h</text>
</g>
<!-- Node16&#45;&gt;Node17 -->
<g id="edge18" class="edge"><title>Node16&#45;&gt;Node17</title>
<path fill="none" stroke="midnightblue" d="M239.544,-56.3993C247.178,-47.6641 257.011,-36.4126 264.979,-27.2962"/>
<polygon fill="midnightblue" stroke="midnightblue" points="267.709,-29.4907 271.654,-19.6578 262.438,-24.8843 267.709,-29.4907"/>
</g>
<!-- Node18 -->
<g id="node18" class="node"><title>Node18</title>
<polygon fill="none" stroke="#bfbfbf" points="98.2208,-0.5 98.2208,-19.5 226.221,-19.5 226.221,-0.5 98.2208,-0.5"/>
<text text-anchor="middle" x="162.221" y="-7.5" font-family="Helvetica,sans-Serif" font-size="10.00">Mergers/MergeInterface.h</text>
</g>
<!-- Node16&#45;&gt;Node18 -->
<g id="edge19" class="edge"><title>Node16&#45;&gt;Node18</title>
<path fill="none" stroke="midnightblue" d="M211.817,-56.3993C201.982,-47.3967 189.227,-35.7214 179.116,-26.4652"/>
<polygon fill="midnightblue" stroke="midnightblue" points="181.418,-23.8282 171.679,-19.6578 176.692,-28.9916 181.418,-23.8282"/>
</g>
<!-- Node19&#45;&gt;Node4 -->
<g id="edge21" class="edge"><title>Node19&#45;&gt;Node4</title>
<path fill="none" stroke="midnightblue" d="M472.25,-61.9785C484.285,-59.9089 497.217,-57.7811 509.221,-56 631.508,-37.855 777.785,-21.217 840.362,-14.3381"/>
<polygon fill="midnightblue" stroke="midnightblue" points="840.801,-17.811 850.361,-13.2438 840.04,-10.8525 840.801,-17.811"/>
</g>
<!-- Node19&#45;&gt;Node20 -->
<g id="edge22" class="edge"><title>Node19&#45;&gt;Node20</title>
<path fill="none" stroke="midnightblue" d="M425.221,-61.9751C425.221,-53.5803 425.221,-40.4806 425.221,-29.6631"/>
<polygon fill="midnightblue" stroke="midnightblue" points="428.721,-29.5091 425.221,-19.5091 421.721,-29.5091 428.721,-29.5091"/>
</g>
<!-- Node22&#45;&gt;Node4 -->
<g id="edge27" class="edge"><title>Node22&#45;&gt;Node4</title>
<path fill="none" stroke="midnightblue" d="M762.699,-191.747C715.295,-179.741 665.325,-158.231 688.221,-123 709.688,-89.9672 735.216,-106.892 769.221,-87 800.603,-68.6424 833.807,-42.4637 853.51,-26.1162"/>
<polygon fill="midnightblue" stroke="midnightblue" points="855.911,-28.6711 861.321,-19.5618 851.411,-23.309 855.911,-28.6711"/>
</g>
<!-- Node23 -->
<g id="node23" class="node"><title>Node23</title>
<polygon fill="none" stroke="#bfbfbf" points="1057.22,-62 1057.22,-81 1101.22,-81 1101.22,-62 1057.22,-62"/>
<text text-anchor="middle" x="1079.22" y="-69" font-family="Helvetica,sans-Serif" font-size="10.00">vector</text>
</g>
<!-- Node22&#45;&gt;Node23 -->
<g id="edge26" class="edge"><title>Node22&#45;&gt;Node23</title>
<path fill="none" stroke="midnightblue" d="M903.817,-190.591C967.983,-177.661 1053.52,-159.582 1059.22,-154 1075.94,-137.622 1079.55,-109.703 1079.92,-91.1785"/>
<polygon fill="midnightblue" stroke="midnightblue" points="1083.42,-91.0105 1079.82,-81.0456 1076.42,-91.0798 1083.42,-91.0105"/>
</g>
<!-- Node24 -->
<g id="node24" class="node"><title>Node24</title>
<g id="a_node24"><a xlink:href="PostProcessingConfig_8h.html" target="_top" xlink:title="QualityControl/PostProcessing\lConfig.h">
<polygon fill="none" stroke="black" points="899.721,-123.5 899.721,-153.5 1050.72,-153.5 1050.72,-123.5 899.721,-123.5"/>
<text text-anchor="start" x="907.721" y="-141.5" font-family="Helvetica,sans-Serif" font-size="10.00">QualityControl/PostProcessing</text>
<text text-anchor="middle" x="975.221" y="-130.5" font-family="Helvetica,sans-Serif" font-size="10.00">Config.h</text>
</a>
</g>
</g>
<!-- Node22&#45;&gt;Node24 -->
<g id="edge28" class="edge"><title>Node22&#45;&gt;Node24</title>
<path fill="none" stroke="midnightblue" d="M864.033,-190.396C884.874,-180.856 912.603,-168.163 935.156,-157.84"/>
<polygon fill="midnightblue" stroke="midnightblue" points="936.833,-160.921 944.469,-153.577 933.92,-154.556 936.833,-160.921"/>
</g>
<!-- Node24&#45;&gt;Node4 -->
<g id="edge30" class="edge"><title>Node24&#45;&gt;Node4</title>
<path fill="none" stroke="midnightblue" d="M963.694,-123.479C944.392,-100.001 905.62,-52.8413 884.943,-27.6915"/>
<polygon fill="midnightblue" stroke="midnightblue" points="887.5,-25.2904 878.446,-19.7885 882.093,-29.7359 887.5,-25.2904"/>
</g>
<!-- Node24&#45;&gt;Node6 -->
<g id="edge31" class="edge"><title>Node24&#45;&gt;Node6</title>
<path fill="none" stroke="midnightblue" d="M918.046,-123.476C874.619,-112.824 815.027,-98.2072 770.788,-87.356"/>
<polygon fill="midnightblue" stroke="midnightblue" points="771.573,-83.9449 761.027,-84.9619 769.905,-90.7434 771.573,-83.9449"/>
</g>
<!-- Node24&#45;&gt;Node23 -->
<g id="edge29" class="edge"><title>Node24&#45;&gt;Node23</title>
<path fill="none" stroke="midnightblue" d="M997.787,-123.396C1015.23,-112.496 1039.25,-97.4787 1056.69,-86.5835"/>
<polygon fill="midnightblue" stroke="midnightblue" points="1058.98,-89.275 1065.61,-81.007 1055.27,-83.339 1058.98,-89.275"/>
</g>
<!-- Node25&#45;&gt;Node14 -->
<g id="edge33" class="edge"><title>Node25&#45;&gt;Node14</title>
<path fill="none" stroke="midnightblue" d="M1318.58,-197.524C1432.41,-185.222 1655.59,-160.367 1661.22,-154 1697.24,-113.25 1634.98,-53.3171 1601.46,-25.8006"/>
<polygon fill="midnightblue" stroke="midnightblue" points="1603.63,-23.0528 1593.63,-19.5347 1599.25,-28.5171 1603.63,-23.0528"/>
</g>
<!-- Node28 -->
<g id="node28" class="node"><title>Node28</title>
<polygon fill="none" stroke="#bfbfbf" points="1799.22,-129 1799.22,-148 1929.22,-148 1929.22,-129 1799.22,-129"/>
<text text-anchor="middle" x="1864.22" y="-136" font-family="Helvetica,sans-Serif" font-size="10.00">InfoLogger/InfoLogger.hxx</text>
</g>
<!-- Node27&#45;&gt;Node28 -->
<g id="edge38" class="edge"><title>Node27&#45;&gt;Node28</title>
<path fill="none" stroke="midnightblue" d="M1900.56,-195.734C1894.13,-185.793 1883.5,-169.338 1875.39,-156.789"/>
<polygon fill="midnightblue" stroke="midnightblue" points="1878.16,-154.627 1869.8,-148.127 1872.28,-158.426 1878.16,-154.627"/>
</g>
<!-- Node29 -->
<g id="node29" class="node"><title>Node29</title>
<polygon fill="none" stroke="#bfbfbf" points="1947.22,-129 1947.22,-148 2109.22,-148 2109.22,-129 1947.22,-129"/>
<text text-anchor="middle" x="2028.22" y="-136" font-family="Helvetica,sans-Serif" font-size="10.00">InfoLogger/InfoLoggerMacros.hxx</text>
</g>
<!-- Node27&#45;&gt;Node29 -->
<g id="edge39" class="edge"><title>Node27&#45;&gt;Node29</title>
<path fill="none" stroke="midnightblue" d="M1922.42,-195.869C1943.02,-184.893 1978.81,-165.824 2003,-152.938"/>
<polygon fill="midnightblue" stroke="midnightblue" points="2004.77,-155.958 2011.95,-148.167 2001.48,-149.78 2004.77,-155.958"/>
</g>
<!-- Node30&#45;&gt;Node4 -->
<g id="edge41" class="edge"><title>Node30&#45;&gt;Node4</title>
<path fill="none" stroke="midnightblue" d="M1113.28,-195.888C1132.78,-188.269 1157.33,-175.031 1169.22,-154 1190.66,-116.089 1197.63,-89.0178 1169.22,-56 1134.97,-16.1855 971.169,-11.1426 902.074,-10.8201"/>
<polygon fill="midnightblue" stroke="midnightblue" points="901.838,-7.31982 891.833,-10.8043 901.827,-14.3198 901.838,-7.31982"/>
</g>
<!-- Node30&#45;&gt;Node5 -->
<g id="edge45" class="edge"><title>Node30&#45;&gt;Node5</title>
<path fill="none" stroke="midnightblue" d="M1043.72,-195.936C986.508,-184.131 883.483,-162.872 821.519,-150.085"/>
<polygon fill="midnightblue" stroke="midnightblue" points="822.068,-146.625 811.567,-148.032 820.653,-153.481 822.068,-146.625"/>
</g>
<!-- Node30&#45;&gt;Node11 -->
<g id="edge54" class="edge"><title>Node30&#45;&gt;Node11</title>
<path fill="none" stroke="midnightblue" d="M1110.44,-195.941C1177.8,-173.087 1361.97,-110.589 1439.3,-84.3481"/>
<polygon fill="midnightblue" stroke="midnightblue" points="1440.71,-87.5676 1449.05,-81.0398 1438.46,-80.9388 1440.71,-87.5676"/>
</g>
<!-- Node30&#45;&gt;Node20 -->
<g id="edge44" class="edge"><title>Node30&#45;&gt;Node20</title>
<path fill="none" stroke="midnightblue" d="M1090.99,-195.721C1106.88,-170.329 1147.75,-96.0742 1110.22,-56 1088.63,-32.9469 633.017,-17.2145 477.05,-12.4878"/>
<polygon fill="midnightblue" stroke="midnightblue" points="476.883,-8.98133 466.783,-12.1795 476.673,-15.9782 476.883,-8.98133"/>
</g>
<!-- Node30&#45;&gt;Node21 -->
<g id="edge42" class="edge"><title>Node30&#45;&gt;Node21</title>
<path fill="none" stroke="midnightblue" d="M1025.69,-195.942C985.802,-188.589 932.961,-175.649 890.221,-154 870.777,-144.151 872.03,-132.093 852.221,-123 769.343,-84.9572 739.837,-103.884 650.221,-87 638.239,-84.7426 625.173,-82.1794 613.448,-79.8424"/>
<polygon fill="midnightblue" stroke="midnightblue" points="614.045,-76.3924 603.552,-77.8604 612.67,-83.2561 614.045,-76.3924"/>
</g>
<!-- Node30&#45;&gt;Node23 -->
<g id="edge43" class="edge"><title>Node30&#45;&gt;Node23</title>
<path fill="none" stroke="midnightblue" d="M1087.38,-195.91C1090.82,-181.023 1096.82,-149.485 1093.22,-123 1091.74,-112.127 1088.55,-100.29 1085.59,-90.8109"/>
<polygon fill="midnightblue" stroke="midnightblue" points="1088.9,-89.6855 1082.44,-81.2874 1082.25,-91.8806 1088.9,-89.6855"/>
</g>
<!-- Node31 -->
<g id="node31" class="node"><title>Node31</title>
<g id="a_node31"><a xlink:href="QualityObject_8h_source.html" target="_top" xlink:title="QualityControl/QualityObject.h">
<polygon fill="none" stroke="black" points="1503.72,-129 1503.72,-148 1652.72,-148 1652.72,-129 1503.72,-129"/>
<text text-anchor="middle" x="1578.22" y="-136" font-family="Helvetica,sans-Serif" font-size="10.00">QualityControl/QualityObject.h</text>
</a>
</g>
</g>
<!-- Node30&#45;&gt;Node31 -->
<g id="edge46" class="edge"><title>Node30&#45;&gt;Node31</title>
<path fill="none" stroke="midnightblue" d="M1138.87,-195.967C1152.05,-193.941 1166.14,-191.836 1179.22,-190 1288.63,-174.64 1415.22,-158.975 1495.96,-149.25"/>
<polygon fill="midnightblue" stroke="midnightblue" points="1496.55,-152.704 1506.06,-148.035 1495.72,-145.754 1496.55,-152.704"/>
</g>
<!-- Node31&#45;&gt;Node12 -->
<g id="edge47" class="edge"><title>Node31&#45;&gt;Node12</title>
<path fill="none" stroke="midnightblue" d="M1578.31,-128.91C1578.04,-112.894 1575.37,-78.1014 1558.22,-56 1543.95,-37.6068 1519.99,-25.838 1501.3,-18.9683"/>
<polygon fill="midnightblue" stroke="midnightblue" points="1502.42,-15.6513 1491.83,-15.7291 1500.16,-22.2751 1502.42,-15.6513"/>
</g>
<!-- Node31&#45;&gt;Node14 -->
<g id="edge48" class="edge"><title>Node31&#45;&gt;Node14</title>
<path fill="none" stroke="midnightblue" d="M1581.44,-128.713C1584.9,-118.756 1590.18,-101.965 1592.22,-87 1594.08,-73.348 1593.72,-69.6955 1592.22,-56 1591.25,-47.1398 1589.23,-37.4716 1587.26,-29.3755"/>
<polygon fill="midnightblue" stroke="midnightblue" points="1590.6,-28.333 1584.7,-19.5332 1583.83,-30.0919 1590.6,-28.333"/>
</g>
<!-- Node31&#45;&gt;Node15 -->
<g id="edge49" class="edge"><title>Node31&#45;&gt;Node15</title>
<path fill="none" stroke="midnightblue" d="M1585.78,-128.805C1603.91,-107.952 1650.12,-54.8145 1673.78,-27.6051"/>
<polygon fill="midnightblue" stroke="midnightblue" points="1676.69,-29.5984 1680.61,-19.7557 1671.4,-25.0051 1676.69,-29.5984"/>
</g>
<!-- Node32 -->
<g id="node32" class="node"><title>Node32</title>
<g id="a_node32"><a xlink:href="Quality_8h.html" target="_top" xlink:title="QualityControl/Quality.h">
<polygon fill="none" stroke="black" points="1259.72,-62 1259.72,-81 1380.72,-81 1380.72,-62 1259.72,-62"/>
<text text-anchor="middle" x="1320.22" y="-69" font-family="Helvetica,sans-Serif" font-size="10.00">QualityControl/Quality.h</text>
</a>
</g>
</g>
<!-- Node31&#45;&gt;Node32 -->
<g id="edge50" class="edge"><title>Node31&#45;&gt;Node32</title>
<path fill="none" stroke="midnightblue" d="M1544.23,-128.936C1497.92,-117.268 1414.95,-96.3669 1364.03,-83.5367"/>
<polygon fill="midnightblue" stroke="midnightblue" points="1364.84,-80.1326 1354.29,-81.0834 1363.13,-86.9205 1364.84,-80.1326"/>
</g>
<!-- Node32&#45;&gt;Node4 -->
<g id="edge52" class="edge"><title>Node32&#45;&gt;Node4</title>
<path fill="none" stroke="midnightblue" d="M1279.05,-61.9934C1268.08,-59.8775 1256.23,-57.7238 1245.22,-56 1118.48,-36.1501 966.391,-20.2998 902.205,-13.9737"/>
<polygon fill="midnightblue" stroke="midnightblue" points="902.263,-10.4627 891.97,-12.9725 901.581,-17.4295 902.263,-10.4627"/>
</g>
<!-- Node32&#45;&gt;Node12 -->
<g id="edge53" class="edge"><title>Node32&#45;&gt;Node12</title>
<path fill="none" stroke="midnightblue" d="M1342.29,-61.9751C1369.93,-51.2933 1417.3,-32.994 1447.12,-21.4715"/>
<polygon fill="midnightblue" stroke="midnightblue" points="1448.44,-24.7133 1456.51,-17.8445 1445.92,-18.1837 1448.44,-24.7133"/>
</g>
<!-- Node32&#45;&gt;Node13 -->
<g id="edge51" class="edge"><title>Node32&#45;&gt;Node13</title>
<path fill="none" stroke="midnightblue" d="M1326.67,-61.9751C1333.42,-53.0501 1344.19,-38.8071 1352.63,-27.6425"/>
<polygon fill="midnightblue" stroke="midnightblue" points="1355.54,-29.5962 1358.79,-19.5091 1349.96,-25.3737 1355.54,-29.5962"/>
</g>
<!-- Node33&#45;&gt;Node4 -->
<g id="edge58" class="edge"><title>Node33&#45;&gt;Node4</title>
<path fill="none" stroke="midnightblue" d="M1469.03,-257.36C1449.72,-247.896 1424.41,-234.702 1403.22,-221 1303.25,-156.362 1301.8,-102.52 1192.22,-56 1092.25,-13.5611 960.583,-9.53448 901.821,-10.1234"/>
<polygon fill="midnightblue" stroke="midnightblue" points="901.666,-6.62526 891.721,-10.2788 901.774,-13.6244 901.666,-6.62526"/>
</g>
<!-- Node33&#45;&gt;Node15 -->
<g id="edge59" class="edge"><title>Node33&#45;&gt;Node15</title>
<path fill="none" stroke="midnightblue" d="M1563.43,-260.255C1622.05,-249.336 1700.96,-232.736 1710.22,-221 1755.54,-163.548 1716.81,-68.0046 1697.55,-28.7091"/>
<polygon fill="midnightblue" stroke="midnightblue" points="1700.67,-27.1275 1693.03,-19.7881 1694.42,-30.2905 1700.67,-27.1275"/>
</g>
<!-- Node33&#45;&gt;Node27 -->
<g id="edge64" class="edge"><title>Node33&#45;&gt;Node27</title>
<path fill="none" stroke="midnightblue" d="M1563.46,-259.356C1568.11,-258.538 1572.74,-257.745 1577.22,-257 1686.23,-238.899 1714.12,-238.51 1823.22,-221 1831.53,-219.667 1840.29,-218.202 1848.88,-216.73"/>
<polygon fill="midnightblue" stroke="midnightblue" points="1849.6,-220.158 1858.86,-215.008 1848.41,-213.26 1849.6,-220.158"/>
</g>
<!-- Node34 -->
<g id="node34" class="node"><title>Node34</title>
<polygon fill="none" stroke="#bfbfbf" points="1758.22,-196 1758.22,-215 1814.22,-215 1814.22,-196 1758.22,-196"/>
<text text-anchor="middle" x="1786.22" y="-203" font-family="Helvetica,sans-Serif" font-size="10.00">TClass.h</text>
</g>
<!-- Node33&#45;&gt;Node34 -->
<g id="edge60" class="edge"><title>Node33&#45;&gt;Node34</title>
<path fill="none" stroke="midnightblue" d="M1563.46,-259.235C1624.21,-247.46 1710.87,-230.152 1744.22,-221 1747.25,-220.169 1750.37,-219.236 1753.49,-218.255"/>
<polygon fill="midnightblue" stroke="midnightblue" points="1754.88,-221.48 1763.28,-215.019 1752.69,-214.833 1754.88,-221.48"/>
</g>
<!-- Node35 -->
<g id="node35" class="node"><title>Node35</title>
<polygon fill="none" stroke="#bfbfbf" points="1412.72,-196 1412.72,-215 1471.72,-215 1471.72,-196 1412.72,-196"/>
<text text-anchor="middle" x="1442.22" y="-203" font-family="Helvetica,sans-Serif" font-size="10.00">TROOT.h</text>
</g>
<!-- Node33&#45;&gt;Node35 -->
<g id="edge61" class="edge"><title>Node33&#45;&gt;Node35</title>
<path fill="none" stroke="midnightblue" d="M1486.85,-257.396C1477.97,-247.261 1465.96,-233.567 1456.63,-222.937"/>
<polygon fill="midnightblue" stroke="midnightblue" points="1459.07,-220.406 1449.85,-215.195 1453.81,-225.021 1459.07,-220.406"/>
</g>
<!-- Node36 -->
<g id="node36" class="node"><title>Node36</title>
<polygon fill="none" stroke="#bfbfbf" points="1489.72,-196 1489.72,-215 1554.72,-215 1554.72,-196 1489.72,-196"/>
<text text-anchor="middle" x="1522.22" y="-203" font-family="Helvetica,sans-Serif" font-size="10.00">TSystem.h</text>
</g>
<!-- Node33&#45;&gt;Node36 -->
<g id="edge62" class="edge"><title>Node33&#45;&gt;Node36</title>
<path fill="none" stroke="midnightblue" d="M1504.21,-257.396C1507.58,-247.863 1512.07,-235.182 1515.72,-224.862"/>
<polygon fill="midnightblue" stroke="midnightblue" points="1519.11,-225.789 1519.14,-215.195 1512.51,-223.454 1519.11,-225.789"/>
</g>
<!-- Node37 -->
<g id="node37" class="node"><title>Node37</title>
<polygon fill="none" stroke="#bfbfbf" points="1572.72,-196 1572.72,-215 1701.72,-215 1701.72,-196 1572.72,-196"/>
<text text-anchor="middle" x="1637.22" y="-203" font-family="Helvetica,sans-Serif" font-size="10.00">boost/filesystem/path.hpp</text>
</g>
<!-- Node33&#45;&gt;Node37 -->
<g id="edge63" class="edge"><title>Node33&#45;&gt;Node37</title>
<path fill="none" stroke="midnightblue" d="M1529.16,-257.396C1553.16,-246.092 1586.56,-230.361 1609.85,-219.39"/>
<polygon fill="midnightblue" stroke="midnightblue" points="1611.6,-222.435 1619.16,-215.007 1608.62,-216.102 1611.6,-222.435"/>
</g>
</g>
</svg>
        <g id="navigator" transform="translate(0 0)" fill="#404254">
                <rect fill="#f2f5e9" fill-opacity="0.5" stroke="#606060" stroke-width=".5" x="0" y="0" width="60" height="60"/>
                <use id="zoomplus" xlink:href="#zoomPlus" x="17" y="9" onmousedown="handleZoom(evt,'in')"/>
                <use id="zoomminus" xlink:href="#zoomMin" x="42" y="9" onmousedown="handleZoom(evt,'out')"/>
                <use id="reset" xlink:href="#resetDef" x="30" y="36" onmousedown="handleReset()"/>
                <g id="arrowUp" xlink:href="#dirArrow" transform="translate(30 24)" onmousedown="handlePan(0,-1)">
                  <use xlink:href="#rim" fill="#404040">
                        <set attributeName="fill" to="#808080" begin="arrowUp.mouseover" end="arrowUp.mouseout"/>
                  </use>
                  <path fill="none" stroke="white" stroke-width="1.5" d="M0,-3.0v7 M-2.5,-0.5L0,-3.0L2.5,-0.5"/>
                </g>
                <g id="arrowRight" xlink:href="#dirArrow" transform="rotate(90) translate(36 -43)" onmousedown="handlePan(1,0)">
                  <use xlink:href="#rim" fill="#404040">
                        <set attributeName="fill" to="#808080" begin="arrowRight.mouseover" end="arrowRight.mouseout"/>
                  </use>
                  <path fill="none" stroke="white" stroke-width="1.5" d="M0,-3.0v7 M-2.5,-0.5L0,-3.0L2.5,-0.5"/>
                </g>
                <g id="arrowDown" xlink:href="#dirArrow" transform="rotate(180) translate(-30 -48)" onmousedown="handlePan(0,1)">
                  <use xlink:href="#rim" fill="#404040">
                        <set attributeName="fill" to="#808080" begin="arrowDown.mouseover" end="arrowDown.mouseout"/>
                  </use>
                  <path fill="none" stroke="white" stroke-width="1.5" d="M0,-3.0v7 M-2.5,-0.5L0,-3.0L2.5,-0.5"/>
                </g>
                <g id="arrowLeft" xlink:href="#dirArrow" transform="rotate(270) translate(-36 17)" onmousedown="handlePan(-1,0)">
                  <use xlink:href="#rim" fill="#404040">
                        <set attributeName="fill" to="#808080" begin="arrowLeft.mouseover" end="arrowLeft.mouseout"/>
                  </use>
                  <path fill="none" stroke="white" stroke-width="1.5" d="M0,-3.0v7 M-2.5,-0.5L0,-3.0L2.5,-0.5"/>
                </g>
        </g>
        <svg viewBox="0 0 15 15" width="100%" height="30px" preserveAspectRatio="xMaxYMin meet">
         <g id="arrow_out" transform="scale(0.3 0.3)">
          <a xlink:href="TrendingTask_8cxx__incl_org.svg" target="_base">
           <rect id="button" ry="5" rx="5" y="6" x="6" height="38" width="38"
                fill="#f2f5e9" fill-opacity="0.5" stroke="#606060" stroke-width="1.0"/>
           <path id="arrow"
             d="M 11.500037,31.436501 C 11.940474,20.09759 22.043105,11.32322 32.158766,21.979434 L 37.068811,17.246167 C 37.068811,17.246167 37.088388,32 37.088388,32 L 22.160133,31.978069 C 22.160133,31.978069 26.997745,27.140456 26.997745,27.140456 C 18.528582,18.264221 13.291696,25.230495 11.500037,31.436501 z"
             style="fill:#404040;"/>
          </a>
         </g>
        </svg>
</svg>
