<?xml version="1.0" encoding="UTF-8" standalone="no"?>
<!DOCTYPE svg PUBLIC "-//W3C//DTD SVG 1.1//EN"
 "http://www.w3.org/Graphics/SVG/1.1/DTD/svg11.dtd">
<!-- Generated by graphviz version 2.38.0 (20140413.2041)
 -->
<!-- Title: Framework/include/QualityControl/TrendingTaskConfig.h Pages: 1 -->
<svg width="245pt" height="173pt"
 viewBox="0.00 0.00 244.50 173.00" xmlns="http://www.w3.org/2000/svg" xmlns:xlink="http://www.w3.org/1999/xlink">
<g id="graph0" class="graph" transform="scale(1 1) rotate(0) translate(4 169)">
<title>Framework/include/QualityControl/TrendingTaskConfig.h</title>
<!-- Node1 -->
<g id="node1" class="node"><title>Node1</title>
<polygon fill="#bfbfbf" stroke="black" points="46.5,-134.5 46.5,-164.5 193.5,-164.5 193.5,-134.5 46.5,-134.5"/>
<text text-anchor="start" x="54.5" y="-152.5" font-family="Helvetica,sans-Serif" font-size="10.00">Framework/include/Quality</text>
<text text-anchor="middle" x="120" y="-141.5" font-family="Helvetica,sans-Serif" font-size="10.00">Control/TrendingTaskConfig.h</text>
</g>
<!-- Node2 -->
<g id="node2" class="node"><title>Node2</title>
<polygon fill="none" stroke="#bfbfbf" points="0,-6 0,-25 44,-25 44,-6 0,-6"/>
<text text-anchor="middle" x="22" y="-13" font-family="Helvetica,sans-Serif" font-size="10.00">vector</text>
</g>
<!-- Node1&#45;&gt;Node2 -->
<g id="edge1" class="edge"><title>Node1&#45;&gt;Node2</title>
<path fill="none" stroke="midnightblue" d="M81.5757,-134.49C64.6852,-126.387 46.1843,-114.473 35,-98 22.3901,-79.4268 20.3459,-53.06 20.6578,-35.3966"/>
<polygon fill="midnightblue" stroke="midnightblue" points="24.1628,-35.3625 21.1156,-25.2154 17.1699,-35.048 24.1628,-35.3625"/>
</g>
<!-- Node3 -->
<g id="node3" class="node"><title>Node3</title>
<polygon fill="none" stroke="#bfbfbf" points="195.5,-6 195.5,-25 236.5,-25 236.5,-6 195.5,-6"/>
<text text-anchor="middle" x="216" y="-13" font-family="Helvetica,sans-Serif" font-size="10.00">string</text>
</g>
<!-- Node1&#45;&gt;Node3 -->
<g id="edge2" class="edge"><title>Node1&#45;&gt;Node3</title>
<path fill="none" stroke="midnightblue" d="M158.068,-134.446C174.78,-126.334 193.054,-114.425 204,-98 216.427,-79.3534 218.137,-53.003 217.594,-35.3634"/>
<polygon fill="midnightblue" stroke="midnightblue" points="221.078,-34.9775 217.002,-25.1981 214.09,-35.3848 221.078,-34.9775"/>
</g>
<!-- Node4 -->
<g id="node4" class="node"><title>Node4</title>
<g id="a_node4"><a xlink:href="PostProcessingConfig_8h.html" target="_top" xlink:title="QualityControl/PostProcessing\lConfig.h">
<polygon fill="none" stroke="black" points="44.5,-67.5 44.5,-97.5 195.5,-97.5 195.5,-67.5 44.5,-67.5"/>
<text text-anchor="start" x="52.5" y="-85.5" font-family="Helvetica,sans-Serif" font-size="10.00">QualityControl/PostProcessing</text>
<text text-anchor="middle" x="120" y="-74.5" font-family="Helvetica,sans-Serif" font-size="10.00">Config.h</text>
</a>
</g>
</g>
<!-- Node1&#45;&gt;Node4 -->
<g id="edge3" class="edge"><title>Node1&#45;&gt;Node4</title>
<path fill="none" stroke="midnightblue" d="M120,-134.396C120,-126.645 120,-116.812 120,-107.86"/>
<polygon fill="midnightblue" stroke="midnightblue" points="123.5,-107.576 120,-97.5765 116.5,-107.577 123.5,-107.576"/>
</g>
<!-- Node4&#45;&gt;Node2 -->
<g id="edge4" class="edge"><title>Node4&#45;&gt;Node2</title>
<path fill="none" stroke="midnightblue" d="M98.7355,-67.396C82.3011,-56.4956 59.6602,-41.4787 43.2336,-30.5835"/>
<polygon fill="midnightblue" stroke="midnightblue" points="45.0941,-27.6177 34.8259,-25.007 41.2249,-33.4512 45.0941,-27.6177"/>
</g>
<!-- Node4&#45;&gt;Node3 -->
<g id="edge5" class="edge"><title>Node4&#45;&gt;Node3</title>
<path fill="none" stroke="midnightblue" d="M140.831,-67.396C156.78,-56.5966 178.698,-41.7564 194.751,-30.8872"/>
<polygon fill="midnightblue" stroke="midnightblue" points="197.118,-33.5118 203.436,-25.007 193.193,-27.7154 197.118,-33.5118"/>
</g>
<!-- Node5 -->
<g id="node5" class="node"><title>Node5</title>
<polygon fill="none" stroke="#bfbfbf" points="69.5,-0.5 69.5,-30.5 170.5,-30.5 170.5,-0.5 69.5,-0.5"/>
<text text-anchor="start" x="77.5" y="-18.5" font-family="Helvetica,sans-Serif" font-size="10.00">boost/property_tree</text>
<text text-anchor="middle" x="120" y="-7.5" font-family="Helvetica,sans-Serif" font-size="10.00">/ptree_fwd.hpp</text>
</g>
<!-- Node4&#45;&gt;Node5 -->
<g id="edge6" class="edge"><title>Node4&#45;&gt;Node5</title>
<path fill="none" stroke="midnightblue" d="M120,-67.396C120,-59.6448 120,-49.8122 120,-40.8601"/>
<polygon fill="midnightblue" stroke="midnightblue" points="123.5,-40.5765 120,-30.5765 116.5,-40.5765 123.5,-40.5765"/>
</g>
</g>
</svg>
