<?xml version="1.0" encoding="UTF-8" standalone="no"?>
<!DOCTYPE svg PUBLIC "-//W3C//DTD SVG 1.1//EN"
 "http://www.w3.org/Graphics/SVG/1.1/DTD/svg11.dtd">
<!-- Generated by graphviz version 2.38.0 (20140413.2041)
 -->
<!-- Title: Framework/include/QualityControl/TrendingTaskConfig.h Pages: 1 -->
<svg width="404pt" height="173pt"
 viewBox="0.00 0.00 403.50 173.00" xmlns="http://www.w3.org/2000/svg" xmlns:xlink="http://www.w3.org/1999/xlink">
<g id="graph0" class="graph" transform="scale(1 1) rotate(0) translate(4 169)">
<title>Framework/include/QualityControl/TrendingTaskConfig.h</title>
<!-- Node1 -->
<g id="node1" class="node"><title>Node1</title>
<polygon fill="#bfbfbf" stroke="black" points="171,-134.5 171,-164.5 318,-164.5 318,-134.5 171,-134.5"/>
<text text-anchor="start" x="179" y="-152.5" font-family="Helvetica,sans-Serif" font-size="10.00">Framework/include/Quality</text>
<text text-anchor="middle" x="244.5" y="-141.5" font-family="Helvetica,sans-Serif" font-size="10.00">Control/TrendingTaskConfig.h</text>
</g>
<!-- Node2 -->
<g id="node2" class="node"><title>Node2</title>
<g id="a_node2"><a xlink:href="TrendingTask_8h.html" target="_top" xlink:title="Framework/include/Quality\lControl/TrendingTask.h">
<polygon fill="none" stroke="black" points="100,-67.5 100,-97.5 233,-97.5 233,-67.5 100,-67.5"/>
<text text-anchor="start" x="108" y="-85.5" font-family="Helvetica,sans-Serif" font-size="10.00">Framework/include/Quality</text>
<text text-anchor="middle" x="166.5" y="-74.5" font-family="Helvetica,sans-Serif" font-size="10.00">Control/TrendingTask.h</text>
</a>
</g>
</g>
<!-- Node1&#45;&gt;Node2 -->
<g id="edge1" class="edge"><title>Node1&#45;&gt;Node2</title>
<path fill="none" stroke="midnightblue" d="M219.76,-127.883C207.907,-118.005 194.015,-106.429 183.392,-97.5765"/>
<polygon fill="midnightblue" stroke="midnightblue" points="217.652,-130.683 227.575,-134.396 222.134,-125.305 217.652,-130.683"/>
</g>
<!-- Node5 -->
<g id="node5" class="node"><title>Node5</title>
<g id="a_node5"><a xlink:href="TrendingTaskConfig_8cxx.html" target="_top" xlink:title="Framework/src/TrendingTask\lConfig.cxx">
<polygon fill="none" stroke="black" points="251.5,-67.5 251.5,-97.5 395.5,-97.5 395.5,-67.5 251.5,-67.5"/>
<text text-anchor="start" x="259.5" y="-85.5" font-family="Helvetica,sans-Serif" font-size="10.00">Framework/src/TrendingTask</text>
<text text-anchor="middle" x="323.5" y="-74.5" font-family="Helvetica,sans-Serif" font-size="10.00">Config.cxx</text>
</a>
</g>
</g>
<!-- Node1&#45;&gt;Node5 -->
<g id="edge4" class="edge"><title>Node1&#45;&gt;Node5</title>
<path fill="none" stroke="midnightblue" d="M269.557,-127.883C281.563,-118.005 295.632,-106.429 306.392,-97.5765"/>
<polygon fill="midnightblue" stroke="midnightblue" points="267.14,-125.34 261.642,-134.396 271.588,-130.745 267.14,-125.34"/>
</g>
<!-- Node3 -->
<g id="node3" class="node"><title>Node3</title>
<g id="a_node3"><a xlink:href="TrendingTask_8cxx.html" target="_top" xlink:title="Framework/src/TrendingTask.cxx">
<polygon fill="none" stroke="black" points="0,-6 0,-25 163,-25 163,-6 0,-6"/>
<text text-anchor="middle" x="81.5" y="-13" font-family="Helvetica,sans-Serif" font-size="10.00">Framework/src/TrendingTask.cxx</text>
</a>
</g>
</g>
<!-- Node2&#45;&gt;Node3 -->
<g id="edge2" class="edge"><title>Node2&#45;&gt;Node3</title>
<path fill="none" stroke="midnightblue" d="M139.703,-61.008C123.923,-48.9412 104.783,-34.3046 92.8698,-25.1945"/>
<polygon fill="midnightblue" stroke="midnightblue" points="137.987,-64.1017 148.056,-67.396 142.239,-58.5412 137.987,-64.1017"/>
</g>
<!-- Node4 -->
<g id="node4" class="node"><title>Node4</title>
<g id="a_node4"><a xlink:href="testTrendingTask_8cxx.html" target="_top" xlink:title="Framework/test/testTrending\lTask.cxx">
<polygon fill="none" stroke="black" points="181.5,-0.5 181.5,-30.5 323.5,-30.5 323.5,-0.5 181.5,-0.5"/>
<text text-anchor="start" x="189.5" y="-18.5" font-family="Helvetica,sans-Serif" font-size="10.00">Framework/test/testTrending</text>
<text text-anchor="middle" x="252.5" y="-7.5" font-family="Helvetica,sans-Serif" font-size="10.00">Task.cxx</text>
</a>
</g>
</g>
<!-- Node2&#45;&gt;Node4 -->
<g id="edge3" class="edge"><title>Node2&#45;&gt;Node4</title>
<path fill="none" stroke="midnightblue" d="M193.401,-61.1677C206.552,-51.2283 222.05,-39.5144 233.876,-30.5765"/>
<polygon fill="midnightblue" stroke="midnightblue" points="191.028,-58.5741 185.161,-67.396 195.249,-64.1585 191.028,-58.5741"/>
</g>
</g>
</svg>
