<?xml version="1.0" encoding="UTF-8" standalone="no"?>
<!DOCTYPE svg PUBLIC "-//W3C//DTD SVG 1.1//EN"
 "http://www.w3.org/Graphics/SVG/1.1/DTD/svg11.dtd">
<!-- Generated by graphviz version 2.38.0 (20140413.2041)
 -->
<!-- Title: Modules/ITS/include/ITS/TrendingTaskITSFhr.h Pages: 1 -->
<!--zoomable 296 -->
<svg id="main" version="1.1" xmlns="http://www.w3.org/2000/svg" xmlns:xlink="http://www.w3.org/1999/xlink" xml:space="preserve" onload="init(evt)">
<style type="text/css"><![CDATA[
.edge:hover path { stroke: red; }
.edge:hover polygon { stroke: red; fill: red; }
]]></style>
<script type="text/javascript"><![CDATA[
var edges = document.getElementsByTagName('g');
if (edges && edges.length) {
  for (var i=0;i<edges.length;i++) {
    if (edges[i].id.substr(0,4)=='edge') {
      edges[i].setAttribute('class','edge');
    }
  }
}
]]></script>
        <defs>
                <circle id="rim" cx="0" cy="0" r="7"/>
                <circle id="rim2" cx="0" cy="0" r="3.5"/>
                <g id="zoomPlus">
                        <use xlink:href="#rim" fill="#404040">
                                <set attributeName="fill" to="#808080" begin="zoomplus.mouseover" end="zoomplus.mouseout"/>
                        </use>
                        <path d="M-4,0h8M0,-4v8" fill="none" stroke="white" stroke-width="1.5" pointer-events="none"/>
                </g>
                <g id="zoomMin">
                        <use xlink:href="#rim" fill="#404040">
                                <set attributeName="fill" to="#808080" begin="zoomminus.mouseover" end="zoomminus.mouseout"/>
                        </use>
                        <path d="M-4,0h8" fill="none" stroke="white" stroke-width="1.5" pointer-events="none"/>
                </g>
                <g id="dirArrow">
                        <path fill="none" stroke="white" stroke-width="1.5" d="M0,-3.0v7 M-2.5,-0.5L0,-3.0L2.5,-0.5"/>
                </g>
               <g id="resetDef">
                       <use xlink:href="#rim2" fill="#404040">
                               <set attributeName="fill" to="#808080" begin="reset.mouseover" end="reset.mouseout"/>
                       </use>
               </g>
        </defs>

<script type="text/javascript">
var viewWidth = 1547;
var viewHeight = 296;
var sectionId = 'dynsection-0';
</script>
<script xlink:href="svgpan.js"/>
<svg id="graph" class="graph">
<g id="viewport">
<title>Modules/ITS/include/ITS/TrendingTaskITSFhr.h</title>
<!-- Node1 -->
<g id="node1" class="node"><title>Node1</title>
<polygon fill="#bfbfbf" stroke="black" points="1078.24,-257.5 1078.24,-287.5 1214.24,-287.5 1214.24,-257.5 1078.24,-257.5"/>
<text text-anchor="start" x="1086.24" y="-275.5" font-family="Helvetica,sans-Serif" font-size="10.00">Modules/ITS/include</text>
<text text-anchor="middle" x="1146.24" y="-264.5" font-family="Helvetica,sans-Serif" font-size="10.00">/ITS/TrendingTaskITSFhr.h</text>
</g>
<!-- Node2 -->
<g id="node2" class="node"><title>Node2</title>
<g id="a_node2"><a xlink:href="TrendingTaskConfigITS_8h_source.html" target="_top" xlink:title="ITS/TrendingTaskConfigITS.h">
<polygon fill="none" stroke="black" points="53.7369,-196 53.7369,-215 200.737,-215 200.737,-196 53.7369,-196"/>
<text text-anchor="middle" x="127.237" y="-203" font-family="Helvetica,sans-Serif" font-size="10.00">ITS/TrendingTaskConfigITS.h</text>
</a>
</g>
</g>
<!-- Node1&#45;&gt;Node2 -->
<g id="edge1" class="edge"><title>Node1&#45;&gt;Node2</title>
<path fill="none" stroke="midnightblue" d="M1077.97,-269.471C926.44,-264.58 550.597,-250.316 237.237,-221 223.864,-219.749 209.616,-218.104 195.961,-216.372"/>
<polygon fill="midnightblue" stroke="midnightblue" points="196.026,-212.851 185.659,-215.036 195.125,-219.793 196.026,-212.851"/>
</g>
<!-- Node4 -->
<g id="node4" class="node"><title>Node4</title>
<polygon fill="none" stroke="#bfbfbf" points="21.2369,-62 21.2369,-81 65.2369,-81 65.2369,-62 21.2369,-62"/>
<text text-anchor="middle" x="43.2369" y="-69" font-family="Helvetica,sans-Serif" font-size="10.00">vector</text>
</g>
<!-- Node1&#45;&gt;Node4 -->
<g id="edge40" class="edge"><title>Node1&#45;&gt;Node4</title>
<path fill="none" stroke="midnightblue" d="M1078.19,-270.932C843.489,-268.647 80.1637,-258.358 44.2369,-221 10.5061,-185.925 25.9704,-121.847 36.4237,-90.5997"/>
<polygon fill="midnightblue" stroke="midnightblue" points="39.7781,-91.6124 39.8233,-81.0177 33.181,-89.2718 39.7781,-91.6124"/>
</g>
<!-- Node5 -->
<g id="node5" class="node"><title>Node5</title>
<polygon fill="none" stroke="#bfbfbf" points="337.737,-0.5 337.737,-19.5 378.737,-19.5 378.737,-0.5 337.737,-0.5"/>
<text text-anchor="middle" x="358.237" y="-7.5" font-family="Helvetica,sans-Serif" font-size="10.00">string</text>
</g>
<!-- Node1&#45;&gt;Node5 -->
<g id="edge39" class="edge"><title>Node1&#45;&gt;Node5</title>
<path fill="none" stroke="midnightblue" d="M1077.98,-269.853C923.872,-265.62 553.032,-252.409 432.237,-221 374.616,-206.017 226.815,-140.276 200.237,-87 194.086,-74.6713 191.935,-66.996 200.237,-56 215.532,-35.7405 285.948,-21.8983 327.435,-15.3442"/>
<polygon fill="midnightblue" stroke="midnightblue" points="328.199,-18.7682 337.556,-13.7989 327.142,-11.8484 328.199,-18.7682"/>
</g>
<!-- Node7 -->
<g id="node7" class="node"><title>Node7</title>
<g id="a_node7"><a xlink:href="PostProcessingInterface_8h.html" target="_top" xlink:title="QualityControl/PostProcessing\lInterface.h">
<polygon fill="none" stroke="black" points="441.737,-190.5 441.737,-220.5 592.737,-220.5 592.737,-190.5 441.737,-190.5"/>
<text text-anchor="start" x="449.737" y="-208.5" font-family="Helvetica,sans-Serif" font-size="10.00">QualityControl/PostProcessing</text>
<text text-anchor="middle" x="517.237" y="-197.5" font-family="Helvetica,sans-Serif" font-size="10.00">Interface.h</text>
</a>
</g>
</g>
<!-- Node1&#45;&gt;Node7 -->
<g id="edge8" class="edge"><title>Node1&#45;&gt;Node7</title>
<path fill="none" stroke="midnightblue" d="M1078.03,-264.451C962.681,-252.532 729.36,-228.421 603.078,-215.371"/>
<polygon fill="midnightblue" stroke="midnightblue" points="603.365,-211.882 593.059,-214.335 602.646,-218.845 603.365,-211.882"/>
</g>
<!-- Node22 -->
<g id="node22" class="node"><title>Node22</title>
<polygon fill="none" stroke="#bfbfbf" points="564.737,-0.5 564.737,-19.5 647.737,-19.5 647.737,-0.5 564.737,-0.5"/>
<text text-anchor="middle" x="606.237" y="-7.5" font-family="Helvetica,sans-Serif" font-size="10.00">unordered_map</text>
</g>
<!-- Node1&#45;&gt;Node22 -->
<g id="edge41" class="edge"><title>Node1&#45;&gt;Node22</title>
<path fill="none" stroke="midnightblue" d="M1146.5,-257.478C1147.22,-211.946 1148.3,-70.3478 1134.24,-56 1098.66,-19.7162 743.316,-25.9625 657.939,-19.66"/>
<polygon fill="midnightblue" stroke="midnightblue" points="658.221,-16.1712 647.934,-18.7061 657.557,-23.1396 658.221,-16.1712"/>
</g>
<!-- Node23 -->
<g id="node23" class="node"><title>Node23</title>
<polygon fill="none" stroke="#bfbfbf" points="1073.24,-62 1073.24,-81 1125.24,-81 1125.24,-62 1073.24,-62"/>
<text text-anchor="middle" x="1099.24" y="-69" font-family="Helvetica,sans-Serif" font-size="10.00">memory</text>
</g>
<!-- Node1&#45;&gt;Node23 -->
<g id="edge38" class="edge"><title>Node1&#45;&gt;Node23</title>
<path fill="none" stroke="midnightblue" d="M1134.38,-257.477C1126.96,-247.857 1117.94,-234.445 1113.24,-221 1097.69,-176.528 1097.17,-120.265 1098.17,-91.4308"/>
<polygon fill="midnightblue" stroke="midnightblue" points="1101.68,-91.3259 1098.63,-81.1775 1094.68,-91.0085 1101.68,-91.3259"/>
</g>
<!-- Node24 -->
<g id="node24" class="node"><title>Node24</title>
<g id="a_node24"><a xlink:href="Reductor_8h.html" target="_top" xlink:title="QualityControl/Reductor.h">
<polygon fill="none" stroke="black" points="1155.24,-129 1155.24,-148 1285.24,-148 1285.24,-129 1155.24,-129"/>
<text text-anchor="middle" x="1220.24" y="-136" font-family="Helvetica,sans-Serif" font-size="10.00">QualityControl/Reductor.h</text>
</a>
</g>
</g>
<!-- Node1&#45;&gt;Node24 -->
<g id="edge31" class="edge"><title>Node1&#45;&gt;Node24</title>
<path fill="none" stroke="midnightblue" d="M1151.94,-257.262C1158.79,-240.677 1171.03,-212.659 1184.24,-190 1191.06,-178.299 1199.87,-165.903 1207.07,-156.321"/>
<polygon fill="midnightblue" stroke="midnightblue" points="1210.05,-158.178 1213.35,-148.111 1204.5,-153.921 1210.05,-158.178"/>
</g>
<!-- Node25 -->
<g id="node25" class="node"><title>Node25</title>
<polygon fill="none" stroke="#bfbfbf" points="1193.24,-196 1193.24,-215 1243.24,-215 1243.24,-196 1193.24,-196"/>
<text text-anchor="middle" x="1218.24" y="-203" font-family="Helvetica,sans-Serif" font-size="10.00">TAxis.h</text>
</g>
<!-- Node1&#45;&gt;Node25 -->
<g id="edge33" class="edge"><title>Node1&#45;&gt;Node25</title>
<path fill="none" stroke="midnightblue" d="M1161.86,-257.396C1173.42,-246.96 1189.16,-232.751 1201.07,-221.998"/>
<polygon fill="midnightblue" stroke="midnightblue" points="1203.53,-224.494 1208.61,-215.195 1198.84,-219.298 1203.53,-224.494"/>
</g>
<!-- Node26 -->
<g id="node26" class="node"><title>Node26</title>
<polygon fill="none" stroke="#bfbfbf" points="1261.24,-196 1261.24,-215 1315.24,-215 1315.24,-196 1261.24,-196"/>
<text text-anchor="middle" x="1288.24" y="-203" font-family="Helvetica,sans-Serif" font-size="10.00">TColor.h</text>
</g>
<!-- Node1&#45;&gt;Node26 -->
<g id="edge34" class="edge"><title>Node1&#45;&gt;Node26</title>
<path fill="none" stroke="midnightblue" d="M1177.05,-257.396C1201.85,-246.041 1236.42,-230.22 1260.4,-219.244"/>
<polygon fill="midnightblue" stroke="midnightblue" points="1262.02,-222.352 1269.65,-215.007 1259.1,-215.987 1262.02,-222.352"/>
</g>
<!-- Node27 -->
<g id="node27" class="node"><title>Node27</title>
<polygon fill="none" stroke="#bfbfbf" points="1333.74,-196 1333.74,-215 1390.74,-215 1390.74,-196 1333.74,-196"/>
<text text-anchor="middle" x="1362.24" y="-203" font-family="Helvetica,sans-Serif" font-size="10.00">TGraph.h</text>
</g>
<!-- Node1&#45;&gt;Node27 -->
<g id="edge35" class="edge"><title>Node1&#45;&gt;Node27</title>
<path fill="none" stroke="midnightblue" d="M1200.36,-257.475C1235.83,-247.958 1283.08,-234.661 1324.24,-221 1326.5,-220.249 1328.82,-219.444 1331.16,-218.613"/>
<polygon fill="midnightblue" stroke="midnightblue" points="1332.48,-221.856 1340.65,-215.114 1330.06,-215.288 1332.48,-221.856"/>
</g>
<!-- Node28 -->
<g id="node28" class="node"><title>Node28</title>
<polygon fill="none" stroke="#bfbfbf" points="1409.24,-196 1409.24,-215 1471.24,-215 1471.24,-196 1409.24,-196"/>
<text text-anchor="middle" x="1440.24" y="-203" font-family="Helvetica,sans-Serif" font-size="10.00">TLegend.h</text>
</g>
<!-- Node1&#45;&gt;Node28 -->
<g id="edge36" class="edge"><title>Node1&#45;&gt;Node28</title>
<path fill="none" stroke="midnightblue" d="M1214.51,-260.599C1265.78,-251.756 1337.48,-237.99 1399.24,-221 1402.2,-220.185 1405.25,-219.263 1408.3,-218.288"/>
<polygon fill="midnightblue" stroke="midnightblue" points="1409.51,-221.575 1417.86,-215.063 1407.27,-214.942 1409.51,-221.575"/>
</g>
<!-- Node29 -->
<g id="node29" class="node"><title>Node29</title>
<polygon fill="none" stroke="#bfbfbf" points="1489.24,-196 1489.24,-215 1539.24,-215 1539.24,-196 1489.24,-196"/>
<text text-anchor="middle" x="1514.24" y="-203" font-family="Helvetica,sans-Serif" font-size="10.00">TTree.h</text>
</g>
<!-- Node1&#45;&gt;Node29 -->
<g id="edge37" class="edge"><title>Node1&#45;&gt;Node29</title>
<path fill="none" stroke="midnightblue" d="M1214.48,-266.271C1282.74,-259.861 1390.25,-246.543 1480.24,-221 1482.53,-220.349 1484.87,-219.583 1487.2,-218.747"/>
<polygon fill="midnightblue" stroke="midnightblue" points="1488.54,-221.982 1496.55,-215.045 1485.96,-215.474 1488.54,-221.982"/>
</g>
<!-- Node3 -->
<g id="node3" class="node"><title>Node3</title>
<g id="a_node3"><a xlink:href="PostProcessingConfig_8h.html" target="_top" xlink:title="QualityControl/PostProcessing\lConfig.h">
<polygon fill="none" stroke="black" points="71.7369,-123.5 71.7369,-153.5 222.737,-153.5 222.737,-123.5 71.7369,-123.5"/>
<text text-anchor="start" x="79.7369" y="-141.5" font-family="Helvetica,sans-Serif" font-size="10.00">QualityControl/PostProcessing</text>
<text text-anchor="middle" x="147.237" y="-130.5" font-family="Helvetica,sans-Serif" font-size="10.00">Config.h</text>
</a>
</g>
</g>
<!-- Node2&#45;&gt;Node3 -->
<g id="edge2" class="edge"><title>Node2&#45;&gt;Node3</title>
<path fill="none" stroke="midnightblue" d="M129.934,-195.734C132.481,-187.456 136.418,-174.662 139.893,-163.367"/>
<polygon fill="midnightblue" stroke="midnightblue" points="143.306,-164.176 142.902,-153.589 136.616,-162.117 143.306,-164.176"/>
</g>
<!-- Node2&#45;&gt;Node4 -->
<g id="edge7" class="edge"><title>Node2&#45;&gt;Node4</title>
<path fill="none" stroke="midnightblue" d="M110.735,-195.996C95.7673,-187.419 74.2605,-172.772 62.2369,-154 49.9594,-134.831 45.5933,-108.598 44.0534,-91.1276"/>
<polygon fill="midnightblue" stroke="midnightblue" points="47.5412,-90.8248 43.3949,-81.075 40.5562,-91.2824 47.5412,-90.8248"/>
</g>
<!-- Node2&#45;&gt;Node5 -->
<g id="edge6" class="edge"><title>Node2&#45;&gt;Node5</title>
<path fill="none" stroke="midnightblue" d="M107.462,-195.967C89.6191,-187.46 63.5843,-172.943 46.2369,-154 15.1012,-120 -18.1877,-90.6378 12.2369,-56 32.9441,-32.4253 246.786,-17.5335 327.566,-12.7124"/>
<polygon fill="midnightblue" stroke="midnightblue" points="327.834,-16.2028 337.612,-12.124 327.425,-9.21475 327.834,-16.2028"/>
</g>
<!-- Node3&#45;&gt;Node4 -->
<g id="edge3" class="edge"><title>Node3&#45;&gt;Node4</title>
<path fill="none" stroke="midnightblue" d="M124.67,-123.396C107.23,-112.496 83.2028,-97.4787 65.7705,-86.5835"/>
<polygon fill="midnightblue" stroke="midnightblue" points="67.1831,-83.339 56.8481,-81.007 63.4731,-89.275 67.1831,-83.339"/>
</g>
<!-- Node3&#45;&gt;Node5 -->
<g id="edge4" class="edge"><title>Node3&#45;&gt;Node5</title>
<path fill="none" stroke="midnightblue" d="M146.535,-123.263C146.461,-105.081 149.229,-73.8421 167.237,-56 189.624,-33.8197 279.408,-20.1958 327.483,-14.3453"/>
<polygon fill="midnightblue" stroke="midnightblue" points="328.106,-17.7963 337.628,-13.151 327.287,-10.8443 328.106,-17.7963"/>
</g>
<!-- Node6 -->
<g id="node6" class="node"><title>Node6</title>
<polygon fill="none" stroke="#bfbfbf" points="209.737,-56.5 209.737,-86.5 310.737,-86.5 310.737,-56.5 209.737,-56.5"/>
<text text-anchor="start" x="217.737" y="-74.5" font-family="Helvetica,sans-Serif" font-size="10.00">boost/property_tree</text>
<text text-anchor="middle" x="260.237" y="-63.5" font-family="Helvetica,sans-Serif" font-size="10.00">/ptree_fwd.hpp</text>
</g>
<!-- Node3&#45;&gt;Node6 -->
<g id="edge5" class="edge"><title>Node3&#45;&gt;Node6</title>
<path fill="none" stroke="midnightblue" d="M171.756,-123.396C187.897,-114.112 209.229,-101.841 226.903,-91.6742"/>
<polygon fill="midnightblue" stroke="midnightblue" points="228.842,-94.5966 235.765,-86.5765 225.352,-88.5288 228.842,-94.5966"/>
</g>
<!-- Node7&#45;&gt;Node5 -->
<g id="edge9" class="edge"><title>Node7&#45;&gt;Node5</title>
<path fill="none" stroke="midnightblue" d="M441.503,-199.474C410.512,-193.234 377.476,-180.297 358.237,-154 331.2,-117.045 343.121,-59.1135 351.899,-29.6127"/>
<polygon fill="midnightblue" stroke="midnightblue" points="355.324,-30.3918 355.021,-19.8013 348.653,-28.2689 355.324,-30.3918"/>
</g>
<!-- Node7&#45;&gt;Node6 -->
<g id="edge11" class="edge"><title>Node7&#45;&gt;Node6</title>
<path fill="none" stroke="midnightblue" d="M441.591,-196C404.246,-189.083 359.893,-176.576 325.237,-154 302.535,-139.211 284.156,-113.848 272.807,-95.3348"/>
<polygon fill="midnightblue" stroke="midnightblue" points="275.765,-93.4589 267.671,-86.6223 269.735,-97.0142 275.765,-93.4589"/>
</g>
<!-- Node8 -->
<g id="node8" class="node"><title>Node8</title>
<polygon fill="none" stroke="#bfbfbf" points="367.237,-129 367.237,-148 513.237,-148 513.237,-129 367.237,-129"/>
<text text-anchor="middle" x="440.237" y="-136" font-family="Helvetica,sans-Serif" font-size="10.00">Framework/ServiceRegistry.h</text>
</g>
<!-- Node7&#45;&gt;Node8 -->
<g id="edge10" class="edge"><title>Node7&#45;&gt;Node8</title>
<path fill="none" stroke="midnightblue" d="M500.529,-190.396C488.048,-179.86 471.01,-165.477 458.23,-154.689"/>
<polygon fill="midnightblue" stroke="midnightblue" points="460.436,-151.971 450.537,-148.195 455.92,-157.32 460.436,-151.971"/>
</g>
<!-- Node9 -->
<g id="node9" class="node"><title>Node9</title>
<g id="a_node9"><a xlink:href="Triggers_8h.html" target="_top" xlink:title="QualityControl/Triggers.h">
<polygon fill="none" stroke="black" points="531.737,-129 531.737,-148 656.737,-148 656.737,-129 531.737,-129"/>
<text text-anchor="middle" x="594.237" y="-136" font-family="Helvetica,sans-Serif" font-size="10.00">QualityControl/Triggers.h</text>
</a>
</g>
</g>
<!-- Node7&#45;&gt;Node9 -->
<g id="edge12" class="edge"><title>Node7&#45;&gt;Node9</title>
<path fill="none" stroke="midnightblue" d="M533.945,-190.396C546.426,-179.86 563.464,-165.477 576.244,-154.689"/>
<polygon fill="midnightblue" stroke="midnightblue" points="578.554,-157.32 583.937,-148.195 574.038,-151.971 578.554,-157.32"/>
</g>
<!-- Node12 -->
<g id="node12" class="node"><title>Node12</title>
<g id="a_node12"><a xlink:href="ObjectsManager_8h.html" target="_top" xlink:title="QualityControl/ObjectsManager.h">
<polygon fill="none" stroke="black" points="706.737,-129 706.737,-148 867.737,-148 867.737,-129 706.737,-129"/>
<text text-anchor="middle" x="787.237" y="-136" font-family="Helvetica,sans-Serif" font-size="10.00">QualityControl/ObjectsManager.h</text>
</a>
</g>
</g>
<!-- Node7&#45;&gt;Node12 -->
<g id="edge16" class="edge"><title>Node7&#45;&gt;Node12</title>
<path fill="none" stroke="midnightblue" d="M575.49,-190.476C625.358,-178.471 696.145,-161.43 741.883,-150.419"/>
<polygon fill="midnightblue" stroke="midnightblue" points="742.907,-153.772 751.81,-148.029 741.269,-146.966 742.907,-153.772"/>
</g>
<!-- Node9&#45;&gt;Node5 -->
<g id="edge13" class="edge"><title>Node9&#45;&gt;Node5</title>
<path fill="none" stroke="midnightblue" d="M553.259,-128.954C498.941,-117.337 408.493,-96.8795 396.237,-87 378.148,-72.4188 367.933,-47.0123 362.751,-29.6199"/>
<polygon fill="midnightblue" stroke="midnightblue" points="366.018,-28.2895 360.04,-19.5421 359.258,-30.1081 366.018,-28.2895"/>
</g>
<!-- Node10 -->
<g id="node10" class="node"><title>Node10</title>
<polygon fill="none" stroke="#bfbfbf" points="405.737,-62 405.737,-81 464.737,-81 464.737,-62 405.737,-62"/>
<text text-anchor="middle" x="435.237" y="-69" font-family="Helvetica,sans-Serif" font-size="10.00">functional</text>
</g>
<!-- Node9&#45;&gt;Node10 -->
<g id="edge14" class="edge"><title>Node9&#45;&gt;Node10</title>
<path fill="none" stroke="midnightblue" d="M573.123,-128.869C545.606,-117.619 497.289,-97.8673 465.778,-84.9853"/>
<polygon fill="midnightblue" stroke="midnightblue" points="466.766,-81.6081 456.185,-81.0637 464.117,-88.0875 466.766,-81.6081"/>
</g>
<!-- Node11 -->
<g id="node11" class="node"><title>Node11</title>
<polygon fill="none" stroke="#bfbfbf" points="482.737,-62 482.737,-81 527.737,-81 527.737,-62 482.737,-62"/>
<text text-anchor="middle" x="505.237" y="-69" font-family="Helvetica,sans-Serif" font-size="10.00">iosfwd</text>
</g>
<!-- Node9&#45;&gt;Node11 -->
<g id="edge15" class="edge"><title>Node9&#45;&gt;Node11</title>
<path fill="none" stroke="midnightblue" d="M582.234,-128.734C567.688,-118.111 542.957,-100.049 525.453,-87.2642"/>
<polygon fill="midnightblue" stroke="midnightblue" points="527.19,-84.1988 517.05,-81.1273 523.061,-89.8517 527.19,-84.1988"/>
</g>
<!-- Node12&#45;&gt;Node5 -->
<g id="edge29" class="edge"><title>Node12&#45;&gt;Node5</title>
<path fill="none" stroke="midnightblue" d="M718.784,-128.973C675.942,-121.782 620.488,-109.011 575.237,-87 555.325,-77.3146 556.081,-65.8223 536.237,-56 487.876,-32.0628 425.637,-20.1058 389.022,-14.7521"/>
<polygon fill="midnightblue" stroke="midnightblue" points="389.353,-11.2645 378.966,-13.3545 388.389,-18.1979 389.353,-11.2645"/>
</g>
<!-- Node13 -->
<g id="node13" class="node"><title>Node13</title>
<g id="a_node13"><a xlink:href="MonitorObject_8h.html" target="_top" xlink:title="QualityControl/MonitorObject.h">
<polygon fill="none" stroke="black" points="742.737,-62 742.737,-81 893.737,-81 893.737,-62 742.737,-62"/>
<text text-anchor="middle" x="818.237" y="-69" font-family="Helvetica,sans-Serif" font-size="10.00">QualityControl/MonitorObject.h</text>
</a>
</g>
</g>
<!-- Node12&#45;&gt;Node13 -->
<g id="edge17" class="edge"><title>Node12&#45;&gt;Node13</title>
<path fill="none" stroke="midnightblue" d="M791.418,-128.734C796.112,-118.89 803.853,-102.66 809.815,-90.1594"/>
<polygon fill="midnightblue" stroke="midnightblue" points="812.977,-91.66 814.122,-81.1273 806.658,-88.6467 812.977,-91.66"/>
</g>
<!-- Node18 -->
<g id="node18" class="node"><title>Node18</title>
<g id="a_node18"><a xlink:href="MonitorObjectCollection_8h.html" target="_top" xlink:title="QualityControl/MonitorObject\lCollection.h">
<polygon fill="none" stroke="black" points="911.737,-56.5 911.737,-86.5 1054.74,-86.5 1054.74,-56.5 911.737,-56.5"/>
<text text-anchor="start" x="919.737" y="-74.5" font-family="Helvetica,sans-Serif" font-size="10.00">QualityControl/MonitorObject</text>
<text text-anchor="middle" x="983.237" y="-63.5" font-family="Helvetica,sans-Serif" font-size="10.00">Collection.h</text>
</a>
</g>
</g>
<!-- Node12&#45;&gt;Node18 -->
<g id="edge23" class="edge"><title>Node12&#45;&gt;Node18</title>
<path fill="none" stroke="midnightblue" d="M813.264,-128.869C843.184,-118.946 893.051,-102.408 931.055,-89.8051"/>
<polygon fill="midnightblue" stroke="midnightblue" points="932.547,-92.998 940.937,-86.5281 930.343,-86.3538 932.547,-92.998"/>
</g>
<!-- Node21 -->
<g id="node21" class="node"><title>Node21</title>
<g id="a_node21"><a xlink:href="TaskConfig_8h.html" target="_top" xlink:title="QualityControl/TaskConfig.h">
<polygon fill="none" stroke="black" points="584.237,-62 584.237,-81 724.237,-81 724.237,-62 584.237,-62"/>
<text text-anchor="middle" x="654.237" y="-69" font-family="Helvetica,sans-Serif" font-size="10.00">QualityControl/TaskConfig.h</text>
</a>
</g>
</g>
<!-- Node12&#45;&gt;Node21 -->
<g id="edge26" class="edge"><title>Node12&#45;&gt;Node21</title>
<path fill="none" stroke="midnightblue" d="M769.576,-128.869C746.92,-117.796 707.409,-98.4862 681.037,-85.5978"/>
<polygon fill="midnightblue" stroke="midnightblue" points="682.493,-82.4136 671.971,-81.1672 679.419,-88.7027 682.493,-82.4136"/>
</g>
<!-- Node12&#45;&gt;Node23 -->
<g id="edge30" class="edge"><title>Node12&#45;&gt;Node23</title>
<path fill="none" stroke="midnightblue" d="M855.043,-128.991C911.461,-120.988 993.521,-107.193 1063.24,-87 1065.67,-86.2947 1068.17,-85.4835 1070.66,-84.6128"/>
<polygon fill="midnightblue" stroke="midnightblue" points="1071.94,-87.8683 1080.06,-81.0575 1069.47,-81.3208 1071.94,-87.8683"/>
</g>
<!-- Node13&#45;&gt;Node5 -->
<g id="edge18" class="edge"><title>Node13&#45;&gt;Node5</title>
<path fill="none" stroke="midnightblue" d="M770.649,-61.9547C758.472,-59.8856 745.385,-57.7639 733.237,-56 605.952,-37.5179 453.564,-20.9393 389.27,-14.1979"/>
<polygon fill="midnightblue" stroke="midnightblue" points="389.327,-10.685 379.017,-13.1283 388.6,-17.6472 389.327,-10.685"/>
</g>
<!-- Node14 -->
<g id="node14" class="node"><title>Node14</title>
<polygon fill="none" stroke="#bfbfbf" points="800.737,-0.5 800.737,-19.5 835.737,-19.5 835.737,-0.5 800.737,-0.5"/>
<text text-anchor="middle" x="818.237" y="-7.5" font-family="Helvetica,sans-Serif" font-size="10.00">map</text>
</g>
<!-- Node13&#45;&gt;Node14 -->
<g id="edge19" class="edge"><title>Node13&#45;&gt;Node14</title>
<path fill="none" stroke="midnightblue" d="M818.237,-61.9751C818.237,-53.5803 818.237,-40.4806 818.237,-29.6631"/>
<polygon fill="midnightblue" stroke="midnightblue" points="821.737,-29.5091 818.237,-19.5091 814.737,-29.5091 821.737,-29.5091"/>
</g>
<!-- Node15 -->
<g id="node15" class="node"><title>Node15</title>
<polygon fill="none" stroke="#bfbfbf" points="854.237,-0.5 854.237,-19.5 910.237,-19.5 910.237,-0.5 854.237,-0.5"/>
<text text-anchor="middle" x="882.237" y="-7.5" font-family="Helvetica,sans-Serif" font-size="10.00">Rtypes.h</text>
</g>
<!-- Node13&#45;&gt;Node15 -->
<g id="edge20" class="edge"><title>Node13&#45;&gt;Node15</title>
<path fill="none" stroke="midnightblue" d="M827.407,-61.9751C837.387,-52.6966 853.549,-37.6706 865.746,-26.331"/>
<polygon fill="midnightblue" stroke="midnightblue" points="868.144,-28.8814 873.084,-19.5091 863.377,-23.7547 868.144,-28.8814"/>
</g>
<!-- Node16 -->
<g id="node16" class="node"><title>Node16</title>
<polygon fill="none" stroke="#bfbfbf" points="928.737,-0.5 928.737,-19.5 987.737,-19.5 987.737,-0.5 928.737,-0.5"/>
<text text-anchor="middle" x="958.237" y="-7.5" font-family="Helvetica,sans-Serif" font-size="10.00">TObject.h</text>
</g>
<!-- Node13&#45;&gt;Node16 -->
<g id="edge21" class="edge"><title>Node13&#45;&gt;Node16</title>
<path fill="none" stroke="midnightblue" d="M838.295,-61.9751C861.999,-51.9013 901.643,-35.0525 928.82,-23.5023"/>
<polygon fill="midnightblue" stroke="midnightblue" points="930.381,-26.6417 938.216,-19.5091 927.643,-20.1994 930.381,-26.6417"/>
</g>
<!-- Node17 -->
<g id="node17" class="node"><title>Node17</title>
<polygon fill="none" stroke="#bfbfbf" points="666.237,-0.5 666.237,-19.5 782.237,-19.5 782.237,-0.5 666.237,-0.5"/>
<text text-anchor="middle" x="724.237" y="-7.5" font-family="Helvetica,sans-Serif" font-size="10.00">Common/Exceptions.h</text>
</g>
<!-- Node13&#45;&gt;Node17 -->
<g id="edge22" class="edge"><title>Node13&#45;&gt;Node17</title>
<path fill="none" stroke="midnightblue" d="M804.769,-61.9751C789.552,-52.3431 764.55,-36.5175 746.436,-25.0517"/>
<polygon fill="midnightblue" stroke="midnightblue" points="748.001,-21.9002 737.68,-19.5091 744.257,-27.8149 748.001,-21.9002"/>
</g>
<!-- Node19 -->
<g id="node19" class="node"><title>Node19</title>
<polygon fill="none" stroke="#bfbfbf" points="1005.74,-0.5 1005.74,-19.5 1074.74,-19.5 1074.74,-0.5 1005.74,-0.5"/>
<text text-anchor="middle" x="1040.24" y="-7.5" font-family="Helvetica,sans-Serif" font-size="10.00">TObjArray.h</text>
</g>
<!-- Node18&#45;&gt;Node19 -->
<g id="edge24" class="edge"><title>Node18&#45;&gt;Node19</title>
<path fill="none" stroke="midnightblue" d="M996.745,-56.3993C1005.2,-47.575 1016.11,-36.1827 1024.89,-27.0178"/>
<polygon fill="midnightblue" stroke="midnightblue" points="1027.55,-29.3002 1031.94,-19.6578 1022.5,-24.4577 1027.55,-29.3002"/>
</g>
<!-- Node20 -->
<g id="node20" class="node"><title>Node20</title>
<polygon fill="none" stroke="#bfbfbf" points="1093.24,-0.5 1093.24,-19.5 1221.24,-19.5 1221.24,-0.5 1093.24,-0.5"/>
<text text-anchor="middle" x="1157.24" y="-7.5" font-family="Helvetica,sans-Serif" font-size="10.00">Mergers/MergeInterface.h</text>
</g>
<!-- Node18&#45;&gt;Node20 -->
<g id="edge25" class="edge"><title>Node18&#45;&gt;Node20</title>
<path fill="none" stroke="midnightblue" d="M1024.47,-56.3993C1054.41,-46.1627 1094.45,-32.4703 1122.71,-22.8082"/>
<polygon fill="midnightblue" stroke="midnightblue" points="1123.84,-26.1183 1132.17,-19.5709 1121.58,-19.4949 1123.84,-26.1183"/>
</g>
<!-- Node21&#45;&gt;Node5 -->
<g id="edge27" class="edge"><title>Node21&#45;&gt;Node5</title>
<path fill="none" stroke="midnightblue" d="M611.827,-61.9751C551.431,-49.8347 442.085,-27.8546 388.917,-17.1672"/>
<polygon fill="midnightblue" stroke="midnightblue" points="389.558,-13.7259 379.064,-15.1865 388.178,-20.5887 389.558,-13.7259"/>
</g>
<!-- Node21&#45;&gt;Node22 -->
<g id="edge28" class="edge"><title>Node21&#45;&gt;Node22</title>
<path fill="none" stroke="midnightblue" d="M647.36,-61.9751C640.088,-52.9617 628.442,-38.5246 619.396,-27.3118"/>
<polygon fill="midnightblue" stroke="midnightblue" points="622.104,-25.0946 613.101,-19.5091 616.656,-29.4898 622.104,-25.0946"/>
</g>
<!-- Node24&#45;&gt;Node16 -->
<g id="edge32" class="edge"><title>Node24&#45;&gt;Node16</title>
<path fill="none" stroke="midnightblue" d="M1217.27,-128.992C1210.93,-112.155 1194.38,-74.6067 1167.24,-56 1105.8,-13.8929 1074.64,-35.0275 998.159,-20.2467"/>
<polygon fill="midnightblue" stroke="midnightblue" points="998.596,-16.7624 988.091,-18.1454 997.165,-23.6148 998.596,-16.7624"/>
</g>
</g>
</svg>
        <g id="navigator" transform="translate(0 0)" fill="#404254">
                <rect fill="#f2f5e9" fill-opacity="0.5" stroke="#606060" stroke-width=".5" x="0" y="0" width="60" height="60"/>
                <use id="zoomplus" xlink:href="#zoomPlus" x="17" y="9" onmousedown="handleZoom(evt,'in')"/>
                <use id="zoomminus" xlink:href="#zoomMin" x="42" y="9" onmousedown="handleZoom(evt,'out')"/>
                <use id="reset" xlink:href="#resetDef" x="30" y="36" onmousedown="handleReset()"/>
                <g id="arrowUp" xlink:href="#dirArrow" transform="translate(30 24)" onmousedown="handlePan(0,-1)">
                  <use xlink:href="#rim" fill="#404040">
                        <set attributeName="fill" to="#808080" begin="arrowUp.mouseover" end="arrowUp.mouseout"/>
                  </use>
                  <path fill="none" stroke="white" stroke-width="1.5" d="M0,-3.0v7 M-2.5,-0.5L0,-3.0L2.5,-0.5"/>
                </g>
                <g id="arrowRight" xlink:href="#dirArrow" transform="rotate(90) translate(36 -43)" onmousedown="handlePan(1,0)">
                  <use xlink:href="#rim" fill="#404040">
                        <set attributeName="fill" to="#808080" begin="arrowRight.mouseover" end="arrowRight.mouseout"/>
                  </use>
                  <path fill="none" stroke="white" stroke-width="1.5" d="M0,-3.0v7 M-2.5,-0.5L0,-3.0L2.5,-0.5"/>
                </g>
                <g id="arrowDown" xlink:href="#dirArrow" transform="rotate(180) translate(-30 -48)" onmousedown="handlePan(0,1)">
                  <use xlink:href="#rim" fill="#404040">
                        <set attributeName="fill" to="#808080" begin="arrowDown.mouseover" end="arrowDown.mouseout"/>
                  </use>
                  <path fill="none" stroke="white" stroke-width="1.5" d="M0,-3.0v7 M-2.5,-0.5L0,-3.0L2.5,-0.5"/>
                </g>
                <g id="arrowLeft" xlink:href="#dirArrow" transform="rotate(270) translate(-36 17)" onmousedown="handlePan(-1,0)">
                  <use xlink:href="#rim" fill="#404040">
                        <set attributeName="fill" to="#808080" begin="arrowLeft.mouseover" end="arrowLeft.mouseout"/>
                  </use>
                  <path fill="none" stroke="white" stroke-width="1.5" d="M0,-3.0v7 M-2.5,-0.5L0,-3.0L2.5,-0.5"/>
                </g>
        </g>
        <svg viewBox="0 0 15 15" width="100%" height="30px" preserveAspectRatio="xMaxYMin meet">
         <g id="arrow_out" transform="scale(0.3 0.3)">
          <a xlink:href="TrendingTaskITSFhr_8h__incl_org.svg" target="_base">
           <rect id="button" ry="5" rx="5" y="6" x="6" height="38" width="38"
                fill="#f2f5e9" fill-opacity="0.5" stroke="#606060" stroke-width="1.0"/>
           <path id="arrow"
             d="M 11.500037,31.436501 C 11.940474,20.09759 22.043105,11.32322 32.158766,21.979434 L 37.068811,17.246167 C 37.068811,17.246167 37.088388,32 37.088388,32 L 22.160133,31.978069 C 22.160133,31.978069 26.997745,27.140456 26.997745,27.140456 C 18.528582,18.264221 13.291696,25.230495 11.500037,31.436501 z"
             style="fill:#404040;"/>
          </a>
         </g>
        </svg>
</svg>
