<?xml version="1.0" encoding="UTF-8" standalone="no"?>
<!DOCTYPE svg PUBLIC "-//W3C//DTD SVG 1.1//EN"
 "http://www.w3.org/Graphics/SVG/1.1/DTD/svg11.dtd">
<!-- Generated by graphviz version 2.38.0 (20140413.2041)
 -->
<!-- Title: Framework/include/QualityControl/TrendingTask.h Pages: 1 -->
<svg width="1230pt" height="296pt"
 viewBox="0.00 0.00 1230.00 296.00" xmlns="http://www.w3.org/2000/svg" xmlns:xlink="http://www.w3.org/1999/xlink">
<g id="graph0" class="graph" transform="scale(1 1) rotate(0) translate(4 292)">
<title>Framework/include/QualityControl/TrendingTask.h</title>
<!-- Node1 -->
<g id="node1" class="node"><title>Node1</title>
<polygon fill="#bfbfbf" stroke="black" points="770,-257.5 770,-287.5 903,-287.5 903,-257.5 770,-257.5"/>
<text text-anchor="start" x="778" y="-275.5" font-family="Helvetica,sans-Serif" font-size="10.00">Framework/include/Quality</text>
<text text-anchor="middle" x="836.5" y="-264.5" font-family="Helvetica,sans-Serif" font-size="10.00">Control/TrendingTask.h</text>
</g>
<!-- Node2 -->
<g id="node2" class="node"><title>Node2</title>
<g id="a_node2"><a xlink:href="PostProcessingInterface_8h.html" target="_top" xlink:title="QualityControl/PostProcessing\lInterface.h">
<polygon fill="none" stroke="black" points="447,-190.5 447,-220.5 598,-220.5 598,-190.5 447,-190.5"/>
<text text-anchor="start" x="455" y="-208.5" font-family="Helvetica,sans-Serif" font-size="10.00">QualityControl/PostProcessing</text>
<text text-anchor="middle" x="522.5" y="-197.5" font-family="Helvetica,sans-Serif" font-size="10.00">Interface.h</text>
</a>
</g>
</g>
<!-- Node1&#45;&gt;Node2 -->
<g id="edge1" class="edge"><title>Node1&#45;&gt;Node2</title>
<path fill="none" stroke="midnightblue" d="M769.909,-257.715C720.271,-247.44 652.343,-233.378 600.221,-222.589"/>
<polygon fill="midnightblue" stroke="midnightblue" points="600.851,-219.145 590.349,-220.545 599.432,-226 600.851,-219.145"/>
</g>
<!-- Node19 -->
<g id="node19" class="node"><title>Node19</title>
<polygon fill="none" stroke="#bfbfbf" points="899,-0.5 899,-19.5 982,-19.5 982,-0.5 899,-0.5"/>
<text text-anchor="middle" x="940.5" y="-7.5" font-family="Helvetica,sans-Serif" font-size="10.00">unordered_map</text>
</g>
<!-- Node1&#45;&gt;Node19 -->
<g id="edge34" class="edge"><title>Node1&#45;&gt;Node19</title>
<path fill="none" stroke="midnightblue" d="M903.11,-258.977C924.078,-251.556 945.005,-239.754 957.5,-221 997.727,-160.621 965.412,-67.737 948.818,-28.9658"/>
<polygon fill="midnightblue" stroke="midnightblue" points="951.887,-27.2541 944.628,-19.5373 945.49,-30.0969 951.887,-27.2541"/>
</g>
<!-- Node20 -->
<g id="node20" class="node"><title>Node20</title>
<polygon fill="none" stroke="#bfbfbf" points="858.5,-62 858.5,-81 910.5,-81 910.5,-62 858.5,-62"/>
<text text-anchor="middle" x="884.5" y="-69" font-family="Helvetica,sans-Serif" font-size="10.00">memory</text>
</g>
<!-- Node1&#45;&gt;Node20 -->
<g id="edge33" class="edge"><title>Node1&#45;&gt;Node20</title>
<path fill="none" stroke="midnightblue" d="M826.43,-257.26C820.201,-247.548 812.786,-234.115 809.5,-221 806.152,-207.635 805.639,-203.226 809.5,-190 821.243,-149.777 851.41,-110.214 869.707,-88.8174"/>
<polygon fill="midnightblue" stroke="midnightblue" points="872.553,-90.8804 876.514,-81.054 867.29,-86.2652 872.553,-90.8804"/>
</g>
<!-- Node21 -->
<g id="node21" class="node"><title>Node21</title>
<g id="a_node21"><a xlink:href="TrendingTaskConfig_8h.html" target="_top" xlink:title="QualityControl/TrendingTask\lConfig.h">
<polygon fill="none" stroke="black" points="0,-190.5 0,-220.5 141,-220.5 141,-190.5 0,-190.5"/>
<text text-anchor="start" x="8" y="-208.5" font-family="Helvetica,sans-Serif" font-size="10.00">QualityControl/TrendingTask</text>
<text text-anchor="middle" x="70.5" y="-197.5" font-family="Helvetica,sans-Serif" font-size="10.00">Config.h</text>
</a>
</g>
</g>
<!-- Node1&#45;&gt;Node21 -->
<g id="edge24" class="edge"><title>Node1&#45;&gt;Node21</title>
<path fill="none" stroke="midnightblue" d="M769.863,-265.845C629.405,-253.927 303.407,-226.264 151.329,-213.359"/>
<polygon fill="midnightblue" stroke="midnightblue" points="151.386,-209.851 141.126,-212.493 150.794,-216.826 151.386,-209.851"/>
</g>
<!-- Node24 -->
<g id="node24" class="node"><title>Node24</title>
<g id="a_node24"><a xlink:href="Reductor_8h.html" target="_top" xlink:title="QualityControl/Reductor.h">
<polygon fill="none" stroke="black" points="818.5,-196 818.5,-215 948.5,-215 948.5,-196 818.5,-196"/>
<text text-anchor="middle" x="883.5" y="-203" font-family="Helvetica,sans-Serif" font-size="10.00">QualityControl/Reductor.h</text>
</a>
</g>
</g>
<!-- Node1&#45;&gt;Node24 -->
<g id="edge31" class="edge"><title>Node1&#45;&gt;Node24</title>
<path fill="none" stroke="midnightblue" d="M846.698,-257.396C853.882,-247.462 863.537,-234.108 871.156,-223.572"/>
<polygon fill="midnightblue" stroke="midnightblue" points="874.19,-225.349 877.213,-215.195 868.517,-221.247 874.19,-225.349"/>
</g>
<!-- Node25 -->
<g id="node25" class="node"><title>Node25</title>
<polygon fill="none" stroke="#bfbfbf" points="1004.5,-196 1004.5,-215 1054.5,-215 1054.5,-196 1004.5,-196"/>
<text text-anchor="middle" x="1029.5" y="-203" font-family="Helvetica,sans-Serif" font-size="10.00">TTree.h</text>
</g>
<!-- Node1&#45;&gt;Node25 -->
<g id="edge35" class="edge"><title>Node1&#45;&gt;Node25</title>
<path fill="none" stroke="midnightblue" d="M880.798,-257.48C911.657,-247.59 953.715,-233.864 990.5,-221 992.744,-220.215 995.055,-219.393 997.38,-218.555"/>
<polygon fill="midnightblue" stroke="midnightblue" points="998.68,-221.806 1006.87,-215.084 996.276,-215.232 998.68,-221.806"/>
</g>
<!-- Node3 -->
<g id="node3" class="node"><title>Node3</title>
<polygon fill="none" stroke="#bfbfbf" points="444,-0.5 444,-19.5 485,-19.5 485,-0.5 444,-0.5"/>
<text text-anchor="middle" x="464.5" y="-7.5" font-family="Helvetica,sans-Serif" font-size="10.00">string</text>
</g>
<!-- Node2&#45;&gt;Node3 -->
<g id="edge2" class="edge"><title>Node2&#45;&gt;Node3</title>
<path fill="none" stroke="midnightblue" d="M535.308,-190.296C548.818,-173.499 566.489,-145.041 553.5,-123 536.734,-94.5487 509.405,-112.565 488.5,-87 475.121,-70.6381 469.163,-46.7438 466.534,-30.1312"/>
<polygon fill="midnightblue" stroke="midnightblue" points="469.972,-29.4324 465.195,-19.9756 463.032,-30.3474 469.972,-29.4324"/>
</g>
<!-- Node4 -->
<g id="node4" class="node"><title>Node4</title>
<polygon fill="none" stroke="#bfbfbf" points="398.5,-129 398.5,-148 544.5,-148 544.5,-129 398.5,-129"/>
<text text-anchor="middle" x="471.5" y="-136" font-family="Helvetica,sans-Serif" font-size="10.00">Framework/ServiceRegistry.h</text>
</g>
<!-- Node2&#45;&gt;Node4 -->
<g id="edge3" class="edge"><title>Node2&#45;&gt;Node4</title>
<path fill="none" stroke="midnightblue" d="M511.434,-190.396C503.56,-180.361 492.95,-166.838 484.645,-156.253"/>
<polygon fill="midnightblue" stroke="midnightblue" points="487.248,-153.901 478.322,-148.195 481.741,-158.222 487.248,-153.901"/>
</g>
<!-- Node5 -->
<g id="node5" class="node"><title>Node5</title>
<polygon fill="none" stroke="#bfbfbf" points="152,-56.5 152,-86.5 253,-86.5 253,-56.5 152,-56.5"/>
<text text-anchor="start" x="160" y="-74.5" font-family="Helvetica,sans-Serif" font-size="10.00">boost/property_tree</text>
<text text-anchor="middle" x="202.5" y="-63.5" font-family="Helvetica,sans-Serif" font-size="10.00">/ptree_fwd.hpp</text>
</g>
<!-- Node2&#45;&gt;Node5 -->
<g id="edge4" class="edge"><title>Node2&#45;&gt;Node5</title>
<path fill="none" stroke="midnightblue" d="M446.828,-198.143C376.102,-190.898 276.837,-176.984 245.5,-154 226.343,-139.95 214.942,-114.776 208.745,-96.1115"/>
<polygon fill="midnightblue" stroke="midnightblue" points="212.086,-95.0682 205.822,-86.524 205.391,-97.1101 212.086,-95.0682"/>
</g>
<!-- Node6 -->
<g id="node6" class="node"><title>Node6</title>
<g id="a_node6"><a xlink:href="Triggers_8h.html" target="_top" xlink:title="QualityControl/Triggers.h">
<polygon fill="none" stroke="black" points="255,-129 255,-148 380,-148 380,-129 255,-129"/>
<text text-anchor="middle" x="317.5" y="-136" font-family="Helvetica,sans-Serif" font-size="10.00">QualityControl/Triggers.h</text>
</a>
</g>
</g>
<!-- Node2&#45;&gt;Node6 -->
<g id="edge5" class="edge"><title>Node2&#45;&gt;Node6</title>
<path fill="none" stroke="midnightblue" d="M478.27,-190.476C441.204,-178.723 388.914,-162.143 354.149,-151.12"/>
<polygon fill="midnightblue" stroke="midnightblue" points="354.988,-147.715 344.398,-148.029 352.873,-154.387 354.988,-147.715"/>
</g>
<!-- Node9 -->
<g id="node9" class="node"><title>Node9</title>
<g id="a_node9"><a xlink:href="ObjectsManager_8h.html" target="_top" xlink:title="QualityControl/ObjectsManager.h">
<polygon fill="none" stroke="black" points="601,-129 601,-148 762,-148 762,-129 601,-129"/>
<text text-anchor="middle" x="681.5" y="-136" font-family="Helvetica,sans-Serif" font-size="10.00">QualityControl/ObjectsManager.h</text>
</a>
</g>
</g>
<!-- Node2&#45;&gt;Node9 -->
<g id="edge9" class="edge"><title>Node2&#45;&gt;Node9</title>
<path fill="none" stroke="midnightblue" d="M557.001,-190.396C585.146,-178.89 624.511,-162.797 651.395,-151.807"/>
<polygon fill="midnightblue" stroke="midnightblue" points="652.759,-155.031 660.691,-148.007 650.11,-148.551 652.759,-155.031"/>
</g>
<!-- Node6&#45;&gt;Node3 -->
<g id="edge6" class="edge"><title>Node6&#45;&gt;Node3</title>
<path fill="none" stroke="midnightblue" d="M335.958,-128.917C354.043,-119.982 381.826,-104.817 402.5,-87 422.772,-69.5303 441.52,-44.868 452.975,-28.4278"/>
<polygon fill="midnightblue" stroke="midnightblue" points="456.103,-30.0517 458.833,-19.8146 450.315,-26.1148 456.103,-30.0517"/>
</g>
<!-- Node7 -->
<g id="node7" class="node"><title>Node7</title>
<polygon fill="none" stroke="#bfbfbf" points="272,-62 272,-81 331,-81 331,-62 272,-62"/>
<text text-anchor="middle" x="301.5" y="-69" font-family="Helvetica,sans-Serif" font-size="10.00">functional</text>
</g>
<!-- Node6&#45;&gt;Node7 -->
<g id="edge7" class="edge"><title>Node6&#45;&gt;Node7</title>
<path fill="none" stroke="midnightblue" d="M315.342,-128.734C312.967,-119.085 309.082,-103.3 306.031,-90.9063"/>
<polygon fill="midnightblue" stroke="midnightblue" points="309.412,-90.0009 303.624,-81.1273 302.615,-91.674 309.412,-90.0009"/>
</g>
<!-- Node8 -->
<g id="node8" class="node"><title>Node8</title>
<polygon fill="none" stroke="#bfbfbf" points="349,-62 349,-81 394,-81 394,-62 349,-62"/>
<text text-anchor="middle" x="371.5" y="-69" font-family="Helvetica,sans-Serif" font-size="10.00">iosfwd</text>
</g>
<!-- Node6&#45;&gt;Node8 -->
<g id="edge8" class="edge"><title>Node6&#45;&gt;Node8</title>
<path fill="none" stroke="midnightblue" d="M324.783,-128.734C333.203,-118.598 347.25,-101.69 357.746,-89.0556"/>
<polygon fill="midnightblue" stroke="midnightblue" points="360.635,-91.0558 364.333,-81.1273 355.25,-86.5826 360.635,-91.0558"/>
</g>
<!-- Node9&#45;&gt;Node3 -->
<g id="edge22" class="edge"><title>Node9&#45;&gt;Node3</title>
<path fill="none" stroke="midnightblue" d="M626.955,-129C594.115,-121.866 552.752,-109.147 521.5,-87 500.015,-71.7742 483.157,-45.9777 473.513,-28.7188"/>
<polygon fill="midnightblue" stroke="midnightblue" points="476.487,-26.8583 468.687,-19.688 470.313,-30.1574 476.487,-26.8583"/>
</g>
<!-- Node10 -->
<g id="node10" class="node"><title>Node10</title>
<g id="a_node10"><a xlink:href="MonitorObject_8h.html" target="_top" xlink:title="QualityControl/MonitorObject.h">
<polygon fill="none" stroke="black" points="531,-62 531,-81 682,-81 682,-62 531,-62"/>
<text text-anchor="middle" x="606.5" y="-69" font-family="Helvetica,sans-Serif" font-size="10.00">QualityControl/MonitorObject.h</text>
</a>
</g>
</g>
<!-- Node9&#45;&gt;Node10 -->
<g id="edge10" class="edge"><title>Node9&#45;&gt;Node10</title>
<path fill="none" stroke="midnightblue" d="M671.385,-128.734C659.352,-118.305 639.049,-100.709 624.354,-87.9732"/>
<polygon fill="midnightblue" stroke="midnightblue" points="626.304,-85.0317 616.455,-81.1273 621.719,-90.3216 626.304,-85.0317"/>
</g>
<!-- Node15 -->
<g id="node15" class="node"><title>Node15</title>
<g id="a_node15"><a xlink:href="MonitorObjectCollection_8h.html" target="_top" xlink:title="QualityControl/MonitorObject\lCollection.h">
<polygon fill="none" stroke="black" points="1005,-56.5 1005,-86.5 1148,-86.5 1148,-56.5 1005,-56.5"/>
<text text-anchor="start" x="1013" y="-74.5" font-family="Helvetica,sans-Serif" font-size="10.00">QualityControl/MonitorObject</text>
<text text-anchor="middle" x="1076.5" y="-63.5" font-family="Helvetica,sans-Serif" font-size="10.00">Collection.h</text>
</a>
</g>
</g>
<!-- Node9&#45;&gt;Node15 -->
<g id="edge16" class="edge"><title>Node9&#45;&gt;Node15</title>
<path fill="none" stroke="midnightblue" d="M733.546,-128.936C800.108,-117.982 916.133,-98.8895 994.596,-85.9779"/>
<polygon fill="midnightblue" stroke="midnightblue" points="995.63,-89.3548 1004.93,-84.2775 994.494,-82.4477 995.63,-89.3548"/>
</g>
<!-- Node18 -->
<g id="node18" class="node"><title>Node18</title>
<g id="a_node18"><a xlink:href="TaskConfig_8h.html" target="_top" xlink:title="QualityControl/TaskConfig.h">
<polygon fill="none" stroke="black" points="700.5,-62 700.5,-81 840.5,-81 840.5,-62 700.5,-62"/>
<text text-anchor="middle" x="770.5" y="-69" font-family="Helvetica,sans-Serif" font-size="10.00">QualityControl/TaskConfig.h</text>
</a>
</g>
</g>
<!-- Node9&#45;&gt;Node18 -->
<g id="edge19" class="edge"><title>Node9&#45;&gt;Node18</title>
<path fill="none" stroke="midnightblue" d="M693.503,-128.734C708.049,-118.111 732.78,-100.049 750.284,-87.2642"/>
<polygon fill="midnightblue" stroke="midnightblue" points="752.676,-89.8517 758.687,-81.1273 748.547,-84.1988 752.676,-89.8517"/>
</g>
<!-- Node9&#45;&gt;Node20 -->
<g id="edge23" class="edge"><title>Node9&#45;&gt;Node20</title>
<path fill="none" stroke="midnightblue" d="M713.392,-128.947C747.416,-119.583 802.738,-103.667 849.5,-87 851.359,-86.3375 853.262,-85.6312 855.175,-84.9004"/>
<polygon fill="midnightblue" stroke="midnightblue" points="856.648,-88.0812 864.646,-81.1321 854.06,-81.5772 856.648,-88.0812"/>
</g>
<!-- Node10&#45;&gt;Node3 -->
<g id="edge11" class="edge"><title>Node10&#45;&gt;Node3</title>
<path fill="none" stroke="midnightblue" d="M586.155,-61.9751C562.113,-51.9013 521.903,-35.0525 494.337,-23.5023"/>
<polygon fill="midnightblue" stroke="midnightblue" points="495.383,-20.1457 484.807,-19.5091 492.678,-26.6018 495.383,-20.1457"/>
</g>
<!-- Node11 -->
<g id="node11" class="node"><title>Node11</title>
<polygon fill="none" stroke="#bfbfbf" points="525,-0.5 525,-19.5 560,-19.5 560,-0.5 525,-0.5"/>
<text text-anchor="middle" x="542.5" y="-7.5" font-family="Helvetica,sans-Serif" font-size="10.00">map</text>
</g>
<!-- Node10&#45;&gt;Node11 -->
<g id="edge12" class="edge"><title>Node10&#45;&gt;Node11</title>
<path fill="none" stroke="midnightblue" d="M597.33,-61.9751C587.35,-52.6966 571.188,-37.6706 558.991,-26.331"/>
<polygon fill="midnightblue" stroke="midnightblue" points="561.36,-23.7547 551.653,-19.5091 556.593,-28.8814 561.36,-23.7547"/>
</g>
<!-- Node12 -->
<g id="node12" class="node"><title>Node12</title>
<polygon fill="none" stroke="#bfbfbf" points="578.5,-0.5 578.5,-19.5 634.5,-19.5 634.5,-0.5 578.5,-0.5"/>
<text text-anchor="middle" x="606.5" y="-7.5" font-family="Helvetica,sans-Serif" font-size="10.00">Rtypes.h</text>
</g>
<!-- Node10&#45;&gt;Node12 -->
<g id="edge13" class="edge"><title>Node10&#45;&gt;Node12</title>
<path fill="none" stroke="midnightblue" d="M606.5,-61.9751C606.5,-53.5803 606.5,-40.4806 606.5,-29.6631"/>
<polygon fill="midnightblue" stroke="midnightblue" points="610,-29.5091 606.5,-19.5091 603,-29.5091 610,-29.5091"/>
</g>
<!-- Node13 -->
<g id="node13" class="node"><title>Node13</title>
<polygon fill="none" stroke="#bfbfbf" points="810,-0.5 810,-19.5 869,-19.5 869,-0.5 810,-0.5"/>
<text text-anchor="middle" x="839.5" y="-7.5" font-family="Helvetica,sans-Serif" font-size="10.00">TObject.h</text>
</g>
<!-- Node10&#45;&gt;Node13 -->
<g id="edge14" class="edge"><title>Node10&#45;&gt;Node13</title>
<path fill="none" stroke="midnightblue" d="M639.883,-61.9751C682.232,-51.1607 755.155,-32.5387 800.161,-21.0457"/>
<polygon fill="midnightblue" stroke="midnightblue" points="801.045,-24.4324 809.868,-18.5669 799.313,-17.65 801.045,-24.4324"/>
</g>
<!-- Node14 -->
<g id="node14" class="node"><title>Node14</title>
<polygon fill="none" stroke="#bfbfbf" points="652.5,-0.5 652.5,-19.5 768.5,-19.5 768.5,-0.5 652.5,-0.5"/>
<text text-anchor="middle" x="710.5" y="-7.5" font-family="Helvetica,sans-Serif" font-size="10.00">Common/Exceptions.h</text>
</g>
<!-- Node10&#45;&gt;Node14 -->
<g id="edge15" class="edge"><title>Node10&#45;&gt;Node14</title>
<path fill="none" stroke="midnightblue" d="M621.401,-61.9751C638.468,-52.2106 666.661,-36.0807 686.762,-24.5808"/>
<polygon fill="midnightblue" stroke="midnightblue" points="688.685,-27.513 695.627,-19.5091 685.209,-21.4371 688.685,-27.513"/>
</g>
<!-- Node16 -->
<g id="node16" class="node"><title>Node16</title>
<polygon fill="none" stroke="#bfbfbf" points="1153,-0.5 1153,-19.5 1222,-19.5 1222,-0.5 1153,-0.5"/>
<text text-anchor="middle" x="1187.5" y="-7.5" font-family="Helvetica,sans-Serif" font-size="10.00">TObjArray.h</text>
</g>
<!-- Node15&#45;&gt;Node16 -->
<g id="edge17" class="edge"><title>Node15&#45;&gt;Node16</title>
<path fill="none" stroke="midnightblue" d="M1102.81,-56.3993C1120.76,-46.7728 1144.42,-34.0902 1162.17,-24.5772"/>
<polygon fill="midnightblue" stroke="midnightblue" points="1164.19,-27.467 1171.35,-19.6578 1160.88,-21.2975 1164.19,-27.467"/>
</g>
<!-- Node17 -->
<g id="node17" class="node"><title>Node17</title>
<polygon fill="none" stroke="#bfbfbf" points="1006.5,-0.5 1006.5,-19.5 1134.5,-19.5 1134.5,-0.5 1006.5,-0.5"/>
<text text-anchor="middle" x="1070.5" y="-7.5" font-family="Helvetica,sans-Serif" font-size="10.00">Mergers/MergeInterface.h</text>
</g>
<!-- Node15&#45;&gt;Node17 -->
<g id="edge18" class="edge"><title>Node15&#45;&gt;Node17</title>
<path fill="none" stroke="midnightblue" d="M1075.08,-56.3993C1074.28,-48.4664 1073.27,-38.458 1072.4,-29.8583"/>
<polygon fill="midnightblue" stroke="midnightblue" points="1075.86,-29.2561 1071.37,-19.6578 1068.89,-29.9585 1075.86,-29.2561"/>
</g>
<!-- Node18&#45;&gt;Node3 -->
<g id="edge20" class="edge"><title>Node18&#45;&gt;Node3</title>
<path fill="none" stroke="midnightblue" d="M726.658,-61.9751C663.912,-49.7745 550.057,-27.6362 495.403,-17.0089"/>
<polygon fill="midnightblue" stroke="midnightblue" points="495.778,-13.5164 485.294,-15.0433 494.442,-20.3877 495.778,-13.5164"/>
</g>
<!-- Node18&#45;&gt;Node19 -->
<g id="edge21" class="edge"><title>Node18&#45;&gt;Node19</title>
<path fill="none" stroke="midnightblue" d="M794.857,-61.9751C824.144,-51.7246 873.474,-34.4593 906.502,-22.8994"/>
<polygon fill="midnightblue" stroke="midnightblue" points="907.906,-26.1162 916.188,-19.5091 905.593,-19.5091 907.906,-26.1162"/>
</g>
<!-- Node21&#45;&gt;Node3 -->
<g id="edge26" class="edge"><title>Node21&#45;&gt;Node3</title>
<path fill="none" stroke="midnightblue" d="M57.6562,-190.371C33.051,-161.59 -15.2507,-95.5572 20.5,-56 48.1684,-25.3856 337.271,-14.5609 433.523,-11.79"/>
<polygon fill="midnightblue" stroke="midnightblue" points="433.867,-15.2819 443.766,-11.5049 433.673,-8.2846 433.867,-15.2819"/>
</g>
<!-- Node22 -->
<g id="node22" class="node"><title>Node22</title>
<polygon fill="none" stroke="#bfbfbf" points="29.5,-62 29.5,-81 73.5,-81 73.5,-62 29.5,-62"/>
<text text-anchor="middle" x="51.5" y="-69" font-family="Helvetica,sans-Serif" font-size="10.00">vector</text>
</g>
<!-- Node21&#45;&gt;Node22 -->
<g id="edge25" class="edge"><title>Node21&#45;&gt;Node22</title>
<path fill="none" stroke="midnightblue" d="M57.8881,-190.188C50.3589,-180.656 41.5051,-167.451 37.5,-154 31.1815,-132.78 37.5565,-107.55 43.6244,-90.8419"/>
<polygon fill="midnightblue" stroke="midnightblue" points="47.0064,-91.8071 47.431,-81.2208 40.4974,-89.2317 47.0064,-91.8071"/>
</g>
<!-- Node23 -->
<g id="node23" class="node"><title>Node23</title>
<g id="a_node23"><a xlink:href="PostProcessingConfig_8h.html" target="_top" xlink:title="QualityControl/PostProcessing\lConfig.h">
<polygon fill="none" stroke="black" points="47,-123.5 47,-153.5 198,-153.5 198,-123.5 47,-123.5"/>
<text text-anchor="start" x="55" y="-141.5" font-family="Helvetica,sans-Serif" font-size="10.00">QualityControl/PostProcessing</text>
<text text-anchor="middle" x="122.5" y="-130.5" font-family="Helvetica,sans-Serif" font-size="10.00">Config.h</text>
</a>
</g>
</g>
<!-- Node21&#45;&gt;Node23 -->
<g id="edge27" class="edge"><title>Node21&#45;&gt;Node23</title>
<path fill="none" stroke="midnightblue" d="M81.7832,-190.396C88.5293,-181.963 97.2462,-171.067 104.883,-161.522"/>
<polygon fill="midnightblue" stroke="midnightblue" points="107.725,-163.572 111.239,-153.577 102.259,-159.199 107.725,-163.572"/>
</g>
<!-- Node23&#45;&gt;Node3 -->
<g id="edge29" class="edge"><title>Node23&#45;&gt;Node3</title>
<path fill="none" stroke="midnightblue" d="M121.557,-123.318C121.18,-104.898 123.578,-73.0878 142.5,-56 184.837,-17.7671 361.05,-11.8552 433.344,-11.0603"/>
<polygon fill="midnightblue" stroke="midnightblue" points="433.653,-14.5579 443.623,-10.9746 433.595,-7.55814 433.653,-14.5579"/>
</g>
<!-- Node23&#45;&gt;Node5 -->
<g id="edge30" class="edge"><title>Node23&#45;&gt;Node5</title>
<path fill="none" stroke="midnightblue" d="M139.859,-123.396C150.761,-114.538 165.01,-102.96 177.163,-93.0861"/>
<polygon fill="midnightblue" stroke="midnightblue" points="179.621,-95.5989 185.175,-86.5765 175.207,-90.1661 179.621,-95.5989"/>
</g>
<!-- Node23&#45;&gt;Node22 -->
<g id="edge28" class="edge"><title>Node23&#45;&gt;Node22</title>
<path fill="none" stroke="midnightblue" d="M107.094,-123.396C95.6948,-112.96 80.1739,-98.7507 68.4284,-87.9978"/>
<polygon fill="midnightblue" stroke="midnightblue" points="70.7364,-85.3655 60.9971,-81.1945 66.0096,-90.5287 70.7364,-85.3655"/>
</g>
<!-- Node24&#45;&gt;Node13 -->
<g id="edge32" class="edge"><title>Node24&#45;&gt;Node13</title>
<path fill="none" stroke="midnightblue" d="M889.76,-195.819C906.181,-171.895 947.357,-103.63 919.5,-56 910.573,-40.7356 894.353,-30.2492 878.84,-23.2666"/>
<polygon fill="midnightblue" stroke="midnightblue" points="879.924,-19.928 869.345,-19.3604 877.261,-26.4016 879.924,-19.928"/>
</g>
</g>
</svg>
