<?xml version="1.0" encoding="UTF-8" standalone="no"?>
<!DOCTYPE svg PUBLIC "-//W3C//DTD SVG 1.1//EN"
 "http://www.w3.org/Graphics/SVG/1.1/DTD/svg11.dtd">
<!-- Generated by graphviz version 2.38.0 (20140413.2041)
 -->
<!-- Title: Framework/src/Triggers.cxx Pages: 1 -->
<svg width="705pt" height="140pt"
 viewBox="0.00 0.00 704.50 140.00" xmlns="http://www.w3.org/2000/svg" xmlns:xlink="http://www.w3.org/1999/xlink">
<g id="graph0" class="graph" transform="scale(1 1) rotate(0) translate(4 136)">
<title>Framework/src/Triggers.cxx</title>
<!-- Node1 -->
<g id="node1" class="node"><title>Node1</title>
<polygon fill="#bfbfbf" stroke="black" points="391,-112.5 391,-131.5 530,-131.5 530,-112.5 391,-112.5"/>
<text text-anchor="middle" x="460.5" y="-119.5" font-family="Helvetica,sans-Serif" font-size="10.00">Framework/src/Triggers.cxx</text>
</g>
<!-- Node2 -->
<g id="node2" class="node"><title>Node2</title>
<g id="a_node2"><a xlink:href="Triggers_8h.html" target="_top" xlink:title="QualityControl/Triggers.h">
<polygon fill="none" stroke="black" points="36,-56.5 36,-75.5 161,-75.5 161,-56.5 36,-56.5"/>
<text text-anchor="middle" x="98.5" y="-63.5" font-family="Helvetica,sans-Serif" font-size="10.00">QualityControl/Triggers.h</text>
</a>
</g>
</g>
<!-- Node1&#45;&gt;Node2 -->
<g id="edge1" class="edge"><title>Node1&#45;&gt;Node2</title>
<path fill="none" stroke="midnightblue" d="M403.14,-112.444C338.666,-102.826 234.099,-87.2275 165.811,-77.0409"/>
<polygon fill="midnightblue" stroke="midnightblue" points="165.999,-73.5302 155.592,-75.5164 164.966,-80.4536 165.999,-73.5302"/>
</g>
<!-- Node6 -->
<g id="node6" class="node"><title>Node6</title>
<g id="a_node6"><a xlink:href="QcInfoLogger_8h.html" target="_top" xlink:title="QualityControl/QcInfoLogger.h">
<polygon fill="none" stroke="black" points="190,-56.5 190,-75.5 339,-75.5 339,-56.5 190,-56.5"/>
<text text-anchor="middle" x="264.5" y="-63.5" font-family="Helvetica,sans-Serif" font-size="10.00">QualityControl/QcInfoLogger.h</text>
</a>
</g>
</g>
<!-- Node1&#45;&gt;Node6 -->
<g id="edge5" class="edge"><title>Node1&#45;&gt;Node6</title>
<path fill="none" stroke="midnightblue" d="M429.443,-112.444C395.897,-103.201 342.303,-88.4356 305.359,-78.2572"/>
<polygon fill="midnightblue" stroke="midnightblue" points="305.982,-74.7984 295.411,-75.5164 304.123,-81.5469 305.982,-74.7984"/>
</g>
<!-- Node9 -->
<g id="node9" class="node"><title>Node9</title>
<polygon fill="none" stroke="#bfbfbf" points="357,-56.5 357,-75.5 452,-75.5 452,-56.5 357,-56.5"/>
<text text-anchor="middle" x="404.5" y="-63.5" font-family="Helvetica,sans-Serif" font-size="10.00">CCDB/CcdbApi.h</text>
</g>
<!-- Node1&#45;&gt;Node9 -->
<g id="edge8" class="edge"><title>Node1&#45;&gt;Node9</title>
<path fill="none" stroke="midnightblue" d="M451.503,-112.324C443.306,-104.42 430.994,-92.5482 421.028,-82.9377"/>
<polygon fill="midnightblue" stroke="midnightblue" points="423.289,-80.2558 413.661,-75.8339 418.43,-85.2947 423.289,-80.2558"/>
</g>
<!-- Node10 -->
<g id="node10" class="node"><title>Node10</title>
<polygon fill="none" stroke="#bfbfbf" points="470.5,-56.5 470.5,-75.5 562.5,-75.5 562.5,-56.5 470.5,-56.5"/>
<text text-anchor="middle" x="516.5" y="-63.5" font-family="Helvetica,sans-Serif" font-size="10.00">Common/Timer.h</text>
</g>
<!-- Node1&#45;&gt;Node10 -->
<g id="edge9" class="edge"><title>Node1&#45;&gt;Node10</title>
<path fill="none" stroke="midnightblue" d="M469.497,-112.324C477.694,-104.42 490.006,-92.5482 499.972,-82.9377"/>
<polygon fill="midnightblue" stroke="midnightblue" points="502.57,-85.2947 507.339,-75.8339 497.711,-80.2558 502.57,-85.2947"/>
</g>
<!-- Node11 -->
<g id="node11" class="node"><title>Node11</title>
<polygon fill="none" stroke="#bfbfbf" points="580.5,-56.5 580.5,-75.5 626.5,-75.5 626.5,-56.5 580.5,-56.5"/>
<text text-anchor="middle" x="603.5" y="-63.5" font-family="Helvetica,sans-Serif" font-size="10.00">chrono</text>
</g>
<!-- Node1&#45;&gt;Node11 -->
<g id="edge10" class="edge"><title>Node1&#45;&gt;Node11</title>
<path fill="none" stroke="midnightblue" d="M483.159,-112.444C506.902,-103.478 544.409,-89.314 571.238,-79.1827"/>
<polygon fill="midnightblue" stroke="midnightblue" points="572.829,-82.3235 580.947,-75.5164 570.356,-75.7749 572.829,-82.3235"/>
</g>
<!-- Node12 -->
<g id="node12" class="node"><title>Node12</title>
<polygon fill="none" stroke="#bfbfbf" points="644.5,-56.5 644.5,-75.5 696.5,-75.5 696.5,-56.5 644.5,-56.5"/>
<text text-anchor="middle" x="670.5" y="-63.5" font-family="Helvetica,sans-Serif" font-size="10.00">ostream</text>
</g>
<!-- Node1&#45;&gt;Node12 -->
<g id="edge11" class="edge"><title>Node1&#45;&gt;Node12</title>
<path fill="none" stroke="midnightblue" d="M493.775,-112.444C532.183,-102.567 595.115,-86.3846 634.6,-76.2314"/>
<polygon fill="midnightblue" stroke="midnightblue" points="635.534,-79.6053 644.347,-73.7251 633.79,-72.8258 635.534,-79.6053"/>
</g>
<!-- Node3 -->
<g id="node3" class="node"><title>Node3</title>
<polygon fill="none" stroke="#bfbfbf" points="0,-0.5 0,-19.5 41,-19.5 41,-0.5 0,-0.5"/>
<text text-anchor="middle" x="20.5" y="-7.5" font-family="Helvetica,sans-Serif" font-size="10.00">string</text>
</g>
<!-- Node2&#45;&gt;Node3 -->
<g id="edge2" class="edge"><title>Node2&#45;&gt;Node3</title>
<path fill="none" stroke="midnightblue" d="M85.968,-56.324C73.9141,-47.979 55.4732,-35.2122 41.2313,-25.3524"/>
<polygon fill="midnightblue" stroke="midnightblue" points="43.2151,-22.469 33.0009,-19.6545 39.2306,-28.2243 43.2151,-22.469"/>
</g>
<!-- Node4 -->
<g id="node4" class="node"><title>Node4</title>
<polygon fill="none" stroke="#bfbfbf" points="59,-0.5 59,-19.5 118,-19.5 118,-0.5 59,-0.5"/>
<text text-anchor="middle" x="88.5" y="-7.5" font-family="Helvetica,sans-Serif" font-size="10.00">functional</text>
</g>
<!-- Node2&#45;&gt;Node4 -->
<g id="edge3" class="edge"><title>Node2&#45;&gt;Node4</title>
<path fill="none" stroke="midnightblue" d="M96.8487,-56.083C95.5236,-48.9272 93.6176,-38.6353 91.9613,-29.6911"/>
<polygon fill="midnightblue" stroke="midnightblue" points="95.383,-28.9466 90.1206,-19.7511 88.5001,-30.2212 95.383,-28.9466"/>
</g>
<!-- Node5 -->
<g id="node5" class="node"><title>Node5</title>
<polygon fill="none" stroke="#bfbfbf" points="136,-0.5 136,-19.5 181,-19.5 181,-0.5 136,-0.5"/>
<text text-anchor="middle" x="158.5" y="-7.5" font-family="Helvetica,sans-Serif" font-size="10.00">iosfwd</text>
</g>
<!-- Node2&#45;&gt;Node5 -->
<g id="edge4" class="edge"><title>Node2&#45;&gt;Node5</title>
<path fill="none" stroke="midnightblue" d="M108.14,-56.324C117.01,-48.3414 130.375,-36.3128 141.108,-26.6529"/>
<polygon fill="midnightblue" stroke="midnightblue" points="143.593,-29.1251 148.685,-19.8339 138.91,-23.922 143.593,-29.1251"/>
</g>
<!-- Node7 -->
<g id="node7" class="node"><title>Node7</title>
<polygon fill="none" stroke="#bfbfbf" points="199.5,-0.5 199.5,-19.5 329.5,-19.5 329.5,-0.5 199.5,-0.5"/>
<text text-anchor="middle" x="264.5" y="-7.5" font-family="Helvetica,sans-Serif" font-size="10.00">InfoLogger/InfoLogger.hxx</text>
</g>
<!-- Node6&#45;&gt;Node7 -->
<g id="edge6" class="edge"><title>Node6&#45;&gt;Node7</title>
<path fill="none" stroke="midnightblue" d="M264.5,-56.083C264.5,-49.0059 264.5,-38.8611 264.5,-29.9865"/>
<polygon fill="midnightblue" stroke="midnightblue" points="268,-29.751 264.5,-19.7511 261,-29.7511 268,-29.751"/>
</g>
<!-- Node8 -->
<g id="node8" class="node"><title>Node8</title>
<polygon fill="none" stroke="#bfbfbf" points="347.5,-0.5 347.5,-19.5 509.5,-19.5 509.5,-0.5 347.5,-0.5"/>
<text text-anchor="middle" x="428.5" y="-7.5" font-family="Helvetica,sans-Serif" font-size="10.00">InfoLogger/InfoLoggerMacros.hxx</text>
</g>
<!-- Node6&#45;&gt;Node8 -->
<g id="edge7" class="edge"><title>Node6&#45;&gt;Node8</title>
<path fill="none" stroke="midnightblue" d="M290.486,-56.4435C318.196,-47.3196 362.252,-32.8133 393.116,-22.6509"/>
<polygon fill="midnightblue" stroke="midnightblue" points="394.232,-25.9684 402.635,-19.5164 392.042,-19.3196 394.232,-25.9684"/>
</g>
</g>
</svg>
