<?xml version="1.0" encoding="UTF-8" standalone="no"?>
<!DOCTYPE svg PUBLIC "-//W3C//DTD SVG 1.1//EN"
 "http://www.w3.org/Graphics/SVG/1.1/DTD/svg11.dtd">
<!-- Generated by graphviz version 2.38.0 (20140413.2041)
 -->
<!-- Title: Framework/include/QualityControl/TriggerHelpers.h Pages: 1 -->
<svg width="396pt" height="173pt"
 viewBox="0.00 0.00 396.00 173.00" xmlns="http://www.w3.org/2000/svg" xmlns:xlink="http://www.w3.org/1999/xlink">
<g id="graph0" class="graph" transform="scale(1 1) rotate(0) translate(4 169)">
<title>Framework/include/QualityControl/TriggerHelpers.h</title>
<!-- Node1 -->
<g id="node1" class="node"><title>Node1</title>
<polygon fill="#bfbfbf" stroke="black" points="106,-134.5 106,-164.5 239,-164.5 239,-134.5 106,-134.5"/>
<text text-anchor="start" x="114" y="-152.5" font-family="Helvetica,sans-Serif" font-size="10.00">Framework/include/Quality</text>
<text text-anchor="middle" x="172.5" y="-141.5" font-family="Helvetica,sans-Serif" font-size="10.00">Control/TriggerHelpers.h</text>
</g>
<!-- Node2 -->
<g id="node2" class="node"><title>Node2</title>
<g id="a_node2"><a xlink:href="Triggers_8h.html" target="_top" xlink:title="QualityControl/Triggers.h">
<polygon fill="none" stroke="black" points="32,-73 32,-92 157,-92 157,-73 32,-73"/>
<text text-anchor="middle" x="94.5" y="-80" font-family="Helvetica,sans-Serif" font-size="10.00">QualityControl/Triggers.h</text>
</a>
</g>
</g>
<!-- Node1&#45;&gt;Node2 -->
<g id="edge1" class="edge"><title>Node1&#45;&gt;Node2</title>
<path fill="none" stroke="midnightblue" d="M155.575,-134.396C142.932,-123.86 125.673,-109.477 112.726,-98.6886"/>
<polygon fill="midnightblue" stroke="midnightblue" points="114.856,-95.9076 104.933,-92.1945 110.375,-101.285 114.856,-95.9076"/>
</g>
<!-- Node6 -->
<g id="node6" class="node"><title>Node6</title>
<g id="a_node6"><a xlink:href="PostProcessingConfig_8h.html" target="_top" xlink:title="QualityControl/PostProcessing\lConfig.h">
<polygon fill="none" stroke="black" points="175,-67.5 175,-97.5 326,-97.5 326,-67.5 175,-67.5"/>
<text text-anchor="start" x="183" y="-85.5" font-family="Helvetica,sans-Serif" font-size="10.00">QualityControl/PostProcessing</text>
<text text-anchor="middle" x="250.5" y="-74.5" font-family="Helvetica,sans-Serif" font-size="10.00">Config.h</text>
</a>
</g>
</g>
<!-- Node1&#45;&gt;Node6 -->
<g id="edge5" class="edge"><title>Node1&#45;&gt;Node6</title>
<path fill="none" stroke="midnightblue" d="M189.425,-134.396C200.055,-125.538 213.948,-113.96 225.797,-104.086"/>
<polygon fill="midnightblue" stroke="midnightblue" points="228.167,-106.667 233.608,-97.5765 223.685,-101.29 228.167,-106.667"/>
</g>
<!-- Node3 -->
<g id="node3" class="node"><title>Node3</title>
<polygon fill="none" stroke="#bfbfbf" points="157,-6 157,-25 198,-25 198,-6 157,-6"/>
<text text-anchor="middle" x="177.5" y="-13" font-family="Helvetica,sans-Serif" font-size="10.00">string</text>
</g>
<!-- Node2&#45;&gt;Node3 -->
<g id="edge2" class="edge"><title>Node2&#45;&gt;Node3</title>
<path fill="none" stroke="midnightblue" d="M105.694,-72.7338C119.134,-62.208 141.9,-44.3793 158.196,-31.6174"/>
<polygon fill="midnightblue" stroke="midnightblue" points="160.769,-34.0486 166.484,-25.1273 156.453,-28.5374 160.769,-34.0486"/>
</g>
<!-- Node4 -->
<g id="node4" class="node"><title>Node4</title>
<polygon fill="none" stroke="#bfbfbf" points="0,-6 0,-25 59,-25 59,-6 0,-6"/>
<text text-anchor="middle" x="29.5" y="-13" font-family="Helvetica,sans-Serif" font-size="10.00">functional</text>
</g>
<!-- Node2&#45;&gt;Node4 -->
<g id="edge3" class="edge"><title>Node2&#45;&gt;Node4</title>
<path fill="none" stroke="midnightblue" d="M85.7338,-72.7338C75.403,-62.403 58.0371,-45.0371 45.3315,-32.3315"/>
<polygon fill="midnightblue" stroke="midnightblue" points="47.6733,-29.7235 38.1273,-25.1273 42.7235,-34.6733 47.6733,-29.7235"/>
</g>
<!-- Node5 -->
<g id="node5" class="node"><title>Node5</title>
<polygon fill="none" stroke="#bfbfbf" points="77,-6 77,-25 122,-25 122,-6 77,-6"/>
<text text-anchor="middle" x="99.5" y="-13" font-family="Helvetica,sans-Serif" font-size="10.00">iosfwd</text>
</g>
<!-- Node2&#45;&gt;Node5 -->
<g id="edge4" class="edge"><title>Node2&#45;&gt;Node5</title>
<path fill="none" stroke="midnightblue" d="M95.1743,-72.7338C95.909,-63.1826 97.1063,-47.6183 98.0552,-35.2829"/>
<polygon fill="midnightblue" stroke="midnightblue" points="101.559,-35.3663 98.8364,-25.1273 94.5796,-34.8294 101.559,-35.3663"/>
</g>
<!-- Node6&#45;&gt;Node3 -->
<g id="edge7" class="edge"><title>Node6&#45;&gt;Node3</title>
<path fill="none" stroke="midnightblue" d="M234.66,-67.396C222.94,-56.96 206.982,-42.7507 194.905,-31.9978"/>
<polygon fill="midnightblue" stroke="midnightblue" points="197.061,-29.2306 187.265,-25.1945 192.406,-34.4585 197.061,-29.2306"/>
</g>
<!-- Node7 -->
<g id="node7" class="node"><title>Node7</title>
<polygon fill="none" stroke="#bfbfbf" points="224.5,-6 224.5,-25 268.5,-25 268.5,-6 224.5,-6"/>
<text text-anchor="middle" x="246.5" y="-13" font-family="Helvetica,sans-Serif" font-size="10.00">vector</text>
</g>
<!-- Node6&#45;&gt;Node7 -->
<g id="edge6" class="edge"><title>Node6&#45;&gt;Node7</title>
<path fill="none" stroke="midnightblue" d="M249.632,-67.396C249.052,-57.9635 248.281,-45.4484 247.65,-35.1891"/>
<polygon fill="midnightblue" stroke="midnightblue" points="251.143,-34.9606 247.035,-25.1945 244.156,-35.3907 251.143,-34.9606"/>
</g>
<!-- Node8 -->
<g id="node8" class="node"><title>Node8</title>
<polygon fill="none" stroke="#bfbfbf" points="287,-0.5 287,-30.5 388,-30.5 388,-0.5 287,-0.5"/>
<text text-anchor="start" x="295" y="-18.5" font-family="Helvetica,sans-Serif" font-size="10.00">boost/property_tree</text>
<text text-anchor="middle" x="337.5" y="-7.5" font-family="Helvetica,sans-Serif" font-size="10.00">/ptree_fwd.hpp</text>
</g>
<!-- Node6&#45;&gt;Node8 -->
<g id="edge8" class="edge"><title>Node6&#45;&gt;Node8</title>
<path fill="none" stroke="midnightblue" d="M269.378,-67.396C281.348,-58.4524 297.028,-46.7375 310.327,-36.8018"/>
<polygon fill="midnightblue" stroke="midnightblue" points="312.743,-39.3657 318.659,-30.5765 308.553,-33.7579 312.743,-39.3657"/>
</g>
</g>
</svg>
