<?xml version="1.0" encoding="UTF-8" standalone="no"?>
<!DOCTYPE svg PUBLIC "-//W3C//DTD SVG 1.1//EN"
 "http://www.w3.org/Graphics/SVG/1.1/DTD/svg11.dtd">
<!-- Generated by graphviz version 2.38.0 (20140413.2041)
 -->
<!-- Title: Framework/include/QualityControl/Triggers.h Pages: 1 -->
<svg width="2297pt" height="251pt"
 viewBox="0.00 0.00 2296.50 251.00" xmlns="http://www.w3.org/2000/svg" xmlns:xlink="http://www.w3.org/1999/xlink">
<g id="graph0" class="graph" transform="scale(1 1) rotate(0) translate(4 247)">
<title>Framework/include/QualityControl/Triggers.h</title>
<!-- Node1 -->
<g id="node1" class="node"><title>Node1</title>
<polygon fill="#bfbfbf" stroke="black" points="1030,-212.5 1030,-242.5 1163,-242.5 1163,-212.5 1030,-212.5"/>
<text text-anchor="start" x="1038" y="-230.5" font-family="Helvetica,sans-Serif" font-size="10.00">Framework/include/Quality</text>
<text text-anchor="middle" x="1096.5" y="-219.5" font-family="Helvetica,sans-Serif" font-size="10.00">Control/Triggers.h</text>
</g>
<!-- Node2 -->
<g id="node2" class="node"><title>Node2</title>
<g id="a_node2"><a xlink:href="PostProcessingInterface_8h.html" target="_top" xlink:title="Framework/include/Quality\lControl/PostProcessingInterface.h">
<polygon fill="none" stroke="black" points="1198,-145.5 1198,-175.5 1365,-175.5 1365,-145.5 1198,-145.5"/>
<text text-anchor="start" x="1206" y="-163.5" font-family="Helvetica,sans-Serif" font-size="10.00">Framework/include/Quality</text>
<text text-anchor="middle" x="1281.5" y="-152.5" font-family="Helvetica,sans-Serif" font-size="10.00">Control/PostProcessingInterface.h</text>
</a>
</g>
</g>
<!-- Node1&#45;&gt;Node2 -->
<g id="edge1" class="edge"><title>Node1&#45;&gt;Node2</title>
<path fill="none" stroke="midnightblue" d="M1146.44,-208.955C1176.24,-198.485 1213.57,-185.366 1241.44,-175.577"/>
<polygon fill="midnightblue" stroke="midnightblue" points="1144.92,-205.779 1136.64,-212.396 1147.24,-212.383 1144.92,-205.779"/>
</g>
<!-- Node3 -->
<g id="node3" class="node"><title>Node3</title>
<g id="a_node3"><a xlink:href="PostProcessingRunner_8h.html" target="_top" xlink:title="Framework/include/Quality\lControl/PostProcessingRunner.h">
<polygon fill="none" stroke="black" points="598.5,-73 598.5,-103 758.5,-103 758.5,-73 598.5,-73"/>
<text text-anchor="start" x="606.5" y="-91" font-family="Helvetica,sans-Serif" font-size="10.00">Framework/include/Quality</text>
<text text-anchor="middle" x="678.5" y="-80" font-family="Helvetica,sans-Serif" font-size="10.00">Control/PostProcessingRunner.h</text>
</a>
</g>
</g>
<!-- Node1&#45;&gt;Node3 -->
<g id="edge23" class="edge"><title>Node1&#45;&gt;Node3</title>
<path fill="none" stroke="midnightblue" d="M1022.37,-210.105C984.654,-201.154 938.276,-189.212 897.5,-176 829.586,-153.995 752.503,-121.566 710.306,-103.148"/>
<polygon fill="midnightblue" stroke="midnightblue" points="1021.73,-213.55 1032.27,-212.432 1023.34,-206.736 1021.73,-213.55"/>
</g>
<!-- Node11 -->
<g id="node11" class="node"><title>Node11</title>
<g id="a_node11"><a xlink:href="testTrendingTask_8cxx.html" target="_top" xlink:title="Framework/test/testTrending\lTask.cxx">
<polygon fill="none" stroke="black" points="971.5,-0.5 971.5,-30.5 1113.5,-30.5 1113.5,-0.5 971.5,-0.5"/>
<text text-anchor="start" x="979.5" y="-18.5" font-family="Helvetica,sans-Serif" font-size="10.00">Framework/test/testTrending</text>
<text text-anchor="middle" x="1042.5" y="-7.5" font-family="Helvetica,sans-Serif" font-size="10.00">Task.cxx</text>
</a>
</g>
</g>
<!-- Node1&#45;&gt;Node11 -->
<g id="edge29" class="edge"><title>Node1&#45;&gt;Node11</title>
<path fill="none" stroke="midnightblue" d="M1050.09,-208.29C1010.25,-189.87 955.433,-157.195 930.5,-109 921.923,-92.4206 920.37,-82.6791 930.5,-67 941.785,-49.532 960.72,-38.0445 979.841,-30.5158"/>
<polygon fill="midnightblue" stroke="midnightblue" points="1048.8,-211.549 1059.36,-212.446 1051.67,-205.161 1048.8,-211.549"/>
</g>
<!-- Node24 -->
<g id="node24" class="node"><title>Node24</title>
<g id="a_node24"><a xlink:href="TriggerHelpers_8h.html" target="_top" xlink:title="Framework/include/Quality\lControl/TriggerHelpers.h">
<polygon fill="none" stroke="black" points="234,-145.5 234,-175.5 367,-175.5 367,-145.5 234,-145.5"/>
<text text-anchor="start" x="242" y="-163.5" font-family="Helvetica,sans-Serif" font-size="10.00">Framework/include/Quality</text>
<text text-anchor="middle" x="300.5" y="-152.5" font-family="Helvetica,sans-Serif" font-size="10.00">Control/TriggerHelpers.h</text>
</a>
</g>
</g>
<!-- Node1&#45;&gt;Node24 -->
<g id="edge24" class="edge"><title>Node1&#45;&gt;Node24</title>
<path fill="none" stroke="midnightblue" d="M1019.69,-220.228C864.016,-207.516 513.649,-178.905 367.014,-166.931"/>
<polygon fill="midnightblue" stroke="midnightblue" points="1019.41,-223.716 1029.66,-221.042 1019.98,-216.74 1019.41,-223.716"/>
</g>
<!-- Node27 -->
<g id="node27" class="node"><title>Node27</title>
<g id="a_node27"><a xlink:href="Triggers_8cxx.html" target="_top" xlink:title="Framework/src/Triggers.cxx">
<polygon fill="none" stroke="black" points="1383,-151 1383,-170 1522,-170 1522,-151 1383,-151"/>
<text text-anchor="middle" x="1452.5" y="-158" font-family="Helvetica,sans-Serif" font-size="10.00">Framework/src/Triggers.cxx</text>
</a>
</g>
</g>
<!-- Node1&#45;&gt;Node27 -->
<g id="edge28" class="edge"><title>Node1&#45;&gt;Node27</title>
<path fill="none" stroke="midnightblue" d="M1173.24,-212.536C1228.84,-202.411 1305.83,-188.38 1373.5,-176 1384.06,-174.068 1395.42,-171.986 1406.13,-170.02"/>
<polygon fill="midnightblue" stroke="midnightblue" points="1172.32,-209.145 1163.11,-214.38 1173.57,-216.032 1172.32,-209.145"/>
</g>
<!-- Node28 -->
<g id="node28" class="node"><title>Node28</title>
<g id="a_node28"><a xlink:href="testTriggers_8cxx.html" target="_top" xlink:title="Framework/test/testTriggers.cxx">
<polygon fill="none" stroke="black" points="1540.5,-151 1540.5,-170 1698.5,-170 1698.5,-151 1540.5,-151"/>
<text text-anchor="middle" x="1619.5" y="-158" font-family="Helvetica,sans-Serif" font-size="10.00">Framework/test/testTriggers.cxx</text>
</a>
</g>
</g>
<!-- Node1&#45;&gt;Node28 -->
<g id="edge30" class="edge"><title>Node1&#45;&gt;Node28</title>
<path fill="none" stroke="midnightblue" d="M1173.2,-218.646C1260.03,-209.505 1405.66,-193.423 1530.5,-176 1543.21,-174.226 1556.91,-172.1 1569.67,-170.031"/>
<polygon fill="midnightblue" stroke="midnightblue" points="1172.74,-215.174 1163.16,-219.699 1173.47,-222.136 1172.74,-215.174"/>
</g>
<!-- Node2&#45;&gt;Node3 -->
<g id="edge2" class="edge"><title>Node2&#45;&gt;Node3</title>
<path fill="none" stroke="midnightblue" d="M1187.89,-148.556C1070.15,-134.789 869.962,-111.385 758.842,-98.3932"/>
<polygon fill="midnightblue" stroke="midnightblue" points="1187.63,-152.049 1197.97,-149.734 1188.45,-145.097 1187.63,-152.049"/>
</g>
<!-- Node9 -->
<g id="node9" class="node"><title>Node9</title>
<g id="a_node9"><a xlink:href="TrendingTask_8h.html" target="_top" xlink:title="Framework/include/Quality\lControl/TrendingTask.h">
<polygon fill="none" stroke="black" points="1131,-73 1131,-103 1264,-103 1264,-73 1131,-73"/>
<text text-anchor="start" x="1139" y="-91" font-family="Helvetica,sans-Serif" font-size="10.00">Framework/include/Quality</text>
<text text-anchor="middle" x="1197.5" y="-80" font-family="Helvetica,sans-Serif" font-size="10.00">Control/TrendingTask.h</text>
</a>
</g>
</g>
<!-- Node2&#45;&gt;Node9 -->
<g id="edge8" class="edge"><title>Node2&#45;&gt;Node9</title>
<path fill="none" stroke="midnightblue" d="M1256.82,-138.788C1243.09,-127.266 1226.37,-113.233 1214.19,-103.005"/>
<polygon fill="midnightblue" stroke="midnightblue" points="1254.59,-141.485 1264.5,-145.233 1259.09,-136.124 1254.59,-141.485"/>
</g>
<!-- Node12 -->
<g id="node12" class="node"><title>Node12</title>
<g id="a_node12"><a xlink:href="PostProcessingInterface_8cxx.html" target="_top" xlink:title="Framework/src/PostProcessing\lInterface.cxx">
<polygon fill="none" stroke="black" points="2134.5,-73 2134.5,-103 2288.5,-103 2288.5,-73 2134.5,-73"/>
<text text-anchor="start" x="2142.5" y="-91" font-family="Helvetica,sans-Serif" font-size="10.00">Framework/src/PostProcessing</text>
<text text-anchor="middle" x="2211.5" y="-80" font-family="Helvetica,sans-Serif" font-size="10.00">Interface.cxx</text>
</a>
</g>
</g>
<!-- Node2&#45;&gt;Node12 -->
<g id="edge11" class="edge"><title>Node2&#45;&gt;Node12</title>
<path fill="none" stroke="midnightblue" d="M1375.6,-144.864C1708.19,-111.8 1797.48,-154.612 2125.5,-109 2135.98,-107.543 2147.05,-105.419 2157.64,-103.093"/>
<polygon fill="midnightblue" stroke="midnightblue" points="1374.78,-141.428 1365.19,-145.916 1375.49,-148.393 1374.78,-141.428"/>
</g>
<!-- Node13 -->
<g id="node13" class="node"><title>Node13</title>
<g id="a_node13"><a xlink:href="testPostProcessingInterface_8cxx.html" target="_top" xlink:title="Framework/test/testPostProcessing\lInterface.cxx">
<polygon fill="none" stroke="black" points="940,-73 940,-103 1113,-103 1113,-73 940,-73"/>
<text text-anchor="start" x="948" y="-91" font-family="Helvetica,sans-Serif" font-size="10.00">Framework/test/testPostProcessing</text>
<text text-anchor="middle" x="1026.5" y="-80" font-family="Helvetica,sans-Serif" font-size="10.00">Interface.cxx</text>
</a>
</g>
</g>
<!-- Node2&#45;&gt;Node13 -->
<g id="edge12" class="edge"><title>Node2&#45;&gt;Node13</title>
<path fill="none" stroke="midnightblue" d="M1221.16,-142.818C1177.43,-130.727 1118.94,-114.557 1077.52,-103.107"/>
<polygon fill="midnightblue" stroke="midnightblue" points="1220.24,-146.196 1230.82,-145.487 1222.11,-139.449 1220.24,-146.196"/>
</g>
<!-- Node14 -->
<g id="node14" class="node"><title>Node14</title>
<g id="a_node14"><a xlink:href="TreeReaderPostProcessing_8h.html" target="_top" xlink:title="Modules/FT0/include\l/FT0/TreeReaderPostProcessing.h">
<polygon fill="none" stroke="black" points="1282.5,-73 1282.5,-103 1450.5,-103 1450.5,-73 1282.5,-73"/>
<text text-anchor="start" x="1290.5" y="-91" font-family="Helvetica,sans-Serif" font-size="10.00">Modules/FT0/include</text>
<text text-anchor="middle" x="1366.5" y="-80" font-family="Helvetica,sans-Serif" font-size="10.00">/FT0/TreeReaderPostProcessing.h</text>
</a>
</g>
</g>
<!-- Node2&#45;&gt;Node14 -->
<g id="edge13" class="edge"><title>Node2&#45;&gt;Node14</title>
<path fill="none" stroke="midnightblue" d="M1306.47,-138.788C1320.36,-127.266 1337.28,-113.233 1349.61,-103.005"/>
<polygon fill="midnightblue" stroke="midnightblue" points="1304.16,-136.155 1298.7,-145.233 1308.63,-141.543 1304.16,-136.155"/>
</g>
<!-- Node16 -->
<g id="node16" class="node"><title>Node16</title>
<g id="a_node16"><a xlink:href="TrendingTaskITSFhr_8h.html" target="_top" xlink:title="Modules/ITS/include\l/ITS/TrendingTaskITSFhr.h">
<polygon fill="none" stroke="black" points="1468.5,-73 1468.5,-103 1604.5,-103 1604.5,-73 1468.5,-73"/>
<text text-anchor="start" x="1476.5" y="-91" font-family="Helvetica,sans-Serif" font-size="10.00">Modules/ITS/include</text>
<text text-anchor="middle" x="1536.5" y="-80" font-family="Helvetica,sans-Serif" font-size="10.00">/ITS/TrendingTaskITSFhr.h</text>
</a>
</g>
</g>
<!-- Node2&#45;&gt;Node16 -->
<g id="edge15" class="edge"><title>Node2&#45;&gt;Node16</title>
<path fill="none" stroke="midnightblue" d="M1341.84,-142.818C1385.57,-130.727 1444.06,-114.557 1485.48,-103.107"/>
<polygon fill="midnightblue" stroke="midnightblue" points="1340.89,-139.449 1332.18,-145.487 1342.76,-146.196 1340.89,-139.449"/>
</g>
<!-- Node18 -->
<g id="node18" class="node"><title>Node18</title>
<g id="a_node18"><a xlink:href="TrendingTaskITSThr_8h.html" target="_top" xlink:title="Modules/ITS/include\l/ITS/TrendingTaskITSThr.h">
<polygon fill="none" stroke="black" points="1622.5,-73 1622.5,-103 1758.5,-103 1758.5,-73 1622.5,-73"/>
<text text-anchor="start" x="1630.5" y="-91" font-family="Helvetica,sans-Serif" font-size="10.00">Modules/ITS/include</text>
<text text-anchor="middle" x="1690.5" y="-80" font-family="Helvetica,sans-Serif" font-size="10.00">/ITS/TrendingTaskITSThr.h</text>
</a>
</g>
</g>
<!-- Node2&#45;&gt;Node18 -->
<g id="edge17" class="edge"><title>Node2&#45;&gt;Node18</title>
<path fill="none" stroke="midnightblue" d="M1375.43,-144.724C1481.86,-128.702 1511.02,-129.934 1613.5,-109 1621.89,-107.286 1630.73,-105.229 1639.32,-103.096"/>
<polygon fill="midnightblue" stroke="midnightblue" points="1374.59,-141.311 1365.23,-146.276 1375.65,-148.231 1374.59,-141.311"/>
</g>
<!-- Node20 -->
<g id="node20" class="node"><title>Node20</title>
<g id="a_node20"><a xlink:href="SkeletonPostProcessing_8h.html" target="_top" xlink:title="Modules/Skeleton/include\l/Skeleton/SkeletonPostProcessing.h">
<polygon fill="none" stroke="black" points="1776.5,-73 1776.5,-103 1952.5,-103 1952.5,-73 1776.5,-73"/>
<text text-anchor="start" x="1784.5" y="-91" font-family="Helvetica,sans-Serif" font-size="10.00">Modules/Skeleton/include</text>
<text text-anchor="middle" x="1864.5" y="-80" font-family="Helvetica,sans-Serif" font-size="10.00">/Skeleton/SkeletonPostProcessing.h</text>
</a>
</g>
</g>
<!-- Node2&#45;&gt;Node20 -->
<g id="edge19" class="edge"><title>Node2&#45;&gt;Node20</title>
<path fill="none" stroke="midnightblue" d="M1375.24,-144.838C1549.73,-123.714 1596.79,-134.316 1767.5,-109 1778.56,-107.36 1790.25,-105.264 1801.55,-103.049"/>
<polygon fill="midnightblue" stroke="midnightblue" points="1374.7,-141.377 1365.2,-146.07 1375.56,-148.325 1374.7,-141.377"/>
</g>
<!-- Node22 -->
<g id="node22" class="node"><title>Node22</title>
<g id="a_node22"><a xlink:href="PostProcessDiagnosticPerCrate_8h.html" target="_top" xlink:title="Post processing to rearrange TOF information at the level of the crate (maybe we should do the opposi...">
<polygon fill="none" stroke="black" points="1971,-67.5 1971,-108.5 2116,-108.5 2116,-67.5 1971,-67.5"/>
<text text-anchor="start" x="1979" y="-96.5" font-family="Helvetica,sans-Serif" font-size="10.00">Modules/TOF/include</text>
<text text-anchor="start" x="1979" y="-85.5" font-family="Helvetica,sans-Serif" font-size="10.00">/TOF/PostProcessDiagnostic</text>
<text text-anchor="middle" x="2043.5" y="-74.5" font-family="Helvetica,sans-Serif" font-size="10.00">PerCrate.h</text>
</a>
</g>
</g>
<!-- Node2&#45;&gt;Node22 -->
<g id="edge21" class="edge"><title>Node2&#45;&gt;Node22</title>
<path fill="none" stroke="midnightblue" d="M1375.33,-144.874C1635.56,-117.377 1705.91,-147.678 1961.5,-109 1964.54,-108.54 1967.64,-108.02 1970.76,-107.454"/>
<polygon fill="midnightblue" stroke="midnightblue" points="1374.76,-141.414 1365.19,-145.963 1375.51,-148.374 1374.76,-141.414"/>
</g>
<!-- Node4 -->
<g id="node4" class="node"><title>Node4</title>
<g id="a_node4"><a xlink:href="PostProcessingDevice_8cxx.html" target="_top" xlink:title="Framework/src/PostProcessing\lDevice.cxx">
<polygon fill="none" stroke="black" points="219.5,-0.5 219.5,-30.5 373.5,-30.5 373.5,-0.5 219.5,-0.5"/>
<text text-anchor="start" x="227.5" y="-18.5" font-family="Helvetica,sans-Serif" font-size="10.00">Framework/src/PostProcessing</text>
<text text-anchor="middle" x="296.5" y="-7.5" font-family="Helvetica,sans-Serif" font-size="10.00">Device.cxx</text>
</a>
</g>
</g>
<!-- Node3&#45;&gt;Node4 -->
<g id="edge3" class="edge"><title>Node3&#45;&gt;Node4</title>
<path fill="none" stroke="midnightblue" d="M592.597,-71.1462C526.527,-58.9527 436.095,-42.263 372.61,-30.5465"/>
<polygon fill="midnightblue" stroke="midnightblue" points="592.103,-74.6141 602.572,-72.9872 593.374,-67.7303 592.103,-74.6141"/>
</g>
<!-- Node5 -->
<g id="node5" class="node"><title>Node5</title>
<polygon fill="none" stroke="#bfbfbf" points="47.5,-0.5 47.5,-30.5 201.5,-30.5 201.5,-0.5 47.5,-0.5"/>
<text text-anchor="start" x="55.5" y="-18.5" font-family="Helvetica,sans-Serif" font-size="10.00">Framework/src/PostProcessing</text>
<text text-anchor="middle" x="124.5" y="-7.5" font-family="Helvetica,sans-Serif" font-size="10.00">Runner.cxx</text>
</g>
<!-- Node3&#45;&gt;Node5 -->
<g id="edge4" class="edge"><title>Node3&#45;&gt;Node5</title>
<path fill="none" stroke="midnightblue" d="M588.356,-77.5107C493.991,-67.2735 341.59,-49.8831 210.5,-31 207.653,-30.5898 204.754,-30.1607 201.828,-29.7176"/>
<polygon fill="midnightblue" stroke="midnightblue" points="588.117,-81.0053 598.436,-78.601 588.87,-74.0459 588.117,-81.0053"/>
</g>
<!-- Node6 -->
<g id="node6" class="node"><title>Node6</title>
<g id="a_node6"><a xlink:href="runPostProcessing_8cxx.html" target="_top" xlink:title="This is a standalone executable to run postprocessing. ">
<polygon fill="none" stroke="black" points="391.5,-6 391.5,-25 577.5,-25 577.5,-6 391.5,-6"/>
<text text-anchor="middle" x="484.5" y="-13" font-family="Helvetica,sans-Serif" font-size="10.00">Framework/src/runPostProcessing.cxx</text>
</a>
</g>
</g>
<!-- Node3&#45;&gt;Node6 -->
<g id="edge5" class="edge"><title>Node3&#45;&gt;Node6</title>
<path fill="none" stroke="midnightblue" d="M630.132,-69.4231C591.186,-55.2698 538.128,-35.9887 507.982,-25.0336"/>
<polygon fill="midnightblue" stroke="midnightblue" points="629.113,-72.7767 639.707,-72.9027 631.504,-66.1976 629.113,-72.7767"/>
</g>
<!-- Node7 -->
<g id="node7" class="node"><title>Node7</title>
<g id="a_node7"><a xlink:href="runPostProcessingOCC_8cxx.html" target="_top" xlink:title="This is an OCC executable to run postprocessing. ">
<polygon fill="none" stroke="black" points="595,-0.5 595,-30.5 762,-30.5 762,-0.5 595,-0.5"/>
<text text-anchor="start" x="603" y="-18.5" font-family="Helvetica,sans-Serif" font-size="10.00">Framework/src/runPostProcessing</text>
<text text-anchor="middle" x="678.5" y="-7.5" font-family="Helvetica,sans-Serif" font-size="10.00">OCC.cxx</text>
</a>
</g>
</g>
<!-- Node3&#45;&gt;Node7 -->
<g id="edge6" class="edge"><title>Node3&#45;&gt;Node7</title>
<path fill="none" stroke="midnightblue" d="M678.5,-62.7317C678.5,-52.0679 678.5,-39.9145 678.5,-30.7455"/>
<polygon fill="midnightblue" stroke="midnightblue" points="675,-62.7332 678.5,-72.7333 682,-62.7333 675,-62.7332"/>
</g>
<!-- Node8 -->
<g id="node8" class="node"><title>Node8</title>
<g id="a_node8"><a xlink:href="testPostProcessingRunner_8cxx.html" target="_top" xlink:title="Framework/test/testPostProcessing\lRunner.cxx">
<polygon fill="none" stroke="black" points="780,-0.5 780,-30.5 953,-30.5 953,-0.5 780,-0.5"/>
<text text-anchor="start" x="788" y="-18.5" font-family="Helvetica,sans-Serif" font-size="10.00">Framework/test/testPostProcessing</text>
<text text-anchor="middle" x="866.5" y="-7.5" font-family="Helvetica,sans-Serif" font-size="10.00">Runner.cxx</text>
</a>
</g>
</g>
<!-- Node3&#45;&gt;Node8 -->
<g id="edge7" class="edge"><title>Node3&#45;&gt;Node8</title>
<path fill="none" stroke="midnightblue" d="M725.674,-69.3098C757.627,-57.3275 799.275,-41.7096 828.972,-30.5729"/>
<polygon fill="midnightblue" stroke="midnightblue" points="724.227,-66.1143 716.093,-72.9027 726.685,-72.6686 724.227,-66.1143"/>
</g>
<!-- Node10 -->
<g id="node10" class="node"><title>Node10</title>
<g id="a_node10"><a xlink:href="TrendingTask_8cxx.html" target="_top" xlink:title="Framework/src/TrendingTask.cxx">
<polygon fill="none" stroke="black" points="1132,-6 1132,-25 1295,-25 1295,-6 1132,-6"/>
<text text-anchor="middle" x="1213.5" y="-13" font-family="Helvetica,sans-Serif" font-size="10.00">Framework/src/TrendingTask.cxx</text>
</a>
</g>
</g>
<!-- Node9&#45;&gt;Node10 -->
<g id="edge9" class="edge"><title>Node9&#45;&gt;Node10</title>
<path fill="none" stroke="midnightblue" d="M1202.95,-62.977C1205.89,-50.0145 1209.35,-34.7904 1211.48,-25.3932"/>
<polygon fill="midnightblue" stroke="midnightblue" points="1199.54,-62.2066 1200.74,-72.7333 1206.36,-63.7559 1199.54,-62.2066"/>
</g>
<!-- Node9&#45;&gt;Node11 -->
<g id="edge10" class="edge"><title>Node9&#45;&gt;Node11</title>
<path fill="none" stroke="midnightblue" d="M1157.24,-68.6868C1131.08,-56.7903 1097.5,-41.5175 1073.44,-30.5729"/>
<polygon fill="midnightblue" stroke="midnightblue" points="1155.95,-71.9483 1166.51,-72.9027 1158.85,-65.5765 1155.95,-71.9483"/>
</g>
<!-- Node15 -->
<g id="node15" class="node"><title>Node15</title>
<g id="a_node15"><a xlink:href="TreeReaderPostProcessing_8cxx.html" target="_top" xlink:title="Modules/FT0/src/TreeReader\lPostProcessing.cxx">
<polygon fill="none" stroke="black" points="1313.5,-0.5 1313.5,-30.5 1457.5,-30.5 1457.5,-0.5 1313.5,-0.5"/>
<text text-anchor="start" x="1321.5" y="-18.5" font-family="Helvetica,sans-Serif" font-size="10.00">Modules/FT0/src/TreeReader</text>
<text text-anchor="middle" x="1385.5" y="-7.5" font-family="Helvetica,sans-Serif" font-size="10.00">PostProcessing.cxx</text>
</a>
</g>
</g>
<!-- Node14&#45;&gt;Node15 -->
<g id="edge14" class="edge"><title>Node14&#45;&gt;Node15</title>
<path fill="none" stroke="midnightblue" d="M1372.95,-63.0645C1375.85,-52.3215 1379.16,-40.01 1381.66,-30.7455"/>
<polygon fill="midnightblue" stroke="midnightblue" points="1369.57,-62.167 1370.34,-72.7333 1376.33,-63.9886 1369.57,-62.167"/>
</g>
<!-- Node17 -->
<g id="node17" class="node"><title>Node17</title>
<g id="a_node17"><a xlink:href="TrendingTaskITSFhr_8cxx.html" target="_top" xlink:title="Modules/ITS/src/Trending\lTaskITSFhr.cxx">
<polygon fill="none" stroke="black" points="1476,-0.5 1476,-30.5 1605,-30.5 1605,-0.5 1476,-0.5"/>
<text text-anchor="start" x="1484" y="-18.5" font-family="Helvetica,sans-Serif" font-size="10.00">Modules/ITS/src/Trending</text>
<text text-anchor="middle" x="1540.5" y="-7.5" font-family="Helvetica,sans-Serif" font-size="10.00">TaskITSFhr.cxx</text>
</a>
</g>
</g>
<!-- Node16&#45;&gt;Node17 -->
<g id="edge16" class="edge"><title>Node16&#45;&gt;Node17</title>
<path fill="none" stroke="midnightblue" d="M1537.88,-62.7317C1538.48,-52.0679 1539.17,-39.9145 1539.69,-30.7455"/>
<polygon fill="midnightblue" stroke="midnightblue" points="1534.38,-62.551 1537.31,-72.7333 1541.37,-62.9476 1534.38,-62.551"/>
</g>
<!-- Node19 -->
<g id="node19" class="node"><title>Node19</title>
<g id="a_node19"><a xlink:href="TrendingTaskITSThr_8cxx.html" target="_top" xlink:title="Modules/ITS/src/Trending\lTaskITSThr.cxx">
<polygon fill="none" stroke="black" points="1626,-0.5 1626,-30.5 1755,-30.5 1755,-0.5 1626,-0.5"/>
<text text-anchor="start" x="1634" y="-18.5" font-family="Helvetica,sans-Serif" font-size="10.00">Modules/ITS/src/Trending</text>
<text text-anchor="middle" x="1690.5" y="-7.5" font-family="Helvetica,sans-Serif" font-size="10.00">TaskITSThr.cxx</text>
</a>
</g>
</g>
<!-- Node18&#45;&gt;Node19 -->
<g id="edge18" class="edge"><title>Node18&#45;&gt;Node19</title>
<path fill="none" stroke="midnightblue" d="M1690.5,-62.7317C1690.5,-52.0679 1690.5,-39.9145 1690.5,-30.7455"/>
<polygon fill="midnightblue" stroke="midnightblue" points="1687,-62.7332 1690.5,-72.7333 1694,-62.7333 1687,-62.7332"/>
</g>
<!-- Node21 -->
<g id="node21" class="node"><title>Node21</title>
<polygon fill="none" stroke="#bfbfbf" points="1791.5,-0.5 1791.5,-30.5 1937.5,-30.5 1937.5,-0.5 1791.5,-0.5"/>
<text text-anchor="start" x="1799.5" y="-18.5" font-family="Helvetica,sans-Serif" font-size="10.00">Modules/Skeleton/src</text>
<text text-anchor="middle" x="1864.5" y="-7.5" font-family="Helvetica,sans-Serif" font-size="10.00">/SkeletonPostProcessing.cxx</text>
</g>
<!-- Node20&#45;&gt;Node21 -->
<g id="edge20" class="edge"><title>Node20&#45;&gt;Node21</title>
<path fill="none" stroke="midnightblue" d="M1864.5,-62.7317C1864.5,-52.0679 1864.5,-39.9145 1864.5,-30.7455"/>
<polygon fill="midnightblue" stroke="midnightblue" points="1861,-62.7332 1864.5,-72.7333 1868,-62.7333 1861,-62.7332"/>
</g>
<!-- Node23 -->
<g id="node23" class="node"><title>Node23</title>
<g id="a_node23"><a xlink:href="PostProcessDiagnosticPerCrate_8cxx.html" target="_top" xlink:title="Post processing to rearrange TOF information at the level of the crate (maybe we should do the opposi...">
<polygon fill="none" stroke="black" points="1967.5,-0.5 1967.5,-30.5 2119.5,-30.5 2119.5,-0.5 1967.5,-0.5"/>
<text text-anchor="start" x="1975.5" y="-18.5" font-family="Helvetica,sans-Serif" font-size="10.00">Modules/TOF/src/PostProcess</text>
<text text-anchor="middle" x="2043.5" y="-7.5" font-family="Helvetica,sans-Serif" font-size="10.00">DiagnosticPerCrate.cxx</text>
</a>
</g>
</g>
<!-- Node22&#45;&gt;Node23 -->
<g id="edge22" class="edge"><title>Node22&#45;&gt;Node23</title>
<path fill="none" stroke="midnightblue" d="M2043.5,-57.08C2043.5,-48.0061 2043.5,-38.4498 2043.5,-30.8916"/>
<polygon fill="midnightblue" stroke="midnightblue" points="2040,-57.3618 2043.5,-67.3618 2047,-57.3619 2040,-57.3618"/>
</g>
<!-- Node24&#45;&gt;Node5 -->
<g id="edge25" class="edge"><title>Node24&#45;&gt;Node5</title>
<path fill="none" stroke="midnightblue" d="M317.83,-136.911C331.026,-116.759 344.444,-87.3724 328.5,-67 320.264,-56.4768 254.647,-41.4596 200.02,-30.5381"/>
<polygon fill="midnightblue" stroke="midnightblue" points="314.91,-134.981 312.083,-145.192 320.66,-138.972 314.91,-134.981"/>
</g>
<!-- Node25 -->
<g id="node25" class="node"><title>Node25</title>
<g id="a_node25"><a xlink:href="TriggerHelpers_8cxx.html" target="_top" xlink:title="Framework/src/TriggerHelpers.cxx">
<polygon fill="none" stroke="black" points="0,-78.5 0,-97.5 167,-97.5 167,-78.5 0,-78.5"/>
<text text-anchor="middle" x="83.5" y="-85.5" font-family="Helvetica,sans-Serif" font-size="10.00">Framework/src/TriggerHelpers.cxx</text>
</a>
</g>
</g>
<!-- Node24&#45;&gt;Node25 -->
<g id="edge26" class="edge"><title>Node24&#45;&gt;Node25</title>
<path fill="none" stroke="midnightblue" d="M247.766,-142.368C204.112,-128.185 143.918,-108.629 109.832,-97.555"/>
<polygon fill="midnightblue" stroke="midnightblue" points="246.776,-145.726 257.368,-145.487 248.939,-139.069 246.776,-145.726"/>
</g>
<!-- Node26 -->
<g id="node26" class="node"><title>Node26</title>
<g id="a_node26"><a xlink:href="testTriggerHelpers_8cxx.html" target="_top" xlink:title="Framework/test/testTrigger\lHelpers.cxx">
<polygon fill="none" stroke="black" points="185.5,-73 185.5,-103 319.5,-103 319.5,-73 185.5,-73"/>
<text text-anchor="start" x="193.5" y="-91" font-family="Helvetica,sans-Serif" font-size="10.00">Framework/test/testTrigger</text>
<text text-anchor="middle" x="252.5" y="-80" font-family="Helvetica,sans-Serif" font-size="10.00">Helpers.cxx</text>
</a>
</g>
</g>
<!-- Node24&#45;&gt;Node26 -->
<g id="edge27" class="edge"><title>Node24&#45;&gt;Node26</title>
<path fill="none" stroke="midnightblue" d="M285.103,-136.885C277.584,-125.842 268.767,-112.892 262.199,-103.246"/>
<polygon fill="midnightblue" stroke="midnightblue" points="282.265,-138.937 290.786,-145.233 288.052,-134.997 282.265,-138.937"/>
</g>
</g>
</svg>
