<?xml version="1.0" encoding="UTF-8" standalone="no"?>
<!DOCTYPE svg PUBLIC "-//W3C//DTD SVG 1.1//EN"
 "http://www.w3.org/Graphics/SVG/1.1/DTD/svg11.dtd">
<!-- Generated by graphviz version 2.38.0 (20140413.2041)
 -->
<!-- Title: Framework/src/TriggerHelpers.cxx Pages: 1 -->
<!--zoomable 218 -->
<svg id="main" version="1.1" xmlns="http://www.w3.org/2000/svg" xmlns:xlink="http://www.w3.org/1999/xlink" xml:space="preserve" onload="init(evt)">
<style type="text/css"><![CDATA[
.edge:hover path { stroke: red; }
.edge:hover polygon { stroke: red; fill: red; }
]]></style>
<script type="text/javascript"><![CDATA[
var edges = document.getElementsByTagName('g');
if (edges && edges.length) {
  for (var i=0;i<edges.length;i++) {
    if (edges[i].id.substr(0,4)=='edge') {
      edges[i].setAttribute('class','edge');
    }
  }
}
]]></script>
        <defs>
                <circle id="rim" cx="0" cy="0" r="7"/>
                <circle id="rim2" cx="0" cy="0" r="3.5"/>
                <g id="zoomPlus">
                        <use xlink:href="#rim" fill="#404040">
                                <set attributeName="fill" to="#808080" begin="zoomplus.mouseover" end="zoomplus.mouseout"/>
                        </use>
                        <path d="M-4,0h8M0,-4v8" fill="none" stroke="white" stroke-width="1.5" pointer-events="none"/>
                </g>
                <g id="zoomMin">
                        <use xlink:href="#rim" fill="#404040">
                                <set attributeName="fill" to="#808080" begin="zoomminus.mouseover" end="zoomminus.mouseout"/>
                        </use>
                        <path d="M-4,0h8" fill="none" stroke="white" stroke-width="1.5" pointer-events="none"/>
                </g>
                <g id="dirArrow">
                        <path fill="none" stroke="white" stroke-width="1.5" d="M0,-3.0v7 M-2.5,-0.5L0,-3.0L2.5,-0.5"/>
                </g>
               <g id="resetDef">
                       <use xlink:href="#rim2" fill="#404040">
                               <set attributeName="fill" to="#808080" begin="reset.mouseover" end="reset.mouseout"/>
                       </use>
               </g>
        </defs>

<script type="text/javascript">
var viewWidth = 716;
var viewHeight = 218;
var sectionId = 'dynsection-0';
</script>
<script xlink:href="svgpan.js"/>
<svg id="graph" class="graph">
<g id="viewport">
<title>Framework/src/TriggerHelpers.cxx</title>
<!-- Node1 -->
<g id="node1" class="node"><title>Node1</title>
<polygon fill="#bfbfbf" stroke="black" points="412,-190.5 412,-209.5 579,-209.5 579,-190.5 412,-190.5"/>
<text text-anchor="middle" x="495.5" y="-197.5" font-family="Helvetica,sans-Serif" font-size="10.00">Framework/src/TriggerHelpers.cxx</text>
</g>
<!-- Node2 -->
<g id="node2" class="node"><title>Node2</title>
<g id="a_node2"><a xlink:href="TriggerHelpers_8h.html" target="_top" xlink:title="QualityControl/TriggerHelpers.h">
<polygon fill="none" stroke="black" points="170.5,-134.5 170.5,-153.5 324.5,-153.5 324.5,-134.5 170.5,-134.5"/>
<text text-anchor="middle" x="247.5" y="-141.5" font-family="Helvetica,sans-Serif" font-size="10.00">QualityControl/TriggerHelpers.h</text>
</a>
</g>
</g>
<!-- Node1&#45;&gt;Node2 -->
<g id="edge1" class="edge"><title>Node1&#45;&gt;Node2</title>
<path fill="none" stroke="midnightblue" d="M456.204,-190.444C412.941,-181.023 343.327,-165.866 296.527,-155.675"/>
<polygon fill="midnightblue" stroke="midnightblue" points="297.128,-152.224 286.612,-153.516 295.639,-159.064 297.128,-152.224"/>
</g>
<!-- Node10 -->
<g id="node10" class="node"><title>Node10</title>
<g id="a_node10"><a xlink:href="QcInfoLogger_8h.html" target="_top" xlink:title="QualityControl/QcInfoLogger.h">
<polygon fill="none" stroke="black" points="343,-134.5 343,-153.5 492,-153.5 492,-134.5 343,-134.5"/>
<text text-anchor="middle" x="417.5" y="-141.5" font-family="Helvetica,sans-Serif" font-size="10.00">QualityControl/QcInfoLogger.h</text>
</a>
</g>
</g>
<!-- Node1&#45;&gt;Node10 -->
<g id="edge10" class="edge"><title>Node1&#45;&gt;Node10</title>
<path fill="none" stroke="midnightblue" d="M482.968,-190.324C470.914,-181.979 452.473,-169.212 438.231,-159.352"/>
<polygon fill="midnightblue" stroke="midnightblue" points="440.215,-156.469 430.001,-153.655 436.231,-162.224 440.215,-156.469"/>
</g>
<!-- Node13 -->
<g id="node13" class="node"><title>Node13</title>
<polygon fill="none" stroke="#bfbfbf" points="510,-134.5 510,-153.5 639,-153.5 639,-134.5 510,-134.5"/>
<text text-anchor="middle" x="574.5" y="-141.5" font-family="Helvetica,sans-Serif" font-size="10.00">boost/algorithm/string.hpp</text>
</g>
<!-- Node1&#45;&gt;Node13 -->
<g id="edge13" class="edge"><title>Node1&#45;&gt;Node13</title>
<path fill="none" stroke="midnightblue" d="M508.193,-190.324C520.401,-181.979 539.078,-169.212 553.503,-159.352"/>
<polygon fill="midnightblue" stroke="midnightblue" points="555.558,-162.187 561.839,-153.655 551.608,-156.408 555.558,-162.187"/>
</g>
<!-- Node14 -->
<g id="node14" class="node"><title>Node14</title>
<polygon fill="none" stroke="#bfbfbf" points="657.5,-134.5 657.5,-153.5 707.5,-153.5 707.5,-134.5 657.5,-134.5"/>
<text text-anchor="middle" x="682.5" y="-141.5" font-family="Helvetica,sans-Serif" font-size="10.00">optional</text>
</g>
<!-- Node1&#45;&gt;Node14 -->
<g id="edge14" class="edge"><title>Node1&#45;&gt;Node14</title>
<path fill="none" stroke="midnightblue" d="M525.131,-190.444C558.406,-180.835 612.355,-165.256 647.633,-155.069"/>
<polygon fill="midnightblue" stroke="midnightblue" points="648.86,-158.357 657.496,-152.22 646.918,-151.632 648.86,-158.357"/>
</g>
<!-- Node3 -->
<g id="node3" class="node"><title>Node3</title>
<g id="a_node3"><a xlink:href="Triggers_8h.html" target="_top" xlink:title="QualityControl/Triggers.h">
<polygon fill="none" stroke="black" points="32,-73 32,-92 157,-92 157,-73 32,-73"/>
<text text-anchor="middle" x="94.5" y="-80" font-family="Helvetica,sans-Serif" font-size="10.00">QualityControl/Triggers.h</text>
</a>
</g>
</g>
<!-- Node2&#45;&gt;Node3 -->
<g id="edge2" class="edge"><title>Node2&#45;&gt;Node3</title>
<path fill="none" stroke="midnightblue" d="M225.579,-134.475C199.448,-124.313 155.588,-107.256 125.87,-95.6996"/>
<polygon fill="midnightblue" stroke="midnightblue" points="126.969,-92.3716 116.381,-92.0091 124.432,-98.8956 126.969,-92.3716"/>
</g>
<!-- Node7 -->
<g id="node7" class="node"><title>Node7</title>
<g id="a_node7"><a xlink:href="PostProcessingConfig_8h.html" target="_top" xlink:title="QualityControl/PostProcessing\lConfig.h">
<polygon fill="none" stroke="black" points="175,-67.5 175,-97.5 326,-97.5 326,-67.5 175,-67.5"/>
<text text-anchor="start" x="183" y="-85.5" font-family="Helvetica,sans-Serif" font-size="10.00">QualityControl/PostProcessing</text>
<text text-anchor="middle" x="250.5" y="-74.5" font-family="Helvetica,sans-Serif" font-size="10.00">Config.h</text>
</a>
</g>
</g>
<!-- Node2&#45;&gt;Node7 -->
<g id="edge6" class="edge"><title>Node2&#45;&gt;Node7</title>
<path fill="none" stroke="midnightblue" d="M247.93,-134.475C248.283,-127.471 248.801,-117.192 249.28,-107.696"/>
<polygon fill="midnightblue" stroke="midnightblue" points="252.785,-107.687 249.793,-97.523 245.794,-107.334 252.785,-107.687"/>
</g>
<!-- Node4 -->
<g id="node4" class="node"><title>Node4</title>
<polygon fill="none" stroke="#bfbfbf" points="148,-6 148,-25 189,-25 189,-6 148,-6"/>
<text text-anchor="middle" x="168.5" y="-13" font-family="Helvetica,sans-Serif" font-size="10.00">string</text>
</g>
<!-- Node3&#45;&gt;Node4 -->
<g id="edge3" class="edge"><title>Node3&#45;&gt;Node4</title>
<path fill="none" stroke="midnightblue" d="M104.48,-72.7338C116.352,-62.3055 136.385,-44.7088 150.884,-31.9732"/>
<polygon fill="midnightblue" stroke="midnightblue" points="153.475,-34.3564 158.678,-25.1273 148.855,-29.0971 153.475,-34.3564"/>
</g>
<!-- Node5 -->
<g id="node5" class="node"><title>Node5</title>
<polygon fill="none" stroke="#bfbfbf" points="0,-6 0,-25 59,-25 59,-6 0,-6"/>
<text text-anchor="middle" x="29.5" y="-13" font-family="Helvetica,sans-Serif" font-size="10.00">functional</text>
</g>
<!-- Node3&#45;&gt;Node5 -->
<g id="edge4" class="edge"><title>Node3&#45;&gt;Node5</title>
<path fill="none" stroke="midnightblue" d="M85.7338,-72.7338C75.403,-62.403 58.0371,-45.0371 45.3315,-32.3315"/>
<polygon fill="midnightblue" stroke="midnightblue" points="47.6733,-29.7235 38.1273,-25.1273 42.7235,-34.6733 47.6733,-29.7235"/>
</g>
<!-- Node6 -->
<g id="node6" class="node"><title>Node6</title>
<polygon fill="none" stroke="#bfbfbf" points="77,-6 77,-25 122,-25 122,-6 77,-6"/>
<text text-anchor="middle" x="99.5" y="-13" font-family="Helvetica,sans-Serif" font-size="10.00">iosfwd</text>
</g>
<!-- Node3&#45;&gt;Node6 -->
<g id="edge5" class="edge"><title>Node3&#45;&gt;Node6</title>
<path fill="none" stroke="midnightblue" d="M95.1743,-72.7338C95.909,-63.1826 97.1063,-47.6183 98.0552,-35.2829"/>
<polygon fill="midnightblue" stroke="midnightblue" points="101.559,-35.3663 98.8364,-25.1273 94.5796,-34.8294 101.559,-35.3663"/>
</g>
<!-- Node7&#45;&gt;Node4 -->
<g id="edge8" class="edge"><title>Node7&#45;&gt;Node4</title>
<path fill="none" stroke="midnightblue" d="M232.707,-67.396C219.415,-56.8597 201.271,-42.4771 187.661,-31.6886"/>
<polygon fill="midnightblue" stroke="midnightblue" points="189.479,-28.6637 179.468,-25.1945 185.131,-34.1493 189.479,-28.6637"/>
</g>
<!-- Node8 -->
<g id="node8" class="node"><title>Node8</title>
<polygon fill="none" stroke="#bfbfbf" points="211.5,-6 211.5,-25 255.5,-25 255.5,-6 211.5,-6"/>
<text text-anchor="middle" x="233.5" y="-13" font-family="Helvetica,sans-Serif" font-size="10.00">vector</text>
</g>
<!-- Node7&#45;&gt;Node8 -->
<g id="edge7" class="edge"><title>Node7&#45;&gt;Node8</title>
<path fill="none" stroke="midnightblue" d="M246.811,-67.396C244.344,-57.9635 241.071,-45.4484 238.388,-35.1891"/>
<polygon fill="midnightblue" stroke="midnightblue" points="241.69,-33.9835 235.774,-25.1945 234.918,-35.7548 241.69,-33.9835"/>
</g>
<!-- Node9 -->
<g id="node9" class="node"><title>Node9</title>
<polygon fill="none" stroke="#bfbfbf" points="274,-0.5 274,-30.5 375,-30.5 375,-0.5 274,-0.5"/>
<text text-anchor="start" x="282" y="-18.5" font-family="Helvetica,sans-Serif" font-size="10.00">boost/property_tree</text>
<text text-anchor="middle" x="324.5" y="-7.5" font-family="Helvetica,sans-Serif" font-size="10.00">/ptree_fwd.hpp</text>
</g>
<!-- Node7&#45;&gt;Node9 -->
<g id="edge9" class="edge"><title>Node7&#45;&gt;Node9</title>
<path fill="none" stroke="midnightblue" d="M266.557,-67.396C276.545,-58.6227 289.569,-47.1827 300.739,-37.3714"/>
<polygon fill="midnightblue" stroke="midnightblue" points="303.271,-39.8056 308.474,-30.5765 298.651,-34.5463 303.271,-39.8056"/>
</g>
<!-- Node11 -->
<g id="node11" class="node"><title>Node11</title>
<polygon fill="none" stroke="#bfbfbf" points="349.5,-73 349.5,-92 479.5,-92 479.5,-73 349.5,-73"/>
<text text-anchor="middle" x="414.5" y="-80" font-family="Helvetica,sans-Serif" font-size="10.00">InfoLogger/InfoLogger.hxx</text>
</g>
<!-- Node10&#45;&gt;Node11 -->
<g id="edge11" class="edge"><title>Node10&#45;&gt;Node11</title>
<path fill="none" stroke="midnightblue" d="M417.07,-134.475C416.647,-126.08 415.986,-112.981 415.441,-102.163"/>
<polygon fill="midnightblue" stroke="midnightblue" points="418.928,-101.82 414.929,-92.0091 411.937,-102.173 418.928,-101.82"/>
</g>
<!-- Node12 -->
<g id="node12" class="node"><title>Node12</title>
<polygon fill="none" stroke="#bfbfbf" points="497.5,-73 497.5,-92 659.5,-92 659.5,-73 497.5,-73"/>
<text text-anchor="middle" x="578.5" y="-80" font-family="Helvetica,sans-Serif" font-size="10.00">InfoLogger/InfoLoggerMacros.hxx</text>
</g>
<!-- Node10&#45;&gt;Node12 -->
<g id="edge12" class="edge"><title>Node10&#45;&gt;Node12</title>
<path fill="none" stroke="midnightblue" d="M440.567,-134.475C468.185,-124.269 514.62,-107.108 545.896,-95.5492"/>
<polygon fill="midnightblue" stroke="midnightblue" points="547.309,-98.7586 555.475,-92.0091 544.882,-92.1927 547.309,-98.7586"/>
</g>
</g>
</svg>
        <g id="navigator" transform="translate(0 0)" fill="#404254">
                <rect fill="#f2f5e9" fill-opacity="0.5" stroke="#606060" stroke-width=".5" x="0" y="0" width="60" height="60"/>
                <use id="zoomplus" xlink:href="#zoomPlus" x="17" y="9" onmousedown="handleZoom(evt,'in')"/>
                <use id="zoomminus" xlink:href="#zoomMin" x="42" y="9" onmousedown="handleZoom(evt,'out')"/>
                <use id="reset" xlink:href="#resetDef" x="30" y="36" onmousedown="handleReset()"/>
                <g id="arrowUp" xlink:href="#dirArrow" transform="translate(30 24)" onmousedown="handlePan(0,-1)">
                  <use xlink:href="#rim" fill="#404040">
                        <set attributeName="fill" to="#808080" begin="arrowUp.mouseover" end="arrowUp.mouseout"/>
                  </use>
                  <path fill="none" stroke="white" stroke-width="1.5" d="M0,-3.0v7 M-2.5,-0.5L0,-3.0L2.5,-0.5"/>
                </g>
                <g id="arrowRight" xlink:href="#dirArrow" transform="rotate(90) translate(36 -43)" onmousedown="handlePan(1,0)">
                  <use xlink:href="#rim" fill="#404040">
                        <set attributeName="fill" to="#808080" begin="arrowRight.mouseover" end="arrowRight.mouseout"/>
                  </use>
                  <path fill="none" stroke="white" stroke-width="1.5" d="M0,-3.0v7 M-2.5,-0.5L0,-3.0L2.5,-0.5"/>
                </g>
                <g id="arrowDown" xlink:href="#dirArrow" transform="rotate(180) translate(-30 -48)" onmousedown="handlePan(0,1)">
                  <use xlink:href="#rim" fill="#404040">
                        <set attributeName="fill" to="#808080" begin="arrowDown.mouseover" end="arrowDown.mouseout"/>
                  </use>
                  <path fill="none" stroke="white" stroke-width="1.5" d="M0,-3.0v7 M-2.5,-0.5L0,-3.0L2.5,-0.5"/>
                </g>
                <g id="arrowLeft" xlink:href="#dirArrow" transform="rotate(270) translate(-36 17)" onmousedown="handlePan(-1,0)">
                  <use xlink:href="#rim" fill="#404040">
                        <set attributeName="fill" to="#808080" begin="arrowLeft.mouseover" end="arrowLeft.mouseout"/>
                  </use>
                  <path fill="none" stroke="white" stroke-width="1.5" d="M0,-3.0v7 M-2.5,-0.5L0,-3.0L2.5,-0.5"/>
                </g>
        </g>
        <svg viewBox="0 0 15 15" width="100%" height="30px" preserveAspectRatio="xMaxYMin meet">
         <g id="arrow_out" transform="scale(0.3 0.3)">
          <a xlink:href="TriggerHelpers_8cxx__incl_org.svg" target="_base">
           <rect id="button" ry="5" rx="5" y="6" x="6" height="38" width="38"
                fill="#f2f5e9" fill-opacity="0.5" stroke="#606060" stroke-width="1.0"/>
           <path id="arrow"
             d="M 11.500037,31.436501 C 11.940474,20.09759 22.043105,11.32322 32.158766,21.979434 L 37.068811,17.246167 C 37.068811,17.246167 37.088388,32 37.088388,32 L 22.160133,31.978069 C 22.160133,31.978069 26.997745,27.140456 26.997745,27.140456 C 18.528582,18.264221 13.291696,25.230495 11.500037,31.436501 z"
             style="fill:#404040;"/>
          </a>
         </g>
        </svg>
</svg>
