<?xml version="1.0" encoding="UTF-8" standalone="no"?>
<!DOCTYPE svg PUBLIC "-//W3C//DTD SVG 1.1//EN"
 "http://www.w3.org/Graphics/SVG/1.1/DTD/svg11.dtd">
<!-- Generated by graphviz version 2.38.0 (20140413.2041)
 -->
<!-- Title: o2::quality_control_modules::its::ITSFeeTask::GBTDdw::GBTBits Pages: 1 -->
<svg width="236pt" height="342pt"
 viewBox="0.00 0.00 236.00 342.00" xmlns="http://www.w3.org/2000/svg" xmlns:xlink="http://www.w3.org/1999/xlink">
<g id="graph0" class="graph" transform="scale(1 1) rotate(0) translate(4 338)">
<title>o2::quality_control_modules::its::ITSFeeTask::GBTDdw::GBTBits</title>
<!-- Node1 -->
<g id="node1" class="node"><title>Node1</title>
<polygon fill="#bfbfbf" stroke="black" points="0.5,-0.5 0.5,-79.5 135.5,-79.5 135.5,-0.5 0.5,-0.5"/>
<text text-anchor="start" x="8.5" y="-67.5" font-family="Helvetica,sans-Serif" font-size="10.00">o2::quality_control</text>
<text text-anchor="start" x="8.5" y="-56.5" font-family="Helvetica,sans-Serif" font-size="10.00">_modules::its::ITSFeeTask</text>
<text text-anchor="middle" x="68" y="-45.5" font-family="Helvetica,sans-Serif" font-size="10.00">::GBTDdw::GBTBits</text>
<polyline fill="none" stroke="black" points="0.5,-38.5 135.5,-38.5 "/>
<text text-anchor="middle" x="68" y="-26.5" font-family="Helvetica,sans-Serif" font-size="10.00"> </text>
<polyline fill="none" stroke="black" points="0.5,-19.5 135.5,-19.5 "/>
<text text-anchor="middle" x="68" y="-7.5" font-family="Helvetica,sans-Serif" font-size="10.00"> </text>
</g>
<!-- Node2 -->
<g id="node2" class="node"><title>Node2</title>
<polygon fill="none" stroke="#bfbfbf" points="0,-138.5 0,-195.5 46,-195.5 46,-138.5 0,-138.5"/>
<text text-anchor="middle" x="23" y="-183.5" font-family="Helvetica,sans-Serif" font-size="10.00">uint8_t</text>
<polyline fill="none" stroke="#bfbfbf" points="0,-176.5 46,-176.5 "/>
<text text-anchor="middle" x="23" y="-164.5" font-family="Helvetica,sans-Serif" font-size="10.00"> </text>
<polyline fill="none" stroke="#bfbfbf" points="0,-157.5 46,-157.5 "/>
<text text-anchor="middle" x="23" y="-145.5" font-family="Helvetica,sans-Serif" font-size="10.00"> </text>
</g>
<!-- Node2&#45;&gt;Node1 -->
<g id="edge1" class="edge"><title>Node2&#45;&gt;Node1</title>
<path fill="none" stroke="#404040" d="M32.987,-138.258C37.9876,-124.368 44.1974,-107.118 49.9926,-91.0205"/>
<polygon fill="none" stroke="#404040" points="50.0513,-90.8574 48.3201,-83.8572 54.116,-79.5667 55.8472,-86.567 50.0513,-90.8574"/>
<text text-anchor="middle" x="63" y="-101" font-family="Helvetica,sans-Serif" font-size="10.00"> +data8</text>
</g>
<!-- Node3 -->
<g id="node3" class="node"><title>Node3</title>
<g id="a_node3"><a xlink:href="structo2_1_1quality__control__modules_1_1its_1_1ITSFeeTask_1_1GBTDdw_1_1GBTBits_1_1payloadBits.html" target="_top" xlink:title="{o2::quality_control\l_modules::its::ITSFeeTask\l::GBTDdw::GBTBits::payloadBits\n||}">
<polygon fill="none" stroke="black" points="64,-127.5 64,-206.5 228,-206.5 228,-127.5 64,-127.5"/>
<text text-anchor="start" x="72" y="-194.5" font-family="Helvetica,sans-Serif" font-size="10.00">o2::quality_control</text>
<text text-anchor="start" x="72" y="-183.5" font-family="Helvetica,sans-Serif" font-size="10.00">_modules::its::ITSFeeTask</text>
<text text-anchor="middle" x="146" y="-172.5" font-family="Helvetica,sans-Serif" font-size="10.00">::GBTDdw::GBTBits::payloadBits</text>
<polyline fill="none" stroke="black" points="64,-165.5 228,-165.5 "/>
<text text-anchor="middle" x="146" y="-153.5" font-family="Helvetica,sans-Serif" font-size="10.00"> </text>
<polyline fill="none" stroke="black" points="64,-146.5 228,-146.5 "/>
<text text-anchor="middle" x="146" y="-134.5" font-family="Helvetica,sans-Serif" font-size="10.00"> </text>
</a>
</g>
</g>
<!-- Node3&#45;&gt;Node1 -->
<g id="edge2" class="edge"><title>Node3&#45;&gt;Node1</title>
<path fill="none" stroke="#404040" d="M121.961,-127.476C114.547,-115.595 106.283,-102.351 98.4951,-89.8703"/>
<polygon fill="none" stroke="#404040" points="98.4466,-89.7926 91.8768,-86.8199 92.0939,-79.6121 98.6638,-82.5848 98.4466,-89.7926"/>
<text text-anchor="middle" x="130.5" y="-101" font-family="Helvetica,sans-Serif" font-size="10.00"> +payload</text>
</g>
<!-- Node4 -->
<g id="node4" class="node"><title>Node4</title>
<polygon fill="none" stroke="#bfbfbf" points="120.5,-276.5 120.5,-333.5 171.5,-333.5 171.5,-276.5 120.5,-276.5"/>
<text text-anchor="middle" x="146" y="-321.5" font-family="Helvetica,sans-Serif" font-size="10.00">uint64_t</text>
<polyline fill="none" stroke="#bfbfbf" points="120.5,-314.5 171.5,-314.5 "/>
<text text-anchor="middle" x="146" y="-302.5" font-family="Helvetica,sans-Serif" font-size="10.00"> </text>
<polyline fill="none" stroke="#bfbfbf" points="120.5,-295.5 171.5,-295.5 "/>
<text text-anchor="middle" x="146" y="-283.5" font-family="Helvetica,sans-Serif" font-size="10.00"> </text>
</g>
<!-- Node4&#45;&gt;Node3 -->
<g id="edge3" class="edge"><title>Node4&#45;&gt;Node3</title>
<path fill="none" stroke="#404040" d="M146,-276.478C146,-259.909 146,-238.299 146,-218.732"/>
<polygon fill="none" stroke="#404040" points="146,-218.56 142,-212.56 146,-206.56 150,-212.56 146,-218.56"/>
<text text-anchor="middle" x="162.5" y="-250" font-family="Helvetica,sans-Serif" font-size="10.00"> +id</text>
<text text-anchor="middle" x="162.5" y="-239" font-family="Helvetica,sans-Serif" font-size="10.00">+flags1</text>
<text text-anchor="middle" x="162.5" y="-228" font-family="Helvetica,sans-Serif" font-size="10.00">+flags2</text>
</g>
</g>
</svg>
