<?xml version="1.0" encoding="UTF-8" standalone="no"?>
<!DOCTYPE svg PUBLIC "-//W3C//DTD SVG 1.1//EN"
 "http://www.w3.org/Graphics/SVG/1.1/DTD/svg11.dtd">
<!-- Generated by graphviz version 2.38.0 (20140413.2041)
 -->
<!-- Title: Framework/src/UpdatePolicyManager.cxx Pages: 1 -->
<svg width="634pt" height="162pt"
 viewBox="0.00 0.00 633.50 162.00" xmlns="http://www.w3.org/2000/svg" xmlns:xlink="http://www.w3.org/1999/xlink">
<g id="graph0" class="graph" transform="scale(1 1) rotate(0) translate(4 158)">
<title>Framework/src/UpdatePolicyManager.cxx</title>
<!-- Node1 -->
<g id="node1" class="node"><title>Node1</title>
<polygon fill="#bfbfbf" stroke="black" points="309,-123.5 309,-153.5 452,-153.5 452,-123.5 309,-123.5"/>
<text text-anchor="start" x="317" y="-141.5" font-family="Helvetica,sans-Serif" font-size="10.00">Framework/src/UpdatePolicy</text>
<text text-anchor="middle" x="380.5" y="-130.5" font-family="Helvetica,sans-Serif" font-size="10.00">Manager.cxx</text>
</g>
<!-- Node2 -->
<g id="node2" class="node"><title>Node2</title>
<g id="a_node2"><a xlink:href="UpdatePolicyManager_8h.html" target="_top" xlink:title="QualityControl/UpdatePolicy\lManager.h">
<polygon fill="none" stroke="black" points="99.5,-56.5 99.5,-86.5 239.5,-86.5 239.5,-56.5 99.5,-56.5"/>
<text text-anchor="start" x="107.5" y="-74.5" font-family="Helvetica,sans-Serif" font-size="10.00">QualityControl/UpdatePolicy</text>
<text text-anchor="middle" x="169.5" y="-63.5" font-family="Helvetica,sans-Serif" font-size="10.00">Manager.h</text>
</a>
</g>
</g>
<!-- Node1&#45;&gt;Node2 -->
<g id="edge1" class="edge"><title>Node1&#45;&gt;Node2</title>
<path fill="none" stroke="midnightblue" d="M334.976,-123.476C302.779,-113.557 259.422,-100.201 225.165,-89.6481"/>
<polygon fill="midnightblue" stroke="midnightblue" points="225.893,-86.2101 215.306,-86.6109 223.833,-92.8999 225.893,-86.2101"/>
</g>
<!-- Node8 -->
<g id="node8" class="node"><title>Node8</title>
<g id="a_node8"><a xlink:href="QcInfoLogger_8h.html" target="_top" xlink:title="QualityControl/QcInfoLogger.h">
<polygon fill="none" stroke="black" points="306,-62 306,-81 455,-81 455,-62 306,-62"/>
<text text-anchor="middle" x="380.5" y="-69" font-family="Helvetica,sans-Serif" font-size="10.00">QualityControl/QcInfoLogger.h</text>
</a>
</g>
</g>
<!-- Node1&#45;&gt;Node8 -->
<g id="edge7" class="edge"><title>Node1&#45;&gt;Node8</title>
<path fill="none" stroke="midnightblue" d="M380.5,-123.396C380.5,-114.064 380.5,-101.714 380.5,-91.5173"/>
<polygon fill="midnightblue" stroke="midnightblue" points="384,-91.1945 380.5,-81.1945 377,-91.1946 384,-91.1945"/>
</g>
<!-- Node11 -->
<g id="node11" class="node"><title>Node11</title>
<polygon fill="none" stroke="#bfbfbf" points="472.5,-62 472.5,-81 588.5,-81 588.5,-62 472.5,-62"/>
<text text-anchor="middle" x="530.5" y="-69" font-family="Helvetica,sans-Serif" font-size="10.00">Common/Exceptions.h</text>
</g>
<!-- Node1&#45;&gt;Node11 -->
<g id="edge10" class="edge"><title>Node1&#45;&gt;Node11</title>
<path fill="none" stroke="midnightblue" d="M413.048,-123.396C439.367,-111.991 476.086,-96.0794 501.429,-85.0976"/>
<polygon fill="midnightblue" stroke="midnightblue" points="503.085,-88.1946 510.868,-81.007 500.301,-81.7717 503.085,-88.1946"/>
</g>
<!-- Node3 -->
<g id="node3" class="node"><title>Node3</title>
<polygon fill="none" stroke="#bfbfbf" points="0,-0.5 0,-19.5 41,-19.5 41,-0.5 0,-0.5"/>
<text text-anchor="middle" x="20.5" y="-7.5" font-family="Helvetica,sans-Serif" font-size="10.00">string</text>
</g>
<!-- Node2&#45;&gt;Node3 -->
<g id="edge2" class="edge"><title>Node2&#45;&gt;Node3</title>
<path fill="none" stroke="midnightblue" d="M134.189,-56.3993C108.775,-46.2509 74.8561,-32.706 50.6977,-23.0588"/>
<polygon fill="midnightblue" stroke="midnightblue" points="51.9007,-19.7705 41.3158,-19.3124 49.3047,-26.2714 51.9007,-19.7705"/>
</g>
<!-- Node4 -->
<g id="node4" class="node"><title>Node4</title>
<polygon fill="none" stroke="#bfbfbf" points="59,-0.5 59,-19.5 94,-19.5 94,-0.5 59,-0.5"/>
<text text-anchor="middle" x="76.5" y="-7.5" font-family="Helvetica,sans-Serif" font-size="10.00">map</text>
</g>
<!-- Node2&#45;&gt;Node4 -->
<g id="edge3" class="edge"><title>Node2&#45;&gt;Node4</title>
<path fill="none" stroke="midnightblue" d="M147.46,-56.3993C132.692,-46.9511 113.323,-34.5589 98.5525,-25.1089"/>
<polygon fill="midnightblue" stroke="midnightblue" points="100.342,-22.0988 90.0323,-19.6578 96.5696,-27.9953 100.342,-22.0988"/>
</g>
<!-- Node5 -->
<g id="node5" class="node"><title>Node5</title>
<polygon fill="none" stroke="#bfbfbf" points="112.5,-0.5 112.5,-19.5 156.5,-19.5 156.5,-0.5 112.5,-0.5"/>
<text text-anchor="middle" x="134.5" y="-7.5" font-family="Helvetica,sans-Serif" font-size="10.00">vector</text>
</g>
<!-- Node2&#45;&gt;Node5 -->
<g id="edge4" class="edge"><title>Node2&#45;&gt;Node5</title>
<path fill="none" stroke="midnightblue" d="M161.205,-56.3993C156.277,-48.0207 149.986,-37.3269 144.749,-28.4229"/>
<polygon fill="midnightblue" stroke="midnightblue" points="147.68,-26.5025 139.593,-19.6578 141.646,-30.0517 147.68,-26.5025"/>
</g>
<!-- Node6 -->
<g id="node6" class="node"><title>Node6</title>
<polygon fill="none" stroke="#bfbfbf" points="175,-0.5 175,-19.5 234,-19.5 234,-0.5 175,-0.5"/>
<text text-anchor="middle" x="204.5" y="-7.5" font-family="Helvetica,sans-Serif" font-size="10.00">functional</text>
</g>
<!-- Node2&#45;&gt;Node6 -->
<g id="edge5" class="edge"><title>Node2&#45;&gt;Node6</title>
<path fill="none" stroke="midnightblue" d="M177.795,-56.3993C182.723,-48.0207 189.014,-37.3269 194.251,-28.4229"/>
<polygon fill="midnightblue" stroke="midnightblue" points="197.354,-30.0517 199.407,-19.6578 191.32,-26.5025 197.354,-30.0517"/>
</g>
<!-- Node7 -->
<g id="node7" class="node"><title>Node7</title>
<polygon fill="none" stroke="#bfbfbf" points="252,-0.5 252,-19.5 297,-19.5 297,-0.5 252,-0.5"/>
<text text-anchor="middle" x="274.5" y="-7.5" font-family="Helvetica,sans-Serif" font-size="10.00">iosfwd</text>
</g>
<!-- Node2&#45;&gt;Node7 -->
<g id="edge6" class="edge"><title>Node2&#45;&gt;Node7</title>
<path fill="none" stroke="midnightblue" d="M194.384,-56.3993C211.214,-46.8619 233.339,-34.3248 250.073,-24.8422"/>
<polygon fill="midnightblue" stroke="midnightblue" points="252.247,-27.633 259.222,-19.6578 248.796,-21.5429 252.247,-27.633"/>
</g>
<!-- Node9 -->
<g id="node9" class="node"><title>Node9</title>
<polygon fill="none" stroke="#bfbfbf" points="315.5,-0.5 315.5,-19.5 445.5,-19.5 445.5,-0.5 315.5,-0.5"/>
<text text-anchor="middle" x="380.5" y="-7.5" font-family="Helvetica,sans-Serif" font-size="10.00">InfoLogger/InfoLogger.hxx</text>
</g>
<!-- Node8&#45;&gt;Node9 -->
<g id="edge8" class="edge"><title>Node8&#45;&gt;Node9</title>
<path fill="none" stroke="midnightblue" d="M380.5,-61.9751C380.5,-53.5803 380.5,-40.4806 380.5,-29.6631"/>
<polygon fill="midnightblue" stroke="midnightblue" points="384,-29.5091 380.5,-19.5091 377,-29.5091 384,-29.5091"/>
</g>
<!-- Node10 -->
<g id="node10" class="node"><title>Node10</title>
<polygon fill="none" stroke="#bfbfbf" points="463.5,-0.5 463.5,-19.5 625.5,-19.5 625.5,-0.5 463.5,-0.5"/>
<text text-anchor="middle" x="544.5" y="-7.5" font-family="Helvetica,sans-Serif" font-size="10.00">InfoLogger/InfoLoggerMacros.hxx</text>
</g>
<!-- Node8&#45;&gt;Node10 -->
<g id="edge9" class="edge"><title>Node8&#45;&gt;Node10</title>
<path fill="none" stroke="midnightblue" d="M403.997,-61.9751C432.129,-51.7687 479.429,-34.608 511.289,-23.0492"/>
<polygon fill="midnightblue" stroke="midnightblue" points="512.84,-26.2098 521.046,-19.5091 510.452,-19.6295 512.84,-26.2098"/>
</g>
</g>
</svg>
