<?xml version="1.0" encoding="UTF-8" standalone="no"?>
<!DOCTYPE svg PUBLIC "-//W3C//DTD SVG 1.1//EN"
 "http://www.w3.org/Graphics/SVG/1.1/DTD/svg11.dtd">
<!-- Generated by graphviz version 2.38.0 (20140413.2041)
 -->
<!-- Title: Modules/FT0/include/FT0/Utilities.h Pages: 1 -->
<svg width="521pt" height="95pt"
 viewBox="0.00 0.00 520.50 95.00" xmlns="http://www.w3.org/2000/svg" xmlns:xlink="http://www.w3.org/1999/xlink">
<g id="graph0" class="graph" transform="scale(1 1) rotate(0) translate(4 91)">
<title>Modules/FT0/include/FT0/Utilities.h</title>
<!-- Node1 -->
<g id="node1" class="node"><title>Node1</title>
<polygon fill="#bfbfbf" stroke="black" points="228.5,-56.5 228.5,-86.5 335.5,-86.5 335.5,-56.5 228.5,-56.5"/>
<text text-anchor="start" x="236.5" y="-74.5" font-family="Helvetica,sans-Serif" font-size="10.00">Modules/FT0/include</text>
<text text-anchor="middle" x="282" y="-63.5" font-family="Helvetica,sans-Serif" font-size="10.00">/FT0/Utilities.h</text>
</g>
<!-- Node2 -->
<g id="node2" class="node"><title>Node2</title>
<polygon fill="none" stroke="#bfbfbf" points="0,-0.5 0,-19.5 44,-19.5 44,-0.5 0,-0.5"/>
<text text-anchor="middle" x="22" y="-7.5" font-family="Helvetica,sans-Serif" font-size="10.00">vector</text>
</g>
<!-- Node1&#45;&gt;Node2 -->
<g id="edge1" class="edge"><title>Node1&#45;&gt;Node2</title>
<path fill="none" stroke="midnightblue" d="M228.092,-59.6524C183.81,-50.506 119.249,-36.6342 54.3052,-20.2132"/>
<polygon fill="midnightblue" stroke="midnightblue" points="54.8578,-16.7422 44.3032,-17.6644 53.1292,-23.5254 54.8578,-16.7422"/>
</g>
<!-- Node3 -->
<g id="node3" class="node"><title>Node3</title>
<polygon fill="none" stroke="#bfbfbf" points="62,-0.5 62,-19.5 184,-19.5 184,-0.5 62,-0.5"/>
<text text-anchor="middle" x="123" y="-7.5" font-family="Helvetica,sans-Serif" font-size="10.00">DataFormatsFT0/Digit.h</text>
</g>
<!-- Node1&#45;&gt;Node3 -->
<g id="edge2" class="edge"><title>Node1&#45;&gt;Node3</title>
<path fill="none" stroke="midnightblue" d="M244.319,-56.3993C217.404,-46.3271 181.548,-32.9093 155.807,-23.2769"/>
<polygon fill="midnightblue" stroke="midnightblue" points="156.728,-19.8846 146.136,-19.6578 154.275,-26.4406 156.728,-19.8846"/>
</g>
<!-- Node4 -->
<g id="node4" class="node"><title>Node4</title>
<polygon fill="none" stroke="#bfbfbf" points="202.5,-0.5 202.5,-19.5 361.5,-19.5 361.5,-0.5 202.5,-0.5"/>
<text text-anchor="middle" x="282" y="-7.5" font-family="Helvetica,sans-Serif" font-size="10.00">DataFormatsFT0/ChannelData.h</text>
</g>
<!-- Node1&#45;&gt;Node4 -->
<g id="edge3" class="edge"><title>Node1&#45;&gt;Node4</title>
<path fill="none" stroke="midnightblue" d="M282,-56.3993C282,-48.4664 282,-38.458 282,-29.8583"/>
<polygon fill="midnightblue" stroke="midnightblue" points="285.5,-29.6577 282,-19.6578 278.5,-29.6578 285.5,-29.6577"/>
</g>
<!-- Node5 -->
<g id="node5" class="node"><title>Node5</title>
<polygon fill="none" stroke="#bfbfbf" points="379,-0.5 379,-19.5 435,-19.5 435,-0.5 379,-0.5"/>
<text text-anchor="middle" x="407" y="-7.5" font-family="Helvetica,sans-Serif" font-size="10.00">Rtypes.h</text>
</g>
<!-- Node1&#45;&gt;Node5 -->
<g id="edge4" class="edge"><title>Node1&#45;&gt;Node5</title>
<path fill="none" stroke="midnightblue" d="M311.623,-56.3993C332.222,-46.5945 359.48,-33.6194 379.58,-24.052"/>
<polygon fill="midnightblue" stroke="midnightblue" points="381.286,-27.116 388.811,-19.6578 378.278,-20.7955 381.286,-27.116"/>
</g>
<!-- Node6 -->
<g id="node6" class="node"><title>Node6</title>
<polygon fill="none" stroke="#bfbfbf" points="453.5,-0.5 453.5,-19.5 512.5,-19.5 512.5,-0.5 453.5,-0.5"/>
<text text-anchor="middle" x="483" y="-7.5" font-family="Helvetica,sans-Serif" font-size="10.00">TObject.h</text>
</g>
<!-- Node1&#45;&gt;Node6 -->
<g id="edge5" class="edge"><title>Node1&#45;&gt;Node6</title>
<path fill="none" stroke="midnightblue" d="M329.38,-56.4747C364.511,-46.0752 411.794,-32.0783 444.583,-22.3722"/>
<polygon fill="midnightblue" stroke="midnightblue" points="445.669,-25.7009 454.264,-19.5064 443.682,-18.9888 445.669,-25.7009"/>
</g>
</g>
</svg>
