<?xml version="1.0" encoding="UTF-8" standalone="no"?>
<!DOCTYPE svg PUBLIC "-//W3C//DTD SVG 1.1//EN"
 "http://www.w3.org/Graphics/SVG/1.1/DTD/svg11.dtd">
<!-- Generated by graphviz version 2.38.0 (20140413.2041)
 -->
<!-- Title: Modules/FT0/include/FT0/Utilities.h Pages: 1 -->
<svg width="808pt" height="106pt"
 viewBox="0.00 0.00 808.00 106.00" xmlns="http://www.w3.org/2000/svg" xmlns:xlink="http://www.w3.org/1999/xlink">
<g id="graph0" class="graph" transform="scale(1 1) rotate(0) translate(4 102)">
<title>Modules/FT0/include/FT0/Utilities.h</title>
<!-- Node1 -->
<g id="node1" class="node"><title>Node1</title>
<polygon fill="#bfbfbf" stroke="black" points="337.5,-67.5 337.5,-97.5 444.5,-97.5 444.5,-67.5 337.5,-67.5"/>
<text text-anchor="start" x="345.5" y="-85.5" font-family="Helvetica,sans-Serif" font-size="10.00">Modules/FT0/include</text>
<text text-anchor="middle" x="391" y="-74.5" font-family="Helvetica,sans-Serif" font-size="10.00">/FT0/Utilities.h</text>
</g>
<!-- Node2 -->
<g id="node2" class="node"><title>Node2</title>
<polygon fill="none" stroke="#bfbfbf" points="0,-0.5 0,-30.5 138,-30.5 138,-0.5 0,-0.5"/>
<text text-anchor="start" x="8" y="-18.5" font-family="Helvetica,sans-Serif" font-size="10.00">Modules/FT0/src/BasicDigit</text>
<text text-anchor="middle" x="69" y="-7.5" font-family="Helvetica,sans-Serif" font-size="10.00">QcTask.cxx</text>
</g>
<!-- Node1&#45;&gt;Node2 -->
<g id="edge1" class="edge"><title>Node1&#45;&gt;Node2</title>
<path fill="none" stroke="midnightblue" d="M327.562,-68.6941C272.958,-57.6716 194.319,-41.7972 138.125,-30.4537"/>
<polygon fill="midnightblue" stroke="midnightblue" points="326.972,-72.1456 337.467,-70.6936 328.357,-65.284 326.972,-72.1456"/>
</g>
<!-- Node3 -->
<g id="node3" class="node"><title>Node3</title>
<g id="a_node3"><a xlink:href="ChannelsCheck_8cxx.html" target="_top" xlink:title="Modules/FT0/src/Channels\lCheck.cxx">
<polygon fill="none" stroke="black" points="156,-0.5 156,-30.5 290,-30.5 290,-0.5 156,-0.5"/>
<text text-anchor="start" x="164" y="-18.5" font-family="Helvetica,sans-Serif" font-size="10.00">Modules/FT0/src/Channels</text>
<text text-anchor="middle" x="223" y="-7.5" font-family="Helvetica,sans-Serif" font-size="10.00">Check.cxx</text>
</a>
</g>
</g>
<!-- Node1&#45;&gt;Node3 -->
<g id="edge2" class="edge"><title>Node1&#45;&gt;Node3</title>
<path fill="none" stroke="midnightblue" d="M344.946,-63.6815C318.002,-53.2568 284.464,-40.2805 259.382,-30.5765"/>
<polygon fill="midnightblue" stroke="midnightblue" points="343.957,-67.0517 354.547,-67.396 346.483,-60.5233 343.957,-67.0517"/>
</g>
<!-- Node4 -->
<g id="node4" class="node"><title>Node4</title>
<g id="a_node4"><a xlink:href="DigitsCheck_8cxx.html" target="_top" xlink:title="Modules/FT0/src/DigitsCheck.cxx">
<polygon fill="none" stroke="black" points="308,-6 308,-25 474,-25 474,-6 308,-6"/>
<text text-anchor="middle" x="391" y="-13" font-family="Helvetica,sans-Serif" font-size="10.00">Modules/FT0/src/DigitsCheck.cxx</text>
</a>
</g>
</g>
<!-- Node1&#45;&gt;Node4 -->
<g id="edge3" class="edge"><title>Node1&#45;&gt;Node4</title>
<path fill="none" stroke="midnightblue" d="M391,-57.2495C391,-46.017 391,-33.3767 391,-25.1945"/>
<polygon fill="midnightblue" stroke="midnightblue" points="387.5,-57.3959 391,-67.396 394.5,-57.396 387.5,-57.3959"/>
</g>
<!-- Node5 -->
<g id="node5" class="node"><title>Node5</title>
<g id="a_node5"><a xlink:href="MergedTreeCheck_8cxx.html" target="_top" xlink:title="Modules/FT0/src/MergedTree\lCheck.cxx">
<polygon fill="none" stroke="black" points="492.5,-0.5 492.5,-30.5 637.5,-30.5 637.5,-0.5 492.5,-0.5"/>
<text text-anchor="start" x="500.5" y="-18.5" font-family="Helvetica,sans-Serif" font-size="10.00">Modules/FT0/src/MergedTree</text>
<text text-anchor="middle" x="565" y="-7.5" font-family="Helvetica,sans-Serif" font-size="10.00">Check.cxx</text>
</a>
</g>
</g>
<!-- Node1&#45;&gt;Node5 -->
<g id="edge4" class="edge"><title>Node1&#45;&gt;Node5</title>
<path fill="none" stroke="midnightblue" d="M438.332,-63.8185C466.3,-53.3707 501.227,-40.3231 527.318,-30.5765"/>
<polygon fill="midnightblue" stroke="midnightblue" points="436.898,-60.6178 428.755,-67.396 439.348,-67.1752 436.898,-60.6178"/>
</g>
<!-- Node6 -->
<g id="node6" class="node"><title>Node6</title>
<g id="a_node6"><a xlink:href="TreeReaderPostProcessing_8cxx.html" target="_top" xlink:title="Modules/FT0/src/TreeReader\lPostProcessing.cxx">
<polygon fill="none" stroke="black" points="656,-0.5 656,-30.5 800,-30.5 800,-0.5 656,-0.5"/>
<text text-anchor="start" x="664" y="-18.5" font-family="Helvetica,sans-Serif" font-size="10.00">Modules/FT0/src/TreeReader</text>
<text text-anchor="middle" x="728" y="-7.5" font-family="Helvetica,sans-Serif" font-size="10.00">PostProcessing.cxx</text>
</a>
</g>
</g>
<!-- Node1&#45;&gt;Node6 -->
<g id="edge5" class="edge"><title>Node1&#45;&gt;Node6</title>
<path fill="none" stroke="midnightblue" d="M454.793,-69.1958C512.097,-58.1431 596.166,-41.928 655.89,-30.4084"/>
<polygon fill="midnightblue" stroke="midnightblue" points="453.927,-65.7981 444.771,-71.1287 455.253,-72.6714 453.927,-65.7981"/>
</g>
</g>
</svg>
